<svg xmlns="http://www.w3.org/2000/svg" style="enable-background:new 0 0 512 512" xml:space="preserve" width="512" height="512"><path style="fill:#ffccbc" d="M256 285.478c-23.121 0-70.415-26.585-73.241-64.948l-5.359-72.764c-3.364-45.683 32.792-84.601 78.599-84.601s81.964 38.918 78.6 84.601l-5.359 72.764c-2.825 38.363-50.119 64.948-73.24 64.948z"/><path style="fill:#bdbdbd" d="M32.106 46.506h36.492v418.988H32.106zM140.692 46.506h36.492v418.988h-36.492zM334.824 46.506h36.492v418.988h-36.492zM443.403 46.506h36.492v418.988h-36.492z"/><path style="fill:#757575" d="M7.5 7.5h497v39.006H7.5zM7.5 465.494h497V504.5H7.5z"/><path style="fill:#ef5350" d="M371.405 304.369h-.09v161.125h47.381V351.66c0-26.118-21.173-47.291-47.291-47.291z"/><path style="fill:#757575" d="M371.405 304.369h-.09v161.125h47.381V351.66c0-26.118-21.173-47.291-47.291-47.291z"/><path style="fill:#424242" d="M371.315 358.077h47.381v53.708h-47.381z"/><path style="fill:#e0e0e0" d="M309.633 304.369c.051 29.664-23.981 53.727-53.633 53.727s-53.683-24.063-53.632-53.727h-25.184v161.125h157.64V304.369h-25.191z"/><path style="fill:#757575" d="M309.633 304.369c.025 14.378-5.62 27.43-14.809 37.075v76.463c0 15.236-12.351 27.587-27.587 27.587h-90.053v20h157.64V304.369h-25.191z"/><path style="fill:#ffccbc" d="M256 358.096c29.652 0 53.683-24.063 53.633-53.727h-6.728a6.768 6.768 0 0 1-6.768-6.768v-27.26c-14.071 9.625-29.609 15.137-40.136 15.137-10.527 0-26.066-5.512-40.137-15.137v27.26a6.768 6.768 0 0 1-6.768 6.768h-6.728c-.051 29.664 23.98 53.727 53.632 53.727z"/><path style="fill:#ff8a65" d="M283.518 68.102c14.48 15.46 22.773 36.706 21.082 59.664l-5.359 72.765c-2.825 38.363-50.12 64.948-73.241 64.948-6.349 0-14.522-2.009-23.096-5.712 16.467 16.06 39.166 25.712 53.096 25.712 23.121 0 70.415-26.585 73.241-64.948l5.359-72.765c2.651-36.009-19.254-67.808-51.082-79.664z"/><path style="fill:#ffccbc" d="M224.085 275.418a104.17 104.17 0 0 1-8.222-5.076v3.798c2.928.692 5.698 1.131 8.222 1.278z"/><path style="fill:#ff8a65" d="M302.904 304.369a6.768 6.768 0 0 1-6.768-6.768v-27.26c-10.04 6.868-20.819 11.627-30 13.798v3.461a6.768 6.768 0 0 0 6.768 6.768c3.782 0 6.767 3.305 6.281 7.055-3.413 26.332-25.924 46.671-53.185 46.671-.406 0-.807-.022-1.211-.031A53.37 53.37 0 0 0 256 358.094c29.652 0 53.683-24.063 53.633-53.727h-6.729z"/><path style="fill:#ef5350" d="M140.595 304.369c-26.118 0-47.291 21.173-47.291 47.291v113.834h47.388V304.369h-.097z"/><path style="fill:#e0e0e0" d="M140.595 304.369c-26.118 0-47.291 21.173-47.291 47.291v113.834h47.388V304.369h-.097z"/><path style="fill:#757575" d="M93.304 358.077h47.388v53.708H93.304zM177.183 358.077h157.64v53.708h-157.64z"/><path style="fill:#424242" d="M294.824 358.077v12.404c0 11.766-9.538 21.305-21.305 21.305h-96.336v20h157.64v-53.708h-39.999z"/><path d="M504.5 54.006a7.5 7.5 0 0 0 7.5-7.5V7.5a7.5 7.5 0 0 0-7.5-7.5H7.5A7.5 7.5 0 0 0 0 7.5v39.006a7.5 7.5 0 0 0 7.5 7.5h17.106v403.988H7.5a7.5 7.5 0 0 0-7.5 7.5V504.5a7.5 7.5 0 0 0 7.5 7.5h497a7.5 7.5 0 0 0 7.5-7.5v-39.006a7.5 7.5 0 0 0-7.5-7.5h-17.106V54.006H504.5zM15 15h482v24.006h-69a7.5 7.5 0 0 0 0 15h7.902v403.988h-9.706V351.66c0-27.716-20.68-50.649-47.381-54.277V54.006H393a7.5 7.5 0 0 0 0-15H15V15zm169.683 442.994v-38.708h80.174a7.5 7.5 0 0 0 0-15h-80.174v-38.708c174.784.011 32.847.005 142.641 0v38.708h-27.467a7.5 7.5 0 0 0 0 15h27.467v38.708H184.683zm-83.879 0v-38.708h32.388v38.708h-32.388zm0-92.417h32.388v38.708h-32.388v-38.708zm32.388-15h-32.364c.509-18.928 14.293-34.603 32.364-38.018v38.018zm15-111.863a7.5 7.5 0 0 0-15 0v58.668c-26.721 3.627-47.388 26.578-47.388 54.278v106.334h-9.706V54.006h57.094v148.708a7.5 7.5 0 0 0 15 0V54.006h21.491v403.988h-21.491v-219.28zM327.324 54.006v39.385C310.822 69.113 283.59 55.665 256 55.665c-27.679 0-54.866 13.52-71.317 37.716V54.006h142.641zm-103.972 283.05c-6.943-6.955-11.384-15.735-12.897-25.256 7.232-.687 12.909-6.79 12.909-14.199v-14.069c11.477 5.934 23.241 9.446 32.637 9.446s21.159-3.512 32.637-9.446v14.069c0 7.409 5.677 13.512 12.909 14.199-1.513 9.52-5.953 18.301-12.897 25.256-17.76 17.789-47.045 18.285-65.298 0zm103.972-40.187h-23.687v-22.678c9.39-6.939 17.652-15.292 23.687-25.116v47.794zm-.204-149.654-5.358 72.765c-2.425 32.924-45.253 57.999-65.761 57.999s-63.336-25.074-65.761-57.999l-5.358-72.765c-3.031-41.147 29.402-76.55 71.12-76.55 41.257 0 74.182 34.945 71.118 76.55zM208.363 274.191v22.678h-23.68v-47.783c6.033 9.817 14.291 18.167 23.68 25.105zm-23.68 37.678h10.644c1.744 14.527 8.639 28.308 20.562 38.708h-31.206v-38.708zm131.99 0h10.651v38.708h-31.212c11.916-10.396 18.816-24.174 20.561-38.708zm25.651-257.863h21.491v403.988h-21.491V54.006zm68.845 296.571h-32.354v-38.006c17.785 3.358 31.833 18.769 32.354 38.006zm-32.354 15h32.381v38.708h-32.381v-38.708zm0 53.709h32.381v38.708h-32.381v-38.708zM39.606 54.006h21.492v403.988H39.606V54.006zM497 497H15v-24.006h482V497zm-24.606-39.006h-21.492V54.006h21.492v403.988z"/></svg>