<svg xmlns="http://www.w3.org/2000/svg" viewBox="0 0 512 512" style="enable-background:new 0 0 512 512" xml:space="preserve"><path style="fill:#ffdc64" d="m281.583 418.761-64.143-25.657h-68.552l-64.143 25.657a34.276 34.276 0 0 0-21.546 31.824V504.5H303.13v-53.915a34.278 34.278 0 0 0-21.547-31.824z"/><path style="fill:#ffc850" d="m108.423 471.573-36.996-43.162c-5.167 6.073-8.23 13.853-8.23 22.174V504.5h51.414v-16.197a25.698 25.698 0 0 0-6.188-16.73zM257.904 471.573l36.996-43.162c5.167 6.073 8.23 13.853 8.23 22.174V504.5h-51.414v-16.197a25.708 25.708 0 0 1 6.188-16.73zM217.44 393.103h-68.552l-25.622 10.249c.899 32.343 27.338 58.303 59.898 58.303s59-25.96 59.898-58.303l-25.622-10.249z"/><path style="fill:#e6af78" d="M354.54 453.09h34.28v51.41h-34.28z"/><path style="fill:#d29b6e" d="M363.656 492.896h-9.113v-25.707h26.251v8.569c0 9.465-7.673 17.138-17.138 17.138z"/><path style="fill:#e6af78" d="M183.164 435.948c-18.93 0-34.276-15.346-34.276-34.276V341.69h68.552v59.983c0 18.929-15.346 34.275-34.276 34.275z"/><path style="fill:#d29b6e" d="M148.888 388.069c10.868 3.237 22.357 5.034 34.276 5.034s23.408-1.797 34.276-5.034v-46.38h-68.552v46.38z"/><path style="fill:#f0c087" d="M285.991 238.862h-8.569v-51.414H88.905v51.414h-8.569c-9.465 0-17.138 7.673-17.138 17.138s7.673 17.138 17.138 17.138h8.569c0 52.058 42.201 94.259 94.259 94.259s94.259-42.201 94.259-94.259h8.569c9.465 0 17.138-7.673 17.138-17.138-.001-9.465-7.674-17.138-17.139-17.138z"/><path style="fill:#e6af78" d="M88.905 187.448v51.414h-7.652c-8.537 0-16.45 5.833-17.82 14.259-1.747 10.737 6.495 20.017 16.903 20.017h8.569c0 52.058 42.201 94.259 94.259 94.259 8.924 0 17.525-1.323 25.707-3.641-39.546-11.201-68.552-47.484-68.552-90.618v-85.69H88.905z"/><path style="fill:#785546" d="M200.302 110.328h-34.276c-47.325 0-85.69 38.365-85.69 85.69v42.845h13.355a17.14 17.14 0 0 0 16.259-11.719l2.905-8.716c1.065-3.195 3.853-5.463 7.204-5.809 20.56-2.12 93.769-10.51 123.088-25.17l13.229 39.695a17.137 17.137 0 0 0 16.259 11.719h13.357v-42.845c-.001-47.326-38.365-85.69-85.69-85.69z"/><path style="fill:#64463c" d="M140.319 196.017c0-42.945 31.625-78.406 72.836-84.623-4.203-.634-8.473-1.067-12.853-1.067h-34.276c-47.325 0-85.69 38.364-85.69 85.69v42.845h13.356a17.139 17.139 0 0 0 16.259-11.72l2.905-8.716c1.065-3.196 3.854-5.464 7.204-5.809a961.852 961.852 0 0 0 20.26-2.322v-14.278h-.001z"/><path style="fill:#ffdc64" d="M183.164 7.5 131.75 144.603h102.828z"/><path style="fill:#ffc850" d="m183.164 7.5-8.569 137.103H131.75z"/><path style="fill:#f0c087" d="M388.819 401.672h-34.276c-9.465 0-17.138 7.673-17.138 17.138v34.276c0 9.465 7.673 17.138 17.138 17.138h17.138c9.465 0 17.138-7.673 17.138-17.138v-51.414z"/><path style="fill:#ff507d" d="M448.802 84.621c0 68.552-34.528 128.534-77.121 128.534S294.56 153.172 294.56 84.621c0-42.593 34.528-77.121 77.121-77.121s77.121 34.528 77.121 77.121z"/><path style="fill:#ff507d" d="M388.819 247.431h-34.276l8.569-42.845h17.138z"/><path style="fill:#d23c69" d="M337.405 67.483c0-24.061 11.027-45.538 28.293-59.681-39.788 3.063-71.138 36.246-71.138 76.819 0 68.552 34.528 128.534 77.121 128.534 13.931 0 26.963-6.506 38.243-17.541-40.439-4.15-72.519-62.08-72.519-128.131z"/><path style="fill:#ff507d" d="m158.076 74.4 41.747-22.478L183.164 7.5z"/><path style="fill:#d23c69" d="M179.71 62.751 183.164 7.5l-25.088 66.9z"/><path style="fill:#ff507d" d="m222.76 113.088-12.607-33.615-69.092 40.303-9.311 24.827h37.608z"/><path style="fill:#d23c69" d="m177.473 98.535-36.412 21.241-9.311 24.827h37.608l5.438-3.208z"/><path d="M284.649 280.638h1.342c13.585 0 24.638-11.052 24.638-24.638 0-10.972-7.208-20.291-17.138-23.471v-36.512c0-20.23-6.374-39.474-18.434-55.649-11.763-15.779-27.838-27.241-46.498-33.172L190.186 4.867a7.5 7.5 0 0 0-14.044 0l-38.374 102.331c-18.394 5.849-34.895 17.613-46.49 33.16-12.064 16.178-18.441 35.425-18.441 55.66v36.512c-9.93 3.18-17.138 12.499-17.138 23.471 0 13.585 11.053 24.638 24.638 24.638h1.342c2.78 38.011 26.536 70.285 59.709 85.28v22.108l-59.429 23.771c-15.953 6.382-26.261 21.607-26.261 38.788V504.5a7.5 7.5 0 0 0 15 0v-53.915c0-11.012 6.607-20.771 16.832-24.861l53.937-21.575c1.287 21.886 19.493 39.299 41.697 39.299 22.203 0 40.409-17.413 41.696-39.299l53.938 21.575c10.225 4.09 16.832 13.849 16.832 24.861V504.5a7.5 7.5 0 0 0 15 0v-53.915c0-17.181-10.308-32.406-26.261-38.788l-59.429-23.771v-22.108c33.173-14.995 56.929-47.269 59.709-85.28zM142.572 137.104l3.489-9.303 60.885-35.519 5.204 13.877-53.049 30.945h-16.529zm19.942-53.179 33.891-19.754 5.198 13.862-47.207 27.539 8.118-21.647zm54.98 36.482 6.261 16.697h-34.884l28.623-16.697zm-34.33-91.547 7.898 21.063-20.216 11.784 12.318-32.847zM96.405 273.138a7.5 7.5 0 0 0-7.5-7.5h-8.569c-5.314 0-9.638-4.323-9.638-9.638s4.324-9.638 9.638-9.638H93.69a24.606 24.606 0 0 0 23.374-16.847l2.99-8.97c8.2-.265 24.879-1.171 44.97-4.262 38.046-5.853 68.613-16.338 90.851-31.164 3.447-2.298 4.378-6.954 2.08-10.401s-6.955-4.377-10.4-2.08c-48.885 32.59-132.11 33.016-132.943 33.016a7.5 7.5 0 0 0-7.115 5.128l-4.663 13.989a9.625 9.625 0 0 1-9.143 6.59h-5.854v-35.345c0-29.976 16.756-56.627 42.783-69.759l-5.892 15.712a7.498 7.498 0 0 0 7.023 10.133h102.828a7.501 7.501 0 0 0 7.023-10.134l-5.892-15.712c26.026 13.133 42.783 39.786 42.783 69.759v35.345h-5.854a9.625 9.625 0 0 1-9.143-6.59l-4.663-13.988a7.5 7.5 0 0 0-14.23 4.744l4.663 13.988a24.605 24.605 0 0 0 23.374 16.847h13.354c5.314 0 9.638 4.323 9.638 9.638s-4.324 9.638-9.638 9.638h-8.569a7.5 7.5 0 0 0-7.5 7.5c0 47.839-38.92 86.759-86.759 86.759s-86.761-38.919-86.761-86.758zm113.534 128.534c0 14.764-12.012 26.776-26.776 26.776s-26.776-12.012-26.776-26.776v-30.351c8.535 2.33 17.512 3.575 26.776 3.575s18.241-1.246 26.776-3.575v30.351z"/><path d="M140.319 248.5a7.5 7.5 0 0 0-7.5 7.5v8.569a7.5 7.5 0 0 0 15 0V256a7.5 7.5 0 0 0-7.5-7.5zM226.009 272.069a7.5 7.5 0 0 0 7.5-7.5V256a7.5 7.5 0 0 0-15 0v8.569a7.5 7.5 0 0 0 7.5 7.5zM213.633 313.208a7.5 7.5 0 1 0-9.524-11.587c-5.306 4.361-12.94 6.863-20.945 6.863s-15.638-2.501-20.944-6.863a7.5 7.5 0 0 0-9.524 11.587c8.061 6.626 18.882 10.275 30.469 10.275 11.586 0 22.407-3.649 30.468-10.275zM103.714 448.926a7.499 7.499 0 0 0-10.4-2.08 7.498 7.498 0 0 0-2.08 10.4l15.878 23.817V504.5a7.5 7.5 0 0 0 15 0v-25.707a7.493 7.493 0 0 0-1.26-4.16l-17.138-25.707zM273.014 446.846a7.5 7.5 0 0 0-10.4 2.08l-17.138 25.707a7.501 7.501 0 0 0-1.26 4.16V504.5a7.5 7.5 0 0 0 15 0v-23.436l15.878-23.817a7.5 7.5 0 0 0-2.08-10.401zM371.681 0c-46.66 0-84.621 37.961-84.621 84.621 0 34.751 8.394 68.062 23.635 93.796 12.001 20.264 27.063 33.748 43.539 39.328l-6.967 27.867a7.5 7.5 0 0 0 7.276 9.32h9.638v139.241h-9.638c-13.585 0-24.638 11.053-24.638 24.638v34.276c0 10.971 7.209 20.286 17.138 23.467V504.5a7.5 7.5 0 0 0 15 0v-26.776h9.638a24.5 24.5 0 0 0 9.638-1.965V504.5a7.5 7.5 0 0 0 15 0V401.672a7.5 7.5 0 0 0-7.5-7.5h-9.638V254.931h9.638a7.502 7.502 0 0 0 7.276-9.319l-6.967-27.867c16.476-5.58 31.538-19.064 43.539-39.328 15.242-25.735 23.635-59.045 23.635-93.796C456.302 37.961 418.341 0 371.681 0zm9.638 453.086c0 5.314-4.323 9.638-9.638 9.638h-17.138c-5.314 0-9.638-4.323-9.638-9.638V418.81c0-5.314 4.323-9.638 9.638-9.638h26.776v43.914zm-6.925-232.431 4.819 19.276h-15.064l4.819-19.276h5.426zm45.366-49.882c-13.322 22.494-30.397 34.882-48.079 34.882-17.683 0-34.757-12.388-48.08-34.882-13.689-23.115-21.541-54.516-21.541-86.152C302.06 46.232 333.291 15 371.681 15s69.621 31.232 69.621 69.621c0 31.636-7.852 63.037-21.542 86.152z"/><path d="M421.013 74.547c-4.759-23.335-25.506-40.271-49.332-40.271a7.5 7.5 0 0 0 0 15c16.728 0 31.293 11.889 34.634 28.269a7.503 7.503 0 0 0 8.847 5.85 7.501 7.501 0 0 0 5.851-8.848z"/></svg>