<svg xmlns="http://www.w3.org/2000/svg" viewBox="0 0 511.998 511.998" style="enable-background:new 0 0 511.998 511.998" xml:space="preserve"><path style="fill:#363640" d="M380.34 346.128H131.659c-38.437 0-69.596 31.16-69.596 69.596v88.414h387.874v-88.414c0-38.437-31.16-69.596-69.597-69.596z"/><path style="fill:#fff7e6" d="M219.328 504.138h73.343l63.422-158.01H155.907z"/><path style="fill:#5a4146" d="M109.947 198.454v-27.832C109.947 90.089 175.466 24.57 256 24.57s146.053 65.519 146.053 146.053v27.832H109.947z"/><circle style="fill:#f2b09d" cx="140.17" cy="205.794" r="34.652"/><circle style="fill:#f2b09d" cx="371.822" cy="205.794" r="34.652"/><path style="opacity:.1;enable-background:new" d="M94.197 357.085c12.712 20.395 31.465 32.069 51.626 32.069H366.18c20.161 0 38.914-11.674 51.625-32.069a69.244 69.244 0 0 0-37.462-10.956H131.659a69.225 69.225 0 0 0-37.462 10.956z"/><path style="fill:#ffbba8" d="M366.179 223.112v-52.489c0-60.851-49.328-110.179-110.179-110.179-60.85 0-110.179 49.328-110.179 110.179v52.489c-23.32 0-42.225 31.304-42.225 69.919s18.904 69.919 42.225 69.919h220.358c23.32 0 42.225-31.304 42.225-69.919 0-38.615-18.905-69.919-42.225-69.919z"/><path style="fill:#5a4146" d="M232.879 201.773c-19.288-17.441-29.184 18.952-55.361-2.757 0 0-8.343 48.602 37.351 38.947s31.924-28.412 31.924-28.412l-13.914-7.778zM279.12 201.773c19.288-17.441 29.184 18.952 55.361-2.757 0 0 8.343 48.602-37.351 38.947s-31.924-28.412-31.924-28.412l13.914-7.778z"/><path style="fill:#e18caf" d="M256 178.652c-12.77 0-23.121 10.352-23.121 23.121v3.868c0 12.77 10.352 23.121 23.121 23.121 12.77 0 23.121-10.352 23.121-23.121v-3.868c0-12.77-10.351-23.121-23.121-23.121z"/><path style="fill:#735359" d="M369.361 37.454C332.749 42.01 319.628-21.067 256 24.448c-63.628-45.515-76.749 17.562-113.361 13.005-4.724-.588-7.969 4.654-5.151 8.49C150.476 63.622 183.75 91.332 256 64.423c72.25 26.909 105.524-.801 118.512-18.479 2.818-3.837-.427-9.077-5.151-8.49z"/><path style="fill:#8c656d" d="M151.612 60.29C181.88 55.008 197.846 5.909 256 47.508c58.154-41.599 74.12 7.501 104.388 12.782a70.404 70.404 0 0 0 14.125-14.346c2.818-3.836-.427-9.078-5.151-8.49-36.612 4.556-49.733-58.521-113.361-13.005-63.629-45.516-76.749 17.561-113.361 13.005-4.724-.588-7.969 4.654-5.151 8.49a70.312 70.312 0 0 0 14.123 14.346z"/><path style="fill:#cc5051" d="M201.178 390.711c2.512 23.262 43.647-9.625 43.647-9.625v-15.632s-41.135-32.886-43.647-9.625v34.882zM310.82 390.711c-2.512 23.262-43.647-9.625-43.647-9.625v-15.632s41.135-32.886 43.647-9.625v34.882z"/><path style="fill:#ff6465" d="M261.346 355.495h-10.692c-9.817 0-17.775 7.958-17.775 17.775 0 9.817 7.958 17.775 17.775 17.775h10.692c9.817 0 17.775-7.958 17.775-17.775 0-9.817-7.958-17.775-17.775-17.775z"/><path style="fill:#2b2b33" d="M256 255.636c-17.97 0-32.536 14.566-32.536 32.536v14.17c0 .214.012.426.016.638l32.52 2.996 32.519-2.997c.004-.213.016-.424.016-.638v-14.17c.001-17.967-14.567-32.535-32.535-32.535z"/><path style="fill:#ff6465" d="M288.52 302.98c-9.098-3.986-20.344-6.346-32.519-6.346-12.176 0-23.421 2.359-32.52 6.346.342 17.673 14.765 31.897 32.52 31.897 17.754.001 32.176-14.223 32.519-31.897z"/><path d="M237.364 133.479c-5.671-10.726-17.849-17.657-31.027-17.657s-25.355 6.93-31.026 17.657a7.862 7.862 0 0 0 3.277 10.624 7.861 7.861 0 0 0 10.624-3.277c2.981-5.638 9.703-9.281 17.126-9.281 7.423 0 14.146 3.644 17.127 9.281a7.86 7.86 0 0 0 10.624 3.276 7.86 7.86 0 0 0 3.275-10.623zM206.337 146.89c-10.093 0-19.442 5.349-23.818 13.624a7.86 7.86 0 0 0 3.274 10.624 7.86 7.86 0 0 0 10.624-3.274c1.686-3.19 5.58-5.251 9.92-5.251s8.233 2.062 9.921 5.251a7.858 7.858 0 0 0 10.624 3.274 7.86 7.86 0 0 0 3.274-10.624c-4.375-8.276-13.725-13.624-23.819-13.624zM336.632 133.479c-5.671-10.726-17.848-17.657-31.026-17.657s-25.356 6.93-31.027 17.657a7.862 7.862 0 0 0 3.277 10.624 7.86 7.86 0 0 0 10.624-3.277c2.981-5.638 9.704-9.281 17.127-9.281 7.423 0 14.145 3.644 17.126 9.281a7.86 7.86 0 0 0 10.624 3.276 7.86 7.86 0 0 0 3.275-10.623zM305.606 146.89c-10.094 0-19.443 5.349-23.819 13.624a7.86 7.86 0 0 0 3.274 10.624 7.86 7.86 0 0 0 10.624-3.274c1.686-3.19 5.58-5.251 9.921-5.251s8.232 2.061 9.919 5.25a7.859 7.859 0 0 0 10.624 3.276 7.862 7.862 0 0 0 3.277-10.624c-4.376-8.277-13.725-13.625-23.82-13.625z"/><circle cx="253.947" cy="433.129" r="8.887"/><circle cx="253.947" cy="473.755" r="8.887"/><path d="M308.212 247.002c9.732-.083 19.233-2.99 25.841-10.83 5.23-6.205 8.178-14.644 8.758-25.081.335-6.028 1.526-16.801-5.631-19.447-3.612-1.335-6.523.523-9.354 2.588-3.352 2.444-7.291 4.416-11.556 3.965-4.318-.457-8.094-3.024-11.868-4.949-4.486-2.288-9.234-4.24-14.353-4.24-1.864 0-3.701.277-5.511.777-4.696-11.147-15.733-18.994-28.567-18.994-12.835 0-23.871 7.846-28.566 18.994-1.811-.5-3.648-.777-5.511-.777-9.376 0-15.996 6.709-24.662 8.878-5.494 1.375-10.625-1.522-14.723-4.921-3.608-2.991-9.219-2.08-11.694 1.902-2.579 4.15-1.939 11.58-1.679 16.224.474 8.492 2.624 17.249 7.941 24.066 5.262 6.746 13.319 10.721 21.741 11.667 5.886.661 11.876.05 17.65-1.17 12.748-2.694 22.268-6.284 28.898-10.904 3.311 1.211 6.883 1.872 10.607 1.872s7.297-.661 10.608-1.872c6.629 4.62 16.149 8.209 28.899 10.904 4.137.876 8.456 1.384 12.732 1.348zm-94.998-16.73c-3.452.728-6.64 1.1-9.477 1.1h-.004c-6.256-.001-10.767-1.736-13.792-5.305-3.033-3.577-4.407-8.736-4.928-13.61 3.021 1.044 6.051 1.56 9.122 1.56 7.602-.001 13.804-3.245 18.788-5.851 3.379-1.767 6.57-3.436 8.97-3.436.703 0 1.698.128 3.097.933.001.817.042 1.623.105 2.423l.02.266a30.813 30.813 0 0 0 6.386 16.258c-4.076 1.905-9.917 3.894-18.287 5.662zm34.28-11.98a15.196 15.196 0 0 1-5.147-5.815c-1.686-3.382-1.635-7.023-1.636-10.704 0-8.414 6.845-15.26 15.26-15.26s15.26 6.846 15.261 15.259c0 2.198.145 4.464-.26 6.635a15.527 15.527 0 0 1-1.556 4.42c-2.608 4.91-7.892 8.074-13.445 8.074-3.044-.001-5.998-.948-8.477-2.609zm32.948 6.318.003-.004a30.812 30.812 0 0 0 6.382-16.236l.024-.314a30.79 30.79 0 0 0 .102-2.364l.001-.03c1.398-.805 2.393-.933 3.096-.933 2.399 0 5.59 1.67 8.967 3.436 4.985 2.606 11.186 5.851 18.789 5.851h.004c3.071-.001 6.101-.517 9.121-1.561-.52 4.876-1.894 10.036-4.925 13.613-3.025 3.567-7.536 5.303-13.793 5.303h-.002c-2.84 0-6.031-.371-9.483-1.1-8.37-1.767-14.21-3.756-18.286-5.661zM296.356 302.988c.007-.214.013-.429.013-.646v-14.17c0-22.275-18.122-40.397-40.397-40.397s-40.397 18.122-40.397 40.397v14.17c0 .221.006.439.014.657l.004.132v.002c.422 21.838 18.538 39.606 40.38 39.606s39.957-17.767 40.379-39.606v-.002l.004-.143zm-65.06-14.815c0-13.605 11.07-24.675 24.676-24.675 13.605 0 24.674 11.07 24.674 24.675v3.765c-8.018-2.164-16.374-3.163-24.675-3.163-8.28 0-16.672 1.004-24.675 3.163v-3.765zm24.675 38.844c-11.511 0-21.326-8.081-23.966-18.868-.354-1.454 21.366-3.653 23.967-3.653 7.837 0 15.718 1.04 23.204 3.396.258.081.506.173.762.257-2.64 10.786-12.454 18.868-23.967 18.868z"/><path d="M405.147 342.354c4.356-8.402 7.63-18.367 9.475-29.518a7.86 7.86 0 1 0-15.511-2.567c-4.024 24.308-16.426 42.376-30.132 44.59-.089.014-.179.024-.269.037-2.897.423-5.975.194-8.899.194h-41.193l-.01-.105a22.803 22.803 0 0 0-.627-3.388c-1.717-6.47-5.87-9.315-8.429-10.48-11.953-5.443-25.71 3.495-35.467 9.779l-.12.075c-.273.176-4.166-1.886-4.697-2.059a25.882 25.882 0 0 0-7.952-1.279c-3.923 0-8.083-.206-12.085.139-2.157.187-4.306.526-6.383 1.145-.749.223-4.492 2.297-5.018 1.959-9.507-6.107-23.825-15.05-35.441-9.761-2.56 1.166-6.712 4.01-8.434 10.498-.304 1.145-.491 2.303-.632 3.477-10.127.003-20.256-.002-30.383-.002h-13.299c-2.93 0-5.874.115-8.728-.666-6.744-1.847-11.984-7.205-15.421-11.84a7.56 7.56 0 0 0-.563-.656c-8.149-11.467-13.501-29.289-13.501-48.896 0-21.435 6.395-40.735 15.85-51.93.205-.188.402-.387.59-.6 4.533-5.139 10.817-9.529 17.924-9.529a7.86 7.86 0 0 0 7.861-7.861v-52.489c0-13.867 3.009-27.663 8.4-40.42 7.419-17.558 20.245-33.111 35.949-43.889.872-.598 3.247-2.814 4.345-2.827.11-.001.223-.006.333-.008 13.447-.187 26.805-2.542 39.696-6.306 4.572-1.335 9.112-2.772 13.597-4.38.651-.234 3.421 1.193 4.078 1.416 15.766 5.353 32.439 9.036 49.21 9.269.111.001.224.006.335.008 11.171 6.894 21.039 15.938 28.754 26.568 7.623 10.503 13.484 22.412 16.661 35.023 2.103 8.349 3.28 16.93 3.28 25.545l-.001 52.489c0 2.085.828 4.084 2.302 5.559 2.179 2.181 4.579 2.099 7.422 2.406 6.431.693 11.891 4.697 16.062 9.425.071.082.151.152.225.23 7.773 8.96 13.626 23.379 15.533 40.259a7.86 7.86 0 0 0 8.693 6.929 7.862 7.862 0 0 0 6.929-8.694c-1.832-16.217-6.961-31.194-14.505-42.484 8.477-7.946 13.361-19.015 13.361-30.945a42.229 42.229 0 0 0-4.424-18.854v-16.321c0-39.371-15.366-77.478-42.433-105.983 5.969-4.891 10.347-9.931 13.367-14.042 2.955-4.023 3.394-9.28 1.147-13.72-2.29-4.521-6.852-7.33-11.908-7.33-2.701 0-5.249.435-7.95.013-8.615-1.348-15.892-7.162-22.738-12.144C328.154 9.253 315.441 0 297.636 0c-12.849 0-26.52 4.883-41.665 14.906C240.826 4.883 227.155 0 214.305 0c-17.806 0-30.52 9.253-41.736 17.417-6.608 4.81-13.341 10.335-21.576 11.949-3.025.593-6.056.181-9.107.181-5.056 0-9.62 2.809-11.908 7.33-2.248 4.44-1.809 9.698 1.148 13.721 3.021 4.111 7.4 9.154 13.37 14.045a154.855 154.855 0 0 0-21.148 27.971 7.862 7.862 0 0 0 13.538 7.994 139.193 139.193 0 0 1 20.881-27.099c-.081.082 19.299 7.155 20.979 7.745-1.039-.365-10.413 10.691-11.57 11.956-3.585 3.921-6.783 8.109-9.701 12.547-6.37 9.692-11.337 20.308-14.651 31.424a118.308 118.308 0 0 0-4.579 25.029c-.02.281-.045.561-.064.842-.006.093-.015.186-.021.278-.026.001-.052.005-.08.006-7.111.342-14.155 2.542-20.216 6.273-.027.017-.056.03-.083.047.099-14.32 2.389-28.421 6.811-41.926a7.862 7.862 0 1 0-14.943-4.893c-5.04 15.391-7.594 31.467-7.594 47.783v16.321a42.242 42.242 0 0 0-4.424 18.854c0 11.906 4.866 22.955 13.312 30.897-9.439 14.065-15.238 33.953-15.238 56.337 0 18.892 4.133 36.003 11.095 49.341-31.052 10.468-52.6 39.716-52.6 73.353v28.944c0 4.343 3.519 7.861 7.861 7.861s7.861-3.519 7.861-7.861v-28.944c0-28.309 19.137-52.725 46.126-59.725 6.729 7.604 14.776 12.626 23.593 14.235l.232.044a33.4 33.4 0 0 0 5.81.529c.036 0 .071.004.135.004h11.805l50.359 125.465h-69.199v-89.511a7.86 7.86 0 0 0-7.861-7.861 7.86 7.86 0 0 0-7.861 7.861v89.511H69.923v-20.164c0-4.342-3.519-7.861-7.861-7.861s-7.861 3.519-7.861 7.861v28.026a7.86 7.86 0 0 0 7.861 7.861h387.874a7.86 7.86 0 0 0 7.861-7.861v-88.415c.001-33.654-21.571-62.916-52.65-73.368zm-288.258-149.73c2.295-4.044 5.615-7.514 9.679-9.907l.095-.056a26.707 26.707 0 0 1 11.27-3.551v37.052c-5.977 1.406-11.573 4.401-16.615 8.702-5.062-4.975-7.961-11.768-7.961-19.067-.001-4.627 1.266-9.179 3.532-13.173zm260.331-13.056c12.111 2.504 21.368 13.693 21.368 26.23 0 7.312-2.909 14.117-7.986 19.093-.383-.328-.772-.631-1.16-.943-.048-.039-.095-.079-.144-.116-4.772-3.806-9.914-6.396-15.286-7.664v-.058l.001-36.998a26.84 26.84 0 0 1 3.047.423c.053.011.107.021.16.033zm16.857-9.957c-6.058-3.729-13.105-5.935-20.214-6.273-.027-.001-.053-.005-.08-.006-.006-.093-.015-.186-.021-.278-.018-.281-.043-.561-.064-.842-1.628-22.452-9.911-44.2-23.303-62.266a114.702 114.702 0 0 0-14.106-15.778c-.334-.31-2.85-3.082-3.317-2.979 7.57-1.664 14.651-4.227 21.203-7.678 25.256 25.567 39.729 60.243 39.984 96.147l-.082-.047zM181.82 30.129c10.18-7.408 19.795-14.407 32.485-14.407 10.735 0 22.868 4.946 37.092 15.121a7.86 7.86 0 0 0 9.147 0c14.223-10.174 26.356-15.121 37.091-15.121 12.688 0 22.303 6.997 32.481 14.406 10.223 7.441 20.784 15.13 34.615 15.416a62.07 62.07 0 0 1-13.281 11.411c-.086.049-.177.083-.262.136-22.479 14.2-50.903 12.234-75.516 5.47-4.134-1.136-8.278-2.338-12.298-3.835-2.382-.888-4.804-2.164-7.405-2.164-.93 0-1.858.165-2.743.495-29.759 11.091-66.523 18.004-94.572-1.318a61.828 61.828 0 0 1-6.436-5.099c-.763-.692-4.209-5.113-5.011-5.095 13.831-.29 24.393-7.977 34.613-15.416zm31.614 325.693c4.972 1.16 9.464 4.318 13.74 6.928l.046.029c-.269-.166-1.942 6.747-1.999 7.197-.561 4.448.012 9.026 1.741 13.166-8.624 5.263-14.499 7.255-17.358 7.256-.156 0-.285-.007-.39-.016a5.912 5.912 0 0 1-.174-.774V362.95c0-.192-.015-.379-.028-.568v-6.07c.033-.22.068-.406.104-.561l.015-.056c.029-.122.059-.23.086-.313.104-.009.232-.017.389-.017a16.93 16.93 0 0 1 3.828.457zm73.061 5.861c4.697-2.9 10.453-6.316 15.843-6.316.157 0 .286.007.389.017.085.009.204.859.204.93v33.139a5.78 5.78 0 0 1-.203.93 4.458 4.458 0 0 1-.391.017c-2.859 0-8.733-1.993-17.356-7.257.245.15 1.801-6.932 1.851-7.488.4-4.378-.305-8.86-2.11-12.874l1.773-1.098zm-25.178 1.673c4.052 0 7.909 2.724 9.307 6.51a9.9 9.9 0 0 1 .362 5.592c-.949 4.157-5.489 6.951-9.668 6.951h-10.691c-3.943 0-8.725-2.984-9.644-6.865a10.002 10.002 0 0 1 .118-5.009c1.183-4.192 5.187-7.179 9.527-7.179h10.689zm-68.027 7.456c0 7.377-1.156 15.88.427 23.096.516 2.35 1.427 4.685 2.842 6.644 6.154 8.518 16.931 6.924 25.434 3.552 4.392-1.742 9.665-4.439 16.011-8.534l.038.02c6.237 3.498 13.034 3.315 19.953 3.315 5.655 0 10.979-.478 15.987-3.328l.091.058c6.179 3.983 12.663 7.649 19.722 9.821l.096.029c9.281 2.833 13.697.83 15.661-.064 2.56-1.166 6.716-4.012 8.433-10.495.521-1.967 1.102-24.116.668-24.116h18.722l-50.048 124.692h-62.712L174.567 370.81h18.723v.002zm248.786 125.466H388.88v-89.511c0-4.342-3.519-7.861-7.861-7.861s-7.861 3.519-7.861 7.861v89.511h-69.199l50.359-125.465h11.862c1.358 0 2.729-.085 4.078-.251 9.581-1.149 18.386-6.305 25.678-14.566 26.997 6.994 46.141 31.415 46.141 59.729l-.001 80.553z"/></svg>