<svg xmlns="http://www.w3.org/2000/svg" viewBox="0 0 480 480" style="enable-background:new 0 0 480 480" xml:space="preserve"><path style="fill:#a38563" d="M136 264H80c-17.68 0-32 14.32-32 32v176h88V264z"/><path style="fill:#806749" d="M296 440v-32H184v32h-48v32h208v-32z"/><path style="fill:#a38563" d="M400 264h-56v208h88V296c0-17.68-14.32-32-32-32z"/><path style="fill:#e6e6e6" d="M384 48h32v216h-32z"/><path style="fill:#999" d="M360 64h24v16h-24z"/><path style="fill:#ccc" d="M400 48h16v216h-16z"/><path style="fill:#a38563" d="M295.36 264c-10.96 19.12-31.68 32-55.36 32s-44.4-12.88-55.36-32H184v144h112V264h-.64z"/><path style="fill:#ca7300" d="M184 440V264h-48v176zM296 408v32h48V264h-48v56z"/><path style="fill:#806749" d="M160 264v80l32-32 48 48 48-48 32 32v-80z"/><path style="fill:#d7cabb" d="m216 288 24 48 24-48z"/><path style="fill:#ffd422" d="M152 400h16v16h-16zM312 400h16v16h-16z"/><path style="fill:#fe946f" d="M344 344v-32h16l24 32z"/><path style="fill:#ffb398" d="M344 344h88v128h-88z"/><path style="fill:#fe946f" d="M344 432h32v16h-32zM344 400h32v16h-32zM344 368h32v16h-32z"/><path style="fill:#d4c8b8" d="M136.64 152c-13.255 0-24 10.745-24 24v32H88v16c0 13.255 10.745 24 24 24 0 8.837 7.163 16 16 16h216.64c8.837 0 16-7.163 16-16 13.255 0 24-10.745 24-24v-16H360v-32c0-13.255-10.745-24-24-24H136.64z"/><path style="fill:#ebe5dd" d="M304 136v96c0 11.68-3.12 22.64-8.64 32-10.96 19.12-31.68 32-55.36 32s-44.4-12.88-55.36-32c-5.52-9.36-8.64-20.32-8.64-32v-96h128z"/><path style="fill:#d4c8b8" d="M224 240h-24v-16h24c4.41 0 8-3.59 8-8v-16h16v16c0 13.234-10.766 24-24 24z"/><path style="fill:#d4c8b8" d="M280 240h-24c-13.234 0-24-10.766-24-24v-16h16v16c0 4.41 3.59 8 8 8h24v16z"/><path style="fill:#ffb398" d="M208 136h64v64h-64z"/><path style="fill:#ee8700" d="M240 176h-16v-16h8v-24h16v32a8 8 0 0 1-8 8z"/><path style="fill:#806749" d="M336 136H144V96c0-8.837 7.163-16 16-16h160c8.837 0 16 7.163 16 16v40z"/><path style="fill:#ee8700" d="m160 80 27.777-62.498A16 16 0 0 1 202.398 8h13.039c5.35 0 10.345 2.674 13.313 7.125l.424.636c5.601 8.401 17.487 9.578 24.627 2.439l5.513-5.513c3-3.001 7.07-4.687 11.313-4.687h13.84a16 16 0 0 1 15.179 10.94L320 80H160z"/><path style="fill:#68533b" d="M320 80h-32c8.836 0 16 7.163 16 16v40h32V96c0-8.837-7.164-16-16-16z"/><path style="fill:#ca7300" d="M275.647 18.94 296 80h24l-20.353-61.06A16 16 0 0 0 284.468 8h-13.84c-1.727 0-3.403.347-5.012.88 4.639 1.582 8.419 5.226 10.031 10.06z"/><path style="fill:#fe946f" d="M144 136h32v48h-16c-8.837 0-16-7.163-16-16v-32zM336 136h-32v48h16c8.837 0 16-7.163 16-16v-32z"/><path d="M423.965 264.175c.001-.062.035-.113.035-.175V48a8 8 0 0 0-8-8h-32a8 8 0 0 0-8 8v16h-16v16h16v120h-8v-24c0-14.866-10.238-27.286-24-30.864V96c0-11.13-7.65-20.428-17.943-23.13l-18.819-56.46A23.973 23.973 0 0 0 284.469 0h-13.84c-6.41 0-12.441 2.496-16.973 7.031l-5.512 5.512c-1.703 1.703-4.051 2.512-6.445 2.305-2.395-.238-4.531-1.523-6.293-4.16A23.951 23.951 0 0 0 215.438 0h-13.039a24.013 24.013 0 0 0-21.93 14.25l-25.977 58.449C143.916 75.203 136 84.669 136 96v48.065c-17.343.351-31.359 14.51-31.359 31.935v24H88a8 8 0 0 0-8 8v16c0 15.285 10.77 28.102 25.121 31.254.082.258.214.492.304.746H80c-22.055 0-40 17.945-40 40v176a8 8 0 0 0 8 8h384a8 8 0 0 0 8-8V296c0-13.032-6.358-24.517-16.035-31.825zM424 336h-36.001l-21.601-28.801A7.986 7.986 0 0 0 360 304h-8v-32h48c13.234 0 24 10.766 24 24v40zm-272-64v72a8.003 8.003 0 0 0 4.938 7.391 8.022 8.022 0 0 0 8.719-1.734L176 339.313V432h-32V272h8zm0-128h16v32h-8c-4.41 0-8-3.59-8-8v-24zm88 32a8 8 0 0 0 8-8v-24h16v48h-48v-48h16v16h-8v16h16zm-32 32h24v8c0 4.41-3.59 8-8 8h-24v16h24c6.169 0 11.744-2.404 16-6.242 4.256 3.838 9.831 6.242 16 6.242h24v-16h-24c-4.41 0-8-3.59-8-8v-8h24a8 8 0 0 0 8-8v-56h16v88c0 9.922-2.605 19.582-7.582 28.02-6.831 11.919-17.837 20.611-30.547 24.916l-1.549.53C251.09 287.068 245.617 288 240 288c-2.497 0-4.971-.167-7.409-.495-3.047-.409-6.007-1.15-8.914-2.042l-1.546-.53c-12.714-4.31-23.733-13.02-30.6-24.997C186.605 251.582 184 241.922 184 232v-88h16v56a8 8 0 0 0 8 8zm120-64v24c0 4.41-3.59 8-8 8h-8v-32h16zm-88 160c2.453 0 4.873-.209 7.284-.456L240 318.113l-7.284-14.569c2.411.247 4.831.456 7.284.456zm-59.812-32c.474.712 1.045 1.339 1.543 2.032a71.218 71.218 0 0 0 2.541 3.346 71.279 71.279 0 0 0 3.293 3.749c.945 1.009 1.89 2.006 2.888 2.956 1.21 1.152 2.475 2.227 3.76 3.29 1.048.867 2.085 1.737 3.179 2.542 1.362 1.002 2.78 1.907 4.208 2.811 1.123.71 2.225 1.441 3.385 2.089 1.52.848 3.096 1.576 4.674 2.313.878.41 1.709.914 2.604 1.289l20.582 41.164c1.355 2.711 4.125 4.422 7.156 4.422s5.801-1.711 7.156-4.422l20.58-41.159c.941-.394 1.815-.921 2.738-1.354 1.514-.71 3.029-1.406 4.488-2.219 1.233-.687 2.405-1.462 3.596-2.219 1.344-.855 2.684-1.706 3.969-2.648 1.175-.861 2.287-1.793 3.409-2.726 1.199-.997 2.383-1.999 3.517-3.074 1.069-1.014 2.08-2.08 3.087-3.161a71.442 71.442 0 0 0 3.103-3.528 70.06 70.06 0 0 0 2.654-3.495c.489-.681 1.051-1.296 1.517-1.997H312v52.688l-18.344-18.344a7.998 7.998 0 0 0-11.313 0L240 348.688l-42.344-42.344a7.998 7.998 0 0 0-11.313 0L168 324.688V272h12.188zM376 256h-8.785c.09-.254.222-.488.304-.746 3.025-.665 5.841-1.842 8.48-3.298V256zm-40 56v120h-32v-92.688l10.344 10.344a8.016 8.016 0 0 0 8.719 1.734 8.002 8.002 0 0 0 4.938-7.391v-72h8V312zm-144 11.313 42.344 42.344c1.563 1.563 3.609 2.344 5.656 2.344s4.094-.781 5.656-2.344L288 323.313V400h-96v-76.687zM144 448h40a8 8 0 0 0 8-8v-24h96v24a8 8 0 0 0 8 8h40v16H144v-16zm208-128h4l12 16h-16v-16zm56-264v200h-16V56h16zm-56 120v32a8 8 0 0 0 8 8h16v12.234c-1.87 6.761-8.01 11.766-15.359 11.766a8 8 0 0 0-8 8c0 4.41-3.59 8-8 8h-36.919c2.724-7.645 4.278-15.732 4.278-24v-40h8c13.234 0 24-10.766 24-24v-5.775c4.759 2.775 8 7.878 8 13.775zM195.09 20.746A8 8 0 0 1 202.399 16h13.039c2.68 0 5.168 1.332 7.082 4.199a23.915 23.915 0 0 0 17.602 10.57 23.959 23.959 0 0 0 19.336-6.914l5.512-5.512a7.953 7.953 0 0 1 5.66-2.344h13.84a7.99 7.99 0 0 1 7.59 5.473L308.9 72H172.309l22.781-51.254zM152 96c0-4.41 3.59-8 8-8h160c4.41 0 8 3.59 8 8v32H152V96zm-32 152a8 8 0 0 0-8-8c-8.824 0-16-7.176-16-16v-8h16.641a8 8 0 0 0 8-8v-32c0-8.605 6.838-15.591 15.359-15.935V168c0 13.234 10.766 24 24 24h8v40c0 8.276 1.555 16.37 4.271 24H128c-4.41 0-8-3.59-8-8zm-64 48c0-13.234 10.766-24 24-24h48v192H56V296zm296 168v-16h24v-16h-24v-16h24v-16h-24v-16h24v-16h-24v-16h72v112h-72z"/><path d="M152 400h16v16h-16zM312 400h16v16h-16z"/></svg>