<svg xmlns="http://www.w3.org/2000/svg" viewBox="0 0 512.002 512.002" style="enable-background:new 0 0 512.002 512.002" xml:space="preserve"><path style="fill:#e6e6e6" d="M201.261 219.045c14.971 0 27.151-12.18 27.151-27.152 0-14.972-12.18-27.152-27.151-27.152-14.973 0-27.153 12.18-27.153 27.152 0 14.972 12.18 27.152 27.153 27.152zm-4.123-31.279a5.877 5.877 0 0 1 4.13-1.703c1.527 0 3.032.618 4.116 1.703a5.873 5.873 0 0 1 1.704 4.128 5.847 5.847 0 0 1-1.704 4.117 5.83 5.83 0 0 1-4.116 1.714 5.842 5.842 0 0 1-4.13-1.714 5.843 5.843 0 0 1 0-8.245z"/><path style="fill:gray" d="M226.83 267.194h15.173v17.668H226.83z"/><path style="fill:#333" d="M214.264 267.196a4.719 4.719 0 0 0-4.712 4.714v37.565a4.718 4.718 0 0 0 4.712 4.713h44.073v-23.495a5.831 5.831 0 0 1 5.831-5.831H291a5.831 5.831 0 0 1 5.831 5.831v23.495h.904a4.72 4.72 0 0 0 4.715-4.713V271.91a4.72 4.72 0 0 0-4.715-4.714h-44.071v23.496a5.831 5.831 0 0 1-5.831 5.831H221a5.83 5.83 0 0 1-5.831-5.831v-23.496h-.905z"/><path style="fill:gray" d="M270.003 296.525h15.173v17.668h-15.173z"/><path style="fill:#81af31" d="M310.741 164.741c-10.544 0-19.696 6.046-24.191 14.848h48.382c-4.496-8.802-13.648-14.848-24.191-14.848z"/><path style="fill:#c43333" d="M310.741 219.045c14.971 0 27.15-12.18 27.15-27.152 0-.215-.012-.428-.016-.641h-21.368c.026.215.064.426.064.643a5.865 5.865 0 0 1-1.702 4.117 5.858 5.858 0 0 1-4.13 1.714 5.806 5.806 0 0 1-4.116-1.714 5.857 5.857 0 0 1-1.716-4.117c0-.217.041-.428.066-.643h-21.369c-.005.213-.016.426-.016.641.002 14.971 12.182 27.152 27.153 27.152z"/><path style="fill:#81af31" d="M208.473 81.074c-39.06 10.121-58.809 32.086-63.369 37.752v10.762c15.858-21.488 41.499-37.665 63.369-48.514zM234.723 381.912c-14.209 0-26.64-1.606-37.28-4.755 7.823 13.268 31.461 23.215 58.556 23.215 27.1 0 50.754-9.948 58.575-23.22-10.643 3.152-23.08 4.761-37.295 4.761h-42.557v-.001z"/><path style="fill:#ffaa2a" d="M317.696 496.855a5.832 5.832 0 0 1-7.496-3.437 5.831 5.831 0 0 1 3.435-7.497l5.494-2.04-6.287-15.612-16.011 5.208v10.126a5.831 5.831 0 0 1-11.662 0v-6.331l-50.556 16.446 3.376 6.62h87.767l-2.267-5.634-5.793 2.151zM111.183 393.911l-1.1-11.799a5.833 5.833 0 0 1 5.264-6.348c3.207-.294 6.05 2.058 6.348 5.264l.454 4.862 15.079-11.029-17.275-22.96c-7.053 6.01-14.283 13.178-21.11 21.631l8.288 23.34 4.052-2.961zM432.558 446.172l6.489 9.838a5.83 5.83 0 0 1-4.862 9.042 5.825 5.825 0 0 1-4.874-2.622l-4.447-6.743-5.993 7.414v15.01l8.884-.336c3.216-.133 5.924 2.388 6.047 5.607a5.832 5.832 0 0 1-5.608 6.047l-9.324.352v10.553h28.414c-3.578-28.077-6.28-48.12-8.252-62.176l-6.474 8.014z"/><path style="fill:#754c24" d="M414.243 429.064a5.832 5.832 0 0 1 8.088 1.612c.153.227 1.556 2.353 3.488 5.283l10.947-13.542c-1.167-7.86-1.824-11.826-2.067-13.244-20.792-48.358-60.667-72.04-77.488-80.225.024 2.727-.458 17.847-13.371 31.341-4.225 4.417-9.277 8.155-15.127 11.225-3.095 23.007-33.909 40.518-72.715 40.518-38.804 0-69.617-17.511-72.713-40.518-5.851-3.069-10.904-6.811-15.129-11.226-12.91-13.493-13.392-28.612-13.368-31.34-6.163 2.998-15.419 8.083-25.705 15.699l5.171 6.871 6.754-8.099a5.833 5.833 0 0 1 8.959 7.469l-8.509 10.203 8.642 11.484a5.823 5.823 0 0 1 1.108 4.361 5.826 5.826 0 0 1-2.325 3.852l-25.473 18.63 1.226 13.135a5.833 5.833 0 0 1-11.613 1.084l-.578-6.199-4.747 3.472a5.828 5.828 0 0 1-5.16.865 5.823 5.823 0 0 1-3.776-3.621l-8.264-23.264A151.389 151.389 0 0 0 77.3 409.173c-.646 3.78-4.24 25.654-12.588 91.165h74.899V440.49l-10.777-21.02a5.832 5.832 0 0 1 10.377-5.321l11.42 22.274c.421.823.643 1.735.643 2.66v61.256h73.625l-3.775-7.403a5.833 5.833 0 0 1 3.39-8.194l60.657-19.731v-9.471a5.831 5.831 0 0 1 11.662 0v5.677l17.582-5.719a5.834 5.834 0 0 1 7.213 3.367l8.439 20.957 4.528-1.682a5.83 5.83 0 1 1 4.062 10.932l-4.232 1.571 3.905 9.696h22.4v-61.256c0-.926.22-1.837.643-2.66l11.42-22.274a5.83 5.83 0 0 1 7.849-2.528 5.83 5.83 0 0 1 2.528 7.849l-10.777 21.02v59.848h34.821v-10.112l-10.381.393a5.832 5.832 0 1 1-.439-11.656l10.82-.409V461.04c0-1.334.458-2.628 1.297-3.665l9.619-11.9c-2.993-4.538-5.31-8.047-5.494-8.325a5.826 5.826 0 0 1 1.607-8.086z"/><path style="fill:#81af31" d="M166.455 262.242v66.552c0 .086-.001.171-.006.258-.007.226-.062 3.178 1.092 7.4l12.104-13.251a5.832 5.832 0 0 1 8.61 7.865l-15.306 16.756a38.855 38.855 0 0 0 3.833 4.611c11.475 11.822 30.968 17.816 57.94 17.816h42.556c26.97 0 46.464-5.994 57.939-17.816 10.58-10.901 10.348-22.916 10.332-23.422l-.003-.217v-38.545l-15.599-15.295a5.83 5.83 0 0 1 8.163-8.328l7.436 7.29v-11.674a5.831 5.831 0 0 1 5.831-5.831c4.912 0 8.929-1.684 12.279-5.148 9.912-10.248 11.391-33.335 11.123-41.368a6.227 6.227 0 0 1-.003-.194c0-26.02-4.294-32.583-5.037-33.523a5.83 5.83 0 0 1-2.843-5.008v-31.277c-9.547-4.72-40.311-18.685-71.733-19.583a5.831 5.831 0 0 1-2.351-11.088c1.052-.505 25.29-11.697 73.954-3.333-2.068-34.771-31.002-62.43-66.284-62.43h-88.966c-33.699 0-61.597 25.237-65.836 57.8 15.849-14.614 49.239-37.007 105.065-37.007a5.832 5.832 0 0 1 1.71 11.406c-.891.274-88.795 27.8-107.352 77.821v17.69a5.834 5.834 0 0 1-2.843 5.008c-.744.94-5.037 7.504-5.037 33.523l-.003.195c-.254 8.046 1.249 31.176 11.134 41.378 3.349 3.457 7.362 5.137 12.271 5.137a5.833 5.833 0 0 1 5.83 5.832zm103.252 83.752h-27.416a5.831 5.831 0 0 1 0-11.662h27.416a5.831 5.831 0 0 1 0 11.662zm41.034-192.915c21.401 0 38.812 17.412 38.812 38.814 0 21.403-17.412 38.814-38.812 38.814-21.403 0-38.813-17.412-38.813-38.814s17.411-38.814 38.813-38.814zm-47.389 66.46a5.833 5.833 0 0 1 7.69 2.977l7.997 18.103a5.83 5.83 0 0 1-5.33 8.189 5.831 5.831 0 0 1-5.337-3.477l-7.997-18.103a5.832 5.832 0 0 1 2.977-7.689zm34.382 35.995c9.03 0 16.377 7.346 16.377 16.376v37.565c0 9.029-7.347 16.375-16.377 16.375h-83.47c-9.028 0-16.374-7.346-16.374-16.375V271.91c0-9.03 7.346-16.376 16.374-16.376h83.47zM248.65 219.54a5.83 5.83 0 0 1 2.977 7.69l-8 18.103a5.83 5.83 0 0 1-7.692 2.976 5.83 5.83 0 0 1-2.976-7.69l8-18.103a5.83 5.83 0 0 1 7.691-2.976zm-47.389-66.461c21.401 0 38.813 17.412 38.813 38.814 0 21.403-17.412 38.814-38.813 38.814-21.404 0-38.816-17.412-38.816-38.814.001-21.402 17.414-38.814 38.816-38.814z"/><path style="fill:#81af31" d="M366.896 126.951v-9.202c-13.377-2.42-24.811-3.272-34.275-3.278 14.438 3.909 26.61 8.948 34.275 12.48z"/><path d="M269.707 334.331h-27.416a5.831 5.831 0 0 0 0 11.662h27.416a5.831 5.831 0 0 0 0-11.662zM201.261 230.707c21.401 0 38.813-17.412 38.813-38.814s-17.412-38.814-38.813-38.814c-21.404 0-38.816 17.412-38.816 38.814.001 21.403 17.414 38.814 38.816 38.814zm0-65.966c14.971 0 27.151 12.18 27.151 27.152 0 14.972-12.18 27.152-27.151 27.152-14.973 0-27.153-12.18-27.153-27.152 0-14.972 12.18-27.152 27.153-27.152z"/><path d="M201.267 197.725a5.827 5.827 0 0 0 4.116-1.714c1.085-1.085 1.704-2.577 1.704-4.117s-.619-3.044-1.704-4.128a5.865 5.865 0 0 0-4.116-1.703 5.878 5.878 0 0 0-4.13 1.703 5.871 5.871 0 0 0-1.702 4.128c0 1.539.617 3.032 1.702 4.117a5.842 5.842 0 0 0 4.13 1.714zM310.741 230.707c21.401 0 38.812-17.412 38.812-38.814s-17.412-38.814-38.812-38.814c-21.403 0-38.813 17.412-38.813 38.814 0 21.403 17.411 38.814 38.813 38.814zm0-65.966c10.543 0 19.695 6.046 24.191 14.848H286.55c4.496-8.802 13.647-14.848 24.191-14.848zm-27.135 26.511h21.369c-.024.215-.066.426-.066.643 0 1.539.631 3.032 1.716 4.117a5.806 5.806 0 0 0 4.116 1.714 5.862 5.862 0 0 0 4.13-1.714 5.865 5.865 0 0 0 1.702-4.117c0-.217-.038-.428-.064-.643h21.368c.005.213.016.426.016.641 0 14.971-12.179 27.152-27.15 27.152-14.971 0-27.151-12.18-27.151-27.152-.002-.216.01-.428.014-.641zM235.936 248.309a5.827 5.827 0 0 0 7.692-2.976l8-18.103a5.83 5.83 0 0 0-2.977-7.69 5.83 5.83 0 0 0-7.69 2.976l-8 18.103a5.828 5.828 0 0 0 2.975 7.69zM268.373 245.333a5.831 5.831 0 1 0 10.667-4.712l-7.997-18.103a5.83 5.83 0 1 0-10.667 4.713l7.997 18.102zM197.89 271.91v37.565c0 9.029 7.346 16.375 16.374 16.375h83.47c9.03 0 16.377-7.346 16.377-16.375V271.91c0-9.03-7.347-16.376-16.377-16.376h-83.47c-9.029 0-16.374 7.346-16.374 16.376zm87.278 42.278h-15.17v-17.664h15.17v17.664zm-58.337-46.992h15.171v17.665h-15.171v-17.665zM221 296.523h26.834a5.831 5.831 0 0 0 5.831-5.831v-23.496h44.069a4.72 4.72 0 0 1 4.715 4.714v37.565a4.72 4.72 0 0 1-4.715 4.713h-.904v-23.495a5.831 5.831 0 0 0-5.831-5.831h-26.833a5.831 5.831 0 0 0-5.831 5.831v23.495h-44.073a4.718 4.718 0 0 1-4.712-4.713V271.91c0-2.6 2.114-4.714 4.712-4.714h.905v23.496a5.834 5.834 0 0 0 5.833 5.831z"/><path d="M446.064 406.457a5.855 5.855 0 0 0-.37-1.233c-24.828-58.454-74.208-83.076-88.486-89.154v-48.537c5.661-1.089 10.631-3.821 14.831-8.162 15.069-15.577 14.469-47.317 14.401-49.759-.009-25.103-3.725-36.394-7.881-41.165V114.62c6.155-2.355 10.542-8.318 10.542-15.293V80.555a5.831 5.831 0 0 0-11.662 0v16.218c-2.903-17.105-11.384-32.328-23.506-43.735 3.415-3.001 5.58-7.386 5.58-12.279V21.985a5.831 5.831 0 0 0-11.662 0v18.774c0 2.188-1.504 4.015-3.528 4.544a77.589 77.589 0 0 0-37.441-13.222V5.831a5.83 5.83 0 1 0-11.662 0v25.966h-78.431V5.831a5.83 5.83 0 1 0-11.662 0V32.08a77.548 77.548 0 0 0-36.491 12.595c-2.489-.125-4.481-2.17-4.481-4.691V21.211a5.831 5.831 0 0 0-11.662 0v18.774c0 5.095 2.346 9.642 6.007 12.644-12.355 11.452-20.999 26.838-23.936 44.15V79.782a5.831 5.831 0 0 0-11.662 0v18.774c0 6.973 4.389 12.929 10.543 15.285v54.607c-4.155 4.772-7.872 16.062-7.881 41.165-.071 2.439-.672 34.18 14.398 49.759 4.201 4.342 9.172 7.073 14.834 8.162v48.537c-14.278 6.078-63.661 30.701-88.489 89.154a5.8 5.8 0 0 0-.369 1.233c-.146.798-3.683 20.452-13.626 98.98a5.828 5.828 0 0 0 5.785 6.564h395.811a5.833 5.833 0 0 0 5.785-6.564c-9.946-78.528-13.485-98.183-13.629-98.981zm-300.96-287.631c4.56-5.666 24.309-27.631 63.369-37.752-21.87 10.849-47.511 27.026-63.369 48.514v-10.762zm3.249 132.448c-9.885-10.202-11.388-33.332-11.134-41.378.002-.065.003-.129.003-.195 0-26.02 4.294-32.583 5.037-33.523a5.832 5.832 0 0 0 2.843-5.008v-17.69c18.557-50.021 106.461-77.548 107.352-77.821a5.833 5.833 0 0 0-1.71-11.406c-55.826 0-89.216 22.393-105.065 37.007 4.239-32.563 32.137-57.8 65.836-57.8h88.966c35.282 0 64.216 27.658 66.284 62.43-48.665-8.364-72.902 2.828-73.954 3.333a5.83 5.83 0 0 0 2.351 11.088c31.422.898 62.187 14.865 71.733 19.583v31.277a5.832 5.832 0 0 0 2.843 5.008c.744.94 5.037 7.503 5.037 33.523l.003.194c.266 8.032-1.212 31.121-11.123 41.368-3.351 3.464-7.367 5.148-12.279 5.148a5.831 5.831 0 0 0-5.831 5.831v11.674l-7.436-7.29a5.83 5.83 0 1 0-8.163 8.328l15.599 15.295v38.545c0 .058.002.159.004.217.016.506.248 12.522-10.332 23.422-11.476 11.822-30.969 17.816-57.939 17.816h-42.556c-26.972 0-46.466-5.994-57.94-17.816a38.936 38.936 0 0 1-3.833-4.611l15.306-16.756a5.83 5.83 0 1 0-8.61-7.865l-12.104 13.251c-1.152-4.222-1.097-7.173-1.092-7.4.005-.086.006-.171.006-.258v-66.552a5.831 5.831 0 0 0-5.831-5.831c-4.907-.001-8.921-1.681-12.271-5.138zm218.543-133.525v9.202c-7.663-3.531-19.836-8.571-34.275-12.48 9.462.007 20.898.859 34.275 3.278zm-52.323 259.403c-7.82 13.272-31.474 23.22-58.575 23.22-27.095 0-50.733-9.947-58.556-23.215 10.639 3.149 23.07 4.755 37.28 4.755h42.556c14.215 0 26.652-1.608 37.295-4.76zm-194.621-25.247 17.275 22.96-15.079 11.029-.454-4.862a5.832 5.832 0 0 0-11.612 1.084l1.1 11.799-4.053 2.963-8.288-23.34c6.827-8.454 14.058-15.623 21.111-21.633zm118.035 148.433-3.376-6.619 50.556-16.446v6.331a5.831 5.831 0 0 0 11.662 0v-10.126l16.011-5.208 6.287 15.612-5.494 2.04a5.83 5.83 0 0 0 4.061 10.933l5.79-2.151 2.267 5.634h-87.764zm170.52-42.962a5.824 5.824 0 0 0-1.297 3.665v17.514l-10.82.409a5.832 5.832 0 0 0 .439 11.656l10.381-.393v10.112h-34.821v-59.848l10.777-21.02a5.832 5.832 0 0 0-10.377-5.321l-11.42 22.274a5.844 5.844 0 0 0-.643 2.66v61.256h-22.4l-3.905-9.696 4.232-1.571a5.832 5.832 0 0 0-4.061-10.933l-4.528 1.682-8.439-20.957a5.833 5.833 0 0 0-7.213-3.367l-17.582 5.719v-5.677a5.831 5.831 0 0 0-11.662 0v9.471l-60.657 19.731a5.833 5.833 0 0 0-3.39 8.194l3.775 7.403H151.27v-61.256c0-.926-.22-1.837-.643-2.66l-11.42-22.274a5.83 5.83 0 1 0-10.377 5.321l10.777 21.02v59.848H64.712c8.348-65.512 11.942-87.386 12.588-91.165a151.546 151.546 0 0 1 13.198-24.283l8.264 23.264a5.827 5.827 0 0 0 8.936 2.756l4.747-3.472.578 6.198a5.83 5.83 0 1 0 11.613-1.084l-1.226-13.135 25.473-18.63a5.818 5.818 0 0 0 2.325-3.852 5.827 5.827 0 0 0-1.108-4.361l-8.642-11.484 8.509-10.203a5.832 5.832 0 0 0-8.959-7.469l-6.754 8.099-5.171-6.871c10.286-7.615 19.541-12.7 25.705-15.699-.023 2.728.458 17.847 13.368 31.34 4.225 4.416 9.278 8.157 15.129 11.226 3.095 23.007 33.908 40.518 72.713 40.518s69.619-17.511 72.715-40.518c5.85-3.069 10.902-6.81 15.127-11.225 12.912-13.494 13.394-28.615 13.371-31.341 16.822 8.183 56.696 31.867 77.488 80.225.243 1.418.899 5.383 2.067 13.244l-10.947 13.542c-1.932-2.928-3.335-5.056-3.488-5.283a5.831 5.831 0 1 0-9.7 6.476c.184.278 2.502 3.787 5.494 8.325l-9.618 11.9zm10.365 42.962v-10.553l9.324-.352a5.832 5.832 0 0 0 5.608-6.047c-.122-3.219-2.832-5.74-6.047-5.607l-8.884.336v-15.01l5.993-7.414 4.447 6.743a5.828 5.828 0 0 0 8.079 1.658 5.83 5.83 0 0 0 1.657-8.078l-6.489-9.838 6.476-8.011c1.972 14.057 4.674 34.099 8.252 62.176h-28.416v-.003z"/></svg>