<svg xmlns="http://www.w3.org/2000/svg" viewBox="0 0 512 512" style="enable-background:new 0 0 512 512" xml:space="preserve"><path style="fill:#c0272d" d="M390.179 355.25h-26.081c-9.006 18.259-35.138 33.02-69.119 39.523l.002-.002c-12.135 2.322-25.268 3.595-38.98 3.595-38.678 0-72.752-10.101-92.751-25.438l.032.023c-6.963-5.334-12.225-11.302-15.381-17.701h-26.079c-8.25 0-15 6.75-15 15V494.5c0 5.5 4.5 10 10 10h278.357c5.5 0 10-4.5 10-10V370.25c0-8.25-6.75-15-15-15z"/><path style="fill:#775436" d="M390.179 355.25h-26.081c-9.006 18.259-35.138 33.02-69.119 39.523l-70.219 76.061c-1.865 2.021-4.509 1.721-5.875-.666l-55.636-97.241.032.023c-6.963-5.334-12.225-11.302-15.381-17.701h-26.079c-8.25 0-15 6.75-15 15V494.5c0 5.5 4.5 10 10 10h278.357c5.5 0 10-4.5 10-10V370.25c.001-8.25-6.749-15-14.999-15z"/><path style="opacity:.15;fill:#490089;enable-background:new" d="M135.643 494.5V370.25c0-7.354 5.368-13.502 12.377-14.754-.041-.082-.078-.165-.119-.246h-26.079c-8.25 0-15 6.75-15 15V494.5c0 5.5 4.5 10 10 10h28.821c-5.5 0-10-4.5-10-10z"/><path style="fill:#fff" d="M224.76 470.833c-.96 1.039-2.124 1.455-3.216 1.297v32.37h68.912V399.671l-65.696 71.162z"/><path style="fill:#fcdb67" d="M241.254 452.967V504.5h29.492v-83.479z"/><path style="fill:#c0272d" d="M256 398.365c-38.678 0-72.752-10.101-92.751-25.438l55.636 97.241c1.366 2.387 4.01 2.686 5.875.666l70.221-76.063c-12.135 2.322-25.268 3.594-38.981 3.594z"/><path style="fill:#ef5050" d="M345.598 317.153c-5.233 25.866-37.773 46.312-78.733 49.422l-7.227 6.816c-2.001 1.887-5.284 1.896-7.296.022l-7.348-6.848c-40.895-3.146-73.365-23.576-78.592-49.412-13.762 4.066-21.905 11.276-21.905 24.029 0 31.581 49.922 57.183 111.503 57.183s111.502-25.602 111.502-57.183c0-12.752-8.143-19.962-21.904-24.029z"/><path style="fill:#c0272d" d="M175.658 301.946c-1.946-1.814-4.065-5.34-4.825-7.979-3.343 3.988-5.168 9.153-5.168 15.851 0 29.226 34.637 53.327 79.343 56.76l-69.35-64.632zM340.335 293.719c-.734 2.65-2.972 6.362-4.973 8.249l-68.512 64.62c44.774-3.394 79.484-27.515 79.484-56.77 0-7.142-2.075-12.542-5.853-16.629l-.146.53z"/><path style="fill:#ffb98a" d="M369.085 176.008h-11.866v33.367c0 12.205-2.164 23.903-6.124 34.737a4.993 4.993 0 0 1 1.608 4.888h16.382c13.06 0 23.645-10.586 23.645-23.645v-25.701c0-13.059-10.585-23.646-23.645-23.646zM160.904 244.108c-3.958-10.833-6.122-22.529-6.122-34.733v-33.367h-11.865c-13.059 0-23.645 10.587-23.645 23.645v25.701c0 13.059 10.587 23.645 23.645 23.645h16.299c-.383-1.85.314-3.714 1.688-4.891z"/><path style="fill:#ffc7a9" d="M256 163.417c-33.636 0-67.476-1.171-101.219-3.495v49.453c0 12.204 2.16 23.903 6.119 34.736a5.005 5.005 0 0 1 1.919-1.04l88.361-24.406c2.65-.732 6.988-.732 9.639 0l88.361 24.406a4.925 4.925 0 0 1 1.918 1.044c3.959-10.835 6.12-22.535 6.12-34.741v-49.453A1474.19 1474.19 0 0 1 256 163.417z"/><g style="opacity:.15"><path style="fill:#330068" d="M183.563 161.613c-9.597-.474-19.193-1.03-28.781-1.691v49.453c0 12.204 2.16 23.903 6.119 34.736a5.005 5.005 0 0 1 1.919-1.04l24.387-6.736a101.286 101.286 0 0 1-3.644-26.961v-47.761z"/></g><path style="fill:#b2762f" d="M256 136.436c33.941 0 68.093-1.223 102.136-3.632l-24.3-115.336A12.557 12.557 0 0 0 321.549 7.5h-45.014a12.557 12.557 0 0 0-9.305 4.125l-11.229 12.39-11.232-12.39a12.557 12.557 0 0 0-9.305-4.124h-45.012a12.559 12.559 0 0 0-12.289 9.968l-24.3 115.336A1448.858 1448.858 0 0 0 256 136.436z"/><path style="fill:#d2957d" d="M256 136.436c33.941 0 68.093-1.223 102.136-3.632l-6.7-31.804H160.565l-6.7 31.804A1448.16 1448.16 0 0 0 256 136.436z"/><path style="fill:#775436" d="M256 136.436c17.388 0 34.831-.327 52.286-.962a24.853 24.853 0 0 0-.112-1.591L304.643 101h-97.284l-3.531 32.883c-.057.529-.091 1.06-.112 1.591 17.454.636 34.897.962 52.284.962z"/><path style="opacity:.15;fill:#490089;enable-background:new" d="M182.171 134.53c.034-.216.054-.432.099-.647l24.527-116.415A12.56 12.56 0 0 1 219.086 7.5h-28.633a12.559 12.559 0 0 0-12.289 9.968l-24.3 115.336c9.43.668 18.868 1.242 28.307 1.726z"/><ellipse style="fill:#046699" cx="208" cy="196.47" rx="13.477" ry="13.529"/><ellipse style="fill:#046699" cx="304" cy="196.47" rx="13.477" ry="13.529"/><path style="fill:#ef5050" d="m349.181 243.072-88.361-24.406c-2.65-.732-6.988-.732-9.639 0l-88.361 24.406c-2.65.732-4.256 3.509-3.567 6.172l11.496 44.452c.689 2.663 2.898 6.375 4.91 8.25l76.684 71.467c2.012 1.875 5.295 1.865 7.296-.022l75.725-71.423c2.001-1.887 4.238-5.599 4.973-8.249l12.33-44.497c.733-2.65-.836-5.418-3.486-6.15z"/><path style="fill:#c0272d" d="m164.489 269.493 86.692-23.944c2.65-.732 6.988-.732 9.639 0l86.261 23.826 5.585-20.153a5.01 5.01 0 0 0-3.484-6.149l-88.361-24.406c-2.65-.732-6.988-.732-9.639 0l-88.361 24.406c-2.65.732-4.256 3.509-3.567 6.172l5.235 20.248z"/><g style="opacity:.15"><path style="fill:#3d0072" d="M201.19 290.757c-2.012-1.875-4.222-5.587-4.91-8.25l-11.496-44.452a4.88 4.88 0 0 1-.152-1.007l-21.812 6.024c-2.65.732-4.256 3.509-3.567 6.172l11.496 44.452c.689 2.663 2.898 6.375 4.91 8.25l76.684 71.467c2.012 1.875 5.295 1.865 7.296-.022l15.019-14.166-73.468-68.468z"/></g><path style="fill:#d19546" d="M256 163.417c-59.766 0-120.173-3.697-179.543-10.989a5 5 0 0 1-4.352-5.59l2.129-16.847a5 5 0 0 1 5.57-4.335c58.261 7.154 117.542 10.781 176.195 10.781s117.935-3.627 176.195-10.781a5.002 5.002 0 0 1 5.57 4.335l2.129 16.847a5 5 0 0 1-4.352 5.59A1478.255 1478.255 0 0 1 256 163.417z"/><path style="fill:#ffc502" d="M347.049 483a2.774 2.774 0 0 1-2.537-1.654l-8.662-19.649-21.348 2.322a2.773 2.773 0 0 1-2.537-4.393l12.685-17.327-12.685-17.327a2.771 2.771 0 0 1 2.537-4.393l21.348 2.322 8.662-19.649a2.775 2.775 0 0 1 5.074 0l8.662 19.649 21.348-2.322a2.773 2.773 0 0 1 2.537 4.393l-12.685 17.327 12.685 17.327a2.771 2.771 0 0 1-2.537 4.393l-21.348-2.322-8.662 19.649a2.774 2.774 0 0 1-2.537 1.654z"/><path d="M208 175.442c-11.566 0-20.977 9.434-20.977 21.029 0 11.596 9.41 21.029 20.977 21.029 11.566 0 20.977-9.434 20.977-21.029s-9.41-21.029-20.977-21.029zm0 27.058c-3.296 0-5.977-2.705-5.977-6.029s2.681-6.029 5.977-6.029 5.977 2.705 5.977 6.029-2.681 6.029-5.977 6.029zM304 217.5c11.566 0 20.977-9.434 20.977-21.029s-9.41-21.029-20.977-21.029c-11.566 0-20.977 9.434-20.977 21.029.001 11.595 9.411 21.029 20.977 21.029zm0-27.058c3.296 0 5.977 2.705 5.977 6.029 0 3.325-2.681 6.029-5.977 6.029s-5.977-2.705-5.977-6.029c.001-3.325 2.681-6.029 5.977-6.029z"/><path d="m447.335 145.898-2.129-16.847c-.787-6.233-6.116-10.933-12.396-10.933-.508 0-1.022.031-1.529.094a1433.482 1433.482 0 0 1-67.16 6.62l-9.982-47.378a7.5 7.5 0 0 0-14.678 3.092l2.729 12.955H169.81l15.693-74.485a5.08 5.08 0 0 1 4.95-4.015h45.012c1.426 0 2.791.604 3.748 1.661l11.232 12.39a7.503 7.503 0 0 0 11.115 0l11.227-12.389a5.068 5.068 0 0 1 3.748-1.662h45.014a5.08 5.08 0 0 1 4.948 4.015l4.958 23.532a7.5 7.5 0 1 0 14.678-3.093l-4.958-23.533C339.231 6.696 330.977 0 321.549 0h-45.014a20.098 20.098 0 0 0-14.862 6.588l-5.672 6.259-5.673-6.257A20.087 20.087 0 0 0 235.465 0h-45.012c-9.429 0-17.684 6.696-19.628 15.922l-22.945 108.91a1432.267 1432.267 0 0 1-67.163-6.621 12.58 12.58 0 0 0-1.527-.093c-6.279 0-11.608 4.7-12.396 10.933l-2.13 16.851a12.415 12.415 0 0 0 2.539 9.242 12.422 12.422 0 0 0 8.34 4.729 1479.922 1479.922 0 0 0 71.738 7.025v1.611h-4.365c-17.174 0-31.145 13.972-31.145 31.145v25.701c0 17.173 13.972 31.145 31.145 31.145h10.466l9.303 35.97c-2.997 4.846-4.52 10.629-4.52 17.348 0 .787.028 1.571.068 2.352-12.895 5.262-21.236 14.113-21.236 29.013 0 2.22.198 4.41.582 6.567h-15.758c-12.406 0-22.5 10.093-22.5 22.5V494.5c0 9.649 7.851 17.5 17.5 17.5h278.357c9.649 0 17.5-7.851 17.5-17.5V370.25c0-12.407-10.094-22.5-22.5-22.5H374.42c.383-2.157.582-4.347.582-6.567 0-14.899-8.342-23.751-21.236-29.012.041-.782.069-1.566.069-2.353 0-7.15-1.722-13.242-5.116-18.268l9.712-35.049h10.654c17.173 0 31.145-13.972 31.145-31.145v-25.701c0-17.174-13.972-31.145-31.145-31.145h-4.366v-1.611a1480.086 1480.086 0 0 0 71.739-7.025 12.418 12.418 0 0 0 8.34-4.729 12.422 12.422 0 0 0 2.537-9.247zM345.352 108.5l3.663 17.39c-11.315.732-22.64 1.348-33.962 1.815l-2.062-19.205h32.361zm-131.256 0h83.81l2.121 19.756c-14.697.453-29.382.681-44.026.681-14.645 0-29.328-.228-44.025-.681l2.12-19.756zm-47.446 0h32.36l-2.063 19.205a1454.97 1454.97 0 0 1-33.961-1.815l3.664-17.39zm-23.734 133c-8.902 0-16.145-7.243-16.145-16.145v-25.701c0-8.903 7.243-16.145 16.145-16.145h4.365v20.951h-5.291c-4.143 0-7.5 3.358-7.5 7.5s3.357 7.5 7.5 7.5h5.773c.703 7.6 2.19 14.973 4.384 22.041l-9.231-.001zM233.754 497h-4.71v-19.936c.426-.352.841-.725 1.227-1.143l3.483-3.773V497zm29.492 0h-14.492v-41.101l14.492-15.698V497zm-40.449-35.097-14.663-25.628a7.5 7.5 0 0 0-13.019 7.449l17.261 30.169a12.21 12.21 0 0 0 1.669 2.264V497h-97.223c-1.355 0-2.5-1.145-2.5-2.5V370.25c0-4.136 3.364-7.5 7.5-7.5h21.717c3.429 5.434 8.127 10.519 13.917 15.155l18.777 32.818a7.5 7.5 0 0 0 13.019-7.449l-6.054-10.581c19.994 8.293 45.154 13.173 72.802 13.173 6.581 0 13.018-.28 19.281-.813l-52.484 56.85zM282.956 497h-4.71v-73.047l4.71-5.102V497zm85.505-134.25h21.718c4.136 0 7.5 3.364 7.5 7.5V494.5c0 1.355-1.145 2.5-2.5 2.5h-97.223v-94.397l.829-.899c32.797-6.674 58.274-20.883 69.676-38.954zm-18.028-35.743c8.223 4.093 9.569 9.341 9.569 14.176 0 23.993-41.791 49.683-104.002 49.683-62.212 0-104.003-25.689-104.003-49.683 0-4.834 1.348-10.082 9.57-14.175 4.558 11.217 13.598 21.386 26.545 29.582 14.807 9.373 33.484 15.302 53.642 17.209l5.475 5.102c2.362 2.2 5.469 3.412 8.748 3.412h.001c3.309 0 6.436-1.23 8.807-3.465l5.341-5.038c20.203-1.896 38.926-7.829 53.763-17.221 12.946-8.196 21.987-18.365 26.544-29.582zm-87.617-88.688c-3.949-1.091-9.681-1.091-13.632 0l-15.181 4.193a7.5 7.5 0 0 0-5.232 9.226 7.497 7.497 0 0 0 9.227 5.233l15.18-4.193c1.346-.372 4.302-.372 5.646 0l79.026 21.827-4.741 17.11c-.37 1.336-1.883 3.845-2.892 4.796l-74.247 70.03-75.197-70.082c-.962-.896-2.434-3.369-2.763-4.642l-4.412-17.06 24.4-6.74a7.5 7.5 0 0 0-3.995-14.459l-24.162 6.674-2.732-10.565 86.068-23.773c.465-.128 1.483-.278 2.823-.278 1.34 0 2.358.15 2.822.278l85.945 23.738-2.914 10.516-79.037-21.829zm76.019 71.498c0 12.611-8.157 24.721-22.97 34.097-7.544 4.775-16.308 8.523-25.863 11.147l48.814-46.042c.008.266.019.527.019.798zm-117.332 45.108c-9.362-2.618-17.955-6.317-25.368-11.01-14.789-9.362-22.941-21.448-22.967-34.038l48.335 45.048zm128.216-145.549c0 8.698-1.201 17.12-3.43 25.117L263.5 211.626v-10.869a7.5 7.5 0 0 0-7.5-7.5 7.5 7.5 0 0 0-7.5 7.5v10.869l-82.789 22.867a93.424 93.424 0 0 1-3.43-25.117v-41.449c31.257 1.983 62.574 2.991 93.719 2.991s62.462-1.008 93.719-2.991v41.449zm19.366-25.868c8.902 0 16.145 7.243 16.145 16.145v25.701c0 8.902-7.242 16.145-16.145 16.145h-9.226a107.915 107.915 0 0 0 4.377-22.041h5.773a7.5 7.5 0 0 0 0-15h-5.291v-20.951l4.367.001zM256 155.917c-58.626 0-117.872-3.576-176.139-10.629l1.502-11.887A1458.826 1458.826 0 0 0 256 143.936c58.133 0 116.871-3.544 174.637-10.535l1.502 11.887A1470.907 1470.907 0 0 1 256 155.917z"/><path d="M305.306 466.397a10.297 10.297 0 0 0 10.007 5.078l15.89-1.728 6.448 14.626a10.276 10.276 0 0 0 9.398 6.126c4.067 0 7.757-2.405 9.399-6.128l6.447-14.625 15.902 1.729a10.302 10.302 0 0 0 9.991-5.074 10.277 10.277 0 0 0-.604-11.207l-9.441-12.897 9.441-12.897a10.27 10.27 0 0 0 .607-11.202 10.297 10.297 0 0 0-10.007-5.078l-15.89 1.728-6.448-14.628a10.28 10.28 0 0 0-9.398-6.125 10.277 10.277 0 0 0-9.399 6.128l-6.447 14.624-15.902-1.729c-4.053-.43-7.984 1.595-9.991 5.074a10.275 10.275 0 0 0 .604 11.207l9.441 12.897-9.442 12.898a10.279 10.279 0 0 0-.606 11.203zm25.395-28.528-6.351-8.675 10.689 1.163a7.493 7.493 0 0 0 7.673-4.431l4.337-9.837 4.337 9.837a7.501 7.501 0 0 0 7.673 4.431l10.689-1.163-6.351 8.675a7.5 7.5 0 0 0 0 8.86l6.351 8.675-10.689-1.163a7.5 7.5 0 0 0-7.673 4.431l-4.337 9.837-4.337-9.837a7.499 7.499 0 0 0-7.672-4.431l-10.689 1.163 6.351-8.675a7.501 7.501 0 0 0-.001-8.86z"/></svg>