<svg height="512pt" viewBox="-4 0 512 512.066" width="512pt" xmlns="http://www.w3.org/2000/svg"><path d="M144.113 376.066v128H80.031c-4.398 0-8-3.511-8-8v-55.921c0-35.438 28.64-64.079 64-64.079zm0 0" fill="#e6e9ed"/><path d="M144.113 376.066h24.078v128h-24.078zM328.191 376.145h23.922v127.921h-23.922zm0 0" fill="#656d78"/><path d="M360.031 376.145c35.364 0 64 28.562 64 64v55.921c0 4.489-3.597 8-8 8h-63.918V376.145zm0 0" fill="#e6e9ed"/><path d="M360.031 376.145h-7.918v2.128c27.543 7.13 47.895 32.032 47.895 61.872v55.921c0 4.489-3.598 8-8 8h24.023c4.403 0 8-3.511 8-8v-55.921c0-35.438-28.636-64-64-64zm0 0" fill="#ccd1d9"/><path d="M352.113 376.145h-16.105c5.57 0 10.945.785 16.105 2.128zm0 0" fill="#da4453"/><path d="m192.031 376.066 24.16 16 32-8.16 32 8.16 23.84-15.921h24.16v127.921h-160v-128zm0 0" fill="#e6e9ed"/><path d="M304.031 330.219v45.918l-23.84 15.922-32-8.16-32 8.16-24.16-16v-45.84c16.723 8.816 35.762 13.84 56 13.84 20.242 0 39.282-5.024 56-13.84zm0 0" fill="#f5f7fa"/><path d="M368.031 183.496v40.563c0 46.078-25.918 86.078-64 106.16-16.719 8.816-35.758 13.84-56 13.84a119.792 119.792 0 0 1-56-13.84c-38.078-20.082-64-60.082-64-106.16v-40.563c31.442 5.281 73.602 8.563 120 8.563 46.403 0 88.563-3.274 120-8.563zm0 0" fill="#eac6bb"/><path d="M344.008 186.89v37.169c0 46.078-25.918 86.078-64 106.16-13.367 7.047-28.223 11.625-43.992 13.199 3.96.39 7.953.64 12.015.64 20.242 0 39.281-5.03 56-13.84 38.082-20.081 64-60.081 64-106.16v-40.562c-7.422 1.258-15.496 2.379-24.023 3.395zm0 0" fill="#d3b1a9"/><path d="M368.031 183.496c-31.437 5.281-73.597 8.563-120 8.563-46.398 0-88.558-3.282-120-8.563-34.476-5.832-56-14.156-56-23.437 0-9.672 23.84-18.395 61.364-24.235l-5.364 24.242h240l-5.36-24.23c37.602 5.84 61.36 14.559 61.36 24.23 0 9.282-21.52 17.61-56 23.43zm0 0" fill="#656d78"/><path d="M135.152 128.066h225.762l1.758 7.758 5.36 24.242h-240l5.363-24.242h.078zm0 0" fill="#ed5565"/><path d="m362.672 135.824-1.758-7.758h-24.023l1.757 7.758 5.36 24.242h24.023zm0 0" fill="#da4453"/><path d="m336.031 16.066 24.883 112H135.152l24.961-112c55.918 0 55.918 24 87.918 24s31.922-24 88-24zm0 0" fill="#656d78"/><path d="M336.031 16.066c-9.328 0-16.992.704-23.613 1.817l24.48 110.183h24.024zm0 0" fill="#434a54"/><path d="M447.953 56.066c4.719 4.641 4.719 12.246 0 16.97a12.072 12.072 0 0 1-16.96 0c-4.72-4.724-4.72-12.329 0-16.97 4.722-4.718 12.241-4.718 16.96 0zm0 0" fill="#8cc152"/><path d="M447.953 73.035c4.719-4.722 4.719-12.328 0-16.969-4.719-4.718-12.238-4.718-16.96 0-4.72 4.641-4.72 12.246 0 16.97a12.072 12.072 0 0 0 16.96 0zM422.512 7.906l73.52 73.59-39.598 39.61-73.52-73.61zm0 0" fill="#a0d468"/><path d="M464.031 343.984c13.281 0 24-10.796 24-24v24c0 13.204-10.719 24-24 24-13.199 0-24-10.796-24-24v-24c0 13.204 10.801 24 24 24zm0 0" fill="#f6bb42"/><path d="M488.031 319.984c0 13.204-10.719 24-24 24-13.199 0-24-10.796-24-24 0-13.277 10.801-24 24-24 13.281 0 24 10.723 24 24zM424.031 215.984c8.883 0 16 7.13 16 16 0 8.801-7.117 16-16 16-8.797 0-16-7.199-16-16 0-8.87 7.203-16 16-16zm0 0" fill="#ffce54"/><path d="M72.031 55.984v24c0 13.204-10.719 24-24 24-13.199 0-24-10.796-24-24v-24c0 13.203 10.801 24 24 24 13.282 0 24-10.796 24-24zm0 0" fill="#f6bb42"/><path d="M72.031 55.984c0 13.203-10.719 24-24 24-13.199 0-24-10.796-24-24 0-13.277 10.801-24 24-24 13.282 0 24 10.723 24 24zM24.031 199.984c8.883 0 16 7.13 16 16 0 8.801-7.117 16-16 16-8.797 0-16-7.199-16-16 0-8.87 7.203-16 16-16zm0 0" fill="#ffce54"/><path d="M73.152 310.86c4.641 4.718 4.641 12.327 0 16.964a12.017 12.017 0 0 1-17.039 0c-4.64-4.637-4.64-12.246 0-16.965 4.719-4.64 12.32-4.64 17.04 0zm0 0" fill="#8cc152"/><path d="M73.152 327.824c4.641-4.636 4.641-12.246 0-16.965-4.718-4.64-12.32-4.64-17.039 0-4.64 4.72-4.64 12.329 0 16.965a12.017 12.017 0 0 0 17.04 0zm48.082-25.43-73.601 73.512L8.03 336.312l73.602-73.527zm0 0" fill="#a0d468"/><path d="M48.031 87.914c-17.644 0-32-14.351-32-32 0-17.648 14.356-32 32-32 17.649 0 32 14.352 32 32s-14.351 32-32 32zm0-48c-8.82 0-16 7.176-16 16s7.18 16 16 16c8.824 0 16-7.176 16-16s-7.176-16-16-16zm0 0"/><path d="M48.031 111.914c-17.644 0-32-14.351-32-32 0-4.426 3.578-8 8-8 4.426 0 8 3.574 8 8 0 8.824 7.18 16 16 16 8.824 0 16-7.176 16-16 0-4.426 3.578-8 8-8 4.426 0 8 3.574 8 8 0 17.648-14.351 32-32 32zm0 0"/><path d="M24.031 87.914c-4.422 0-8-3.574-8-8v-24c0-4.426 3.578-8 8-8 4.426 0 8 3.574 8 8v24c0 4.426-3.574 8-8 8zM72.031 87.914c-4.422 0-8-3.574-8-8v-24c0-4.426 3.578-8 8-8 4.426 0 8 3.574 8 8v24c0 4.426-3.574 8-8 8zM464.031 351.914c-17.644 0-32-14.351-32-32 0-17.648 14.356-32 32-32 17.649 0 32 14.352 32 32 0 17.649-14.351 32-32 32zm0-48c-8.82 0-16 7.176-16 16s7.18 16 16 16c8.824 0 16-7.176 16-16s-7.176-16-16-16zm0 0"/><path d="M464.031 375.914c-17.644 0-32-14.351-32-32 0-4.426 3.578-8 8-8 4.426 0 8 3.574 8 8 0 8.824 7.18 16 16 16 8.824 0 16-7.176 16-16 0-4.426 3.578-8 8-8 4.426 0 8 3.574 8 8 0 17.649-14.351 32-32 32zm0 0"/><path d="M440.031 351.914c-4.422 0-8-3.574-8-8v-24c0-4.426 3.578-8 8-8 4.426 0 8 3.574 8 8v24c0 4.426-3.574 8-8 8zM488.031 351.914c-4.422 0-8-3.574-8-8v-24c0-4.426 3.578-8 8-8 4.426 0 8 3.574 8 8v24c0 4.426-3.574 8-8 8zM424.05 255.93c-13.234 0-24-10.77-24-24s10.766-24 24-24c13.231 0 24 10.77 24 24s-10.769 24-24 24zm0-32a8 8 0 1 0 8 8c0-4.414-3.585-8-8-8zM24.031 239.922c-13.23 0-24-10.77-24-24s10.77-24 24-24c13.235 0 24 10.77 24 24s-10.765 24-24 24zm0-32c-4.414 0-8 3.586-8 8a8 8 0 1 0 8-8zM456.426 129.05a7.984 7.984 0 0 1-5.656-2.343L377.234 53.16a7.985 7.985 0 0 1 0-11.308l39.59-39.602c3-3 8.313-3 11.313 0l73.543 73.535c1.504 1.504 2.343 3.528 2.343 5.656s-.84 4.16-2.343 5.657l-39.606 39.601a7.935 7.935 0 0 1-5.648 2.352zm-62.227-81.542 62.219 62.222 28.297-28.289L422.48 19.22zm0 0"/><path d="M439.457 84.48c-5.344 0-10.36-2.078-14.145-5.855-7.8-7.8-7.8-20.488 0-28.277 7.56-7.563 20.72-7.563 28.282 0 7.8 7.797 7.8 20.488 0 28.277a19.852 19.852 0 0 1-14.137 5.855zm0-24c-.617 0-1.809.153-2.832 1.168a4.02 4.02 0 0 0 0 5.657c1.023 1.023 2.207 1.168 2.832 1.168s1.809-.153 2.832-1.168a4.02 4.02 0 0 0 0-5.657 3.985 3.985 0 0 0-2.832-1.168zM47.64 383.898a7.99 7.99 0 0 1-5.656-2.343L2.394 341.96a7.978 7.978 0 0 1-2.343-5.656c0-2.125.84-4.16 2.344-5.657l73.543-73.535a7.99 7.99 0 0 1 11.312 0l39.59 39.594a7.978 7.978 0 0 1 2.344 5.656c0 2.125-.84 4.16-2.344 5.657l-73.543 73.535a7.951 7.951 0 0 1-5.656 2.343zm-28.28-47.593 28.28 28.28 62.231-62.222-28.277-28.281zm0 0"/><path d="M64.617 339.328a19.92 19.92 0 0 1-14.144-5.84c-7.793-7.812-7.793-20.496-.016-28.285 7.574-7.562 20.754-7.547 28.297-.015 7.793 7.816 7.793 20.496.016 28.285a19.901 19.901 0 0 1-14.153 5.855zm0-23.988c-.625 0-1.824.148-2.84 1.168-1.543 1.543-1.543 4.101.016 5.664 1.008 1.008 2.2 1.156 2.832 1.156s1.824-.148 2.84-1.168c1.543-1.543 1.543-4.101-.016-5.664-1.008-1.008-2.207-1.156-2.832-1.156zM72.031 448.09c-4.422 0-8-3.574-8-8 0-39.711 32.305-72.016 72.02-72.016 4.422 0 8 3.574 8 8 0 4.422-3.578 8-8 8-30.89 0-56.02 25.13-56.02 56.016 0 4.418-3.574 8-8 8zM424.031 448.082c-4.422 0-8-3.574-8-8 0-30.871-25.125-56-56-56-4.422 0-8-3.574-8-8s3.578-8 8-8c39.707 0 72 32.297 72 72 0 4.414-3.574 8-8 8zm0 0"/><path d="M136.05 384.074c-4.417 0-8-3.578-8-8 0-4.418 3.575-8 8-8l55.981-.008c4.418 0 8 3.575 8 8 0 4.414-3.574 8-8 8zM72.05 504.066c-4.417 0-8-3.578-8-8l-.019-55.976a8 8 0 0 1 8-8c4.418 0 8 3.574 8 8l.02 55.976a8 8 0 0 1-8 8zm0 0"/><path d="M80.05 512.066c-8.823 0-16-7.175-16-16 0-4.425 3.575-8 8-8 4.423 0 8 3.575 8 8v.016c4.423 0 8 3.566 8 7.992a7.994 7.994 0 0 1-8 7.992zM416.031 512.066c-4.422 0-8-3.578-8-8 0-4.425 3.578-8 8-8h.02c0-4.425 3.566-8 7.988-8a7.989 7.989 0 0 1 7.992 8c0 8.817-7.176 16-16 16zm0 0"/><path d="M424.031 504.066c-4.422 0-8-3.578-8-8v-55.984c0-4.426 3.578-8 8-8 4.426 0 8 3.574 8 8v55.984c0 4.422-3.574 8-8 8zm0 0"/><path d="M416.031 512.066H80.051c-4.426 0-8-3.578-8-8 0-4.425 3.574-8 8-8h335.98c4.426 0 8 3.575 8 8 0 4.422-3.574 8-8 8zM192.031 384.066c-4.422 0-8-3.578-8-8v-45.84c0-4.425 3.578-8 8-8 4.426 0 8 3.575 8 8v45.833a7.995 7.995 0 0 1-8 8.007zM304.031 384.082c-4.422 0-8-3.574-8-8v-45.855c0-4.426 3.578-8 8-8 4.426 0 8 3.574 8 8v45.847c0 4.422-3.574 8.008-8 8.008zm0 0"/><path d="M248.031 352.074c-70.574 0-128-57.426-128-128 0-4.426 3.578-8 8-8 4.426 0 8 3.574 8 8 0 61.762 50.242 112 112 112 61.762 0 112-50.238 112-112 0-4.426 3.578-8 8-8 4.426 0 8 3.574 8 8 0 70.574-57.422 128-128 128zm0 0"/><path d="M128.031 232.074c-4.422 0-8-3.578-8-8v-40.601c0-4.422 3.578-8 8-8 4.426 0 8 3.578 8 8v40.601c0 4.414-3.574 8-8 8zM368.031 232.074c-4.422 0-8-3.578-8-8v-40.61c0-4.421 3.578-8 8-8 4.426 0 8 3.579 8 8v40.61c0 4.414-3.574 8-8 8zM360.031 384.082h-56c-4.422 0-8-3.574-8-8s3.578-8 8-8h56c4.426 0 8 3.574 8 8s-3.574 8-8 8zm0 0"/><path d="M248.031 200.066c-7.511 0-184-.457-184-40 0-9.25 7.074-22.64 68.168-32.191 4.371-.656 8.465 2.313 9.145 6.672a8.01 8.01 0 0 1-6.672 9.144c-38.328 5.985-51.64 13.36-54.328 16.414 6.953 8.954 66.426 23.97 167.687 23.97 101.266 0 160.739-15.016 167.692-23.97-2.692-3.054-16-10.43-54.328-16.414-4.372-.687-7.356-4.777-6.672-9.144.687-4.36 4.804-7.336 9.14-6.672 61.106 9.55 68.168 22.941 68.168 32.191 0 39.543-176.484 40-184 40zm0 0"/><path d="M128.04 168.066a8.603 8.603 0 0 1-1.743-.183 8.009 8.009 0 0 1-6.078-9.543L152.25 14.305c.969-4.313 5.254-6.985 9.543-6.078a8.007 8.007 0 0 1 6.078 9.543L135.84 161.793a8.012 8.012 0 0 1-7.8 6.273zM368.023 168.066a8.007 8.007 0 0 1-7.804-6.265L328.19 17.777a8.01 8.01 0 0 1 6.075-9.55c4.297-.915 8.574 1.757 9.543 6.078l32.03 144.023a8.01 8.01 0 0 1-7.816 9.738zm0 0"/><path d="M248.031 48.059c-15.886 0-25.351-5.368-34.504-10.563-11.109-6.3-23.703-13.453-53.46-13.453-4.426 0-8-3.578-8-8 0-4.426 3.574-8 8-8 33.984 0 49.167 8.613 61.359 15.527 8.672 4.926 14.941 8.489 26.605 8.489s17.922-3.551 26.578-8.48C286.801 16.655 301.977 8.042 336 8.042c4.426 0 8 3.574 8 8 0 4.422-3.574 8-8 8-29.8 0-42.383 7.152-53.488 13.453-9.133 5.195-18.59 10.563-34.48 10.563zM368.031 168.066h-240c-4.422 0-8-3.578-8-8 0-4.425 3.578-8 8-8h240c4.426 0 8 3.575 8 8 0 4.422-3.574 8-8 8zM360.922 136.066H135.16c-4.422 0-8-3.578-8-8 0-4.425 3.578-8 8-8h225.77c4.422 0 8 3.575 8 8 0 4.422-3.586 8-8.008 8zM216.152 400.035a8.007 8.007 0 0 1-4.406-1.328l-24.129-15.969c-3.687-2.441-4.695-7.41-2.258-11.09a7.99 7.99 0 0 1 11.09-2.253l24.13 15.968a7.994 7.994 0 0 1 2.253 11.086 7.994 7.994 0 0 1-6.68 3.586zm0 0"/><path d="M216.152 400.035c-3.566 0-6.832-2.41-7.75-6.031-1.09-4.281 1.504-8.633 5.79-9.73l32-8.13c4.265-1.054 8.632 1.504 9.73 5.793 1.086 4.282-1.504 8.633-5.793 9.727l-32 8.129c-.664.16-1.32.242-1.977.242zm0 0"/><path d="M280.168 400.035a8.394 8.394 0 0 1-1.977-.242l-32-8.129c-4.277-1.094-6.87-5.445-5.789-9.727 1.086-4.289 5.446-6.847 9.727-5.792l32 8.128c4.281 1.098 6.871 5.45 5.793 9.73a8.02 8.02 0 0 1-7.754 6.032zm0 0"/><path d="M280.168 400.035a7.99 7.99 0 0 1-6.656-3.555 7.99 7.99 0 0 1 2.203-11.093l23.87-15.953a7.978 7.978 0 0 1 11.095 2.199c2.465 3.672 1.472 8.64-2.2 11.097l-23.87 15.954a8.039 8.039 0 0 1-4.442 1.351zM144.066 512.066c-4.425 0-8-3.578-8-8V376.074c0-4.426 3.575-8 8-8 4.422 0 8 3.574 8 8v127.992c0 4.422-3.578 8-8 8zM168.176 512.066c-4.422 0-8-3.578-8-8V376.074c0-4.426 3.578-8 8-8 4.426 0 8 3.574 8 8v127.992c0 4.422-3.582 8-8 8zM328.176 512.066c-4.422 0-8-3.578-8-8V376.074c0-4.426 3.578-8 8-8 4.426 0 8 3.574 8 8v127.992c0 4.422-3.582 8-8 8zM352.098 512.066c-4.426 0-8-3.578-8-8V376.074c0-4.426 3.574-8 8-8 4.422 0 8 3.574 8 8v127.992c0 4.422-3.578 8-8 8zM248.273 432.05c-4.425 0-8.039-3.577-8.039-8 0-4.425 3.536-8 7.95-8h.09a8 8 0 0 1 0 16zM248.273 480.059c-4.425 0-8.039-3.579-8.039-8 0-4.426 3.536-8 7.95-8h.09a8 8 0 0 1 0 16zm0 0"/></svg>