<svg height="511pt" viewBox="0 0 511 511.999" width="511pt" xmlns="http://www.w3.org/2000/svg"><path d="M171.148 59.73h170.668v274.262H171.148zm0 0" fill="#bfa885"/><path d="M418.617 264.531c18.293-.258 33.13-14.898 33.633-33.191.504-18.29-13.504-33.723-31.758-34.988a25.505 25.505 0 0 0-10.07-41.133 25.233 25.233 0 0 0 8.195-18.688c0-14.136-11.465-25.597-25.601-25.597-1.114 0-2.227.086-3.329.254a34.133 34.133 0 0 0 9.715-37.735A34.13 34.13 0 0 0 367.414 51.2a4.816 4.816 0 0 0-1.11.086 35.445 35.445 0 0 0 1.11-8.62c0-18.852-15.281-34.134-34.133-34.134a32.07 32.07 0 0 0-12.883 2.563 33.922 33.922 0 0 1 21.418 31.57 35.637 35.637 0 0 1-1.109 8.621 4.8 4.8 0 0 1 1.11-.086 34.13 34.13 0 0 1 31.988 22.254 34.128 34.128 0 0 1-9.72 37.734 22.087 22.087 0 0 1 3.33-.253c14.14 0 25.6 11.46 25.6 25.597a25.244 25.244 0 0 1-8.19 18.688 25.503 25.503 0 0 1 15.991 17.883 25.503 25.503 0 0 1-5.921 23.25c18.25 1.265 32.257 16.699 31.757 34.988-.504 18.293-15.34 32.933-33.636 33.191 17.035.024 31.449 12.606 33.77 29.48 2.323 16.88-8.157 32.887-24.556 37.509L98.36 341.93l.257.851 329.215-11.261c16.398-4.622 26.875-20.63 24.555-37.508-2.32-16.875-16.735-29.457-33.77-29.48zM282.34 89.086a27.892 27.892 0 0 1-4.524 2.219 26.514 26.514 0 0 0 5.204 1.707 28.94 28.94 0 0 1-.68-3.926zm0 0" fill="#607d8b"/><path d="M503.95 396.883v98.05c0 4.712-3.821 8.532-8.536 8.532H17.551a8.533 8.533 0 0 1-8.535-8.531v-98.051a42.035 42.035 0 0 1 .425-6.57c-.011-.231.016-.461.086-.684 2.973-24.715 21.016-44.973 45.227-50.774l21.164-5.117 44.883-10.84 62.55-15.187h146.262l37.29 9.047 50.519 12.199 10.41 2.563h.086l30.293 7.335c26.828 6.446 45.738 30.438 45.738 58.028zm0 0" fill="#bfa885"/><path d="M171.148 59.73h145.067v274.262H171.148zm0 0" fill="#ffe0b2"/><path d="M212.535 77.566a21.913 21.913 0 0 1 1.195 6.317 20.882 20.882 0 0 0 4.438-2.051 22.822 22.822 0 0 1-5.633-4.266zm-40.96 27.137a41.948 41.948 0 0 0-.427 4.692 19.06 19.06 0 0 0 4.266-1.875 32.618 32.618 0 0 1-3.84-2.817zm0 0" fill="#cfd8dc"/><path d="M393.016 264.531c18.296-.258 33.132-14.898 33.636-33.191.5-18.29-13.507-33.723-31.757-34.988a25.503 25.503 0 0 0 5.921-23.25 25.503 25.503 0 0 0-15.992-17.883 25.244 25.244 0 0 0 8.192-18.688c0-14.136-11.461-25.597-25.602-25.597-1.113 0-2.226.086-3.328.254a34.128 34.128 0 0 0 9.719-37.735A34.13 34.13 0 0 0 341.816 51.2a4.8 4.8 0 0 0-1.109.086 35.637 35.637 0 0 0 1.11-8.62 33.922 33.922 0 0 0-21.419-31.571 33.35 33.35 0 0 0-15.191 12.199 25.7 25.7 0 0 0-11.262-11.86 25.416 25.416 0 0 0-24.664.598 25.33 25.33 0 0 0-12.8 22.102c0-14.14-11.461-25.602-25.598-25.602a23.692 23.692 0 0 0-12.715 3.5 24.238 24.238 0 0 0-10.41 11.262 34.078 34.078 0 0 0-14.336-11.86 33.292 33.292 0 0 0-13.738-2.902c-4.372-.035-8.7.84-12.715 2.563a33.922 33.922 0 0 0-21.418 31.57c.015 2.91.386 5.805 1.11 8.621a4.816 4.816 0 0 0-1.11-.086 34.13 34.13 0 0 0-31.989 22.254 34.133 34.133 0 0 0 9.715 37.734 22.087 22.087 0 0 0-3.328-.253c-14.14 0-25.601 11.46-25.601 25.597a25.244 25.244 0 0 0 8.191 18.688 25.503 25.503 0 0 0-15.992 17.883 25.505 25.505 0 0 0 5.926 23.25c-18.254 1.265-32.262 16.699-31.758 34.988.504 18.293 15.34 32.933 33.633 33.191a33.712 33.712 0 0 0-19.54 6.23L98.36 341.93l303.871-10.41c16.399-4.622 26.88-20.63 24.555-37.508-2.32-16.875-16.734-29.457-33.77-29.48zm-51.2-49.664-85.336 63.149-12.796-9.473-72.536-53.676V109.395c.055-1.57.196-3.137.426-4.692a32.618 32.618 0 0 0 3.84 2.817 25.612 25.612 0 0 0 25.61-.004 25.608 25.608 0 0 0 12.792-22.184 7.81 7.81 0 0 0-.086-1.45 21.913 21.913 0 0 0-1.195-6.316 22.822 22.822 0 0 0 5.633 4.266 24.151 24.151 0 0 0 12.715 3.5c14.117-.047 25.55-11.48 25.597-25.602a33.944 33.944 0 0 0 21.336 31.575 27.892 27.892 0 0 0 4.524-2.22 28.94 28.94 0 0 0 .68 3.927c2.488.593 5.039.879 7.597.855a33.445 33.445 0 0 0 17.32-4.781c1.876 17.293 16.485 30.394 33.88 30.379zm0 0" fill="#cfd8dc"/><path d="M478.348 396.883v98.05c0 4.712-3.82 8.532-8.532 8.532H17.551a8.533 8.533 0 0 1-8.535-8.531v-98.051a42.035 42.035 0 0 1 .425-6.57c-.011-.231.016-.461.086-.684 2.973-24.715 21.016-44.973 45.227-50.774l21.164-5.117 44.883-10.84 62.55-15.187h120.66l37.294 9.047 50.515 12.199 10.41 2.563h.086l30.293 7.335c26.829 6.446 45.743 30.438 45.739 58.028zm0 0" fill="#ffe0b2"/><path d="M171.406 484.18c139.008-60.586 190.121-156.758 195.496-167.422l.512-1.028s17.066-34.132 25.602 0c0 0 34.132-25.597 25.601 8.536-.43 1.535-.77 3.156-1.195 4.691a418.109 418.109 0 0 0-15.871 106.242v68.266H171.148zm0 0" fill="#f5f5f5"/><path d="m187.191 503.465 1.024-.426-16.809-18.86-58.625-66.046 75.434-18.86-67.414-76.375-45.992-52.136-28.075-31.828 15.188 49.234 11.52 37.46 2.476 8.11 8.531 27.817-74.922 28.074-.511.172.425.511 75.008 84.395-56.574 28.332.426.426" fill="#fec108"/><path d="M337.035 264.191a34.55 34.55 0 0 1 4.781 17.407c0 18.851-15.28 34.132-34.132 34.132a9.22 9.22 0 0 1-1.54-.082 23.763 23.763 0 0 1 1.54 8.618c0 14.136-11.461 25.601-25.602 25.601-14.137 0-25.602-11.465-25.602-25.601 0 14.136-11.46 25.601-25.597 25.601-14.14 0-25.602-11.465-25.602-25.601a23.842 23.842 0 0 1 1.535-8.618c-.507.07-1.02.098-1.535.082-18.851 0-34.133-15.28-34.133-34.132a34.585 34.585 0 0 1 4.778-17.407c-12.645-1.828-22.008-12.703-21.938-25.48.07-12.777 9.555-23.547 22.223-25.234 12.664-1.684 24.637 6.226 28.047 18.543a29.815 29.815 0 0 1 52.222 19.71 29.823 29.823 0 0 1 19.29-27.937 29.815 29.815 0 0 1 32.937 8.227c3.41-12.317 15.383-20.227 28.047-18.543 12.668 1.687 22.152 12.457 22.223 25.234.07 12.777-9.293 23.652-21.942 25.48zm0 0" fill="#f5f5f5"/><path d="m460.215 330.563-10.77-2.56a42.43 42.43 0 0 0-5.23-63.472 42.669 42.669 0 0 0-10.453-74.035 33.722 33.722 0 0 0 1.922-11.297 34.213 34.213 0 0 0-12.63-26.453 34.146 34.146 0 0 0 1.989-27.96 34.141 34.141 0 0 0-19.621-20.024 42.668 42.668 0 0 0 .465-37.938 42.669 42.669 0 0 0-29.938-23.304v-.856A42.666 42.666 0 0 0 351.41 4.051a42.657 42.657 0 0 0-45.383 5.797 33.84 33.84 0 0 0-25.195-9.82 33.848 33.848 0 0 0-24.352 11.765A33.832 33.832 0 0 0 232.133.027a33.84 33.84 0 0 0-25.196 9.82 42.657 42.657 0 0 0-45.382-5.796 42.666 42.666 0 0 0-24.54 38.613v.856a42.668 42.668 0 0 0-29.484 61.207 34.137 34.137 0 0 0-19.629 20.039 34.133 34.133 0 0 0 2.008 27.98A34.213 34.213 0 0 0 77.281 179.2c0 3.848.656 7.672 1.946 11.297a42.664 42.664 0 0 0-27.543 39.902c0 .614.086 1.204.109 1.809a8.417 8.417 0 0 0-9.234-.715 8.534 8.534 0 0 0-3.985 10l26.504 86.086-12.32 2.984c-26.723 6.524-46.91 28.461-51.2 55.63-.28.398-.523.82-.726 1.261a8.414 8.414 0 0 0-.086 4.27A58.603 58.603 0 0 0 .5 396.84v98.094C.5 504.359 8.14 512 17.566 512h477.848c9.426 0 17.066-7.64 17.066-17.066v-98.051c.06-31.547-21.574-59-52.265-66.32zM192.43 494.933l-6.91-7.777C318.64 425.43 369.098 331.375 374.53 320.57l.512-1.008a38.058 38.058 0 0 1 6.879-9.632 32.45 32.45 0 0 1 2.816 7.875 8.527 8.527 0 0 0 5.426 5.968 8.53 8.53 0 0 0 7.973-1.214 50.056 50.056 0 0 1 13.32-7.227 30.848 30.848 0 0 1-1.059 6.645l-1.253 4.918a447.316 447.316 0 0 0-15.907 98.695 8.6 8.6 0 0 0-.222 1.074v68.27zM90.824 469.036l-67.164-75.59 63.785-23.894a8.536 8.536 0 0 0 5.121-10.496l-22.777-74.29-3.2-10.41 105.942 120.047-61.824 15.453a8.53 8.53 0 0 0-4.266 13.941l58.41 65.708c.11.144.231.266.352.402l4.426 4.985H63.117l25.156-12.598a8.523 8.523 0 0 0 4.563-6.02 8.52 8.52 0 0 0-2.004-7.28zm88.86-350.781a33.593 33.593 0 0 0 41.906-25.856 32.935 32.935 0 0 0 33.656-8.832c10.258 15.305 29.215 22.25 46.934 17.196a42.307 42.307 0 0 0 31.101 26.383v77.652a34.085 34.085 0 0 0-14.265 3.176c-7.723-12.016-25.192-28.774-62.536-28.774-37.34 0-54.808 16.758-62.53 28.774a34.085 34.085 0 0 0-14.266-3.176zm76.796 109.363c-11.84-14.726-32.66-18.601-49.003-9.12 4.98-8.52 17.843-22.231 49.003-22.231 31.165 0 44.024 13.71 49.008 22.23-16.343-9.48-37.164-5.605-49.008 9.121zm-76.796-5.75c7.609-.043 14.3 5.02 16.332 12.356a8.539 8.539 0 0 0 6.304 6.101c3.07.711 6.282-.32 8.356-2.687a21.27 21.27 0 0 1 23.52-5.864 21.277 21.277 0 0 1 13.753 19.957 8.533 8.533 0 1 0 17.067 0 21.28 21.28 0 0 1 37.273-14.085 8.531 8.531 0 0 0 14.66-3.415 16.851 16.851 0 0 1 16.332-12.363c8.77.207 15.953 7.028 16.614 15.774.66 8.746-5.415 16.57-14.051 18.093a8.528 8.528 0 0 0-6.512 4.723 8.54 8.54 0 0 0 .305 8.035 25.946 25.946 0 0 1 3.644 13.106c-.054 14.183-11.586 25.64-25.77 25.601a8.534 8.534 0 0 0-9.32 11.512c.66 1.777.985 3.66.957 5.555 0 9.425-7.64 17.066-17.066 17.066s-17.066-7.64-17.066-17.066a8.534 8.534 0 1 0-17.067 0c0 9.425-7.64 17.066-17.066 17.066-9.426 0-17.067-7.64-17.067-17.066a15.44 15.44 0 0 1 .954-5.532 8.643 8.643 0 0 0-9.488-11.535c-14.137 0-25.598-11.46-25.598-25.601a25.958 25.958 0 0 1 3.617-13.106 8.53 8.53 0 0 0 .304-8.035 8.529 8.529 0 0 0-6.507-4.723c-8.641-1.527-14.72-9.355-14.051-18.105s7.863-15.567 16.637-15.762zm1.902 95.051a42.172 42.172 0 0 0 15.164 6.492v.856a34.131 34.131 0 0 0 59.73 22.554 34.145 34.145 0 0 0 37.66 9.356c13.274-5.016 22.067-17.719 22.075-31.91v-.856a42.208 42.208 0 0 0 15.172-6.492L354 322.406c-16.125 27.04-68.266 100.856-180.344 151.399l-45.176-50.809 61.782-15.445a8.544 8.544 0 0 0 6.082-5.746 8.535 8.535 0 0 0-1.754-8.18l-58.027-65.777zm-88.672-112.05a8.537 8.537 0 0 0 7.445-5.266 8.526 8.526 0 0 0-1.566-8.985 16.974 16.974 0 0 1 6.676-27.383 8.536 8.536 0 0 0 2.832-14.313 16.604 16.604 0 0 1-5.418-12.39 17.008 17.008 0 0 1 5.726-12.77 17.006 17.006 0 0 1 13.371-4.144 8.531 8.531 0 0 0 6.825-14.906 25.603 25.603 0 0 1 16.676-44.98 8.531 8.531 0 0 0 9.457-10.52 27.217 27.217 0 0 1-.856-6.547 25.602 25.602 0 0 1 46.637-14.504 8.534 8.534 0 0 0 14.804-1.297 17.07 17.07 0 0 1 19.094-9.218 17.071 17.071 0 0 1 13.332 16.488c0 4.71 3.82 8.531 8.531 8.531a8.533 8.533 0 0 0 8.536-8.531 17.067 17.067 0 0 1 32.425-7.27 8.531 8.531 0 0 0 7.024 4.938 8.45 8.45 0 0 0 7.765-3.676c6.372-9.207 17.98-13.207 28.668-9.875s17.973 13.223 17.985 24.414a27.217 27.217 0 0 1-.856 6.547 8.544 8.544 0 0 0 1.934 7.777 8.537 8.537 0 0 0 7.531 2.742 25.604 25.604 0 0 1 16.633 44.98 8.532 8.532 0 0 0 6.824 14.907 16.964 16.964 0 0 1 19.133 16.914 16.604 16.604 0 0 1-5.418 12.39 8.535 8.535 0 0 0 2.832 14.313 16.974 16.974 0 0 1 10.637 11.91 16.975 16.975 0 0 1-3.965 15.473 8.533 8.533 0 0 0 5.883 14.25c13.672.977 24.144 12.551 23.762 26.254-.383 13.7-11.493 24.668-25.196 24.879a8.533 8.533 0 1 0 0 17.066c12.336-.03 22.934 8.766 25.176 20.899 2.242 12.133-4.512 24.137-16.047 28.515a20.65 20.65 0 0 0-5.973-22.066 24.55 24.55 0 0 0-24.355 2.356 17.569 17.569 0 0 0-13.336-10.657c-9.695-1.015-17.332 8.2-21.512 14.82l-17.828-4.324a42.36 42.36 0 0 0 3.774-33.171 33.97 33.97 0 0 0 18.867-29.399 33.968 33.968 0 0 0-17.035-30.496v-90.078c0-4.711-3.82-8.531-8.532-8.531-13.046.058-24.02-9.77-25.394-22.743 0-.05 0-.086-.043-.136a8.366 8.366 0 0 0-.555-1.75 8.105 8.105 0 0 0-.512-1.442c0-.05 0-.113-.062-.172a8.366 8.366 0 0 0-1.227-1.347 8.303 8.303 0 0 0-.855-.922 8.317 8.317 0 0 0-2.106-1.117 7.717 7.717 0 0 0-.792-.375 8.808 8.808 0 0 0-2.239-.23 7.754 7.754 0 0 0-.996-.102h-.137c-.57.117-1.125.289-1.656.52a8.47 8.47 0 0 0-1.562.562c-.051 0-.102 0-.145.05a24.818 24.818 0 0 1-12.918 3.602c-14.14 0-25.601-11.46-25.601-25.602 0-4.71-3.82-8.53-8.536-8.53a8.532 8.532 0 0 0-8.53 8.53 17.068 17.068 0 0 1-29.27 11.95 9.53 9.53 0 0 0-.957-.668 8.485 8.485 0 0 0-1.707-1.16 38.304 38.304 0 0 0-3.18-.743c-.617.02-1.23.106-1.828.258a7.84 7.84 0 0 0-1.348.195l-.101.06a9.436 9.436 0 0 0-1.309.784 8.96 8.96 0 0 0-1.559 1l-.086.051c-.253.313-.48.645-.683.988a8.456 8.456 0 0 0-1.145 1.657 8.294 8.294 0 0 0-.406 1.585 8.323 8.323 0 0 0-.344 1.598c.02.664.114 1.32.282 1.961.03.414.09.82.18 1.223.534 1.566.804 3.207.792 4.863 0 9.426-7.64 17.066-17.066 17.066a16.336 16.336 0 0 1-10.988-4.085c-.172-.157-.387-.2-.567-.336a9.23 9.23 0 0 0-1.476-.852 8.562 8.562 0 0 0-1.586-.605c-.223-.051-.391-.196-.621-.23a6.052 6.052 0 0 0-.922 0 7.57 7.57 0 0 0-3.243.444 8.816 8.816 0 0 0-1.539.7 8.425 8.425 0 0 0-1.304.988c-.274.18-.535.375-.785.59-.16.18-.204.41-.348.597a7.883 7.883 0 0 0-.856 1.426 8.22 8.22 0 0 0-.62 1.621c-.051.211-.2.383-.243.606a46.259 46.259 0 0 0-.5 7.672v98.609a33.97 33.97 0 0 0 1.79 59.895 42.38 42.38 0 0 0 3.773 33.18l-44.375 10.769-34.985-39.64a25.327 25.327 0 0 1 5.528-.68 8.534 8.534 0 1 0 0-17.067c-13.703-.21-24.813-11.18-25.196-24.879-.382-13.703 10.09-25.277 23.762-26.254zM56.801 347.151l13.304-3.261 3.833 12.46-51.774 19.422a51.294 51.294 0 0 1 34.637-28.62zm-39.25 65.133 53.125 59.777-45.668 22.872H17.55zm477.863 82.649h-85.332v-59.735a383.258 383.258 0 0 1 13.594-95.914l2.117.52a5.3 5.3 0 0 0 .562.11l29.868 7.237c23.011 5.489 39.234 26.075 39.191 49.73zm0 0"/><path d="M222.348 162.133a8.534 8.534 0 0 0 8.535-8.535V136.53c0-4.71-3.82-8.531-8.535-8.531a8.532 8.532 0 0 0-8.532 8.531v17.067a8.533 8.533 0 0 0 8.532 8.535zM290.617 162.133c4.711 0 8.531-3.82 8.531-8.535V136.53a8.533 8.533 0 0 0-17.066 0v17.067a8.534 8.534 0 0 0 8.535 8.535zM378.945 358.938a8.51 8.51 0 0 0-6.53.222 8.53 8.53 0 0 0-4.462 4.777 208.644 208.644 0 0 1-81.605 97.989 8.535 8.535 0 0 0 4.27 15.941 8.43 8.43 0 0 0 4.265-1.129 222.28 222.28 0 0 0 89.062-106.812 8.53 8.53 0 0 0-5-10.988zm0 0"/></svg>