<svg height="512pt" viewBox="0 0 512 512" width="512pt" xmlns="http://www.w3.org/2000/svg"><path d="M452.266 145.066s-25.598 119.47-110.934 153.602H170.668C102.57 271.445 72.449 189.781 63.063 157.953c-2.305-8.023-3.329-12.887-3.329-12.887a369.298 369.298 0 0 0 93.868 31.914h204.796a441.846 441.846 0 0 0 64.942-19.027 255.783 255.783 0 0 0 28.926-12.887zm0 0" fill="#c52828"/><path d="M426.668 145.066s-1.023 4.864-3.328 12.887c-9.387 31.828-39.512 113.492-107.606 140.715H170.668C102.57 271.445 72.449 189.781 63.062 157.953A441.658 441.658 0 0 0 128 176.98h204.8a369.35 369.35 0 0 0 93.868-31.914zm0 0" fill="#f44335"/><path d="m360.45 314.879-95.575 39.851-5.46 2.22a8.066 8.066 0 0 1-6.743-.087l-5.375-2.386-3.586-1.625-87.637-39.848A42.834 42.834 0 0 0 179.2 275.03v-57.515h153.602v57.257a42.825 42.825 0 0 0 27.648 40.106zm0 0" fill="#37474f"/><path d="m334.848 314.879-91.137 37.973-87.637-39.848A42.834 42.834 0 0 0 179.2 275.03v-57.515h128v57.257a42.83 42.83 0 0 0 27.649 40.106zm0 0" fill="#9e9e9e"/><path d="M503.465 396.887v98.047c0 4.71-3.82 8.53-8.531 8.53H17.066a8.532 8.532 0 0 1-8.53-8.53v-98.047c-.005-27.59 18.91-51.586 45.737-58.028l37.801-9.214 19.457-4.696a352.198 352.198 0 0 0 69.801 38.23c7.938 3.415 15.363 8.364 22.445 11.692a23.886 23.886 0 0 0 24.746.594A51.292 51.292 0 0 0 243.2 360.96a60.173 60.173 0 0 0 4.098-6.484l8.703 3.921 8.875-3.668a57.791 57.791 0 0 0 17.578 19.97c.34.253.77.51 1.11.765 15.359 9.73 41.046-10.41 58.28-17.832a304.864 304.864 0 0 0 52.739-27.906 31.332 31.332 0 0 0 5.887-4.778l16.469 4.012 40.789 9.898c26.828 6.442 45.742 30.438 45.738 58.028zm0 0" fill="#37474f"/><path d="M477.867 396.887v98.047c0 4.71-3.82 8.53-8.535 8.53H17.066a8.532 8.532 0 0 1-8.53-8.53v-98.047c-.005-27.59 18.91-51.586 45.737-58.028l37.801-9.214a450.872 450.872 0 0 0 63.66 33.535c17.239 7.422 31.828 22.015 47.188 12.285.305-.168.59-.367.855-.594a57.81 57.81 0 0 0 17.918-20.394l8.703 3.921 8.875-3.668a71.966 71.966 0 0 0 3.926 6.23 52.612 52.612 0 0 0 14.762 14.505 27.06 27.06 0 0 0 24.492-.766c11.692-4.61 24.063-12.886 33.793-17.066a233.938 233.938 0 0 0 58.625-32.684l16.469 4.012 3.242.766 37.547 9.132c26.828 6.442 45.738 30.438 45.738 58.028zm0 0" fill="#607d8b"/><path d="M358.398 361.984S332.801 484.61 256 503.464c-76.8-18.855-102.398-141.48-102.398-141.48h88.914a45.798 45.798 0 0 1-27.051 18.86 46.794 46.794 0 0 1-10.324 1.11c2.562 8.019 19.543 57 50.859 74.323a190.982 190.982 0 0 0 50.773-74.324 46.101 46.101 0 0 1-10.324-1.11 45.62 45.62 0 0 1-26.965-18.859zm0 0" fill="#4527a0"/><path d="M306.773 381.953A190.982 190.982 0 0 1 256 456.277c-31.316-17.324-48.297-66.304-50.86-74.324 3.473.016 6.938-.36 10.325-1.11 9.816-2.218 4.867-9.472 12.8-20.308 1.622-2.219 17.497-3.328 19.032-6.058L256 350.37l8.875 4.36c1.45 2.644 15.188 3.585 16.727 5.804 7.933 10.836 5.035 18.09 14.847 20.309a46.101 46.101 0 0 0 10.324 1.11zm0 0" fill="#f4f4f4"/><path d="M215.465 380.844a46.794 46.794 0 0 1-10.324 1.11 8.064 8.064 0 0 1-.34-1.11zM307.2 380.844c-.169.34-.255.765-.427 1.11a46.101 46.101 0 0 1-10.324-1.11zm0 0" fill="#fff"/><path d="M358.398 128v61.441c.032 35.563-20.062 68.082-51.882 83.965L278.87 287.23a50.762 50.762 0 0 1-35.672 3.672 43.211 43.211 0 0 1-10.07-3.672l-27.645-13.824c-31.82-15.883-51.914-48.402-51.882-83.965V128s34.386-74.582 66.558-93.523a40.756 40.756 0 0 1 10.238 13.738A35.417 35.417 0 0 1 243.2 32.77 35.39 35.39 0 0 1 256 48.215a40.807 40.807 0 0 1 10.238-13.738C302.164 5.973 358.398 128 358.398 128zm0 0" fill="#607d8b"/><path d="M358.398 68.266V128a353.57 353.57 0 0 0-25.597-39.938c-18.52-24.66-43.692-49.32-63.574-36.18A40.602 40.602 0 0 0 256 68.267a40.86 40.86 0 0 0-12.8-16.125 24.273 24.273 0 0 0-26.028-.258C185.942 67.5 153.602 128 153.602 128V68.266c0-32.989 26.742-59.73 59.73-59.73h85.336c32.988 0 59.73 26.741 59.73 59.73zm0 0"/><path d="M332.8 128v61.441c.028 35.563-20.066 68.082-51.882 83.965L253.27 287.23a43.211 43.211 0 0 1-10.07 3.672 43.211 43.211 0 0 1-10.071-3.672l-27.645-13.824c-31.82-15.883-51.914-48.402-51.882-83.965V128s34.386-57.855 66.558-76.8c3.668 2.987 7.082-9.302 10.238-2.985 3.84-7.766 8.196 5.715 12.801 2.984A41.815 41.815 0 0 1 256 68.266a61.328 61.328 0 0 1 10.238-17.067C298.41 70.145 332.801 128 332.801 128zm0 0" fill="#cfd8dc"/><path d="M332.8 68.266v19.796c-18.519-24.66-43.69-49.32-63.573-36.18-9.047-4.523-5.207 2.306-13.227 7.852-8.02-5.547-29.781-12.375-38.828-7.851-19.883-13.14-45.055 42.922-63.57 67.582v-51.2c0-32.988 26.742-59.73 59.73-59.73h59.734c32.989 0 59.735 26.742 59.735 59.73zm0 0" fill="#37474f"/><path d="M247.297 354.477a75.99 75.99 0 0 1-4.781 7.507 45.798 45.798 0 0 1-27.051 18.86 46.794 46.794 0 0 1-10.324 1.11 98.618 98.618 0 0 1-51.371-19.97 259.627 259.627 0 0 1-42.239-37.035l35.07-8.449a40.534 40.534 0 0 0 9.473-3.496l48.727 19.797zM400.469 324.95a259.463 259.463 0 0 1-42.239 37.034 98.421 98.421 0 0 1-51.457 19.97 46.101 46.101 0 0 1-10.324-1.11 45.62 45.62 0 0 1-26.965-18.86 81.185 81.185 0 0 1-4.609-7.254l42.324-21.93 53.25-17.921a33.32 33.32 0 0 0 4.95 1.621l1.023.258zm0 0" fill="#673ab7"/><path d="m459.742 330.563-53.344-12.91a8.42 8.42 0 0 0-6.824-1.657l-31.047-7.516-1.039-.257a34.305 34.305 0 0 1-12.715-6.297C435.09 261.82 459.59 151.738 460.63 146.852a8.534 8.534 0 0 0-3.262-8.641 8.537 8.537 0 0 0-9.215-.61 354.53 354.53 0 0 1-81.218 28.704v-98.04C366.89 30.583 336.352.044 298.668 0h-85.336c-37.684.043-68.223 30.582-68.266 68.266v98.039a354.474 354.474 0 0 1-81.203-28.703 8.537 8.537 0 0 0-9.215.609 8.541 8.541 0 0 0-3.261 8.64c1.043 4.864 25.55 115.028 105.933 155.118a34.1 34.1 0 0 1-12.73 6.238l-32.156 7.79a8.43 8.43 0 0 0-6.825 1.648l-53.336 12.917C21.582 337.88-.055 365.332 0 396.887v98.047C0 504.359 7.64 512 17.066 512h477.868c9.425 0 17.066-7.64 17.066-17.066v-98.047c.059-31.547-21.57-59-52.258-66.325zm-75.426-.708c-19.78 20.106-55.246 49.665-82.773 46.934a35.36 35.36 0 0 1-26.223-17.168l85.578-35.66c.856.246 1.59.621 2.434.852zM162.133 130.203c15.898-29.219 47.597-73.45 68.719-73.45h.187c2.406 0 9.73.13 17.324 15.364.184.266.387.524.606.766.304.488.656.945 1.058 1.355.407.399.856.75 1.34 1.051.25.223.516.434.793.625.188.094.39.074.582.152.551.211 1.121.364 1.703.454a6.055 6.055 0 0 0 3.125 0 8.87 8.87 0 0 0 1.707-.454c.188-.078.391-.07.57-.152.274-.191.54-.394.786-.617a7.795 7.795 0 0 0 1.34-1.059 8.269 8.269 0 0 0 1.074-1.37c.219-.25.422-.509.61-.778 7.593-15.192 14.913-15.293 17.312-15.36h.195c21.086 0 52.797 44.22 68.719 73.43v59.281c.11 32.352-18.184 61.954-47.172 76.32l-27.613 13.81a42.875 42.875 0 0 1-38.16 0l-27.614-13.81c-28.996-14.363-47.297-43.964-47.191-76.32zm25.601 144.828v-2.433a103.305 103.305 0 0 0 13.942 8.449l20.191 10.078a32.151 32.151 0 0 1-5.972 18.574c-2.22 2.145-3.11 5.317-2.329 8.301s3.11 5.313 6.094 6.094 6.156-.11 8.3-2.328a42.294 42.294 0 0 0 10.349-23.414 59.302 59.302 0 0 0 44.468-3.5l27.606-13.805a103.473 103.473 0 0 0 13.883-8.45v2.176a51.397 51.397 0 0 0 17.539 38.657l-85.653 35.668-83.496-37.957a50.952 50.952 0 0 0 15.078-36.11zm64.938 91.176a8.253 8.253 0 0 0 6.613.07h.07a53.496 53.496 0 0 0 38.098 27.11 170.959 170.959 0 0 1-42.367 57.113c-22.824-14.508-36.691-46.43-40.856-57.063a53.482 53.482 0 0 0 38.442-27.23zm-56.242 26.777a8.07 8.07 0 0 0 .28 2.246c.743 2.227 18.603 54.766 55.466 73.208a8.543 8.543 0 0 0 8.937-.852 182.784 182.784 0 0 0 54.004-71.922c.32-.879.488-1.805.496-2.738a101.793 101.793 0 0 0 32.625-12.645c-6.785 23.344-33.36 99.805-92.238 114.364-58.762-14.508-85.41-90.993-92.238-114.348a101.988 101.988 0 0 0 32.668 12.687zM439.03 160.777c-10.238 32.426-38.082 100.692-94.941 127.23a34.26 34.26 0 0 1-2.758-13.234V260.18a8.5 8.5 0 0 0-.484-2.414 101.826 101.826 0 0 0 26.086-68.325v-5.668a424.899 424.899 0 0 0 72.097-22.996zM213.332 17.067h85.336c28.266.027 51.172 22.933 51.2 51.199v29.117c-16.571-24.848-43.216-57.695-68.747-57.695h-.375A31.926 31.926 0 0 0 256 52.573a31.926 31.926 0 0 0-24.746-12.886h-.395c-25.53 0-52.172 32.812-68.742 57.695V68.266c.028-28.27 22.945-51.18 51.215-51.2zM72.969 160.776c23.3 9.801 47.43 17.504 72.097 23.016v5.648c-.05 25.2 9.246 49.52 26.086 68.266a8.625 8.625 0 0 0-.484 2.473v14.851a33.935 33.935 0 0 1-2.68 13.012c-56.91-26.523-84.746-94.848-95.02-127.266zm75.664 164.012a51.7 51.7 0 0 0 8.015-2.7 8.19 8.19 0 0 0 1.954 1.411l78.43 35.652a35.59 35.59 0 0 1-26.555 17.621c-27.266 2.73-62.918-26.82-82.774-46.933zM17.066 396.887c-.035-23.676 16.22-44.266 39.254-49.735l52.285-12.644a275.726 275.726 0 0 0 38.926 35.207 8.393 8.393 0 0 0-2.25 7.68c.91 3.917 19.293 80.777 71.406 117.546h-97.222v-51.207a8.533 8.533 0 1 0-17.067 0v51.2H17.066zm477.868 98.047h-85.332v-51.2a8.534 8.534 0 1 0-17.067 0v51.2h-97.223c52.114-36.77 70.497-113.63 71.407-117.547a8.393 8.393 0 0 0-2.25-7.68 276.798 276.798 0 0 0 38.926-35.2l52.328 12.673c23.007 5.484 39.234 26.054 39.21 49.707zm0 0"/><path d="m200.984 127.148 12.946 6.465a8.407 8.407 0 0 0-.598 2.922v17.067c0 4.71 3.82 8.53 8.535 8.53 4.711 0 8.531-3.82 8.531-8.53v-11.793l4.72 2.363a8.534 8.534 0 0 0 12.336-8.152 8.534 8.534 0 0 0-4.708-7.125l-34.133-17.067a8.537 8.537 0 0 0-7.629 15.277zM273.066 145.066c1.32 0 2.625-.304 3.805-.894l4.73-2.363v11.793c0 4.71 3.82 8.53 8.532 8.53a8.533 8.533 0 0 0 8.535-8.53v-17.067a8.444 8.444 0 0 0-.598-2.96l12.946-6.47a8.537 8.537 0 0 0-7.629-15.277l-34.133 17.067a8.534 8.534 0 0 0 3.812 16.171zM221.867 204.8a8.533 8.533 0 1 0 0 17.067h8.531v8.531a8.534 8.534 0 1 0 17.067 0v-8.53h17.07v8.53a8.533 8.533 0 1 0 17.067 0v-8.53h8.53a8.534 8.534 0 1 0 0-17.067zm0 0"/></svg>