<svg height="512" viewBox="0 0 64 64" width="512" xmlns="http://www.w3.org/2000/svg"><g data-name="Fill Ouline"><path d="M37 38h12v6H37zM25 21a12.215 12.215 0 0 1 6.576 4.22L33 27v7l-2.59-1.3A6.168 6.168 0 0 1 27 27.188a6.178 6.178 0 0 0-.441-2.291z" fill="#80271e"/><path d="M61 21a12.215 12.215 0 0 0-6.576 4.22L53 27v7l2.59-1.3A6.168 6.168 0 0 0 59 27.188a6.178 6.178 0 0 1 .441-2.291z" fill="#cc5144"/><rect fill="#f8664f" height="30" rx="12" width="24" x="31" y="14"/><path d="m52.3 3 2.619 11.346A3.062 3.062 0 0 1 54.1 17.2l-2.635 2.635a3.061 3.061 0 0 1-4.33 0 3.062 3.062 0 0 1 .646-4.824l2.149-1.228a3.059 3.059 0 0 0 1.527-2.354z" fill="#d0d8da"/><path d="M35 44h16a10 10 0 0 1 10 10v7H25v-7a10 10 0 0 1 10-10z" fill="#cc5144"/><path d="m54.741 13.563-2.273 2.272a3.028 3.028 0 0 1-4.844-.706 3.054 3.054 0 1 0 3.844 4.706L54.1 17.2a3.063 3.063 0 0 0 .819-2.854z" fill="#93999a"/><path d="M48 40a12 12 0 0 1-12-12v-6a11.93 11.93 0 0 1 2.3-7.042A12 12 0 0 0 31 26v6a11.99 11.99 0 0 0 21.7 7.042A11.954 11.954 0 0 1 48 40z" fill="#cc5144"/><path d="m37 34 6 2 6-2a5.55 5.55 0 0 1-3.8 5.265L43 40l-2.2-.735A5.55 5.55 0 0 1 37 34z" fill="#fcbc04"/><path d="m43 38 5.549-1.85A5.517 5.517 0 0 0 49 34l-6 2-6-2a5.517 5.517 0 0 0 .451 2.15z" fill="#e59730"/><path d="m41 28-.646 1.076a3 3 0 0 1-5.014.2L33 26zM45 28l.646 1.076a3 3 0 0 0 5.014.2L53 26z" fill="#fcbc04"/><path d="m32.7 3-2.622 11.346A3.062 3.062 0 0 0 30.9 17.2l2.635 2.635a3.061 3.061 0 0 0 4.33 0 3.062 3.062 0 0 0-.646-4.824l-2.149-1.228a3.059 3.059 0 0 1-1.527-2.354z" fill="#d0d8da"/><path d="M35.532 17.835 32.9 15.2a3.063 3.063 0 0 1-.819-2.854l1.084-4.695L32.7 3l-2.622 11.346A3.063 3.063 0 0 0 30.9 17.2l2.635 2.635a3.057 3.057 0 0 0 5.087-1.259 3.051 3.051 0 0 1-3.09-.741z" fill="#93999a"/><path d="M39.842 29.711a3.032 3.032 0 0 0 .512-.635L41 28l-8-2 1.739 2.435zM46.158 29.711l5.1-1.276L53 26l-8 2 .646 1.076a3.032 3.032 0 0 0 .512.635z" fill="#e59730"/><path d="M33 46v-1.8a10 10 0 0 0-8 9.8v7h36v-5H43a10 10 0 0 1-10-10z" fill="#80271e"/><g fill="#e59730"><path d="M40.8 39.265 43 40l1.537-.512a12.015 12.015 0 0 1-6.761-5.23L37 34a5.55 5.55 0 0 0 3.8 5.265zM35.34 29.277a2.952 2.952 0 0 0 .848.773A11.93 11.93 0 0 1 36 28v-1.25L33 26z"/></g><path d="M54 51v10h-2v-8a2 2 0 0 1 2-2z" fill="#80271e"/><path d="M23 37a2 2 0 0 1-2-2V23l2 4z" fill="#f8664f"/><path d="m21 23-2 4v10h-4V27l-2-4-2 4v10H7V27l-2-4-2 4v10a4 4 0 0 0 4 4h4v20h4V41h4a4 4 0 0 0 4-4V27z" fill="#cc5144"/><g fill="#f8664f"><path d="M7 37a2 2 0 0 1-2-2V23l2 4zM15 37a2 2 0 0 1-2-2V23l2 4zM15 43v15a2 2 0 0 1-2-2V45a2 2 0 0 1 2-2z"/></g><g fill="#323232" data-name="Outline copy"><path d="m40.479 40.214 2.2.735a1 1 0 0 0 .632 0l2.2-.735A6.544 6.544 0 0 0 50 34a1 1 0 0 0-1.316-.949L43 34.946l-5.684-1.895A1 1 0 0 0 36 34a6.544 6.544 0 0 0 4.479 6.214zm2.2-3.265a1 1 0 0 0 .632 0l4.442-1.481a4.544 4.544 0 0 1-2.869 2.848l-1.884.63-1.889-.63a4.544 4.544 0 0 1-2.869-2.848z"/><path d="M51 43h-1.1a13 13 0 0 0 5.983-9.321l.158-.079A7.132 7.132 0 0 0 60 27.188a5.119 5.119 0 0 1 .37-1.919l1.559-3.9a1 1 0 0 0-1.171-1.342 13.133 13.133 0 0 0-5.2 2.632 13.033 13.033 0 0 0-.264-.879 1 1 0 0 0-1.891.655A10.827 10.827 0 0 1 54 26v6a11 11 0 0 1-22 0v-2a1 1 0 0 0-2 0v1.258a5.126 5.126 0 0 1-2-4.07 7.14 7.14 0 0 0-.513-2.663l-.741-1.853a11.2 11.2 0 0 1 3.291 2.347c-.024.325-.037.652-.037.981a1 1 0 0 0 2 0 10.939 10.939 0 0 1 1.262-5.1 4.031 4.031 0 0 0 5.954-5.216 10.975 10.975 0 0 1 6.708-.271 4.064 4.064 0 0 0 6.252 5.13l2.635-2.635a4.039 4.039 0 0 0 1.089-3.787L53.277 2.775a1 1 0 0 0-1.969.125l-.843 8.43a2.065 2.065 0 0 1-1.028 1.585l-1.731.989a12.962 12.962 0 0 0-9.983.247l-.011-.008-2.149-1.228a2.065 2.065 0 0 1-1.028-1.585l-.843-8.43a1 1 0 0 0-1.969-.125L29.1 14.122a4.037 4.037 0 0 0 1.085 3.785l1.571 1.571a12.877 12.877 0 0 0-1.317 3.184 13.143 13.143 0 0 0-5.2-2.632 1 1 0 0 0-1.171 1.342l1.56 3.9A5.138 5.138 0 0 1 26 27.188a7.132 7.132 0 0 0 3.963 6.412l.158.079A13 13 0 0 0 36.1 43H35a11.013 11.013 0 0 0-11 11v7a1 1 0 0 0 2 0v-7a9.01 9.01 0 0 1 9-9h16a9.01 9.01 0 0 1 9 9v7a1 1 0 0 0 2 0v-7a11.013 11.013 0 0 0-11-11zm8.254-20.328-.74 1.853A7.121 7.121 0 0 0 58 27.188a5.126 5.126 0 0 1-2 4.07V26c0-.328-.016-.653-.04-.978a11.219 11.219 0 0 1 3.294-2.35zm-8.825-8.02a4.073 4.073 0 0 0 2.026-3.123l.238-2.389 1.254 5.431a2.051 2.051 0 0 1-.551 1.922l-2.634 2.635a2.063 2.063 0 1 1-2.482-3.249l.017-.01zm-19.376-.081 1.254-5.431.238 2.389a4.07 4.07 0 0 0 2.026 3.122l2.149 1.228a2.063 2.063 0 1 1-2.482 3.249L31.6 16.493a2.051 2.051 0 0 1-.547-1.922z"/><path d="M33 54a1 1 0 0 0-1 1v6a1 1 0 0 0 2 0v-6a1 1 0 0 0-1-1zM54 54a1 1 0 0 0-1 1v6a1 1 0 0 0 2 0v-6a1 1 0 0 0-1-1zM41.707 50.293l-2-2A1 1 0 0 0 39 48h-5a1 1 0 0 0 0 2h4.586l1.707 1.707a1 1 0 0 0 1.414-1.414zM52 48h-5a1 1 0 0 0-.707.293l-2 2a1 1 0 1 0 1.414 1.414L47.414 50H52a1 1 0 0 0 0-2zM43 53a1 1 0 0 0-1 1v4a1 1 0 0 0 2 0v-4a1 1 0 0 0-1-1zM37.941 31.53a3.989 3.989 0 0 0 3.271-1.939l.645-1.077a1 1 0 0 0-.615-1.484l-8-2a1 1 0 0 0-1.055 1.551l2.34 3.277a3.986 3.986 0 0 0 3.252 1.675q.081 0 .162-.003zm-1.787-2.83-.761-1.067 4.053 1.014a2 2 0 0 1-3.292.053zM52.758 25.03l-8 2a1 1 0 0 0-.615 1.484l.645 1.077a3.989 3.989 0 0 0 3.271 1.939h.162a3.986 3.986 0 0 0 3.252-1.675l2.34-3.277a.988.988 0 0 0 .187-.57 1 1 0 0 0-1.242-.981zm-2.912 3.67a1.942 1.942 0 0 1-1.707.836 1.963 1.963 0 0 1-1.585-.888l4.053-1.014zM43 19a1 1 0 0 0-1 1v4a1 1 0 0 0 2 0v-4a1 1 0 0 0-1-1zM11 40H7a3 3 0 0 1-3-3v-6a1 1 0 0 0-2 0v6a5.006 5.006 0 0 0 5 5h3v19a1 1 0 0 0 2 0V41a1 1 0 0 0-1-1z"/><path d="M14 33a1 1 0 0 0 2 0v-6a1 1 0 0 0-.105-.447l-2-4a1.042 1.042 0 0 0-1.79 0l-2 4A1 1 0 0 0 10 27v9H8v-9a1 1 0 0 0-.105-.447l-2-4a1.042 1.042 0 0 0-1.79 0l-2 4a1 1 0 1 0 1.79.894L5 25.236l1 2V37a1 1 0 0 0 1 1h4a1 1 0 0 0 1-1v-9.764l1-2 1 2z"/><path d="M24 27a1 1 0 0 0-.105-.447l-2-4a1.042 1.042 0 0 0-1.79 0l-2 4A1 1 0 0 0 18 27v9h-3a1 1 0 0 0 0 2h4a1 1 0 0 0 1-1v-9.764l1-2 1 2V37a3 3 0 0 1-3 3h-4a1 1 0 0 0-1 1v20a1 1 0 0 0 2 0V42h3a5.006 5.006 0 0 0 5-5z"/></g></g></svg>