<svg xmlns="http://www.w3.org/2000/svg" viewBox="0 0 512 512" style="enable-background:new 0 0 512 512" xml:space="preserve"><path style="fill:#d19546" d="M435.388 438.545a2.62 2.62 0 0 1-.377-3.502c5.191-7.163 7.936-15.625 7.936-24.473 0-23.06-18.801-41.821-41.91-41.821h-44.503a5.013 5.013 0 0 1-4.817-3.662c-5.793-20.847-23.929-38.084-48.127-47.987-14.365 7.035-30.514 10.99-47.589 10.99-17.074 0-33.223-3.955-47.589-10.991-24.198 9.903-42.334 27.14-48.127 47.988a5.014 5.014 0 0 1-4.817 3.661h-44.503c-23.109 0-41.91 18.761-41.91 41.821 0 8.847 2.744 17.31 7.936 24.473a2.62 2.62 0 0 1-.377 3.502c-8.514 7.618-13.397 18.506-13.397 29.87v31.012a5.08 5.08 0 0 0 5.085 5.073h375.4a5.08 5.08 0 0 0 5.085-5.073v-31.012c-.002-11.363-4.886-22.251-13.399-29.869z"/><path style="opacity:.15;fill:#490089;enable-background:new" d="M89.466 499.427v-31.012c0-11.364 4.884-22.252 13.397-29.87a2.62 2.62 0 0 0 .377-3.502c-5.191-7.163-7.935-15.625-7.935-24.473 0-23.06 18.801-41.821 41.91-41.821h-26.251c-23.109 0-41.91 18.761-41.91 41.821 0 8.847 2.744 17.31 7.936 24.473a2.62 2.62 0 0 1-.377 3.502c-8.514 7.618-13.397 18.506-13.397 29.87v31.012a5.08 5.08 0 0 0 5.085 5.073h26.251a5.08 5.08 0 0 1-5.086-5.073z"/><path style="fill:#5dc647" d="M448.261 462H406v22h42.785v-15.585c0-2.162-.179-4.307-.524-6.415z"/><path style="fill:#d19546" d="M147.722 223.82c2.153 57.951 49.804 104.271 108.278 104.271 58.477 0 106.125-46.321 108.278-104.271H147.722z"/><path style="fill:#c0272d" d="M331.234 223.82v73.889c19.509-18.825 31.965-44.902 33.042-73.889h-33.042zM147.724 223.82c1.077 28.987 13.533 55.064 33.042 73.889V223.82h-33.042z"/><path style="fill:#fb8276" d="M215.196 294.965a3.924 3.924 0 0 1-3.924-3.924v-28.248c0-9.086 7.392-16.479 16.479-16.479h56.498c9.086 0 16.479 7.393 16.479 16.479v28.248a3.924 3.924 0 0 1-3.924 3.924h-81.608z"/><path style="fill:#fff" d="M284.249 246.314h-56.498c-9.086 0-16.479 7.393-16.479 16.479v10.201h89.455v-10.201c.001-9.087-7.392-16.479-16.478-16.479z"/><path style="fill:#c0272d" d="M139.073 223.82a5 5 0 0 1-5-5v-90.028C134.073 61.911 188.77 7.5 256 7.5s121.927 54.411 121.927 121.292v90.028a5 5 0 0 1-5 5H139.073z"/><g style="opacity:.15"><path style="fill:#330068" d="M208 17.302v18.301c17.528-14.53 39.192-24.282 62.963-27.189A123.375 123.375 0 0 0 256 7.5c-18.16 0-35.401 3.977-50.901 11.09.96-.441 1.927-.871 2.901-1.288zM164 218.82v-27.776c-7.956-5.921-14.756-14.204-20.061-24.64-6.958-13.689-9.203-26.792-9.583-29.28-1.087-7.253 1.011-14.547 5.748-20.065a24.876 24.876 0 0 1 18.897-8.689h6.732c1.806-10.55 5.007-20.629 9.371-30.07C169.608 74.512 166 68.18 166 61V47.051c-19.82 21.577-31.927 50.278-31.927 81.741v90.028a5 5 0 0 0 5 5H169a5 5 0 0 1-5-5z"/></g><path style="fill:#5dc647" d="M307 18.635V61c0 11.598 9.402 21 21 21s21-9.402 21-21V50.449a122.538 122.538 0 0 0-42-31.814zM187 82c11.598 0 21-9.402 21-21V17.302a122.485 122.485 0 0 0-42 29.749V61c0 11.598 9.402 21 21 21z"/><path style="fill:#ffc502" d="M371.898 117.062a24.88 24.88 0 0 0-18.9-8.693H322.76c-28.796 0-52.303 10.279-66.76 29.058-14.456-18.778-37.963-29.058-66.76-29.058h-30.238a24.88 24.88 0 0 0-18.897 8.689c-4.737 5.519-6.835 12.812-5.748 20.065.38 2.488 2.625 15.591 9.583 29.28 11.588 22.795 30.287 35.35 52.656 35.35h35.049L251 168.229c2.75-4.763 7.25-4.763 10 0l19.355 33.525h35.049c22.369 0 41.068-12.555 52.657-35.352 6.958-13.69 9.203-26.792 9.59-29.331a25 25 0 0 0-5.753-20.009z"/><path style="fill:#203a74" d="M356.521 130.318a4.644 4.644 0 0 0-3.523-1.62H322.76c-16.743 0-39.457 4.124-52.587 23.771-4.597 6.879-6.694 13.752-7.65 18.395l6.096 10.559h46.786c14.561 0 26.52-8.385 34.583-24.249 5.791-11.394 7.533-22.65 7.605-23.124a4.673 4.673 0 0 0-1.072-3.732z"/><path style="opacity:.15;fill:#0a0014;enable-background:new" d="M322.76 128.699c-16.743 0-39.457 4.124-52.587 23.771-4.597 6.879-6.694 13.752-7.65 18.395l6.096 10.559h27.026a4.642 4.642 0 0 1-3.346-1.426 4.658 4.658 0 0 1-1.296-3.406c.018-.497.549-12.308 8.443-24.122 13.13-19.647 35.844-23.771 52.587-23.771H322.76z"/><path style="fill:#203a74" d="M249.477 170.865c-.956-4.643-3.054-11.517-7.65-18.395-13.13-19.647-35.844-23.771-52.587-23.771h-30.238c-1.354 0-2.64.591-3.522 1.62a4.67 4.67 0 0 0-1.072 3.732c.072.474 1.814 11.73 7.605 23.124 8.064 15.864 20.021 24.249 34.583 24.249h46.786l6.095-10.559z"/><g style="opacity:.15"><path style="fill:#0a0014" d="M191.657 157.175c-5.791-11.394-7.533-22.65-7.605-23.124a4.67 4.67 0 0 1 1.072-3.732 4.644 4.644 0 0 1 3.523-1.62h-29.645c-1.354 0-2.64.591-3.522 1.62a4.67 4.67 0 0 0-1.072 3.732c.072.474 1.814 11.73 7.605 23.124 8.064 15.864 20.021 24.249 34.583 24.249h29.645c-14.562 0-26.52-8.385-34.584-24.249z"/></g><path style="fill:#5dc647" d="M293.095 223.82 261 168.229c-2.75-4.763-7.25-4.763-10 0l-32.095 55.591h74.19z"/><path style="fill:#ffc502" d="M273.456 93c-.478 0-.957-.114-1.396-.345L256 84.212l-16.06 8.443a2.997 2.997 0 0 1-3.16-.228 3 3 0 0 1-1.193-2.934l3.067-17.883-12.993-12.665a3.002 3.002 0 0 1 1.662-5.118l17.956-2.609 8.03-16.271a3.001 3.001 0 0 1 5.38 0l8.03 16.271 17.956 2.609a3.002 3.002 0 0 1 1.662 5.118L273.346 71.61l3.067 17.883A3.003 3.003 0 0 1 273.456 93z"/><path d="M227 371.5h-45c-4.143 0-7.5 3.358-7.5 7.5s3.357 7.5 7.5 7.5h45c4.686 0 8.5 3.813 8.5 8.5 0 4.142 3.357 7.5 7.5 7.5s7.5-3.358 7.5-7.5c0-12.958-10.542-23.5-23.5-23.5zM331 371.5h-46c-12.958 0-23.5 10.542-23.5 23.5 0 4.142 3.357 7.5 7.5 7.5s7.5-3.358 7.5-7.5c0-4.687 3.814-8.5 8.5-8.5h46c4.143 0 7.5-3.358 7.5-7.5s-3.357-7.5-7.5-7.5zM256 484.5a7.5 7.5 0 0 0 7.5-7.5v-57a7.5 7.5 0 0 0-7.5-7.5 7.5 7.5 0 0 0-7.5 7.5v57a7.5 7.5 0 0 0 7.5 7.5z"/><path d="M443.418 435.919c4.61-7.646 7.028-16.328 7.028-25.349 0-27.196-22.165-49.321-49.41-49.321h-42.634c-5.684-18.244-19.832-33.838-38.891-44.662 28.454-18.727 48.203-49.648 51.759-85.268h1.656c6.893 0 12.5-5.607 12.5-12.5v-90.028C385.427 57.776 327.366 0 256 0S126.573 57.776 126.573 128.792v90.028c0 6.893 5.607 12.5 12.5 12.5h1.656c3.553 35.592 23.275 66.493 51.694 85.224a102.183 102.183 0 0 0-5.515 3.328 7.5 7.5 0 1 0 8.182 12.571c4.128-2.687 8.558-5.063 13.213-7.135.353.16.707.315 1.062.472v15.99c0 4.142 3.357 7.5 7.5 7.5s7.5-3.358 7.5-7.5v-10.576c10.06 2.86 20.67 4.397 31.635 4.397s21.575-1.537 31.635-4.397v10.576c0 4.142 3.357 7.5 7.5 7.5s7.5-3.358 7.5-7.5v-15.99c.383-.169.766-.338 1.147-.512 20.559 9.137 35.762 24.025 40.708 41.826 1.496 5.391 6.449 9.155 12.044 9.155h44.503c18.974 0 34.41 15.396 34.41 34.321a33.995 33.995 0 0 1-6.505 20.067 10.101 10.101 0 0 0 1.445 13.496 32.77 32.77 0 0 1 7.74 10.366H413.5V432c0-4.142-3.357-7.5-7.5-7.5s-7.5 3.358-7.5 7.5v65H355c-4.143 0-7.5 3.358-7.5 7.5s3.357 7.5 7.5 7.5h88.7c6.939 0 12.585-5.64 12.585-12.573v-31.012c0-12.083-4.644-23.708-12.867-32.496zM338.734 277.341V231.32h17.459c-1.951 16.971-8.134 32.669-17.459 46.021zm31.693-61.021h-73.002l-4.079-7.066h22.059c22.689 0 41.955-11.245 55.022-31.865v38.931zM314.5 31.033a115.121 115.121 0 0 1 27 22.223V61c0 7.444-6.056 13.5-13.5 13.5s-13.5-6.056-13.5-13.5V31.033zm-141 18.99a115.076 115.076 0 0 1 27-20.711V61c0 7.444-6.056 13.5-13.5 13.5s-13.5-6.056-13.5-13.5V50.023zm127.7 60.13a7.5 7.5 0 0 0-9.298-5.103c-14.105 4.109-26.358 11.293-35.898 20.981-16.018-16.292-39.367-25.162-66.764-25.162h-30.238a32.318 32.318 0 0 0-14.791 3.586 112.845 112.845 0 0 1 15.145-36.523C162.461 80.307 173.676 89.5 187 89.5c15.715 0 28.5-12.785 28.5-28.5V22.37C228.097 17.613 241.746 15 256 15c15.393 0 30.082 3.045 43.5 8.551V61c0 15.715 12.785 28.5 28.5 28.5 12.139 0 22.523-7.632 26.624-18.347a112.755 112.755 0 0 1 13.148 33.294 32.318 32.318 0 0 0-14.775-3.578H338c-4.143 0-7.5 3.358-7.5 7.5s3.357 7.5 7.5 7.5h14.998c5.08 0 9.895 2.215 13.21 6.078a17.497 17.497 0 0 1 4.029 13.994c-.35 2.296-2.421 14.389-8.861 27.062-10.244 20.152-26.571 31.251-45.972 31.251h-30.719l-3.077-5.33h33.796c17.32 0 31.977-10.068 41.269-28.351 6.197-12.193 8.134-24.078 8.337-25.41a12.16 12.16 0 0 0-2.799-9.729 12.13 12.13 0 0 0-9.213-4.234H322.76c-33.646 0-50.56 14.739-58.822 27.104a58.549 58.549 0 0 0-5.019 9.228 11.756 11.756 0 0 0-2.919-.374c-.998 0-1.973.132-2.92.374a58.583 58.583 0 0 0-5.018-9.228c-8.263-12.365-25.176-27.104-58.822-27.104h-30.238a12.135 12.135 0 0 0-9.215 4.236 12.172 12.172 0 0 0-2.794 9.746c.2 1.315 2.138 13.202 8.334 25.393 9.292 18.282 23.948 28.351 41.269 28.351h33.796l-3.077 5.33h-30.719c-19.4 0-35.727-11.098-45.971-31.249-6.435-12.66-8.505-24.724-8.852-26.993-.761-5.078.705-10.205 4.022-14.07a17.386 17.386 0 0 1 13.206-6.073h30.238c26.245 0 47.844 9.281 60.816 26.133a7.502 7.502 0 0 0 11.885 0c8.299-10.779 19.79-18.366 34.155-22.551a7.502 7.502 0 0 0 5.105-9.3zM256 174.569l24.104 41.751h-48.209L256 174.569zm-59.404-.645c-11.716 0-21.102-6.778-27.898-20.147-3.493-6.874-5.361-13.694-6.233-17.578h26.775c14.914 0 35.063 3.546 46.352 20.438 3.121 4.671 4.892 9.375 5.895 13.071l-2.434 4.216h-42.457zm76.352 0-2.435-4.216c1.003-3.697 2.773-8.4 5.895-13.071 11.289-16.893 31.438-20.438 46.352-20.438h26.775c-.874 3.89-2.741 10.707-6.233 17.578-6.796 13.369-16.182 20.147-27.897 20.147h-42.457zm-99.682 103.417c-9.324-13.352-15.508-29.05-17.459-46.021h17.459v46.021zm-31.693-61.021v-38.931c13.067 20.62 32.334 31.865 55.023 31.865h22.059l-4.079 7.066h-73.003zM256 320.591c-26.05 0-49.82-9.931-67.734-26.202v-63.07h135.469v63.07C305.82 310.66 282.05 320.591 256 320.591zM441.285 497H413.5v-5.5h27.785v5.5zm0-20.5H413.5v-7h27.785v7zM313 497H113.5v-65c0-4.142-3.357-7.5-7.5-7.5s-7.5 3.358-7.5 7.5v65H70.715v-28.585c0-9.233 3.973-18.083 10.9-24.281a10.1 10.1 0 0 0 1.448-13.492 33.992 33.992 0 0 1-6.509-20.071c0-18.925 15.436-34.321 34.41-34.321h44.503c5.595 0 10.547-3.765 12.044-9.153a49.27 49.27 0 0 1 3.375-8.754 7.5 7.5 0 0 0-13.43-6.683 64.753 64.753 0 0 0-3.858 9.591h-42.634c-27.245 0-49.41 22.125-49.41 49.321 0 9.019 2.417 17.7 7.028 25.348-8.223 8.789-12.867 20.414-12.867 32.497v31.012C55.715 506.36 61.36 512 68.3 512H313c4.143 0 7.5-3.358 7.5-7.5s-3.357-7.5-7.5-7.5z"/><path d="M284.249 238.814h-56.498c-13.222 0-23.979 10.757-23.979 23.979v28.248c0 6.299 5.125 11.424 11.424 11.424h81.607c6.299 0 11.424-5.125 11.424-11.424v-28.248c.001-13.223-10.756-23.979-23.978-23.979zm-35.583 15h14.668v11.68h-14.668v-11.68zm-29.893 8.979c0-4.951 4.027-8.979 8.979-8.979h5.915v11.68h-14.893l-.001-2.701zm74.455 24.672h-74.455v-6.971h74.455v6.971zm0-21.971h-14.893v-11.68h5.915c4.951 0 8.979 4.028 8.979 8.979v2.701h-.001zM285.755 46.406l-14.054-2.042-6.286-12.738A10.438 10.438 0 0 0 256 25.775a10.439 10.439 0 0 0-9.416 5.853l-6.285 12.735-14.054 2.042a10.442 10.442 0 0 0-8.478 7.149 10.436 10.436 0 0 0 2.658 10.761l10.17 9.913-2.401 14.001c-.679 3.967.922 7.9 4.185 10.271 1.806 1.309 3.938 2 6.165 2a10.55 10.55 0 0 0 4.887-1.206L256 92.685l12.57 6.609a10.54 10.54 0 0 0 4.886 1.206c2.228 0 4.359-.691 6.173-2.006a10.438 10.438 0 0 0 4.176-10.27l-2.4-13.997 10.169-9.912c2.883-2.809 3.901-6.933 2.657-10.769a10.44 10.44 0 0 0-8.476-7.14zM268.11 66.239a7.496 7.496 0 0 0-2.156 6.639l1.525 8.896-7.989-4.201a7.5 7.5 0 0 0-6.98 0l-7.989 4.201 1.525-8.896a7.5 7.5 0 0 0-2.156-6.639l-6.464-6.301 8.932-1.298a7.5 7.5 0 0 0 5.647-4.102L256 46.442l3.995 8.095a7.499 7.499 0 0 0 5.648 4.102l8.932 1.298-6.465 6.302z"/></svg>