<svg height="512" width="512" xmlns="http://www.w3.org/2000/svg"><path d="M375.769 315.767 259.082 504.5h218.942V373.418c0-31.84-25.811-57.651-57.651-57.651z" fill="#8993da"/><path d="M424.136 315.888c8.657 10.085 13.888 23.197 13.888 37.53v90.003c0 22.688-18.392 41.08-41.08 41.08H271.447l-12.365 20h218.942V373.418c0-30.575-23.802-55.592-53.888-57.53z" fill="#707dd3"/><path d="M139.001 315.767c-12.244 0-23.597 3.817-32.933 10.326v151.094h18.966V504.5h104.907l35.175-56.894-81.512-131.84h-44.603z" fill="#8993da"/><path d="M125.034 484.5v20h104.907l12.365-20z" fill="#707dd3"/><g fill="#fff1dd"><path d="M222.508 315.767a8.25 8.25 0 0 0 8.25-8.25v-33.231c17.153 11.733 36.096 18.453 48.929 18.453s31.776-6.719 48.929-18.453v33.231a8.25 8.25 0 0 0 8.25 8.25h9.762l-66.941 108.272-66.941-108.272zM372.741 202.775h-2.974l4.495-61.03h16.146c11.353 0 20.557 9.204 20.557 20.557v2.248c-.001 21.112-17.114 38.225-38.224 38.225zM186.633 202.775h2.975l-4.495-61.03h-16.146c-11.354 0-20.557 9.204-20.557 20.557v2.248c-.001 21.112 17.112 38.225 38.223 38.225z"/></g><path d="m259.082 504.5 116.687-188.733h-29.141L229.941 504.5z" fill="#dfdde2"/><path d="m242.306 484.5-12.365 20h29.141l12.365-20z" fill="#c6c1c8"/><path d="m279.687 424.039-66.941-108.272h-29.142l81.512 131.839z" fill="#f1f1f4"/><path d="m320.981 86.04 17.551 38.927a28.486 28.486 0 0 0 25.97 16.778h14.629l1.134-15.399c2.076-28.191-7.225-56.22-26.397-76.992a103.753 103.753 0 0 0-8.167-7.933c-1.849-1.608-4.637-1.49-6.37.243l-12.523 12.523a28.489 28.489 0 0 0-5.827 31.853z" fill="#665e66"/><path d="M353.868 49.354a103.561 103.561 0 0 0-8.167-7.932c-1.849-1.608-4.637-1.49-6.37.243l-7.506 7.506c13.749 19.371 20.204 43.215 18.44 67.176l-.06.81a15.742 15.742 0 0 1-8.683 12.94 28.49 28.49 0 0 0 22.98 11.649h14.629l1.134-15.399c2.076-28.191-7.225-56.221-26.397-76.993z" fill="#544f57"/><path d="m220.841 124.967 17.551-38.927a28.486 28.486 0 0 0-5.826-31.852l-12.523-12.523c-1.733-1.733-4.521-1.851-6.37-.243a103.755 103.755 0 0 0-8.174 7.94c-19.167 20.772-28.465 48.799-26.389 76.986l1.134 15.397h14.629a28.483 28.483 0 0 0 25.968-16.778zM285.138 55.562h-10.902c-8.424 0-15.51-6.316-16.475-14.685l-2.725-23.636c-.598-5.189 3.459-9.741 8.682-9.741h31.937c5.223 0 9.281 4.552 8.682 9.741l-2.725 23.636c-.964 8.369-8.05 14.685-16.474 14.685z" fill="#665e66"/><path d="M364.502 141.746a28.488 28.488 0 0 1-25.97-16.779L320.981 86.04a28.488 28.488 0 0 1 5.826-31.853l12.073-12.073a95.577 95.577 0 0 0-35.401-17.428l-1.867 16.191c-.965 8.369-8.051 14.685-16.475 14.685h-10.902c-8.424 0-15.51-6.316-16.475-14.685l-1.867-16.191a95.581 95.581 0 0 0-35.402 17.428l12.073 12.073a28.486 28.486 0 0 1 5.826 31.852l-17.551 38.927a28.488 28.488 0 0 1-25.97 16.779h-9.759l5.289 71.816c3.444 46.767 61.099 79.176 89.285 79.176s85.841-32.409 89.285-79.176l5.289-71.816h-9.756z" fill="#fff1dd"/><path d="m374.261 141.746-5.289 71.816c-3.444 46.767-61.099 79.176-89.285 79.176-14.063 0-35.462-8.068-53.803-21.962 5.038 1.29 9.715 1.962 13.78 1.962 28.295 0 86.174-32.535 89.631-79.483l5.62-76.31 3.617 8.022a28.487 28.487 0 0 0 25.97 16.779zm-47.952-87.047c.164-.172 12.572-12.585 12.572-12.585a95.577 95.577 0 0 0-35.401-17.428l-.012.101a96.993 96.993 0 0 1 22.841 29.912z" fill="#ffe4c1"/><path d="M106.068 477.187H52.942V157.585a133.45 133.45 0 0 1 53.126-106.569z" fill="#f1f1f4"/><path d="M33.976 477.187h91.058V504.5H33.976z" fill="#f9f48e"/><path d="M106.068 266.5a7.5 7.5 0 0 0 7.5-7.5V51.016c0-6.174-7.076-9.71-12.014-5.989-35.136 26.482-56.112 68.561-56.112 112.559v312.102H33.976a7.5 7.5 0 0 0-7.5 7.5V504.5a7.5 7.5 0 0 0 7.5 7.5h444.048a7.5 7.5 0 0 0 7.5-7.5v-75.177c0-4.143-3.358-7.5-7.5-7.5s-7.5 3.357-7.5 7.5V497h-54.345v-82.677c0-4.143-3.358-7.5-7.5-7.5s-7.5 3.357-7.5 7.5V497H272.537l107.414-173.733h40.422c27.654 0 50.151 22.498 50.151 50.151v20.905c0 4.143 3.358 7.5 7.5 7.5s7.5-3.357 7.5-7.5v-20.905c0-35.925-29.227-65.151-65.151-65.151h-83.507a.75.75 0 0 1-.75-.75v-29.348c21.275-15.52 38.405-37.833 40.336-64.057l.295-4.011c23.343-2.036 41.717-21.687 41.717-45.549v-2.249c0-15.471-12.586-28.057-28.057-28.057h-3.204l.541-7.349c2.449-33.257-9.929-67.487-37.121-91.135-3.137-2.727-7.339-3.559-11.133-2.548a102.252 102.252 0 0 0-27.834-13.972l.132-1.143C312.896 8.496 305.39 0 295.655 0h-31.937c-9.669 0-17.249 8.43-16.133 18.101l.132 1.142a102.252 102.252 0 0 0-27.834 13.972c-3.794-1.011-7.995-.18-11.131 2.548a111.485 111.485 0 0 0-8.765 8.515 7.5 7.5 0 0 0 .426 10.598 7.498 7.498 0 0 0 10.598-.426 97.79 97.79 0 0 1 5.609-5.601l10.643 10.644c6.131 6.131 7.856 15.562 4.292 23.466l-17.551 38.927a21.019 21.019 0 0 1-19.132 12.361h-7.661l-.622-8.447c-1.063-14.435 1.131-29.095 6.344-42.396a7.5 7.5 0 0 0-4.246-9.719 7.498 7.498 0 0 0-9.72 4.246c-6.027 15.377-8.564 32.312-7.337 48.971l.541 7.347h-3.204c-15.471 0-28.057 12.586-28.057 28.057v2.249c0 23.862 18.374 43.513 41.717 45.549l.295 4.011c1.93 26.196 19.012 48.505 40.336 64.056v29.348a.75.75 0 0 1-.75.75h-83.507c-8.84 0-17.45 1.758-25.433 5.148V294c0-4.143-3.358-7.5-7.5-7.5s-7.5 3.357-7.5 7.5v175.687H87.005V162.472c0-4.143-3.358-7.5-7.5-7.5s-7.5 3.357-7.5 7.5v307.215H60.442V157.585c0-34.005 14.023-66.728 38.126-90.259V259a7.5 7.5 0 0 0 7.5 7.5zM41.476 484.687h76.058V497H41.476zM254.901 497h-11.506l107.414-173.733h11.506zm-46.336-173.733 62.304 100.772-5.753 9.305-68.056-110.077zm194.899-160.964v2.249c0 15.194-11.086 27.846-25.594 30.295l3.358-45.601h9.178c7.201 0 13.058 5.858 13.058 13.057zm-30.679-36.507-.622 8.449h-7.661a21.02 21.02 0 0 1-19.132-12.361l-17.551-38.927c-3.564-7.904-1.839-17.335 4.292-23.466l10.643-10.644c21.725 19.984 32.128 48.475 30.031 76.949zM263.718 15h31.937c.751 0 1.316.652 1.232 1.382l-2.725 23.636a9.082 9.082 0 0 1-9.024 8.044h-10.902a9.082 9.082 0 0 1-9.024-8.044l-2.725-23.636A1.236 1.236 0 0 1 263.718 15zM155.909 164.552v-2.249c0-7.199 5.857-13.057 13.057-13.057h9.179l3.358 45.601c-14.508-2.449-25.594-15.101-25.594-30.295zm41.973 48.459-4.697-63.766h1.686c14.125 0 27.002-8.319 32.807-21.195l17.551-38.928c6.111-13.554 3.153-29.725-7.36-40.238l-5.8-5.8a87.162 87.162 0 0 1 17.407-8.591l.835 7.244c1.402 12.157 11.687 21.325 23.925 21.325h10.902c12.238 0 22.524-9.168 23.926-21.325l.835-7.244a87.235 87.235 0 0 1 17.406 8.591l-5.8 5.8c-10.514 10.514-13.471 26.684-7.36 40.238 0 .1-.947-2.1 17.551 38.928 5.805 12.876 18.683 21.195 32.807 21.195h1.686l-4.696 63.766c-1.838 24.961-21.101 43.108-32.42 51.704-13.017 9.885-34.023 20.523-49.385 20.523s-36.368-10.639-49.385-20.523c-11.32-8.596-30.583-26.743-32.421-51.704zm81.805 87.227c11.865 0 26.926-4.7 41.429-12.584v19.862c0 7.498 5.266 13.788 12.294 15.368l-53.722 86.892-53.723-86.892c7.028-1.58 12.294-7.87 12.294-15.368v-19.863c14.501 7.885 29.563 12.585 41.428 12.585zm-166.119 29.944c7.685-4.535 16.402-6.916 25.433-6.916h40.422l76.875 124.339L225.759 497h-67.565v-82.677c0-4.143-3.358-7.5-7.5-7.5s-7.5 3.357-7.5 7.5V497h-10.661v-19.813a7.5 7.5 0 0 0-7.5-7.5h-11.465z"/><path d="M274.8 155.474a7.5 7.5 0 0 0-7.5-7.5h-37.066c-4.142 0-7.5 3.357-7.5 7.5s3.358 7.5 7.5 7.5H267.3a7.5 7.5 0 0 0 7.5-7.5zM272.187 204.651a7.5 7.5 0 0 0 7.5 7.5c10.965 0 19.886-8.921 19.886-19.887v-24.405a4.892 4.892 0 0 1 4.887-4.886h24.68c4.142 0 7.5-3.357 7.5-7.5s-3.358-7.5-7.5-7.5h-24.68c-10.965 0-19.887 8.921-19.887 19.886v24.405a4.893 4.893 0 0 1-4.886 4.887 7.5 7.5 0 0 0-7.5 7.5zM303.625 232.343h-47.877c-4.142 0-7.5 3.357-7.5 7.5s3.358 7.5 7.5 7.5h47.877c4.142 0 7.5-3.357 7.5-7.5s-3.357-7.5-7.5-7.5z"/></svg>