<svg height="512" width="512" xmlns="http://www.w3.org/2000/svg"><path d="M351.795 193.886h-3.062l4.627-62.828 37.785-10v33.478c0 21.732-17.618 39.35-39.35 39.35zM160.204 193.886h3.062l-4.627-62.828-37.785-10v33.478c0 21.732 17.618 39.35 39.35 39.35z" fill="#ffece4"/><path d="M185.306 106.213c0-25.051 20.308-45.359 45.359-45.359h49.201c25.051 0 45.359 20.308 45.359 45.359a78.229 78.229 0 0 0 22.914 55.318l2.773 2.773 3.729-50.632C358.863 56.341 313.487 7.5 256 7.5s-102.863 48.841-98.641 106.172l3.628 49.264 1.406-1.406a78.228 78.228 0 0 0 22.913-55.317z" fill="#f9f48e"/><path d="M348.139 161.531a78.233 78.233 0 0 1-22.914-55.318c0-25.051-20.308-45.359-45.359-45.359h-49.201c-25.051 0-45.359 20.308-45.359 45.359a78.232 78.232 0 0 1-22.913 55.318l-1.406 1.406 3.097 42.054c3.546 48.144 62.899 81.508 91.916 81.508s88.37-33.364 91.915-81.508l2.996-40.686z" fill="#ffece4"/><path d="M348.139 161.531a78.233 78.233 0 0 1-22.914-55.318c0-25.051-20.308-45.359-45.359-45.359h-2.387a45.148 45.148 0 0 1 7.745 25.359 78.233 78.233 0 0 0 22.912 55.317 8.567 8.567 0 0 1 2.486 6.688l-2.708 36.773c-3.546 48.144-62.899 81.508-91.915 81.508-4.36 0-9.404-.754-14.842-2.197 18.759 14.05 40.504 22.197 54.842 22.197 29.016 0 88.37-33.364 91.915-81.508l2.996-40.686z" fill="#ffddce"/><path d="M350.327 193.886h-1.594l-.818 11.105c-1.931 26.224-20.42 48.062-41.545 62.512v34.21a8.492 8.492 0 0 0 8.493 8.493h35.464zM205.629 301.713v-34.21l.001.001c-21.125-14.45-39.615-36.289-41.546-62.513l-.818-11.105h-3.062v116.32h36.932a8.492 8.492 0 0 0 8.493-8.493z" fill="#f6e738"/><g fill="#f1f9d8"><path d="M314.864 310.206h-.016a8.494 8.494 0 0 1-8.477-8.493v-34.21c-17.658 12.079-37.159 18.996-50.37 18.996-13.212 0-32.712-6.917-50.371-18.996v34.21a8.492 8.492 0 0 1-8.493 8.493h-56.568l115.423 115.425 115.424-115.425zM442.789 327.581l-32.154 32.154a74.632 74.632 0 0 0-21.859 52.772V504.5h71.405V369.556c-.001-16.393-6.647-31.234-17.392-41.975zM69.203 327.589c-10.74 10.74-17.383 25.578-17.383 41.967V504.5h71.388v-91.993a74.632 74.632 0 0 0-21.859-52.772z"/></g><path d="m442.789 327.581-13.246 13.246c.42 2.849.637 5.763.637 8.729v119.066c0 8.769-7.109 15.878-15.878 15.878h-25.526v20h71.405V369.556c-.001-16.393-6.647-31.234-17.392-41.975zM101.349 359.736 69.203 327.59a59.71 59.71 0 0 0-4.703 5.297l6.849 6.849a74.63 74.63 0 0 1 21.859 52.772v76.114c0 8.769-7.109 15.878-15.878 15.878H51.82v20h71.388v-91.993a74.63 74.63 0 0 0-21.859-52.771z" fill="#e2f4b4"/><path d="M105.213 310.206 258.836 463.83v40.669h25v-37.528a32.586 32.586 0 0 0-9.543-23.04L140.569 310.208z" fill="#f9f48e"/><path d="M406.771 310.206 273.67 443.308l-17.678-17.677 115.424-115.425z" fill="#f6e738"/><path d="M406.771 310.206 273.67 443.308l.623.625a32.584 32.584 0 0 1 9.543 23.04V504.5h104.939v-91.993a74.632 74.632 0 0 1 21.859-52.772l49.529-49.529z" fill="#c8ea73"/><path d="m406.771 310.206-51.211 51.211a74.621 74.621 0 0 0-6.784 31.09v65.655c0 14.546-11.792 26.338-26.338 26.338h-38.601v20h104.939v-91.993a74.632 74.632 0 0 1 21.859-52.772l49.529-49.529z" fill="#b7e445"/><path d="m51.819 310.206 49.529 49.529a74.63 74.63 0 0 1 21.859 52.772V504.5h135.629v-40.669L105.213 310.206z" fill="#c8ea73"/><path d="M258.836 463.831 105.213 310.206h-20L212.015 437.01a23.292 23.292 0 0 1 6.821 16.468v7.733c0 12.862-10.427 23.289-23.289 23.289h-72.34v20h135.629z" fill="#b7e445"/><path d="M249.906 147.167a7.5 7.5 0 0 0-7.5-7.5h-40.681a7.5 7.5 0 0 0 0 15h40.681a7.5 7.5 0 0 0 7.5-7.5zM310.275 139.667h-27.087c-11.631 0-21.094 9.463-21.094 21.094v26.785a6.101 6.101 0 0 1-6.095 6.094 7.5 7.5 0 0 0 0 15c11.632 0 21.095-9.463 21.095-21.094v-26.785a6.1 6.1 0 0 1 6.094-6.094h27.087c4.143 0 7.5-3.358 7.5-7.5s-3.357-7.5-7.5-7.5zM256 233.162c-10.87 0-18.06-1.891-22.245-3.526-2.982-1.165-6.377-.234-8.419 2.232l-.013.016c-3.261 3.937-1.717 9.91 3.047 11.765 5.873 2.287 14.868 4.514 27.63 4.514 12.689 0 21.655-2.202 27.53-4.476 4.801-1.858 6.321-7.901 2.994-11.829-2.045-2.414-5.396-3.316-8.346-2.174-4.16 1.609-11.327 3.478-22.178 3.478z"/><path d="M51.82 302.706a7.501 7.501 0 0 0-5.303 12.803l12.372 12.372c-9.442 11.798-14.569 26.342-14.569 41.674v48.22a7.5 7.5 0 0 0 15 0v-48.22c0-11.317 3.602-22.08 10.262-30.981l26.464 26.464c12.679 12.68 19.662 29.538 19.662 47.469V497H59.32v-44.224a7.5 7.5 0 0 0-15 0V504.5a7.5 7.5 0 0 0 7.5 7.5h408.361a7.5 7.5 0 0 0 7.5-7.5V369.556c0-15.336-5.129-29.883-14.576-41.683l12.363-12.363a7.499 7.499 0 0 0-5.304-12.803H357.827V281c0-4.142-3.357-7.5-7.5-7.5s-7.5 3.358-7.5 7.5v21.706h-27.966a.994.994 0 0 1-.991-.993v-30.324c11.265-8.201 21.439-18.234 28.957-29.898V246c0 4.142 3.357 7.5 7.5 7.5s7.5-3.358 7.5-7.5v-45.001c22.995-2.969 40.818-22.673 40.818-46.463v-33.478c0-4.919-4.664-8.507-9.419-7.25l-27.614 7.308c.56-7.598.543-7.304.612-8.484l1.488-.159a7.499 7.499 0 0 0 6.659-8.256c-.427-3.997-3.993-7.117-8.344-6.65C357.305 41.618 310.526 0 256 0c-54.849 0-101.417 41.957-106.042 97.723l-1.543-.165a7.5 7.5 0 1 0-1.597 14.915l2.966.318c.056.939.036.628.603 8.326l-27.614-7.308c-4.753-1.257-9.419 2.33-9.419 7.25v33.478c0 23.281 17.07 42.649 39.35 46.249v101.921l-100.884-.001zm217.169 146.529c4.738 4.738 7.348 11.037 7.348 17.736V497h-10l-.001-33.169a7.5 7.5 0 0 0-2.196-5.303l-140.819-140.82 14.143.001 131.525 131.526zm-162.337-94.803-36.726-36.726h32.18l149.23 149.231V497H130.707v-84.493c0-21.937-8.543-42.562-24.055-58.075zm346.029 15.124V497h-56.405v-84.493c0-17.931 6.983-34.789 19.663-47.469l26.473-26.473c6.665 8.904 10.269 19.67 10.269 30.991zm-47.35-15.124c-15.513 15.513-24.056 36.138-24.056 58.075V497h-89.938v-30.028c0-8.468-2.608-16.535-7.442-23.282l22.554-22.553a7.5 7.5 0 0 0-10.607-10.606l-22.172 22.171-7.071-7.071 107.925-107.925h14.142l-67.943 67.943a7.5 7.5 0 0 0 10.607 10.606l78.549-78.549h32.18l-36.728 36.726zm-90.483-36.726h38.462l-97.318 97.318-97.317-97.318h38.461c8.819 0 15.993-7.174 15.993-15.993v-20.819c12.618 6.905 29.485 13.433 43.994 13.091 13.952-.367 29.545-6.415 41.746-13.091v20.819c.001 8.802 7.162 15.976 15.979 15.993zm-7.875-59.88c-12.993 9.867-35.234 21.461-51.605 21.167-16.072-.301-37.426-11.358-50.343-21.167-11.682-8.871-31.563-27.604-33.462-53.386l-2.846-38.644c12.948-13.384 21.038-30.259 23.38-48.476l15.437 1.652c13.721 1.467 27.187-3.285 36.945-13.043l7.536-7.537a4.592 4.592 0 0 1 6.499 0l7.538 7.537c8.593 8.593 20.06 13.305 32.045 13.305 3.201 0 3.595-.122 20.335-1.914 2.403 18.691 10.858 35.97 24.402 49.515h.001l.344.344-2.743 37.26c-1.899 25.783-21.78 44.516-33.463 53.387zM230.665 68.354h49.201c19.565 0 35.711 14.918 37.661 33.976l-16.127 1.726c-9.186.986-18.207-2.2-24.741-8.734l-7.537-7.537c-7.642-7.641-20.073-7.64-27.713 0l-7.536 7.537c-6.535 6.535-15.556 9.721-24.742 8.734l-16.127-1.726c1.95-19.057 18.096-33.976 37.661-33.976zm152.98 62.447v23.735c0 15.847-11.634 29.028-26.81 31.451l3.612-49.046zm-38.884 14.917a69.959 69.959 0 0 1-11.406-29.996l13.723-1.469-2.317 31.465zM189.033 44.192c35.987-38.734 97.525-39.189 133.934 0 14.28 15.37 22.628 34.511 24.184 54.968l-14.708 1.574c-2.16-20.882-16.527-38.194-35.823-44.659l1.851-1.851a7.5 7.5 0 0 0-.001-10.607 7.5 7.5 0 0 0-10.606 0l-9.736 9.737H263.45v-12.8c0-4.142-3.357-7.5-7.5-7.5s-7.5 3.358-7.5 7.5v12.8h-14.678l-9.736-9.737a7.5 7.5 0 0 0-10.606 0 7.5 7.5 0 0 0 0 10.606l1.517 1.517c-19.815 6.184-34.658 23.74-36.857 44.993l-13.251-1.419c1.523-20.514 9.877-39.713 24.194-55.122zm-11.856 71.53a69.965 69.965 0 0 1-10.086 27.97l-2.156-29.281zm-48.823 38.814v-23.735l23.198 6.139 3.612 49.046c-15.175-2.422-26.81-15.602-26.81-31.45zm39.35 84.599c7.634 12.676 18.415 23.511 30.425 32.254v30.325a.994.994 0 0 1-.993.993h-29.432z"/><path d="M256 345.702c-11.345 0-28.089-6.888-42.658-17.549a7.5 7.5 0 1 0-8.858 12.105c17.233 12.61 36.973 20.443 51.516 20.443 14.545 0 34.284-7.833 51.516-20.444a7.5 7.5 0 1 0-8.857-12.104c-14.569 10.661-31.313 17.549-42.659 17.549zM234.3 318.805c7.969 3.281 15.27 4.945 21.7 4.945 6.431 0 13.731-1.664 21.7-4.945a7.5 7.5 0 0 0 4.079-9.791 7.498 7.498 0 0 0-9.79-4.079c-6.062 2.496-11.591 3.815-15.989 3.815s-9.927-1.319-15.989-3.815a7.5 7.5 0 1 0-5.711 13.87z"/></svg>