<svg height="512" width="512" xmlns="http://www.w3.org/2000/svg"><path d="M256 35.346c20.769 0 39.767 3.333 56.774 9.594C310.104 23.952 285.711 7.515 256 7.515s-54.104 16.438-56.774 37.425c17.007-6.26 36.005-9.594 56.774-9.594z" fill="#ff4755"/><path d="M208.671 25.77c-5.185 5.576-8.547 12.113-9.445 19.17 17.007-6.26 36.005-9.594 56.774-9.594s39.767 3.333 56.774 9.594c-.898-7.056-4.259-13.594-9.445-19.17-14.51-4.243-30.326-6.478-47.329-6.478-17.003.001-32.819 2.236-47.329 6.478z" fill="#fc2b3a"/><path d="M7.515 504.485s-.003-53.671 25.749-89.001c25.742-35.318 57.887-49.37 95.19-49.37 0 0 6.513 53.637-39.486 97.837-31.599 30.363-81.453 40.534-81.453 40.534z" fill="#ffe55a"/><path d="M128.454 366.114c-3.133 0-6.225.108-9.284.311-1.969 19.525-9.995 51.41-39.219 79.49-22.575 21.693-54.464 33.077-70.839 37.811-1.596 12.349-1.597 20.759-1.597 20.759s49.854-10.172 81.453-40.535c45.998-44.199 39.486-97.836 39.486-97.836z" fill="#ffd500"/><path d="M504.485 504.485s.003-53.671-25.749-89.001c-25.742-35.318-57.887-49.37-95.19-49.37 0 0-6.513 53.637 39.486 97.837 31.599 30.363 81.453 40.534 81.453 40.534z" fill="#ffe55a"/><path d="M432.05 445.915c-29.224-28.081-37.25-59.966-39.219-79.49a140.117 140.117 0 0 0-9.284-.311s-6.513 53.637 39.486 97.837c31.599 30.363 81.453 40.535 81.453 40.535s-.001-8.41-1.597-20.759c-16.375-4.735-48.264-16.119-70.839-37.812z" fill="#ffd500"/><path d="M423.032 463.95c-29.611-28.453-37.46-60.813-39.295-80.262-14.54-8.621-29.359-16.216-43.91-22.521-27.885 25.788-59.288 40.116-83.827 40.116s-55.942-14.328-83.827-40.116c-14.552 6.305-29.37 13.9-43.911 22.521-1.835 19.449-9.684 51.809-39.295 80.262-31.599 30.363-81.453 40.535-81.453 40.535h496.971s-49.854-10.171-81.453-40.535z" fill="#acacac"/><path d="M256 401.284c58.078 0 154.613-80.254 151.936-202.774C405.806 101.049 348.349 35.346 256 35.346S106.194 101.049 104.064 198.51C101.387 321.03 197.922 401.284 256 401.284z" fill="#bfbfbf"/><path d="M256 424.983c30.465 0 70.293-19.56 103.92-54.362a372.876 372.876 0 0 0-20.094-9.453c-27.885 25.788-59.288 40.116-83.827 40.116s-55.942-14.328-83.827-40.116a373.236 373.236 0 0 0-20.094 9.453c33.629 34.802 73.457 54.362 103.922 54.362z" fill="#9c9c9c"/><path d="M407.586 189.708C400.936 301.882 311.141 374.231 256 374.231s-144.936-72.349-151.586-184.523a248.051 248.051 0 0 0-.349 8.801C101.387 321.03 197.922 401.284 256 401.284S410.613 321.03 407.936 198.51a248.096 248.096 0 0 0-.35-8.802z" fill="#acacac"/><path d="m104.223 177.348 149.058-42.036a10.03 10.03 0 0 1 5.439 0l149.058 42.036a10.015 10.015 0 0 1 7.298 9.639v48.693c0 4.484-2.981 8.421-7.298 9.639L258.72 287.354a10.013 10.013 0 0 1-5.44 0l-149.058-42.036a10.015 10.015 0 0 1-7.298-9.639v-48.693a10.018 10.018 0 0 1 7.299-9.638z" fill="#838383"/><path d="M407.777 227.283 258.72 269.319a10.013 10.013 0 0 1-5.44 0l-149.058-42.036a10.015 10.015 0 0 1-7.298-9.639v18.035c0 4.484 2.981 8.421 7.298 9.639l149.058 42.036c1.779.502 3.661.502 5.44 0l149.058-42.036a10.015 10.015 0 0 0 7.298-9.639v-18.035a10.017 10.017 0 0 1-7.299 9.639z" fill="#707070"/><path d="M163.493 504.485h185.014c-9.156-42.668-47.092-74.658-92.507-74.658s-83.351 31.99-92.507 74.658z" fill="#ffe55a"/><path d="M256 429.828c-3.037 0-6.037.154-9 .433 41.356 3.903 74.963 34.409 83.507 74.224h18c-9.156-42.668-47.092-74.657-92.507-74.657z" fill="#ffd500"/><path d="M196.277 504.485h119.446c-8.343-24.991-31.92-43.013-59.723-43.013s-51.38 18.023-59.723 43.013z" fill="#ff4755"/><path d="M256 461.472c-3.057 0-6.06.23-9 .651 23.8 3.409 43.297 20.119 50.723 42.362h18c-8.343-24.99-31.92-43.013-59.723-43.013z" fill="#fc2b3a"/><path d="M176.723 183.365a7.515 7.515 0 0 0-7.515 7.515v40.907a7.515 7.515 0 1 0 15.03 0V190.88a7.516 7.516 0 0 0-7.515-7.515z"/><path d="M484.809 411.058c-25.729-35.299-58.852-52.459-101.262-52.459a7.515 7.515 0 0 0-7.46 6.609c-.047.388-.254 2.243-.348 5.265a401.383 401.383 0 0 0-22.793-11.618c28.288-29.103 48.401-66.449 57.253-106.428 7.313-2.247 12.392-9.069 12.392-16.746v-48.693c0-6.491-3.632-12.367-9.171-15.39-8.565-64.833-42.828-111.622-94.055-132.162C313.616 16.657 287.369 0 256 0c-31.34 0-57.569 16.626-63.35 39.373-21.305 8.528-39.83 21.695-54.919 39.232a7.515 7.515 0 0 0 11.392 9.802C174.76 58.611 211.718 42.861 256 42.861c39.429 0 73.48 12.68 98.472 36.67 22.305 21.411 37.056 51.361 43.014 87.107l-136.728-38.559a17.542 17.542 0 0 0-9.517 0l-136.702 38.552c3.366-20.26 9.516-38.633 18.36-54.731a7.515 7.515 0 0 0-13.173-7.236c-10.744 19.557-17.841 42.052-21.128 66.924-5.549 3.02-9.189 8.902-9.189 15.4v48.693c0 7.677 5.078 14.499 12.392 16.747 8.852 39.979 28.964 77.325 57.253 106.428a399.223 399.223 0 0 0-22.798 11.618c-.092-3.063-.301-4.92-.343-5.265a7.515 7.515 0 0 0-7.46-6.609c-42.41 0-75.533 17.16-101.262 52.459C.307 447.943 0 502.195 0 504.485 0 508.574 3.425 512 7.515 512h496.971a7.564 7.564 0 0 0 5.496-2.402 7.57 7.57 0 0 0 2.018-5.113c0-2.29-.307-56.542-27.191-93.427zM256 27.832c-15.393 0-29.997 1.752-43.679 5.186 8.413-10.703 25.022-17.989 43.679-17.989 18.691 0 35.327 7.313 43.725 18.048-13.651-3.45-28.267-5.245-43.725-5.245zM118.393 257.123l132.846 37.463c3.098.876 6.422.876 9.52.001l50.741-14.309a7.515 7.515 0 0 0-4.079-14.466l-50.742 14.31a2.49 2.49 0 0 1-1.359-.001l-149.057-42.034a2.512 2.512 0 0 1-1.824-2.407v-48.693c0-1.115.749-2.104 1.823-2.406l149.056-42.036a2.501 2.501 0 0 1 1.362 0l149.058 42.036a2.51 2.51 0 0 1 1.823 2.406v48.693a2.51 2.51 0 0 1-1.823 2.406l-69.396 19.57a7.514 7.514 0 0 0-5.193 9.272 7.519 7.519 0 0 0 9.272 5.194l53.186-14.999C371.325 342.108 300.187 393.769 256 393.769s-115.325-51.661-137.607-136.646zm89.427 239.848c9.717-17.082 27.96-27.984 48.18-27.984s38.463 10.902 48.18 27.984zm113.091 0A70.383 70.383 0 0 0 256 453.957a70.381 70.381 0 0 0-64.91 43.014h-17.747c5.181-15.547 14.744-29.517 27.563-39.997 15.484-12.66 35.05-19.631 55.094-19.631s39.61 6.972 55.094 19.631c12.819 10.48 22.382 24.45 27.562 39.997zm33.454 0c-5.626-20.131-17.446-38.295-33.758-51.632-18.161-14.848-41.106-23.025-64.607-23.025s-46.446 8.177-64.607 23.025c-16.313 13.337-28.133 31.501-33.758 51.632H52.45c11.837-5.516 24.483-12.796 35.709-22.207a7.514 7.514 0 1 0-9.656-11.516c-21.108 17.696-48.685 27.32-62.976 31.428 1.322-16.543 6.156-50.543 23.811-74.764 21.211-29.102 48.056-44.229 81.892-46.087-.114 12.688-2.937 41.123-23.34 68.682a7.515 7.515 0 0 0 12.08 8.943c17.15-23.166 23.323-46.602 25.383-63.195 11.744-6.819 23.62-12.94 35.41-18.241 27.688 24.396 59.126 38.785 85.237 38.785s57.549-14.39 85.237-38.785c11.781 5.297 23.648 11.411 35.383 18.223 2.576 20.945 11.698 52.78 41.205 81.133 12.572 12.08 27.707 21.074 41.713 27.602H354.365zm73.874-38.44c-33.267-31.966-37.31-69.577-37.463-84.707 33.833 1.86 60.677 16.987 81.887 46.087 17.61 24.159 22.464 58.209 23.801 74.77-15.498-4.446-46.608-15.378-68.225-36.15z"/><path d="M256 165.338a7.515 7.515 0 0 0-7.515 7.515v76.962a7.515 7.515 0 1 0 15.03 0v-76.962a7.515 7.515 0 0 0-7.515-7.515zM216.361 174.351a7.515 7.515 0 0 0-7.515 7.515V240.8a7.515 7.515 0 1 0 15.03 0v-58.934a7.514 7.514 0 0 0-7.515-7.515zM137.084 192.379a7.515 7.515 0 0 0-7.515 7.515v22.881a7.515 7.515 0 1 0 15.03 0v-22.881a7.515 7.515 0 0 0-7.515-7.515zM295.638 174.351a7.515 7.515 0 0 0-7.515 7.515V240.8a7.515 7.515 0 1 0 15.03 0v-58.934a7.514 7.514 0 0 0-7.515-7.515zM335.277 239.301a7.515 7.515 0 0 0 7.515-7.515V190.88a7.515 7.515 0 1 0-15.03 0v40.907a7.515 7.515 0 0 0 7.515 7.514zM374.916 230.289a7.515 7.515 0 0 0 7.515-7.515v-22.881a7.515 7.515 0 1 0-15.03 0v22.881a7.515 7.515 0 0 0 7.515 7.515z"/></svg>