<svg height="512" viewBox="0 0 511 511" width="512" xmlns="http://www.w3.org/2000/svg"><path d="M255.5 415.5c56 0 76.047-35.921 64-56-11.642-19.403-8-72-8-72h-112s3.642 52.597-8 72c-9.899 16.498 6.005 56 64 56z" fill="#f6b171"/><path d="M255.5 415.5c1.039 0 2.04-.037 3.054-.062-19.737-46.323-28.597-92.491-32.477-127.938H199.5s3.642 52.597-8 72c-9.899 16.498 6.005 56 64 56z" fill="#f39842"/><path d="M330.948 371.341 271.5 399.5l-16 24-16-24-53.745-32.714C157.13 394.795 89.199 365.801 55.5 399.5c-24 24-24 104-24 104h448s0-80-24-104c-31.627-31.627-93.411-8.027-124.552-28.159z" fill="#f4ed8e"/><path d="m255.5 423.5-16-24-53.745-32.714C157.13 394.795 89.199 365.801 55.5 399.5c-24 24-24 104-24 104h281.34c-23.284-26.81-40.566-56.373-53.377-85.944z" fill="#ede243"/><path d="M327.5 351.5s-16 16-56 16v32c56 0 72-24 72-24z" fill="#fbf9d9"/><path d="M183.5 351.5s16 16 56 16v32c-56 0-72-24-72-24z" fill="#f4ed8e"/><ellipse cx="371.5" cy="191.5" fill="#f6b171" rx="28" ry="32"/><ellipse cx="139.5" cy="191.5" fill="#f39842" rx="28" ry="32"/><path d="M255.5 23.5c-61.856 0-112 50.144-112 112v80c0 61.856 80 112 112 112s112-50.144 112-112v-80c0-61.856-50.144-112-112-112z" fill="#f6b171"/><path d="M295.5 311.5c-32 0-112-50.144-112-112v-80c0-39.435 20.384-74.105 51.187-94.061C182.777 35.195 143.5 80.757 143.5 135.5v80c0 61.856 80 112 112 112 11.052 0 27.831-5.984 45.061-16.364-1.792.238-3.486.364-5.061.364z" fill="#f39842"/><path d="M215.5 255.5s24 24 40 24 40-24 40-24z" fill="#efebed"/><path d="M255.5 247.5s16-16 40-8 48 48 80 32c0 0-88 40-120-24zM255.5 247.5s-16-16-40-8-48 48-80 32c0 0 88 40 120-24z" fill="#7c616d"/><path d="M143.5 183.5s24-72 152-72c80 0 48-104-40-104-64 0-224 16-112 176z" fill="#ab66ce"/><path d="M367.5 183.5s-24-72-152-72c-80 0-48-104 40-104 64 0 224 16 112 176z" fill="#c08cda"/><circle cx="255.5" cy="63.5" fill="#f4ed8e" r="24"/><path d="M483.937 459.53c-4.2-32.202-11.983-54.183-23.134-65.333-19.773-19.773-49.455-20.289-75.643-20.744-13.061-.227-25.429-.447-35.883-2.806L333.74 347.34c-1.246-1.87-3.235-3.111-5.471-3.333a7.418 7.418 0 0 0-5.986 2.106c-2.369-9.116-3.695-22.186-3.809-37.933a182.694 182.694 0 0 0 9.864-7.755 173.758 173.758 0 0 0 11.767-10.915c13.722-2.246 25.365-6.061 32.149-8.608a45.538 45.538 0 0 0 6.6-2.695 7.5 7.5 0 0 0-6.458-13.536c-.119.054-1.933.861-5.036 2.028a24.218 24.218 0 0 1-9.361.9c7.031-10.636 12.881-22.975 15.506-36.667C392.151 229.771 407 212.531 407 191.5c0-13.156-5.724-25.134-15.222-32.445 19.23-34.51 25.873-64.14 19.736-88.345-5.366-21.162-20.193-37.94-44.068-49.871a7.5 7.5 0 0 0-6.706 13.418c19.797 9.893 31.988 23.397 36.233 40.14 6.116 24.121-3.492 55.829-28.567 94.368-4.604-7.418-12.198-17.284-24.157-27.069C323.231 124.499 283.833 104 215.5 104c-12.97 0-23.298-3.038-29.87-8.784-6.99-6.113-8.458-14.136-8.458-19.791C177.172 50.729 205.065 15 255.5 15c19.994 0 49.617 1.548 77.194 8.924a7.5 7.5 0 0 0 3.876-14.49C307.418 1.637 276.394 0 255.5 0c-20.602 0-51.231 1.594-80.147 9.189-35.259 9.26-58.929 25.081-70.353 47.023-13.85 26.6-9.046 61.11 14.219 102.844C109.724 166.368 104 178.345 104 191.5c0 21.031 14.849 38.271 33.494 39.433 2.625 13.692 8.475 26.032 15.507 36.668a24.229 24.229 0 0 1-9.406-.914c-3.126-1.179-4.932-1.987-4.991-2.014a7.5 7.5 0 0 0-6.458 13.536 45.596 45.596 0 0 0 6.604 2.697c6.785 2.547 18.426 6.362 32.145 8.607a174.022 174.022 0 0 0 11.766 10.915c3.198 2.701 6.5 5.289 9.864 7.755-.113 15.785-1.433 28.833-3.804 37.938a7.496 7.496 0 0 0-11.462 1.221l-15.532 23.298c-10.449 2.362-22.834 2.583-35.893 2.811-26.186.458-55.866.976-75.638 20.748-11.15 11.15-18.934 33.131-23.134 65.333C24.035 482.746 24 502.664 24 503.5a7.5 7.5 0 0 0 15 0c0-21.387 3.917-80.811 21.803-98.697 15.487-15.487 40.807-15.929 65.294-16.357 14.278-.249 27.803-.49 40.015-3.428 8.38 7.723 28.692 21.097 69.344 21.936l13.804 20.706a7.5 7.5 0 0 0 12.48 0l13.804-20.706c40.647-.839 60.958-14.209 69.34-21.933 12.258 2.939 26.361 3.192 40.015 3.429 24.488.426 49.81.866 65.297 16.353 17.864 17.864 21.795 77.303 21.803 98.698a7.5 7.5 0 0 0 15-.002c.001-.835-.034-20.753-3.062-43.969zM195.153 291.31c15.538-.392 29.061-4.051 40.319-10.831 7.597 4.379 14.18 6.521 20.028 6.521s12.424-2.142 20.026-6.522c11.259 6.781 24.781 10.439 40.322 10.831C293.93 309.032 269.258 320 255.5 320s-38.43-10.968-60.347-28.69zm-18.038-17.021c6.554-3.938 12.645-8.708 18.27-13.128 8.011-6.296 15.578-12.242 22.486-14.545 12.676-4.224 22.546-.325 27.909 2.926-12.249 19.699-32.855 28.613-61.35 26.508a120.086 120.086 0 0 1-6.313-.655c-.336-.367-.669-.737-1.002-1.106zm78.385-12.331a70.579 70.579 0 0 0 7.007 8.293c-3.49 1.451-5.75 1.749-7.007 1.749-1.271 0-3.534-.308-7.005-1.751a70.72 70.72 0 0 0 7.005-8.291zm77.438 13.374c-23.461 2.932-51.69-.19-67.711-25.796 5.364-3.25 15.234-7.145 27.901-2.921 6.908 2.303 14.475 8.249 22.486 14.545 5.626 4.421 11.715 9.191 18.269 13.129-.313.349-.627.697-.945 1.043zM392 191.5c0 12.084-7.36 22.146-17.003 24.136 0-.046.003-.09.003-.136v-29.664a359.685 359.685 0 0 0 9.025-13.693c4.948 4.595 7.975 11.725 7.975 19.357zM118.305 63.139c12.65-24.295 43.509-36.469 74.152-42.483-1.634 1.268-3.241 2.571-4.783 3.948-15.968 14.253-25.502 33.252-25.502 50.822 0 12.383 4.824 23.421 13.583 31.082 7.831 6.848 18.324 10.898 31.258 12.103-37.434 14.489-56.003 36.424-64.45 50.11-29.214-44.901-37.378-80.384-24.258-105.582zM119 191.5c0-7.629 3.026-14.758 7.971-19.353A362.521 362.521 0 0 0 136 185.831V215.5c0 .046.003.09.003.136C126.36 213.646 119 203.584 119 191.5zm32 24v-30.619c2.964-7.164 24.147-50.944 102.35-62.873a7.534 7.534 0 0 0 1.453-.373c39.545 5.6 64.363 19.162 79.1 30.983 17.666 14.17 24.512 28.505 26.098 32.285V215.5c0 16.803-6.589 32.773-16.611 46.946-5.728-3.243-11.77-7.786-18.506-13.079-9.065-7.125-17.628-13.854-27.011-16.981-19.691-6.563-34.817.518-42.371 5.605-7.554-5.087-22.679-12.169-42.372-5.605-9.383 3.127-17.946 9.857-27.011 16.981-6.736 5.293-12.778 9.836-18.505 13.08C157.589 248.274 151 232.303 151 215.5zm34.42 146.64c8.024 4.876 23.029 11.488 46.58 12.674v17.029c-32.554-1.389-48.613-11.661-54.946-17.153zm70.08 47.839-8.5-12.75V367.5a7.5 7.5 0 0 0-7.5-7.5c-16.93 0-29.151-3.064-37.358-6.31 2.85-8.904 4.579-20.857 5.166-35.718C224.972 328.486 242.792 335 255.5 335s30.529-6.514 48.193-17.029c.588 14.863 2.319 26.818 5.168 35.719-8.207 3.247-20.431 6.31-37.36 6.31a7.5 7.5 0 0 0-7.5 7.5v29.729zm23.5-18.136v-17.029c23.551-1.186 38.556-7.798 46.58-12.674l8.366 12.549c-6.333 5.493-22.392 15.765-54.946 17.154z"/><circle cx="255.5" cy="447.5" r="7.5"/><circle cx="255.5" cy="479" r="7.5"/><path d="M300.784 172.823c1.929-1.9 7.086-5.823 10.716-5.823s8.788 3.923 10.697 5.803c1.464 1.464 3.384 2.197 5.303 2.197s3.839-.732 5.303-2.197a7.5 7.5 0 0 0 0-10.606C331.76 161.153 322.295 152 311.5 152s-20.26 9.153-21.303 10.197c-2.921 2.921-2.92 7.644-.01 10.576s7.654 2.948 10.597.05z"/><circle cx="311.5" cy="175.5" r="7.5"/><path d="M199.5 167c3.63 0 8.788 3.923 10.716 5.823A7.474 7.474 0 0 0 215.5 175a7.474 7.474 0 0 0 5.303-2.197 7.5 7.5 0 0 0 0-10.606C219.76 161.153 210.295 152 199.5 152s-20.26 9.153-21.303 10.197c-2.921 2.921-2.92 7.644-.01 10.576s7.653 2.948 10.597.05c1.928-1.9 7.086-5.823 10.716-5.823z"/><circle cx="199.5" cy="175.5" r="7.5"/><path d="m229.128 222.615 24 8a7.5 7.5 0 0 0 2.373.387 7.5 7.5 0 0 0 2.37-14.617l-15.796-5.265 20.132-40.266a7.499 7.499 0 0 0-3.354-10.062 7.5 7.5 0 0 0-10.062 3.354l-24 48a7.497 7.497 0 0 0 4.337 10.469zM224 63.5c0 17.369 14.131 31.5 31.5 31.5S287 80.869 287 63.5 272.869 32 255.5 32 224 46.131 224 63.5zm48 0c0 9.098-7.402 16.5-16.5 16.5S239 72.598 239 63.5 246.402 47 255.5 47 272 54.402 272 63.5z"/></svg>