<svg height="512pt" viewBox="-80 0 511 512" width="512pt" xmlns="http://www.w3.org/2000/svg"><path d="m302.895 339.719-76.43-28.602V237.86H126.059v73.258l-76.43 28.602c-25.035 9.367-41.625 33.289-41.625 60.015v99.704a5.061 5.061 0 0 0 5.062 5.062h326.391a5.061 5.061 0 0 0 5.063-5.063v-99.703c0-26.726-16.59-50.648-41.625-60.015zm0 0" fill="#f8cc7c"/><path d="m302.895 339.719-76.43-28.602V237.86h-22.742v73.258l76.43 28.602c25.034 9.367 41.624 33.289 41.624 60.015v99.704a5.061 5.061 0 0 1-5.062 5.062h22.742a5.061 5.061 0 0 0 5.063-5.063v-99.703c0-26.726-16.59-50.648-41.625-60.015zm0 0" fill="#d3a159"/><path d="M248.73 331.258c-12.14 28.008-40.003 47.61-72.468 47.61-32.469 0-60.332-19.602-72.469-47.61-12.824 42.605-15.566 115.289 12.828 173.242h119.281c28.395-57.953 25.653-130.637 12.828-173.242zm0 0" fill="#935d38"/><path d="M254.484 356.582c-1.523-9.219-3.476-17.754-5.754-25.324-12.14 28.008-40.003 47.61-72.468 47.61-32.469 0-60.332-19.602-72.469-47.61-5.93 19.695-9.691 45.82-9.23 73.945 15.515 6.43 32.53 9.988 50.374 9.988 45.688 0 85.934-23.273 109.547-58.609zm0 0" fill="#4e5173"/><path d="M176.262 378.867c36.367 0 66.972-24.586 76.156-58.039l-25.953-9.71v-72.22c-.434-.359-.883-.695-1.324-1.039h-97.758c-.442.344-.89.68-1.324 1.04v72.218l-25.957 9.711c9.183 33.453 39.793 58.04 76.16 58.04zm0 0" fill="#f9c295"/><path d="M225.14 237.86h-97.757c-.442.343-.89.68-1.324 1.038v54.356c19.457 15.355 43.144 24.375 68.703 24.375 11.879 0 23.347-1.957 34.183-5.582l-2.48-.93v-72.219c-.434-.359-.883-.695-1.324-1.039zM302.313 219.852h-36.215V156.84h36.215c10.421 0 18.867 8.45 18.867 18.867v25.273c0 10.422-8.446 18.872-18.868 18.872zM50.21 219.852h36.216V156.84H50.21c-10.422 0-18.871 8.45-18.871 18.867v25.273c0 10.422 8.45 18.872 18.87 18.872zm0 0" fill="#e59f6a"/><path d="M296.148 160.89c0-74.593-53.675-135.062-119.886-135.062S56.375 86.297 56.375 160.891s53.676 135.066 119.887 135.066c66.21 0 119.886-60.473 119.886-135.066zm0 0" fill="#e6eff5"/><path d="M176.262 25.828c-2.078 0-4.14.063-6.192.18 57.11 3.629 102.524 62.633 102.524 134.883 0 72.254-45.414 131.257-102.524 134.886 2.051.118 4.114.18 6.192.18 66.21 0 119.886-60.473 119.886-135.066S242.473 25.828 176.262 25.828zm0 0" fill="#c5d3d6"/><g fill="#935d38"><path d="M158.195 17.582v31.05c0 7.016 5.692 12.704 12.707 12.704h10.715c7.02 0 12.707-5.688 12.707-12.703V17.582c0-5.566-4.515-10.082-10.082-10.082h-15.965c-5.566 0-10.082 4.516-10.082 10.082zM300.938 108.441h-8.274c-7.004 0-12.68 5.68-12.68 12.68v10.77c0 7 5.676 12.68 12.68 12.68h8.274c6.605 0 11.96-5.356 11.96-11.962v-12.207c0-6.605-5.355-11.96-11.96-11.96zM51.582 108.441h8.277c7 0 12.68 5.68 12.68 12.68v10.77c0 7-5.68 12.68-12.68 12.68h-8.277c-6.605 0-11.96-5.356-11.96-11.962v-12.207c0-6.605 5.355-11.96 11.96-11.96zm0 0"/></g><path d="M255.246 158.82c0-12.91-12.129-23.379-27.094-23.379s-27.093 10.47-27.093 23.38c0 12.91 12.129 23.374 27.093 23.374s27.094-10.465 27.094-23.375zM151.465 158.82c0-12.91-12.133-23.379-27.098-23.379-14.96 0-27.094 10.47-27.094 23.38 0 12.91 12.133 23.374 27.094 23.374 14.965 0 27.098-10.465 27.098-23.375zm0 0" fill="#4e5173"/><path d="M174.828 126.527 141.93 92.738c-2.145-2.203.011-5.816 2.968-4.98l30.817 8.754c.355.101.734.101 1.094 0l30.812-8.754c2.957-.836 5.113 2.777 2.973 4.98l-32.903 33.79a1.993 1.993 0 0 1-2.863 0zm0 0" fill="#ed6161"/><path d="m108.66 317.629-34.445 12.887-19.43 36.71L78 380.337l-23.215 34.773s20.617 62.66 46.711 89.391h15.125c-31.707-64.719-24.594-147.816-7.96-186.871zM251.027 504.5c26.094-26.73 46.707-89.39 46.707-89.39l-23.214-34.774 23.214-13.11-19.43-36.71-34.445-12.887c16.637 39.055 23.75 122.152-7.957 186.871zm0 0" fill="#d3a159"/><path d="m305.52 332.695-24.387-9.125c-.067-.027-.133-.054-.2-.078l-34.445-12.89c-.07-.028-.14-.051-.21-.075l-12.317-4.609v-17.863c10.879-6.192 21.004-14.172 30.055-23.797a7.5 7.5 0 0 0-.329-10.602c-3.015-2.84-7.761-2.691-10.601.328-8.899 9.465-18.953 17.118-29.774 22.79-.207.093-.41.199-.609.312-14.433 7.445-30.223 11.375-46.441 11.375-65.625 0-116.75-63.461-112.098-136.852 9.066-1.98 15.871-10.07 15.871-19.718v-10.766a20.108 20.108 0 0 0-5.695-14.04c14.574-35.456 43.004-61.577 76.355-70.429v11.977c0 11.14 9.067 20.203 20.207 20.203h10.715c11.145 0 20.207-9.063 20.207-20.203V36.656c33.356 8.848 61.781 34.973 76.356 70.43a20.108 20.108 0 0 0-5.696 14.039v10.766c0 9.648 6.809 17.738 15.871 19.718 1.485 23.356-2.675 45.586-10.918 64.871-.132.262-.25.536-.351.817a132.913 132.913 0 0 1-7.121 14.039 7.497 7.497 0 0 0 2.691 10.258 7.462 7.462 0 0 0 3.778 1.027 7.5 7.5 0 0 0 6.48-3.715 146.606 146.606 0 0 0 6.082-11.558h13.313c14.543 0 26.37-11.828 26.37-26.368v-25.27c0-12.17-8.284-22.44-19.515-25.468 6.633-3.105 11.234-9.84 11.234-17.633v-12.207c0-10.73-8.73-19.46-19.46-19.46h-8.274c-.266 0-.523.007-.785.015-16.969-40.918-50.664-70.746-90.055-79.746v-3.629C201.824 7.887 193.937 0 184.242 0h-15.965c-9.691 0-17.582 7.887-17.582 17.582v3.629c-39.386 9-73.086 38.832-90.054 79.75a17.432 17.432 0 0 0-.786-.016h-8.273c-10.73 0-19.46 8.727-19.46 19.457v12.207c0 7.793 4.605 14.532 11.233 17.637C32.13 153.27 23.84 163.54 23.84 175.711v25.27c0 14.542 11.832 26.37 26.37 26.37h13.368c12.29 25.997 31.555 47.25 54.98 60.63v17.94l-12.316 4.606-.21.075-34.446 12.89c-.066.028-.137.055-.203.082l-24.375 9.121a71.372 71.372 0 0 0-18.043 9.899 7.497 7.497 0 0 0-1.469 10.504 7.484 7.484 0 0 0 5.992 2.98c1.57 0 3.16-.492 4.512-1.512a56.55 56.55 0 0 1 14.258-7.824l6.09-2.277-10.192 19.25a7.503 7.503 0 0 0 2.942 10.039l16.18 9.137-18.727 28.054a7.503 7.503 0 0 0-.89 6.508c.75 2.274 16.304 49.082 37.991 79.547H64.773v-12.5c0-4.14-3.359-7.5-7.5-7.5-4.14 0-7.5 3.36-7.5 7.5V497H15.5v-97.262a56.845 56.845 0 0 1 6.031-25.418 7.502 7.502 0 0 0-3.332-10.07c-3.699-1.863-8.207-.371-10.07 3.332A71.924 71.924 0 0 0 .5 399.738v99.703C.5 506.367 6.133 512 13.059 512H339.46c6.926 0 12.559-5.633 12.559-12.559v-99.703c0-29.703-18.688-56.644-46.5-67.043zm8.16-156.984v25.27c0 6.269-5.102 11.37-11.368 11.37h-7.21c5.257-15.222 8.152-31.406 8.511-47.937 5.657.649 10.067 5.469 10.067 11.297zm-8.282-55.309v12.207c0 2.461-2 4.461-4.46 4.461-5.473-.004-3.47 0-8.274 0a5.186 5.186 0 0 1-5.18-5.18v-10.769a5.186 5.186 0 0 1 5.18-5.18h8.274c2.46 0 4.46 2.004 4.46 4.461zM168.281 15h15.961a2.582 2.582 0 0 1 2.582 2.582v9.54c-.004.171-.004.339 0 .507v21.004a5.211 5.211 0 0 1-5.203 5.203h-10.719a5.209 5.209 0 0 1-5.203-5.203V27.629c.004-.168.004-.336 0-.508v-9.539A2.582 2.582 0 0 1 168.281 15zM47.121 120.402c0-2.457 2-4.46 4.461-4.46h8.277a5.187 5.187 0 0 1 5.18 5.183v10.766a5.186 5.186 0 0 1-5.18 5.18h-8.277c-2.457 0-4.46-2-4.46-4.462zm3.09 91.95c-6.27 0-11.371-5.102-11.371-11.372v-25.27c0-5.827 4.41-10.648 10.07-11.296.367 16.86 3.363 33.004 8.543 47.938zm200.297 189.066c-.074 24.8-3.559 61.102-19.352 95.582H121.367c-12.906-28.184-17.594-57.578-18.914-80.918 12.785 4.102 26.078 6.313 39.66 6.582h.153a7.498 7.498 0 0 0 7.496-7.348 7.5 7.5 0 0 0-7.348-7.648c-13.902-.277-27.469-2.832-40.39-7.598.011-5.793.203-11.562.566-17.246.676-10.426 1.937-20.578 3.715-30.043.101-.539.207-1.078.312-1.613a86.45 86.45 0 0 0 69.645 35.203c27.867 0 53.554-13.355 69.633-35.183a236.1 236.1 0 0 1 .683 3.667c-18.2 25.922-45.086 43.7-76.008 50.192a7.498 7.498 0 0 0-5.8 8.879 7.498 7.498 0 0 0 8.878 5.8c29.637-6.218 55.957-21.675 75.715-44.175a273.95 273.95 0 0 1 1.145 25.867zm-121.82-83.273a7.503 7.503 0 0 0 4.875-7.024v-15.898c13.351 5.332 27.726 8.238 42.699 8.238 14.742 0 29.148-2.809 42.699-8.191v15.851a7.496 7.496 0 0 0 4.871 7.024l14.328 5.363c.899 2.3 1.754 4.715 2.567 7.23-11.86 24.774-36.872 40.633-64.465 40.633s-52.606-15.86-64.465-40.633c.808-2.515 1.668-4.93 2.566-7.23zM104.75 497c-20.254-22.617-37.156-68.027-41.66-80.816L84.238 384.5a7.489 7.489 0 0 0 1.059-5.902 7.492 7.492 0 0 0-3.606-4.793l-16.859-9.52 14.68-27.738 16.75-6.266c-6.375 21.723-9.637 48.313-9.2 75.043.004.23.016.453.043.676.528 29.684 5.653 61.621 17.895 91zm142.773 0c19.555-46.934 20.954-100.39 14.454-140.754a6.83 6.83 0 0 0-.094-.887c-1.485-8.984-3.375-17.414-5.621-25.082l16.75 6.27 14.68 27.734-16.86 9.524a7.494 7.494 0 0 0-2.547 10.691l21.149 31.688c-4.5 12.785-21.383 58.175-41.66 80.816zm89.497 0h-34.274v-12.5c0-4.145-3.355-7.5-7.5-7.5a7.5 7.5 0 0 0-7.5 7.5V497h-20.879c21.692-30.465 37.242-77.273 37.992-79.547a7.502 7.502 0 0 0-.886-6.508l-18.73-28.054 16.179-9.137a7.5 7.5 0 0 0 2.941-10.04l-10.187-19.25 6.09 2.278c21.984 8.219 36.754 29.52 36.754 52.996zm0 0"/><path d="M228.152 127.941c-19.074 0-34.593 13.852-34.593 30.88 0 17.023 15.52 30.874 34.593 30.874 19.078 0 34.598-13.851 34.598-30.875 0-17.027-15.52-30.879-34.598-30.879zm0 46.754c-10.804 0-19.593-7.12-19.593-15.875 0-8.754 8.793-15.879 19.593-15.879 10.805 0 19.598 7.125 19.598 15.88 0 8.753-8.793 15.874-19.598 15.874zM158.965 158.82c0-17.027-15.52-30.879-34.598-30.879-19.074 0-34.594 13.852-34.594 30.88 0 17.023 15.52 30.874 34.594 30.874 19.078 0 34.598-13.851 34.598-30.875zm-34.598 15.875c-10.805 0-19.594-7.12-19.594-15.875 0-8.754 8.79-15.879 19.594-15.879 10.805 0 19.598 7.125 19.598 15.88 0 8.753-8.793 15.874-19.598 15.874zM167.21 202.387c6.263-3.852 11.84-3.852 18.102 0a7.498 7.498 0 0 0 10.316-2.457 7.498 7.498 0 0 0-2.456-10.317c-11.063-6.808-22.758-6.808-33.82 0a7.498 7.498 0 0 0-2.457 10.317 7.497 7.497 0 0 0 10.316 2.457zM200.004 224.5h-1c-4.145 0-7.5 3.355-7.5 7.5s3.355 7.5 7.5 7.5h1c4.14 0 7.5-3.355 7.5-7.5s-3.36-7.5-7.5-7.5zM200.004 256h-1c-4.145 0-7.5 3.355-7.5 7.5s3.355 7.5 7.5 7.5h1c4.14 0 7.5-3.355 7.5-7.5s-3.36-7.5-7.5-7.5zM153.52 224.5h-1c-4.141 0-7.5 3.355-7.5 7.5s3.359 7.5 7.5 7.5h1c4.14 0 7.5-3.355 7.5-7.5s-3.36-7.5-7.5-7.5zM153.52 256h-1c-4.141 0-7.5 3.355-7.5 7.5s3.359 7.5 7.5 7.5h1c4.14 0 7.5-3.355 7.5-7.5s-3.36-7.5-7.5-7.5zM176.262 134.633a9.555 9.555 0 0 0 6.804-2.871l32.903-33.793c3.363-3.453 3.965-8.563 1.492-12.703-2.473-4.141-7.246-6.04-11.887-4.72l-29.312 8.325-29.313-8.324c-4.64-1.317-9.418.578-11.887 4.719-2.472 4.144-1.87 9.25 1.493 12.707l32.898 33.789a9.557 9.557 0 0 0 6.809 2.87zm-2.598-30.906c1.7.48 3.492.484 5.191 0l14.614-4.149-17.207 17.672-17.207-17.672zM231.875 201.75c-4.145 0-7.5 3.355-7.5 7.5s3.355 7.5 7.5 7.5h1c4.14 0 7.5-3.355 7.5-7.5s-3.36-7.5-7.5-7.5zM248.207 219.168a7.5 7.5 0 1 0 0 15h1a7.5 7.5 0 1 0 0-15zM119.648 201.75c-4.14 0-7.5 3.355-7.5 7.5s3.36 7.5 7.5 7.5h1c4.141 0 7.5-3.355 7.5-7.5s-3.359-7.5-7.5-7.5zM103.316 219.168a7.497 7.497 0 0 0-7.5 7.5 7.5 7.5 0 0 0 7.5 7.5h1a7.5 7.5 0 1 0 0-15zm0 0"/></svg>