<svg height="511pt" viewBox="-22 0 511 511.999" width="511pt" xmlns="http://www.w3.org/2000/svg"><path d="M342.355 352.887 301.86 337.73c36.016-31.476 68.282-64.097 72.293-112.976 4.668-56.906-19.41-124.344-45.183-148.5-25.774-24.16-87.305-54.031-103.125-59.547-21.992-8.598-56.078-17-73.696 4.113C134.531 41.934 80.98 92.223 71.035 95.31c-9.945 3.09-49.605-3.5-58.328-9.852-8.406-6.121-15.133 46.84 69.305 78.164-4.223 20.137-6.102 41.274-4.473 61.133 4.008 48.879 36.277 81.5 72.293 112.98l-40.5 15.153c-23.031 8.62-38.297 30.629-38.297 55.222v91.73a4.66 4.66 0 0 0 4.66 4.661h300.301a4.66 4.66 0 0 0 4.66-4.66v-91.73c0-24.594-15.265-46.606-38.3-55.223zm0 0" fill="#6e7093"/><path d="m342.355 352.887-40.496-15.153c36.016-31.48 68.282-64.101 72.293-112.98 4.668-56.906-19.41-124.344-45.183-148.5-25.774-24.16-87.305-54.031-103.125-59.547-14.887-5.82-35.305-11.535-52.418-8.086 10.242 1.61 20.297 4.832 28.62 8.086 15.821 5.516 77.349 35.387 103.122 59.547 25.773 24.16 49.855 91.594 45.187 148.5-3.816 46.496-33.203 78.281-67.062 108.367-2.36 2.098-1.645 5.953 1.312 7.063l33.954 12.703c23.03 8.617 38.296 30.629 38.296 55.222v91.73a4.656 4.656 0 0 1-4.656 4.661h23.797a4.66 4.66 0 0 0 4.66-4.66v-91.73c0-24.594-15.265-46.606-38.3-55.223zm0 0" fill="#4e5173"/><path d="M330.129 181.113c0-57.593-46.688-90.726-104.285-90.726-57.594 0-104.282 33.133-104.282 90.726 0 32.332 14.727 61.211 37.829 80.336 3.554 2.942 5.59 7.328 5.59 11.942v22.136c0 10.922 8.394 20.325 19.308 20.836 11.648.547 21.266-8.734 21.266-20.261 0 11.203 9.086 20.285 20.289 20.285 11.207 0 20.289-9.082 20.289-20.285 0 11.527 9.617 20.812 21.27 20.261 10.91-.511 19.304-9.914 19.304-20.836v-22.136c0-4.614 2.04-9 5.59-11.942 23.101-19.125 37.832-48.004 37.832-80.336zm0 0" fill="#e6eff5"/><path d="M225.844 90.387a144.7 144.7 0 0 0-10.14.355c52.835 3.672 94.14 36.2 94.14 90.371 0 32.332-14.73 61.211-37.832 80.336-3.551 2.942-5.59 7.328-5.59 11.942v22.136c0 7.602-4.067 14.453-10.219 18.098a20.195 20.195 0 0 0 11.195 2.738c10.914-.511 19.309-9.914 19.309-20.836v-22.136c0-4.614 2.035-9 5.59-11.942 23.101-19.125 37.832-48.004 37.832-80.336 0-57.593-46.692-90.726-104.285-90.726zm0 0" fill="#c5d3d6"/><path d="M294.734 199.16c0 16.54-10.746 20.54-24.004 20.54-13.257 0-24.003-4-24.003-20.54 0-16.535 10.746-34.394 24.003-34.394 13.254 0 24.004 17.859 24.004 34.394zM204.96 199.16c0 16.54-10.745 20.54-24 20.54-13.257 0-24.003-4-24.003-20.54 0-16.535 10.746-34.394 24.004-34.394 13.254 0 24 17.859 24 34.394zm0 0" fill="#4e5173"/><path d="M454.984 446.07c20.34-68.793-10.632-140.558-70.62-174.289l-27.509 47.649c50.825 25.816 84.805 74.992 92.364 129.925.344 2.497 3.828 2.844 4.605.45.403-1.239.79-2.48 1.16-3.735zm0 0" fill="#d8e6f0"/><path d="M409.309 289.387a149.757 149.757 0 0 0-24.946-17.606l-27.508 47.649a170.486 170.486 0 0 1 25.786 16.148zm0 0" fill="#97aeba"/><path d="M375.41 282.102 247.004 504.5h-29.645l135.813-235.246zm0 0" fill="#e59f6a"/><path d="m357.523 243.195-40.011 69.301a4.268 4.268 0 0 0 1.562 5.828l30.89 17.836a4.265 4.265 0 0 0 5.825-1.562l40.012-69.305a4.262 4.262 0 0 0-1.559-5.824l-30.894-17.836a4.265 4.265 0 0 0-5.825 1.562zm0 0" fill="#bdcdd6"/><path d="M80.21 265.48a7.5 7.5 0 0 0 9.884 3.852 7.496 7.496 0 0 0 3.851-9.879c-12.914-29.426-11.136-63.086-4.593-94.293.03-.16.062-.316.082-.472 3.105-14.708 7.605-29.32 13.343-42.918a7.503 7.503 0 0 0-3.992-9.829 7.5 7.5 0 0 0-9.824 3.996c-5.04 11.938-9.18 24.626-12.328 37.512-39.617-16.515-53.418-36.933-58.164-48.043-1.797-4.207-2.567-7.664-2.836-10.23 16.054 6.09 47.199 10.531 57.625 7.297 12.91-4.008 68.12-57.043 84.648-76.848 6.446-7.723 23.489-18.246 65.207-1.93.086.032.176.063.262.094 14.836 5.172 75.77 34.79 100.465 57.938 22.129 20.742 44.82 79.289 43.328 133.375a7.498 7.498 0 0 0 7.289 7.703c4.121.125 7.59-3.149 7.703-7.29 1.477-53.577-20.082-118.503-48.066-144.73-26.989-25.3-88.864-55.215-105.649-61.11-37.882-14.78-66.254-12.593-82.054 6.34-18.813 22.54-69.7 69.094-77.578 72.133-7.805 2.422-45-3.878-51.692-8.753-3.11-2.262-7.047-2.543-10.285-.735C2.242 81.227-.031 87.41.606 95.63c.527 6.86 3.539 20.746 17.757 36.68 12.848 14.39 31.352 26.5 55.075 36.039-6.051 32.918-6.56 66.75 6.773 97.132zm0 0"/><path d="M183.938 323.855c.453.02.902.032 1.355.032 7.176 0 13.934-2.7 19.156-7.68.383-.367.758-.746 1.117-1.129 5.075 5.418 12.29 8.809 20.278 8.809 7.992 0 15.207-3.39 20.281-8.809.36.387.734.762 1.117 1.129 5.547 5.293 12.852 8.008 20.512 7.648 14.832-.699 26.453-13.144 26.453-28.328v-22.136c0-2.407 1.047-4.653 2.875-6.164 25.77-21.336 40.547-52.723 40.547-86.114 0-29.734-11.512-54.894-33.29-72.758-20.015-16.421-47.89-25.464-78.495-25.464-30.602 0-58.477 9.043-78.496 25.464-21.774 17.864-33.286 43.024-33.286 72.758 0 33.39 14.778 64.782 40.547 86.114 1.828 1.511 2.875 3.757 2.875 6.164v22.136c0 15.184 11.621 27.63 26.453 28.328zm-54.875-142.742c0-41.425 29.925-83.226 96.78-83.226 66.86 0 96.786 41.8 96.786 83.226 0 28.91-12.797 56.086-35.113 74.559-5.282 4.371-8.309 10.828-8.309 17.719v22.136c0 7.043-5.453 13.032-12.16 13.348-3.531.164-6.899-1.082-9.453-3.52s-3.961-5.726-3.961-9.253v-17.157c0-4.14-3.36-7.496-7.5-7.496-4.14 0-7.5 3.356-7.5 7.496v17.157c0 7.05-5.735 12.789-12.79 12.789-7.05 0-12.788-5.739-12.788-12.79v-17.156a7.495 7.495 0 0 0-7.496-7.496 7.496 7.496 0 0 0-7.5 7.496v17.157a12.67 12.67 0 0 1-3.965 9.253c-2.551 2.438-5.903 3.684-9.45 3.52-6.707-.316-12.164-6.305-12.164-13.348v-22.136c0-6.891-3.027-13.348-8.304-17.72-22.317-18.472-35.113-45.648-35.113-74.558zm0 0"/><path d="M270.73 227.2c26.04 0 31.504-15.247 31.504-28.04 0-9.59-3.023-19.633-8.285-27.55-6.152-9.25-14.398-14.344-23.219-14.344-8.82 0-17.066 5.093-23.218 14.343-5.266 7.918-8.282 17.961-8.282 27.551 0 12.793 5.465 28.04 31.5 28.04zm0-54.934c8.02 0 16.504 13.824 16.504 26.894 0 8.457-2.629 13.043-16.504 13.043-13.87 0-16.503-4.586-16.503-13.043 0-13.07 8.484-26.894 16.503-26.894zM212.46 199.16c0-9.59-3.019-19.633-8.284-27.55-6.149-9.25-14.395-14.344-23.215-14.344s-17.066 5.093-23.219 14.343c-5.262 7.918-8.285 17.961-8.285 27.551 0 12.793 5.465 28.04 31.504 28.04 26.035 0 31.5-15.247 31.5-28.04zm-48.003 0c0-13.07 8.484-26.894 16.504-26.894 8.02 0 16.504 13.824 16.504 26.894 0 8.457-2.63 13.043-16.504 13.043-13.875-.004-16.504-4.586-16.504-13.043zM207.836 241.82a7.5 7.5 0 0 0 10.574.813c5.418-4.645 9.45-4.645 14.871 0a7.471 7.471 0 0 0 4.875 1.804 7.5 7.5 0 0 0 4.887-13.191c-11.09-9.508-23.3-9.508-34.39 0a7.496 7.496 0 0 0-.817 10.574zM400.133 272.79l2.164-3.747a11.69 11.69 0 0 0 1.176-8.926 11.685 11.685 0 0 0-5.48-7.14l-30.895-17.836a11.678 11.678 0 0 0-8.926-1.176 11.685 11.685 0 0 0-7.145 5.484l-40.007 69.297c-2.817 4.875-1.735 10.945 2.27 14.586L213.03 497h-77.5v-48.46c0-4.145-3.355-7.5-7.5-7.5a7.496 7.496 0 0 0-7.496 7.5V497h-42v-88.89c0-21.348 13.434-40.72 33.426-48.2l40.5-15.156a7.493 7.493 0 0 0 4.75-5.68 7.502 7.502 0 0 0-2.445-6.988c-16.774-14.66-34.078-30.707-46.993-48.691a7.497 7.497 0 0 0-10.464-1.715 7.5 7.5 0 0 0-1.72 10.465c11.345 15.793 25.56 29.93 39.946 42.93l-28.828 10.788c-25.824 9.66-43.172 34.676-43.172 62.246v91.73c0 6.704 5.453 12.161 12.16 12.161h300.301c6.703 0 12.16-5.457 12.16-12.16v-91.73c0-18.122-7.535-35.676-20.668-48.169a7.499 7.499 0 0 0-10.336 10.867c10.172 9.676 16.004 23.27 16.004 37.301V497H331.16v-48.46a7.5 7.5 0 1 0-15 0V497h-56.164l88.52-153.328a11.77 11.77 0 0 0 3.562.555c4.07 0 8.031-2.11 10.207-5.88l3.172-5.492c41.328 25.606 69.664 69.012 76.336 117.52.629 4.594 4.293 8.09 8.918 8.508.305.027.605.039.906.039 4.242 0 8.004-2.692 9.348-6.813.422-1.3.82-2.605 1.207-3.914 19.457-65.789-6-136.843-62.04-175.406zm-36.113-25.845.003-.004c-.003.004-.003.008-.007.012zm-1.618 2.801 25.29 14.602-36.778 63.699-25.289-14.602zM230.348 497l95.797-165.938 9.25 5.34L242.675 497zm221.601-71.559c-11.996-43.66-40.304-81.75-78.992-105.578l19.652-34.039c44.864 31.426 67.696 86.012 59.34 139.617zm0 0"/></svg>