<svg height="512pt" viewBox="-100 0 512 512" width="512pt" xmlns="http://www.w3.org/2000/svg"><path d="m198.148 200.555 32.743-14.512c-5.254 11.508 1.402 24.86 10.761 33.953s21.364 15.738 30.282 25.195c11.21 11.887 16.843 28 15.242 43.602l-32.739 14.512c1.598-15.602-4.035-31.711-15.246-43.602-8.918-9.453-20.921-16.101-30.28-25.195s-16.016-22.446-10.763-33.953zm0 0" fill="#c5d3d6"/><path d="M241.652 219.996c-9.359-9.094-16.015-22.445-10.761-33.953l-32.743 14.512c-5.253 11.507 1.403 24.86 10.762 33.953s21.363 15.742 30.281 25.195a57.62 57.62 0 0 1 8.653 11.934c8.89-7.758 16.828-16.836 23.562-26.985-8.86-9.168-20.574-15.738-29.754-24.656zm0 0" fill="#b1bfc4"/><path d="m266.938 351.781-65.942-24.676a2.002 2.002 0 0 1-1.3-1.87v-63.067h-88.333v63.066c0 .832-.515 1.579-1.297 1.871l-65.945 24.676c-22.023 8.242-36.617 29.29-36.617 52.805v95.46a4.451 4.451 0 0 0 4.453 4.454h287.148a4.451 4.451 0 0 0 4.454-4.453v-95.461c0-23.516-14.594-44.563-36.622-52.805zm0 0" fill="#e6eff5"/><path d="m266.938 351.781-65.942-24.676a2.002 2.002 0 0 1-1.3-1.87v-63.067h-23.883v59.84a6.64 6.64 0 0 0 4.32 6.226l62.922 23.547c22.023 8.242 36.62 29.29 36.62 52.805v95.46a4.454 4.454 0 0 1-4.456 4.454h23.886a4.451 4.451 0 0 0 4.454-4.453v-95.461c0-23.516-14.594-44.563-36.621-52.805zm0 0" fill="#c5d3d6"/><path d="M111.363 289.469c18.848 12.996 41.008 20.492 64.723 20.492 8.074 0 15.965-.879 23.61-2.54v-45.253h-88.333zm0 0" fill="#c5d3d6"/><path d="M279.676 147.36c0-77.243-55.582-139.86-124.145-139.86S31.387 70.117 31.387 147.36 86.969 287.218 155.53 287.218s124.145-62.617 124.145-139.86zm0 0" fill="#e6eff5"/><path d="M155.531 7.5c-2.117 0-4.215.063-6.304.18 59.289 3.699 106.449 64.82 106.449 139.68s-47.16 135.98-106.45 139.68c2.087.116 4.188.179 6.305.179 68.563 0 124.145-62.617 124.145-139.86C279.676 70.113 224.094 7.5 155.53 7.5zm0 0" fill="#c5d3d6"/><path d="M39.953 96.215c-5.527 15.844-8.566 33.094-8.566 51.144a158 158 0 0 0 .136 6.399c39.079 25.277 121.293 47.695 240.832 41.008 4.735-14.805 7.32-30.766 7.32-47.407 0-7.175-.484-14.222-1.405-21.105-129.426 15.254-201.817-7.043-238.317-30.04zm0 0" fill="#f9c295"/><path d="M209.2 165.168a7.5 7.5 0 0 1-7.5-7.5v-1c0-4.145 3.355-7.5 7.5-7.5a7.5 7.5 0 0 1 7.5 7.5v1c0 4.14-3.36 7.5-7.5 7.5zM101.863 165.168c-4.14 0-7.5-3.36-7.5-7.5v-1a7.5 7.5 0 0 1 7.5-7.5c4.145 0 7.5 3.355 7.5 7.5v1a7.5 7.5 0 0 1-7.5 7.5zm0 0"/><path d="M278.27 126.254a786.053 786.053 0 0 1-23.594 2.426c2.37 22.148.57 45.168-5.895 67.043a760.687 760.687 0 0 0 23.574-.961c7.086-22.157 8.946-45.953 5.915-68.508zm0 0" fill="#e59f6a"/><path d="m269.57 344.754-24.875-9.305c-.132-.05-.265-.101-.398-.148l-37.098-13.875V282.89c9.664-4.633 18.738-10.524 27.051-17.493 9.324 10.2 14.074 24.028 12.73 37.145-.585 5.73 5.254 9.95 10.5 7.621l32.743-14.52a7.497 7.497 0 0 0 4.418-6.09c1.836-17.898-4.454-35.945-17.254-49.511-3.832-4.063-8.098-7.582-12.399-10.898 5.832-9.747 10.653-20.31 14.29-31.5.081-.196.156-.395.218-.598 7.59-23.73 9.324-48.563 6.203-71.793-.012-.094-.027-.184-.043-.277-3.695-27.036-13.98-51.68-28.957-71.801a7.382 7.382 0 0 0-1.246-1.648C231.297 20.003 195.461 0 155.531 0c-34.91 0-67.793 15.125-92.59 42.59-2.777 3.074-2.535 7.816.54 10.594s7.816 2.535 10.593-.54a126.234 126.234 0 0 1 6.317-6.511c20.496 17.957 49.785 36.633 72.449 46.883-27.2 8.246-53.43 12.754-75.563 12.894-9.918-3.605-19.359-7.875-28.12-12.91a137.83 137.83 0 0 1 8.238-17.191 7.5 7.5 0 0 0-2.817-10.227 7.504 7.504 0 0 0-10.226 2.82 154.062 154.062 0 0 0-11.403 25.133c-.027.07-.054.14-.078.211-15.223 43.633-11.226 94.324 13 135.063.254.574.578 1.109.965 1.597 14.086 23.031 33.855 41.375 57.023 52.489v38.531l-62.37 23.332c-7.692 2.887-14.65 7.14-20.676 12.648a7.498 7.498 0 0 0 5.058 13.035 7.485 7.485 0 0 0 5.059-1.96c4.605-4.211 9.933-7.465 15.816-9.676l.496-.184c41.281 36.39 83.004 55.95 132.32 61.649-30.117 16.492-67.195 30.644-110.058 35.878v-12.906a7.5 7.5 0 1 0-15 0V475.988c-10.59-2.64-24.23-8.773-39.504-24.484v-46.926c0-4.828.707-9.598 2.105-14.183a7.5 7.5 0 1 0-14.348-4.371A63.625 63.625 0 0 0 0 404.577v95.473C0 506.64 5.363 512 11.96 512h287.142c6.593 0 11.96-5.36 11.96-11.95v-95.472c0-26.492-16.675-50.535-41.492-59.824zM57.207 218.5c-8.566-15.191-14.477-32.488-16.977-51.04 21.086 10.981 48.426 19.93 80.09 26.15 21.45 4.21 44.278 7.077 68.332 8.59-22.933 5.862-53 11.816-82.87 14.702h-.005c-.082.008-.164.012-.25.024-17.68 1.703-33.914 2.23-48.32 1.574zm175.484-15.031a749.575 749.575 0 0 0 28.75-.664c-7.597 18.613-18.894 34.898-32.816 47.632-36.855-5.285-70.496-14.43-93.055-22.16 43.633-6.652 83.504-17.898 97.121-24.808zm33.786 46.867c8.648 9.164 13.52 21.41 13.468 33.46l-18.043 8c-1.367-13.401-7.164-26.284-16.699-36.644a143.67 143.67 0 0 0 11.43-13.511c3.57 2.785 6.918 5.593 9.844 8.695zM155.53 15c32.656 0 62.223 15.309 83.414 39.93-19.847 11.914-41.156 22.132-63.48 30.441-17.813-4.035-56.57-25.848-83.485-49.023C110.746 22.457 132.672 15 155.531 15zm22.996 85.23c.082-.03.164-.058.246-.09 24.426-8.953 47.715-20.113 69.332-33.218 10.356 15.305 17.829 33.242 21.504 52.758-39.972 4.277-98.359 7.187-151.507-2.825 19.312-3.468 39.855-9.09 60.425-16.625zm-55.507 32.743c42.453 7.152 92.414 7.68 148.613 1.578 1.5 17.547-.098 35.738-4.957 53a742.757 742.757 0 0 1-35.48.922 7.252 7.252 0 0 0-.825 0c-38.687.011-74.598-3.192-107.16-9.582-34.23-6.723-63.957-17.09-84.305-29.364-.218-13.746 1.5-28.105 5.383-42.062 21.336 11.726 47.766 20.293 78.73 25.508zM67.238 233.762c.785.008 1.575.008 2.371.008 10.97 0 22.739-.57 35.176-1.708 17.13 8.786 60.09 22.793 107.414 30.961-16.789 10.633-36.117 16.696-56.668 16.696-35.246 0-66.886-17.828-88.293-45.957zm88.293 60.957a118.31 118.31 0 0 0 36.668-5.817v36.328c0 3.97 2.399 7.458 6.164 8.903l13.172 4.93c-42.836 1.703-73.258-17.04-92.676-35.61v-14.55a118.372 118.372 0 0 0 36.672 5.816zM63.277 352.62l49.485-18.512a9.445 9.445 0 0 0 6.101-8.879v-1.84c20.52 16.462 49.242 30.829 86.973 30.829 11.05 0 22.883-1.235 35.504-4.008l18.918 7.074c-10.098 11.79-30.043 31.043-58.387 49.598-52.832-1.817-96.125-18.696-138.594-54.262zm146.477 67.047c29.508-19.234 52.824-41.078 64.527-55.746 13.352 8.945 21.781 24.18 21.781 40.66v46.922c-15.273 15.71-28.917 21.844-39.503 24.484V443.243a7.5 7.5 0 0 0-7.5-7.5 7.5 7.5 0 0 0-7.5 7.5v14.007c-16.07 11.563-59.196 36.035-108.313 39.754H69.504v-25.75c61.281-7.14 109.875-31.785 140.25-51.586zm31.805 65.242V497H197.75c18.063-6.996 33.234-15.156 43.809-21.762zM15 471.926c12.36 10.187 25.258 16.511 39.504 19.426V497H15zM256.559 497v-5.648c14.246-2.914 27.144-9.239 39.503-19.426V497zm0 0"/></svg>