<svg xmlns="http://www.w3.org/2000/svg" viewBox="0 0 512 512" style="enable-background:new 0 0 512 512" xml:space="preserve"><path style="fill:#d9d4d4" d="M399.999 137.31V255h-34.54c1.74-7.83 2.65-15.97 2.65-24.32v-46.7c0-2.63-.1-5.25-.29-7.83-1.08.12-2.19.18-3.3.18-17.57 0-31.82-15.05-31.82-33.63 0-10.36 4.43-19.62 11.4-25.79-5.3-6.47-11.37-12.29-18.07-17.34-13.08 10.52-39.53 17.71-70.03 17.71s-56.95-7.19-70.03-17.71c-6.7 5.05-12.77 10.87-18.07 17.34 6.97 6.17 11.4 15.43 11.4 25.79 0 18.58-14.25 33.63-31.82 33.63-1.11 0-2.22-.06-3.3-.18-.19 2.58-.29 5.2-.29 7.83v46.7c0 8.35.91 16.49 2.65 24.32h-34.54V137.31c0-54.03 43.8-97.83 97.83-97.83h.99c-1.66-1.76-14.14-15.63-9.14-31.98 15.34 17.83 47.32 24.83 59.99 29.48-6.67-7.36-5.67-29.48-5.67-29.48s37.51 30.32 52.27 32.17c51.189 3.15 91.73 45.66 91.73 97.64z"/><path style="fill:#c6bebe" d="M308.268 39.67c-14.76-1.85-52.27-32.17-52.27-32.17s-.403 8.981 1.028 17.402c10.498 7.128 21.994 13.922 28.741 14.768 51.19 3.15 91.73 45.66 91.73 97.64V255h22.501V137.31c.001-51.98-40.54-94.49-91.73-97.64z"/><path style="fill:#f0eeee" d="M203.072 363.444h105.855c41.621 0 75.362 33.741 75.362 75.362V504.5H127.71v-65.695c0-41.62 33.741-75.361 75.362-75.361z"/><path style="fill:#fa9e3e" d="M298.099 267.73v95.35l-18.765 19.368a32.494 32.494 0 0 1-46.67 0l-18.765-19.368v-95.35h84.2zM125.838 223.99h49.369v56.61h-49.369c-15.632 0-28.305-12.673-28.305-28.305s12.673-28.305 28.305-28.305zM386.16 223.99h-49.369v56.61h49.369c15.632 0 28.305-12.673 28.305-28.305s-12.672-28.305-28.305-28.305z"/><path style="fill:#ffb56b" d="M368.108 183.98v46.7c0 .97-.01 1.93-.04 2.89-.02.97-.06 1.92-.11 2.88-.04.95-.1 1.91-.18 2.86-.07.94-.15 1.89-.25 2.83-.06.64-.13 1.28-.22 1.92-.05.55-.12 1.1-.2 1.65-.04.29-.08.58-.13.87-.08.65-.18 1.3-.29 1.95-.05.36-.11.72-.18 1.07-.11.71-.24 1.41-.38 2.12-.03.21-.07.42-.12.63-.14.75-.3 1.49-.46 2.23-.04.23-.09.46-.15.69-.11.51-.23 1.02-.35 1.52-.09.38-.18.75-.28 1.13-.13.54-.27 1.08-.42 1.62-.02.11-.05.23-.09.34-.18.67-.36 1.34-.56 2.01-.04.17-.09.33-.14.5-.19.63-.37 1.25-.57 1.87-.23.76-.48 1.51-.74 2.27-.25.75-.51 1.5-.78 2.24-.22.6-.44 1.2-.67 1.8-.22.59-.45 1.18-.69 1.77-.2.51-.41 1.01-.62 1.52-.13.32-.26.63-.4.95-.15.36-.31.71-.47 1.07-.24.55-.48 1.1-.74 1.64-1.47 3.19-3.08 6.31-4.84 9.33-.36.63-.73 1.26-1.11 1.88-.05.08-.1.15-.15.23-.37.62-.75 1.23-1.14 1.83-.1.18-.21.34-.32.51-.36.56-.72 1.11-1.08 1.65-.12.19-.25.37-.37.55-.34.5-.68.99-1.02 1.48-.18.25-.36.51-.54.76-.9 1.26-1.82 2.51-2.78 3.73-.73.94-1.48 1.87-2.24 2.78-.49.6-.99 1.19-1.49 1.77l-.04.04c-.56.65-1.13 1.29-1.71 1.93-.03.04-.07.07-.1.11-.37.4-.74.81-1.12 1.21-.3.33-.6.65-.91.96-.17.18-.35.37-.53.55-.37.38-.74.76-1.11 1.13-.63.63-1.28 1.26-1.92 1.88-.6.57-1.21 1.14-1.82 1.69l-.41.37c-.51.47-1.03.93-1.56 1.38l-1.68 1.43c-.3.27-.6.52-.91.76l-4.27 3.33c-1.31.98-2.66 1.93-4.02 2.85l-1.65 1.09c-.46.31-.93.61-1.4.89l-1.79 1.11c-.68.41-1.36.81-2.04 1.2-.71.41-1.42.81-2.14 1.2l-.47.26c-1.51.82-3.04 1.6-4.59 2.34-.75.36-1.5.71-2.25 1.06l-.71.31c-.53.24-1.06.47-1.6.7l-.8.34c-.71.3-1.42.59-2.14.87-.73.29-1.45.57-2.19.84l-6.08 2.05a54 54 0 0 1-1.81.54c-.43.13-.87.25-1.31.36l-2.14.57c-.56.14-1.12.28-1.69.41-.4.1-.8.19-1.21.28l-2.34.5c-.68.14-1.37.27-2.05.4l-3.06.51c-.53.09-1.05.16-1.58.23l-1.04.14c-.49.07-.98.13-1.48.18l-1.13.13c-.33.04-.66.07-.99.1-.68.07-1.37.13-2.06.18l-.8.06c-.59.05-1.17.09-1.76.11l-.84.05c-.74.04-1.49.07-2.24.08l-3.31.06c-.84 0-1.67-.01-2.5-.03-.68-.01-1.35-.03-2.02-.06-.47-.02-.95-.04-1.43-.07-50.91-2.66-92.82-39.28-103.51-87.63-1.74-7.83-2.65-15.97-2.65-24.32v-46.7c0-2.63.1-5.25.29-7.83 1.08.12 2.19.18 3.3.18 17.57 0 31.82-15.05 31.82-33.63 0-10.36-4.43-19.62-11.4-25.79 5.3-6.47 11.37-12.29 18.07-17.34 13.08 10.52 39.53 17.71 70.03 17.71s56.95-7.19 70.03-17.71c6.7 5.05 12.77 10.87 18.07 17.34-6.97 6.17-11.4 15.43-11.4 25.79 0 10.69 4.72 20.22 12.08 26.38 5.42 4.54 12.29 7.25 19.74 7.25 1.11 0 2.22-.06 3.3-.18.191 2.58.29 5.2.29 7.83z"/><path style="fill:#ef9245" d="M368.108 183.98v46.7c0 .97-.01 1.93-.04 2.89-.02.97-.06 1.92-.11 2.88-.04.95-.1 1.91-.18 2.86-.07.94-.15 1.89-.25 2.83-.06.64-.13 1.28-.22 1.92-.05.55-.12 1.1-.2 1.65-.04.29-.08.58-.13.87-.08.65-.18 1.3-.29 1.95-.05.36-.11.72-.18 1.07-.11.71-.24 1.41-.38 2.12-.03.21-.07.42-.12.63-.14.75-.3 1.49-.46 2.23-.04.23-.09.46-.15.69-.11.51-.23 1.02-.35 1.52-.09.38-.18.75-.28 1.13-.13.54-.27 1.08-.42 1.62-.02.11-.05.23-.09.34-.18.67-.36 1.34-.56 2.01-.04.17-.09.33-.14.5-.19.63-.37 1.25-.57 1.87-.23.76-.48 1.51-.74 2.27-.25.75-.51 1.5-.78 2.24-.22.6-.44 1.2-.67 1.8-.22.59-.45 1.18-.69 1.77-.2.51-.41 1.01-.62 1.52-.13.32-.26.63-.4.95-.15.36-.31.71-.47 1.07-.24.55-.48 1.1-.74 1.64-1.47 3.19-3.08 6.31-4.84 9.33-.36.63-.73 1.26-1.11 1.88-.05.08-.1.15-.15.23-.37.62-.75 1.23-1.14 1.83-.1.18-.21.34-.32.51-.36.56-.72 1.11-1.08 1.65-.12.19-.25.37-.37.55-.34.5-.68.99-1.02 1.48-.18.25-.36.51-.54.76-.9 1.26-1.83 2.51-2.78 3.73-.73.94-1.48 1.87-2.24 2.78-.49.6-.99 1.19-1.49 1.77l-.04.04c-.56.65-1.13 1.29-1.71 1.93-.03.04-.07.07-.1.11-.37.4-.74.81-1.12 1.21-.3.33-.6.65-.91.96-.17.18-.35.37-.53.55-.37.38-.74.76-1.11 1.13-.63.63-1.28 1.26-1.92 1.88-.6.57-1.21 1.14-1.82 1.69l-.41.37c-.51.47-1.03.93-1.56 1.38l-1.68 1.43c-.3.27-.6.52-.91.76l-4.27 3.33c-1.32.98-2.66 1.93-4.02 2.85l-1.65 1.09c-.46.31-.93.61-1.4.89l-1.79 1.11c-.68.41-1.36.81-2.04 1.2-.71.41-1.42.81-2.14 1.2l-.47.26c-1.51.81-3.04 1.6-4.59 2.34-.75.36-1.5.71-2.25 1.06l-.71.31c-.53.24-1.06.47-1.6.7l-.8.34c-.71.3-1.42.59-2.14.87-.73.29-1.45.57-2.19.84l-6.08 2.05a54 54 0 0 1-1.81.54c-.43.13-.87.25-1.31.36l-2.14.57c-.56.14-1.12.28-1.69.41-.4.1-.8.19-1.21.28l-2.34.5c-.68.14-1.37.27-2.05.4l-3.06.51c-.53.09-1.05.16-1.58.23l-1.04.14c-.49.07-.98.13-1.48.18l-1.13.13c-.33.04-.66.07-.99.1-.68.07-1.37.13-2.06.18l-.8.06c-.59.05-1.17.09-1.76.11l-.84.05c-.74.04-1.49.07-2.24.08l-3.31.06c-.84 0-1.67-.01-2.5-.03-.68-.01-1.35-.03-2.02-.06-.47-.02-.95-.04-1.43-.07 52.81-2.96 94.73-46.73 94.73-100.29v-73.26c5.42 4.54 12.29 7.25 19.74 7.25 1.11 0 2.22-.06 3.3-.18.191 2.58.29 5.2.29 7.83z"/><path style="fill:#d9d4d4" d="m309.642 288.582-.038-.469c-1.904-23.415-21.462-41.447-44.954-41.447h-17.3c-23.492 0-43.05 18.032-44.954 41.447l-.038.469c-34.838-19.018-58.472-55.983-58.472-98.47v40.564c0 61.919 50.195 112.115 112.115 112.115 61.919 0 112.115-50.195 112.115-112.115v-40.564c-.003 42.487-23.637 79.452-58.474 98.47zm-53.643 13.645c-11.518 0-22.629-1.74-33.088-4.966 3.983-13.72 14.857-23.418 27.502-23.418h11.172c12.645 0 23.519 9.698 27.502 23.418a112.085 112.085 0 0 1-33.088 4.966z"/><path style="fill:#fb403f" d="M308.927 363.444h-10.828V504.5h86.189v-65.695c0-41.62-33.74-75.361-75.361-75.361z"/><path style="fill:#c21c1c" d="M308.927 363.444h-22.632c41.621 0 75.362 33.741 75.362 75.362V504.5h22.632v-65.695c-.001-41.62-33.741-75.361-75.362-75.361z"/><path style="fill:#fb403f" d="M203.072 363.444h10.827V504.5H127.71v-65.695c0-41.62 33.741-75.361 75.362-75.361z"/><path style="fill:#ff6464" d="m359.999 425-37.731-62.463A11.826 11.826 0 0 0 311.691 356h-13.592v148.5l48.192-40.208L333.499 436l26.5-11zM151.999 425l37.731-62.463A11.826 11.826 0 0 1 200.307 356h13.592v148.5l-48.192-40.208L178.499 436l-26.5-11z"/><path style="fill:#2a434f" d="m301.232 425.982-40.129-14.113v-34.411l40.129-14.113c7.501-2.638 14.531 4.953 11.327 12.23l-8.406 19.089 8.406 19.089c3.204 7.277-3.826 14.868-11.327 12.229zM210.767 425.982l40.129-14.113v-34.411l-40.129-14.113c-7.501-2.638-14.531 4.953-11.327 12.23l8.406 19.089-8.406 19.089c-3.204 7.277 3.826 14.868 11.327 12.229z"/><path style="fill:#3d5868" d="M255.999 372.085c-7.908 0-14.318 6.411-14.318 14.318v16.521c0 7.908 6.411 14.318 14.318 14.318 7.908 0 14.318-6.411 14.318-14.318v-16.521c.001-7.908-6.411-14.318-14.318-14.318z"/><path d="M310.323 213.963a7.5 7.5 0 0 0 7.5-7.5v-2a7.5 7.5 0 0 0-15 0v2a7.5 7.5 0 0 0 7.5 7.5zM201.676 196.963a7.5 7.5 0 0 0-7.5 7.5v2a7.5 7.5 0 0 0 15 0v-2a7.5 7.5 0 0 0-7.5-7.5zM261.589 266.34h-11.18c-15.742 0-29.688 11.584-34.702 28.826a7.5 7.5 0 0 0 4.988 9.26 119.499 119.499 0 0 0 35.303 5.304c12.029 0 23.907-1.785 35.303-5.304a7.5 7.5 0 0 0 4.988-9.26c-5.012-17.242-18.958-28.826-34.7-28.826zm-28.398 25.894c4.032-6.723 10.379-10.894 17.217-10.894h11.18c6.838 0 13.185 4.171 17.217 10.894-14.903 3.317-30.709 3.317-45.614 0z"/><path d="m335.132 320.37.196-.173a121.827 121.827 0 0 0 3.592-3.319l.033-.032c.546-.526 1.092-1.053 1.63-1.591.454-.454.885-.926 1.331-1.386.317-.328.635-.656.948-.987.908-.959 1.797-1.934 2.672-2.921.174-.197.35-.392.523-.591a119.141 119.141 0 0 0 2.956-3.515l.115-.141a119.772 119.772 0 0 0 11.818-17.613h25.214c19.746 0 35.81-16.065 35.81-35.81 0-11.753-5.695-22.199-14.47-28.73v-86.25c0-55.45-43.237-101.565-98.491-105.108-8.878-1.32-33.512-18.59-48.295-30.535a7.5 7.5 0 0 0-12.207 5.494c-.106 2.346-.317 10.05.958 18-14.154-4.544-32.359-11.231-42.1-22.553a7.5 7.5 0 0 0-12.858 2.698c-3.268 10.686-.763 20.31 2.717 27.421-16.579 1.979-32.407 7.857-46.356 17.29a7.5 7.5 0 0 0 8.402 12.426c14.959-10.116 32.443-15.464 50.559-15.464h.99a7.499 7.499 0 0 0 5.456-12.646c-.662-.702-4.239-4.649-6.464-10.208 13.18 8.491 29.089 13.465 40.725 17.102 3.409 1.065 6.353 1.986 8.55 2.792a7.5 7.5 0 0 0 8.142-12.078c-1.243-1.371-2.211-4.576-2.859-8.528 13.073 9.639 32.041 22.327 42.969 23.697.157.02.314.034.472.044 47.49 2.922 84.69 42.523 84.69 90.154v79.753a35.809 35.809 0 0 0-6.34-.573h-10.55v-32.51c0-2.764-.104-5.584-.31-8.381a7.512 7.512 0 0 0-2.687-5.219 7.505 7.505 0 0 0-5.622-1.685c-.8.089-1.632.134-2.471.134-13.41 0-24.32-11.722-24.32-26.13 0-7.831 3.233-15.184 8.871-20.174a7.5 7.5 0 0 0 .831-10.369 112.912 112.912 0 0 0-19.358-18.577 7.459 7.459 0 0 0-3.096-1.356c-2.113-.407-4.357.084-6.119 1.501-11.747 9.448-36.179 15.657-62.751 16.036a184.093 184.093 0 0 1-10.269-.145c-.847-.036-1.691-.078-2.531-.126-23.537-1.34-44.497-7.231-55.106-15.764a7.501 7.501 0 0 0-9.215-.145 112.836 112.836 0 0 0-19.358 18.577 7.5 7.5 0 0 0 .831 10.369c5.638 4.991 8.871 12.344 8.871 20.174 0 14.408-10.91 26.13-24.32 26.13-.839 0-1.67-.045-2.471-.134a7.493 7.493 0 0 0-8.046 5.414 7.512 7.512 0 0 0-.263 1.49c-.206 2.797-.31 5.617-.31 8.381v32.51h-10.55c-2.134 0-4.256.204-6.34.578V137.31c0-20.269 6.553-39.415 18.952-55.368a7.5 7.5 0 0 0-1.32-10.524 7.5 7.5 0 0 0-10.524 1.32c-14.463 18.61-22.108 40.939-22.108 64.572v86.246c-9.019 6.693-14.47 17.332-14.47 28.734 0 19.746 16.064 35.81 35.81 35.81h10.55v14.797c0 20.067 16.326 36.393 36.393 36.393a36.18 36.18 0 0 0 20.807-6.561 125.38 125.38 0 0 0 5.799 3.347c2.292 1.232 4.639 2.365 7.011 3.447v8.977h-6.09c-7.025 0-13.361 3.724-16.79 9.775-36.855 8.922-63.31 42.321-63.31 80.535v65.69a7.5 7.5 0 0 0 7.5 7.5h256.58a7.5 7.5 0 0 0 7.5-7.5v-65.69c0-38.289-26.429-71.625-63.315-80.545-3.431-6.046-9.763-9.766-16.785-9.766h-6.09v-8.918c10.641-4.852 20.584-11.297 29.531-19.211zm-74.866 14.828c-1.42.058-2.842.092-4.267.092-11.325 0-22.459-1.795-33.088-5.335a104.84 104.84 0 0 1-16.4-7.079 111.15 111.15 0 0 1-2.465-1.376 36.161 36.161 0 0 0 5.13-18.602v-11.214c.351-.77.583-1.599.657-2.466l.042-.499c1.572-19.372 18.033-34.547 37.475-34.547h17.3c19.442 0 35.902 15.175 37.477 34.576l.04.47a7.5 7.5 0 0 0 11.067 5.947 119.695 119.695 0 0 0 45.224-43.327c-.106.515-.207 1.032-.321 1.545-3.471 15.706-10.624 30.428-20.689 42.926l-.1.123a105.235 105.235 0 0 1-2.588 3.077c-.148.17-.299.337-.448.506a105.63 105.63 0 0 1-3.161 3.413c-.859.889-1.727 1.772-2.618 2.632l-.006.006c-1.03.993-2.084 1.964-3.156 2.916l-.16.141a101.82 101.82 0 0 1-3.284 2.786c-17.364 14.112-38.984 22.288-61.326 23.279l-.335.01zm.347 46.183a6.72 6.72 0 0 1 2.205 5.019v16.52a6.783 6.783 0 0 1-2.002 4.836l-.087.08c-.048.043-.096.085-.143.129-1.244 1.146-2.873 1.776-4.588 1.776s-3.345-.631-4.614-1.8a6.717 6.717 0 0 1-2.206-5.02V386.4c0-.253.015-.503.041-.75a6.739 6.739 0 0 1 2.18-4.285 6.767 6.767 0 0 1 4.598-1.786c1.715 0 3.349.636 4.616 1.802zm-4.614 43.36c3.852 0 7.569-1.022 10.839-2.899l23.761 8.353V497h-69.2v-24.53a7.5 7.5 0 0 0-15 0v16.004l-31.507-26.29 10.441-23.094a7.502 7.502 0 0 0-3.959-10.017l-18.448-7.658 28.417-47.043c.223 1.423.625 2.84 1.233 4.22l7.078 16.067-7.081 16.072c-2.703 6.149-1.545 13.029 3.021 17.955 2.927 3.157 6.762 4.962 10.805 5.274v8.539a7.5 7.5 0 0 0 15 0v-12.307l23.763-8.353a21.715 21.715 0 0 0 10.837 2.902zm20.819-44.861 26.893-9.462c.651-.23 1.222-.087 1.694.422.469.506.566 1.081.291 1.707l-8.41 19.09a7.497 7.497 0 0 0 0 6.047l8.407 19.084c.279.634.182 1.213-.289 1.721-.469.506-1.037.644-1.688.415l-26.885-9.451c.01-.033.017-.068.027-.101.037-.121.065-.246.1-.368.143-.498.27-1.001.377-1.51.043-.204.08-.41.117-.616.083-.458.15-.919.204-1.383.023-.197.049-.392.067-.589a22.1 22.1 0 0 0 .096-1.966V386.4a21.49 21.49 0 0 0-.088-1.869c-.038-.441-.087-.88-.152-1.316-.008-.053-.013-.107-.021-.16a21.842 21.842 0 0 0-.278-1.438c-.026-.117-.055-.232-.083-.348-.101-.417-.213-.83-.339-1.24-.014-.049-.025-.1-.04-.149zm42.605-1.288c.16-.364.305-.731.438-1.099.047-.131.086-.262.13-.393.08-.24.159-.479.228-.72.044-.154.081-.308.12-.463a13.476 13.476 0 0 0 .251-1.148c.023-.127.053-.253.073-.38l28.408 47.028-18.448 7.658a7.502 7.502 0 0 0-3.959 10.017l10.441 23.094-31.507 26.29v-54.497c.077-.006.153-.022.23-.029.215-.02.427-.052.641-.08.316-.042.631-.087.943-.147.22-.042.436-.093.654-.145a15.683 15.683 0 0 0 2.415-.775c.21-.086.419-.173.626-.269.286-.132.566-.276.845-.424.197-.105.395-.207.588-.32.285-.167.563-.351.839-.536.176-.118.354-.229.526-.354.301-.219.59-.457.879-.698.136-.114.278-.218.411-.336a16.961 16.961 0 0 0 3.986-5.196c2.126-4.301 2.27-9.324.243-13.936l-.003-.006-7.078-16.066 7.08-16.07zm-84.291 1.466c-.121.397-.23.798-.328 1.201-.029.121-.06.242-.087.364-.107.474-.202.95-.277 1.432-.009.054-.014.109-.022.164-.065.435-.114.873-.152 1.313-.011.129-.022.258-.031.387a21.49 21.49 0 0 0-.057 1.482v16.52a21.577 21.577 0 0 0 .088 1.872c.038.441.087.88.152 1.317l.021.162c.075.484.171.962.278 1.438.027.118.056.236.084.353.1.413.211.822.335 1.228.016.052.027.107.043.159l-26.902 9.457c-.649.231-1.216.088-1.685-.417-.471-.508-.568-1.087-.292-1.715l8.41-19.09a7.497 7.497 0 0 0 0-6.047l-8.41-19.088c-.276-.627-.179-1.203.289-1.708.326-.352.7-.529 1.113-.529.184 0 .376.035.576.105l26.898 9.464c-.015.057-.026.117-.044.176zM201.676 228.14c-11.953 0-21.677-9.725-21.677-21.677 0-11.953 9.725-21.677 21.677-21.677 11.953 0 21.678 9.725 21.678 21.677-.001 11.952-9.725 21.677-21.678 21.677zm205.293 24.15c0 11.475-9.335 20.81-20.81 20.81h-18.294c4.362-11.457 6.899-23.44 7.563-35.806.014-.247.02-.495.031-.742.04-.84.08-1.68.103-2.523.023-.846.03-1.692.036-2.539h10.561c11.475.001 20.81 9.331 20.81 20.8zm-255.58-68.31.001-.352c19.853-2.06 35.409-19.629 35.409-40.928 0-9.542-3.145-18.665-8.8-25.938a98.139 98.139 0 0 1 8.251-7.826c12.312 7.706 30.84 13.041 51.73 15.007 5.849.55 11.884.836 18.019.836 6.135 0 12.169-.286 18.019-.836 20.89-1.965 39.418-7.3 51.73-15.007a98.139 98.139 0 0 1 8.251 7.826c-5.655 7.273-8.8 16.396-8.8 25.938 0 21.299 15.557 38.869 35.409 40.928v6.482c0 34.784-17.241 67.015-45.612 86.405a52.443 52.443 0 0 0-14.693-23.418 52.467 52.467 0 0 0-35.655-13.927h-17.3a52.462 52.462 0 0 0-35.655 13.927c-.87.802-1.71 1.63-2.519 2.483v-13.213c16.639-3.471 29.178-18.249 29.178-35.904 0-20.224-16.454-36.677-36.678-36.677s-36.677 16.453-36.677 36.677c0 17.654 12.538 32.432 29.177 35.904v32.105c-4.832-3.549-9.38-7.489-13.563-11.842-11.129-11.563-19.554-25.706-24.362-40.899a104.748 104.748 0 0 1-4.861-31.62l.001-6.131zm-46.36 68.31a20.813 20.813 0 0 1 10.659-18.15 20.68 20.68 0 0 1 10.151-2.65H136.4c.006.847.013 1.693.036 2.539.023.843.063 1.683.103 2.523.012.247.018.495.031.742.663 12.367 3.201 24.351 7.563 35.806h-.234l-.01-.001-.01.001h-18.04c-11.475.001-20.81-9.335-20.81-20.81zm46.36 50.607v-14.206a119.946 119.946 0 0 0 13.286 19.235c2.676 3.162 7.408 3.555 10.57.879s3.555-7.409.879-10.57a104.707 104.707 0 0 1-13.822-20.98 103.462 103.462 0 0 1-8.412-23.708c-.011-.058-.017-.115-.029-.173-.115-.517-.216-1.037-.323-1.556a120.096 120.096 0 0 0 16.265 21.211 119.534 119.534 0 0 0 24.374 19.484v10.385c0 5.335-1.976 10.208-5.218 13.959a7.454 7.454 0 0 0-2.349 2.199c-.069.101-.127.207-.19.311a21.292 21.292 0 0 1-13.636 4.923c-11.798 0-21.395-9.596-21.395-21.393zm-16.18 135.914c0-25.419 14.292-48.232 35.823-59.823l-25.452 42.135a7.5 7.5 0 0 0 3.544 10.805l19.354 8.034-9.602 21.24a7.502 7.502 0 0 0 2.029 8.849l32.3 26.951h-57.996v-58.191zm241.58 0V497h-57.995l32.3-26.951a7.501 7.501 0 0 0 2.029-8.849l-9.603-21.24 19.354-8.034a7.497 7.497 0 0 0 3.544-10.805l-25.463-42.153c21.549 11.576 35.834 34.367 35.834 59.843zM290.599 356v3.13l-23.751 8.358a21.737 21.737 0 0 0-10.849-2.908c-3.857 0-7.58 1.027-10.851 2.907l-23.749-8.357V345.189a119.61 119.61 0 0 0 34.6 5.101c1.632 0 3.257-.041 4.878-.105.127-.005.255-.008.382-.014a119.68 119.68 0 0 0 29.34-4.938V356z"/><path d="M251.839 448.74c.4.27.84.5 1.29.69.45.18.93.33 1.41.42.48.1.97.15 1.46.15s.98-.05 1.47-.15c.47-.09.95-.24 1.4-.42a7.403 7.403 0 0 0 2.43-1.63 7.403 7.403 0 0 0 2.05-3.83 7.334 7.334 0 0 0 0-2.94c-.09-.47-.24-.95-.42-1.4a7.403 7.403 0 0 0-1.63-2.43c-1.74-1.74-4.33-2.55-6.76-2.05-.48.09-.96.24-1.41.42a7.403 7.403 0 0 0-2.43 1.63 7.403 7.403 0 0 0-2.05 3.83c-.1.49-.15.98-.15 1.47 0 1.97.8 3.91 2.2 5.3.339.35.729.66 1.14.94zM262.928 471.88a7.403 7.403 0 0 0-1.63-2.43c-.34-.35-.73-.66-1.14-.94-.4-.27-.84-.5-1.29-.68-.45-.19-.93-.34-1.4-.43-.97-.2-1.97-.2-2.94 0-.47.09-.95.24-1.4.43-.45.18-.89.41-1.29.68-.41.28-.8.59-1.14.94-.35.34-.66.73-.94 1.14-.27.4-.5.84-.68 1.29-.19.45-.34.93-.43 1.4a7.334 7.334 0 0 0 .43 4.34c.18.45.41.89.68 1.29.28.41.59.8.94 1.14a7.403 7.403 0 0 0 3.83 2.05 7.334 7.334 0 0 0 2.94 0c.47-.09.95-.24 1.4-.42a7.403 7.403 0 0 0 2.43-1.63 7.403 7.403 0 0 0 2.05-3.83 7.334 7.334 0 0 0 0-2.94 7.706 7.706 0 0 0-.42-1.4z"/></svg>