<svg height="512pt" viewBox="-42 0 512 512" width="512pt" xmlns="http://www.w3.org/2000/svg"><path d="M280.238 68.164c0 13.367-10.875 24.238-24.238 24.238s-24.234-10.87-24.234-24.238c0-33.406-27.184-60.59-60.594-60.59s-60.594 27.18-60.594 60.59h36.356c0-13.363 10.875-24.234 24.238-24.234S195.41 54.8 195.41 68.164c0 33.41 27.18 60.594 60.59 60.594s60.594-27.18 60.594-60.594zm0 0" fill="#8db0ff"/><path d="M302.453 68.164c0 31.02-23.43 56.652-53.52 60.168 2.32.27 4.676.426 7.067.426 33.41 0 60.594-27.18 60.594-60.594zM246.688 90.54c-8.754-3.661-14.922-12.31-14.922-22.376 0-23.504-13.465-43.91-33.075-53.953-8.34 8.851-14.656 19.625-18.203 31.582 8.754 3.656 14.922 12.305 14.922 22.371 0 23.508 13.461 43.91 33.074 53.957 8.336-8.855 14.653-19.625 18.203-31.582zm0 0" fill="#669af7"/><path d="m152.996 355.977-86.254 23.957c-34.969 9.714-59.168 41.55-59.168 77.843v46.649h412.024v-46.649c0-36.293-24.2-68.129-59.164-77.843l-86.254-23.957zm0 0" fill="#ff933b"/><path d="m360.434 379.938-25.817-7.172c29.192 12.656 48.625 41.582 48.625 74.097v57.563h36.356v-46.649c0-36.293-24.2-68.129-59.164-77.84zM213.586 424.648c37.117 0 67.434-29.609 68.613-66.445l-8.02-2.226H152.997l-8.023 2.226c1.183 36.836 31.496 66.445 68.613 66.445zm0 0" fill="#f27d27"/><path d="M249.941 321.64v34.337c0 20.078-16.277 36.355-36.355 36.355-20.078 0-36.356-16.277-36.356-36.355V321.64zm0 0" fill="#f9b3a7"/><path d="M256 7.574c-33.41 0-60.59 27.18-60.59 60.59 0 13.367-10.875 24.238-24.238 24.238s-24.238-10.87-24.238-24.238h-36.356c0 33.41 27.184 60.594 60.594 60.594s60.594-27.18 60.594-60.594c0-13.363 10.87-24.234 24.234-24.234s24.238 10.87 24.238 24.234h36.356c0-33.41-27.184-60.59-60.594-60.59zm0 0" fill="#8db0ff"/><path d="M308.516 160.063h26.254v33.324h-26.254zM92.402 160.063h26.258v33.324H92.402zm0 0" fill="#ffd664"/><path d="M103.512 247.922h20.199v-54.535h-20.2c-11.156 0-20.195 9.043-20.195 20.199v14.137c0 11.156 9.04 20.199 20.196 20.199zm0 0" fill="#feccc1"/><path d="M323.66 247.922h-20.195v-54.535h20.195c11.156 0 20.2 9.043 20.2 20.199v14.137c0 11.156-9.044 20.199-20.2 20.199zm0 0" fill="#f9b3a7"/><path d="M213.586 160.063H118.66v72.71c0 52.426 42.5 94.926 94.926 94.926 52.43 0 94.93-42.5 94.93-94.926v-72.71zm0 0" fill="#feccc1"/><path d="M280.238 160.063v72.71c0 47.622-35.066 87.051-80.789 93.88a95.846 95.846 0 0 0 14.137 1.046c52.43 0 94.93-42.5 94.93-94.926v-72.71zm0 0" fill="#f9b3a7"/><path d="M256 7.574c-2.39 0-4.746.156-7.066.426 30.09 3.516 53.52 29.148 53.52 60.164h14.14c0-33.41-27.184-60.59-60.594-60.59zm0 0" fill="#669af7"/><path d="m362.46 372.645-86.25-23.965a7.626 7.626 0 0 0-2.03-.278h-16.664v-23.03c27.98-13.329 49.007-38.97 56.03-69.876h10.114c15.313 0 27.774-12.457 27.774-27.77v-14.14c0-8.125-3.508-15.445-9.09-20.527v-32.993a7.574 7.574 0 0 0-7.574-7.574H176.71a7.574 7.574 0 0 0-7.573 7.574c0 4.18 3.39 7.575 7.574 7.575h124.23v65.132c0 48.168-39.187 87.356-87.355 87.356-48.164 0-87.352-39.188-87.352-87.356v-65.132h15.149a7.576 7.576 0 0 0 7.574-7.575 7.574 7.574 0 0 0-7.574-7.574h-48.98a7.576 7.576 0 0 0-7.575 7.574v32.993c-5.578 5.082-9.086 12.402-9.086 20.527v14.14c0 15.313 12.457 27.77 27.77 27.77h10.117c7.02 30.906 28.047 56.547 56.027 69.875v23.031h-16.66c-.687 0-1.371.094-2.031.278l-86.25 23.965C26.613 383.219 0 418.227 0 457.78v1.832a7.574 7.574 0 0 0 7.574 7.574 7.574 7.574 0 0 0 7.574-7.574v-1.832c0-32.773 22.047-61.781 53.622-70.543l69.546-19.32c2.551 16.203 10.239 31.133 22.211 42.758 14.313 13.894 33.153 21.547 53.059 21.547s38.75-7.653 53.059-21.547c11.972-11.63 19.66-26.555 22.21-42.758l69.551 19.32c31.57 8.762 53.617 37.77 53.617 70.543v1.832c0 4.184 3.391 7.574 7.575 7.574s7.574-3.39 7.574-7.574v-1.832c0-39.554-26.613-74.566-64.711-85.136zm-26.175-144.922c0 6.96-5.664 12.625-12.625 12.625h-7.851c.183-2.5.28-5.028.28-7.575v-31.812h7.571c6.961 0 12.625 5.664 12.625 12.625zm-9.09-41.676a27.792 27.792 0 0 0-3.535-.235h-7.574v-18.175h11.11zm-227.218-18.41h11.109v18.18h-7.574c-1.2 0-2.375.081-3.535.23zm3.535 72.71c-6.961 0-12.621-5.663-12.621-12.624v-14.137c0-6.961 5.66-12.621 12.62-12.621h7.575v31.808c0 2.547.098 5.075.281 7.575zm110.074 94.926c9.988 0 19.648-1.441 28.781-4.117v24.82c0 15.872-12.91 28.782-28.781 28.782-15.867 0-28.781-12.91-28.781-28.781v-24.82a102.249 102.249 0 0 0 28.78 4.116zm60.578 28.563c-3.832 30.289-29.394 53.238-60.578 53.238-31.18 0-56.746-22.949-60.574-53.238l1.02-.285h16.292c3.602 20.625 21.625 36.355 43.262 36.355 21.64 0 39.66-15.73 43.262-36.355h16.297zm0 0"/><path d="M419.598 487.512a7.574 7.574 0 0 0-7.575 7.574v1.766h-65.64v-29.79a7.574 7.574 0 0 0-7.574-7.574 7.576 7.576 0 0 0-7.575 7.575v29.789H95.938v-29.79a7.574 7.574 0 0 0-7.575-7.574 7.574 7.574 0 0 0-7.574 7.575v29.789H15.15v-1.766a7.574 7.574 0 0 0-7.575-7.574A7.574 7.574 0 0 0 0 495.086v9.34A7.574 7.574 0 0 0 7.574 512h412.024a7.574 7.574 0 0 0 7.574-7.574v-9.34a7.574 7.574 0 0 0-7.574-7.574zM171.172 136.332c16.016 0 30.75-5.566 42.398-14.848 12.035 9.618 26.868 14.848 42.434 14.848 37.586 0 68.164-30.578 68.164-68.168C324.168 30.578 293.59 0 256 0c-16.016 0-30.75 5.566-42.398 14.852C201.566 5.234 186.746 0 171.172 0c-37.586 0-68.164 30.578-68.164 68.164 0 37.59 30.578 68.168 68.164 68.168zm0-121.184c11.52 0 22.508 3.692 31.613 10.493a68.161 68.161 0 0 0-10.625 18.648c-5.605-4.934-12.95-7.934-20.988-7.934-17.54 0-31.809 14.27-31.809 31.81 0 17.542 14.27 31.812 31.809 31.812 17.543 0 31.812-14.27 31.812-31.813 0-29.23 23.786-53.016 53.02-53.016 29.23 0 53.016 23.786 53.016 53.016 0 29.234-23.786 53.02-53.016 53.02-11.512 0-22.508-3.692-31.613-10.493a68.183 68.183 0 0 0 10.625-18.652c5.605 4.938 12.949 7.938 20.988 7.938 17.539 0 31.809-14.27 31.809-31.813 0-17.539-14.27-31.809-31.81-31.809-17.542 0-31.812 14.27-31.812 31.81 0 29.233-23.785 53.019-53.02 53.019s-53.015-23.786-53.015-53.02c0-29.23 23.782-53.016 53.016-53.016zm16.664 53.016c0 9.191-7.477 16.664-16.664 16.664s-16.66-7.473-16.66-16.664c0-9.187 7.472-16.66 16.66-16.66s16.664 7.473 16.664 16.66zm51.504 0c0-9.187 7.472-16.66 16.66-16.66s16.664 7.473 16.664 16.66c0 9.191-7.476 16.664-16.664 16.664s-16.66-7.473-16.66-16.664zm0 0"/></svg>