<svg height="512" width="512" xmlns="http://www.w3.org/2000/svg"><path d="M289.688 376.606 256 338.756l-33.687 37.85-29.785-35.109L228.703 504.5h54.595l36.175-163.003z" fill="#dfdde2"/><path d="M194.702 304.965 256 338.756l-33.687 37.85-44.928-52.958 11.457-17.247a4.455 4.455 0 0 1 5.86-1.436zM317.299 304.965 256 338.756l33.687 37.85 44.928-52.958-11.457-17.247a4.454 4.454 0 0 0-5.859-1.436z" fill="#f1f1f4"/><path d="M271.679 389.362h-31.357L228.703 504.5h54.595z" fill="#dd636e"/><path d="m230.721 484.5-2.018 20h54.595l-2.018-20z" fill="#da4a54"/><path d="m256 338.756-22.133 24.868 2.879 22.589a3.603 3.603 0 0 0 3.575 3.148h31.357a3.604 3.604 0 0 0 3.575-3.148l2.879-22.589z" fill="#e28086"/><path d="m177.385 323.648 8.381-12.617H108.37c-33.411 0-60.497 27.085-60.497 60.497V504.5h180.83l-36.175-163.003z" fill="#e2bcaf"/><path d="M47.873 484.5v20h180.83l-4.439-20z" fill="#d8a595"/><path d="m182.225 329.353-46.477 35.933 36.64 36.64-25.488 25.487 54.838 77.087h26.965l-36.175-163.003z" fill="#f1ddd5"/><path d="M224.264 484.5H187.51l14.228 20h26.965z" fill="#e7c6bc"/><path d="m334.615 323.648-8.381-12.617h77.397c33.411 0 60.497 27.085 60.497 60.497V504.5h-180.83l36.175-163.003z" fill="#e2bcaf"/><path d="M408.767 311.247c9.553 10.697 15.36 24.811 15.36 40.281v101.287c0 17.499-14.186 31.685-31.685 31.685H287.737l-4.438 20h180.83V371.529c-.001-31.682-24.354-57.675-55.362-60.282z" fill="#d8a595"/><path d="m329.776 329.353 46.477 35.933-36.64 36.64 25.487 25.487-54.837 77.087h-26.965l36.175-163.003z" fill="#f1ddd5"/><path d="m287.737 484.5-4.439 20h26.965l14.228-20z" fill="#e7c6bc"/><path d="m379.13 137.299-123.129 13-123.129-13c-9.693-1.023-17.05-9.198-17.05-18.945v-6.319h280.36v6.319c-.002 9.747-7.359 17.922-17.052 18.945zM339.609 41.6c-3.877-19.809-21.236-34.1-41.42-34.1h-15.142c-4.401 0-8.686 1.748-11.616 5.031-4.009 4.492-9.445 7.251-15.432 7.251s-11.423-2.759-15.431-7.251c-2.93-3.283-7.215-5.031-11.616-5.031H213.81c-20.184 0-37.544 14.291-41.42 34.1l-8.892 45.435h185.003z" fill="#e2bcaf"/><path d="m163.499 87.035-4.893 25h194.789l-4.893-25z" fill="#e28086"/><path d="M348.502 87.035h-44.641a18.032 18.032 0 0 1-12.511 5H162.521l-3.914 20h194.788z" fill="#dd636e"/><path d="m299.609 21.6 9.551 48.801c1.252 6.398-1.006 12.54-5.299 16.634h44.641L339.609 41.6c-3.877-19.809-21.236-34.1-41.42-34.1h-4.103a42.097 42.097 0 0 1 5.523 14.1z" fill="#d8a595"/><path d="M47.873 512h416.255a7.5 7.5 0 0 0 7.5-7.5v-66.794c0-4.142-3.357-7.5-7.5-7.5s-7.5 3.358-7.5 7.5V497H398.86v-87.128c0-4.142-3.357-7.5-7.5-7.5s-7.5 3.358-7.5 7.5V497h-59.057l46.409-65.239a7.501 7.501 0 0 0-.808-9.651l-20.185-20.184 31.337-31.336c3.196-3.194 2.858-8.474-.716-11.237l-40.276-31.138a7.498 7.498 0 0 0 .298-8.716l-.642-.967h63.411c29.222 0 52.996 23.774 52.996 52.997v31.178c0 4.142 3.357 7.5 7.5 7.5s7.5-3.358 7.5-7.5v-31.178c0-37.494-30.503-67.997-67.996-67.997h-73.375l-.85-1.28c-3.414-5.14-10.32-6.835-15.728-3.854L256 330.192l-57.678-31.795c-5.406-2.979-12.313-1.286-15.728 3.854l-.85 1.28H108.37c-37.494 0-67.997 30.503-67.997 67.997V504.5a7.5 7.5 0 0 0 7.5 7.5zm157.734-15-48.919-68.768 21.004-21.003a7.502 7.502 0 0 0 0-10.606l-30.616-30.615 34.067-26.338 4.465 5.263 9.291 41.867a7.5 7.5 0 0 0 14.644-3.25l-3.126-14.088 10.177 11.996c2.945 3.472 8.289 3.542 11.321.134l.596-.67.795 6.24a11.06 11.06 0 0 0 3.06 6.331l-6.445 63.861-8.676-39.093a7.5 7.5 0 0 0-14.644 3.25L219.356 497zm78.478-115.407c3.055 3.433 8.398 3.313 11.321-.134l10.177-11.996-19.505 87.892-6.444-63.859a11.058 11.058 0 0 0 3.059-6.332l.796-6.24zm-15.837.269h-24.495l-2.014-15.8L256 350.038l14.262 16.024zM236.998 497l10.105-100.138h17.795L275.003 497zm97.311-100.377a7.502 7.502 0 0 0 0 10.606l21.004 21.003L306.394 497h-13.749l33.748-152.067 4.465-5.263 34.067 26.338zm-15.846-83.735 6.783 10.211-35.694 42.074-21.703-24.385zm-74.311 27.9-21.703 24.384-35.694-42.074 6.783-10.211zm-188.779 30.74c0-29.222 23.774-52.997 52.997-52.997h63.411l-.642.967a7.5 7.5 0 0 0 .298 8.716l-40.276 31.138c-3.574 2.763-3.911 8.044-.716 11.237l31.337 31.336-20.185 20.184a7.5 7.5 0 0 0-.808 9.651L187.198 497h-59.057v-87.128c0-4.142-3.357-7.5-7.5-7.5s-7.5 3.358-7.5 7.5V497H55.373zM403.68 118.354v-6.319a7.5 7.5 0 0 0-7.5-7.5h-36.611L346.97 40.159C342.416 16.889 321.9 0 298.189 0h-15.142c-6.664 0-12.938 2.748-17.211 7.537-5.65 6.331-14.033 6.318-19.672 0C241.889 2.747 235.617 0 228.954 0h-15.143c-23.711 0-44.226 16.889-48.78 40.159l-12.599 64.376h-36.611a7.5 7.5 0 0 0-7.5 7.5v6.319a26.496 26.496 0 0 0 23.763 26.404l123.13 13c1.117.119 1.458.012 6.882-.56v30.348a6.101 6.101 0 0 1-6.095 6.094c-4.143 0-7.5 3.358-7.5 7.5s3.357 7.5 7.5 7.5c11.632 0 21.095-9.463 21.095-21.094v-31.932l102.821-10.856a26.496 26.496 0 0 0 23.763-26.404zm-235.964-13.819 1.957-10h12.854c4.143 0 7.5-3.358 7.5-7.5s-3.357-7.5-7.5-7.5h-9.918l7.142-36.495c3.18-16.248 17.504-28.04 34.06-28.04h15.143c2.394 0 4.588.92 6.02 2.525 11.62 13.017 30.432 13.02 42.056-.001 1.431-1.604 3.625-2.524 6.019-2.524h15.142c16.556 0 30.881 11.792 34.061 28.04l7.142 36.495H217.53c-4.143 0-7.5 3.358-7.5 7.5s3.357 7.5 7.5 7.5h124.8l1.957 10zM256 142.758l-122.343-12.917a11.525 11.525 0 0 1-10.277-10.306h265.24a11.525 11.525 0 0 1-10.278 10.306L256 142.758zM256 248.162c-12.689 0-21.655-2.202-27.53-4.476-4.801-1.858-6.321-7.901-2.994-11.829 2.045-2.414 5.396-3.316 8.346-2.174 4.16 1.609 11.327 3.479 22.178 3.479 10.87 0 18.06-1.891 22.245-3.526 2.982-1.165 6.377-.234 8.419 2.231l.013.016c3.261 3.937 1.717 9.91-3.047 11.765-5.873 2.287-14.868 4.514-27.63 4.514z"/></svg>