<svg height="512pt" viewBox="0 0 512 512" width="512pt" xmlns="http://www.w3.org/2000/svg"><path d="M362.89 114.39v105.524c-26.214 26.211-40.91 40.91-67.124 67.121h-79.532c-26.214-26.21-40.91-40.906-67.125-67.12V114.39C149.11 55.355 196.97 7.5 256 7.5c59.035 0 106.89 47.855 106.89 106.89zm0 0" fill="#787680"/><path d="M304.77 192.547h-37.54v-54.215H286c16.23 0 29.434-13.227 29.434-29.484 0-16.262-13.204-29.489-29.434-29.489s-29.438 13.227-29.438 29.485h-37.539c0-36.996 30.047-67.094 66.977-67.094s66.977 30.098 66.977 67.094c0 30.472-20.383 56.265-48.207 64.414zM267.23 216.316h37.54v37.54h-37.54zm0 0" fill="#57565c"/><path d="m504.5 358.39-49.957-49.956H326.141V256.66l-30.375 30.375h-79.532L185.86 256.66v51.774H57.457C37.945 327.94 27.007 338.883 7.5 358.39V504.5h497zm0 0" fill="#787680"/><path d="M274.77 192.547h-37.54v-54.215H256c16.23 0 29.434-13.227 29.434-29.484 0-16.262-13.204-29.489-29.434-29.489s-29.438 13.227-29.438 29.485h-37.539c0-36.996 30.047-67.094 66.977-67.094s66.977 30.098 66.977 67.094c0 30.472-20.383 56.265-48.207 64.414zM237.23 216.316h37.54v37.54h-37.54zm0 0" fill="#fff"/><g fill="#57565c"><path d="M179.11 114.39c0-53.945 39.96-98.554 91.89-105.847A107.88 107.88 0 0 0 256 7.5c-59.031 0-106.887 47.855-106.887 106.89v105.52l67.121 67.125h30l-67.12-67.125V114.39zM87.457 308.434h-30C37.945 327.94 27.007 338.883 7.5 358.39V504.5h30V358.39c19.508-19.507 30.445-30.449 49.957-49.956zm0 0"/><path d="m215.86 286.66-30-30v51.774h30zm0 0"/></g><path d="M271 43.445a66.857 66.857 0 0 0-15-1.695c-36.93 0-66.977 30.098-66.977 67.094h30c0-31.832 22.243-58.555 51.977-65.399zM237.23 138.332v54.215h30v-55.09c-1.222.469-4.28.875-11.23.875zM237.23 216.316h20v37.54h-20zm0 0" fill="#d1e7f8"/><path d="M457.648 300.934h-49.503v15h43.293L497 361.496V497h-71.598v-82.266h-15V497H101.598v-82.266h-15V497H15v-35.145H0V512h512V355.281zm0 0"/><path d="m15 361.496 45.563-45.562h132.796V274.77l19.77 19.765h85.742l19.77-19.77v41.169h69.504v-15H333.64v-41.168l36.75-36.746V114.39C370.39 51.317 319.074 0 256 0S141.61 51.316 141.61 114.39v29.755h15V114.39C156.61 59.586 201.194 15 256 15s99.39 44.586 99.39 99.39v102.415l-62.73 62.73h-73.316l-62.73-62.73v-52.66h-15v58.875l36.745 36.75v41.164H54.352L0 355.285v86.57h15zm0 0"/><path d="M282.27 178.648c28.648-10.863 48.207-38.793 48.207-69.804 0-41.133-33.41-74.594-74.477-74.594s-74.477 33.46-74.477 74.594v7.5h52.54v-7.5c0-12.125 9.84-21.989 21.937-21.989s21.937 9.864 21.937 21.989-9.84 21.988-21.937 21.988h-26.27v69.215h52.54zm-15-11.007v17.406h-22.54v-39.215H256c20.367 0 36.937-16.594 36.937-36.988S276.368 71.855 256 71.855c-17.8 0-32.7 12.68-36.172 29.489h-22.836C200.684 72.012 225.738 49.25 256 49.25c32.797 0 59.477 26.734 59.477 59.594 0 26.304-17.606 49.832-42.813 57.219zM229.73 261.355h52.54v-52.539h-52.54zm15-37.539h22.54v22.54h-22.54zm0 0"/><path d="m316.953 241.102-10.605-10.61 24.043-24.043v-9.18h15v15.395zm28.438-53.832h-15v-15h15zm0-25h-15v-15h15zM483.828 476.328h-15v-45h15zm0-55h-15v-15h15zm0-25h-15v-15h15zm0 0" fill="#fff"/></svg>