<svg xmlns="http://www.w3.org/2000/svg" viewBox="0 0 512.002 512.002" style="enable-background:new 0 0 512.002 512.002" xml:space="preserve"><path style="fill:#fcea81" d="M18.289 209.422c-6.588 14.614-10.262 30.825-10.262 47.898 0 46.533 27.238 86.697 66.636 105.439a21.926 21.926 0 0 0 18.832 0c39.398-18.742 66.636-58.906 66.636-105.439 0-17.072-3.674-33.284-10.262-47.898H18.289z"/><path style="fill:#e0b394" d="M152.306 236.784c-13.579-.602-24.387-11.805-24.387-25.526 0-14.105 11.433-25.548 25.548-25.548 1.27 0 2.519.088 3.745.274M383.171 236.784c13.579-.602 24.398-11.805 24.398-25.526 0-14.105-11.444-25.548-25.559-25.548-1.27 0-2.53.099-3.745.274"/><path style="fill:#e6e6e6" d="M319.392 329.339H216.115c-37.404 0-67.726 30.322-67.726 67.726v99.412h238.728v-99.412c.001-37.404-30.322-67.726-67.725-67.726z"/><path style="fill:#ccc" d="M257.845 329.339h-41.729c-37.404 0-67.726 30.322-67.726 67.726v99.413h41.729v-99.413c-.001-37.404 30.322-67.726 67.726-67.726z"/><path style="fill:#f7cba4" d="m230.791 347.205-44.952-32.66a82.882 82.882 0 0 1-33.781-75.025l7.797-80.683c5.37-55.57 52.068-97.973 107.896-97.973s102.526 42.403 107.896 97.973l7.797 80.683a82.88 82.88 0 0 1-33.781 75.025l-44.952 32.66c-22.04 16.013-51.882 16.013-73.92 0z"/><path style="fill:#e0b394" d="M180.031 255.421a50.031 50.031 0 0 0 11.641 35.152l46.982 57.733c2.453 2.924 5.234 5.377 8.246 7.337a62.477 62.477 0 0 1-16.109-8.443l-44.953-32.655a82.875 82.875 0 0 1-33.772-75.024l7.786-80.686c5.322-55.028 51.162-97.145 106.278-97.944-33.948.821-72.388 32.82-74.392 66.899l-11.707 127.631z"/><path style="fill:#f9c573" d="M389.306 196.665c-59.134-96.367-90.892-50.374-122.649-50.374a78.981 78.981 0 0 1-20.204-2.606c-28.79-7.578-44.406-29.151-44.406-29.151 0 28.472-44.811 71.399-44.811 71.399-52.476-122.43 57.799-138.265 57.799-138.265 8.662-19.766 35.919-34.451 69.034-33.159 11.893.449 24.53 2.957 37.342 8.038 116.079 45.993 67.895 174.118 67.895 174.118z"/><path style="fill:#e2af66" d="M246.453 143.684c-28.79-7.578-44.406-29.151-44.406-29.151 0 28.472-44.811 71.399-44.811 71.399C104.76 63.503 215.035 47.668 215.035 47.668c8.662-19.766 35.919-34.451 69.034-33.159-1.774.69-71.991 28.746-37.616 129.175z"/><path style="fill:#64b4d8" d="m267.744 401.709-47.97 27.695v-55.391zM267.744 401.709l47.971 27.695v-55.391z"/><path style="fill:#f95428" d="M364.729 334.262c-6.447 14.301-10.042 30.163-10.042 46.869 0 45.533 26.653 84.834 65.204 103.173a21.448 21.448 0 0 0 18.427 0c38.551-18.339 65.204-57.64 65.204-103.173 0-16.705-3.595-32.569-10.042-46.869H364.729z"/><path d="M292.486 282.162c-6.462 6.462-15.054 10.022-24.194 10.022-9.141 0-17.732-3.559-24.195-10.022a8.213 8.213 0 1 0-11.616 11.616c9.566 9.566 22.283 14.833 35.81 14.833 13.528 0 26.244-5.268 35.809-14.833a8.215 8.215 0 0 0 0-11.616 8.21 8.21 0 0 0-11.614 0zM268.292 264.707c11.473 0 20.807-9.333 20.807-20.807v-38.875a8.212 8.212 0 0 0-8.213-8.213 8.212 8.212 0 0 0-8.213 8.213V243.9c0 2.416-1.965 4.38-4.38 4.38s-4.38-1.965-4.38-4.38v-38.875c0-4.536-3.676-8.213-8.213-8.213s-8.213 3.677-8.213 8.213V243.9c-.002 11.474 9.333 20.807 20.805 20.807zM173.904 334.738c-20.782 12.618-33.19 34.646-33.19 58.927v38.606a8.212 8.212 0 0 0 8.213 8.213 8.212 8.212 0 0 0 8.213-8.213v-38.606c0-18.493 9.454-35.273 25.289-44.886a8.213 8.213 0 0 0-8.525-14.041zM387.656 488.817H157.141v-29.169a8.212 8.212 0 0 0-8.213-8.213 8.212 8.212 0 0 0-8.213 8.213v37.382a8.212 8.212 0 0 0 8.213 8.213h238.728c4.537 0 8.213-3.677 8.213-8.213s-3.676-8.213-8.213-8.213z"/><path d="M144.104 244.098c-1.295 30.309 12.766 59.709 37.453 77.639l44.954 32.666c12.495 9.079 27.135 13.62 41.782 13.618 14.643-.001 29.292-4.54 41.793-13.618l44.953-32.666c24.681-17.934 38.738-47.337 37.442-77.642a33.696 33.696 0 0 0 23.851-32.29c0-11.296-5.584-21.306-14.13-27.437 3.318-13.51 6.936-34.399 5.429-57.506-2.403-36.836-18.691-86.067-82.648-111.408-24.013-9.514-49.65-11.287-72.191-4.991-19.623 5.481-34.934 16.448-42.739 30.44-12.213 2.667-46.659 12.751-64.287 44.145-13.903 24.763-13.823 56.341.188 93.976-14.735 3.625-25.7 16.943-25.7 32.781a33.694 33.694 0 0 0 23.85 32.293zm201.278 64.351-44.951 32.665c-19.225 13.961-45.052 13.963-64.264.001l-44.956-32.667c-21.307-15.475-32.967-41.373-30.434-67.588l4.844-50.125c8.13-6.75 30.598-27.571 41.189-59.26 11.505 10.252 31.929 23.574 60.393 23.574 8.739 0 17.081-2.812 25.146-5.531 12.218-4.119 23.76-8.009 37.259-3.249 12.88 4.54 26.243 16.427 40.551 36.128l5.647 58.465c2.535 26.211-9.122 52.109-30.424 67.587zm45.586-81.474-2.088-21.617c.32.038.644.062.97.062a8.2 8.2 0 0 0 6.818-3.663 17.217 17.217 0 0 1 3.237 10.047 17.296 17.296 0 0 1-8.937 15.171zM257.211 26.284c19.104-5.336 41.025-3.758 61.721 4.442 44.768 17.738 69.084 50.276 72.273 96.71 1.346 19.577-1.481 37.734-4.319 50.174-17.661-25.421-34.703-40.802-51.815-46.834a53.82 53.82 0 0 0-18.083-3.101c-11.265 0-21.275 3.374-29.886 6.277-7.125 2.402-13.853 4.671-19.899 4.671-31.384 0-50.846-19.889-56.366-26.385.632-33.125 12.037-60.19 12.278-60.754 4.915-11.191 17.657-20.609 34.096-25.2zm-97.185 66.917c10.599-18.972 29.63-28.549 42.705-33.112-3.792 12.657-8.227 32.122-8.341 54.129-5.337 27.692-22.796 48.234-33.287 58.436-12.004-32.539-12.374-59.231-1.077-79.453zm-11.35 102.12-3.06 31.659a17.299 17.299 0 0 1-8.937-15.175c.001-7.695 5.044-14.227 11.997-16.484z"/><path d="M316.263 438.165a8.214 8.214 0 0 0 8.214-8.214V374.56a8.214 8.214 0 0 0-12.32-7.113l-43.865 25.325-43.863-25.325a8.214 8.214 0 0 0-12.32 7.113v55.391a8.214 8.214 0 0 0 12.321 7.113l43.863-25.325 43.865 25.325a8.194 8.194 0 0 0 4.105 1.101zm-87.728-22.439v-26.94l23.331 13.471-23.331 13.469zm79.515 0-23.332-13.471 23.332-13.471v26.942zM219.542 208.858a8.212 8.212 0 0 0-8.213 8.213v13.137a8.212 8.212 0 0 0 8.213 8.213 8.212 8.212 0 0 0 8.213-8.213v-13.137a8.213 8.213 0 0 0-8.213-8.213zM317.043 169.324c-9.287 0-18.018 3.616-24.586 10.183a8.214 8.214 0 0 0 11.615 11.616 18.218 18.218 0 0 1 12.97-5.372c4.899 0 9.506 1.908 12.971 5.372 1.603 1.603 3.706 2.406 5.807 2.406s4.204-.802 5.808-2.406a8.214 8.214 0 0 0-.001-11.616c-6.566-6.567-15.298-10.183-24.584-10.183zM232.513 191.122a8.19 8.19 0 0 0 5.807 2.406 8.19 8.19 0 0 0 5.808-2.406 8.212 8.212 0 0 0-.001-11.616c-13.556-13.555-35.613-13.555-49.169 0a8.212 8.212 0 0 0-.001 11.616c3.208 3.206 8.408 3.207 11.614 0 7.153-7.152 18.79-7.152 25.942 0zM317.043 208.858a8.212 8.212 0 0 0-8.213 8.213v13.137c0 4.536 3.676 8.213 8.213 8.213s8.213-3.677 8.213-8.213v-13.137a8.214 8.214 0 0 0-8.213-8.213zM85.309 324.085c12.967 0 25.938-4.938 35.809-14.809a8.212 8.212 0 0 0 .001-11.616c-3.209-3.206-8.409-3.207-11.614 0-13.344 13.341-35.051 13.34-48.389 0A8.215 8.215 0 0 0 49.5 309.276c9.873 9.873 22.839 14.809 35.809 14.809z"/><path d="M148.057 315.631c-3.81-2.457-8.892-1.36-11.353 2.453a110.381 110.381 0 0 1-45.378 39.912 13.951 13.951 0 0 1-12.034 0c-38.19-18.168-62.866-57.213-62.866-99.471 0-13.968 2.565-27.514 7.632-40.343h78.302c4.537 0 8.213-3.677 8.213-8.213s-3.676-8.213-8.213-8.213H18.615a8.213 8.213 0 0 0-7.487 4.838C3.744 222.974 0 240.446 0 258.526c0 24.382 6.954 48.054 20.108 68.459a126.81 126.81 0 0 0 52.128 45.846 30.406 30.406 0 0 0 13.073 2.964c4.459 0 8.919-.988 13.073-2.964a126.812 126.812 0 0 0 52.129-45.846 8.213 8.213 0 0 0-2.454-11.354z"/><path d="M75.453 265.819a8.212 8.212 0 0 0-8.213-8.213H43.148c-4.537 0-8.213 3.677-8.213 8.213s3.676 8.213 8.213 8.213H67.24a8.212 8.212 0 0 0 8.213-8.213zM135.683 265.819a8.212 8.212 0 0 0-8.213-8.213h-24.092c-4.537 0-8.213 3.677-8.213 8.213s3.676 8.213 8.213 8.213h24.092a8.212 8.212 0 0 0 8.213-8.213zM406.501 441.817c12.764-12.766 33.54-12.765 46.304 0 1.604 1.604 3.707 2.406 5.808 2.406s4.204-.802 5.808-2.406a8.213 8.213 0 0 0 0-11.614c-19.173-19.172-50.364-19.171-69.537 0a8.214 8.214 0 0 0 11.617 11.614z"/><path d="M504.363 381.615a8.199 8.199 0 0 0-8.769 7.616c-2.673 37.996-25.761 71.794-60.255 88.202a13.184 13.184 0 0 1-11.371 0c-36.764-17.49-60.52-55.076-60.52-95.756 0-13.382 2.445-26.36 7.277-38.656H488.58a105.346 105.346 0 0 1 5.176 17.56 8.213 8.213 0 1 0 16.101-3.255 121.833 121.833 0 0 0-8.34-25.893 8.213 8.213 0 0 0-7.487-4.837H365.278a8.213 8.213 0 0 0-7.487 4.837c-7.144 15.847-10.768 32.752-10.768 50.245 0 23.59 6.728 46.494 19.456 66.235a122.691 122.691 0 0 0 50.434 44.355 29.63 29.63 0 0 0 12.742 2.889c4.345 0 8.693-.964 12.741-2.889 39.834-18.949 66.498-57.989 69.585-101.883a8.216 8.216 0 0 0-7.618-8.77z"/><path d="M420.426 388.718a8.212 8.212 0 0 0-8.213-8.213h-23.255c-4.537 0-8.213 3.677-8.213 8.213s3.676 8.213 8.213 8.213h23.255a8.213 8.213 0 0 0 8.213-8.213zM478.563 388.718a8.212 8.212 0 0 0-8.213-8.213h-23.254c-4.537 0-8.213 3.677-8.213 8.213s3.676 8.213 8.213 8.213h23.254a8.214 8.214 0 0 0 8.213-8.213zM89.156 104.826a8.19 8.19 0 0 0 5.808-2.406l14.494-14.494a8.213 8.213 0 1 0-11.616-11.614L83.348 90.804a8.213 8.213 0 0 0 0 11.614 8.182 8.182 0 0 0 5.808 2.408zM45.963 148.019a8.19 8.19 0 0 0 5.808-2.406l14.495-14.495a8.213 8.213 0 1 0-11.616-11.614l-14.495 14.494a8.213 8.213 0 0 0 0 11.614 8.183 8.183 0 0 0 5.808 2.407zM97.843 145.613c1.604 1.604 3.707 2.406 5.808 2.406s4.204-.802 5.808-2.406a8.213 8.213 0 0 0 0-11.614l-14.494-14.494a8.213 8.213 0 1 0-11.616 11.614l14.494 14.494zM54.649 102.42a8.19 8.19 0 0 0 5.808 2.406 8.213 8.213 0 0 0 5.808-14.02L51.77 76.31a8.213 8.213 0 1 0-11.616 11.614l14.495 14.496zM458.839 273.454a8.186 8.186 0 0 0 5.807-2.406l11.469-11.468a8.212 8.212 0 0 0 .001-11.616c-3.207-3.206-8.408-3.208-11.614 0l-11.469 11.468a8.212 8.212 0 0 0-.001 11.616 8.184 8.184 0 0 0 5.807 2.406zM424.665 307.628a8.186 8.186 0 0 0 5.807-2.406l11.469-11.468a8.212 8.212 0 0 0 .001-11.616c-3.207-3.206-8.408-3.208-11.614 0l-11.469 11.468a8.212 8.212 0 0 0-.001 11.616 8.182 8.182 0 0 0 5.807 2.406zM464.501 305.222c1.603 1.603 3.706 2.406 5.807 2.406s4.204-.802 5.808-2.406a8.214 8.214 0 0 0-.001-11.616l-11.469-11.468c-3.206-3.208-8.407-3.206-11.614 0a8.214 8.214 0 0 0 .001 11.616l11.468 11.468zM430.327 271.048c1.603 1.603 3.706 2.406 5.807 2.406s4.204-.802 5.808-2.406a8.214 8.214 0 0 0-.001-11.616l-11.469-11.468c-3.206-3.208-8.407-3.206-11.614 0a8.214 8.214 0 0 0 .001 11.616l11.468 11.468z"/><circle cx="268.295" cy="441.593" r="8.213"/><circle cx="268.295" cy="471.565" r="8.213"/></svg>