<svg height="512pt" viewBox="-30 0 512 512" width="512pt" xmlns="http://www.w3.org/2000/svg"><path d="M358.64 198.18a192.65 192.65 0 0 0 5.766-20.602c.13-.59-1.035-2.594-2.91-5.332-11.43-16.695-27.695-29.496-46.516-36.93l-51.109-20.187a102.176 102.176 0 0 0-75.203.055l-51.02 20.23c-18.8 7.457-35.039 20.277-46.445 36.977-1.875 2.746-3.043 4.754-2.91 5.347a193.071 193.071 0 0 0 6.7 23.2c26.273 73.37 89.109 108.968 89.109 108.968l84.644-.047s62.715-35.625 88.938-108.93c.324-.913.644-1.831.957-2.75zm0 0" fill="#1e3744"/><path d="m150.258 138.242-9.676.008a15.15 15.15 0 0 0-9.305 3.18c-4.468 3.457-6.425 9.27-5.414 14.828l3.813 20.922c2.96 15.504 20.633 8.406 20.633 8.406zm0 0" fill="#efd0af"/><path d="m303.21 138.156 9.677-.008c3.504 0 6.734 1.18 9.308 3.168 4.473 3.454 6.438 9.262 5.43 14.825l-3.79 20.922c-2.937 15.511-20.62 8.433-20.62 8.433zM257.11 349.84l33.062-31.094c5.726-5.383 2.902-14.984-4.82-16.414-8.985-1.8-15.454-12.219-15.461-21.383l-.024-40.836-43.527.028-43.531.023.023 40.836c.004 9.164-6.453 19.59-15.434 21.398-7.726 1.442-10.535 11.047-4.808 16.422l33.101 31.055c17.274 16.203 44.164 16.188 61.418-.035zm0 0" fill="#fae0c1"/><path d="M285.352 302.332c-8.989-1.8-15.457-12.219-15.461-21.383l-.024-40.832-34.39.02.02 40.812c.007 9.164 6.476 19.582 15.46 21.383 7.727 1.43 10.547 11.031 4.824 16.414l-33.066 31.094a44.672 44.672 0 0 1-13.531 8.758c15.863 6.582 34.718 3.66 47.921-8.758l33.067-31.094c5.726-5.379 2.902-14.984-4.82-16.414zm0 0" fill="#efd0af"/><path d="M280.316 51.188c-12.59-11.626-30.28-21.77-53.644-22.036-23.363.293-41.043 10.457-53.617 22.098-16.04 14.848-24.723 36.89-24.711 59.633l.004 2.746h.02l.046 79.27c.453 22.105 15.719 37.402 28.984 50.538 12.207 12.086 26.047 26.364 49.414 26.63 23.36-.294 37.188-14.583 49.38-26.688 13.25-13.152 28.5-28.465 28.93-50.57l-.048-79.27h.024l-.004-2.75c-.012-22.738-8.719-44.77-24.778-59.601zm0 0" fill="#fae0c1"/><path d="M305.074 113.54h.02v-2.747c-.016-22.742-8.723-44.773-24.778-59.606A91.167 91.167 0 0 0 270.086 43v70.54l-.02-53.306.043 132.575c-.43 22.105-15.68 37.421-28.93 50.574-8.796 8.73-18.44 18.597-31.902 23.531 5.215 1.91 11 3.078 17.532 3.156 23.363-.293 37.187-14.586 49.379-26.687 13.25-13.153 28.5-28.469 28.93-50.574zm0 0" fill="#efd0af"/><path d="m369.703 292.672-68.473-13.035c-14.558-2.774-29.73-.543-42.582 6.828-9.222 5.285-21.722 8.847-27.957 10.422-2.539.64-5.187.629-7.722-.032-6.196-1.613-18.61-5.238-27.946-10.507-12.96-7.313-28.015-10-42.613-7.11-27.379 5.422-63.14 12.5-63.14 12.5-9.395 1.86-12.875 4.125-15.192 7.41L12.605 404.422a37.547 37.547 0 0 0-1.828 34.308l24.813 55.274A15.65 15.65 0 0 0 50.37 504.5l353.047-.203a15.644 15.644 0 0 0 14.812-10.637l24.157-55.437a37.546 37.546 0 0 0-1.91-33.782l-60.868-105.355a15.638 15.638 0 0 0-9.906-6.414zm0 0" fill="#2a4d5e"/><path d="m418.23 493.66 24.157-55.437a37.546 37.546 0 0 0-1.91-33.782l-60.868-105.355a15.638 15.638 0 0 0-9.906-6.414l-68.473-13.035c-14.558-2.774-29.73-.547-42.582 6.824-5.777 3.312-12.843 5.95-18.847 7.844h-.004c1.808.191 86.078 19.3 86.078 19.3a15.65 15.65 0 0 1 9.906 6.418l60.867 95.352a37.534 37.534 0 0 1 1.91 33.781l-24.03 55.156 28.89-.015a15.644 15.644 0 0 0 14.812-10.637zm0 0" fill="#214451"/><path d="m390.496 494.684-327.117.183-18.926-174.316c-.613-5.645 3.805-10.567 9.477-10.57l345.804-.2c5.676-.004 10.098 4.918 9.493 10.563zm0 0" fill="#ededed"/><path d="m399.734 309.781-24.714.016-19.868 184.887h35.344l18.73-174.34c.606-5.645-3.816-10.567-9.492-10.563zm0 0" fill="#d6d6d6"/><path d="M405.184 504.5H48.707c-5.223.004-9.46-4.227-9.465-9.45l-.004-6.835c0-5.227 4.23-9.461 9.453-9.465l356.477-.203a9.46 9.46 0 0 1 9.46 9.453l.005 6.836c0 5.223-4.23 9.66-9.45 9.664zm0 0" fill="#d6d6d6"/><path d="M414.629 488a9.455 9.455 0 0 0-9.465-9.45l-25.676.013.008 25.75 25.684.187c5.222-.004 9.453-4.441 9.453-9.664zm0 0" fill="#bebebe"/><path d="M250.04 365.066c0 13.051-10.58 23.63-23.63 23.63-13.047 0-23.629-10.579-23.629-23.63 0-13.046 10.582-23.629 23.63-23.629 13.05 0 23.628 10.583 23.628 23.63zm0 0" fill="#8c4949"/><path d="M238.582 443.5a23.635 23.635 0 0 1-24.25.016 40.43 40.43 0 0 1-19.71-34.696l-.013-22.285c-.007-11.847 9.59-21.453 21.434-21.46l20.734-.012c11.848-.008 21.453 9.59 21.461 21.433l.012 22.29a40.429 40.429 0 0 1-19.668 34.714zm0 0" fill="#f43b45"/><path d="M364.086 178.992c.11-.469.215-.941.32-1.414v-.004c.024-.898.031-1.797.031-2.699-.035-62.977-75.195-166.95-138.234-167.375-63.035.496-138.078 104.555-138.039 167.535 0 .79.008 1.574.027 2.36.047.148.082.265.098.343.094.41.188.82.277 1.23 5.649-20.562 77.766-36.788 137.715-36.902 60.13.047 132.516 16.286 137.805 36.926zm0 0" fill="#2a4d5e"/><path d="M226.203 7.5c-5.996.047-12.098 1.031-18.238 2.828 52.152 15.254 106.773 89.074 117.879 145.262 21.047 6.336 35.949 14.457 38.242 23.402.11-.469.215-.937.32-1.414v-.004c.024-.894.031-1.797.031-2.695-.035-62.98-75.195-166.953-138.234-167.379zm0 0" fill="#1f3f47"/><path d="M244.973 387.754c7.242-.004 11.484-7.024 9.789-12.945-3.828-5.868-10.442-9.747-17.969-9.747l-20.766.012c-7.316.008-13.77 3.684-17.632 9.285-2.075 6.043 2.07 13.418 9.582 13.414zm0 0" fill="#cf3735"/><path d="M288.402 398.168a7.502 7.502 0 0 0-7.504-7.496l-15.152.012s-.008-4.864-.02-5.2c9.18-3.925 15.704-12.46 17.087-22.347l2.023-11.176a7.503 7.503 0 0 0-6.043-8.719c-4.07-.734-7.977 1.969-8.715 6.043 0 0-2.094 11.57-2.113 11.688a13.654 13.654 0 0 1-6.719 10.011 28.703 28.703 0 0 0-3.726-4.691s.027-.828.023-1.242c-.004-8.317-3.246-16.13-9.129-22.008-5.879-5.871-13.687-9.102-22.016-9.102-8.316.004-16.128 3.246-22.003 9.13-5.88 5.882-9.114 13.699-9.106 22.015 0 .418.027 1.258.027 1.258a29.053 29.053 0 0 0-3.695 4.695 13.65 13.65 0 0 1-6.758-10.016 8413.77 8413.77 0 0 0-2.125-11.687 7.5 7.5 0 0 0-8.722-6.031 7.498 7.498 0 0 0-6.032 8.726l2.04 11.172c1.39 9.887 7.925 18.414 17.109 22.324-.012.336-.016 5.2-.016 5.2l-15.152.011a7.497 7.497 0 0 0-7.496 7.504 7.502 7.502 0 0 0 7.504 7.496l15.152-.011s0 3.363.004 3.496c-9.172 3.93-15.688 12.457-17.07 22.34l-2.024 11.175c-.828 4.551 2.79 8.864 7.418 8.836 3.59-.015 6.684-2.652 7.34-6.16l2.055-11.336c.023-.117.039-.234.054-.351a13.664 13.664 0 0 1 5.028-8.86c3.703 10.348 10.91 19.328 20.562 25.09a31.113 31.113 0 0 0 15.957 4.406 31.111 31.111 0 0 0 15.989-4.426c9.644-5.773 16.84-14.761 20.535-25.113a13.672 13.672 0 0 1 5.035 8.852c.015.117.035.234.055.351 0 0 2.066 11.325 2.07 11.336.68 3.739 4.273 6.407 8.039 6.11 4.34-.34 7.492-4.54 6.715-8.801l-2.04-11.176c-1.39-9.879-7.917-18.398-17.093-22.32v-3.492l15.152-.012a7.5 7.5 0 0 0 7.496-7.504zm-42.527-20.633c-.3.797-1.07 1.469-1.96 1.469l-34.966.023c-.976 0-1.629-.468-1.937-1.394-.309-.942-.063-1.719.734-2.313a13.8 13.8 0 0 1 8.309-2.746l20.738-.011c3.121 0 6.066 1.003 8.523 2.902.008.004.016.012.024.015.012.008.02.016.031.028.676.531.77 1.328.504 2.027zm-19.469-28.597h.012c4.305 0 8.352 1.675 11.398 4.718a16.262 16.262 0 0 1 3.028 4.184 29.605 29.605 0 0 0-4.051-.277c-.004 0-.008-.004-.012 0l-20.734.011c-1.375 0-2.73.098-4.067.281a16.155 16.155 0 0 1 3.024-4.183 16.025 16.025 0 0 1 11.402-4.735zm-24.281 59.878-.008-16.171a17.338 17.338 0 0 0 6.832 1.378h.008l9.965-.003.035 43.488c-.262-.137.254.148 0 0-11.418-6.633-16.824-17.168-16.832-28.692zm31.832 28.688-.035-43.492 10-.008c2.422 0 4.73-.488 6.824-1.39l.012 16.171c.004 11.528-6.07 22.695-16.801 28.719zm0 0"/><path d="m446.977 400.688-15.922-27.56a7.496 7.496 0 0 0-10.246-2.741 7.499 7.499 0 0 0-2.743 10.246l15.922 27.558c4.75 8.223 5.32 18.329 1.528 27.036l-17.954 41.199c-.128-.14-3.566-5.188-12.394-5.375h-4.586l16.105-149.906a17.067 17.067 0 0 0-4.269-13.215 17.072 17.072 0 0 0-12.684-5.649l-160.68.094c6.993-2.062 16.012-5.21 23.329-9.406 11.055-6.34 24.351-8.461 37.445-5.965l48.02 9.14a7.5 7.5 0 0 0 8.77-5.964 7.495 7.495 0 0 0-5.966-8.77l-29.808-5.676c19.847-21.824 34.594-46.09 43.91-72.296 3.148-8.86 7.191-19.036 7.187-28.567-.02-32.027-18.062-74.86-47.093-111.777C293.48 23.207 257.547.21 226.262 0h-.11c-31.285.246-67.195 23.285-98.515 63.207-28.989 36.95-46.985 79.8-46.969 111.836.012 9.39 4.137 19.633 7.25 28.398 9.309 26.18 24.035 50.426 43.86 72.239l-28.262 5.593a7.498 7.498 0 0 0-5.899 8.813c.805 4.062 4.754 6.695 8.813 5.902l47.441-9.394c12.574-2.489 25.879-.258 37.473 6.281 7.48 4.223 16.601 7.422 23.574 9.512l-160.984.09a17.07 17.07 0 0 0-12.68 5.664A17.084 17.084 0 0 0 37 321.359l16.277 149.887-4.586.004c-7.941 0-12.386 5.387-12.578 5.598L17.625 435.66a30.104 30.104 0 0 1 1.465-27.457l16.715-28.629a7.498 7.498 0 0 0-2.696-10.258 7.498 7.498 0 0 0-10.257 2.696L6.137 400.637c-7.32 12.535-8.14 27.922-2.196 41.164l24.692 55.004a23.02 23.02 0 0 0 10.855 12.476A16.845 16.845 0 0 0 48.715 512H405.19c3.508-.004 6.856-1.266 9.672-3.234a23.062 23.062 0 0 0 10.364-12.371l24.043-55.176c5.683-13.051 4.828-28.203-2.293-40.532zM303.344 272.401s-10.348-2.902-25.95-.445l-.015-19.195c1.105-1.082 4.098-4.059 4.098-4.059 13.359-13.262 29.918-29.695 31.09-54.113 3.312-.102 6.87-.848 10.113-2.852 3.105-1.922 7.11-5.781 8.543-13.336l2.242-12.394c14.48 5.328 20.894 10.394 22.805 13.578-.786 3.285-2.582 10.195-5.653 18.832-9.61 27.035-25.508 51.91-47.273 73.984zM182.68 238.105c-12.344-12.222-26.332-26.078-26.762-45.289l-.023-36.445c22.359-4.281 47.578-6.762 70.386-6.805 23.145.016 48.735 2.536 71.32 6.899l.02 36.27c-.406 19.21-14.379 33.081-26.71 45.324 0 0-22.747 24.507-44.102 24.507-20.977 0-44.13-24.46-44.13-24.46zm-41.77-58.425c-2.164 0-3.535-2.2-3.851-3.848l-2.649-14.531c1.45-.395 5.82-1.516 6.488-1.676zm171.707-.102-.012-19.828c.438.11 4.801 1.23 6.446 1.684 0 0-2.574 14.203-2.578 14.234-.399 2.215-1.496 3.719-3.856 3.91zM226.215 15c53.066.41 119.129 84.297 129.367 144.727-8.992-5.32-21.676-10.067-37.988-14.192-27.063-6.844-61.196-10.945-91.32-10.969-30.004.059-64.04 4.176-91.047 11.012-16.422 4.156-29.184 8.938-38.211 14.293C107.199 99.414 173.156 15.473 226.215 15zm-77.05 257.234c-21.685-22.03-37.524-46.847-47.11-73.816-3.059-8.598-4.852-15.48-5.64-18.785 2.026-3.25 8.679-8.414 23.577-13.813l2.324 12.762c1.426 7.488 5.434 11.352 8.547 13.27 3.242 2 6.801 2.742 10.114 2.835 1.203 24.418 17.773 40.833 31.148 54.079 0 0 2.406 2.382 3.195 3.16l.012 19.61c-13.144-2.473-26.168.698-26.168.698zm41.167 3.536-.004-10.711c9.527 6.933 21.156 12.336 36.402 12.507h.176c14.762-.183 26.133-5.27 35.48-11.894l.005 10.601a66.55 66.55 0 0 0-7.47 3.684c-8.675 4.973-21.112 8.41-26.062 9.656a8.11 8.11 0 0 1-4-.015c-4.918-1.282-17.312-4.797-26.144-9.782a72.162 72.162 0 0 0-8.383-4.046zM51.91 319.738a2.009 2.009 0 0 1 .512-1.582 1.993 1.993 0 0 1 1.52-.676l345.804-.199c.75 0 1.238.367 1.516.676.277.309.593.836.511 1.582l-16.28 151.52-317.13.183zm353.274 177.059L48.704 497a1.966 1.966 0 0 1-1.954-1.953l-.004-6.836c0-1.035.875-1.957 1.953-1.957l356.48-.203c1.071 0 1.954.886 1.954 1.953l.004 6.836a1.957 1.957 0 0 1-1.953 1.957zm0 0"/></svg>