<svg height="512pt" viewBox="-98 0 512 512.001" width="512pt" xmlns="http://www.w3.org/2000/svg"><path d="M158.3 7.5c70.329 0 128.798 54.152 134.177 124.273l16.539 215.497c1.359 17.734-12.664 32.87-30.446 32.87H38.031c-17.785 0-31.808-15.136-30.445-32.87L24.12 131.773C29.504 61.653 87.973 7.5 158.301 7.5zm0 0" fill="#6e7093"/><path d="m309.016 347.27-16.54-215.497C287.099 61.653 228.63 7.5 158.302 7.5c-3.852 0-7.668.172-11.446.492 65.133 5.5 117.649 57.504 122.735 123.781l16.539 215.497c1.36 17.734-12.66 32.87-30.445 32.87h22.886c17.785 0 31.805-15.136 30.446-32.87zm0 0" fill="#4e5173"/><path d="M262.95 371.465c-1.884-.79-2.15-.828-63.895-23.95v-59.472h-81.508v59.473c-66.578 24.918-63.09 23.539-65.688 24.738-18.273 8.46-30.148 26.824-30.148 47.2v80.937a4.11 4.11 0 0 0 4.11 4.109h264.96a4.11 4.11 0 0 0 4.11-4.11v-80.937c0-20.754-12.407-39.824-31.942-47.988zm0 0" fill="#6e7093"/><path d="M262.95 371.465c-1.884-.79-2.15-.828-63.895-23.95v-59.472h-22.297v51.73c0 4.657 2.89 8.825 7.25 10.457 54.523 20.41 54.84 20.477 56.644 21.235 19.536 8.164 31.942 27.234 31.942 47.988v80.938a4.11 4.11 0 0 1-4.11 4.109h22.297a4.11 4.11 0 0 0 4.11-4.11v-80.937c0-20.754-12.407-39.824-31.942-47.988zm0 0" fill="#4e5173"/><path d="m261.098 370.73-62.043-23.214v-59.473h-81.508v59.473L55.5 370.73a51.908 51.908 0 0 0-7.113 3.293c19.488 41.133 61.375 69.586 109.914 69.586 48.535 0 90.426-28.453 109.91-69.586a51.694 51.694 0 0 0-7.113-3.293zm0 0" fill="#e6eff5"/><path d="M184.008 350.23c54.523 20.41 54.84 20.477 56.644 21.235a51.841 51.841 0 0 1 20.47 15.41 121.69 121.69 0 0 0 7.089-12.852 52.032 52.032 0 0 0-5.137-2.503c-.043-.02-.082-.04-.125-.055l-.027-.012a50.448 50.448 0 0 0-1.629-.644c-.215-.082-.469-.18-.762-.29l-20.039-7.5c-9.199-3.437-22.39-8.37-41.437-15.503v-59.473h-22.297v51.73c0 4.657 2.89 8.825 7.25 10.457zm0 0" fill="#c5d3d6"/><path d="M48.39 374.023a51.646 51.646 0 0 1 7.11-3.293l29.563-11.062c.671.133 1.347.25 2.011.398 5.188 1.141 11.375 4.098 11.211 9.407-.25 8.043-14.656 10.097-14.242 18.132.2 3.903 4.207 6.59 8.059 7.247 3.851.656 7.82-.055 11.703.394 9.8 1.14 17.64 10.027 19.234 19.762 1.234 7.527-.805 15.254-4.734 21.851-30.856-10.75-56.055-33.578-69.914-62.836zm0 0" fill="#ed6161"/><path d="M158.3 116.723c-60.327 0-109.234 16.632-109.234 84.597 0 67.965 48.907 123.063 109.235 123.063s109.234-55.098 109.234-123.063-48.906-84.597-109.234-84.597zm0 0" fill="#f9c295"/><path d="M208.809 122.238c22.722 12.211 37.058 33.953 37.058 70.75 0 67.965-48.906 123.063-109.234 123.063-8.34 0-16.461-1.059-24.266-3.051 13.965 7.3 29.524 11.383 45.934 11.383 60.328 0 109.234-55.098 109.234-123.063 0-47.433-23.824-69.86-58.726-79.082zm0 0" fill="#e59f6a"/><path d="M49.066 164.355v34.633c72.825-92.183 145.645-92.183 218.47 0v-34.633a42.661 42.661 0 0 0-10.513-28.062C191.207 61 125.395 61 59.578 136.293c-6.789 7.766-10.512 17.75-10.512 28.062zm0 0" fill="#e6eff5"/><path d="M257.023 136.293c-9.285-10.621-18.57-19.742-27.855-27.367a341.912 341.912 0 0 1 7.008 10.8c6.11 9.82 9.457 22.438 9.457 35.481v18.852c7.3 7.39 14.601 15.687 21.902 24.93v-34.634a42.661 42.661 0 0 0-10.512-28.062zm0 0" fill="#c5d3d6"/><path d="M194.3 433.59h-23V410.5h-26v23.09h-23v24.95h23v45.96h26v-45.96h23zm0 0" fill="#f9dc6a"/><path d="m316.488 346.695-16.531-215.5c-2.746-35.804-18.766-68.96-45.113-93.36C228.488 13.438 194.199 0 158.3 0 115.148 0 74.836 19.277 47.703 52.89a7.5 7.5 0 0 0 11.672 9.422C83.648 32.242 119.703 15 158.301 15c32.11 0 62.777 12.02 86.355 33.844 23.559 21.82 37.89 51.472 40.348 83.5l16.527 215.504c.5 6.465-1.652 12.644-6.058 17.406-4.168 4.504-9.762 7.094-15.844 7.363a59.852 59.852 0 0 0-13.805-8.086 58.25 58.25 0 0 0-.937-.375c-.383-.152-.766-.304-1.157-.449a10.855 10.855 0 0 0-.195-.07c-1.594-.602-4.523-1.7-10.605-3.973a64872.34 64872.34 0 0 1-46.38-17.351v-24.446c40.294-20.539 68.387-65.972 68.477-118.625.004-.086.008-.168.008-.254V164.36a50.12 50.12 0 0 0-12.367-33c-34.238-39.175-69.356-59.035-104.367-59.035s-70.13 19.86-104.367 59.031a50.115 50.115 0 0 0-12.368 33v34.633c0 .082.004.168.004.254.09 52.649 28.188 98.086 68.48 118.625v24.442c-14.093 5.273-24.784 9.27-32.929 12.316-26.281 9.828-26.281 9.828-28.144 10.695l-.27.125a60.575 60.575 0 0 0-3.86 1.961c-.081.047-.167.094-.25.145a58.99 58.99 0 0 0-7.577 5.066c-6.102-.258-11.711-2.851-15.891-7.363-4.406-4.762-6.559-10.942-6.059-17.41l16.528-215.5c1.203-15.692 5.222-30.793 11.945-44.895a7.506 7.506 0 0 0-3.543-10 7.504 7.504 0 0 0-10 3.543c-7.52 15.774-12.012 32.668-13.355 50.203L.113 346.691a38.129 38.129 0 0 0 10.004 28.75 38.09 38.09 0 0 0 14.887 9.887c-6.879 9.832-10.793 21.703-10.793 34.121v80.942c0 6.402 5.207 11.609 11.61 11.609h264.96c6.399 0 11.61-5.207 11.61-11.61v-34.167a7.5 7.5 0 0 0-7.5-7.5 7.497 7.497 0 0 0-7.5 7.5V497H252.1v-41.875a7.5 7.5 0 0 0-7.5-7.5 7.497 7.497 0 0 0-7.5 7.5V497h-58.3v-30.957h15.5c4.14 0 7.5-3.36 7.5-7.5v-14.961c29.336-10.496 54.008-31.434 69.215-58.645.203.165.402.329.601.497.262.261.543.507.84.726 9.348 8.293 14.934 20.3 14.934 33.29v16.76c0 4.142 3.359 7.5 7.5 7.5s7.5-3.358 7.5-7.5v-16.76c0-12.52-3.883-24.356-10.735-34.145a38.058 38.058 0 0 0 14.824-9.864c7.172-7.746 10.82-18.226 10.008-28.746zM56.566 164.355a35.1 35.1 0 0 1 8.66-23.125c31.266-35.77 62.579-53.906 93.075-53.906 30.492 0 61.808 18.137 93.074 53.906a35.12 35.12 0 0 1 8.66 23.125v14.075c-33.484-37.235-67.64-56.078-101.734-56.078-34.098 0-68.25 18.843-101.735 56.078zm.028 37.215c34.199-42.617 68.41-64.218 101.707-64.218s67.504 21.601 101.703 64.218c-1.211 62.535-46.367 112.98-101.703 112.98-55.336 0-100.492-50.445-101.707-112.98zM29.21 419.45c0-13.509 6.195-26.15 16.387-34.49 15.207 27.196 39.875 48.126 69.203 58.622v14.961c0 4.14 3.36 7.5 7.5 7.5h15.5V497H79.5v-41.875a7.5 7.5 0 0 0-7.5-7.5 7.497 7.497 0 0 0-7.5 7.5V497H29.21zm157.59 31.593h-15.5a7.5 7.5 0 0 0-7.5 7.5V497h-11v-38.457a7.5 7.5 0 0 0-7.5-7.5h-15.5v-9.953h15.5a7.5 7.5 0 0 0 7.5-7.5V418h11v15.59c0 4.14 3.36 7.5 7.5 7.5h15.5zm12.879-22.68a7.479 7.479 0 0 0-5.38-2.273h-15.5V410.5c0-4.14-3.359-7.5-7.5-7.5h-26c-4.14 0-7.5 3.36-7.5 7.5v15.59h-15.5c-2.109 0-4.015.87-5.378 2.273-24.656-9.601-45.34-27.629-58.27-50.793 3.07-1.172 9.438-3.554 23.723-8.894 1.059-.399 2.16-.809 3.309-1.239 2.437.567 4.027 1.403 4.785 1.97-.824.855-2.582 2.097-3.719 2.894-4.23 2.98-10.617 7.48-10.195 15.687.36 7.024 6.238 12.887 14.293 14.258 4.933.84 8.765.063 12.09.45 3.382.394 6.746 2.46 9.226 5.663a7.486 7.486 0 0 0 5.938 2.907 7.469 7.469 0 0 0 4.585-1.57 7.496 7.496 0 0 0 1.336-10.52c-5.007-6.469-11.882-10.512-19.351-11.38-2.297-.265-4.485-.218-6.414-.179-1.809.04-3.52.074-4.899-.16a4.711 4.711 0 0 1-1.257-.406c.875-.79 2.32-1.809 3.285-2.489 4.043-2.847 10.156-7.156 10.394-14.859.102-3.223-.875-6.191-2.773-8.746 5.133-1.922 10.836-4.055 17.172-6.426a7.5 7.5 0 0 0 4.87-7.023v-23.356c10.544 3.508 21.704 5.395 33.25 5.395s22.708-1.883 33.25-5.395v23.356a7.503 7.503 0 0 0 4.872 7.023c27.254 10.207 42.535 15.918 51.258 19.184a3402.2 3402.2 0 0 1 10.277 3.844c-12.934 23.171-33.621 41.203-58.277 50.804zm0 0"/><path d="M108.55 208.488c-4.14 0-7.5-3.36-7.5-7.5v-2c0-4.14 3.36-7.5 7.5-7.5s7.5 3.36 7.5 7.5v2c0 4.14-3.359 7.5-7.5 7.5zM208.05 208.488c-4.14 0-7.5-3.36-7.5-7.5v-2c0-4.14 3.36-7.5 7.5-7.5s7.5 3.36 7.5 7.5v2c0 4.14-3.359 7.5-7.5 7.5zM158.297 270.29c-12.879 0-25.32-5.388-34.133-14.786a7.5 7.5 0 0 1 10.938-10.262c6.078 6.48 14.316 10.047 23.195 10.047 8.883 0 17.121-3.566 23.2-10.047a7.504 7.504 0 0 1 10.6-.34 7.504 7.504 0 0 1 .34 10.602c-8.816 9.398-21.257 14.785-34.14 14.785zm0 0"/></svg>