<svg height="512pt" viewBox="-17 0 512 512" width="512pt" xmlns="http://www.w3.org/2000/svg"><path d="M119.469 187.734H85.336c-9.414.028-17.04 7.653-17.07 17.067v17.066c.03 9.414 7.656 17.04 17.07 17.067h25.598zm0 0" fill="#ffe0b2"/><path d="M298.668 238.934h25.598c9.414-.028 17.039-7.653 17.07-17.067v-17.066c-.031-9.414-7.656-17.04-17.07-17.067h-34.133zm0 0" fill="#bfa885"/><path d="M341.336 469.332v34.133H68.266v-34.133c.066-30.055 22.414-55.398 52.226-59.219H289.11c29.848 3.754 52.23 29.137 52.227 59.219zm0 0" fill="#ad1457"/><path d="M315.734 477.867v25.598H68.266v-34.133a59.47 59.47 0 0 1 28.246-50.687h167c29.843 3.757 52.23 29.14 52.222 59.222zm0 0" fill="#e91e63"/><path d="M298.668 503.465h-93.867v-98.219l43.52 12.8c2.558 29.102 12.374 85.419 50.347 85.419zm0 0" fill="#f5efca"/><path d="M204.8 405.246v98.219h-93.866c37.972 0 47.789-56.317 50.347-85.418zm0 0" fill="#f9eab0"/><path d="M281.602 85.332v17.066H128V85.332c.004-37.484 27.047-69.5 64-75.773a78.944 78.944 0 0 1 12.8-1.024c42.387.063 76.735 34.41 76.802 76.797zm0 0" fill="#ffb301"/><path d="M256 85.332v17.066H128V85.332c.004-37.484 27.047-69.5 64-75.773 36.914 6.351 63.914 38.32 64 75.773zm0 0" fill="#fec108"/><path d="M401.066 110.934c-.066 42.386-34.41 76.734-76.8 76.8H85.336c-42.418 0-76.8-34.386-76.8-76.8a8.533 8.533 0 0 1 8.53-8.536h375.47c4.71 0 8.53 3.82 8.53 8.536zm0 0" fill="#f57c00"/><path d="M366.934 110.934c-.067 42.386-34.41 76.734-76.801 76.8H85.336c-42.418 0-76.8-34.386-76.8-76.8a8.533 8.533 0 0 1 8.53-8.536h341.336c4.711 0 8.532 3.82 8.532 8.536zm0 0" fill="#fec108"/><path d="M298.668 187.734v110.934c0 51.883-41.984 76.797-93.867 76.797-4.274.02-8.547-.18-12.801-.594-45.824-3.758-81.066-28.672-81.066-76.203V187.734zm0 0" fill="#bfa885"/><path d="M273.066 187.734v110.934c0 47.531-35.242 72.445-81.066 76.203-45.824-3.758-81.066-28.672-81.066-76.203V187.734zm0 0" fill="#ffe0b2"/><path d="M179.2 373.164v42.324l-40.278 5.801a16.918 16.918 0 0 1-18.43-11.176 15.804 15.804 0 0 1-1.023-5.718V384c0-4.941 2.144-9.64 5.875-12.883a17.048 17.048 0 0 1 13.578-4.012l34.137 4.778.425.086zm0 0" fill="#f44335"/><path d="M290.133 384v20.395a15.804 15.804 0 0 1-1.024 5.718 16.918 16.918 0 0 1-18.43 11.176l-14.765-2.133-25.512-3.668v-42.324l5.715-1.195.426-.086 19.371-2.73 14.766-2.048c4.89-.695 9.847.77 13.578 4.012A17.071 17.071 0 0 1 290.133 384zm0 0" fill="#c52828"/><path d="M264.535 384v20.395a15.888 15.888 0 0 1-1.023 5.718 16.608 16.608 0 0 1-7.598 9.043l-25.512-3.668v-42.324l5.715-1.195.426-.086 19.371-2.73A17.07 17.07 0 0 1 264.535 384zM179.2 373.164v42.324h51.202v-42.324zm0 0" fill="#f44335"/><path d="M358.402 401.066c-14.14 0-25.601-11.46-25.601-25.601 0-14.137 11.46-25.598 25.601-25.598 14.137 0 25.598 11.461 25.598 25.598 0 14.14-11.46 25.601-25.598 25.601zM426.668 384c-14.14 0-25.602-11.46-25.602-25.602 0-14.136 11.461-25.597 25.602-25.597 14.137 0 25.598 11.46 25.598 25.597 0 14.141-11.461 25.602-25.598 25.602zm0 0" fill="#fec108"/><path d="M426.668 256c-14.14 0-25.602-11.46-25.602-25.602 0-14.136 11.461-25.597 25.602-25.597 14.137 0 25.598 11.46 25.598 25.597 0 14.141-11.461 25.602-25.598 25.602zM25.602 426.668a25.6 25.6 0 0 1-23.653-15.805A25.597 25.597 0 0 1 7.5 382.965a25.604 25.604 0 0 1 27.898-5.55A25.6 25.6 0 0 1 51.2 401.065c0 14.141-11.46 25.602-25.597 25.602zm0 0" fill="#02a9f4"/><path d="M401.066 110.934a75.062 75.062 0 0 1-4.437 25.601H12.973a75.062 75.062 0 0 1-4.438-25.601 8.533 8.533 0 0 1 8.531-8.536h375.47c4.71 0 8.53 3.82 8.53 8.536zm0 0" fill="#c52828"/><path d="M366.934 110.934a75.062 75.062 0 0 1-4.438 25.601H12.973a75.062 75.062 0 0 1-4.438-25.601 8.533 8.533 0 0 1 8.531-8.536h341.336c4.711 0 8.532 3.82 8.532 8.536zm0 0" fill="#f44335"/><path d="M5.207 139.996a85.574 85.574 0 0 0 57.48 53.121 25.241 25.241 0 0 0-2.953 11.684v17.066c0 14.137 11.461 25.598 25.602 25.598h17.066v51.203a78.16 78.16 0 0 0 26.59 60.91A25.435 25.435 0 0 0 110.934 384v19.328c-30.106 7.774-51.157 34.91-51.2 66.004v34.133A8.533 8.533 0 0 0 68.266 512h273.07c4.71 0 8.531-3.82 8.531-8.535v-34.133c-.043-31.094-21.094-58.23-51.199-66.004V384a25.477 25.477 0 0 0-18.04-24.43 78.207 78.207 0 0 0 26.571-60.902v-51.203h17.067c14.14 0 25.601-11.461 25.601-25.598v-17.066a25.241 25.241 0 0 0-2.953-11.684 85.551 85.551 0 0 0 57.473-53.101c.07-.153.11-.309.172-.461a84.738 84.738 0 0 0 5.043-28.621c0-9.426-7.641-17.067-17.067-17.067H290.133v-8.535C290.059 38.234 251.898.074 204.8 0c-47.106.05-85.281 38.227-85.332 85.332v8.535H17.066C7.641 93.867 0 101.507 0 110.934a84.846 84.846 0 0 0 5.05 28.644c.071.149.071.285.157.418zm80.129 90.402a8.533 8.533 0 0 1-8.535-8.53V204.8a8.534 8.534 0 0 1 8.535-8.535h17.066v34.132zm155.21 195.176c3.517 31.453 11.571 54.895 23.571 69.36h-50.781V424.02h16.457zm-60.741-1.554h16.46v70.914h-50.78c12-14.508 20.054-37.907 23.57-69.36zm42.062-17.067h-34.133v-23.941a147.997 147.997 0 0 0 34.133 0zM128 384c0-4.71 3.82-8.535 8.535-8.535.414 0 .832.031 1.246.086l32.887 4.625v27.922l-32.965 4.746a8.477 8.477 0 0 1-9.234-5.77 7.218 7.218 0 0 1-.469-2.68zm-51.2 85.332c.063-23.602 16.29-44.09 39.255-49.55a25.527 25.527 0 0 0 20.48 10.222 26.467 26.467 0 0 0 3.645-.266l11.441-1.648c-3.5 26.062-13.285 66.844-40.687 66.844H76.8zm256 0v25.602h-34.132c-27.402 0-37.188-40.782-40.645-66.844l11.442 1.648c1.21.172 2.433.262 3.652.266a25.593 25.593 0 0 0 20.43-10.242c22.969 5.465 39.2 25.96 39.254 49.57zm-51.198-64.937a7.88 7.88 0 0 1-.555 2.937 8.41 8.41 0 0 1-9.149 5.512l-32.964-4.746v-27.93l32.937-4.617a8.546 8.546 0 0 1 6.793 2.008 8.54 8.54 0 0 1 2.938 6.441zm8.53-105.727c0 50.344-44.081 68.266-85.331 68.266s-85.332-17.922-85.332-68.266V196.266h170.664zm42.669-93.867v17.066c0 4.711-3.82 8.531-8.535 8.531h-17.067v-34.132h17.067a8.534 8.534 0 0 1 8.535 8.535zm-8.535-25.602H85.336A68.27 68.27 0 0 1 26.3 145.066h357a68.27 68.27 0 0 1-59.035 34.133zm-187.73-93.867c.042-37.684 30.581-68.223 68.265-68.266 37.672.07 68.195 30.594 68.265 68.266v8.535h-136.53zm256 25.602A68.02 68.02 0 0 1 390.288 128H19.313a68.02 68.02 0 0 1-2.247-17.066zm0 0"/><path d="M196.266 281.602c-26.996 0-34.133 16.742-34.133 25.597a8.4 8.4 0 0 0 8.262 8.371h.273a8.685 8.685 0 0 0 8.531-8.132c.094-1.465 1.367-8.782 17.067-8.782a8.533 8.533 0 1 0 0-17.066zm0 0"/><path d="M213.336 281.602a8.533 8.533 0 1 0 0 17.066c15.578 0 16.953 7.2 17.066 8.738.055 4.711 3.922 8.485 8.633 8.43a8.537 8.537 0 0 0 8.434-8.637c0-8.855-7.137-25.597-34.133-25.597zM267.707 222.473l-42.664-17.067a8.541 8.541 0 0 0-6.352 15.856l42.668 17.066a8.673 8.673 0 0 0 3.176.606 8.535 8.535 0 0 0 3.172-16.461zM195.66 210.16a8.526 8.526 0 0 0-4.562-4.676 8.542 8.542 0 0 0-6.532-.078l-42.664 17.067a8.533 8.533 0 0 0 3.164 16.46 8.673 8.673 0 0 0 3.176-.605l42.668-17.066a8.533 8.533 0 0 0 4.75-11.102zM187.734 247.465a8.534 8.534 0 1 1-17.067.002 8.534 8.534 0 0 1 17.067-.002zM238.934 247.465a8.533 8.533 0 1 1-17.067 0c0-4.711 3.82-8.531 8.535-8.531 4.711 0 8.532 3.82 8.532 8.53zM212.652 312.492a6.449 6.449 0 0 0-.77-1.539l-1.023-1.277a8.929 8.929 0 0 0-12.117 0l-1.023 1.277a6.449 6.449 0 0 0-.77 1.54c-.246.48-.418 1-.512 1.534a11.866 11.866 0 0 0-.171 1.707 8.581 8.581 0 0 0 .683 3.243 9.921 9.921 0 0 0 1.793 2.816 8.652 8.652 0 0 0 12.117 0 9.922 9.922 0 0 0 1.793-2.816 8.581 8.581 0 0 0 .684-3.243 11.866 11.866 0 0 0-.172-1.707 5.424 5.424 0 0 0-.512-1.535zM196.266 34.133a33.172 33.172 0 0 0-34.133 34.133 8.534 8.534 0 1 0 17.066 0 16.06 16.06 0 0 1 4.672-12.395 16.06 16.06 0 0 1 12.395-4.672 8.533 8.533 0 1 0 0-17.066zM426.668 332.8c-14.14 0-25.602 11.462-25.602 25.598 0 14.141 11.461 25.602 25.602 25.602 14.137 0 25.598-11.46 25.598-25.602v-68.265a8.533 8.533 0 0 0-10.598-8.277l-68.266 17.066a8.535 8.535 0 0 0-6.468 8.277v44.238a25.254 25.254 0 0 0-8.532-1.57c-14.14 0-25.601 11.461-25.601 25.598 0 14.14 11.46 25.601 25.601 25.601 14.137 0 25.598-11.46 25.598-25.601v-61.602l51.2-12.797v33.278a25.34 25.34 0 0 0-8.532-1.543zM358.402 384a8.534 8.534 0 1 1-.002-17.068 8.534 8.534 0 0 1 .002 17.068zm68.266-17.066a8.534 8.534 0 1 1-.003-17.068 8.534 8.534 0 0 1 .003 17.068zM401.066 230.398c0 14.141 11.461 25.602 25.602 25.602 14.137 0 25.598-11.46 25.598-25.602v-70.644l19.765-6.59a8.542 8.542 0 0 0 5.41-10.8 8.54 8.54 0 0 0-10.804-5.41l-25.598 8.53a8.537 8.537 0 0 0-5.84 8.118v52.77a25.237 25.237 0 0 0-8.531-1.571c-14.14 0-25.602 11.46-25.602 25.597zm34.133 0a8.533 8.533 0 1 1-17.066 0c0-4.71 3.82-8.53 8.535-8.53 4.71 0 8.531 3.82 8.531 8.53zM25.602 426.668c14.136 0 25.597-11.461 25.597-25.602v-70.648l19.766-6.586a8.546 8.546 0 0 0 2.976-14.496 8.552 8.552 0 0 0-8.37-1.719l-25.598 8.535a8.536 8.536 0 0 0-5.84 8.114v52.77a25.429 25.429 0 0 0-8.531-1.571C11.46 375.465 0 386.93 0 401.066c0 14.141 11.46 25.602 25.602 25.602zm0-34.133c4.71 0 8.53 3.82 8.53 8.531a8.533 8.533 0 1 1-17.066 0c0-4.71 3.82-8.53 8.536-8.53zm0 0"/></svg>