<svg xmlns="http://www.w3.org/2000/svg" viewBox="0 0 512 512" style="enable-background:new 0 0 512 512" xml:space="preserve"><path style="fill:#9e9d9d" d="M407.193 202.667h-23.549v-39.333h23.549c8.717 0 15.784 7.067 15.784 15.784v7.766c0 8.716-7.067 15.783-15.784 15.783zM104.805 202.667h23.549v-39.333h-23.549c-8.717 0-15.784 7.067-15.784 15.784v7.766c0 8.716 7.067 15.783 15.784 15.783z"/><path style="fill:#49b6f2" d="M203.071 363.444h105.855c41.621 0 75.362 33.741 75.362 75.362V504.5H127.71v-65.694c0-41.622 33.74-75.362 75.361-75.362z"/><path style="fill:#2e93cc" d="M308.926 363.444H289.26c39.7 0 71.882 32.183 71.882 71.882V504.5h23.145v-65.695c.001-41.621-33.74-75.361-75.361-75.361z"/><path style="fill:#c7c7c7" d="m171.764 453.5-9.265 51h187l-9.265-51z"/><path style="fill:#ffb56b" d="M213.903 267.729v90.668c0 19.653 13.469 36.158 31.679 40.794l10.417-10.417 10.417 10.417c18.21-4.636 31.679-21.141 31.679-40.794v-90.668h-84.192z"/><path style="fill:#68c8fc" d="M323.377 364.833 308.792 351l-52.793 37.774 39.314 39.314z"/><path style="fill:#68c8fc" d="M188.621 364.833 203.206 351l52.793 37.774-39.314 39.314z"/><path style="fill:#c7c7c7" d="M297.538 7.5H214.46c-52.722 0-95.461 42.739-95.461 95.461v187.378c0 22.32 16.417 41.275 38.52 44.389 65.654 9.252 131.307 9.252 196.961 0 22.102-3.115 38.52-22.069 38.52-44.389V102.961C392.999 50.239 350.259 7.5 297.538 7.5z"/><path style="fill:#b2b1af" d="M392.999 102.961c0-52.722-42.74-95.461-95.461-95.461h-22.875c52.722 0 95.461 42.739 95.461 95.461v187.378c0 22.32-16.418 41.275-38.52 44.389a705.96 705.96 0 0 1-87.043 6.838c36.639.6 73.279-1.675 109.918-6.838 22.102-3.115 38.52-22.069 38.52-44.389V102.961z"/><path style="fill:#5880a2" d="M160.569 159.18h190.85v74.67h-190.85z"/><path d="M407.188 155.83h-6.689v-52.87C400.499 46.188 354.311 0 297.539 0h-83.08c-23.603 0-46.663 8.187-64.934 23.053a7.5 7.5 0 0 0 9.467 11.635C174.595 21.992 194.294 15 214.459 15h83.08c48.501 0 87.96 39.458 87.96 87.96v187.38c0 18.492-13.786 34.383-32.066 36.963a698.231 698.231 0 0 1-194.865.001c-18.282-2.581-32.068-18.472-32.068-36.964V102.96c0-16.737 4.718-33.018 13.643-47.082a7.5 7.5 0 0 0-2.314-10.351 7.499 7.499 0 0 0-10.351 2.314c-10.454 16.471-15.979 35.531-15.979 55.119v52.87h-6.69c-12.842 0-23.29 10.448-23.29 23.29v7.76c0 12.842 10.448 23.29 23.29 23.29h6.69v80.17c0 25.921 19.333 48.197 44.974 51.817a713.966 713.966 0 0 0 40.413 4.503l-11.908 11.288c-37.661 8.377-64.768 42.014-64.768 80.862v65.69a7.5 7.5 0 0 0 7.5 7.5h256.58a7.5 7.5 0 0 0 7.5-7.5v-65.69c0-38.848-27.107-72.484-64.768-80.862l-11.908-11.288a713.224 713.224 0 0 0 40.415-4.504c25.638-3.62 44.971-25.896 44.971-51.816v-80.17h6.689c12.843 0 23.291-10.448 23.291-23.29v-7.76c-.001-12.842-10.449-23.29-23.292-23.29zm-302.379 39.34c-4.571 0-8.29-3.719-8.29-8.29v-7.76c0-4.571 3.719-8.29 8.29-8.29h6.69v24.34h-6.69zm199.09 195.069-11.013 24.819-18.539-18.544-2.594-2.595c-.01-.011-.019-.023-.03-.033l-4.165-4.165 40.562-29.022 6.255 5.929-10.476 23.611zm-106.277-23.61 6.255-5.929 40.563 29.022-4.165 4.165-.023.025-21.141 21.147-21.489-48.43zm92.976-18.353v6.516l-3.535 2.53c-.009.007-.019.011-.028.018l-31.036 22.208-31.036-22.208-.03-.019-3.535-2.529v-6.516c11.527.56 23.063.859 34.6.859s23.073-.299 34.6-.859zM135.209 438.81c0-29.563 19.153-55.449 46.6-64.471V446h-10.045a7.5 7.5 0 0 0-7.379 6.159L156.238 497h-21.03v-58.19h.001zM171.484 497l6.54-36h3.785v8a7.5 7.5 0 0 0 15 0v-67.22l13.024 29.353a7.5 7.5 0 0 0 5.484 4.332c.274.051.548.081.823.101.082.006.163.008.245.011.101.004.203.014.304.014.093 0 .185-.01.278-.014.098-.004.196-.007.293-.014.202-.015.402-.041.601-.073.075-.012.151-.019.226-.034a7.33 7.33 0 0 0 .802-.197c.049-.015.096-.036.145-.052a7.52 7.52 0 0 0 .632-.239c.084-.036.166-.078.249-.117a7.477 7.477 0 0 0 1.236-.743c.07-.052.141-.1.209-.155.22-.175.433-.359.634-.561l34.005-34.014 34.006 34.015c.201.201.413.385.632.56.071.057.145.107.217.161a7.08 7.08 0 0 0 1.214.731c.091.043.181.089.273.128.19.082.383.153.578.219.066.022.131.05.198.07.258.079.52.142.784.193.087.017.176.026.263.039.187.029.374.053.563.068.104.008.208.012.313.015.09.003.178.013.268.013.098 0 .197-.01.296-.013.085-.003.17-.006.255-.012.273-.02.547-.051.82-.101a7.5 7.5 0 0 0 5.484-4.332l13.025-29.354V446h-95.886a7.5 7.5 0 0 0 0 15h95.886v8c0 4.142 3.357 7.5 7.5 7.5s7.5-3.358 7.5-7.5v-8h3.784l6.54 36H171.484zm205.305-58.19V497h-21.03l-8.146-44.84a7.5 7.5 0 0 0-7.379-6.16h-10.045v-71.66c27.447 9.022 46.6 34.907 46.6 64.47zm38.69-251.93c0 4.571-3.72 8.29-8.291 8.29h-6.689v-24.34h6.689c4.571 0 8.291 3.719 8.291 8.29v7.76z"/><path d="M351.425 241.346a7.5 7.5 0 0 0 7.5-7.5v-74.669a7.5 7.5 0 0 0-7.5-7.5H160.573a7.5 7.5 0 0 0-7.5 7.5v74.669a7.5 7.5 0 0 0 7.5 7.5h190.852zm-183.352-74.669h175.852v59.669H168.073v-59.669z"/></svg>