<svg xmlns="http://www.w3.org/2000/svg" viewBox="0 0 512.001 512.001" style="enable-background:new 0 0 512.001 512.001" xml:space="preserve"><path style="fill:#f0eeee" d="m205.259 363.314 105.854-.182c41.621-.072 75.42 33.611 75.491 75.232l.113 65.694-256.577.442-.113-65.694c-.072-41.621 33.611-75.42 75.232-75.492z"/><path style="fill:#d9d4d4" d="m311.113 363.133-22.632.039c41.621-.072 75.419 33.611 75.491 75.232l.113 65.695 22.632-.039-.113-65.695c-.071-41.621-33.87-75.304-75.491-75.232z"/><path style="fill:#696970" d="M131.359 424.589h253.942a74.929 74.929 0 0 0-12.15-29.052h-229.54a74.948 74.948 0 0 0-12.252 29.052z"/><path style="fill:#484655" d="M350.492 395.537a74.938 74.938 0 0 1 12.171 29.052h22.638a74.918 74.918 0 0 0-12.15-29.051h-22.659v-.001z"/><path style="fill:#696970" d="M130.101 452.01h256.62v29.05h-256.62z"/><path style="fill:#484655" d="m364.035 452.007.05 29.052h22.632v-.035l-.05-29.017z"/><path style="fill:#fa9e3e" d="m300.289 364.688-.167-97.25-84.2.145.167 97.25c.04 23.251 18.921 42.068 42.172 42.028 23.251-.041 42.068-18.922 42.028-42.173z"/><path style="fill:#484655" d="M120.502 116.909v13.062h274.999v-13.062C395.5 56.484 346.516 7.5 286.091 7.5h-56.18c-60.425 0-109.409 48.984-109.409 109.409z"/><path style="fill:#35343f" d="M286.091 7.5h-26.427c60.425 0 109.409 48.984 109.409 109.409v13.062h26.428v-13.062C395.5 56.484 346.516 7.5 286.091 7.5z"/><path style="fill:#ffb700" d="M113.746 117.835 114 255.747l288-.495-.255-137.912z"/><path style="fill:#fa9e3e" d="m127.786 224.713 49.369-.085.097 56.61-49.369.085c-15.632.027-28.327-12.624-28.354-28.256-.026-15.633 12.624-28.327 28.257-28.354zM388.107 224.266l-49.369.085.097 56.61 49.369-.085c15.632-.027 28.283-12.721 28.256-28.354-.026-15.633-12.721-28.283-28.353-28.256z"/><path style="fill:#ffb56b" d="M258.151 343.289c-61.919.106-112.201-50.003-112.307-111.922l-.195-113.394 224.229-.385.195 113.394c.106 61.919-50.003 112.201-111.922 112.307z"/><path style="fill:#ef9245" d="m346.544 117.628.215 125.061c.092 53.578-41.782 97.426-94.622 100.449 1.992.102 3.996.155 6.014.151 61.919-.106 112.028-50.388 111.922-112.307l-.195-113.394-23.334.04z"/><path style="fill:#35343f" d="M138.403 176.364v33.889c0 30.438 24.675 55.112 55.112 55.112h15.06c10.398 0 20.296-3.939 28.286-10.593 5.401-4.498 12.877-7.283 21.14-7.283s15.74 2.785 21.14 7.283c7.99 6.655 17.887 10.593 28.286 10.593h15.06c30.438 0 55.112-24.675 55.112-55.112v-33.889H138.403z"/><path style="fill:#f0eeee" d="M240.997 217.902c0 12.13-17.187 21.964-38.389 21.964-21.201 0-30.607-9.834-30.607-21.964 0-12.131 9.406-21.964 30.607-21.964 21.202 0 38.389 9.833 38.389 21.964zM275.005 217.902c0 12.13 17.187 21.964 38.389 21.964 21.201 0 30.607-9.834 30.607-21.964 0-12.131-9.406-21.964-30.607-21.964-21.202 0-38.389 9.833-38.389 21.964z"/><path style="fill:#595866" d="M399.675 108.352H112.327c-13.711 0-24.826 11.115-24.826 24.826v21.428c0 13.711 11.115 24.826 24.826 24.826h287.348c13.711 0 24.826-11.115 24.826-24.826v-21.428c0-13.711-11.115-24.826-24.826-24.826z"/><path style="fill:#484655" d="M399.675 108.352h-22.45c13.711 0 24.826 11.115 24.826 24.826v21.428c0 13.711-11.115 24.826-24.826 24.826h22.45c13.711 0 24.826-11.115 24.826-24.826v-21.428c0-13.711-11.115-24.826-24.826-24.826z"/><path d="M289.945 278.502a7.5 7.5 0 0 0-10.433 1.914 26.163 26.163 0 0 1-21.481 11.315h-.045c-8.556 0-16.582-4.2-21.475-11.241a7.503 7.503 0 0 0-10.439-1.879 7.502 7.502 0 0 0-1.879 10.44 41.167 41.167 0 0 0 33.793 17.681h.07a41.167 41.167 0 0 0 33.803-17.798 7.498 7.498 0 0 0-1.914-10.432zM202.608 188.438c-28.097 0-38.107 15.221-38.107 29.465s10.011 29.464 38.107 29.464c25.732 0 45.889-12.942 45.889-29.464 0-16.523-20.156-29.465-45.889-29.465zm0 43.928c-6.947 0-23.107-1.409-23.107-14.464 0-13.056 16.16-14.465 23.107-14.465 17.679 0 30.889 7.637 30.889 14.465s-13.21 14.464-30.889 14.464zM313.394 188.438c-25.732 0-45.889 12.942-45.889 29.465 0 16.521 20.156 29.464 45.889 29.464 28.097 0 38.107-15.22 38.107-29.464 0-14.245-10.011-29.465-38.107-29.465zm0 43.928c-17.679 0-30.889-7.636-30.889-14.464s13.21-14.465 30.889-14.465c6.947 0 23.107 1.409 23.107 14.465 0 13.055-16.16 14.464-23.107 14.464z"/><path d="M432.001 154.61v-21.43c0-17.074-13.306-31.089-30.092-32.244-3.643-26.649-16.346-51.178-36.229-69.664C343.992 11.106 315.727 0 286.091 0h-56.18a116.921 116.921 0 0 0-76.392 28.403 7.499 7.499 0 0 0-.775 10.578 7.499 7.499 0 0 0 10.578.775A101.92 101.92 0 0 1 229.911 15h56.18c25.834 0 50.472 9.68 69.375 27.256 16.803 15.623 27.707 36.195 31.254 58.594H129.276c2.285-14.35 7.631-28.131 15.69-40.258a7.499 7.499 0 1 0-12.492-8.302c-9.691 14.581-15.974 31.244-18.368 48.561h-1.775c-17.827 0-32.33 14.503-32.33 32.33v21.431c0 15.786 11.383 28.956 26.373 31.76l.069 37.953c-8.761 6.549-14.434 17.008-14.412 28.762.038 19.72 16.088 35.735 35.794 35.735h.068l25.226-.043c12.478 22.687 31.903 40.682 55.43 51.344l.026 15.682-3.33.006c-22.134.042-42.928 8.698-58.55 24.374-15.626 15.679-24.208 36.504-24.165 58.639l.067 40.469v1.767c0 .021.003.04.003.06l.039 23.393a7.5 7.5 0 0 0 7.5 7.488h.013l256.58-.44a7.504 7.504 0 0 0 7.488-7.514l-.041-22.258c.023-.24.037-.483.037-.729v-29.053c0-.383-.038-.757-.093-1.125l-.023-12.534c-.037-22.132-8.691-42.925-24.369-58.549-15.644-15.589-36.41-24.169-58.492-24.169h-.142l-3.32.006-.028-15.692c23.486-10.759 42.84-28.815 55.237-51.522l25.229-.042c9.566-.019 18.553-3.761 25.305-10.537 6.751-6.775 10.459-15.774 10.44-25.338-.023-11.754-5.735-22.189-14.518-28.704l-.07-38.378c13.121-4.17 22.629-16.579 22.629-30.813zm-15-21.43v21.431c0 8.904-6.935 16.48-15.857 17.254a15.26 15.26 0 0 1-1.473.065h-38.462c2.152-4.979 3.392-10.902 3.392-17.323v-21.428c0-6.424-1.24-12.349-3.394-17.329h38.464c9.556 0 17.33 7.774 17.33 17.33zm-46.9 77.07a47.69 47.69 0 0 1-1.564 12.14 47.162 47.162 0 0 1-5.135 12.226c-8.561 14.338-24.237 23.245-40.91 23.245h-15.061c-8.298 0-16.64-3.144-23.488-8.853-6.978-5.815-16.19-9.018-25.941-9.018s-18.964 3.202-25.941 9.019c-6.849 5.708-15.19 8.852-23.488 8.852h-15.062c-1.044 0-2.084-.035-3.119-.104-.317-.021-.629-.067-.945-.094-.715-.062-1.432-.12-2.141-.214-.373-.05-.739-.126-1.11-.184-.646-.102-1.295-.195-1.934-.323-.388-.078-.768-.182-1.153-.269-.615-.139-1.232-.269-1.84-.431-.399-.107-.79-.241-1.186-.359-.584-.173-1.171-.336-1.747-.531-.4-.135-.789-.297-1.184-.442-.561-.207-1.127-.403-1.68-.631-.399-.164-.787-.354-1.182-.529-.536-.238-1.077-.465-1.603-.722-.396-.193-.778-.411-1.168-.615-.512-.267-1.029-.525-1.531-.81-.387-.22-.759-.464-1.14-.695-.489-.296-.984-.583-1.463-.897-.379-.249-.743-.521-1.115-.781-.463-.322-.932-.635-1.383-.974-.371-.279-.724-.58-1.087-.869-.434-.346-.876-.683-1.298-1.044-.357-.306-.696-.634-1.045-.95-.408-.37-.823-.731-1.218-1.116-.34-.331-.661-.684-.992-1.026-.381-.394-.771-.78-1.139-1.188-.322-.357-.624-.735-.936-1.103-.354-.416-.716-.825-1.055-1.254-.301-.381-.581-.782-.871-1.173-.326-.439-.661-.871-.972-1.322-.277-.402-.531-.823-.796-1.235-.304-.473-.619-.938-.907-1.423l-.056-.098a46.628 46.628 0 0 1-4.957-11.731 47.56 47.56 0 0 1-1.657-12.473v-23.32h23.813c.028 0 .055.003.083.003.02 0 .038-.003.058-.003h57.335c.026 0 .05.003.076.003.02 0 .038-.003.058-.003h57.353c.02 0 .039.003.058.003.026 0 .051-.003.076-.003h57.335c.02 0 .039.003.058.003.028 0 .055-.003.083-.003h27.814v23.319zm-207.7-55.644v-21.428c0-10.748 4.788-17.326 7.395-17.326.02 0 .038-.003.058-.003h46.238c-.835 4.903-1.292 10.97-1.292 17.329v21.428c0 6.357.457 12.421 1.291 17.323h-46.314c-2.611-.031-7.376-6.6-7.376-17.323zm118.222-38.756c.741 3.136 1.579 9.005 1.579 17.329v21.428c0 8.319-.836 14.186-1.577 17.323h-49.246c-.741-3.137-1.577-9.004-1.577-17.323v-21.428c0-8.324.837-14.193 1.579-17.329h49.242zm61.524 0c.02 0 .039.003.058.003 2.607 0 7.396 6.578 7.396 17.326v21.428c0 10.722-4.764 17.292-7.376 17.323h-46.314c.834-4.902 1.291-10.967 1.291-17.323v-21.428c0-6.359-.457-12.426-1.292-17.329h46.237zM95.001 154.61v-21.43c0-9.556 7.774-17.33 17.33-17.33h38.464c-2.154 4.98-3.394 10.905-3.394 17.329v21.428c0 6.421 1.239 12.344 3.391 17.323h-38.461c-9.556 0-17.33-7.77-17.33-17.32zm26.374 32.32h9.526v23.32c0 2.329.137 4.651.393 6.954l-3.528.006a35.857 35.857 0 0 0-6.336.585l-.055-30.865zm6.492 86.89h-.04c-11.448 0-20.774-9.307-20.796-20.765-.022-11.472 9.293-20.823 20.763-20.846l7.068-.012.063.159c.193.511.396 1.017.602 1.522.069.17.134.342.205.511.284.679.58 1.354.888 2.022.042.091.088.18.13.27.267.571.54 1.139.824 1.701.11.218.227.432.339.649.225.433.452.866.688 1.294.037.067.071.136.108.204.012.149.03.297.042.446.103 1.278.22 2.554.363 3.823.004.039.01.077.015.116a118.797 118.797 0 0 0 .636 4.7c.166 1.08.346 2.157.542 3.23.035.193.066.388.102.581.232 1.239.488 2.472.759 3.701.068.31.142.62.213.929.229.998.47 1.992.725 2.984.073.284.143.569.218.853.321 1.214.661 2.423 1.021 3.626.071.238.148.474.22.711.308 1.006.63 2.008.965 3.006.104.309.207.618.313.927.415 1.202.844 2.4 1.298 3.59l.013.036-18.287.032zm99.514 73.023c.296.078.592.153.888.228 1.09.279 2.183.544 3.28.792.181.041.361.086.543.126a115.174 115.174 0 0 0 4.62.918c1.155.207 2.313.4 3.475.573.131.019.26.042.391.061a117.92 117.92 0 0 0 4.723.584c1.219.128 2.441.242 3.668.332l.225.019a121.124 121.124 0 0 0 4.813.242c1.3.042 2.603.07 3.909.07h.251a123.562 123.562 0 0 0 4.884-.114 123.83 123.83 0 0 0 3.912-.22c.071-.005.142-.013.214-.018 1.243-.094 2.481-.213 3.716-.345a120.4 120.4 0 0 0 4.745-.598l.396-.063c1.174-.178 2.344-.376 3.511-.589a120.009 120.009 0 0 0 4.634-.934c.18-.04.358-.085.538-.126 1.117-.256 2.229-.529 3.337-.817.277-.072.555-.142.832-.216 1.232-.33 2.46-.677 3.682-1.047.064-.02.13-.036.194-.055l.031 19.114c0 19.046-15.496 34.567-34.543 34.601h-.059c-19.051 0-34.566-15.483-34.599-34.53v-1.54c0-.018-.002-.035-.003-.053l-.029-17.468.204.057c1.2.359 2.407.695 3.617 1.016zm-22.106 23.967 3.682-.007c.036.298.088.591.129.887.048.34.094.68.148 1.017.075.464.162.924.25 1.384.062.322.119.645.187.964.102.482.218.957.334 1.434.071.291.136.585.212.874.141.536.298 1.065.456 1.593.067.223.126.449.195.67.236.751.489 1.495.759 2.229l.016.04c.265.719.548 1.429.845 2.132.094.221.197.436.294.656.216.491.433.982.665 1.464.126.262.261.519.391.779.186.372.369.746.564 1.113h-54.181c12.416-11.1 28.261-17.197 45.054-17.229zm-67.647 126.177-.014-8.428h241.578l.015 8.014-241.579.414zM311.124 370.63h.116c16.921 0 32.901 6.155 45.382 17.407h-35.584c-4.143 0-7.5 3.357-7.5 7.5s3.357 7.5 7.5 7.5h48.063a66.88 66.88 0 0 1 6.546 14.052H199.818c-4.143 0-7.5 3.357-7.5 7.5s3.357 7.5 7.5 7.5h178.977c.193 2.077.302 4.173.305 6.285l.011 6.133h-58.073c-4.143 0-7.5 3.357-7.5 7.5s3.357 7.5 7.5 7.5h58.1l.026 14.053H137.599v-14.053h153.44c4.143 0 7.5-3.357 7.5-7.5s-3.357-7.5-7.5-7.5H137.541l-.009-5.711a69.084 69.084 0 0 1 .313-6.706h31.977c4.143 0 7.5-3.357 7.5-7.5s-3.357-7.5-7.5-7.5h-28.78a66.734 66.734 0 0 1 6.604-14.05h79.038l.081.064c.543.446 1.096.879 1.658 1.301.051.039.1.08.152.118.628.469 1.267.923 1.917 1.362.07.048.144.092.215.139.568.379 1.143.75 1.727 1.106.192.117.39.227.584.341.469.277.939.553 1.417.815.24.132.485.255.728.383.441.232.883.463 1.332.682.267.13.538.254.808.38.433.202.868.401 1.307.591.285.123.573.24.861.358a45.96 45.96 0 0 0 2.207.842 49.988 49.988 0 0 0 4.535 1.367c.455.113.914.217 1.374.318.318.069.634.14.954.204.471.093.945.174 1.421.254.314.053.626.109.942.156.497.073.998.132 1.499.191.3.035.598.076.899.106.554.054 1.112.091 1.671.127.253.016.504.041.758.053.815.04 1.635.062 2.461.062h.084a51.258 51.258 0 0 0 2.455-.066c.274-.014.545-.041.819-.059.537-.036 1.075-.072 1.607-.125.321-.032.639-.077.958-.115.479-.057.959-.114 1.434-.185.338-.051.673-.112 1.009-.169.451-.077.902-.155 1.349-.244.343-.068.682-.145 1.022-.22a47.09 47.09 0 0 0 1.299-.303c.341-.085.68-.177 1.018-.27.422-.116.843-.235 1.26-.361a51.05 51.05 0 0 0 3.224-1.097c.405-.154.806-.314 1.206-.478.32-.132.641-.263.958-.401.401-.175.798-.358 1.194-.543.306-.143.613-.284.916-.433.402-.198.798-.406 1.194-.615.288-.151.577-.299.862-.456.412-.227.816-.466 1.221-.705.259-.152.521-.3.777-.457.454-.279.898-.571 1.342-.864.198-.13.4-.254.596-.387a49.452 49.452 0 0 0 1.87-1.334c.113-.085.222-.176.334-.262.497-.379.991-.763 1.473-1.16.213-.175.418-.36.628-.538.374-.318.747-.636 1.111-.965.231-.209.454-.425.681-.638.332-.311.663-.622.986-.942.233-.231.459-.468.687-.703.306-.315.611-.631.908-.954.227-.247.449-.499.671-.75.286-.323.569-.648.847-.979.218-.26.432-.524.645-.789a44.748 44.748 0 0 0 1.407-1.832 52.223 52.223 0 0 0 1.321-1.895c.239-.361.471-.726.7-1.093.179-.286.358-.572.532-.862.226-.379.444-.763.66-1.148.161-.287.325-.573.481-.864.216-.403.421-.812.626-1.222.141-.282.287-.562.423-.848.211-.442.408-.891.606-1.34.115-.261.237-.518.347-.782a48.43 48.43 0 0 0 .652-1.652c.066-.175.14-.346.204-.521.268-.732.519-1.473.753-2.221.059-.189.108-.383.165-.573.168-.561.333-1.123.482-1.693.074-.284.136-.573.205-.859.116-.482.233-.963.336-1.451.067-.319.123-.641.183-.962.087-.461.174-.922.248-1.387.054-.338.098-.68.145-1.02.043-.311.096-.62.133-.933l3.678-.005zm-13.721-42.542c-12.436 5.083-25.647 7.675-39.268 7.702h-.219c-1.69 0-3.373-.04-5.05-.119a103.423 103.423 0 0 1-34.023-7.448c-23.695-9.545-43.052-27.411-54.506-50.31a104.582 104.582 0 0 1-1.702-3.586c-.098-.215-.197-.43-.293-.646a104.868 104.868 0 0 1-1.485-3.501c-.09-.223-.177-.447-.265-.671-.48-1.217-.944-2.439-1.377-3.671l-.044-.131a101.465 101.465 0 0 1-1.202-3.671l-.115-.37c.146.101.298.196.445.296.399.271.8.54 1.206.802.233.151.468.299.703.447a60.878 60.878 0 0 0 3.184 1.872c.22.121.438.244.66.363.529.283 1.064.556 1.601.824.12.06.238.124.359.183.661.324 1.329.636 2.001.937.176.079.355.152.533.23.497.217.995.43 1.497.634.245.1.491.194.737.29a56.374 56.374 0 0 0 2.131.791c.441.154.883.303 1.327.448.264.086.528.172.793.255.473.147.948.286 1.424.422.236.067.471.138.708.203.633.173 1.269.335 1.908.488.08.019.158.041.238.06.72.169 1.445.324 2.172.468.217.043.435.079.653.12.512.096 1.024.188 1.539.271.272.044.545.082.818.123a59.546 59.546 0 0 0 3.676.429c.28.024.561.05.842.07.507.037 1.015.065 1.524.089.242.012.484.027.727.036.749.027 1.5.044 2.253.044h15.061c11.801 0 23.554-4.379 33.092-12.329 4.287-3.573 10.089-5.541 16.338-5.541 6.249 0 12.051 1.968 16.338 5.54 9.538 7.951 21.291 12.33 33.092 12.33h15.061c.75 0 1.497-.017 2.244-.044.242-.009.483-.025.725-.036a63.3 63.3 0 0 0 1.513-.088c.283-.021.565-.046.847-.07a58.773 58.773 0 0 0 3.649-.425c.276-.04.552-.08.827-.124.506-.081 1.01-.172 1.513-.266.224-.042.449-.079.672-.123.721-.142 1.44-.296 2.154-.463.1-.023.198-.051.297-.075a63.723 63.723 0 0 0 1.843-.47c.242-.066.483-.138.724-.207.468-.133.935-.269 1.399-.413a66.52 66.52 0 0 0 2.922-.987c.439-.16.876-.327 1.311-.497.251-.098.503-.194.753-.296.492-.199.98-.407 1.466-.619.185-.081.373-.157.557-.239a64.106 64.106 0 0 0 1.99-.928c.125-.061.248-.127.373-.189a67.378 67.378 0 0 0 1.583-.811c.222-.118.441-.242.662-.363.425-.233.849-.468 1.268-.711.239-.138.475-.279.712-.42a63.822 63.822 0 0 0 3.111-1.977c.144-.097.291-.189.434-.287l-.113.368a103.387 103.387 0 0 1-1.214 3.699 103.49 103.49 0 0 1-1.344 3.593c-.081.207-.161.414-.243.62a102.7 102.7 0 0 1-1.448 3.433c-.098.22-.198.439-.297.659a104.65 104.65 0 0 1-1.623 3.445l-.022.046-.002.005c-11.381 22.913-30.672 40.842-54.335 50.487zm105.492-60.832a20.683 20.683 0 0 1-14.706 6.124l-18.284.03.016-.044c.434-1.15.844-2.307 1.242-3.468.11-.32.216-.64.323-.961.329-.99.646-1.983.949-2.981.065-.214.134-.427.198-.642a118.8 118.8 0 0 0 .996-3.559c.079-.301.154-.603.23-.905.244-.956.476-1.915.696-2.878.071-.312.145-.623.214-.935.264-1.2.512-2.404.74-3.613.042-.226.079-.453.12-.68a120.738 120.738 0 0 0 .675-4.119c.17-1.165.327-2.334.463-3.507.008-.074.02-.148.028-.223.141-1.236.256-2.477.36-3.721.013-.153.032-.305.044-.458.03-.054.057-.11.087-.164.281-.506.549-1.019.816-1.532.091-.176.188-.349.278-.526.349-.689.684-1.385 1.007-2.086.098-.214.189-.431.284-.645.222-.497.442-.994.651-1.496.115-.275.221-.553.332-.83.178-.447.355-.895.523-1.347.038-.103.082-.204.12-.308l6.829-.012h.04c3.545 0 6.885.896 9.81 2.469.158.099.317.196.483.283 6.251 3.582 10.488 10.303 10.503 18.013a20.674 20.674 0 0 1-6.067 14.721zm-14.728-50.486h-.068l-3.342.006a63.07 63.07 0 0 0 .344-6.525v-23.32h9.274l.056 30.4a35.742 35.742 0 0 0-6.264-.561z"/></svg>