<svg xmlns="http://www.w3.org/2000/svg" viewBox="0 0 512.003 512.003" style="enable-background:new 0 0 512.003 512.003" xml:space="preserve"><path style="fill:#d4fff8" d="M428.411 165.642C365.529 16.216 257.913 24.441 256.001 24.6c-1.912-.158-109.528-8.383-172.41 141.042-30.616 72.751-38.241 135.825-40.055 167.253-.713 12.352 7.016 23.618 18.811 27.353l193.654 61.329 193.654-61.329c11.795-3.735 19.524-15.001 18.811-27.353-1.814-31.428-9.439-94.502-40.055-167.253z"/><path style="fill:#c6f4eb" d="M468.466 332.895c-1.814-31.428-9.439-94.502-40.055-167.253C365.529 16.216 257.913 24.441 256.001 24.6c-.575-.048-10.705-.822-26.298 2.174 36.277 6.971 102.134 34.363 146.112 138.868 30.616 72.751 38.241 135.825 40.055 167.253.713 12.352-7.016 23.618-18.811 27.353l-167.356 53 26.298 8.329 193.654-61.329c11.795-3.735 19.524-15.001 18.811-27.353z"/><path style="fill:#fed9a8" d="m387.458 375.906-71.196-20.963v-.003l-11.16-2.243a16.957 16.957 0 0 1-13.615-16.624v-16.079h-72.994v16.485a16.956 16.956 0 0 1-13.615 16.624l-9.139 1.837v.003l-71.195 20.963c-33.923 9.988-57.215 41.127-57.215 76.49v43.662a8.442 8.442 0 0 0 8.442 8.442H436.23a8.442 8.442 0 0 0 8.442-8.442v-43.662c.001-35.363-23.291-66.501-57.214-76.49z"/><path style="fill:#f4c892" d="m387.458 375.906-71.196-20.963v-.003l-11.16-2.243a16.957 16.957 0 0 1-13.615-16.624v-16.079h-35.486v5.646c0 16.43 10.894 30.868 26.693 35.377l52.168 14.889c33.923 9.988 57.215 41.126 57.215 76.49V504.5h44.153a8.442 8.442 0 0 0 8.442-8.442v-43.662c.001-35.363-23.291-66.501-57.214-76.49z"/><circle style="fill:#ff901d" cx="256.001" cy="53.587" r="46.09"/><path style="fill:#f4cfa6" d="M371.496 243.548h-18.444V190.06h18.444c9.504 0 17.209 7.705 17.209 17.209v19.07c0 9.504-7.705 17.209-17.209 17.209zM140.506 243.548h18.444V190.06h-18.444c-9.504 0-17.209 7.705-17.209 17.209v19.07c0 9.504 7.705 17.209 17.209 17.209z"/><path style="fill:#fed9a8" d="M256.001 328.071c-59.473 0-107.685-48.212-107.685-107.685v-30.263c0-59.473 48.212-107.685 107.685-107.685s107.685 48.212 107.685 107.685v30.263c0 59.473-48.212 107.685-107.685 107.685z"/><path style="fill:#f4cfa2" d="M256.001 82.438c-9.073 0-17.881 1.128-26.298 3.24 46.76 11.737 81.387 54.044 81.387 104.445v30.263c0 42.747-24.908 86.367-61.002 107.521 1.958.106 3.928.164 5.913.164 59.473 0 107.685-48.212 107.685-107.685v-30.263c0-59.473-48.212-107.685-107.685-107.685z"/><path style="fill:#ff901d" d="M382.66 183.86v-1.637c0-69.952-56.707-126.66-126.66-126.66-69.952 0-126.66 56.707-126.66 126.66v1.637a6.2 6.2 0 0 0 6.2 6.2h16.281c4.332 0 8.256-2.557 10.006-6.52l9.063-34.02c3.149-11.818 17.518-16.324 26.862-8.432 23.579 19.914 64.955 48.972 105.636 48.972h73.071a6.2 6.2 0 0 0 6.201-6.2z"/><path style="fill:#ff6d3a" d="M256.001 55.563c-9.018 0-17.813.95-26.298 2.741 57.33 12.107 100.362 62.984 100.362 123.918v1.637a6.2 6.2 0 0 1-6.2 6.2h52.596a6.2 6.2 0 0 0 6.2-6.2v-1.637c-.001-69.952-56.708-126.659-126.66-126.659z"/><path style="fill:#fffcfd" d="M386.235 461.492c0-3.544-1.119-7.007-3.23-9.853-12.888-17.381-33.547-28.652-56.847-28.652-21.87 0-41.414 9.926-54.385 25.519-8.246 9.913-23.3 9.913-31.545 0-12.97-15.592-32.515-25.519-54.385-25.519-23.3 0-43.959 11.271-56.847 28.652a16.538 16.538 0 0 0-3.23 9.853V504.5h260.469v-43.008z"/><path style="fill:#f2f2f2" d="M383.005 451.639c-12.888-17.381-33.547-28.652-56.847-28.652a70.49 70.49 0 0 0-26.298 5.059c12.247 4.912 22.803 13.146 30.55 23.593a16.538 16.538 0 0 1 3.23 9.853V504.5h52.596v-43.008c-.001-3.544-1.12-7.007-3.231-9.853z"/><path d="M209.588 202.254a7.5 7.5 0 0 0-7.499 7.499v13.749a7.5 7.5 0 0 0 14.998 0v-13.749a7.5 7.5 0 0 0-7.499-7.499zM294.914 209.754v13.749a7.5 7.5 0 0 0 14.998 0v-13.749a7.5 7.5 0 0 0-14.998 0zM285.963 269.947a7.498 7.498 0 0 0-10.467 1.706c-3.654 5.077-11.305 8.357-19.495 8.357-8.19 0-15.841-3.28-19.494-8.357a7.497 7.497 0 0 0-10.467-1.706 7.499 7.499 0 0 0-1.707 10.467c6.478 9.003 18.613 14.595 31.669 14.595 13.056 0 25.19-5.592 31.669-14.595a7.502 7.502 0 0 0-1.708-10.467z"/><path d="M436.231 512c8.79 0 15.942-7.151 15.942-15.942v-43.662c0-18.983-6.01-37.052-17.38-52.252-11.37-15.201-27.006-26.07-45.216-31.432l-70.986-20.901a7.664 7.664 0 0 0-.849-.223l-11.16-2.243c-4.4-.884-7.594-4.784-7.594-9.272v-8.804a113.973 113.973 0 0 0 16.434-8.243l.432-.261a124.566 124.566 0 0 0 4.172-2.675c.516-.347 1.027-.7 1.537-1.055.282-.197.567-.389.848-.588 16.969-12.016 30.554-28.504 39.035-47.73l.029-.066c.401-.911.79-1.827 1.168-2.75l.195-.477c.322-.797.635-1.598.939-2.403.085-.224.172-.447.256-.672.295-.796.58-1.597.859-2.401.071-.205.147-.409.217-.615.319-.938.625-1.882.92-2.831.148-.476.286-.956.428-1.435.148-.498.297-.996.438-1.497.049-.175.104-.348.153-.523h4.45c13.624 0 24.708-11.084 24.708-24.708v-19.071c0-.427-.011-.852-.033-1.274-.007-.138-.022-.274-.031-.411-.019-.284-.037-.568-.065-.849-.015-.144-.037-.285-.055-.428-.033-.271-.063-.543-.104-.812-.024-.158-.057-.314-.084-.472-.043-.25-.084-.501-.135-.748-.034-.166-.077-.329-.114-.493-.054-.236-.104-.473-.165-.707-.041-.159-.09-.316-.135-.474-.066-.235-.129-.471-.202-.704-.048-.154-.104-.305-.155-.457-.078-.232-.153-.466-.238-.695-.057-.153-.12-.303-.18-.455-.088-.224-.173-.45-.267-.67-.064-.151-.136-.299-.203-.449-.098-.217-.193-.436-.297-.65-.072-.148-.15-.291-.224-.437-.108-.211-.213-.424-.327-.631-.079-.144-.164-.284-.245-.426-.117-.205-.233-.411-.355-.612-.087-.142-.179-.279-.269-.419-.125-.196-.249-.393-.379-.585-.096-.141-.198-.277-.296-.416-.132-.186-.262-.373-.399-.555-.104-.138-.213-.271-.32-.407-.139-.177-.276-.355-.42-.528-.112-.135-.23-.266-.345-.399-.145-.167-.288-.336-.437-.499-.121-.133-.248-.26-.372-.39-.15-.157-.298-.315-.452-.468l-.05-.052c.036-.075.061-.157.095-.233.114-.253.217-.511.316-.772.069-.182.14-.363.201-.548.091-.274.166-.554.239-.836.047-.181.1-.36.14-.544.068-.314.116-.634.162-.956.023-.159.055-.314.073-.475.052-.485.083-.977.083-1.475v-1.637c0-1.534-.035-3.059-.087-4.58a136.06 136.06 0 0 0-.284-5.394c-.023-.32-.051-.64-.077-.96a132.367 132.367 0 0 0-.348-3.647c-.065-.599-.133-1.197-.206-1.794a135.792 135.792 0 0 0-.889-6.081c-.097-.575-.194-1.151-.298-1.723a131.8 131.8 0 0 0-.525-2.734c-.03-.147-.063-.292-.093-.439-3.674-17.764-10.917-34.61-21.504-49.678-14.356-20.433-33.818-36.281-56.548-46.113.058-.558.09-1.117.131-1.675.023-.319.057-.637.074-.956a52.629 52.629 0 0 0 .007-5.671c-.007-.131-.022-.261-.03-.393a54.653 54.653 0 0 0-.191-2.411c-.013-.122-.033-.242-.046-.364-.09-.807-.193-1.61-.319-2.406-.023-.144-.053-.285-.077-.429a54.135 54.135 0 0 0-.427-2.292l-.019-.103c35.938 14.656 80.465 48.636 113.095 126.171 30.219 71.808 37.707 134.06 39.481 164.777.516 8.944-5.072 17.074-13.589 19.771l-22.033 6.978a7.5 7.5 0 0 0 4.529 14.299l22.032-6.978c15.063-4.77 24.946-19.135 24.035-34.934-1.829-31.679-9.54-95.853-40.63-169.73-38.751-92.073-94.229-126.545-134.939-139.135C290.743 9.369 274.446 0 256.001 0s-34.743 9.369-44.387 23.596c-40.71 12.589-96.188 47.062-134.936 139.137-31.09 73.877-38.801 138.052-40.63 169.73-.912 15.799 8.972 30.164 24.034 34.934l21.857 6.922a7.5 7.5 0 0 0 4.529-14.299l-21.858-6.922c-8.517-2.697-14.105-10.827-13.589-19.771 1.774-30.716 9.261-92.968 39.481-164.777 32.629-77.536 77.156-111.516 113.094-126.171l-.019.103c-.159.75-.296 1.507-.423 2.269-.025.152-.057.303-.082.456a53.797 53.797 0 0 0-.313 2.361c-.015.137-.038.272-.052.409-.082.787-.141 1.58-.188 2.376-.009.142-.025.283-.032.425a52.6 52.6 0 0 0 .007 5.669c.017.319.051.637.074.956.04.559.073 1.117.131 1.675-22.73 9.833-42.191 25.68-56.548 46.113-10.587 15.068-17.83 31.914-21.504 49.678-.03.146-.063.292-.093.439a131.8 131.8 0 0 0-.525 2.734c-.105.573-.201 1.148-.298 1.723a135.792 135.792 0 0 0-1.443 11.522c-.026.32-.054.639-.077.96a136.06 136.06 0 0 0-.284 5.394 136.574 136.574 0 0 0-.087 4.58v1.637c0 .499.03.99.083 1.475.017.161.05.316.073.475.046.321.094.642.162.956.04.184.093.363.14.544.073.281.148.562.239.836.061.186.132.366.201.548.099.261.201.519.316.772.034.076.059.157.095.233l-.05.052c-.154.153-.302.311-.451.468-.124.13-.251.258-.372.39-.149.163-.292.332-.437.499-.115.133-.233.263-.345.399-.144.173-.281.351-.42.528-.107.135-.216.269-.32.407-.137.182-.267.369-.399.555-.099.139-.2.275-.296.416-.131.192-.254.389-.379.585-.089.14-.182.277-.269.419-.123.201-.238.407-.355.612-.082.142-.167.282-.245.426-.114.208-.219.42-.327.631-.074.146-.153.29-.224.437-.104.214-.199.432-.297.65-.067.15-.139.297-.203.449-.094.221-.179.446-.267.67-.059.152-.123.301-.18.455-.084.229-.16.463-.238.695-.051.153-.107.303-.155.457-.073.232-.136.468-.202.704-.044.158-.093.314-.135.474-.06.234-.111.471-.165.707-.037.165-.08.327-.114.493-.051.247-.092.498-.135.748-.027.157-.06.313-.084.472-.041.269-.072.541-.104.812-.017.143-.04.285-.055.428-.029.281-.046.565-.065.849-.009.137-.024.273-.031.411-.022.422-.033.847-.033 1.274v19.071c0 13.624 11.084 24.708 24.708 24.708h4.449c.055.201.118.399.175.6.089.315.183.628.275.943.193.663.387 1.326.592 1.985l.073.228a114.843 114.843 0 0 0 3.771 10.272l.062.149a115.46 115.46 0 0 0 19.337 30.918c11.46 13.116 25.814 23.515 41.754 30.296v10.043c0 4.488-3.194 8.387-7.594 9.272l-9.139 1.837a7.627 7.627 0 0 0-.847.222l-70.989 20.902c-18.209 5.362-33.845 16.231-45.216 31.432-11.37 15.201-17.38 33.269-17.38 52.252v43.662c0 8.79 7.151 15.942 15.942 15.942h360.461M217.493 51.216c.013-.212.032-.423.048-.634.048-.612.109-1.222.185-1.829.024-.192.046-.384.073-.575.221-1.568.538-3.118.949-4.642.05-.185.104-.367.157-.55.165-.58.346-1.154.538-1.726.07-.208.138-.417.211-.624a38.65 38.65 0 0 1 .804-2.075c.089-.211.19-.416.283-.625.209-.47.425-.937.653-1.399a39.338 39.338 0 0 1 1.069-2.002c6.649-11.655 19.186-19.536 33.538-19.536 14.347 0 26.881 7.876 33.53 19.526a35.856 35.856 0 0 1 1.071 2.006c.234.475.457.954.672 1.437.087.197.182.389.266.587.291.689.559 1.386.81 2.09.071.199.136.401.204.602.196.58.379 1.163.547 1.752.051.177.103.353.151.531a38.61 38.61 0 0 1 .952 4.651c.027.189.049.379.072.569.077.609.138 1.22.186 1.833.016.211.035.421.048.633.048.788.08 1.578.08 2.371l-.003.117c-.444-.133-.893-.247-1.339-.375a144.143 144.143 0 0 0-5.017-1.342c-.748-.185-1.495-.37-2.247-.542-.694-.159-1.39-.308-2.086-.455a130.04 130.04 0 0 0-2.169-.44c-.632-.123-1.263-.25-1.896-.364-1.23-.221-2.466-.424-3.707-.612-.556-.084-1.114-.158-1.672-.235-.913-.126-1.828-.243-2.746-.351-.512-.06-1.024-.122-1.538-.176a136.287 136.287 0 0 0-4.069-.369c-.345-.026-.691-.043-1.037-.066a139.044 139.044 0 0 0-3.433-.186c-.419-.017-.839-.035-1.258-.048a134.943 134.943 0 0 0-4.37-.079c-1.463 0-2.918.032-4.37.079-.42.013-.839.031-1.258.048-1.148.048-2.293.11-3.433.186-.345.023-.692.04-1.037.066-1.362.102-2.719.227-4.069.369-.514.054-1.025.117-1.538.176-.918.108-1.834.224-2.746.351-.558.077-1.116.151-1.672.235-1.241.187-2.477.39-3.707.612-.634.114-1.264.241-1.896.364-.725.141-1.448.287-2.169.44-.696.148-1.392.296-2.086.455-.752.172-1.5.357-2.247.542a134.143 134.143 0 0 0-5.017 1.342c-.445.129-.894.242-1.339.375l-.003-.117a35.99 35.99 0 0 1 .077-2.371zm-76.987 184.833c-5.354 0-9.71-4.356-9.71-9.709v-19.071c0-5.351 4.35-9.704 9.7-9.709h.32v22.826c0 1.196.024 2.387.061 3.574.01.311.023.621.035.931.037.955.085 1.908.146 2.858.016.258.031.515.049.772.172 2.453.421 4.885.745 7.294.01.077.017.156.028.233l-1.374.001zm238.23 260.952h-245.47v-35.509c0-1.948.623-3.861 1.754-5.386 12.073-16.282 30.598-25.62 50.823-25.62 18.837 0 36.558 8.316 48.619 22.816 5.36 6.443 13.21 10.138 21.538 10.138s16.178-3.695 21.538-10.138c12.061-14.5 29.782-22.816 48.619-22.816 20.226 0 38.75 9.338 50.823 25.62 1.131 1.526 1.754 3.439 1.754 5.386v35.509h.002zM303.625 360.05l10.805 2.172 70.91 20.879c15.079 4.44 28.026 13.44 37.442 26.027 9.415 12.587 14.392 27.549 14.392 43.268v43.662c0 .52-.423.943-.943.943h-42.496v-35.509c0-5.143-1.671-10.228-4.705-14.32-14.712-19.84-38.215-31.685-62.871-31.685-23.306 0-45.23 10.287-60.15 28.222-2.501 3.007-6.148 4.731-10.007 4.731s-7.506-1.724-10.007-4.731c-14.92-17.936-36.844-28.222-60.15-28.222-24.656 0-48.16 11.845-62.871 31.685-3.034 4.092-4.705 9.177-4.705 14.32v35.509H75.771a.944.944 0 0 1-.943-.943v-43.662c0-15.719 4.977-30.681 14.392-43.268s22.362-21.588 37.441-26.027l70.91-20.879 8.784-1.766c11.378-2.287 19.637-12.371 19.637-23.977v-4.862c.356.096.715.177 1.072.27.224.058.449.113.674.17 2.332.589 4.681 1.105 7.046 1.546.45.084.9.168 1.352.247.606.105 1.212.207 1.819.302.547.086 1.096.166 1.645.244.54.077 1.079.158 1.62.227 1.031.133 2.067.252 3.107.357.397.04.796.07 1.193.106.758.069 1.517.133 2.279.187a112.38 112.38 0 0 0 3.628.196c.375.015.749.032 1.125.043a116.3 116.3 0 0 0 3.45.056c1.1 0 2.195-.019 3.288-.05.362-.01.724-.028 1.086-.041a112.87 112.87 0 0 0 2.188-.1c.432-.024.863-.053 1.294-.082a116.251 116.251 0 0 0 5.275-.48c.443-.05.886-.097 1.328-.152a114.241 114.241 0 0 0 4.457-.657c.56-.093 1.12-.184 1.678-.285.578-.104 1.153-.219 1.729-.332.45-.089.899-.177 1.347-.271a119.572 119.572 0 0 0 2.975-.666c.448-.106.898-.203 1.344-.314v3.934c0 .857.059 1.703.147 2.541.21 1.999.651 3.939 1.321 5.78.097.267.219.523.325.786.154.38.297.765.47 1.136.037.08.083.154.12.233 3.235 6.788 9.518 11.948 17.251 13.502zm52.561-139.664c0 .89-.012 1.779-.036 2.669-.005.182-.015.362-.021.543-.023.712-.049 1.425-.087 2.137-.01.191-.025.38-.036.571a98.42 98.42 0 0 1-.142 2.102c-.016.199-.036.396-.053.595-.059.685-.122 1.371-.194 2.055-.024.224-.052.448-.077.672-.073.647-.15 1.293-.236 1.939-.036.27-.075.539-.113.809a94.425 94.425 0 0 1-.93 5.482 93.408 93.408 0 0 1-.545 2.571c-.113.499-.233.995-.353 1.491a98.218 98.218 0 0 1-.403 1.62c-.19.728-.385 1.454-.591 2.177-.14.49-.289.975-.436 1.462-.131.433-.262.866-.398 1.296a92.556 92.556 0 0 1-.963 2.878c-.133.378-.263.758-.4 1.134a98.187 98.187 0 0 1-.989 2.604c-.052.132-.108.261-.161.392-.325.809-.66 1.614-1.006 2.413-.071.165-.144.329-.217.494a97 97 0 0 1-1.177 2.585l-.028.06c-6.779 14.273-16.882 26.792-29.327 36.462a101.567 101.567 0 0 1-2.21 1.664c-.304.223-.607.447-.913.667-.417.299-.84.59-1.262.882a97.262 97.262 0 0 1-2.577 1.729c-.14.091-.278.183-.418.273-.615.394-1.235.781-1.859 1.161l-.235.143a99.8 99.8 0 0 1-22.089 9.96c-.563.175-1.129.34-1.696.506a98.34 98.34 0 0 1-3.971 1.068c-.774.191-1.55.374-2.328.546-.431.096-.862.193-1.296.283a98.442 98.442 0 0 1-3.145.599c-.377.066-.756.127-1.134.188a99.164 99.164 0 0 1-3.353.494c-.193.025-.387.044-.58.067-1.079.131-2.161.243-3.246.34-.273.024-.546.051-.82.073a101.7 101.7 0 0 1-3.585.224c-.257.011-.515.02-.772.029-1.258.047-2.517.078-3.78.078-1.356 0-2.708-.035-4.057-.089-.226-.009-.453-.015-.679-.026a101.233 101.233 0 0 1-4.703-.332 100.367 100.367 0 0 1-3.556-.394c-.363-.047-.725-.101-1.087-.153a98.547 98.547 0 0 1-7.06-1.258c-.543-.117-1.086-.234-1.626-.359-.904-.21-1.804-.438-2.702-.673a95.589 95.589 0 0 1-6.354-1.899c-.393-.132-.785-.271-1.176-.408a99.686 99.686 0 0 1-14.668-6.494l-.114-.062a98.97 98.97 0 0 1-1.966-1.101c-.248-.143-.494-.291-.741-.436a94.532 94.532 0 0 1-3.904-2.407l-.207-.136c-18.211-11.94-32.333-29.689-39.736-50.226l-.113-.32c-.268-.753-.524-1.51-.775-2.27-.095-.29-.191-.58-.284-.872a97.596 97.596 0 0 1-.548-1.791c-.104-.351-.213-.7-.314-1.053a98.027 98.027 0 0 1-.671-2.475c-.117-.455-.225-.914-.336-1.372-.115-.476-.23-.951-.338-1.429a92.438 92.438 0 0 1-.547-2.578 101.32 101.32 0 0 1-.93-5.482c-.038-.269-.077-.538-.113-.809a96.744 96.744 0 0 1-.236-1.939c-.025-.224-.053-.447-.077-.672a93.923 93.923 0 0 1-.194-2.055c-.017-.198-.037-.396-.053-.595a98.42 98.42 0 0 1-.142-2.102c-.011-.191-.026-.38-.036-.571-.038-.712-.064-1.424-.087-2.137-.006-.181-.016-.362-.021-.543a98.914 98.914 0 0 1-.036-2.669v-23.264l.004-.001c.052-.011.102-.027.153-.039.346-.08.689-.17 1.029-.269.135-.04.268-.085.403-.127a17.916 17.916 0 0 0 1.921-.732c.13-.058.261-.114.389-.175.293-.139.58-.286.865-.44.07-.038.142-.072.211-.11.349-.194.691-.401 1.026-.618.1-.064.196-.134.294-.2.237-.16.472-.323.702-.494a18.73 18.73 0 0 0 .966-.772c.109-.093.219-.186.326-.282.22-.197.435-.401.646-.608.078-.077.159-.151.236-.23.283-.288.557-.585.821-.893.053-.062.103-.128.156-.191.209-.25.412-.504.608-.765.083-.11.162-.224.242-.337a19.273 19.273 0 0 0 .705-1.059c.15-.243.292-.491.431-.743.063-.114.129-.227.19-.343.193-.368.378-.742.547-1.125.157-.355.286-.723.386-1.098l9.064-34.02a9.278 9.278 0 0 1 1.488-3.126c1.121-1.522 2.706-2.655 4.614-3.255a9.446 9.446 0 0 1 2.3-.424c2.295-.129 4.534.618 6.373 2.172a328.787 328.787 0 0 0 3.992 3.313l1.03.844a328.309 328.309 0 0 0 6.397 5.06c15.235 11.766 29.244 20.365 41.929 26.571l.19.094c.89.434 1.771.853 2.648 1.264.468.22.935.441 1.405.657.51.234 1.015.459 1.521.685.834.375 1.67.746 2.51 1.108l.311.132c12.482 5.347 25.535 9.183 38.724 10.499.29.029.58.059.866.086a99.093 99.093 0 0 0 4.728.33c.272.012.545.02.817.03 1.166.043 2.309.07 3.407.07h52.797v22.825h.007zm25.019-13.117v19.071c0 5.354-4.356 9.709-9.71 9.709h-1.375c.011-.077.017-.156.028-.233.324-2.409.573-4.841.745-7.294.018-.257.033-.515.049-.772.06-.95.109-1.902.146-2.858.012-.311.026-.621.035-.931.036-1.188.061-2.378.061-3.574v-22.826h.32c5.351.004 9.701 4.357 9.701 9.708zm-8.504-49.189c.014.067.029.133.042.2a111.569 111.569 0 0 1 .724 3.91c.175 1.029.336 2.062.484 3.1a116.288 116.288 0 0 1 .504 3.997c.114 1.064.218 2.129.305 3.198.024.3.05.599.072.9a121.153 121.153 0 0 1 .251 4.771c.045 1.353.077 2.708.077 4.068v.338h-71.771c-39.074 0-79.925-29.574-100.797-47.202a24.51 24.51 0 0 0-1.975-1.49c-.419-.287-.845-.56-1.277-.818-.125-.075-.249-.154-.375-.227a24.116 24.116 0 0 0-1.663-.869c-.127-.06-.256-.113-.383-.17a23.785 23.785 0 0 0-1.385-.576c-.169-.064-.337-.128-.507-.188a23.852 23.852 0 0 0-1.685-.533c-.035-.01-.069-.022-.104-.031-.598-.16-1.204-.29-1.812-.403-.176-.033-.353-.061-.531-.09a23.962 23.962 0 0 0-1.438-.19c-.156-.016-.312-.036-.468-.049-.614-.05-1.23-.078-1.848-.081-.036 0-.071-.005-.107-.005-.136 0-.273.013-.409.016a25.33 25.33 0 0 0-1.167.044c-.211.014-.421.034-.632.053a25.056 25.056 0 0 0-1.719.218c-.382.063-.764.139-1.145.22-.182.039-.365.073-.546.116a24.45 24.45 0 0 0-1.67.456c-7.937 2.495-13.955 8.786-16.098 16.829l-8.871 33.295a3.44 3.44 0 0 1-2.952 1.676h-14.982v-.338a122.297 122.297 0 0 1 .119-5.164c.052-1.228.12-2.453.209-3.675.022-.301.048-.6.072-.9a117.24 117.24 0 0 1 .492-4.825c.096-.792.205-1.581.317-2.37.148-1.038.309-2.071.484-3.1.079-.469.159-.938.243-1.406.153-.837.311-1.673.481-2.504.014-.067.029-.133.042-.2 10.181-49.28 50.887-87.533 101.397-94.037l.384-.048c.809-.102 1.622-.194 2.436-.279.216-.022.432-.045.649-.066.73-.072 1.463-.137 2.196-.196.27-.022.54-.044.81-.064.689-.051 1.38-.093 2.071-.132.299-.017.598-.036.897-.05a121.61 121.61 0 0 1 2.1-.08c.279-.009.558-.021.838-.028.971-.023 1.945-.037 2.922-.037s1.951.014 2.922.037c.28.007.558.02.838.028.701.022 1.402.046 2.1.08.299.015.598.034.897.05a117.375 117.375 0 0 1 2.881.196 113.307 113.307 0 0 1 2.845.262c.814.085 1.627.178 2.436.279l.384.048c50.51 6.503 91.215 44.755 101.396 94.036z"/></svg>