<svg xmlns="http://www.w3.org/2000/svg" viewBox="0 0 512 512" style="enable-background:new 0 0 512 512" xml:space="preserve"><path style="fill:#e3aa75" d="m413.861 374.103-84.486-24.849a24.048 24.048 0 0 1-17.263-23.071v-38.119H199.886v38.119a24.048 24.048 0 0 1-17.263 23.071l-84.486 24.849c-20.469 6.02-34.525 24.806-34.525 46.142V504.5h384.774v-84.254c0-21.336-14.056-40.122-34.525-46.143z"/><path style="fill:#a5cdff" d="m413.861 374.103-80.876-23.787c-9.626 33.475-40.415 57.99-76.986 57.99s-67.36-24.516-76.986-57.99l-80.876 23.787c-20.469 6.02-34.525 24.806-34.525 46.142V504.5h384.774v-84.254c0-21.337-14.056-40.122-34.525-46.143z"/><path style="fill:#d29b6e" d="M199.886 321.984c16.841 8.996 35.939 14.176 56.113 14.176s39.272-5.18 56.113-14.176v-25.905H199.886v25.905z"/><path style="fill:#f5b97d" d="M372.233 175.839h-12.024v-40.081h-208.42v40.081h-12.024c-11.068 0-20.04 8.972-20.04 20.04s8.972 20.04 20.04 20.04h12.429c4.106 53.795 48.958 96.194 103.805 96.194s99.699-42.398 103.805-96.194h12.429c11.068 0 20.04-8.973 20.04-20.04 0-11.068-8.972-20.04-20.04-20.04z"/><path style="fill:#e3aa75" d="M151.789 135.757v40.081h-10.881c-10.483 0-20.035 7.542-21.079 17.973-1.201 11.996 8.186 22.108 19.936 22.108h12.429c4.106 53.795 48.957 96.194 103.805 96.194v-8.13c-37.632-15.708-64.129-52.751-64.129-96.08 0-22.136 17.945-40.081 40.081-40.081h72.145c13.282 0 24.048-10.767 24.048-24.048v-8.016l-176.355-.001z"/><path style="fill:#ffe17d" d="M246.984 13.63 77.132 129.128c-6.527 4.438-3.386 14.645 4.508 14.645h348.718c7.893 0 11.035-10.206 4.508-14.645L265.014 13.63a16.034 16.034 0 0 0-18.03 0z"/><path style="fill:#ffd164" d="m185.441 128.759 75.601-117.031c-4.663-1.55-9.86-.953-14.058 1.901L77.132 129.128c-6.527 4.439-3.386 14.645 4.508 14.645h105.831c-3.555 0-4.97-10.464-2.03-15.014z"/><path style="fill:#5a4650" d="m146.791 178.498-11.033 1.395v-36.12h32.065v10.866c-.001 12.116-9.013 22.338-21.032 23.859zM365.207 178.498l11.034 1.395v-36.12h-32.065v10.866c0 12.116 9.012 22.338 21.031 23.859z"/><path style="fill:#e3aa75" d="M272.031 272.032h-32.065c-8.854 0-16.032-7.178-16.032-16.032v-24.048h64.129V256c.001 8.854-7.177 16.032-16.032 16.032z"/><path style="fill:#8cb4eb" d="M255.999 440.371c51.136 0 94.202-34.235 107.735-81.011l-30.749-9.044c-9.626 33.475-40.414 57.99-76.986 57.99s-67.36-24.516-76.986-57.99l-30.749 9.044c13.533 46.775 56.599 81.011 107.735 81.011z"/><path style="fill:#5a4650" d="M255.999 231.951h-24.048c-13.282 0-24.048 10.767-24.048 24.048h24.048c13.281 0 24.048-10.767 24.048-24.048"/><path style="fill:#5a4650" d="M255.999 231.951h24.048c13.282 0 24.048 10.767 24.048 24.048h-24.048c-13.281 0-24.048-10.767-24.048-24.048"/><path d="M460.62 137.572 260.217 1.298a7.505 7.505 0 0 0-8.436 0L51.378 137.572a7.5 7.5 0 0 0 4.218 13.702h72.661v19.931c-8.63 4.115-14.929 12.266-15.891 21.858-.778 7.771 1.763 15.53 6.973 21.288a27.594 27.594 0 0 0 20.427 9.067h5.598c4.398 31.522 22.003 58.87 47.022 76.264v26.5c0 7.29-4.885 13.818-11.879 15.876l-78.731 23.156c-26.886 7.907-45.663 33.003-45.663 61.028V504.5c0 4.143 3.357 7.5 7.5 7.5s7.5-3.357 7.5-7.5v-78.256c0-21.417 14.35-40.595 34.896-46.638l37.287-10.967c7.959 22.206 22.146 41.349 41.246 55.577 18.763 13.977 40.741 21.979 63.958 23.402V504.5c0 4.143 3.357 7.5 7.5 7.5s7.5-3.357 7.5-7.5v-56.882c23.468-1.436 45.646-9.587 64.533-23.833 18.55-13.992 32.805-33.411 40.646-55.153l37.312 10.974c20.546 6.043 34.896 25.221 34.896 46.638V504.5c0 4.143 3.357 7.5 7.5 7.5s7.5-3.357 7.5-7.5v-78.256c0-28.025-18.777-53.121-45.663-61.028l-78.731-23.156c-6.994-2.058-11.879-8.586-11.879-15.876v-26.511c25.013-17.396 42.617-44.741 47.019-76.253h4.461c14.615 0 27.152-10.861 28.54-24.727.778-7.771-1.764-15.529-6.974-21.287a27.549 27.549 0 0 0-8.917-6.533v-19.598h72.661a7.5 7.5 0 0 0 4.216-13.703zm-300.299 13.701v8.532c0 4.705-3.827 8.532-8.532 8.532h-8.532v-17.064h17.064zM323.51 355.052a73.039 73.039 0 0 1-15.623 23.958 7.501 7.501 0 0 0 5.355 12.751 7.476 7.476 0 0 0 5.355-2.249 88.085 88.085 0 0 0 19.247-29.948l16.412 4.827c-6.919 18.679-19.26 35.352-35.258 47.418-18.267 13.778-40.052 21.062-63.001 21.062-22.722 0-44.333-7.152-62.497-20.684-16.226-12.088-28.783-28.924-35.77-47.794l16.427-4.831c5.904 15.31 16.181 28.95 29.387 38.826 15.237 11.396 33.375 17.419 52.453 17.419 12.188 0 23.986-2.456 35.068-7.299a7.5 7.5 0 0 0 3.868-9.876 7.499 7.499 0 0 0-9.876-3.868c-9.175 4.01-18.952 6.043-29.061 6.043-30.12 0-56.585-18.167-67.519-45.751 11.296-4.973 18.906-16.319 18.906-28.872v-17.717a110.888 110.888 0 0 0 41.113 10.894v24.817c0 4.143 3.357 7.5 7.5 7.5s7.5-3.357 7.5-7.5V319.36a110.848 110.848 0 0 0 41.113-10.901v17.724c.003 12.551 7.61 23.895 18.901 28.869zm45.231-186.713h-8.532c-4.705 0-8.532-3.827-8.532-8.532v-8.532h17.064v17.064zm-152.823-32.066c-4.143 0-7.5 3.357-7.5 7.5s3.357 7.5 7.5 7.5h120.759v8.532c0 12.976 10.557 23.532 23.532 23.532h12.023c3.537 0 6.928 1.506 9.304 4.131 2.406 2.659 3.532 6.114 3.17 9.729-.63 6.292-6.609 11.221-13.614 11.221H367.705v-.438a7.5 7.5 0 0 0-7.497-7.5h-.003a7.5 7.5 0 0 0-7.5 7.494c-.037 50.764-39.409 92.509-89.206 96.35v-8.243c0-4.143-3.357-7.5-7.5-7.5a7.499 7.499 0 0 0-7.5 7.5v8.243c-49.835-3.84-89.21-45.619-89.21-96.421 0-4.143-3.357-7.5-7.5-7.5s-7.5 3.357-7.5 7.5v.516h-4.523a12.571 12.571 0 0 1-9.304-4.131c-2.406-2.66-3.532-6.115-3.17-9.729.63-6.292 6.611-11.221 13.617-11.221h10.88c12.976 0 23.532-10.557 23.532-23.532v-8.532h8.53c4.143 0 7.5-3.357 7.5-7.5s-3.357-7.5-7.5-7.5H79.963L255.999 16.569l176.036 119.705H215.918z"/><path d="M200.402 255.999v16.032c0 4.143 3.357 7.5 7.5 7.5s7.5-3.357 7.5-7.5V263.5h16.548c9.628 0 18.257-4.34 24.049-11.161 5.792 6.821 14.42 11.161 24.049 11.161h16.548v8.532c0 4.143 3.357 7.5 7.5 7.5s7.5-3.357 7.5-7.5V256c0-17.396-14.152-31.549-31.548-31.549H231.95c-17.395 0-31.548 14.153-31.548 31.548zm79.646-16.548c6.427 0 12.01 3.683 14.749 9.049h-14.749c-6.427 0-12.01-3.683-14.75-9.049h14.75zm-48.098 0h14.75c-2.74 5.366-8.323 9.049-14.75 9.049h-14.749c2.739-5.367 8.322-9.049 14.749-9.049zM192.386 183.854c0 4.143 3.357 7.5 7.5 7.5h16.032c4.143 0 7.5-3.357 7.5-7.5s-3.357-7.5-7.5-7.5h-16.032a7.5 7.5 0 0 0-7.5 7.5zM296.08 191.354h16.032c4.143 0 7.5-3.357 7.5-7.5s-3.357-7.5-7.5-7.5H296.08c-4.143 0-7.5 3.357-7.5 7.5s3.357 7.5 7.5 7.5z"/></svg>