<svg height="511pt" viewBox="-36 0 511 511.995" width="511pt" xmlns="http://www.w3.org/2000/svg"><path d="M230.371 385.191h-19.7c-62.628 0-120.19 35.567-147.097 92.121a227.78 227.78 0 0 0-10.828 27.168H388.32a228.789 228.789 0 0 0-9.746-24.859c-26.644-57.7-84.648-94.43-148.203-94.43zm0 0" fill="#ff7ab8"/><path d="M388.32 504.48h-25.168a228.79 228.79 0 0 0-9.746-24.859c-26.222-56.797-82.844-93.277-145.226-94.402.824-.02 1.656-.028 2.488-.028h19.7c63.554 0 121.566 36.727 148.198 94.43a227.515 227.515 0 0 1 9.754 24.86zm0 0" fill="#ff5ca8"/><path d="M217.7 449.348h5.671c18.024 0 34.59-10.235 42.332-26.512a65.885 65.885 0 0 0 3.117-7.82h-96.574a65.155 65.155 0 0 0 2.805 7.156c7.668 16.605 24.36 27.176 42.648 27.176zm0 0" fill="#ffbfab"/><path d="M47.137 199.277c0-95.765 77.633-173.398 173.398-173.398s173.399 77.633 173.399 173.398l-.012 45.907v44.25c0 68.984-55.445 124.996-124.086 125.57-.363.012-.719.012-1.082.012h-96.445c-.356 0-.72 0-1.075-.012-68.629-.574-124.097-56.586-124.097-125.57zm0 0" fill="#ffcebf"/><path d="m393.938 199.277-.012 45.903v44.257c0 68.977-55.446 124.997-124.094 125.567-.36.012-.71.012-1.082.012h-24.309c.36 0 .711 0 1.082-.012 68.637-.57 124.082-56.59 124.082-125.566V245.18l.012-45.903c0-91.675-71.144-166.738-161.234-172.972 4.02-.282 8.07-.422 12.152-.422 95.762 0 173.403 77.629 173.403 173.394zm0 0" fill="#ffbfab"/><path d="M47.137 208.129h-2.188c-20.398 0-36.93 16.59-36.93 37.055 0 20.46 16.532 37.05 36.93 37.05h2.188zm0 0" fill="#ffcebf"/><path d="M393.926 208.129h2.191c20.395 0 36.93 16.59 36.93 37.055 0 20.46-16.535 37.05-36.93 37.05h-2.191zm0 0" fill="#ffbfab"/><path d="M393.012 173.008c-.91-9.801-2.34-26.824-4.664-36.274-5.45-22.132-15.301-43.109-28.996-61.398C300.75-2.973 180.355-15.738 106.203 48.922c-26.402 23.039-45.11 53.98-53.48 87.812-3.934 15.899-5.25 54.36-5.875 71.817a19.666 19.666 0 0 0 5.34 14.191c6.593 6.988 16.433 11.414 26.398 11.414 10.527 0 19.906-4.945 25.945-12.633a3 3 0 0 1 4.75.004c6.035 7.684 15.41 12.63 25.934 12.63 10.539 0 19.914-4.946 25.95-12.63a2.997 2.997 0 0 1 4.75 0c6.03 7.684 15.405 12.63 25.944 12.63s19.914-4.946 25.95-12.63a2.993 2.993 0 0 1 4.746 0c6.035 7.684 15.41 12.63 25.949 12.63 10.527 0 19.902-4.946 25.934-12.63a3.003 3.003 0 0 1 4.753-.004c6.04 7.688 15.414 12.633 25.942 12.633 10.539 0 19.914-4.945 25.949-12.633a3.002 3.002 0 0 1 4.75 0c6.031 7.688 15.406 12.633 25.945 12.633 10.145 0 20.164-4.582 26.758-11.804.406-.446.8-.895 1.18-1.36 3.148-3.836 4.695-8.738 4.484-13.699-.254-6.086-.62-28.176-1.187-34.285zm0 0" fill="#7c7b7b"/><path d="M394.203 207.29c.207 4.956-1.344 9.87-4.496 13.702-.375.465-.77.914-1.168 1.356-6.594 7.226-16.617 11.808-26.762 11.808h-.21c.265-.265.519-.531.761-.793.395-.441.793-.894 1.176-1.355 3.152-3.832 4.695-8.746 4.484-13.703-.254-6.09-.617-12.215-1.187-18.328-.906-9.793-2.336-42.782-4.66-52.23-5.454-22.13-15.309-43.11-29-61.395-44.95-60.059-126.246-81.57-195.153-59.145C211.29-11.18 308.555 7.445 359.352 75.34c13.691 18.281 23.55 39.265 28.992 61.39 2.332 9.454 3.754 26.48 4.668 36.274.562 6.113.937 28.195 1.191 34.285zm0 0" fill="#727272"/><path d="M140.672 307.398c0 9.954-8.07 18.028-18.027 18.028s-18.028-8.074-18.028-18.028c0-9.957 8.07-18.03 18.028-18.03s18.027 8.073 18.027 18.03zM336.45 307.398c0 9.954-8.071 18.028-18.028 18.028s-18.027-8.074-18.027-18.028c0-9.957 8.07-18.03 18.027-18.03s18.027 8.073 18.027 18.03zm0 0" fill="#ff9a9a"/><path d="M341.043 160.516c19.98-6.043 29.094-25.516 31.844-44.782 3.078-21.558 3.57-46.37-2.242-67.445-4.243-15.387-13.743-29.02-29.602-33.816 0 0-47.273-14.04-91.273 43.066v59.914c44 57.102 91.273 43.063 91.273 43.063zm0 0" fill="#ffc1de"/><path d="M372.883 115.734c-2.746 19.266-11.86 38.743-31.836 44.778 0 0-9.473 2.816-23.89.793 2.476-.39 3.84-.793 3.84-.793 19.98-6.035 29.093-25.512 31.839-44.778 3.078-21.554 3.566-46.363-2.246-67.445-4.242-15.387-13.742-29.023-29.594-33.812 0 0-1.363-.403-3.84-.793 14.418-2.024 23.89.793 23.89.793 15.86 4.793 25.352 18.425 29.602 33.812 5.805 21.082 5.313 45.89 2.235 67.445zm0 0" fill="#ffa4cf"/><path d="M100.02 160.516C80.043 154.473 70.93 135 68.176 115.734c-3.078-21.558-3.57-46.37 2.242-67.445 4.242-15.387 13.746-29.02 29.602-33.816 0 0 47.277-14.04 91.277 43.066v59.914c-44 57.102-91.277 43.063-91.277 43.063zm0 0" fill="#ffc1de"/><path d="M229.516 124.863h-18.403c-15.34 0-27.89-12.55-27.89-27.89V79.539c0-15.34 12.55-27.89 27.89-27.89h18.403c15.343 0 27.894 12.55 27.894 27.89v17.434c0 15.34-12.55 27.89-27.894 27.89zm0 0" fill="#ff7ab8"/><path d="M257.41 79.535V96.97c0 15.344-12.55 27.894-27.898 27.894h-18.395c-.281 0-.558 0-.84-.02 14.953-.44 27.047-12.808 27.047-27.874V79.535c0-15.058-12.09-27.426-27.047-27.867.282-.02.559-.02.84-.02h18.395c15.351 0 27.898 12.551 27.898 27.887zm0 0" fill="#ff5ca8"/><path d="M148.785 248.355a7.517 7.517 0 0 0-7.515 7.52v18.473a7.517 7.517 0 1 0 15.035 0v-18.473a7.52 7.52 0 0 0-7.52-7.52zM292.277 248.355a7.517 7.517 0 0 0-7.515 7.52v18.473a7.517 7.517 0 1 0 15.035 0v-18.473a7.52 7.52 0 0 0-7.52-7.52zM242.32 324.578c-3.28-2.543-8.007-1.937-10.547 1.348-2.656 3.433-6.664 5.402-10.996 5.402-4.332 0-8.34-1.969-10.996-5.402-2.539-3.281-7.261-3.883-10.547-1.344-3.28 2.54-3.882 7.262-1.343 10.547 5.527 7.14 13.867 11.234 22.886 11.234 9.024 0 17.368-4.097 22.891-11.242a7.515 7.515 0 0 0-1.348-10.543zm0 0"/><path d="M439.46 235.273c-4.222-18.625-19.433-32.113-37.937-34.332-.03-1.23-.066-2.554-.101-3.945-.531-20.781-.75-41.644-5.774-62.062-3.101-12.598-7.64-24.926-13.418-36.598 1.012-15.996.457-34.656-4.34-52.047-5.53-20.066-17.847-33.922-34.706-39.02-1.414-.421-24.04-6.757-52.688 6.5-16.027-6.496-33.156-10.828-50.89-12.71-31.07-3.293-61.919 1.164-89.653 12.421C121.593.594 99.27 6.855 97.843 7.277 87.415 10.434 78.47 17.164 71.98 26.75c-2.324 3.438-1.425 8.113 2.016 10.438a7.512 7.512 0 0 0 10.438-2.012c4.593-6.79 10.57-11.332 17.683-13.485 1.703-.48 41.297-11.003 80.442 36.938a35.31 35.31 0 0 0-4.407 7.996c-7.226-3.813-17.625-8.5-28.09-10.48-4.082-.77-8.015 1.91-8.785 5.988a7.516 7.516 0 0 0 5.989 8.785c11.086 2.098 22.636 8.176 28.437 11.547V92.52c-5.8 3.37-17.351 9.449-28.437 11.546a7.516 7.516 0 0 0-5.989 8.786c.68 3.605 3.836 6.12 7.38 6.12.46 0 .933-.042 1.405-.132 10.243-1.938 20.41-6.469 27.618-10.235a35.296 35.296 0 0 0 4.3 8.461c-38.953 47.137-78.168 36.704-79.785 36.246-19.148-5.789-24.87-26.695-26.574-38.644-2.574-18.016-2.863-35.344-.84-50.117.567-4.114-2.312-7.903-6.426-8.469-4.113-.559-7.906 2.313-8.468 6.426-1.715 12.515-1.73 25.02-1.043 35.941-5.774 11.625-10.305 23.875-13.422 36.473-2.649 10.715-4.145 30.625-5.047 48.2a.074.074 0 0 0-.031.007c-.477 5.32-.727 17.254-.727 17.809C17.613 203.59.497 222.41.497 245.18c0 22.765 17.116 41.586 39.12 44.25 0 35.343 13.668 68.629 38.485 93.722 10.25 10.368 21.914 18.832 34.546 25.223-24.07 16.738-43.3 39.29-55.867 65.703a236.331 236.331 0 0 0-11.183 28.067c-.75 2.289-.356 4.796 1.058 6.746s3.68 3.105 6.086 3.105h335.574a7.525 7.525 0 0 0 6.086-3.105 7.506 7.506 0 0 0 1.059-6.746 236.948 236.948 0 0 0-10.066-25.68c-12.844-27.817-32.82-51.05-57.165-67.996 12.707-6.403 24.434-14.899 34.735-25.317 24.808-25.093 38.472-58.379 38.472-93.722v-.02c10.465-1.273 20.254-6.254 27.446-14.117a7.517 7.517 0 0 0-.477-10.621 7.52 7.52 0 0 0-10.62.473 29.493 29.493 0 0 1-16.34 9.074V216.12c11.445 2.074 20.687 10.734 23.347 22.469a7.517 7.517 0 0 0 8.992 5.672 7.511 7.511 0 0 0 5.676-8.989zM39.618 274.23c-13.68-2.527-24.082-14.59-24.082-29.046 0-14.461 10.399-26.524 24.082-29.051zm299.25-252.558c15.793 4.777 22.149 19.98 24.531 28.617 6.122 22.195 4.493 47.262 2.047 64.383-1.703 11.937-7.418 32.82-26.523 38.629-2.047.57-41.227 10.719-80.07-36.516a35.334 35.334 0 0 0 4.168-8.367c7.222 3.8 17.566 8.453 27.98 10.426.477.086.945.129 1.41.129a7.514 7.514 0 0 0 7.375-6.121c.774-4.079-1.91-8.012-5.988-8.786-11.367-2.148-23.227-8.488-28.871-11.796v-9.555c5.625-3.305 17.453-9.633 28.87-11.793a7.517 7.517 0 0 0 5.99-8.785A7.51 7.51 0 0 0 291 56.148c-10.64 2.012-21.207 6.825-28.445 10.668a35.414 35.414 0 0 0-4.282-7.902c39.223-48.266 78.965-37.703 80.594-37.242zM166.95 23.27c22.418-7.247 46.664-9.844 71.07-7.258a174.16 174.16 0 0 1 35.598 7.613c-8.699 6.191-17.656 14.398-26.512 25.2a35.191 35.191 0 0 0-17.59-4.696h-18.402a35.184 35.184 0 0 0-17.285 4.523c-8.984-10.925-18.066-19.18-26.879-25.382zM190.402 94c-.101-5.555-.207-11.73.551-17.25 1.367-9.914 9.875-17.586 20.16-17.586h18.403c8.87 0 16.285 5.973 19.324 14.121 2.652 7.098 1.05 15.75 1.05 23.262v.426c0 11.23-9.14 20.37-20.374 20.37h-18.403c-5.863 0-11.523-2.597-15.367-7.023-4.215-4.855-5.238-10.492-5.344-16.32zm181.344 388.773a219.99 219.99 0 0 1 5.953 14.192H63.367a217.917 217.917 0 0 1 6.996-16.422c12.547-26.371 32.375-48.543 57.344-64.121.547-.34 1.106-.66 1.656-.992 11.996 4.101 24.633 6.46 37.598 6.972.402.985.82 1.965 1.262 2.922 8.847 19.16 28.27 31.543 49.476 31.543h5.672c20.938 0 40.219-12.09 49.121-30.805a68.638 68.638 0 0 0 1.61-3.66c12.89-.511 25.457-2.84 37.394-6.902 25.883 15.73 47.14 38.887 60.25 67.273zm-188.023-60.238h73.636c-6.949 11.82-19.945 19.293-33.988 19.293H217.7c-14.02 0-26.96-7.457-33.976-19.293zM386.41 234.578l-.008 54.856c0 31.363-12.12 60.89-34.129 83.152-21.992 22.246-51.293 34.637-82.5 34.898-.062.004-.12.004-.18.008-.28.008-.562.008-.843.008h-96.445c-.27 0-.551 0-.82-.008-.063-.004-.126-.004-.188-.008-31.207-.261-60.504-12.656-82.504-34.898-22.016-22.262-34.14-51.793-34.14-83.152v-54.965c7.105 4.597 15.538 7.207 23.933 7.207 10.719 0 20.781-4.156 28.316-11.555 7.528 7.399 17.59 11.555 28.313 11.555 10.726 0 20.793-4.156 28.32-11.555 7.531 7.399 17.594 11.555 28.324 11.555 10.727 0 20.793-4.156 28.32-11.555 7.528 7.399 17.594 11.555 28.321 11.555 10.723 0 20.785-4.156 28.312-11.555 7.536 7.399 17.598 11.555 28.32 11.555 10.727 0 20.794-4.156 28.321-11.555 7.527 7.399 17.594 11.555 28.32 11.555 8.711 0 17.407-2.781 24.637-7.664zm-2.508-18.36c-.293.356-.593.704-.922 1.063-5.27 5.77-13.394 9.356-21.207 9.356-7.863 0-15.164-3.555-20.03-9.754a10.472 10.472 0 0 0-8.29-4.043c-3.25 0-6.273 1.472-8.289 4.043-4.863 6.199-12.168 9.754-20.031 9.754-7.856 0-15.16-3.555-20.031-9.758-2.02-2.57-5.04-4.043-8.29-4.043a10.493 10.493 0 0 0-8.289 4.047c-4.867 6.199-12.164 9.754-20.023 9.754-7.863 0-15.164-3.555-20.031-9.754-2.016-2.57-5.04-4.043-8.29-4.043s-6.269 1.472-8.288 4.043c-4.864 6.199-12.164 9.754-20.032 9.754-7.863 0-15.168-3.555-20.03-9.758-2.02-2.567-5.04-4.04-8.29-4.04s-6.27 1.473-8.289 4.044c-4.867 6.199-12.168 9.754-20.031 9.754-7.86 0-15.157-3.555-20.024-9.754a10.488 10.488 0 0 0-8.289-4.047 10.47 10.47 0 0 0-8.285 4.043c-4.875 6.203-12.18 9.758-20.035 9.758-7.64 0-15.66-3.469-20.926-9.047-3.598-3.813-3.008-9.29-3.008-14.14-.03-.013-.062-.024-.097-.032.664-17.961 2.09-51.242 5.465-64.879.878-3.55 1.882-7.062 3-10.539 5.558 20.594 17.671 34.523 34.875 39.727.699.207 6.617 1.859 15.902 1.859 18.156 0 49.176-6.36 79.16-42.227a35.217 35.217 0 0 0 18.156 5.024h18.403a35.2 35.2 0 0 0 18.445-5.196c30.023 36.024 61.055 42.418 79.246 42.418 9.324 0 15.273-1.675 15.977-1.882l.035-.012c17.164-5.191 29.273-19.129 34.832-39.734a161.79 161.79 0 0 1 2.996 10.55c2 8.13 3.351 22.868 4.242 32.621l.238 2.555c.356 3.84.649 15.305.864 23.676.156 6.152 1.765 13.66-2.489 18.84zm0 0"/></svg>