<svg height="512" viewBox="0 0 128 128" width="512" xmlns="http://www.w3.org/2000/svg"><path d="M115.5 115.5h-103c0-11.2 9.1-20.2 20.3-20.3h62.5c11.1 0 20.2 9.1 20.2 20.3z" fill="#6740aa"/><path d="M109.6 101.2c-3.8-3.8-8.9-5.9-14.3-5.9H52.8l-.8 10.1s4.9 8.6 16.9 10.1h46.7c-.1-5.4-2.2-10.5-6-14.3z" fill="#3b237d"/><path d="M34.5 72.5h59v20.3c0 7-5.6 12.6-12.6 12.6H47.1c-7 0-12.6-5.6-12.6-12.6z" fill="#fdb73c"/><path d="M64 105.4h16.9c7 0 12.6-5.6 12.6-12.6V72.5H64z" fill="#e67b2a"/><path d="M38 81.7c0 3.7 3 6.7 6.7 6.7V75C41 75 38 78 38 81.7z" fill="#38ca46"/><path d="M90 81.7c0 3.7-3 6.7-6.7 6.7V75c3.7 0 6.7 3 6.7 6.7z" fill="#229a32"/><path d="M44.7 70.9h38.7v19.3c0 10.7-8.7 19.3-19.3 19.3-10.7 0-19.3-8.7-19.3-19.3V70.9z" fill="#38ca46"/><path d="m64 12.5 20.7 19.1-15.2-2.5z" fill="#6740aa"/><path d="M57.1 97.7c-1 0-1.7-.8-1.7-1.8 0-.3.1-.6.2-.9l5.1-9c.5-.8 1.5-1.1 2.4-.7.8.5 1.1 1.5.7 2.4l-3.3 5.9 3.3-.5c1-.2 1.9.5 2 1.4.2 1-.5 1.9-1.4 2l-6.9 1.1c-.2.1-.3.1-.4.1z" fill="#112d34"/><g fill="#fdb73c"><path d="M37.1 29c-1 0-1.8-.8-1.8-1.8v-2.5c0-1 .8-1.8 1.8-1.8s1.8.8 1.8 1.8v2.5c0 1-.8 1.8-1.8 1.8z"/><path d="M42.3 31.7h-2.5c-1 0-1.8-.8-1.8-1.8s.8-1.8 1.8-1.8h2.5c1 0 1.8.8 1.8 1.8s-.8 1.8-1.8 1.8z"/><path d="M37.1 36.9c-1 0-1.8-.8-1.8-1.8v-2.5c0-1 .8-1.8 1.8-1.8s1.8.8 1.8 1.8v2.5c0 1-.8 1.8-1.8 1.8z"/><path d="M34.4 31.7h-2.5c-1 0-1.8-.8-1.8-1.8s.8-1.8 1.8-1.8h2.5c1 0 1.8.8 1.8 1.8s-.8 1.8-1.8 1.8zM96.3 51.9c-1 0-1.8-.8-1.8-1.7v-2.4c0-1 .8-1.8 1.8-1.8s1.8.8 1.8 1.8v2.4c-.1.9-.9 1.7-1.8 1.7z"/><path d="M101.5 54.6H99c-1 0-1.8-.8-1.8-1.8S98 51 99 51h2.5c1 0 1.8.8 1.8 1.8s-.9 1.8-1.8 1.8z"/><path d="M96.3 59.8c-1 0-1.8-.8-1.8-1.8v-2.5c0-1 .8-1.8 1.8-1.8s1.8.8 1.8 1.8V58c-.1 1-.9 1.8-1.8 1.8z"/><path d="M93.5 54.6H91c-1 0-1.8-.8-1.8-1.8S90 51 91 51h2.5c1 0 1.8.8 1.8 1.8s-.8 1.8-1.8 1.8z"/></g><path d="M36.3 107.5v8h-3.5v-8c0-1 .8-1.8 1.8-1.8s1.7.8 1.7 1.8z" fill="#3b237d"/><path d="M95.2 107.5v8h-3.5v-8c0-1 .8-1.8 1.8-1.8s1.7.8 1.7 1.8z" fill="#6740aa"/><path d="M64 109.6c10.7 0 19.3-8.7 19.3-19.3V73.7c-20.3 0-34.6-3-38.7 4.7 6.5 1.6 13.1 2.9 19.8 3.6 7.2.8 12.4 7.3 11.6 14.6-.2 1.4-.5 2.7-1.1 4-2 4.5-6 7.9-10.9 9z" fill="#229a32"/><ellipse cx="64" cy="72.5" fill="#3b237d" rx="39.8" ry="6.7"/><path d="M83.3 70.9s-5.9 1.6-19.3 1.6c-13 0-19.3-1.6-19.3-1.6L64 12.5z" fill="#6740aa"/><path d="M64 12.5v56.6s7.1 1.5 10.8 1.8c2.8.2 5.7.2 8.5 0z" fill="#3b237d"/><path d="M64 63.5c5.5 0 10.9-.6 16.2-2l-1.7-5.1c-4.8 1.1-9.6 1.6-14.5 1.5-4.9 0-9.7-.5-14.5-1.5l-1.7 5.1c5.3 1.3 10.7 2 16.2 2z" fill="#fbccbb"/><path d="M58.1 55h11.8v11.2H58.1z" fill="#fdb73c"/><path d="M84.7 31.6 66.8 21.1l2.7 8z" fill="#3b237d"/><path d="m80.2 61.5-1.7-5.1c-4.8 1.1-9.6 1.6-14.5 1.5v5.5c5.5.1 10.9-.5 16.2-1.9z" fill="#f8bda2"/><path d="M64 55h5.9v11.2H64z" fill="#e67b2a"/><path d="M95.3 93.5v-15c6-1.3 10.3-3.2 10.3-6 0-2.1-1.7-4.8-15.3-6.8-1-.1-1.8.5-2 1.5-.1.9.5 1.8 1.5 2 9 1.3 11.5 2.8 12.1 3.4-1.4 1.2-8.6 3.6-24.9 4.6-1 0-1.7.8-1.7 1.8s.8 1.7 1.8 1.7h.1c1.4-.1 2.9-.2 4.4-.3v10c0 9.7-7.9 17.6-17.6 17.6s-17.6-8-17.6-17.7v-5.2c0-1-.8-1.8-1.8-1.8s-1.8.8-1.8 1.8v1.3c-2.6-.9-3.9-3.8-2.9-6.3.1-.1.1-.3.2-.4 8 .8 15.9 1.2 23.9 1.3 1 0 1.8-.8 1.8-1.8s-.8-1.7-1.8-1.7c-13.1 0-22.8-1-29.1-2.2h-.1c-5-.9-7.9-2-8.8-2.8 1-.9 5.5-2.8 17.6-4l-.6 1.9c-.3.9.2 1.9 1.1 2.2h.1c.3.1 6.7 1.6 19.7 1.6 13.5 0 19.5-1.5 19.8-1.6.9-.2 1.5-1.2 1.2-2.1v-.1l-17.2-52L79.2 29l-2.9-.5c-1-.2-1.9.5-2 1.4-.2 1 .5 1.9 1.4 2l8.6 1.4c1 .2 1.9-.5 2-1.4.1-.6-.1-1.2-.6-1.6L65.2 11.2l-.1-.1s-.1 0-.1-.1c-.1-.1-.3-.2-.4-.2h-.1c-.1 0-.3-.1-.5-.1s-.3 0-.5.1h-.1c-.3.1-.5.2-.7.5 0 0 0 .1-.1.1s0 .1-.1.1c-.1.1-.2.3-.2.4l-4.5 13.5c-.3.9.2 1.9 1.1 2.2s1.9-.2 2.2-1.1l2.8-8.5 12.2 37c-1.5.3-3 .5-4.6.7V55c0-1-.8-1.8-1.8-1.8H58.1c-1 0-1.8.8-1.8 1.8v.7c-1.6-.2-3.1-.4-4.6-.7l4.8-14.7c.3-.9-.2-1.9-1.1-2.2s-1.9.2-2.2 1.1l-8.4 25.5c-22.4 2-22.4 6.2-22.4 7.6 0 2.8 4.4 4.7 10.4 6v15h-.1c-12.1 0-22 9.9-22 22 0 1 .8 1.8 1.8 1.8s1.8-.8 1.8-1.8c0-10.2 8.3-18.5 18.5-18.5h.7c1.9 6 7.4 10.1 13.7 10.1h4.3c9.3 7 22.5 5.1 29.5-4.2 2.7-3.7 4.2-8.1 4.2-12.7 3.6-.8 6.2-3.7 6.7-7.3v10c0 4.7-3 8.9-7.5 10.3-.9.3-1.4 1.3-1.1 2.2s1.3 1.4 2.2 1.1c4.5-1.4 7.9-5 9.3-9.4h.7c10.2 0 18.5 8.3 18.5 18.5 0 1 .8 1.8 1.8 1.8s1.8-.8 1.8-1.8c-.4-12-10.2-21.9-22.3-21.9zM64 70.7c-5.7.1-11.4-.3-17-1.2l.7-2.1c.2-.3.3-.6.3-1l1-2.9c2.4.6 4.9 1 7.4 1.2v1.4c0 1 .8 1.8 1.8 1.8H70c1 0 1.8-.8 1.8-1.8v-1.4c2.5-.3 5-.7 7.4-1.2l2 6c-5.8.9-11.5 1.3-17.2 1.2zm13.3-12.3.6 1.8c-2.1.5-4.2.8-6.3 1v-2c2-.1 3.9-.4 5.7-.8zm-17.4-1.6h8.3v7.7h-8.3zm-3.5 2.5v2c-2.1-.2-4.2-.6-6.3-1l.6-1.8c1.8.3 3.7.6 5.7.8zM36.6 79.1c-.2.6-.3 1.2-.3 1.8V79c.1.1.2.1.3.1zm-.3 13.7V82.7c.4 3.6 3.1 6.5 6.7 7.3v.2c0 4.9 1.7 9.6 4.8 13.4h-.6c-6.1 0-10.9-4.8-10.9-10.8zm48.8-6.4V80l2.7-.3c1.2 2.5.1 5.4-2.4 6.6-.1 0-.2 0-.3.1zm6.3-7.2.3-.1V81c0-.7-.1-1.3-.3-1.8z"/><path d="M70.9 77.4h-1.1c-1 0-1.7.8-1.7 1.8s.8 1.7 1.8 1.7H71c1 0 1.7-.8 1.7-1.8.1-1-.7-1.8-1.8-1.7zM56.6 35c.9.3 1.9-.2 2.2-1.1l.3-1c.3-.9-.2-1.9-1.1-2.2s-1.9.2-2.2 1.1l-.3 1c-.4.9.1 1.9 1.1 2.2zM63.1 85.4c-.8-.5-1.9-.2-2.4.7l-5.1 9c-.5.8-.2 1.9.7 2.4.3.2.7.3 1.1.2l6.9-1.1c1-.1 1.6-1 1.5-2s-1-1.6-2-1.5l-3.3.5 3.3-5.9c.4-.8.1-1.8-.7-2.3zM37.1 29c1 0 1.8-.8 1.8-1.8v-2.5c0-1-.8-1.8-1.8-1.8s-1.8.8-1.8 1.8v2.5c.1 1 .9 1.8 1.8 1.8zM38.1 30c0 1 .8 1.8 1.8 1.8h2.5c1 0 1.8-.8 1.8-1.8s-.8-1.8-1.8-1.8h-2.5c-1 0-1.8.8-1.8 1.8zM37.1 31c-1 0-1.8.8-1.8 1.8v2.5c0 1 .8 1.8 1.8 1.8s1.8-.8 1.8-1.8v-2.5c0-1-.8-1.8-1.8-1.8z"/><path d="M31.9 31.7h2.5c1 0 1.8-.8 1.8-1.8s-.8-1.8-1.8-1.8h-2.5c-1 0-1.8.8-1.8 1.8s.9 1.8 1.8 1.8zM96.3 51.9c1 0 1.7-.8 1.7-1.8v-2.4c0-1-.8-1.8-1.8-1.8s-1.8.8-1.8 1.8v2.4c.1 1 .9 1.8 1.9 1.8-.1 0 0 0 0 0zM97.3 52.9c0 1 .8 1.7 1.8 1.7h2.5c1 0 1.8-.8 1.8-1.8s-.8-1.8-1.8-1.8H99c-1 .1-1.7.9-1.7 1.9zM96.3 53.8c-1 0-1.8.8-1.8 1.7V58c0 1 .8 1.8 1.8 1.8S98 59 98 58.1v-2.5c0-1-.8-1.8-1.7-1.8z"/><path d="M91.1 54.6h2.5c1 0 1.8-.8 1.8-1.8s-.8-1.8-1.8-1.8h-2.5c-1 0-1.8.8-1.8 1.8s.8 1.8 1.8 1.8zM34.5 105.8c-1 0-1.8.8-1.8 1.8v8c0 1 .8 1.8 1.8 1.8s1.8-.8 1.8-1.8v-8c0-1.1-.8-1.8-1.8-1.8zM93.5 105.8c-1 0-1.8.8-1.8 1.8v8c0 1 .8 1.8 1.8 1.8s1.8-.8 1.8-1.8v-8c-.1-1.1-.9-1.8-1.8-1.8z"/></svg>