<svg xmlns="http://www.w3.org/2000/svg" viewBox="0 0 512 512" style="enable-background:new 0 0 512 512" xml:space="preserve"><path style="fill:#e3aa75" d="m413.526 374.103-84.486-24.849a24.048 24.048 0 0 1-17.263-23.071v-38.119H199.551v38.119a24.048 24.048 0 0 1-17.263 23.071l-84.486 24.849c-20.469 6.02-34.526 24.806-34.526 46.142V504.5H448.05v-84.254c.001-21.336-14.055-40.122-34.524-46.143z"/><path style="fill:#9bdc9b" d="m413.526 374.103-63.599-18.706c-8.913 43.908-47.725 76.957-94.262 76.957s-85.349-33.049-94.262-76.957l-63.599 18.706c-20.469 6.02-34.525 24.806-34.525 46.142V504.5h384.774v-84.254c-.002-21.337-14.058-40.122-34.527-46.143z"/><path style="fill:#d29b6e" d="M199.551 313.969c16.841 8.996 35.939 14.176 56.113 14.176s39.272-5.18 56.113-14.176v-25.905H199.551v25.905z"/><path style="fill:#f5b97d" d="M371.898 167.823h-12.024V79.645h-208.42v88.177H139.43c-11.068 0-20.04 8.972-20.04 20.04s8.972 20.04 20.04 20.04h12.429c4.106 53.795 48.958 96.194 103.805 96.194s99.699-42.398 103.805-96.194h12.429c11.068 0 20.04-8.973 20.04-20.04 0-11.067-8.972-20.039-20.04-20.039z"/><path style="fill:#e3aa75" d="M151.454 79.645v88.177h-10.88c-10.483 0-20.036 7.542-21.081 17.973-1.202 11.996 8.186 22.108 19.936 22.108h12.43c4.106 53.795 48.957 96.194 103.805 96.194 5.483 0 10.83-.534 16.083-1.351-49.946-7.708-88.228-50.754-88.228-102.859v-64.129c0-17.709 14.356-32.065 32.065-32.065h48.317c6.676 4.971 14.865 8.016 23.828 8.016 6.582 0 12.7-1.738 18.18-4.55 10.617 7.863 23.702 12.566 37.933 12.566 5.547 0 10.899-.778 16.032-2.102V79.645h-208.42z"/><path style="fill:#a06e50" d="M374.023 80.948 343.841 7.5H198.267c-37.94 0-67.586 32.758-63.811 70.51l8.981 89.813h8.015c8.854 0 16.032-7.178 16.032-16.032v-35.405c0-17.709 14.356-32.064 32.065-32.064H343.84l-.001 67.469c0 8.855 7.178 16.033 16.033 16.033h8.017l6.671-86.716-.537-.16z"/><path style="fill:#8c5f4b" d="M231.616 7.5h-33.348c-37.94 0-67.586 32.758-63.811 70.51l8.981 89.813h8.015c8.854 0 16.032-7.178 16.032-16.032l.001-40.081V71.629c.001-35.417 28.712-64.129 64.13-64.129z"/><circle style="fill:#a06e50" cx="343.839" cy="55.6" r="48.1"/><circle style="fill:#a06e50" cx="287.729" cy="71.63" r="24.05"/><path style="fill:#b67f5f" d="M130.638 364.446c12.895 57.207 63.923 99.974 125.026 99.974s112.131-42.766 125.026-99.974l-30.764-9.048c-8.913 43.908-47.725 76.957-94.262 76.957s-85.349-33.049-94.262-76.957l-30.764 9.048z"/><path d="M207.903 168.339a7.5 7.5 0 0 0-7.5 7.5v8.016a7.5 7.5 0 0 0 15 0v-8.016a7.5 7.5 0 0 0-7.5-7.5zM304.096 168.339a7.5 7.5 0 0 0-7.5 7.5v8.016c0 4.142 3.357 7.5 7.5 7.5s7.5-3.358 7.5-7.5v-8.016a7.5 7.5 0 0 0-7.5-7.5zM285.316 237.291a7.5 7.5 0 0 0-10.535-10.677c-2.737 2.701-9.299 5.855-18.781 5.855s-16.043-3.154-18.781-5.855a7.5 7.5 0 1 0-10.535 10.677c6.459 6.373 17.418 10.177 29.316 10.177 11.897 0 22.856-3.805 29.316-10.177z"/><path d="m415.977 366.908-84.485-24.849c-6.994-2.057-11.879-8.585-11.879-15.876v-34.528c25.013-17.396 42.617-44.741 47.019-76.253h4.459c14.617 0 27.154-10.861 28.542-24.727.778-7.771-1.764-15.53-6.974-21.288a27.6 27.6 0 0 0-16.359-8.757l4.943-64.255c10.974-10.162 17.86-24.679 17.86-40.78C399.103 24.94 374.162 0 343.506 0H198.603c-20.199 0-39.556 8.589-53.109 23.566-13.553 14.976-20.174 35.092-18.164 55.19l8.206 82.062c-12.208 2.271-21.954 12.101-23.169 24.23-.778 7.771 1.764 15.531 6.974 21.289a27.593 27.593 0 0 0 20.425 9.067h5.598c4.399 31.522 22.003 58.87 47.023 76.264v34.517c0 7.291-4.885 13.819-11.879 15.876L96.022 366.91c-23.498 6.912-39.909 28.845-39.909 53.338V504.5a7.5 7.5 0 0 0 15 0v-84.254c0-17.885 11.983-33.9 29.142-38.947l24.685-7.26c7.742 26.616 23.711 50.587 45.489 68.063 23.964 19.229 54.116 29.818 84.901 29.818 30.781 0 60.929-10.587 84.891-29.81 21.883-17.555 37.902-41.668 45.605-68.434l25.919 7.623c17.158 5.046 29.142 21.062 29.142 38.947V504.5c0 4.142 3.357 7.5 7.5 7.5s7.5-3.358 7.5-7.5v-84.254c-.001-24.493-16.412-46.427-39.91-53.338zM361.28 160.323h-1.071c-4.705 0-8.532-3.828-8.532-8.532v-41.203a55.15 55.15 0 0 0 13.729-3.897l-4.126 53.632zm-201.99 39.564a7.5 7.5 0 0 0-15 0v.516h-4.524a12.567 12.567 0 0 1-9.303-4.131c-2.407-2.66-3.533-6.115-3.17-9.73.63-6.292 6.611-11.22 13.617-11.22h10.88c12.976 0 23.532-10.557 23.532-23.532v-35.07c0-13.545 11.02-24.564 24.564-24.564h31.394a7.5 7.5 0 0 0 0-15h-31.394c-21.816 0-39.564 17.749-39.564 39.564v35.071c0 4.705-3.828 8.532-8.532 8.532h-1.229l-8.306-83.059a56.727 56.727 0 0 1 14.36-43.633A56.729 56.729 0 0 1 198.603 15h144.903c22.385 0 40.597 18.211 40.597 40.597s-18.212 40.597-40.597 40.597c-14.574 0-28.108-7.88-35.321-20.566a7.5 7.5 0 0 0-13.04 7.414c.452.795.928 1.571 1.415 2.338-2.697 1.795-5.882 2.798-9.167 2.798-9.125 0-16.549-7.423-16.549-16.548 0-4.142-3.357-7.5-7.5-7.5s-7.5 3.358-7.5 7.5c0 17.396 14.152 31.548 31.549 31.548 6.846 0 13.478-2.255 18.895-6.302a55.783 55.783 0 0 0 30.388 13.888v41.027c0 12.976 10.557 23.532 23.532 23.532h12.023a12.57 12.57 0 0 1 9.304 4.131c2.406 2.659 3.532 6.114 3.17 9.729-.63 6.292-6.61 11.221-13.616 11.221h-3.385v-.439a7.5 7.5 0 0 0-7.497-7.5h-.003a7.5 7.5 0 0 0-7.5 7.495c-.039 53.286-43.421 96.638-96.706 96.638-53.324-.001-96.708-43.385-96.708-96.711zm171.543 230.522c-21.618 17.343-47.728 26.51-75.504 26.51-27.781 0-53.894-9.169-75.514-26.518-19.394-15.562-33.597-36.908-40.476-60.599l16.381-4.818c5.803 20.023 17.649 38.073 33.908 51.403 18.458 15.133 41.792 23.467 65.701 23.467 18.23 0 36.162-4.799 51.857-13.88a7.5 7.5 0 1 0-7.512-12.984c-13.415 7.761-28.749 11.863-44.345 11.863-39.54 0-74.404-26.608-85.22-64.102l14.631-4.303c13.334-3.922 22.646-16.368 22.646-30.267V300.45c14.705 7.137 31.199 11.146 48.613 11.146 17.412 0 33.907-4.012 48.613-11.153v25.74c0 13.899 9.313 26.345 22.646 30.267l13.403 3.942a88.706 88.706 0 0 1-18.807 34.431 7.5 7.5 0 1 0 11.246 9.924 103.727 103.727 0 0 0 21.95-40.123l16.378 4.817c-6.839 23.84-21.097 45.326-40.595 60.968z"/><path d="M215.919 144.291h-16.032a7.5 7.5 0 0 0 0 15h16.032a7.5 7.5 0 0 0 0-15zM296.08 159.291h16.032c4.143 0 7.5-3.358 7.5-7.5s-3.357-7.5-7.5-7.5H296.08a7.5 7.5 0 0 0 0 15z"/></svg>