<svg xmlns="http://www.w3.org/2000/svg" viewBox="0 0 512 512" style="enable-background:new 0 0 512 512" xml:space="preserve"><path style="fill:#ffa733" d="M331.301 413.39v78.066c0 7.188-5.827 13.015-13.015 13.015H197.234c-7.188 0-13.015-5.827-13.015-13.015V413.39h147.082zM474.538 292.287c-7.708 25.327-30.349 48.084-53.315 41.064-23.442-7.122-28.916-39.045-21.418-63.806 8.25-27.063 31.415-47.711 53.329-41.064 20.634 6.278 30.225 34.846 21.404 63.806z"/><ellipse transform="rotate(73.076 90.74 285.274)" style="fill:#ffa733" cx="90.742" cy="285.275" rx="54.811" ry="39.058"/><path style="fill:#ffb655" d="m432.945 209.682-10.844 99.029c0 47.22-49.861 94.682-95.937 122.765-24.84 15.141-48.586 24.649-62.823 25.463-48.666 2.771-140.727-67.673-157.826-123.086-3.072-10.121-.653 4.568-14.759-124.18 0-87.292 49.038-141.691 109.983-163.027 100.053-35.032 232.206 19.056 232.206 163.036z"/><path style="fill:#ffc477" d="m432.945 209.682-10.844 99.029c0 47.22-49.861 94.682-95.937 122.765-9.257 3.474-17.38 5.522-23.665 5.884-48.666 2.771-140.737-67.673-157.826-123.076-3.072-10.121-.653 4.558-14.77-124.19 0-67.522 29.338-115.365 70.835-143.448 100.054-35.032 232.207 19.056 232.207 163.036z"/><path style="fill:#aa6100" d="M157.244 88.132c-15.282 10.312-23.796 17.27-28.485 24.79-5.552 8.916-5.753 18.625-5.452 35.674.251 14.438-3.434 28.676-10.603 41.216l-14.96 37.049-2.611 6.466c-1.526 3.785-6.828 4.036-8.645.382-12.31-24.76-9.93-45.975-9.93-99.752.001-42.07 45.414-67.894 80.686-45.825z"/><path style="fill:#cc7400" d="M123.307 148.596c.251 14.438-3.434 28.676-10.603 41.216l-14.96 37.049v-85.163c0-15.894 12.882-28.776 28.776-28.776h2.239c-5.552 8.916-5.753 18.625-5.452 35.674z"/><path style="fill:#884d00" d="M444.833 192.272c0 10.261-2.008 29.067-6.637 41.889-1.526 4.227-7.54 4.076-8.785-.241-23.756-82.603-17.691-58.265-20.693-89.842-49.841-42.923-140.265-29.76-199.835-20.171-19.117 3.072-35.041 5.773-45.443 6.145-72.935 2.64-123.308-93.728-128.087-102.584-3.464-6.416 1.516-14.097 8.775-13.565 22.28 7.089 43.003 10.281 62.652 11.085 63.375 2.57 115.546-19.87 172.776-17.44 196.211 8.413 165.277 121.379 165.277 184.724z"/><path style="fill:#aa6100" d="M444.833 192.272c0 10.261-2.008 29.067-6.637 41.889-1.526 4.227-7.54 4.076-8.785-.241-23.756-82.603-17.691-58.265-20.693-89.842-49.841-42.923-140.265-29.76-199.835-20.171-57.723-16.175-96.649-88.778-102.101-98.919 63.375 2.57 115.546-19.87 172.776-17.44 196.209 8.413 165.275 121.379 165.275 184.724z"/><path style="fill:#884d00" d="M415.944 133.193c-1.146 3.524-4.404 13.303-7.221 10.884-49.044-43.746-142.453-29.452-207.46-19.007-.072.014-.146.014-.218.029-3.08-1.686 151.123-39.67 204.423-15.548 8.994 4.069 13.513 14.255 10.476 23.642z"/><path style="fill:#1d1d1f" d="m243.11 231.831-3.123 30.413c-2.129 20.613-19.489 36.276-40.202 36.276h-46.286c-20.723 0-38.073-15.663-40.202-36.276l-3.454-33.615c-1.366-13.253 9.036-24.78 22.36-24.78h85.655c15.051 0 26.798 13.012 25.252 27.982z"/><path style="fill:#2d2d30" d="m243.11 231.831-3.123 30.413c-2.129 20.613-19.489 36.276-40.202 36.276h-13.153c-20.723 0-38.073-15.663-40.202-36.276l-3.454-33.615c-1.365-13.253 9.036-24.78 22.36-24.78h52.522c15.051 0 26.798 13.012 25.252 27.982z"/><path style="fill:#1d1d1f" d="m412.241 228.628-3.464 33.615c-2.119 20.613-19.478 36.276-40.192 36.276h-46.297c-20.713 0-38.073-15.663-40.192-36.276l-3.133-30.413c-1.536-14.97 10.211-27.983 25.252-27.983h85.665c13.325.002 23.727 11.528 22.361 24.781z"/><path style="fill:#2d2d30" d="m412.241 228.628-3.464 33.615c-2.119 20.613-19.478 36.276-40.192 36.276h-13.163c-20.713 0-38.073-15.663-40.192-36.276l-3.133-30.413c-1.536-14.97 10.211-27.983 25.252-27.983h52.532c13.324.002 23.726 11.528 22.36 24.781z"/><path style="fill:#020202" d="M300.644 368.465c-42.872 24.676-77.973 2.772-79.487 1.8a7.53 7.53 0 0 0-8.209 12.627c1.153.752 19.38 12.343 46.01 12.343 14.4 0 31.26-3.391 49.199-13.717a7.53 7.53 0 0 0 2.77-10.283 7.53 7.53 0 0 0-10.283-2.77z"/><path style="fill:#020202" d="M449.602 220.034c1.968-10.633 2.761-21.306 2.761-27.762 0-42.507 12.039-100.377-27.812-143.388C379.261.016 291.966 2.013 279.577.007c-4.127-.181-7.661 3.062-7.832 7.219s3.062 7.661 7.219 7.832c10.485 1.648 93.773.071 134.532 44.058 32 34.522 25.85 81.704 23.716 137.163-.518 12.088-2.31 19.837-3.203 24.94-.131.03-.261.07-.392.11-11.146-38.927-15.519-49.926-16.366-64.309-.963-16.906-.633-16.259-5.884-20.543-61.119-49.692-169.456-23.975-233.692-15.362a7.526 7.526 0 0 0-6.466 8.464 7.533 7.533 0 0 0 8.464 6.466c54.928-7.389 165.142-33.767 221.824 11.818 2.335 26.852-1.431 10.026 12.882 61.136v.01l.003.009c-5.802-8.214-15.085-12.7-24.502-12.7h-28.244a7.53 7.53 0 0 0 0 15.06h28.244c8.75 0 15.795 7.565 14.87 16.476l-3.464 33.615a32.794 32.794 0 0 1-32.702 29.519h-46.297a32.787 32.787 0 0 1-32.702-29.519c-3.085-31.114-3.451-30.842-3.142-34.027h.009c.876-8.919 8.358-16.065 18.242-16.065h29.159a7.53 7.53 0 0 0 0-15.06h-29.639a32.897 32.897 0 0 0-28.26 16.065H246.13c-6.004-10.082-16.844-16.065-28.274-16.065h-85.655a29.889 29.889 0 0 0-15.834 4.538l3.133-7.761c14.475-25.663 10.6-45.817 11.456-60.373 8.226 2.737 16.162 4.056 17.741 4.056a7.524 7.524 0 0 0 7.44-6.446c.602-4.117-2.249-7.942-6.366-8.534-47.609-6.945-83.984-56.128-107.794-97.904-.581-1.085.125-2.216 1.044-2.44 82.338 25.748 144.906-.215 206.813-5.603a7.529 7.529 0 0 0 6.848-8.153 7.523 7.523 0 0 0-8.153-6.848C185.374 6.357 125.337 31.834 46.407 6.724c-7.736-2.487-19.709 4.481-19.709 16.366 0 4.832 2.162 8.113 2.319 8.504C42.15 56.057 59.555 80.516 79.28 99.588c-12.198 18.204-10.176 33.511-10.352 56.588-.241 31.828-.371 50.644 5.803 68.878-14.289 3.423-24.054 14.578-28.816 28.776-14.114 42.06 18.354 96.586 56.257 92.442 14.089 31.786 45.719 62.768 74.52 83.396v61.789c0 11.326 9.217 20.543 20.543 20.543h121.048c11.336 0 20.553-9.217 20.553-20.543v-59.098c34.83-22.822 69.661-55.474 83.988-90.866 18.05 3.547 34.685-7.012 45.895-21.627 28.606-37.295 18.906-94.656-19.117-99.832zm-317.399-8.655h85.655c10.153 0 17.862 8.271 17.862 17.792 0 1.534-1.308 13.917-3.223 32.3-1.751 16.95-15.941 29.519-32.712 29.519h-46.286a32.811 32.811 0 0 1-32.712-29.519l-3.454-33.615c-.925-8.914 6.122-16.477 14.87-16.477zm-71.609 83.065c-8.817-28.978 3.325-58.344 25.824-55.072 8.573 79.592 9.157 86.972 10.452 91.971-16.959-1.121-30.971-19.447-36.276-36.899zm29.991-69.962c-8.416-20.793-6.496-41.805-6.496-90.525 0-8.826 2.329-17.119 6.597-24.208 7.827 6.382 16.615 12.371 25.694 16.888-2.443 18.634 3.73 35.058-10.211 59.44-.299.509-15.543 38.304-15.584 38.405zm233.19 266.975c0 3.022-2.46 5.482-5.492 5.482H197.235a5.49 5.49 0 0 1-5.482-5.482v-51.718c20.047 12.466 48.573 26.072 72.02 24.72 14.428-.833 36.517-9.257 60.002-22.822v49.82zm90.796-182.746c0 3.705-.351 7.42-1.014 11.135-.934 5.301-2.52 10.603-4.659 15.864-23.02 56.987-111.887 111.757-145.988 113.708-48.063 2.722-140.902-72.44-151.591-122.494-1.071-4.882-2.239-18.417-9.94-89.27.682-1.17.851-1.844 1.476-3.333l2.952 28.696a47.83 47.83 0 0 0 47.692 43.033h46.286c9.719 0 18.786-2.872 26.376-7.862v17.169c0 11.737 9.559 21.296 21.306 21.296h26.316a7.533 7.533 0 0 0 7.53-7.53 7.533 7.533 0 0 0-7.53-7.53h-26.316c-3.444 0-6.245-2.801-6.245-6.235v-33.083c8.104-13.896 5.924-24.523 9.378-49.67.181-1.727.221-3.454.12-5.161h20.631c-.248 4.505.225 4.93 3.255 35.573a47.813 47.813 0 0 0 47.682 43.033h46.297a47.813 47.813 0 0 0 47.682-43.033c3.633-35.397 3.495-33.577 3.576-35.082.029.101 2.384 8.316 2.568 8.786-8.375 76.405-7.84 71.28-7.84 71.99zm52.762-18.615c-5.495 18.071-21.844 38.84-39.871 36.889 1.386-5.914 2.139-11.878 2.169-17.852l8.012-73.265c23.604-7.325 39.584 21.734 29.69 54.228z"/></svg>