<svg xmlns="http://www.w3.org/2000/svg" viewBox="0 0 512 512" style="enable-background:new 0 0 512 512" xml:space="preserve"><path style="fill:#a5c6e3" d="M476.215 228.473c0-120.623-97.478-218.905-217.804-220.193L256 503.742c32.592 0 61.913-14.237 82.096-36.809l51.585-57.729c39.639-6.056 70.017-40.299 70.017-81.634 0-4.426-.363-8.776-1.035-13.015 11.287-26.459 17.552-55.549 17.552-86.082z"/><path style="fill:#d2e3f1" d="M443.183 228.473c0 30.533-5.318 59.623-14.909 86.082a99.03 99.03 0 0 1 .87 13.015c0 41.334-25.82 75.578-59.524 81.634l-43.845 57.729c-17.144 22.572-42.072 36.809-69.775 36.809-32.592 0-61.913-14.237-82.096-36.809l-51.585-57.729c-39.639-6.056-70.017-40.299-70.017-81.634 0-4.426.363-8.776 1.035-13.015-11.286-26.459-17.551-55.549-17.551-86.082C35.785 107.047 134.573 8.258 256 8.258c.804 0 1.608.011 2.411.022 102.114 1.52 184.772 99.713 184.772 220.193z"/><path style="fill:#a5c6e3" d="M95.321 247.097c-6.844 49.077 8.793 91.96 41.313 103.796 32.521 11.837 72.064-10.961 98.367-52.956l-139.68-50.84zM416.679 247.097c6.844 49.077-8.793 91.96-41.313 103.796-32.521 11.837-72.064-10.961-98.367-52.956l139.68-50.84z"/><path style="fill:#134a79" d="M182.39 225.18c-32.521-11.837-67.331-2.045-87.07 21.917-.281 31.044 20.09 60.919 52.612 72.756 32.521 11.837 67.331 2.045 87.07-21.917.28-31.043-20.091-60.92-52.612-72.756z"/><path style="fill:#0e3759" d="m394.449 229.101-36.677 92.766a85.273 85.273 0 0 0 6.298-2.015c32.515-11.837 52.885-41.709 52.609-72.759-6.132-7.444-13.718-13.511-22.23-17.992z"/><path style="fill:#134a79" d="M329.607 225.181c22.429-8.159 45.937-6.045 64.842 3.92-.462 39.231-14.468 76.591-36.677 92.766-30.643 8.5-62.299-1.508-80.775-23.926-.275-31.051 20.095-60.924 52.61-72.76z"/><path d="M243.261 298.01c.32-35.45-23.007-67.837-58.045-80.591-10.066-3.663-20.52-5.521-31.071-5.521-25.755 0-49.519 10.915-65.198 29.946a8.269 8.269 0 0 0-1.884 5.176c-.32 35.45 23.007 67.837 58.045 80.591 10.065 3.663 20.519 5.521 31.073 5.521 5.924 0 11.741-.585 17.38-1.706-8.029 5.764-16.349 9.949-24.637 12.265a8.258 8.258 0 0 0 4.443 15.907c25.232-7.047 50.251-27.949 68.637-57.303a8.337 8.337 0 0 0 1.257-4.285zm-67.082 18.608c-8.619 0-17.173-1.523-25.422-4.525-27.492-10.005-46.113-34.667-47.137-61.975 12.517-13.829 30.761-21.702 50.524-21.702 8.619 0 17.172 1.522 25.422 4.525 27.492 10.005 46.113 34.667 47.137 61.975-12.52 13.829-30.761 21.702-50.524 21.702z"/><path d="M484.473 228.473C484.473 102.492 381.981 0 256 0S27.527 102.492 27.527 228.473c0 30.163 5.819 59.476 17.303 87.17a90.799 90.799 0 0 0 21.373 71.384c13.476 15.554 31.808 26.07 51.887 29.83l49.662 55.576C190.228 497.578 222.393 512 256 512s65.772-14.422 88.249-39.568l49.661-55.576c20.079-3.76 38.411-14.275 51.887-29.83a90.794 90.794 0 0 0 22.16-59.456c0-3.958-.264-7.959-.786-11.926 11.483-27.695 17.302-57.009 17.302-87.171zm-96.042 172.565a8.26 8.26 0 0 0-4.913 2.661l-51.584 57.728c-19.345 21.643-47.023 34.056-75.933 34.056s-56.589-12.414-75.933-34.057l-51.585-57.728a8.26 8.26 0 0 0-4.913-2.661c-35.92-5.48-63.009-37.063-63.009-73.467 0-3.89.313-7.834.928-11.721a8.248 8.248 0 0 0-.56-4.532c-11.203-26.266-16.884-54.139-16.884-82.844 0-116.874 95.083-211.957 211.957-211.957s211.957 95.083 211.957 211.957c0 28.704-5.68 56.577-16.883 82.844a8.26 8.26 0 0 0-.562 4.53c.617 3.89.928 7.834.928 11.723-.001 36.404-27.09 67.987-63.011 73.468z"/><circle cx="189.935" cy="68.817" r="8.258"/><circle cx="222.968" cy="101.849" r="8.258"/><circle cx="123.871" cy="173.419" r="8.258"/><circle cx="388.129" cy="140.387" r="8.258"/><path d="M357.856 211.899c-10.552 0-21.005 1.857-31.071 5.521-35.038 12.754-58.366 45.141-58.045 80.591a8.267 8.267 0 0 0 1.267 4.301c18.386 29.355 43.393 50.24 68.626 57.288a8.286 8.286 0 0 0 2.225.306 8.258 8.258 0 0 0 2.218-16.213c-8.288-2.314-16.608-6.5-24.637-12.265a89.143 89.143 0 0 0 17.383 1.706c10.552 0 21.005-1.858 31.071-5.521 35.038-12.754 58.366-45.141 58.045-80.591a8.266 8.266 0 0 0-1.884-5.176c-15.679-19.032-39.444-29.947-65.198-29.947zm3.387 100.193c-8.249 3.004-16.802 4.525-25.422 4.525-19.763 0-38.007-7.873-50.524-21.702 1.024-27.308 19.645-51.969 47.137-61.975 8.249-3.004 16.802-4.525 25.422-4.525 19.763 0 38.007 7.873 50.524 21.702-1.024 27.308-19.645 51.969-47.137 61.975zM231.226 373.862v33.032a8.257 8.257 0 0 0 8.258 8.258 8.257 8.257 0 0 0 8.258-8.258v-33.032a8.257 8.257 0 0 0-8.258-8.258 8.258 8.258 0 0 0-8.258 8.258zM272.516 415.153a8.257 8.257 0 0 0 8.258-8.258v-33.032a8.257 8.257 0 0 0-8.258-8.258 8.257 8.257 0 0 0-8.258 8.258v33.032a8.258 8.258 0 0 0 8.258 8.258zM283.527 442.68h-8.738a8.253 8.253 0 0 0-13.617-8.592l-5.171 5.172-5.171-5.172a8.258 8.258 0 0 0-11.679 0 8.25 8.25 0 0 0-1.938 8.592h-8.74a8.257 8.257 0 0 0-8.258 8.258 8.257 8.257 0 0 0 8.258 8.258h55.054a8.257 8.257 0 0 0 8.258-8.258 8.257 8.257 0 0 0-8.258-8.258z"/></svg>