<svg xmlns="http://www.w3.org/2000/svg" viewBox="0 0 512.001 512.001" style="enable-background:new 0 0 512.001 512.001" xml:space="preserve"><path style="fill:#ccc" d="M140.852 370.612a71.423 71.423 0 0 1-11.962-5.476c-21.996-12.574-36.826-36.27-36.826-63.425v-73.232s20.329-62.926 132.564-62.926c37.721 0 63.923-9.603 82.087-22.358a27.38 27.38 0 0 0 8.039 18.957c8.946 8.946 22.517 10.442 33.016 4.49 3.209 11.621 13.855 20.17 26.508 20.17s23.299-8.549 26.508-20.17c6.02 3.413 13.061 4.376 19.649 2.891.023.975.034 1.939.034 2.925v129.253c0 27.154-14.819 50.851-36.826 63.425a70.908 70.908 0 0 1-11.962 5.476v17.211c0 63.742-51.667 115.421-115.409 115.421-31.871 0-60.726-12.925-81.611-33.81s-33.81-49.74-33.81-81.611l.001-17.211z"/><path style="fill:#999" d="M348.405 387.828v-17.222h-.006c22.687-9.994 38.956-37.056 38.956-68.892V172.458c0-90.687-58.688-164.203-131.083-164.203 90.687 0 164.203 73.517 164.203 164.203v129.255c0 31.836-20.379 58.897-48.799 68.892h.007v17.222c0 63.741-51.672 115.414-115.411 115.416 50.884-.002 92.133-51.673 92.133-115.415z"/><path style="fill:#4d4d4d" d="M273.087 341.598c2.302 2.302 3.447 5.306 3.447 8.322s-1.145 6.032-3.447 8.333c-4.603 4.592-12.064 4.592-16.655 0l-.159-.159-.159.159a11.785 11.785 0 0 1-16.655 0c-4.603-4.603-4.603-12.064 0-16.655l.159-.159 16.655-16.655 16.655 16.655.159.159zM471.717 208.74c0 17.426-6.519 33.322-17.234 45.397 10.714 12.086 17.234 27.982 17.234 45.409 0 37.801-30.647 68.447-68.447 68.447a68.364 68.364 0 0 1-19.626-2.857c22.007-12.574 36.826-36.27 36.826-63.425V172.458c0-.986-.011-1.95-.034-2.925a27.434 27.434 0 0 0 13.367-7.381 27.263 27.263 0 0 0 6.678-10.873c18.798 12.2 31.236 33.379 31.236 57.461zM128.891 365.136a68.345 68.345 0 0 1-19.615 2.857c-37.801 0-68.447-30.647-68.447-68.447 0-17.426 6.519-33.322 17.234-45.409-10.714-12.075-17.234-27.971-17.234-45.397 0-32.88 23.186-60.341 54.093-66.928a164.446 164.446 0 0 0-2.857 30.647v129.253c0 27.154 14.83 50.85 36.826 63.424z"/><path style="fill:#666" d="M348.439 36.539c-.249.68-.476 1.383-.669 2.086-10.499-5.952-24.071-4.467-33.016 4.479s-10.431 22.517-4.478 33.016c-11.633 3.209-20.182 13.855-20.182 26.508s8.549 23.311 20.182 26.52a27.401 27.401 0 0 0-3.56 14.048c-18.163 12.755-44.365 22.358-82.087 22.358-48.209 0-79.479 11.621-99.434 24.864-26.52 17.585-33.13 38.062-33.13 38.062v-56.021c0-10.476.975-20.714 2.857-30.647 6.236-33.062 22.392-62.62 45.239-85.466C169.503 27.004 209.9 8.715 254.583 8.262c.556-.011 1.122-.011 1.689-.011 34.162 0 65.897 10.431 92.167 28.288z"/><path style="fill:#fcca5f" d="M374.278 61.675c22.619 0 40.953 18.345 40.953 40.953 0 22.619-18.333 40.953-40.953 40.953-22.619 0-40.953-18.333-40.953-40.953.001-22.608 18.334-40.953 40.953-40.953z"/><path style="fill:#f75469" d="M420.435 169.533c-6.587 1.485-13.628.522-19.649-2.891-3.209 11.621-13.855 20.17-26.508 20.17s-23.299-8.549-26.508-20.17c-10.499 5.952-24.071 4.456-33.016-4.49a27.389 27.389 0 0 1-8.039-18.957 27.401 27.401 0 0 1 3.56-14.048c-11.633-3.209-20.182-13.866-20.182-26.52s8.549-23.3 20.182-26.508c-5.952-10.499-4.467-24.071 4.479-33.016 8.946-8.946 22.517-10.431 33.016-4.479.193-.703.419-1.406.669-2.086 3.844-10.556 13.957-18.084 25.839-18.084 12.653 0 23.3 8.537 26.508 20.17 10.499-5.952 24.071-4.467 33.016 4.479 8.946 8.946 10.431 22.517 4.479 33.016 11.633 3.209 20.182 13.855 20.182 26.508s-8.549 23.311-20.182 26.52c3.855 6.78 4.592 14.853 2.2 22.132a27.274 27.274 0 0 1-6.678 10.873 27.442 27.442 0 0 1-13.368 7.381zm-5.204-66.905c0-22.608-18.333-40.953-40.953-40.953-22.619 0-40.953 18.345-40.953 40.953 0 22.619 18.334 40.953 40.953 40.953 22.62 0 40.953-18.334 40.953-40.953zM283.665 404.286c7.494 7.494 7.494 19.637 0 27.132l-.261.261-27.132 27.132-27.143-27.132-.249-.261a19.154 19.154 0 0 1-5.624-13.572c0-4.898 1.882-9.819 5.624-13.56 7.494-7.494 19.637-7.494 27.132 0l.261.249.249-.249c3.742-3.742 8.662-5.624 13.572-5.624s9.83 1.882 13.571 5.624z"/><circle style="fill:#fcca5f" cx="173.334" cy="269.526" r="37.927"/><circle style="fill:#fcca5f" cx="339.209" cy="269.526" r="37.927"/><path d="M247.519 370.457a20.19 20.19 0 0 0 8.49-1.855c7.486 3.429 16.65 2.069 22.819-4.083 3.829-3.829 5.937-8.924 5.937-14.346 0-5.416-2.109-10.507-5.927-14.324l-16.826-16.824a8.503 8.503 0 0 0-12.025 0l-16.805 16.806a20.12 20.12 0 0 0-5.951 14.331c-.003 5.423 2.107 10.522 5.958 14.373a20.19 20.19 0 0 0 14.33 5.922zm-2.321-22.593L256 337.062l10.802 10.802c.789.79.956 1.692.956 2.308 0 .509-.124 1.489-.948 2.313-1.282 1.28-3.364 1.282-4.628.019l-.159-.159a8.497 8.497 0 0 0-6.016-2.501h-.008a8.506 8.506 0 0 0-6.013 2.491l-.151.151a3.283 3.283 0 0 1-4.637.008 3.256 3.256 0 0 1-.961-2.321 3.24 3.24 0 0 1 .961-2.309zM374.005 53.425c-27.27 0-49.456 22.186-49.456 49.456s22.186 49.456 49.456 49.456 49.456-22.186 49.456-49.456-22.186-49.456-49.456-49.456zm0 81.905c-17.892 0-32.449-14.557-32.449-32.449s14.557-32.449 32.449-32.449 32.449 14.557 32.449 32.449-14.555 32.449-32.449 32.449zM137.166 324.765c-2.052 4.229-.272 9.32 3.957 11.361a8.492 8.492 0 0 0 11.349-3.957c2.041-4.229.272-9.308-3.957-11.361a8.496 8.496 0 0 0-11.349 3.957zM101.247 253.472c-1.043 4.569 1.825 9.127 6.406 10.17.635.147 1.27.215 1.893.215a8.502 8.502 0 0 0 8.277-6.621 8.505 8.505 0 0 0-6.406-10.181c-4.58-1.032-9.138 1.836-10.17 6.417zM173.108 326.409h-.045c-4.694 0-8.503 3.81-8.503 8.503s3.81 8.503 8.503 8.503h.273a8.517 8.517 0 0 0 8.481-8.538c-.023-4.694-3.844-8.481-8.537-8.469l-.172.001zM109.547 292.826c.635 0 1.27-.079 1.916-.215 4.569-1.054 7.438-5.612 6.383-10.193a8.481 8.481 0 0 0-10.181-6.383c-4.581 1.043-7.438 5.601-6.395 10.181a8.523 8.523 0 0 0 8.277 6.61zM197.79 320.717c-4.218 2.064-5.975 7.154-3.912 11.372 1.474 3.027 4.501 4.773 7.653 4.785a8.427 8.427 0 0 0 3.719-.873c4.218-2.052 5.975-7.143 3.912-11.372-2.063-4.218-7.143-5.964-11.372-3.912zM116.803 235.898a8.492 8.492 0 0 0 11.95-1.35c2.925-3.674 2.324-9.025-1.349-11.95-3.674-2.925-9.025-2.324-11.95 1.349-2.925 3.674-2.324 9.026 1.349 11.951zM218.811 316.874a8.485 8.485 0 0 0 5.283 1.837c2.506 0 4.989-1.1 6.667-3.209 2.914-3.685 2.302-9.036-1.372-11.95-3.685-2.925-9.036-2.302-11.95 1.372-2.925 3.673-2.302 9.024 1.372 11.95zM218.55 222.428c-3.662 2.948-4.252 8.299-1.304 11.962a8.485 8.485 0 0 0 6.633 3.175 8.457 8.457 0 0 0 5.318-1.871 8.49 8.49 0 0 0 1.304-11.95 8.503 8.503 0 0 0-11.951-1.316zM122.177 318.903a8.447 8.447 0 0 0 5.306-1.871c3.674-2.925 4.263-8.277 1.327-11.95h.011c-2.937-3.662-8.288-4.263-11.962-1.327-3.662 2.925-4.263 8.288-1.327 11.95a8.497 8.497 0 0 0 6.645 3.198zM228.323 282.213c-1.032 4.581 1.848 9.138 6.429 10.17a8.842 8.842 0 0 0 1.871.204c3.889 0 7.404-2.687 8.288-6.633a8.506 8.506 0 0 0-6.429-10.17c-4.58-1.031-9.127 1.849-10.159 6.429zM144.717 219.639a8.498 8.498 0 0 0 7.642-12.211c-2.041-4.229-7.132-5.986-11.361-3.946-4.229 2.052-5.986 7.143-3.934 11.372a8.502 8.502 0 0 0 7.653 4.785zM201.192 219.537a8.486 8.486 0 0 0 7.664-4.819c2.041-4.229.261-9.32-3.98-11.349-4.229-2.041-9.308-.249-11.349 3.98-2.029 4.229-.249 9.308 3.98 11.349a8.56 8.56 0 0 0 3.685.839zM234.627 246.828a8.495 8.495 0 0 0-6.372 10.204 8.492 8.492 0 0 0 8.277 6.587 8.58 8.58 0 0 0 1.916-.215c4.581-1.054 7.426-5.624 6.372-10.193v-.011c-1.054-4.57-5.623-7.427-10.193-6.372zM172.96 213.142c4.694-.011 8.492-3.821 8.481-8.515-.011-4.705-3.821-8.503-8.515-8.492-4.694.011-8.503 3.821-8.492 8.515s3.821 8.492 8.503 8.492h.023zM173.062 223.348c-25.601 0-46.43 20.829-46.43 46.43s20.829 46.43 46.43 46.43 46.43-20.829 46.43-46.43-20.829-46.43-46.43-46.43zm0 75.852c-16.224 0-29.423-13.2-29.423-29.423s13.2-29.423 29.423-29.423 29.423 13.2 29.423 29.423-13.199 29.423-29.423 29.423zM374.731 214.718c2.03-4.24.249-9.32-3.98-11.349a8.498 8.498 0 0 0-11.349 3.98c-2.042 4.229-.261 9.308 3.98 11.349a8.469 8.469 0 0 0 3.673.839 8.523 8.523 0 0 0 7.676-4.819zM338.823 213.142c4.694-.011 8.492-3.821 8.492-8.526-.011-4.694-3.832-8.492-8.527-8.481-4.694.011-8.491 3.821-8.48 8.515a8.493 8.493 0 0 0 8.515 8.492zM402.497 292.588a8.515 8.515 0 0 0 8.288-6.633 8.506 8.506 0 0 0-6.429-10.17c-4.592-1.032-9.138 1.848-10.17 6.429s1.848 9.138 6.429 10.17a8.944 8.944 0 0 0 1.882.204zM302.927 214.855a8.507 8.507 0 0 0 7.664 4.785 8.522 8.522 0 0 0 3.709-.85c4.218-2.052 5.986-7.143 3.934-11.361-2.052-4.229-7.143-5.986-11.372-3.946h.012c-4.23 2.052-5.999 7.142-3.947 11.372zM303.029 324.765c-2.041 4.229-.271 9.32 3.957 11.361 1.19.578 2.46.85 3.696.85a8.513 8.513 0 0 0 7.666-4.807c2.041-4.229.271-9.308-3.957-11.361-4.23-2.041-9.32-.272-11.362 3.957zM339.141 326.409H338.937c-4.704 0-8.503 3.81-8.503 8.503s3.799 8.503 8.503 8.503h.273c4.695-.011 8.492-3.832 8.469-8.538-.011-4.694-3.832-8.481-8.526-8.469h-.012zM273.528 276.023c-4.569 1.054-7.439 5.612-6.383 10.193.896 3.934 4.399 6.61 8.277 6.61a8.516 8.516 0 0 0 8.301-10.408 8.52 8.52 0 0 0-10.195-6.395zM277.281 247.054c-4.581-1.032-9.127 1.837-10.17 6.417s1.825 9.138 6.406 10.17a8.38 8.38 0 0 0 1.893.215c3.878 0 7.392-2.676 8.288-6.621 1.032-4.58-1.837-9.138-6.417-10.181zM293.358 317.032c3.661-2.925 4.263-8.277 1.327-11.95-2.937-3.662-8.289-4.263-11.95-1.327a8.505 8.505 0 0 0-1.339 11.95 8.53 8.53 0 0 0 6.655 3.197 8.465 8.465 0 0 0 5.307-1.87zM293.267 222.598c-3.673-2.925-9.025-2.324-11.95 1.349-2.925 3.674-2.324 9.025 1.348 11.95a8.499 8.499 0 0 0 5.295 1.859c2.506 0 4.978-1.1 6.655-3.209 2.938-3.672 2.326-9.023-1.348-11.949zM375.038 324.64a8.51 8.51 0 0 0-11.372-3.923c-4.218 2.064-5.976 7.154-3.912 11.372a8.476 8.476 0 0 0 7.642 4.773 8.462 8.462 0 0 0 3.73-.862h-.011c4.228-2.051 5.974-7.142 3.923-11.36zM395.252 303.551c-3.672-2.925-9.025-2.302-11.949 1.372-2.914 3.673-2.302 9.025 1.372 11.939a8.451 8.451 0 0 0 5.282 1.848 8.48 8.48 0 0 0 6.668-3.22c2.924-3.673 2.312-9.025-1.373-11.939zM384.413 222.428a8.518 8.518 0 0 0-1.304 11.962 8.508 8.508 0 0 0 6.644 3.175 8.447 8.447 0 0 0 5.306-1.871c3.662-2.937 4.252-8.288 1.315-11.95a8.506 8.506 0 0 0-11.961-1.316zM400.491 246.828c-4.568 1.066-7.426 5.624-6.372 10.204.908 3.934 4.412 6.587 8.278 6.587.635 0 1.281-.068 1.926-.215 4.569-1.054 7.428-5.624 6.372-10.204-1.066-4.57-5.624-7.427-10.204-6.372zM338.932 316.207c25.601 0 46.429-20.829 46.429-46.43 0-4.696-3.806-8.503-8.503-8.503s-8.503 3.807-8.503 8.503c0 16.224-13.2 29.423-29.422 29.423-16.225 0-29.423-13.2-29.423-29.423s13.2-29.423 29.423-29.423a29.452 29.452 0 0 1 22.05 9.942c3.111 3.518 8.485 3.848 12.004.737s3.848-8.484.736-12.002a46.466 46.466 0 0 0-34.791-15.683c-25.601 0-46.43 20.829-46.43 46.43-.001 25.601 20.829 46.429 46.43 46.429z"/><path d="M479.947 208.993c0-15.124-4.386-29.763-12.685-42.338a8.504 8.504 0 0 0-14.195 9.367c6.458 9.787 9.872 21.188 9.872 32.972a59.84 59.84 0 0 1-15.091 39.754 8.504 8.504 0 0 0-.002 11.285 59.906 59.906 0 0 1 15.093 39.768c0 32.479-25.967 58.987-58.227 59.901 15.127-15.111 23.988-35.845 23.988-57.735V175.852a36.003 36.003 0 0 0 10.842-7.433 35.975 35.975 0 0 0 8.748-14.247 36.038 36.038 0 0 0 .643-20.246c10.779-6.361 17.759-18.1 17.759-31.042 0-12.939-6.981-24.676-17.763-31.035 3.122-12.121-.242-25.356-9.387-34.503-9.146-9.146-22.379-12.513-34.505-9.387-6.357-10.778-18.093-17.754-31.032-17.754-12.867 0-24.652 6.929-31.034 17.752-12.123-3.121-25.357.241-34.504 9.388-9.146 9.146-12.509 22.381-9.387 34.503-10.782 6.358-17.763 18.097-17.763 31.035 0 12.943 6.98 24.683 17.76 31.043a35.943 35.943 0 0 0-1.137 9.663c.154 9.378 3.893 18.195 10.527 24.83 9.15 9.15 22.378 12.519 34.506 9.397 6.359 10.777 18.095 17.754 31.032 17.754 12.933 0 24.668-6.974 31.027-17.746 2.181.566 4.41.915 6.66 1.062v123.078c0 23.1-12.469 44.573-32.562 56.053a62.735 62.735 0 0 1-10.552 4.83 64.169 64.169 0 0 1-21.4 3.643 8.502 8.502 0 0 0-8.503 8.503 8.502 8.502 0 0 0 8.503 8.503c5.319 0 10.575-.527 15.726-1.536v6.118c0 2.923-.122 5.816-.354 8.682a332.051 332.051 0 0 1-26.626 7.671v-3.933c0-4.696-3.806-8.503-8.503-8.503s-8.503 3.807-8.503 8.503v7.617a337.628 337.628 0 0 1-22.23 3.443c-1.155-4.776-3.562-9.307-7.284-13.028-5.232-5.234-12.187-8.116-19.584-8.116-4.933 0-9.668 1.281-13.828 3.686-4.158-2.404-8.891-3.684-13.82-3.684-7.395 0-14.348 2.881-19.58 8.111-3.65 3.65-6.152 8.137-7.335 13.026a336.268 336.268 0 0 1-22.185-3.437v-7.621a8.503 8.503 0 0 0-17.006 0v3.938a332.212 332.212 0 0 1-26.633-7.671c-.23-2.874-.351-5.77-.351-8.685v-6.118a81.795 81.795 0 0 0 15.737 1.537 8.503 8.503 0 0 0 0-17.006 64.22 64.22 0 0 1-21.428-3.649 63.042 63.042 0 0 1-10.555-4.835c-20.072-11.475-32.541-32.949-32.541-56.042v-71.683c3.251-7.818 27.247-55.971 124.06-55.971 18.538 0 35.624-2.269 50.785-6.744a8.502 8.502 0 1 0-4.814-16.31c-13.598 4.014-29.064 6.049-45.971 6.049-69.719 0-105.957 23.406-124.06 42.936v-27.529c0-9.802.912-19.581 2.71-29.071 5.799-30.747 20.632-58.767 42.895-81.029 29.41-29.408 68.51-45.605 110.1-45.605 18.527 0 36.649 3.218 53.864 9.566a8.505 8.505 0 0 0 5.885-15.957C296.643 3.571 276.54 0 255.999 0c-46.132 0-89.504 17.965-122.125 50.587-23.397 23.397-39.381 52.542-46.47 84.56-32.386 9.469-55.353 39.657-55.353 73.848a76.814 76.814 0 0 0 14.827 45.399A76.878 76.878 0 0 0 32.051 299.8c0 36.396 25.844 68.1 61.452 75.387a8.521 8.521 0 0 0 1.713.175 8.506 8.506 0 0 0 8.322-6.801 8.502 8.502 0 0 0-6.626-10.035c-27.728-5.675-47.854-30.372-47.854-58.726a59.9 59.9 0 0 1 15.094-39.768 8.504 8.504 0 0 0-.002-11.285 59.84 59.84 0 0 1-15.091-39.753c0-23.76 14.229-45.043 35.202-54.597a174.884 174.884 0 0 0-.973 18.315v129.253c0 29.181 15.752 56.312 41.092 70.797a79.94 79.94 0 0 0 7.696 3.865v11.45c0 33.096 12.891 64.215 36.301 87.623 23.408 23.408 54.527 36.301 87.623 36.301 68.326 0 123.913-55.592 123.913-123.924v-11.448a80.088 80.088 0 0 0 4.532-2.144 77.04 77.04 0 0 0 18.553 2.265c42.43 0 76.95-34.52 76.95-76.951 0-16.4-5.22-32.27-14.826-45.406a76.834 76.834 0 0 0 14.825-45.4zm-75.241-49.495a8.5 8.5 0 0 0-12.389 5.135c-2.264 8.202-9.795 13.93-18.311 13.93s-16.047-5.728-18.311-13.93a8.507 8.507 0 0 0-8.196-6.24 8.497 8.497 0 0 0-4.194 1.107c-7.403 4.197-16.782 2.921-22.809-3.105a18.862 18.862 0 0 1-5.55-13.103 18.887 18.887 0 0 1 2.451-9.689 8.5 8.5 0 0 0-5.133-12.396c-8.206-2.264-13.939-9.798-13.939-18.322 0-8.517 5.732-16.048 13.939-18.311a8.505 8.505 0 0 0 5.137-12.391c-4.2-7.407-2.927-16.787 3.094-22.809s15.4-7.295 22.809-3.094a8.506 8.506 0 0 0 12.395-5.15c.125-.457.278-.931.458-1.424 2.72-7.472 9.892-12.491 17.848-12.491 8.519 0 16.048 5.727 18.31 13.928a8.506 8.506 0 0 0 12.391 5.136c7.406-4.201 16.788-2.927 22.809 3.094 6.023 6.022 7.295 15.402 3.094 22.809a8.505 8.505 0 0 0 5.137 12.391c8.206 2.264 13.939 9.794 13.939 18.311 0 8.524-5.732 16.058-13.939 18.322a8.507 8.507 0 0 0-5.132 12.401 18.964 18.964 0 0 1 1.514 15.273l-.01.029a18.648 18.648 0 0 1-4.602 7.486 18.986 18.986 0 0 1-9.226 5.099 19.03 19.03 0 0 1-13.584-1.996zM234.619 410.552a10.615 10.615 0 0 1 7.553-3.13c2.852 0 5.534 1.111 7.552 3.13l.139.136.261.249a8.503 8.503 0 0 0 11.888-.136l.249-.249a10.619 10.619 0 0 1 7.559-3.133 10.61 10.61 0 0 1 7.558 3.134 10.63 10.63 0 0 1 1.93 2.641 339.776 339.776 0 0 1-46.623.001 10.73 10.73 0 0 1 1.934-2.643zm37.799 20.067-16.42 16.42-16.425-16.418c5.468.252 10.94.391 16.414.391 5.478 0 10.957-.141 16.431-.393zm-16.419 64.374c-28.554 0-55.402-11.123-75.598-31.319-13.523-13.523-22.97-30.03-27.742-48.032a349.239 349.239 0 0 0 23.408 6.279v7.484a8.503 8.503 0 0 0 17.006 0V425.4a354.01 354.01 0 0 0 23.555 3.416 27.725 27.725 0 0 0 5.889 8.791l.196.205c.043.045.086.09.13.133l27.143 27.132a8.475 8.475 0 0 0 6.011 2.49c2.176 0 4.353-.83 6.014-2.491l27.393-27.393a27.51 27.51 0 0 0 5.939-8.867 354.682 354.682 0 0 0 23.574-3.42v4.009c0 4.696 3.806 8.503 8.503 8.503s8.503-3.807 8.503-8.503v-7.489a350.812 350.812 0 0 0 23.369-6.268c-12.187 45.634-53.874 79.345-103.293 79.345z"/></svg>