<svg xmlns="http://www.w3.org/2000/svg" viewBox="0 0 512.001 512.001" style="enable-background:new 0 0 512.001 512.001" xml:space="preserve"><path style="fill:#bf6015" d="M371.781 433.89a119.937 119.937 0 0 1-53.67-53.67l-2.11-4.22h-120l-2.11 4.22a119.937 119.937 0 0 1-53.67 53.67l-4.22 2.11h60v40l40-20 20 46 20-46 40 20v-40h60l-4.22-2.11z"/><path style="fill:#3d4370" d="M502.001 166c0 60.75-9.25 110-70 110-54.58 0-132.17-39.75-147.36-91.88-3.864-13.254-3.263-28.546.22-40.95 5.28-18.85 17.63-30.38 34.6-37.31 19.36-7.93 44.74-9.86 72.54-9.86 27.8 0 53.18 1.93 72.54 9.86 22.96 9.38 37.46 27.18 37.46 60.14z"/><path style="fill:#bf6015" d="m442.001 50-20-40-30 40-30-40-20 40-40-20 17.46 75.85v.01h145.08v-.01L482.001 30z"/><path style="fill:#7fd5eb" d="M392.001 136c70 0 70 13.91 70 30 0 70-13.91 70-30 70-47.29 0-110-39.9-110-70 0-16.09 0-30 70-30z"/><path style="fill:#3d4370" d="M227.361 184.12c-15.19 52.13-92.78 91.88-147.36 91.88-60.75 0-70-49.25-70-110 0-60.743 49.25-70 110-70 44.663 0 95.034 3.949 107.14 47.17 3.543 12.617 4.03 27.881.22 40.95z"/><path style="fill:#ffc478" d="m316.291 296-31.95-111.8.52-41.03c-6.48-4.52-20.36-7.17-28.86-7.17s-22.38 2.65-28.86 7.17l.22 40.95.3.08-31.95 111.8c-33.01.16-59.71 26.96-59.71 60 0 11.05 8.95 20 20 20h61.84l.01-.01c10.521 7.607 23.87 12.29 38.15 12.29 14.263 0 27.615-4.673 38.15-12.29l.01.01h61.84c11.05 0 20-8.95 20-20 0-33.04-26.7-59.84-59.71-60z"/><path style="fill:#bf6015" d="m170.001 50-20-40-30 40-30-40-20 40-40-20 17.46 75.85v.01h145.08v-.01L210.001 30z"/><path style="fill:#7fd5eb" d="M120.001 136c70 0 70 13.91 70 30 0 30.1-62.71 70-110 70-16.09 0-30 0-30-70 0-16.09 0-30 70-30z"/><path d="M275.001 325.938a9.97 9.97 0 0 0 10.99-9.938c0-5.53-4.452-9.99-9.99-9.99a9.969 9.969 0 0 0-9.99 9.99c0 5.143 3.87 9.43 8.99 9.938zM255.001 365.938a9.97 9.97 0 0 0 10.99-9.938c0-5.53-4.452-9.99-9.99-9.99a9.969 9.969 0 0 0-9.99 9.99c0 5.143 3.87 9.43 8.99 9.938zM226.011 316a9.962 9.962 0 0 0 8.99 9.938 9.97 9.97 0 0 0 10.99-9.938c0-5.53-4.452-9.99-9.99-9.99a9.97 9.97 0 0 0-9.99 9.99zM186.565 136.495c-11.571-7.258-32.1-10.495-66.564-10.495s-54.993 3.237-66.564 10.495C40.001 144.923 40.001 157.607 40.001 166c0 34.464 3.237 54.993 10.495 66.564C58.924 246 71.608 246 80.001 246c49.569 0 120-41.375 120-80 0-8.393 0-21.077-13.436-29.505zm-39.198 67.355c-21.47 13.662-47.283 22.149-67.365 22.149-8.244 0-10.233-.35-12.563-4.064-4.935-7.867-7.438-26.686-7.438-55.935 0-8.244.35-10.233 4.064-12.563 7.868-4.935 26.687-7.438 55.936-7.438s48.068 2.502 55.936 7.438c3.714 2.33 4.064 4.318 4.064 12.563 0 10.219-13.114 25.43-32.634 37.85z"/><path d="m476.096 100.234 15.651-67.991a10 10 0 0 0-14.217-11.187l-31.056 15.528-15.528-31.056A10 10 0 0 0 414.002 4l-22 29.333L370.001 4a10.002 10.002 0 0 0-16.944 1.528l-15.528 31.056-31.056-15.528a10 10 0 0 0-14.217 11.187l15.652 67.996c-13.16 6.999-22.766 16.869-28.693 29.478-8.354-2.634-17.637-3.718-23.214-3.718s-14.86 1.083-23.214 3.718c-5.928-12.612-15.534-22.482-28.692-29.479l15.652-67.995a10 10 0 0 0-14.217-11.187l-31.056 15.528-15.528-31.056A10 10 0 0 0 142.002 4l-22 29.333L98.001 4a10 10 0 0 0-16.944 1.528L65.529 36.583 34.474 21.056a10 10 0 0 0-14.217 11.187l15.651 67.991C12.071 112.915.001 134.998.001 166c0 27.483 1.576 58.746 13.266 82.236C25.737 273.294 48.189 286 80.001 286c28.842 0 63.795-10.377 93.501-27.76 10.594-6.199 20.098-13.004 28.387-20.258l-13.853 48.481c-34.835 3.981-62.035 33.703-62.035 69.537 0 16.542 13.458 29.9 30 29.9h23.078c-10.652 16.527-25.704 30.236-43.33 39.046l-4.22 2.11A10.001 10.001 0 0 0 136 446.001h50v30a10 10 0 0 0 14.472 8.944l30.563-15.282 15.793 36.325a10 10 0 0 0 18.342 0l15.793-36.325 30.563 15.282a9.999 9.999 0 0 0 14.472-8.944v-30h50a10 10 0 0 0 4.471-18.945l-4.221-2.11c-17.624-8.809-32.676-22.418-43.329-38.945h23.082c16.542 0 30-13.458 30-30 0-35.818-27.176-65.53-62.03-69.531l-13.856-48.484c8.289 7.253 17.791 14.057 28.384 20.255 29.706 17.383 64.66 27.76 93.501 27.76 31.812 0 54.264-12.706 66.734-37.764 11.69-23.49 13.266-54.753 13.266-82.236.001-31.003-12.068-53.086-35.904-65.767zm-138.567-41.29c4.938 2.469 10.946.467 13.417-4.472l12.764-25.528L384.001 56a10.002 10.002 0 0 0 16 0l20.292-27.056 12.764 25.528c2.471 4.94 8.478 6.943 13.417 4.472l21.023-10.512-10.223 44.41c-20.96-5.959-45.405-6.843-65.273-6.843-19.87 0-44.318.884-65.273 6.842l-10.223-44.409 21.024 10.512zm-64.149 89.885c-.911 5.381-1.279 11.122-1.279 17.171 0 2.429-.243 10.898.284 12.744l36.063 126.189c.04.139.082.276.128.413 7.774 23.292-.812 48.595-20.284 62.54-8.918 6.449-20.299 10.394-32.291 10.394-11.591 0-23.031-3.699-32.328-10.42-19.839-14.206-27.975-39.33-20.245-62.518.134-.404 28.038-98.069 36.189-126.598.527-1.846.284-10.315.284-12.744 0-6.049-.368-11.79-1.279-17.171 5.119-1.63 12.005-2.829 17.379-2.829 5.375 0 12.261 1.199 17.379 2.829zM65.529 58.944c4.938 2.469 10.946.467 13.417-4.472L91.71 28.944 112.001 56c4.002 5.336 12.007 5.324 16 0l20.292-27.056 12.764 25.528c2.47 4.94 8.477 6.943 13.417 4.472l21.023-10.512-10.223 44.41c-20.96-5.959-45.405-6.843-65.273-6.843-19.869 0-44.317.884-65.273 6.842L44.506 48.433l21.023 10.511zM80.001 266c-24.257 0-39.772-8.476-48.829-26.674-9.901-19.897-11.171-49.639-11.171-73.326 0-26.363 9.635-42.056 31.25-50.886 19.721-8.078 47.1-9.114 68.75-9.114s49.028 1.036 68.759 9.118c15.514 6.335 24.65 16.106 28.751 30.75l.001.005C219.163 151.753 220 158.525 220 166c0 5.067-.754 10.222-2.241 15.323C204.093 228.228 131.223 266 80.001 266zm66 90c0-22.693 15.276-41.947 36.053-48.007-2.588 12.744-1.826 25.847 2.289 38.375A75.554 75.554 0 0 0 194.126 366h-38.125c-5.514 0-10-4.486-10-10zm195.765 70h-25.765c-5.523 0-10 4.477-10 10v23.82l-25.528-12.764a9.996 9.996 0 0 0-13.643 4.957l-10.829 24.907-10.829-24.907a10.006 10.006 0 0 0-5.756-5.412 10.005 10.005 0 0 0-7.887.455l-25.528 12.764V436c0-5.523-4.477-10-10-10h-25.764c13.12-11.063 24.052-24.696 31.923-40h12.614c12.368 8.095 26.823 12.28 41.227 12.28 14.379 0 28.836-4.169 41.229-12.28h12.612c7.872 15.304 18.803 28.937 31.924 40zm24.235-70c0 5.514-4.486 10-10 10h-38.162c11.58-16.619 16.231-37.505 12.103-58.001 20.794 6.067 36.059 25.315 36.059 48.001zM480.83 239.326C471.774 257.524 456.258 266 432.001 266c-51.221 0-124.091-37.771-137.76-84.679-1.486-5.099-2.24-10.253-2.24-15.321 0-7.475.837-14.247 2.489-20.133 4.102-14.643 13.238-24.414 28.761-30.753 19.721-8.078 47.1-9.114 68.75-9.114s49.028 1.036 68.75 9.114a.069.069 0 0 1 .008.003c21.607 8.827 31.242 24.52 31.242 50.883 0 23.687-1.27 53.429-11.171 73.326z"/><path d="M458.565 136.495c-11.571-7.258-32.1-10.495-66.564-10.495s-54.993 3.237-66.564 10.495c-13.436 8.428-13.436 21.112-13.436 29.505 0 38.625 70.431 80 120 80 8.393 0 21.077 0 29.505-13.436 7.258-11.571 10.495-32.1 10.495-66.564 0-8.393 0-21.077-13.436-29.505zm-14.001 85.441c-2.33 3.714-4.318 4.064-12.562 4.064-20.082 0-45.895-8.487-67.365-22.149-19.521-12.421-32.636-27.632-32.636-37.851 0-8.244.35-10.233 4.064-12.563 7.868-4.935 26.687-7.438 55.936-7.438s48.068 2.502 55.936 7.438c3.714 2.33 4.064 4.318 4.064 12.563 0 29.249-2.502 48.068-7.437 55.936z"/></svg>