<svg xmlns="http://www.w3.org/2000/svg" viewBox="0 0 512.003 512.003" style="enable-background:new 0 0 512.003 512.003" xml:space="preserve"><path style="fill:#e6646e" d="m464.42 175.839 23.762-7.558c4.821-2.314 6.098-8.553 2.54-12.544-12.356-13.858-41.155-42.376-82.415-60.059l24.048-16.032s-1.962-5.679-8.016-8.016c-36.917-14.253-146.637-39.623-224.452 64.129l304.614 240.483v-144.29l-40.081-56.113z"/><path style="fill:#e6646e" d="m14.18 16.096 169.676 191.808 56.113-64.129L18.503 10.895c-3.355-2.013-6.915 2.27-4.323 5.201z"/><path style="fill:#edebed" d="M272.033 110.004c-11.192 3.12-21.947 9.066-32.065 17.738L12.263 331.892c-3.208 2.876-4.936 7.234-4.131 11.467 1.859 9.796 7.595 14.34 13.67 16.319 2.624.855 4.783 2.667 6.008 5.14a99959.4 99959.4 0 0 1 8.597 17.359c4.016 8.184 14.005 11.428 22.005 7.058 2.955-1.613 6.188-3.59 9.509-5.703l27.982 17.05c4.795 2.904 10.705 3.118 15.674.523 23.986-12.52 97.771-49.227 152.44-56.927 11.4-1.606 21.993-4.648 31.8-8.686L360.21 504.5l144.291-128.258c-9.484-28.909-45.572-124.929-68.804-161.659-25.957-41.036-83.502-126.922-163.664-104.579z"/><path style="fill:#dbd9dc" d="M272.033 39.651v79.947c0 8.729 5.77 16.179 13.643 17.614l15.404 2.808c10.541 1.921 19.994-7.623 18.974-19.257-4.633-52.849-24.95-76.829-37.626-86.82-4.348-3.426-10.395-.154-10.395 5.708zM333.837 306.354c-9.556 12.179-22.522 22.201-38.047 29.062l64.42 169.082 55.301-50.691-81.674-147.453z"/><path style="fill:#00c3ff" d="m127.743 144.471 40.081 45.309v-89.293l-40.081-24.049z"/><path style="fill:#d4f582" d="m87.662 99.162 40.081 45.309V76.438L87.662 52.39z"/><path style="fill:#ffc850" d="M18.503 10.895c-3.355-2.013-6.915 2.271-4.323 5.201l73.482 83.067V52.39L18.503 10.895z"/><path d="M305.422 339.611c20.832-9.974 37.715-25.081 48.565-44.024 15.827-27.633 17.179-60.736 3.807-93.211a7.501 7.501 0 0 0-13.871 5.711c11.569 28.096 10.521 56.523-2.951 80.046-14.9 26.015-43.33 43.735-78 48.618-54.781 7.716-126.551 42.926-154.864 57.706-2.636 1.376-5.745 1.27-8.318-.29l-17.956-10.875c14.445-10.181 30.499-23.622 43.48-38.119a7.5 7.5 0 0 0-11.174-10.007c-18.267 20.397-42.956 38.547-59.322 47.486a8.333 8.333 0 0 1-6.569.632 8.511 8.511 0 0 1-5.106-4.412l-5.261-10.724a36.421 36.421 0 0 0 3.504-.664 7.5 7.5 0 1 0-3.639-14.552c-.108.027-11.271 2.526-17.602-2.417-2.852-2.226-4.528-5.963-5.003-11.133l229.77-206c6.113-5.23 12.689-9.414 19.622-12.555v6.913c0 4.142 3.357 7.5 7.5 7.5s7.5-3.358 7.5-7.5V44.62c3.436 2.678 7.423 6.42 11.39 11.536 14.201 18.318 21.707 45.843 21.707 79.601 0 4.142 3.357 7.5 7.5 7.5s7.5-3.358 7.5-7.5c0-5.182-.168-10.119-.471-14.844 4.273 1.206 8.586 2.837 12.894 4.891a7.5 7.5 0 0 0 9.997-3.542 7.5 7.5 0 0 0-3.542-9.998c-6.974-3.326-14.014-5.724-20.986-7.182-2.199-15.057-5.956-27.405-10.469-37.509 43.154-8.06 83.138 1.439 104.021 8.219l-28.957 15.252a7.5 7.5 0 0 0 1.301 13.807c40.573 12.411 76.572 41.947 92.293 56.205l-25.98 9.947c-2.591.992-4.412 3.339-4.752 6.092s.877 5.475 3.148 7.067c.19.133 19.309 13.754 42.082 48.862a7.495 7.495 0 0 0 10.373 2.21 7.5 7.5 0 0 0 2.211-10.374c-14.354-22.13-27.379-36.294-35.901-44.367l25.277-9.678a7.498 7.498 0 0 0 2.713-12.214c-1.788-1.852-40.482-41.519-90.723-62.215l28.702-15.118a7.5 7.5 0 0 0-.343-13.441c-2.6-1.205-63.555-28.894-132.886-14.079-14.572-22.738-31.979-28.898-33.228-29.315a7.502 7.502 0 0 0-9.872 7.115V68.84c-22.131 11.117-42.086 27.03-59.416 47.364L11.332 1.052a7.5 7.5 0 0 0-9.49 11.369l155.745 179.107L2.494 330.577a7.497 7.497 0 0 0-2.493 5.584c0 11.718 3.672 20.525 10.912 26.179 3.08 2.405 6.458 3.939 9.81 4.893l8.952 18.246c2.823 5.756 7.938 10.167 14.034 12.103a23.497 23.497 0 0 0 7.124 1.114c3.858 0 7.678-.969 11.174-2.879a163.939 163.939 0 0 0 5.92-3.41l24.092 14.591c3.774 2.286 7.978 3.436 12.188 3.436 3.704 0 7.413-.89 10.842-2.68 21.554-11.251 96.07-48.551 150.015-56.149 9.242-1.302 18.097-3.437 26.469-6.317l61.669 161.883a7.503 7.503 0 0 0 7.01 4.832 7.5 7.5 0 0 0 7.008-10.172l-61.798-162.22zM264.533 85.838v18.768c-10.559 3.879-20.443 9.726-29.445 17.442a12.38 12.38 0 0 0-.126.11l-7.903 7.085-8.85-5.259c13.815-15.802 29.346-28.581 46.324-38.146zM43.764 37.772l171.591 101.964-46.599 41.778L43.764 37.772z"/><path d="M511.628 369.897c-.142-.431-14.404-43.68-38.207-94.356-32.169-68.488-65.563-117.351-99.256-145.233a7.5 7.5 0 0 0-9.563 11.557c76.575 63.369 132.219 231.02 132.771 232.707a7.504 7.504 0 0 0 7.126 5.164 7.502 7.502 0 0 0 7.129-9.839zM259.021 202.311c-4.349 3.885-11.471 6.205-19.052 6.205s-14.703-2.32-19.052-6.205a7.5 7.5 0 1 0-9.994 11.185c7.126 6.368 17.713 10.021 29.046 10.021s21.92-3.652 29.046-10.021a7.5 7.5 0 0 0-9.994-11.185z"/></svg>