<svg xmlns="http://www.w3.org/2000/svg" viewBox="0 0 511.999 511.999" style="enable-background:new 0 0 511.999 511.999" xml:space="preserve"><path style="fill:#ffc9bd" d="M358.934 261.809v80.834H174.889v-80.834l42.387-12.227 64.715-18.681 57.259-6.97z"/><path style="fill:#fcafa2" d="M217.276 249.582v93.061h-42.387v-80.834z"/><path style="fill:#cf8bfc" d="m382.806 208.324-14.807 17.693-27.187-11.85-34.159 26.489H151.031v-32.332L266.918 7.598z"/><path style="fill:#96c" d="m266.918 7.598-57.191 233.058h-58.696v-32.332z"/><path style="fill:#ede6f5" d="M277.807 323.111h58.432c12.437 0 23.674 5.033 31.817 13.175 8.142 8.142 13.175 19.393 13.175 31.816H311.91c-12.422 0-23.674-5.033-31.817-13.175-7.529-7.529-12.395-17.707-13.092-29.028"/><path style="fill:#ede6f5" d="M381.233 368.102v37.768c0 10.526-8.52 19.066-19.046 19.066s-19.056-8.54-19.056-19.066v41.83c0 10.526-8.54 19.056-19.046 19.056-10.526 0-19.066-8.53-19.066-19.056v37.646c0 5.268-2.127 10.019-5.572 13.484a19.03 19.03 0 0 1-13.484 5.572c-10.516 0-19.046-8.53-19.046-19.056 0 5.268-2.127 10.019-5.572 13.484-3.465 3.444-8.226 5.572-13.484 5.572-10.526 0-19.056-8.53-19.056-19.056V447.7c0 1.469-.162 2.897-.486 4.275-1.935 8.469-9.503 14.781-18.56 14.781-10.526 0-19.066-8.53-19.066-19.056v-41.83c0 10.526-8.53 19.066-19.046 19.066-10.526 0-19.056-8.54-19.056-19.066v-37.768l14.578-14.578 61.149-16.918 38.679-10.708 73.529 22.399 19.806 19.806 20.901-.001z"/><path style="fill:#cec1e8" d="M228.318 336.605v115.369c-1.935 8.469-9.503 14.781-18.56 14.781-10.526 0-19.066-8.53-19.066-19.056v-41.83c0 10.526-8.53 19.066-19.046 19.066-10.526 0-19.056-8.54-19.056-19.066v-37.768l14.578-14.578 61.15-16.918z"/><path style="fill:#cec1e8" d="M256.016 323.111h-58.432c-12.422 0-23.674 5.033-31.817 13.175-8.142 8.142-13.175 19.393-13.175 31.816h69.335c12.422 0 23.674-5.033 31.817-13.175 7.529-7.529 12.395-17.707 13.092-29.028"/><path style="fill:#ede6f5" d="M394.181 199.673c-9.199 2.82-15.271 11.603-15.271 21.225v.007c0-12.32-9.988-22.308-22.308-22.308s-22.308 9.988-22.308 22.308c0 22.587 18.31 40.897 40.897 40.897h7.436c22.587 0 40.897-18.31 40.897-40.897.002-14.602-14.028-25.927-29.343-21.232z"/><path style="fill:#ede6f5" d="M244.148 220.904c0-12.32-9.988-22.308-22.308-22.308s-22.308 9.988-22.308 22.308c0-12.32-9.988-22.308-22.308-22.308s-22.308 9.988-22.308 22.308v-.007c0-9.621-6.072-18.404-15.271-21.225-15.315-4.696-29.344 6.63-29.344 21.231 0 22.587 18.31 40.897 40.897 40.897h142.2c22.587 0 40.897-18.31 40.897-40.897h-90.147v.001z"/><path style="fill:#ef8c33" d="m259.669 271.1-12.195 21.124c-8.641 14.965 2.16 33.673 19.441 33.673s28.081-18.706 19.441-33.673L274.16 271.1c-3.222-5.577-11.272-5.577-14.491 0z"/><path style="fill:#f9d366" d="m457.379 92.274 6.042-1.225c7.974-1.617 7.974-13.013 0-14.63l-6.042-1.225a38.655 38.655 0 0 1-30.203-30.203l-1.225-6.042c-1.617-7.974-13.013-7.974-14.63 0l-1.225 6.042a38.655 38.655 0 0 1-30.203 30.203l-6.042 1.225c-7.974 1.617-7.974 13.013 0 14.63l6.042 1.225a38.655 38.655 0 0 1 30.203 30.203l1.225 6.042c1.617 7.974 13.013 7.974 14.63 0l1.225-6.042a38.653 38.653 0 0 1 30.203-30.203z"/><path d="M418.984 196.846c-7.732-5.716-17.581-7.333-27.03-4.437a28.176 28.176 0 0 0-7.488 3.594L273.498 3.799a7.597 7.597 0 0 0-13.16 0L188.783 127.74a7.598 7.598 0 0 0 13.16 7.598l64.976-112.544 97.752 169.313a29.829 29.829 0 0 0-8.067-1.108c-13.865 0-25.554 9.485-28.924 22.308h-76.912c-3.37-12.822-15.062-22.308-28.927-22.308-8.857 0-16.826 3.87-22.308 10.008-5.481-6.138-13.451-10.008-22.308-10.008-2.79 0-5.492.386-8.056 1.104l17.214-29.816a7.598 7.598 0 0 0-13.16-7.598l-23.855 41.318a28.087 28.087 0 0 0-7.494-3.598c-9.447-2.896-19.297-1.279-27.03 4.437-7.601 5.621-12.14 14.615-12.14 24.059 0 26.74 21.755 48.495 48.495 48.495h100.678l-10.984 19.025c-4.873 8.44-5.359 18.346-1.488 27.089h-41.822a52.83 52.83 0 0 0-15.1 2.192v-30.571a7.598 7.598 0 0 0-15.196 0v37.98a53.139 53.139 0 0 0-6.893 5.798c-9.931 9.931-15.401 23.139-15.401 37.189v37.77c0 14.699 11.958 26.657 26.657 26.657 4.095 0 7.977-.929 11.447-2.587v17.757c0 14.699 11.958 26.657 26.657 26.657 4.095 0 7.977-.929 11.447-2.587v13.574c0 14.699 11.958 26.657 26.657 26.657 7.107 0 13.799-2.767 18.866-7.813l.206-.209c4.839 4.947 11.585 8.022 19.034 8.022 7.107 0 13.799-2.767 18.866-7.813 5.024-5.045 7.792-11.736 7.792-18.844v-13.578a26.514 26.514 0 0 0 11.461 2.591c14.691 0 26.643-11.958 26.643-26.657v-17.761a26.514 26.514 0 0 0 11.461 2.591c14.691 0 26.643-11.958 26.643-26.657v-37.77c0-14.05-5.47-27.258-15.401-37.189a53.139 53.139 0 0 0-6.893-5.798v-37.98a7.598 7.598 0 0 0-15.196 0v30.571a52.79 52.79 0 0 0-15.1-2.192h-41.82c3.871-8.742 3.386-18.648-1.488-27.089L281.948 269.4h11.448c17.173 0 32.279-8.981 40.897-22.484 8.619 13.503 23.724 22.484 40.897 22.484h7.436c26.741 0 48.496-21.755 48.496-48.495.002-9.444-4.537-18.439-12.138-24.059zM266.913 318.298c-5.368 0-10.176-2.776-12.86-7.425-2.685-4.649-2.684-10.201 0-14.851l12.195-21.124a.697.697 0 0 1 .665-.384c.444 0 .599.269.666.384l12.195 21.124c2.684 4.649 2.684 10.201 0 14.85-2.684 4.65-7.492 7.426-12.861 7.426zm-95.773 23.361c7.061-7.061 16.452-10.95 26.444-10.95h56.624c1.288.597 2.62 1.1 3.992 1.509a37.358 37.358 0 0 1-9.829 17.336c-7.061 7.061-16.452 10.95-26.443 10.95h-60.971c1.455-7.092 4.947-13.609 10.183-18.845zm202.492 34.042v30.171c0 6.32-5.135 11.461-11.447 11.461-6.32 0-11.461-5.141-11.461-11.461a7.598 7.598 0 0 0-15.196 0v41.827c0 6.32-5.135 11.461-11.447 11.461-6.32 0-11.461-5.141-11.461-11.461v-21.378a7.598 7.598 0 0 0-15.196 0v59.022a11.44 11.44 0 0 1-11.461 11.461c-6.311 0-11.447-5.141-11.447-11.461a7.598 7.598 0 0 0-15.196 0 11.44 11.44 0 0 1-11.461 11.461c-6.32 0-11.461-5.141-11.461-11.461v-59.022a7.598 7.598 0 0 0-15.196 0v21.378c0 6.32-5.135 11.461-11.447 11.461-6.32 0-11.461-5.141-11.461-11.461v-41.827a7.598 7.598 0 0 0-15.196 0c0 6.32-5.135 11.461-11.447 11.461-6.32 0-11.461-5.141-11.461-11.461v-30.171h61.737c14.05 0 27.257-5.47 37.188-15.401a52.59 52.59 0 0 0 7.803-9.97 52.622 52.622 0 0 0 7.803 9.97c9.931 9.931 23.139 15.401 37.189 15.401h61.722zm-10.949-34.042c5.236 5.236 8.728 11.753 10.182 18.845H311.91c-9.991 0-19.382-3.889-26.444-10.95a37.358 37.358 0 0 1-9.829-17.339 29.53 29.53 0 0 0 3.983-1.507h56.619c9.991.001 19.382 3.89 26.444 10.951zm-69.285-87.455h-142.2c-18.361 0-33.299-14.938-33.299-33.299 0-4.716 2.179-9.031 5.978-11.84a14.476 14.476 0 0 1 8.702-2.874c1.584 0 3.208.247 4.837.747 5.829 1.787 9.901 7.528 9.9 13.967 0 .056 0 .111.002.167v.028a7.598 7.598 0 0 0 15.194-.196c0-8.111 6.599-14.71 14.71-14.71s14.71 6.598 14.71 14.71a7.598 7.598 0 0 0 15.196 0c0-8.111 6.599-14.71 14.71-14.71s14.71 6.598 14.71 14.71a7.598 7.598 0 0 0 7.598 7.598h81.676c-3.446 14.712-16.675 25.702-32.424 25.702zm89.23 0h-7.436c-18.361 0-33.299-14.938-33.299-33.299 0-8.111 6.599-14.71 14.71-14.71s14.71 6.598 14.71 14.71a7.598 7.598 0 0 0 15.196 0v-.007c0-6.432 4.072-12.173 9.901-13.96 4.859-1.49 9.668-.735 13.541 2.127 3.799 2.809 5.978 7.124 5.978 11.84-.001 18.361-14.939 33.299-33.301 33.299z"/><path d="M257.816 96.51c1.641 2.552 4.851 3.821 7.801 3.232 3.313-.662 5.84-3.514 6.086-6.888.488-6.719-7.757-10.694-12.72-6.143-2.715 2.488-3.232 6.739-1.167 9.799zM232.915 160.313c1.678 2.457 4.676 3.795 7.624 3.265 3.137-.563 5.624-3.043 6.177-6.184.585-3.326-1.18-6.725-4.233-8.164-2.66-1.255-5.91-.829-8.158 1.069-2.919 2.462-3.501 6.839-1.41 10.014zM297.781 137.752c1.735 2.634 5.111 3.924 8.163 3.148 3.275-.833 5.657-3.797 5.741-7.179.167-6.704-8.218-10.304-12.962-5.563-2.545 2.543-2.913 6.6-.942 9.594zM294.509 175.824c-5.042 4.897-.728 13.659 6.157 12.924 6.69-.714 9.175-9.523 3.801-13.612-2.985-2.272-7.309-1.959-9.958.688zM464.931 68.972l-6.043-1.225a31 31 0 0 1-24.266-24.266l-1.225-6.042c-1.441-7.106-7.511-12.069-14.761-12.07-7.251 0-13.321 4.963-14.762 12.07l-1.225 6.042a31 31 0 0 1-24.266 24.266l-6.042 1.225c-7.106 1.441-12.069 7.511-12.069 14.762s4.963 13.321 12.069 14.762l6.042 1.225a31 31 0 0 1 24.266 24.266l1.225 6.043c1.441 7.106 7.512 12.069 14.763 12.069s13.32-4.963 14.761-12.069l1.225-6.043a30.998 30.998 0 0 1 24.266-24.266l6.043-1.225c7.106-1.441 12.069-7.511 12.069-14.762s-4.964-13.321-12.07-14.762zm-9.063 15.855a46.164 46.164 0 0 0-36.139 36.141l-1.093 5.393-1.093-5.393a46.166 46.166 0 0 0-36.141-36.14l-5.393-1.093 5.393-1.093a46.167 46.167 0 0 0 36.141-36.141l1.093-5.393 1.093 5.393a46.164 46.164 0 0 0 36.139 36.139l5.394 1.093-5.394 1.094zM79.768 296.705a7.598 7.598 0 0 0-7.598 7.598v20.135a7.598 7.598 0 0 0 15.196 0v-20.135a7.598 7.598 0 0 0-7.598-7.598zM79.768 350.913a7.598 7.598 0 0 0-7.598 7.598v20.135a7.598 7.598 0 0 0 15.196 0v-20.135a7.598 7.598 0 0 0-7.598-7.598zM116.938 333.876H96.805a7.598 7.598 0 0 0 0 15.196h20.135a7.598 7.598 0 1 0-.002-15.196zM62.731 333.876H42.596a7.598 7.598 0 0 0 0 15.196h20.135a7.598 7.598 0 0 0 0-15.196z"/></svg>