<svg height="512pt" viewBox="0 0 512 512" width="512pt" xmlns="http://www.w3.org/2000/svg"><path d="m449.96 421.824-51.132-12.777-3.5-13.953c13.485-13.973 22.848-32.535 26.133-51.754 8.172-3.203 14.316-10.688 15.445-19.84l3.477-27.84a24.477 24.477 0 0 0-5.844-19.16 25.122 25.122 0 0 0-7.316-5.738l1.086-22.227 4.265-4.27c7.149-7.593 16.832-23.956 1.153-47.913-11.133-17.043-29.93-25.684-55.805-25.684-9.879 0-32.45 0-53.89 13.973-61.844 1.664-69.887 32.449-69.887 59.285 0 5.8 1.238 17.77 2.218 26.39a24.382 24.382 0 0 0-8.129 6.036c-4.648 5.293-6.828 12.332-5.953 19.308l3.48 27.817c1.216 9.793 8.126 17.664 17.15 20.46 3.265 18.325 12.12 36.18 24.769 49.833l-3.817 15.277-51.136 12.777a81.839 81.839 0 0 0-62.059 79.508c0 2.84 1.129 5.547 3.113 7.555 1.985 2.004 4.735 3.113 7.551 3.113l320-.043c5.89 0 10.668-4.777 10.668-10.668 0-37.652-25.516-70.312-62.04-79.465zm0 0" fill="#455a64"/><path d="m260.95 152.191 3.476-27.84c.683-5.417-.98-10.902-4.563-14.996a19.567 19.567 0 0 0-5.742-4.48l-3.05-1.578 1.343-27.711 5.742-5.742c7.317-7.785 13.461-21.375.469-41.235-10.133-15.445-27.395-23.277-51.371-23.277-9.238 0-30.871 0-50.988 13.102l-1.278.832-1.496.043c-57 1.554-64.68 28.156-64.68 53.972 0 4.352.747 13.27 2.176 25.79l.426 3.84-3.5 1.581c-2.43 1.153-4.586 2.73-6.379 4.754a19.299 19.299 0 0 0-4.648 15.106l3.476 27.82a19.302 19.302 0 0 0 13.418 16.02l3.114.98.578 3.18c3.113 17.449 11.433 34.199 23.422 47.148l1.964 2.133-5.293 21.16-54.25 13.547c-34.132 8.555-57.984 39.125-57.984 74.328A5.337 5.337 0 0 0 10.668 336h210.773c-1.046-3.094-1.773-6.145-2.156-9.215l-3.476-27.797a51.304 51.304 0 0 1 12.394-40.234l.129-.152c-.598-6.657-.77-10.344-.832-12.5l-.832-1.239a5.77 5.77 0 0 0-1.387-1.386l-1.62-1.153-4.888-19.496 2.07-2.137c12.802-13.265 21.59-30.652 24.704-48.937l.512-2.984 2.793-1.09c6.593-2.559 11.246-8.493 12.097-15.489zm0 0" fill="#607d8b"/><path d="M214.719 341.332H10.668C4.778 341.332 0 336.555 0 330.668a81.848 81.848 0 0 1 62.04-79.512l51.132-12.777 3.82-15.274c-12.629-13.656-21.484-31.511-24.77-49.835-9.023-2.774-15.913-10.645-17.128-20.438l-3.5-27.82a24.627 24.627 0 0 1 5.953-19.305 24.447 24.447 0 0 1 8.129-6.039c-.961-8.617-2.2-20.586-2.2-26.387 0-26.84 8.024-57.62 69.891-59.285C174.805 0 197.375 0 207.254 0c25.875 0 44.648 8.64 55.809 25.707 15.68 23.957 5.992 40.32-1.153 47.914l-4.265 4.266-1.09 22.23a24.311 24.311 0 0 1 7.316 5.738c4.586 5.25 6.7 12.223 5.848 19.157l-3.48 27.84c-1.13 9.152-7.274 16.62-15.446 19.84-3.285 19.18-12.648 37.785-26.133 51.757l3.672 14.7a10.639 10.639 0 0 1 4.266 11.367c-1.43 5.718-7.34 9.09-12.93 7.746l-2.898-.727a10.638 10.638 0 0 1-7.747-7.765l-6.546-26.153c-.961-3.84.277-7.894 3.218-10.52 13.848-12.413 23.383-31.656 24.856-50.218a10.669 10.669 0 0 1 10.644-9.832c2.305 0 3.692-1.238 3.903-2.84l3.476-27.86a3.029 3.029 0 0 0-.765-2.476 3.22 3.22 0 0 0-2.434-1.129 10.747 10.747 0 0 1-7.637-3.351 10.618 10.618 0 0 1-2.879-7.829l1.684-34.816a10.653 10.653 0 0 1 3.117-7.02l6.953-6.953c2.453-2.601 7.446-7.914-1.386-21.398-7.063-10.793-19.477-16.043-37.973-16.043-13.652 0-29.61 1.41-44.29 11.926a10.657 10.657 0 0 1-6.1 1.984c-52.052.535-52.052 21.313-52.052 38.04 0 6.613 2.301 26.386 3.2 33.448a10.712 10.712 0 0 1-2.582 8.407 10.712 10.712 0 0 1-8 3.582c-2.711 0-3.52.683-3.883 1.11a3.195 3.195 0 0 0-.79 2.519l3.5 27.84a3.25 3.25 0 0 0 3.22 2.859h2.261c5.57 0 10.2 4.265 10.645 9.812 1.453 18.282 10.328 36.692 23.722 49.278 2.817 2.648 3.993 6.617 3.051 10.347l-6.824 27.286c-.941 3.84-3.95 6.804-7.766 7.765L67.2 271.871c-23.488 5.867-40.832 24.918-44.926 48.086L214.72 320c5.89 0 10.668 4.777 10.668 10.668 0 5.887-4.778 10.664-10.668 10.664zm0 0"/><path d="M181.332 512c-2.816 0-5.547-1.129-7.55-3.113s-3.114-4.715-3.114-7.555a81.844 81.844 0 0 1 62.035-79.508l51.137-12.777 3.82-15.277c-12.629-13.653-21.484-31.508-24.77-49.832-9.023-2.797-15.937-10.668-17.152-20.461l-3.476-27.817a24.636 24.636 0 0 1 5.953-19.308 24.407 24.407 0 0 1 8.125-6.036c-.98-8.62-2.219-20.59-2.219-26.39 0-26.836 8.024-57.621 69.89-59.285 21.462-13.973 44.032-13.973 53.91-13.973 25.876 0 44.65 8.64 55.806 25.707 15.68 23.957 5.996 40.316-1.153 47.914l-4.265 4.266-1.086 22.23a24.36 24.36 0 0 1 7.316 5.738c4.586 5.247 6.7 12.223 5.844 19.157l-3.477 27.84c-1.129 9.152-7.273 16.617-15.445 19.84-3.285 19.199-12.649 37.78-26.133 51.753l3.5 13.953 51.133 12.778C486.484 430.977 512 463.637 512 501.289c0 5.89-4.777 10.668-10.668 10.668zm11.606-21.375 296.789.043a60.508 60.508 0 0 0-44.926-48.129l-57.344-14.336a10.7 10.7 0 0 1-7.766-7.765l-6.55-26.157c-.961-3.84.277-7.89 3.222-10.515 13.844-12.418 23.36-31.66 24.852-50.243a10.676 10.676 0 0 1 10.648-9.812c2.301 0 3.688-1.234 3.903-2.836l3.476-27.863a3.038 3.038 0 0 0-.765-2.473 3.235 3.235 0 0 0-2.434-1.133 10.736 10.736 0 0 1-7.637-3.347 10.633 10.633 0 0 1-2.883-7.829l1.688-34.816a10.667 10.667 0 0 1 3.113-7.02l6.957-6.953c2.453-2.605 7.446-7.918-1.386-21.398-7.063-10.797-19.48-16.043-37.973-16.043-13.676 0-29.613 1.406-44.313 11.926-1.77 1.3-3.925 1.984-6.101 2.004-52.031.511-52.031 21.312-52.031 38.015 0 6.614 2.304 26.39 3.199 33.453.387 3.051-.555 6.079-2.578 8.403a10.689 10.689 0 0 1-8 3.605c-2.711 0-3.524.684-3.883 1.11a3.181 3.181 0 0 0-.79 2.52l3.477 27.839a3.25 3.25 0 0 0 3.22 2.86h2.26c5.571 0 10.2 4.265 10.65 9.812 1.448 18.281 10.323 36.691 23.722 49.281 2.812 2.645 4.008 6.613 3.047 10.344l-6.824 27.285c-.938 3.84-3.946 6.809-7.766 7.766l-57.344 14.336a60.44 60.44 0 0 0-44.93 48.066zM437.332 149.332c-1.363 0-2.75-.277-4.074-.809a10.668 10.668 0 0 1-6.59-9.855v-64c0-29.422-23.938-53.336-53.336-53.336h-64c-5.887 0-10.664-4.777-10.664-10.664 0-5.89 4.777-10.668 10.664-10.668h64C414.508 0 448 33.492 448 74.668v38.25l24.45-24.45c4.16-4.16 10.921-4.16 15.081 0s4.16 10.923 0 15.083l-42.668 42.668a10.66 10.66 0 0 1-7.531 3.113zm0 0"/><path d="M437.332 149.332c-2.73 0-5.46-1.043-7.55-3.113l-42.669-42.668c-4.16-4.16-4.16-10.922 0-15.082s10.926-4.16 15.086 0l42.664 42.668c4.16 4.16 4.16 10.922 0 15.082a10.626 10.626 0 0 1-7.531 3.113zM138.668 512C97.492 512 64 478.508 64 437.332v-38.25l-24.45 24.45c-4.16 4.16-10.921 4.16-15.081 0s-4.16-10.923 0-15.083l42.668-42.668c3.05-3.07 7.636-3.945 11.625-2.304a10.68 10.68 0 0 1 6.57 9.855v64c0 29.422 23.938 53.336 53.336 53.336 5.887 0 10.664 4.777 10.664 10.664 0 5.89-4.777 10.668-10.664 10.668zm0 0"/><path d="M117.332 426.668c-2.73 0-5.46-1.047-7.55-3.117l-42.669-42.664c-4.16-4.16-4.16-10.926 0-15.086 4.16-4.156 10.926-4.156 15.086 0l42.664 42.668c4.16 4.16 4.16 10.922 0 15.082a10.63 10.63 0 0 1-7.531 3.117zm0 0"/></svg>