<svg xmlns="http://www.w3.org/2000/svg" style="enable-background:new 0 0 512 512" xml:space="preserve" width="512" height="512"><path style="fill:#475d6d" d="M362.074 28.987h49.746a30.92 30.92 0 0 1 28.378 18.641l3.179 7.347h15.013c25.466 0 46.111 20.644 46.111 46.111v169.566c0 18.089-14.664 32.754-32.754 32.754H306.308c-18.089 0-32.754-14.664-32.754-32.754V117.507c0-48.888 39.632-88.52 88.52-88.52z"/><path style="fill:#2c3f4f" d="M458.389 54.975h-15.012l-3.179-7.347a30.92 30.92 0 0 0-28.378-18.641h-25.767a30.92 30.92 0 0 1 28.378 18.641l3.179 7.347h15.013c25.466 0 46.111 20.644 46.111 46.111v169.566c0 18.089-14.664 32.753-32.754 32.753h25.767c18.089 0 32.753-14.664 32.753-32.753V101.086c0-25.466-20.644-46.111-46.111-46.111z"/><path style="fill:#f9dc6a" d="m207.31 55.279-94.342-22.442a29.776 29.776 0 0 0-27.945 7.913L58.195 67.577h-11.37c-16.444 0-29.775 13.331-29.775 29.775 0 0-1.502 36.531 0 48.584 1.784 14.32 14.164 55.96 14.164 55.96H232.43l37.706-149.222c1.932-7.655-6.958-13.39-13.136-8.474a58.173 58.173 0 0 1-49.69 11.079z"/><path style="fill:#e5ac51" d="M257 44.201a58.108 58.108 0 0 1-12.694 7.66c-.042.271-.068.538-.138.814l-37.706 149.222h25.967l37.706-149.222c1.933-7.656-6.957-13.391-13.135-8.474z"/><path style="fill:#2bb4f3" d="M444.46 328.996H45.379v60.255h270.608v93.762h182.105V382.627c0-29.62-24.012-53.631-53.632-53.631z"/><path style="fill:#1687c4" d="M444.46 328.996h-22.958c29.62 0 53.631 24.011 53.631 53.631v100.386h22.958V382.627c.001-29.62-24.011-53.631-53.631-53.631zM270.395 389.251v-6.624c0-29.619-24.01-53.629-53.628-53.631H105.894c-29.618.001-53.628 24.012-53.628 53.631v6.624h218.129z"/><path style="fill:#f2a077" d="M356.714 275.109v65.133c0 17.846 32.313 35.854 32.313 35.854s32.313-18.008 32.313-35.854v-65.133h-64.626z"/><path style="fill:#fca" d="M501.933 197.336v9.514c0 11.107-8.994 20.113-20.101 20.113h-6.822c-2.726 52.467-51.389 88.906-99.136 80.593h-.012c-39.848-6.114-70.69-39.553-72.815-80.593h-6.822c-11.107 0-20.113-9.006-20.113-20.113v-9.514c0-11.107 9.006-20.113 20.113-20.113h6.692v-43.649c0-1.169.024-2.325.083-3.47 11.803 2.278 23.996 3.458 36.46 3.458 37.983 0 73.393-11.001 103.22-30.004a190.245 190.245 0 0 0 18.791-13.609c8.409 11.884 13.656 27.318 13.656 43.625v43.649h6.704c11.108 0 20.102 9.007 20.102 20.113z"/><path style="fill:#f2a077" d="M481.832 177.223h-6.704v-17.819h-.009c-.004-29.585-.007-27.267-.015-27.683-.383-15.689-5.586-30.4-13.633-41.772a190.363 190.363 0 0 1-18.791 13.609 76.318 76.318 0 0 1 6.114 30.016v43.649l-.13 49.74c-1.18 22.721-11.154 43.129-26.605 57.848-12.441 11.862-28.422 20.007-46.186 22.745 43.568 7.585 87.89-22.092 97.389-67.205l.002-.009a86.082 86.082 0 0 0 1.116-6.533l.025-.202c.121-.937.224-1.88.316-2.828.023-.238.046-.475.067-.713.09-1.029.169-2.062.223-3.104h6.822c11.107 0 20.101-9.006 20.101-20.113v-9.514c-.001-11.105-8.995-20.112-20.102-20.112z"/><path style="fill:#ff5a59" d="M240.886 483.013H22.757V382.627c0-29.62 24.011-53.631 53.631-53.631h110.867c29.62 0 53.631 24.011 53.631 53.631v100.386z"/><path style="fill:#ce3a4c" d="M187.255 328.996h-22.958c29.62 0 53.631 24.011 53.631 53.631v100.386h22.958V382.627c0-29.62-24.011-53.631-53.631-53.631z"/><path style="fill:#f2a077" d="M99.509 275.109v65.133c0 17.846 14.467 32.313 32.313 32.313 17.846 0 32.313-14.467 32.313-32.313v-65.133H99.509z"/><path style="fill:#fca" d="M244.738 197.336v9.514c0 11.107-9.006 20.113-20.113 20.113h-6.822c-.901 16.65-6.638 32.312-14.742 43.849 0 .012-.012.012-.012.024-16.204 24.923-49.568 41.982-84.382 36.72h-.012c-39.848-6.114-70.69-39.553-72.815-80.593h-6.822c-11.107 0-20.101-9.006-20.101-20.113v-9.514c0-11.107 8.994-20.113 20.101-20.113h6.704v-31.657c23.099-1.558 30.571-8.64 30.571-31.409 0 0 29.39 52.348 115.295 36.744 8.251-1.499 17.02-3.624 26.345-6.48v32.801h6.692c11.107.001 20.113 9.008 20.113 20.114z"/><path style="fill:#f2a077" d="M224.625 177.223h-6.692v-32.802c-9.325 2.856-18.095 4.981-26.345 6.48v26.321l-.13 49.74c-1.18 22.721-11.154 43.129-26.605 57.848-12.441 11.862-28.411 20.007-46.187 22.745 34.802 5.26 68.238-11.89 84.382-36.72 0-.012.012-.012.012-.024 5.2-6.62 10.761-19.062 13.353-32.719h.048c.461-2.494.816-5.03 1.065-7.593l.032-.305c.1-1.073.186-2.15.245-3.232h6.822c11.107 0 20.113-9.006 20.113-20.113v-9.514c0-11.105-9.006-20.112-20.113-20.112z"/><path style="fill:#fca" d="M44.46 397.96H26.195c-10.325 0-18.695-8.37-18.695-18.695v-40.804c0-10.325 8.37-18.695 18.695-18.695H44.46c7.586 0 13.735 6.149 13.735 13.735v50.724c0 7.586-6.15 13.735-13.735 13.735z"/><path d="M349.759 232.287a41.952 41.952 0 0 0 9.306 14.035c8.016 7.998 18.657 12.402 29.963 12.402 17.34 0 32.752-10.373 39.263-26.425a7.5 7.5 0 0 0-13.901-5.638c-4.204 10.365-14.159 17.063-25.362 17.063-7.306 0-14.185-2.849-19.363-8.015a27.023 27.023 0 0 1-5.995-9.037 7.5 7.5 0 0 0-9.763-4.147 7.5 7.5 0 0 0-4.148 9.762zM345.923 190.304a7.5 7.5 0 0 0 7.5-7.5v-4.159c0-4.142-3.357-7.5-7.5-7.5s-7.5 3.358-7.5 7.5v4.159a7.5 7.5 0 0 0 7.5 7.5zM432.131 190.304a7.5 7.5 0 0 0 7.5-7.5v-4.159c0-4.142-3.357-7.5-7.5-7.5s-7.5 3.358-7.5 7.5v4.159a7.5 7.5 0 0 0 7.5 7.5zM131.822 258.723c17.34 0 32.752-10.373 39.263-26.425a7.5 7.5 0 0 0-13.901-5.638c-4.204 10.365-14.159 17.063-25.362 17.063-7.306 0-14.185-2.849-19.363-8.014a27.023 27.023 0 0 1-5.995-9.036 7.499 7.499 0 0 0-9.761-4.149 7.499 7.499 0 0 0-4.149 9.761c2.123 5.262 5.251 9.982 9.305 14.037 8.017 7.997 18.658 12.401 29.963 12.401zM96.218 182.804v-4.159c0-4.142-3.357-7.5-7.5-7.5s-7.5 3.358-7.5 7.5v4.159c0 4.142 3.357 7.5 7.5 7.5s7.5-3.358 7.5-7.5zM174.926 190.304a7.5 7.5 0 0 0 7.5-7.5v-4.159c0-4.142-3.357-7.5-7.5-7.5s-7.5 3.358-7.5 7.5v4.159a7.5 7.5 0 0 0 7.5 7.5z"/><path d="M504.5 129.4a7.5 7.5 0 0 0 7.5-7.5v-20.81c0-29.561-24.05-53.61-53.61-53.61h-10.083l-1.224-2.83a38.404 38.404 0 0 0-35.263-23.16h-49.75c-52.946 0-96.021 43.074-96.021 96.02v153.14c0 22.2 18.061 40.26 40.26 40.26h42.9v10.59H171.63v-14.314a93.577 93.577 0 0 0 24.74-16.944c15.672-14.929 25.56-34.523 28.283-55.779 15.213-.015 27.584-12.396 27.584-27.613v-9.514c0-6.733-2.428-12.906-6.446-17.703l17.261-68.316a7.5 7.5 0 1 0-14.543-3.675l-15.979 63.241a27.456 27.456 0 0 0-7.098-1.148v-25.313a7.5 7.5 0 0 0-9.7-7.17c-41.101 12.609-77.123 11.943-104.17-1.931-20.262-10.394-28.667-24.724-28.73-24.834a7.502 7.502 0 0 0-14.041 3.672c0 18.578-3.966 22.603-23.575 23.926a7.5 7.5 0 0 0-6.995 7.483v24.168a27.457 27.457 0 0 0-7.851 1.379c-3.239-12.275-5.295-21.383-5.879-26.1-1.167-9.385-.358-37.367.052-47.356a7.91 7.91 0 0 0 .006-.308c0-12.28 9.99-22.27 22.271-22.27h11.37c1.989 0 3.896-.79 5.304-2.197l26.828-26.83c5.433-5.432 13.444-7.699 20.912-5.917l94.337 22.439a65.672 65.672 0 0 0 15.198 1.784c14.799 0 29.325-5.076 40.902-14.292.187-.149.42-.337.874-.043.453.292.38.58.322.809l-5.68 22.48a7.5 7.5 0 0 0 5.435 9.109 7.498 7.498 0 0 0 9.108-5.434l5.681-22.482c1.68-6.658-.965-13.365-6.736-17.087-5.774-3.724-12.976-3.364-18.347.915a50.867 50.867 0 0 1-31.56 11.027 50.69 50.69 0 0 1-11.725-1.376L114.71 25.544c-12.496-2.981-25.904.813-34.994 9.902L55.084 60.08H46.82c-20.497 0-37.183 16.632-37.271 37.109-.117 2.91-1.468 37.417.057 49.672.768 6.21 3.359 17.461 7.7 33.453a27.48 27.48 0 0 0-5.89 17.023v9.514c0 15.215 12.364 27.596 27.569 27.613 4.141 32.417 24.755 59.425 53.024 72.716v14.32H76.39c-4.582 0-9.097.507-13.498 1.5-3.661-6.401-10.544-10.734-18.432-10.734H26.195C11.751 312.266 0 324.017 0 338.461v40.803c0 10.542 6.263 19.643 15.26 23.794v79.951a7.5 7.5 0 0 0 7.5 7.5h218.13a7.5 7.5 0 0 0 7.5-7.5V382.63c0-18.4-8.183-34.914-21.087-46.13H349.21v3.74c0 21.632 32.468 40.348 36.17 42.411a7.5 7.5 0 0 0 7.301 0c3.701-2.063 36.158-20.78 36.158-42.411v-3.74h15.62c25.437 0 46.13 20.694 46.13 46.13v92.88h-21.022v-50.25c0-4.142-3.357-7.5-7.5-7.5s-7.5 3.358-7.5 7.5v50.25H323.49v-86.26a7.5 7.5 0 0 0-7.5-7.5H271c-4.143 0-7.5 3.358-7.5 7.5s3.357 7.5 7.5 7.5h37.49v86.26a7.5 7.5 0 0 0 7.5 7.5h182.1a7.5 7.5 0 0 0 7.5-7.5V382.63c0-33.707-27.423-61.13-61.13-61.13h-15.62v-10.59h42.91c22.194 0 40.25-18.061 40.25-40.26V157.31c0-4.142-3.357-7.5-7.5-7.5s-7.5 3.358-7.5 7.5v16.975a27.415 27.415 0 0 0-14.373-4.551v-36.16c0-17.237-5.187-33.803-15-47.908a7.498 7.498 0 0 0-10.914-1.515c-32.938 27.027-74.579 41.911-117.253 41.911-11.826 0-23.615-1.118-35.04-3.323a7.501 7.501 0 0 0-8.911 6.981 74.251 74.251 0 0 0-.093 3.854v36.161a27.432 27.432 0 0 0-14.366 4.551V117.51c0-44.674 36.346-81.02 81.021-81.02h49.75a23.41 23.41 0 0 1 21.496 14.118l3.18 7.35a7.501 7.501 0 0 0 6.884 4.522h15.01c21.29 0 38.61 17.32 38.61 38.61v20.81a7.498 7.498 0 0 0 7.499 7.5zM53.329 226.576a7.5 7.5 0 0 0-7.49-7.113h-6.822c-6.948 0-12.601-5.658-12.601-12.613v-9.514c0-6.955 5.652-12.613 12.601-12.613h6.705a7.5 7.5 0 0 0 7.5-7.5v-24.891c15.63-2.231 24.427-8.32 28.249-20.189 5.344 5.164 12.666 10.96 22.271 16.017 35.02 18.437 75.794 14.311 106.69 6.194v22.869a7.5 7.5 0 0 0 7.5 7.5h6.692c6.954 0 12.612 5.658 12.612 12.613v9.514c0 6.955-5.658 12.613-12.612 12.613h-6.822a7.5 7.5 0 0 0-7.49 7.111c-1.046 20.129-9.672 38.883-24.288 52.807a78.46 78.46 0 0 1-24.749 15.975 4.207 4.207 0 0 0-.14.06 78.51 78.51 0 0 1-29.309 5.644 78.495 78.495 0 0 1-29.297-5.642c-.141-.062-.287-.116-.432-.17-27.401-11.185-47.151-37.389-48.768-68.672zm78.498 89.484a93.828 93.828 0 0 0 24.803-3.345v27.525c0 6.631-2.579 12.862-7.264 17.546-4.683 4.684-10.914 7.263-17.546 7.263-13.681 0-24.811-11.129-24.811-24.81V312.72a93.792 93.792 0 0 0 24.818 3.34zM15 338.461c0-6.173 5.022-11.195 11.195-11.195H44.46a6.241 6.241 0 0 1 6.234 6.235v50.724a6.242 6.242 0 0 1-6.234 6.235H26.195c-6.173 0-11.195-5.022-11.195-11.195v-40.804zm218.39 44.169v92.88h-21.027v-50.25c0-4.142-3.357-7.5-7.5-7.5s-7.5 3.358-7.5 7.5v50.25H66.281v-50.25c0-4.142-3.357-7.5-7.5-7.5s-7.5 3.358-7.5 7.5v50.25H30.26v-70.05h14.2c11.709 0 21.234-9.526 21.234-21.235v-46.472a46.218 46.218 0 0 1 10.695-1.253h15.62v3.74c0 21.951 17.859 39.81 39.811 39.81 10.639 0 20.637-4.14 28.153-11.657 7.517-7.517 11.656-17.515 11.656-28.153v-3.74h15.63c25.437 0 46.131 20.694 46.131 46.13zm180.45-42.39c0 8.314-13.497 20.06-24.81 27.142-11.321-7.084-24.82-18.829-24.82-27.142v-27.52a93.746 93.746 0 0 0 49.63-.008v27.528zM497 270.65c0 13.929-11.327 25.26-25.25 25.26h-24.706a94.664 94.664 0 0 0 6.535-5.67c15.67-14.938 25.558-34.533 28.281-55.777a27.433 27.433 0 0 0 15.14-4.56v40.747zm-213.389-73.314c0-6.955 5.658-12.613 12.612-12.613h6.692a7.5 7.5 0 0 0 7.5-7.5v-38.259a201.53 201.53 0 0 0 29.044 2.099c43.271 0 85.561-14.157 120.028-40.025 5.345 9.96 8.139 21.066 8.139 32.537v43.649a7.5 7.5 0 0 0 7.5 7.5h6.705c6.948 0 12.601 5.658 12.601 12.613v9.514c0 6.955-5.652 12.613-12.601 12.613h-6.822a7.5 7.5 0 0 0-7.49 7.111c-1.045 20.118-9.672 38.873-24.288 52.807a78.47 78.47 0 0 1-24.621 15.919 7.166 7.166 0 0 0-.394.168c-9.179 3.669-19.058 5.592-29.195 5.592a78.466 78.466 0 0 1-29.287-5.64c-.145-.064-.294-.119-.443-.174-27.394-11.186-47.139-37.389-48.755-68.67a7.5 7.5 0 0 0-7.49-7.113h-6.822c-6.954 0-12.612-5.658-12.612-12.613v-9.515zm12.581 37.127c3.186 24.946 16.131 46.688 34.804 61.447H306.31c-13.929 0-25.26-11.332-25.26-25.26v-40.746a27.445 27.445 0 0 0 15.142 4.559z"/></svg>