<svg height="512" width="512" xmlns="http://www.w3.org/2000/svg"><path d="M230.818 97.5h49.706v60h-49.706z" fill="#8c98a7"/><path d="M255.671 7.5c-33.137 0-60 26.863-60 60 0 16.569 6.716 31.569 17.574 42.427l17.573 17.573h49.706l17.574-17.573c10.858-10.858 17.574-25.858 17.574-42.427-.001-33.137-26.864-60-60.001-60z" fill="#ffb739"/><path d="M143.167 187.5h-30l30 152.511c0 8.28 6.71 14.5 15 14.5 8.28 0 15-6.22 15-14.5l30-69.005-30-53.505c0-16.501-13.5-30.001-30-30.001z" fill="#a6b0bd"/><path d="M37.5 187.5h30l-30 152.011c0 8.28-6.72 15-15 15s-15-6.72-15-15V217.5c0-16.5 13.5-30 30-30z" fill="#dae0e7"/><path d="M143.167 217.5c0-16.5-13.5-30-30-30H67.5c-16.5 0-30 13.5-30 30v268.084c0 10.447 8.469 18.916 18.917 18.916 10.447 0 18.917-8.469 18.917-18.916V339.511h30v146.073c0 10.447 8.469 18.916 18.917 18.916 10.447 0 18.916-8.469 18.916-18.916z" fill="#c0c8d2"/><path d="M90.004 67.5v90c24.853 0 45-20.147 45-45s-20.147-45-45-45z" fill="#a6b0bd"/><path d="M105.004 112.5c0-24.853-6.716-45-15-45-24.853 0-45 20.147-45 45s20.147 45 45 45c8.285 0 15-20.147 15-45z" fill="#c0c8d2"/><path d="M308.833 187.5h-30l30 152.511c0 8.28 6.71 14.5 15 14.5 8.28 0 15-6.22 15-14.5l30-69.005-30-53.505c0-16.501-13.5-30.001-30-30.001z" fill="#1c77db"/><path d="M203.167 187.5h30l-30 152.011c0 8.28-6.72 15-15 15s-15-6.72-15-15V217.5c0-16.5 13.5-30 30-30z" fill="#54a5ff"/><path d="M308.833 217.5c0-16.5-13.5-30-30-30h-45.667c-16.5 0-30 13.5-30 30v268.084c0 10.447 8.469 18.916 18.917 18.916 10.447 0 18.917-8.469 18.917-18.916V339.511h30v146.073c0 10.447 8.469 18.916 18.917 18.916 10.447 0 18.916-8.469 18.916-18.916z" fill="#1e8aff"/><path d="M474.5 187.5h-30l30 152.511c0 8.28 6.71 14.5 15 14.5 8.28 0 15-6.22 15-14.5V217.5c0-16.5-13.5-30-30-30z" fill="#a6b0bd"/><path d="M368.833 187.5h30l-30 152.011c0 8.28-6.72 15-15 15s-15-6.72-15-15V217.5c0-16.5 13.5-30 30-30z" fill="#dae0e7"/><path d="M474.5 217.5c0-16.5-13.5-30-30-30h-45.667c-16.5 0-30 13.5-30 30v268.084c0 10.447 8.469 18.916 18.917 18.916 10.447 0 18.917-8.469 18.917-18.916V339.511h30v146.073c0 10.447 8.469 18.916 18.917 18.916 10.447 0 18.916-8.469 18.916-18.916z" fill="#c0c8d2"/><path d="M421.338 67.5v90c24.853 0 45-20.147 45-45s-20.148-45-45-45z" fill="#a6b0bd"/><path d="M436.338 112.5c0-24.853-6.716-45-15-45-24.853 0-45 20.147-45 45s20.147 45 45 45c8.284 0 15-20.147 15-45z" fill="#c0c8d2"/><circle cx="255.671" cy="67.5" fill="#ffd17e" r="30"/><path d="M37.5 210a7.5 7.5 0 0 0-7.5 7.5v15a7.5 7.5 0 0 0 15 0v-15a7.5 7.5 0 0 0-7.5-7.5zM90.004 165c28.949 0 52.5-23.551 52.5-52.5S118.953 60 90.004 60s-52.5 23.551-52.5 52.5 23.552 52.5 52.5 52.5zm0-90c20.678 0 37.5 16.822 37.5 37.5s-16.822 37.5-37.5 37.5-37.5-16.822-37.5-37.5S69.327 75 90.004 75z"/><path d="M474.5 180H368.833c-12.254 0-23.153 5.909-30 15.026-6.847-9.117-17.746-15.026-30-15.026H203.167c-12.254 0-23.153 5.909-30 15.026-6.847-9.117-17.746-15.026-30-15.026H37.5C16.822 180 0 196.822 0 217.5v122.011c0 12.407 10.093 22.5 22.5 22.5 2.629 0 5.153-.458 7.5-1.29v124.863C30 500.149 41.851 512 56.417 512s26.417-11.851 26.417-26.417V347.011h15v138.573c0 14.566 11.851 26.417 26.417 26.417s26.417-11.851 26.417-26.417V360.798a23.536 23.536 0 0 0 7.5 1.213c5.892 0 11.186-2.108 15.158-5.611 3.965 3.488 9.159 5.611 14.842 5.611 2.629 0 5.153-.458 7.5-1.29v124.863c0 14.566 11.851 26.417 26.417 26.417s26.417-11.851 26.417-26.417V347.011h15v138.573c0 14.566 11.851 26.417 26.417 26.417s26.417-11.851 26.417-26.417V360.798a23.538 23.538 0 0 0 7.501 1.213c5.892 0 11.186-2.108 15.158-5.611 3.965 3.488 9.159 5.611 14.842 5.611 2.629 0 5.153-.458 7.5-1.29v124.863c0 14.566 11.851 26.417 26.417 26.417s26.417-11.851 26.417-26.417V347.011h15v138.573c0 14.566 11.851 26.417 26.417 26.417S482 500.149 482 485.583V360.798a23.536 23.536 0 0 0 7.5 1.213c12.617 0 22.5-9.664 22.5-22V217.5c0-20.678-16.822-37.5-37.5-37.5zM158.167 347.011c-4.276 0-7.5-3.009-7.5-7V217.5a7.5 7.5 0 0 0-15 0v268.083c0 6.295-5.122 11.417-11.417 11.417s-11.417-5.122-11.417-11.417V339.511a7.5 7.5 0 0 0-7.5-7.5h-30a7.5 7.5 0 0 0-7.5 7.5v146.073c0 6.295-5.122 11.417-11.417 11.417S45 491.878 45 485.583V262.5a7.5 7.5 0 0 0-15 0v77.011c0 4.136-3.364 7.5-7.5 7.5s-7.5-3.364-7.5-7.5V217.5c0-12.407 10.093-22.5 22.5-22.5h105.667c12.407 0 22.5 10.093 22.5 22.5v122.011c0 .112.007.221.008.333-.001.056-.008.111-.008.167 0 3.99-3.225 7-7.5 7zm165.666 0c-4.276 0-7.5-3.009-7.5-7l-.001-122.511a7.5 7.5 0 0 0-15 0v268.083c0 6.295-5.122 11.417-11.417 11.417s-11.417-5.122-11.417-11.417V339.511a7.5 7.5 0 0 0-7.5-7.5h-30a7.5 7.5 0 0 0-7.5 7.5v146.073c0 6.295-5.122 11.417-11.417 11.417s-11.417-5.122-11.417-11.417V217.5a7.5 7.5 0 0 0-15 0v122.011c0 4.136-3.365 7.5-7.5 7.5-4.136 0-7.5-3.364-7.5-7.5V217.5c0-12.407 10.093-22.5 22.5-22.5h105.667c12.407 0 22.5 10.093 22.5 22.5v122.011c0 .112.007.221.008.333-.001.056-.008.111-.008.167.002 3.99-3.222 7-7.498 7zm173.167-7c0 3.991-3.224 7-7.5 7s-7.5-3.009-7.5-7V217.5a7.5 7.5 0 0 0-15 0v268.083c0 6.295-5.122 11.417-11.417 11.417s-11.417-5.122-11.417-11.417V339.511a7.5 7.5 0 0 0-7.5-7.5h-30a7.5 7.5 0 0 0-7.5 7.5v146.073c0 6.295-5.122 11.417-11.417 11.417s-11.417-5.122-11.417-11.417V217.5a7.5 7.5 0 0 0-15 0v122.011c0 4.136-3.365 7.5-7.5 7.5-4.136 0-7.5-3.364-7.5-7.5V217.5c0-12.407 10.093-22.5 22.5-22.5H474.5c12.407 0 22.5 10.093 22.5 22.5zM421.338 165c28.949 0 52.5-23.551 52.5-52.5S450.287 60 421.338 60s-52.5 23.551-52.5 52.5 23.551 52.5 52.5 52.5zm0-90c20.678 0 37.5 16.822 37.5 37.5s-16.822 37.5-37.5 37.5-37.5-16.822-37.5-37.5S400.66 75 421.338 75zM223.318 130.606V157.5a7.5 7.5 0 0 0 7.5 7.5h49.706a7.5 7.5 0 0 0 7.5-7.5v-26.894l15.377-15.377c12.749-12.749 19.77-29.699 19.77-47.729 0-37.22-30.28-67.5-67.5-67.5s-67.5 30.28-67.5 67.5c0 18.03 7.021 34.98 19.771 47.729zm15 19.394v-15h34.706v15zm17.353-135c28.949 0 52.5 23.551 52.5 52.5 0 14.023-5.461 27.207-15.376 37.123L277.417 120h-43.493l-15.377-15.377c-9.916-9.916-15.377-23.1-15.377-37.123.001-28.949 23.552-52.5 52.501-52.5z"/></svg>