<svg xmlns="http://www.w3.org/2000/svg" style="enable-background:new 0 0 512 512" xml:space="preserve" width="512" height="512"><circle style="fill:#ff8086" cx="103.694" cy="87.661" r="80.161"/><path style="fill:#ecbd83" d="M378.365 449.095 320.54 429.82a24.048 24.048 0 0 1-16.444-22.814V360.21h-96.194v46.796a24.048 24.048 0 0 1-16.444 22.814l-57.826 19.275a32.063 32.063 0 0 0-21.924 30.418V504.5H400.29v-24.986a32.065 32.065 0 0 0-21.925-30.419z"/><path style="fill:#e2a975" d="M207.903 403.307c14.169 8.226 30.567 13.015 48.097 13.015s33.928-4.79 48.097-13.015v-35.081h-96.194v35.081z"/><path style="fill:#f6d190" d="M336.161 288.065v-64.129h-144.29l-16.032 16.032v48.097c-8.854 0-16.032 7.178-16.032 16.032s7.178 16.032 16.032 16.032h.405c4.023 40.507 38.191 72.145 79.757 72.145s75.733-31.638 79.757-72.145h.405c8.854 0 16.032-7.178 16.032-16.032-.001-8.855-7.179-16.032-16.034-16.032z"/><path style="fill:#ecbd83" d="M241.693 256h94.468v-24.048H175.839v56.113c-10.732 0-19.001 10.544-15.012 21.839 2.208 6.25 8.431 10.226 15.06 10.226h.357c4.023 40.507 38.191 72.145 79.757 72.145 4.098 0 8.092-.405 12.024-.998-38.552-5.815-68.137-38.989-68.137-79.163v-18.367c0-6.553 4.057-12.289 10.092-14.842 8.045-3.403 14.513-9.629 18.563-16.021 2.81-4.436 7.9-6.884 13.15-6.884z"/><path style="fill:#ff7350" d="M207.903 207.903h-8.016c-13.282 0-24.048 10.767-24.048 24.048v40.081c17.709 0 32.064-14.356 32.064-32.064v-32.065z"/><path style="fill:#ff8b5a" d="M312.113 183.855h-80.161c-17.709 0-32.065 14.356-32.065 32.065v8.016c0 8.854 7.178 16.032 16.032 16.032h120.242v-32.065c0-13.281-10.767-24.048-24.048-24.048z"/><path style="fill:#ffa95f" d="M336.161 207.903c0-13.282-10.767-24.048-24.048-24.048h-80.161c-2.785 0-5.44.466-8.016 1.134 0 21.51 17.437 38.947 38.947 38.947h73.279v-16.033z"/><path style="fill:#966a5b" d="m378.366 449.095-37.512-12.504c-18.892 26.514-49.817 43.861-84.853 43.861s-65.961-17.347-84.853-43.861l-37.512 12.504a32.063 32.063 0 0 0-21.924 30.419V504.5H400.29v-24.986a32.065 32.065 0 0 0-21.924-30.419z"/><path style="fill:#b57f5f" d="M256 496.484c42.176 0 79.218-21.758 100.681-54.617l-31.834-10.611C308.689 451.451 283.876 464.42 256 464.42s-52.688-12.969-68.847-33.164l-31.834 10.611c21.463 32.859 58.505 54.617 100.681 54.617z"/><path style="fill:#e5646e" d="M119.726 151.79c-44.272 0-80.161-35.89-80.161-80.161 0-18.043 6.034-34.637 16.094-48.034C36.186 38.22 23.532 61.433 23.532 87.661c0 44.272 35.89 80.161 80.161 80.161 26.229 0 49.441-12.654 64.066-32.127-13.396 10.061-29.989 16.095-48.033 16.095z"/><circle style="fill:#ccf49f" cx="408.306" cy="87.661" r="80.161"/><path style="fill:#b3e59f" d="M424.339 151.79c-44.272 0-80.161-35.89-80.161-80.161 0-18.043 6.034-34.637 16.094-48.034-19.473 14.625-32.126 37.838-32.126 64.066 0 44.272 35.89 80.161 80.161 80.161 26.229 0 49.441-12.654 64.066-32.127-13.397 10.061-29.99 16.095-48.034 16.095z"/><path d="M215.919 303.581a7.5 7.5 0 0 0 7.5-7.5v-8.016a7.5 7.5 0 0 0-15 0v8.016a7.5 7.5 0 0 0 7.5 7.5zM296.081 303.581a7.5 7.5 0 0 0 7.5-7.5v-8.016a7.5 7.5 0 0 0-15 0v8.016a7.5 7.5 0 0 0 7.5 7.5zM191.355 87.661C191.355 39.325 152.03 0 103.693 0 55.357 0 16.032 39.325 16.032 87.661c0 48.337 39.325 87.662 87.661 87.662 48.337 0 87.662-39.325 87.662-87.662zm-87.662 72.662c-40.065 0-72.661-32.596-72.661-72.662C31.032 47.596 63.628 15 103.693 15c40.066 0 72.662 32.596 72.662 72.661 0 40.066-32.596 72.662-72.662 72.662zM408.307 0c-48.337 0-87.662 39.325-87.662 87.661 0 48.337 39.325 87.662 87.662 87.662 48.336 0 87.661-39.325 87.661-87.662C495.968 39.325 456.643 0 408.307 0zm0 160.323c-40.066 0-72.662-32.596-72.662-72.662 0-40.065 32.596-72.661 72.662-72.661 40.065 0 72.661 32.596 72.661 72.661 0 40.066-32.596 72.662-72.661 72.662z"/><path d="M133.045 58.31a7.5 7.5 0 0 0-10.606 0l-18.745 18.745L84.948 58.31a7.5 7.5 0 0 0-10.606 0 7.5 7.5 0 0 0 0 10.606l18.745 18.745-18.745 18.745a7.5 7.5 0 0 0 5.303 12.803 7.474 7.474 0 0 0 5.303-2.197l18.745-18.745 18.745 18.745c1.464 1.464 3.384 2.197 5.303 2.197s3.839-.732 5.303-2.197a7.5 7.5 0 0 0 0-10.606L114.3 87.661l18.745-18.745a7.5 7.5 0 0 0 0-10.606zM435.068 62.318l-38.786 38.785-14.737-14.737a7.5 7.5 0 0 0-10.606 0 7.5 7.5 0 0 0 0 10.606l20.041 20.04c1.464 1.464 3.384 2.197 5.303 2.197s3.839-.732 5.303-2.197l44.089-44.088a7.5 7.5 0 0 0-10.607-10.606zM246.747 344.67c.271 0 .546-.015.823-.045l18.487-2.017a7.5 7.5 0 0 0 6.642-8.269 7.498 7.498 0 0 0-8.269-6.642l-18.487 2.017a7.5 7.5 0 0 0 .804 14.956z"/><path d="m380.737 441.979-57.825-19.275a16.527 16.527 0 0 1-11.315-15.699v-27.164c16.072-13.086 27.497-31.687 30.926-53.019 6.227-1.623 11.436-5.612 14.302-11.198 4.044-7.879 3.836-16.535-.57-23.75-2.912-4.768-7.43-8.301-12.594-10.061v-73.911c0-17.396-14.152-31.548-31.548-31.548h-80.161c-16.433 0-30.558 10.07-36.528 24.363-15.29 2.175-27.085 15.353-27.085 31.233v49.849a23.645 23.645 0 0 0-11.777 8.827c-4.476 6.384-5.479 14.355-2.754 21.869 2.614 7.207 8.818 12.531 16.301 14.401 4.049 20.994 15.043 39.28 30.295 52.286v27.822a16.527 16.527 0 0 1-11.315 15.699l-57.826 19.275a39.515 39.515 0 0 0-27.053 37.535V504.5a7.5 7.5 0 0 0 15 0v-24.986c0-10.59 6.75-19.955 16.796-23.304l16.259-5.42c24.013 33.369 62.534 53.194 103.735 53.194 17.374 0 34.223-3.429 50.079-10.192a7.5 7.5 0 1 0-5.884-13.797c-13.985 5.965-28.854 8.989-44.194 8.989-34.787 0-67.411-16.017-88.732-43.195l17.39-5.797c18.165 20.318 44.03 31.927 71.342 31.927 27.387 0 53.167-11.593 71.336-31.929l17.39 5.797a113.125 113.125 0 0 1-20.032 19.86 7.5 7.5 0 1 0 9.148 11.887 128.114 128.114 0 0 0 25.881-26.748l16.27 5.423a24.533 24.533 0 0 1 16.797 23.304V504.5a7.5 7.5 0 0 0 15 0v-24.986a39.517 39.517 0 0 0-27.054-37.535zM184.052 319.172a7.5 7.5 0 0 0-7.438-6.543h-.547c-3.683 0-7.038-2.158-8.158-5.248-1.417-3.904-.022-6.778.935-8.144 1.613-2.3 4.228-3.673 6.995-3.673a7.5 7.5 0 0 0 7.5-7.5v-56.113c0-6.467 3.729-12.08 9.149-14.8a7.5 7.5 0 0 0 14.899-1.232c0-13.545 11.02-24.564 24.564-24.564h80.161c9.125 0 16.548 7.423 16.548 16.548v24.564H223.936c-12.976 0-23.532 10.557-23.532 23.532a7.5 7.5 0 0 0 15 0c0-4.705 3.828-8.532 8.532-8.532h104.726v40.597a7.5 7.5 0 0 0 7.5 7.5c2.943 0 5.737 1.583 7.293 4.129.951 1.558 2.22 4.809.026 9.082-1.183 2.305-4.125 3.853-7.319 3.853h-.362a7.5 7.5 0 0 0-7.471 6.845c-3.37 38.45-37.98 67.671-77.162 65.144-34.294-2.213-62.52-29.737-67.115-65.445zm15.807 115.001a31.489 31.489 0 0 0 15.544-27.167v-17.502c10.551 5.729 22.34 9.279 34.797 10.083 1.906.123 3.795.184 5.682.184 14.554-.001 28.447-3.626 40.714-10.036v17.271a31.491 31.491 0 0 0 15.553 27.173c-14.99 14.548-35.004 22.741-56.15 22.741a80.571 80.571 0 0 1-56.14-22.747z"/></svg>