<svg height="511pt" viewBox="0 -64 511.998 511" width="511pt" xmlns="http://www.w3.org/2000/svg"><g fill="#ffe477"><path d="M173.3 22v25.645l15 15h25V22zM504.5 188.66l-15-15h-25v40.645h40zM80.07 352.242l18.137 18.137h21.211l43.77-43.77-28.739-28.742zM206.332 357.09l18.133 18.133h21.215l43.77-43.774-28.74-28.738zm0 0"/></g><path d="m423.148 173.66-65.398-65.398 7.488-7.489-19.625-19.625v-7.78l-11.379 11.378L271.488 22h-58.187v40.645h41.351l40.453 40.453-83.707 83.71v46.762l59.227 59.227-9.914 9.914 28.738 28.738 38.656-38.652-52.5-52.5 78.348-78.348 52.36 52.356H464.5V173.66zm0 0" fill="#ff3f62"/><path d="M211.398 233.57v-12.652l-76.949 76.95 28.738 28.741 70.625-70.625zm0 0" fill="#ff3f62"/><path d="M157.871 274.445H37.5v10.39c5.86 5.86 9.14 9.142 15 15h79.98zM211.398 190.297H97.5v10.39l15 15h98.898zM292.055 106.148H7.5v10.391c5.86 5.86 9.14 9.145 15 15h244.164zm0 0" fill="#bddbff"/><path d="M345.613 47.809v33.34c9.766 9.761 15.239 15.238 25 25h54.621v-58.34C425.234 25.82 407.41 8 385.426 8c-21.988 0-39.813 17.82-39.813 39.809zm0 0" fill="#ffdaaa"/><path d="M213.3 22h30v40.645h-30zM290.71 302.71l9.915-9.913-59.227-59.227V186.81l83.707-83.711-40.453-40.453h-30l40.453 40.453-83.707 83.71v46.762l59.227 59.227-9.914 9.914 28.738 28.738 15-15zM368.953 176.945l37.36 37.36h30l-52.36-52.36zm0 0" fill="#c70024"/><path d="m306.293 209.613-16.36 16.356-58.847-58.848 16.36-16.355zm0 0" fill="#ffe477"/><path d="M203.3 47.645V22h-30v25.645l15 15h25v-5zM464.5 173.66h20v40.645h-20zM110.07 352.242l39.38-39.375-15-15-54.38 54.375 18.137 18.137h21.211l4.394-4.395zM236.332 357.09l39.379-39.38-15-15-54.379 54.38 18.133 18.133h21.215l4.39-4.395zm0 0" fill="#ffb655"/><path d="m164.45 297.867 55.62-55.625-8.672-8.672v-12.652l-76.949 76.95 28.738 28.741 15-15zm0 0" fill="#c70024"/><path d="M67.5 274.445h-30v10.39l15 15h30l-15-15zM127.5 190.297h-30v10.39l15 15h30l-15-15zM37.5 106.148h-30v10.391l15 15h30l-15-15zm0 0" fill="#57a4ff"/><path d="M375.613 47.809c0-16.68 10.258-30.965 24.813-36.887a39.672 39.672 0 0 0-15-2.922c-21.989 0-39.813 17.82-39.813 39.809v33.34l25 25h30l-25-25zm0 0" fill="#fbb984"/><path d="m251.082 167.121 6.36-6.355-10-10-16.36 16.355 58.848 58.848 10-10zm0 0" fill="#ffb655"/><path d="M492.605 166.16h-66.351l-52.512-52.512h58.988v-65.84C432.73 21.724 411.508.5 385.422.5s-47.309 21.223-47.309 47.309v22.453l-3.883 3.879L274.594 14.5H165.797v36.254l19.394 19.39h66.352l32.953 32.958-80.601 80.601v52.977l56.12 56.117c-7.85 7.851-56.398 56.394-64.292 64.293l25.632 25.633h27.426l89.93-89.926-52.5-52.5 67.742-67.742 49.25 49.25h108.793v-36.25zM205.801 55.145h-14.395l-10.605-10.606V29.5h25zm147.312-7.336c0-17.817 14.496-32.309 32.313-32.309 17.812 0 32.308 14.492 32.308 32.309v50.84h-44.011l-20.606-20.606V47.809zM242.57 367.723h-15l-10.632-10.633 43.773-43.774 18.133 18.133zM457 206.805h-47.582l-55.465-55.465-78.348 78.351-21.863-21.863-10.605 10.606 74.363 74.363-28.05 28.047c-6.731-6.73-11.403-11.406-18.134-18.133l9.914-9.914-62.332-62.332v-40.55l76.207-76.212 16.86 16.863 10.61-10.605c-7.028-7.023-57.223-57.223-64.817-64.816H220.8V29.5h47.582l65.851 65.852 7.489-7.489 12.91 12.91-7.488 7.489 72.898 72.898H457zm40 0h-25V181.16h14.395L497 191.766zm0 0"/><path d="M191.398 182.797H90v21l19.395 19.39h82.003v-15h-75.793l-10.39-10.39h86.183zM238.383 124.04H25.605l-10.39-10.392h248.558v-15H0v20.997l19.395 19.394h218.988zM224.973 275.43l-10.606-10.606-51.18 51.18-18.132-18.137 51.648-51.644-10.605-10.61-116.63 116.63 25.634 25.636h27.425c1.508-1.512 101.059-101.059 102.446-102.45zm-108.66 87.449h-15L90.68 352.242l43.765-43.77 18.137 18.137zM104.195 292.336h-48.59l-10.39-10.39h84.37v-15H30v20.995l19.395 19.395h54.8zM256.273 170.21l10.61-10.605 30.562 30.563-10.605 10.605zM239.918 186.566l10.605-10.609 30.567 30.566-10.61 10.606zm0 0"/><path d="M407.734 81.148h-15v-33.34c0-4.03-3.28-7.308-7.312-7.308v-15c12.305 0 22.312 10.008 22.312 22.309zM307.77 183.383l-10.606-10.606 15.785-15.789 10.61 10.606zm22.859-22.86-10.606-10.605 10.606-10.606 10.605 10.606zm17.68-17.675-10.61-10.61 10.606-10.605 10.61 10.605zm0 0" fill="#fff"/></svg>