<svg height="512pt" viewBox="0 0 512 512" width="512pt" xmlns="http://www.w3.org/2000/svg"><path d="M321.77 73.27v55.085l-41.301 41.301H231.53l-41.3-41.3V73.27C190.23 36.945 219.675 7.5 256 7.5s65.77 29.445 65.77 65.77zm0 0" fill="#ffdaaa"/><path d="M341.719 366.172v35.047l29.207 29.207 51.484-51.485-46.73-46.73zM170.281 366.172v35.047l-29.207 29.207L89.59 378.94l46.73-46.73zm0 0" fill="#ffe477"/><path d="M170.246 394.414h171.508v42.762H170.246zm0 0" fill="#787680"/><path d="M260.285 394.414h51.426v42.762h-51.426zm0 0" fill="#57565c"/><path d="m341.754 437.176-75.758 67.308h-20l-75.75-67.308zm0 0" fill="#ff3f62"/><path d="m100.98 99.773-25.777 6.907-7.785-29.059c-1.906-7.117 2.316-14.433 9.434-16.34 7.117-1.906 14.433 2.317 16.34 9.434zM459.719 101.168l-18.871-18.867 21.273-21.274c5.211-5.21 13.66-5.21 18.867 0 5.211 5.211 5.211 13.66 0 18.868zm0 0" fill="#e0e0e2"/><path d="M170.246 394.414V243.375c-3.273-1.355-3.516-1.457-6.785-2.813l-59.395 59.395 32.254 32.258-46.73 46.726-78.98-78.98L128.296 182.27h84.543v-31.301l18.691 18.687h48.938c7.226-7.226 13.031-13.031 18.691-18.687v31.3h84.543l117.692 117.692-78.985 78.984-46.73-46.73 32.254-32.254-59.395-59.398c-3.273 1.355-3.516 1.457-6.785 2.812v151.04zm-11.531 110.07h87.281l-75.75-67.308zm183.039-67.308-75.758 67.308h87.285zm0 0" fill="#b87fd9"/><path d="M230.285 394.414h51.426v42.762h-51.426zm0 0" fill="#ffe477"/><path d="M220.23 128.355V73.27c0-31.165 21.672-57.266 50.77-64.051A65.92 65.92 0 0 0 256 7.5c-36.324 0-65.77 29.445-65.77 65.77v55.085l41.301 41.301h30l-41.3-41.3zm0 0" fill="#fbb984"/><path d="M371.719 401.219v-35.047l18.96-18.961-15-15-33.96 33.96v35.048l29.207 29.207 15-15zM119.59 378.941l31.73-31.73-15-15-46.73 46.73 51.484 51.485 15-15zm0 0" fill="#ffb655"/><path d="M170.246 394.414h30v42.762h-30zm0 0" fill="#57565c"/><path d="M200.246 437.176h-30l75.75 67.308h20l5-4.441zm0 0" fill="#c70024"/><g fill="#933ec5"><path d="M242.84 169.656H231.53l-18.691-18.691v36.3h30zM40.605 299.957l117.692-117.691h-30L10.605 299.957l78.985 78.984 15-15zM200.246 243.375c-3.273-1.355-3.516-1.457-6.785-2.813l-23.215 23.211v130.641h30zM170.246 437.176l-11.531 67.308h30l7.57-44.171zM341.754 437.176l-70.758 62.867 5 4.441h20l49.719-44.175zm0 0"/></g><path d="M230.285 394.414h30v42.762h-30zm0 0" fill="#ffb655"/><path d="m220.34 169.07 8.086 8.086h55.148l8.086-8.086v20.696h39.809v-15h-24.813V154.07l22.614-22.61V73.27C329.27 32.867 296.398 0 256 0c-40.402 0-73.27 32.867-73.27 73.27v58.19l22.61 22.61v20.696h-75.367v15h90.367zm-22.61-95.8C197.73 41.14 223.871 15 256 15s58.27 26.14 58.27 58.27v51.976l-36.91 36.91h-42.723l-36.91-36.91V73.27zM456.555 355.395 512 299.96 391.168 179.133l-10.606 10.605 110.223 110.223-44.836 44.824zM343.23 245.867l10.606-10.605 59.398 59.398-10.605 10.606zM334.246 297.14v77.27h15v-5.156l31.738-31.738-10.609-10.606-21.129 21.13v-50.9zM110.25 236.797l-10.61 10.605c5.891 5.891 13.63 8.836 21.364 8.836s15.473-2.945 21.36-8.836c11.78-11.777 11.78-30.945 0-42.722l-10.606 10.605c5.933 5.93 5.933 15.582 0 21.512-5.93 5.93-15.578 5.93-21.508 0zm0 0"/><path d="m99.938 118.445-14.489 3.88 25.781 96.218H8.508v15h122.27zM438.762 113.86l-10.606-10.606-131.312 131.312L490.274 428l10.609-10.605-182.828-182.829zm0 0"/><path d="M307.45 218.09v-14.996c-17.356 0-31.477 14.117-31.477 31.472 0 17.356 14.12 31.477 31.476 31.477v-15c-9.086 0-16.476-7.39-16.476-16.477 0-9.082 7.39-16.476 16.476-16.476zm0 0"/><path d="M248.2 229.367v58.574l-15.31 15.309h-33.843v15h40.055l16.675-16.676 17.18 16.676h39.996v-15H279.04l-15.84-15.375v-58.508zM69.902 115.867l40.262-10.789-9.726-36.305c-2.973-11.101-14.422-17.71-25.528-14.738-11.097 2.977-17.71 14.426-14.734 25.528zm8.891-47.344a5.839 5.839 0 0 1 7.156 4.133l5.848 21.817-11.29 3.023L74.66 75.68a5.854 5.854 0 0 1 4.133-7.157zM486.293 85.2c8.125-8.126 8.125-21.348 0-29.477-8.145-8.145-21.328-8.145-29.473 0L430.242 82.3l29.477 29.476zm-18.867-18.872a5.842 5.842 0 0 1 8.262 0 5.854 5.854 0 0 1 0 8.266l-15.973 15.969-8.262-8.262zm0 0"/><path d="m370.926 419.82-21.676-21.675v-11.23H263.5v-52.017h-15v52.016h-85.754v11.23l-21.672 21.672-40.879-40.875 36.125-36.12 26.43 26.429v5.16h15V238.363l-16.055-6.644-68.238 68.242 32.258 32.25-36.121 36.121-68.383-68.371 48.617-48.617-10.605-10.606L0 299.961c141.23 141.215.445.441 141.074 141.07l21.672-21.672v17.18l-12.922 75.445h212.352L349.25 436.54v-17.18l21.676 21.672 56.785-56.789-10.606-10.605zM162.754 251.88v96.16c-44.871-44.867 17.402 17.387-48.082-48.078zm171.5 150.035v27.762H289.21v-27.762zm-71.11 95.07h-14.296l-58.871-52.308H322.02zm11.07-95.07v27.762h-36.429v-27.762zm-96.468 0h45.04v27.762h-45.04zm-10.137 95.07 7.75-45.234 49.887 44.332 1.02.902zm118.121 0 50.91-45.234 7.747 45.234zm0 0"/><path d="M304.27 118h-15V73.27c0-3.856-.657-7.637-1.95-11.23l14.11-5.083a48.026 48.026 0 0 1 2.84 16.313zm-20.622-63.215a33.562 33.562 0 0 0-8.52-8.722l8.65-12.254a48.454 48.454 0 0 1 12.324 12.613zm-15.691-12.562A32.975 32.975 0 0 0 256 40V25c5.98 0 11.82 1.086 17.367 3.23zM460.734 305.262l-57.336-57.34 10.606-10.606 57.336 57.34zm-64.406-64.41-10.61-10.606 10.61-10.605 10.606 10.605zm-17.68-17.676-10.605-10.606 10.605-10.605 10.606 10.605zm0 0" fill="#fff"/></svg>