<svg xmlns="http://www.w3.org/2000/svg" viewBox="0 0 512.001 512.001" style="enable-background:new 0 0 512.001 512.001" xml:space="preserve"><path style="fill:#ffe2c0" d="M287.748 288.464c-4.918-.988-8.455-6.693-8.455-11.709v-22.352h-46.586v22.352c0 5.016-3.538 10.72-8.455 11.709l-5.676 1.602v37.656h74.848v-37.656l-5.676-1.602z"/><path style="fill:#ffe2c0" d="M287.748 288.464c-4.918-.988-8.455-6.693-8.455-11.709v-22.352h-46.586v22.352c0 5.016-3.538 10.72-8.455 11.709l-5.676 1.602v37.656h74.848v-37.656l-5.676-1.602z"/><path style="fill:#45748c" d="m329.617 298.896-33.568-10.466a4.143 4.143 0 0 0-4.843 1.923c-4.64 8.193-18.643 16.114-35.205 16.114s-30.566-7.92-35.206-16.114a4.144 4.144 0 0 0-4.843-1.923l-33.568 10.466c-19.003 5.595-32.05 23.038-32.05 42.847v10.346c0 5.49 4.451 9.941 9.941 9.941h191.452c5.49 0 9.941-4.451 9.941-9.941v-10.346c-.001-19.809-13.048-37.252-32.051-42.847z"/><path style="fill:#2d5872" d="m329.617 298.896-33.568-10.466a4.143 4.143 0 0 0-4.843 1.923c-4.461 7.878-17.587 15.483-33.314 16.058l31.225 9.736c19.003 5.595 32.05 11.4 32.05 31.209v14.674h30.559c5.49 0 9.941-4.451 9.941-9.941v-10.346c0-19.809-13.047-37.252-32.05-42.847z"/><path style="fill:#ffe2c0" d="M299.73 204.939V192.414c0-11.817-4.851-23.267-13.806-30.977-7.02-6.045-16.889-11.321-29.925-11.467-13.036.145-22.904 5.422-29.925 11.467-8.954 7.71-13.806 19.161-13.806 30.977V204.939a8.932 8.932 0 0 0-8.933 8.933v6.079a8.932 8.932 0 0 0 8.933 8.933h.012c.247 11.487 5.073 22.542 13.794 30.051 7.02 6.045 16.889 11.321 29.925 11.467 13.036-.145 22.904-5.422 29.925-11.467 8.72-7.509 13.547-18.565 13.794-30.051h.012a8.932 8.932 0 0 0 8.933-8.933v-6.079a8.933 8.933 0 0 0-8.933-8.933z"/><path style="fill:#f4d3a6" d="M299.73 204.939V192.414c0-11.817-4.851-23.267-13.806-30.977-7.02-6.045-16.889-11.321-29.925-11.467-7.831.087-14.511 2.033-20.125 4.878a48.975 48.975 0 0 1 9.799 6.588c8.954 7.71 13.806 19.16 13.806 30.977l-.012 36.47c-.247 11.487-5.073 22.542-13.794 30.051a48.92 48.92 0 0 1-9.799 6.588c5.614 2.845 12.294 4.791 20.125 4.878 13.036-.145 22.904-5.422 29.925-11.467 8.72-7.509 13.547-18.564 13.794-30.051h.012c4.934 0 8.933-4 8.933-8.933v-6.079a8.933 8.933 0 0 0-8.933-8.931z"/><path style="fill:#ff4c4c" d="M466.294 240.82c-7.425-104.343-90.77-187.688-195.114-195.113V13.845a6.344 6.344 0 0 0-6.344-6.344h-17.672a6.344 6.344 0 0 0-6.344 6.344v31.862C136.477 53.131 53.131 136.477 45.706 240.82H13.844a6.344 6.344 0 0 0-6.344 6.344v17.672a6.344 6.344 0 0 0 6.344 6.344h31.862c7.425 104.344 90.77 187.688 195.114 195.113v31.862a6.344 6.344 0 0 0 6.344 6.344h17.672a6.344 6.344 0 0 0 6.344-6.344v-31.862c104.344-7.425 187.689-90.77 195.114-195.113h31.862a6.344 6.344 0 0 0 6.344-6.344v-17.672a6.344 6.344 0 0 0-6.344-6.344h-31.862zm-70.442 30.36h41.077c-7.299 88.165-77.583 158.449-165.749 165.749v-41.077a6.344 6.344 0 0 0-6.344-6.344h-17.672a6.344 6.344 0 0 0-6.344 6.344v41.077C152.655 429.63 82.371 359.345 75.071 271.18h41.077a6.344 6.344 0 0 0 6.344-6.344v-17.672a6.344 6.344 0 0 0-6.344-6.344H75.071C82.37 152.655 152.654 82.371 240.82 75.072v41.077a6.344 6.344 0 0 0 6.344 6.344h17.672a6.344 6.344 0 0 0 6.344-6.344V75.072c88.165 7.299 158.449 77.583 165.749 165.748h-41.077a6.344 6.344 0 0 0-6.344 6.344v17.672a6.343 6.343 0 0 0 6.344 6.344z"/><path style="fill:#f4d3a6" d="m256.383 305.964 1.578.446c15.696-.595 28.79-8.189 33.245-16.056.159-.28.354-.526.563-.755l-4.021-1.135c-4.917-.988-8.455-6.693-8.455-11.709v-12.993c-6.213 3.781-13.932 6.537-23.293 6.641a46.726 46.726 0 0 1-8.073-.795v24.646c0 5.016 3.538 10.72 8.456 11.71z"/><path d="M204.77 192.415v6.838c-5.3 2.729-8.933 8.258-8.933 14.619v6.08c0 6.544 3.845 12.207 9.399 14.848 1.595 11.674 7.235 22.319 15.945 29.819a57.822 57.822 0 0 0 4.025 3.163v8.972c0 2.077-1.632 4.195-2.433 4.356a6.807 6.807 0 0 0-.56.135l-.943.266a11.616 11.616 0 0 0-7.553-.242l-33.513 10.449c-22.007 6.509-37.372 27.071-37.372 50.024v10.346c0 9.616 7.824 17.44 17.44 17.44h191.452c9.616 0 17.44-7.824 17.44-17.44v-10.346c0-22.953-15.364-43.515-37.371-50.024l-33.513-10.449c-2.532-.789-5.186-.65-7.555.242l-.943-.266a6.71 6.71 0 0 0-.56-.135c-.802-.161-2.434-2.279-2.434-4.356v-8.972a57.523 57.523 0 0 0 4.025-3.163c8.709-7.499 14.35-18.144 15.945-29.816 5.553-2.641 9.4-8.305 9.4-14.851v-6.08c0-6.361-3.633-11.89-8.934-14.619v-6.838c0-14.318-5.982-27.682-16.412-36.661-9.926-8.547-21.938-13.14-34.734-13.283h-.168c-12.797.144-24.808 4.736-34.734 13.283-10.424 8.98-16.406 22.344-16.406 36.661zm91.485 103.935 31.13 9.706.114.034c15.701 4.624 26.668 19.285 26.668 35.653v10.346a2.443 2.443 0 0 1-2.44 2.44H332.29v-22.085c0-4.143-3.357-7.5-7.5-7.5s-7.5 3.357-7.5 7.5v22.085H194.711v-22.085c0-4.143-3.358-7.5-7.5-7.5s-7.5 3.357-7.5 7.5v22.085h-19.437a2.443 2.443 0 0 1-2.44-2.44v-10.346c0-16.368 10.966-31.029 26.668-35.653l.114-.034 31.13-9.706c7.438 10.337 23.805 17.616 40.254 17.616s32.816-7.278 40.255-17.616zm-17.225-4.069c-5.18 3.578-13.197 6.685-23.03 6.685-9.831 0-17.849-3.106-23.029-6.684 4.622-3.867 7.236-10.02 7.236-15.527v-1.391a53.258 53.258 0 0 0 15.708 2.54h.168a53.264 53.264 0 0 0 15.709-2.54v1.391c.001 5.506 2.616 11.66 7.238 15.526zm-48.061-125.16c7.294-6.28 15.715-9.527 25.031-9.649 9.315.122 17.737 3.369 25.031 9.649 7.117 6.128 11.199 15.347 11.199 25.294v12.524c0 4.143 3.357 7.5 7.5 7.5.79 0 1.434.643 1.434 1.433v6.08c0 .79-.644 1.433-1.445 1.433a7.5 7.5 0 0 0-7.498 7.339c-.208 9.644-4.286 18.584-11.189 24.528a42.472 42.472 0 0 1-5.523 4.041c-.102.06-.205.12-.304.185-5.843 3.51-12.276 5.333-19.204 5.423-6.933-.091-13.369-1.916-19.215-5.43-.092-.06-.186-.115-.28-.17a42.464 42.464 0 0 1-5.535-4.049c-6.904-5.944-10.982-14.885-11.189-24.528-.087-4.078-3.431-7.339-7.51-7.339-.79 0-1.433-.643-1.433-1.433v-6.08c0-.79.643-1.433 1.433-1.433a7.5 7.5 0 0 0 7.5-7.5v-12.524c-.002-9.946 4.08-19.166 11.197-25.294z"/><path d="M385.093 413.104c-32.7 26.902-72.274 42.708-114.444 45.708a7.5 7.5 0 0 0-6.968 7.481V497h-15.36v-30.706a7.5 7.5 0 0 0-6.968-7.481c-48.665-3.463-94.524-24.428-129.13-59.034s-55.571-80.466-59.035-129.13a7.5 7.5 0 0 0-7.481-6.968H15v-15.36h30.706a7.5 7.5 0 0 0 7.481-6.968c3-42.163 18.801-81.731 45.694-114.427a7.5 7.5 0 0 0-11.585-9.53C59.902 150.702 43.225 190.65 38.832 233.32H13.844C6.211 233.32 0 239.53 0 247.164v17.672c0 7.634 6.21 13.845 13.844 13.845h24.99c5.146 49.662 27.278 96.201 62.781 131.704s82.042 57.636 131.705 62.781v24.99c0 7.634 6.21 13.844 13.844 13.844h17.671c7.634 0 13.845-6.21 13.845-13.844v-24.987c42.678-4.395 82.632-21.077 115.941-48.48a7.5 7.5 0 0 0 1.027-10.557 7.499 7.499 0 0 0-10.555-1.028z"/><path d="M245.9 69.554a7.511 7.511 0 0 0-5.698-1.957c-44.408 3.677-86.273 23.11-117.884 54.722-31.61 31.61-51.044 73.476-54.721 117.883a7.501 7.501 0 0 0 7.475 8.119h39.921v15.36H75.072a7.502 7.502 0 0 0-7.475 8.119c3.677 44.407 23.11 86.272 54.721 117.883 31.611 31.61 73.476 51.044 117.884 54.721a7.555 7.555 0 0 0 5.699-1.957 7.502 7.502 0 0 0 2.42-5.518v-39.921h15.36v39.921a7.502 7.502 0 0 0 8.119 7.475c44.407-3.677 86.272-23.11 117.883-54.721s51.044-73.476 54.721-117.883a7.501 7.501 0 0 0-7.475-8.119h-39.921v-15.36h39.921a7.502 7.502 0 0 0 7.475-8.119c-3.677-44.407-23.11-86.272-54.721-117.883-31.61-31.611-73.476-51.045-117.883-54.722a7.502 7.502 0 0 0-8.119 7.475v39.922h-15.36V75.071a7.502 7.502 0 0 0-2.421-5.517zm18.936 60.439c7.634 0 13.845-6.211 13.845-13.845V83.412c37.838 4.946 73.227 22.344 100.396 49.513s44.566 62.558 49.512 100.396h-32.736c-7.634 0-13.844 6.21-13.844 13.844v17.672c0 7.634 6.21 13.845 13.844 13.845h32.736c-4.945 37.838-22.343 73.227-49.512 100.396s-62.558 44.566-100.396 49.512v-32.736c0-7.634-6.211-13.844-13.845-13.844h-17.671c-7.634 0-13.844 6.21-13.844 13.844v32.736c-37.837-4.945-73.227-22.343-100.396-49.512S88.359 316.52 83.413 278.682h32.736c7.634 0 13.844-6.211 13.844-13.845v-17.672c0-7.634-6.21-13.844-13.844-13.844H83.412c4.946-37.838 22.343-73.227 49.512-100.396 27.168-27.169 62.558-44.566 100.396-49.513v32.736c0 7.634 6.21 13.845 13.844 13.845h17.672z"/><path d="M498.156 233.32h-24.99c-5.146-49.663-27.278-96.202-62.781-131.705-35.502-35.503-82.041-57.636-131.704-62.781V13.845C278.68 6.211 272.469 0 264.836 0h-17.671c-7.634 0-13.844 6.211-13.844 13.845v24.986c-44.63 4.587-86.057 22.506-120.188 52.065a7.5 7.5 0 1 0 9.82 11.339c33.433-28.954 74.375-45.915 118.4-49.048a7.5 7.5 0 0 0 6.968-7.481V15h15.36v30.706a7.5 7.5 0 0 0 6.968 7.481c48.665 3.463 94.524 24.429 129.13 59.035 34.606 34.605 55.571 80.465 59.034 129.13a7.5 7.5 0 0 0 7.481 6.968H497v15.36h-30.706a7.5 7.5 0 0 0-7.481 6.968c-3.152 44.313-20.294 85.464-49.571 119.002a7.501 7.501 0 0 0 11.301 9.866c29.9-34.253 48.014-75.898 52.628-120.835h24.986c7.634 0 13.844-6.211 13.844-13.845v-17.672c-.001-7.634-6.211-13.844-13.845-13.844z"/></svg>