<svg xmlns="http://www.w3.org/2000/svg" viewBox="0 0 511.998 511.998" style="enable-background:new 0 0 511.998 511.998" xml:space="preserve"><path style="fill:#cc9475" d="M219.469 293.392c-1.703 0-3.434-.21-5.161-.651l-75.121-19.16c-11.144-2.843-17.875-14.182-15.032-25.326 2.842-11.144 14.179-17.876 25.325-15.032l75.121 19.16c11.144 2.843 17.875 14.182 15.032 25.326-2.403 9.418-10.872 15.683-20.164 15.683zM289.833 293.392c1.703 0 3.434-.21 5.161-.651l75.121-19.16c11.144-2.843 17.875-14.182 15.032-25.326-2.842-11.144-14.178-17.876-25.325-15.032l-75.121 19.16c-11.144 2.843-17.875 14.182-15.032 25.326 2.402 9.418 10.872 15.683 20.164 15.683zM168.877 485.928v-70.095a23.429 23.429 0 0 1 7.349-17.039l47.803-45.112c9.41-8.879 24.237-8.452 33.118.96 8.881 9.41 8.451 24.237-.959 33.119l-40.455 38.177v59.991h-46.856v-.001z"/><path style="fill:#cc9475" d="M340.424 485.928v-70.095a23.429 23.429 0 0 0-7.349-17.039l-47.803-45.112c-9.41-8.879-24.237-8.452-33.118.96-8.881 9.41-8.451 24.237.959 33.119l40.455 38.177v59.991h46.856v-.001z"/><path style="fill:#e0a381" d="M254.651 244.556c-34.513 0-62.492 27.978-62.492 62.491v81.025h124.983v-81.026c0-34.512-27.978-62.49-62.491-62.49z"/><circle style="fill:#f7b48e" cx="254.654" cy="230.498" r="54.858"/><path style="fill:#ffc6a6" d="M254.651 189.174c28.003 0 51.089 20.988 54.426 48.09.273-2.219.431-4.474.431-6.768 0-30.297-24.561-54.858-54.858-54.858s-54.858 24.561-54.858 54.858c0 2.294.157 4.549.43 6.768 3.34-27.102 26.425-48.09 54.429-48.09z"/><path style="fill:#e0a381" d="M113.084 315.899a20.73 20.73 0 0 1-12.473-4.162c-9.203-6.898-11.073-19.95-4.174-29.154l31.232-41.67c6.898-9.202 19.95-11.074 29.154-4.174 9.203 6.898 11.073 19.95 4.174 29.154l-31.232 41.671c-4.091 5.456-10.348 8.335-16.681 8.335zM178.479 467.186c-20.437 0-37.005 16.567-37.005 37.005h74.259v-37.005h-37.254zM396.216 315.899a20.73 20.73 0 0 0 12.473-4.162c9.203-6.898 11.073-19.95 4.174-29.154l-31.232-41.67c-6.898-9.202-19.95-11.074-29.154-4.174-9.203 6.898-11.073 19.95-4.174 29.154l31.232 41.671c4.093 5.456 10.349 8.335 16.681 8.335zM330.823 467.186c20.437 0 37.005 16.567 37.005 37.005h-74.259v-37.005h37.254zM90.833 31.227l2.882-12.201c1.848-7.824 9.69-12.668 17.514-10.819l295.379 69.794c7.824 1.848 12.668 9.69 10.818 17.514l-2.883 12.201c-1.848 7.824-9.69 12.668-17.514 10.818L101.653 48.74c-7.824-1.848-12.668-9.689-10.82-17.513z"/><path style="opacity:.1;enable-background:new" d="m107.491 50.12 203.761 48.145 90.559-21.397L198.05 28.722z"/><path style="fill:#f7b48e" d="m418.468 31.227-2.882-12.201c-1.848-7.824-9.69-12.668-17.514-10.819L102.694 78.001c-7.824 1.848-12.668 9.69-10.818 17.514l2.883 12.201c1.848 7.824 9.69 12.668 17.514 10.818L407.651 48.74c7.822-1.848 12.666-9.689 10.817-17.513z"/><circle cx="235.964" cy="218.326" r="7.554"/><circle cx="276.041" cy="218.326" r="7.554"/><path d="M235.278 237.607a7.81 7.81 0 0 0-1.964 10.868c4.362 6.286 13.055 10.191 22.684 10.191 9.629 0 18.322-3.905 22.683-10.19a7.81 7.81 0 0 0-12.831-8.905c-.933 1.344-4.433 3.477-9.853 3.477-5.421 0-8.92-2.132-9.853-3.477a7.805 7.805 0 0 0-10.866-1.964z"/><path d="M410.793 56.34c12.001-2.836 19.459-14.906 16.623-26.908l-2.883-12.201c-1.373-5.814-4.929-10.745-10.011-13.885S403.439-.766 397.625.608L363.333 8.71a7.81 7.81 0 0 0 3.591 15.201l34.291-8.103a6.71 6.71 0 0 1 5.098.827 6.697 6.697 0 0 1 3.02 4.188l2.883 12.201a6.707 6.707 0 0 1-.826 5.098 6.706 6.706 0 0 1-4.188 3.02l-3.283.776v-7.192a7.809 7.809 0 1 0-15.618 0v10.882l-43.536 10.286-12.751 3.013-174.803 41.303v-8.738a7.809 7.809 0 1 0-15.618 0V103.9l-17.895 4.228V81.381l43.535-10.286.003-.001 90.559-21.397.002-.001 77.891-18.405a7.809 7.809 0 1 0-3.591-15.199l-76.098 17.981L114.373.608a22.447 22.447 0 0 0-5.155-.603c-10.412 0-19.358 7.084-21.754 17.226l-2.883 12.201c-2.835 12.001 4.622 24.072 16.623 26.908l6.874 1.624v11.058l-5.833 1.379c-12.002 2.836-19.46 14.907-16.623 26.91l2.883 12.2a22.214 22.214 0 0 0 10.011 13.884 22.255 22.255 0 0 0 9.561 3.229v129.204L91.535 277.9c-9.469 12.634-6.894 30.617 5.739 40.086 4.995 3.744 10.928 5.723 17.158 5.723 8.978 0 17.549-4.285 22.929-11.462l4.231-5.644v174.241a44.542 44.542 0 0 0-6.577 23.346 7.809 7.809 0 0 0 7.809 7.809h74.258a7.809 7.809 0 0 0 7.809-7.809v-74.886l31.108-29.357 31.108 29.357v74.886a7.809 7.809 0 0 0 7.809 7.809h74.28a7.809 7.809 0 0 0 7.784-8.441 44.546 44.546 0 0 0-6.573-22.711V306.602l4.231 5.645c5.38 7.177 13.951 11.462 22.928 11.462 6.23 0 12.163-1.978 17.158-5.723 12.634-9.469 15.208-27.452 5.74-40.087l-16.543-22.072V126.622c9.46-.911 17.346-7.686 19.573-17.112l2.883-12.201c1.373-5.813.401-11.815-2.738-16.897s-8.071-8.638-13.885-10.011l-5.833-1.379V57.964l6.872-1.624zm-71.011 336.773-13.484-12.725v-28.659a7.809 7.809 0 1 0-15.618 0v28.532H201.317v-73.215c0-5.722.88-11.307 2.562-16.609.022-.063.054-.117.075-.18 1.771-5.493 4.449-10.687 7.848-15.362 11.637 11.551 27.793 18.265 44.196 18.265 16.344 0 32.597-6.752 44.197-18.266 3.399 4.675 6.077 9.87 7.848 15.362.02.064.052.118.074.179 3.367 9.585 2.564 20.059 2.564 30.056a7.809 7.809 0 1 0 15.618 0c0-1.971.479-26.999-1.304-26.999l29.792-7.598v179.629a44.796 44.796 0 0 0-5.206-2.624v-47.068a31.355 31.355 0 0 0-9.799-22.718zm-177.366 22.719v47.065a44.437 44.437 0 0 0-5.206 2.629V285.894l29.793 7.599a70.998 70.998 0 0 0-1.304 13.554v73.342l-13.484 12.725a31.355 31.355 0 0 0-9.799 22.718zM132.678 252.79c.252-5.313 3.865-10.078 8.913-11.747v24.702a12.932 12.932 0 0 1-3.779-1.974c-3.362-2.559-5.339-6.665-5.134-10.981zm65.538 1.952.073.177c.275.65 3.809 7 3.628 7.219l-.04.049c-.413.498-.811 1.004-1.21 1.511-.141.18-.282.359-.422.541a69.748 69.748 0 0 0-8.541 14.334l-34.496-8.798v-26.864l40.373 10.297c.203.516.42 1.024.635 1.534zm112.881 5.586a63.011 63.011 0 0 0 3.317-7.119l40.372-10.298v26.865l-34.496 8.798c-.008.002-3.814-7.387-4.219-8.051a70.4 70.4 0 0 0-5.951-8.331l-.042-.052c.339-.578.663-1.164.984-1.751l.035-.061zm59.309-19.286c0 .033 2.391 1.067 2.625 1.208 2.861 1.727 5.058 4.644 5.898 7.935 1.697 6.656-2.097 13.432-8.523 15.558v-24.701zm0-15.968V119.949l17.895 4.228v110.899a28.572 28.572 0 0 0-17.895-10.002zM388.3 108.128l-17.895-4.228V91.471a7.809 7.809 0 1 0-15.618 0v8.738l-64.828-15.318 37.921-8.96 18.679-4.414L388.3 81.38v26.747zM255.998 92.917l98.789 23.341v110.535l-36.384 9.281c.164-1.839.261-3.696.261-5.577 0-39.457-38.412-69.89-76.781-61.052a7.81 7.81 0 1 0 3.506 15.22c29.024-6.687 57.656 16.02 57.656 45.831 0 25.283-21.788 47.048-47.047 47.048-25.302 0-47.048-21.793-47.048-47.048a46.894 46.894 0 0 1 12.559-31.986 7.81 7.81 0 0 0-11.448-10.624c-11.983 12.912-18.022 30.654-16.467 48.185l-36.384-9.28V116.258l98.788-23.341zm-114.407 27.032v105.125a28.568 28.568 0 0 0-17.895 10.001V124.177l17.895-4.228zm-36.795-78.808c-3.62-.856-5.87-4.497-5.015-8.117l2.883-12.201a6.717 6.717 0 0 1 6.554-5.199c.521 0 1.046.062 1.564.184l111.256 26.289-56.6 13.374-41.741-9.863V34.724a7.809 7.809 0 1 0-15.618 0v7.192l-3.283-.775zm18.901 20.514 7.781 1.839-7.781 1.839v-3.678zm-16.971 48.452a6.706 6.706 0 0 1-3.02-4.189l-2.884-12.2c-.855-3.62 1.394-7.263 5.015-8.117l2.242-.529v25.673a6.81 6.81 0 0 1-1.353-.638zm18.137 192.773c-4.267 5.692-12.541 6.866-18.221 2.608-5.742-4.304-6.914-12.478-2.609-18.222l4.045-5.397v11.522a7.809 7.809 0 1 0 15.618 0v-21.67l.192.226c2.829 3.336 6.495 6.077 10.532 7.778 2.039.859 4.184 1.422 6.322 1.968l-15.879 21.187zm84.409 193.501H155.44a7.773 7.773 0 0 0 1.77-4.949v-5.667c0-.474 1.468-1.672 1.807-2.016 5.447-5.546 13.033-8.753 20.811-8.753h29.444v21.385zm2.449-76.124a7.811 7.811 0 0 0-2.45 5.68v33.439h-29.444c-.598 0-1.195.012-1.793.035v-43.58c0-4.281 1.786-8.422 4.899-11.36l9.227-8.708c.12.021.243.031.364.047.079.01.157.023.237.031.246.023.494.037.746.037h44.044l-25.83 24.379zm62.724-24.377h44.044c.251 0 .5-.015.744-.037.081-.007.16-.021.241-.031.121-.016.243-.026.361-.047l9.227 8.708a15.682 15.682 0 0 1 4.899 11.36v43.58a46.531 46.531 0 0 0-1.792-.035h-29.445v-33.439a7.809 7.809 0 0 0-2.45-5.68l-25.829-24.379zm28.281 79.114h29.445c7.695 0 15.22 3.146 20.651 8.59.369.37 1.967 1.663 1.967 2.178v5.668c0 1.878.664 3.602 1.77 4.949h-53.832v-21.386h-.001zm105.238-187.727c6.255 8.344.022 20.822-10.398 20.823-11.341.001-20.282-18.353-26.31-26.396l2.139-.545a28.91 28.91 0 0 0 12.007-6.414 28.019 28.019 0 0 0 2.712-2.79c.062-.074.126-.147.187-.222v21.67a7.809 7.809 0 1 0 15.618 0V281.87l4.045 5.397zM406.16 85.601a6.706 6.706 0 0 1 4.189 3.021 6.7 6.7 0 0 1 .826 5.097l-2.883 12.201a6.72 6.72 0 0 1-4.373 4.833V85.071l2.241.53zM388.3 65.332l-7.781-1.839 7.781-1.839v3.678z"/></svg>