<svg xmlns="http://www.w3.org/2000/svg" viewBox="0 0 512 512" style="enable-background:new 0 0 512 512" xml:space="preserve"><circle style="fill:#38b1c9" cx="256" cy="256" r="248.485"/><circle style="fill:#45cdd9" cx="256" cy="256" r="224.438"/><circle style="fill:#5dc43d" cx="256" cy="256" r="200.391"/><circle style="fill:#86d631" cx="256" cy="256" r="176.344"/><circle style="fill:#ff6bb5" cx="256" cy="256" r="144.282"/><circle style="fill:#ff6bb5" cx="256" cy="256" r="120.235"/><circle style="fill:#7d7d8c" cx="256" cy="139.773" r="40.078"/><path style="fill:#ffe17a" d="M288.063 195.88h-72.075l-.066-.057v100.255h72.141z"/><path style="fill:#9d5cad" d="M405.442 474.133s-96.931-161.481-97.339-162.027v-68.701l29.351 20.965-12.723 50.889c-2.684 10.737 3.845 21.616 14.581 24.3 1.632.408 3.266.603 4.875.603 8.98 0 17.149-6.079 19.427-15.184l16.031-64.125a20.04 20.04 0 0 0-7.793-21.166l-56.11-40.078c-5.428-3.877-21.671-3.727-23.67-3.727h-9.35l-34.738 52.103-28.948-52.105h-3.05L104.72 100.509c-8.401-7.202-21.052-6.23-28.256 2.173-7.202 8.402-6.229 21.053 2.174 28.256 0 0 115.468 98.551 117.245 99.328v80.253l-58.715 36.697a20.038 20.038 0 0 0-9.186 13.946l-16.031 104.204c-1.683 10.938 5.821 21.17 16.76 22.854 1.032.159 2.058.235 3.071.235 9.722 0 18.258-7.089 19.782-16.995l14.635-95.125 56.336-35.211a20.02 20.02 0 0 0 1.379-.962h54.407l92.755 154.592c3.757 6.262 10.394 9.732 17.202 9.732 3.509 0 7.064-.922 10.291-2.859 9.49-5.694 12.567-18.003 6.873-27.494z"/><path style="fill:#525266" d="M215.922 127.75A104.343 104.343 0 0 0 256 135.766c8.731 0 23.475-1.097 40.078-8.016-1.117 1.151-10.139 10.769-8.016 24.047 1.299 8.118 6.076 13.31 8.016 15.206 3.735-3.848 10.182-11.521 13.66-23.071a56.025 56.025 0 0 0 2.372-16.182c0-30.989-25.121-56.11-56.11-56.11s-56.11 25.121-56.11 56.11c0 15.284 6.119 29.134 16.031 39.253 1.94-1.896 6.717-7.088 8.016-15.206 2.124-13.278-6.898-22.896-8.015-24.047z"/><path d="M437.02 74.98C388.667 26.629 324.381 0 256 0 190.619 0 128.383 24.641 80.756 69.385a7.515 7.515 0 1 0 10.29 10.955C135.876 38.224 194.458 15.03 256 15.03c132.872 0 240.971 108.099 240.971 240.971 0 70.013-30.395 136.464-83.392 182.312-2.893 2.503-3.423 6.92-1.207 10.036 2.531 3.561 7.736 4.19 11.042 1.331C479.71 400.972 512 330.379 512 256c0-68.381-26.628-132.667-74.98-181.02zM15.029 256c0-47.077 13.576-92.681 39.258-131.881a7.513 7.513 0 0 0-2.167-10.404 7.514 7.514 0 0 0-10.404 2.167C14.424 157.537 0 205.988 0 256c0 36.538 7.539 71.829 22.409 104.893 14.363 31.937 34.792 60.175 60.72 83.925 3.266 2.991 8.559 2.45 11.16-1.129 2.217-3.05 1.769-7.408-1.008-9.953C43.551 388.181 15.029 323.4 15.029 256zM336.732 483.117c-25.862 9.193-53.025 13.854-80.732 13.854-26.705 0-52.938-4.337-77.966-12.891a7.513 7.513 0 0 0-9.541 4.681 7.514 7.514 0 0 0 4.68 9.541C199.77 507.391 227.637 512 256 512c29.427 0 58.284-4.953 85.766-14.722a7.515 7.515 0 1 0-5.034-14.161z"/><path d="M106.716 378.14C78.605 343.823 63.123 300.447 63.123 256c0-29.595 6.524-57.986 19.389-84.386 1.794-3.681.217-8.253-3.464-10.048-3.681-1.794-8.253-.217-10.047 3.464-13.872 28.468-20.907 59.075-20.907 90.97 0 47.91 16.69 94.668 46.996 131.664 2.772 3.386 7.998 3.643 11.107.571 2.719-2.688 2.939-7.142.519-10.095zM174.835 439.428a7.517 7.517 0 0 0 4.196 9.764c24.487 9.763 50.382 14.714 76.968 14.714 21.088 0 41.896-3.148 61.85-9.356a7.515 7.515 0 0 0-4.465-14.351c-18.505 5.758-37.812 8.678-57.384 8.678-24.671 0-48.694-4.591-71.4-13.646a7.517 7.517 0 0 0-9.765 4.197zM395.669 407.215a7.49 7.49 0 0 0 5.237-2.126c40.626-39.494 63-92.442 63-149.089 0-114.64-93.266-207.906-207.906-207.906-41.838 0-82.176 12.375-116.655 35.788-3.355 2.277-4.273 7.084-1.996 10.438 2.277 3.355 7.084 4.274 10.438 1.995C179.766 74.601 217.186 63.123 256 63.123c106.353 0 192.877 86.524 192.877 192.877 0 52.553-20.758 101.674-58.447 138.312-4.729 4.596-1.392 12.903 5.239 12.903zM256 407.796c9.736 0 19.478-.929 28.957-2.76a7.516 7.516 0 0 0-2.851-14.757 137.864 137.864 0 0 1-26.105 2.488c-19.078 0-37.534-3.85-54.856-11.443a7.515 7.515 0 0 0-6.033 13.765c19.234 8.432 39.72 12.707 60.888 12.707z"/><path d="M345.038 133.047a7.514 7.514 0 1 0-8.824 12.165C371.625 170.9 392.767 212.316 392.767 256c0 24.109-6.356 47.806-18.382 68.531-1.894 3.265-1.011 7.567 2.028 9.811 3.559 2.629 8.755 1.552 10.972-2.268 13.353-23.013 20.411-49.319 20.411-76.074 0-48.485-23.46-94.448-62.758-122.953z"/><path d="M411.885 470.265a337185.713 337185.713 0 0 0-74.058-123.335c2.089.495 4.226.745 6.358.745a27.506 27.506 0 0 0 26.717-20.876l16.031-64.125c2.763-11.057-1.442-22.48-10.715-29.104l-56.111-40.078c-1.779-1.271-7.176-5.128-27.539-5.128h-9.849c-.277 0-.551.021-.823.051a7.697 7.697 0 0 0-.85-.051h-61.054c-.185 0-.367.014-.548.028-.137-.008-.272-.028-.41-.028h-.271l-46.895-40.196a136.743 136.743 0 0 1 20.892-13.462c1.534 14.123 7.707 27.26 17.788 37.553 2.941 3.001 7.768 2.917 10.726.009 8.908 9.476 21.474 15.092 34.721 15.092 13.292 0 25.826-5.608 34.724-15.089 2.964 2.917 7.814 2.984 10.746-.036 7.201-7.415 12.548-16.454 15.464-26.14a63.623 63.623 0 0 0 2.691-18.348c0-35.083-28.542-63.624-63.624-63.624-31.701 0-58.055 23.307-62.843 53.684a151.67 151.67 0 0 0-32.889 20.413l-50.656-43.419c-8.782-7.529-21.733-8.747-31.75-2.936a27.668 27.668 0 0 0-7.104 5.924c-7.528 8.782-8.746 21.737-2.932 31.751a27.754 27.754 0 0 0 5.933 7.111 48190.79 48190.79 0 0 0 50.836 43.337c-13.343 23.031-20.392 49.218-20.392 76.011 0 24.344 5.904 48.549 17.07 70 2.04 3.919 7.181 5.23 10.856 2.767 3.138-2.103 4.217-6.359 2.474-9.708-10.199-19.592-15.371-40.809-15.371-63.059 0-23.224 5.878-45.936 17.022-66.093 33.013 28.063 46.439 39.304 52.114 43.901v72.547l-55.182 34.488a27.53 27.53 0 0 0-12.631 19.176L104.52 464.222c-1.119 7.274.661 14.549 5.015 20.484 4.353 5.935 10.755 9.82 18.028 10.938 1.394.214 2.812.324 4.215.324 13.683 0 25.125-9.828 27.209-23.367l14.111-91.721 53.126-33.205h47.837l90.566 150.943c4.952 8.253 14.012 13.38 23.646 13.38 4.976 0 9.871-1.359 14.159-3.93 13.031-7.816 17.272-24.774 9.453-37.803zM256 172.334c-10.365 0-20.124-5.024-26.223-13.285a33.362 33.362 0 0 0 1.581-6.066 33.07 33.07 0 0 0-.398-12.534c8.176 1.883 16.547 2.832 25.04 2.832s16.865-.949 25.04-2.832a33.03 33.03 0 0 0-.398 12.534 33.38 33.38 0 0 0 1.583 6.073c-6.097 8.267-15.826 13.278-26.225 13.278zm0-93.179c26.795 0 48.595 21.8 48.595 48.595 0 4.775-.69 9.491-2.053 14.015-1.346 4.468-3.376 8.763-5.993 12.72a18.288 18.288 0 0 1-1.065-3.875c-1.528-9.556 5.215-16.831 5.99-17.628a7.511 7.511 0 0 0 .817-9.46 7.51 7.51 0 0 0-9.102-2.707A96.227 96.227 0 0 1 256 128.252a96.201 96.201 0 0 1-37.188-7.438 7.518 7.518 0 0 0-9.102 2.708 7.512 7.512 0 0 0 .817 9.46c.774.798 7.518 8.073 5.99 17.628a18.356 18.356 0 0 1-1.078 3.908c-5.225-7.882-8.034-17.124-8.034-26.768 0-26.796 21.8-48.595 48.595-48.595zm12.68 124.239-20.111 30.167-16.76-30.167h36.871zm126.025 291.788a12.503 12.503 0 0 1-6.427 1.788c-4.451 0-8.473-2.274-10.757-6.084l-92.755-154.592a7.516 7.516 0 0 0-6.445-3.648h-54.407c-1.62 0-3.197.524-4.496 1.494-.298.222-.608.45-.865.61l-56.337 35.211a7.511 7.511 0 0 0-3.445 5.229l-14.635 95.125c-.932 6.056-6.242 10.623-12.354 10.624-.64 0-1.289-.05-1.929-.148-6.826-1.05-11.526-7.458-10.474-14.283l16.031-104.204a12.512 12.512 0 0 1 5.74-8.716l58.715-36.697a7.515 7.515 0 0 0 3.532-6.372v-80.253a7.515 7.515 0 0 0-3.401-6.288c-5.134-3.898-72.249-61.004-116.468-98.745a12.439 12.439 0 0 1-4.336-8.549 12.435 12.435 0 0 1 2.978-9.111 12.44 12.44 0 0 1 8.55-4.337 12.432 12.432 0 0 1 9.111 2.979l111.266 95.371a7.505 7.505 0 0 0 3.441 1.668l26.877 48.38c2.684 4.831 9.755 5.12 12.822.519l32.505-48.758h5.82c12.59 0 17.85 1.68 18.811 2.329l56.111 40.078a12.458 12.458 0 0 1 4.87 13.23l-16.031 64.125a12.5 12.5 0 0 1-15.188 9.113c-6.7-1.675-10.788-8.489-9.114-15.188l12.724-50.889a7.517 7.517 0 0 0-2.923-7.938l-29.351-20.964a7.514 7.514 0 0 0-11.882 6.115v68.701c0 1.444.416 2.853 1.191 4.061 2.057 3.326 64.417 107.187 97.219 161.834 3.553 5.92 1.625 13.627-4.294 17.18zm-65.783-227.673-11.413 45.646c-.815-1.351-1.43-2.366-1.893-3.129v-52.021l13.306 9.504z"/><path d="M248.986 256.501h-1.002a7.515 7.515 0 1 0 0 15.03h1.002a7.515 7.515 0 1 0 0-15.03zM248.986 280.548h-1.002a7.515 7.515 0 1 0 0 15.03h1.002a7.515 7.515 0 1 0 0-15.03z"/></svg>