<svg height="512pt" viewBox="-63 0 512 512.001" width="512pt" xmlns="http://www.w3.org/2000/svg"><path d="m313.871 353.164-60.246-22.547v-71.914H131.891v71.914l-60.246 22.547C47.699 362.121 31.832 385 31.832 410.566v89.09a4.843 4.843 0 0 0 4.844 4.844h312.168a4.842 4.842 0 0 0 4.84-4.844v-89.09c0-25.562-15.868-48.445-39.813-57.402zm0 0" fill="#b78358"/><path d="m313.871 353.164-60.246-22.547v-71.914h-22.5v81.918l60.246 22.543c23.945 8.957 39.813 31.84 39.813 57.402V504.5h17.656a4.843 4.843 0 0 0 4.844-4.844v-89.09c0-25.562-15.868-48.445-39.813-57.402zm0 0" fill="#935d38"/><path d="M192.758 288.45c-53.031-.548-78.016-30.177-91-53.227-1.004-1.778-3.465-2.043-4.828-.524-8.477 9.434-24.22 29.86-31.336 45.54-1.047 2.312-4.332 2.331-5.426.042-13.695-28.61-19.91-79.332-18.73-102.312.128-2.48-2.653-4.012-4.704-2.606-7.898 5.414-16.707 14.004-24.113 21.43-1.973 1.98-5.363.406-5.11-2.379C21.622 38.2 148.528-17.207 192.759 17.391c44.23-34.598 171.137 20.808 185.246 177.023.254 2.785-3.137 4.36-5.113 2.375-7.403-7.426-16.211-16.016-24.11-21.43-2.05-1.406-4.832.125-4.707 2.61 1.184 22.98-5.031 73.703-18.726 102.312-1.098 2.29-4.38 2.27-5.43-.043-7.113-15.68-22.855-36.11-31.332-45.539-1.363-1.52-3.824-1.254-4.828.52-12.985 23.054-37.969 52.683-91 53.23zm0 0" fill="#b78358"/><path d="M317.41 171.383c1.274-37.66-29.625-69.738-67.308-69.813-24.176-.05-45.395 12.625-57.344 31.711-11.95-19.086-33.168-31.761-57.344-31.71-37.684.074-68.582 32.152-67.309 69.812.356 10.449 3.079 20.293 7.657 29.004h8.765c29.758 0 54.774 22.328 58.145 51.89l3.348 29.344c2.71 23.762 22.82 41.711 46.738 41.711s44.031-17.95 46.738-41.71l3.348-29.345c3.37-29.562 28.39-51.89 58.144-51.89h8.766a67.045 67.045 0 0 0 7.656-29.004zm0 0" fill="#fdeaaf"/><path d="M250.102 101.57a67.792 67.792 0 0 0-9.856.703c29.95 4.84 53.172 34.622 52.121 69.11-.316 10.449-2.765 20.293-6.887 29.004h-7.882c-26.77 0-49.274 22.328-52.309 51.89l-3.008 29.344c-2.21 21.543-17.285 38.305-36.117 41.25 2.16.305 4.36.461 6.594.461 23.918 0 44.027-17.95 46.738-41.71l3.348-29.345c3.37-29.562 28.39-51.89 58.144-51.89h8.766a67.045 67.045 0 0 0 7.656-29.004c1.274-37.66-29.625-69.738-67.308-69.813zm0 0" fill="#f8cc7c"/><path d="M211.5 246.21c0 10.352-8.39 21.118-18.742 21.118s-18.742-10.765-18.742-21.117 8.39-12.938 18.742-12.938c10.351.004 18.742 2.586 18.742 12.938zm0 0" fill="#6e7093"/><path d="M345.488 64.547c0 19.406-6.629 37.258-17.746 51.437-11.582-25.433-34.36-44.703-62.027-51.492 14.824-23.148 40.765-38.488 70.289-38.488h.058c6.02 11.52 9.426 24.64 9.426 38.543zm0 0" fill="#f8cc7c"/><path d="M336.063 26h-.06c-3.35 0-6.655.21-9.905.594a83.316 83.316 0 0 1 3.812 24.988c0 16.848-5.004 32.52-13.598 45.64a92.377 92.377 0 0 1 11.43 18.762c11.117-14.18 17.746-32.03 17.746-51.437 0-13.902-3.406-27.024-9.426-38.547zm0 0" fill="#d3a159"/><path d="M40.027 64.547c0 19.406 6.63 37.258 17.746 51.437 11.582-25.433 34.36-44.703 62.028-51.492-14.824-23.148-40.766-38.488-70.29-38.488h-.058c-6.02 11.52-9.426 24.64-9.426 38.543zm0 0" fill="#f8cc7c"/><path d="M273.328 337.992v12.824c0 20.711-7.828 39.582-20.668 53.856a2.085 2.085 0 0 0 .871 3.367l17.696 6.078c1.64.567 1.918 2.77.464 3.723l-18.128 11.902a2.083 2.083 0 0 0-.563 2.945l12.953 18.41c1.297 1.844-.84 4.15-2.777 2.997l-44.164-26.352a2.05 2.05 0 0 0-1.696-.191 80.458 80.458 0 0 1-28.097 3.758c-43.254-1.883-77.032-38.2-77.032-81.497v-11.824l-28.875 10.809v155.7h218.895v-155.7zm0 0" fill="#e6eff5"/><path d="M385.469 193.742c-3.739-41.453-15.344-78.418-34.504-109.926a92 92 0 0 0 2.023-19.27c0-14.616-3.554-29.144-10.277-42.019-1.293-2.472-3.914-4.027-6.707-4.027-13.137 0-25.828 2.79-37.371 7.988C279.773 12.961 259.62 4.23 240.09 1.164c-18.41-2.89-34.969-.355-47.332 7.133-12.36-7.488-28.922-10.024-47.332-7.133-19.531 3.066-39.688 11.797-58.547 25.328C75.324 21.293 62.617 18.5 49.453 18.5a7.5 7.5 0 0 0-6.644 4.027c-6.727 12.875-10.282 27.403-10.282 42.02 0 6.562.684 13.008 2.028 19.27C15.39 115.323 3.785 152.288.047 193.718c-.414 4.453 1.933 8.554 5.984 10.457 4.055 1.91 8.727 1.094 11.91-2.09 5.254-5.274 10.696-10.594 15.883-15 .07 3.75.258 7.82.563 12.101a7.497 7.497 0 0 0 8.011 6.95 7.5 7.5 0 0 0 6.95-8.012c-.543-7.652-.688-14.492-.422-19.766a10.4 10.4 0 0 0-5.344-9.687c-3.52-1.969-7.77-1.774-11.082.504-5.223 3.578-10.695 8.324-16.121 13.449 3.922-29.324 12.164-56.035 24.594-79.707a91.289 91.289 0 0 0 10.902 17.695 7.498 7.498 0 0 0 12.727-1.52c10.695-23.5 32-41.187 56.988-47.32a7.5 7.5 0 0 0 4.531-11.328c-6.605-10.312-15.031-18.992-24.719-25.73C137.684 11 171.82 10.539 188.141 23.3a7.502 7.502 0 0 0 9.238 0c16.32-12.762 50.457-12.301 86.734 11.414-9.683 6.738-18.11 15.418-24.715 25.73a7.501 7.501 0 0 0 4.528 11.328c24.988 6.133 46.293 23.825 56.988 47.32a7.508 7.508 0 0 0 5.938 4.34 7.5 7.5 0 0 0 6.793-2.82 91.08 91.08 0 0 0 10.898-17.695c12.43 23.668 20.672 50.375 24.598 79.707-5.426-5.125-10.899-9.871-16.11-13.441a10.453 10.453 0 0 0-11.094-.516 10.414 10.414 0 0 0-5.347 9.68c1.039 20.226-4.063 62.398-14.352 90.011-8.273-14.574-20.613-30.37-28.093-38.703a10.509 10.509 0 0 0-8.961-3.379 10.496 10.496 0 0 0-7.957 5.266c-7.68 13.633-16.79 24.25-27.618 32.14-.191.126-.379.258-.562.395l1.25-10.95c2.941-25.792 24.734-45.241 50.695-45.241h8.766a7.499 7.499 0 0 0 6.637-4.008c5.265-10.012 8.128-20.86 8.515-32.242.684-20.278-6.832-39.625-21.168-54.485-14.32-14.843-33.363-23.039-53.62-23.082h-.157c-22.356 0-43.059 9.739-57.203 26.508-14.149-16.77-34.844-26.508-57.203-26.508h-.157c-20.257.043-39.3 8.239-53.62 23.082-14.337 14.86-21.856 34.207-21.169 54.485.387 11.383 3.25 22.23 8.516 32.242a7.499 7.499 0 0 0 6.637 4.008h8.765c25.961 0 47.754 19.449 50.696 45.242l1.246 10.95a9.547 9.547 0 0 0-.559-.395c-10.828-7.891-19.937-18.504-27.613-32.133a10.498 10.498 0 0 0-7.961-5.274c-3.352-.382-6.7.883-8.988 3.41-7.457 8.31-19.797 24.102-28.063 38.672-4.14-11.078-7.75-25.25-10.402-40.988a7.5 7.5 0 1 0-14.79 2.492c2.571 15.262 7.317 36.961 15.313 53.645 1.758 3.695 5.38 5.98 9.465 5.98h.098c4.125-.039 7.75-2.394 9.46-6.152 5.743-12.668 17.672-28.883 26.044-38.941 7.43 11.925 16.007 21.671 25.918 29.406v51.617l-19.684 7.367-24.024 8.988c-.058.024-.12.047-.18.07l-11.484 4.302c-23.25 8.699-40.054 29.328-43.863 53.832a7.5 7.5 0 0 0 7.422 8.652 7.504 7.504 0 0 0 7.402-6.348c2.977-19.16 16.118-35.285 34.297-42.09l1.535-.574V497H39.344v-65.379a7.5 7.5 0 0 0-7.5-7.5 7.497 7.497 0 0 0-7.5 7.5v68.04c0 6.804 5.531 12.339 12.34 12.339h312.164c6.804 0 12.34-5.535 12.34-12.34v-89.09c0-28.539-17.958-54.43-44.684-64.425l-11.473-4.297c-.062-.024-.125-.051-.191-.075l-25.324-9.476-18.38-6.879v-51.617c9.907-7.735 18.485-17.48 25.915-29.406 8.386 10.082 20.304 26.28 26.043 38.937 1.699 3.754 5.316 6.113 9.437 6.16h.117c4.086 0 7.707-2.285 9.473-5.976 12.781-26.7 19.125-70.043 19.582-96.422 5.188 4.402 10.629 9.722 15.89 15.008 3.173 3.168 7.84 3.984 11.9 2.074 4.042-1.903 6.39-6.004 5.976-10.434zM107.512 60.426c-20.774 7.664-38.668 22.246-50.43 41.043a74.55 74.55 0 0 1-7.098-17.614 8.03 8.03 0 0 0-.304-1.207 76.397 76.397 0 0 1-2.153-18.101 76.183 76.183 0 0 1 6.563-30.91 75.716 75.716 0 0 1 29.683 7.992c.305.187.625.351.95.488a75.702 75.702 0 0 1 22.789 18.309zm220.922 41.043c-11.762-18.797-29.657-33.38-50.43-41.043a75.58 75.58 0 0 1 22.848-18.332 8.14 8.14 0 0 0 .84-.434 75.831 75.831 0 0 1 29.738-8.02 76.225 76.225 0 0 1 6.558 30.907c0 6.187-.726 12.25-2.152 18.101a8.03 8.03 0 0 0-.305 1.207 74.716 74.716 0 0 1-7.097 17.614zM84.527 192.887h-4.05c-2.98-6.856-4.618-14.157-4.875-21.758-.547-16.184 5.48-31.652 16.968-43.563 11.477-11.894 26.696-18.46 42.86-18.496 20.789-.039 39.89 10.496 50.972 28.192a7.5 7.5 0 0 0 12.711 0c11.059-17.66 30.059-28.192 50.848-28.192h.125c16.16.035 31.383 6.602 42.855 18.496 11.493 11.91 17.52 27.383 16.973 43.563-.258 7.601-1.894 14.902-4.875 21.758h-4.05c-33.59 0-61.794 25.164-65.598 58.543l-3.348 29.34c-2.277 19.988-19.168 35.062-39.285 35.062-20.117 0-37.008-15.074-39.29-35.062l-3.343-29.34c-3.805-33.375-32.008-58.543-65.598-58.543zM90.81 497V354l13.879-5.195v1.011c0 22.922 8.644 44.735 24.332 61.414 15.789 16.79 37.054 26.582 59.875 27.57a87.745 87.745 0 0 0 28.343-3.386l42.094 25.117c3.926 2.344 8.836 1.64 11.941-1.71 3.11-3.352 3.442-8.301.813-12.04l-9.738-13.836 13.46-8.836a9.534 9.534 0 0 0 4.255-9.21 9.529 9.529 0 0 0-6.399-7.872l-10.328-3.55a87.868 87.868 0 0 0 17.492-52.657v-2.011l13.879 5.195V497zm255.37-86.434V497h-36.472V359.617l1.535.574c20.899 7.82 34.938 28.063 34.938 50.375zm-80.35-67.375v7.625a72.91 72.91 0 0 1-18.743 48.84 9.56 9.56 0 0 0-2.156 8.817 9.562 9.562 0 0 0 6.164 6.656l7.258 2.496-8.907 5.844a9.66 9.66 0 0 0-4.156 6.222 9.65 9.65 0 0 0 .492 5.29l-22.926-13.68a9.563 9.563 0 0 0-7.824-.89 72.95 72.95 0 0 1-25.484 3.405c-18.89-.82-36.504-8.937-49.598-22.859-13.066-13.89-20.261-32.055-20.261-51.14v-6.626l14.828-5.55a7.496 7.496 0 0 0 4.87-7.024v-43.07c5.25 25.008 27.356 43.285 53.372 43.285 26.02 0 48.12-18.277 53.37-43.285v43.07a7.496 7.496 0 0 0 4.872 7.024zm0 0"/><path d="M192.758 274.828c7.015 0 13.926-3.394 18.965-9.316 4.625-5.434 7.277-12.469 7.277-19.301 0-7.633-3.41-20.434-26.242-20.434s-26.242 12.801-26.242 20.434c0 6.832 2.652 13.867 7.277 19.3 5.039 5.923 11.953 9.317 18.965 9.317zm0-34.055c11.242 0 11.242 3.141 11.242 5.438 0 6.742-5.676 13.617-11.242 13.617-5.57 0-11.242-6.875-11.242-13.617 0-2.297 0-5.438 11.242-5.438zM140.09 183.828a7.5 7.5 0 0 1-7.5-7.5v-6.332c0-4.144 3.355-7.5 7.5-7.5 4.144 0 7.5 3.356 7.5 7.5v6.332a7.5 7.5 0 0 1-7.5 7.5zM245.426 183.828a7.5 7.5 0 0 1-7.5-7.5v-6.332c0-4.144 3.355-7.5 7.5-7.5a7.5 7.5 0 0 1 7.5 7.5v6.332c0 4.14-3.36 7.5-7.5 7.5zm0 0"/></svg>