<svg xmlns="http://www.w3.org/2000/svg" viewBox="0 0 512 512" style="enable-background:new 0 0 512 512" xml:space="preserve"><path style="fill:#58422c" d="M82.806 37.059c-32.22-6.773-60.183 22.959-51.45 54.703l31.436 114.26 77.174-156.947-57.16-12.016zM429.194 37.059l-57.159 12.016 77.173 156.947v-2.463 2.463l31.435-114.259c8.734-31.746-19.229-61.478-51.449-54.704z"/><path style="fill:#664b33" d="M442.604 153.349C420.498 70.99 345.336 10.35 256 10.35c-89.336 0-164.498 60.638-186.604 142.998l-.159.578c-4.202 15.837-6.445 32.471-6.445 49.631v259.45c0 21.341 17.3 38.642 38.642 38.642s38.642-17.3 38.642-38.642c0 21.341 17.3 38.642 38.642 38.642s38.642-17.3 38.642-38.642c0 21.341 17.3 38.642 38.641 38.642s38.642-17.3 38.642-38.642c0 21.341 17.3 38.642 38.642 38.642s38.642-17.3 38.642-38.642c0 21.341 17.3 38.642 38.642 38.642s38.642-17.3 38.642-38.642v-259.45a193.592 193.592 0 0 0-6.607-50.208z"/><path style="fill:#bc9a7b" d="M332.879 175.201c-22.593.117-43.154 8.959-58.492 23.32-10.349 9.689-26.424 9.689-36.773 0-15.338-14.359-35.899-23.201-58.492-23.32-47.754-.248-86.822 39.997-86.822 87.752v1.145c0 35.868 21.987 66.68 53.185 79.711 8.111 3.388 14.132 10.338 16.129 18.898 9.999 42.875 48.51 74.915 94.387 74.915s84.389-32.039 94.387-74.915c1.997-8.56 8.018-15.51 16.129-18.898 31.199-13.029 53.185-43.842 53.185-79.711v-1.145c0-47.756-39.068-88.002-86.823-87.752z"/><path style="fill:#20272e" d="M316.722 331.045c0 33.537-27.187 60.722-60.722 60.722s-60.722-27.187-60.722-60.722h121.444z"/><path style="fill:#58422c" d="M62.792 463.008c0 21.341 17.3 38.642 38.642 38.642 21.341 0 38.642-17.3 38.642-38.642H62.792zM217.359 463.008c0 21.341 17.3 38.642 38.641 38.642 21.341 0 38.642-17.3 38.642-38.642h-77.283zM371.923 463.008c0 21.341 17.3 38.642 38.642 38.642 21.341 0 38.641-17.3 38.641-38.642h-77.283z"/><path style="opacity:.3;fill:#20272e;enable-background:new" d="m429.194 37.059-57.159 12.016C339.727 24.765 299.549 10.35 256 10.35v491.3c21.341 0 38.642-17.3 38.642-38.642 0 21.341 17.3 38.642 38.642 38.642s38.642-17.3 38.642-38.642c0 21.341 17.3 38.642 38.642 38.642s38.642-17.3 38.642-38.642v-256.99l.001.001L480.646 91.76c8.731-31.743-19.232-61.475-51.452-54.701z"/><circle style="fill:#20272e" cx="163.826" cy="275.652" r="17.247"/><circle style="fill:#20272e" cx="348.174" cy="275.652" r="17.247"/><path style="fill:#20272e" d="M285.962 278.022c0 8.635-13.414 15.635-29.961 15.635-16.547 0-29.961-7-29.961-15.635-.001-8.635 59.922-8.635 59.922 0z"/><path style="fill:#20272e" d="m333.319 164.849-.494.001c-24.395.127-47.662 9.402-65.513 26.113A16.497 16.497 0 0 1 256 195.436a16.49 16.49 0 0 1-11.312-4.473c-17.851-16.712-41.117-25.986-65.513-26.113l-.494-.001c-25.73 0-50.028 10.346-68.42 29.133-18.257 18.649-28.312 43.143-28.312 68.971v1.145c0 39.116 23.374 74.153 59.547 89.262 5.146 2.149 8.805 6.412 10.037 11.697 5.407 23.185 18.665 44.227 37.33 59.248C207.826 439.566 231.67 447.97 256 447.97s48.175-8.405 67.137-23.665c18.665-15.022 31.923-36.064 37.33-59.248 1.232-5.286 4.891-9.549 10.037-11.697 36.174-15.107 59.547-50.144 59.547-89.262v-1.145c0-25.825-10.055-50.32-28.313-68.97-18.392-18.788-42.691-29.134-68.419-29.134zm76.033 99.249c0 30.741-18.38 58.28-46.824 70.159-11.192 4.674-19.499 14.431-22.22 26.098-4.361 18.702-15.067 35.687-30.149 47.822-15.52 12.491-34.247 19.092-54.159 19.092s-38.639-6.602-54.159-19.092c-15.08-12.135-25.788-29.119-30.149-47.822-2.72-11.667-11.027-21.424-22.22-26.098-28.443-11.88-46.822-39.418-46.822-70.159v-1.145c0-20.381 7.956-39.732 22.404-54.489 14.466-14.776 33.51-22.914 53.628-22.914l.386.001c19.162.099 37.442 7.389 51.472 20.526 6.929 6.488 15.973 10.062 25.461 10.062s18.531-3.573 25.461-10.062c14.031-13.137 32.311-20.425 51.472-20.526l.386-.001c20.116 0 39.16 8.138 53.628 22.914 14.448 14.758 22.405 34.108 22.405 54.487v1.147z"/><path style="fill:#20272e" d="M481.505 47.231c-10.408-13.66-26.105-21.494-43.063-21.494-3.783 0-7.611.402-11.379 1.194l-52.708 11.08C340.657 13.925 299.578 0 256 0c-43.579 0-84.661 13.926-118.36 38.009L84.937 26.93a55.435 55.435 0 0 0-11.379-1.194c-16.959 0-32.655 7.835-43.065 21.493-10.33 13.556-13.653 30.789-9.117 47.278l31.065 112.912v255.589c0 27.015 21.977 48.992 48.992 48.992 15.683 0 29.668-7.407 38.642-18.907 8.973 11.5 22.959 18.907 38.642 18.907s29.668-7.407 38.642-18.907C226.332 504.593 240.317 512 256 512s29.668-7.407 38.642-18.907C303.615 504.593 317.6 512 333.283 512s29.668-7.407 38.642-18.907c8.973 11.5 22.959 18.907 38.642 18.907 27.015 0 48.992-21.977 48.992-48.992V207.422l31.065-112.915c4.535-16.488 1.212-33.72-9.119-47.276zm-420.033 96.27c-.081.262-.159.524-.239.787a203.142 203.142 0 0 0-1.819 6.323l-.181.661-.003.012c-.126.473-.25.947-.371 1.42L41.337 89.015c-2.808-10.207-.759-20.865 5.622-29.239 6.46-8.478 16.155-13.34 26.598-13.34 2.354 0 4.749.253 7.12.751l36.373 7.647c-.052.05-.102.101-.155.15C91.547 78.67 72.12 108.91 61.472 143.501zm377.385 319.507c0 15.6-12.691 28.291-28.291 28.291s-28.291-12.691-28.291-28.291c0-5.716-4.634-10.35-10.35-10.35s-10.35 4.634-10.35 10.35c0 15.6-12.691 28.291-28.291 28.291s-28.291-12.691-28.291-28.291c0-5.716-4.634-10.35-10.35-10.35s-10.35 4.634-10.35 10.35c0 15.6-12.691 28.291-28.291 28.291s-28.291-12.691-28.291-28.291c0-5.716-4.634-10.35-10.35-10.35-5.716 0-10.35 4.634-10.35 10.35 0 15.6-12.691 28.291-28.291 28.291s-28.291-12.691-28.291-28.291c0-5.716-4.634-10.35-10.35-10.35-5.716 0-10.35 4.634-10.35 10.35 0 15.6-12.691 28.291-28.291 28.291s-28.291-12.691-28.291-28.291v-259.45c0-1.99.032-3.977.097-5.963.144-4.478.469-8.939.936-13.375.983-9.335 2.658-18.559 5.045-27.558l.173-.629C100.988 77.239 174.105 20.701 256 20.701c81.14 0 155.438 56.458 176.607 135.332a182.604 182.604 0 0 1 2.726 11.681 183.777 183.777 0 0 1 3.523 35.847v259.447h.001zm31.806-373.992-17.524 63.698c-.175-.683-.356-1.366-.538-2.048a202.1 202.1 0 0 0-1.818-6.319c-.083-.27-.161-.541-.246-.811-9.95-32.315-27.554-60.826-50.481-83.749l-.023-.022a206.836 206.836 0 0 0-4.78-4.636c-.102-.097-.2-.197-.302-.294l36.373-7.647a34.7 34.7 0 0 1 7.12-.751c10.443 0 20.138 4.862 26.598 13.341 6.38 8.375 8.43 19.031 5.621 29.238z"/><path style="fill:#fff" d="M280.881 357.518c5.716 0 10.35-4.634 10.35-10.35v-16.123H270.53v16.123c.001 5.716 4.635 10.35 10.351 10.35zM231.12 357.518c5.716 0 10.35-4.634 10.35-10.35v-16.123h-20.7v16.123c0 5.716 4.634 10.35 10.35 10.35z"/><path style="fill:#20272e" d="M256 402.117c-39.189 0-71.073-31.883-71.073-71.073 0-5.716 4.634-10.35 10.35-10.35h121.445c5.716 0 10.35 4.634 10.35 10.35.001 39.19-31.881 71.073-71.072 71.073zm-49.302-60.722c4.786 22.827 25.074 40.022 49.304 40.022 24.228 0 44.516-17.194 49.304-40.022h-98.608z"/></svg>