<svg height="511pt" viewBox="0 -28 512 511" width="511pt" xmlns="http://www.w3.org/2000/svg"><path d="M407.5 186.793c-1.332 24.883-31.793 73.027-44.832 78.129-12.559-1.668-47.125-15.34-56.008-20.024l-12.09 94.563c61.336-44.504 91.125 20.914 97.399 44.695.472 1.793 2.808 2.235 3.922.754 41.015-54.61 85.668 30.64 98.836 61.047.875 2.023 3.851 1.68 4.234-.492 15.473-88.406 1.91-215.453-88.227-260.54-1.445-.718-3.148.255-3.234 1.868zm0 0" fill="#6e7093"/><path d="M410.73 184.93c-1.44-.723-3.14.254-3.23 1.863-.086 1.644-.305 3.394-.637 5.223 59.914 43.675 75.328 139.617 69.832 219.234 8.012 13.02 14.29 26.074 18.028 34.707.879 2.023 3.855 1.68 4.234-.492 15.473-88.406 1.914-215.453-88.227-260.535zM353.715 262.89c-15.54-4.398-39.817-14.18-47.055-17.992l-12.094 94.563c24.172-17.54 43.438-18 58.301-10.672 3.68-10.324 5.836-21.418 5.836-32.976 0-12.286-1.77-23.262-4.988-32.922zm0 0" fill="#4e5173"/><path d="M104.5 186.793c1.332 24.883 31.793 73.027 44.832 78.129 12.555-1.668 47.125-15.34 56.004-20.024l12.094 94.563c-61.336-44.504-91.125 20.914-97.399 44.695-.472 1.793-2.808 2.235-3.922.754-41.015-54.61-85.671 30.64-98.836 61.047-.875 2.023-3.851 1.68-4.234-.492-15.473-88.406-1.91-215.453 88.227-260.54 1.445-.718 3.144.255 3.234 1.868zm0 0" fill="#6e7093"/><path d="M158.281 262.89c15.543-4.398 39.82-14.18 47.059-17.992l12.09 94.563c-24.168-17.54-43.438-18-58.301-10.672-3.676-10.324-5.832-21.418-5.832-32.976 0-12.286 1.77-23.262 4.984-32.922zm0 0" fill="#4e5173"/><path d="M334.707 295.813c0 54.984-48.672 99.558-78.707 99.558-30.04 0-78.707-44.574-78.707-99.559s35.238-84.027 78.707-84.027 78.707 29.043 78.707 84.028zm0 0" fill="#6e7093"/><path d="M331.625 269.488c-9.457-37.87-39.723-57.703-75.625-57.703-31.578 0-58.8 15.344-71.336 44.809 21.348 20.05 50.074 32.336 81.672 32.336 24.098 0 46.527-7.153 65.289-19.442zm0 0" fill="#4e5173"/><path d="M377.227 20.371 369.035 8.84a1.994 1.994 0 0 0-1.883-.824l-14.027 1.793c-20.09 2.566-38.566 12.437-51.832 27.46-13.969-5.734-29.258-8.906-45.293-8.906s-31.324 3.172-45.293 8.907c-13.266-15.024-31.742-24.895-51.832-27.461l-14.027-1.793a1.994 1.994 0 0 0-1.883.824l-8.192 11.531C116.266 46.426 116.75 82 135.977 108.898a83.05 83.05 0 0 0 5.132 6.457c-3.03 10.793-4.586 22.204-4.425 34.004.898 65.473 55.242 118.403 120.714 117.649 65.258-.75 117.93-53.883 117.93-119.32 0-11.204-1.547-22.051-4.437-32.336a80.76 80.76 0 0 0 5.136-6.457c19.227-26.895 19.707-62.47 1.2-88.524zm0 0" fill="#6e7093"/><path d="m377.227 20.371-8.192-11.527a1.996 1.996 0 0 0-1.883-.828L355.84 9.46l.293.414c18.508 26.055 18.027 61.629-1.2 88.527a84.036 84.036 0 0 1-5.136 6.457 119.466 119.466 0 0 1 4.437 32.332c0 65.903-53.425 119.329-119.328 119.329-14.894 0-29.148-2.739-42.297-7.723 18.715 11.758 40.922 18.473 64.715 18.21 63.309-.687 115.512-51.421 117.914-114.683.489-12.855-1.062-25.273-4.347-36.969a83.05 83.05 0 0 0 5.132-6.457c19.23-26.898 19.711-62.472 1.204-88.527zm0 0" fill="#4e5173"/><path d="M339.422 139.54c-1.2-3.247-5.336-4.192-7.797-1.763-11.113 10.953-27.207 17.196-44.535 15.723a56.785 56.785 0 0 1-4.516-.563c-3.344-.546-6.168 2.551-5.332 5.84 3.403 13.426 15.203 23.774 29.934 24.536 16.98.878 31.972-11.739 34.004-28.622a32.47 32.47 0 0 0-1.758-15.152zM172.578 139.54c1.2-3.247 5.332-4.192 7.797-1.763 11.113 10.953 27.207 17.196 44.535 15.723a56.785 56.785 0 0 0 4.516-.563c3.344-.546 6.164 2.551 5.332 5.84-3.403 13.426-15.203 23.774-29.934 24.536-16.984.878-31.972-11.739-34.004-28.622a32.47 32.47 0 0 1 1.758-15.152zm0 0" fill="#fdeaaf"/><path d="M187.434 50.023a57.843 57.843 0 0 0-31.801-14.836c-10.598 14.918-11.977 35.06-2.77 52.465a119.95 119.95 0 0 1 34.57-37.629zM359.137 87.652c9.207-17.406 7.828-37.547-2.77-52.465a57.854 57.854 0 0 0-31.804 14.836 119.915 119.915 0 0 1 34.574 37.63zm0 0" fill="#b78358"/><path d="M486.95 255.89c-1.762-3.745-6.227-5.35-9.977-3.593a7.505 7.505 0 0 0-3.594 9.98c20.851 44.325 28.336 104.88 20.766 164.832-12.704-25.082-36.782-63.933-65.372-67.312-7.23-.852-14.156.508-20.73 4.055.562-6.606.605-12.59.559-16.192-.11-7.996-.954-27.5-6.465-35.812a7.5 7.5 0 0 0-10.395-2.102 7.496 7.496 0 0 0-2.101 10.39c3.035 4.583 5.058 26.884 3.297 44.571-3.165-7.098-7.614-15.316-13.668-23.078-11.18-14.328-24.625-22.629-39.332-24.434a102.988 102.988 0 0 0 2.265-21.379c0-10.718-1.25-20.722-3.73-29.937 8.242 2.875 17.332 5.695 23.21 6.476a7.587 7.587 0 0 0 3.723-.453c11.82-4.632 26.34-27.8 30.512-34.789 4.637-7.785 14.625-25.808 17.992-41.98 17.703 10.133 32.887 24.289 45.203 42.168 2.352 3.41 7.02 4.273 10.43 1.922a7.501 7.501 0 0 0 1.922-10.43c-15.266-22.152-34.57-39.168-57.383-50.574-2.945-1.473-6.402-1.367-9.242.281s-4.645 4.594-4.828 7.895c-.528 9.867-7.032 26.359-16.977 43.035-9.172 15.379-17.5 24.734-21.633 27.664-5.875-1.223-16.164-4.54-27.902-8.989 4.43-3.43 8.66-7.175 12.664-11.226 23.64-23.899 36.66-55.574 36.66-89.191 0-10.313-1.242-20.547-3.695-30.485a86.074 86.074 0 0 0 2.996-3.945c21.086-29.496 21.574-68.57 1.215-97.227L375.148 4.5a9.477 9.477 0 0 0-8.945-3.922l-14.027 1.793a90.65 90.65 0 0 0-52.895 26.082c-13.855-5.039-28.39-7.59-43.281-7.59s-29.426 2.551-43.281 7.59a90.65 90.65 0 0 0-52.895-26.082L145.801.578a9.472 9.472 0 0 0-8.95 3.922l-8.19 11.527c-20.36 28.66-19.872 67.735 1.214 97.23a83.346 83.346 0 0 0 2.996 3.946 127.324 127.324 0 0 0-3.684 32.258 125.352 125.352 0 0 0 7.723 41.738 7.497 7.497 0 0 0 9.625 4.446 7.496 7.496 0 0 0 4.445-9.63 110.5 110.5 0 0 1-6.796-36.761 112.018 112.018 0 0 1 4.148-31.871 7.49 7.49 0 0 0-1.59-6.98 75.417 75.417 0 0 1-4.668-5.868c-17.367-24.293-17.844-56.375-1.187-79.82l6.281-8.844 10.758 1.375a75.71 75.71 0 0 1 47.164 24.988 7.495 7.495 0 0 0 8.469 1.97c13.484-5.536 27.765-8.345 42.445-8.345s28.96 2.809 42.445 8.344a7.496 7.496 0 0 0 8.469-1.969 75.71 75.71 0 0 1 47.16-24.988l10.758-1.375 6.281 8.844c16.656 23.45 16.18 55.527-1.187 79.82a74.502 74.502 0 0 1-4.668 5.867 7.499 7.499 0 0 0-1.586 6.98 112.094 112.094 0 0 1 4.156 30.305c0 29.645-11.48 57.575-32.324 78.645a112.815 112.815 0 0 1-16.817 14 8.376 8.376 0 0 0-.95.637c-17.78 11.82-38.608 18.293-60.425 18.543-22.703.25-44.539-6.414-62.957-18.657a7.701 7.701 0 0 0-.77-.535 5.428 5.428 0 0 0-.198-.12c-11.375-7.731-21.41-17.61-29.493-29.317a7.497 7.497 0 0 0-10.43-1.91 7.497 7.497 0 0 0-1.91 10.433 128.375 128.375 0 0 0 27.114 28.637c-11.809 4.484-22.168 7.82-28.07 9.05-4.133-2.929-12.461-12.284-21.633-27.663-9.946-16.676-16.45-33.164-16.98-43.051a9.682 9.682 0 0 0-4.825-7.875 9.712 9.712 0 0 0-9.242-.285c-22.813 11.41-42.121 28.422-57.383 50.574a7.497 7.497 0 0 0 1.922 10.43 7.49 7.49 0 0 0 10.426-1.922c12.32-17.88 27.508-32.04 45.21-42.168 3.368 16.18 13.352 34.199 17.989 41.98 4.172 6.989 18.687 30.157 30.512 34.79a7.472 7.472 0 0 0 3.722.452c5.88-.78 14.97-3.601 23.211-6.476-2.48 9.215-3.73 19.219-3.73 29.937 0 7.32.8 14.47 2.265 21.38-14.707 1.8-28.152 10.105-39.332 24.433-6.054 7.762-10.504 15.984-13.668 23.082-1.761-17.688.258-39.992 3.297-44.574a7.494 7.494 0 0 0-2.105-10.39 7.492 7.492 0 0 0-10.39 2.1c-5.513 8.313-6.356 27.817-6.466 35.817-.047 3.602-.004 9.586.559 16.191-6.578-3.55-13.504-4.91-20.73-4.058-28.594 3.379-52.676 42.238-65.372 67.312-7.57-59.953-.086-120.511 20.774-164.843a7.5 7.5 0 0 0-13.57-6.387C.952 307.113-6.302 378.469 5.652 446.758c.742 4.254 4.128 7.457 8.417 7.969.399.046.793.07 1.184.07 3.844 0 7.328-2.246 8.902-5.863 14.121-32.602 38.524-71.606 60.832-74.247 8.696-1.035 16.91 3.79 25.14 14.747 2.27 3 5.97 4.402 9.657 3.68 3.672-.731 6.543-3.43 7.492-7.044 4.938-18.703 21.297-52.625 49-54.199 15.02 41.375 52.97 71.004 79.723 71.004s64.7-29.629 79.723-71.004c27.714 1.57 44.058 35.496 48.996 54.191a9.63 9.63 0 0 0 7.496 7.047c3.652.723 7.316-.652 9.61-3.617v-.004a.609.609 0 0 0 .062-.078c8.21-10.937 16.425-15.758 25.12-14.723 22.31 2.637 46.712 41.645 60.84 74.262a9.664 9.664 0 0 0 10.079 5.774c4.293-.512 7.676-3.711 8.422-7.965 11.953-68.285 4.703-139.637-19.399-190.867zM300.995 361.25C286.7 377.426 269.04 387.879 256 387.879s-30.7-10.453-44.996-26.629c-6.672-7.55-16.426-20.746-21.957-38.242a7.51 7.51 0 0 0-.461-1.492c-2.32-7.786-3.793-16.387-3.793-25.7 0-14.554 2.59-27.453 7.71-38.457 19.063 11.094 40.903 17.157 63.528 17.157.485 0 .969-.004 1.453-.008 22.149-.254 43.399-6.16 62.075-17.008 5.078 10.973 7.648 23.824 7.648 38.316 0 9.313-1.473 17.914-3.793 25.7-.203.476-.36.976-.457 1.492-5.535 17.496-15.289 30.691-21.96 38.242zm0 0"/><path d="M287.723 146.027a52.2 52.2 0 0 1-3.942-.488 12.166 12.166 0 0 0-10.96 3.805 12.194 12.194 0 0 0-2.848 11.273c4.34 17.14 19.132 29.27 36.812 30.184.695.035 1.387.054 2.074.054 20.079-.003 37.34-15.128 39.766-35.265.766-6.383.04-12.656-2.168-18.64a12.229 12.229 0 0 0-8.84-7.74 12.203 12.203 0 0 0-11.262 3.227c-10.011 9.872-24.101 14.82-38.632 13.59zm45.785.184c.457 2.476.535 5.016.226 7.582-1.57 13.031-13.074 22.707-26.172 22.031-9.644-.5-17.914-6.324-21.683-14.906.191.02.383.035.574.05 17.34 1.481 34.234-3.87 47.055-14.757zM174.383 129.21a12.22 12.22 0 0 0-8.84 7.74c-2.207 5.984-2.938 12.257-2.168 18.64 2.426 20.14 19.684 35.265 39.762 35.265.687 0 1.379-.02 2.074-.054 17.68-.914 32.473-13.043 36.816-30.184a12.194 12.194 0 0 0-2.851-11.273c-2.797-3.047-6.895-4.477-10.965-3.805-1.285.211-2.61.375-3.938.488-14.539 1.227-28.617-3.718-38.632-13.59a12.173 12.173 0 0 0-11.258-3.226zm51.164 31.759c.191-.016.383-.031.574-.051-3.77 8.582-12.039 14.406-21.684 14.906-13.093.68-24.601-8.996-26.171-22.031a24.988 24.988 0 0 1 .226-7.582c12.817 10.887 29.707 16.234 47.055 14.758zM192.52 44.512c-9.864-9.106-22.63-15.059-35.938-16.762a7.487 7.487 0 0 0-7.062 3.098c-12.442 17.511-13.7 40.62-3.286 60.308a7.505 7.505 0 0 0 6.473 3.992h.156a7.507 7.507 0 0 0 6.477-3.718c8.074-13.844 19.281-26.043 32.41-35.274a7.512 7.512 0 0 0 3.168-5.636 7.502 7.502 0 0 0-2.398-6.008zm-37.583 26.574c-1.742-9.531-.265-19.262 4.352-27.645a50.815 50.815 0 0 1 15.84 6.567 128.753 128.753 0 0 0-20.191 21.078zM320.25 56.156c13.125 9.235 24.336 21.43 32.41 35.274a7.498 7.498 0 0 0 6.477 3.722c.05 0 .105-.004.156-.004a7.509 7.509 0 0 0 6.473-3.988c10.414-19.691 9.156-42.8-3.286-60.312a7.485 7.485 0 0 0-7.062-3.094c-13.313 1.7-26.074 7.652-35.941 16.762a7.498 7.498 0 0 0 .773 11.64zm32.46-12.715c4.618 8.383 6.095 18.114 4.353 27.645a128.753 128.753 0 0 0-20.192-21.078 50.815 50.815 0 0 1 15.84-6.567zm0 0"/></svg>