<svg height="512pt" viewBox="0 -6 512.002 512" width="512pt" xmlns="http://www.w3.org/2000/svg"><path d="M98.54 213.309s9.526-117.11 102.456-148.485c39.188-13.226 64.738-31.312 81.184-47.8 15.64-15.684 42.484-8.794 48.84 12.421 25.937 86.57 44.234 250.707-164.329 302.356 1.29-.988-68.152-118.492-68.152-118.492zm0 0" fill="#ff5d9c"/><path d="M353.438 272.664s54.062 23.543 67.113 85.063c5.527 26.07 18.09 40.234 30.726 47.902 10.766 6.527 9.274 22.605-2.449 27.191-48.5 18.957-135.144 34.942-200.851-51.789-2.668-4.66 105.46-108.367 105.46-108.367zm0 0" fill="#ff83b4"/><path d="M413.844 336.23c-19.125-45.59-60.406-63.566-60.406-63.566s-108.13 103.707-105.461 108.367c21.675 28.61 45.628 46.043 69.742 55.88 5.406-24.466 24.652-44.263 44.984-50.509 27.246-8.37 42.938-32.312 51.14-50.172zm0 0" fill="#ff5d9c"/><path d="M216.703 222.887s29.54-113.723 126.48-128.637c40.88-6.29 69.16-19.703 88.2-33.117 18.105-12.758 43.363-1.352 45.972 20.64 10.653 89.747.43 254.582-213.906 269.567 1.434-.754-46.746-128.453-46.746-128.453zm0 0" fill="#ffabcd"/><path d="M216.703 222.887s48.18 127.699 46.746 128.453c30.262-2.117 56.453-7.219 79.094-14.676-1.902-14.91-1.094-31.266 3.863-48.918 19.805-70.465-11.273-153.516-26.457-187.695-78.5 27.59-103.246 122.836-103.246 122.836zm0 0" fill="#ff83b4"/><path d="M45.902 351.34c-22.59 0-29.507-10.715-29.515-22.875-.016-23.102 22.488-21.29 22.738-21.281 36.598 1.222 63.5-7.25 79.96-25.149 24.27-26.39 19.864-66.625 19.817-67.031l43.7-5.465c.308 2.441 7.187 60.25-30.73 101.906-24.118 26.489-59.743 39.895-105.97 39.895zM301.898 493.14c22.59 0 29.516-10.714 29.516-22.874 0-22.5-22.488-21.29-22.738-21.282-36.598 1.223-63.5-7.25-79.961-25.148-24.27-26.39-19.863-66.625-19.817-67.031L165.2 351.34c-.308 2.437-7.187 60.254 30.73 101.906 24.118 26.492 59.743 39.895 105.97 39.895zm0 0" fill="#ffb39d"/><path d="M354.078 475.746c22.594 0 29.516-10.71 29.516-22.875 0-23.371-22.489-21.285-22.739-21.277-36.597 1.219-63.5-7.25-79.96-25.149-24.266-26.394-19.86-66.629-19.813-67.03l-43.7-5.47c-.312 2.442-7.19 60.254 30.731 101.91 24.114 26.489 59.742 39.891 105.965 39.891zm0 0" fill="#ffcbbe"/><path d="M120.566 232.293s-25.379 117.133 38.625 220.426c5.918 9.554 19.797 9.672 25.961.277a4971.698 4971.698 0 0 1 17.965-27.137l28.528 14.477c11.496 5.836 25.53.824 30.734-10.969l12.668-28.719 38.101-2.382c9.68-.606 14.282-12.227 7.618-19.274-31.371-33.183-93.68-108.015-95.805-180.797zm0 0" fill="#60daa8"/><path d="M254.91 291.648c-16.453-29.07-29.015-61.46-29.95-93.453l-104.394 34.098s-25.379 117.133 38.625 220.426c5.918 9.554 19.797 9.672 25.961.277 8.395-12.793 17.97-27.137 17.97-27.137l28.526 14.477c11.493 5.836 25.528.824 30.73-10.969-10.245-6.32-18.398-12.512-24.886-18.273-14.094-12.516-16.597-33.852-5.297-48.934 15.024-20.047 20.649-49.176 22.715-70.512zm0 0" fill="#00ce8e"/><path d="M312.363 202.902c0 27.012-21.902 48.914-48.914 48.914-27.015 0-48.914-21.902-48.914-48.914 0-27.015 21.899-48.914 48.914-48.914 27.012 0 48.914 21.899 48.914 48.914zm0 0" fill="#b24e2f"/><path d="M85.328 379.168c-22.59 0-29.508-10.711-29.516-22.875-.015-22.348 22.489-21.285 22.739-21.277 36.597 1.218 63.5-7.25 79.96-25.149 24.27-26.394 19.864-66.629 19.817-67.031l43.7-5.469c.312 2.442 7.19 60.254-30.731 101.91-24.117 26.489-59.742 39.891-105.969 39.891zm0 0" fill="#ffcbbe"/><path d="M268.727 167.973c0 52.996-42.965 95.96-95.961 95.96-53 0-95.961-42.964-95.961-95.96 0-53 42.96-95.961 95.96-95.961 52.997 0 95.962 42.96 95.962 95.96zm0 0" fill="#ffddcf"/><path d="M151.965 74.27a96.285 96.285 0 0 1 20.8-2.258c48.247 0 88.176 35.61 94.95 81.976-111.559-10.508-115.75-79.718-115.75-79.718zm0 0" fill="#dd6642"/><path d="M193.563 74.27a96.276 96.276 0 0 0-20.797-2.258c-48.25 0-88.18 35.605-94.95 81.976C189.375 143.48 193.562 74.27 193.562 74.27zm0 0" fill="#e7896e"/><path d="m66.266 13.71 4.425 8.087a48.051 48.051 0 0 0 19.11 19.11l8.086 4.421c8.277 4.527 8.277 16.414 0 20.942L89.8 70.69a48.051 48.051 0 0 0-19.11 19.11l-4.425 8.086c-4.524 8.277-16.41 8.277-20.938 0L40.906 89.8a48.085 48.085 0 0 0-19.113-19.11l-8.086-4.425c-8.277-4.524-8.277-16.41 0-20.938l8.086-4.422a48.12 48.12 0 0 0 19.113-19.113l4.422-8.086c4.527-8.273 16.41-8.273 20.938.004zM480.438 305.242l2.816 5.145a30.554 30.554 0 0 0 12.152 12.156l5.145 2.812c5.265 2.88 5.265 10.442 0 13.32l-5.145 2.813a30.603 30.603 0 0 0-12.152 12.157l-2.816 5.144c-2.88 5.266-10.442 5.266-13.32 0l-2.813-5.144a30.588 30.588 0 0 0-12.157-12.157l-5.14-2.812c-5.266-2.88-5.266-10.442 0-13.32l5.14-2.813a30.54 30.54 0 0 0 12.157-12.156l2.812-5.145c2.88-5.262 10.442-5.262 13.32 0zm0 0" fill="#b0f0ef"/><path d="M220.172 199.96c4.14 0 7.5-3.358 7.5-7.5v-12.452a7.5 7.5 0 1 0-15 0v12.453a7.5 7.5 0 0 0 7.5 7.5zM125.355 172.508c-4.14 0-7.5 3.36-7.5 7.5v12.453a7.5 7.5 0 1 0 15 0v-12.453a7.5 7.5 0 0 0-7.5-7.5zM190.426 193.203a7.503 7.503 0 0 0-2.153-10.387c-1.27-.832-6.882-2.992-10.386 2.153a6.183 6.183 0 0 1-5.121 2.761c-.996 0-3.485-.27-5.125-2.761a7.498 7.498 0 1 0-12.535 8.234 21.059 21.059 0 0 0 17.66 9.527 21.078 21.078 0 0 0 17.66-9.527zM18.195 77.27a40.542 40.542 0 0 1 16.13 16.132l4.421 8.086a19.432 19.432 0 0 0 34.102 0l4.422-8.086A40.493 40.493 0 0 1 93.398 77.27l8.086-4.422a19.427 19.427 0 0 0 10.11-17.051 19.425 19.425 0 0 0-10.11-17.047l-8.086-4.426A40.483 40.483 0 0 1 77.27 18.195l-4.422-8.086A19.44 19.44 0 0 0 55.797 0a19.431 19.431 0 0 0-17.05 10.11l-4.423 8.085a40.459 40.459 0 0 1-16.129 16.13L10.11 38.75A19.418 19.418 0 0 0 0 55.797c0 7.11 3.871 13.64 10.11 17.05zm-.89-25.36 8.09-4.426a55.471 55.471 0 0 0 22.09-22.09l4.421-8.085c1.14-2.082 3.102-2.309 3.89-2.309s2.75.227 3.892 2.305l4.421 8.09a55.471 55.471 0 0 0 22.09 22.09l8.086 4.425c2.082 1.137 2.309 3.098 2.309 3.887 0 .793-.227 2.754-2.309 3.89L86.2 64.11a55.48 55.48 0 0 0-22.09 22.094l-4.425 8.086c-1.137 2.082-3.098 2.309-3.887 2.309-.793 0-2.754-.227-3.89-2.309l-4.423-8.086A55.515 55.515 0 0 0 25.391 64.11l-8.086-4.421C15.227 58.55 15 56.59 15 55.797c0-.79.227-2.75 2.305-3.887zM504.152 318.777l-5.144-2.812a23.02 23.02 0 0 1-9.176-9.176l-2.812-5.144a15.09 15.09 0 0 0-13.243-7.848 15.089 15.089 0 0 0-13.238 7.848l-2.812 5.144a23.045 23.045 0 0 1-9.176 9.176l-5.145 2.812c-4.84 2.649-7.847 7.72-7.847 13.239s3.004 10.593 7.847 13.242l5.145 2.812a23.02 23.02 0 0 1 9.176 9.176l2.812 5.145a15.089 15.089 0 0 0 13.238 7.847 15.09 15.09 0 0 0 13.243-7.847l2.812-5.145a23.045 23.045 0 0 1 9.176-9.176l5.144-2.812a15.094 15.094 0 0 0 7.852-13.242 15.095 15.095 0 0 0-7.852-13.239zM491.81 334.91a37.984 37.984 0 0 0-15.137 15.137l-2.824 5.183c-.032.016-2.961-5.183-2.961-5.183a37.969 37.969 0 0 0-15.14-15.137l-5.18-2.824c-.012-.031 5.183-2.961 5.183-2.961a38.018 38.018 0 0 0 15.137-15.14s2.93-5.192 2.937-5.196l2.848 5.195a38.043 38.043 0 0 0 15.137 15.141l5.183 2.824c.012.031-5.183 2.961-5.183 2.961zm0 0"/><path d="M455.168 399.215c-13.82-8.387-23-22.867-27.281-43.043-3.457-16.309-9.938-31.45-19.27-45.14 16.106-12.204 29.856-26.653 41.156-43.333a7.504 7.504 0 0 0-2-10.418 7.505 7.505 0 0 0-10.418 2.004c-29.19 43.082-76.46 70.219-140.5 80.676-18.363-23.164-38.066-52.316-50.8-83.426 5.644 1.82 21.66 3.91 35.37-.16 29.817-8.86 45.407-41.965 35.497-71.45a56.317 56.317 0 0 0-42.734-37.417 103.692 103.692 0 0 0-1.848-7.66c20.672-21.153 44.875-34.012 71.984-38.184 36.121-5.559 66.867-17.133 91.375-34.398 6.285-4.426 14.262-5.188 21.336-2.036 7.145 3.188 11.957 9.704 12.871 17.43 4.742 39.93 5.57 98.254-17.398 149.363-1.695 3.778-.106 8.442 3.77 9.914 5.421 2.063 8.663-.988 9.913-3.765 24.375-54.242 23.575-115.469 18.614-157.281-1.547-13.024-9.645-24-21.66-29.36-11.95-5.324-25.438-4.027-36.082 3.473-20.583 14.5-46.16 24.664-76.102 30.297-2.59-18.883-6.871-38.356-12.758-58.004-3.765-12.567-13.629-21.985-26.39-25.195-12.684-3.192-25.75.406-34.946 9.628-19.523 19.575-45.86 35.047-78.27 45.993-5.925 2-11.722 4.406-17.242 7.148-33.867-2.5-51.23 6.34-68.878 19.012a7.502 7.502 0 0 0-1.715 10.469 7.497 7.497 0 0 0 10.465 1.714c15.082-10.828 38.41-19.855 63.554-15.73-1.668 6.144-5.414 15.863-13.722 25.914-16.95 20.512-45.809 33.934-83.832 39.105a87.892 87.892 0 0 1 13.109-28.18 7.506 7.506 0 0 0-1.824-10.448c-3.39-2.38-8.07-1.563-10.45 1.824-12.273 17.46-18.757 38.011-18.757 59.426 0 33.582 16.09 63.476 40.96 82.39-.906 8.047-1.792 18.863-2.062 31.66-15.21 12.711-38.297 18.668-68.734 17.668-2.465-.144-30.582-3.03-30.582 28.778 0 9.132 6.496 31.972 39.52 30.343.722 10.004 6.304 27.856 36.921 27.856 12.594 0 24.438-.973 35.54-2.89 7.48 26.214 18.202 50.706 31.948 72.894 4.122 6.656 11.27 10.687 19.118 10.793h.304c7.23 0 13.926-3.344 18.258-9.047 25.574 28.012 63.055 42.223 111.399 42.223 9.824 0 13.613-4.336 13.222-8.461-.387-4.122-3.566-6.54-13.222-6.54-79.192 0-102.024-39.238-102.805-40.16a5838.38 5838.38 0 0 1 6.578-9.914l22.586 11.461c7.02 3.563 14.922 4.223 22.387 1.91 25.168 22.766 59.93 34.309 103.437 34.309 31.555 0 36.524-18.941 36.977-28.742 19.758-1.785 40.074-6.711 60.504-14.7 8.132-3.18 13.652-10.566 14.406-19.277.75-8.656-3.387-16.82-10.797-21.316zM302.703 189.703c7.277 21.645-4.414 45.176-26.058 52.453-9.961 3.348-20.825 2.711-30.282-1.55 18.453-18.696 31.375-45.961 29.758-77.141a41.343 41.343 0 0 1 26.582 26.238zM287.488 22.316c5.43-5.441 13.153-7.562 20.664-5.671 7.586 1.91 13.45 7.5 15.684 14.953 5.723 19.097 9.855 37.988 12.332 56.273-25.875 5.113-49.215 17.383-69.566 36.555-11.641-24.985-32.973-44.578-59.133-53.922 32.765-11.606 59.687-27.797 80.02-48.188zm-88.054 61.305c28.707 9.098 51.113 32.469 58.859 61.742-32.496-4.37-57.719-14.488-75.188-30.164.086-.101 13.649-15.152 16.329-31.578zm-115.13 84.352c0-2.403.102-4.793.29-7.164 28.226-3.332 63.183-12.243 88.168-34.739 20.605 18.649 50.207 30.317 88.172 34.739.191 2.363.293 4.75.293 7.164 0 48.773-39.684 88.46-88.461 88.46s-88.461-39.687-88.461-88.46zm84.778 103.386c-2.219 10.715-6.781 23.305-16.09 33.43-7.168 7.793-16.656 13.598-28.37 17.41-2.376-25.386-1.54-47.469-.192-62.777a102.746 102.746 0 0 0 44.652 11.937zM23.887 328.457c-.004-4.742 3.023-13.644 14.988-13.777 28.695-.317 51.938-3.867 69.398-14.348.23 8.016.735 16.527 1.618 25.414-9.309 1.555-19.664 1.613-31.063 1.774-21.25.293-26.555 12.578-28.129 16.265-24.77.219-26.808-11.12-26.812-15.328zm39.426 27.832c-.004-4.469 1.113-7.715 3.41-9.926 3.52-3.39 9.504-3.937 11.578-3.851 38.863 1.289 67.715-7.98 85.73-27.57 12.633-13.739 18.11-30.704 20.434-44.176a102.563 102.563 0 0 0 30.273-8.239c-1.605 20.45-8.047 48.696-28.988 71.7-22.617 24.843-56.402 37.441-100.418 37.445-22.008-.004-22.016-11.18-22.02-15.383zm171.726 77.36-28.527-14.477a7.495 7.495 0 0 0-9.63 2.527c-.097.145-9.687 14.516-18 27.184-1.5 2.281-3.913 3.582-6.64 3.582h-.113c-2.738-.035-5.129-1.383-6.563-3.695-12.859-20.75-22.93-43.66-30.02-68.204 24.88-6.668 45.395-18.777 61.294-36.242 26.226-28.812 32.375-64.41 33.246-87.383 20.613 53.844 61.64 102.254 85.23 127.207 1.547 1.637 1.075 3.438.797 4.137-.277.703-1.168 2.356-3.433 2.496l-38.102 2.383a7.506 7.506 0 0 0-6.394 4.457l-12.668 28.723c-1.68 3.8-4.754 6.66-8.668 8.058-3.91 1.395-8.106 1.125-11.809-.754zm119.04 34.597c-37.794 0-68.079-9.3-90.18-27.66a30.003 30.003 0 0 0 5.34-8.191l8.245-18.692c18.121 18.09 46.23 26.313 83.579 25.383 12.55-.309 15.035 9.004 15.035 13.785-.004 4.203-.004 15.375-22.02 15.375zm96.94-49.012c-.261 3.032-2.101 5.496-4.921 6.602-19.5 7.617-38.813 12.254-57.5 13.82-1.375-3.164-9.727-15.777-28.114-15.558-29.949.359-52.746-4.743-67.968-17.028l21.101-1.32c7.422-.465 13.727-5.05 16.453-11.969 2.723-6.902 1.246-14.547-3.851-19.937a526.087 526.087 0 0 1-18.446-20.586c34.223-6.492 63.805-17.738 88.547-33.633 8.18 12.04 13.856 25.34 16.895 39.656 5.172 24.39 16.672 42.14 34.176 52.758 2.53 1.535 3.886 4.227 3.629 7.195zm0 0"/></svg>