<svg height="512pt" viewBox="-18 0 511 512" width="512pt" xmlns="http://www.w3.org/2000/svg"><path d="M114.96 253.824c-11.718-11.715-30.71-11.715-42.425 0L12.43 313.93c-5.86 5.86-5.86 15.355 0 21.215 5.855 5.855 15.351 5.855 21.21 0L47.786 321c-5.86 5.86-5.86 15.355 0 21.215 5.856 5.855 15.356 5.855 21.211 0-5.855 5.855-5.855 15.351 0 21.21 5.86 5.86 15.356 5.86 21.215 0l21.21-21.21c-5.855 5.855-5.855 15.351 0 21.21 5.86 5.86 15.356 5.86 21.216 0l45.96-45.96zm0 0" fill="#fff9eb"/><path d="m178.598 317.465-63.637-63.64c-11.715-11.712-30.7-11.716-42.418-.009l-.012.008 53.035 53.035c5.86 5.86 5.86 15.356 0 21.211l-14.144 14.145c-5.856 5.855-5.856 15.355.004 21.21 5.855 5.86 15.351 5.86 21.21 0zm0 0" fill="#d3cdbf"/><path d="M361.063 253.824c11.714-11.715 30.71-11.715 42.425 0l60.106 60.106c5.855 5.86 5.855 15.355 0 21.215-5.86 5.855-15.356 5.855-21.215 0L428.239 321c5.855 5.86 5.855 15.355 0 21.215-5.86 5.855-15.356 5.855-21.216 0 5.86 5.855 5.86 15.351 0 21.21-5.859 5.86-15.355 5.86-21.21 0l-21.215-21.21c5.859 5.855 5.859 15.351 0 21.21s-15.356 5.86-21.211 0l-45.965-45.96zm0 0" fill="#fff9eb"/><path d="m463.594 313.93-60.106-60.106c-11.715-11.715-30.703-11.715-42.422-.004l81.313 81.325c5.86 5.855 15.355 5.855 21.215 0 5.855-5.86 5.855-15.356 0-21.215zm0 0" fill="#d3cdbf"/><path d="M255.684 458.09v16.848c0 8.285 6.718 15 15 15 8.285 0 15-6.715 15-15V443.09zm0 0" fill="#f7a16e"/><path d="M190.434 428.09v61.41c0 8.285 6.714 15 15 15s15-6.715 15-15v-30.785zm0 0" fill="#ffc98c"/><path d="M315.227 320.45c-.922-17.024-8.907-33.052-22.68-45.63l-108.985-.183c-13.62 12.355-21.882 29.84-22.785 47.008-.062 1.19-.101-1.2-.093 0v16.066c0 16.488 13.296 29.863 29.75 29.996v90.383h95.25v-90.383c16.386-.21 29.543-13.559 29.543-29.996 0 0 .132-14.75 0-17.262zm0 0" fill="#fff9eb"/><path d="M315.227 320.45c-.922-17.024-8.907-33.052-22.68-45.63l-40.563-.066-1.82 1.992 22.152 20.227c7.934 7.246 12.407 15.863 12.942 24.933.05 1.828.023 9.418-.031 15.532l-.004.269h-124.54v.004c0 16.488 13.297 29.863 29.75 29.996h36.958l10.593-10.598 10.598 10.598h7.102v60.383h-65.25v30h95.25v-90.383c16.386-.21 29.539-13.559 29.539-29.996.004 0 .136-14.75.004-17.262zm0 0" fill="#d3cdbf"/><path d="M285.797 107.75c-13.996-9.957-30.25-15.996-47.59-15.996-47.3 0-86.52 44.957-93.8 91.719a22.42 22.42 0 0 0-8.723-1.75c-12.426 0-22.5 10.074-22.5 22.5 0 12.425 10.074 22.5 22.5 22.5 4.035 0 7.816-1.07 11.09-2.926 2.75 9.387 6.968 18.168 12.335 26.187 2.633 3.934 17.707 15.73 39.2 20.23l51.21 10.716 45.961-45.07c37.31-36.59 32.985-97.747-9.683-128.11zm0 0" fill="#ffc98c"/><path d="M340.29 181.723c-2.892 0-5.653.55-8.192 1.543-.102-.668-.203-1.34-.317-2.008-5.039-29.672-21.492-56.7-45.984-73.504C299.75 127 306.8 148.984 306.8 171.992c0 51.75-42.543 93.7-95.024 93.7-19.48 0-37.59-5.786-52.668-15.704 14.493 21.418 37.692 36.614 64.61 40.676a97.548 97.548 0 0 0 28.945-.008c36.836-5.554 66.758-31.968 76.871-66.68a22.408 22.408 0 0 0 10.754 2.747c12.426 0 22.5-10.075 22.5-22.5 0-12.426-10.074-22.5-22.5-22.5zm0 0" fill="#f7a16e"/><path d="M366.695 127.715c-8.465-11.625-26.054-13.567-36.199-8.61-6.922-10.214-14.094-19.64-22.441-28.164a.217.217 0 0 0 .023.032c-19.223-19.637-43.164-33.47-69.742-33.47-8.188 0-18.809 1.196-28.399 3.04-11.968 2.297-20.656 12.71-20.656 24.898a43.29 43.29 0 0 0-34.633 17.29c-7.351 9.8-12.539 17.93-15.707 29.699-2.203 8.175-7.355 15.328-14.78 19.398-.071.04-.141.082-.216.121-4.61 2.492-5.36 8.79-1.418 12.246l21.614 19.192v-.035c.07.043-.079.078 0 .125 31.699.02 58.418-22.286 64.957-52.016 29.789 30.64 71.562 46.773 115.222 48.851 14.34.684 22.094-4.093 32.774-9.285 15.125-7.355 19.285-30.023 9.601-43.312zm0 0" fill="#ffcf5d"/><path d="M366.695 127.715c-8.465-11.625-26.054-13.567-36.199-8.61-6.922-10.218-14.094-19.64-22.441-28.164a.217.217 0 0 0 .023.032c-19.223-19.637-43.164-33.47-69.742-33.47 0 15.22 8.902 28.911 22.652 35.438.102.051.203.098.309.149 15.629 7.52 25.238 23.676 24.875 41.015-.102 4.77-4.902 8-9.36 6.301-17.867-6.804-33.601-16.898-46.207-29.86a30 30 0 0 0-50.808 14.47c-2.899 13.191-13.063 23.488-25.715 27.078l-11.637-10.328a29.834 29.834 0 0 0-5.5-3.871c-2.71 5.84-7.07 10.8-12.785 13.933-.07.04-.14.078-.215.117-4.61 2.496-5.36 8.793-1.418 12.25l21.614 19.192v-.04c.07.048-.079.083 0 .126 31.699.023 58.418-22.282 64.957-52.012 29.789 30.637 71.562 46.773 115.222 48.851 14.34.68 22.094-4.093 32.774-9.289 15.125-7.351 19.285-30.02 9.601-43.308zm0 0" fill="#ffb545"/><path d="M207.988 346.004c0 8.918 3.89 16.926 10.067 22.422 7.715 6.863 19.933 1.312 19.933-9.016v-26.816c0-10.324-12.218-15.875-19.933-9.012-6.176 5.496-10.067 13.504-10.067 22.422zm0 0" fill="#ffc98c"/><path d="M237.988 332.594v26.816c0 10.328 12.215 15.875 19.934 9.012 6.176-5.492 10.066-13.504 10.066-22.418 0-8.918-3.89-16.93-10.066-22.422-7.719-6.863-19.934-1.316-19.934 9.012zm0 0" fill="#f7a16e"/><path d="M211.191 205.07a7.5 7.5 0 1 1-15 0c0-4.144 3.356-7.5 7.5-7.5a7.5 7.5 0 0 1 7.5 7.5zM278.383 205.07a7.5 7.5 0 1 1-15 0c0-4.144 3.355-7.5 7.5-7.5a7.5 7.5 0 0 1 7.5 7.5zM254.094 206.297a7.497 7.497 0 0 0-10.606 0 7.448 7.448 0 0 1-5.304 2.195c-2 0-3.887-.777-5.301-2.195a7.497 7.497 0 0 0-10.606 0 7.506 7.506 0 0 0-.004 10.61 22.356 22.356 0 0 0 15.91 6.59 22.35 22.35 0 0 0 15.91-6.59 7.502 7.502 0 0 0 0-10.61zM187.43 31.996C200.988 33.934 218.945 35 237.988 35c19.04 0 36.996-1.066 50.559-3.004 16.633-2.379 26.941-5.633 26.941-14.496S305.18 5.383 288.547 3.004C274.984 1.066 257.027 0 237.988 0c-19.043 0-37 1.066-50.558 3.004-16.633 2.379-26.942 5.633-26.942 14.496s10.309 12.117 26.942 14.496zM237.988 15c19.496 0 34.852 1.105 45.703 2.5-10.851 1.395-26.207 2.5-45.703 2.5-19.5 0-34.851-1.105-45.707-2.5 10.856-1.395 26.207-2.5 45.707-2.5zm0 0"/><path d="m468.898 308.625-60.105-60.102c-14.621-14.62-38.41-14.625-53.035 0l-41.656 41.657c-2.79-5.121-6.22-9.989-10.239-14.524 13.617-11.234 24.117-25.789 30.34-42.117 7.219 1.516 14.793.305 21.399-3.617 9.199-5.457 14.687-15.094 14.687-25.781 0-9.528-4.523-18.993-12.578-25.075l2.664-1.296c19.324-9.399 24.824-37.395 12.387-54.473-9.106-12.5-26.254-16.426-39.29-13.2-40.07-56.574-79.359-65.788-124.949-57.034-13.117 2.519-23.191 12.636-25.968 25.222-13.383 1.805-25.72 8.938-33.903 19.84-5.8 7.738-8.765 15.254-10.672 23.883a35.13 35.13 0 0 1-17.601 23.344 15.067 15.067 0 0 0-7.805 11.554 14.983 14.983 0 0 0 5.008 12.93l7.25 6.36a29.937 29.937 0 0 0-19.145 27.949c0 10.789 5.575 20.476 14.91 25.91 6.692 3.894 14.325 5.039 21.563 3.414 2.742 7.152 6.336 14.066 10.738 20.652a101.684 101.684 0 0 0 19.399 21.356 79.329 79.329 0 0 0-10.219 14.906l-41.86-41.86c-14.66-14.656-38.378-14.656-53.034 0L7.078 308.63c-8.77 8.77-8.77 23.047 0 31.82 4.387 4.387 10.149 6.578 15.91 6.578 5.399 0 10.778-1.949 15.047-5.797a22.413 22.413 0 0 0 4.399 6.29c4.078 4.074 9.34 6.23 14.683 6.52.293 5.55 2.57 10.73 6.531 14.69 4.387 4.387 10.149 6.579 15.91 6.579 10.77 0 15.665-6.332 22.133-12.801 3.871 8.09 11.84 12.8 20.293 12.8 5.762 0 11.524-2.19 15.91-6.578l17.743-17.742c4.492 11.77 14.754 20.75 27.3 23.41V489.5c0 12.406 10.094 22.5 22.5 22.5s22.5-10.094 22.5-22.5v-23.285h20.25v8.722c0 12.407 10.094 22.5 22.5 22.5s22.5-10.093 22.5-22.5V374.363c12.465-2.71 22.66-11.703 27.114-23.414l17.785 17.781c4.387 4.387 10.144 6.579 15.906 6.579 8.457 0 16.426-4.711 20.293-12.801l6.223 6.222c4.387 4.387 10.148 6.579 15.91 6.579s11.523-2.192 15.91-6.579c3.957-3.957 6.234-9.136 6.531-14.683 5.547-.297 10.727-2.574 14.68-6.531a22.357 22.357 0 0 0 4.41-6.282c8.953 8.067 22.543 7.618 30.95-.785 8.788-8.793 8.792-23.027 0-31.824zM152.895 124.023a43.63 43.63 0 0 1 7.753-16.894c6.72-8.953 17.414-14.297 28.614-14.297h.02a7.5 7.5 0 0 0 7.5-7.5c0-8.543 6.128-15.918 14.57-17.539 38.605-7.414 71.789-1.379 108.03 48.398-2.87 1.407-11.07 4.621-14.171 14.704a22.188 22.188 0 0 0 1.926 17.468c5.66 9.918 18.199 13.91 28.55 9.086l4.883-2.277a7.499 7.499 0 0 0 3.63-9.965 7.496 7.496 0 0 0-9.966-3.629l-4.882 2.274c-3.336 1.554-7.364.27-9.188-2.922a7.035 7.035 0 0 1-.617-5.618c1.164-3.789 3.297-4.113 14.64-9.66 6.625-3.097 20.188-2.117 26.45 6.477 7.008 9.629 3.965 26.906-6.825 32.152l-9.613 4.676c-10.117 4.918-21.172 6.84-31.96 5.543-37.04-4.438-71.759-21.613-97.762-48.367-4.16-4.278-11.426-2.203-12.704 3.617-5.683 25.836-28.406 44.813-54.625 46.059l-19.632-17.262c12.62-6.832 21.832-18.457 25.379-34.524zm-25.61 234.098c-2.922 2.93-7.683 2.926-10.605.004a7.448 7.448 0 0 1-2.196-5.305c0-2.004.778-3.886 2.196-5.304h.004l24.742-24.746a7.502 7.502 0 0 0 0-10.61 7.504 7.504 0 0 0-10.606 0l-45.96 45.961c-2.923 2.93-7.68 2.926-10.606.004a7.465 7.465 0 0 1-2.195-5.305c0-2.004.78-3.886 2.195-5.304l45.96-45.961a7.497 7.497 0 0 0 0-10.606 7.497 7.497 0 0 0-10.605 0L63.65 336.91c-2.922 2.926-7.68 2.926-10.606 0-2.898-2.898-2.961-7.633-.012-10.598l45.973-45.968a7.502 7.502 0 0 0 0-10.61c-2.93-2.925-7.68-2.925-10.606 0l-45.96 45.961c0 .004-.004.004-.004.004l-14.145 14.14c-2.926 2.927-7.684 2.923-10.605 0-2.922-2.925-2.922-7.683 0-10.605l60.105-60.105c8.793-8.793 23.023-8.793 31.82 0l46.356 46.355c-3.328 11.649-2.778 19.645-2.778 26.743zm103.203 1.29c0 2.64-1.879 3.765-2.683 4.128-.793.356-2.84.996-4.766-.719a22.522 22.522 0 0 1-7.55-16.816c0-6.418 2.75-12.55 7.55-16.817 2.898-2.582 7.45-.43 7.45 3.407zm-15.957 15.8c3.371 2.476 7.332 3.758 11.367 3.758 4.266 0 8.543-1.438 12.09-4.172 3.532 2.726 7.805 4.172 12.086 4.172 4.035 0 7.996-1.281 11.367-3.758h16.743v76.004h-80.25V375.21zm38.403-12.39c-1.926 1.714-3.973 1.074-4.766.718-.805-.363-2.684-1.488-2.684-4.129v-26.816c0-3.828 4.536-6 7.45-3.406a22.522 22.522 0 0 1 7.55 16.816c0 6.418-2.75 12.547-7.55 16.816zm-40 126.679c0 4.137-3.364 7.5-7.5 7.5-4.137 0-7.5-3.363-7.5-7.5v-23.285h15zm57.75-7.063c-4.133 0-7.5-3.363-7.5-7.5v-8.722h15v8.722c0 4.137-3.364 7.5-7.5 7.5zm14.93-122.226h-12.938a37.5 37.5 0 0 0 2.812-14.207c0-.266-.015-.531-.023-.793h10.219a7.5 7.5 0 0 0 7.5-7.5c0-4.145-3.356-7.5-7.5-7.5h-13.7a37.507 37.507 0 0 0-9.082-12.23c-7.207-6.415-17.507-6.493-24.918-.774-7.359-5.68-17.664-5.68-24.918.773a37.495 37.495 0 0 0-9.078 12.23h-13.554a7.497 7.497 0 0 0-7.5 7.5 7.5 7.5 0 0 0 7.5 7.5h10.074c-.008.263-.024.528-.024.794 0 4.922.985 9.738 2.813 14.207h-12.8c-12.306-.102-22.313-10.195-22.313-22.5v-14.824c.14-1-.239-20.489 16.382-38.664 11.598 7.03 24.625 11.77 38.032 13.793a7.504 7.504 0 0 0 8.535-6.293 7.506 7.506 0 0 0-6.297-8.54c-33.43-5.046-61.32-28.96-70.863-61.57-1.356-4.633-6.692-6.808-10.903-4.418-9.933 5.645-22.386-1.547-22.386-13.054 0-11.266 11.75-17.871 20.62-13.914.989.441 1.97.574 1.903.562 2.29.356 26.332.973 47.715-16.457a74.326 74.326 0 0 0 21.687-29.215c27.188 24.324 61.496 39.922 97.844 44.274 8.942 1.07 18 .398 26.758-1.918a7.458 7.458 0 0 0 3.082.64c7.754 0 14.996 7.282 14.996 16.028 0 11.379-12.215 18.593-22.16 13.172-4.195-2.293-9.453-.114-10.793 4.484-9.29 31.883-36.89 56.266-70.79 61.379a7.497 7.497 0 0 0-6.3 8.531 7.504 7.504 0 0 0 8.535 6.3c13.293-2.003 26.227-6.687 37.758-13.624 9.777 10.512 15.484 23.273 16.195 36.469.09 1.656.043 11.175-.007 16.859 0 12.238-9.918 22.324-22.114 22.5zm172.675-30.371c-2.922 2.926-7.68 2.926-10.605 0l-60.102-60.106a7.51 7.51 0 0 0-10.61 0 7.51 7.51 0 0 0 0 10.61l45.962 45.96c2.925 2.923 2.925 7.68 0 10.606-2.922 2.922-7.68 2.926-10.606 0l-45.96-45.96a7.497 7.497 0 0 0-10.606 0 7.497 7.497 0 0 0 0 10.605l45.96 45.96a7.497 7.497 0 0 1 0 10.606c-2.925 2.926-7.683 2.926-10.605 0l-45.96-45.96a7.497 7.497 0 0 0-10.606 0 7.497 7.497 0 0 0 0 10.605l24.746 24.75a7.44 7.44 0 0 1 2.195 5.3 7.448 7.448 0 0 1-2.195 5.305c-2.926 2.922-7.684 2.926-10.606 0L322.77 332.2c.058-10.27.367-16.648-2.524-26.953l46.121-46.117c8.774-8.774 23.047-8.774 31.82 0l60.102 60.101c2.926 2.926 2.926 7.684 0 10.61zm0 0"/></svg>