<svg xmlns="http://www.w3.org/2000/svg" viewBox="0 0 512 512" style="enable-background:new 0 0 512 512" xml:space="preserve"><path style="fill:#ffd4b2" d="M164.271 350.152c-1.072.225-2.217.134-3.262-.375l-36.725-17.873a24.37 24.37 0 0 0-4.256 13.795c0 13.536 10.986 24.51 24.535 24.51a24.436 24.436 0 0 0 14.028-4.405l5.68-15.652z"/><path style="fill:#ffb889" d="M188.236 177.681v-38.639h-11.521c-2.75 0-5-2.25-5-5v-.032l-11.154-4.457a3.538 3.538 0 0 0-1.332-.257c-.545 0-1.09.126-1.59.372a3.564 3.564 0 0 0-1.861 2.254c-.127.46-3.098 11.406-1.096 24.218 1.889 12.094 8.672 28.089 30.248 35.607a3.59 3.59 0 0 0 3.254-.46 3.558 3.558 0 0 0 1.19-1.489 65.73 65.73 0 0 1-1.138-12.117z"/><path style="fill:#ffb889" d="M188.236 177.681v-38.639h-11.521c-2.75 0-5-2.25-5-5v-.032l-11.154-4.457a3.538 3.538 0 0 0-1.332-.257c-.545 0-1.09.126-1.59.372a3.564 3.564 0 0 0-1.861 2.254c-.127.46-3.098 11.406-1.096 24.218 1.889 12.094 8.672 28.089 30.248 35.607a3.59 3.59 0 0 0 3.254-.46 3.558 3.558 0 0 0 1.19-1.489 65.73 65.73 0 0 1-1.138-12.117z"/><path style="opacity:.1;fill:#231f20;enable-background:new" d="M169.166 156.14c-1.616-10.345.009-19.471.762-22.844l-9.367-3.743a3.538 3.538 0 0 0-1.332-.257c-.545 0-1.09.126-1.59.372a3.564 3.564 0 0 0-1.861 2.254c-.127.46-3.098 11.406-1.096 24.218 1.889 12.094 8.672 28.089 30.248 35.607a3.59 3.59 0 0 0 3.254-.46 3.558 3.558 0 0 0 1.19-1.489 67.246 67.246 0 0 1-.495-3.028c-13.386-8.339-18.174-20.778-19.713-30.63zM136.402 345.699c0-2.562.402-5.026 1.133-7.347l-13.25-6.448a24.37 24.37 0 0 0-4.256 13.795c0 13.536 10.986 24.51 24.535 24.51 2.872 0 5.626-.497 8.188-1.403-9.524-3.368-16.35-12.439-16.35-23.107z"/><path style="fill:#ffd4b2" d="M387.144 331.101a4.626 4.626 0 0 1-.661.409l-37.533 18.266a5.01 5.01 0 0 1-3.265.376l4.802 13.231c4.405 4.217 10.365 6.825 16.949 6.825 13.551 0 24.535-10.974 24.535-24.51 0-5.469-1.795-10.52-4.827-14.597z"/><path style="fill:#fff" d="m387.921 325.366-54.117-69.998c-.549.496-1.387.777-2.465.745l-19.994-.593 34.341 94.632c1.073.226 2.219.135 3.265-.375l37.533-18.266c2.472-1.205 3.119-3.97 1.437-6.145zM164.271 350.152l34.34-94.633-19.992.593c-1.078.032-1.916-.249-2.465-.745l-54.117 69.998c-1.683 2.176-1.035 4.94 1.438 6.143l37.535 18.268c1.044.51 2.189.6 3.261.376z"/><path style="opacity:.1;fill:#231f20;enable-background:new" d="m198.611 255.519 2.037-.061-22.029.653c-1.078.032-1.916-.249-2.465-.745l-54.117 69.998c-1.683 2.176-1.035 4.94 1.438 6.143l13.858 6.744a4.326 4.326 0 0 1 .87-2.022l58.648-75.859 1.76-4.851z"/><path style="fill:#c73627" d="M272.872 381.172h34.596v68.51h-34.596z"/><path style="fill:#289e48" d="M351.61 504.5a3.575 3.575 0 0 0 1.88-6.616l-38.863-23.978v-20.648a3.577 3.577 0 0 0-3.578-3.576h-40.563a3.577 3.577 0 0 0-3.578 3.576v47.667a3.575 3.575 0 0 0 3.578 3.574h81.124v.001z"/><path style="fill:#c73627" d="M202.491 381.172h34.596v68.51h-34.596z"/><path style="opacity:.1;fill:#231f20;enable-background:new" d="M202.491 381.172h16.393v68.51h-16.393z"/><path style="fill:#289e48" d="m355.235 376.468-43.891-120.949-13.025-.386c-2.749-.082-5.323 2.078-5.721 4.799l-4.766 32.642c-.397 2.721-2.403 3.451-4.457 1.623l-24.662-21.949c-2.054-1.828-5.415-1.828-7.469 0l-24.662 21.949c-2.054 1.828-4.059 1.098-4.457-1.623l-4.766-32.642c-.398-2.721-2.972-4.881-5.721-4.799l-13.027.386-43.889 120.949c-.938 2.585.545 4.7 3.295 4.7H351.94c2.75 0 4.233-2.115 3.295-4.7z"/><g style="opacity:.1"><path style="fill:#231f20" d="m181.756 376.468 37.521-103.4-1.918-13.136c-.398-2.721-2.972-4.881-5.721-4.799l-13.027.386-43.889 120.949c-.938 2.585.545 4.7 3.295 4.7h27.033c-2.75 0-4.232-2.115-3.294-4.7z"/></g><path style="fill:#ffd4b2" d="M188.236 139.042v38.639c0 36.529 29.883 66.145 66.742 66.145 36.861 0 66.74-29.615 66.74-66.145v-38.639H188.236z"/><path style="fill:#c73627" d="m334.04 251.819-18.021-34.841c-.873-1.688-2.714-3.146-4.674-3.897a66.812 66.812 0 0 1-56.365 30.745 66.819 66.819 0 0 1-56.367-30.745c-1.959.751-3.801 2.209-4.674 3.897l-18.02 34.841c-1.264 2.442-.048 4.375 2.701 4.293l33.02-.979c2.749-.082 5.323 2.078 5.721 4.799l4.766 32.642c.398 2.721 2.403 3.451 4.457 1.623l24.662-21.949c2.054-1.828 5.415-1.828 7.469 0l24.662 21.949c2.054 1.828 4.06 1.098 4.457-1.623l4.766-32.642c.397-2.721 2.972-4.881 5.721-4.799l33.02.979c2.747.082 3.962-1.85 2.699-4.293z"/><path style="fill:#289e48" d="m187.765 90.85 26.416 22.852 16.82-29.103c.825-1.429 2.177-1.429 3.002 0l17.215 29.779h4.146l17.213-29.779c.825-1.429 2.177-1.429 3.002 0l17.213 29.779h2.201l27.534-23.818c-.06-.271-.119-.544-.19-.789 0 0-26.663-91.743-161.344-81.471.001 0 28.578 41.01 26.772 82.55z"/><path style="opacity:.1;fill:#231f20;enable-background:new" d="m187.775 90.858 18.534 16.034c11.286-43.036-18.652-91.215-24.021-99.377a268.37 268.37 0 0 0-21.294.784c0 .001 28.589 41.017 26.781 82.559z"/><path style="fill:#ffb889" d="M354.182 131.922a3.583 3.583 0 0 0-4.787-2.369l-11.154 4.457v.032c0 2.75-2.25 5-5 5h-11.522v38.639c0 4.141-.402 8.187-1.137 12.116a3.547 3.547 0 0 0 1.19 1.49 3.59 3.59 0 0 0 3.254.46c21.58-7.519 28.363-23.514 30.252-35.607 2-12.812-.971-23.758-1.096-24.218z"/><g style="opacity:.1"><path style="fill:#231f20" d="M209.992 177.681v-38.639h-21.756v38.639c0 36.529 29.883 66.145 66.742 66.145a67.69 67.69 0 0 0 10.878-.889c-31.684-5.15-55.864-32.4-55.864-65.256z"/></g><path style="fill:#c73627" d="M251.217 114.379 234.002 84.6c-.825-1.429-2.177-1.429-3.002 0l-17.211 29.779h37.428zM292.793 114.379l-17.213-29.78c-.825-1.429-2.177-1.429-3.002 0l-17.213 29.779h37.428zM332.421 114.379V85.001c0-1.65-1.02-2.117-2.268-1.037l-35.158 30.414h37.426z"/><path style="fill:#c73627" d="m214.964 114.379-35.158-30.414c-1.248-1.08-2.269-.613-2.269 1.037v29.377h37.427z"/><path style="fill:#289e48" d="M158.347 504.5a3.576 3.576 0 0 1-1.882-6.616l38.863-23.978v-20.648a3.579 3.579 0 0 1 3.58-3.576h40.561a3.577 3.577 0 0 1 3.58 3.576v47.667a3.576 3.576 0 0 1-3.58 3.574h-81.122v.001z"/><g style="opacity:.1"><path style="fill:#231f20" d="m172.89 503.221 38.863-23.978v-29.56h-12.846a3.579 3.579 0 0 0-3.58 3.576v20.648l-38.863 23.978a3.573 3.573 0 0 0 1.882 6.616h13.314a3.577 3.577 0 0 1 1.23-1.28z"/></g><path style="fill:#289e48" d="M338.241 134.042c0 2.75-2.25 5-5 5H176.714c-2.75 0-5-2.25-5-5v-14.663c0-2.75 2.25-5 5-5H333.24c2.75 0 5 2.25 5 5v14.663h.001z"/><g style="opacity:.1"><path style="fill:#231f20" d="M198.949 134.042v-14.663c0-2.75 2.25-5 5-5h-27.234c-2.75 0-5 2.25-5 5v14.663c0 2.75 2.25 5 5 5h27.234c-2.75 0-5-2.25-5-5z"/></g><ellipse style="fill:#fff" cx="255.471" cy="310.462" rx="10.734" ry="10.723"/><ellipse style="fill:#fff" cx="255.471" cy="350.292" rx="10.734" ry="10.723"/><path d="M395.901 331.059c.053-.184.118-.362.162-.55.784-3.354-.022-6.901-2.209-9.73l-51.808-67.011c.018-1.783-.429-3.622-1.346-5.394l-18.021-34.841a13.925 13.925 0 0 0-1.596-2.398 72.931 72.931 0 0 0 4.883-11.898 10.638 10.638 0 0 0 1.526-.407c19.578-6.82 32.077-21.57 35.194-41.532 2.185-13.998-.908-26.018-1.277-27.374a11.108 11.108 0 0 0-5.78-6.984c-2.801-1.378-6.175-1.494-9.019-.351l-.871.349v-3.558c0-4.435-2.328-8.328-5.82-10.548V85.001c0-5.199-3.668-9.119-8.532-9.119-1.436 0-3.558.385-5.715 2.074-4.544-9.696-13.657-25.209-30.219-39.914a7.498 7.498 0 0 0-10.588.629 7.5 7.5 0 0 0 .629 10.588c17.288 15.35 25.366 31.809 28.285 38.949l-18.302 15.832-13.405-23.192c-1.743-3.019-4.731-4.82-7.995-4.82-3.264 0-6.252 1.802-7.994 4.818l-12.793 22.133-12.794-22.131c-1.743-3.019-4.732-4.82-7.995-4.82-3.264 0-6.252 1.802-7.994 4.818l-12.28 21.248L195.3 87.451c.063-14.255-2.955-29.741-9.048-45.969-4.003-10.664-8.612-19.79-12.302-26.368 30.779-.924 57.787 3.79 80.419 14.074a7.5 7.5 0 1 0 6.205-13.657C232.63 2.835 198.94-2.117 160.423.822a7.501 7.501 0 0 0-5.582 11.768c.284.409 20.747 30.225 24.811 63.367a8.799 8.799 0 0 0-1.083-.074c-4.864 0-8.532 3.92-8.532 9.119v23.828c-3.493 2.22-5.822 6.113-5.822 10.549v3.558l-.833-.333c-2.872-1.166-6.232-1.054-9.068.342a11.077 11.077 0 0 0-5.766 6.981c-.363 1.314-3.482 13.254-1.276 27.37 3.117 19.961 15.615 34.711 35.163 41.523a10.89 10.89 0 0 0 1.554.415 72.842 72.842 0 0 0 4.883 11.898 14.061 14.061 0 0 0-1.596 2.398l-18.019 34.84c-.917 1.772-1.364 3.611-1.347 5.395l-51.806 67.01c-2.189 2.83-2.995 6.378-2.21 9.732a11.12 11.12 0 0 0 1.121 2.86 31.752 31.752 0 0 0-2.486 12.328c0 17.65 14.371 32.01 32.035 32.01.806 0 1.604-.035 2.395-.095-.077 2.326.553 4.575 1.888 6.48 2.038 2.907 5.381 4.575 9.171 4.575h36.969v54.244c-4.177 1.588-7.158 5.62-7.158 10.346v16.463l-35.305 21.782c-4.193 2.59-6.182 7.71-4.835 12.441 1.343 4.743 5.726 8.055 10.659 8.055h81.121c6.109 0 11.08-4.968 11.08-11.074v-7.907c0-4.143-3.357-7.5-7.5-7.5a7.499 7.499 0 0 0-7.5 7.5V497h-63.366l27.084-16.71a7.498 7.498 0 0 0 3.561-6.383v-16.724h32.721v2.836c0 4.143 3.357 7.5 7.5 7.5s7.5-3.357 7.5-7.5v-6.76c0-4.264-2.426-7.966-5.967-9.816V388.67h20.791v54.773c-3.54 1.852-5.965 5.554-5.965 9.816v47.667c0 6.106 4.97 11.074 11.078 11.074h81.124c4.928 0 9.31-3.309 10.659-8.055 1.342-4.737-.647-9.854-4.84-12.443l-35.302-21.78v-16.463c0-4.727-2.981-8.759-7.158-10.347v-54.243h36.971c3.79 0 7.133-1.668 9.171-4.575 1.378-1.965 2.001-4.298 1.874-6.703 1.455.204 2.939.318 4.451.318 17.664 0 32.035-14.359 32.035-32.01a31.765 31.765 0 0 0-3.57-14.64zM195.736 177.681v-31.139h118.483v31.139c0 32.337-26.575 58.645-59.24 58.645-32.667 0-59.243-26.308-59.243-58.645zm137.505-31.139c4.886 0 9.115-2.824 11.17-6.921l3.402-1.359c.593 3.911 1.098 10.038.055 16.721-1.916 12.271-8.221 21.263-18.772 26.84.077-1.372.124-2.751.124-4.142v-31.139h4.021zm-8.32-48.135v8.472h-9.794l9.794-8.472zm-50.842-1.417 5.716 9.889h-11.432l5.716-9.889zm-41.576 0 5.716 9.889h-11.432l5.716-9.889zm-47.466 1.417 9.794 8.472h-9.794v-8.472zm-22.946 56.575c-1.039-6.647-.53-12.797.061-16.716l3.393 1.357c2.055 4.096 6.284 6.92 11.17 6.92h4.021v31.139c0 1.392.047 2.772.125 4.146-10.541-5.57-16.852-14.565-18.77-26.846zm17.123-23.44v-9.663H330.74v9.663H179.214zm75.764 119.784c22.759 0 43.148-10.218 56.775-26.265l12.065 23.324-25.277-.749c-6.617-.153-12.413 4.695-13.365 11.213l-3.478 23.816-18-16.02c-2.368-2.108-5.465-3.27-8.721-3.27-3.256 0-6.352 1.161-8.721 3.269l-18 16.02-3.477-23.817c-.934-6.395-6.519-11.217-12.99-11.217-.125 0-.25.002-.373.005l-25.28.75 12.064-23.326c13.629 16.049 34.019 26.267 56.778 26.267zm-75.708 12.27 8.524-.253-28.105 77.449-29.137-14.181 48.718-63.015zm-51.741 82.103c0-1.263.154-2.487.418-3.671l26.598 12.943-2.1 5.787a16.898 16.898 0 0 1-7.881 1.95c-9.393 0-17.035-7.63-17.035-17.009zm82.457 88.113h19.596v8.37h-19.596v-8.37zm19.596-15h-19.596v-7.339h19.596v7.339zm0-22.339h-19.596v-7.805h19.596v7.805zm50.792 45.709v-8.37h19.596v8.37h-19.596zm19.595-23.37h-19.596v-7.339h19.596v7.339zM337.773 497h-63.364v-39.817h32.719v16.725a7.5 7.5 0 0 0 3.562 6.383L337.773 497zm-37.804-100.527h-19.596v-7.805h19.596v7.805zm-136.253-22.805 40.209-110.804 6.255-.186 4.523 30.979c.778 5.327 4.76 9.047 9.684 9.046 2.564 0 5.047-1.005 7.181-2.904l23.41-20.835 23.41 20.834c2.135 1.901 4.618 2.905 7.182 2.905 4.923 0 8.905-3.72 9.683-9.047l4.523-30.977 6.255.185 5.337 14.708a7.496 7.496 0 0 0 9.608 4.491 7.5 7.5 0 0 0 4.491-9.608l-3.307-9.113 8.524.253 48.719 63.017-29.138 14.18-11.734-32.333a7.5 7.5 0 0 0-14.099 5.117l21.807 60.091H163.716zm203.72-10.96c-3.988 0-7.65-1.386-10.555-3.687l-1.469-4.05 28.43-13.836c.408 1.452.629 2.981.629 4.563 0 9.38-7.641 17.01-17.035 17.01z"/><path d="M227.451 195.924a7.501 7.501 0 0 0 .006 10.607c7.588 7.579 17.555 11.369 27.521 11.369s19.933-3.79 27.519-11.37a7.5 7.5 0 0 0 .005-10.607 7.5 7.5 0 0 0-10.606-.005c-9.329 9.318-24.509 9.319-33.838-.001a7.504 7.504 0 0 0-10.607.007zM229.164 179.576c4.143 0 7.5-3.357 7.5-7.5v-8.969c0-4.143-3.357-7.5-7.5-7.5a7.499 7.499 0 0 0-7.5 7.5v8.969a7.5 7.5 0 0 0 7.5 7.5zM280.792 179.576c4.143 0 7.5-3.357 7.5-7.5v-8.969c0-4.143-3.357-7.5-7.5-7.5s-7.5 3.357-7.5 7.5v8.969a7.5 7.5 0 0 0 7.5 7.5zM254.978 188.046c4.143 0 7.5-3.357 7.5-7.5v-8.714c0-4.143-3.357-7.5-7.5-7.5a7.499 7.499 0 0 0-7.5 7.5v8.714a7.5 7.5 0 0 0 7.5 7.5zM255.474 292.244c-10.055 0-18.234 8.175-18.234 18.223s8.18 18.223 18.234 18.223c10.055 0 18.234-8.175 18.234-18.223.002-10.049-8.178-18.223-18.234-18.223zm0 21.445a3.232 3.232 0 0 1-3.234-3.223 3.232 3.232 0 0 1 3.234-3.223 3.232 3.232 0 0 1 3.234 3.223 3.23 3.23 0 0 1-3.234 3.223zM255.474 332.072c-10.055 0-18.234 8.175-18.234 18.223 0 10.048 8.18 18.223 18.234 18.223 10.055 0 18.234-8.175 18.234-18.223.002-10.049-8.178-18.223-18.234-18.223zm0 21.445a3.232 3.232 0 0 1-3.234-3.223 3.232 3.232 0 0 1 3.234-3.223 3.232 3.232 0 0 1 3.234 3.223 3.23 3.23 0 0 1-3.234 3.223z"/></svg>