<svg height="512pt" viewBox="-61 0 512 512.004" width="512pt" xmlns="http://www.w3.org/2000/svg"><path d="M178.188 469.336v17.066c-.028 9.414-7.653 17.04-17.067 17.07h-8.531c-9.414-.03-17.04-7.656-17.067-17.07v-17.066zM254.988 469.336v17.066c-.027 9.414-7.652 17.04-17.066 17.07h-8.535c-9.414-.03-17.035-7.656-17.067-17.07v-17.066zm0 0" fill="#ffe0b2"/><path d="M254.988 358.402v110.934H212.32V452.27c-.027-9.415-7.652-17.04-17.066-17.067-9.395.07-16.996 7.672-17.066 17.067v17.066h-42.665V358.402zm0 0" fill="#c52828"/><path d="M135.523 409.605v12.797c0 11.786-9.554 21.336-21.335 21.336s-21.333-9.55-21.333-21.336v-12.797zm0 0" fill="#ffe0b2"/><path d="M135.523 358.402v51.203H92.855V392.54c0-18.851 15.282-34.137 34.133-34.137zm0 0" fill="#f44335"/><path d="M254.988 409.605v12.797c0 11.786 9.551 21.336 21.332 21.336 11.785 0 21.336-9.55 21.336-21.336v-12.797zm0 0" fill="#ffe0b2"/><path d="M254.988 358.402v51.203h42.668V392.54c0-18.851-15.281-34.137-34.133-34.137zM220.855 396.805c0-21.207-11.46-38.403-25.601-38.403-14.137 0-25.598 17.196-25.598 38.403 0 21.207 11.461 38.398 25.598 38.398 14.14 0 25.601-17.191 25.601-38.398zm0 0" fill="#f44335"/><path d="m102.3 83.547-54.269 54.27S-6.926 102.831 19.527 14.765a8.686 8.686 0 0 1 5.508-5.77 8.684 8.684 0 0 1 7.89 1.164 8.516 8.516 0 0 1 2.99 4.18C43.761 38.832 61.77 72.367 102.3 83.547zm0 0" fill="#bfa885"/><path d="m102.3 83.547-37.714 37.715S14.578 89.52 32.926 10.16a8.516 8.516 0 0 1 2.988 4.18c7.848 24.492 25.856 58.027 66.387 69.207zm0 0" fill="#ffe0b2"/><path d="m288.207 83.547 54.273 54.27s54.954-34.985 28.5-123.051a8.68 8.68 0 0 0-5.503-5.77 8.684 8.684 0 0 0-7.891 1.164 8.516 8.516 0 0 0-2.988 4.18c-7.852 24.492-25.856 58.027-66.391 69.207zm0 0" fill="#bfa885"/><path d="m288.207 83.547 37.719 37.715S375.93 89.52 357.586 10.16a8.516 8.516 0 0 0-2.988 4.18c-7.852 24.492-25.856 58.027-66.391 69.207zm0 0" fill="#ffe0b2"/><path d="M59.66 166.574a87.62 87.62 0 0 0-.937 12.63v93.866c0 47.13 38.203 85.332 85.332 85.332h102.402a85.332 85.332 0 0 0 85.332-85.332v-93.867a88.181 88.181 0 0 0-.937-12.629l-68.184-71.168a84.23 84.23 0 0 0-16.211-1.535H144.055a84.299 84.299 0 0 0-16.215 1.535zm0 0" fill="#c52828"/><path d="M68.11 166.574c-.551 4.188-.837 8.406-.856 12.63v93.866c0 47.106 33.453 85.332 74.668 85.332h89.601c41.215 0 74.665-38.226 74.665-85.332v-93.867c-.02-4.223-.305-8.441-.852-12.629L245.68 95.406a64.883 64.883 0 0 0-14.157-1.535h-89.601a64.935 64.935 0 0 0-14.192 1.535zm0 0" fill="#f44335"/><path d="m44.324 137.816 54.309-54.304c6.664-6.664 17.469-6.664 24.133 0 6.668 6.664 6.668 17.468 0 24.136L68.46 161.953c-6.664 6.664-17.473 6.664-24.137 0-6.664-6.664-6.664-17.473 0-24.137zM267.742 83.508c6.664-6.664 17.469-6.664 24.133 0l54.309 54.305c6.664 6.664 6.664 17.472 0 24.136-6.668 6.664-17.473 6.664-24.137 0l-54.305-54.304c-6.668-6.668-6.668-17.473 0-24.137zm0 0" fill="#c52828"/><path d="M168.887 207.11c.52 2.035.777 4.128.77 6.226.034 13.66-10.66 24.941-24.302 25.633-13.644.691-25.425-9.446-26.773-23.04-1.352-13.59 8.207-25.847 21.719-27.85" fill="#ffeb3a"/><path d="M178.188 221.871c-1.684 0-3.329-.5-4.727-1.434l-51.2-34.132a8.533 8.533 0 0 1-2.363-11.836c2.614-3.922 7.915-4.98 11.836-2.364l51.2 34.133a8.534 8.534 0 0 1-4.746 15.633zm0 0" fill="#c03a2b"/><path d="M250.21 188.078c13.513 2.004 23.071 14.262 21.72 27.852-1.348 13.593-13.133 23.73-26.774 23.039s-24.336-11.973-24.3-25.633c-.008-2.098.25-4.191.769-6.227" fill="#ffeb3a"/><path d="M212.32 221.871a8.533 8.533 0 0 1-4.742-15.633l51.2-34.133a8.532 8.532 0 0 1 8.515-.55 8.532 8.532 0 0 1 .957 14.75l-51.2 34.132a8.536 8.536 0 0 1-4.73 1.434zM203.79 273.07h-17.067a8.533 8.533 0 1 1 0-17.066h17.066c4.711 0 8.531 3.82 8.531 8.535 0 4.711-3.82 8.531-8.53 8.531zm0 0" fill="#c03a2b"/><path d="M195.254 324.27c-53.535 0-87.04-10.239-99.516-30.461a35.612 35.612 0 0 1-1.988-33.086 8.54 8.54 0 0 1 11.453-3.825 8.54 8.54 0 0 1 3.824 11.454 18.264 18.264 0 0 0 1.364 16.691c5.257 8.277 23.28 22.187 84.863 22.187 61.926 0 79.832-14.02 85-22.375a18.26 18.26 0 0 0 1.23-16.476c-2.105-4.219-.394-9.348 3.825-11.453a8.535 8.535 0 0 1 11.449 3.824 35.593 35.593 0 0 1-1.988 33.082c-12.473 20.2-45.977 30.438-99.516 30.438zm0 0" fill="#2c3e50"/><path d="M382.852 12.273A17.124 17.124 0 0 0 366.535.003h-.18a16.679 16.679 0 0 0-16.117 11.75c-7.304 22.657-23.238 51.278-56.945 62.2a26.325 26.325 0 0 0-31.57 3.524 25.512 25.512 0 0 0-5.582 8.37 96.627 96.627 0 0 0-9.684-.511H144.055c-3.23.008-6.461.18-9.676.512a25.34 25.34 0 0 0-5.574-8.36 26.292 26.292 0 0 0-31.57-3.535c-33.708-10.922-49.641-39.543-56.946-62.2A16.691 16.691 0 0 0 23.973.004 17.12 17.12 0 0 0 7.66 12.274C-14.836 87.2 17.934 126.383 32.95 139.711a25.358 25.358 0 0 0 .464 21.594 25.353 25.353 0 0 0 16.945 13.394c-.078 1.52-.171 3.047-.171 4.54v93.831c.05 35.86 20.523 68.555 52.761 84.258A42.682 42.682 0 0 0 84.32 392.54v29.863c0 16.496 13.375 29.868 29.868 29.868a29.556 29.556 0 0 0 12.8-2.993v37.125c0 14.141 11.461 25.602 25.602 25.602h8.531c14.14 0 25.602-11.461 25.602-25.602V452.27a8.533 8.533 0 0 1 17.066 0v34.132c0 14.141 11.461 25.602 25.598 25.602h8.535c14.137 0 25.601-11.461 25.601-25.602v-37.125a29.527 29.527 0 0 0 12.797 2.993c7.922 0 15.52-3.145 21.121-8.747a29.868 29.868 0 0 0 8.747-21.12v-29.864a42.662 42.662 0 0 0-18.63-35.21c32.239-15.704 52.715-48.4 52.762-84.259v-93.867c0-1.492-.093-3.02-.168-4.539a25.326 25.326 0 0 0 17.399-34.945c15.027-13.328 47.804-52.52 25.3-127.446zm-16.348 4.91c19.531 65.04-7.527 98.227-19.629 109.227l-39.406-39.367a109.75 109.75 0 0 0 59.035-69.86zm-342.48-.199a109.555 109.555 0 0 0 59.019 70.059l-39.34 39.332C31.73 115.34 4.57 81.863 24.023 16.985zm222.433 405.418v38.403h-25.602v-8.535a25.375 25.375 0 0 0-6.265-16.586 53.113 53.113 0 0 0 14.797-38.88 58.227 58.227 0 0 0-7.817-29.866h24.887zm-34.137-25.597c0 17.605-8.992 29.867-17.066 29.867-8.07 0-17.066-12.262-17.066-29.867 0-17.606 8.996-29.867 17.066-29.867 8.074 0 17.066 12.269 17.066 29.867zm-36.402 38.879a25.35 25.35 0 0 0-6.262 16.586v8.535h-25.601v-93.867h24.883a58.227 58.227 0 0 0-7.817 29.867 53.129 53.129 0 0 0 14.797 38.879zm-48.93-68.746v34.132h-25.601v-8.53c0-14.142 11.465-25.602 25.601-25.602zm-12.8 68.265c-7.067 0-12.801-5.73-12.801-12.8v-4.266h25.601v4.265c0 7.07-5.73 12.801-12.8 12.801zm46.933 59.735h-8.531a8.534 8.534 0 0 1-8.535-8.536v-8.53h25.601v8.53a8.534 8.534 0 0 1-8.535 8.536zm76.8 0h-8.534a8.533 8.533 0 0 1-8.532-8.536v-8.53h25.602v8.53a8.536 8.536 0 0 1-8.535 8.536zm38.4-59.735c-7.067 0-12.798-5.73-12.798-12.8v-4.266h25.598v4.265c0 7.07-5.73 12.801-12.8 12.801zm12.8-34.133h-25.598v-34.132c14.137 0 25.598 11.46 25.598 25.601zm51.031-245.152a8.538 8.538 0 0 1-12.074 0 8.533 8.533 0 0 0-12.07.004 8.533 8.533 0 0 0 .004 12.07 25.226 25.226 0 0 0 6.758 4.711c.187 2.176.484 4.387.484 6.5v93.867c-.047 42.399-34.402 76.754-76.797 76.801H144.055c-42.395-.047-76.754-34.402-76.801-76.8v-93.868c0-2.113.3-4.324.488-6.5a25.288 25.288 0 0 0 6.758-4.71 8.533 8.533 0 0 0 .004-12.071 8.533 8.533 0 0 0-12.07-.004 8.533 8.533 0 0 1-8.243 2.21 8.533 8.533 0 0 1-3.832-14.277l54.305-54.308a8.73 8.73 0 0 1 12.066 0 8.53 8.53 0 0 1 0 12.059c-3.332 3.332-3.335 8.738-.003 12.07a8.533 8.533 0 0 0 12.07.004 25.304 25.304 0 0 0 6.289-10.719 80.049 80.049 0 0 1 8.969-.555h102.402c2.996.02 5.988.207 8.965.567a25.331 25.331 0 0 0 6.289 10.715 8.532 8.532 0 0 0 11.875-.2 8.536 8.536 0 0 0 .176-11.875 8.532 8.532 0 0 1 0-12.066 8.736 8.736 0 0 1 12.058 0l54.297 54.3a8.532 8.532 0 0 1 .035 12.074zm0 0"/><path d="M144.055 247.473c15.586-.059 29.156-10.66 32.972-25.774.383.086.77.145 1.16.172a8.534 8.534 0 0 0 4.747-15.633l-9.711-6.476-41.48-27.657a8.533 8.533 0 0 0-8.516-.55 8.532 8.532 0 0 0-.957 14.75l.562.375a34.13 34.13 0 0 0-10.906 37.906 34.133 34.133 0 0 0 32.129 22.887zm16.922-35.356c0 .418.144.793.144 1.219.02 8.719-6.531 16.047-15.195 17-8.664.957-16.656-4.77-18.535-13.281-1.88-8.508 2.953-17.07 11.21-19.856zM212.32 221.871c.39-.027.774-.086 1.153-.172 3.617 14.43 16.172 24.848 31.02 25.735 14.847.886 28.558-7.961 33.862-21.856 5.31-13.894.989-29.629-10.668-38.863l.563-.375c3.922-2.617 4.98-7.918 2.363-11.836a8.537 8.537 0 0 0-11.836-2.367l-41.445 27.633-.129.085-9.625 6.418a8.53 8.53 0 0 0-3.379 9.547 8.535 8.535 0 0 0 8.121 6.051zm51.203-8.535c0 9.426-7.644 17.066-17.066 17.066-9.426 0-17.07-7.64-17.07-17.066 0-.426.12-.8.148-1.219l22.371-14.918a17.016 17.016 0 0 1 11.617 16.137zM178.188 264.54c0 4.71 3.82 8.53 8.535 8.53h17.066a8.533 8.533 0 0 0 0-17.066h-17.066a8.534 8.534 0 0 0-8.536 8.535zm0 0"/><path d="M285.309 256.898a8.535 8.535 0 0 0-3.825 11.454 18.26 18.26 0 0 1-1.23 16.476c-5.168 8.356-23.074 22.375-85 22.375-61.582 0-79.606-13.883-84.863-22.187a18.255 18.255 0 0 1-1.364-16.688c2.106-4.219.395-9.348-3.824-11.453s-9.344-.395-11.453 3.824a35.604 35.604 0 0 0 1.988 33.082c12.477 20.25 45.98 30.489 99.516 30.489 53.539 0 87.043-10.239 99.516-30.461a35.6 35.6 0 0 0 1.988-33.086 8.525 8.525 0 0 0-4.934-4.285 8.54 8.54 0 0 0-6.515.46zm0 0"/></svg>