<svg xmlns="http://www.w3.org/2000/svg" viewBox="0 0 512 512" style="enable-background:new 0 0 512 512" xml:space="preserve"><circle style="fill:#6bc1dd" cx="256" cy="33.02" r="25.52"/><g style="opacity:.15"><path style="fill:#3d0072" d="M251.961 33.02c0-10.256 6.053-19.094 14.779-23.149A25.39 25.39 0 0 0 256 7.5c-14.094 0-25.52 11.426-25.52 25.52S241.906 58.54 256 58.54a25.42 25.42 0 0 0 10.74-2.37c-8.726-4.057-14.779-12.895-14.779-23.15z"/></g><path style="fill:#9ea7af" d="M107.413 131h-15.07c-8.25 0-15 6.75-15 15v108.828c0 8.25 6.75 15 15 15h15.07V131zM418.665 131h-14.078v138.828h14.078c8.25 0 15-6.75 15-15V146c0-8.25-6.75-15-15-15zM98 453a33.845 33.845 0 0 1-19-5.801V494.5c0 5.5 4.5 10 10 10h28.643V453H98zM414 453h-19.643v51.5H423c5.5 0 10-4.5 10-10v-47.301A33.845 33.845 0 0 1 414 453z"/><path style="opacity:.15;fill:#490089;enable-background:new" d="M100 494.5V453h-2a33.845 33.845 0 0 1-19-5.801V494.5c0 5.5 4.5 10 10 10h21c-5.5 0-10-4.5-10-10z"/><path style="fill:#e6e9ed" d="M117.643 375H98c-18.777 0-34 15.223-34 34v10c0 18.777 15.223 34 34 34h19.643v-78zM414 375h-19.643v78H414c18.777 0 34-15.223 34-34v-10c0-18.777-15.223-34-34-34z"/><path style="opacity:.15;fill:#490089;enable-background:new" d="M117.643 452.713C100.925 450.572 88 436.3 88 419v-10c0-17.3 12.925-31.572 29.643-33.713V375H98c-18.777 0-34 15.223-34 34v10c0 18.777 15.223 34 34 34h19.643v-.287z"/><path style="fill:#9ea7af" d="M222.81 309.62h66.38v22.57h-66.38z"/><path style="opacity:.15;fill:#490089;enable-background:new" d="M222.81 309.62H247v22.57h-24.19z"/><path style="fill:#c5ccd3" d="M334.092 355.25v-14.435c0-4.743-3.881-8.624-8.623-8.624H183.625c-4.744 0-8.625 3.881-8.625 8.624v14.435h159.092z"/><path style="opacity:.15;fill:#490089;enable-background:new" d="M204.908 355.25v-14.435c0-4.743 3.881-8.624 8.625-8.624h-29.908c-4.744 0-8.625 3.881-8.625 8.624v14.435h29.908z"/><path style="fill:#9ea7af" d="M379.357 355.25H132.643c-8.25 0-15 6.75-15 15V504.5h276.715V370.25c-.001-8.25-6.751-15-15.001-15z"/><path style="fill:#c5ccd3" d="M404.587 294.621c0 8.25-6.75 15-15 15H122.413c-8.25 0-15-6.75-15-15V105.197c0-8.25 6.75-15 15-15h267.174c8.25 0 15 6.75 15 15v189.424z"/><g style="opacity:.15"><path style="fill:#3d0072" d="M136 294.621V105.197c0-8.25 6.75-15 15-15h-28.587c-8.25 0-15 6.75-15 15v189.424c0 8.25 6.75 15 15 15H151c-8.25 0-15-6.75-15-15z"/></g><path style="fill:#046699" d="M369.091 200.191c0 28.614-23.196 51.809-51.81 51.809h-122.56c-28.615 0-51.812-23.194-51.812-51.809 0-28.614 23.196-51.809 51.812-51.809h122.56c28.614.001 51.81 23.195 51.81 51.809z"/><g style="opacity:.15"><path style="fill:#3d0072" d="M172 200.191c0-28.614 23.196-51.809 51.811-51.809H194.72c-28.615 0-51.812 23.194-51.812 51.809S166.105 252 194.721 252h29.091C195.196 252 172 228.806 172 200.191z"/></g><ellipse style="fill:#6bc1dd" cx="189.55" cy="200.19" rx="20.15" ry="20.226"/><ellipse style="fill:#6bc1dd" cx="322.84" cy="200.19" rx="20.15" ry="20.226"/><g style="opacity:.15"><path style="fill:#3d0072" d="M161.285 355.25h-28.643c-8.25 0-15 6.75-15 15V504.5h28.643V370.25c0-8.25 6.75-15 15-15z"/></g><path style="fill:#046699" d="M345.375 504.5v-87.179c0-5.5-4.5-10-10-10h-158.75c-5.5 0-10 4.5-10 10V504.5h178.75z"/><path style="fill:#ffc502" d="M274 504.5v-28.117c0-1.65-1.35-3-3-3h-30c-1.65 0-3 1.35-3 3V504.5h36z"/><circle style="fill:#5dc647" cx="308.82" cy="442.18" r="11.177"/><path style="fill:#6bc1dd" d="M274 450.353c0 1.65-1.35 3-3 3h-30c-1.65 0-3-1.35-3-3V434c0-1.65 1.35-3 3-3h30c1.65 0 3 1.35 3 3v16.353z"/><path d="M414 367.5h-12.316c-1.361-11.113-10.852-19.75-22.326-19.75h-37.766v-6.935c0-8.891-7.232-16.124-16.123-16.124H296.69v-7.57h92.897c12.406 0 22.5-10.094 22.5-22.5v-17.293h6.578c12.406 0 22.5-10.094 22.5-22.5V146c0-12.406-10.094-22.5-22.5-22.5h-6.578v-18.303c0-12.406-10.094-22.5-22.5-22.5H355a7.499 7.499 0 0 0-7.5 7.5 7.5 7.5 0 0 0 7.5 7.5h34.587c4.136 0 7.5 3.364 7.5 7.5v189.424c0 4.136-3.364 7.5-7.5 7.5H122.413c-4.136 0-7.5-3.364-7.5-7.5V105.197c0-4.136 3.364-7.5 7.5-7.5h190.586a7.5 7.5 0 0 0 7.5-7.5c0-4.143-3.357-7.5-7.5-7.5H263.5V65.17c14.604-3.407 25.52-16.523 25.52-32.15C289.02 14.813 274.207 0 256 0s-33.02 14.813-33.02 33.02c0 15.627 10.915 28.743 25.52 32.15v17.527H122.413c-12.406 0-22.5 10.094-22.5 22.5V123.5h-7.57c-12.406 0-22.5 10.094-22.5 22.5v108.828c0 12.406 10.094 22.5 22.5 22.5h7.57v17.293c0 12.406 10.094 22.5 22.5 22.5h92.896v7.57h-31.685c-8.892 0-16.125 7.233-16.125 16.124v6.935h-34.857c-11.475 0-20.965 8.637-22.326 19.75H98c-22.883 0-41.5 18.617-41.5 41.5v10c0 12.815 5.842 24.291 15 31.91v43.59c0 9.649 7.851 17.5 17.5 17.5h334c9.649 0 17.5-7.851 17.5-17.5v-43.59c9.158-7.619 15-19.095 15-31.91v-10c0-22.883-18.617-41.5-41.5-41.5zm-1.913-229h6.578c4.136 0 7.5 3.364 7.5 7.5v108.828c0 4.136-3.364 7.5-7.5 7.5h-6.578V138.5zM237.98 33.02c0-9.936 8.084-18.02 18.02-18.02 9.935 0 18.02 8.084 18.02 18.02S265.936 51.04 256 51.04c-9.936-.001-18.02-8.085-18.02-18.02zM99.913 262.328h-7.57c-4.136 0-7.5-3.364-7.5-7.5V146c0-4.136 3.364-7.5 7.5-7.5h7.57v123.828zM110.143 497H89c-1.355 0-2.5-1.145-2.5-2.5v-35.634A41.355 41.355 0 0 0 98 460.5h12.143V497zm0-51.5H98c-14.612 0-26.5-11.888-26.5-26.5v-10c0-14.612 11.888-26.5 26.5-26.5h12.143v63zM230.31 317.121h51.381v7.57H230.31v-7.57zM266.5 497h-21v-16.117h21V497zm71.375 0H281.5v-20.617c0-5.79-4.71-10.5-10.5-10.5h-30c-5.79 0-10.5 4.71-10.5 10.5V497h-56.375v-79.679c0-1.355 1.145-2.5 2.5-2.5h158.75c1.355 0 2.5 1.145 2.5 2.5V497zm87.625-2.5c0 1.355-1.145 2.5-2.5 2.5h-21.143v-36.5H414c3.99 0 7.846-.578 11.5-1.634V494.5zm15-75.5c0 14.612-11.888 26.5-26.5 26.5h-12.143V429c0-4.143-3.357-7.5-7.5-7.5s-7.5 3.357-7.5 7.5v68h-33.982v-79.679c0-9.649-7.851-17.5-17.5-17.5h-158.75c-9.649 0-17.5 7.851-17.5 17.5V497h-33.982V370.25c0-4.136 3.364-7.5 7.5-7.5h87.356c4.143 0 7.5-3.357 7.5-7.5s-3.357-7.5-7.5-7.5H182.5v-6.935c0-.599.525-1.124 1.125-1.124h141.844c.599 0 1.123.525 1.123 1.124v6.935H264c-4.143 0-7.5 3.357-7.5 7.5s3.357 7.5 7.5 7.5h115.357c4.136 0 7.5 3.364 7.5 7.5V390c0 4.143 3.357 7.5 7.5 7.5s7.5-3.357 7.5-7.5v-7.5H414c14.612 0 26.5 11.888 26.5 26.5v10z"/><path d="M194.721 140.883c-32.704 0-59.312 26.605-59.312 59.309s26.607 59.309 59.312 59.309h122.56c32.704 0 59.31-26.605 59.31-59.309s-26.606-59.309-59.31-59.309h-122.56zm166.87 59.308c0 24.432-19.878 44.309-44.31 44.309h-122.56c-24.434 0-44.312-19.877-44.312-44.309s19.878-44.309 44.312-44.309h122.56c24.432.001 44.31 19.878 44.31 44.309z"/><path d="M189.548 172.466c-15.245 0-27.647 12.438-27.647 27.726s12.402 27.726 27.647 27.726c15.243 0 27.645-12.438 27.645-27.726s-12.402-27.726-27.645-27.726zm0 40.451c-6.974 0-12.647-5.709-12.647-12.726s5.674-12.726 12.647-12.726 12.645 5.709 12.645 12.726c-.001 7.017-5.673 12.726-12.645 12.726zM295.192 200.191c0 15.288 12.402 27.726 27.647 27.726 15.243 0 27.645-12.438 27.645-27.726s-12.401-27.726-27.645-27.726c-15.244.001-27.647 12.438-27.647 27.726zm27.648-12.725c6.973 0 12.645 5.709 12.645 12.726s-5.672 12.726-12.645 12.726c-6.974 0-12.647-5.709-12.647-12.726-.001-7.017 5.673-12.726 12.647-12.726zM214 423.841h-23c-4.143 0-7.5 3.357-7.5 7.5s3.357 7.5 7.5 7.5h23c4.143 0 7.5-3.357 7.5-7.5s-3.357-7.5-7.5-7.5zM191 456.613h13c4.143 0 7.5-3.357 7.5-7.5s-3.357-7.5-7.5-7.5h-13c-4.143 0-7.5 3.357-7.5 7.5s3.357 7.5 7.5 7.5zM214 459.387h-23c-4.143 0-7.5 3.357-7.5 7.5s3.357 7.5 7.5 7.5h23c4.143 0 7.5-3.357 7.5-7.5s-3.357-7.5-7.5-7.5zM201 477.159h-10c-4.143 0-7.5 3.357-7.5 7.5s3.357 7.5 7.5 7.5h10c4.143 0 7.5-3.357 7.5-7.5a7.5 7.5 0 0 0-7.5-7.5zM317.297 469.5H300.35c-4.143 0-7.5 3.357-7.5 7.5s3.357 7.5 7.5 7.5h16.947c4.143 0 7.5-3.357 7.5-7.5s-3.357-7.5-7.5-7.5zM308.823 423.5c-10.299 0-18.677 8.378-18.677 18.677s8.378 18.677 18.677 18.677 18.677-8.378 18.677-18.677-8.378-18.677-18.677-18.677zm0 22.353a3.681 3.681 0 0 1-3.677-3.677 3.681 3.681 0 0 1 3.677-3.677c2.027 0 3.677 1.649 3.677 3.677s-1.649 3.677-3.677 3.677zM271 423.5h-30c-5.79 0-10.5 4.71-10.5 10.5v16.353c0 5.79 4.71 10.5 10.5 10.5h30c5.79 0 10.5-4.71 10.5-10.5V434c0-5.79-4.71-10.5-10.5-10.5zm-4.5 22.353h-21V438.5h21v7.353z"/></svg>