<svg height="512pt" viewBox="0 0 512 512.034" width="512pt" xmlns="http://www.w3.org/2000/svg"><path d="M426.684 358.434c0 56.578-61.098 102.402-136.532 102.402-4.097 0-8.195-.172-12.289-.512a159.264 159.264 0 0 1-102.828-46.168c-5.12-5.035-10.152-10.238-15.617-14.676a236.9 236.9 0 0 0-65.875-38.316c-4.098-1.535-8.191-2.898-12.375-4.18a194.032 194.032 0 0 0-52.309-8.277c-.765 0-10.07 0-15.87.426h-.259c-2.472.172-4.18.426-4.18.77v-1.024c.255-4.695 1.88-24.238 15.36-30.89a23.534 23.534 0 0 1 10.242-2.22 152.772 152.772 0 0 1 34.22 7.25 206.853 206.853 0 0 0 28.925 5.122 116.839 116.839 0 0 0 30.379-.512 86.903 86.903 0 0 0 46.594-22.442c4.777-4.695 9.554-9.386 14.503-13.738 2.817-2.562 5.72-5.035 8.707-7.34a78.79 78.79 0 0 0 42.579 10.582h.257c11.348.34 23.723 0 36.778-.171 4.265 0 8.62-.086 13.058-.086 7.594 0 15.016.086 22.184.171a212.08 212.08 0 0 0 54.957-3.585 48.588 48.588 0 0 0 16.21-7.336c26.54 18.687 43.18 45.226 43.18 74.75zm0 0" fill="#ff9801"/><path d="M401.082 358.434c0 53.25-54.016 96.941-123.219 101.89a159.264 159.264 0 0 1-102.828-46.168c-5.12-5.035-10.152-10.238-15.617-14.676a236.9 236.9 0 0 0-65.875-38.316c-4.098-1.535-8.191-2.898-12.375-4.18a194.032 194.032 0 0 0-52.309-8.277c-.765 0-10.07 0-15.87.426h-.259c-1.363-.172-2.816-.172-4.18-.254.255-4.695 1.88-24.238 15.36-30.89 6.402 1.534 12.715 3.581 18.86 5.03a157.06 157.06 0 0 0 54.527 5.122 116.839 116.839 0 0 0 30.379-.512 86.903 86.903 0 0 0 46.594-22.442c4.777-4.695 9.554-9.386 14.503-13.738a206.557 206.557 0 0 0 51.286 3.242h.257c7.766-.086 15.871-.257 24.235-.257 4.265 0 8.449 0 12.543.086 12.543.171 24.406.425 35.242.085 18.687-.511 34.562-2.902 45.57-10.921a114.958 114.958 0 0 1 9.387 7.336 89.193 89.193 0 0 1 33.789 67.414zm0 0" fill="#fec108"/><path d="M503.484 341.367c0 42.418-34.386 76.801-76.8 76.801a68.138 68.138 0 0 1-12.63-1.11 64.185 64.185 0 0 1-9.898-2.304l18.348-30.977c1.387.176 2.781.258 4.18.258 23.562 0 42.668-19.101 42.668-42.668 0-23.562-19.106-42.668-42.668-42.668a45.665 45.665 0 0 0-12.801 1.88 50.729 50.729 0 0 0-7.934 3.5l-6.144-5.38-20.395-17.746a74.758 74.758 0 0 1 34.559-15.277 69.06 69.06 0 0 1 12.715-1.11c42.414 0 76.8 34.387 76.8 76.801zm0 0" fill="#d84315"/><g fill="#ff5722"><path d="M349.203 503.5H242.45a8.53 8.53 0 0 1-5.972-14.59l28.074-36.61h68.265l23.04 37.376a8.53 8.53 0 0 1-6.653 13.824zM383.504 283.684c-19.625 14.164-54.102 23.55-93.352 23.55-4.27 0-8.535-.086-12.715-.34-33.453-1.792-62.464-10.41-79.957-22.785a113.401 113.401 0 0 1 26.622-15.703 168.148 168.148 0 0 1 53.25-11.86c4.265-.339 8.53-.51 12.8-.51a163.201 163.201 0 0 1 93.352 27.648zm0 0"/><path d="M477.883 341.367c0 37.41-26.957 69.375-63.828 75.692a64.185 64.185 0 0 1-9.899-2.305l18.348-30.977c1.387.176 2.781.258 4.18.258 23.562 0 42.668-19.101 42.668-42.668 0-23.562-19.106-42.668-42.668-42.668a45.665 45.665 0 0 0-12.801 1.88 45.665 45.665 0 0 0-12.801-1.88h-1.277l-20.395-17.746a74.758 74.758 0 0 1 34.559-15.277c36.894 6.3 63.883 38.265 63.914 75.691zm0 0"/></g><path d="M323.602 503.5h-81.153a8.53 8.53 0 0 1-5.972-14.59l28.074-36.61h42.668l23.039 37.376a8.533 8.533 0 0 1-6.656 13.824zM357.906 283.684c-17.496 12.629-46.68 21.418-80.469 23.21-33.453-1.792-62.464-10.41-79.957-22.785a113.401 113.401 0 0 1 26.622-15.703 168.148 168.148 0 0 1 53.25-11.86 158.766 158.766 0 0 1 80.554 27.138zm0 0" fill="#f57c00"/><path d="M315.75 230.434c0 14.14-11.46 25.601-25.598 25.601-14.14 0-25.601-11.46-25.601-25.601 0-14.137 11.46-25.598 25.601-25.598 14.137 0 25.598 11.46 25.598 25.598zm0 0" fill="#f0c419"/><path d="M493.758 53.195c-50.18 90.371-127.574 119.47-226.988 116.91a778.407 778.407 0 0 1-130.22-16.472 68.059 68.059 0 0 0-25.855-.426h-.086c-54.613 9.898-77.484 89.688-86.953 129.367a4.267 4.267 0 0 1-8.449-.941c-.086-14.504.426-34.133 2.133-55.211 4.61-54.867 17.578-119.977 50.945-132.52a102.69 102.69 0 0 1 30.293-6.058 449.18 449.18 0 0 1 51.625 1.707h.172c39.594 2.047 73.813-2.051 86.441-67.84A17.23 17.23 0 0 1 252.52 7.715l30.293-1.793c5.546-.34 11.093-.598 16.64-.766 1.363-.086 2.817-.086 4.18-.086h1.707c3.156-.172 6.398-.258 9.558-.172a573.84 573.84 0 0 1 102.57 8.45c5.634 1.023 11.262 2.047 16.81 3.156 12.46 2.558 24.745 5.547 37.035 8.875l11.863 3.242a17.058 17.058 0 0 1 11.23 9.73 17.06 17.06 0 0 1-.648 14.844zm0 0" fill="#4527a0"/><path d="M470.035 53.195c-46.082 83.032-115.203 114.348-203.265 116.91a694.635 694.635 0 0 1-153.942-16.472c-.683-.168-1.45-.254-2.133-.426h-.086c-47.957-8.191-76.457 32.172-93.27 73.215 4.61-54.867 17.579-119.977 50.946-132.52a102.69 102.69 0 0 1 30.293-6.058 449.18 449.18 0 0 0 51.625 1.707h.172c39.594 2.047 73.812-2.051 86.441-67.84A17.23 17.23 0 0 1 252.52 7.715l30.292-1.793c5.547-.34 11.094-.598 16.641-.766 1.363-.086 2.817-.086 4.18-.086h1.707c29.64.45 59.2 3.22 88.406 8.278 5.633 1.023 11.262 2.047 16.809 3.156 12.46 2.558 24.746 5.547 37.035 8.875l11.863 3.242a17.058 17.058 0 0 1 11.23 9.73 17.06 17.06 0 0 1-.648 14.844zm0 0" fill="#673ab7"/><path d="M426.684 256.035a84.939 84.939 0 0 0-47.864 14.797 167.735 167.735 0 0 0-60.507-21.187c9.734-14.215 7.351-33.458-5.56-44.868s-32.296-11.41-45.206 0-15.293 30.653-5.555 44.868a172.658 172.658 0 0 0-41.09 10.8 119.153 119.153 0 0 0-27.765 16.325c-.164.101-.301.23-.461.343a275.145 275.145 0 0 0-24.39 21.996c-.548.54-1.161 1.036-1.708 1.555a8.159 8.159 0 0 0-1.226 1.094 80.315 80.315 0 0 1-38.957 17.457 147.45 147.45 0 0 1-56.004-4.54c-2.97-.706-5.973-1.57-9.055-2.44a100.022 100.022 0 0 0-27.184-5c-27 0-34.136 27.913-34.136 42.667v.137a8.541 8.541 0 0 0 3.84 6.973 8.523 8.523 0 0 0 7.921.773c3.465-.39 13.961-.656 16.989-.562a182.408 182.408 0 0 1 49.937 7.945c3.98 1.21 7.945 2.547 11.887 4a225.555 225.555 0 0 1 63.437 36.906 178.64 178.64 0 0 1 13.286 12.453l1.707 1.707a167.579 167.579 0 0 0 79.94 44.16l-18.542 18.508a17.069 17.069 0 0 0-3.7 18.598 17.073 17.073 0 0 0 15.766 10.535h106.664a17.07 17.07 0 0 0 15.383-9.672 17.072 17.072 0 0 0-2.05-18.054L344.09 461.32a147 147 0 0 0 62.719-37.18 84.22 84.22 0 0 0 19.875 2.56c47.129 0 85.332-38.204 85.332-85.333s-38.203-85.332-85.332-85.332zm-153.602-25.601c0-9.426 7.645-17.067 17.07-17.067 9.426 0 17.067 7.64 17.067 17.067 0 9.425-7.64 17.066-17.067 17.066-9.425 0-17.07-7.64-17.07-17.066zm-45.71 45.832a167.293 167.293 0 0 1 62.78-11.7 159.405 159.405 0 0 1 76.723 18.91 182.635 182.635 0 0 1-76.723 15.223 179.702 179.702 0 0 1-76.734-15.222 92.274 92.274 0 0 1 13.953-7.211zm-211.2 77.492a8.665 8.665 0 0 0 .91-3.813 8.394 8.394 0 0 1-.91 3.813zm163.215 52.719a194.307 194.307 0 0 0-14.59-13.653 242.688 242.688 0 0 0-68.27-39.672c-4.265-1.578-8.53-3.039-12.925-4.343a199.63 199.63 0 0 0-54.57-8.637c-4.266-.05-7.75 0-10.66.07 1.698-7.262 5.847-15.941 15.78-15.941a87.243 87.243 0 0 1 22.508 4.386c3.285.93 6.547 1.852 9.746 2.622a163.007 163.007 0 0 0 62.617 4.785 95.077 95.077 0 0 0 51.262-24.817c5.887-5.816 11.8-11.468 17.977-16.664a186.543 186.543 0 0 0 91.89 21.157c36.692 0 70.68-8.09 92.891-21.72a82.401 82.401 0 0 1 35.11 64.384c0 51.753-57.423 93.867-128 93.867-40.801.394-80.075-15.5-109.11-44.168zm239.883-98.391a34.133 34.133 0 0 1 40.824 44.062 34.124 34.124 0 0 1-26.645 22.653 85.054 85.054 0 0 0 1.77-16.367 90.033 90.033 0 0 0-15.95-50.348zm-93.118 158.082 23.04 28.8H242.526l26.922-26.921c6.867.84 13.781 1.281 20.703 1.32a187.146 187.146 0 0 0 35.84-3.558c.059.144.067.25.16.359zm100.532-56.535a67.753 67.753 0 0 1-7.602-.57 98.412 98.412 0 0 0 9.07-16.57c20.473-.52 38.668-13.188 46.258-32.212s3.113-40.742-11.383-55.21-36.218-18.907-55.226-11.286a125.068 125.068 0 0 0-13.543-12.465 66.941 66.941 0 0 1 32.426-8.218c37.703 0 68.265 30.562 68.265 68.265s-30.562 68.266-68.265 68.266zm0 0"/><path d="M240.078.11c-4.672-.618-8.96 2.663-9.586 7.331-10.441 78.336-44.816 76.016-92.37 72.782-23.997-1.614-48.837-3.305-72.84 5.683-55.094 20.668-58.798 155.067-58.626 195.77-.043 6.484 4.832 11.945 11.282 12.64.511.059 1.027.09 1.542.094a12.694 12.694 0 0 0 12.434-9.875c21.734-90.625 56.457-131.832 102.93-122.539 150.902 30.192 300.918 36.027 376.32-124.191a8.538 8.538 0 0 0-.715-8.508 8.526 8.526 0 0 0-7.722-3.633 8.527 8.527 0 0 0-7.008 4.867c-66.434 141.278-190.961 148.04-357.461 114.742C87.602 135.125 49.426 169.516 24.473 247.5c3.414-69.297 18.16-134.887 46.816-145.621 20.48-7.68 43.477-6.152 65.707-4.64 48.145 3.269 97.883 6.62 110.438-87.563.609-4.672-2.684-8.953-7.356-9.567zm0 0"/><path d="M260.734 86.266a8.533 8.533 0 0 0-3.82 11.449 8.535 8.535 0 0 0 11.45 3.824c56.058-28.031 47.386-93.516 47.3-94.184a8.533 8.533 0 0 0-9.629-7.14 8.532 8.532 0 0 0-7.265 9.539c.296 2.226 6.886 54.05-38.036 76.512zM315.895 129.563a8.531 8.531 0 0 0 9.917 6.824C424.978 118.398 435.099 10.359 435.22 9.277c.39-4.715-3.11-8.855-7.824-9.246a8.557 8.557 0 0 0-9.243 7.82c-.343 3.919-9.27 96.118-95.43 111.786-4.62.863-7.671 5.3-6.827 9.925zM375.484 25.633a8.534 8.534 0 1 1-17.067.002 8.534 8.534 0 0 1 17.067-.002zM247.484 136.566a8.534 8.534 0 1 1-17.067.003 8.534 8.534 0 0 1 17.067-.003zM102.418 119.5a8.534 8.534 0 1 1-17.068.003 8.534 8.534 0 0 1 17.068-.003zM273.082 42.7a8.533 8.533 0 1 1-17.066 0c0-4.712 3.82-8.532 8.535-8.532 4.71 0 8.531 3.82 8.531 8.531zM187.75 128.035c0 4.711-3.82 8.531-8.531 8.531a8.533 8.533 0 1 1 0-17.066c4.71 0 8.531 3.82 8.531 8.535zM341.352 418.168c0 4.71-3.82 8.531-8.536 8.531a8.532 8.532 0 0 1-8.53-8.531 8.533 8.533 0 1 1 17.066 0zM332.816 85.367a8.533 8.533 0 1 1-17.066 0c0-4.71 3.82-8.531 8.535-8.531 4.711 0 8.531 3.82 8.531 8.531zM477.883 34.168c0 4.71-3.82 8.531-8.531 8.531a8.533 8.533 0 1 1 0-17.066c4.71 0 8.53 3.82 8.53 8.535zM307.133 425.488a8.526 8.526 0 0 0-3.332-5.617 8.514 8.514 0 0 0-6.328-1.617c-54.7 7.781-103.211-39.774-103.7-40.262-3.347-3.23-8.671-3.18-11.96.113s-3.333 8.618-.094 11.961c2.031 2.04 46.828 46.141 103.254 46.141 4.996.004 9.992-.352 14.941-1.059 4.656-.675 7.887-5 7.219-9.66zm0 0"/></svg>