<svg xmlns="http://www.w3.org/2000/svg" viewBox="0 0 512.003 512.003" style="enable-background:new 0 0 512.003 512.003" xml:space="preserve"><path style="fill:gray" d="M391.841 97.755c-3.702 0-6.714 3.011-6.714 6.714s3.012 6.714 6.714 6.714a6.72 6.72 0 0 0 6.712-6.714 6.72 6.72 0 0 0-6.712-6.714z"/><path style="fill:#333" d="M351.646 99.662c-29.382 43.918-37.967 71.371-38.05 71.642a5.683 5.683 0 0 1-4.571 3.954c-.259.041-26.933 4.351-62.815 24.537-33.099 18.62-81.05 54.964-121.526 122.362a5.664 5.664 0 0 1-1.248 1.451c-29.605 24.478-72.618 60.776-96.041 81.967 24.324-11.738 62.864-32.408 83.705-45.105.071-.043.149-.073.221-.113.047-.026.085-.061.133-.085 1.047-.539 105.095-54.223 146.428-85.148a5.716 5.716 0 0 1 3.602-1.127c.2.012 20.527.545 41.748-9.595 28.011-13.384 44.46-38.348 48.89-74.197.385-3.109 3.212-5.332 6.325-4.934a5.67 5.67 0 0 1 4.934 6.325c-6.176 49.997-33.698 72.868-55.699 83.251-19.794 9.343-38.423 10.417-44.539 10.499-26.984 19.843-76.155 47.417-110.069 65.732 34.539-6.424 85.284-13.36 128.624-9.368l-2.297-7.124a5.673 5.673 0 0 1 10.798-3.48l11.317 35.093c2.182 6.806 9.486 10.563 16.277 8.387a12.859 12.859 0 0 0 7.559-6.402 12.853 12.853 0 0 0 .819-9.87l-8.594-26.829a5.673 5.673 0 0 1 10.804-3.462l2.075 6.479c31.108-7.138 52.508-31.418 63.633-72.283 8.977-32.978 7.521-64.775 7.504-65.092-.066-1.54-.994-29.603 16.448-51.331-2.613-8.623-7.614-32.264 5.817-57.185-11.975-6.515-49.44-22.995-72.212 11.051zm40.195 22.866c-9.958 0-18.059-8.102-18.059-18.059s8.102-18.059 18.059-18.059c9.956 0 18.057 8.102 18.057 18.059s-8.1 18.059-18.057 18.059z"/><path style="fill:gray" d="M324.426 384.098c-1.022.493-2.067.956-3.173 1.296-4.693 1.439-8.348 1.131-8.824 1.103l7.496 24.354c.204.659.285 1.349.239 2.039-.328 5.022-4.387 12.495-14.224 12.495-8.185 0-10.378 1.637-12.069 7.711h86.236c-.622-2.12-1.696-4.484-3.553-6.37-2.586-2.626-6.242-3.904-11.177-3.904-10.11 0-28.383-.609-34.296-17.155-.065-.185-6.655-21.569-6.655-21.569zM435.215 91.514a63.231 63.231 0 0 0-6.39 14.658c9.465-.843 37.814-3.212 63.519-3.805-9.007-5.688-26.162-12.082-57.129-10.853z"/><path style="fill:#333" d="M426.604 117.765a66.895 66.895 0 0 0 .827 18.62c8.665-7.442 32.856-17.824 42.535-21.775-23.03 1.231-43.033 3.126-43.336 3.154l-.026.001z"/><path d="M391.841 86.41c-9.958 0-18.059 8.102-18.059 18.059s8.102 18.059 18.059 18.059c9.956 0 18.057-8.102 18.057-18.059 0-9.959-8.1-18.059-18.057-18.059zm0 24.773c-3.702 0-6.714-3.011-6.714-6.714s3.012-6.714 6.714-6.714a6.72 6.72 0 0 1 6.712 6.714c0 3.702-3.011 6.714-6.712 6.714z"/><path d="M432.153 80.292c-4.258-2.513-16.246-8.972-30.974-11.594-24.826-4.417-45.218 4.108-58.964 24.654-24.842 37.131-35.191 62.594-38.351 71.341-8.594 1.811-32.322 7.918-62.683 24.912-34.313 19.207-83.917 56.618-125.725 125.878-4.712 3.904-30.893 25.623-56.681 47.647C-.876 414.075-.502 416.551.119 420.651a5.9 5.9 0 0 0 3.617 4.611c.643.264 1.306.539 2.457.539 3.956-.001 13.679-3.224 48.18-21.061 22.431-11.598 47.694-25.532 61.893-34.133 9.526-2.382 101.781-24.775 169.23-17.115l5.219 16.181c1.559 4.864 4.526 8.883 8.294 11.788l9.663 31.387c-.3.636-1.044 1.19-2.731 1.19-19.795 0-24.724 23.566-24.724 23.566a5.673 5.673 0 0 0 5.552 6.836h99.864a5.672 5.672 0 0 0 5.67-5.513c.014-.488.245-12.029-7.564-20.06-4.77-4.904-11.283-7.392-19.36-7.392-10.958 0-19.678-.741-23.741-9.983l-7.818-25.449a24.397 24.397 0 0 0 1.619-2.663c2.97-5.769 3.516-12.348 1.536-18.525l-3.053-9.531c34.623-8.368 59.17-35.998 71.186-80.386 9.39-34.692 7.885-67.02 7.82-68.326-.017-.404-1.216-40.489 30.109-56.989 33.981-17.9 64.454-26.149 64.757-26.23a5.672 5.672 0 0 0 3.611-8.017c-.587-1.168-14.969-28.395-79.252-25.084zm-66.776 342.527c4.935 0 8.59 1.277 11.177 3.904 1.857 1.887 2.932 4.25 3.553 6.37h-86.236c1.689-6.074 3.883-7.711 12.069-7.711 9.837 0 13.897-7.473 14.224-12.495a5.649 5.649 0 0 0-.239-2.039l-7.496-24.354c.477.028 4.132.337 8.824-1.103 1.106-.339 2.151-.802 3.173-1.296 0 0 6.59 21.384 6.655 21.567 5.914 16.548 24.187 17.157 34.296 17.157zm52.664-277.02c-17.442 21.728-16.514 49.792-16.448 51.331.017.318 1.474 32.115-7.504 65.092-11.125 40.864-32.525 65.145-63.633 72.283l-2.075-6.479a5.67 5.67 0 0 0-7.133-3.671 5.671 5.671 0 0 0-3.671 7.133l8.594 26.829a12.848 12.848 0 0 1-.819 9.87 12.864 12.864 0 0 1-7.559 6.402c-6.79 2.176-14.095-1.58-16.277-8.387l-11.317-35.093a5.672 5.672 0 1 0-10.798 3.48l2.297 7.124c-43.339-3.993-94.085 2.944-128.624 9.368 33.914-18.317 83.083-45.89 110.069-65.732 6.115-.082 24.745-1.156 44.539-10.499 22-10.382 49.521-33.254 55.699-83.251a5.67 5.67 0 0 0-4.934-6.325c-3.113-.399-5.94 1.824-6.325 4.934-4.429 35.85-20.878 60.813-48.89 74.197-21.221 10.139-41.548 9.607-41.748 9.595a5.724 5.724 0 0 0-3.602 1.127c-41.334 30.926-145.382 84.609-146.428 85.148-.048.024-.086.059-.133.085-.073.04-.151.069-.221.113-20.841 12.696-59.381 33.367-83.705 45.105 23.423-21.191 66.436-57.489 96.041-81.967.496-.41.918-.901 1.248-1.451 40.476-67.399 88.427-103.743 121.526-122.362 35.882-20.186 62.558-24.496 62.815-24.537a5.682 5.682 0 0 0 4.571-3.954c.083-.271 8.669-27.725 38.05-71.642 22.772-34.047 60.238-17.566 72.211-11.048-13.429 24.917-8.429 48.559-5.816 57.182zm9.391-9.413a66.89 66.89 0 0 1-.827-18.62l.026-.001c.304-.028 20.305-1.923 43.336-3.154-9.679 3.95-33.87 14.332-42.535 21.775zm1.394-30.214a63.189 63.189 0 0 1 6.39-14.658c30.966-1.229 48.121 5.165 57.129 10.853-25.705.593-54.054 2.962-63.519 3.805z"/></svg>