<svg xmlns="http://www.w3.org/2000/svg" viewBox="0 0 512 512" style="enable-background:new 0 0 512 512" xml:space="preserve"><path style="fill:#81992b" d="M324.55 334.258v35.003c0 .669-.01 1.327-.03 1.986-1.054 35.175-29.897 63.36-65.316 63.36V481.2h8.713c12.816 0 23.2 10.384 23.2 23.2H247.31c-13.576 0-24.578-11.002-24.578-24.578V290.876l101.818 43.382z"/><path style="fill:#6f8421" d="M324.55 334.258v35.003c0 .669-.01 1.327-.03 1.986-17.172 8.763-36.624 13.707-57.221 13.707h-31.437l-13.13.365v-94.443l101.818 43.382z"/><path style="fill:#94ad38" d="M504.216 74.454h-83.582l24.426 25.986h58.082l-14.852 33.099h-93.967l-1.013 89.833c-.77 69.044-56.968 124.613-126.012 124.613h-31.437l-25.784.719-76.136 2.117C120.802 420.15 73.266 478.029 7.789 504.401l12.026-17.983a175.313 175.313 0 0 0 29.563-97.401c0-67.555 27.385-128.727 71.658-173s105.445-71.658 173-71.658l20.445-86.358c7.001-29.542 33.382-50.403 63.745-50.403 3.475 0 6.94.274 10.364.821a65.94 65.94 0 0 1 10.111 2.452L504.216 45.58v28.874z"/><path style="fill:#b1c167" d="M415.123 133.539h-20.799l-1.013 89.833c-.77 69.044-56.968 124.613-126.012 124.613h-31.437l-25.784.719-25.936-37.192s51.709 16.352 127.643-25.834c75.275-41.821 38.894-205.45 38.265-208.277l15.551 50.818 49.522 5.32z"/><path style="fill:#81992b" d="M235.855 327.867v41.395c0 36.088-29.255 65.343-65.343 65.343v46.598h8.712c12.813 0 23.199 10.387 23.199 23.199h-43.805c-13.574 0-24.577-11.003-24.577-24.577v-56.998c0-8.849 4.166-17.18 11.245-22.49l25.226-18.919-17.171-10.85c-36.345-22.966-37.477-75.57-2.155-100.08l22.818-1.229c33.608-1.811 61.851 24.951 61.851 58.608z"/><path d="M415.098 46.413a7.602 7.602 0 0 0 9.022-5.838 7.6 7.6 0 0 0-5.839-9.022l-9.455-2.026c-4.091-.877-8.142 1.733-9.022 5.838a7.6 7.6 0 0 0 5.839 9.022l9.455 2.026zM341.475 314.279a119.416 119.416 0 0 1-20.019 13.043 7.57 7.57 0 0 0-.868.461c-16.369 8.292-34.436 12.604-53.291 12.604h-23.844v-30.39a7.598 7.598 0 1 0-15.196 0v59.264c0 31.84-25.903 57.745-57.745 57.745a7.598 7.598 0 0 0-7.598 7.598v46.598a7.598 7.598 0 0 0 7.598 7.598h8.713c5.846 0 10.951 3.232 13.621 8.003h-34.227c-9.362 0-16.979-7.617-16.979-16.979v-56.998a20.611 20.611 0 0 1 8.206-16.411l25.225-18.919a7.599 7.599 0 0 0-.5-12.503l-17.171-10.85c-14.908-9.42-24.035-25.571-24.415-43.201s8.043-34.159 22.532-44.212a7.6 7.6 0 1 0-8.663-12.486c-18.687 12.967-29.552 34.285-29.062 57.025a67.58 67.58 0 0 0 8.139 30.77c-6.475 31.792-20.711 61.775-41.313 86.858-15.394 18.742-34.159 34.542-55.15 46.561 18.013-28.999 27.504-62.21 27.504-96.442 0-7.866.39-15.806 1.16-23.6a7.598 7.598 0 0 0-6.816-8.308c-4.174-.417-7.896 2.639-8.308 6.815a256.186 256.186 0 0 0-1.233 25.093c0 33.273-9.78 65.494-28.28 93.177L1.469 500.177a7.598 7.598 0 0 0 9.154 11.272c33.303-13.414 62.951-35.165 85.736-62.906 19.386-23.601 33.528-51.236 41.441-80.674a67.93 67.93 0 0 0 11.479 9.121l7.854 4.962-16.406 12.305c-8.945 6.709-14.285 17.388-14.285 28.569v56.998c0 17.742 14.434 32.176 32.176 32.176h43.804a7.598 7.598 0 0 0 7.598-7.598c0-16.982-13.816-30.798-30.797-30.798h-1.114v-31.795c13.854-1.441 26.565-6.78 37.022-14.891v52.904c0 17.742 14.435 32.177 32.178 32.177h43.806a7.598 7.598 0 0 0 7.598-7.598c0-16.982-13.816-30.799-30.798-30.799H266.8v-31.79c36.664-3.812 65.346-34.896 65.346-72.551v-30.479a132.453 132.453 0 0 0 18.852-12.663 7.598 7.598 0 0 0-9.523-11.84zm-24.524 54.982c0 31.842-25.905 57.748-57.748 57.748a7.598 7.598 0 0 0-7.598 7.598V481.2a7.598 7.598 0 0 0 7.598 7.598h8.714c5.847 0 10.952 3.232 13.622 8.004H247.31c-9.363 0-16.981-7.618-16.981-16.98v-68.88c8.264-11.824 13.124-26.193 13.124-41.682v-13.677h23.844c17.076 0 33.953-3.311 49.654-9.588v23.266z"/><path d="M511.813 74.454V45.58a7.599 7.599 0 0 0-5.224-7.218L401.061 3.649A73.62 73.62 0 0 0 389.786.916 73.477 73.477 0 0 0 378.223 0c-34.038 0-63.291 23.13-71.139 56.25l-19.077 80.58c-65.127 1.516-126.125 27.591-172.346 73.814-35.088 35.087-58.864 79.191-68.758 127.544a7.598 7.598 0 0 0 7.453 9.123 7.6 7.6 0 0 0 7.436-6.077c9.296-45.427 31.64-86.869 64.617-119.846a242.764 242.764 0 0 1 8.008-7.64l7.351 6.033a7.564 7.564 0 0 0 4.816 1.725 7.598 7.598 0 0 0 4.824-13.471l-5.256-4.314a236.99 236.99 0 0 1 22.363-15.896l4.663 7.723a7.593 7.593 0 0 0 10.432 2.577 7.597 7.597 0 0 0 2.576-10.432l-4.54-7.518a234.08 234.08 0 0 1 23.023-10.853l3.621 10.577a7.602 7.602 0 0 0 9.651 4.729 7.598 7.598 0 0 0 4.727-9.65l-3.741-10.926a234.996 234.996 0 0 1 28.566-7.552l5.426 16.118a7.603 7.603 0 0 0 7.2 5.176 7.6 7.6 0 0 0 7.203-10.025l-4.63-13.753a240.48 240.48 0 0 1 27.705-2.012l16.956 21.39a7.582 7.582 0 0 0 5.959 2.878 7.597 7.597 0 0 0 5.949-12.318l-16.984-21.425 19.596-82.773c6.216-26.237 29.389-44.559 56.351-44.559 3.069 0 6.153.244 9.166.725a58.408 58.408 0 0 1 8.935 2.167L496.616 51.08v15.775h-75.984l-.036.003h-26.194c-4.197 0-7.598 3.402-7.598 7.598s3.401 7.598 7.598 7.598h22.948l22.173 23.589a7.601 7.601 0 0 0 5.537 2.394h46.344l-8.034 17.902H373.078l-.932-1.577c-15.363-26.082-18.892-57.593-9.682-86.452a7.599 7.599 0 1 0-14.477-4.62c-10.525 32.976-6.491 68.981 11.069 98.793l3.142 5.319a7.6 7.6 0 0 0 6.543 3.734h17.897l-.927 82.151c-.298 26.746-9.282 51.889-25.982 72.709a7.598 7.598 0 0 0 11.854 9.508c17.274-21.535 27.206-47.169 29.01-74.53h17.564v9.117a7.598 7.598 0 1 0 15.196 0v-16.715a7.598 7.598 0 0 0-7.598-7.598h-24.762l.842-74.641h86.453a7.6 7.6 0 0 0 6.933-4.487l14.852-33.099a7.6 7.6 0 0 0-6.933-10.709h-54.796l-10.142-10.79h66.012a7.599 7.599 0 0 0 7.599-7.598z"/><path d="M363.931 247.691a7.598 7.598 0 0 0 7.598-7.598v-16.715a7.598 7.598 0 0 0-7.598-7.598h-16.57l15.015-19.708a7.598 7.598 0 0 0-1.44-10.649 7.598 7.598 0 0 0-10.649 1.439l-24.314 31.911a7.599 7.599 0 0 0 6.044 12.203h24.314v9.117a7.6 7.6 0 0 0 7.6 7.598z"/></svg>