<svg height="512pt" viewBox="-17 0 512 512.006" width="512pt" xmlns="http://www.w3.org/2000/svg"><path d="M358.23 53.68s18.094-27.39 28.93-29.184c.496-.07 1 .086 1.367.426 9.301 8.703 12.118 28.332 5.973 48.898a81.152 81.152 0 0 1-6.402 15.188L353.43 98.14zm0 0" fill="#ffb301"/><path d="M354.137 80.477a8.019 8.019 0 0 0 1.875-3.586 71.973 71.973 0 0 0 2.218-23.211v-.086c.016-.54-.011-1.082-.082-1.621-1.707-21.332-11.523-38.657-23.382-43.348a1.543 1.543 0 0 0-1.368.168c-11.007 6.488-17.918 25.176-16.125 46.508a70.225 70.225 0 0 0 5.715 23.469zm0 0" fill="#fec108"/><path d="M418.137 238.938v25.601c-.024 12.156-8.594 22.617-20.504 25.04-11.914 2.417-23.883-3.872-28.649-15.056a2.196 2.196 0 0 0-2.046-1.41 2.2 2.2 0 0 0-2.051 1.41 25.593 25.593 0 0 1-23.551 15.567 25.593 25.593 0 0 1-23.55-15.567 2.197 2.197 0 0 0-2.052-1.41c-.906 0-1.722.563-2.046 1.41-4.02 9.442-13.29 15.567-23.551 15.567s-19.532-6.125-23.551-15.567a2.2 2.2 0 0 0-2.05-1.41c-.907 0-1.723.563-2.048 1.41a25.601 25.601 0 0 1-47.105 0 2.192 2.192 0 0 0-4.094 0 25.602 25.602 0 0 1-47.105 0 2.192 2.192 0 0 0-4.094 0 25.602 25.602 0 0 1-47.106 0 2.196 2.196 0 0 0-2.046-1.41 2.2 2.2 0 0 0-2.051 1.41c-4.762 11.184-16.735 17.473-28.649 15.055-11.91-2.422-20.48-12.883-20.504-25.039v-1.11a24.65 24.65 0 0 1 25.602-24.492h230.398a25.473 25.473 0 0 0 23.555-15.613 2.186 2.186 0 0 1 2.047-1.41c.91 0 1.723.559 2.047 1.41a25.609 25.609 0 0 0 23.555 15.567 25.607 25.607 0 0 0 23.55-15.567 2.195 2.195 0 0 1 4.098 0 25.464 25.464 0 0 0 23.55 15.613zm0 0" fill="#e91e63"/><path d="M418.137 264.54v51.198c-.024 12.157-8.594 22.621-20.504 25.04-11.914 2.417-23.883-3.872-28.649-15.055a2.196 2.196 0 0 0-2.046-1.41 2.2 2.2 0 0 0-2.051 1.41 25.593 25.593 0 0 1-23.551 15.566 25.593 25.593 0 0 1-23.55-15.566 2.197 2.197 0 0 0-2.052-1.41c-.906 0-1.722.562-2.046 1.41-4.02 9.441-13.29 15.566-23.551 15.566s-19.532-6.125-23.551-15.566a2.2 2.2 0 0 0-2.05-1.41c-.907 0-1.723.562-2.048 1.41a25.601 25.601 0 0 1-47.105 0 2.192 2.192 0 0 0-4.094 0 25.602 25.602 0 0 1-47.105 0 2.192 2.192 0 0 0-4.094 0 25.602 25.602 0 0 1-47.106 0 2.196 2.196 0 0 0-2.046-1.41 2.2 2.2 0 0 0-2.051 1.41c-4.762 11.183-16.735 17.472-28.649 15.054-11.91-2.418-20.48-12.882-20.504-25.039V264.54c.024 12.156 8.594 22.617 20.504 25.04 11.914 2.417 23.887-3.872 28.649-15.056a2.2 2.2 0 0 1 2.05-1.41c.907 0 1.723.563 2.047 1.41a25.602 25.602 0 0 0 47.105 0 2.192 2.192 0 0 1 4.095 0 25.601 25.601 0 0 0 47.105 0 2.192 2.192 0 0 1 4.094 0 25.602 25.602 0 0 0 47.105 0 2.196 2.196 0 0 1 2.047-1.41 2.2 2.2 0 0 1 2.05 1.41c4.02 9.442 13.29 15.567 23.552 15.567s19.531-6.125 23.55-15.567a2.196 2.196 0 0 1 2.047-1.41c.91 0 1.727.563 2.051 1.41a25.593 25.593 0 0 0 23.55 15.567 25.593 25.593 0 0 0 23.552-15.567 2.2 2.2 0 0 1 2.05-1.41c.907 0 1.723.563 2.047 1.41 4.766 11.184 16.735 17.473 28.649 15.055 11.91-2.422 20.48-12.883 20.504-25.039zm0 0" fill="#02a9f4"/><path d="M418.137 315.738v51.2a25.604 25.604 0 0 1-15.133 23.398 25.606 25.606 0 0 1-27.535-4.281 24.832 24.832 0 0 1-6.485-9.133 2.197 2.197 0 0 0-4.098 0 25.593 25.593 0 0 1-23.55 15.566 25.593 25.593 0 0 1-23.55-15.566 2.193 2.193 0 0 0-2.052-1.406c-.906 0-1.722.558-2.046 1.406a24.832 24.832 0 0 1-6.485 9.133 25.664 25.664 0 0 1-17.066 6.484 25.383 25.383 0 0 1-23.551-15.617 2.197 2.197 0 0 0-4.098 0 25.601 25.601 0 0 1-47.105 0 2.188 2.188 0 0 0-2.047-1.406c-.91 0-1.723.558-2.047 1.406a25.602 25.602 0 0 1-40.621 9.133 24.832 24.832 0 0 1-6.484-9.133 2.192 2.192 0 0 0-4.094 0 25.602 25.602 0 0 1-47.106 0 2.197 2.197 0 0 0-4.098 0 24.832 24.832 0 0 1-6.484 9.133 25.598 25.598 0 0 1-27.53 4.28 25.607 25.607 0 0 1-15.138-23.397v-51.2c.024 12.157 8.594 22.621 20.504 25.04 11.914 2.417 23.887-3.872 28.649-15.055a2.2 2.2 0 0 1 2.05-1.41c.907 0 1.723.562 2.047 1.41a25.602 25.602 0 0 0 47.105 0 2.192 2.192 0 0 1 4.095 0 25.601 25.601 0 0 0 47.105 0 2.192 2.192 0 0 1 4.094 0 25.602 25.602 0 0 0 47.105 0 2.196 2.196 0 0 1 2.047-1.41 2.2 2.2 0 0 1 2.05 1.41c4.02 9.441 13.29 15.566 23.552 15.566s19.531-6.125 23.55-15.566a2.196 2.196 0 0 1 2.047-1.41c.91 0 1.727.562 2.051 1.41a25.593 25.593 0 0 0 23.55 15.566 25.593 25.593 0 0 0 23.552-15.566 2.2 2.2 0 0 1 2.05-1.41c.907 0 1.723.562 2.047 1.41 4.766 11.183 16.735 17.472 28.649 15.054 11.91-2.418 20.48-12.882 20.504-25.039zm0 0" fill="#e91e63"/><path d="M349.871 391.09v27.05c0 9.426-7.644 17.067-17.066 17.067a14.495 14.495 0 0 1-4.27-.598c-1.383.41-2.82.614-4.265.598-9.426 0-17.067-7.64-17.067-17.066v-32.086a24.832 24.832 0 0 0 6.485-9.133 2.192 2.192 0 0 1 2.046-1.406c.91 0 1.727.558 2.051 1.406a24.44 24.44 0 0 0 10.75 12.117 24.235 24.235 0 0 0 12.8 3.5 25.71 25.71 0 0 0 8.536-1.45zm0 0" fill="#02a9f4"/><path d="M375.469 386.055v32.086c-.028 9.414-7.653 17.035-17.067 17.066a16.93 16.93 0 0 1-12.8-5.805 16.905 16.905 0 0 0 4.27-11.261V391.09a25.382 25.382 0 0 0 15.015-14.168 2.197 2.197 0 0 1 4.097 0 24.832 24.832 0 0 0 6.485 9.133zm0 0" fill="#0377bc"/><path d="M375.469 418.14v51.2h-68.266v-51.2c0 9.426 7.64 17.067 17.067 17.067a14.451 14.451 0 0 0 4.265-.598 17.06 17.06 0 0 0 10.922-8.62 2.06 2.06 0 0 1 3.758 0 18.984 18.984 0 0 0 2.387 3.413 17.067 17.067 0 0 0 29.867-11.261zm0 0" fill="#ad1457"/><path d="M375.469 469.34v17.066c-.028 9.414-7.653 17.04-17.067 17.067H324.27c-9.415-.028-17.04-7.653-17.067-17.067V469.34zM170.668 469.34v17.066c-.027 9.414-7.652 17.04-17.066 17.067h-34.133c-9.414-.028-17.04-7.653-17.067-17.067V469.34zm0 0" fill="#ffb301"/><path d="M349.871 469.34v17.066c-.031 9.414-7.656 17.04-17.066 17.067h-8.535c-9.415-.028-17.04-7.653-17.067-17.067V469.34zM145.07 469.34v17.066c-.027 9.414-7.652 17.04-17.066 17.067h-8.535c-9.414-.028-17.04-7.653-17.067-17.067V469.34zm0 0" fill="#fec108"/><path d="M170.668 418.14v51.2h-68.266v-51.2c0 9.426 7.641 17.067 17.067 17.067a14.451 14.451 0 0 0 4.265-.598 17.066 17.066 0 0 0 10.926-8.62 2.054 2.054 0 0 1 1.875-1.216 2.06 2.06 0 0 1 1.88 1.215 18.808 18.808 0 0 0 2.39 3.414 17.061 17.061 0 0 0 18.82 4.68 17.063 17.063 0 0 0 11.043-15.941zm0 0" fill="#ad1457"/><path d="M349.871 418.14v51.2h-42.668v-36.438a17.035 17.035 0 0 0 4.266-3.5 18.808 18.808 0 0 0 2.39-3.414 2.058 2.058 0 0 1 3.754 0 17.06 17.06 0 0 0 10.922 8.621c1.387.41 2.824.614 4.27.598 9.422 0 17.066-7.64 17.066-17.066zM145.07 418.14v51.2h-42.668v-36.438a17.035 17.035 0 0 0 4.266-3.5 18.808 18.808 0 0 0 2.39-3.414 2.058 2.058 0 0 1 3.754 0 17.069 17.069 0 0 0 10.922 8.621c1.387.41 2.825.614 4.27.598 9.426 0 17.066-7.64 17.066-17.066zm0 0" fill="#e91e63"/><path d="M145.07 391.09v27.05c0 9.426-7.64 17.067-17.066 17.067a14.495 14.495 0 0 1-4.27-.598c-1.382.41-2.82.614-4.265.598-9.426 0-17.067-7.64-17.067-17.066v-32.086a24.832 24.832 0 0 0 6.485-9.133 2.197 2.197 0 0 1 4.097 0 24.457 24.457 0 0 0 10.75 12.117 24.235 24.235 0 0 0 12.801 3.5 25.71 25.71 0 0 0 8.535-1.45zm0 0" fill="#02a9f4"/><path d="M170.668 386.055v32.086c-.027 9.414-7.652 17.035-17.066 17.066a16.916 16.916 0 0 1-12.797-5.805 16.921 16.921 0 0 0 4.265-11.261V391.09a25.4 25.4 0 0 0 15.02-14.168 2.192 2.192 0 0 1 4.094 0 24.832 24.832 0 0 0 6.484 9.133zm0 0" fill="#0377bc"/><path d="M418.137 109.828v85.336a25.473 25.473 0 0 1-23.551-15.617 2.217 2.217 0 0 0-4.098 0 25.695 25.695 0 0 1-11.691 12.715 25.704 25.704 0 0 1-23.723 0 25.712 25.712 0 0 1-11.691-12.715 2.192 2.192 0 0 0-4.094 0 25.712 25.712 0 0 1-11.691 12.715 25.2 25.2 0 0 1-11.864 2.902V92.762a17.183 17.183 0 0 1 21.25-16.555l68.266 17.066a17.004 17.004 0 0 1 12.887 16.555zm0 0" fill="#ad1457"/><path d="M392.535 110.938v85.335a25.416 25.416 0 0 1-13.738-4.011c-4.352-2.73-7.766 8.789-9.813 4.011a2.195 2.195 0 0 0-4.098 0c-2.046 4.778-5.46-6.742-9.812-4.011a25.608 25.608 0 0 1-21.332 2.836 25.608 25.608 0 0 1-15.957-14.442 2.262 2.262 0 0 0-2.05-1.449V92.762a16.846 16.846 0 0 1 5.976-12.883l57.941 14.504a17 17 0 0 1 12.883 16.555zm0 0" fill="#e91e63"/><path d="M418.137 195.164v43.774a25.464 25.464 0 0 1-23.551-15.614 2.195 2.195 0 0 0-4.098 0 25.607 25.607 0 0 1-23.55 15.567 25.609 25.609 0 0 1-23.555-15.567 2.186 2.186 0 0 0-2.047-1.41c-.91 0-1.723.559-2.047 1.41a25.473 25.473 0 0 1-23.555 15.613v-43.773a25.483 25.483 0 0 0 23.555-15.617 2.192 2.192 0 0 1 4.094 0 25.602 25.602 0 0 0 47.105 0 2.196 2.196 0 0 1 2.047-1.41 2.2 2.2 0 0 1 2.05 1.41 25.473 25.473 0 0 0 23.552 15.617zm0 0" fill="#02a9f4"/><path d="M469.336 158.383v13.824a17.12 17.12 0 0 1-14.25 16.813l-36.95 6.144V135.43l36.95 6.144c8.203 1.395 14.219 8.488 14.25 16.809zm0 0" fill="#ffb301"/><path d="M443.734 158.383v13.824a17.116 17.116 0 0 1-14.25 16.813l-11.347 1.875v-51.2l11.347 1.88a17.115 17.115 0 0 1 14.25 16.808zM42.668 435.207H25.602c-9.426 0-17.067-7.64-17.067-17.066V307.207c0-28.277 22.926-51.203 51.2-51.203V418.14c0 9.425-7.641 17.066-17.067 17.066zm0 0" fill="#fec108"/><path d="M392.535 230.406h25.602v59.735h-25.602zm0 0" fill="#ad1457"/><path d="M418.137 230.406h-25.602v-59.734l25.602 25.601zM418.137 332.805l-25.602 8.535v-59.735l25.602 8.536zm0 0" fill="#0377bc"/><path d="m418.137 375.473-25.602 17.066v-59.734h25.602zm0 0" fill="#ad1457"/><path d="m456.477 133.168-29.809-4.965v-18.355c.004-11.75-7.988-21.993-19.387-24.84l-7.14-1.785c.851-2.262 1.773-4.532 2.558-6.965 6.903-23.27 3.586-46.387-8.832-57.985a10.133 10.133 0 0 0-8.097-2.199 41.204 41.204 0 0 0-23.415 14.762A47.95 47.95 0 0 0 337.402.508a10.064 10.064 0 0 0-8.336.93c-14.183 8.355-22.332 30.296-20.3 54.53a83.263 83.263 0 0 0 4.195 20.634 25.46 25.46 0 0 0-5.758 16.21v49.274l-93.867-28.91V8.539a8.533 8.533 0 1 0-17.066 0v107.398L81.437 230.774a33.484 33.484 0 0 0-26.062 16.922C24.184 249.977.035 275.93.004 307.207v110.934c0 14.136 11.46 25.597 25.598 25.597h17.066c14.14 0 25.602-11.46 25.602-25.597v-21.813a33.79 33.79 0 0 0 17.066 4.742c2.883-.03 5.75-.43 8.535-1.183v86.52c0 14.136 11.461 25.597 25.598 25.597h34.133c14.14 0 25.601-11.461 25.601-25.598v-86.52a33.521 33.521 0 0 0 34.133-10.335 34.196 34.196 0 0 0 51.2 0 33.521 33.521 0 0 0 34.132 10.336v86.52c0 14.136 11.465 25.597 25.602 25.597h34.132c14.141 0 25.602-11.461 25.602-25.598v-86.52a33.787 33.787 0 0 0 29.527-5.859 33.784 33.784 0 0 0 13.137-27.09V202.399l29.809-4.972c12.363-2.024 21.43-12.723 21.394-25.25v-13.75c.031-12.528-9.031-23.227-21.394-25.258zm-46.875 182.57a17.062 17.062 0 0 1-13.668 16.762 17.067 17.067 0 0 1-19.125-10.098 10.678 10.678 0 0 0-19.746 0 17.06 17.06 0 0 1-15.727 10.438 17.06 17.06 0 0 1-15.727-10.438 10.678 10.678 0 0 0-19.746 0c-2.668 6.328-8.863 10.438-15.726 10.438s-13.063-4.11-15.727-10.438c-1.648-4-5.547-6.613-9.875-6.613s-8.226 2.613-9.87 6.613a17.065 17.065 0 0 1-15.727 10.438 17.057 17.057 0 0 1-15.727-10.438 10.682 10.682 0 0 0-9.875-6.613 10.673 10.673 0 0 0-9.871 6.613 17.066 17.066 0 0 1-15.73 10.438 17.065 17.065 0 0 1-15.727-10.438c-1.645-4-5.543-6.613-9.871-6.613s-8.227 2.613-9.875 6.613a17.057 17.057 0 0 1-15.727 10.438 17.065 17.065 0 0 1-15.726-10.438 10.678 10.678 0 0 0-19.746 0 17.067 17.067 0 0 1-32.793-6.664v-21.812c13.996 8.324 31.937 5.472 42.668-6.774a34.186 34.186 0 0 0 25.597 11.52 34.2 34.2 0 0 0 25.602-11.52 34.2 34.2 0 0 0 51.2 0 34.2 34.2 0 0 0 25.6 11.52c9.79 0 19.106-4.192 25.598-11.52a34.2 34.2 0 0 0 25.602 11.52c9.789 0 19.11-4.192 25.597-11.52a34.2 34.2 0 0 0 25.602 11.52 34.2 34.2 0 0 0 25.601-11.52c10.727 12.246 28.668 15.098 42.665 6.774zM324.27 202.484a33.885 33.885 0 0 0 17.066-10.316 34.252 34.252 0 0 0 51.2 0 33.871 33.871 0 0 0 17.066 10.309v25.515a17.09 17.09 0 0 1-7.254-8.21 10.844 10.844 0 0 0-9.813-6.4 10.964 10.964 0 0 0-9.933 6.665 17.06 17.06 0 0 1-15.813 10.305 17.063 17.063 0 0 1-15.64-10.57 10.844 10.844 0 0 0-9.813-6.4 10.964 10.964 0 0 0-9.934 6.665 16.6 16.6 0 0 1-7.132 7.96zm85.332-92.636v74.332a17.12 17.12 0 0 1-7.254-8.2 10.83 10.83 0 0 0-9.813-6.41 10.973 10.973 0 0 0-9.933 6.657 17.063 17.063 0 0 1-15.809 10.316 17.069 17.069 0 0 1-15.645-10.563 10.838 10.838 0 0 0-9.812-6.41 10.97 10.97 0 0 0-9.934 6.657 16.609 16.609 0 0 1-7.132 7.972V92.781a8.53 8.53 0 0 1 3.273-6.734 8.532 8.532 0 0 1 7.324-1.563l51.106 12.801 17.129 4.266a8.533 8.533 0 0 1 6.5 8.297zm-24.575-75.793a48.473 48.473 0 0 1 1.32 37.222 76.784 76.784 0 0 1-2.898 7.774l-18.16-4.54a79.87 79.87 0 0 0 1.52-19.038 42.65 42.65 0 0 1 18.218-21.418zm-50.14-15.61a49.758 49.758 0 0 1 14.804 34.63v1.124a64.892 64.892 0 0 1-1.171 16.121l-9.532-2.382a25.44 25.44 0 0 0-10.828-.297 67.118 67.118 0 0 1-2.406-13.055 48.555 48.555 0 0 1 9.133-36.14zm-27.684 211.961H105.938l101.261-101.265 100.004 30.761zM85.336 247.473h230.398a34.137 34.137 0 0 0 25.602-11.496 34.252 34.252 0 0 0 51.2 0 33.871 33.871 0 0 0 17.066 10.308v18.254a17.067 17.067 0 0 1-32.793 6.664c-1.645-4.004-5.543-6.613-9.871-6.613s-8.231 2.61-9.875 6.613a17.067 17.067 0 0 1-31.454 0 10.672 10.672 0 0 0-9.875-6.613 10.67 10.67 0 0 0-9.87 6.613 17.067 17.067 0 0 1-31.453 0c-1.65-4.004-5.548-6.613-9.876-6.613s-8.226 2.61-9.87 6.613a17.07 17.07 0 0 1-15.727 10.438 17.063 17.063 0 0 1-15.727-10.438 10.676 10.676 0 0 0-9.875-6.613c-4.328 0-8.227 2.61-9.871 6.613a17.07 17.07 0 0 1-31.457 0 10.676 10.676 0 0 0-19.746 0 17.063 17.063 0 0 1-15.727 10.438 17.07 17.07 0 0 1-15.726-10.438c-1.645-4.004-5.543-6.613-9.871-6.613s-8.231 2.61-9.875 6.613a17.067 17.067 0 0 1-19.125 10.098 17.073 17.073 0 0 1-13.668-16.762v-1.101a16.202 16.202 0 0 1 5.136-11.614 16.205 16.205 0 0 1 11.93-4.351zM51.203 418.14c0 4.71-3.82 8.53-8.535 8.53H25.602a8.532 8.532 0 0 1-8.532-8.53V307.207c.02-20.27 14.278-37.734 34.133-41.816zm110.934 42.664h-51.2v-18.637a25.048 25.048 0 0 0 25.598-4.957 25.054 25.054 0 0 0 25.602 4.957zm-8.535 34.132h-34.133a8.532 8.532 0 0 1-8.531-8.53v-8.536h51.199v8.535c0 4.711-3.82 8.531-8.535 8.531zm8.535-76.796a8.535 8.535 0 0 1-16.121 3.883 10.633 10.633 0 0 0-18.961 0 8.533 8.533 0 0 1-16.117-3.883v-28.59a34.19 34.19 0 0 0 25.597 11.523c9.79 0 19.11-4.195 25.602-11.523zm204.8 42.664h-51.203v-18.637a25.054 25.054 0 0 0 25.602-4.957 25.054 25.054 0 0 0 25.602 4.957zm-8.535 34.132H324.27a8.533 8.533 0 0 1-8.536-8.53v-8.536h51.204v8.535c0 4.711-3.82 8.531-8.536 8.531zm8.536-76.796a8.535 8.535 0 0 1-16.121 3.883 10.633 10.633 0 0 0-18.962 0 8.535 8.535 0 0 1-16.12-3.883v-28.59a34.204 34.204 0 0 0 51.203 0zm25.597-34.137a17.065 17.065 0 0 1-15.726-10.402 10.678 10.678 0 0 0-19.746 0 17.064 17.064 0 0 1-31.454 0 10.678 10.678 0 0 0-19.746 0 17.065 17.065 0 0 1-31.453 0c-1.648-4-5.547-6.614-9.875-6.614s-8.226 2.614-9.87 6.614a17.068 17.068 0 0 1-15.727 10.441 17.06 17.06 0 0 1-15.727-10.441 10.682 10.682 0 0 0-9.875-6.614 10.673 10.673 0 0 0-9.871 6.614 17.068 17.068 0 0 1-31.457 0c-1.645-4-5.543-6.614-9.871-6.614s-8.227 2.614-9.875 6.614a17.06 17.06 0 0 1-15.727 10.441 17.068 17.068 0 0 1-15.726-10.441 10.678 10.678 0 0 0-19.746 0 17.063 17.063 0 0 1-19.125 10.097c-7.965-1.617-13.684-8.633-13.668-16.761v-21.81c13.996 8.321 31.937 5.474 42.668-6.776a34.19 34.19 0 0 0 25.597 11.523c9.79 0 19.11-4.195 25.602-11.523a34.196 34.196 0 0 0 51.199 0 34.194 34.194 0 0 0 51.2 0 34.204 34.204 0 0 0 25.6 11.523 34.19 34.19 0 0 0 25.598-11.523 34.204 34.204 0 0 0 51.204 0c10.726 12.25 28.667 15.097 42.664 6.777v21.809c0 9.425-7.641 17.066-17.067 17.066zm68.27-211.828a8.542 8.542 0 0 1-7.137 8.422l-27 4.496v-39.586l27 4.496a8.54 8.54 0 0 1 7.137 8.422zm0 0"/><path d="M366.938 118.371c-14.141 0-25.602 11.461-25.602 25.602 0 4.71 3.82 8.53 8.535 8.53 4.711 0 8.531-3.82 8.531-8.53a8.534 8.534 0 1 1 17.067 0c0 4.71 3.82 8.53 8.535 8.53 4.71 0 8.531-3.82 8.531-8.53 0-14.141-11.46-25.602-25.597-25.602zm0 0"/></svg>