<svg xmlns="http://www.w3.org/2000/svg" viewBox="0 0 512 512" style="enable-background:new 0 0 512 512" xml:space="preserve"><path style="fill:#a54925" d="M373.348 7.475c-21.192 0-39.614 11.839-49.025 29.263 27.855 18.401 47.862 47.728 53.899 81.879 28.467-2.472 50.808-26.349 50.808-55.458 0-30.756-24.93-55.684-55.682-55.684z"/><path style="fill:#933c21" d="M420.208 33.096c22.966 35.722-1.164 83.256-43.684 85.649a123.217 123.217 0 0 0-4.916-18.958c32.404-3.431 55.32-34.177 48.6-66.691z"/><path style="fill:#b25830" d="M371.635 40.675c-10.878 0-20.013 7.375-22.741 17.391a124.202 124.202 0 0 1 19.483 29.548c1.067.146 2.15.251 3.258.251 13.032 0 23.596-10.563 23.596-23.596-.001-13.032-10.564-23.594-23.596-23.594z"/><path style="fill:#bc5f3b" d="M340.553 231.236c-47.915 44.613-122.263 44.351-169.868-.705-8.877 6.237-14.686 16.549-14.686 28.227v67.062c52.125 1.107 81.704 81.881 52.431 140.045h98.236c-28.481-56.597-1.413-133.682 47.6-139.701v-67.405c.001-11.248-5.384-21.229-13.713-27.523z"/><path style="fill:#b25830" d="M296.342 465.865c-61.443-52.54-67.092-144.873-12.959-204.402-39.334 8.861-81.759-1.649-112.698-30.932-8.877 6.237-14.686 16.549-14.686 28.227v67.062c52.125 1.107 81.704 81.881 52.431 140.045h87.912z"/><path style="fill:#a54925" d="m468.888 317.484-88.505-84.059c-8.615-8.185-19.789-11.993-30.791-11.52-2.849 3.267-7.867 6.377-11.04 9.331 8.33 6.295 13.713 16.275 13.713 27.522v67.933l1.396 1.326c1.473-.136 2.954-.232 4.454-.232 28.419 0 54.561 23.105 63.377 58.056 16.057 7.817 35.977 4.773 48.929-8.866 16.005-16.85 15.317-43.488-1.533-59.491z"/><path style="fill:#933c21" d="m428.902 362.727-76.636-62.984v26.947l1.396 1.326c1.473-.136 2.954-.232 4.454-.232 28.419 0 54.561 23.105 63.377 58.056 16.057 7.817 35.977 4.773 48.929-8.866a42.03 42.03 0 0 0 7.596-11.133c-14.919 9.381-34.756 8.689-49.116-3.114z"/><path style="fill:#a54925" d="M156.982 327.785c.347 0 .686.027 1.031.036l-.014-.002v-69.062c0-11.678 5.809-21.989 14.686-28.227l.171.156c-2.957-2.789-7.778-5.719-10.45-8.782-11.002-.474-22.175 3.335-30.789 11.52l-88.506 84.059c-16.851 16.003-17.536 42.641-1.533 59.491 13.944 14.68 35.955 17.086 52.536 6.884 9.218-33.918 34.987-56.073 62.868-56.073z"/><path style="fill:#933c21" d="m158 300.356-74.88 62.169c-14.309 11.882-34.157 12.666-49.124 3.345 10.773 22.954 38.997 30.986 60.118 17.988 9.218-33.919 34.987-56.073 62.868-56.073.347 0 .686.027 1.031.036l-.014-.002v-27.463z"/><ellipse style="fill:#bc613c" cx="154.982" cy="415.111" rx="64.964" ry="89.327"/><ellipse style="fill:#e5955e" cx="154.982" cy="453.394" rx="37.123" ry="51.044"/><ellipse style="fill:#bc613c" cx="360.117" cy="415.111" rx="64.964" ry="89.327"/><path style="fill:#aa502d" d="M376.677 339.706c8.927 0 17.432 2.478 25.175 6.957-11.289-13.027-25.845-20.878-41.735-20.878-35.879 0-64.964 39.993-64.964 89.325 0 37.058 16.413 68.844 39.789 82.368-46.23-53.35-18.796-157.772 41.735-157.772zM106.579 429.031c0-63.503 47.2-107.208 90.139-82.368-11.289-13.027-25.845-20.878-41.735-20.878-35.879 0-64.964 39.993-64.964 89.325 0 37.058 16.413 68.844 39.789 82.368-14.2-16.385-23.229-40.965-23.229-68.447z"/><ellipse style="fill:#e5955e" cx="360.117" cy="453.394" rx="37.123" ry="51.044"/><path style="fill:#db8c52" d="M166.019 404.643c-23.989-10.253-48.159 14.506-48.159 48.75 0 28.19 16.62 51.042 37.122 51.042 3.843 0 7.551-.804 11.037-2.294-34.639-14.812-34.62-82.695 0-97.498zM371.153 404.643c-24.005-10.26-48.159 14.528-48.159 48.75 0 34.043 24.032 59.06 48.159 48.748-34.639-14.811-34.622-82.695 0-97.498zM194.845 344.614c27.51 29.437 32.974 82.725 13.585 121.251h98.236c-18.609-36.981-14.358-87.581 10.488-117.72-28.369-60.49-92.139-62.293-122.309-3.531z"/><path style="fill:#d8774c" d="M257.574 301.677c-27.499-1.225-49.919 17.993-62.724 42.928 28.214 30.184 32.456 83.753 13.581 121.259h87.913c-47.981-41.027-62.862-107.603-38.77-164.187z"/><path style="fill:#c9724c" d="M256 15.747c-68.72 0-124.627 55.907-124.627 124.627C131.373 209.093 187.281 265 256 265s124.626-55.907 124.626-124.626C380.627 71.654 324.72 15.747 256 15.747z"/><path style="fill:#c16b3d" d="M151.375 140.374c0-65.354 50.566-119.114 114.627-124.225-72.618-5.803-134.628 51.709-134.628 124.225 0 72.385 61.879 130.036 134.628 124.224-64.063-5.11-114.627-58.871-114.627-124.224z"/><path style="fill:#a54925" d="M186.391 37.591c-9.265-17.886-27.93-30.116-49.462-30.116-30.752 0-55.683 24.93-55.683 55.684 0 29.688 23.233 53.94 52.507 55.587 5.919-33.681 25.416-62.685 52.638-81.155z"/><path style="fill:#933c21" d="M90.07 33.096c-22.966 35.722 1.164 83.256 43.684 85.649a123.33 123.33 0 0 1 4.915-18.958C106.265 96.356 83.351 65.61 90.07 33.096z"/><path style="fill:#b25830" d="M140.363 40.675c-13.03 0-23.596 10.563-23.596 23.595 0 14.056 12.323 25.336 26.858 23.345a124.23 124.23 0 0 1 19.476-29.559c-2.731-10.013-11.861-17.381-22.738-17.381z"/><circle style="fill:#414356" cx="307.163" cy="124.399" r="16.241"/><circle style="fill:#414356" cx="203.506" cy="124.399" r="16.241"/><path style="fill:#2d313f" d="M307.162 124.403c0-6.007 3.271-11.241 8.121-14.051a16.142 16.142 0 0 0-8.121-2.19c-8.971 0-16.241 7.272-16.241 16.241s7.272 16.24 16.241 16.24c2.961 0 5.729-.806 8.121-2.191-4.85-2.809-8.121-8.042-8.121-14.049zM203.508 124.403c0-6.007 3.27-11.241 8.121-14.051a16.138 16.138 0 0 0-8.12-2.19c-8.971 0-16.241 7.272-16.241 16.241s7.272 16.24 16.241 16.24c2.961 0 5.729-.806 8.12-2.191-4.85-2.809-8.121-8.042-8.121-14.049z"/><ellipse style="fill:#a54925" cx="255.999" cy="174.873" rx="38.572" ry="22.622"/><path style="fill:#91381d" d="M240.01 174.869c0-10.189 11.488-18.801 27.281-21.634a64.056 64.056 0 0 0-11.292-.987c-21.303 0-38.572 10.129-38.572 22.621 0 12.494 17.269 22.622 38.572 22.622 3.929 0 7.72-.347 11.292-.987-15.792-2.832-27.281-11.445-27.281-21.635z"/><path d="m474.053 312.071-88.504-84.058c-6.224-5.912-13.671-10.007-21.742-12.072a131.842 131.842 0 0 0 11.324-19.494 7.5 7.5 0 0 0-3.588-9.982 7.499 7.499 0 0 0-9.982 3.587c-22.028 46.745-73.455 74.586-126.33 65.122-83.772-15.12-125.32-114.145-72.556-184.64C183.969 42.163 217.877 23.776 256 23.776c75.449 0 131.566 71.133 113.17 144.927a7.501 7.501 0 0 0 5.463 9.093c4.02.997 8.09-1.445 9.092-5.463 3.709-14.88 4.921-30.966 2.986-47.41 28.734-6.19 49.819-31.66 49.819-61.737C436.531 28.344 408.187 0 373.348 0a63.133 63.133 0 0 0-51.439 26.499c-40.377-23.455-91.401-24.069-133.04.723C177.151 10.258 157.903 0 136.93 0c-34.84 0-63.184 28.345-63.184 63.185 0 30.733 22.049 56.579 51.501 62.082-3.71 32.263 4.478 64.302 23.011 90.66-8.094 2.06-15.567 6.159-21.807 12.086l-55.804 53.002a7.502 7.502 0 0 0 10.331 10.878l55.805-53.003c6.115-5.81 13.93-9.112 22.266-9.466.235.256.472.512.709.766-6.904 7.424-11.259 17.609-11.259 28.595v59.908c-30.343 3.523-51.883 30.586-60.771 60.178-13.454 6.818-30.17 4.063-40.711-7.035-13.131-13.826-12.566-35.758 1.26-48.888l15.232-14.468a7.501 7.501 0 0 0-10.331-10.878L37.946 312.07c-19.869 18.87-20.679 50.224-1.807 70.096 12.368 13.021 30.766 18.109 47.759 13.994-4.34 29.485 1.417 62.262 19.081 86.548 30.907 42.498 83.178 38.2 109.952-9.318h89.235c12.467 22.128 32.796 38.57 57.95 38.57 45.953 0 79.603-55.549 71.182-115.089 16.457 2.938 33.084-2.62 44.56-14.706 18.874-19.867 18.066-51.221-1.805-70.094zM357.51 56.624c7.925-14.593 30.219-8.94 30.219 7.672 0 8.37-6.421 15.267-14.595 16.025a131.626 131.626 0 0 0-15.624-23.697zm15.838-41.623c26.568 0 48.183 21.615 48.183 48.184 0 22.527-15.971 42.002-37.407 46.95a130.773 130.773 0 0 0-4.785-15.71c13.431-3.436 23.392-15.64 23.392-30.129 0-29.545-37.605-42.423-55.705-18.933a131.583 131.583 0 0 0-12.56-10.643 48.157 48.157 0 0 1 38.882-19.719zm-234.481 65.32c-8.176-.757-14.599-7.655-14.599-16.025 0-16.643 22.298-22.243 30.216-7.68a131.711 131.711 0 0 0-15.617 23.705zm-11.074 30.175c-22.347-4.279-39.046-23.951-39.046-47.312C88.747 36.616 110.362 15 136.93 15c15.91 0 30.524 7.741 39.476 20.563a131.331 131.331 0 0 0-11.433 9.799c-18.107-23.496-55.706-10.602-55.706 18.933 0 14.49 9.963 26.695 23.397 30.13a132.778 132.778 0 0 0-4.871 16.071zM318.859 335.35c-31.856-54.08-92.869-54.83-125.78-2.725-8.936-7.377-18.981-12.032-29.579-13.659 0-61.961-2.097-68.391 7.102-78.4 48.843 41.707 120.753 41.907 169.81.823 4.162 4.914 6.353 11.055 6.353 17.394v61.143c-10.677 2.613-20.052 8.204-27.906 15.424zM125.361 453.42c0-23.604 13.565-43.543 29.621-43.543s29.621 19.939 29.621 43.543c0 23.602-13.565 43.541-29.621 43.541s-29.621-19.941-29.621-43.541zm72.568 15.997c7.887-36.937-12.741-74.543-42.947-74.543-30.252 0-50.823 37.664-42.947 74.544-34.381-55.091-3.99-137.502 43.788-136.073v-.001c49.2 1.438 74.415 84.297 42.106 136.073zm21.942-11.027c13.871-37.252 8.753-84.512-15.928-114.766 27.434-47.259 78.489-45.716 104.354 3.569-21.973 29.923-26.526 75.062-13.071 111.196l-75.355.001zm110.624-4.97c0-23.604 13.565-43.543 29.621-43.543s29.621 19.939 29.621 43.543c0 23.602-13.565 43.541-29.621 43.541s-29.621-19.941-29.621-43.541zm72.568 15.999c12.876-60.297-44.091-99.368-75.263-56.504-11.332 15.58-14.74 37.259-10.632 56.504-31.957-51.209-7.783-130.16 38.012-135.784h.003c51.254-6.248 82.432 80.419 47.88 135.784zm24.745-88.992c-9.186-32.187-32.92-61.032-66.042-62.092 0-63.628.199-61.773-.569-66.458a41.526 41.526 0 0 0-9.823-20.764c.531-.558 1.055-1.123 1.576-1.69 8.337.354 16.152 3.655 22.268 9.467l88.505 84.059c6.697 6.359 10.516 14.948 10.754 24.183.626 24.282-23.558 41.978-46.669 33.295z"/><path d="M255.132 225.951c17.698 19.52 50.368 7.008 50.368-19.416 0-4.143-3.358-7.501-7.501-7.501s-7.501 3.357-7.501 7.501c0 7.684-6.25 13.934-13.934 13.934-7.683 0-13.933-6.25-13.933-13.934v-1.819c22.582-2.044 39.44-14.405 39.44-29.819 0-16.891-20.237-30.121-46.072-30.121s-46.072 13.23-46.072 30.121c0 15.017 16.001 27.132 37.705 29.638v2.001c0 7.684-6.25 13.934-13.934 13.934-7.684 0-13.935-6.25-13.935-13.934 0-4.143-3.358-7.501-7.501-7.501s-7.501 3.357-7.501 7.501c.002 26.412 32.664 38.945 50.371 19.415zm-30.204-51.055c0-7.138 13.288-15.12 31.071-15.12s31.071 7.983 31.071 15.12c0 7.139-13.288 15.121-31.071 15.121s-31.071-7.982-31.071-15.121zM330.904 124.429c0-13.092-10.65-23.742-23.741-23.742s-23.742 10.65-23.742 23.742c0 13.091 10.651 23.741 23.742 23.741 13.091 0 23.741-10.65 23.741-23.741zm-32.481 0c0-4.819 3.921-8.741 8.741-8.741s8.74 3.921 8.74 8.741c0 4.818-3.92 8.74-8.74 8.74s-8.741-3.921-8.741-8.74zM227.249 124.429c0-13.092-10.65-23.742-23.741-23.742s-23.742 10.65-23.742 23.742c0 13.091 10.651 23.741 23.742 23.741 13.09 0 23.741-10.65 23.741-23.741zm-23.741 8.74c-4.819 0-8.741-3.921-8.741-8.74 0-4.819 3.921-8.741 8.741-8.741 4.819 0 8.74 3.921 8.74 8.741 0 4.819-3.921 8.74-8.74 8.74z"/></svg>