<svg xmlns="http://www.w3.org/2000/svg" width="512" height="512" viewBox="0 0 60 60"><g fill-rule="nonzero" fill="none"><path d="m42.6 14.85-2.12 2.12-8.48.65.4-2.18 1.01-5.54 2.12-2.12a1.986 1.986 0 0 1 2.83 0l4.24 4.24a2 2 0 0 1 0 2.83Z" fill="#F57C00"/><path d="M59 30v28a1 1 0 0 1-1 1H29a1 1 0 0 1-1-1v-1.76a3.015 3.015 0 0 1 .88-2.12l2.24-2.24a3.015 3.015 0 0 1 2.12-.88H37v-3a3 3 0 0 1 3-3h1l1.71-2 .57-.66c.464-.544.72-1.235.72-1.95v-2.12a3 3 0 0 1 .91-2.15l.66-.64 3.57-3.46 2.24-2.17a2.976 2.976 0 0 1 2.09-.85H58a1 1 0 0 1 1 1Z" fill="#37474F"/><path d="M56 30v28a1 1 0 0 1-1 1H29a1 1 0 0 1-1-1v-1.76a3.015 3.015 0 0 1 .88-2.12l2.24-2.24a3.015 3.015 0 0 1 2.12-.88H37v-3a3 3 0 0 1 3-3h1l1.71-2 .57-.66c.464-.544.72-1.235.72-1.95v-2.12a3 3 0 0 1 .91-2.15l.66-.64 3.57-3.46 2.24-2.17a2.976 2.976 0 0 1 2.09-.85H55a1 1 0 0 1 1 1Z" fill="#607D8B"/><path d="m31.28 17.94-.7 7.51-11.85 11.86-9.42 9.42-2.07 2.06a2 2 0 0 1-2.83 0l-1.96-1.96c-.01-.02-.03-.03-.04-.04l-.82-.83a1.986 1.986 0 0 1 0-2.83L24.92 19.8l4.11-1.2 2.25-.66Z" fill="#F57C00"/><path d="m40.6 12.85-2.12 2.12-6.08.47 1.01-5.54 2.12-2.12a1.986 1.986 0 0 1 2.83 0l2.24 2.24a2 2 0 0 1 0 2.83ZM29.03 18.6l-.45 4.85-11.85 11.86-9.42 9.42-2.07 2.06a2 2 0 0 1-2.79.04c-.01-.02-.03-.03-.04-.04l-.82-.83a1.986 1.986 0 0 1 0-2.83L24.92 19.8l4.11-1.2Z" fill="#FF9801"/><path d="M21.32 9.13c.2.197.354.436.45.7a55.637 55.637 0 0 0-11.7-7.71 11.9 11.9 0 0 1 1.48-.53 58.108 58.108 0 0 1 9.77 7.54ZM48.25 40.3a42.946 42.946 0 0 0-2.47-4.48c2.68-8.94-4.62-18-5.4-18.94l2.93 2.92s9.19 10.6 4.94 20.5Z" fill="#707070"/><path d="M45.78 35.82a57.434 57.434 0 0 0-7.53-9.76 2.148 2.148 0 0 0-1.45-.61h-6.22l-5.66-5.66v-6.22a2.045 2.045 0 0 0-.6-1.44c-.85-.82-1.7-1.59-2.55-2.3a1.87 1.87 0 0 0-.45-.7 58.108 58.108 0 0 0-9.77-7.54C20.49-1.08 29.56 6.21 30.5 7l9.81 9.8a.6.6 0 0 0 .07.08c.78.94 8.08 10 5.4 18.94Z" fill="#9E9E9E"/><path d="M45.78 35.82a11.9 11.9 0 0 1-.53 1.48 55.637 55.637 0 0 0-7.71-11.7c.269.097.512.254.71.46a57.434 57.434 0 0 1 7.53 9.76Z" fill="#707070"/><path d="M5.829 50.37a3.009 3.009 0 0 1-2.121-.87L.881 46.666a2.987 2.987 0 0 1 .006-4.248l23.326-23.325a1 1 0 0 1 1.413 0l5.661 5.651a1 1 0 0 1 0 1.414L7.947 49.5a2.984 2.984 0 0 1-2.118.87ZM24.92 21.213 2.3 43.837a.985.985 0 0 0-.005 1.411l2.827 2.836a1 1 0 0 0 1.414 0l22.629-22.633-4.245-4.238Z" fill="#000"/><path d="M48.25 41.3a1 1 0 0 1-.911-.587 56.245 56.245 0 0 0-9.812-13.962 1.009 1.009 0 0 0-.723-.3H30.58a1 1 0 0 1-.706-.292l-5.661-5.651a1 1 0 0 1-.293-.707v-6.226a1 1 0 0 0-.3-.722A56.117 56.117 0 0 0 9.656 3.031a1 1 0 0 1 .02-1.83c10.355-4.434 21.106 4.721 21.559 5.113l12.782 12.779c.441.5 9.6 11.244 5.152 21.6a1 1 0 0 1-.908.6l-.011.007ZM30.994 24.45H36.8c.814 0 1.593.328 2.161.911A59.065 59.065 0 0 1 48.044 37.7c1.917-8.543-5.409-17.155-5.49-17.249L29.873 7.777c-.045-.035-8.655-7.36-17.2-5.449a59 59 0 0 1 12.342 9.088c.58.568.908 1.346.909 2.159v5.81l5.07 5.065Z" fill="#000"/><path d="M40.48 17.97a1 1 0 0 1-.707-.293l-7.07-7.07a1 1 0 0 1 0-1.414l2.12-2.12a2.957 2.957 0 0 1 2.109-.885h.009a2.988 2.988 0 0 1 2.126.884l4.24 4.241a3.005 3.005 0 0 1 0 4.244l-2.12 2.12a1 1 0 0 1-.707.293ZM34.824 9.9l5.656 5.656 1.413-1.413a1 1 0 0 0 0-1.416l-4.24-4.24a1 1 0 0 0-.715-.3.974.974 0 0 0-.7.294L34.824 9.9ZM58 60H29a2 2 0 0 1-2-2v-1.76a3.968 3.968 0 0 1 1.17-2.824l2.243-2.243A3.98 3.98 0 0 1 33.245 50H36v-2a4 4 0 0 1 4-4h.54l1.981-2.311c.309-.363.478-.823.479-1.299v-2.12a4.013 4.013 0 0 1 1.214-2.87l.66-.64a1.001 1.001 0 1 1 1.392 1.44l-.66.64A2 2 0 0 0 45 38.27v2.12a4.015 4.015 0 0 1-.959 2.6l-2.282 2.662A1 1 0 0 1 41 46h-1a2 2 0 0 0-2 2v3a1 1 0 0 1-1 1h-3.755a1.991 1.991 0 0 0-1.418.587l-2.243 2.243A1.985 1.985 0 0 0 29 56.24V58h29V30h-4.53a1.97 1.97 0 0 0-1.389.563l-2.245 2.175a1 1 0 0 1-1.392-1.438l2.24-2.17A3.955 3.955 0 0 1 53.47 28H58a2 2 0 0 1 2 2v28a2 2 0 0 1-2 2Z" fill="#000"/><path d="M43.5 54.5a1 1 0 0 1-.707-.293l-1.329-1.329A3.02 3.02 0 0 0 39.343 52H37a1 1 0 0 1 0-2h2.343a4.966 4.966 0 0 1 3.535 1.464l1.329 1.329A1 1 0 0 1 43.5 54.5ZM45 46h-4a1 1 0 0 1 0-2h4a1 1 0 0 1 0 2ZM52 49a1 1 0 0 1-1-1v-2a1 1 0 0 1 2 0v2a1 1 0 0 1-1 1ZM52 55a1 1 0 0 1-1-1v-2a1 1 0 0 1 2 0v2a1 1 0 0 1-1 1ZM50 51h-2a1 1 0 0 1 0-2h2a1 1 0 0 1 0 2ZM56 51h-2a1 1 0 0 1 0-2h2a1 1 0 0 1 0 2ZM55 38a1 1 0 0 1-1-1v-1a1 1 0 0 1 2 0v1a1 1 0 0 1-1 1ZM55 43a1 1 0 0 1-1-1v-1a1 1 0 0 1 2 0v1a1 1 0 0 1-1 1ZM53 40h-1a1 1 0 0 1 0-2h1a1 1 0 0 1 0 2ZM33 56a1.033 1.033 0 0 1-.71-.29 1.014 1.014 0 0 1 0-1.42 1 1 0 0 1 1.09-.21c.121.05.233.122.33.21a1.014 1.014 0 0 1 0 1.42c-.097.088-.209.16-.33.21A1 1 0 0 1 33 56ZM39 56h-2a1 1 0 0 1 0-2h2a1 1 0 0 1 0 2ZM10.02 47.02a1 1 0 0 1-.707-.293l-2.02-2.02a1 1 0 1 1 1.414-1.414l2.02 2.02a1 1 0 0 1-.707 1.707ZM13.52 43.52a1 1 0 0 1-.707-.293l-3.52-3.52a1 1 0 0 1 1.414-1.414l3.52 3.52a1 1 0 0 1-.707 1.707ZM18.02 39.02a1 1 0 0 1-.707-.293l-2.02-2.02a1 1 0 0 1 1.414-1.414l2.02 2.02a1 1 0 0 1-.707 1.707Z" fill="#000"/></g></svg>