<svg xmlns="http://www.w3.org/2000/svg" viewBox="0 0 511.689 511.689" style="enable-background:new 0 0 511.689 511.689" xml:space="preserve" width="512" height="512"><path style="fill:#c6c5ca" d="m256.901 377.913.273.392c22.5-31.416 34.96-72.272 34.96-114.639v-14.33h-69v15.625c0 41.587 12.006 81.747 33.767 112.952z"/><path style="fill:#b2b1b5" d="M262.134 249.336v14.33c0 31.614-6.941 62.384-19.811 89.021 4.214 8.898 9.084 17.349 14.578 25.227l.273.392c22.5-31.416 34.96-72.272 34.96-114.639v-14.33h-30z"/><circle style="fill:#904f15" cx="70.405" cy="356.163" r="22.916"/><path style="fill:#904f15" d="M61.268 197.217c2.251 0 4.437.274 6.534.777 4.504-9.357 14.075-15.815 25.154-15.815 15.409 0 27.901 12.491 27.901 27.901a27.77 27.77 0 0 1-5.925 17.179 27.818 27.818 0 0 1 2.138 10.721c0 15.409-12.492 27.9-27.9 27.9-10.004 0-18.773-5.268-23.698-13.178a28.134 28.134 0 0 1-4.203.316c-15.409 0-27.901-12.491-27.901-27.9s12.491-27.901 27.9-27.901z"/><path style="fill:#7a4113" d="M120.857 210.079c0-15.409-12.492-27.9-27.901-27.9a27.768 27.768 0 0 0-15.006 4.377c7.758 4.955 12.907 13.635 12.907 23.524a27.77 27.77 0 0 1-5.925 17.179 27.818 27.818 0 0 1 2.138 10.721c0 9.885-5.145 18.562-12.898 23.518a27.742 27.742 0 0 0 14.998 4.382c15.409 0 27.9-12.492 27.9-27.9 0-3.8-.762-7.42-2.138-10.721a27.775 27.775 0 0 0 5.925-17.18z"/><circle style="fill:#904f15" cx="362.4" cy="138.567" r="22.916"/><path style="fill:#904f15" d="M413.339 232.966a27.925 27.925 0 0 1 4.73-4.574c-4.409-9.402-3.369-20.901 3.63-29.49 9.734-11.945 27.308-13.738 39.254-4.004a27.768 27.768 0 0 1 9.575 15.445 27.803 27.803 0 0 1 9.661 5.115c11.945 9.734 13.738 27.308 4.004 39.254-6.319 7.755-15.943 11.225-25.186 10.046a28.046 28.046 0 0 1-2.41 3.457c-9.734 11.945-27.308 13.738-39.254 4.004-11.945-9.733-13.738-27.307-4.004-39.253z"/><path style="fill:#7a4113" d="M480.189 215.458a27.811 27.811 0 0 0-9.661-5.115 27.765 27.765 0 0 0-9.575-15.445c-9.573-7.801-22.758-8.192-32.629-1.894a27.768 27.768 0 0 1 12.204 17.339 27.803 27.803 0 0 1 9.661 5.115c11.945 9.734 13.738 27.308 4.004 39.253-6.319 7.755-15.943 11.225-25.186 10.046a28.046 28.046 0 0 1-2.41 3.457 27.87 27.87 0 0 1-6.625 5.898c11.777 7.528 27.583 5.199 36.625-5.898a28.121 28.121 0 0 0 2.41-3.457c9.243 1.179 18.867-2.291 25.186-10.046 9.733-11.944 7.941-29.519-4.004-39.253z"/><path style="fill:#e0e0e2" d="M203.068 458.058s-11.808-35.398-46.758-49.161c-13.435-32.944-22.676-77.192-22.676-136.593h89.628c1.326 38.95 13.161 76.244 33.639 105.608l.273.392c20.967-29.275 33.209-66.747 34.781-106h89.678c0 217.606-124 231.884-124 231.884s-3.096-.358-8.306-1.815c-2.324-43.217-46.259-44.315-46.259-44.315z"/><path style="fill:#c6c5ca" d="M351.634 272.305c0 160.311-67.297 210.267-102.736 225.461.195 1.482.344 3.013.43 4.608 5.21 1.457 8.306 1.815 8.306 1.815s124-14.277 124-231.884h-30z"/><path style="fill:#957856" d="M232.2 249.336V32.934c0-14.047 11.387-25.434 25.434-25.434s25.434 11.387 25.434 25.434v216.402H232.2z"/><path style="fill:#806749" d="M257.634 7.5a25.316 25.316 0 0 0-15 4.898c6.324 4.627 10.434 12.1 10.434 20.535v216.402h30V32.934c0-14.047-11.387-25.434-25.434-25.434z"/><path style="fill:#594333" d="M362.626 399.309c4.994-.905 10.333-1.405 16.037-1.405 61.3 0 69.35 53.87 69.35 53.87 50.155 0 48.297 52.414 48.297 52.414H257.634c0 .001 70.243-8.094 104.992-104.879z"/><path style="fill:#3f2f25" d="M448.013 451.774s-8.049-53.87-69.35-53.87c-5.257 0-10.19.441-14.842 1.216 47.507 7.973 54.192 52.654 54.192 52.654 50.155 0 48.297 52.414 48.297 52.414h30c.001.001 1.858-52.414-48.297-52.414z"/><path style="fill:#904f15" d="M249.404 504.189H15.377s-1.76-49.649 45.75-49.649c0 0 7.625-51.028 65.692-51.028s76.249 54.548 76.249 54.548 45.163 1.123 46.336 46.129z"/><path style="fill:#7a4113" d="M203.068 458.058s-18.182-54.548-76.249-54.548c-5.283 0-10.143.427-14.623 1.195 46.735 7.969 61.873 53.353 61.873 53.353s45.163 1.125 46.336 46.13h29c-1.174-45.005-46.337-46.13-46.337-46.13z"/><path d="M362.4 168.983c16.772 0 30.416-13.645 30.416-30.415s-13.645-30.415-30.416-30.415-30.415 13.645-30.415 30.415 13.644 30.415 30.415 30.415zm0-45.831c8.5 0 15.416 6.915 15.416 15.415s-6.916 15.415-15.416 15.415-15.415-6.915-15.415-15.415 6.915-15.415 15.415-15.415zM39.99 356.163c0 16.771 13.645 30.416 30.416 30.416s30.416-13.645 30.416-30.416-13.645-30.415-30.416-30.415c-16.772 0-30.416 13.644-30.416 30.415zm45.831 0c0 8.5-6.916 15.416-15.416 15.416s-15.416-6.916-15.416-15.416 6.916-15.415 15.416-15.415 15.416 6.915 15.416 15.415zM61.863 260.513c6.684 8.132 16.589 12.868 27.306 12.868 19.52 0 35.4-15.88 35.4-35.4 0-3.271-.441-6.481-1.316-9.586 3.35-5.506 5.103-11.762 5.103-18.314 0-19.52-15.88-35.401-35.4-35.401-11.599 0-22.466 5.797-29.024 15.139a35.35 35.35 0 0 0-2.663-.101c-19.52 0-35.401 15.88-35.401 35.4-.001 19.717 16.224 35.714 35.995 35.395zm-.594-55.796c1.599 0 3.208.192 4.783.57a7.5 7.5 0 0 0 8.508-4.04c3.382-7.027 10.604-11.568 18.396-11.568 11.249 0 20.4 9.152 20.4 20.401 0 4.596-1.497 8.938-4.33 12.556a7.5 7.5 0 0 0-1.018 7.508 20.26 20.26 0 0 1 1.561 7.836c0 11.249-9.151 20.4-20.4 20.4-7.093 0-13.572-3.605-17.331-9.642a7.501 7.501 0 0 0-7.487-3.453 20.632 20.632 0 0 1-3.082.231c-11.249 0-20.401-9.151-20.401-20.4 0-11.248 9.152-20.399 20.401-20.399zM412.605 278.034c6.377 5.196 14.181 7.962 22.297 7.962 1.213 0 2.435-.062 3.658-.187 9.407-.96 17.877-5.525 23.851-12.856.125-.153.249-.308.371-.463 10.526-.044 20.455-4.731 27.224-13.04 12.331-15.132 10.052-37.475-5.08-49.806a35.262 35.262 0 0 0-8.263-5.035c-2.152-6.076-5.894-11.386-10.973-15.525-15.132-12.331-37.475-10.052-49.806 5.081-7.326 8.991-9.698 21.078-6.598 32.063-.613.645-1.2 1.313-1.761 2.001-12.331 15.131-10.052 37.474 5.08 49.805zm6.548-40.33a20.545 20.545 0 0 1 3.464-3.349 7.498 7.498 0 0 0 2.242-9.147c-3.311-7.061-2.269-15.528 2.653-21.569a20.269 20.269 0 0 1 13.745-7.408 20.77 20.77 0 0 1 2.108-.108c4.676 0 9.174 1.594 12.849 4.588A20.185 20.185 0 0 1 463.212 212a7.499 7.499 0 0 0 5.177 5.531 20.29 20.29 0 0 1 7.061 3.74c8.72 7.106 10.034 19.981 2.928 28.702-4.48 5.499-11.371 8.247-18.422 7.344a7.5 7.5 0 0 0-7.405 3.623 20.579 20.579 0 0 1-1.769 2.536 20.268 20.268 0 0 1-13.744 7.409 20.285 20.285 0 0 1-14.958-4.48c-8.719-7.105-10.033-19.981-2.927-28.701z"/><path d="M487.578 459.471c-8.526-8.834-19.799-13.852-33.57-14.961-1.794-6.287-5.623-16.484-13.313-26.346a7.5 7.5 0 0 0-10.526-1.303 7.5 7.5 0 0 0-1.303 10.526c9.563 12.264 11.713 25.392 11.729 25.496a7.501 7.501 0 0 0 7.418 6.392c12.255 0 21.913 3.548 28.706 10.546 7.94 8.179 10.678 19.549 11.616 26.868H297.408c8.672-5.203 18.092-12.17 27.509-21.517 16.039-15.921 29.259-35.983 39.423-59.74l.243-.561a227.38 227.38 0 0 0 1.38-3.331 216.048 216.048 0 0 0 1.841-4.651c.108-.282.22-.554.327-.836a84.736 84.736 0 0 1 10.532-.647c9.806 0 18.716 1.506 26.484 4.477a7.499 7.499 0 0 0 9.684-4.327 7.499 7.499 0 0 0-4.327-9.684c-9.485-3.627-20.198-5.466-31.842-5.466-1.753 0-3.493.059-5.225.148 10.411-33.656 15.695-73.347 15.695-118.247a7.5 7.5 0 0 0-7.5-7.5h-82.01c.002-.38.01-.758.01-1.139v-14.33a7.5 7.5 0 0 0-7.5-7.5h-1.566V32.934C290.568 14.774 275.794 0 257.634 0 239.474 0 224.7 14.774 224.7 32.934v52.679a7.5 7.5 0 0 0 15 0V32.934c0-9.889 8.045-17.934 17.934-17.934 9.889 0 17.934 8.045 17.934 17.934v208.902H239.7V115.652a7.5 7.5 0 0 0-15 0v126.184h-1.566a7.5 7.5 0 0 0-7.5 7.5v15.469h-82a7.5 7.5 0 0 0-7.5 7.5c0 15.593.64 30.729 1.902 44.986a7.5 7.5 0 0 0 14.942-1.322c-1.02-11.528-1.621-23.661-1.792-36.164h74.948c.003.038.007.075.009.113 2.213 32.959 11.703 64.49 27.413 91.071l.207.35a177.491 177.491 0 0 0 3.226 5.232l.362.556c1.105 1.709 2.23 3.4 3.389 5.062l.012.018.273.392a7.502 7.502 0 0 0 6.105 3.206h.045a7.501 7.501 0 0 0 6.098-3.133c.681-.951 1.352-1.913 2.016-2.881.292-.425.577-.857.865-1.285.353-.525.707-1.049 1.054-1.578.386-.588.766-1.181 1.146-1.774.222-.348.445-.694.665-1.044.464-.736.922-1.477 1.376-2.221l.295-.486c16.141-26.622 25.954-58.317 28.359-91.598h75.033c-.617 45.117-6.835 84.425-18.502 116.938-.004.011-.01.021-.014.033a227.94 227.94 0 0 1-1.232 3.327c-.148.394-.292.793-.442 1.185-.417 1.091-.843 2.16-1.269 3.226-.161.402-.319.806-.481 1.206a222.481 222.481 0 0 1-1.728 4.126c-13.916 32.306-31.919 52.393-47.324 64.663-.226.179-.451.353-.676.529-.474.372-.948.744-1.417 1.102-6.171 4.684-12.048 8.273-17.252 11.006-.213.111-.427.225-.638.333-.322.167-.636.323-.953.483-12.276 6.176-21.724 8.155-24.524 8.64l-.075-.013c-.141-.024-.294-.052-.464-.083l-.12-.022a44.893 44.893 0 0 1-.688-.135l-.011-.069a57.986 57.986 0 0 0-2.131-9.55 50.934 50.934 0 0 0-.533-1.588l-.071-.205a49.18 49.18 0 0 0-.548-1.461l-.104-.265a49.434 49.434 0 0 0-.575-1.384l-.117-.269a49.682 49.682 0 0 0-.611-1.337l-.117-.243a47.394 47.394 0 0 0-.658-1.315l-.094-.178a46.593 46.593 0 0 0-.725-1.331l-.02-.035a47.088 47.088 0 0 0-5.357-7.583l-.074-.086a48.918 48.918 0 0 0-1.884-2.04l-.184-.188a48.58 48.58 0 0 0-1.924-1.843l-.179-.16a55.285 55.285 0 0 0-.909-.799l-.122-.103a52.62 52.62 0 0 0-7.385-5.233l-.092-.055a57.884 57.884 0 0 0-.945-.54l-.158-.089c-.301-.167-.601-.33-.9-.489l-.194-.103c-.141-.074-.284-.153-.424-.225-.113-.058-.226-.111-.339-.169l-.2-.103c-.1-.051-.2-.096-.3-.146-.34-.168-.678-.334-1.017-.494-.154-.073-.307-.143-.461-.214-.335-.155-.67-.308-1.004-.455-.156-.069-.311-.134-.467-.201a67.882 67.882 0 0 0-.99-.418c-.156-.064-.312-.125-.468-.188-.326-.13-.65-.259-.973-.382-.157-.06-.312-.116-.467-.174-.32-.119-.64-.238-.957-.35-.154-.055-.306-.106-.459-.159-.316-.109-.631-.218-.943-.321l-.446-.143c-.312-.1-.624-.2-.931-.294l-.421-.125c-.31-.092-.619-.185-.924-.271-.133-.038-.263-.072-.395-.109-.307-.085-.614-.17-.915-.248l-.361-.092a93.587 93.587 0 0 0-.911-.229c-.102-.025-.2-.046-.301-.07-.314-.074-.627-.148-.932-.216l-.196-.042a77.419 77.419 0 0 0-.981-.21l-.111-.022a69.09 69.09 0 0 0-4.023-.695c-4.544-10.388-17.989-35.395-46.241-47.854-6.659-16.995-11.796-36.102-15.28-56.845a7.498 7.498 0 0 0-8.639-6.154 7.5 7.5 0 0 0-6.154 8.639c2.924 17.409 6.976 33.758 12.081 48.797-5.572-1.069-11.345-1.617-17.294-1.617-13.005 0-24.747 2.407-34.9 7.153a7.5 7.5 0 0 0 6.352 13.588c8.149-3.81 17.754-5.741 28.547-5.741 9.437 0 18.208 1.558 26.272 4.652.155.074.309.15.47.214 31.119 12.253 42.289 44.251 42.392 44.555a7.487 7.487 0 0 0 6.581 5.089c.108.008.212.032.321.035.021.001.487.019 1.293.094l.153.015a32.22 32.22 0 0 1 .89.097 51.188 51.188 0 0 1 1.386.185 47.323 47.323 0 0 1 1.154.184 59.366 59.366 0 0 1 2.662.523c.411.091.833.19 1.265.297l.212.053a51.508 51.508 0 0 1 4.764 1.44l.088.032c.552.198 1.11.408 1.673.633l.033.013c1.163.466 2.343.992 3.525 1.587a41.88 41.88 0 0 1 1.889 1.024c.165.094.334.185.496.28a37.69 37.69 0 0 1 3.91 2.632c.105.081.205.167.309.249.49.386.968.782 1.432 1.19.157.138.309.28.463.42a34.154 34.154 0 0 1 1.642 1.601c.383.401.753.812 1.114 1.23.123.143.25.283.371.428.445.534.874 1.08 1.283 1.641.023.032.048.061.071.093.442.611.862 1.238 1.262 1.881.071.113.135.232.204.346.312.515.613 1.038.899 1.573.105.197.205.399.307.599a35.55 35.55 0 0 1 .986 2.103c.211.493.41.995.601 1.503.08.213.163.424.24.64.219.617.422 1.246.612 1.884.033.109.07.215.102.325.222.771.423 1.557.604 2.358.026.115.046.235.071.351.116.535.217 1.081.314 1.629H23.398c.943-6.878 3.556-17.253 10.76-24.716 6.362-6.591 15.436-9.933 26.969-9.933a7.498 7.498 0 0 0 7.417-6.392c.016-.103 1.751-10.639 9.082-21.305a7.5 7.5 0 1 0-12.361-8.497c-5.59 8.131-8.59 16.157-10.12 21.44-13.019 1.102-23.691 5.888-31.78 14.27-16.215 16.8-15.521 41.843-15.483 42.9a7.5 7.5 0 0 0 7.495 7.234H496.311a7.5 7.5 0 0 0 7.495-7.234c.039-1.109.767-27.374-16.228-44.983zm-204.51-202.635h1.566v6.83c0 3.441-.112 6.863-.28 10.274-.07 1.421-.137 2.842-.236 4.258-.021.299-.052.596-.074.895-2.326 31.173-11.67 60.966-26.805 85.566-15.804-26.226-25.088-58.211-26.419-91.347a208.89 208.89 0 0 1-.186-8.351v-8.125H283.068z"/></svg>