<svg xmlns="http://www.w3.org/2000/svg" viewBox="0 0 512 512" style="enable-background:new 0 0 512 512" xml:space="preserve"><path style="fill:#b58058" d="M467.739 114.781 285.397 297.122 85.646 496.873c-10.048 10.048-26.402 10.048-36.511-.051l-14.073-14.083c-10.109-10.099-10.099-26.453-.061-36.501l155.311-155.301 44.45-44.45L417.104 64.146c10.038-10.048 26.392-10.048 36.501.051l14.073 14.083c10.108 10.098 10.108 26.453.061 36.501z"/><path transform="rotate(134.999 237.849 294.032)" style="fill:#8e6047" d="M206.417 258.225h62.861v71.612h-62.861z"/><path transform="rotate(134.999 358 173.88)" style="fill:#8e6047" d="M326.567 138.074h62.861v71.612h-62.861z"/><path style="fill:#8e6047" d="M456.759 67.353 38.216 485.896l-3.154-3.154c-10.105-10.105-10.104-26.459-.058-36.505L417.101 64.142c10.046-10.046 26.4-10.047 36.505.058l3.153 3.153z"/><path style="fill:#b58058" d="m109.006 64.142 382.096 382.096c10.046 10.046 10.047 26.4-.058 36.505l-14.076 14.076c-10.105 10.105-26.459 10.104-36.505.058L58.368 114.78c-10.046-10.046-10.047-26.4.058-36.505l14.076-14.076c10.103-10.104 26.458-10.103 36.504-.057z"/><path style="fill:#8e6047" d="m61.579 75.121 418.543 418.543-3.154 3.154c-10.105 10.105-26.459 10.104-36.505.058L58.368 114.78c-10.046-10.046-10.047-26.4.058-36.505l3.153-3.154z"/><path style="fill:#586473" d="m196.167 22.769 46.258 46.258a23.662 23.662 0 0 1 6.95 16.763c-.059 6.133-2.394 12.207-7.008 16.822L97.811 247.168c-9.286 9.286-24.297 9.228-33.526-.001l-46.258-46.258c-9.285-9.285-9.344-24.296-.058-33.583L162.526 22.77c4.614-4.614 10.688-6.951 16.821-7.01 6.132.059 12.206 2.395 16.82 7.009z"/><path style="fill:#353b4a" d="m97.338 214.066-46.247-46.247c-9.271-9.271-9.271-24.304.001-33.576L17.995 167.34c-9.272 9.272-9.272 24.304 0 33.576l46.247 46.247c9.271 9.271 24.303 9.271 33.576 0l33.097-33.097c-9.272 9.271-24.305 9.271-33.577 0z"/><path style="fill:#586473" d="M469.589 288.52 275.432 94.362c-9.272-9.272-9.272-24.304 0-33.577l46.247-46.247c9.272-9.272 24.304-9.272 33.577 0l138.018 138.018a26.204 26.204 0 0 1 7.426 22.133l-15.062 108.446c-1.077 7.734-10.529 10.905-16.049 5.385z"/><path style="fill:#353b4a" d="m321.678 14.54-46.247 46.247c-9.271 9.271-9.272 24.304 0 33.576l20.442 20.442c-9.271-9.271-9.271-24.304 0-33.576l46.247-46.247c9.272-9.272 24.305-9.272 33.576-.001l-20.442-20.442c-9.272-9.271-24.304-9.27-33.576.001z"/><path d="M464.217 293.901c3.264 3.265 7.578 5.006 12.014 5.006a17.18 17.18 0 0 0 5.464-.897c6.178-2.071 10.574-7.368 11.471-13.822l15.067-108.452c1.444-10.433-2.14-21.107-9.588-28.554l-26.278-26.278.747-.747c6.428-6.428 9.904-15.028 9.75-24.159-.15-8.867-3.984-17.274-10.254-23.545l-13.63-13.63c-13.045-13.044-34.245-13.071-47.258-.059l-.747.747-6.295-6.295a7.604 7.604 0 0 0-10.754 0l-.001.001a7.604 7.604 0 0 0 0 10.754l93.966 93.967c4.098 4.098 6.071 9.973 5.277 15.71l-15.067 108.447c-.13.936-.748 1.33-1.244 1.497-.494.165-1.223.222-1.888-.443L281.157 89.331c-3.025-3.024-4.957-7.053-5.067-11.329a16.036 16.036 0 0 1 4.718-11.835l46.24-46.252c6.295-6.288 16.538-6.286 22.829-.004l18.958 18.966a7.604 7.604 0 0 0 10.754.002 7.604 7.604 0 0 0 .002-10.754L360.63 9.156c-12.222-12.21-32.108-12.209-44.333.003l-46.243 46.254c-5.918 5.918-9.178 13.789-9.178 22.162s3.259 16.244 9.178 22.162l50.318 50.318-57.348 57.348-57.348-57.348 42.081-42.081c12.242-12.242 12.242-32.09 0-44.332l-46.245-46.244c-12.223-12.222-32.109-12.223-44.33 0L115.1 59.48l-.717-.717c-13.013-13.009-34.213-12.986-47.259.06L53.495 72.452c-6.27 6.27-10.104 14.678-10.254 23.545-.154 9.131 3.322 17.731 9.75 24.159l.717.717-41.09 41.089c-12.222 12.223-12.221 32.11 0 44.331l46.246 46.246c6.111 6.11 14.138 9.166 22.165 9.166s16.054-3.056 22.165-9.166l41.09-41.089 57.346 57.346L29.624 440.8c-6.302 6.302-9.756 14.707-9.725 23.666.03 8.938 3.528 17.339 9.845 23.65l14.016 14.025c6.344 6.339 14.757 9.84 23.689 9.859h.072c8.908 0 17.271-3.461 23.552-9.749l86.636-86.636a7.604 7.604 0 0 0 0-10.754l-.001-.001a7.604 7.604 0 0 0-10.754 0L80.316 491.5c-3.41 3.414-7.952 5.293-12.796 5.293h-.04c-4.884-.011-9.491-1.931-12.968-5.405l-14.016-14.025a18.273 18.273 0 0 1-5.39-12.948c-.017-4.877 1.855-9.443 5.27-12.858L212.384 279.55l39.946 39.946-60.293 60.284a7.604 7.604 0 0 0 10.753 10.755l60.294-60.285 172.002 172.002c6.496 6.495 15.032 9.742 23.575 9.742 8.571 0 17.149-3.268 23.683-9.801l13.631-13.631c6.269-6.269 10.103-14.676 10.253-23.541.155-9.132-3.321-17.733-9.75-24.163L324.475 268.856l57.348-57.349 82.394 82.394zM422.478 69.519c7.082-7.084 18.635-7.059 25.75.059l14.076 14.076a18.17 18.17 0 0 1 5.359 12.905c.005 4.861-1.877 9.421-5.3 12.844l-.748.748-39.885-39.884.748-.748zM63.744 109.402c-3.423-3.423-5.305-7.984-5.3-12.844a18.158 18.158 0 0 1 5.359-12.905l14.075-14.075c7.116-7.118 18.667-7.141 25.749-.06l.717.717-39.884 39.884-.716-.717zM92.44 241.784a16.027 16.027 0 0 1-11.411 4.727 16.03 16.03 0 0 1-11.412-4.727l-46.246-46.246c-6.292-6.291-6.292-16.53 0-22.822L167.937 28.153a16.027 16.027 0 0 1 11.411-4.727c4.31 0 8.363 1.678 11.411 4.727l46.247 46.246a16.031 16.031 0 0 1 4.727 11.411c0 4.311-1.679 8.364-4.727 11.412L92.44 241.784zm398.585 222.674a18.16 18.16 0 0 1-5.359 12.906l-14.075 14.076c-7.116 7.115-18.667 7.141-25.75.058L155.038 200.695l39.884-39.884 290.803 290.803c3.422 3.423 5.305 7.985 5.3 12.844zM313.72 258.102l-39.942-39.942 57.348-57.349 39.942 39.942-57.348 57.349z"/></svg>