<svg height="512pt" viewBox="-21 0 512 512" width="512pt" xmlns="http://www.w3.org/2000/svg"><path d="M426.676 452.266h-8.535v-42.664c6.789 0 13.3-2.704 18.093-7.512a24.213 24.213 0 0 0 5.973-9.555 23.686 23.686 0 0 0 1.535-8.535c0-14.137-11.46-25.598-25.601-25.598h-17.579c58.72-58.515 76.372-146.66 44.72-223.273C413.624 58.516 338.905 8.539 256.007 8.535c-2.899 0-5.715.082-8.531.168A204.3 204.3 0 0 0 112.34 67.414C100.848 56.105 95.422 38.828 89.437 8.91 77.56 68.266 67.934 77.895 8.543 89.77c36.164 7.23 53.836 13.699 64.852 31.003-40.172 79.082-24.801 175.043 38.058 237.63H93.875c-14.137 0-25.598 11.46-25.598 25.597-.02 2.914.5 5.809 1.535 8.535a25.33 25.33 0 0 0 24.063 17.067v42.664h-8.531c-6.79 0-13.301 2.703-18.094 7.511a24.213 24.213 0 0 0-5.973 9.555 23.686 23.686 0 0 0-1.535 8.535c0 14.137 11.461 25.602 25.602 25.602h341.332c14.136 0 25.601-11.465 25.601-25.602a23.69 23.69 0 0 0-1.539-8.535 25.327 25.327 0 0 0-24.062-17.066zm0 0" fill="#2fa8cc"/><path d="M460.809 213.332a204.292 204.292 0 0 1-60.246 145.07h-289.11C48.586 295.812 33.22 199.84 73.395 120.746l38.914-53.332a204.268 204.268 0 0 1 135.168-58.71c2.816-.087 5.632-.169 8.53-.169 113.098.027 204.774 91.703 204.802 204.797zm0 0" fill="#0377bc"/><path d="M439.477 213.332a204.292 204.292 0 0 1-60.247 145.07H107.187C44.32 295.812 28.95 199.84 69.13 120.746l38.91-53.332a204.284 204.284 0 0 1 135.168-58.71c109.676 4.628 196.219 94.858 196.27 204.628zm0 0" fill="#02a9f4"/><g fill="#37474f"><path d="M452.277 477.867c0 14.137-11.464 25.602-25.601 25.602H85.344c-14.14 0-25.602-11.465-25.602-25.602a23.686 23.686 0 0 1 1.535-8.535 24.213 24.213 0 0 1 5.973-9.555 25.549 25.549 0 0 1 18.094-7.511h341.332a25.327 25.327 0 0 1 24.062 17.066 23.69 23.69 0 0 1 1.54 8.535zm0 0"/><path d="M93.875 409.602h324.266v42.664H93.875zm0 0"/><path d="M443.742 384a23.686 23.686 0 0 1-1.535 8.535 24.213 24.213 0 0 1-5.973 9.555 25.549 25.549 0 0 1-18.093 7.512H93.875a25.33 25.33 0 0 1-24.063-17.067A23.603 23.603 0 0 1 68.278 384c0-14.137 11.461-25.598 25.598-25.598h324.266c14.14 0 25.601 11.461 25.601 25.598zm0 0"/></g><path d="M430.941 477.867c0 14.137-11.46 25.602-25.597 25.602h-320c-14.14 0-25.602-11.465-25.602-25.602a23.686 23.686 0 0 1 1.535-8.535 24.213 24.213 0 0 1 5.973-9.555 25.549 25.549 0 0 1 18.094-7.511h320a25.33 25.33 0 0 1 24.062 17.066 23.603 23.603 0 0 1 1.535 8.535zM422.41 384a23.69 23.69 0 0 1-1.539 8.535 24.213 24.213 0 0 1-5.973 9.555 25.54 25.54 0 0 1-18.09 7.512H93.876a25.33 25.33 0 0 1-24.063-17.067A23.603 23.603 0 0 1 68.277 384c0-14.137 11.461-25.598 25.598-25.598h302.934c14.14 0 25.601 11.461 25.601 25.598zm0 0" fill="#607d8b"/><path d="M52.234 102.316A186.953 186.953 0 0 0 8.543 89.77c6.57-1.278 12.457-2.56 17.832-3.922a56.954 56.954 0 0 1 25.86 16.468zm0 0" fill="#f5f5f5"/><path d="M170.336 89.77c-59.395 11.863-69.035 21.503-80.899 80.898a219.045 219.045 0 0 0-10.75-39.594c9.043-31.234 21.59-41.644 56.747-50.18a271.748 271.748 0 0 0 34.902 8.876zm0 0" fill="#cfd8dc"/><path d="M135.434 80.895c-35.157 8.535-47.704 18.945-56.746 50.18a50.563 50.563 0 0 0-26.454-28.759 56.954 56.954 0 0 0-25.859-16.468c35.16-8.535 47.703-18.946 56.75-50.18 2.219-7.594 4.266-16.469 6.313-26.793 5.546 27.39 10.41 44.203 20.14 55.55a56.942 56.942 0 0 0 25.856 16.47zm0 0" fill="#f5f5f5"/><path d="M153.266 76.973c-6.57 1.277-12.457 2.558-17.832 3.922a56.942 56.942 0 0 1-25.856-16.47 186.868 186.868 0 0 0 43.688 12.548zm0 0" fill="#f5f5f5"/><path d="M179.207 200.535c0 25.918-21.012 46.934-46.93 46.934-25.922 0-46.933-21.016-46.933-46.934 0-25.922 21.011-46.933 46.933-46.933 25.918 0 46.93 21.011 46.93 46.933zm0 0" fill="#00bcd4"/><path d="m396.52 241.152-18.63-11.988a4.27 4.27 0 0 0-3.96-.351l-20.48 8.535a4.267 4.267 0 0 1-5.766-5.027l5.64-21.419a4.27 4.27 0 0 0-.855-3.875l-14.438-16.734a4.265 4.265 0 0 1 2.996-7.04L363.145 182a4.278 4.278 0 0 0 3.414-2.04l11.476-18.968a4.267 4.267 0 0 1 7.621.664l8.031 20.649a4.255 4.255 0 0 0 2.993 2.613l21.554 5.121a4.26 4.26 0 0 1 3.172 3.2 4.258 4.258 0 0 1-1.465 4.257l-17.16 13.984a4.264 4.264 0 0 0-1.55 3.653l1.816 22.086a4.267 4.267 0 0 1-6.527 3.934zm0 0" fill="#283593"/><path d="m297.602 157.465-15.559-7.883a4.263 4.263 0 0 0-3.977.059l-15.359 8.355a4.26 4.26 0 0 1-4.453-.293 4.259 4.259 0 0 1-1.758-4.101l2.688-17.239a4.265 4.265 0 0 0-1.282-3.754l-12.68-11.949a4.266 4.266 0 0 1 2.255-7.363l17.226-2.766a4.265 4.265 0 0 0 3.176-2.386l7.484-15.754a4.263 4.263 0 0 1 3.801-2.47 4.27 4.27 0 0 1 3.879 2.349l7.96 15.523a4.272 4.272 0 0 0 3.243 2.289l17.305 2.242a4.266 4.266 0 0 1 2.476 7.246l-12.304 12.364a4.264 4.264 0 0 0-1.168 3.789l3.207 17.152a4.264 4.264 0 0 1-1.64 4.227 4.257 4.257 0 0 1-4.52.363zm0 0" fill="#ffeb3a"/><path d="m282.855 319.043-21.617-16.383a4.262 4.262 0 0 0-3.914-.656l-25.754 8.531a4.257 4.257 0 0 1-4.379-1.058 4.254 4.254 0 0 1-.988-4.391l8.906-25.602a4.252 4.252 0 0 0-.597-3.925l-16.051-21.895a4.275 4.275 0 0 1-.379-4.52 4.265 4.265 0 0 1 3.906-2.308l27.117.633a4.272 4.272 0 0 0 3.551-1.778l15.828-22.03a4.272 4.272 0 0 1 4.168-1.723 4.26 4.26 0 0 1 3.383 2.976l7.852 25.965a4.265 4.265 0 0 0 2.789 2.824l25.84 8.254a4.26 4.26 0 0 1 2.925 3.43 4.267 4.267 0 0 1-1.78 4.14l-22.274 15.489a4.265 4.265 0 0 0-1.825 3.523l.145 27.125a4.259 4.259 0 0 1-2.379 3.813 4.255 4.255 0 0 1-4.473-.434zm0 0" fill="#9d27b0"/><path d="M256.008 0a212.08 212.08 0 0 0-142.863 54.938c-6.829-10.145-10.754-24.747-15.36-47.735C96.977 3.227 93.48.367 89.422.367s-7.555 2.86-8.363 6.836C69.863 63.258 62.926 70.195 6.836 81.41a8.533 8.533 0 0 0 0 16.723c30.719 6.152 46.676 11.094 56.68 23.46a209.497 209.497 0 0 0-20.84 91.739 211.799 211.799 0 0 0 49.586 136.695c-16.84.73-30.602 13.696-32.336 30.461s9.082 32.274 25.418 36.434v26.812c-18.852 0-34.137 15.282-34.137 34.133C51.207 496.72 66.492 512 85.344 512h341.332c18.851 0 34.133-15.281 34.133-34.133 0-18.851-15.282-34.133-34.133-34.133v-26.812c16.336-4.16 27.152-19.668 25.418-36.434s-15.496-29.73-32.34-30.46c53.055-63.567 64.535-152.094 29.45-227.09C414.12 47.938 338.808.016 256.007 0zM43.633 89.77a63.26 63.26 0 0 0 45.804-45.805 71.746 71.746 0 0 0 16.7 29.293s.05.094.086.137.222.12.316.214a72.537 72.537 0 0 0 28.707 16.16 63.277 63.277 0 0 0-45.809 45.81 88 88 0 0 0-9.12-19.626 8.306 8.306 0 0 0-.52-.805A63.86 63.86 0 0 0 43.633 89.77zm29.863 51.578a274.84 274.84 0 0 1 7.578 31.027 8.535 8.535 0 0 0 16.727 0c11.21-56.059 18.152-62.996 74.238-74.242a8.529 8.529 0 0 0 6.836-8.363 8.524 8.524 0 0 0-6.836-8.36 144.828 144.828 0 0 1-46.394-14.45c78.8-70.065 198.894-65.292 271.886 10.806 72.989 76.101 72.75 196.293-.543 272.101H115.031c-53.633-55.3-69.886-136.89-41.543-208.52zm370.246 336.52c0 9.425-7.64 17.066-17.066 17.066H85.344c-9.426 0-17.067-7.641-17.067-17.067s7.641-17.066 17.067-17.066h341.332c9.426 0 17.066 7.64 17.066 17.066zM102.41 443.733v-25.601h307.2v25.601zM435.207 384c0 9.426-7.64 17.066-17.066 17.066H93.875c-9.426 0-17.066-7.64-17.066-17.066s7.64-17.066 17.066-17.066h324.266c9.425 0 17.066 7.64 17.066 17.066zm0 0"/><path d="M256.008 51.2c61.265-.122 117.332 34.417 144.777 89.19a8.538 8.538 0 0 0 7.176 5 8.538 8.538 0 0 0 7.805-3.94 8.532 8.532 0 0 0 .242-8.74c-30.328-60.538-92.29-98.714-160-98.577a8.533 8.533 0 0 0-8.531 8.535c0 4.71 3.82 8.531 8.53 8.531zM132.277 256a8.528 8.528 0 0 0 8.36-6.828c6.215-31.016 9.226-34.027 40.246-40.242 3.976-.809 6.832-4.305 6.832-8.364s-2.856-7.554-6.832-8.359c-31.02-6.215-34.031-9.227-40.246-40.246a8.531 8.531 0 0 0-16.723 0c-6.215 31.02-9.226 34.031-40.246 40.246-3.977.805-6.832 4.3-6.832 8.36s2.855 7.554 6.832 8.363c31.02 6.215 34.031 9.226 40.246 40.242a8.529 8.529 0 0 0 8.363 6.828zm0-72.531a35.582 35.582 0 0 0 17.067 17.066 35.566 35.566 0 0 0-17.067 17.067 35.59 35.59 0 0 0-17.07-17.067 35.607 35.607 0 0 0 17.07-17.066zM390.512 150.512a8.54 8.54 0 0 0-7.207-5.418 8.538 8.538 0 0 0-8.043 4.07l-14.84 24.406-28.5 1.602a8.532 8.532 0 0 0-7.363 5.187 8.529 8.529 0 0 0 1.39 8.903l18.617 21.648-7.277 27.613a8.53 8.53 0 0 0 2.652 8.61 8.53 8.53 0 0 0 8.895 1.433l26.34-11.015 24.023 15.453a8.525 8.525 0 0 0 9 .137 8.529 8.529 0 0 0 4.114-8.004l-2.336-28.465 22.117-18.059a8.532 8.532 0 0 0 2.93-8.52 8.532 8.532 0 0 0-6.344-6.394l-27.785-6.574zm5.172 55.781a8.526 8.526 0 0 0-3.106 7.305l1.285 15.703-13.242-8.535a8.522 8.522 0 0 0-4.617-1.356 8.365 8.365 0 0 0-3.293.664l-14.508 6.067 4.012-15.23a8.538 8.538 0 0 0-1.774-7.731L350.2 191.234l15.727-.855a8.533 8.533 0 0 0 6.828-4.086l8.184-13.457 5.707 14.684a8.54 8.54 0 0 0 5.972 5.214l15.363 3.618zM250.41 137.25l-3.676 23.57a8.53 8.53 0 0 0 12.508 8.805l20.942-11.418 21.28 10.754a8.534 8.534 0 0 0 12.24-9.184l-4.388-23.449 16.82-16.86a8.535 8.535 0 0 0-4.95-14.508l-23.647-3.073-10.879-21.203a8.364 8.364 0 0 0-7.723-4.645 8.542 8.542 0 0 0-7.578 4.875l-10.238 21.547-23.555 3.789a8.537 8.537 0 0 0-6.796 5.91 8.535 8.535 0 0 0 2.292 8.715zm17.86-18.637a8.532 8.532 0 0 0 6.359-4.77l4.726-9.976 5.043 9.832a8.543 8.543 0 0 0 6.497 4.574l10.945 1.415-7.79 7.828a8.519 8.519 0 0 0-2.327 7.593l2.027 10.864-9.855-4.993a8.535 8.535 0 0 0-7.942.118l-9.695 5.285 1.707-10.906a8.542 8.542 0 0 0-2.563-7.52l-8.027-7.586zM226.313 278.766l-11.008 31.66a8.53 8.53 0 0 0 1.98 8.789 8.53 8.53 0 0 0 8.754 2.117l31.84-10.523 26.715 20.285a8.531 8.531 0 0 0 11.172-.809 8.529 8.529 0 0 0 2.484-6.062l-.172-33.528 27.512-19.148a8.538 8.538 0 0 0 3.57-8.277 8.544 8.544 0 0 0-5.848-6.86l-31.94-10.187-9.677-32.094a8.533 8.533 0 0 0-6.77-5.945 8.53 8.53 0 0 0-8.327 3.433L247.03 238.84l-33.511-.684a8.655 8.655 0 0 0-7.754 4.602 8.53 8.53 0 0 0 .699 8.984zM251.172 256c2.8.023 5.445-1.3 7.105-3.559l12.094-16.828 5.973 19.84a8.543 8.543 0 0 0 5.57 5.66l19.75 6.297-17.016 11.844a8.52 8.52 0 0 0-3.652 7.047l.102 20.719-16.512-12.516a8.527 8.527 0 0 0-7.836-1.305l-19.676 6.508 6.824-19.574a8.537 8.537 0 0 0-1.183-7.852l-12.262-16.707zm0 0"/></svg>