<svg xmlns="http://www.w3.org/2000/svg" viewBox="0 0 511.999 511.999" style="enable-background:new 0 0 511.999 511.999" xml:space="preserve"><path style="fill:#91552c" d="M494.292 425.546c9.6 14.839 10.28 34.659 1.65 50.078-17.179 30.669-56.668 34.579-79.537 11.72-.97-.97-1.89-1.97-2.76-3l-42.508-48.838 64.198-64.198 48.788 42.558c3.809 3.24 7.239 7.14 10.169 11.68z"/><path style="fill:#57555c" d="m435.334 371.308-64.198 64.198-26.329-30.259.18-.16 60.098-60.098.03-.03z"/><path style="fill:#91552c" d="M315.758 103.638c11.72 11.72 11.72 30.709 0 42.428-11.71 11.71-30.709 11.71-42.418 0l-84.857-84.857c-11.71-11.71-11.71-30.709 0-42.418a29.908 29.908 0 0 1 21.209-8.79c7.68 0 15.359 2.93 21.219 8.79l84.847 84.847z"/><path style="fill:#feb756" d="m280.41 153.136-35.169 35.169c-.07.06-.13.12-.19.18l-56.568 56.568c-.06.06-.12.12-.18.19l-35.169 35.169-7.07-7.07-84.857-84.857-7.07-7.07L181.413 54.14l7.07 7.07 84.857 84.857 7.07 7.069z"/><path style="fill:#91552c" d="m266.27 223.843 7.07-7.07c3.91-3.9 5.86-9.02 5.86-14.139 0-5.12-1.95-10.24-5.86-14.149-7.76-7.75-20.279-7.81-28.099-.18l-56.938 56.938c-3.79 3.87-5.68 8.91-5.68 13.949 0 5.12 1.95 10.24 5.86 14.149 7.81 7.81 20.479 7.81 28.289 0l7.07-7.07 120.966 138.975.18-.16 60.098-60.098.03-.03L266.27 223.843zM269.99 491.983v10H10v-10c0-22.089 17.909-39.999 39.999-39.999h179.994c22.088.001 39.997 17.91 39.997 39.999z"/><path style="fill:#91552c" d="M224.992 401.987c13.809 0 24.999 11.19 24.999 24.999 0 6.9-2.8 13.16-7.32 17.679a24.94 24.94 0 0 1-17.679 7.32H54.998c-13.809 0-24.999-11.19-24.999-24.999 0-6.9 2.8-13.16 7.32-17.679a24.94 24.94 0 0 1 17.679-7.32h169.994zM146.065 273.342c11.71 11.71 11.71 30.709 0 42.418-11.72 11.72-30.709 11.72-42.428 0L18.79 230.913c-11.72-11.72-11.72-30.709 0-42.428 5.85-5.85 13.529-8.78 21.209-8.78s15.359 2.93 21.209 8.78l84.857 84.857z"/><path d="M103.636 174.345c-3.91 3.91-3.91 10.24 0 14.139 3.9 3.91 10.24 3.91 14.139 0 3.91-3.9 3.91-10.23 0-14.139-3.899-3.9-10.239-3.9-14.139 0zM253.199 447.718c4.409-5.972 6.792-13.168 6.792-20.732 0-19.298-15.7-34.999-34.999-34.999H54.998c-9.353 0-18.142 3.64-24.749 10.249-6.61 6.608-10.25 15.397-10.25 24.75a34.81 34.81 0 0 0 6.815 20.72C10.891 456.078 0 472.778 0 491.983v10c0 5.523 4.478 10 10 10h259.99c5.522 0 10-4.477 10-10v-10c0-19.196-10.88-35.889-26.791-44.265zM44.39 416.376a14.9 14.9 0 0 1 10.608-4.391h169.994c8.271 0 14.999 6.729 14.999 14.999 0 4.01-1.56 7.777-4.392 10.609a14.9 14.9 0 0 1-10.608 4.391H54.998c-8.271 0-14.999-6.729-14.999-14.999 0-4.009 1.559-7.777 4.391-10.609zm-24.391 75.607c0-16.541 13.458-29.999 29.999-29.999h179.994c16.541 0 29.999 13.458 29.999 29.999H19.999z"/><path d="M502.693 420.124c-3.396-5.263-7.448-9.917-12.045-13.833l-46.725-40.752a10.07 10.07 0 0 0-1.269-1.551 9.972 9.972 0 0 0-2.71-1.918l-28.257-24.645-130.79-114.091c5.354-5.597 8.302-12.916 8.302-20.699 0-8.018-3.121-15.553-8.794-21.225a29.69 29.69 0 0 0-8.291-5.837l12.1-12.1a40.242 40.242 0 0 0 10.335 1.359c10.241-.001 20.483-3.899 28.279-11.695 7.558-7.557 11.72-17.602 11.72-28.285s-4.162-20.728-11.719-28.285L237.981 11.72C230.424 4.163 220.378.001 209.692.001c-10.681 0-20.724 4.162-28.28 11.719-10.444 10.444-13.881 25.273-10.336 38.615L50.351 171.059a40.246 40.246 0 0 0-10.353-1.355c-10.688 0-20.729 4.159-28.28 11.709-15.596 15.596-15.596 40.973 0 56.57l84.847 84.848c7.799 7.798 18.042 11.697 28.285 11.697 10.244 0 20.487-3.899 28.286-11.697 10.444-10.445 13.881-25.273 10.336-38.615l12.075-12.076a30.016 30.016 0 0 0 5.866 8.271c5.666 5.666 13.2 8.787 21.215 8.787 7.775 0 15.091-2.943 20.696-8.291L362.63 440.961c.384.6.832 1.171 1.356 1.695.179.179.369.342.558.504l41.511 47.694a58.958 58.958 0 0 0 3.28 3.561c11.401 11.397 26.46 17.582 42.27 17.582 2.787 0 5.6-.192 8.417-.582 18.829-2.606 35.102-13.87 44.644-30.908 10.453-18.673 9.675-42.38-1.973-60.383zm-144.208-14.393 47.099-47.1 15.107 13.178-49.045 49.046-13.161-15.124zM237.51 266.745l29.226-29.226 123.742 107.935-45.154 45.155L237.51 266.745zM195.555 25.862a19.868 19.868 0 0 1 14.138-5.861 19.875 19.875 0 0 1 14.147 5.861l84.848 84.847a19.872 19.872 0 0 1 5.86 14.143 19.868 19.868 0 0 1-5.861 14.143c-7.795 7.797-20.481 7.797-28.276 0L195.56 54.144l-.005-.005c-7.797-7.796-7.797-20.482 0-28.277zm-56.561 282.827c-7.798 7.798-20.489 7.799-28.287 0L25.86 223.842c-7.799-7.799-7.799-20.487 0-28.287 3.772-3.773 8.794-5.851 14.138-5.851 5.343 0 10.362 2.077 14.133 5.847l84.862 84.862c7.798 7.795 7.798 20.481.001 28.276zM68.279 181.415 181.412 68.28l84.855 84.856-28.012 28.013c-.091.086-.18.17-.276.265l-56.538 56.539c-.117.115-.23.235-.345.356l-27.961 27.962-84.856-84.856zm134.348 87.784a9.933 9.933 0 0 1-7.073-2.929 9.942 9.942 0 0 1-2.932-7.079c0-2.618.999-5.081 2.812-6.939l56.801-56.801c3.893-3.786 10.187-3.739 14.035.104a9.945 9.945 0 0 1 2.931 7.079 9.908 9.908 0 0 1-2.932 7.069l-7.001 7.001a9.64 9.64 0 0 0-.143.143l-42.323 42.323-.059.059-7.042 7.042a9.939 9.939 0 0 1-7.074 2.928zm284.59 201.538c-6.454 11.523-17.365 19.128-29.936 20.868-12.542 1.736-24.865-2.395-33.807-11.333a38.421 38.421 0 0 1-2.191-2.381l-.097-.113-36.38-41.802 50.991-50.992 41.75 36.417.096.083c3.125 2.657 5.898 5.848 8.251 9.494 7.562 11.685 8.092 27.665 1.323 39.759z"/><path d="M188.484 103.636c-3.906-3.905-10.236-3.905-14.142 0l-42.428 42.428c-3.905 3.905-3.905 10.237 0 14.141a9.968 9.968 0 0 0 7.071 2.929 9.972 9.972 0 0 0 7.071-2.929l42.428-42.428c3.905-3.905 3.905-10.235 0-14.141z"/></svg>