<svg height="511pt" viewBox="-88 0 511 511.998" width="511pt" xmlns="http://www.w3.org/2000/svg"><path d="M285.086 50.395v88.628c0 23.38-6.856 45.153-18.68 63.422a117.006 117.006 0 0 1-15.59 19.293c-21.164 21.164-50.414 34.258-82.714 34.258-41.227 0-77.477-21.324-98.301-53.55-11.824-18.27-18.68-40.044-18.68-63.423V50.395zm0 0" fill="#f1eded"/><path d="M285.086 50.39v88.633c0 23.38-6.856 45.149-18.676 63.426a117.529 117.529 0 0 1-15.594 19.29C229.652 242.901 200.398 256 168.102 256c-3.829 0-7.61-.184-11.348-.547 27.77-2.668 52.715-15.055 71.375-33.715a117.732 117.732 0 0 0 15.594-19.289c11.82-18.277 18.675-40.047 18.675-63.426V50.391zm0 0" fill="#dad0cd"/><path d="M266.41 202.45a117.529 117.529 0 0 1-15.594 19.288C229.652 242.902 200.398 256 168.102 256c-3.829 0-7.61-.184-11.348-.547-36.477-3.508-68.059-23.773-86.957-53.004 25.176-11.715 59.941-18.949 98.305-18.949 29.726 0 57.296 4.344 79.914 11.754 6.574 2.144 12.722 4.559 18.394 7.195zm0 0" fill="#cf8671"/><path d="M266.41 202.45a117.529 117.529 0 0 1-15.594 19.288C229.652 242.902 200.398 256 168.102 256c-3.829 0-7.61-.184-11.348-.547 27.77-2.668 52.715-15.055 71.375-33.715a117.732 117.732 0 0 0 15.594-19.289c1.515-2.34 2.949-4.742 4.293-7.195 6.574 2.144 12.722 4.559 18.394 7.195zm0 0" fill="#be7560"/><path d="M56.348 60.719c11.504 0 20.832 9.199 20.832 20.543s-9.328 20.543-20.832 20.543c-19.559 0-35.414-15.637-35.414-34.926 0-19.29 15.855-34.926 35.414-34.926h223.511c19.559 0 35.414 15.637 35.414 34.926s-15.855 34.926-35.414 34.926c-11.504 0-20.832-9.2-20.832-20.543s9.328-20.543 20.832-20.543zm0 0" fill="#f6cb43"/><path d="M315.27 66.883c0 19.285-15.852 34.926-35.41 34.926-2.34 0-4.59-.383-6.692-1.086 15.309-3.852 26.625-17.547 26.625-33.84 0-19.293-15.852-34.93-35.41-34.93h15.476c19.559 0 35.41 15.637 35.41 34.93zm0 0" fill="#fab03c"/><path d="M285.086 372.977v88.632H51.12v-88.632c0-5.094.324-10.122.957-15.047a116.122 116.122 0 0 1 17.723-48.371 116.844 116.844 0 0 1 15.59-19.293c21.164-21.168 50.414-34.262 82.71-34.262 41.227 0 77.481 21.328 98.305 53.555a116.122 116.122 0 0 1 17.723 48.37c.633 4.926.957 9.954.957 15.048zm0 0" fill="#f1eded"/><path d="M285.086 372.977v88.632h-22.688v-88.632c0-5.098-.324-10.122-.96-15.047a116.111 116.111 0 0 0-17.715-48.371c-18.895-29.239-50.485-49.497-86.961-53.004 3.73-.364 7.52-.547 11.34-.547 41.226 0 77.476 21.32 98.308 53.55a116.111 116.111 0 0 1 17.715 48.372c.64 4.925.96 9.949.96 15.047zm0 0" fill="#dad0cd"/><path d="M285.086 372.977v88.632H51.117v-88.632c0-5.098.324-10.122.965-15.047 35.445-7.36 74.715-11.465 116.02-11.465 32.449 0 63.64 2.527 92.703 7.187a519.08 519.08 0 0 1 23.32 4.278c.64 4.925.96 9.949.96 15.047zm0 0" fill="#cf8671"/><path d="M285.086 372.977v88.632h-22.688v-88.632a117.35 117.35 0 0 0-1.593-19.325 519.08 519.08 0 0 1 23.32 4.278c.64 4.925.96 9.949.96 15.047zm0 0" fill="#be7560"/><path d="M56.348 451.281c11.504 0 20.832-9.199 20.832-20.543s-9.328-20.543-20.832-20.543c-19.559 0-35.414 15.637-35.414 34.926 0 19.29 15.855 34.926 35.414 34.926h223.511c19.559 0 35.414-15.637 35.414-34.926s-15.855-34.926-35.414-34.926c-11.504 0-20.832 9.2-20.832 20.543s9.328 20.543 20.832 20.543zm0 0" fill="#f6cb43"/><path d="M315.27 445.117c0-19.285-15.852-34.926-35.41-34.926-2.34 0-4.59.383-6.692 1.086 15.309 3.852 26.625 17.547 26.625 33.84 0 19.293-15.852 34.93-35.41 34.93h15.476c19.559 0 35.41-15.637 35.41-34.93zm0 0" fill="#fab03c"/><path d="M314.453 35.008H21.75c-7.594 0-13.754-6.16-13.754-13.754 0-7.598 6.16-13.754 13.754-13.754h292.703c7.598 0 13.754 6.156 13.754 13.754 0 7.594-6.156 13.754-13.754 13.754zM314.453 504.5H21.75c-7.594 0-13.754-6.156-13.754-13.754 0-7.594 6.16-13.754 13.754-13.754h292.703c7.598 0 13.754 6.16 13.754 13.754 0 7.598-6.156 13.754-13.754 13.754zm0 0" fill="#f8e98e"/><path d="M180.332 316.777a7.5 7.5 0 0 0 7.5-7.5v-7.293a7.5 7.5 0 1 0-15 0v7.293c0 4.145 3.356 7.5 7.5 7.5zM139.91 401.418a7.5 7.5 0 1 0 0-15h-.094c-4.144 0-7.453 3.36-7.453 7.5 0 4.145 3.403 7.5 7.547 7.5zM213.29 217.32c4.144 0 7.5-3.355 7.5-7.5a7.5 7.5 0 0 0-7.5-7.5h-.095c-4.144 0-7.453 3.36-7.453 7.5 0 4.145 3.403 7.5 7.547 7.5zM120.293 411.54h.078a7.5 7.5 0 0 0 .078-15l-.094-.005h-.082c-4.101 0-7.406 3.309-7.449 7.426-.043 4.14 3.328 7.531 7.469 7.578zm0 0"/><path d="M314.992 469.52a42.01 42.01 0 0 0 7.781-24.399c0-19.016-12.722-35.148-30.191-40.523V372.98c0-5.304-.336-10.53-.98-15.664a7.827 7.827 0 0 0-.118-.851c-6.18-46.418-38.035-84.836-80.78-100.453a124.087 124.087 0 0 0 28.226-14.61c20.375-14.12 35.937-33.73 45.004-56.703a7.503 7.503 0 0 0-4.223-9.73 7.501 7.501 0 0 0-9.73 4.226 109.518 109.518 0 0 1-6.583 13.754c-26.394-10.949-59.91-16.945-95.293-16.945-35.367 0-68.863 5.988-95.253 16.93-9.051-15.922-14.227-34.325-14.227-53.91V109.21c14.559-1.156 26.055-13.242 26.055-27.945 0-4.707-1.184-9.145-3.262-13.043h173.375a27.645 27.645 0 0 0-3.262 13.043c0 14.703 11.492 26.789 26.055 27.945v29.812c0 3.414-.168 6.914-.496 10.399a7.504 7.504 0 0 0 7.476 8.203 7.497 7.497 0 0 0 7.457-6.797c.372-3.953.563-7.926.563-11.805v-31.62c17.469-5.372 30.191-21.505 30.191-40.52 0-8.938-2.8-17.399-7.78-24.403 11.468-.289 20.714-9.687 20.714-21.226C335.707 9.535 326.17 0 314.453 0H79.433c-4.144 0-7.5 3.355-7.5 7.5s3.356 7.5 7.5 7.5h235.02a6.26 6.26 0 0 1 6.254 6.254 6.262 6.262 0 0 1-6.254 6.254H21.75c-3.445 0-6.254-2.809-6.254-6.254A6.262 6.262 0 0 1 21.75 15h25.023c4.141 0 7.5-3.355 7.5-7.5S50.914 0 46.773 0H21.75C10.031 0 .5 9.535.5 21.254c0 11.535 9.246 20.933 20.715 21.226a41.992 41.992 0 0 0-7.781 24.399c0 19.016 12.718 35.148 30.191 40.523v31.618c0 24.57 7.156 47.5 19.492 66.816.254.5.555.957.899 1.371C78.629 229.441 100.16 246.738 125.53 256c-42.758 15.61-74.629 54.031-80.808 100.465a6.768 6.768 0 0 0-.118.851 125.6 125.6 0 0 0-.98 15.66v31.622c-17.473 5.37-30.191 21.504-30.191 40.52 0 8.933 2.8 17.398 7.78 24.402C9.747 469.809.5 479.207.5 490.746c0 11.719 9.535 21.25 21.254 21.25h292.703c11.719 0 21.254-9.531 21.254-21.25-.004-11.535-9.25-20.934-20.719-21.226zM28.434 66.879c0-10.293 5.785-19.633 15.101-24.371h249.137c9.316 4.738 15.101 14.074 15.101 24.37 0 15.126-12.523 27.427-27.914 27.427-7.351 0-13.332-5.852-13.332-13.043 0-7.192 5.98-13.043 13.332-13.043 4.145 0 7.5-3.356 7.5-7.5a7.5 7.5 0 0 0-7.5-7.5H56.348a7.5 7.5 0 0 0-7.5 7.5c0 4.144 3.355 7.5 7.5 7.5 7.351 0 13.328 5.851 13.328 13.043 0 7.191-5.977 13.043-13.328 13.043-15.391 0-27.914-12.301-27.914-27.426zm52.894 138.808c24.16-9.5 54.55-14.687 86.774-14.687 32.25 0 62.668 5.195 86.835 14.71a110.006 110.006 0 0 1-24.554 23.36 108.645 108.645 0 0 1-42.555 17.645V230.68a7.5 7.5 0 1 0-15 0v17.71c-1.476.063-2.957.098-4.445.102v-7.277c0-4.145-3.356-7.5-7.5-7.5a7.5 7.5 0 0 0-7.5 7.5v6.293c-29.242-3.95-54.856-19.485-72.055-41.82zm72.055 58.805v44.79a7.5 7.5 0 1 0 15 0v-45.778c1.492.004 2.972.043 4.445.105v11.637a7.5 7.5 0 0 0 7.5 7.5c4.145 0 7.5-3.355 7.5-7.5v-9.96c42.977 7.855 77.274 40.878 86.984 83.183-33.945-6.301-69.78-9.504-106.71-9.504-36.926 0-72.762 3.203-106.707 9.504 10.085-43.938 46.687-77.86 91.988-83.977zM56.348 417.695c7.351 0 13.328 5.852 13.328 13.043 0 7.192-5.977 13.043-13.328 13.043a7.497 7.497 0 0 0-7.5 7.5 7.5 7.5 0 0 0 7.5 7.5h42.754a7.5 7.5 0 0 0 7.5-7.5c0-4.144-3.356-7.5-7.5-7.5H81.414a27.645 27.645 0 0 0 3.262-13.043c0-14.703-11.492-26.793-26.051-27.945V372.98c0-2.957.121-5.886.352-8.785 34.558-6.785 71.238-10.23 109.125-10.23 37.89 0 74.57 3.445 109.128 10.23.23 2.899.352 5.828.352 8.785v29.813c-14.559 1.152-26.055 13.242-26.055 27.945 0 4.707 1.184 9.145 3.262 13.043H134.437a7.497 7.497 0 0 0-7.5 7.5 7.5 7.5 0 0 0 7.5 7.5H279.86a7.5 7.5 0 0 0 7.5-7.5c0-4.144-3.355-7.5-7.5-7.5-7.351 0-13.332-5.851-13.332-13.043 0-7.191 5.98-13.043 13.332-13.043 15.391 0 27.914 12.301 27.914 27.426 0 10.266-5.761 19.59-15.035 24.34-.02.012-.039.023-.058.031H43.527l-.07-.039c-9.266-4.75-15.023-14.074-15.023-24.332 0-15.125 12.523-27.426 27.914-27.426zM314.453 497H21.75a6.262 6.262 0 0 1-6.254-6.254c0-3.445 2.809-6.254 6.254-6.254h292.703a6.262 6.262 0 0 1 6.254 6.254 6.26 6.26 0 0 1-6.254 6.254zm0 0"/></svg>