<svg xmlns="http://www.w3.org/2000/svg" viewBox="0 0 512 512" style="enable-background:new 0 0 512 512" xml:space="preserve"><path style="fill:#ba7052" d="m252.368 373.897 81.381 81.381c7.094 7.094 7.094 18.596 0 25.69-7.094 7.094-18.596 7.094-25.69 0l-81.381-81.381"/><circle style="fill:#75706b" cx="165.96" cy="313.181" r="105.591"/><path style="fill:#ba7052" d="m445.492 243.581-58.939 1.465-11.583-12.147-26.825-28.106-99.101-52.128-106.681-59.58s44.483-107.217 199.741-47.501l32.266 15.474 24.815 11.914c137.809 81.266 46.307 170.609 46.307 170.609z"/><path style="fill:#a35d45" d="m445.492 243.581-58.939 1.465-11.583-12.147c1.493-4.061 4.277-8.708 8.585-13.998 48.86-60.13 6.031-135.073-9.185-157.844l24.815 11.914c137.809 81.267 46.307 170.61 46.307 170.61z"/><path style="fill:#ba7052" d="M249.044 152.667S164.723 206.473 7.61 114.082l134.755-20.995 106.679 59.58z"/><path style="fill:#a35d45" d="M348.144 204.798s9.79 85.217 156.247 139.818l-58.902-101.04-97.345-38.778z"/><path style="fill:#ba7052" d="m249.044 152.667 99.1 52.131 60.293-155.734-49.064-23.352z"/><circle style="fill:#c4dee8" cx="165.96" cy="313.181" r="78.795"/><path style="fill:#e1f3f9" d="M110.245 257.463a79.092 79.092 0 0 0-10.746 13.398c30.482-19.448 71.411-15.879 98.035 10.746s30.193 67.553 10.746 98.035a79.004 79.004 0 0 0 13.398-10.746c30.771-30.771 30.771-80.662 0-111.433-30.771-30.772-80.662-30.771-111.433 0z"/><path d="m510.964 340.783-56.069-96.182c9.565-11.08 32.057-41.754 27.349-80.69-4.217-34.875-28.997-66.523-73.661-94.144l6.951-17.956a7.61 7.61 0 0 0-3.826-9.619l-49.066-23.351a7.61 7.61 0 0 0-9.015 1.88l-13.81 15.891c-34.513-12.679-66.424-18.208-94.905-16.39-24.296 1.545-46.156 8.373-64.973 20.293-25.439 16.116-38.213 37.019-42.697 45.668L6.438 106.562a7.61 7.61 0 0 0-2.686 14.078c36.434 21.426 72.069 36.836 105.916 45.803 23.607 6.254 46.41 9.409 67.939 9.409 3.362 0 6.695-.077 9.993-.231 32.561-1.522 53.286-10.16 61.516-14.319l92.222 48.513c1.755 7.946 7.316 26.477 23.885 48.934 35.418 48.005 93.784 77.068 136.51 92.997a7.608 7.608 0 0 0 9.231-10.963zm-43.845-175.179c4.016 32.708-15.715 59.58-23.702 68.955l-85.455-34.042L402.99 84.212c38.952 24.629 60.517 51.981 64.129 81.392zm-281.468-5.131c-56.158 2.264-112.671-19.74-155.087-42.267l110.38-17.198 91.238 50.957c-9.933 3.579-25.554 7.663-46.531 8.508zm105.339-56.075a7.61 7.61 0 0 0-10.736.753l-32.899 37.856-94.863-52.981c4.88-8.428 15.891-24.175 35.593-36.656 16.634-10.537 36.078-16.58 57.794-17.962 24.876-1.582 52.833 2.982 83.221 13.535l-31.29 36.008a7.61 7.61 0 0 0 11.488 9.983l52.026-59.866 37.469 17.834-54.663 141.186-83.039-43.683 30.652-35.271a7.611 7.611 0 0 0-.753-10.736zm87.217 146.308c-9.858-13.153-15.476-24.785-18.633-33.164l80.662 32.133 46.409 79.61c-37.101-16.042-80.466-41.258-108.438-78.579zM227.058 252.083c-33.689-33.69-88.506-33.689-122.195 0s-33.689 88.505 0 122.195c16.845 16.845 38.971 25.267 61.098 25.267s44.253-8.422 61.097-25.267c16.319-16.319 25.308-38.018 25.308-61.097s-8.988-44.779-25.308-61.098zm-10.761 111.433c-27.756 27.756-72.917 27.755-100.672 0s-27.755-72.916 0-100.672c13.878-13.877 32.108-20.816 50.336-20.816s36.458 6.939 50.336 20.816c27.755 27.756 27.755 72.916 0 100.672z"/><path d="M262.152 372.919c11.075-17.757 17.006-38.291 17.006-59.739 0-30.236-11.774-58.662-33.155-80.042-44.136-44.136-115.949-44.136-160.084 0-21.38 21.38-33.155 49.807-33.155 80.042 0 30.237 11.775 58.662 33.155 80.042 22.068 22.068 51.055 33.102 80.042 33.102 20.754 0 41.507-5.659 59.721-16.971l24.857 24.858c1.485 1.486 3.433 2.229 5.381 2.229s3.895-.743 5.381-2.229a7.608 7.608 0 0 0 0-10.761l-23.113-23.113a114.003 114.003 0 0 0 7.815-7.113 115.458 115.458 0 0 0 7.119-7.811l75.246 75.247c1.994 1.994 3.092 4.644 3.092 7.464s-1.098 5.471-3.093 7.465a10.485 10.485 0 0 1-7.463 3.092c-2.82 0-5.471-1.098-7.464-3.092l-33.116-33.115a7.61 7.61 0 0 0-10.762 10.761l33.117 33.116c4.868 4.868 11.341 7.549 18.226 7.549s13.357-2.682 18.226-7.549c4.868-4.868 7.549-11.341 7.549-18.226s-2.682-13.357-7.549-18.226l-76.979-76.98zM96.68 382.461c-18.506-18.506-28.697-43.11-28.697-69.281 0-26.17 10.192-50.774 28.697-69.281 19.101-19.101 44.191-28.651 69.281-28.651 25.089 0 50.18 9.551 69.28 28.651 18.506 18.506 28.697 43.11 28.697 69.281 0 20.503-6.257 40.045-17.865 56.446-.021.03-.045.06-.065.09a99.272 99.272 0 0 1-10.766 12.745c-38.202 38.201-100.361 38.2-138.562 0z"/></svg>