<svg xmlns="http://www.w3.org/2000/svg" viewBox="0 0 512.003 512.003" style="enable-background:new 0 0 512.003 512.003" xml:space="preserve"><path style="fill:#c69c6d" d="M318.588 317.246c4.595-18.269 70.351-18.361 135.282-8.918 12.193 1.773 23.282-7.545 23.303-19.866v-.24c0-97.642-99.022-176.797-221.172-176.797S34.829 190.58 34.829 288.222s99.022 176.797 221.172 176.797c42.806 0 82.77-9.722 116.628-26.553 30.999-15.41 30.877-59.774-.085-75.259-33.605-16.806-56.938-34.105-53.956-45.961z"/><path style="fill:#a67c52" d="M477.1 283.644c-.015-.462-.047-.92-.066-1.381-.044-1.059-.085-2.118-.152-3.172-.033-.511-.083-1.018-.121-1.527-.074-.999-.144-2-.239-2.995-.05-.522-.118-1.04-.173-1.561-.104-.979-.204-1.959-.328-2.933-.064-.503-.146-1.002-.215-1.504-.137-.987-.269-1.975-.426-2.956-.077-.485-.171-.966-.254-1.449-.169-.995-.335-1.99-.525-2.979-.088-.457-.191-.91-.283-1.366-.204-1.01-.406-2.021-.632-3.026-.096-.429-.207-.853-.307-1.281-.241-1.028-.48-2.057-.743-3.079-.1-.39-.214-.776-.317-1.165-.28-1.054-.561-2.107-.865-3.154-.106-.364-.223-.724-.332-1.087a149.07 149.07 0 0 0-.982-3.196c-.105-.326-.222-.648-.329-.973a146.332 146.332 0 0 0-1.115-3.27c-.103-.287-.215-.572-.319-.858a152.415 152.415 0 0 0-1.252-3.342c-.099-.254-.207-.505-.308-.759-.452-1.137-.91-2.271-1.39-3.397-.095-.223-.197-.443-.293-.666a153.092 153.092 0 0 0-1.53-3.447c-.087-.19-.181-.377-.27-.567-.545-1.171-1.1-2.338-1.675-3.496-.082-.165-.169-.328-.252-.493a156.366 156.366 0 0 0-1.815-3.525c-.072-.135-.148-.268-.221-.403a163.017 163.017 0 0 0-1.966-3.566c-.059-.103-.121-.205-.18-.308a164.367 164.367 0 0 0-2.123-3.608c-.049-.081-.102-.162-.151-.243a163.221 163.221 0 0 0-2.269-3.622l-.109-.165a169.148 169.148 0 0 0-2.423-3.643l-.079-.112a169.577 169.577 0 0 0-5.32-7.336l-.015-.019c-9.345-12.195-20.488-23.414-33.134-33.423 21.2 27.13 33.465 59.181 33.465 93.526v.24c-.021 12.321-11.11 21.639-23.303 19.866-64.931-9.443-132.31-9.683-135.282 8.919-6.817 42.667 47.738 81.333 74.684 98.256-3.42 9.447-10.294 17.819-20.643 22.964-33.858 16.831-73.822 26.553-116.628 26.553-60.678 0-115.641-19.538-155.602-51.166 8.528 10.913 18.504 21.029 29.712 30.176l.132.108a211.357 211.357 0 0 0 15.26 11.319 223.92 223.92 0 0 0 15.947 9.813l.577.32c1.645.914 3.306 1.811 4.983 2.69.208.109.415.22.623.328a236.818 236.818 0 0 0 11.373 5.536c.221.1.444.198.666.298a242.88 242.88 0 0 0 6.128 2.661c1.778.743 3.568 1.469 5.373 2.174.14.055.278.112.419.166a253.65 253.65 0 0 0 6.092 2.275c.177.063.356.123.533.186 1.776.632 3.565 1.244 5.365 1.84.47.155.941.308 1.412.461 1.623.527 3.256 1.038 4.898 1.534.414.125.826.254 1.241.377a259.876 259.876 0 0 0 12.342 3.332c.533.13 1.069.254 1.604.381 1.576.374 3.16.734 4.751 1.081.578.126 1.156.253 1.736.375 1.861.392 3.731.767 5.611 1.121.234.044.465.093.7.136 2.12.394 4.253.759 6.396 1.103.534.086 1.072.164 1.608.246a264.797 264.797 0 0 0 11.834 1.563c.537.059 1.072.124 1.611.18 2.167.225 4.343.427 6.529.602.425.034.853.059 1.278.091a248.818 248.818 0 0 0 7.465.459c1.589.077 3.184.139 4.782.188.676.021 1.35.045 2.028.062 2.226.053 4.457.088 6.699.088 42.806 0 82.77-9.722 116.628-26.553a44.79 44.79 0 0 0 2.708-1.469c.292-.172.566-.359.852-.535a42.977 42.977 0 0 0 1.688-1.081c.326-.223.634-.46.951-.69.481-.35.961-.699 1.422-1.065.323-.257.631-.524.944-.788.427-.36.852-.722 1.26-1.096.309-.283.606-.573.904-.863.385-.375.764-.752 1.131-1.139.29-.306.572-.616.851-.929a40.405 40.405 0 0 0 2.712-3.39c.247-.346.494-.692.73-1.045.275-.412.536-.83.796-1.25.225-.365.453-.729.667-1.1.24-.417.463-.842.687-1.267.204-.386.414-.769.605-1.16.201-.412.383-.831.57-1.249.186-.415.381-.827.553-1.248.149-.364.276-.735.415-1.102a42.083 42.083 0 0 0 1.73-5.827c.047-.214.104-.425.147-.64.126-.621.226-1.247.325-1.873.039-.248.086-.494.12-.743.087-.627.152-1.256.211-1.886.023-.246.052-.491.071-.738.049-.641.079-1.284.1-1.926.008-.232.017-.463.021-.695.011-.661.004-1.322-.015-1.983-.006-.207-.012-.414-.021-.621a42.864 42.864 0 0 0-.139-2.057c-.015-.17-.033-.339-.05-.508a42.593 42.593 0 0 0-.276-2.159l-.057-.342a42.948 42.948 0 0 0-.435-2.301l-.021-.089c-2.05-9.231-7.173-17.869-15.364-24.102a43.264 43.264 0 0 0-6.876-4.303c-33.605-16.807-56.938-34.105-53.956-45.961 4.595-18.269 70.351-18.361 135.282-8.919 12.193 1.773 23.282-7.545 23.303-19.866v-.24c-.002-1.53-.027-3.056-.075-4.578z"/><circle style="fill:#f33939" cx="197.401" cy="174.121" r="26.616"/><circle style="fill:#73cc00" cx="126.741" cy="232.551" r="26.616"/><circle style="fill:#f4d451" cx="113.211" cy="328.141" r="26.616"/><path style="fill:#ff6d3a" d="m353.767 182.501-51.229-28.969S235.416 232.374 196.01 325.97c-19.448 46.193-43.286 106.943-62.444 156.631-7.418 19.241 12.627 30.576 25.292 14.302 32.706-42.026 72.48-93.765 102.041-134.239 59.899-82.007 92.868-180.163 92.868-180.163z"/><path style="fill:#fed9a8" d="M416.093 122.441c15.34-31.666 6.826-95.925 4.291-112.451a3.175 3.175 0 0 0-4.347-2.458c-15.469 6.345-74.923 32.168-94.153 61.635-15.64 23.965-6.391 63.651-6.391 63.651l49.347 27.906c.001-.001 38.777-12.529 51.253-38.283z"/><path style="fill:#f4c892" d="M420.384 9.99a3.148 3.148 0 0 0-1.744-2.358c-.148.408-34.177 94.209-79.686 138.453l25.887 14.639s38.776-12.528 51.252-38.282c15.34-31.667 6.826-95.925 4.291-112.452z"/><path style="fill:#ff4c4c" d="M422.533 100.969c5.825-33.285-.104-77.652-2.148-90.979a3.175 3.175 0 0 0-4.347-2.458c-11.598 4.758-47.924 20.465-73.482 40.448 9.101 5.147 1.32 22.68 14.975 26.844 13.654 4.164 17.714-15.597 27.545.99 9.831 16.588 4.507 28.519 22.018 27.749 5.351-.235 10.652-1.271 15.439-2.594z"/><path style="fill:#f33939" d="M420.384 9.99a3.149 3.149 0 0 0-1.745-2.358c-.089.246-12.405 34.189-32.091 70.853 7.837 15.179 3.989 25.806 20.545 25.078 5.351-.235 10.652-1.271 15.439-2.594 5.826-33.285-.103-77.651-2.148-90.979z"/><path style="fill:#ed5729" d="m353.767 182.501-26.694-15.095L139.83 503.64l.019.007 2.67.813c5.164.987 11.328-1.117 16.34-7.557 32.706-42.026 72.48-93.765 102.041-134.239 59.898-82.007 92.867-180.163 92.867-180.163z"/><path style="fill:#ffb123" d="m357.723 188.461-62.33-35.247a7.86 7.86 0 0 1-2.973-10.71l7.655-13.537a7.86 7.86 0 0 1 10.71-2.973l62.33 35.247a7.86 7.86 0 0 1 2.973 10.71l-7.655 13.537a7.859 7.859 0 0 1-10.71 2.973z"/><path style="fill:#ff901d" d="M374.69 174.22a7.86 7.86 0 0 1-10.71 2.973l-62.33-35.247c-3.424-1.936-4.828-6.053-3.474-9.62l-5.756 10.178a7.859 7.859 0 0 0 2.973 10.71l62.33 35.247a7.859 7.859 0 0 0 10.71-2.973l7.655-13.537c.201-.355.361-.721.501-1.091l-1.899 3.36z"/><path d="M130.865 434.154a7.287 7.287 0 0 0-2.563-9.981c-54.773-32.391-86.186-81.943-86.186-135.95 0-93.468 95.948-169.511 213.885-169.511 9.964 0 19.981.549 29.773 1.631a7.286 7.286 0 0 0 1.602-14.484 286.651 286.651 0 0 0-31.374-1.72c-60.724 0-117.881 18.956-160.941 53.377-43.539 34.804-67.517 81.222-67.517 130.706 0 29.515 8.861 58.855 25.624 84.848 16.095 24.957 39.512 46.965 67.717 63.646a7.285 7.285 0 0 0 9.98-2.562zM417.473 157.942c-3.136-2.524-7.722-2.026-10.245 1.109s-2.026 7.722 1.109 10.244c39.69 31.935 61.548 74.171 61.548 118.927v.227c-.006 3.73-1.579 7.14-4.428 9.6a13.2 13.2 0 0 1-10.54 3.067c-34.263-4.982-66.807-7.113-91.642-6.001-32.18 1.442-48.625 7.909-51.755 20.352-2.201 8.751 2.937 18.087 15.709 28.54 9.762 7.99 23.911 16.642 42.054 25.716 12.071 6.037 19.267 17.722 19.251 31.259-.016 13.432-7.175 25.005-19.15 30.959-33.942 16.872-73.149 25.791-113.384 25.791-12.659 0-25.343-.884-37.699-2.628a7.28 7.28 0 0 0-8.233 6.196 7.285 7.285 0 0 0 6.196 8.233A285.294 285.294 0 0 0 256 472.305c42.474 0 83.925-9.445 119.871-27.315 16.777-8.34 27.214-25.196 27.236-43.99.023-18.896-10.44-35.875-27.305-44.31-43.232-21.621-50.879-34.767-50.149-37.667.54-2.147 8.469-8.014 38.275-9.349 23.939-1.073 55.51 1.009 88.892 5.864a27.775 27.775 0 0 0 22.162-6.459 27.293 27.293 0 0 0 9.476-20.617v-.24c.001-49.256-23.788-95.524-66.985-130.28z"/><path d="M356.672 195.944c1.582.547 3.232.828 4.897.828 1.36 0 2.728-.185 4.073-.558a15.048 15.048 0 0 0 9.133-7.139l7.655-13.537a15.044 15.044 0 0 0 1.411-11.506 15.284 15.284 0 0 0-1.154-2.928c13.367-6.61 31.626-18.276 39.963-35.487 3.202-6.609 5.437-14.457 6.946-22.937.037-.152.086-.299.114-.455 1.616-9.232 2.353-19.271 2.535-29.276l.01-.526c.009-.53.017-1.059.023-1.588.289-24.773-2.749-48.923-4.458-60.396l-.073-.487a90.644 90.644 0 0 0-.08-.528l-.081-.539a10.457 10.457 0 0 0-1.34-3.731 10.4 10.4 0 0 0-3.851-3.793 10.41 10.41 0 0 0-9.123-.571l-1.085.447-.043.018c-9.818 4.067-29.894 12.892-49.749 24.646l-.296.175c-.594.353-1.188.708-1.781 1.066-7.735 4.649-15.376 9.722-22.251 15.098-.169.132-.323.279-.478.424-8.934 7.041-16.655 14.626-21.807 22.52-10.454 16.019-11.038 37.687-9.812 52.55-4.937.317-9.626 3.029-12.238 7.646l-7.655 13.537c-3.644 6.445-2.028 14.447 3.449 19.045-12.126 15.238-37.008 48.01-61.694 89.617a7.287 7.287 0 0 0 12.533 7.437c25.174-42.429 50.52-75.459 61.84-89.578l8.814 4.984 32.717 18.501c-9.397 25.441-40.175 102.98-88.72 169.445-30.573 41.859-72.292 96.008-101.907 134.061-3.424 4.4-7.679 6.086-10.84 4.3-3.161-1.788-3.908-6.304-1.902-11.505 17.348-44.994 42.249-108.656 62.361-156.425 4.716-11.202 10.096-22.79 15.99-34.44a7.288 7.288 0 0 0-13.003-6.579c-6.047 11.952-11.57 23.85-16.417 35.364-20.183 47.938-45.142 111.749-62.527 156.837-5.406 14.022.287 24.886 8.327 29.433 2.891 1.635 6.324 2.589 9.967 2.589 6.488 0 13.636-3.027 19.547-10.623 29.677-38.134 71.493-92.409 102.175-134.416 48.4-66.272 79.477-143.164 89.885-171.02zm6.575-153.512a271.65 271.65 0 0 1 1.932-1.204l.194-.12c18.396-11.333 38.009-20.276 48.569-24.796 1.513 10.946 3.776 30.722 3.802 51.111l-.001.486c0 .7-.003 1.401-.009 2.102-.084 8.828-.604 17.307-1.668 25.041-3.268.69-6.38 1.103-9.292 1.232-1.727.075-4.769.058-5.712-.913-.965-.994-1.852-3.825-2.793-6.822-1.413-4.506-3.171-10.114-6.925-16.449-2.162-3.648-5.684-8.652-11.284-9.985a12.234 12.234 0 0 0-2.835-.336c-4.158 0-7.539 2.16-10.133 3.817-3.48 2.224-5.021 2.995-7.436 2.259-2.684-.818-3.383-2.252-4.401-9.022-.432-2.871-.946-6.29-2.327-9.481a218.741 218.741 0 0 1 10.319-6.92zm-35.26 30.717c3.033-4.648 7.342-9.348 12.568-14.005.106.637.202 1.27.289 1.855.963 6.41 2.576 17.139 14.561 20.794 9.067 2.765 15.619-1.417 19.532-3.918a45.508 45.508 0 0 1 1.899-1.171c.436.489 1.097 1.351 1.971 2.824 2.892 4.879 4.308 9.395 5.557 13.38 2.52 8.038 5.635 17.972 21.31 17.972.563 0 1.144-.013 1.74-.039a65.793 65.793 0 0 0 5.486-.485c-.959 3.249-2.073 6.241-3.365 8.908-7.988 16.489-29.592 27.379-39.732 31.733l-48.534-27.446c-1.493-10.932-3.295-35.06 6.718-50.402zm2.158 91.346-31.165-17.624a.574.574 0 0 1-.217-.781l7.655-13.536a.574.574 0 0 1 .781-.217l62.33 35.247c.051.029.207.117.27.346.064.229-.025.384-.054.435l-7.655 13.537c-.029.051-.117.207-.346.27s-.384-.025-.435-.054l-5.034-2.847-.004-.002-26.126-14.774zM163.499 174.123c0 18.694 15.208 33.902 33.902 33.902s33.902-15.208 33.902-33.902-15.208-33.902-33.902-33.902-33.902 15.208-33.902 33.902zm53.232 0c0 10.659-8.671 19.33-19.33 19.33s-19.33-8.671-19.33-19.33 8.671-19.33 19.33-19.33 19.33 8.671 19.33 19.33zM160.64 232.55c0-18.694-15.208-33.903-33.902-33.903s-33.902 15.209-33.902 33.903 15.208 33.902 33.902 33.902 33.902-15.208 33.902-33.902zm-33.902 19.33c-10.659 0-19.33-8.671-19.33-19.33s8.671-19.33 19.33-19.33 19.33 8.671 19.33 19.33c-.001 10.659-8.672 19.33-19.33 19.33zM79.311 328.146c0 18.694 15.209 33.902 33.903 33.902s33.902-15.208 33.902-33.902-15.208-33.902-33.902-33.902-33.903 15.208-33.903 33.902zm53.232 0c0 10.659-8.671 19.33-19.33 19.33s-19.33-8.671-19.33-19.33 8.671-19.33 19.33-19.33 19.33 8.672 19.33 19.33z"/></svg>