<svg height="512pt" viewBox="0 -47 512 512" width="512pt" xmlns="http://www.w3.org/2000/svg"><path d="M421.941 168.473v125.02c-57.14 45.765-128.476 64.573-197.277 56.41-47.996-5.688-94.754-24.493-134.602-56.41v-125.02zm0 0" fill="#545d68"/><path d="M171.438 168.477v169.476c-28.907-9.703-56.485-24.527-81.375-44.457v-125.02zM356.973 339.441a7.6 7.6 0 0 1-7.602-7.601V193.246a7.604 7.604 0 1 1 15.207 0V331.84c0 4.2-3.406 7.601-7.605 7.601zm0 0" fill="#3b454f"/><path d="M504.395 102.309v34.722L256 231.738 7.605 137.031V102.31L256 7.605zm0 0" fill="#545d68"/><path d="M256 197.012v34.726L7.605 137.031V102.31zm0 0" fill="#3b454f"/><path d="M404.906 390.156c0 11.758-9.531 21.29-21.289 21.29-11.758 0-21.289-9.532-21.289-21.29 0-11.761 9.531-21.293 21.29-21.293 11.757 0 21.288 9.532 21.288 21.293zm0 0" fill="#f7d360"/><path d="M507.105 95.203 345.2 33.477a7.607 7.607 0 0 0-9.816 4.394 7.606 7.606 0 0 0 4.398 9.816l143.27 54.622-99.18 37.816-124.734-56.477a7.6 7.6 0 0 0-10.063 3.79 7.606 7.606 0 0 0 3.79 10.066l110.988 50.254L256 188.875 28.95 102.309 256 15.742l55.953 21.336a7.613 7.613 0 0 0 9.817-4.398 7.603 7.603 0 0 0-4.399-9.813L258.711.5a7.606 7.606 0 0 0-5.422 0L4.895 95.203A7.61 7.61 0 0 0 0 102.31v34.726a7.61 7.61 0 0 0 4.895 7.106l77.566 29.57v26.351a7.604 7.604 0 1 0 15.207 0v-20.55l155.621 59.332c.875.332 1.793.5 2.711.5s1.836-.168 2.71-.5l117.306-44.723v120.344C339.188 333.797 297.89 344.156 256 344.156c-57.172 0-113.25-19.273-158.332-54.347V230.48a7.604 7.604 0 1 0-15.207 0v63.012a7.599 7.599 0 0 0 2.848 5.934c48.246 38.652 108.867 59.937 170.691 59.937 41.695 0 82.836-9.695 120.016-27.855v30.777c-12.254 3.348-21.29 14.57-21.29 27.871 0 15.93 12.962 28.895 28.891 28.895 15.934 0 28.895-12.965 28.895-28.895 0-13.3-9.035-24.523-21.29-27.87v-38.81a271.025 271.025 0 0 0 35.473-24.05 7.603 7.603 0 0 0 2.852-5.934V173.707l77.558-29.57A7.603 7.603 0 0 0 512 137.03V102.31a7.61 7.61 0 0 0-4.895-7.106zm-109.8 294.953c0 7.543-6.14 13.684-13.688 13.684-7.543 0-13.683-6.14-13.683-13.684 0-7.547 6.14-13.687 13.683-13.687 7.547 0 13.688 6.14 13.688 13.687zM15.207 113.348l233.188 88.906v18.445L15.207 131.793zm248.398 107.351v-18.445l112.41-42.86v18.45zm150.73 69.106a254.74 254.74 0 0 1-23.112 16.007V188.32l23.113-8.812zm-23.112-117.762v-18.445l105.57-40.25v18.445zm0 0"/></svg>