<svg height="512pt" viewBox="0 0 512 512" width="512pt" xmlns="http://www.w3.org/2000/svg"><path d="M350.043 504.5H118.641c-5.801 0-8.301-7.2-3.801-10.898l95-76.5h48.902l95 76.5c4.598 3.699 2.098 10.898-3.699 10.898zm0 0" fill="#dd9666"/><path d="m353.84 493.602-95-76.5H209.94l-9.3 7.5 99.199 79.796h50.3c5.7.102 8.2-7.097 3.7-10.796zm0 0" fill="#c97e4b"/><path d="M265.64 75.2a31.776 31.776 0 0 1 5.5-17.9l17.403-26c4.797-7.198 2.797-16.902-4.602-21.5-2.398-1.5-5.3-2.3-8.199-2.3h-82.8c-2.899 0-5.7.8-8.2 2.3-7.3 4.598-9.402 14.302-4.601 21.5l17.402 26c3.598 5.302 5.5 11.5 5.5 17.9 0 10.8-5.402 20.902-14.402 26.8-27 17.7-80.5 65.7-59.598 159.3 27.7 123.302 31.7 123.302 31.7 123.302H307.94s4 0 31.602-123.301c20.898-93.602-32.602-141.602-59.602-159.301-8.898-5.898-14.3-16-14.3-26.8zm0 0" fill="#465058"/><path d="M280.043 102c-9-5.898-14.402-16-14.402-26.8a31.776 31.776 0 0 1 5.5-17.9l17.402-26c4.797-7.198 2.797-16.902-4.602-21.5-2.398-1.5-5.3-2.3-8.199-2.3h-29.3l-17.899 37.8c-11.902 25-6.703 55 13.2 74.2 26 25 53.8 70 37.698 141.898C251.84 384.7 247.84 384.7 247.84 384.7h60.101s4 0 31.602-123.3c21-93.7-32.5-141.7-59.5-159.399zm0 0" fill="#323e44"/><path d="M442.84 383.602h-417c-6.7 0-12.5 4.699-13.899 11.296l-4.199 20.204c-1.8 8.796 4.899 17 13.899 17h425.5c9 0 15.699-8.301 13.902-17L456.84 394.8c-1.5-6.5-7.2-11.2-14-11.2zm0 0" fill="#ff8c51"/><path d="m460.941 415.102-4.199-20.301c-1.402-6.602-7.199-11.301-13.902-11.301h-47.598l10.098 48.602h41.703c9.098.097 15.797-8.204 13.898-17zm0 0" fill="#f26e3b"/><path d="M461.242 231.898c-33.101-2.296-39.8-6.796-44.8-12.796-2.899-3.5-6.301-6.5-10.2-8.801l-76.601-46.5c-7.801-4.7-18-2.2-22.7 5.597-4.699 7.801-2.199 18 5.602 22.704l30 18.199c1.598 1 .898 3.5-1 3.5H238.141c-9 0-16.598 7-16.899 16-.3 9.398 7.2 17.199 16.5 17.199h-30c-9.3 0-16.902 7.7-16.5 17.2.301 9 8 16 16.899 16h13.902c-9.102 0-16.602 7.402-16.602 16.6 0 9.098 7.399 16.598 16.602 16.598h33.7c-9.102 0-16.602 7.403-16.602 16.602 0 9.102 7.402 16.602 16.601 16.602h77.801c23.297 0 46.5-3.5 68.797-10.5l58.902-7.403zm0 0" fill="#ffe1cc"/><path d="M304.84 320.602h-82.797c-4.102 0-7.5-3.403-7.5-7.5 0-4.102 3.398-7.5 7.5-7.5h82.797c4.101 0 7.5 3.398 7.5 7.5 0 4.097-3.297 7.5-7.5 7.5zM304.84 287.5h-96.7c-4.097 0-7.5-3.398-7.5-7.5s3.403-7.5 7.5-7.5h96.7c4.101 0 7.5 3.398 7.5 7.5s-3.297 7.5-7.5 7.5zM304.84 254.398h-67.098c-4.101 0-7.5-3.398-7.5-7.5 0-4.097 3.399-7.5 7.5-7.5h67.098c4.101 0 7.5 3.403 7.5 7.5 0 4.102-3.297 7.5-7.5 7.5zM333.543 353.8h-77.8c-4.102 0-7.5-3.402-7.5-7.5 0-4.1 3.398-7.5 7.5-7.5h77.898c4.101 0 7.5 3.4 7.5 7.5 0 4.098-3.399 7.5-7.598 7.5zm0 0"/><path d="M495.242 338.102h-30.5c-4.8 0-8.8-3.903-8.8-8.801v-96.903c0-4.796 3.898-8.796 8.8-8.796h30.5c4.801 0 8.801 3.898 8.801 8.796v96.903c0 4.898-3.902 8.8-8.8 8.8zm0 0" fill="#45748c"/><path d="M456.043 329.398c0 4.801 3.898 8.801 8.797 8.801h30.5c4.8 0 8.8-3.898 8.8-8.8v-50.797h-48zm0 0" fill="#236575"/><path d="M309.043 134.398H159.641c-4.098 0-7.5-3.398-7.5-7.5 0-4.097 3.402-7.5 7.5-7.5h149.402c4.098 0 7.5 3.403 7.5 7.5 0 4.102-3.3 7.5-7.5 7.5zM277.64 55h-86.398c-4.101 0-7.5-3.398-7.5-7.5s3.399-7.5 7.5-7.5h86.399c4.101 0 7.5 3.398 7.5 7.5s-3.301 7.5-7.5 7.5zM320.84 168.898H199.44c-4.101 0-7.5-3.398-7.5-7.5 0-4.097 3.399-7.5 7.5-7.5H320.84c4.101 0 7.5 3.403 7.5 7.5 0 4.102-3.399 7.5-7.5 7.5zM169.441 168.898h-32.5c-4.101 0-7.5-3.398-7.5-7.5 0-4.097 3.399-7.5 7.5-7.5h32.5c4.102 0 7.5 3.403 7.5 7.5 0 4.102-3.398 7.5-7.5 7.5zM495.242 345.602h-30.5c-9 0-16.3-7.301-16.3-16.301v-96.903c0-9 7.3-16.296 16.3-16.296h30.5c9 0 16.301 7.296 16.301 16.296v96.903c0 9-7.3 16.3-16.3 16.3zm-30.5-114.403c-.699 0-1.3.602-1.3 1.301v96.898c0 .704.601 1.301 1.3 1.301h30.5c.7 0 1.301-.597 1.301-1.3V232.5c0-.7-.602-1.3-1.3-1.3zm0 0"/><path d="M333.543 353.8h-77.8c-13.302 0-24.102-10.8-24.102-24.1 0-3.2.601-6.302 1.8-9.098h-11.398c-13.3 0-24.102-10.801-24.102-24.102 0-3.7.801-7.2 2.301-10.3-9.402-3.098-16.199-11.598-16.601-21.9-.2-6.6 2.199-12.8 6.699-17.6 4.601-4.7 10.703-7.4 17.3-7.4h7.7a22.344 22.344 0 0 1-1.7-9.902c.5-13 11.2-23.199 24.403-23.199h83.398l-12.898-7.8c-5.5-3.297-9.402-8.598-10.902-14.797-1.5-6.204-.5-12.704 2.8-18.204 6.899-11.296 21.7-15 33-8.097l76.602 46.5c4.598 2.8 8.7 6.3 12.098 10.398 2.699 3.301 6.101 7.301 34.402 9.7 4.098.3 7.2 4 6.797 8.101-.297 4.102-4 7.2-8.098 6.8-29.3-2.5-38-7-44.699-15.1a33.456 33.456 0 0 0-8.3-7.2L325.64 170c-4.301-2.602-9.801-1.2-12.399 3.102-1.3 2.097-1.601 4.5-1 6.796.598 2.301 2 4.301 4.098 5.602l30 18.2c3.601 2.198 5.3 6.5 4.203 10.6a9.308 9.308 0 0 1-9 6.9H238.141c-5 0-9.301 3.902-9.399 8.698-.101 2.5.801 4.801 2.5 6.602 1.7 1.8 4 2.8 6.5 2.8 4.098 0 7.5 3.4 7.5 7.5 0 4.098-3.402 7.5-7.5 7.5h-30c-2.5 0-4.8 1-6.5 2.802-1.699 1.796-2.601 4.097-2.5 6.597.2 4.801 4.399 8.7 9.399 8.7h13.902c4.098 0 7.5 3.402 7.5 7.5 0 4.101-3.402 7.5-7.5 7.5-5 0-9.102 4.101-9.102 9.101s4.102 9.102 9.102 9.102h33.7c4.097 0 7.5 3.398 7.5 7.5 0 4.097-3.403 7.5-7.5 7.5-5 0-9.102 4.097-9.102 9.097s4.101 9.102 9.101 9.102h77.899c22.601 0 45-3.403 66.601-10.102.399-.097.899-.199 1.301-.3l53.598-6.797c4.101-.5 7.902 2.398 8.402 6.5.5 4.097-2.402 7.898-6.5 8.398l-53 6.7c-22.902 7-46.602 10.6-70.5 10.6zm0 0"/><path d="M160.14 391.102c-2.8 0-5.5-1.602-6.8-4.204-4.598-9.398-15.797-53.398-31.5-123.898-22.2-99.2 36.5-150 62.8-167.2 6.903-4.5 11-12.198 11-20.5 0-4.902-1.398-9.6-4.199-13.698l-17.398-26c-3.5-5.204-4.703-11.403-3.402-17.5C171.94 12 175.543 6.8 180.84 3.5c3.601-2.3 7.8-3.5 12.101-3.5h82.801c4.301 0 8.5 1.2 12.098 3.5 5.3 3.3 8.902 8.5 10.203 14.602 1.297 6.097.098 12.296-3.402 17.5l-17.399 26c-2.699 4.097-4.199 8.796-4.199 13.699 0 8.3 4.098 16 11 20.5 18.098 11.898 42.7 33.3 56.898 67.8 1.602 3.797-.3 8.2-4.101 9.797-3.797 1.602-8.2-.296-9.797-4.097-12.703-31-34.902-50.301-51.203-61-11.098-7.301-17.797-19.7-17.797-33.102 0-7.898 2.297-15.5 6.7-22.097l17.398-26c1.199-1.801 1.601-3.903 1.199-6-.399-2.102-1.7-3.903-3.5-5-1.2-.801-2.7-1.204-4.2-1.204h-82.8c-1.5 0-2.899.403-4.2 1.204-1.8 1.097-3 2.898-3.5 5-.398 2.097 0 4.199 1.2 6l17.402 26c4.399 6.597 6.7 14.199 6.7 22.097 0 13.403-6.7 25.7-17.801 33.102-29.399 19.3-75.801 64.597-56.399 151.398 22.899 102.403 29.301 118.403 30.399 120.602 1.8 3.699.199 8.199-3.5 10-.801.5-1.899.8-3 .8zM308.64 391.102c-1.097 0-2.199-.204-3.3-.801-3.7-1.801-5.297-6.301-3.5-10 .601-1.301 3.3-7.903 10.5-35.903 1-4 5.101-6.398 9.101-5.398s6.399 5.102 5.399 9.102c-5.399 21-9.2 34.097-11.5 38.796-1.297 2.602-3.899 4.204-6.7 4.204zm0 0"/><path d="M447.14 439.7H21.64c-6.5 0-12.699-2.9-16.8-8A21.863 21.863 0 0 1 .44 413.601l4.2-20.301c2.101-10 11-17.2 21.199-17.2H442.94c10.2 0 19.102 7.2 21.2 17.2l4.199 20.3c1.3 6.399-.297 13-4.399 18.098-4.101 5.102-10.3 8-16.8 8zm-421.3-48.598c-3.098 0-5.899 2.199-6.5 5.296l-4.2 20.301c-.597 2.7.602 4.602 1.403 5.602.7.898 2.398 2.5 5.2 2.5h425.5c2.8 0 4.398-1.5 5.198-2.5.7-.903 1.899-2.903 1.399-5.602l-4.2-20.3c-.597-3.098-3.398-5.297-6.5-5.297zM350.043 512H118.641c-5.801 0-10.899-3.602-12.801-9.102-1.899-5.5-.297-11.398 4.3-15.097l39.102-31.5c3.2-2.602 7.899-2.102 10.5 1.097 2.598 3.204 2.098 7.903-1.101 10.5l-36 29h223.402l-36-28.898c-3.203-2.602-3.703-7.3-1.102-10.5 2.602-3.2 7.301-3.7 10.5-1.102l39.102 31.403c4.598 3.699 6.2 9.597 4.297 15.097-1.899 5.5-6.899 9.102-12.797 9.102zm0 0"/></svg>