<svg xmlns="http://www.w3.org/2000/svg" viewBox="0 0 512 512" style="enable-background:new 0 0 512 512" xml:space="preserve"><path style="fill:#2a2a2c" d="M332.843 41.928H179.157c-16.335 0-29.577 13.356-29.577 29.832v60.915h38.66v-43.36c0-7.456 5.993-13.502 13.387-13.502h108.749c7.393 0 13.387 6.045 13.387 13.502v43.36h38.66V71.759c-.002-16.475-13.244-29.831-29.58-29.831z"/><path style="fill:#d9d9db" d="M486.695 470.071H25.305c-9.317 0-16.87-7.553-16.87-16.87V149.544c0-9.317 7.553-16.87 16.87-16.87h461.39c9.317 0 16.87 7.553 16.87 16.87v303.657c0 9.317-7.553 16.87-16.87 16.87z"/><path style="fill:#9a9a9e" d="M486.695 132.674h-21.368c9.317 0 16.87 7.553 16.87 16.87v303.657c0 9.317-7.553 16.87-16.87 16.87h21.368c9.317 0 16.87-7.553 16.87-16.87V149.544c0-9.317-7.553-16.87-16.87-16.87z"/><path style="fill:#a86b38" d="M336.028 353.168c-5.909-5.853-21.934-23.344-34.382-51.919l-.002.003c-7.435-17.883-25.066-30.461-45.641-30.461s-38.207 12.578-45.641 30.461l-.002-.003c-15.555 35.707-36.712 54.127-36.712 54.127h.007c-10.11 9.048-16.477 22.192-16.477 36.827 0 27.29 22.123 49.413 49.413 49.413 4.45 0 8.759-.598 12.86-1.7 10.204-1.217 24.673-2.638 36.554-2.638 11.967 0 26.671 1.443 36.98 2.665a49.491 49.491 0 0 0 12.766 1.673c27.29 0 49.413-22.123 49.413-49.413-.001-15.877-7.498-29.994-19.136-39.035z"/><path style="fill:#8c4a14" d="M336.028 353.168c-5.909-5.853-21.934-23.344-34.382-51.919l-.002.004c-7.435-17.883-25.066-30.461-45.641-30.461a49.56 49.56 0 0 0-11.247 1.285c15.599 3.633 28.358 14.654 34.394 29.175l.002-.004c12.448 28.574 28.472 46.066 34.382 51.919 11.638 9.041 19.135 23.159 19.135 39.036 0 23.405-16.278 42.996-38.126 48.104a49.376 49.376 0 0 0 11.206 1.31c27.29 0 49.413-22.123 49.413-49.414.001-15.877-7.496-29.994-19.134-39.035z"/><ellipse transform="scale(-1) rotate(83.247 236.746 -232.954)" style="fill:#a86b38" cx="207.004" cy="210.373" rx="49.4" ry="36.615"/><path style="fill:#8c4a14" d="M243.367 206.053c-3.21-27.093-22.089-47.126-42.171-44.748a27.641 27.641 0 0 0-7.9 2.173c13.939 5.895 25.169 22.249 27.577 42.576 2.768 23.361-7.026 44.329-22.648 51.191 4.639 1.963 9.579 2.767 14.594 2.173 20.081-2.38 33.758-26.272 30.548-53.365z"/><ellipse transform="scale(-1) rotate(62.676 468.221 -240.092)" style="fill:#a86b38" cx="146.193" cy="285.102" rx="36.168" ry="26.81"/><path style="fill:#8c4a14" d="M170.009 272.821c-9.169-17.748-27.266-26.627-40.421-19.831a20.68 20.68 0 0 0-1.052.588c7.414 3.557 14.34 10.261 18.98 19.242 8.919 17.265 6.101 36.558-6.165 43.853 7.238 3.473 14.943 3.948 21.442.589 13.153-6.795 16.385-26.693 7.216-44.441z"/><ellipse transform="scale(-1) rotate(-83.247 -236.736 343.201)" style="fill:#a86b38" cx="304.97" cy="210.365" rx="49.4" ry="36.615"/><path style="fill:#8c4a14" d="M310.805 161.306c-5.015-.594-9.954.209-14.595 2.173 15.623 6.862 25.416 27.829 22.649 51.191-2.408 20.326-13.638 36.68-27.577 42.576a27.641 27.641 0 0 0 7.9 2.173c20.081 2.379 38.962-17.656 42.171-44.748 3.209-27.095-10.468-50.987-30.548-53.365z"/><ellipse transform="scale(-1) rotate(-62.676 -468.29 600.807)" style="fill:#a86b38" cx="365.834" cy="285.143" rx="36.168" ry="26.81"/><path style="fill:#8c4a14" d="M382.414 252.989c-6.499-3.357-14.203-2.884-21.443.589 12.269 7.293 15.086 26.589 6.168 43.853-4.639 8.98-11.565 15.684-18.979 19.242.344.205.692.403 1.05.588 13.155 6.796 31.252-2.083 40.421-19.832 9.169-17.748 5.938-37.645-7.217-44.44z"/><path style="fill:#f94851" d="M300.354 350.681h-28.571V322.11h-31.566v28.571h-28.57v31.567h28.57v28.569h31.566v-28.569h28.571z"/><path d="M202.674 297.774a8.438 8.438 0 1 0 15.476 6.717c6.38-15.347 21.238-25.263 37.853-25.263s31.472 9.916 37.853 25.263c.052.124.106.247.163.368 12.926 29.563 29.525 47.816 36.074 54.303.24.237.494.46.761.668 10.089 7.837 15.875 19.637 15.875 32.374 0 22.595-18.383 40.978-40.979 40.978-3.573 0-7.137-.467-10.593-1.389a8.442 8.442 0 0 0-1.18-.226c-10.481-1.243-25.577-2.724-37.974-2.724-12.325 0-27.223 1.468-37.551 2.697a8.588 8.588 0 0 0-1.192.229 41.114 41.114 0 0 1-10.671 1.413c-22.595 0-40.978-18.384-40.978-40.978a41.038 41.038 0 0 1 13.668-30.541c.063-.056.125-.114.186-.171 1.815-1.633 11.795-10.942 22.798-27.629a8.435 8.435 0 1 0-14.085-9.285c-10.541 15.989-19.99 24.369-20.069 24.439-.105.09-.206.183-.304.278-12.119 10.96-19.063 26.582-19.063 42.91 0 31.898 25.95 57.848 57.848 57.848 4.863 0 9.716-.615 14.436-1.829 9.844-1.162 23.702-2.51 34.978-2.51 11.355 0 25.416 1.365 35.415 2.539a57.985 57.985 0 0 0 14.332 1.801c31.898 0 57.849-25.95 57.849-57.848 0-17.807-8.001-34.31-21.972-45.365-6.093-6.099-20.694-22.438-32.246-48.957l-.053-.12c-9.063-21.516-29.963-35.402-53.323-35.402-23.368-.005-44.271 13.888-53.332 35.412zM200.204 152.929c-24.667 2.923-41.683 31.064-37.931 62.732 3.539 29.875 24.314 52.381 47.366 52.378 1.383 0 2.778-.081 4.172-.246 12.432-1.473 23.206-9.143 30.337-21.599 6.662-11.638 9.359-26.245 7.596-41.131-3.753-31.668-26.886-55.041-51.54-52.134zm29.301 84.884c-4.409 7.702-10.688 12.398-17.68 13.227-15.172 1.82-30.19-15.312-32.803-37.363-2.611-22.05 7.996-42.198 23.163-43.994a18.664 18.664 0 0 1 2.199-.129c14.393 0 28.119 16.512 30.604 37.494v.001c1.343 11.317-.605 22.243-5.483 30.764zM125.715 245.495c-8.668 4.478-14.659 13.319-16.435 24.255-1.651 10.167.336 21.372 5.595 31.552 8.562 16.573 23.992 26.629 38.481 26.629 4.616 0 9.134-1.02 13.306-3.175 17.266-8.921 22.129-33.954 10.839-55.807h.001c-5.259-10.18-13.247-18.285-22.494-22.822-9.949-4.881-20.625-5.11-29.293-.632zm36.799 31.197c6.901 13.358 5.254 28.504-3.594 33.076-8.851 4.573-22.156-2.851-29.055-16.209-3.558-6.887-4.991-14.58-3.932-21.105.535-3.296 2.225-9.233 7.526-11.973 1.893-.977 3.851-1.344 5.723-1.344 3.373 0 6.468 1.19 8.394 2.135 5.936 2.913 11.381 8.533 14.938 15.42zM311.796 152.929c-24.652-2.897-47.787 20.465-51.539 52.132v.001c-1.763 14.886.935 29.494 7.596 41.131 7.13 12.456 17.903 20.126 30.335 21.599 1.44.17 2.876.255 4.307.255 10.932 0 21.533-4.933 30.235-14.17 9.197-9.759 15.233-23.331 16.996-38.217 1.763-14.887-.933-29.495-7.596-41.132-7.127-12.455-17.902-20.127-30.334-21.599zm21.18 60.747c-1.341 11.319-5.787 21.488-12.521 28.633-6.088 6.458-13.288 9.558-20.282 8.731-6.992-.828-13.27-5.525-17.68-13.227-4.878-8.52-6.824-19.446-5.484-30.767v.001c2.613-22.049 17.638-39.147 32.802-37.366 6.992.828 13.271 5.525 17.68 13.228 4.879 8.521 6.827 19.448 5.485 30.767zM334.498 268.95c-5.259 10.18-7.245 21.385-5.595 31.552 1.777 10.936 7.767 19.777 16.435 24.254 4.134 2.136 8.725 3.202 13.477 3.201 5.209 0 10.612-1.281 15.816-3.833 9.247-4.536 17.236-12.64 22.494-22.82 5.259-10.18 7.246-21.385 5.595-31.552-1.777-10.937-7.767-19.778-16.435-24.255-8.668-4.478-19.345-4.249-29.292.633-9.248 4.535-17.236 12.639-22.495 22.82zm14.988 7.742c3.558-6.887 9.003-12.507 14.938-15.419 1.928-.946 5.022-2.135 8.394-2.135 1.873 0 3.832.367 5.723 1.344 5.302 2.74 6.991 8.677 7.526 11.973 1.059 6.525-.373 14.218-3.932 21.105-3.557 6.887-9.002 12.506-14.938 15.419-2.997 1.471-8.818 3.528-14.119.79-5.302-2.739-6.991-8.677-7.526-11.973-1.057-6.525.376-14.217 3.934-21.104z"/><path d="M503.565 405.632a8.436 8.436 0 0 0-8.435 8.435v39.135c0 4.652-3.783 8.435-8.435 8.435H25.305c-4.652 0-8.435-3.783-8.435-8.435v-229.06A8.435 8.435 0 0 0 0 224.141v229.06c0 13.952 11.351 25.305 25.305 25.305h461.39c13.954 0 25.305-11.352 25.305-25.305v-39.135a8.434 8.434 0 0 0-8.435-8.434zM486.695 124.239h-115.84v-52.48c0-21.1-17.052-38.265-38.012-38.265H179.157c-20.96 0-38.012 17.167-38.012 38.265v52.48H25.305C11.351 124.239 0 135.591 0 149.544v40.864a8.435 8.435 0 0 0 16.87 0v-40.864c0-4.652 3.783-8.435 8.435-8.435H486.696c4.652 0 8.435 3.783 8.435 8.435V380.33a8.435 8.435 0 0 0 16.869 0V149.544c0-13.953-11.351-25.305-25.305-25.305zm-171.369 0H196.674V89.314c0-2.794 2.221-5.067 4.952-5.067h108.749c2.73 0 4.951 2.273 4.951 5.067v34.925zm38.66 0h-21.79V89.314c0-12.096-9.789-21.936-21.821-21.936H201.626c-12.033 0-21.822 9.841-21.822 21.936v34.925h-21.79v-52.48c0-11.798 9.484-21.395 21.142-21.395h153.687c11.658 0 21.142 9.598 21.142 21.395v52.48z"/><path d="M271.783 313.675h-31.567a8.434 8.434 0 0 0-8.435 8.435v20.135h-20.136a8.434 8.434 0 0 0-8.435 8.435v31.567a8.435 8.435 0 0 0 8.435 8.435h20.136v20.135a8.435 8.435 0 0 0 8.435 8.435h31.567a8.434 8.434 0 0 0 8.435-8.435v-20.134h20.135a8.434 8.434 0 0 0 8.435-8.435v-31.567a8.435 8.435 0 0 0-8.435-8.435h-20.135v-20.135a8.435 8.435 0 0 0-8.435-8.436zm20.136 45.441v14.697h-20.135a8.434 8.434 0 0 0-8.435 8.435v20.135h-14.697v-20.135a8.435 8.435 0 0 0-8.435-8.435h-20.136v-14.697h20.136a8.434 8.434 0 0 0 8.435-8.435v-20.135h14.697v20.135a8.435 8.435 0 0 0 8.435 8.435h20.135z"/></svg>