<svg height="512pt" viewBox="0 0 512 512" width="512pt" xmlns="http://www.w3.org/2000/svg"><path d="M245.46 36.48V22.72h-60.858V7.5h-60.86v15.219h-60.86v109.828H7.5v131.855l55.383 55.93v33.32h178.75V320.06l55.926-55.383V36.48zm0 0" fill="#ffdaaa"/><path d="M123.742 7.5h60.86v125.047h-60.86zm0 0" fill="#ffdaaa"/><path d="M184.602 22.719h60.859v99.965H184.6zm0 0" fill="#ffdaaa"/><path d="M245.46 36.48h52.099v81.38H245.46zM123.742 22.719h-60.86v109.828h60.86zm0 0" fill="#ffdaaa"/><path d="M35.191 353.652h234.676v77.328H35.191zm0 0" fill="#c6c5ca"/><path d="M62.883 430.98h178.75v73.497H62.883zm0 0" fill="#ffdaaa"/><path d="M290.16 415.98h-20.293v-47.332h20.293c2.883 2.883 4.496 4.497 7.375 7.38v32.577c-2.879 2.88-4.492 4.497-7.375 7.375zm0 0" fill="#e0e0e2"/><g fill="#ff9478"><path d="M123.742 7.5h30v15.219h-30zM37.5 264.402V132.547h-30v131.855l55.383 55.93v33.32h30v-33.32zM62.883 22.719h30v109.828h-30zm0 0"/><path d="M123.742 7.5h30v125.047h-30zM184.602 22.719h30v99.965h-30zM245.46 36.48h29.997v81.38h-29.996zM62.883 22.719h30v109.828h-30zm0 0"/></g><path d="M35.191 353.652h30v77.328h-30zm0 0" fill="#898890"/><path d="M62.883 430.98h30v73.497h-30zm0 0" fill="#ff9478"/><path d="m229.96 169.262-52.858 52.855v72.04h15v-65.825l48.464-48.465zM27.691 438.48h249.676v-92.328H27.691zm234.676-77.332v62.332H42.691v-15h54.246v-15H42.691v-32.332zM234.133 496.977H70.383V450.98h-15v60.997h193.75V450.98h-15zm0 0"/><path d="M55.383 333.652h15v-5.82h60.61v-15H66.011L15 261.32V140.047h57.5v25.984h15v-25.984h40.996v21.941L98.47 192.016H39.164v15h45.309l25.324 25.32v44.82h15v-51.031l-19.613-19.613 38.312-38.313v-28.152h48.606v-9.863h60.859v-4.825h37.101v136.188l-55.93 55.387v16.714h15v-10.46l55.93-55.387V28.984h-52.101V15.22H192.1V0h-75.859v15.219h-60.86v109.828H0v142.441l55.383 55.93zM290.059 43.98v66.38H252.96V43.98zM237.96 30.22v84.969H192.1v-84.97zM131.242 15h45.86v110.047h-45.86zm-15 15.219v94.828h-45.86V30.219zM512 399.441l-.05-14.996-32.391.11c-1.301-4.762-3.829-9.121-7.426-12.692-5.395-5.36-12.543-8.308-20.145-8.308h-.101l-16.168.054c-13.168.047-24.258 9.036-27.52 21.184l-6.68.023c-3.335-12.097-14.437-20.996-27.566-20.996h-.098l-16.167.055c-7.637.023-14.81 3.023-20.188 8.441-3.574 3.594-6.074 7.973-7.344 12.743l-25.12.082v-12.223l-11.77-11.77h-8.399v15h2.188l2.984 2.985v26.363l-2.984 2.984h-2.188v15h8.399l11.77-11.773v-11.566l25.171-.086c1.3 4.761 3.832 9.117 7.43 12.691 5.394 5.356 12.543 8.305 20.144 8.305h.098l16.168-.055c13.172-.043 24.262-9.031 27.523-21.184l6.68-.019c3.336 12.098 14.438 20.996 27.566 20.996h.098l16.168-.055c7.637-.027 14.809-3.023 20.188-8.441 3.57-3.598 6.07-7.973 7.343-12.742zM374 406l-16.168.055h-.05a13.5 13.5 0 0 1-9.575-3.95 13.582 13.582 0 0 1-1.734-2.101l9.46-.035-.05-14.996-9.461.03c.496-.753 1.07-1.46 1.719-2.116a13.51 13.51 0 0 1 9.597-4.012l16.172-.055h.043c4.707 0 8.863 2.403 11.305 6.051l-9.688.035.051 14.996 9.688-.03c-2.426 3.675-6.586 6.112-11.309 6.128zm87.629-4.277a13.51 13.51 0 0 1-9.598 4.011l-16.168.055h-.047a13.5 13.5 0 0 1-9.578-3.945 13.838 13.838 0 0 1-1.734-2.106l9.46-.031-.05-15-9.453.031c2.426-3.676 6.586-6.113 11.309-6.129l16.171-.054h.047c3.614 0 7.012 1.402 9.574 3.949a13.676 13.676 0 0 1 1.739 2.105l-9.7.032.051 15 9.7-.036c-.5.754-1.075 1.465-1.723 2.118zm0 0"/><path d="M280.063 254.25h-15v-61.258h15zm0-71.258h-15v-15h15zm0-25h-15v-15h15zM244.871 386.148h-77.578v-15h77.578zm-87.578 0h-15v-15h15zm-25 0h-14.996v-15h14.996zm0 0" fill="#fff"/></svg>