<svg height="512pt" viewBox="-51 0 512 512" width="512pt" xmlns="http://www.w3.org/2000/svg"><path d="M402.5 256c0 6.867-2.77 13.086-7.25 17.605-9.082 9.157-15.105 20.872-17.012 33.622C361.414 419.89 290.246 504.5 205 504.5S48.586 419.89 31.762 307.23c-1.907-12.753-7.93-24.468-17.012-33.625-4.48-4.52-7.25-10.738-7.25-17.605s2.77-13.086 7.25-17.605c9.082-9.157 15.105-20.872 17.012-33.625C48.586 92.11 119.754 7.5 205 7.5s156.414 84.61 173.238 197.273c1.907 12.754 7.93 24.465 17.012 33.622A24.928 24.928 0 0 1 402.5 256zm0 0" fill="#af8164"/><path d="M395.25 238.395c-9.082-9.157-15.105-20.872-17.012-33.625C361.414 92.11 290.246 7.5 205 7.5c-5.055 0-10.055.309-15 .89 78.488 9.25 142.41 90.395 158.238 196.383 1.907 12.754 1.907 89.704 0 102.457C332.41 413.215 268.488 494.36 190 503.61c4.945.581 9.945.89 15 .89 85.246 0 156.414-84.61 173.238-197.27 1.907-12.753 7.93-24.468 17.012-33.625 4.48-4.52 7.25-10.738 7.25-17.605s-2.77-13.086-7.25-17.605zm0 0" fill="#9a7055"/><path d="M205 474.5c-37.309 0-73.078-21.375-100.723-60.188C74.434 372.414 58 316.192 58 256s16.434-116.414 46.277-158.313C131.922 58.876 167.691 37.5 205 37.5s73.078 21.375 100.723 60.188C335.566 139.585 352 195.808 352 256s-16.434 116.414-46.277 158.313C278.078 453.125 242.309 474.5 205 474.5zm0 0" fill="#fbe1a8"/><path d="M205 444.5c-27.336 0-54.43-16.902-76.285-47.594C102.46 360.046 88 310.008 88 256s14.46-104.047 40.715-140.906C150.57 84.402 177.665 67.5 205 67.5s54.43 16.902 76.285 47.594C307.54 151.954 322 201.992 322 256s-14.46 104.047-40.715 140.906C259.43 427.598 232.335 444.5 205 444.5zm0 0" fill="#bdf9ff"/><path d="M205 437c-17.406 0-35.117-7.844-51.223-22.676a7.498 7.498 0 0 0-10.597.434 7.498 7.498 0 0 0 .433 10.597C162.535 442.785 183.762 452 205 452c29.828 0 59.09-18.02 82.395-50.742C314.547 363.14 329.5 311.55 329.5 256s-14.953-107.14-42.105-145.258C264.09 78.02 234.828 60 205 60s-59.09 18.02-82.395 50.742C95.453 148.86 80.5 200.45 80.5 256c0 54.86 14.625 105.98 41.184 143.95a7.488 7.488 0 0 0 10.441 1.847 7.495 7.495 0 0 0 1.848-10.442C109.164 355.883 95.5 307.812 95.5 256c0-52.46 13.965-100.957 39.32-136.555C155.234 90.785 180.156 75 205 75s49.766 15.785 70.18 44.445C300.535 155.043 314.5 203.54 314.5 256s-13.965 100.957-39.32 136.555C254.766 421.215 229.844 437 205 437zm0 0"/><path d="M400.574 233.113c-8.101-8.168-13.261-18.351-14.918-29.449-8.418-56.375-30.691-107.758-62.71-144.691C289.968 20.945 248.081 0 205 0 151.488 0 100.71 32.066 65.684 87.984a7.497 7.497 0 0 0 2.375 10.336 7.502 7.502 0 0 0 10.34-2.375C110.62 44.504 156.765 15 205 15c38.668 0 76.527 19.105 106.61 53.8 30.18 34.805 51.206 83.49 59.21 137.079 2.133 14.277 8.739 27.348 19.106 37.797 3.27 3.3 5.074 7.676 5.074 12.324s-1.805 9.023-5.074 12.324c-10.367 10.45-16.973 23.52-19.106 37.797-8.004 53.59-29.03 102.274-59.21 137.078C281.526 477.895 243.667 497 205 497s-76.527-19.105-106.61-53.8c-30.18-34.805-51.206-83.49-59.21-137.079-2.133-14.277-8.739-27.348-19.106-37.797C16.804 265.024 15 260.648 15 256s1.805-9.023 5.074-12.324c10.367-10.45 16.973-23.52 19.106-37.797 4.41-29.54 12.625-57.34 24.414-82.621a7.502 7.502 0 0 0-13.598-6.344c-12.394 26.594-21.027 55.781-25.652 86.75-1.656 11.098-6.817 21.281-14.918 29.45C3.348 239.241 0 247.366 0 256s3.348 16.758 9.426 22.887c8.101 8.168 13.262 18.351 14.918 29.449 8.418 56.375 30.691 107.758 62.71 144.691C120.032 491.055 161.919 512 205 512s84.969-20.945 117.945-58.973c32.02-36.933 54.293-88.316 62.711-144.691 1.657-11.098 6.817-21.281 14.918-29.45C406.652 272.759 410 264.634 410 256s-3.348-16.758-9.426-22.887zm0 0"/><path d="M347.648 202.637a7.505 7.505 0 0 0 5.914-8.805c-7.425-37.84-21.855-72.59-41.73-100.496C282.738 52.492 244.801 30 205 30S127.262 52.492 98.168 93.336c-29.492 41.406-46.27 96.258-47.582 155.164H34c-4.145 0-7.5 3.355-7.5 7.5s3.355 7.5 7.5 7.5h16.586c1.312 58.906 18.09 113.758 47.582 155.164C127.262 459.508 165.199 482 205 482s77.738-22.492 106.832-63.336c29.492-41.406 46.27-96.258 47.582-155.164H376c4.145 0 7.5-3.355 7.5-7.5s-3.355-7.5-7.5-7.5h-16.586a329.107 329.107 0 0 0-1.242-22.246c-.371-4.125-4.016-7.164-8.14-6.797a7.5 7.5 0 0 0-6.798 8.145A318.23 318.23 0 0 1 344.5 256c0 58.645-15.941 113.324-44.887 153.96C273.414 446.743 239.813 467 205 467s-68.414-20.258-94.613-57.04C81.44 369.325 65.5 314.646 65.5 256s15.941-113.324 44.887-153.96C136.586 65.257 170.187 45 205 45s68.414 20.258 94.613 57.04c18.649 26.179 32.211 58.917 39.23 94.679a7.498 7.498 0 0 0 8.805 5.918zm0 0"/></svg>