<svg xmlns="http://www.w3.org/2000/svg" viewBox="0 0 512.001 512.001" style="enable-background:new 0 0 512.001 512.001" xml:space="preserve"><path style="fill:#7f3f26" d="M45.762 35.577H484.12v437.977H45.762z"/><path style="fill:#7f3f26" d="M65.21 107.33v339.505h63.495v-276.01zM255.693 214.883V65.863H192.2v85.528zM192.2 234.32v212.515h63.493v-149.02zM382.683 341.872V65.863h-63.495v212.516zM319.188 361.308v85.527h63.495v-22.031z"/><path style="fill:#964f2f" d="M382.683 65.863v276.009l63.495 63.496V65.863zM382.683 446.835h22.03l-22.03-22.031zM128.705 170.825v276.01H192.2V234.32zM192.2 151.391V65.863h-63.495v22.033zM319.188 278.379V65.863h-63.495v149.02zM255.693 297.815v149.02h63.495v-85.527z"/><path style="fill:#6b311f" d="M382.682 65.863h63.49v34.959h-63.49z"/><path style="fill:#562417" d="M319.192 65.863h63.49v34.959h-63.49z"/><path style="fill:#6b311f" d="M255.692 65.863h63.49v34.959h-63.49z"/><path style="fill:#562417" d="M192.203 65.863h63.49v34.959h-63.49z"/><path style="fill:#6b311f" d="m128.705 87.896 12.926 12.926H192.2V65.863h-63.495z"/><path style="fill:#562417" d="M128.705 65.863h-22.032l22.032 22.033z"/><path style="fill:#6b311f" d="M65.21 28.995v417.84h34.68V68.068z"/><path style="fill:#a55e3a" d="M446.178 446.835v-41.467L106.673 65.863H65.21v41.467l339.503 339.505z"/><path style="fill:#8c4b2f" d="M439.296 440.228 72.303 73.236v-7.373H65.21v41.467l339.503 339.505h41.465v-6.607z"/><path style="fill:#c17e52" d="M461.923 7.223H49.465C25.812 7.223 6.57 26.466 6.57 50.12v412.458c0 23.654 19.242 42.896 42.895 42.896h412.458c23.654 0 42.895-19.242 42.895-42.896V50.12c0-23.654-19.241-42.897-42.895-42.897zM77.261 65.863h356.866c6.656 0 12.051 5.397 12.051 12.052v356.868c0 6.656-5.395 12.052-12.051 12.052H77.261c-6.657 0-12.051-5.397-12.051-12.052V77.915c0-6.655 5.395-12.052 12.051-12.052z"/><path style="fill:#b56a40" d="M38.318 462.579V50.12c0-23.654 19.242-42.896 42.894-42.896H49.465C25.812 7.223 6.57 26.466 6.57 50.12v412.458c0 23.654 19.242 42.896 42.895 42.896h31.747c-23.652.001-42.894-19.242-42.894-42.895z"/><path d="M504.487 137.677a7.512 7.512 0 0 0 7.513-7.513V50.3C512 22.564 489.436 0 461.702 0H50.299C22.565 0 .002 22.564.002 50.3v411.401c0 27.736 22.563 50.3 50.298 50.3h411.402c27.734 0 50.298-22.564 50.298-50.3V158.88c0-4.15-3.363-7.513-7.513-7.513s-7.513 3.363-7.513 7.513v302.821c0 19.45-15.823 35.274-35.272 35.274H50.299c-19.449 0-35.272-15.824-35.272-35.274V50.3c0-19.45 15.823-35.274 35.272-35.274h411.402c19.449 0 35.272 15.824 35.272 35.274v79.864a7.514 7.514 0 0 0 7.514 7.513z"/><path d="M66.005 58.49a7.513 7.513 0 0 0-7.513 7.513v379.995a7.513 7.513 0 0 0 7.513 7.513h379.993a7.512 7.512 0 0 0 7.513-7.513V66.003a7.512 7.512 0 0 0-7.513-7.513H66.005zm372.479 328.008-48.306-48.306V73.516h48.306v312.982zm-63.332-63.331-48.306-48.306V73.516h48.306v249.651zm-63.333-63.333-48.306-48.306V73.516h48.306v186.318zm-63.331-63.332-48.307-48.305v-74.68h48.306l.001 122.985zm-63.332-63.331-48.307-48.307V73.516h48.306l.001 59.655zm-111.638-7.669 48.306 48.306v264.677H73.518V125.502zm63.331 63.332 48.306 48.306v201.344h-48.306v-249.65zm63.333 63.332 48.307 48.307v138.012h-48.306l-.001-186.319zm63.332 63.332 48.306 48.306v74.68h-48.306V315.498zm63.331 63.333 48.306 48.306v11.348h-48.306v-59.654zm80.906 59.654C336.956 367.69 143.909 174.643 73.518 104.25V73.516h30.733c43.036 43.038 203.986 203.987 209.77 209.771L438.485 407.75v30.735h-30.734z"/></svg>