<svg height="512" width="512" xmlns="http://www.w3.org/2000/svg"><path d="M173.461 117.033V86.228H87.539v30.806c0 8.61-4.626 16.555-12.113 20.806l-11.025 6.26c-23.145 13.142-35.156 39.724-29.722 65.779l50.939 244.255a11.573 11.573 0 0 0 11.33 9.211h67.104a11.574 11.574 0 0 0 11.33-9.211l50.939-244.255c5.434-26.055-6.578-52.637-29.722-65.779l-11.025-6.26a23.925 23.925 0 0 1-12.113-20.807z" fill="#655e67"/><path d="m196.598 144.1-11.025-6.26a23.927 23.927 0 0 1-12.113-20.806V86.228h-25.984v36.805a23.928 23.928 0 0 0 12.112 20.806l11.025 6.26c23.145 13.142 35.156 39.724 29.722 65.779l-50.939 238.256a11.574 11.574 0 0 1-11.33 9.211h25.984a11.574 11.574 0 0 0 11.33-9.211l50.939-244.255c5.435-26.055-6.576-52.638-29.721-65.779z" fill="#544f56"/><path d="M227.213 190.378c-24.193 7.165-58.57 11.641-96.716 11.641-38.14 0-72.509-4.477-96.711-11.633a61.18 61.18 0 0 0 .893 19.493l6.123 29.362a37.215 37.215 0 0 0 13.874 6.058c11.517 2.432 22.892-.726 31.17-7.604 3.638-3.015 9.167-2.167 11.793 1.768 6.96 10.383 19.07 17.261 32.857 17.261 13.786 0 25.907-6.878 32.856-17.261 2.637-3.935 8.165-4.783 11.804-1.768 8.278 6.878 19.642 10.036 31.17 7.604a37.205 37.205 0 0 0 13.869-6.056l6.124-29.365a61.137 61.137 0 0 0 .894-19.5z" fill="#a3847e"/><path d="M227.213 190.378c-7.699 2.28-16.433 4.286-25.988 5.964a61.152 61.152 0 0 1-.888 19.535l-6.4 29.937c4.015.507 8.191.371 12.391-.515a37.205 37.205 0 0 0 13.869-6.056c4.556-24.734 8.764-33.668 7.016-48.865z" fill="#7a635e"/><path d="M87.539 86.228h85.922v24.235H87.539z" fill="#544f56"/><path d="M504.407 321.797c0-35.834-16.562-59.863-42.814-74.372-8.371-4.627-13.43-13.575-13.43-23.14v-19.162H307.949v19.162c0 9.564-5.059 18.513-13.43 23.14-26.252 14.51-42.814 38.538-42.814 74.372 0 37.059 17.711 70.192 45.537 92.19 11.219 8.869 17.836 22.323 17.836 36.624v3.849a8.885 8.885 0 0 0 8.884 8.884h108.187a8.885 8.885 0 0 0 8.884-8.884v-3.849c0-14.301 6.617-27.755 17.836-36.624 27.827-21.998 45.538-55.13 45.538-92.19z" fill="#c77e67"/><path d="M461.593 247.425c-5.951-3.289-10.216-8.767-12.191-15.093-2.348-7.514-.707-13.684-1.239-27.208H307.949v19.162c0 2.765-.435 5.474-1.239 8.046h109.286c3.993 0 7.593 2.204 9.624 5.641 2.301 3.895 5.596 7.191 9.687 9.452 26.252 14.51 42.814 38.538 42.814 74.372 0 37.055-17.707 70.185-45.528 92.183-11.163 8.827-17.845 22.138-17.845 36.369v4.111a8.884 8.884 0 0 1-8.884 8.884h26.285a8.884 8.884 0 0 0 8.884-8.884v-4.111c0-14.231 6.682-27.542 17.845-36.369 27.821-21.998 45.528-55.128 45.528-92.183.001-35.834-16.561-59.862-42.813-74.372z" fill="#ac583e"/><path d="M251.705 321.797c0 9.172 1.088 18.103 3.143 26.685h246.415a114.445 114.445 0 0 0 3.143-26.685c0-25.157-8.171-44.487-22.118-58.798H273.823c-13.947 14.311-22.118 33.641-22.118 58.798z" fill="#e4c2bb"/><path d="M482.289 262.999h-26.285c13.947 14.311 22.118 33.642 22.118 58.799 0 9.173-1.088 18.103-3.143 26.685h26.285c7.207-30.106 3.004-62.933-18.975-85.484z" fill="#cba59d"/><path d="M62.45 67.442c0 10.375 8.411 18.786 18.786 18.786h98.527c10.375 0 18.786-8.411 18.786-18.786s-8.411-18.786-18.786-18.786H81.236c-10.375 0-18.786 8.411-18.786 18.786z" fill="#655e67"/><path d="M179.763 48.656h-19.429c10.375 0 18.786 8.411 18.786 18.786s-8.411 18.786-18.786 18.786h19.429c10.375 0 18.786-8.411 18.786-18.786s-8.41-18.786-18.786-18.786z" fill="#544f56"/><path d="M279.262 185.915c0 10.608 8.6 19.208 19.208 19.208h159.172c10.608 0 19.208-8.6 19.208-19.208s-8.6-19.208-19.208-19.208H298.47c-10.609 0-19.208 8.6-19.208 19.208z" fill="#c77e67"/><path d="M457.642 166.707h-23.258c10.609 0 19.208 8.6 19.208 19.208s-8.6 19.208-19.208 19.208h23.258c10.608 0 19.208-8.6 19.208-19.208s-8.6-19.208-19.208-19.208z" fill="#ac583e"/><path d="M246.515 191.002c13.471-13.278 18.177-33.774 11.708-51.001-6.729-17.937-25.167-30.112-43.839-28.945-11.412.706-22.439 6.747-29.957 15.979a16.447 16.447 0 0 1-3.415-10.021v-23.34c13.942-.628 25.092-12.163 25.092-26.258 0-14.495-11.793-26.288-26.288-26.288H123.14a7.5 7.5 0 0 0 0 15h56.676c6.224 0 11.288 5.064 11.288 11.289s-5.064 11.289-11.288 11.289h-98.54c-6.225 0-11.289-5.064-11.289-11.289s5.064-11.289 11.289-11.289h6.859a7.5 7.5 0 0 0 0-15h-6.859c-14.495 0-26.288 11.793-26.288 26.288 0 14.094 11.15 25.63 25.092 26.258v23.34c0 3.678-1.239 7.19-3.415 10.02-7.518-9.231-18.544-15.272-29.952-15.978-18.674-1.166-37.115 11.007-43.843 28.942-6.468 17.229-1.764 37.726 11.71 51.005 3.334 3.283 7.146 6.074 11.37 8.342.123 3.999.582 8.03 1.422 12.057l16.148 77.434a7.503 7.503 0 0 0 7.334 5.97 7.5 7.5 0 0 0 7.35-9.033l-7.009-33.607c.652.168 1.306.328 1.969.468 13.417 2.832 27.09-.511 37.51-9.168.035-.028.14-.115.368-.082a.579.579 0 0 1 .412.251c8.641 12.891 23.254 20.587 39.09 20.587 15.849 0 30.464-7.698 39.09-20.588a.592.592 0 0 1 .42-.25c.233-.036.336.054.363.076 10.425 8.661 24.097 12.005 37.516 9.174.661-.14 1.314-.299 1.964-.467l-41.805 200.458a4.093 4.093 0 0 1-3.99 3.243H96.989A4.092 4.092 0 0 1 93 452.625L65.41 320.33a7.5 7.5 0 1 0-14.683 3.063l27.59 132.297c1.834 8.796 9.687 15.18 18.673 15.18h67.113c8.985 0 16.838-6.384 18.672-15.18l50.945-244.286a69.436 69.436 0 0 0 1.422-12.057c4.224-2.268 8.037-5.06 11.373-8.345zM79.168 144.346c9.814-5.573 15.911-16.045 15.911-27.331v-23.31h70.933v23.31c0 11.286 6.097 21.758 15.911 27.331l11.026 6.26c13.343 7.576 22.441 20.129 25.797 34.333-23.778 6.11-55.436 9.573-88.204 9.573-32.746 0-64.402-3.461-88.199-9.568 3.355-14.206 12.454-26.761 25.799-34.338zm136.146-18.319c12.066-.747 24.468 7.52 28.866 19.244 4.352 11.591.982 26.003-8.192 35.045a33.375 33.375 0 0 1-2.42 2.158c-4.097-18.575-15.837-35.045-33.214-44.912l-3.535-2.007c4.851-5.528 11.588-9.101 18.495-9.528zM16.912 145.27c4.397-11.722 16.79-19.991 28.87-19.242 6.904.427 13.64 4 18.489 9.529l-3.535 2.007C43.36 147.43 31.619 163.9 27.523 182.475c-.843-.682-1.65-1.4-2.417-2.156-9.177-9.044-12.546-23.456-8.194-35.049zm187.923 92.691c-8.906 1.878-17.956-.322-24.841-6.041-3.349-2.775-7.757-4.007-12.096-3.376a15.626 15.626 0 0 0-10.727 6.748c-5.84 8.726-15.794 13.935-26.628 13.935-10.826 0-20.781-5.211-26.623-13.927a15.6 15.6 0 0 0-10.711-6.753 15.49 15.49 0 0 0-12.114 3.38c-6.879 5.715-15.93 7.915-24.833 6.035a29.681 29.681 0 0 1-8.726-3.332l-5.482-26.287a54.444 54.444 0 0 1-1.069-8.273c24.828 6.111 56.169 9.443 89.557 9.443 33.41 0 64.752-3.334 89.563-9.448a54.382 54.382 0 0 1-1.069 8.278l-5.483 26.289a29.683 29.683 0 0 1-8.718 3.329zM508.711 349.964A122.033 122.033 0 0 0 512 321.805c0-5.261-.354-10.344-1.035-15.251a7.46 7.46 0 0 0-.138-1.032c-2.765-18.526-10.4-34.427-22.591-47.201a7.511 7.511 0 0 0-.955-.99c-6.203-6.294-13.535-11.808-21.971-16.471-5.897-3.259-9.56-9.611-9.56-16.579v-11.664h1.98c14.729 0 26.71-11.982 26.71-26.71s-11.982-26.71-26.71-26.71h-11.049a7.5 7.5 0 0 0 0 15h11.049c6.458 0 11.711 5.254 11.711 11.711 0 6.458-5.254 11.711-11.711 11.711H298.537c-6.457 0-11.71-5.254-11.71-11.711 0-6.458 5.254-11.711 11.71-11.711h113.14a7.5 7.5 0 0 0 0-15h-113.14c-14.728 0-26.709 11.982-26.709 26.71s11.982 26.71 26.709 26.71h1.981v11.664c0 6.967-3.663 13.32-9.56 16.579-8.436 4.662-15.767 10.175-21.969 16.468a7.57 7.57 0 0 0-.959.994c-12.195 12.777-19.83 28.683-22.593 47.216-.07.334-.111.673-.135 1.014a110.72 110.72 0 0 0-1.035 15.253c0 9.581 1.123 19.017 3.291 28.163.038.192.089.379.141.565 6.517 26.925 22.116 51.298 44.96 69.357 9.527 7.531 14.99 18.738 14.99 30.746v3.849c0 9.035 7.35 16.385 16.385 16.385h108.201c9.035 0 16.385-7.35 16.385-16.385v-3.849c0-12.009 5.464-23.215 14.989-30.746 22.826-18.045 38.418-42.395 44.945-69.296.059-.206.114-.415.157-.63zm-231.546-79.465h201.937c8.488 9.534 13.977 21.01 16.422 34.361-2.944 3.239-5.271 4.637-9.022 4.637-5.197 0-7.765-2.896-12.222-8.446-4.763-5.931-11.285-14.053-23.916-14.053-12.627 0-19.147 8.124-23.908 14.055-4.454 5.549-7.02 8.444-12.21 8.444s-7.756-2.895-12.211-8.443c-4.762-5.932-11.284-14.056-23.917-14.056-12.627 0-19.147 8.124-23.908 14.055-4.454 5.549-7.02 8.444-12.21 8.444s-7.755-2.895-12.21-8.442c-4.762-5.932-11.285-14.056-23.918-14.056-12.627 0-19.147 8.124-23.908 14.055-4.454 5.549-7.02 8.444-12.21 8.444-3.716 0-6.104-1.45-9.012-4.633 2.445-13.353 7.934-24.831 16.423-34.366zm-17.892 51.814c2.951 1.344 6.38 2.183 10.481 2.183 12.626 0 19.146-8.123 23.907-14.054 4.454-5.549 7.02-8.444 12.211-8.444 5.198 0 7.765 2.897 12.222 8.448 4.761 5.93 11.282 14.051 23.906 14.051 12.626 0 19.146-8.123 23.907-14.054 4.454-5.549 7.02-8.444 12.211-8.444 5.197 0 7.764 2.896 12.221 8.447 4.761 5.93 11.282 14.051 23.907 14.051 12.626 0 19.146-8.123 23.907-14.054 4.454-5.549 7.02-8.444 12.211-8.444 5.196 0 7.764 2.896 12.221 8.446 4.763 5.93 11.286 14.053 23.917 14.053 4.115 0 7.564-.872 10.492-2.198a106.995 106.995 0 0 1-1.733 18.697H261.006a107.058 107.058 0 0 1-1.733-18.684zm56.244-98.032v-11.664H440.75v11.664c0 12.425 6.63 23.808 17.304 29.706a92.42 92.42 0 0 1 2.628 1.513H295.585a94.9 94.9 0 0 1 2.628-1.513c10.674-5.899 17.304-17.282 17.304-29.706zm138.789 183.843c-13.147 10.393-20.686 25.888-20.686 42.512v3.849c0 .764-.622 1.386-1.386 1.386H324.033a1.388 1.388 0 0 1-1.386-1.386v-3.849c0-16.624-7.541-32.119-20.687-42.512-17.586-13.903-30.302-32.013-37.08-52.13h226.506c-6.777 20.118-19.494 38.228-37.08 52.13z"/><path d="m72.504 175.942.494.07a7.501 7.501 0 0 0 2.078-14.855l-.488-.069a7.496 7.496 0 0 0-8.469 6.385 7.5 7.5 0 0 0 6.385 8.469zM130.074 179.835h.923a7.5 7.5 0 0 0 0-15h-.923a7.5 7.5 0 0 0 0 15zM158.615 178.951c.16 0 .321-.005.482-.016l.947-.062a7.498 7.498 0 1 0-1.001-14.965l-.896.059a7.5 7.5 0 0 0 .468 14.984zM101.042 178.874l.933.061a7.5 7.5 0 0 0 .952-14.968l-.905-.059c-4.134-.283-7.703 2.86-7.974 6.993s2.861 7.703 6.994 7.973zM187.039 176.085c.347 0 .698-.024 1.051-.074l.491-.069a7.5 7.5 0 0 0 6.385-8.469 7.5 7.5 0 0 0-8.469-6.385l-.491.069a7.5 7.5 0 0 0 1.033 14.928z"/></svg>