<svg xmlns="http://www.w3.org/2000/svg" viewBox="0 0 512 512" style="enable-background:new 0 0 512 512" xml:space="preserve"><path style="fill:#c7cfe2" d="M437.141 170.704v15.933c0 14.269 11.608 25.877 25.877 25.877s25.877-11.608 25.877-25.877v-15.933h-51.754zM344.722 212.514c14.269 0 25.877-11.608 25.877-25.877v-15.933h-51.754v15.933c0 14.269 11.608 25.877 25.877 25.877zM200.549 186.637c0 14.269 11.608 25.877 25.877 25.877 14.269 0 25.877-11.608 25.877-25.877v-15.933h-51.755v15.933zM82.253 186.637c0 14.269 11.608 25.877 25.877 25.877s25.877-11.608 25.877-25.877v-15.933H82.253v15.933z"/><path style="fill:#eff2fa" d="M252.71 121.746h-48.479l-3.086 41.478h51.565zM370.116 163.224l-10.798-41.478h-43.315l3.086 41.478zM436.495 163.224h49.521l-25.28-41.478h-44.033z"/><path style="fill:#daf0fd" d="M131.851 23.413h248.816v51.816H131.851z"/><path style="fill:#af6964" d="M459.112 53.011H388.06v25.914a3.702 3.702 0 0 1-3.697 3.697H128.154a3.702 3.702 0 0 1-3.697-3.697V53.011H52.888v61.341h406.224V53.011zM52.888 377.734h406.224v110.853H52.888z"/><path style="fill:#d2555a" d="M74.859 186.637v-15.933H23.105v15.933c0 14.269 11.608 25.877 25.877 25.877s25.877-11.608 25.877-25.877zM167.278 212.514c14.269 0 25.877-11.608 25.877-25.877v-15.933H141.4v15.933c.001 14.269 11.609 25.877 25.878 25.877zM259.697 186.637c0 14.269 11.608 25.877 25.877 25.877 14.269 0 25.877-11.608 25.877-25.877v-15.933h-51.755v15.933zM403.87 212.514c14.269 0 25.877-11.608 25.877-25.877v-15.933h-51.755v15.933c.001 14.269 11.609 25.877 25.878 25.877z"/><path style="fill:#ff6464" d="M96.107 121.746H51.264l-25.28 41.478h50.348z"/><path style="fill:#eff2fa" d="M145.863 121.746h-41.558l-19.792 41.478h50.533z"/><path style="fill:#ff6464" d="M196.81 121.746h-43.315l-10.798 41.478h51.026zM308.597 121.746h-48.494v41.478h51.561zM428.301 163.224l-19.793-41.478h-41.557l10.816 41.478z"/><path d="M443.302 186.637c0 10.868 8.848 19.716 19.716 19.716s19.716-8.848 19.716-19.716v-9.772h-39.432v9.772zm-59.148 0c0 10.868 8.848 19.716 19.716 19.716s19.716-8.848 19.716-19.716v-9.772h-39.432v9.772zm-59.148 0c0 10.868 8.848 19.716 19.716 19.716s19.716-8.848 19.716-19.716v-9.772h-39.432v9.772zm-59.148 0c0 10.868 8.848 19.716 19.716 19.716s19.716-8.848 19.716-19.716v-9.772h-39.432v9.772zm-59.148 0c0 10.868 8.848 19.716 19.716 19.716s19.716-8.848 19.716-19.716v-9.772H206.71v9.772zm-59.148 0c0 10.868 8.848 19.716 19.716 19.716s19.716-8.848 19.716-19.716v-9.772h-39.432v9.772zm-39.432 39.432c-11.768 0-22.341-5.188-29.574-13.395-5.089 5.779-11.842 10.067-19.507 12.088v139.417H452.95V224.762c-7.665-2.021-14.417-6.309-19.507-12.088-7.233 8.207-17.806 13.395-29.574 13.395s-22.341-5.188-29.574-13.395c-7.233 8.207-17.806 13.395-29.574 13.395s-22.341-5.188-29.574-13.395c-7.233 8.207-17.806 13.395-29.574 13.395s-22.341-5.188-29.574-13.395c-7.233 8.207-17.806 13.395-29.574 13.395s-22.341-5.188-29.574-13.395c-7.233 8.207-17.806 13.395-29.574 13.395s-22.341-5.188-29.574-13.395c-7.232 8.207-17.805 13.395-29.573 13.395zm-19.716-39.432c0 10.868 8.848 19.716 19.716 19.716s19.716-8.848 19.716-19.716v-9.772H88.414v9.772zm-59.148 0c0 10.868 8.848 19.716 19.716 19.716s19.716-8.848 19.716-19.716v-9.772H29.266v9.772zm472.876 295.789c5.447 0 9.858 4.411 9.858 9.858s-4.411 9.858-9.858 9.858H9.858c-5.447 0-9.858-4.411-9.858-9.858s4.411-9.858 9.858-9.858h29.475V224.873C22.242 220.561 9.55 205.059 9.55 186.637v-19.63c0-.049.012-.086.012-.136 0-.16.012-.32.025-.481 0-.185.025-.382.037-.579l.111-.727c.012-.049.037-.111.049-.173a9.759 9.759 0 0 1 1.208-3.118l28.342-46.517V49.315a9.855 9.855 0 0 1 9.858-9.858h69.105V19.716a9.855 9.855 0 0 1 9.858-9.858h256.209c5.434 0 9.858 4.411 9.858 9.858v19.741h68.587a9.855 9.855 0 0 1 9.858 9.858v65.962l28.009 45.963a9.852 9.852 0 0 1 1.799 5.681c0 .173-.012.333-.025.493v19.223c0 18.422-12.692 33.924-29.784 38.237v257.553h29.476zm-27.097-325.363-17.769-29.155H426.47l13.912 29.155h34.663zm-22.094 325.363v-98.531H59.049v98.531h393.902zm0-374.234V59.173h-58.729v19.753c0 5.434-4.424 9.858-9.858 9.858h-256.21c-5.447 0-9.858-4.424-9.858-9.858V59.173H59.049v49.019h393.902zm-34.417 48.871-13.912-29.155h-29.697l7.603 29.155h36.006zm-44.028-87.995V29.574H138.012v39.494h236.494zm-12.36 87.995-7.591-29.155H322.64l2.169 29.155h37.337zm-57.115 0-2.156-29.155h-36.61v29.155h38.766zm-58.482 0v-29.155h-36.598l-2.169 29.155h38.767zm-58.545 0 2.169-29.155h-31.915l-7.591 29.155h37.337zm-57.718 0 7.603-29.155h-29.697L94.28 157.063h36.006zm-57.842 0 13.9-29.155h-31.62l-17.769 29.155h35.489z"/></svg>