<svg xmlns="http://www.w3.org/2000/svg" viewBox="0 0 512 512" style="enable-background:new 0 0 512 512" xml:space="preserve"><path style="fill:#9b735a" d="M270.262 128.158c-3.773-5.618-6.78-12.266-6.78-19.033v-2.771c0-4.727-2.756-8.551-7.482-8.551-4.727 0-7.482 3.825-7.482 8.551v2.771c0 6.767-3.007 13.416-6.78 19.033-44.743 66.617-103.592 127.101-173.863 179.224v106.815h376.251V307.382c-70.272-52.124-129.121-112.607-173.864-179.224z"/><path style="fill:#8c5f50" d="M279.394 254.388c10.763-25.063 20.074-51.281 26.664-77.922-4.669-5.745-9.118-11.595-13.564-17.448-9.779 46.437-28.873 92.419-50.164 133.324l73.529 121.854h85.512c-28.052-21.039-96.361-111.091-120.028-142.807-3.669-4.915-4.369-11.366-1.949-17.001z"/><path style="fill:#464655" d="M256 264.538c-39.733 85.807-94.063 149.658-94.063 149.658h188.125c.001 0-54.329-63.851-94.062-149.658z"/><path style="fill:#8c5f50" d="M263.482 106.355c1.025-4.614-2.756-8.551-7.482-8.551-4.727 0-7.482 3.825-7.482 8.551v2.77c0 6.767-3.007 13.416-6.779 19.033-44.744 66.618-103.593 127.102-173.864 179.225v98.263c0-.001 161.403-145.37 195.607-299.291z"/><path d="M503.983 406.18h-9.086v-86.046a8.017 8.017 0 0 0-16.034 0v2.115c-43.353-29.393-82.972-61.885-117.902-96.746-37.959-37.883-70.558-78.735-96.945-121.443v-6.256a8.017 8.017 0 0 0-16.034 0v6.256c-26.388 42.709-58.987 83.56-96.945 121.443-34.93 34.861-74.549 67.353-117.902 96.746v-2.115a8.017 8.017 0 0 0-16.034 0v86.046H8.017a8.017 8.017 0 0 0 0 16.034h495.967a8.017 8.017 0 1 0-.001-16.034zm-25.119 0h-26.722v-82.993a893.535 893.535 0 0 0 26.722 18.355v64.638zm-316.5-169.328c36.185-36.114 67.637-74.885 93.636-115.41 8.398 13.09 17.374 25.993 26.885 38.688-3.003 14.976-7.148 30.541-12.364 46.322a8.016 8.016 0 1 0 15.223 5.032c3.889-11.763 7.2-23.423 9.925-34.843 16.56 20.739 34.577 40.858 53.967 60.21 26.355 26.302 55.312 51.272 86.472 74.614v94.715h-82.272c-10.567-12.968-54.982-69.394-89.007-141.68a559.474 559.474 0 0 0 9.691-22.511 8.016 8.016 0 0 0-4.427-10.437 8.016 8.016 0 0 0-10.437 4.427c-34.603 85.591-89.57 155.55-101.496 170.2H75.89v-94.714c31.162-23.342 60.119-48.311 86.474-74.613zm93.625 46.188c27.917 56.216 60.883 101.751 77.408 123.14h-154.8c16.501-21.368 49.415-66.855 77.392-123.14zM33.136 341.541a893.535 893.535 0 0 0 26.722-18.355v82.993H33.136v-64.638z"/></svg>