<svg height="512pt" viewBox="0 0 512 512" width="512pt" xmlns="http://www.w3.org/2000/svg"><path d="M0 465.52h512V512H0zm0 0" fill="#8bc34a"/><path d="M324.266 230.398c0 18.852 15.285 34.137 34.132 34.137l.004 204.797H85.332V264.535c18.852 0 34.137-15.285 34.137-34.137 0-18.851-15.285-34.132-34.137-34.132v-47.7C84.844 77.125 138.477 16.898 209.492 9.13c3.672-.34 7.426-.594 11.266-.594h1.11a136.35 136.35 0 0 1 96.597 39.934 136.35 136.35 0 0 1 39.933 96.597v51.2c-18.847 0-34.132 15.28-34.132 34.132zm0 0" fill="#607d8b"/><path d="M298.668 230.398c0 18.852 15.281 34.137 34.133 34.137v204.797H85.332V264.535c18.852 0 34.137-15.285 34.137-34.137 0-18.851-15.285-34.132-34.137-34.132v-47.7C84.844 77.125 138.477 16.898 209.492 9.13c70 6.754 123.39 65.613 123.309 135.937v51.2c-18.852 0-34.133 15.28-34.133 34.132zm0 0" fill="#cfd8dc"/><g fill="#37474f"><path d="M435.2 145.066v51.2h-76.802v-51.2a136.35 136.35 0 0 0-39.933-96.597 136.35 136.35 0 0 0-96.598-39.934h76.801a136.342 136.342 0 0 1 96.594 39.934 136.354 136.354 0 0 1 39.937 96.597zM435.2 264.535h-76.802c-18.847 0-34.132-15.285-34.132-34.137 0-18.851 15.285-34.132 34.132-34.132H435.2c-18.851 0-34.133 15.28-34.133 34.132 0 18.852 15.282 34.137 34.133 34.137zM358.398 264.535H435.2v204.797h-76.8zm0 0"/></g><path d="M409.602 145.066v51.2h-51.204v-51.2a136.35 136.35 0 0 0-39.933-96.597 136.35 136.35 0 0 0-96.598-39.934h51.2a136.35 136.35 0 0 1 136.535 136.531zM358.398 264.535h51.204v204.797h-51.204zm0 0" fill="#607d8b"/><path d="M358.398 477.867H162.133a8.533 8.533 0 0 1-8.531-8.535c0-4.71 3.82-8.531 8.53-8.531h196.266a8.533 8.533 0 1 1 0 17.066zm0 0" fill="#4c8056"/><path d="M290.133 136.535H256c-4.71 0-8.531-3.824-8.531-8.535V85.332c0-4.71-3.824-8.531-8.535-8.531H204.8a8.533 8.533 0 0 0-8.535 8.531V128c0 4.71-3.82 8.535-8.532 8.535h-34.132a8.533 8.533 0 0 0-8.536 8.531V179.2a8.534 8.534 0 0 0 8.536 8.535h34.132c4.711 0 8.532 3.82 8.532 8.532v110.933a8.534 8.534 0 0 0 8.535 8.535h34.133c4.71 0 8.535-3.82 8.535-8.535V196.266c0-4.711 3.82-8.532 8.531-8.532h34.133a8.534 8.534 0 0 0 8.535-8.535v-34.133c0-4.71-3.82-8.53-8.535-8.53zm0 0" fill="#37474f"/><path d="M27.309 508.586a8.52 8.52 0 0 0 7.847 3.351 8.53 8.53 0 0 0 5.805-13.59l-15.36-20.48h21.333l23.039 30.719a8.537 8.537 0 0 0 14.676-1.766 8.541 8.541 0 0 0-1.02-8.472l-15.363-20.48h21.336l23.039 30.718a8.52 8.52 0 0 0 7.847 3.352 8.532 8.532 0 0 0 5.805-13.59l-15.36-20.48h21.333l23.043 30.718c2.824 3.77 8.175 4.535 11.945 1.707 3.77-2.828 4.535-8.176 1.707-11.945l-15.36-20.48h21.333l23.039 30.718a8.536 8.536 0 0 0 11.949 1.707 8.536 8.536 0 0 0 1.707-11.945l-15.363-20.48h21.336l23.039 30.718c2.828 3.77 8.175 4.535 11.945 1.707 3.77-2.828 4.535-8.176 1.707-11.945l-15.36-20.48h21.333l23.043 30.718a8.52 8.52 0 0 0 7.847 3.352 8.53 8.53 0 0 0 5.805-13.59l-15.36-20.48h21.333l23.039 30.718a8.537 8.537 0 0 0 14.676-1.766 8.541 8.541 0 0 0-1.02-8.472l-15.363-20.48h21.336l23.039 30.718c2.828 3.77 8.175 4.535 11.945 1.707 3.77-2.828 4.535-8.176 1.707-11.945l-15.36-20.48h21.333l23.043 30.718a8.52 8.52 0 0 0 7.847 3.352 8.53 8.53 0 0 0 5.805-13.59l-15.36-20.48h21.333l23.039 30.718a8.536 8.536 0 0 0 11.949 1.707 8.536 8.536 0 0 0 1.707-11.945l-15.363-20.48h21.336l23.039 30.718a8.52 8.52 0 0 0 7.847 3.352 8.532 8.532 0 0 0 5.805-13.59l-15.36-20.48h8.536c4.71 0 8.531-3.821 8.531-8.536 0-4.71-3.82-8.531-8.531-8.531h-59.735V264.535A8.534 8.534 0 0 0 435.2 256c-14.137 0-25.597-11.46-25.597-25.602 0-14.136 11.46-25.597 25.597-25.597a8.534 8.534 0 0 0 8.535-8.535v-51.2A144.778 144.778 0 0 0 401.422 42.56 144.78 144.78 0 0 0 298.992.066C298.88.06 298.777 0 298.668 0h-76.8c-.079 0-.138.043-.216.043h-.953C140.187 1.875 76.086 68.039 76.801 148.566v47.7a8.533 8.533 0 0 0 8.531 8.535c14.14 0 25.602 11.46 25.602 25.597 0 14.141-11.461 25.602-25.602 25.602a8.533 8.533 0 0 0-8.531 8.535v184.2l-28.102-28.102a8.53 8.53 0 0 0-11.96.105 8.53 8.53 0 0 0-.106 11.961l28.101 28.102H8.535a8.53 8.53 0 0 0-7.633 4.715 8.54 8.54 0 0 0 .805 8.937zM376.156 460.8 399.2 432c2.946-3.68 2.348-9.05-1.332-11.996-3.68-2.95-9.05-2.352-12 1.328l-18.933 23.672V273.066h59.734v187.735zM401.238 256h-42.84c-14.136 0-25.597-11.46-25.597-25.602 0-14.136 11.46-25.597 25.597-25.597h42.84c-11.605 15.094-11.605 36.105 0 51.199zM297.618 17.066c34.144-.328 67 13.02 91.241 37.063a127.84 127.84 0 0 1 37.809 90.937v42.668h-59.734v-42.668a144.473 144.473 0 0 0-42.446-102.64 146.336 146.336 0 0 0-34.133-25.36zM128 230.398c-.023-20.265-14.277-37.73-34.133-41.812v-40.02c-.758-71.18 55.805-129.761 126.969-131.5a127.81 127.81 0 0 1 91.23 37.07 127.815 127.815 0 0 1 37.801 90.93v43.52c-19.887 4.039-34.176 21.523-34.176 41.812 0 20.293 14.29 37.778 34.176 41.817v176.52l-28.101-28.102a8.53 8.53 0 0 0-11.961.105 8.53 8.53 0 0 0-.106 11.961l28.102 28.102H103.133L126.176 432c2.945-3.68 2.347-9.05-1.332-11.996-3.68-2.95-9.055-2.352-12 1.328l-18.977 23.672v-172.79c19.856-4.081 34.11-21.546 34.133-41.816zm0 0"/><path d="M153.602 196.266h34.132v110.933c0 9.426 7.641 17.067 17.067 17.067h34.133c9.425 0 17.066-7.641 17.066-17.067V196.266h34.133c9.426 0 17.066-7.641 17.066-17.067v-34.133c0-9.425-7.64-17.066-17.066-17.066H256V85.332c0-9.426-7.64-17.066-17.066-17.066H204.8c-9.426 0-17.067 7.64-17.067 17.066V128h-34.132c-9.426 0-17.067 7.64-17.067 17.066V179.2c0 9.426 7.64 17.067 17.067 17.067zm0-51.2h34.132c9.426 0 17.067-7.64 17.067-17.066V85.332h34.133V128c0 9.426 7.64 17.066 17.066 17.066h34.133V179.2H256c-9.426 0-17.066 7.64-17.066 17.067v110.933H204.8V196.266c0-9.426-7.64-17.067-17.067-17.067h-34.132zm0 0"/></svg>