<svg height="512" viewBox="0 0 511.996 511.996" width="512" xmlns="http://www.w3.org/2000/svg"><path d="M93.174 296.985c14.671-11.495 32.153-18.24 50.946-18.24 15.67 0 30.286 4.496 42.639 12.258 6.197 3.894 13.355 5.982 20.673 5.982 27.094 0 45.83-27.086 36.273-52.438l-11.52-19.755v-64.488s-35.259-18.456-86.381-18.456-86.381 18.456-86.381 18.456v64.488L24.71 296.985S9.998 330.92 9.998 359.031c0 73.954 60.166 134.131 134.12 134.131v-.005h.005c14.879 0 26.94-12.061 26.94-26.94s-12.061-26.94-26.94-26.94c-.194 0-.385.011-.577.015-44.071-.309-79.703-36.117-79.703-80.261.002-24.998 11.424-47.322 29.331-62.046z" fill="#b5bccf"/><path d="M278.251 359.031c0 73.954-60.166 134.131-134.131 134.131a26.814 26.814 0 0 0 19.05-7.899 26.833 26.833 0 0 0 7.899-19.05c0-1.923-.205-3.804-.594-5.619-2.452-11.909-13.252-20.894-25.361-21.298 43.893-.529 79.292-36.264 79.292-80.265 0-28.408-14.75-53.358-36.999-67.633a38.805 38.805 0 0 0 20.023 5.587c17.829 0 32.039-11.724 36.945-26.971 21.06 23.697 33.876 54.882 33.876 89.017z" fill="#868eaf"/><path d="M471.396 316.355c0 6.734-2.568 13.468-7.703 18.603-51.073 51.083-134.187 51.073-185.26 0a87.987 87.987 0 0 1-2.957-3.117c-4.836-23.408-15.785-44.589-31.101-61.823a38.24 38.24 0 0 0 1.858-11.749c0-4.516-.799-9.142-2.528-13.717l-11.519-19.762v-64.481s-18.853-9.871-48.985-15.176c7.044-14.057 19.352-34.288 39.024-53.96 35.308-35.308 72.403-46.907 72.403-46.907l44.539 44.529 21.6 5.695c8.252 3.727 14.347 9.881 18.053 17.124a37.786 37.786 0 0 1 2.048 4.766c7.291 21.213-5.527 44.345-27.345 49.514-13.897 3.177-27.095 10.161-37.915 20.991-12.978 12.978-20.391 29.703-22.589 47.776-2.198 22.539 5.335 45.848 22.599 63.112 30.482 30.482 79.827 30.602 110.468.38 10.271-10.271 27.167-10.848 37.605-.41 5.137 5.134 7.705 11.868 7.705 18.612z" fill="#b5bccf"/><path d="M463.691 149.693c51.075 51.075 51.082 134.187 0 185.269a26.191 26.191 0 0 0 7.702-18.612 26.207 26.207 0 0 0-7.702-18.612c-9.804-9.804-26.358-10.165-36.515-.664 29.948-30.679 29.716-79.806-.672-110.194-19.619-19.619-47.037-26.664-72.261-21.157a37.912 37.912 0 0 0 17.687-9.97c12.313-12.313 14.03-30.224 6.888-44.142 30.91 1.821 61.299 14.508 84.873 38.082z" fill="#868eaf"/><path d="M470.762 142.622c-23.134-23.134-53.498-37.413-85.996-40.568-4.907-7.268-11.688-12.979-19.882-16.679a9.919 9.919 0 0 0-1.566-.556l-18.989-5.006-42.629-42.62a10.003 10.003 0 0 0-10.055-2.473c-1.51.473-35.239 11.274-69.634 42.815L209.635 65.16a27.798 27.798 0 0 0 3.169-7.487c1.867-7.166.831-14.629-2.916-21.016l-8.284-14.12c-3.747-6.386-9.757-10.932-16.922-12.798-7.165-1.865-14.628-.831-21.015 2.917l-42.965 25.207c-6.386 3.747-10.932 9.757-12.798 16.922-1.866 7.166-.831 14.629 2.917 21.016l8.284 14.12c3.409 5.81 8.695 10.089 15.016 12.221v30.023c-46.583 2.428-77.919 18.54-79.333 19.28a10.002 10.002 0 0 0-5.362 8.86v64.488c0 5.523 4.477 10 10 10s10-4.477 10-10v-58.078c11.277-4.776 39.473-14.866 76.38-14.866 36.708 0 65.055 10.114 76.38 14.883v58.058c0 4.003 2.83 7.556 4.774 10.891 5.305 9.102 10.939 16.949 8.753 27.959-1.78 8.966-7.892 16.852-16.206 20.698-8.771 4.057-19.249 3.337-27.427-1.801-14.358-9.022-30.942-13.791-47.959-13.791-20.358 0-40.108 7.043-57.115 20.369-.062.048-.123.098-.183.147-20.958 17.232-32.978 42.663-32.978 69.77 0 49.423 40.209 89.913 89.633 90.261 9.381-.101 17.587 7.259 17.587 16.925 0 9.341-7.599 16.94-16.945 16.94-.101 0-.202.001-.303.004C75.515 482.999 20 427.377 20 359.031c0-17.683 6.565-38.472 10.479-49.29 1.878-5.194-.809-10.927-6.002-12.806-5.195-1.879-10.927.809-12.806 6.002C6.347 317.656 0 339.336 0 359.031c0 79.474 64.652 144.131 144.12 144.131 79.474 0 144.131-64.657 144.131-144.131 0-.864-.014-1.726-.03-2.589 23.907 17.413 52.635 26.822 82.841 26.824h.005c37.682 0 73.072-14.631 99.654-41.196l.041-.037c54.978-54.978 54.978-144.433 0-199.411zm-14.142 14.142c38.696 38.696 45.652 97.301 20.872 143.155-5.119-10.078-14.919-17.318-26.065-19.22-.21-.037-.418-.09-.629-.123 5.678-11.817 8.672-24.856 8.662-38.328-.004-5.521-4.48-9.993-10-9.993h-.007c-5.523.004-9.997 4.484-9.993 10.007.013 17.985-6.89 34.97-19.439 47.825-.069.07-.127.147-.193.219-.254.241-.513.475-.762.724-26.662 26.296-69.895 26.149-96.375-.332-14.499-14.498-21.686-34.521-19.729-54.951 2.027-16.469 8.844-30.919 19.722-41.797a68.253 68.253 0 0 1 33.146-18.328c.134-.032.265-.073.398-.106.05-.01.099-.014.149-.025 13.786-3.01 28.502-1.644 41.439 3.847 5.084 2.159 10.955-.213 13.112-5.298 2.158-5.084-.214-10.955-5.298-13.112a88.494 88.494 0 0 0-20.31-5.892 47.7 47.7 0 0 0 7.386-31.716 120.71 120.71 0 0 1 63.914 33.444zm-302.5-24.751v-30.729a28.018 28.018 0 0 0 2.922-1.482l37.152-21.797 13.71 13.71c-13.919 15.338-23.699 30.492-30.213 42.403a226.547 226.547 0 0 0-23.571-2.105zm-26.049-66.334c-1.043-1.779-1.332-3.857-.812-5.853s1.786-3.669 3.564-4.713l42.965-25.207a7.68 7.68 0 0 1 5.853-.812 7.673 7.673 0 0 1 4.713 3.564l8.284 14.12c.42.715.711 1.48.883 2.267l-2.868-2.868c-3.905-3.905-10.237-3.905-14.143 0s-3.905 10.237 0 14.143l3.07 3.07-25.46 14.939v-6.646c0-5.523-4.477-10-10-10s-10 4.477-10 10v4.307zM73.845 359.031c0-21.064 9.325-40.83 25.59-54.248 13.43-10.493 28.879-16.039 44.686-16.039 13.248 0 26.152 3.709 37.319 10.726.186.117.376.226.564.341l.005.003c20.287 13.016 32.398 35.153 32.398 59.216 0 18.62-7.208 36.165-20.297 49.403-13.08 13.229-30.522 20.638-49.115 20.862l-.034.002c-.278-.006-.555-.021-.834-.021-.208 0-.415.005-.681.014-38.394-.364-69.601-31.846-69.601-70.259zM179.11 478.142a36.74 36.74 0 0 0 1.757-8.109c.939-9.094-1.583-18.367-7.019-25.718 12.865-4.471 24.636-11.862 34.482-21.82 16.815-17.007 26.075-39.545 26.075-63.465 0-19.419-6.139-37.861-17.163-53.032a48.606 48.606 0 0 0 28.706-17.84c.157.225.318.448.474.675.481.699.95 1.406 1.416 2.114 5.431 8.25 9.842 17.122 13.194 26.412a123.782 123.782 0 0 1 7.218 41.671c.001 56.303-37.674 103.97-89.14 119.112zm191.953-114.876c-32.36-.001-62.746-12.566-85.559-35.379a63.906 63.906 0 0 1-.841-.857 142.478 142.478 0 0 0-2.609-9.774 144.044 144.044 0 0 0-13.273-30.483 144.751 144.751 0 0 0-8.94-13.569c-1.331-1.793-3.22-4.046-4.425-5.918 0 0 .403-2.617.537-3.853a48.266 48.266 0 0 0-.946-15.931c-.605-2.646-1.284-5.628-2.662-7.992l-9.688-16.614-.471-.807v-61.785c0-3.721-2.066-7.134-5.362-8.86-.942-.493-15.193-7.821-38.383-13.373 6.922-11.713 16.946-25.92 30.854-39.828 25.218-25.218 51.635-37.794 62.811-42.36l39.991 39.982a10.003 10.003 0 0 0 4.521 2.598l15.288 4.031c13.471 3.552 22.623 16.521 20.648 30.312a27.731 27.731 0 0 1-3.173 9.47c-3.859 7.004-10.479 12.066-18.086 13.869a88.154 88.154 0 0 0-42.757 23.668c-14.092 14.092-22.891 32.641-25.445 53.64-.01.079-.019.158-.026.237-2.579 26.447 6.708 52.381 25.481 71.153 17.185 17.186 39.824 25.79 62.482 25.788 22.465-.001 44.948-8.462 62.129-25.408 3.638-3.638 8.481-5.311 13.159-5.015 9.431.699 16.336 9.347 14.856 18.734a16.17 16.17 0 0 1-4.553 8.946c-22.811 22.815-53.196 35.379-85.558 35.378z"/><path d="M144.12 234.844c5.523 0 10-4.477 10-10v-18.766h1.794c5.523 0 10-4.477 10-10s-4.477-10-10-10h-23.588c-5.523 0-10 4.477-10 10s4.477 10 10 10h1.794v18.766c0 5.523 4.477 10 10 10zM284.27 137.371 271 124.102l1.269-1.269c3.905-3.905 3.905-10.237 0-14.143-3.905-3.905-10.237-3.905-14.143 0l-16.68 16.68c-3.905 3.905-3.905 10.237 0 14.143 1.953 1.953 4.512 2.929 7.071 2.929s5.119-.976 7.071-2.929l1.269-1.269 13.27 13.27c1.953 1.953 4.512 2.929 7.071 2.929s5.119-.976 7.071-2.929c3.905-3.906 3.905-10.238.001-14.143zM30.63 269.312c2.097 5.029 8.008 7.492 13.05 5.41 5.039-2.081 7.488-8.03 5.41-13.06-2.08-5.037-8.026-7.493-13.06-5.41-5.049 2.09-7.463 8.025-5.4 13.06zM426.76 202.192c4.956 11.895 23.4 4.265 18.47-7.65-4.931-11.918-23.359-4.285-18.47 7.65z"/></svg>