<svg height="512" viewBox="0 0 60 60" width="512" xmlns="http://www.w3.org/2000/svg"><g fill="none"><path d="M47 52.9V57a2.006 2.006 0 0 1-2 2H3a2.006 2.006 0 0 1-2-2v-9l4-12 3.05 9.15a1 1 0 0 0 1.9 0L13 36l3.05 9.15a1 1 0 0 0 1.9 0L21 36l3.05 9.15a1 1 0 0 0 1.9 0L29 36l3.77 11.32c.141.405.521.677.95.68H43a5 5 0 0 0 4 4.9zM59 3v42a2.006 2.006 0 0 1-2 2h-4.1a5 5 0 0 0-4.9-4v-9.28a1.014 1.014 0 0 0-.68-.95L36 29l9.15-3.05a1 1 0 0 0 0-1.9L36 21l9.15-3.05a1 1 0 0 0 0-1.9L36 13l9.15-3.05a1 1 0 0 0 0-1.9L36 5l12-4h10c1.1 0 1 .9 1 2z" fill="#9e9e9e"/><path d="M58 1h-3c1.1 0 1 .9 1 2v42a2.006 2.006 0 0 1-2 2h3a2.006 2.006 0 0 0 2-2V3c0-1.1.1-2-1-2z" fill="#707070"/><path d="M53 48a5 5 0 1 1-10 0 5 5 0 0 1 10 0z" fill="#607d8b"/><g fill="#000" transform="translate(-1 -1)"><path d="M59 1c-10.939 0-10.1-.022-10.316.051l-12 4a1 1 0 0 0 0 1.9L45.837 10l-9.153 3.051a1 1 0 0 0 0 1.9L45.837 18l-9.153 3.051a1 1 0 0 0 0 1.9L45.837 26l-9.153 3.051a1 1 0 0 0 0 1.9L48 34.721v8.369A6.008 6.008 0 0 0 43.09 48h-8.369l-3.772-11.316a1 1 0 0 0-1.9 0L26 45.837l-3.051-9.153a1 1 0 0 0-1.9 0L18 45.837l-3.051-9.153a1 1 0 0 0-1.9 0L10 45.837l-3.051-9.153a1 1 0 0 0-1.9 0C.722 49.671 1 48.764 1 49v9a3 3 0 0 0 3 3h42a3 3 0 0 0 3-3v-3a6.006 6.006 0 0 0 6-6h3a3 3 0 0 0 3-3V3.752a2.908 2.908 0 0 0-.578-2.221A1.922 1.922 0 0 0 59 1zM47 58a1 1 0 0 1-1 1H4a1 1 0 0 1-1-1v-8.838l3-9 2.1 6.308a2 2 0 0 0 3.794 0L14 40.162l2.1 6.308a2 2 0 0 0 3.794 0L22 40.162l2.1 6.308a2 2 0 0 0 3.794 0L30 40.162l2.823 8.471A2 2 0 0 0 34.721 50h8.369A6.011 6.011 0 0 0 47 54.65zm2-5a4 4 0 1 1 0-8 4 4 0 0 1 0 8zm10-7a1 1 0 0 1-1 1h-3.35A6.011 6.011 0 0 0 50 43.09v-8.369a2 2 0 0 0-1.367-1.9L40.162 30l6.308-2.1a2 2 0 0 0 0-3.794L40.162 22l6.308-2.1a2 2 0 0 0 0-3.794L40.162 14l6.308-2.1a2 2 0 0 0 0-3.794L40.162 6l9-3h9.819c.031.245.019-2.434.019 43z"/><path d="M7 55H6a1 1 0 0 0 0 2h1a1 1 0 0 0 0-2zM44 55H11a1 1 0 0 0 0 2h33a1 1 0 0 0 0-2z"/><circle cx="49" cy="49" r="1"/></g></g></svg>