<svg height="512pt" viewBox="-72 0 512 512.001" width="512pt" xmlns="http://www.w3.org/2000/svg"><path d="m160.367 10.137-9.351 25.695 69.718 25.379 9.356-25.7a4.015 4.015 0 0 0-2.399-5.14L165.508 7.738a4.014 4.014 0 0 0-5.14 2.399zm0 0" fill="#b78358"/><path d="m227.691 30.371-19.683-7.164c1.457.531 2.027 2.648 1.27 4.73l-9.352 25.7-48.91-17.801 69.718 25.375 9.356-25.7a4.017 4.017 0 0 0-2.399-5.14zm0 0" fill="#935d38"/><path d="m182.055 162.605 32.093-48.226-75.863-39.23c-16.945 26.019-52.96 88.027-47.453 144.738 5.941 61.168-26.977 104.191-47.664 145.164-20.809 41.21-40.871 90.445-34.422 117.988 7.492 31.98 67.16 23.875 61.629 3.95-8.152-29.356 3.816-99.032 39.457-144.786 33.688-43.254 72.969-124.824 72.223-179.598zm0 0" fill="#b78358"/><path d="m214.148 114.379-75.863-39.23c-.078.117-.156.242-.234.363l52.867 30.414-28.727 49.449c-4.043 53.031-41.101 135.41-70.636 180.176-31.243 47.355-46.313 115.902-42.524 143.668 1.57 11.488-15.105 20.761-29.058 19.375 19.308 12.3 54.722 3.949 50.402-11.606-8.152-29.355 3.816-99.031 39.457-144.785 33.691-43.254 72.969-124.824 72.223-179.598zm0 0" fill="#935d38"/><path d="m348.309 101.883-214.305-78c-6.152-2.238-12.953.933-15.195 7.086l-30.957 85.054c-2.239 6.153.933 12.957 7.086 15.196l123.007 44.77a18.008 18.008 0 0 1 11.168 12.038l11.895 42.29s26.457 23.769 44.68 41.081a1.34 1.34 0 0 0 1.535.215c67.504-34.965 89.37-124.773 61.086-169.73zm0 0" fill="#6e7093"/><path d="M299.508 237.867c-.48.184-1.086.074-1.52-.273-18.902-15.438-46.265-36.719-46.265-36.719l-14.325-35.617c-1.886-4.696-6.234-8.656-11.675-10.637l-123.008-44.77c-6.152-2.238-9.688-8.05-7.895-12.976l-6.968 19.148c-2.239 6.153.933 12.957 7.086 15.196l123.003 44.773a17.985 17.985 0 0 1 11.168 12.035l11.899 42.293s26.453 23.77 44.676 41.078c.414.395 1.03.48 1.539.215 35-18.129 57.722-51 67.558-84.718-9.855 21.488-28.23 40.57-55.273 50.972zm0 0" fill="#4e5173"/><path d="m348.309 101.883-26.72-9.727c19.028 45.317-1.089 122.098-56.437 160.114 6.868 6.312 14.2 13.109 20.536 19.128a1.339 1.339 0 0 0 1.539.215c67.5-34.965 89.367-124.773 61.082-169.73zm0 0" fill="#e6eff5"/><path d="M267.54 233.89v107.981c0 6.637 5.378 12.016 12.015 12.016 6.632 0 12.011-5.38 12.011-12.016v-42.52c0-6.632 5.38-12.011 12.012-12.011 6.637 0 12.016 5.379 12.016 12.012v19.992c0 6.633 5.375 12.011 12.011 12.011 6.633 0 12.012-5.375 12.012-12.011v-116.34zm0 0" fill="#ed6161"/><path d="M351.133 197.797c-2.203-3.766-4.914-7.242-8.23-10.274-11.594-10.605-26.31-17.105-38.22-27.332-4.87-4.183-9.265-8.933-14.425-12.754-5.16-3.82-11.336-6.726-17.75-6.468s-12.945 4.355-14.516 10.582c-2.687 10.633 7.715 18.191 14.543 24.3 7.215 6.454 13.863 14.958 13.777 25.114-.07 7.762-5.074 15.719-12.613 17.558-6.883 1.676-13.84-1.753-20.336-4.585-6.008-2.618-12.308-4.18-18.172-4.297l5.817 20.675s26.457 23.77 44.68 41.082c.414.391 1.03.477 1.539.215 31.207-16.164 52.652-44.058 63.906-73.816zm0 0" fill="#ed6161"/><path d="M287.398 271.52c29.122-15.141 51.63-41.715 63.73-73.73a48.992 48.992 0 0 0-1.132-1.83c-10.539 17.708-27.32 32.997-50.488 41.907-.48.184-1.086.074-1.52-.273-7.398-6.043-16.09-12.977-23.93-19.18-.12.031-.238.078-.363.106-6.882 1.68-13.836-1.754-20.332-4.583-6.008-2.617-12.308-4.18-18.172-4.296l5.817 20.675s5.812 5.223 13.867 12.555c2.684 2.445 5.617 5.121 8.668 7.922 24.203 22.2 22.258 21.555 23.855 20.727zm0 0" fill="#ce4545"/><path d="M358.148 200.45c.106-.29.196-.583.27-.876 13.371-36.191 12.723-75.484-3.762-101.687a7.529 7.529 0 0 0-3.781-3.055L232.199 51.641l4.934-13.559c1.058-2.89.922-6.02-.383-8.809a11.41 11.41 0 0 0-6.496-5.945L168.05.684c-5.95-2.149-12.563.937-14.735 6.89l-4.933 13.559-11.813-4.301a19.23 19.23 0 0 0-14.8.648 19.243 19.243 0 0 0-10.008 10.922l-30.957 85.055c-3.653 10.031 1.539 21.16 11.566 24.809l4.234 1.543c-11.12 29.617-15.574 56.77-13.238 80.796 4.617 47.547-15.199 83.25-34.363 117.778-4.445 8.012-8.649 15.582-12.54 23.289a746.028 746.028 0 0 0-5.835 11.836 7.5 7.5 0 1 0 13.512 6.515 750.605 750.605 0 0 1 5.718-11.597c3.758-7.438 7.887-14.883 12.262-22.762 19.332-34.836 41.246-74.312 36.18-126.508-2.117-21.773 2.054-46.715 12.402-74.219l63.785 23.22c-1.812 51.16-37.312 126.734-70.57 169.44-37.824 48.555-49.238 120.903-40.77 151.4 1.141 4.124-15.496 11.183-31.796 6.495-5.864-1.683-13.278-5.508-15.305-14.16-2.442-10.441-1.656-31.809 15.953-74.336a7.497 7.497 0 0 0-4.059-9.797 7.497 7.497 0 0 0-9.796 4.059c-15.583 37.62-21.047 64.93-16.708 83.496 2.88 12.277 12.032 21.21 25.77 25.156 4.926 1.418 10.188 2.09 15.383 2.09 12.027 0 23.71-3.605 30.129-9.969 4.863-4.816 6.593-10.87 4.879-17.047-7.446-26.812 3.718-93.964 38.152-138.168 17.96-23.062 36.152-54.75 49.918-86.945 9.918-23.2 21.477-55.953 23.562-86.348l26.145 9.516a10.524 10.524 0 0 1 6.516 7.02l11.894 42.293a7.5 7.5 0 0 0 2.207 3.546c.106.094 4.184 3.758 10.184 9.211 3.976 3.61 8.793 8 13.86 12.653v84.117c0 10.758 8.753 19.508 19.51 19.508 5.216 0 10.118-2.028 13.79-5.703 3.695-3.676 5.73-8.579 5.73-13.805v-42.524a4.51 4.51 0 0 1 9.02 0v19.993c0 10.757 8.754 19.507 19.512 19.507 5.214 0 10.117-2.027 13.804-5.714s5.715-8.586 5.715-13.793v-24.141c0-4.145-3.355-7.5-7.5-7.5-4.14 0-7.5 3.36-7.5 7.5v24.14a4.486 4.486 0 0 1-1.32 3.188 4.515 4.515 0 0 1-7.707-3.188v-19.992c0-5.222-2.035-10.125-5.703-13.78a19.366 19.366 0 0 0-13.809-5.731c-10.758 0-19.512 8.754-19.512 19.511v42.524a4.442 4.442 0 0 1-1.324 3.183 4.472 4.472 0 0 1-3.195 1.325 4.515 4.515 0 0 1-4.508-4.508v-70.211c1.883 1.766 3.723 3.5 5.48 5.168a8.824 8.824 0 0 0 6.086 2.43 8.83 8.83 0 0 0 4.114-1.016c4.699-2.434 9.304-5.188 13.691-8.184a7.498 7.498 0 0 0 1.969-10.421c-2.332-3.422-7-4.301-10.422-1.97a117.467 117.467 0 0 1-8.36 5.208c-11.734-11.051-27.69-25.621-39.706-36.453-.086-.082-.172-.157-.254-.23l-2.016-7.173c1.57.5 3.16 1.098 4.746 1.79l1.403.617c6.617 2.91 14.847 6.53 23.703 4.378 10.52-2.566 18.23-12.988 18.336-24.78.238-27.208-31.442-36.188-28.547-47.645.648-2.575 4.035-4.782 7.547-4.922 8.09-.344 15.738 7.023 21.316 12.254 1.813 1.703 3.688 3.46 5.672 5.164 5.707 4.898 11.91 8.933 17.96 12.804.141.098.29.192.438.278.227.144.457.293.688.437 6.863 4.387 13.347 8.528 18.957 13.657 1.789 1.636 3.43 3.5 4.902 5.57-5.96 14.562-14.39 28.144-24.527 39.469a7.5 7.5 0 0 0 11.176 10.004 149.267 149.267 0 0 0 2.726-3.137v20.242a7.5 7.5 0 1 0 15 0v-41.578a149.92 149.92 0 0 0 2.617-4.707c3.2-5.957 6.02-12.145 8.414-18.473zM166.223 15.98l55.62 20.25-3.738 10.278-55.625-20.246zm128.5 125.43c-21.383-15.832-40.586-5.234-44.004 8.305-6.11 24.18 28.265 31.226 28.09 51.183-.04 4.786-3.133 9.422-6.887 10.336-7.09 1.727-15.938-6.492-30.918-8.625l-4.672-16.613a25.567 25.567 0 0 0-15.824-17.055l-123.004-44.77a4.324 4.324 0 0 1-2.457-2.25 4.327 4.327 0 0 1-.149-3.331c32.551-88.086 30.114-86.07 33.211-87.516 2.848-1.328 3.586.371 22.133 6.7l.059.023c.02.004.043.012.062.02L315.848 98.05c6.425 17.476 6.972 39.664 1.636 62.496-11.808-8.188-13.957-12.617-22.761-19.137zm36.047 27.797c6.105-22.75 6.945-45.422 2.543-64.8l9.93 3.613c8.089 14.18 11.234 33.359 8.87 54.367-.75 6.652-2.039 13.32-3.828 19.902-.105-.101-.215-.2-.32-.3-5.395-4.934-11.317-8.981-17.195-12.782zm0 0"/></svg>