<svg xmlns="http://www.w3.org/2000/svg" viewBox="0 0 511.785 511.785" style="enable-background:new 0 0 511.785 511.785" xml:space="preserve" width="512" height="512"><path style="fill:#cc7400" d="M474.13 353.32 353.753 473.697c-7.731 7.731-20.266 7.731-27.997 0l-.618-.619c-7.731-7.731-7.731-20.266 0-27.997l120.377-120.377c7.731-7.731 20.266-7.731 27.997 0l.618.619c7.731 7.731 7.731 20.265 0 27.997zM158.031 473.697 37.654 353.32c-7.731-7.731-7.731-20.266 0-27.997l.619-.618c7.731-7.731 20.266-7.731 27.997 0l120.377 120.377c7.731 7.731 7.731 20.266 0 27.997l-.619.618c-7.731 7.731-20.265 7.731-27.997 0z"/><path style="fill:#cc7400" d="M158.031 473.697 37.654 353.32c-7.731-7.731-7.731-20.266 0-27.997l.619-.618c7.731-7.731 20.266-7.731 27.997 0l120.377 120.377c7.731 7.731 7.731 20.266 0 27.997l-.619.618c-7.731 7.731-20.265 7.731-27.997 0z"/><path style="fill:#acacad" d="m255.892 352.089 91.13 71.108 38.304-38.305 38.304-38.304-60.81-77.933z"/><path style="fill:#999" d="m362.82 268.655-106.928 83.434 27.087 21.136 99.473-79.409z"/><path style="fill:#acacad" d="m174.119 238.155 53.961-5.432-25.159-30.236 40.584-51.856 23.975-4.161-68.84-88.225L8.366 7.933l50.313 190.274 90.887 70.918z"/><path style="fill:#999" d="m267.48 146.47-32.205-41.273-110.351 144.7 24.642 19.228 24.553-30.97 53.961-5.432-25.159-30.236 40.584-51.856z"/><path style="fill:#e0e0e2" d="M503.418 7.933 313.144 58.245 286.53 96.361l-1.629 47.085-41.396 7.185-40.584 51.856 25.159 30.236-53.961 5.432-85.964 108.433 38.304 38.305 38.304 38.304 288.343-224.99z"/><path style="fill:#c6c5ca" d="m466.899 17.59-43.793 165.617-279.918 218.415 21.575 21.575 288.343-224.99L503.418 7.933z"/><path style="fill:#3e3d42" d="m441.599 385.851-55.315 55.315 51.251 51.251c15.275 15.275 40.04 15.275 55.315 0 15.275-15.275 15.275-40.04 0-55.315l-51.251-51.251z"/><path style="fill:#ba6500" d="m346.969 452.483-.618-.619c-7.731-7.731-7.731-20.266 0-27.997l-21.213 21.213c-7.731 7.731-7.731 20.266 0 27.997l.618.619c7.731 7.731 20.266 7.731 27.997 0l21.213-21.213c-7.731 7.732-20.265 7.732-27.997 0z"/><path style="fill:#2d2d30" d="m458.748 471.204-51.251-51.251-21.213 21.213 51.251 51.251c15.275 15.275 40.04 15.275 55.315 0a38.996 38.996 0 0 0 8.496-12.717c-14.171 5.849-31.081 3.02-42.598-8.496z"/><path style="fill:#3e3d42" d="m125.501 441.166-55.315-55.315-51.251 51.251c-15.275 15.275-15.275 40.04 0 55.315 15.275 15.275 40.04 15.275 55.315 0l51.251-51.251z"/><path style="fill:#ba6500" d="m186.647 445.081-21.213-21.213c7.731 7.731 7.731 20.266 0 27.997l-.618.619c-7.731 7.731-20.266 7.731-27.997 0l21.213 21.213c7.731 7.731 20.266 7.731 27.997 0l.618-.619c7.731-7.731 7.731-20.266 0-27.997z"/><path style="fill:#2d2d30" d="m104.287 419.952-51.251 51.251c-11.517 11.517-28.426 14.345-42.598 8.496a38.996 38.996 0 0 0 8.496 12.717c15.275 15.275 40.04 15.275 55.315 0l51.251-51.251-21.213-21.213z"/><path d="m498.154 431.798-45.947-45.947 27.227-27.228h-.001c5.156-5.155 7.996-12.011 7.996-19.302s-2.84-14.146-7.991-19.297l-.622-.624c-5.156-5.155-12.011-7.995-19.303-7.995-7.291 0-14.147 2.84-19.302 7.995l-15.887 15.887-50.977-65.333 84.373-65.834a7.503 7.503 0 0 0 2.637-3.996L510.669 9.85a7.504 7.504 0 0 0-1.947-7.221 7.51 7.51 0 0 0-7.221-1.947L388.077 30.674a7.5 7.5 0 1 0 3.834 14.502l100.96-26.695L446.5 193.847l-155.328 121.2a7.491 7.491 0 0 0-2.883 5.712 7.468 7.468 0 0 0 1.585 4.815c.016.02.034.037.05.057.158.199.325.388.498.566.066.068.138.129.206.194.131.124.263.247.401.36.081.066.164.128.247.19a7.585 7.585 0 0 0 .673.455c.145.086.292.166.441.242.088.045.175.09.264.13.164.075.331.142.499.204.078.029.155.062.234.089.228.077.46.143.694.198.02.005.039.012.059.016.259.058.521.101.784.132.064.007.128.009.191.014.197.018.395.031.593.033.028 0 .055.005.083.005.035 0 .07-.008.105-.009a7.48 7.48 0 0 0 1.087-.088l.02-.002a7.46 7.46 0 0 0 1.072-.266c.062-.02.124-.038.185-.06.339-.119.671-.262.996-.432.059-.031.115-.065.173-.097a7.53 7.53 0 0 0 .97-.633l9.156-7.144 65.164 65.163-28.312 28.312-78.323-61.115 10.096-7.878a7.484 7.484 0 0 0 2.883-5.713 7.503 7.503 0 0 0-12.112-6.114l-103.575 80.819-28.312-28.312L380.92 141.035a7.5 7.5 0 0 0-10.607-10.607L126.458 374.285 98.184 346.01l57.256-72.222.004-.004 22.582-28.484 50.806-5.114a7.496 7.496 0 0 0 6.19-4.623 7.497 7.497 0 0 0-1.176-7.636l-21.288-25.584 35.074-44.816 21.131-3.667.003-.001 17.417-3.023a7.499 7.499 0 0 0 6.213-7.13l1.553-44.869 23.772-34.043 41.947-11.092a7.5 7.5 0 1 0-3.834-14.502l-44.605 11.795a7.505 7.505 0 0 0-4.233 2.957L280.38 92.067a7.506 7.506 0 0 0-1.346 4.034l-1.419 40.997-6.987 1.213-66.075-84.679a7.507 7.507 0 0 0-3.996-2.637L10.283.681A7.501 7.501 0 0 0 1.116 9.85l23.871 90.277a7.5 7.5 0 1 0 14.502-3.834L18.913 18.479 194.28 64.851l59.591 76.368-11.648 2.022a7.499 7.499 0 0 0-4.624 2.768l-35.363 45.186-60.765-60.764a7.5 7.5 0 0 0-10.607 10.607l66.515 66.514 15.911 19.122-39.922 4.019a7.495 7.495 0 0 0-5.126 2.803l-19.929 25.138-83.028-64.786-17.474-66.083a7.498 7.498 0 0 0-9.168-5.334 7.5 7.5 0 0 0-5.334 9.168l18.119 68.525a7.5 7.5 0 0 0 2.638 3.996l84.928 66.268-51.488 64.946L71.573 319.4c-10.642-10.64-27.958-10.643-38.607.005l-.613.614c-5.156 5.155-7.996 12.011-7.996 19.302s2.84 14.146 7.995 19.302l27.227 27.228-45.947 45.947c-18.175 18.175-18.175 47.748 0 65.923 9.088 9.087 21.024 13.631 32.961 13.631s23.873-4.544 32.961-13.631l45.947-45.947 27.228 27.228h.001c5.321 5.32 12.309 7.98 19.3 7.98 6.99 0 13.983-2.662 19.308-7.985l.613-.614c5.156-5.155 7.996-12.011 7.996-19.302s-2.84-14.146-7.995-19.303l-15.885-15.885 79.828-62.289 79.827 62.289-15.885 15.885c-10.643 10.643-10.643 27.961-.004 38.6l.623.624c5.321 5.32 12.312 7.982 19.301 7.982 6.99 0 13.98-2.661 19.303-7.982l27.227-27.228 45.947 45.947c9.088 9.087 21.024 13.631 32.961 13.631s23.873-4.544 32.961-13.631c18.172-18.175 18.172-47.749-.002-65.923zM76.539 479.519l-44.707-44.708 14.188-14.188 44.708 44.707-14.189 14.189zm-52.3 7.594c-11.304-11.303-12.234-29.103-2.805-41.485l44.29 44.29c-12.382 9.428-30.184 8.499-41.485-2.805zm77.096-32.389-44.709-44.708 13.558-13.559 44.709 44.709-13.558 13.558zm83.61 4.356a12.22 12.22 0 0 1-3.606 8.699l-.613.614c-4.795 4.793-12.597 4.795-17.392 0h.001l-32.531-32.531-55.314-55.315-.01-.009-32.522-32.522a12.216 12.216 0 0 1-3.602-8.694 12.22 12.22 0 0 1 3.606-8.699l.613-.614c4.794-4.795 12.597-4.796 17.391 0l21.885 21.885 76.608 76.608 21.884 21.884a12.209 12.209 0 0 1 3.602 8.694zm250.3 20.439-14.189-14.188 44.708-44.707 14.188 14.188-44.707 44.707zM321.472 310.431l40.05-31.25 52.116 66.793-28.311 28.311-63.855-63.854zm26.978 157.962c-4.797 4.793-12.598 4.792-17.387.005l-.622-.624c-4.795-4.794-4.795-12.596 0-17.39l21.882-21.882.002-.002 76.608-76.608.008-.009 21.877-21.877a12.216 12.216 0 0 1 8.694-3.602 12.21 12.21 0 0 1 8.691 3.598l.623.624a12.216 12.216 0 0 1 3.602 8.694c0 3.284-1.279 6.372-3.602 8.694h-.001l-32.526 32.526-.006.005-55.314 55.315-.004.005-32.525 32.528zm93.15-71.935 13.558 13.559-44.709 44.708-13.558-13.558 44.709-44.709zm45.946 90.655c-11.302 11.304-29.102 12.233-41.484 2.805l44.29-44.29c9.428 12.382 8.499 30.182-2.806 41.485z"/></svg>