<svg xmlns="http://www.w3.org/2000/svg" viewBox="0 0 512 512" style="enable-background:new 0 0 512 512" xml:space="preserve"><path style="fill:#ccdfed" d="m388.267 8.335-13.439 8.352c-.57.354-1.072.81-1.479 1.344L332.151 72.04l6.936 11.161 73.742-45.825-16.941-27.262a5.534 5.534 0 0 0-7.621-1.779z"/><path style="fill:#9ebecc" d="m412.524 86.505 17.713-11.007a5.334 5.334 0 0 0 1.715-7.346l-26.066-41.945-147.483 91.65 39.453 63.488 108.227-67.255c4.698-2.919 6.14-9.094 3.22-13.792-2.918-4.699-1.476-10.874 3.221-13.793z"/><path style="fill:#8caeba" d="m423.902 55.196-147.483 91.65 21.438 34.498 108.227-67.255c4.698-2.919 6.14-9.094 3.22-13.792-2.919-4.698-1.477-10.873 3.22-13.792l17.713-11.007a5.334 5.334 0 0 0 1.715-7.346l-8.05-12.956z"/><path style="fill:#9ebecc" d="m81.294 248.234 8.884-5.52a15.749 15.749 0 0 1 11.891-1.96l6.681 1.56a16.04 16.04 0 0 0 12.112-1.996l29.602-18.395 25.569 41.145-38.971 14.345-55.049-21.426c-3.343-1.301-3.765-5.86-.719-7.753z"/><path style="fill:#ccdfed" d="m267.091 112.457-128.654 79.949c-4.795 2.98-6.605 9.041-4.298 14.194 14.51 32.397 3.208 71.338-27.781 90.596l-.058.036c-5.532 3.431-7.253 10.681-3.848 16.229 1.198 1.952 2.486 4.063 3.945 6.282 8.067 12.266 12.065 26.761 11.12 41.412l-3.063 47.48a97.093 97.093 0 0 0 6.717 42.245L138.382 494c3.849 9.642 15.477 13.464 24.295 7.984l57.189-35.539c13.249-8.233 17.214-25.707 8.816-38.853l-6.419-10.048a111.23 111.23 0 0 1-16.19-42.888l-3.814-24.667a45.572 45.572 0 0 0 21.367 9.838 45.594 45.594 0 0 0 36.167-9.328l38.286-30.633c18.015-14.414 22.41-40.02 10.233-59.616l-8.656-13.93 17.789-11.054c10.344-6.428 13.519-20.025 7.091-30.369l-57.445-92.44zm22.522 158.644c6.617 10.648 4.225 24.583-5.564 32.415l-36.763 29.414c-5.522 4.418-12.692 6.269-19.665 5.072s-13.114-5.33-16.848-11.339c-6.217-10.004-3.147-23.154 6.858-29.371l50.295-31.254c7.386-4.591 17.096-2.324 21.687 5.063z"/><path style="fill:#bfd4e0" d="m324.534 204.896-57.444-92.439-34.18 21.24 44.244 71.198c6.428 10.344 3.254 23.941-7.091 30.369l-17.789 11.054s-79.495 48.748-83.563 52.04a21.236 21.236 0 0 0-2.291 1.996c-8.242 7.717-17.864 22.932-11.542 49.634l3.814 24.666c10.177 55.995 34.652 86.437 48.461 99.689l12.711-7.899c13.249-8.233 17.214-25.707 8.816-38.853l-6.419-10.048a111.245 111.245 0 0 1-16.19-42.888l-3.814-24.667a45.572 45.572 0 0 0 21.367 9.838 45.597 45.597 0 0 0 36.168-9.328l38.286-30.633c18.015-14.414 22.41-40.02 10.233-59.616l-8.657-13.93 17.789-11.054c10.345-6.428 13.519-20.025 7.091-30.369zm-40.485 98.62-36.763 29.414a24.793 24.793 0 0 1-19.665 5.072 24.788 24.788 0 0 1-16.848-11.339c-6.217-10.004-3.147-23.154 6.858-29.371l50.295-31.254c7.387-4.591 17.097-2.323 21.687 5.064 6.616 10.647 4.225 24.582-5.564 32.414z"/><path style="fill:#bf6325" d="m128.612 309.298-27.834-3.208a11.746 11.746 0 0 0 1.674 7.371c1.255 2.046 2.609 4.266 4.155 6.601 8.031 12.13 11.846 26.574 10.909 41.092l-3.063 47.48a97.093 97.093 0 0 0 6.717 42.245l17.211 43.12c3.849 9.643 15.477 13.464 24.295 7.984l57.189-35.539c13.249-8.233 17.214-25.707 8.816-38.853l-6.419-10.048a111.23 111.23 0 0 1-16.19-42.888l-3.814-24.667-20.034-4.674a39.508 39.508 0 0 1-24.58-17.622 39.508 39.508 0 0 0-29.032-18.394z"/><path style="fill:#9e5015" d="m228.681 427.592-6.419-10.048a111.293 111.293 0 0 1-13.62-30.806 109.1 109.1 0 0 1-.911-3.57 111.477 111.477 0 0 1-1.658-8.511l-1.907-12.334-1.907-12.334-20.034-4.674a39.508 39.508 0 0 1-24.58-17.622 39.492 39.492 0 0 0-3.698-5.003c-1.57 7.356-1.657 16.363.932 27.299l3.814 24.666c10.177 55.995 34.652 86.437 48.461 99.689l12.711-7.899a28.158 28.158 0 0 0 3.274-2.381c.43-.362.851-.731 1.255-1.114a27.92 27.92 0 0 0 7.666-12.776c.141-.508.264-1.02.376-1.535.263-1.203.448-2.423.551-3.652a27.989 27.989 0 0 0 .039-4.216 27.878 27.878 0 0 0-4.345-13.179z"/><path style="fill:#9ebecc" d="m299.437 217.11-87.462 54.351a4.569 4.569 0 0 1-6.292-1.469l-37.049-59.62a4.569 4.569 0 0 1 1.469-6.292l87.462-54.351a4.569 4.569 0 0 1 6.292 1.469l37.049 59.62a4.569 4.569 0 0 1-1.469 6.292z"/><path style="fill:#8caeba" d="m257.565 149.729-48.999 30.449c-5.542 3.444-7.243 10.729-3.799 16.271 3.444 5.542 10.729 7.243 16.271 3.799l52.879-32.86-10.06-16.189a4.568 4.568 0 0 0-6.292-1.47zM234.168 243.76c3.444 5.542 10.729 7.243 16.271 3.799l48.999-30.449a4.569 4.569 0 0 0 1.469-6.292l-10.06-16.189-52.879 32.86c-5.543 3.444-7.244 10.729-3.8 16.271z"/><path d="m263.967 259.669-50.293 31.255c-13.5 8.388-17.658 26.196-9.269 39.696a32.289 32.289 0 0 0 21.948 14.771 32.298 32.298 0 0 0 25.617-6.607l36.763-29.414c12.751-10.202 15.867-28.355 7.247-42.225a23.089 23.089 0 0 0-14.458-10.368c-6.045-1.412-12.279-.384-17.555 2.892zm19.278 15.389c4.614 7.426 2.946 17.143-3.879 22.604l-36.763 29.414a17.281 17.281 0 0 1-13.713 3.537 17.288 17.288 0 0 1-11.749-7.906c-2.469-3.974-2.664-8.721-.957-12.73l4.263 2.304a32.32 32.32 0 0 0 15.37 3.873 32.35 32.35 0 0 0 16.787-4.677l3.037-1.844a7.497 7.497 0 0 0-7.78-12.818l-3.037 1.844c-5.001 3.035-11.241 3.319-16.488.808l43.546-27.062a8.205 8.205 0 0 1 6.231-1.027 8.206 8.206 0 0 1 5.132 3.68z"/><path d="m438.32 64.194-26.066-41.945-9.999-16.092A12.942 12.942 0 0 0 394.15.346a12.947 12.947 0 0 0-9.84 1.622l-13.439 8.352a12.965 12.965 0 0 0-3.482 3.164l-40.345 52.891-63.902 39.71-.009.005-128.654 79.948c-7.922 4.923-11.01 15.08-7.182 23.626a63.748 63.748 0 0 1 4.589 14.977l-14.98 9.309a8.486 8.486 0 0 1-6.451 1.063l-6.681-1.56a23.106 23.106 0 0 0-17.553 2.893l-8.884 5.52a11.785 11.785 0 0 0-5.545 11.159 11.788 11.788 0 0 0 7.501 9.949l38.158 14.852a64.27 64.27 0 0 1-15.102 13.035c-5.159 3.2-8.277 8.47-8.97 14.085-.02.127-.045.253-.058.381-.029.278-.035.555-.052.832-.01.16-.024.319-.03.479-.02.55-.018 1.098.009 1.642.001.029 0 .058.002.087.033.618.096 1.23.188 1.838l.009.051c.086.563.202 1.119.338 1.671.031.128.069.255.103.382a19.22 19.22 0 0 0 .579 1.797c.157.413.33.82.515 1.224.07.153.135.308.21.46.266.54.551 1.073.87 1.592l.14.228.155.252.134.218c.4.652.821 1.335 1.257 2.036.136.219.267.432.407.655.119.191.245.387.367.581.217.344.433.687.658 1.039.126.197.258.397.386.596.188.291.373.58.567.875 7.209 10.964 10.727 24.036 9.903 36.81l-3.062 47.48c-.995 15.421 1.507 31.157 7.235 45.507l17.211 43.12a24.12 24.12 0 0 0 14.906 14.007 24.21 24.21 0 0 0 7.562 1.214c3.34 0 6.658-.695 9.745-2.06a24.304 24.304 0 0 0 3.003-1.587l57.187-35.538c8.124-5.048 13.765-12.965 15.881-22.292 2.116-9.328.446-18.904-4.703-26.965l-6.419-10.049a104.032 104.032 0 0 1-7.623-14.246 103.253 103.253 0 0 1-7.476-25.751l-1.416-9.158a53.013 53.013 0 0 0 47.277-4.37 53.018 53.018 0 0 0 5.135-3.63l38.287-30.633c20.965-16.775 26.088-46.622 11.917-69.428l-4.699-7.562 11.42-7.097c6.705-4.166 11.386-10.693 13.18-18.38 1.795-7.686.489-15.611-3.677-22.315l-14.034-22.583 93.173-57.9c8.2-5.096 10.727-15.915 5.631-24.118a2.5 2.5 0 0 1-.313-1.9 2.508 2.508 0 0 1 1.11-1.556l7.82-4.86.037-.026 9.868-6.132a12.746 12.746 0 0 0 5.724-7.982 12.774 12.774 0 0 0-1.603-9.688zm-59.229-41.33 11.466-7.125 5.005 8.055-32.664 20.299 16.193-21.229zM90.594 251.282l3.541-2.2a8.188 8.188 0 0 1 6.23-1.027l6.681 1.56a23.394 23.394 0 0 0 17.775-2.929l7.756-4.82a65.241 65.241 0 0 1-6.659 23.164l-35.324-13.748zm125.35 170.299 6.419 10.048a20.354 20.354 0 0 1 2.717 15.574c-1.07 4.714-3.697 8.804-7.481 11.706a20.87 20.87 0 0 1-1.691 1.169l-57.188 35.538a9.16 9.16 0 0 1-7.713.924 9.156 9.156 0 0 1-5.661-5.319l-17.211-43.12c-4.907-12.293-7.05-25.773-6.198-38.983l3.062-47.48.002-.052c1.025-16.071-3.286-32.286-12.141-45.662l-.275-.42c-.122-.185-.23-.362-.349-.546l15.52 1.789c9.762 1.125 18.335 6.558 23.523 14.904 6.627 10.667 17.013 18.113 29.244 20.966l15.101 3.524 3.04 19.662c.197 1.272.42 2.536.656 3.795 2.805 14.978 8.384 29.086 16.624 41.983zm102.222-212.727a14.458 14.458 0 0 1 1.811 10.991 14.453 14.453 0 0 1-6.492 9.053l-17.788 11.054a7.496 7.496 0 0 0-2.411 10.325l8.657 13.93c10.166 16.36 6.491 37.772-8.549 49.805l-38.288 30.633a38.035 38.035 0 0 1-30.214 7.792 38.125 38.125 0 0 1-17.851-8.221c-.014-.012-.03-.02-.045-.032-.19-.155-.397-.289-.603-.426-.108-.072-.211-.156-.322-.222-.193-.114-.4-.204-.604-.301-.135-.064-.266-.142-.405-.198-.158-.064-.328-.105-.492-.158-.194-.063-.385-.136-.583-.183-.01-.002-.019-.007-.029-.009l-20.033-4.674c-8.329-1.943-15.402-7.014-19.916-14.278-7.617-12.257-20.207-20.234-34.542-21.886l-14.222-1.639a79.002 79.002 0 0 0 19.773-20.964c.229-.269.444-.553.636-.86 9.464-15.05 13.656-33.072 11.805-50.747-.017-.165-.055-.323-.082-.485a78.596 78.596 0 0 0-6.399-23.62c-.776-1.732-.169-3.778 1.413-4.761l122.286-75.992 53.489 86.073zm90.402-128.718-.034.023-53.211 33.066a7.497 7.497 0 1 0 7.916 12.736l38.539-23.949c.336.765.709 1.518 1.158 2.241a2.522 2.522 0 0 1-.81 3.468l-93.172 57.899-2.656-4.274 27.309-16.97a7.497 7.497 0 0 0-7.915-12.736l-27.309 16.97-20.968-33.741 58.747-36.507.044-.028 67.269-41.803 20.967 33.74-15.874 9.865z"/><path d="M253.788 143.261c-.06.036-.122.064-.182.1h.001l.181-.1-87.642 54.45c-5.651 3.511-7.392 10.966-3.88 16.618l37.048 59.62a11.99 11.99 0 0 0 7.506 5.382 11.987 11.987 0 0 0 9.112-1.501l87.462-54.351c.349-.217.683-.45 1.004-.697.058-.045.11-.096.168-.142.261-.208.517-.421.757-.648.017-.016.032-.034.049-.051a11.99 11.99 0 0 0 3.403-5.967c.628-2.688.32-5.446-.849-7.903-.021-.045-.037-.092-.059-.137a12.21 12.21 0 0 0-.593-1.072l-37.05-59.622a12.008 12.008 0 0 0-6.392-5.057 12.042 12.042 0 0 0-10.044 1.078zm-41.264 43.285 9.137-5.678 37.374-23.225 4.558 7.333-46.511 28.903a4.322 4.322 0 0 1-5.947-1.388 4.32 4.32 0 0 1 1.389-5.945zm80.468 25.742-46.512 28.903c-2.024 1.257-4.689.633-5.945-1.389s-.634-4.689 1.389-5.946l46.51-28.903 4.558 7.335zm-21.485-34.576 9.014 14.506-46.511 28.903c-9.045 5.621-11.831 17.552-6.21 26.596a19.263 19.263 0 0 0 2.701 3.405l-19.995 12.426-33.958-54.645 20.002-12.429a19.291 19.291 0 0 0 1.851 3.933c3.653 5.88 9.973 9.114 16.434 9.114a19.21 19.21 0 0 0 10.162-2.904l46.51-28.905z"/></svg>