<svg xmlns="http://www.w3.org/2000/svg" viewBox="0 0 512 512" style="enable-background:new 0 0 512 512" xml:space="preserve"><path style="fill:#464655" d="M260.423 79.067H189.65a8.847 8.847 0 0 0-8.847 8.847v39.81h88.467v-39.81a8.847 8.847 0 0 0-8.847-8.847z"/><circle style="fill:#5b5d6e" cx="225.037" cy="309.08" r="194.626"/><path style="fill:#464655" d="M290.649 438.094c-107.489 0-194.626-87.137-194.626-194.626 0-36.928 10.285-71.452 28.146-100.867C67.962 176.727 30.41 238.518 30.41 309.08c0 107.489 87.137 194.626 194.626 194.626 70.562 0 132.353-37.552 166.481-93.759-29.416 17.862-63.94 28.147-100.868 28.147z"/><circle style="fill:#fff082" cx="428.51" cy="96.76" r="44.233"/><path d="M428.51 88.467h-70.773c-19.816 0-35.94-16.122-35.94-35.94C321.797 23.564 298.233 0 269.27 0s-52.527 23.564-52.527 52.527v18.246H189.65c-9.452 0-17.14 7.689-17.14 17.14v25.154C86.001 136.272 22.117 215.35 22.117 309.08c0 111.89 91.03 202.92 202.92 202.92s202.92-91.03 202.92-202.92c0-93.73-63.884-172.808-150.393-196.012V87.914c0-9.452-7.689-17.14-17.14-17.14H233.33V52.527c0-19.818 16.123-35.94 35.94-35.94s35.94 16.122 35.94 35.94c0 28.963 23.564 52.527 52.527 52.527h70.773a8.294 8.294 0 0 0 0-16.587zM411.369 309.08c0 102.744-83.589 186.333-186.333 186.333S38.704 411.824 38.704 309.08s83.589-186.333 186.333-186.333 186.332 83.589 186.332 186.333zM260.976 87.914v21.434c-11.668-2.094-23.678-3.188-35.94-3.188s-24.272 1.094-35.94 3.188V87.914c0-.304.248-.553.553-.553h70.773c.307 0 .554.248.554.553zM481.59 88.467h-17.693a8.294 8.294 0 0 0 0 16.588h17.693a8.294 8.294 0 0 0 0-16.588zM428.51 35.387a8.294 8.294 0 0 0-8.294 8.294v17.693a8.294 8.294 0 0 0 16.588 0V43.68a8.295 8.295 0 0 0-8.294-8.293z"/><path d="M428.51 123.853a8.294 8.294 0 0 0-8.294 8.294v17.693a8.294 8.294 0 0 0 16.588 0v-17.693a8.295 8.295 0 0 0-8.294-8.294zM459.397 115.918a8.292 8.292 0 0 0-11.728 0 8.292 8.292 0 0 0 0 11.728l12.51 12.51c1.619 1.62 3.742 2.43 5.864 2.43s4.245-.809 5.864-2.43a8.295 8.295 0 0 0 0-11.73l-12.51-12.508zM397.623 77.603c1.619 1.62 3.742 2.43 5.864 2.43s4.245-.809 5.864-2.43a8.292 8.292 0 0 0 0-11.728l-12.51-12.51a8.291 8.291 0 0 0-11.728 0 8.295 8.295 0 0 0 0 11.73l12.51 12.508zM397.623 115.918l-12.51 12.51a8.295 8.295 0 0 0 11.728 11.73l12.51-12.51a8.292 8.292 0 0 0 0-11.728 8.291 8.291 0 0 0-11.728-.002zM453.531 80.032a8.261 8.261 0 0 0 5.864-2.43l12.51-12.51a8.295 8.295 0 0 0-11.728-11.73l-12.51 12.51a8.292 8.292 0 0 0 0 11.728 8.257 8.257 0 0 0 5.864 2.432zM283.78 169.988a150.967 150.967 0 0 1 16.731 8.339 8.292 8.292 0 0 0 11.333-3.026 8.295 8.295 0 0 0-3.026-11.333 167.592 167.592 0 0 0-18.578-9.258 8.295 8.295 0 0 0-6.46 15.278zM191.486 456.286c-33.973-7.71-64.492-27.226-85.934-54.955a8.293 8.293 0 0 0-11.634-1.487 8.292 8.292 0 0 0-1.487 11.634c23.792 30.768 57.667 52.425 95.386 60.984.618.14 1.235.208 1.843.208a8.295 8.295 0 0 0 1.826-16.384zM325.653 196.556c21.228 18.996 36.594 43.414 44.438 70.615a8.297 8.297 0 0 0 10.267 5.672 8.295 8.295 0 0 0 5.671-10.268c-8.708-30.2-25.761-57.303-49.315-78.379-3.414-3.054-8.658-2.765-11.711.65a8.291 8.291 0 0 0 .65 11.71z"/></svg>