<svg height="512pt" viewBox="0 0 512.027 512" width="512pt" xmlns="http://www.w3.org/2000/svg"><path d="M434.945 282.82a114.612 114.612 0 0 1-34.562 79.274 120.933 120.933 0 0 1-18.176 14.68.087.087 0 0 0-.086.085l-74.664 24.063h-.344c-1.96.172-4.008.172-5.972.172-5.504-.012-11-.324-16.47-.942l-.171-.082-102.227-62.636a108.335 108.335 0 0 1-15.53-55.637 107.05 107.05 0 0 1 11.093-47.274 102.35 102.35 0 0 1 17.406-25.941 46.31 46.31 0 0 0 14.594-22.871c2.559-15.617-9.898-29.098-24.746-35.84a167.648 167.648 0 0 0-17.238-5.375 7.202 7.202 0 0 1-3.586-12.117 57.112 57.112 0 0 1 32.257-16.043c2.73-.426 5.633-.684 8.704-.856 8.773-.304 17.55.528 26.113 2.477-10.668-43.348 2.133-94.379 52.137-107.18a59.658 59.658 0 0 1 6.57-1.277 98.123 98.123 0 0 1 39.254 2.73c1.453.426 19.285 7.168 20.222 7.168-30.632 27.133-12.882 70.227 10.754 95.403a353.238 353.238 0 0 1 53.844 67.668 188.237 188.237 0 0 1 20.738 80.812c.41 6.504.442 13.031.086 19.54zm0 0" fill="#ff9801"/><path d="M409.344 282.82a114.608 114.608 0 0 1-34.559 79.274 121.327 121.327 0 0 1-18.176 14.68.087.087 0 0 0-.086.085L284.5 400.07l-102.227-62.636a108.335 108.335 0 0 1-15.53-55.637 107.05 107.05 0 0 1 11.093-47.274 102.35 102.35 0 0 1 17.406-25.941 46.31 46.31 0 0 0 14.594-22.871c2.559-15.617-9.899-29.098-24.746-35.84a167.648 167.648 0 0 0-17.238-5.375 7.202 7.202 0 0 1-3.586-12.117 57.112 57.112 0 0 1 32.257-16.043c2.903.426 5.973.937 9.215 1.621-.172-.855-.425-1.621-.511-2.477 8.773-.304 17.55.528 26.113 2.477-10.668-43.348 2.133-94.379 52.137-107.18a59.658 59.658 0 0 1 6.57-1.277c4.61.594 9.172 1.508 13.656 2.73 1.45.426 19.285 7.168 20.223 7.168-30.637 27.133-12.887 70.227 10.75 95.403a353.409 353.409 0 0 1 53.847 67.668 188.289 188.289 0 0 1 20.735 80.812c.414 6.504.441 13.031.086 19.54zm0 0" fill="#fec108"/><path d="M223.402 341.36a52.434 52.434 0 0 1-2.047-13.739 58.211 58.211 0 0 1 21.16-43.777c9.9-8.446 21.934-14.504 31.833-23.04a57.859 57.859 0 0 0 19.71-29.78 196.786 196.786 0 0 0 1.708-40.704c0 .938 4.609 3.157 5.375 3.668a82.178 82.178 0 0 1 33.367 47.617 66.84 66.84 0 0 1 1.707 10.836c.082.086.082.172.082.344 1.367 18.688-8.445 35.41-18.602 51.2-.425.683 8.621 4.437 9.473 4.69a41.795 41.795 0 0 0 31.742-3.84 24.906 24.906 0 0 0 8.11-7.679 45.524 45.524 0 0 0 4.011-10.75c0 .34 4.008 4.778 4.434 5.29a63.819 63.819 0 0 1 4.523 8.19 77.247 77.247 0 0 1 5.38 15.446c6.823 26.965-4.013 50.434-23.895 68.352l-.086.086-65.219 35.09zm0 0" fill="#f57c00"/><path d="M25.602 290.16h42.664c9.425 0 17.066 7.64 17.066 17.067v179.199c0 9.426-7.64 17.066-17.066 17.066H25.602c-9.426 0-17.067-7.64-17.067-17.066v-179.2c0-9.425 7.64-17.066 17.067-17.066zm0 0" fill="#2296f3"/><path d="M492.203 388.89 332.29 486.255a58.625 58.625 0 0 1-25.344 8.363 43.096 43.096 0 0 1-5.718.344H85.332V307.227h23.895a78.142 78.142 0 0 1 48.64 17.066 78.134 78.134 0 0 0 48.64 17.066h44.63a42.29 42.29 0 0 1 34.73 18.004c.672.88 1.301 1.79 1.875 2.73l.77 1.282a30.721 30.721 0 0 1-.34 32.172 29.882 29.882 0 0 1-4.352 5.547h20.051c3.688 0 7.348-.606 10.84-1.793l6.91-2.305 125.441-41.812 25.598-8.536a23.513 23.513 0 0 1 26.113 8.196v.082a23.309 23.309 0 0 1 4.266 18.445 23.304 23.304 0 0 1-10.836 15.52zm0 0" fill="#bfa885"/><path d="m466.602 397.422-159.657 97.195a43.096 43.096 0 0 1-5.718.344H85.332V315.844a77.828 77.828 0 0 1 46.934 16.984 78.189 78.189 0 0 0 48.64 17.067h44.63a42.29 42.29 0 0 1 34.73 18.003c.675.875 1.3 1.79 1.879 2.73l.765 1.282a30.714 30.714 0 0 1-.34 32.168 29.432 29.432 0 0 1-4.351 5.547h20.054a33.529 33.529 0 0 0 10.836-1.79l25.602-8.534 6.91-2.305 125.441-41.812a23.505 23.505 0 0 1 26.11 8.191v.086a23.285 23.285 0 0 1 4.265 18.441 23.278 23.278 0 0 1-10.835 15.52zm0 0" fill="#ffe0b2"/><path d="M505.582 349.707a32.006 32.006 0 0 0-35.625-11.156l-52.906 17.656a125.378 125.378 0 0 0 26.453-72.934c.371-6.824.34-13.66-.094-20.48a193.883 193.883 0 0 0-21.777-84.48 356.113 356.113 0 0 0-54.426-68.66l-.676-.723c-12.55-13.383-25.597-34.989-24.687-55.657a37.975 37.975 0 0 1 13.375-27.52 8.542 8.542 0 0 0 2.578-8.612A8.54 8.54 0 0 0 351.23 11c-1.8-.547-8.796-3.125-12.628-4.531-3.454-1.27-6.297-2.297-7.118-2.559a102.028 102.028 0 0 0-50.09-1.46c-51.445 13.218-67.09 61.44-60.773 105.097-33.902-3.781-53.375 9.726-62.387 18.816a15.476 15.476 0 0 0-4.062 15.164c1.57 5.567 6 9.864 11.613 11.262 6.887 1.707 14.738 4.438 15.777 4.875 11.223 5.117 21.711 15.36 19.852 26.727a38.42 38.42 0 0 1-11.734 17.671l-.676.7a110.725 110.725 0 0 0-18.832 28.015 114.411 114.411 0 0 0-5.914 87.645c-.348-.274-.727-.512-1.074-.785a87.055 87.055 0 0 0-53.957-18.946h-16.93a25.605 25.605 0 0 0-24.031-17.066H25.602C11.46 281.625 0 293.085 0 307.227v179.199c0 14.14 11.46 25.601 25.602 25.601h42.664a25.47 25.47 0 0 0 18.945-8.535h214.016a68.258 68.258 0 0 0 35.507-9.949l159.907-97.348a31.808 31.808 0 0 0 14.707-20.715 31.81 31.81 0 0 0-5.141-24.878 6.79 6.79 0 0 0-.625-.895zm-193.629 41.52a24.906 24.906 0 0 1-6.828 1.23c-1.09.05-2.191.102-3.285.102-.922 0-1.867-.059-2.797-.075a38.97 38.97 0 0 0-3.176-33.496l-.851-1.433a30.449 30.449 0 0 0-2.102-3.07 50.81 50.81 0 0 0-41.777-21.657h-20.813a44.6 44.6 0 0 1-.437-5.25 49.937 49.937 0 0 1 18.168-37.238 151.981 151.981 0 0 1 14.91-10.746 167.306 167.306 0 0 0 16.98-12.348 65.9 65.9 0 0 0 22.434-34.328 107.365 107.365 0 0 0 2.11-25.465 74.424 74.424 0 0 1 21.722 36.121 59.685 59.685 0 0 1 1.469 9.465c.02.328.058.652.12.973.852 15.617-7.679 30.37-17.331 45.398a8.795 8.795 0 0 0-.793 7.68c2.004 5.375 11.176 8.629 15.07 9.789a47.556 47.556 0 0 0 13.215 1.883 48.626 48.626 0 0 0 25.328-6.602 33.824 33.824 0 0 0 9.227-8.047 69.802 69.802 0 0 1 4.574 13.352 58.97 58.97 0 0 1-20.125 58.789zm-136.68-109.43a98.098 98.098 0 0 1 10.243-43.52 94.475 94.475 0 0 1 15.972-23.894l.657-.692a51.79 51.79 0 0 0 16.136-26.64c2.918-17.817-8.71-35.48-29.61-44.969a161.016 161.016 0 0 0-16.632-5.352c9.73-8.832 27.309-17.066 57.5-10.468a8.535 8.535 0 0 0 10.11-10.38c-9.481-38.562.855-85.331 45.937-96.87a84.83 84.83 0 0 1 41.23 1.34c.692.222 3.059 1.101 5.891 2.144l1.988.723a54.538 54.538 0 0 0-9.898 29.261 98.25 98.25 0 0 0 29.27 68.114l.671.726a343.047 343.047 0 0 1 51.926 65.211 177.586 177.586 0 0 1 19.703 77.27c.395 6.172.418 12.363.078 18.543a105.684 105.684 0 0 1-32.02 73.633c-1.62 1.597-3.41 3.082-5.116 4.59a70.13 70.13 0 0 0 4.41-47.282 85.66 85.66 0 0 0-5.973-17.152 69.511 69.511 0 0 0-5.633-9.914l-.953-1.094c-.805-.906-2.094-2.348-2.758-3.184a8.534 8.534 0 0 0-15.293 1.45c-.546 1.46-.953 2.91-1.355 4.363a16.018 16.018 0 0 1-1.816 4.719 16.33 16.33 0 0 1-5.36 5.027 30.731 30.731 0 0 1-15.976 4.152 31.88 31.88 0 0 1-8.633-1.097 81.756 81.756 0 0 0 14.941-47.79 9.483 9.483 0 0 0-.144-1.593 78.246 78.246 0 0 0-1.895-11.64 90.369 90.369 0 0 0-36.984-52.626c-.29-.195-.942-.562-1.758-1.015-.52-.282-1.195-.633-1.777-.98a8.521 8.521 0 0 0-6.5-3.106h-.086a8.53 8.53 0 0 0-8.536 8.37c-.074 3.993 0 7.997.094 11.997.57 9.004.043 18.039-1.578 26.914a49.395 49.395 0 0 1-16.945 25.234 151.16 151.16 0 0 1-15.266 11.094 168.61 168.61 0 0 0-16.625 12.04 67.084 67.084 0 0 0-24.09 50.347c0 1.707.258 3.414.418 5.05h-6.73a69.1 69.1 0 0 1-18.313-2.558 100.219 100.219 0 0 1-12.922-48.496zM68.266 494.96H25.602a8.534 8.534 0 0 1-8.536-8.535v-179.2a8.534 8.534 0 0 1 8.536-8.535h42.664a8.534 8.534 0 0 1 8.535 8.536v179.199a8.534 8.534 0 0 1-8.535 8.535zM494.66 371.766a14.642 14.642 0 0 1-6.902 9.836l-159.899 97.367a51.272 51.272 0 0 1-26.632 7.457H93.867V315.758h15.36a69.868 69.868 0 0 1 43.324 15.207 86.965 86.965 0 0 0 27.504 14.66l.261.078a86.057 86.057 0 0 0 26.192 4.192h44.629a34.128 34.128 0 0 1 28.066 14.796 20.61 20.61 0 0 1 1.219 1.79l.777 1.296a22.184 22.184 0 0 1-.324 23.34c-.355.5-.734.98-1.137 1.442h-51.726a85.546 85.546 0 0 0-47.336 14.328l-6.239 4.18a8.547 8.547 0 0 0-2.328 11.855 8.543 8.543 0 0 0 11.852 2.328l6.18-4.164a68.44 68.44 0 0 1 37.87-11.461h76.16a28.13 28.13 0 0 0 2.942-.145h.344c.34-.046.68-.113 1.016-.203a41.33 41.33 0 0 0 8.933-1.851l67.414-22.461.317-.11 90.172-30.097a14.912 14.912 0 0 1 16.21 4.683c.13.215.266.41.41.614a14.633 14.633 0 0 1 2.731 11.71zm0 0"/><path d="M42.668 349.895a8.533 8.533 0 0 0-8.535 8.53v59.735c0 4.711 3.82 8.531 8.535 8.531 4.71 0 8.531-3.82 8.531-8.53v-59.735c0-4.711-3.82-8.531-8.531-8.531zM51.2 324.293c0 4.71-3.821 8.535-8.532 8.535a8.536 8.536 0 0 1 0-17.07c4.71 0 8.531 3.82 8.531 8.535zm0 0"/></svg>