<svg height="512pt" viewBox="0 -9 512 512" width="512pt" xmlns="http://www.w3.org/2000/svg"><path d="M479.254 372.86c4.226 8.202 6.598 17.495 6.558 27.359-.152 31.707-25.757 58.011-57.453 58.953-20.28.61-38.355-8.992-49.484-24.043-20.324 20.535-48.535 33.266-79.71 33.266-24.634 0-47.4-7.946-65.9-21.399-23.859 24.844-57.41 40.324-94.57 40.324-72.718 0-131.597-59.207-131.09-132.035.504-72.18 60.067-130.77 132.247-130.14 36.703.316 69.808 15.722 93.414 40.312 18.5-13.45 41.265-21.398 65.898-21.398 17.86 0 34.734 4.187 49.727 11.609 3.324-20.527 8.046-43.852 13.855-66.77 5.82-22.918 12.742-45.43 20.477-64.293l-43.453-16.828a21.354 21.354 0 0 1-13.633-19.906V46.383a23.777 23.777 0 0 1 15.965-22.461l41.882-14.567c15.07-5.242 31.684 1.774 38.407 16.25 8.765 18.891 21.386 47.567 35.007 83.368h-.007c27.742 55.62 47.011 163.742 47.011 199.543 0 25.34-9.672 48.18-25.148 64.343zm0 0" fill="#ffd0a6"/><path d="M380.668 284.059c-2.219-3.61-13.34-20.547-31.777-28.391 3.324-20.527 8.046-43.852 13.855-66.77 5.82-22.918 12.742-45.43 20.477-64.293l23.191-4.886c-7.875 33.996-42.52 135.023-25.746 164.34zm0 0" fill="#e8b182"/><path d="m478.809 166.496-88.348 12.156-25.98 3.578c5.433-20.597 11.75-40.597 18.742-57.625l23.191-4.886 50.977-10.746c7.914 15.863 15.132 36.004 21.418 57.523zm0 0" fill="#f94141"/><path d="M446.61 428.758c14.374-.426 27.5-6.07 37.566-15.074-6.113 25.37-28.738 44.683-55.813 45.484-20.281.605-38.363-8.992-49.484-24.043-20.332 20.535-48.531 33.266-79.723 33.266-24.62 0-47.386-7.946-65.894-21.399-23.852 24.844-57.403 40.324-94.57 40.324-72.708 0-131.598-59.207-131.083-132.035.211-30.472 10.957-58.52 28.735-80.707a129.603 129.603 0 0 0-10.489 50.297c-.52 72.828 58.375 132.035 131.083 132.035 37.167 0 84.722-17.586 115.343-35.66 18.508 13.453 20.5 16.734 45.121 16.734 25.328 0 48.684-8.394 67.457-22.546 6.887-5.192 16.407-4.797 23.168.562 10.543 8.356 23.993 13.2 38.582 12.762zm0 0" fill="#e8b182"/><path d="M406.414 119.719c-2.937 12.699-9.617 34.758-15.953 58.933l-25.98 3.578c5.433-20.597 11.75-40.597 18.742-57.625zm0 0" fill="#e22b2b"/><path d="M92.188 241.895c15.144-6.211 31.167-9.282 47.597-9.149 33.512.29 64.766 13.777 87.996 37.977.016.02.04.035.059.054a.68.68 0 0 0 .05.059c15.989 15.988 35.462 16.172 36.282 16.172 4.2 0 7.629-3.403 7.629-7.602s-3.38-7.601-7.578-7.601c-.45-.008-8.883-.203-17.993-5.75 16-9.43 34.102-14.39 52.93-14.39 16.27 0 31.867 3.636 46.352 10.815.054.028.11.043.164.067.082.039.156.082.238.117 17.969 7.645 28.457 25.664 28.55 25.828a7.6 7.6 0 0 0 10.36 2.867 7.6 7.6 0 0 0 2.867-10.363c-.476-.844-11.035-19.156-30.37-29.676 3.628-21.351 8.152-42.547 13.218-62.254L473.32 174.93a688.421 688.421 0 0 1 6.63 25.605 7.603 7.603 0 1 0 14.788-3.539c-5.511-23.043-14.14-54.34-25.375-80.281-1.605-3.707-8.523-20-10.265-24.43-11.832-30.105-22.536-54.207-29.813-69.883-8.394-18.086-28.945-26.78-47.797-20.226l-41.875 14.566c-12.605 4.383-21.074 16.293-21.074 29.637V87.87c0 .133.016.266.016.399.004.058.004.117.007.175.235 11.633 7.586 22.203 18.47 26.418l36.312 14.067c-11.778 30.836-22.797 72.925-30.317 115.82-13.93-5.508-28.64-8.29-43.863-8.29-23.293 0-45.633 6.606-65.004 19.165-25.547-24.305-58.762-37.773-94.238-38.082-18.469-.184-36.473 3.3-53.5 10.285a7.6 7.6 0 0 0-4.149 9.918 7.598 7.598 0 0 0 9.914 4.149zM468.98 160.18l-94.136 12.945c4.402-15.492 9.11-29.71 13.922-41.918l64.351-13.562c6.012 12.996 11.332 27.882 15.863 42.535zm-126.464-59.493c-3.23-1.253-5.805-3.687-7.309-6.687l46.453-8.152a21.878 21.878 0 0 0 15.453-11.055 21.872 21.872 0 0 0 1.055-18.973l-3.383-8.195a7.604 7.604 0 0 0-14.055 5.8l3.383 8.196a6.735 6.735 0 0 1-.324 5.844 6.73 6.73 0 0 1-4.762 3.406l-45.289 7.95V46.382c0-6.88 4.367-13.02 10.864-15.278l41.875-14.566a23.403 23.403 0 0 1 29.015 12.27c7.625 16.421 19.063 42.23 31.606 74.562L383.863 116.7zm0 0"/><path d="M512 308.516c0-17.692-4.484-51.114-11.426-85.145a7.603 7.603 0 0 0-14.898 3.04c6.754 33.116 11.12 65.347 11.12 82.105 0 22.59-8.179 43.574-23.03 59.09a7.596 7.596 0 0 0-1.27 8.734c3.828 7.437 5.75 15.46 5.711 23.847-.129 27.512-22.59 50.563-50.07 51.387-16.938.492-33.07-7.332-43.149-20.965a7.601 7.601 0 0 0-5.566-3.062 7.567 7.567 0 0 0-5.95 2.234c-19.792 19.996-46.183 31.008-74.312 31.008-19.097 0-37.453-5.098-53.62-14.797 15.605-13.312 28.76-17.414 28.886-17.453a7.595 7.595 0 0 0 5.148-9.437 7.603 7.603 0 0 0-9.437-5.149c-.844.25-20.903 6.32-42.25 27.664l-.047.059c-.02.02-.043.035-.059.054-23.515 24.493-55.156 37.98-89.09 37.98-33.148 0-64.27-12.952-87.625-36.476-23.359-23.52-36.09-54.734-35.859-87.894.281-39.738 20.04-77.207 52.856-100.238a7.603 7.603 0 0 0-8.734-12.445C22.495 268.503.315 310.59.003 355.23c-.262 37.247 14.043 72.301 40.273 98.72 26.23 26.417 61.184 40.968 98.414 40.968 35.946 0 69.602-13.477 95.465-38.09 19.371 12.559 41.707 19.168 65.004 19.168 29.442 0 57.223-10.535 79.094-29.832a67.033 67.033 0 0 0 50.336 20.606c17.305-.52 33.558-7.704 45.77-20.235 12.202-12.527 18.968-28.96 19.05-46.277a67.08 67.08 0 0 0-5.144-26.024C503.609 356.348 512 333.214 512 308.516zm0 0"/></svg>