<svg height="512pt" viewBox="-78 0 511 512" width="512pt" xmlns="http://www.w3.org/2000/svg"><path d="m124.21 23.238 16.177 67.688h75.836l16.172-67.688C234.316 15.211 228.23 7.5 219.977 7.5h-83.344c-8.254 0-14.34 7.71-12.422 15.738zm0 0" fill="#ffcd34"/><path d="M219.977 7.5h-23.75c8.253 0 14.34 7.71 12.421 15.738l-16.175 67.688h23.75l16.175-67.688C234.316 15.211 228.23 7.5 219.977 7.5zm0 0" fill="#e69012"/><path d="M348.348 365.715C345.03 336.508 279.676 275.71 248 247.797a49.952 49.952 0 0 1-16.926-37.484v-59.97h4.301c16.406 0 29.707-13.3 29.707-29.706 0-16.41-13.3-29.711-29.707-29.711H121.23c-16.406 0-29.707 13.3-29.707 29.71 0 16.407 13.301 29.708 29.707 29.708h4.301v59.969a49.952 49.952 0 0 1-16.926 37.484C76.934 275.71 11.578 336.507 8.262 365.715 3.422 408.328 66.222 504.5 109.113 504.5h138.38c42.89 0 105.69-96.172 100.855-138.785zm0 0" fill="#d8e6f0"/><path d="M348.348 365.715C345.03 336.508 279.676 275.71 248 247.797a49.952 49.952 0 0 1-16.926-37.484v-59.97h4.301c16.406 0 29.707-13.3 29.707-29.706 0-16.41-13.3-29.711-29.707-29.711h-22.664c16.406 0 29.707 13.3 29.707 29.71 0 16.407-13.3 29.708-29.707 29.708h-4.3v59.969a49.952 49.952 0 0 0 16.925 37.484c31.676 27.914 97.031 88.71 100.348 117.918C330.52 408.328 267.719 504.5 224.828 504.5h22.664c42.89 0 105.692-96.172 100.856-138.785zm0 0" fill="#bdcdd6"/><path d="M321.531 368.887c-.222-1.035-3.386-13.063-33.719-45.543a584.928 584.928 0 0 0-8.656-9.063c1.305 9.528.989 19.258-5.125 26.258-7.219 8.277-19.633 9.18-30.597 8.578-36.797-2.02-72.758-11.527-108.575-20.207-23.355-5.66-56.636-14.629-71.074-.12-27.004 27.136-28.5 39.12-28.71 40.097-.579 5.578 1.76 18.418 10.265 36.492 8.066 17.144 19.734 34.86 32.008 48.605 17.226 19.29 28.77 23.516 31.765 23.516h138.38c2.995 0 14.542-4.227 31.769-23.516 12.273-13.746 23.937-31.464 32.008-48.605 8.5-18.074 10.84-30.914 10.261-36.492zm0 0" fill="#7f56af"/><path d="M321.531 368.887c-.222-1.035-3.386-13.063-33.719-45.543a584.928 584.928 0 0 0-8.656-9.063c1.188 8.68 1.031 17.52-3.62 24.32 17.765 21.106 19.944 29.43 20.132 30.286.574 5.578-1.762 18.418-10.266 36.492-8.066 17.144-19.734 34.86-32.007 48.605-17.227 19.29-28.774 23.516-31.77 23.516h25.867c2.996 0 14.543-4.227 31.766-23.516 12.273-13.746 23.941-31.464 32.008-48.605 8.504-18.074 10.843-30.914 10.265-36.492zm0 0" fill="#5e4487"/><g fill="#9e71d3"><path d="M243.434 349.117c10.968.602 23.379-.305 30.601-8.578 6.11-7 6.426-16.726 5.121-26.258-7.98-7.98-38.539-37.328-126.715 18.914 30.016 7.301 60.211 14.23 90.993 15.922zM123.305 374.832c0 7.273-5.895 13.168-13.168 13.168-7.274 0-13.168-5.895-13.168-13.168 0-7.27 5.894-13.168 13.168-13.168 7.273 0 13.168 5.899 13.168 13.168zM199.04 433.867c0 8.7-7.052 15.75-15.75 15.75-8.7 0-15.75-7.05-15.75-15.75 0-8.699 7.05-15.75 15.75-15.75 8.698 0 15.75 7.051 15.75 15.75zm0 0"/></g><path d="M355.8 364.867c-3.347-29.453-57.773-82.98-102.84-122.699a42.458 42.458 0 0 1-14.386-31.856v-52.605c19.024-1.629 34.008-17.633 34.008-37.07 0-20.52-16.687-37.211-37.207-37.211h-9.648L239.69 24.98a20.16 20.16 0 0 0-3.804-17.265A20.147 20.147 0 0 0 219.977 0h-83.348a20.161 20.161 0 0 0-15.91 7.71 20.168 20.168 0 0 0-3.805 17.27l13.969 58.446h-9.653c-20.515 0-37.207 16.691-37.207 37.207 0 19.437 14.985 35.445 34.008 37.074v52.606c0 12.187-5.242 23.8-14.386 31.855a1290.16 1290.16 0 0 0-9.657 8.613 7.5 7.5 0 1 0 10.047 11.14c3.121-2.816 6.328-5.675 9.531-8.5a57.474 57.474 0 0 0 19.465-43.108v-59.97c0-4.144-3.355-7.5-7.5-7.5h-4.3c-12.247 0-22.208-9.964-22.208-22.21s9.961-22.207 22.207-22.207h114.145c12.246 0 22.207 9.96 22.207 22.207 0 12.246-9.96 22.21-22.207 22.21h-57.07a7.497 7.497 0 0 0-7.5 7.5 7.5 7.5 0 0 0 7.5 7.5h45.27v52.47a57.478 57.478 0 0 0 19.468 43.109c59.144 52.125 95.727 94.418 97.852 113.137 2.648 23.324-18.477 68.367-47.09 100.414C276.765 486.055 259.887 497 247.492 497H109.113c-12.39 0-29.27-10.945-46.312-30.027-28.61-32.043-49.735-77.09-47.09-100.414.988-8.7 10.941-31.235 66.496-84.383 2.992-2.863 3.102-7.613.234-10.606a7.499 7.499 0 0 0-10.605-.234C52.94 289.414 37.53 305.69 26.043 319.715 10.336 338.895 2.078 353.66.809 364.867c-3.48 30.653 23.097 81.067 50.804 112.098C77.473 505.922 97.156 512 109.113 512h138.38c11.96 0 31.644-6.078 57.503-35.035 27.703-31.031 54.281-81.445 50.805-112.098zM146.306 83.426l-14.797-61.934c-.52-2.16.394-3.738.984-4.488.594-.746 1.914-2.004 4.137-2.004h83.348c2.222 0 3.546 1.258 4.136 2.004.59.75 1.504 2.328.989 4.488l-14.797 61.934zm0 0"/><path d="M308.074 412.164a7.505 7.505 0 0 0 9.98-3.594c7.762-16.5 11.852-31.625 10.938-40.457a7.456 7.456 0 0 0-.133-.828c-.734-3.36-5.464-16.828-35.566-49.062a556.31 556.31 0 0 0-8.707-9.114c-.043-.046-.086-.09-.129-.132-4.184-4.184-15.293-15.293-38.09-16.805-25.574-1.7-57.601 9.398-95.246 32.984-32.031-7.816-73.469-20.933-92.652-1.656-24.094 24.21-29.598 37.852-30.742 43.883-.051.238-.086.484-.114.73-.914 8.832 3.176 23.957 10.942 40.457 8.36 17.774 20.46 36.145 33.195 50.407C93.867 483.747 106.754 485 109.113 485h138.38c2.359 0 15.25-1.254 37.362-26.02 6.008-6.73 11.844-14.312 17.348-22.539a7.502 7.502 0 0 0-2.066-10.402 7.498 7.498 0 0 0-10.403 2.063c-5.117 7.648-10.523 14.675-16.066 20.886-14.05 15.735-23.883 20.504-26.441 21.012H109.383c-2.559-.508-12.39-5.273-26.442-21.012C71.13 435.762 59.898 418.7 52.13 402.184c-8.176-17.371-9.86-28.473-9.617-32.23.425-1.884 3.761-12.93 26.59-35.872 19.23-19.324 92.132 16.602 167.597 22.106 23.067 1.78 44.024-.958 49.496-23.54 22.653 24.852 27.184 35.489 27.918 37.57.149 4-1.644 14.989-9.633 31.966a7.501 7.501 0 0 0 3.594 9.98zm-36.047-94.297c2.38 21.922-10.422 25.02-32.234 23.508-22.695-1.594-45.43-6.063-67.797-11.23 56.344-32.012 85.305-25.32 100.031-12.278zM159.973 19.875a7.497 7.497 0 0 0-7.5 7.5v4c0 4.145 3.355 7.5 7.5 7.5a7.5 7.5 0 0 0 7.5-7.5v-4a7.5 7.5 0 0 0-7.5-7.5zM196.637 31.578a7.497 7.497 0 0 0-7.5 7.5v4c0 4.145 3.355 7.5 7.5 7.5s7.5-3.355 7.5-7.5v-4a7.5 7.5 0 0 0-7.5-7.5zM182.973 60.5a7.497 7.497 0 0 0-7.5 7.5v4c0 4.145 3.355 7.5 7.5 7.5a7.5 7.5 0 0 0 7.5-7.5v-4a7.5 7.5 0 0 0-7.5-7.5zm0 0"/><path d="M110.137 369.164c4.144 0 7.5-3.355 7.5-7.5a7.5 7.5 0 0 0-7.5-7.5c-11.395 0-20.664 9.274-20.664 20.668 0 11.398 9.27 20.668 20.664 20.668s20.668-9.27 20.668-20.668a7.5 7.5 0 1 0-15 0c0 3.125-2.543 5.668-5.668 5.668s-5.664-2.543-5.664-5.668 2.539-5.668 5.664-5.668zM183.29 442.117c-4.552 0-8.25-3.699-8.25-8.25a7.5 7.5 0 1 0-15 0c0 12.82 10.429 23.25 23.25 23.25 12.82 0 23.25-10.43 23.25-23.25s-10.43-23.25-23.25-23.25a7.5 7.5 0 0 0-7.5 7.5c0 4.145 3.355 7.5 7.5 7.5 4.546 0 8.25 3.703 8.25 8.25 0 4.551-3.704 8.25-8.25 8.25zm0 0"/></svg>