<svg xmlns="http://www.w3.org/2000/svg" style="enable-background:new 0 0 512 512" xml:space="preserve" width="512" height="512"><path style="fill:#66bb6a" d="M319.345 119.476V94.052h-126.69v25.424a31.3 31.3 0 0 1-19.438 28.965l-50.267 20.586a30.272 30.272 0 0 0-18.8 28.015v289.304c0 10.026 8.128 18.154 18.154 18.154h267.391c10.026 0 18.154-8.128 18.154-18.154V197.042a30.273 30.273 0 0 0-18.8-28.015l-50.267-20.586a31.3 31.3 0 0 1-19.437-28.965z"/><path style="fill:#388e3c" d="m389.05 169.028-28.5-11.672c4.605 5.376 7.3 12.305 7.3 19.687v240.283c0 37.1-30.075 67.175-67.175 67.175H104.151v1.846c0 10.026 8.128 18.154 18.154 18.154h267.391c10.026 0 18.154-8.128 18.154-18.154V197.042a30.275 30.275 0 0 0-18.8-28.014z"/><path style="fill:#ef5350" d="M364.643 454.857H146.5c-7.456 0-13.5-6.044-13.5-13.5V223.214c0-7.456 6.044-13.5 13.5-13.5h218.143c7.456 0 13.5 6.044 13.5 13.5v218.143c0 7.456-6.044 13.5-13.5 13.5z"/><path style="fill:#d32f2f" d="M364.643 209.714h-26.5v163.571c0 34.005-27.566 61.571-61.571 61.571H133v6.5c0 7.456 6.044 13.5 13.5 13.5h218.143c7.456 0 13.5-6.044 13.5-13.5V223.214c0-7.455-6.044-13.5-13.5-13.5z"/><path style="fill:#fff" d="m311.408 347.969 1.497-20.326c2.453-33.301-22.847-61.556-56.236-61.965-33.559-.411-60.177 27.98-57.719 61.348l1.542 20.943c.189 2.571-.982 5.074-3.122 6.51a11.096 11.096 0 0 0-4.927 9.23c0 6.135 4.973 11.108 11.108 11.108h11.777a9.32 9.32 0 0 1 9.241 8.107l3.599 27.413a5.49 5.49 0 0 0 5.443 4.775h44.678a5.49 5.49 0 0 0 5.443-4.775l3.599-27.413a9.32 9.32 0 0 1 9.241-8.107h11.777c6.135 0 11.108-4.973 11.108-11.108 0-3.847-1.956-7.237-4.927-9.23-2.14-1.436-3.311-3.939-3.122-6.51z"/><path style="fill:#fff" d="M348.918 260.394a16.512 16.512 0 0 0-8.371-4.982c-2.861-.692-5.177-2.856-5.842-5.724a16.49 16.49 0 0 0-4.422-7.957c-6.616-6.616-17.435-6.465-23.859.451-5.794 6.238-5.869 16.018-.167 22.34.213.236.432.465.655.687a2.58 2.58 0 0 1 .005 3.657l-12.057 12.057a57.168 57.168 0 0 1 12.188 16.409l14.167-14.167c1.024-1.024 2.67-.989 3.693.037l.019.019c6.476 6.476 16.98 6.468 23.447-.022 6.002-6.026 6.261-16.506.544-22.805zM205.179 402.929c-1.026-1.022-1.062-2.668-.037-3.693l18.759-18.759a9.321 9.321 0 0 0-8.572-5.661h-11.777a11.11 11.11 0 0 1-2.337-.251l-10.373 10.373a2.58 2.58 0 0 1-3.658-.005c-.221-.223-.45-.441-.687-.655-6.322-5.702-16.102-5.627-22.34.167-6.916 6.425-7.066 17.244-.451 23.859a16.477 16.477 0 0 0 7.957 4.422c2.867.664 5.032 2.981 5.724 5.842a16.504 16.504 0 0 0 4.982 8.371c6.299 5.717 16.779 5.458 22.805-.546 6.491-6.467 6.498-16.971.022-23.447l-.017-.017zM217.074 280.954l-12.089-12.089a2.58 2.58 0 0 1 .005-3.657c.223-.221.442-.45.655-.687 5.702-6.322 5.627-16.102-.167-22.34-6.425-6.916-17.244-7.067-23.859-.451a16.473 16.473 0 0 0-4.422 7.957c-.664 2.867-2.981 5.032-5.842 5.724a16.504 16.504 0 0 0-8.371 4.982c-5.717 6.299-5.458 16.779.546 22.805 6.467 6.491 16.971 6.499 23.447.022l.019-.019c1.022-1.026 2.668-1.062 3.693-.037l14.13 14.13a57.384 57.384 0 0 1 12.255-16.34zM347.743 384.447c-6.238-5.794-16.018-5.869-22.34-.167a17.78 17.78 0 0 0-.686.655 2.581 2.581 0 0 1-3.658.005l-10.373-10.373c-.754.161-1.535.251-2.337.251h-11.777a9.323 9.323 0 0 0-8.572 5.661l18.759 18.759c1.024 1.024.988 2.67-.037 3.693l-.019.019c-6.476 6.476-6.468 16.98.022 23.447 6.026 6.004 16.506 6.263 22.805.546a16.517 16.517 0 0 0 4.983-8.371c.692-2.861 2.856-5.177 5.724-5.842a16.497 16.497 0 0 0 7.958-4.422c6.615-6.618 6.464-17.437-.452-23.861z"/><path style="fill:#66bb6a" d="M321.673 94.052H190.327c-10.248 0-18.556-8.308-18.556-18.556v-1.459c0-10.248 8.308-18.556 18.556-18.556h131.347c10.248 0 18.556 8.308 18.556 18.556v1.459c-.001 10.249-8.308 18.556-18.557 18.556z"/><path style="fill:#388e3c" d="M321.673 55.482h-3.544a18.458 18.458 0 0 1 2.101 8.556v1.458c0 10.248-8.308 18.556-18.556 18.556H173.871c3.094 5.939 9.296 10 16.456 10h131.347c10.248 0 18.556-8.308 18.556-18.556v-1.458c-.001-10.248-8.308-18.556-18.557-18.556z"/><path style="fill:#ffe082" d="M309.161 55.482H202.839l-1.165-41.025a6.765 6.765 0 0 1 6.762-6.957h95.128a6.765 6.765 0 0 1 6.762 6.957l-1.165 41.025z"/><path style="fill:#ffa000" d="M303.564 7.5h-23.608l-.2 7.027c-.331 11.668-9.885 20.954-21.558 20.954h-55.927l.568 20h106.322l1.165-41.025a6.765 6.765 0 0 0-6.762-6.956z"/><circle style="fill:#757575" cx="232.251" cy="343.938" r="14.277"/><circle style="fill:#757575" cx="279.65" cy="343.938" r="14.277"/><path d="m391.893 162.087-50.268-20.586a23.715 23.715 0 0 1-14.78-22.024v-18.441c11.898-2.405 20.885-12.942 20.885-25.54v-1.458c0-14.367-11.688-26.057-26.056-26.057h-4.797l.946-33.313C318.05 6.628 311.609 0 303.564 0h-95.128c-8.046 0-14.487 6.629-14.259 14.67l.946 33.312h-4.796c-14.367 0-26.056 11.689-26.056 26.057v1.458c0 12.598 8.986 23.134 20.885 25.54v18.441a23.716 23.716 0 0 1-14.78 22.024l-50.268 20.586c-14.25 5.836-23.458 19.557-23.458 34.955v102.234c0 4.143 3.358 7.5 7.5 7.5s7.5-3.357 7.5-7.5V197.042a22.692 22.692 0 0 1 14.142-21.074l50.268-20.586c14.637-5.995 24.095-20.089 24.095-35.905v-17.924h64.495c4.143 0 7.5-3.357 7.5-7.5s-3.357-7.5-7.5-7.5h-74.324c-6.096 0-11.056-4.96-11.056-11.057v-1.458c0-6.097 4.96-11.057 11.056-11.057h131.347c6.096 0 11.056 4.96 11.056 11.057v1.458c0 6.097-4.96 11.057-11.056 11.057H299.65c-4.143 0-7.5 3.357-7.5 7.5s3.357 7.5 7.5 7.5h12.194v17.924c0 15.816 9.458 29.91 24.095 35.905l50.268 20.586a22.693 22.693 0 0 1 14.143 21.074v289.304c0 5.875-4.779 10.654-10.654 10.654H122.304c-5.875 0-10.654-4.779-10.654-10.654v-152.07c0-4.143-3.358-7.5-7.5-7.5s-7.5 3.357-7.5 7.5v152.069c0 14.146 11.508 25.654 25.654 25.654h267.391c14.146 0 25.654-11.509 25.654-25.654V197.042c.001-15.398-9.207-29.119-23.456-34.955zM209.193 15h93.615l-.937 32.981h-91.742L209.193 15z"/><path d="M255.95 362.929c-7.965 0-13.604 9.167-15.68 14.583a7.502 7.502 0 0 0 14.007 5.37 16.942 16.942 0 0 1 1.673-3.233c.594.896 1.204 2.01 1.673 3.233a7.502 7.502 0 0 0 14.008-5.368c-2.076-5.417-7.715-14.585-15.681-14.585zM254.027 343.938c0-12.008-9.769-21.776-21.777-21.776-12.007 0-21.776 9.769-21.776 21.776s9.769 21.776 21.776 21.776c12.008 0 21.777-9.769 21.777-21.776zm-21.777 6.776c-3.736 0-6.776-3.04-6.776-6.776s3.04-6.776 6.776-6.776c3.737 0 6.777 3.04 6.777 6.776s-3.04 6.776-6.777 6.776zM301.427 343.938c0-12.008-9.769-21.776-21.776-21.776s-21.777 9.769-21.777 21.776 9.77 21.776 21.777 21.776 21.776-9.769 21.776-21.776zm-21.777 6.776c-3.737 0-6.777-3.04-6.777-6.776s3.04-6.776 6.777-6.776c3.736 0 6.776 3.04 6.776 6.776s-3.039 6.776-6.776 6.776z"/><path d="M352.848 378.951c-8.153-7.573-20.544-8.403-29.615-2.444l-.738-.739c2.776-3.251 4.463-7.458 4.463-12.058 0-6.14-3.009-11.854-8.059-15.33l1.486-20.186c.751-10.206-.772-20.13-4.364-29.229l7.362-7.362c9.151 6.064 21.922 5.304 30.304-3.11 8.754-8.786 9.114-23.962.786-33.139v-.001a23.993 23.993 0 0 0-12.163-7.231c-.202-.05-.297-.146-.297-.127-4.309-18.591-27.865-25.149-41.084-10.917-7.568 8.147-8.403 20.532-2.443 29.613l-4.084 4.083c-10.765-8.01-23.769-12.425-37.639-12.594-14.137-.202-27.931 4.352-39.198 12.657l-4.146-4.146c5.959-9.076 5.125-21.465-2.444-29.613-13.076-14.078-36.754-7.87-41.066 10.871-.286.433-6.668 1.002-12.478 7.404-8.328 9.176-7.968 24.353.786 33.139 8.381 8.412 21.145 9.175 30.301 3.108l7.375 7.375c-3.572 9-5.144 18.778-4.42 28.602l1.532 20.803c-9.043 6.229-10.808 18.941-3.596 27.388l-.739.739c-15.723-10.323-36.958.636-37.308 19.642-.219 11.897 8.089 21.457 18.567 23.869.024.016.124.116.172.316 4.62 19.099 28.107 23.593 40.371 11.375a23.91 23.91 0 0 0 7.081-17.025 23.857 23.857 0 0 0-3.977-13.272l5.179-5.179 1.98 15.08c.845 6.441 6.382 11.3 12.879 11.3h44.678c6.498 0 12.035-4.858 12.88-11.299l1.98-15.08 5.172 5.172c-6.081 9.176-5.285 21.939 3.11 30.304 8.773 8.741 23.948 9.128 33.14.786a23.984 23.984 0 0 0 7.231-12.161c.048-.198.146-.299.127-.299h-.001c18.562-4.3 25.173-27.841 10.917-41.085zm-40.93-131.665c5.015-5.398 13.872-2.852 15.48 4.094 1.297 5.6 5.66 9.938 11.384 11.32a9.059 9.059 0 0 1 4.582 2.733c3.023 3.332 2.878 9.277-.306 12.473-3.381 3.395-8.883 3.75-12.842 0-3.912-3.922-10.312-4.039-14.308-.044l-7.369 7.37a71.686 71.686 0 0 0-3.22-4.165l6.899-6.898c4.012-4.014 3.873-10.424-.017-14.275-3.55-3.526-3.504-9.141-.283-12.608zm-108.557 37.945-7.369-7.368c-4.134-4.135-10.508-3.768-14.32.056-3.756 3.756-9.484 3.345-12.83-.013-3.184-3.196-3.329-9.141-.305-12.473a9.04 9.04 0 0 1 4.579-2.732c5.727-1.384 10.09-5.722 11.386-11.32 1.641-7.075 10.546-9.407 15.481-4.095 3.213 3.459 3.271 9.065-.272 12.595-3.968 3.931-3.984 10.331-.029 14.288l6.906 6.906c-.394.466-2.212 2.74-3.227 4.156zm7.113 112.387c.085.087.08.08 0 0zm-10.636-3.685c-3.929 3.93-3.949 10.327.046 14.31l.01.009a9.059 9.059 0 0 1-.012 12.831c-3.195 3.185-9.139 3.33-12.471.306a9.035 9.035 0 0 1-2.733-4.579c-1.384-5.727-5.722-10.09-11.32-11.387-7.009-1.621-9.451-10.508-4.095-15.48 3.505-3.256 9.128-3.223 12.596.273a10.076 10.076 0 0 0 14.287.028l7.925-7.926h7.384l-11.617 11.615zm76.687 13.679h-3.481v-5.041c0-4.143-3.357-7.5-7.5-7.5s-7.5 3.357-7.5 7.5v5.041h-4.187v-5.041c0-4.143-3.358-7.5-7.5-7.5s-7.5 3.357-7.5 7.5v5.041h-3.482l-3.37-25.665c-.848-6.461-5.461-12.103-12.066-13.981-3.088-.88-5.132-.626-16.387-.649-3.537 0-4.975-4.616-2.001-6.61 4.349-2.92 6.81-8.011 6.422-13.288l-1.543-20.943c-2.13-28.926 20.876-53.568 50.148-53.298 28.931.355 50.992 24.807 48.848 53.915l-1.497 20.326v-.001c-.39 5.277 2.072 10.37 6.424 13.29a3.61 3.61 0 0 1 1.604 3.002 3.61 3.61 0 0 1-2.844 3.522 3.691 3.691 0 0 1-.763.085c-11.889.025-13.433-.209-16.389.65-6.6 1.877-11.217 7.515-12.065 13.98l-3.371 25.665zm62.019-2.19c-5.598 1.297-9.936 5.659-11.321 11.386a9.035 9.035 0 0 1-2.732 4.58c-3.33 3.023-9.276 2.88-12.472-.305a9.06 9.06 0 0 1-.004-12.84c3.928-3.912 4.043-10.313.048-14.311l-11.616-11.615h7.385l7.927 7.928a10.073 10.073 0 0 0 14.285-.03c3.486-3.514 9.105-3.515 12.596-.273 5.39 5.005 2.862 13.87-4.096 15.48z"/><path d="M378.143 286.521c4.143 0 7.5-3.357 7.5-7.5v-55.808c0-11.579-9.421-21-21-21H146.5c-11.58 0-21 9.421-21 21v218.144c0 11.579 9.42 21 21 21h218.143c11.579 0 21-9.421 21-21V314.021c0-4.143-3.357-7.5-7.5-7.5s-7.5 3.357-7.5 7.5v127.336c0 3.309-2.691 6-6 6H146.5c-3.309 0-6-2.691-6-6V223.214c0-3.309 2.691-6 6-6h218.143c3.309 0 6 2.691 6 6v55.808a7.499 7.499 0 0 0 7.5 7.499z"/><circle cx="225.434" cy="27.434" r="7.499"/><circle cx="249.43" cy="35.714" r="7.499"/><circle cx="288.71" cy="29.144" r="7.499"/></svg>