<svg height="512pt" viewBox="0 0 512 512" width="512pt" xmlns="http://www.w3.org/2000/svg"><path d="M503.465 256v221.867c0 14.137-11.461 25.598-25.598 25.598-14.14 0-25.601-11.461-25.601-25.598v-34.133h-17.067a34.62 34.62 0 0 1-8.277-1.109c-13.227-3.414-25.856-14.25-25.856-27.05v-14.509h-7.68c-19.312-.027-34.956-15.675-34.988-34.988v-7.082a116.218 116.218 0 0 0 17.067-60.758c0-51.625-26.707-95.058-71.594-112.554-.512-.254-1.11-.594-1.621-.852a169.206 169.206 0 0 1 92.418-30.719h.254a202.38 202.38 0 0 1 14.68-.511c59.73 0 93.863 42.664 93.863 102.398zm0 0" fill="#ffc900"/><path d="M477.867 256v221.867a25.608 25.608 0 0 1-12.8 22.188 25.608 25.608 0 0 1-12.801-22.188v-34.133h-17.067a34.62 34.62 0 0 1-8.277-1.109c-13.227-3.414-25.856-14.25-25.856-27.05v-14.509h-7.68c-19.312-.027-34.956-15.675-34.988-34.988v-7.082a116.218 116.218 0 0 0 17.067-60.758c0-51.625-26.707-95.058-71.594-112.554-.512-.254-1.11-.594-1.621-.852a169.206 169.206 0 0 1 92.418-30.719h.254c52.906 4.864 82.945 45.907 82.945 101.887zM102.398 153.602c53.891 0 88.016 16.859 107.368 31.23-.555.273-1.09.582-1.707.813-44.825 17.578-71.524 60.968-71.524 112.593a116.43 116.43 0 0 0 17.067 60.727v7.113c0 19.324-15.665 34.988-34.989 34.988h-7.68v14.508c0 15.574-18.558 28.16-34.132 28.16H59.734v34.133c0 14.137-11.46 25.598-25.601 25.598-14.137 0-25.598-11.461-25.598-25.598V256c0-59.734 34.133-102.398 93.863-102.398zm0 0" fill="#ffeb49"/><path d="M375.465 298.238c-.121 45.63-26.54 87.102-67.84 106.496-4.11 2-7.656 4.993-10.324 8.707-9.336 13.618-24.79 21.762-41.301 21.762s-31.965-8.144-41.3-21.762a27.561 27.561 0 0 0-10.325-8.707c-41.3-19.394-67.719-60.867-67.84-106.496a137.09 137.09 0 0 1 7.422-45.308A179.249 179.249 0 0 1 256 238.934a215.399 215.399 0 0 0 104.277-3.243 129.88 129.88 0 0 1 15.188 62.547zm0 0" fill="#f85b44"/><path d="M303.871 185.684a21.995 21.995 0 0 1-13.738-20.477v-46.934a48.72 48.72 0 0 1 26.027-41.472 13.654 13.654 0 0 0-6.742-25.602H202.582a13.654 13.654 0 0 0-6.742 25.602 48.72 48.72 0 0 1 26.027 41.472v46.934a21.995 21.995 0 0 1-13.738 20.477 108.699 108.699 0 0 0-59.734 56.492c-1.622 3.5-3.157 7.082-4.438 10.754a181.135 181.135 0 0 1 64.856-16.985A174.364 174.364 0 0 1 256 238.934a224.591 224.591 0 0 0 79.785 2.218 172.72 172.72 0 0 0 24.492-5.46 108.464 108.464 0 0 0-56.406-50.008zm0 0" fill="#00c6db"/><path d="M360.277 235.691a172.72 172.72 0 0 1-24.492 5.461c-12.37-22.699-31.57-45.738-56.402-55.468a21.989 21.989 0 0 1-13.738-20.477v-46.934a48.717 48.717 0 0 1 26.023-41.472 13.656 13.656 0 0 0 6.598-15.426 13.66 13.66 0 0 0-13.336-10.176h24.488a13.654 13.654 0 0 1 6.742 25.602 48.72 48.72 0 0 0-26.027 41.472v46.934a21.995 21.995 0 0 0 13.738 20.477 108.464 108.464 0 0 1 56.406 50.007zm0 0" fill="#00939f"/><path d="M256 349.867s51.2-19.199 51.2-48c-.548-16.43-14.29-29.312-30.72-28.8a26.314 26.314 0 0 0-20.48 9.601 26.314 26.314 0 0 0-20.48-9.602c-16.43-.511-30.172 12.371-30.72 28.801 0 28.801 51.2 48 51.2 48zm0 0" fill="#ef3a76"/><path d="M290.133 22.441V51.2h-68.266V22.441c0-7.68 6.227-13.906 13.91-13.906h40.446c7.683 0 13.91 6.227 13.91 13.906zm0 0" fill="#ffa700"/><path d="M264.535 22.441V51.2h-42.668V22.441c0-7.68 6.227-13.906 13.91-13.906h14.848c7.68 0 13.91 6.227 13.91 13.906zm0 0" fill="#ffc900"/><path d="M256 358.398a8.623 8.623 0 0 1-2.996-.535c-5.809-2.183-56.738-22.254-56.738-55.996.582-21.125 18.125-37.812 39.254-37.332a33.164 33.164 0 0 1 20.48 6.688 33.164 33.164 0 0 1 20.48-6.688c21.13-.48 38.672 16.207 39.254 37.332 0 33.742-50.93 53.813-56.738 55.996a8.623 8.623 0 0 1-2.996.535zm-20.48-76.796c-11.708-.485-21.61 8.562-22.188 20.265 0 17.227 28.953 33.008 42.668 38.809 13.715-5.801 42.668-21.582 42.668-38.809-.578-11.703-10.48-20.75-22.188-20.265a17.923 17.923 0 0 0-14.312 6.953 8.759 8.759 0 0 1-12.336 0 17.923 17.923 0 0 0-14.312-6.953zM290.133 59.734h-68.266a8.534 8.534 0 0 1-8.535-8.535V22.47C213.348 10.066 223.398.016 235.801 0h40.398c12.403.016 22.453 10.066 22.469 22.469v28.73a8.534 8.534 0 0 1-8.535 8.535zm-59.735-17.066h51.204v-20.2a5.414 5.414 0 0 0-5.403-5.402h-40.398a5.414 5.414 0 0 0-5.403 5.403zM452.266 452.266a8.532 8.532 0 0 1-8.532-8.532v-128a8.533 8.533 0 1 1 17.067 0v128c0 4.711-3.82 8.532-8.535 8.532zM401.066 409.602a8.533 8.533 0 0 1-8.53-8.536v-51.199a8.533 8.533 0 1 1 17.066 0v51.2a8.534 8.534 0 0 1-8.536 8.535zm0 0"/><path d="M477.867 512c-18.851 0-34.133-15.281-34.133-34.133v-25.601H435.2c-19.726 0-42.664-16.043-42.664-36.692v-5.972c-23.687-.504-42.637-19.832-42.668-43.524v-7.105a8.443 8.443 0 0 1 1.246-4.43 108.326 108.326 0 0 0 15.82-56.305c0-48.562-25.343-88.668-66.132-104.652a20.202 20.202 0 0 1-2.024-.938 8.955 8.955 0 0 1-4.812-7.003 8.535 8.535 0 0 1 3.183-7.684c20.215-14.973 56.133-32.895 112.454-32.895C471.809 145.066 512 188.586 512 256v221.867C512 496.72 496.719 512 477.867 512zM366.934 361.309v4.77c.027 14.6 11.855 26.425 26.453 26.456h7.68a8.533 8.533 0 0 1 8.535 8.531v14.508c0 10.403 14.316 19.625 25.597 19.625h17.067a8.534 8.534 0 0 1 8.535 8.535v34.133c0 9.426 7.64 17.067 17.066 17.067 9.426 0 17.067-7.641 17.067-17.067V256c0-57.898-32.7-93.867-85.332-93.867a177.607 177.607 0 0 0-89.848 21.426C359.707 204.929 384 247.645 384 298.239a125.332 125.332 0 0 1-17.066 63.07zm0 0"/><path d="M443.734 238.934a8.532 8.532 0 0 1-8.27-6.47c-.265-1.066-7.78-27.663-42.929-27.663a96.266 96.266 0 0 0-44.375 14.027c-3.816 2.766-9.152 1.91-11.918-1.906a8.536 8.536 0 0 1 1.91-11.918 112.027 112.027 0 0 1 54.383-17.27c39.02 0 55.969 26.555 59.477 40.602 1.136 4.566-1.637 9.195-6.203 10.34a8.845 8.845 0 0 1-2.075.258zm0 0"/><path d="M256 443.734a57.356 57.356 0 0 1-48.188-25.27 19.016 19.016 0 0 0-7.082-5.972c-44.175-20.953-72.445-65.36-72.73-114.254 0-55.746 29.5-101.972 76.98-120.539a13.423 13.423 0 0 0 8.352-12.476v-46.934a40.419 40.419 0 0 0-21.59-33.988 22.076 22.076 0 0 1-11.476-19.45c.066-12.288 10.058-22.206 22.351-22.183h106.766a22.184 22.184 0 0 1 21.582 16.574 22.189 22.189 0 0 1-10.707 25.016 40.424 40.424 0 0 0-21.59 33.988v46.934a13.423 13.423 0 0 0 8.352 12.476C354.5 196.266 384 242.492 384 298.238c-.293 48.887-28.559 93.285-72.73 114.239a18.98 18.98 0 0 0-7.082 5.972A57.35 57.35 0 0 1 256 443.734zm-53.383-384a5.214 5.214 0 0 0-5.285 5.118 4.95 4.95 0 0 0 2.613 4.43 56.901 56.901 0 0 1 30.453 48.964v46.934a30.581 30.581 0 0 1-19.199 28.363c-40.789 16.027-66.133 56.133-66.133 104.695.274 42.301 24.75 80.707 62.977 98.817a36.264 36.264 0 0 1 13.535 11.324A41.53 41.53 0 0 0 256 426.668c13.8 0 26.7-6.852 34.422-18.29a36.264 36.264 0 0 1 13.535-11.323c38.227-18.11 62.703-56.516 62.977-98.817 0-48.562-25.344-88.668-66.133-104.652a30.581 30.581 0 0 1-19.2-28.363v-46.934a56.9 56.9 0 0 1 30.454-49 4.946 4.946 0 0 0 2.613-4.402 5.22 5.22 0 0 0-5.285-5.121zm0 0"/><path d="M34.133 512C15.28 512 0 496.719 0 477.867V256c0-67.414 40.191-110.934 102.398-110.934 56.32 0 92.239 17.922 112.454 32.914a8.53 8.53 0 0 1 3.421 7.618 8.546 8.546 0 0 1-4.718 6.89c-.778.414-1.575.793-2.39 1.125-40.755 15.957-66.099 56.063-66.099 104.625a108.297 108.297 0 0 0 15.82 56.32 8.454 8.454 0 0 1 1.247 4.43v7.09c-.035 23.692-18.98 43.016-42.668 43.524v5.972c0 20.649-22.938 36.692-42.664 36.692h-8.535v25.601C68.266 496.72 52.984 512 34.133 512zm68.265-349.867c-52.632 0-85.332 35.969-85.332 93.867v221.867c0 9.426 7.641 17.067 17.067 17.067s17.066-7.641 17.066-17.067v-34.133a8.534 8.534 0 0 1 8.535-8.535h17.067c11.281 0 25.597-9.258 25.597-19.625v-14.508c0-4.71 3.82-8.53 8.536-8.53h7.68c14.597-.032 26.425-11.856 26.452-26.458v-4.742A125.332 125.332 0 0 1 128 298.266c0-50.586 24.285-93.297 64.258-114.672a177.582 177.582 0 0 0-89.86-21.461zm0 0"/><path d="M68.266 238.934c-.7 0-1.399-.086-2.082-.258-4.567-1.145-7.344-5.774-6.204-10.34 3.516-14.047 20.465-40.602 59.485-40.602 19.328.961 38.074 6.91 54.418 17.27 3.816 2.766 4.672 8.101 1.906 11.918a8.53 8.53 0 0 1-11.914 1.906 96.311 96.311 0 0 0-44.41-14.027c-35.59 0-42.852 27.39-42.922 27.664a8.529 8.529 0 0 1-8.277 6.469zM59.734 452.266a8.533 8.533 0 0 1-8.535-8.532v-128a8.534 8.534 0 1 1 17.067 0v128c0 4.711-3.82 8.532-8.532 8.532zM110.934 409.602a8.534 8.534 0 0 1-8.536-8.536v-51.199a8.534 8.534 0 1 1 17.067 0v51.2a8.533 8.533 0 0 1-8.531 8.535zM349.867 128a8.535 8.535 0 0 1-6.035-14.566l17.066-17.067a8.534 8.534 0 0 1 12.066 12.066L355.899 125.5a8.52 8.52 0 0 1-6.03 2.5zM162.133 128a8.52 8.52 0 0 1-6.031-2.5l-17.067-17.066a8.534 8.534 0 0 1 12.067-12.067l17.066 17.067A8.535 8.535 0 0 1 162.133 128zm0 0"/></svg>