<svg xmlns="http://www.w3.org/2000/svg" viewBox="0 0 511.994 511.994" style="enable-background:new 0 0 511.994 511.994" xml:space="preserve" width="512" height="512"><path style="fill:#e5646e" d="m270.248 243.753-96.46 59.538 67.199-232.066c1.842-6.262-.534-12.985-5.846-16.78-24.567-17.55-54.796-27.651-87.503-26.76C57.812 30.13-3.05 108.992 9.017 198.039c17.985 132.726 167.714 243.219 224.788 280.898 3.923 2.59 9.189.278 9.945-4.361 6.247-38.382 29.095-178.728 36.488-224.142.909-5.587-5.172-9.655-9.99-6.681z"/><path style="fill:#e5646e" d="M377.081 28.606c-32.393-3.733-62.787 3.44-88.34 18.129-5.448 3.131-9.502 8.153-11.275 14.181l-45.687 155.33c-1.709 5.808 4.662 10.61 9.816 7.436l81.289-50.058-45.23 292.37c-.917 5.631 5.31 9.662 10.023 6.444 64.969-44.351 207.978-156.366 216.493-288.15 5.036-77.914-49.525-146.745-127.089-155.682z"/><path style="fill:#db4655" d="M46.759 201.467C31.903 119.599 79.963 43.773 158.306 27.838c-3.527-.163-7.076-.251-10.668-.153C57.811 30.13-3.05 108.992 9.017 198.039 27.002 330.765 176.73 441.258 233.805 478.938c3.923 2.59 9.189.278 9.944-4.361l4.146-25.467C177.613 401.814 66.718 311.45 46.759 201.467zM337.319 165.944l-14.434 7.681-45.23 292.369c-.918 5.637 5.342 9.641 10.058 6.42 1.864-1.273 13.313-9.12 13.313-9.12L349 174.339c1.089-6.557-5.813-11.517-11.681-8.395z"/><path d="M286.688 229.917a7.5 7.5 0 0 0-8.105-.156l-93.375 57.46 64.324-218.704c1.798-6.114-.331-12.807-5.299-16.656-28.034-21.716-61.535-32.686-96.876-31.724C104.84 21.295 66.021 40.056 38.05 72.966 8.64 107.57-4.691 153.52 1.477 199.035 20.81 341.704 187.446 458.374 238.058 490.734a7.499 7.499 0 0 0 11.443-5.114l5.081-31.208a7.499 7.499 0 0 0-6.197-8.607 7.498 7.498 0 0 0-8.607 6.197l-3.231 19.847c-28.184-18.676-73.849-51.731-116.982-95.206-60.621-61.1-95.349-121.533-103.221-179.624-5.597-41.301 6.482-82.977 33.139-114.34 25.177-29.622 60.082-46.509 98.285-47.548 31.838-.87 62.02 9.019 87.282 28.587.089.069.168.317.095.565l-69.024 234.685-13.081 8.049a7.5 7.5 0 0 0 7.861 12.775l111.578-68.663-27.283 167.594a7.5 7.5 0 1 0 14.804 2.41l29.918-183.783a7.5 7.5 0 0 0-3.23-7.433z"/><path d="M477.426 75.827c-24.887-30.76-60.227-50.193-99.51-54.721-32.568-3.754-64.712 2.844-92.958 19.08-7.197 4.137-12.436 10.751-14.752 18.626l-3.196 10.866a7.501 7.501 0 0 0 14.391 4.233l3.196-10.866c1.221-4.152 4.004-7.651 7.837-9.854 25.442-14.625 54.409-20.566 83.765-17.183 35.357 4.075 67.166 21.567 89.566 49.254 22.268 27.522 33.25 62.514 30.923 98.527-3.796 58.743-35.622 120.171-94.595 182.577-41.198 43.597-86.714 77.957-116.708 98.568l46.933-288.311 7.864-4.839a7.5 7.5 0 0 0-7.861-12.775l-92.735 57.068 33.032-112.304a7.5 7.5 0 1 0-14.391-4.233l-38.545 131.047a7.5 7.5 0 0 0 11.126 8.504l84.621-52.075-47.626 292.568a7.5 7.5 0 0 0 11.506 7.483c28.678-18.744 84.18-58.012 133.687-110.4 61.44-65.016 94.634-129.584 98.662-191.912 2.569-39.783-9.588-78.468-34.232-108.928z"/></svg>