<svg height="512" viewBox="0 0 58 60" width="512" xmlns="http://www.w3.org/2000/svg"><g fill-rule="nonzero" fill="none"><path d="M57 27.4C57 38.21 45.61 45.36 29 59 12.39 45.36 1 38.21 1 27.4 1 19.59 6.71 13 15 13a14.829 14.829 0 0 1 4 .53 15.383 15.383 0 0 1 6 3.21 17.4 17.4 0 0 1 4 4.88 17.4 17.4 0 0 1 4-4.88 15.254 15.254 0 0 1 6-3.21 14.829 14.829 0 0 1 4-.53c8.29 0 14 6.59 14 14.4z" fill="#f44335"/><path d="M43 13c-.508 0-1 .031-1.475.076C48.982 13.829 54 20.079 54 27.4c0 10.481-10.708 17.522-26.5 30.374.495.4.995.809 1.5 1.226 16.61-13.64 28-20.79 28-31.6C57 19.59 51.29 13 43 13z" fill="#c81e1e"/><path d="M38 10v1h-4v-1a5 5 0 0 0-10 0v1h-4v-1a9 9 0 0 1 18 0z" fill="#ff9801"/><path d="M25 12v4.74a15.383 15.383 0 0 0-6-3.21V12a1 1 0 0 1 1-1h4a1 1 0 0 1 1 1zM39 12v1.53a15.254 15.254 0 0 0-6 3.21V12a1 1 0 0 1 1-1h4a1 1 0 0 1 1 1z" fill="#ff5722"/><path d="M29 31a1.006 1.006 0 0 1-.979-.756C27.505 28.988 22.773 18 15 18a8.686 8.686 0 0 0-6.185 2.125 5.922 5.922 0 0 0-1.83 4.218C6.985 26.164 7.917 28 10 28a4.25 4.25 0 0 0 3.41-1.172c.542-.765.76-1.713.608-2.638a1 1 0 0 1 1.962-.39 5.561 5.561 0 0 1-1.014 4.28C13.924 29.355 12.253 30 10 30c-2.906 0-5.015-2.379-5.015-5.657a7.931 7.931 0 0 1 2.44-5.655A10.469 10.469 0 0 1 15 16c7.352 0 12.091 7.711 13.992 11.546C30.894 23.711 35.633 16 42.985 16c2.782-.148 5.508.82 7.575 2.688A7.931 7.931 0 0 1 53 24.343C53 27.621 50.891 30 47.985 30c-2.253 0-3.924-.645-4.966-1.916A5.564 5.564 0 0 1 42 23.8a1 1 0 0 1 1.962.387 3.56 3.56 0 0 0 .609 2.637A4.25 4.25 0 0 0 47.985 28C50.067 28 51 26.164 51 24.343a5.922 5.922 0 0 0-1.83-4.218A8.688 8.688 0 0 0 42.985 18c-7.729 0-12.435 10.821-13.008 12.213A1 1 0 0 1 29 31z" fill="#c81e1e"/><path d="M32 37a3 3 0 1 0-4.9 2.309.988.988 0 0 1 .326 1.131L26 44h6l-1.424-3.559a.992.992 0 0 1 .328-1.134A2.974 2.974 0 0 0 32 37z" fill="#37474f"/><path d="M29 55a1 1 0 0 1-.659-.248l-8-7A1 1 0 0 1 20 47a2.105 2.105 0 0 0-.617-1.74 2.988 2.988 0 0 0-2.14-.29 1 1 0 0 1-.69-1.865 4.772 4.772 0 0 0 2.543-4.13 8.677 8.677 0 0 1-8.611-.118 1 1 0 0 1 .35-1.843 4.578 4.578 0 0 0 4.19-4.148A8.038 8.038 0 0 1 6.4 32.8a1 1 0 1 1 1.2-1.6c.134.1 3.476 2.458 7.775-.981a1 1 0 0 1 1.611.616 8.593 8.593 0 0 1-.28 3.584 6.209 6.209 0 0 1-2.732 3.573 5.874 5.874 0 0 0 5.319-1.7 1 1 0 0 1 1.687.511 8.236 8.236 0 0 1-1.37 6.334c.36.127.698.311 1 .546a3.771 3.771 0 0 1 1.37 2.848l7.02 6.14 7.016-6.139a3.771 3.771 0 0 1 1.37-2.848c.302-.235.64-.42 1-.546A8.236 8.236 0 0 1 37.02 36.8a1 1 0 0 1 1.687-.511 5.88 5.88 0 0 0 5.319 1.7 6.209 6.209 0 0 1-2.732-3.573 8.593 8.593 0 0 1-.28-3.584 1 1 0 0 1 1.611-.616c4.345 3.476 7.742 1 7.775.981a1 1 0 0 1 1.2 1.6 8.039 8.039 0 0 1-8.626.066 4.58 4.58 0 0 0 4.191 4.148 1 1 0 0 1 .35 1.843 8.679 8.679 0 0 1-8.611.118 4.77 4.77 0 0 0 2.543 4.13 1 1 0 0 1-.69 1.865 2.874 2.874 0 0 0-2.145.294A2.109 2.109 0 0 0 38 47a1 1 0 0 1-.341.752l-8 7A1 1 0 0 1 29 55z" fill="#c81e1e"/><g fill="#000"><path d="M21.11 53.914a705.558 705.558 0 0 1 7.255 5.859 1 1 0 0 0 1.27 0 705.558 705.558 0 0 1 7.255-5.859C49.6 43.745 58 37.027 58 27.4 58 18.622 51.551 12 43 12c-1.006 0-2.01.093-3 .275V12a1.993 1.993 0 0 0-1-1.722V10c0-5.523-4.477-10-10-10S19 4.477 19 10v.278A1.993 1.993 0 0 0 18 12v.275A16.607 16.607 0 0 0 15 12C6.449 12 0 18.622 0 27.4c0 9.627 8.4 16.345 21.11 26.514zM34 14.715V12h4v.775a15.975 15.975 0 0 0-4 1.94zm-9-4.437V10a4 4 0 1 1 8 0v.278A1.993 1.993 0 0 0 32 12v4.27a19.307 19.307 0 0 0-3 3.43 19.307 19.307 0 0 0-3-3.428V12a1.993 1.993 0 0 0-1-1.722zM29 2a8.009 8.009 0 0 1 8 8h-2a6 6 0 1 0-12 0h-2a8.009 8.009 0 0 1 8-8zm-9 10h4v2.715a15.975 15.975 0 0 0-4-1.94zm-5 2c8.941 0 12.94 7.743 13.106 8.073a1.042 1.042 0 0 0 1.788 0C30.06 21.743 34.059 14 43 14c7.411 0 13 5.762 13 13.4 0 8.661-8.1 15.14-20.359 24.948A714.712 714.712 0 0 0 29 57.703a795.378 795.378 0 0 0-6.641-5.355C10.1 42.544 2 36.065 2 27.4 2 19.762 7.589 14 15 14z"/><path d="m26.5 40.068-1.424 3.56A1 1 0 0 0 26 45h6a1 1 0 0 0 .928-1.372l-1.389-3.547a3.989 3.989 0 0 0 .031-6.146 4 4 0 0 0-6.518 2.414 3.885 3.885 0 0 0 1.448 3.719zm.532-3.4a2.024 2.024 0 0 1 1.6-1.632 2 2 0 0 1 1.644 3.5 1.992 1.992 0 0 0-.622 2.278L30.523 43h-3.046l.875-2.188a1.987 1.987 0 0 0-.621-2.276 1.99 1.99 0 0 1-.704-1.871z"/></g></g></svg>