<svg xmlns="http://www.w3.org/2000/svg" viewBox="0 0 511.999 511.999" style="enable-background:new 0 0 511.999 511.999" xml:space="preserve"><path style="fill:#ecf1f8" d="m312.684 314.919-56.588 30.866-157.122-85.699V25.632c0-9.135 7.404-16.539 16.539-16.539H396.68c9.135 0 16.54 7.404 16.54 16.539v234.454l-51.727 28.212"/><path style="fill:#bad8e8" d="M413.22 236.517v23.568c-3.782 2.061-145.141 79.161-146.382 79.838a22.43 22.43 0 0 1-21.49-.003L98.973 260.086v-23.568l131.174 71.545a54.19 54.19 0 0 0 51.897 0l131.176-71.546z"/><path style="fill:#ffca54" d="M366 285.839c72.612-39.605 3.399-1.849 137.004-74.732v271.847c0 11.019-8.934 19.953-19.953 19.953H29.141c-11.019 0-19.952-8.934-19.952-19.953V211.108a2644845.984 2644845.984 0 0 0 236.16 128.814 22.434 22.434 0 0 0 21.491.002l37.931-20.688"/><path style="fill:#ffb539" d="M98.973 137.652v122.434L9.189 211.108z"/><path style="fill:#ffb850" d="m503.004 211.108-89.784 48.978V137.652z"/><path style="fill:#ff880b" d="M98.973 137.652v122.434l-22.446-12.245v-91.827z"/><path style="fill:#ff8f29" d="M435.665 156.014v91.827l-22.445 12.245V137.653z"/><path style="fill:#ffb852" d="M65.613 502.906H29.139c-11.021 0-19.955-8.933-19.955-19.955V211.107l36.475 19.899v251.946c0 11.02 8.934 19.954 19.954 19.954z"/><path style="fill:#fc3842" d="M144.094 118.704c0 62.366 54.322 110.247 87.262 133.549a42.606 42.606 0 0 0 49.23.004c32.132-22.728 84.616-68.848 87.171-128.99 1.467-34.526-25.234-64.356-59.791-64.233-22.373.081-41.852 12.485-51.993 30.774-10.173-18.347-29.744-30.774-52.211-30.774-32.952.001-59.668 26.717-59.668 59.67"/><path style="fill:#ef2235" d="M247.045 246.179a230.689 230.689 0 0 0 4.792 13.703 42.456 42.456 0 0 1-20.482-7.621c-32.94-23.309-87.259-71.187-87.259-133.554 0-37.28 34.019-66.01 71.67-58.472-61.622 12.558-74.968 105.453 31.279 185.944z"/><path style="fill:#ff323f" d="M267.965 258.366c-.797.236-1.593.438-2.401.618a40.125 40.125 0 0 0 2.356-.629c.012 0 .034.011.045.011z"/><path style="fill:#ecf1f8" d="M292.151 326.121c1.705-.932 3.456-1.886 5.229-2.851-1.774.976-3.523 1.92-5.229 2.851z"/><path style="fill:#ffca54" d="M297.381 323.27c-1.773.977-3.524 1.919-5.229 2.851 1.705-.931 3.454-1.887 5.229-2.851z"/><path style="fill:#ffcf6e" d="M502.998 211.107v200.4c-80.675 9.38-159.98-22.236-211.937-84.79 0 0 98.96-53.975 101.367-55.296.031-.009 110.543-60.3 110.57-60.314z"/><path style="fill:#f5f6f7" d="M413.214 25.634v234.45c-.033.018-122.115 66.608-122.162 66.631a238.93 238.93 0 0 1-39.214-66.833 42.596 42.596 0 0 0 28.721-7.632c32.939-23.299 87.259-71.176 87.259-133.543 0-32.951-26.723-59.672-59.673-59.672-22.469 0-42.042 12.423-52.21 30.773a54.117 54.117 0 0 0-2.895-4.68v-.011c11.402-28.451 28.114-54.207 48.921-76.025h94.722c9.134 0 16.531 7.408 16.531 16.542z"/><path style="fill:#ffca54" d="M292.151 326.121c1.705-.932 3.456-1.886 5.229-2.851-1.774.976-3.523 1.92-5.229 2.851z"/><path style="fill:#ff3b4e" d="M267.92 258.355c-4.732 1.444-10.614 2.087-16.082 1.526a230.689 230.689 0 0 1-4.792-13.703c8.277 6.304 13.051 9.881 20.874 12.177z"/><path style="fill:#fc5162" d="M367.817 118.707c0 62.367-54.32 110.244-87.259 133.543a42.458 42.458 0 0 1-12.638 6.105c-8.084-2.373-13.058-6.226-20.874-12.177-16.202-51.183-15.042-108.594 5.994-161.051a53.872 53.872 0 0 1 2.895 4.68c10.168-18.35 29.741-30.773 52.21-30.773 32.949.001 59.672 26.722 59.672 59.673z"/><path style="fill:#ffca54" d="M385.011 275.471c2.087-1.146 4.096-2.233 6.004-3.278a2035.004 2035.004 0 0 1-6.004 3.278z"/><path style="fill:#ccdde5" d="M413.214 236.515v23.568c-.017.009-122.133 66.617-122.162 66.631a234.177 234.177 0 0 1-12.749-16.812c2.575-1.115-7.374 4.22 134.911-73.387z"/><path style="fill:#231f20" d="M233.596 405.044H53.618a8.437 8.437 0 1 0 0 16.872h179.978a8.436 8.436 0 0 0 0-16.872zM177.353 438.789H53.618a8.437 8.437 0 1 0 0 16.873h123.735a8.437 8.437 0 0 0 0-16.873z"/><path style="fill:#231f20" d="M511.991 210.886c-.003-.217-.023-.431-.042-.646-.013-.142-.019-.284-.039-.424-.031-.221-.081-.437-.13-.653-.029-.129-.049-.26-.084-.386a8.516 8.516 0 0 0-.235-.697c-.037-.1-.064-.203-.105-.301a8.425 8.425 0 0 0-1.041-1.828c-.07-.094-.152-.178-.226-.269-.148-.182-.295-.365-.46-.535-.103-.106-.218-.202-.327-.303-.133-.124-.257-.254-.399-.369l-86.894-71.091V25.107c0-13.792-11.221-25.013-25.014-25.013H115.189c-13.792 0-25.013 11.222-25.013 25.013v108.277C-4.217 210.61 1.83 205.038.708 208.129-.481 211.4.186 200.503.186 483.472c0 15.678 12.755 28.434 28.434 28.434h454.945c15.679 0 28.435-12.756 28.435-28.434V211.006c-.001-.041-.008-.08-.009-.12zm-23.468-1.287-66.512 36.281v-90.695l66.512 54.414zm-398.347 36.28L23.664 209.6l66.512-54.415v90.694zm393.389 249.155H28.62c-6.375 0-11.561-5.186-11.561-11.561V225.217C268.313 362.269 252.82 354.426 256.094 354.426c3.006 0-1.217 1.836 60.757-31.967a8.435 8.435 0 0 0 3.367-11.445 8.433 8.433 0 0 0-11.445-3.367l-45.952 25.064a14.002 14.002 0 0 1-13.459-.004L107.05 255.083V25.107c0-4.488 3.652-8.141 8.14-8.141h281.807c4.488 0 8.141 3.652 8.141 8.141v229.978c-40.69 22.196-29.536 16.111-47.448 25.881a8.436 8.436 0 0 0-3.367 11.446c2.231 4.091 7.356 5.6 11.446 3.366l4.517-2.463h.001s23.12-12.606 124.84-68.096v258.255c0 6.373-5.188 11.56-11.562 11.56z"/><path style="fill:#231f20" d="M308.261 50.15c-20.397 0-39.498 9.125-52.331 24.444-12.78-15.25-31.785-24.372-52.079-24.444h-.246c-49.185 0-92.792 53.911-51.792 129.732a8.434 8.434 0 0 0 7.429 4.425c6.36 0 10.454-6.827 7.412-12.45-15.435-28.546-22.557-65.093.686-89.259 24.114-25.067 64.752-18.76 81.212 10.922a8.438 8.438 0 0 0 14.756 0c9.061-16.343 26.287-26.496 44.952-26.496 28.325 0 51.368 23.044 51.368 51.368 0 58.836-52.563 104.803-83.895 126.966-11.845 8.376-27.758 8.381-39.599.005-14.625-10.345-35.675-27.197-52.901-48.731a8.434 8.434 0 0 0-11.859-1.318 8.436 8.436 0 0 0-1.318 11.857c18.456 23.074 40.821 40.995 56.333 51.967 17.666 12.495 41.411 12.497 59.086-.004 33.996-24.048 91.026-74.309 91.026-140.742.002-37.629-30.612-68.242-68.24-68.242z"/></svg>