<svg height="511pt" viewBox="0 1 511 511.999" width="511pt" xmlns="http://www.w3.org/2000/svg"><path d="M146.254 417.688v-83.18c0-8.43 2.664-16.645 7.613-23.473l19.867-27.418a40.018 40.018 0 0 0 7.61-23.472V157.668H67.652v260.02zm0 0" fill="#fecaa8"/><path d="M162.395 120.555c-10.465 0-18.95 8.484-18.95 18.949v-20.152c0-10.465-8.484-18.95-18.949-18.95s-18.95 8.485-18.95 18.95v-23.18c0-10.465-8.48-18.95-18.948-18.95-10.465 0-18.946 8.485-18.946 18.95v22.547c0-10.465-8.484-18.95-18.949-18.95s-18.95 8.485-18.95 18.95v140.36h37.895v-29.563h27.895c31.055 0 61.23 10.3 85.8 29.293V139.504c0-10.465-8.484-18.95-18.948-18.95zm0 0" fill="#fecaa8"/><path d="M48 222.586v-36.848c0-11.043-8.953-20-20-20s-20 8.957-20 20v74.407c0 8.43 2.664 16.644 7.61 23.472l19.87 27.418a40.021 40.021 0 0 1 7.61 23.477v83.176h44.918V262.586c-.004-22.09-17.914-40-40.008-40zm0 0" fill="#ffdfc7"/><path d="M365.68 94.941v83.176a40.021 40.021 0 0 1-7.61 23.477l-19.867 27.418a39.995 39.995 0 0 0-7.613 23.472v102.477H444.28V94.94zm0 0" fill="#c87c5b"/><path d="M349.54 392.074c10.464 0 18.948-8.484 18.948-18.949v20.152c0 10.465 8.485 18.95 18.95 18.95s18.949-8.485 18.949-18.95v23.18c0 10.465 8.484 18.95 18.949 18.95 10.465 0 18.95-8.485 18.95-18.95V393.91c0 10.465 8.484 18.95 18.948 18.95s18.95-8.485 18.95-18.95V253.55h-37.899v29.563h-27.894a140.276 140.276 0 0 1-85.797-29.297v119.309c-.004 10.465 8.48 18.95 18.945 18.95zm0 0" fill="#c87c5b"/><path d="M463.934 290.043v36.844c0 11.047 8.953 20.004 20 20.004s20-8.957 20-20.004v-74.403c0-8.433-2.66-16.648-7.61-23.472l-19.867-27.422a39.977 39.977 0 0 1-7.613-23.473V94.941H423.93V250.04c0 22.094 17.91 40.004 40.004 40.004zm0 0" fill="#e78e6f"/><path d="M417.262 77.223c5.718 0 10.355 4.636 10.355 10.351v27.02c0 5.719-4.637 10.351-10.355 10.351-5.715 0-10.352-4.632-10.352-10.351v-27.02c.004-5.719 4.637-10.351 10.352-10.351zM94.672 435.406c-5.719 0-10.352-4.636-10.352-10.351v-27.02a10.35 10.35 0 0 1 10.352-10.351c5.715 0 10.351 4.632 10.351 10.351v27.02c0 5.715-4.636 10.351-10.351 10.351zm0 0" fill="#d9efec"/><path d="M373.012 205.645c0-34.668-28.106-62.774-62.77-62.774-23.176 0-43.402 12.57-54.277 31.25-10.875-18.68-31.102-31.25-54.274-31.25-34.668 0-62.773 28.106-62.773 62.774 0 87.84 117.047 163.48 117.047 163.48s117.047-75.64 117.047-163.48zm0 0" fill="#f55"/><path d="M373.016 205.648c0 87.84-117.055 163.48-117.055 163.48s-11.992-7.75-28.297-21.163c18.688-12.844 113.879-82.133 113.879-161.352 0-16.09-6.047-30.77-16.004-41.867 27.277 6.832 47.477 31.496 47.477 60.902zm0 0" fill="#f72b2b"/><path d="M72.39 346.441h44.563v24.875H72.391zM394.984 143.313h44.563v24.875h-44.563zm0 0" fill="#d9efec"/><path d="M21.684 279.215a32.288 32.288 0 0 1-6.184-19.07v-74.407c0-6.89 5.605-12.5 12.5-12.5 6.89 0 12.5 5.61 12.5 12.5v36.848c0 4.14 3.36 7.5 7.5 7.5 17.922 0 32.504 14.578 32.504 32.504v42.105a7.5 7.5 0 1 0 15 0V262.59c0-23.645-17.363-43.309-40.004-46.914v-29.938c0-11.918-7.621-22.086-18.246-25.894v-41.125c0-6.317 5.137-11.45 11.45-11.45s11.448 5.133 11.448 11.45v70.062c0 4.145 3.356 7.5 7.5 7.5a7.5 7.5 0 0 0 7.5-7.5v-92.61c0-6.312 5.137-11.448 11.45-11.448S98.05 89.859 98.05 96.172v92.61c0 4.144 3.355 7.5 7.5 7.5a7.5 7.5 0 0 0 7.5-7.5v-69.43c0-6.317 5.133-11.45 11.449-11.45 6.313 0 11.45 5.133 11.45 11.45v60.312c0 .34.027.672.073 1a69.883 69.883 0 0 0-4.605 24.977c0 26.687 9.941 54.425 29.594 82.75l-13.219 18.242c-5.914 8.16-9.04 17.797-9.04 27.875v83.176a7.5 7.5 0 0 0 7.5 7.5c4.145 0 7.5-3.356 7.5-7.5v-83.176a32.288 32.288 0 0 1 6.185-19.07l10.449-14.422a296.616 296.616 0 0 0 10.254 12.261 7.478 7.478 0 0 0 5.625 2.536 7.475 7.475 0 0 0 4.96-1.88c3.106-2.745 3.399-7.484.657-10.585-30.168-34.145-45.465-67.016-45.465-97.707 0-30.477 24.797-55.27 55.273-55.27 19.598 0 37.91 10.547 47.793 27.524a7.5 7.5 0 0 0 12.965 0c9.88-16.977 28.192-27.524 47.793-27.524 30.477 0 55.27 24.793 55.27 55.27 0 8.324-1.168 16.968-3.473 25.699a7.505 7.505 0 0 0 5.34 9.168 7.504 7.504 0 0 0 9.164-5.34c2.633-9.977 3.969-19.91 3.969-29.523a69.868 69.868 0 0 0-7.39-31.325c.034-.3.058-.605.058-.922V94.941a7.5 7.5 0 1 0-15 0v59.391c-12.563-11.746-29.422-18.96-47.938-18.96-17.433 0-34.055 6.573-46.773 17.901V70.355C263.469 39.832 288.3 15 318.824 15h35.582c30.524 0 55.356 24.832 55.356 55.355v1.04c-6.102 2.843-10.352 9.015-10.352 16.18v27.019c0 7.16 4.25 13.336 10.352 16.176v5.043h-14.778a7.5 7.5 0 0 0-7.5 7.5v24.875a7.5 7.5 0 0 0 7.5 7.5h44.563c4.14 0 7.5-3.36 7.5-7.5v-24.875c0-4.141-3.36-7.5-7.5-7.5h-14.781v-5.043c6.101-2.84 10.351-9.016 10.351-16.176v-27.02c0-7.164-4.25-13.336-10.351-16.18v-1.039C424.762 31.563 393.203 0 354.406 0h-35.582c-38.793 0-70.355 31.563-70.355 70.355v82.922c-12.719-11.332-29.344-17.906-46.778-17.906-4.445 0-8.789.434-13.007 1.227-1.454-13.223-12.684-23.543-26.286-23.543-4.195 0-8.164.98-11.691 2.722-1.75-12.898-12.836-22.875-26.207-22.875-4.102 0-7.988.938-11.457 2.614-.352-14.282-12.078-25.793-26.441-25.793-14.157 0-25.75 11.175-26.418 25.168a26.294 26.294 0 0 0-11.48-2.621c-14.583 0-26.45 11.863-26.45 26.449v40.129C9.84 161.496.5 172.547.5 185.738v74.407c0 10.074 3.125 19.714 9.04 27.875l19.866 27.418a32.288 32.288 0 0 1 6.184 19.07v83.18a7.5 7.5 0 1 0 15 0v-83.18c0-10.074-3.125-19.711-9.035-27.871zm410.359-118.527H402.48v-9.875h29.563zm-11.926-46.094a2.858 2.858 0 0 1-2.855 2.851 2.855 2.855 0 0 1-2.852-2.851v-2.375h5.703v2.375zm-5.703-17.375v-9.645a2.855 2.855 0 0 1 2.852-2.851 2.855 2.855 0 0 1 2.851 2.851v9.645zm-252.02 30.836c6.313 0 11.45 5.136 11.45 11.449v1.633c-8.68 3.761-16.446 9.23-22.895 15.968v-17.601c0-6.313 5.133-11.45 11.446-11.45zM468.848 131.398a7.5 7.5 0 0 0 7.5-7.5V94.941a7.5 7.5 0 1 0-15 0v28.957c0 4.145 3.355 7.5 7.5 7.5zm0 0"/><path d="m502.398 224.61-19.867-27.419a32.29 32.29 0 0 1-6.183-19.074V161.75a7.5 7.5 0 1 0-15 0v16.367c0 10.078 3.125 19.719 9.035 27.875l19.87 27.418a32.335 32.335 0 0 1 6.184 19.074v74.407c0 6.89-5.609 12.5-12.503 12.5-6.891 0-12.5-5.61-12.5-12.5v-36.848a7.5 7.5 0 0 0-7.5-7.5c-17.922 0-32.504-14.578-32.504-32.504v-42.105c0-4.145-3.356-7.5-7.5-7.5a7.5 7.5 0 0 0-7.5 7.5v42.105c0 23.645 17.36 43.309 40.004 46.914v29.938c0 11.918 7.62 22.086 18.246 25.894v41.125c0 6.313-5.137 11.45-11.446 11.45-6.316 0-11.449-5.137-11.449-11.45v-70.066a7.5 7.5 0 1 0-15 0v92.613c0 6.313-5.137 11.45-11.45 11.45s-11.448-5.137-11.448-11.45v-92.613a7.5 7.5 0 1 0-15 0v69.433c0 6.313-5.137 11.45-11.45 11.45s-11.449-5.137-11.449-11.45v-89.082a7.5 7.5 0 1 0-15 0v68.93c0 6.312-5.136 11.45-11.445 11.45-6.316 0-11.45-5.138-11.45-11.45v-67.781c8.677-10.574 16.821-22.051 23.614-34.235a7.498 7.498 0 0 0-2.894-10.203c-3.622-2.015-8.188-.722-10.204 2.899-26.855 48.136-77.918 85.98-92.648 96.254-7.234-5.036-23.211-16.692-40.668-32.848a7.497 7.497 0 0 0-10.598.406 7.502 7.502 0 0 0 .407 10.602c19.168 17.742 36.289 30.047 43.367 34.906v68.52c0 30.523-24.832 55.355-55.356 55.355H158.22c-30.524 0-55.356-24.832-55.356-55.355v-.747c5.73-2.972 9.66-8.953 9.66-15.843v-27.02c0-6.89-3.93-12.87-9.66-15.844v-3.375h14.09c4.14 0 7.5-3.359 7.5-7.5v-24.875a7.5 7.5 0 0 0-7.5-7.5H72.391a7.5 7.5 0 0 0-7.5 7.5v24.875c0 4.141 3.359 7.5 7.5 7.5h15.472v2.723c-6.472 2.684-11.043 9.063-11.043 16.496v27.02c0 7.43 4.57 13.812 11.043 16.496v.094c0 38.792 31.563 70.355 70.356 70.355h34.894c38.793 0 70.356-31.563 70.356-70.355v-68.516c9.14-6.258 34.691-24.652 59.62-50.86v50.856c0 14.582 11.868 26.45 26.45 26.45 4.195 0 8.164-.981 11.688-2.727 1.75 12.898 12.836 22.875 26.21 22.875 4.102 0 7.989-.938 11.458-2.61.351 14.282 12.074 25.79 26.44 25.79 14.153 0 25.747-11.176 26.419-25.169a26.292 26.292 0 0 0 11.476 2.625c14.586 0 26.45-11.867 26.45-26.449v-40.129c12.414-2.652 21.754-13.699 21.754-26.894V252.48c.004-10.074-3.121-19.71-9.036-27.87zM79.891 353.94h29.562v9.875H79.891zm11.93 44.094a2.852 2.852 0 0 1 5.702 0v2.668H91.82zm5.702 17.668v9.352c0 1.57-1.277 2.851-2.851 2.851s-2.852-1.277-2.852-2.851v-9.352zm0 0"/></svg>