<svg xmlns="http://www.w3.org/2000/svg" viewBox="0 0 512.165 512.165" style="enable-background:new 0 0 512.165 512.165" xml:space="preserve" width="512" height="512"><path style="fill:#ff3d43" d="M256.339 51.399c-18.11-57.789-132.995-67.16-145.973 27.708-14.761 107.904 145.973 186.051 145.973 186.051s160.734-78.147 145.973-186.051C389.334-15.761 274.449-6.39 256.339 51.399z"/><path style="fill:#d62d2d" d="M402.312 79.107C394.52 22.15 349.998 2.779 311.737 8.89c29.877 4.86 57.584 26.426 63.575 70.218 12.121 88.607-94.095 157.148-132.473 178.829 8.358 4.722 13.5 7.222 13.5 7.222s160.734-78.148 145.973-186.052z"/><path style="fill:#f7b081" d="M351.105 378.645c0 10.306-7.667 19.003-17.891 20.295l-127.276 16.092 54.054 6.504a241.395 241.395 0 0 0 145.97-28.594l49.517-27.479c9.649-5.355 12.479-17.921 6.057-26.896-5.369-7.503-15.453-9.893-23.618-5.597l-86.813 45.675z"/><path style="fill:#db9975" d="M455.479 365.464c8.592-4.768 11.758-15.249 7.818-23.826l-118.26 63.27-43.796-1.924-95.304 12.049 54.054 6.504a241.395 241.395 0 0 0 145.97-28.594l49.518-27.479z"/><path style="fill:#f7b081" d="M330.647 358.188c11.298 0 20.457 9.159 20.457 20.457l48.21-25.365c9.306-4.896 12.562-16.622 7.112-25.615-5.046-8.326-15.738-11.228-24.3-6.594l-68.583 37.117h17.104z"/><path style="fill:#f7b081" d="m230.229 358.188 99.567-52.13c8.335-4.364 18.608-1.992 24.186 5.585 6.86 9.318 3.9 22.55-6.276 28.058l-34.161 18.488-83.316-.001z"/><path style="fill:#ffc89f" d="M61.961 389.437s37.247-31.451 83.401-40.03c46.154-8.58 84.867 8.781 84.867 8.781h100.419c11.298 0 20.457 9.159 20.457 20.457 0 10.306-7.667 19.003-17.891 20.295l-127.276 16.092 54.054 6.504a241.395 241.395 0 0 0 145.97-28.594l67.629-37.53c9.188-4.837 20.527-2.306 26.787 5.978 7.813 10.34 4.601 25.207-6.783 31.4l-98.891 53.796c-49.568 26.965-106 62.314-162.204 57.305L61.961 488.694H7.5v-99.256h54.461z"/><path style="fill:#f7b081" d="M500.378 361.391a21.2 21.2 0 0 0-1.35-1.605c-1.509 5.214-5.004 9.878-10.223 12.717l-98.891 53.796c-49.568 26.964-106 62.313-162.204 57.305L57.171 468.406H7.5v20.288h54.461L232.5 503.891c56.205 5.009 112.636-30.34 162.204-57.305l98.891-53.796c11.384-6.192 14.596-21.06 6.783-31.399z"/><path style="fill:#db9975" d="m313.545 358.188 34.161-18.488c8.854-4.792 12.241-15.429 8.456-24.25l-78.088 42.738h35.471zM351.105 378.645l48.21-25.364c8.053-4.237 11.562-13.585 8.834-21.854l-62.617 33.214c3.446 3.662 5.573 8.58 5.573 14.004z"/><path d="M391.12 439.998c-5.088 2.768-10.248 5.624-15.472 8.515-44.209 24.468-94.317 52.198-142.483 47.908L62.626 481.223a7.386 7.386 0 0 0-.666-.03H15v-84.256h46.961a7.518 7.518 0 0 0 4.835-1.766c.087-.073 8.901-7.454 22.924-15.807a7.5 7.5 0 0 0 2.605-10.282 7.5 7.5 0 0 0-10.282-2.605c-11.093 6.608-19.086 12.595-22.729 15.46H7.5a7.5 7.5 0 0 0-7.5 7.5v99.256a7.5 7.5 0 0 0 7.5 7.5h54.127l170.207 15.168c3.843.343 7.677.506 11.513.506 48.802 0 96.829-26.58 139.563-50.23 5.192-2.874 10.32-5.712 15.377-8.462a7.5 7.5 0 0 0 3.004-10.172 7.498 7.498 0 0 0-10.171-3.005z"/><path d="M506.362 356.869c-7.993-10.579-21.922-14.225-33.938-9.19a25.975 25.975 0 0 0-4.788-13.476c-7.51-10.496-21.786-13.878-33.209-7.87l-17.908 9.422a25.802 25.802 0 0 0-3.677-11.977c-7.128-11.764-22.188-15.848-34.284-9.303l-13.394 7.249a26.554 26.554 0 0 0-5.141-14.528c-7.831-10.636-22.004-13.909-33.705-7.783l-96.486 50.517c-10.834-4.154-45.425-15.41-85.84-7.897-11.046 2.053-22.49 5.527-34.015 10.324a7.5 7.5 0 1 0 5.764 13.849c10.553-4.393 20.98-7.564 30.991-9.425 43.145-8.02 80.069 8.092 80.427 8.251.025.011.05.018.075.029.082.035.166.064.249.096a7.381 7.381 0 0 0 .923.297c.206.052.414.093.624.127.098.016.194.035.292.047.276.034.555.054.834.056.026 0 .051.005.077.005l.025-.001h83.255l.03.001.007.001.024-.001h17.072c7.145 0 12.957 5.813 12.957 12.957 0 6.512-4.872 12.038-11.332 12.855l-127.276 16.092a7.5 7.5 0 0 0 .045 14.887l54.054 6.504c52.353 6.299 104.398-3.895 150.505-29.482l67.548-37.485a13.648 13.648 0 0 1 17.245 3.897 13.688 13.688 0 0 1 2.461 11.149 13.688 13.688 0 0 1-6.843 9.141l-72.514 39.447a7.5 7.5 0 0 0 3.591 14.09 7.47 7.47 0 0 0 3.577-.913l72.514-39.447a28.674 28.674 0 0 0 14.337-19.15 28.67 28.67 0 0 0-5.153-23.362zm-120.665-29.201a10.742 10.742 0 0 1 14.316 3.885 10.647 10.647 0 0 1 1.164 8.45 10.648 10.648 0 0 1-5.355 6.64l-.006.004-39.556 20.811a28.104 28.104 0 0 0-16.152-15.118l11.166-6.043.004-.002 34.419-18.627zm-52.422-14.966a11.494 11.494 0 0 1 14.667 3.387c2.012 2.733 2.712 6.063 1.971 9.375-.74 3.311-2.792 6.024-5.775 7.639l-32.493 17.585h-50.922l72.552-37.986zm69.048 73.683c-41.367 22.956-87.816 32.726-134.749 28.415l66.58-8.418c12.338-1.56 21.983-11.082 24.039-22.991l44.61-23.47.005-.002a.04.04 0 0 1 .009-.005l38.594-20.305c4.825-2.539 10.855-1.109 14.027 3.323 1.844 2.578 2.477 5.701 1.78 8.793a10.836 10.836 0 0 1-5.373 7.178l-49.522 27.482zM129.732 158.672a7.5 7.5 0 0 0 2.859-10.214c-12.887-22.906-17.864-45.897-14.795-68.334 5.134-37.532 28.729-61.665 63.116-64.555 31.291-2.628 60.643 13.737 68.27 38.073.969 3.093 3.916 5.257 7.157 5.257 3.24 0 6.188-2.165 7.157-5.257 7.626-24.336 36.982-40.7 68.27-38.073 34.387 2.891 57.982 27.023 63.116 64.555 3.13 22.882-2.108 46.33-15.569 69.694-11.034 19.15-27.559 38.294-49.117 56.898-30.958 26.717-63.595 44.665-73.856 50.022-14.195-7.415-71.217-38.945-107.776-84.79a7.501 7.501 0 0 0-11.728 9.352c43.9 55.05 113.292 89.175 116.224 90.601a7.559 7.559 0 0 0 6.559 0c1.677-.815 41.505-20.346 80.138-53.624 22.899-19.726 40.553-40.191 52.47-60.829 15.221-26.358 21.115-53.059 17.517-79.359-3.25-23.758-12.556-42.799-27.659-56.592C368.866 9.428 351.901 2.208 333.022.621c-17.834-1.502-36.009 2.245-51.183 10.544-10.71 5.857-19.417 13.763-25.5 22.994-6.083-9.231-14.791-17.137-25.5-22.994C215.665 2.867 197.49-.88 179.656.621c-18.879 1.587-35.844 8.806-49.062 20.877-15.103 13.793-24.409 32.834-27.659 56.592-3.523 25.751 2.057 51.9 16.583 77.722a7.502 7.502 0 0 0 10.214 2.86z"/><path d="M212.485 110.536c0-8.025-6.528-14.553-14.553-14.553s-14.553 6.528-14.553 14.553c0 8.025 6.528 14.553 14.553 14.553s14.553-6.528 14.553-14.553zM329.299 110.536c0-8.025-6.528-14.553-14.553-14.553s-14.553 6.528-14.553 14.553c0 8.025 6.528 14.553 14.553 14.553s14.553-6.528 14.553-14.553zM256.339 159.909c14.669 0 27.469-9.4 31.852-23.391a7.5 7.5 0 1 0-14.314-4.483c-2.412 7.701-9.46 12.874-17.537 12.874-8.078 0-15.125-5.174-17.538-12.874a7.5 7.5 0 1 0-14.314 4.483c4.382 13.991 17.182 23.391 31.851 23.391z"/></svg>