<svg xmlns="http://www.w3.org/2000/svg" viewBox="0 0 511.998 511.998" style="enable-background:new 0 0 511.998 511.998" xml:space="preserve" width="512" height="512"><path style="fill:#ffc89f" d="M394.267 504.498H192.263c-.458-23.7-14.387-45.088-35.921-54.997-36.014-16.573-95.813-50.023-95.813-125.192 0-112.171 107.907-155.798 107.907-155.798s-30.889-16.475-27.602-52.904c3.653-40.487 53.492-66.31 86.915-108.108H418.77S342.819 181.3 374.692 240.722c35.955 67.035 141.543 118.363 19.575 263.776z"/><path style="fill:#f7b081" d="M374.692 240.723C342.819 181.301 418.77 7.5 418.77 7.5h-27s-75.951 173.801-44.078 233.223c35.955 67.034 141.543 118.362 19.575 263.775h27c121.968-145.413 16.38-196.741-19.575-263.775z"/><path style="fill:#ff3d43" d="M201.015 291.23c-8.224-26.243-60.395-30.498-66.288 12.583-6.703 49.001 66.288 84.488 66.288 84.488s72.992-35.487 66.288-84.488c-5.893-43.081-58.064-38.826-66.288-12.583z"/><path style="fill:#d72e2e" d="M267.304 303.813c-4.063-29.698-30.116-36.899-48.605-29.912 10.56 4.135 19.381 13.649 21.605 29.912 4.851 35.462-32.034 63.842-52.788 76.82 7.923 4.954 13.5 7.668 13.5 7.668s72.991-35.488 66.288-84.488z"/><path d="M439.492 318.144a7.5 7.5 0 0 0-10.291-2.567 7.5 7.5 0 0 0-2.567 10.291c21.989 36.608 34.793 85.552-35.882 171.13h-191.53c-3.003-23.494-18.027-44.316-39.745-54.31-39.257-18.066-91.448-49.994-91.448-118.379 0-39.261 13.749-74.166 40.865-103.744a7.5 7.5 0 0 0-11.057-10.137C68.105 242.861 53.03 281.176 53.03 324.309c0 34.878 12.296 65.099 36.547 89.821 20.677 21.079 46.217 34.171 63.63 42.185 18.77 8.637 31.158 27.607 31.558 48.328a7.5 7.5 0 0 0 7.499 7.355h202.004a7.5 7.5 0 0 0 5.746-2.68c34.541-41.181 53.489-77.602 57.927-111.347 3.614-27.49-2.248-52.856-18.449-79.827zM129.263 201.481c21.989-17.779 41.795-25.939 41.985-26.017 5.782-2.338 6.222-10.635.719-13.571-.265-.141-26.47-14.495-23.662-45.612 2.107-23.355 22.383-42.064 45.859-63.728 12.593-11.62 25.587-23.61 37.15-37.554h176.188c-6.566 16.068-19.297 48.697-29.916 84.707-20.489 69.48-23.686 118.117-9.503 144.561 7.999 14.914 18.885 28.553 30.41 42.994 3.81 4.773 7.75 9.71 11.531 14.645 2.683 3.499 7.966 3.9 11.15.846 2.721-2.609 3.048-6.98.756-9.97-3.872-5.052-7.858-10.047-11.713-14.877-11.087-13.892-21.56-27.014-28.915-40.727-8.417-15.693-13.406-51.521 10.63-133.089 14.693-49.863 33.523-93.155 33.711-93.586A7.498 7.498 0 0 0 418.77 0H227.749a7.498 7.498 0 0 0-5.857 2.816c-11.412 14.272-24.878 26.698-37.9 38.714-24.685 22.777-48 44.292-50.627 73.403-2.359 26.153 10.601 43.155 20.634 52.219-8.549 4.544-20.934 11.965-34.167 22.665a7.5 7.5 0 0 0 9.431 11.664z"/><path d="M201.01 379.837c-4.029-2.186-11.325-6.386-19.422-12.196a7.498 7.498 0 0 0-10.466 1.722 7.5 7.5 0 0 0 1.722 10.466c13.315 9.553 24.426 14.991 24.893 15.217a7.559 7.559 0 0 0 6.559 0c3.18-1.546 77.795-38.482 70.439-92.25-3.619-26.452-22.288-37.337-38.553-38.705-13.934-1.17-27.007 3.849-35.166 12.677-8.158-8.828-21.233-13.848-35.166-12.677-16.265 1.367-34.935 12.253-38.553 38.705-2.6 19.009 4.715 37.969 21.743 56.354a7.5 7.5 0 0 0 10.599.406 7.5 7.5 0 0 0 .406-10.599c-13.831-14.934-19.849-29.781-17.887-44.128 2.96-21.633 18.433-25.243 24.948-25.791 12.35-1.045 23.849 5.167 26.753 14.434.969 3.092 3.916 5.257 7.157 5.257s6.188-2.165 7.157-5.257c2.904-9.267 14.408-15.47 26.752-14.434 6.515.548 21.989 4.157 24.948 25.791 5.127 37.481-45.344 67.648-58.863 75.008z"/></svg>