<svg viewBox="0 -38 512 511" xmlns="http://www.w3.org/2000/svg"><path d="M340.855 360.016c-31.207-.766-51.027-15.809-62.437-29.532-10.219-12.285-14.707-29.183-19.902-48.754-7.227-27.222-16.223-61.105-44.434-92.3-27.969-30.926-62.555-44.395-93.07-56.278-45.051-17.539-63.332-26.25-63.332-66.187 0-4.367.015-13.832 8.078-24.73-35.774 23.613-58.68 53.374-58.13 86.085 1.435 85.121 89.68 69.442 142.329 127.66 55.676 61.567 11.984 121.454 124.777 165.243 59.258 23.004 158.532-7.426 208.305-130.336-1.226 1.554-76.418 70.742-142.184 69.129zm0 0" fill="#ea3942"/><path d="M504.379 201.758c0 102.953-86.633 208.887-198.442 186.414-118.945-23.91-72.355-99.063-128.027-160.629-52.652-58.219-146.566-35.98-146.566-127.652 0-83.059 143.773-105.239 274.594-84.543 108.25 17.125 198.44 83.457 198.44 186.41zm0 0" fill="#f3e8d7"/><path d="M432.207 65.477c19.125 26.578 30.262 58.21 30.262 94.37 0 102.95-86.633 208.883-198.446 186.41-16.882-3.39-30.425-7.82-41.402-13.089 11.133 24.477 31.54 44.598 83.316 55.004 111.81 22.473 198.442-83.461 198.442-186.414 0-57.645-28.281-103.805-72.172-136.281zm0 0" fill="#e5d6c1"/><path d="M336.043 354.375c-16.707.723-33.434-2.07-48.79-8.93-10.394-4.644-20.226-11.183-26.886-20.422-7.242-10.043-10.215-22.449-13.316-34.437-6.598-25.512-14.684-51.16-29.754-72.777-22.254-31.922-57.817-52.196-94.348-65.621-12.863-4.727-26.215-8.856-37.355-16.84-11.14-7.98-19.903-20.868-18.785-34.528 1.437-17.55 17.925-29.851 34.004-37.035C145.105 44 196.355 41.113 244.156 44.715c48.735 3.668 100.813 12.594 144.086 36.3 42.735 23.41 74.45 63.844 78.715 113.06 4.195 48.413-18.309 100.66-55.898 131.507-21.024 17.254-47.993 27.625-75.016 28.793zm0 0" fill="#fc4e51"/><path d="M466.957 194.074c-3.773-43.531-29.031-80.183-64.39-104.273 12.062 18.172 19.894 39.023 21.867 61.75 4.195 48.414-18.309 100.66-55.899 131.508-21.027 17.253-47.996 27.625-75.02 28.793-14.402.62-28.816-1.375-42.355-6.332 2.195 6.94 4.969 13.625 9.207 19.503 6.66 9.239 16.492 15.778 26.887 20.422 15.351 6.86 32.078 9.653 48.789 8.93 27.02-1.168 53.992-11.54 75.016-28.793 37.593-30.848 60.093-83.094 55.898-131.508zm0 0" fill="#ea3942"/><path d="M240.336 112.09c0 17.273-14.004 31.277-31.277 31.277-17.274 0-31.278-14.004-31.278-31.277 0-17.274 14.004-31.278 31.278-31.278 17.273 0 31.277 14.004 31.277 31.278zm0 0" fill="#f3e8d7"/><path d="M450.773 70.637c-36.035-31.551-87.046-53.86-143.648-62.813-50.188-7.941-102.043-9.484-146.016-4.34C112.58 9.16 74.625 22.668 51.355 42.547a94.55 94.55 0 0 0-3.562 3.207C16.039 70.527-.484 99.114.012 128.449c.43 25.528 8.398 45.168 24.367 60.043 13.992 13.035 32.25 21.059 51.582 29.551 23.996 10.543 48.809 21.441 68.348 43.05 19.996 22.114 26.511 44.286 32.808 65.731 5.313 18.07 10.801 36.762 24.188 54.125 14.96 19.41 37.418 34.465 70.672 47.375 12.996 5.047 27.347 7.528 42.257 7.528 23.579 0 48.555-6.211 71.739-18.325 31.156-16.285 74.418-50.87 103.859-123.136C504.062 265.676 512 233.645 512 201.758c0-50.707-21.172-96.047-61.227-131.121zM378.91 404.023c-34.008 17.778-71.922 21.551-101.418 10.098-66.418-25.785-75.379-56.281-85.754-91.594-6.468-22.011-13.797-46.957-36.133-71.652-21.726-24.027-49.242-36.117-73.52-46.781-36.901-16.215-66.05-29.02-66.843-75.903-.203-12.082 3.23-23.191 8.645-33.16a79.763 79.763 0 0 0-.164 4.856c0 27.457 8.125 48.133 24.836 63.215 14.644 13.214 33.773 20.664 54.023 28.546 24.734 9.63 50.309 19.586 69.676 41.004 19.441 21.5 25.687 45.016 31.722 67.758 5.465 20.574 10.622 40.008 24.692 56.922 15.726 18.91 39.8 31.082 75.762 38.309 10.457 2.101 20.91 3.14 31.27 3.14 29.855 0 58.917-8.633 84.917-25.3-14.73 14.343-29.27 24.039-41.71 30.542zm97.742-117.285a8.07 8.07 0 0 0-.675 1.29c-.086.218-.18.425-.266.64-11.86 23.59-28.316 44.707-48.316 61.086-20.055 16.426-50.832 33.89-91.02 33.89-9.16 0-18.816-.91-28.938-2.94-70.113-14.095-78.328-45.032-88.726-84.204-6.203-23.355-13.23-49.828-35.149-74.066-21.785-24.09-50.296-35.192-75.453-44.985-38.632-15.043-69.148-26.922-69.148-77.562 0-17.727 7.5-33.121 22.293-45.754C90.379 29.25 147.762 15.68 215.758 15.68c28.25 0 58.34 2.343 88.988 7.191 53.793 8.512 102.09 29.547 135.988 59.227 36.657 32.097 56.028 73.476 56.028 119.66 0 29.242-7.2 58.597-20.11 84.98zm0 0"/><path d="M467.59 210.133c-4.207-.344-7.88 2.762-8.23 6.953-3.133 37.187-21.708 74.562-48.883 98.941-9.965-7.902-13.88-20.648-19.891-40.261-5.004-16.34-11.234-36.676-23.367-61.524-11.574-23.71-33.082-43.82-55.344-59.66 16.828-9.812 57.5-28.281 121.617-25.402 12.387 16.254 20.785 34.675 24.348 54.18a7.619 7.619 0 1 0 14.988-2.743c-4.195-22.957-14.32-44.535-29.27-63.3a7.023 7.023 0 0 0-.343-.438c-13.485-16.805-30.848-31.332-51.313-42.543-37.734-20.676-84.5-32.5-147.175-37.219-59.243-4.465-107.332 1.988-147.02 19.715-18.516 8.27-30.934 19.648-36.02 32.727l-.117.308c-1.265 3.344-2.066 6.793-2.355 10.336-1.223 14.926 7.183 30.77 21.941 41.34 8.11 5.812 17.16 9.633 24.14 12.309 3.927 1.511 8.333-.454 9.84-4.383 1.509-3.926-.452-8.336-4.382-9.84-6.508-2.5-14.063-5.695-20.723-10.473-8.172-5.855-16.57-16.21-15.629-27.71.043-.505.11-1.044.2-1.606 35.75-.684 76.359 6.387 95.613 10.242-.035.664-.05 1.336-.05 2.008 0 21.445 17.448 38.894 38.894 38.894 13.84 0 26.007-7.27 32.902-18.187 25.383 11.262 89.723 43.39 111.566 88.129 11.606 23.773 17.641 43.472 22.489 59.3 6.011 19.618 10.664 34.797 22.234 45.438-18.355 12.559-40.64 20.152-62.54 21.102-16.226.703-31.483-2.082-45.347-8.274-10.664-4.765-18.675-10.793-23.816-17.922-6.07-8.422-8.8-19.02-11.692-30.238l-.425-1.656c-6.606-25.535-14.914-52.32-30.88-75.223-17.284-24.789-43.988-45.285-79.374-60.918a7.613 7.613 0 0 0-10.047 3.89 7.618 7.618 0 0 0 3.89 10.048c32.793 14.488 57.364 33.226 73.032 55.695 14.59 20.926 22.379 46.168 28.625 70.324l.426 1.645c3.113 12.09 6.335 24.593 14.09 35.343 6.73 9.336 16.808 17.047 29.956 22.922 14.434 6.45 30.106 9.707 46.664 9.707 1.84 0 3.696-.043 5.56-.12 28.718-1.247 56.858-12.016 79.28-30.325a.68.68 0 0 0 .055-.047l.184-.144c33.047-27.118 54.968-69.399 58.648-113.11a7.615 7.615 0 0 0-6.95-8.23zm-234.942-96.317c-.62 4.371-.789 7.121-4.437 12.141-4.305 5.926-11.281 9.793-19.152 9.793-12.961 0-23.516-10.477-23.653-23.406.492-8.031 3.403-12.473 3.403-12.473 4.148-6.851 11.671-11.441 20.25-11.441 13.046 0 23.66 10.617 23.66 23.66a25.2 25.2 0 0 1-.07 1.726zm14.77 4.688c.348-2.09.535-4.23.535-6.414 0-21.45-17.45-38.899-38.894-38.899-15.43 0-28.79 9.032-35.07 22.082-18.071-3.668-55.466-10.308-91.094-10.703 4.425-4.586 11.074-9.382 21.027-13.828 37.32-16.668 83.004-22.695 139.66-18.433 60.434 4.55 105.238 15.796 140.996 35.39 13.242 7.254 25.043 16.016 35.16 25.934-68.39.023-108.718 22.793-121.773 31.617-20.07-12.695-39.184-21.777-50.547-26.746zm0 0"/></svg>