<svg xmlns="http://www.w3.org/2000/svg" viewBox="0 0 512.001 512.001" style="enable-background:new 0 0 512.001 512.001" xml:space="preserve"><path style="fill:#fcc447" d="M503.28 293.054c0-86.884-110.757-157.317-247.382-157.317S8.514 206.17 8.514 293.054s110.757 83.19 247.382 83.19 247.384 3.694 247.384-83.19z"/><path style="fill:#e8af3d" d="M61.37 293.054c0-81.206 96.757-148.034 220.955-156.423a392.515 392.515 0 0 0-26.428-.895C119.271 135.737 8.514 206.17 8.514 293.054s110.757 83.19 247.382 83.19c2.414 0 4.817.001 7.215.003-114.82-.34-201.741-6.226-201.741-83.193zM282.324 376.265c6.483.003 12.89.001 19.213-.017-6.469.003-12.876.013-19.213.017z"/><path d="M477.356 209.361a8.618 8.618 0 0 0-12.821 11.521c19.777 22.012 30.231 46.968 30.231 72.172 0 17.96-5.142 31.828-15.721 42.395-32.412 32.377-113.302 32.29-206.964 32.189-10.632-.011-21.528-.011-32.16 0-93.657.105-174.552.19-206.964-32.189-10.579-10.566-15.721-24.434-15.721-42.395 0-38.969 24.315-75.892 68.463-103.967a234.171 234.171 0 0 1 7.373-4.485c11.761 8.059 46.64 35.387 66.399 87.479a8.62 8.62 0 0 0 8.059 5.564 8.618 8.618 0 0 0 8.056-11.675c-18.426-48.577-48.691-77.292-65.612-90.386 21.506-10.452 45.439-18.435 70.934-23.709 6.243 3.95 28.635 19.243 51.005 48.271a8.6 8.6 0 0 0 6.832 3.357 8.619 8.619 0 0 0 6.821-13.879c-14.935-19.38-29.882-33.089-40.848-41.82 16.655-2.273 33.821-3.448 51.281-3.448 8.82 0 17.57.307 26.22.899.275.203.56.396.863.569.365.208 36.83 21.331 66.497 69.51a8.61 8.61 0 0 0 11.857 2.82 8.617 8.617 0 0 0 2.82-11.856c-16.115-26.173-34.027-44.889-48.041-57.142 49.07 7.975 93.193 25.639 125.966 51.08a8.617 8.617 0 0 0 10.569-13.613c-48.715-37.817-120.427-59.505-196.75-59.505-67.696 0-131.461 16.841-179.551 47.423C27.15 205.891 0 247.98 0 293.053c0 22.452 6.99 40.818 20.776 54.589 37.466 37.426 121.677 37.334 219.163 37.23 10.619-.012 21.503-.012 32.123 0 5.124.006 10.203.012 15.249.012 90.961 0 168.417-1.782 203.915-37.241 13.786-13.77 20.776-32.137 20.776-54.589-.002-29.527-11.982-58.466-34.646-83.693z"/><path d="M366.804 228.103a8.618 8.618 0 0 0-4.142 11.462 248.558 248.558 0 0 1 7.354 17.376 8.62 8.62 0 0 0 8.059 5.564 8.617 8.617 0 0 0 8.056-11.675 266.338 266.338 0 0 0-7.866-18.582 8.617 8.617 0 0 0-11.461-4.145zM262.142 213.866a8.62 8.62 0 0 0-11.832-2.925 8.62 8.62 0 0 0-2.925 11.832c7.626 12.635 14.181 26.131 19.485 40.115a8.62 8.62 0 0 0 8.059 5.564 8.618 8.618 0 0 0 8.056-11.675c-5.671-14.954-12.683-29.39-20.843-42.911z"/></svg>