<svg height="511pt" viewBox="0 -24 511.999 511" width="511pt" xmlns="http://www.w3.org/2000/svg"><path d="M485.55 55.984C480.192 28.617 456.067 7.977 427.138 8l-69.98.055.046 59.476 118.848-.094c6.054-.007 10.664-5.515 9.5-11.453zm0 0" fill="#f4bc8e"/><path d="M396.852 56.055c-1.16 5.941 3.457 11.445 9.515 11.441l-49.164.04-.047-59.481 69.977-.059c4.832-.004 9.531.57 14.031 1.656-22.43 5.438-39.89 23.602-44.312 46.403zm0 0" fill="#efa66f"/><path d="M427.934 7.996c-32.844.027-59.454 26.68-59.426 59.531l.168 205.332a9.635 9.635 0 0 1-2.817 6.813l-20.847 20.883c-3.754 3.761-3.75 9.86.011 13.613l20.883 20.852a9.632 9.632 0 0 1 2.824 6.8l.043 55.371c.028 32.852-26.582 59.504-59.433 59.532l-204.606.164-.21-109.696a8.518 8.518 0 0 1 2.234-5.77l6.906-7.566c4.129-4.523 2.305-11.789-3.469-13.832a8.545 8.545 0 0 1-5.699-8.054l-.074-244.227c-.027-32.851 26.582-59.504 59.433-59.531zm0 0" fill="#fbdbb7"/><path d="M427.934 7.996c-32.844.027-59.454 26.68-59.426 59.531l.168 205.336c0 2.551-1.008 5-2.817 6.809l-20.847 20.883c-3.754 3.758-3.746 9.86.011 13.613l20.88 20.848a9.626 9.626 0 0 1 2.827 6.804l.043 55.371c.028 32.852-26.582 59.504-59.433 59.528l-19.715.02c32.848-.028 59.46-26.68 59.434-59.532l-.047-55.371a9.61 9.61 0 0 0-2.828-6.805l-20.88-20.847c-3.757-3.754-3.761-9.856-.011-13.614l20.848-20.882a9.63 9.63 0 0 0 2.816-6.81l-.168-205.335c-.027-32.852 26.582-59.504 59.426-59.531zm0 0" fill="#f4bc8e"/><path d="M240.828 397.3c4.774-.003 8.902 3.47 9.559 8.2 4.023 28.96 28.894 51.246 58.957 51.219l-243.25.199c-28.93.023-53.055-20.617-58.414-47.984-1.164-5.938 3.445-11.45 9.496-11.454zm0 0" fill="#f4bc8e"/><path d="M451.797 278.453c0 59.766-48.45 108.215-108.211 108.215-59.766 0-108.215-48.45-108.215-108.215s48.45-108.215 108.215-108.215c59.762 0 108.21 48.45 108.21 108.215zm0 0" fill="#f1eded"/><path d="M356.324 278.453c0 7.035-5.703 12.742-12.738 12.742-7.04 0-12.742-5.707-12.742-12.742 0-7.039 5.703-12.742 12.742-12.742 7.035 0 12.738 5.703 12.738 12.742zm0 0" fill="#fc4830"/><path d="M343.09 117.047c-85.207 0-155.195 66.371-161.004 150.129l-1.867-1.863c-6.457-6.458-16.922-6.458-23.375 0-6.457 6.453-6.457 16.921 0 23.375l29.765 29.765a16.521 16.521 0 0 0 23.375 0l29.766-29.765c6.457-6.454 6.457-16.918 0-23.375-6.453-6.458-16.922-6.458-23.375 0l-1.059 1.054c6.114-65.125 61.082-116.262 127.778-116.262 70.77 0 128.347 57.579 128.347 128.348 0 70.774-57.578 128.348-128.347 128.348-9.13 0-16.531 7.402-16.531 16.531 0 9.129 7.402 16.531 16.53 16.531 89 0 161.407-72.406 161.407-161.41 0-89-72.406-161.406-161.41-161.406zm0 0" fill="#00df97"/><path d="M343.586 212.227a7.5 7.5 0 0 0 7.5-7.5v-8.563a7.5 7.5 0 1 0-15 0v8.563c0 4.144 3.355 7.5 7.5 7.5zM343.586 339.938a7.497 7.497 0 0 0-7.5 7.5V356a7.5 7.5 0 1 0 15 0v-8.563a7.5 7.5 0 0 0-7.5-7.5zM423.504 283.582c4.14 0 7.5-3.36 7.5-7.5s-3.36-7.5-7.5-7.5h-8.567c-4.14 0-7.5 3.36-7.5 7.5s3.36 7.5 7.5 7.5zM272.23 268.582h-8.562a7.5 7.5 0 1 0 0 15h8.562c4.141 0 7.5-3.36 7.5-7.5s-3.359-7.5-7.5-7.5zM394.04 233.125c1.92 0 3.839-.73 5.304-2.195l6.054-6.055a7.497 7.497 0 0 0 0-10.605 7.497 7.497 0 0 0-10.605 0l-6.055 6.054a7.497 7.497 0 0 0 0 10.606 7.47 7.47 0 0 0 5.301 2.195zM287.828 321.234l-6.058 6.055a7.504 7.504 0 0 0 0 10.606c1.464 1.464 3.386 2.195 5.304 2.195s3.84-.73 5.305-2.195l6.055-6.055c2.925-2.93 2.925-7.68 0-10.606a7.497 7.497 0 0 0-10.606 0zM399.344 321.234a7.502 7.502 0 0 0-10.61 0 7.504 7.504 0 0 0 0 10.606l6.059 6.055a7.475 7.475 0 0 0 5.3 2.199 7.502 7.502 0 0 0 5.305-12.805zM287.828 230.93a7.47 7.47 0 0 0 5.3 2.195 7.48 7.48 0 0 0 5.306-2.195c2.93-2.93 2.925-7.68 0-10.61l-6.055-6.054c-2.93-2.93-7.676-2.926-10.61 0a7.51 7.51 0 0 0 0 10.609zM372.55 270.953h-10.183a20.327 20.327 0 0 0-11.308-11.293c.011-.156.023-.308.023-.465v-31.71a7.5 7.5 0 1 0-15 0v31.71c0 .157.016.309.023.465-7.464 2.985-12.761 10.274-12.761 18.793 0 11.16 9.078 20.242 20.238 20.242 8.512 0 15.797-5.289 18.785-12.742h10.184c4.14 0 7.5-3.36 7.5-7.5s-3.36-7.5-7.5-7.5zm-28.964 12.742c-2.89 0-5.242-2.351-5.242-5.242s2.351-5.242 5.242-5.242a5.247 5.247 0 0 1 5.238 5.242 5.25 5.25 0 0 1-5.238 5.242zm0 0"/><path d="M512 278.453c0-37.344-12.004-72.77-34.707-102.445a7.497 7.497 0 0 0-10.516-1.399 7.495 7.495 0 0 0-1.398 10.512C486.062 212.161 497 244.43 497 278.453c0 84.863-69.043 153.906-153.91 153.906-4.977 0-9.028-4.05-9.028-9.027 0-4.98 4.051-9.031 9.028-9.031 74.91 0 135.847-60.942 135.847-135.848S418 142.605 343.09 142.605c-33.996 0-66.555 12.672-91.672 35.68-24.953 22.856-40.426 53.89-43.57 87.38a7.506 7.506 0 0 0 4.277 7.487 7.496 7.496 0 0 0 8.496-1.484l1.055-1.055a8.965 8.965 0 0 1 6.383-2.644c2.414 0 4.68.937 6.386 2.644 3.52 3.52 3.52 9.25 0 12.77l-29.765 29.765a8.967 8.967 0 0 1-6.387 2.645c-2.41 0-4.68-.938-6.383-2.645l-29.765-29.765A8.965 8.965 0 0 1 159.5 277c0-2.414.937-4.68 2.645-6.387s3.972-2.644 6.382-2.644c2.414 0 4.68.937 6.387 2.644l1.863 1.867a7.499 7.499 0 0 0 12.785-4.785c5.57-80.27 73.004-143.148 153.528-143.148 37.09 0 72.945 13.437 100.957 37.84a7.5 7.5 0 0 0 9.855-11.309 168.847 168.847 0 0 0-77.859-38.27l-.031-37.75L400.82 75a7.5 7.5 0 0 0 7.48-7.52 7.495 7.495 0 0 0-7.5-7.48h-.015l-24.242.055c3.59-25.008 25.047-44.325 50.984-44.547 24.653.164 45.926 17.734 50.66 41.918.153.781-.156 1.36-.44 1.707-.25.3-.798.804-1.7.808l-42.59.032a7.5 7.5 0 0 0 .004 15h.008l42.59-.032a17.149 17.149 0 0 0 13.273-6.28 17.016 17.016 0 0 0 3.578-14.118c-6.043-30.852-32.945-53.34-64.293-54.008A6.64 6.64 0 0 0 427.93.5h-.004L163.848.71c-36.934.032-66.961 30.106-66.93 67.036l.027 90.098a7.5 7.5 0 1 0 15-.004l-.027-90.102c-.023-28.664 23.277-52 51.941-52.023l221.883-.176c-15.101 12.3-24.754 31.047-24.734 52l.035 42.98a167.46 167.46 0 0 0-17.953-.968c-84.133 0-155.254 62.554-167.149 144.582a24.01 24.01 0 0 0-7.414-1.16c-6.418 0-12.449 2.5-16.988 7.039-9.371 9.367-9.371 24.613 0 33.984l29.766 29.762c4.539 4.539 10.57 7.039 16.992 7.039 6.418 0 12.453-2.5 16.992-7.035l16.281-16.282a115.853 115.853 0 0 0 36.285 58.473 115.685 115.685 0 0 0 75.73 28.219c6.013 0 11.919-.461 17.685-1.352l.003 4.383c0 .246-.015.492-.015.738a121.124 121.124 0 0 1-18.164 1.364c-13.25 0-24.031 10.78-24.031 24.03 0 8.997 4.972 16.849 12.308 20.966a51.894 51.894 0 0 1-22.035 4.926h-.04c-25.808 0-47.937-19.23-51.48-44.754-1.16-8.364-8.457-14.668-16.976-14.668h-.016l-128.719.105-.082-42.719c0-.261.098-.515.274-.707l6.906-7.57c3.64-3.984 5.027-9.488 3.715-14.723s-5.133-9.433-10.223-11.23a1.053 1.053 0 0 1-.699-.988l-.039-121.47c0-4.14-3.355-7.495-7.5-7.495s-7.5 3.36-7.5 7.5l.04 121.472a16.08 16.08 0 0 0 10.702 15.125c.133.043.531.188.672.735a.985.985 0 0 1-.246.965l-6.906 7.566a16.018 16.018 0 0 0-4.196 10.844l.082 42.707-79.933.066a17.152 17.152 0 0 0-13.274 6.278A17.006 17.006 0 0 0 .32 410.383c6.133 31.324 33.77 54.043 65.727 54.043h.055l243.25-.2h.003a66.824 66.824 0 0 0 44.782-17.23C442.145 441.281 512 367.875 512 278.453zm-287.086-25.281c5.215-24.402 17.934-46.692 36.637-63.828 22.344-20.469 51.3-31.739 81.539-31.739 6.113 0 12.12.461 17.992 1.34l.004 5.118a116 116 0 0 0-17.5-1.325 115.685 115.685 0 0 0-75.73 28.219c-18.793 16.281-31.79 38.129-37.168 62.156a24.405 24.405 0 0 0-2.625-.144c-1.063 0-2.114.066-3.149.203zm52.762 101.437c-17.836-15.449-29.68-36.648-33.461-59.78l.836-.837c9.37-9.37 9.37-24.617 0-33.984-.133-.133-.27-.258-.406-.387 4.199-22.176 15.828-42.422 33.03-57.324a100.679 100.679 0 0 1 65.91-24.559c55.532 0 100.712 45.18 100.712 100.715s-45.18 100.715-100.711 100.715a100.671 100.671 0 0 1-65.91-24.559zm98.59 34.848c47.941-14.137 83.03-58.547 83.03-111.004 0-52.523-35.175-96.98-83.21-111.058l-.004-5.211c50.652 14.39 87.855 61.066 87.855 116.27 0 55.132-37.113 101.76-87.667 116.214zM66.09 449.418h-.043c-24.8 0-46.25-17.625-51.008-41.926-.152-.777.156-1.36.441-1.707.25-.3.797-.805 1.704-.805l223.652-.18c1.074 0 1.984.743 2.125 1.727 2.398 17.29 11.406 32.336 24.246 42.727zm0 0"/><path d="M183.89 109.836V82.152a7.5 7.5 0 0 0-7.5-7.5H152c-4.14 0-7.5 3.36-7.5 7.5v27.684a7.5 7.5 0 0 0 7.5 7.5h24.39c4.145 0 7.5-3.356 7.5-7.5zm-15-7.5h-9.39V89.652h9.39zM174.164 160.453V139c0-4.14-3.36-7.5-7.5-7.5-4.14 0-7.5 3.36-7.5 7.5v3.496a7.486 7.486 0 0 0-6.973 1.617c-3.101 2.746-3.39 7.489-.64 10.586l9.5 10.727a7.494 7.494 0 0 0 8.273 2.039 7.497 7.497 0 0 0 4.84-7.012zM162.238 182.805c-4.14 0-7.5 3.36-7.5 7.5v19.5c0 4.14 3.36 7.5 7.5 7.5s7.5-3.36 7.5-7.5v-19.5c0-4.14-3.36-7.5-7.5-7.5zM234.023 96.273a7.5 7.5 0 1 0 0 15h12.903a7.5 7.5 0 0 0 7.5-7.5v-23.32c0-4.14-3.36-7.5-7.5-7.5h-31.453c-4.141 0-7.5 3.36-7.5 7.5v34.234c0 4.141 3.359 7.5 7.5 7.5s7.5-3.359 7.5-7.5V87.953h16.453v8.32zm0 0"/></svg>