<svg height="511pt" viewBox="0 0 511 511.677" width="511pt" xmlns="http://www.w3.org/2000/svg"><path d="M475.563 90.965 294.226 57.09a27.308 27.308 0 0 0-5.801-.598 32.02 32.02 0 0 0-8.11.852 33.756 33.756 0 0 0-13.906 6.828l-75.437 381.012a33.473 33.473 0 0 0 5.89 11.007 33.132 33.132 0 0 0 20.395 12.461l161.62 30.207 19.798 3.668a33.978 33.978 0 0 0 25.562-5.379 33.979 33.979 0 0 0 14.203-21.925l64.426-344.407a34.132 34.132 0 0 0-27.304-39.851zm-169.817 117.25a65.409 65.409 0 0 0-14.078-1.024l-.34-1.879a82.861 82.861 0 0 1 13.992-6.398l1.707 9.555zm14.168 158.89h-.086l-5.293-30.12a66.004 66.004 0 0 0 13.91-6.915l6.657 37.805a82.983 82.983 0 0 1-15.188-.77zm0 0" fill="#795548"/><path d="M449.96 86.7 288.427 56.491a32.02 32.02 0 0 0-8.11.852 33.756 33.756 0 0 0-13.906 6.828l-75.437 381.012a33.473 33.473 0 0 0 5.89 11.007 33.132 33.132 0 0 0 20.395 12.461l161.62 30.207c16.614.235 30.97-11.558 33.962-27.902l64.426-344.406a34.11 34.11 0 0 0-5.391-25.586 34.119 34.119 0 0 0-21.914-14.266zM280.149 203.95a65.697 65.697 0 0 0-14.082-1.028l-.34-1.875a82.917 82.917 0 0 1 13.997-6.402l1.703 9.558zm14.164 158.89h-.085l-5.29-30.125a66.176 66.176 0 0 0 13.91-6.91l6.657 37.8a83.006 83.006 0 0 1-15.191-.765zm0 0" fill="#bfa885"/><path d="m295.762 426.668-185 32.684c-1.32.261-2.664.406-4.012.425-17.234.985-32.484-11.078-35.5-28.074L9.387 81.238C6.129 62.7 18.5 45.023 37.03 41.73L200.02 12.973l22.015-3.926c18.54-3.254 36.215 9.113 39.508 27.648L323.41 387.16c3.258 18.54-9.113 36.215-27.648 39.508zm0 0" fill="#bfa885"/><path d="M270.164 430.934 106.75 459.777c-17.234.985-32.484-11.078-35.5-28.074L9.387 81.238C6.129 62.7 18.5 45.023 37.03 41.73L200.02 12.973c17.394-1.305 32.933 10.804 35.925 27.988l61.868 350.465c3.253 18.539-9.114 36.215-27.649 39.508zm0 0" fill="#ffecb3"/><path d="M415.57 296.79c-7.437 45.058-49.152 76.187-94.46 70.487-.43-.086-.77-.086-1.196-.172h-.086l-5.293-30.12a66.004 66.004 0 0 0 13.91-6.915 67.003 67.003 0 0 0 29.27-44.117c7.027-35.32-15.508-69.77-50.688-77.484l-1.707-9.555a78.771 78.771 0 0 1 17.239-3.84 77.299 77.299 0 0 1 25.43.598c46.577 9.27 76.831 54.535 67.581 101.117zm0 0" fill="#37474f"/><path d="M394.238 296.79c-6.593 36.823-36.09 65.253-73.129 70.487-.43-.086-.77-.086-1.195-.172h-.086l-5.293-30.12a66.004 66.004 0 0 0 13.91-6.915 67.003 67.003 0 0 0 29.27-44.117c7.027-35.32-15.508-69.77-50.688-77.484l-1.707-9.555a78.771 78.771 0 0 1 17.239-3.84c1.363.168 2.73.34 4.093.598 46.582 9.27 76.832 54.535 67.586 101.117zm0 0" fill="#607d8b"/><path d="m307.027 208.469-1.28-.254a65.409 65.409 0 0 0-14.079-1.024l-.34-1.879a82.861 82.861 0 0 1 13.992-6.398zm0 0" fill="#2c2f38"/><path d="M221.352 220.418c-5.43-30.723-34.723-51.234-65.45-45.824a56.601 56.601 0 0 0-36.523 23.21 56.802 56.802 0 0 0-9.387 42.325 56.146 56.146 0 0 0 23.297 36.437 55.465 55.465 0 0 0 25.172 9.727c2.348.34 4.715.512 7.082.512a56.484 56.484 0 0 0 55.809-66.387zm0 0" fill="#f57c00"/><path d="M191.484 224.684c-4.289-24.38-23.988-43.11-48.554-46.164a55.625 55.625 0 0 0-23.551 19.285 56.802 56.802 0 0 0-9.387 42.324 56.146 56.146 0 0 0 23.297 36.437 55.465 55.465 0 0 0 25.172 9.727c23.965-10.395 37.637-35.898 33.023-61.61zm0 0" fill="#ff9801"/><path d="m133.16 414.227-15.75 2.78a7.475 7.475 0 0 1-8.664-6.058l-2.781-15.761a8.537 8.537 0 0 0-5.461-6.7 8.533 8.533 0 0 0-11.34 9.668l2.774 15.762c2.085 11.71 12.261 20.25 24.156 20.277 1.43-.004 2.86-.129 4.265-.375l15.762-2.785a8.53 8.53 0 0 0 6.54-5.488 8.537 8.537 0 0 0-9.509-11.32zM297.871 377.574l-2.773-15.761a8.538 8.538 0 0 0-13.895-5.051 8.533 8.533 0 0 0-2.914 8.023l2.781 15.75c.711 4.063-2 7.934-6.058 8.653l-15.762 2.792a8.531 8.531 0 0 0-6.98 9.137 8.532 8.532 0 0 0 8.457 7.793c.5.004 1-.039 1.492-.129L277.973 406a24.53 24.53 0 0 0 19.898-28.426zM199.68 54.172l15.757-2.774a7.321 7.321 0 0 1 5.583 1.227 7.465 7.465 0 0 1 3.074 4.824l2.781 15.758a8.532 8.532 0 0 0 15.39 3.41 8.536 8.536 0 0 0 1.41-6.379l-2.773-15.75c-2.379-13.336-15.09-22.23-28.433-19.902l-15.762 2.773a8.534 8.534 0 1 0 2.973 16.813zM57.785 79.207l15.762-2.746a8.536 8.536 0 1 0-2.969-16.813L54.824 62.43C41.488 64.8 32.586 77.52 34.926 90.863l2.773 15.762a8.527 8.527 0 0 0 8.395 7.047c.504 0 1-.043 1.496-.125a8.536 8.536 0 0 0 6.918-9.89l-2.774-15.762a7.47 7.47 0 0 1 1.23-5.582 7.476 7.476 0 0 1 4.821-3.07zM186.398 303.617a36.015 36.015 0 0 0 .54-20.957 56.189 56.189 0 0 0 10.906-5.914 17.932 17.932 0 0 1 5.863 10.656c4.41 18.47 16.527 24.348 22.988 24.91.254.012.508.012.758 0a8.69 8.69 0 0 0 8.672-7.773 8.354 8.354 0 0 0-1.855-6.195 8.358 8.358 0 0 0-5.715-3.02c-.23-.05-5.692-1.215-8.25-11.949a36.097 36.097 0 0 0-10.055-18.465c.598-.758 1.223-1.484 1.777-2.289a56.423 56.423 0 0 0 4.735-8.234 17.874 17.874 0 0 1 10.43 6.3 33.169 33.169 0 0 0 23.968 11.75 20.237 20.237 0 0 0 8.387-1.707 8.696 8.696 0 0 0 4.27-11.417 8.357 8.357 0 0 0-11.172-4.2c-.204.086-5.54 1.793-13.098-6.195a36.12 36.12 0 0 0-17.922-10.95c.578-4.105.7-8.265.36-12.398a17.907 17.907 0 0 1 12.132.258c18.238 5.41 29.356-2.144 33.067-7.46 2.742-3.88 1.859-9.24-1.977-12.04a8.368 8.368 0 0 0-11.77 1.953c-.16.172-3.906 4.32-14.445 1.188a36.152 36.152 0 0 0-20.969-.547 55.736 55.736 0 0 0-5.921-10.871 17.816 17.816 0 0 1 10.675-5.887c18.465-4.414 24.348-16.531 24.91-22.988.426-4.73-3.019-8.93-7.742-9.43-2.226-.23-4.453.441-6.183 1.863s-2.82 3.477-3.032 5.703c0 .231-1.21 5.696-11.945 8.254a36.035 36.035 0 0 0-18.484 10.07 57.114 57.114 0 0 0-10.512-6.503 17.854 17.854 0 0 1 6.305-10.453c13.781-13.047 12.8-26.453 10.078-32.36a8.704 8.704 0 0 0-11.418-4.265 8.363 8.363 0 0 0-4.2 11.168c.079.214 1.801 5.53-6.195 13.101a36.134 36.134 0 0 0-10.957 17.918 56.412 56.412 0 0 0-12.39-.355 17.94 17.94 0 0 1 .351-12.094c5.41-18.203-2.14-29.348-7.457-33.066a8.713 8.713 0 0 0-12.043 1.98 8.36 8.36 0 0 0 1.957 11.766c.18.156 4.325 3.902 1.184 14.449a36.139 36.139 0 0 0-.543 20.965 55.772 55.772 0 0 0-10.899 5.906 17.93 17.93 0 0 1-5.863-10.66c-4.41-18.465-16.527-24.344-22.988-24.906a8.692 8.692 0 0 0-9.43 7.738 8.368 8.368 0 0 0 1.852 6.195 8.375 8.375 0 0 0 5.719 3.02c.23 0 5.691 1.21 8.25 11.949 1.453 7 4.96 13.41 10.07 18.414-.598.766-1.219 1.492-1.774 2.297a56.091 56.091 0 0 0-4.738 8.234 17.923 17.923 0 0 1-10.426-6.3c-13.039-13.77-26.453-12.797-32.359-10.079a8.697 8.697 0 0 0-4.266 11.418 8.358 8.358 0 0 0 11.168 4.2c.215-.079 5.54-1.782 13.098 6.195a36.266 36.266 0 0 0 17.922 10.984 56.97 56.97 0 0 0-.352 12.371 17.885 17.885 0 0 1-12.133-.265c-18.203-5.426-29.347 2.136-33.066 7.453a8.593 8.593 0 0 0-.684 8.887 8.6 8.6 0 0 0 7.563 4.722 8.223 8.223 0 0 0 6.773-3.543c.164-.168 3.899-4.316 14.45-1.183a36.074 36.074 0 0 0 20.964.535 55.252 55.252 0 0 0 5.907 10.898 17.858 17.858 0 0 1-10.66 5.871c-18.457 4.41-24.336 16.52-24.907 22.98a8.693 8.693 0 0 0 7.73 9.438h.794a8.335 8.335 0 0 0 8.43-7.601c.042-.23 1.21-5.696 11.949-8.254a36.054 36.054 0 0 0 18.457-10.051c.765.598 1.492 1.219 2.293 1.773a57.27 57.27 0 0 0 8.234 4.747 17.808 17.808 0 0 1-6.297 10.417c-13.789 13.047-12.8 26.454-10.078 32.36a8.814 8.814 0 0 0 7.938 5.066c1.203 0 2.39-.261 3.48-.765a8.383 8.383 0 0 0 4.441-4.707c.79-2.098.7-4.43-.242-6.465-.078-.223-1.8-5.54 6.196-13.098a36.117 36.117 0 0 0 10.957-17.922c2.543.375 5.109.57 7.68.59 1.534 0 3.09-.281 4.64-.41 1.422 4 1.355 8.379-.188 12.332-5.41 18.203 2.145 29.348 7.461 33.066a8.775 8.775 0 0 0 5.043 1.579 8.48 8.48 0 0 0 6.989-3.56 8.359 8.359 0 0 0-1.945-11.766c-.208-.085-4.352-3.823-1.216-14.37zm-59.52-66.32c0-.164 0-.309-.073-.469-2.977-17.527 6.136-34.875 22.254-42.375 16.117-7.496 35.257-3.285 46.746 10.281.078.11.144.22.23.332a39.076 39.076 0 0 1 8.531 18.157c0 .156 0 .308.07.46 3.579 21.31-10.624 41.54-31.882 45.407l-.426.07c-21.316 3.606-41.57-10.594-45.45-31.863zm0 0"/><path d="M477.133 82.578 295.832 48.711a42.311 42.311 0 0 0-23.125 2.07l-2.738-15.527A42.693 42.693 0 0 0 252.418 7.71 42.685 42.685 0 0 0 220.535.648L35.59 33.29A42.675 42.675 0 0 0 8.05 50.84 42.66 42.66 0 0 0 .989 82.724l61.84 350.43c3.606 20.35 21.258 35.202 41.926 35.269a43.197 43.197 0 0 0 7.508-.668l73.566-12.977a42.452 42.452 0 0 0 29.867 22.27l181.41 33.879c2.637.5 5.313.75 7.997.75 20.492-.063 38.03-14.719 41.734-34.875l64.43-344.387c2.09-11.137-.332-22.644-6.735-31.992s-16.261-15.766-27.398-17.836zm-150 276.625-3.012-17.066a76.15 76.15 0 0 0 40.563-48.461 76.147 76.147 0 0 0-9.989-62.403 72.954 72.954 0 0 0-33.75-27.445 74.043 74.043 0 0 1 25.465.266c39.8 8.5 66.496 46.02 61.477 86.406-5.02 40.39-40.082 70.238-80.754 68.738zm-22.957-142.601a55.806 55.806 0 0 1 36.3 24.125 59.138 59.138 0 0 1 8.31 46.085 59.137 59.137 0 0 1-27.813 37.676l-19.055-108.175c.75.093 1.508.152 2.258.289zM109.3 450.937c-13.922 2.458-27.2-6.832-29.66-20.753L17.797 79.754c-2.453-13.922 6.844-27.195 20.762-29.652L223.496 17.46a25.946 25.946 0 0 1 4.504-.395c12.402.028 23.004 8.942 25.156 21.157l61.84 350.422a25.596 25.596 0 0 1-20.762 29.66zM494.48 129.23l-64.403 344.457a25.448 25.448 0 0 1-29.797 20.481L218.86 460.289a25.23 25.23 0 0 1-14.582-8.746l25.754-4.547a24.288 24.288 0 0 0 4.547 1.399l15.54 2.902a8.538 8.538 0 0 0 9.953-6.82 8.472 8.472 0 0 0 0-2.774l37.202-6.57c23.192-4.117 38.676-26.235 34.602-49.434l-1.645-9.3c.555 0 1.118.117 1.708.117 48.617-.973 88.761-38.282 93.296-86.696 4.532-48.418-27.988-92.527-75.582-102.511a92.076 92.076 0 0 0-51.78 5.511l-11.946-67.797a8.476 8.476 0 0 0 2.687-4.71l2.903-15.532a7.275 7.275 0 0 1 8.48-5.8l15.531 2.898a8.535 8.535 0 0 0 9.903-6.832c.86-4.61-2.164-9.055-6.77-9.942l-15.531-2.902a24.23 24.23 0 0 0-23.238 8.625l-3.993-22.613a25.217 25.217 0 0 1 16.793-2.738l181.325 33.878a25.598 25.598 0 0 1 16.43 10.688 25.612 25.612 0 0 1 4.05 19.18zm0 0"/><path d="M414.324 432.496c-4.633-.863-9.086 2.195-9.949 6.828l-2.91 15.528a7.28 7.28 0 0 1-8.473 5.804l-15.539-2.902c-4.617-.832-9.043 2.219-9.902 6.832a8.536 8.536 0 0 0 6.77 9.945l15.53 2.903c1.493.28 3.004.421 4.524.425 11.707-.02 21.742-8.367 23.895-19.875l2.91-15.53a8.55 8.55 0 0 0-1.36-6.403 8.538 8.538 0 0 0-5.496-3.555zM458.316 111.207l-15.53-2.902c-4.618-.832-9.044 2.222-9.903 6.832-.863 4.613 2.164 9.054 6.77 9.945l15.53 2.902a7.27 7.27 0 0 1 5.801 8.48l-2.898 15.532c-.418 2.227.066 4.527 1.348 6.395s3.25 3.148 5.476 3.566c.524.094 1.05.14 1.578.145a8.535 8.535 0 0 0 8.383-6.973l2.899-15.531c2.453-13.207-6.25-25.91-19.454-28.391zM410.555 151.793a8.531 8.531 0 0 0 9.95-6.828l1.448-7.766a8.535 8.535 0 0 0-6.832-9.902c-4.61-.86-9.055 2.164-9.941 6.77l-1.446 7.765a8.535 8.535 0 0 0 6.82 9.96zM402.07 157.594a8.526 8.526 0 0 0-6.824-9.957l-7.758-1.45a8.535 8.535 0 0 0-8.09 2.813 8.534 8.534 0 0 0 4.957 13.96l7.758 1.454a8.531 8.531 0 0 0 9.957-6.82zM407.89 166.059a8.533 8.533 0 0 0-9.957 6.828l-1.46 7.758a8.533 8.533 0 0 0 6.828 9.957c.52.101 1.047.152 1.578.152a8.528 8.528 0 0 0 8.379-6.961l1.46-7.766a8.532 8.532 0 0 0-1.347-6.398 8.527 8.527 0 0 0-5.48-3.57zM434.082 154.898l-7.777-1.449c-4.618-.836-9.04 2.219-9.899 6.832a8.526 8.526 0 0 0 6.77 9.942l7.765 1.453a8.538 8.538 0 0 0 10.07-7.605 8.535 8.535 0 0 0-6.929-9.173zM109.14 102.512a8.534 8.534 0 0 0 8.414-10.02l-1.39-7.875a8.536 8.536 0 0 0-16.805 2.961l1.383 7.875a8.538 8.538 0 0 0 8.399 7.059zM88.285 122.445c.496 0 .992-.043 1.485-.129l7.875-1.39a8.54 8.54 0 0 0 6.543-5.48 8.544 8.544 0 0 0-1.477-8.407 8.54 8.54 0 0 0-8.02-2.922l-7.882 1.39a8.532 8.532 0 0 0-7.032 9.145 8.535 8.535 0 0 0 8.508 7.793zM113.227 117.094a8.528 8.528 0 0 0-5.508 3.511 8.525 8.525 0 0 0-1.414 6.38l1.394 7.878a8.53 8.53 0 0 0 8.395 7.047 8.53 8.53 0 0 0 8.414-10.008l-1.39-7.886a8.528 8.528 0 0 0-3.513-5.508 8.521 8.521 0 0 0-6.378-1.414zM127.684 115.492c.496 0 .992-.043 1.484-.129l7.883-1.39a8.533 8.533 0 0 0 5.058-13.891 8.537 8.537 0 0 0-8.02-2.922l-7.874 1.39a8.534 8.534 0 0 0-7.028 9.145 8.53 8.53 0 0 0 8.497 7.797zM223.094 325.223a8.528 8.528 0 0 0-5.508 3.511 8.521 8.521 0 0 0-1.414 6.38l1.39 7.874a8.537 8.537 0 0 0 8.391 7.059c.5 0 1-.043 1.492-.137a8.534 8.534 0 0 0 6.922-9.883l-1.39-7.882a8.534 8.534 0 0 0-9.883-6.922zM211.504 351.652l-7.883 1.391a8.531 8.531 0 0 0-6.98 9.137 8.532 8.532 0 0 0 8.457 7.793c.5.004 1-.04 1.492-.13l7.875-1.39a8.533 8.533 0 0 0-2.96-16.8zM230.04 364.629a8.534 8.534 0 0 0-6.919 9.883l1.399 7.886a8.533 8.533 0 0 0 15.402 3.395 8.513 8.513 0 0 0 1.398-6.398l-1.39-7.88a8.535 8.535 0 0 0-9.89-6.886zM260.793 351.617a8.514 8.514 0 0 0-3.512-5.508 8.517 8.517 0 0 0-6.379-1.414l-7.882 1.39a8.535 8.535 0 0 0-7.028 9.15 8.532 8.532 0 0 0 8.504 7.792c.5 0 1-.047 1.492-.136l7.875-1.391a8.531 8.531 0 0 0 5.512-3.508 8.51 8.51 0 0 0 1.418-6.375zM362.664 408.047a8.528 8.528 0 0 0 9.95-6.816l1.452-7.774c.832-4.617-2.222-9.043-6.832-9.902-4.613-.864-9.054 2.164-9.945 6.77l-1.45 7.765c-.417 2.226.067 4.527 1.349 6.394s3.25 3.149 5.476 3.563zM354.133 413.852a8.535 8.535 0 0 0-6.828-9.95l-7.766-1.453a8.539 8.539 0 0 0-9.687 6.867 8.539 8.539 0 0 0 6.554 9.903l7.766 1.449a8.536 8.536 0 0 0 9.96-6.816zM359.977 422.332a8.541 8.541 0 0 0-6.395 1.352 8.523 8.523 0 0 0-3.562 5.476l-1.461 7.766a8.545 8.545 0 0 0 1.351 6.394 8.523 8.523 0 0 0 7.055 3.707 8.532 8.532 0 0 0 8.379-6.96l1.453-7.766a8.55 8.55 0 0 0-1.344-6.399 8.558 8.558 0 0 0-5.476-3.57zM368.45 416.531a8.535 8.535 0 0 0 6.827 9.95l7.766 1.449a7.91 7.91 0 0 0 1.578.144 8.528 8.528 0 0 0 8.484-7.75 8.538 8.538 0 0 0-6.93-9.172l-7.765-1.449a8.524 8.524 0 0 0-6.394 1.352 8.528 8.528 0 0 0-3.567 5.476zm0 0"/></svg>