<svg xmlns="http://www.w3.org/2000/svg" viewBox="0 0 511.995 511.995" style="enable-background:new 0 0 511.995 511.995" xml:space="preserve" width="512" height="512"><path style="fill:#ebeae6" d="m435.32 74.388 44.963 366.194c1.169 9.523-5.607 18.179-15.115 19.347L103.27 504.364c-9.508 1.167-18.178-5.592-19.347-15.115L31.713 64.03c-1.169-9.523 5.607-18.179 15.115-19.347L349.701 7.495l85.619 66.893z"/><path style="fill:#c9c5b5" d="m412.987 77.13 44.963 366.194c1.169 9.523-5.607 18.179-15.115 19.347l22.332-2.742c9.508-1.167 16.285-9.824 15.115-19.347L435.319 74.388l-22.332 2.742z"/><path transform="scale(-1) rotate(82.998 245.54 -284.496)" style="fill:#2bb4f3" d="M97.889 59.969h307.6v314.495h-307.6z"/><path style="fill:#75dc5e" d="m256.623 370.693-117.474 14.424a1.527 1.527 0 0 1-1.713-1.505l-.272-38.399c-.125-17.574 12.943-32.448 30.39-34.59l43.485-5.339c17.447-2.142 33.725 9.128 37.855 26.21l9.026 37.325a1.526 1.526 0 0 1-1.297 1.874z"/><path style="fill:#2aad52" d="m257.921 368.818-9.026-37.325c-4.131-17.082-20.409-28.353-37.855-26.21l-21.092 2.59c17.447-2.142 33.725 9.128 37.855 26.21l9.026 37.325a1.528 1.528 0 0 1-1.298 1.875l21.092-2.59a1.527 1.527 0 0 0 1.298-1.875z"/><path style="fill:#f2a077" d="m170.258 283.539 3.911 31.855c1.072 8.728 9.016 14.935 17.744 13.863 8.728-1.072 14.935-9.016 13.863-17.744l-3.911-31.855-31.607 3.881z"/><path style="fill:#fca" d="m231.919 227.375-9.623 1.182-2.849-23.204c-2.063-16.803-17.357-28.751-34.159-26.688l-23.377 2.87c-16.802 2.063-28.751 17.357-26.688 34.159l2.849 23.204-9.623 1.182c-5.432.667-9.296 5.612-8.629 11.044l.571 4.652c.667 5.432 5.612 9.296 11.044 8.629l9.684-1.189c3.878 22.093 24.436 37.509 46.951 34.744 11.258-1.382 20.939-7.054 27.611-15.18 6.672-8.126 10.327-18.706 9.54-29.891l9.684-1.189c5.432-.667 9.296-5.612 8.629-11.044l-.571-4.652c-.667-5.433-5.612-9.296-11.044-8.629z"/><path style="fill:#475d6d" d="m135.6 218.774 12.108-1.487a8.748 8.748 0 0 0 7.296-6.116l2.277-7.422a3.253 3.253 0 0 1 4.78-1.838l16.314 9.754a8.746 8.746 0 0 0 5.554 1.174l35.895-4.407-3.211-26.15c-1.605-13.07-13.501-22.364-26.57-20.759l-28.77 3.533a7.847 7.847 0 0 0-6.832 8.745l.512 4.167-12.547 1.541c-6.326.777-10.825 6.535-10.048 12.861l3.242 26.404z"/><path style="fill:#ff5a59" d="M402.133 352.826 284.659 367.25a1.527 1.527 0 0 1-1.713-1.505l-.272-38.399c-.125-17.574 12.943-32.448 30.39-34.59l43.485-5.339c17.447-2.142 33.725 9.128 37.855 26.21l9.026 37.325a1.526 1.526 0 0 1-1.297 1.874z"/><path style="fill:#ce3a4c" d="m403.431 350.952-9.026-37.325c-4.131-17.082-20.409-28.353-37.855-26.21l-21.092 2.59c17.447-2.142 33.725 9.128 37.855 26.21l9.026 37.325a1.528 1.528 0 0 1-1.298 1.875l21.092-2.59a1.528 1.528 0 0 0 1.298-1.875z"/><path style="fill:#f2a077" d="m315.767 265.672 3.911 31.855c1.072 8.728 9.016 14.935 17.744 13.863 8.728-1.072 14.935-9.016 13.863-17.744l-3.911-31.855-31.607 3.881z"/><path style="fill:#fca" d="m377.429 209.509-9.623 1.182-2.622-21.351c-2.536-20.656-21.337-35.344-41.993-32.808l-9.423 1.157c-20.656 2.536-35.345 21.337-32.808 41.993l2.622 21.351-9.623 1.182c-5.432.667-9.296 5.612-8.629 11.044l.571 4.652c.667 5.432 5.612 9.296 11.044 8.629l9.684-1.189c3.878 22.093 24.436 37.509 46.951 34.744 11.258-1.382 20.939-7.054 27.611-15.18 6.672-8.126 10.327-18.706 9.54-29.891l9.684-1.189c5.432-.667 9.296-5.612 8.629-11.044l-.571-4.652c-.667-5.434-5.612-9.297-11.044-8.63z"/><path style="fill:#f9dc6a" d="m261.477 150.153 60.651-7.447c20.311-2.494 38.797 11.95 41.291 32.26l1.765 14.374-73.12 8.978c-13.424 1.648-25.642-7.898-27.29-21.322l-3.297-26.843z"/><path style="fill:#e0ded5" d="m376.295 81.635 59.024-7.247-85.618-66.893 7.247 59.024c1.168 9.509 9.824 16.285 19.347 15.116z"/><path d="M487.727 439.668 442.764 73.474c-.01-.084-.03-.165-.043-.249a7.633 7.633 0 0 0-.273-1.165l-.007-.025a7.637 7.637 0 0 0-.481-1.117 7.704 7.704 0 0 0-.465-.782c-.012-.018-.022-.037-.035-.055a7.709 7.709 0 0 0-.786-.934 7.593 7.593 0 0 0-.738-.671L354.318 1.585a7.646 7.646 0 0 0-1.048-.677 7.441 7.441 0 0 0-.877-.412c-.02-.008-.042-.013-.062-.021a7.317 7.317 0 0 0-1.12-.318 7.61 7.61 0 0 0-.95-.141l-.024-.001a7.623 7.623 0 0 0-1.198.016c-.084.007-.168.008-.252.018L45.914 37.239c-13.605 1.67-23.315 14.099-21.646 27.705L59.861 354.82a7.494 7.494 0 0 0 8.358 6.53 7.5 7.5 0 0 0 6.53-8.358L39.157 63.117c-.663-5.397 3.188-10.327 8.585-10.99L343.17 15.853l6.334 51.58c.809 6.588 4.135 12.468 9.365 16.557 4.416 3.452 9.742 5.278 15.26 5.278 1.021 0 2.05-.063 3.08-.189l9.468-1.162 31.471 256.259-8.395 1.031-8.056-33.344c-4.906-20.291-23.892-33.834-44.552-32.041l-.114-.929a50.07 50.07 0 0 0 9.951-9.216c6.609-8.044 10.48-17.793 11.222-28.013l3.131-.385c9.514-1.173 16.313-9.875 15.156-19.405l-.57-4.658c-1.177-9.514-9.881-16.313-19.415-15.154l-2.169.269-1.705-13.908c-.003-.028-.011-.055-.014-.083l-1.755-14.287c-1.45-11.812-7.413-22.352-16.791-29.678-9.376-7.326-21.043-10.563-32.858-9.112l-60.65 7.447a7.498 7.498 0 0 0-6.53 8.358l3.296 26.843c1.3 10.588 7.663 19.34 16.362 24.13l1.53 12.464-2.181.268a17.313 17.313 0 0 0-11.592 6.557 17.275 17.275 0 0 0-3.564 12.839l.571 4.654c1.174 9.531 9.892 16.334 19.408 15.157l3.115-.383c4.75 14.512 15.811 25.74 29.557 31.015l.113.92c-20.477 3.257-35.625 20.989-35.47 41.867l.242 34.303-11.174 1.372-8.058-33.342c-4.906-20.29-23.902-33.83-44.551-32.041l-.115-.934a49.918 49.918 0 0 0 9.947-9.217c6.613-8.038 10.486-17.788 11.225-28.017l3.119-.383a17.276 17.276 0 0 0 11.604-6.56 17.318 17.318 0 0 0 3.565-12.838l-.571-4.656a17.309 17.309 0 0 0-6.566-11.594 17.299 17.299 0 0 0-12.84-3.562l-2.177.267-1.937-15.761-.001-.009-2.832-23.059c-1.021-8.31-5.216-15.724-11.813-20.878s-14.799-7.429-23.116-6.411l-28.77 3.533a15.253 15.253 0 0 0-10.224 5.784 15.243 15.243 0 0 0-3.189 7.999l-5.454.67a18.918 18.918 0 0 0-12.685 7.176 18.917 18.917 0 0 0-3.895 14.042l2.963 24.132 1.833 14.949-2.18.268a17.309 17.309 0 0 0-11.595 6.566 17.286 17.286 0 0 0-3.562 12.838l.57 4.657c1.176 9.53 9.886 16.329 19.409 15.156l3.115-.383c4.752 14.512 15.813 25.738 29.556 31.01l.114.924c-20.478 3.257-35.625 20.989-35.471 41.867l.242 34.301-9.021 1.108-35.66-290.421 240.785-29.566c4.111-.504 7.035-4.247 6.53-8.358s-4.233-7.036-8.358-6.53L75.954 76.281a7.499 7.499 0 0 0-6.53 8.358l37.49 305.31a7.506 7.506 0 0 0 7.444 6.586c.304 0 .609-.019.914-.056l312.149-38.331a7.499 7.499 0 0 0 6.53-8.358L401.566 86.088l27.223-3.342 44.049 358.75c.663 5.396-3.188 10.326-8.585 10.988L102.356 496.92c-5.38.659-10.326-3.189-10.989-8.585L78.406 382.769a7.494 7.494 0 0 0-8.358-6.53 7.5 7.5 0 0 0-6.53 8.358l12.961 105.567c1.546 12.582 12.291 21.833 24.659 21.832 1.006 0 2.023-.061 3.047-.187l361.897-44.436c13.605-1.671 23.315-14.099 21.645-27.705zm-143.885-145.12c.044.363.065.709.065 1.057 0 4.234-3.183 7.818-7.412 8.337a8.354 8.354 0 0 1-6.196-1.716 8.368 8.368 0 0 1-3.178-5.615l-1.075-8.753a50.27 50.27 0 0 0 2.302.058 50.64 50.64 0 0 0 6.141-.376 50.306 50.306 0 0 0 8.277-1.743l.391 3.179.006.084c.003.028.011.055.014.083l.665 5.405zm-74.007-137.865 53.206-6.533c7.839-.963 15.576 1.185 21.796 6.044 6.22 4.86 10.175 11.851 11.137 19.686l.852 6.929-65.677 8.064c-9.292 1.141-17.79-5.494-18.932-14.792l-2.382-19.398zm24.179 87.365a7.502 7.502 0 0 0-8.302-6.147l-9.682 1.19a2.411 2.411 0 0 1-2.688-2.099l-.571-4.656a2.41 2.41 0 0 1 2.1-2.677l9.62-1.18a7.503 7.503 0 0 0 6.531-8.358l-1.733-14.126a32.193 32.193 0 0 0 3.688-.234l65.68-8.064 1.706 13.911a7.503 7.503 0 0 0 8.365 6.531l9.604-1.188a2.42 2.42 0 0 1 2.702 2.097l.568 4.642a2.427 2.427 0 0 1-2.099 2.703l-9.689 1.19a7.498 7.498 0 0 0-6.567 7.972c.631 8.933-2.158 17.67-7.854 24.602a34.912 34.912 0 0 1-10.16 8.449 34.87 34.87 0 0 1-12.568 4.047 34.879 34.879 0 0 1-13.212-.9l-.002-.001c-12.791-3.393-23.016-13.919-25.437-27.704zm18.559 56.364a23.232 23.232 0 0 0 8.497 13.638c4.156 3.245 9.165 4.96 14.347 4.959.967 0 1.94-.06 2.914-.18 11.731-1.439 20.577-11.424 20.577-23.225 0-.291-.016-.586-.027-.88 13.122-.923 25.114 7.747 28.237 20.661l7.445 30.813L290.4 358.993l-.223-31.704c-.098-13.289 9.435-24.599 22.396-26.877zm-114.24 12.006c.044.363.065.709.065 1.057 0 4.234-3.179 7.818-7.394 8.335a8.384 8.384 0 0 1-6.22-1.723 8.36 8.36 0 0 1-3.173-5.607l-1.076-8.76c.758.035 1.519.057 2.284.057 2.035 0 4.091-.125 6.16-.379a50.386 50.386 0 0 0 8.277-1.742l.388 3.163c.004.037.003.073.008.11.004.037.014.071.019.108l.662 5.381zm-57.705-123.942a4.011 4.011 0 0 1 2.691-1.522l12.548-1.541a7.5 7.5 0 0 0 6.53-8.358l-.512-4.167a.317.317 0 0 1 .07-.255.32.32 0 0 1 .231-.13l28.77-3.533a16.662 16.662 0 0 1 2.025-.124c3.625 0 7.125 1.199 10.027 3.467a16.23 16.23 0 0 1 6.159 10.886l2.297 18.706-28.45 3.493a1.242 1.242 0 0 1-.793-.167l-16.313-9.755a10.692 10.692 0 0 0-9.379-.807 10.69 10.69 0 0 0-6.42 6.882l-2.278 7.423a1.244 1.244 0 0 1-1.039.87l-4.663.573-2.328-18.96a4.02 4.02 0 0 1 .827-2.981zm7.876 73.442a7.503 7.503 0 0 0-8.302-6.146l-9.682 1.19a2.417 2.417 0 0 1-2.689-2.098l-.57-4.657a2.403 2.403 0 0 1 .494-1.774c.23-.295.747-.807 1.605-.913l9.62-1.18a7.498 7.498 0 0 0 6.531-8.359l-1.555-12.677 4.663-.573a16.264 16.264 0 0 0 13.553-11.36l.688-2.243 11.665 6.975a16.313 16.313 0 0 0 10.316 2.18l28.453-3.493 1.557 12.678c.505 4.112 4.258 7.035 8.357 6.531l9.625-1.181a2.397 2.397 0 0 1 1.774.495 2.4 2.4 0 0 1 .913 1.605l.569 4.643a2.424 2.424 0 0 1-.496 1.787 2.356 2.356 0 0 1-1.603.904l-9.69 1.19a7.498 7.498 0 0 0-6.567 7.972 34.713 34.713 0 0 1-7.857 24.604 34.809 34.809 0 0 1-10.049 8.387l-.126.072a34.883 34.883 0 0 1-12.551 4.034 34.876 34.876 0 0 1-13.156-.885c-.084-.025-.17-.043-.256-.065-12.69-3.443-22.824-13.929-25.234-27.643zm18.559 56.364a23.223 23.223 0 0 0 8.492 13.63c4.16 3.248 9.178 4.965 14.375 4.965.962 0 1.932-.059 2.901-.178 11.725-1.44 20.566-11.424 20.566-23.224 0-.291-.016-.586-.027-.88 13.133-.923 25.114 7.748 28.237 20.661l7.446 30.812-104.163 12.786-.223-31.694c-.098-13.29 9.435-24.6 22.396-26.878zm225.3-246.176c-.023.003-.046.002-.07.005s-.046.009-.069.012l-16.843 2.068a9.803 9.803 0 0 1-7.273-2.019 9.793 9.793 0 0 1-3.715-6.567l-5.041-41.052 28.541 22.299 28.541 22.299-24.071 2.955z"/><path d="M393.179 397.617c-27.853 2.289-55.463 10.715-79.847 24.368-6.304 3.53-7.899 2.994-8.063 2.919-1.542-.699-4.269-4.864-6.675-8.54-5.521-8.433-16.793-12.831-28.054-10.945-9.82 1.646-17.904 7.252-23.851 11.953-1.59 1.257-3.193 2.56-4.815 3.877-9.998 8.121-20.336 16.518-32.003 17.534-7.173.621-14.036-2.454-16.68-7.487-.284-.54-.536-1.105-.793-1.668-1.057-2.322-2.504-5.503-5.51-7.942-7.229-5.867-16.757-2.513-19.89-1.411a167.783 167.783 0 0 0-33.171 15.967 7.499 7.499 0 0 0-2.384 10.335 7.499 7.499 0 0 0 10.335 2.384 152.701 152.701 0 0 1 30.2-14.536c3.832-1.35 5.201-1.132 5.484-1.057.335.394.901 1.637 1.281 2.473.337.74.719 1.578 1.166 2.431 5.027 9.57 16.067 15.594 28.114 15.593a36.23 36.23 0 0 0 3.148-.137c16.25-1.417 28.951-11.732 40.157-20.834a442.273 442.273 0 0 1 4.661-3.753c4.538-3.588 10.575-7.845 17.026-8.926 5.391-.907 10.75.892 13.025 4.367 7.358 11.242 14.309 21.863 34.615 10.493 22.521-12.61 48.022-20.393 73.747-22.507a7.499 7.499 0 0 0 6.86-8.089c-.333-4.13-3.957-7.207-8.083-6.862zM375.666 439.475a7.503 7.503 0 0 0 7.172 5.316c.724 0 1.46-.105 2.188-.328a155.764 155.764 0 0 1 33.588-6.305 7.499 7.499 0 0 0 6.913-8.044 7.49 7.49 0 0 0-8.044-6.913 170.728 170.728 0 0 0-36.828 6.914 7.5 7.5 0 0 0-4.989 9.36z"/></svg>