<svg height="512" viewBox="0 0 64 64" width="512" xmlns="http://www.w3.org/2000/svg"><g data-name="Filled outline"><path d="M3 29h58v32H3z" fill="#e2e2d5"/><path d="M61 29H3L32 3z" fill="#918f7d"/><path d="M53 61H11V15l8-8h34z" fill="#cfdfe8"/><path d="M19 15h-8l8-8z" fill="#aabece"/><path d="M26 21v4l2 1v3h8v-3l2-1v-4a6 6 0 0 0-6-6 6 6 0 0 0-6 6z" fill="#f4f4e6"/><g fill="#5a6470"><path d="M31 25h2v4h-2zM29 21h2v2h-2zM33 21h2v2h-2z"/></g><path d="m16.289 22.707 1.414-1.414 4 4-1.415 1.413z" fill="#b22f3b"/><path d="m16.289 25.291 4-4 1.413 1.415-4 4z" fill="#b22f3b"/><path d="M50 21h-2v-9h-3v-2h4a1 1 0 0 1 1 1zM48 23h2v2h-2z" fill="#f4f4e6"/><path d="m3 61 29-20 29 20z" fill="#c6c6b9"/><path d="m3 29 26.056 14.03L3 61zM61 29 34.944 43.03 61 61z" fill="#b2b1a4"/><path d="m40.286 31.709 1.414-1.414 4 4-1.415 1.413z" fill="#b22f3b"/><path d="m40.286 34.293 4-4 1.413 1.415-4 4z" fill="#b22f3b"/><path d="m30.285 53.29 4-4 1.413 1.415-4 4z" fill="#918f7d"/><path d="M61.933 28.67a.793.793 0 0 0-.042-.105 1.01 1.01 0 0 0-.144-.213c-.021-.024-.071-.09-.08-.1L54 21.383V7a1 1 0 0 0-1-1H36.842l-4.175-3.744a1 1 0 0 0-1.334 0L27.158 6H19a2.114 2.114 0 0 0-.325.065.814.814 0 0 0-.087.031 1 1 0 0 0-.3.2l-8 8a.984.984 0 0 0-.2.293c-.014.031-.022.062-.033.094-.029.084-.064 6.7-.064 6.7l-7.658 6.872c-.009.007-.059.073-.08.1a1.01 1.01 0 0 0-.144.213.793.793 0 0 0-.042.105A2.1 2.1 0 0 0 2 29v32a1 1 0 0 0 1 1h58a1 1 0 0 0 1-1V29a2.1 2.1 0 0 0-.067-.33zM10 31.633 6.967 30H10zm-6-.958 23.142 12.461L4 59.1zm28 11.54L57.788 60H6.212zm4.858.921L60 30.675V59.1zM54 30h3.033L54 31.633zm4.386-2H54v-3.93zM52 32.71l-16.992 9.15-2.44-1.683a1 1 0 0 0-1.136 0l-2.44 1.683L12 32.71V16h7a1 1 0 0 0 1-1V8h32zM32 4.344 33.847 6h-3.694zm-14 5.07V14h-4.586zM10 24.07V28H5.614z"/><path d="m25.553 25.9 1.447.718V29a1 1 0 0 0 1 1h8a1 1 0 0 0 1-1v-2.382l1.447-.723A1 1 0 0 0 39 25v-4a7 7 0 0 0-14 0v4a1 1 0 0 0 .553.9zM27 21a5 5 0 0 1 10 0v3.382l-1.447.723A1 1 0 0 0 35 26v2h-2v-3h-2v3h-2v-2a1 1 0 0 0-.553-.895L27 24.382z"/><path d="M29 21h2v2h-2zM33 21h2v2h-2zM41.707 35.707 43 34.414l1.293 1.293 1.414-1.414L44.414 33l1.293-1.293-1.414-1.414L43 31.586l-1.293-1.293-1.414 1.414L41.586 33l-1.293 1.293zM20.293 21.293 19 22.586l-1.293-1.293-1.414 1.414L17.586 24l-1.293 1.293 1.414 1.414L19 25.414l1.293 1.293 1.414-1.414L20.414 24l1.293-1.293zM48 21h2V11a1 1 0 0 0-1-1h-4v2h3zM48 23h2v2h-2zM24.285 53.29l3-3 1.414 1.414-3 3zM30.285 53.29l4-4 1.413 1.415-4 4z"/></g></svg>