<svg xmlns="http://www.w3.org/2000/svg" viewBox="0 0 512.003 512.003" style="enable-background:new 0 0 512.003 512.003" xml:space="preserve"><path style="fill:#319fbc" d="M503.322 231.338c-35.334 0-35.334-32.399-70.667-32.399s-35.334 32.399-70.667 32.399-35.333-32.399-70.664-32.399-35.331 32.399-70.662 32.399c-35.329 0-35.329-32.399-70.658-32.399-35.33 0-35.33 32.399-70.662 32.399S44.01 198.939 8.68 198.939v81.728c35.331 0 35.331 32.399 70.662 32.399s35.33-32.399 70.662-32.399c35.329 0 35.329 32.399 70.658 32.399 35.331 0 35.331-32.399 70.662-32.399 35.333 0 35.333 32.399 70.664 32.399 35.334 0 35.334-32.399 70.667-32.399s35.334 32.399 70.667 32.399"/><path style="fill:#2690a8" d="M503.322 149.609c-35.334 0-35.334-32.399-70.667-32.399s-35.334 32.399-70.667 32.399-35.333-32.399-70.664-32.399-35.331 32.399-70.662 32.399c-35.329 0-35.329-32.399-70.658-32.399-35.33 0-35.33 32.399-70.662 32.399S44.01 117.21 8.68 117.21v81.728c35.331 0 35.331 32.399 70.662 32.399s35.33-32.399 70.662-32.399c35.329 0 35.329 32.399 70.658 32.399 35.331 0 35.331-32.399 70.662-32.399 35.333 0 35.333 32.399 70.664 32.399 35.334 0 35.334-32.399 70.667-32.399s35.334 32.399 70.667 32.399"/><path style="fill:#40b3db" d="M503.322 313.065c-35.334 0-35.334-32.399-70.667-32.399s-35.334 32.399-70.667 32.399-35.333-32.399-70.664-32.399-35.331 32.399-70.662 32.399c-35.329 0-35.329-32.399-70.658-32.399-35.33 0-35.33 32.399-70.662 32.399S44.01 280.666 8.68 280.666v81.728c35.331 0 35.331 32.399 70.662 32.399s35.33-32.399 70.662-32.399c35.329 0 35.329 32.399 70.658 32.399 35.331 0 35.331-32.399 70.662-32.399 35.333 0 35.333 32.399 70.664 32.399 35.334 0 35.334-32.399 70.667-32.399s35.334 32.399 70.667 32.399"/><path d="M8.68 125.889c14.289 0 20.987 6.142 29.465 13.917 9.447 8.663 20.155 18.483 41.198 18.483 21.042 0 31.749-9.819 41.197-18.481 8.478-7.776 15.176-13.918 29.465-13.918 14.288 0 20.985 6.142 29.464 13.917 9.447 8.663 20.154 18.483 41.196 18.483s31.749-9.818 41.197-18.481c8.479-7.776 15.177-13.918 29.466-13.918 14.289 0 20.987 6.142 29.466 13.917 9.448 8.663 20.156 18.483 41.198 18.483s31.75-9.818 41.198-18.481c8.481-7.776 15.178-13.918 29.469-13.918 14.29 0 20.989 6.142 29.469 13.918 9.447 8.663 20.155 18.481 41.198 18.481a8.678 8.678 0 0 0 8.678-8.678 8.677 8.677 0 0 0-8.678-8.678c-14.29 0-20.989-6.142-29.469-13.918-9.447-8.663-20.155-18.481-41.198-18.481s-31.751 9.819-41.199 18.481c-8.479 7.776-15.177 13.918-29.467 13.918s-20.988-6.142-29.467-13.918c-9.448-8.663-20.155-18.481-41.198-18.481s-31.75 9.819-41.198 18.483c-8.478 7.776-15.176 13.917-29.465 13.917-14.288 0-20.985-6.142-29.464-13.917-9.447-8.663-20.154-18.483-41.196-18.483s-31.749 9.819-41.197 18.481c-8.478 7.776-15.176 13.918-29.465 13.918s-20.987-6.142-29.466-13.918c-9.448-8.662-20.155-18.481-41.197-18.481a8.678 8.678 0 1 0 0 17.353zM503.323 222.659c-14.29 0-20.989-6.142-29.469-13.918-9.447-8.663-20.155-18.481-41.198-18.481s-31.751 9.819-41.199 18.481c-8.479 7.776-15.177 13.918-29.467 13.918s-20.988-6.142-29.468-13.918c-9.447-8.663-20.154-18.481-41.197-18.481s-31.75 9.819-41.198 18.483c-8.478 7.776-15.176 13.917-29.465 13.917-14.288 0-20.984-6.142-29.464-13.917-1.083-.993-2.165-1.986-3.263-2.965a8.679 8.679 0 0 0-11.549 12.957c1.037.925 2.059 1.862 3.081 2.799 9.447 8.662 20.154 18.481 41.195 18.481 21.042 0 31.749-9.818 41.197-18.481 8.479-7.776 15.177-13.918 29.466-13.918s20.987 6.142 29.466 13.917c9.448 8.663 20.156 18.483 41.198 18.483s31.75-9.818 41.198-18.481c8.481-7.776 15.178-13.918 29.469-13.918 14.29 0 20.989 6.142 29.469 13.918 9.447 8.663 20.155 18.481 41.198 18.481a8.678 8.678 0 0 0 8.678-8.678 8.678 8.678 0 0 0-8.678-8.679zM8.68 207.617c14.289 0 20.987 6.142 29.465 13.917 9.447 8.663 20.155 18.483 41.198 18.483 21.042 0 31.749-9.819 41.197-18.481 8.478-7.776 15.176-13.918 29.465-13.918 3.118 0 5.927.289 8.587.883a8.679 8.679 0 0 0 3.785-16.939c-3.864-.863-8.027-1.302-12.372-1.302-21.042 0-31.749 9.819-41.197 18.481-8.478 7.776-15.176 13.918-29.465 13.918s-20.987-6.142-29.466-13.918C40.43 200.078 29.722 190.26 8.68 190.26c-4.794 0-8.678 3.886-8.678 8.678s3.884 8.679 8.678 8.679zM503.323 386.115c-14.29 0-20.989-6.142-29.469-13.918-9.447-8.663-20.155-18.481-41.198-18.481s-31.751 9.819-41.199 18.481c-8.479 7.776-15.177 13.918-29.467 13.918s-20.988-6.142-29.468-13.918c-9.447-8.663-20.154-18.481-41.197-18.481s-31.75 9.819-41.198 18.483c-8.478 7.776-15.176 13.917-29.465 13.917-14.288 0-20.985-6.142-29.464-13.917-9.447-8.663-20.153-18.483-41.196-18.483s-31.749 9.819-41.197 18.481c-8.478 7.776-15.176 13.918-29.465 13.918-4.794 0-8.678 3.886-8.678 8.678s3.884 8.678 8.678 8.678c21.042 0 31.749-9.819 41.197-18.481 8.478-7.776 15.176-13.918 29.465-13.918 14.288 0 20.985 6.142 29.464 13.917 9.447 8.663 20.153 18.483 41.196 18.483s31.749-9.818 41.197-18.481c8.479-7.776 15.177-13.918 29.466-13.918s20.987 6.142 29.466 13.918c9.448 8.662 20.156 18.481 41.198 18.481s31.75-9.818 41.198-18.481c8.481-7.776 15.178-13.918 29.469-13.918 14.29 0 20.989 6.142 29.469 13.918 9.447 8.663 20.155 18.481 41.198 18.481a8.68 8.68 0 0 0 0-17.357zM59.028 379.917c-3.162-2.227-6.071-4.895-9.152-7.719-9.447-8.663-20.155-18.483-41.197-18.483a8.678 8.678 0 0 0-8.678 8.678 8.677 8.677 0 0 0 8.678 8.678c14.289 0 20.987 6.142 29.466 13.918 3.35 3.071 6.812 6.246 10.888 9.117a8.635 8.635 0 0 0 4.989 1.584 8.677 8.677 0 0 0 5.006-15.773zM503.323 304.387c-14.29 0-20.989-6.142-29.469-13.918-9.447-8.663-20.155-18.481-41.198-18.481-21.042 0-31.749 9.818-41.198 18.48a8.678 8.678 0 0 0-.531 12.262c3.238 3.533 8.727 3.77 12.262.531 8.479-7.775 15.178-13.917 29.467-13.917 14.29 0 20.989 6.142 29.469 13.918 9.447 8.663 20.155 18.481 41.198 18.481a8.678 8.678 0 0 0 8.678-8.678 8.678 8.678 0 0 0-8.678-8.678zM8.68 289.344c14.289 0 20.987 6.142 29.465 13.917 9.447 8.663 20.155 18.483 41.198 18.483 21.042 0 31.749-9.819 41.197-18.481 8.478-7.776 15.176-13.918 29.465-13.918 14.288 0 20.985 6.142 29.464 13.918 9.447 8.662 20.154 18.481 41.196 18.481s31.749-9.818 41.197-18.481c8.479-7.776 15.177-13.918 29.466-13.918 14.289 0 20.987 6.142 29.466 13.918 9.448 8.662 20.156 18.481 41.198 18.481 4.913 0 9.587-.56 13.89-1.664a8.678 8.678 0 0 0 6.247-10.563 8.676 8.676 0 0 0-10.564-6.248c-2.934.753-6.066 1.12-9.573 1.12-14.29 0-20.988-6.142-29.468-13.918-9.447-8.663-20.154-18.481-41.197-18.481s-31.75 9.819-41.198 18.483c-8.478 7.776-15.176 13.917-29.465 13.917-14.288 0-20.985-6.142-29.464-13.918-9.447-8.662-20.153-18.481-41.196-18.481s-31.749 9.819-41.197 18.481c-8.478 7.776-15.176 13.918-29.465 13.918s-20.987-6.142-29.466-13.918c-9.447-8.663-20.155-18.481-41.197-18.481a8.678 8.678 0 1 0 .001 17.353z"/></svg>