<svg xmlns="http://www.w3.org/2000/svg" viewBox="0 0 511.999 511.999" style="enable-background:new 0 0 511.999 511.999" xml:space="preserve"><path style="fill:#ed694a" d="M370.043 166.492c-10.356-11.307-26.457-26.568-33.306 7.892-2.329 11.715-7.772 20.747-12.435 28.02-5.028-25.442-20.15-51.775-34.4-69.53-5.332-6.643-24.253-33.05-27.889-77.229-.543-6.594-8.375-9.69-13.272-5.242-46.814 42.496-72.509 100.944-73.463 166.744 0 0-19.494-16.431-30.083-46.999-2.852-8.232-13.887-9.802-18.675-2.523a72.772 72.772 0 0 0-2.54 4.157c-36.118 63.864-53.493 141.42-37.431 213.574 26.856 120.837 204.508 154.619 298.559 78.67 92.016-74.305 62.766-212.605-15.065-297.534z"/><path style="fill:#d8553a" d="M111.547 392.941c-15.875-72.926.929-151.237 36.199-216.102a120.273 120.273 0 0 1-2.552-6.692c-2.852-8.232-13.887-9.802-18.675-2.523a72.772 72.772 0 0 0-2.54 4.157C87.861 235.646 70.487 313.2 86.548 385.356c12.249 55.117 55.876 92.11 108.629 108.852-41.152-19.936-73.38-54.109-83.63-101.267zM200.4 215.936c1.95-59.718 23.55-113.266 62.209-154.402a180.37 180.37 0 0 1-.591-5.828c-.554-6.651-8.1-9.985-12.977-5.576-45.216 40.88-72.775 98.736-73.764 167.016l8.463 6.572c4.168 3.237 9.815 3.096 13.795.131 2.376-2.014 2.716-5.052 2.865-7.913z"/><path style="fill:#f4a32c" d="M341.648 254.825c-7.65-8.351-19.541-19.624-24.601 5.829-1.72 8.654-5.741 15.324-9.185 20.696-3.713-18.792-14.883-38.242-25.409-51.357-3.938-4.907-17.914-24.411-20.599-57.042-.401-4.87-6.186-7.157-9.804-3.872-34.577 31.389-53.557 74.56-54.262 123.16 0 0-14.398-12.136-22.22-34.714-2.106-6.08-10.258-7.24-13.793-1.864a53.856 53.856 0 0 0-1.876 3.07c-26.678 47.172-39.511 104.456-27.648 157.752 19.836 89.252 151.054 114.206 220.522 58.108 67.966-54.883 46.362-157.035-11.125-219.766z"/><path style="fill:#e89528" d="M156.993 423.482c-10.505-52.098.375-107.999 23.442-154.549a89.488 89.488 0 0 1-4.866-11.409c-2.106-6.081-10.258-7.24-13.793-1.864a53.526 53.526 0 0 0-1.876 3.071c-26.678 47.172-39.511 104.456-27.648 157.751 9.226 41.51 42.547 69.102 82.54 81.11-28.415-14.249-50.787-39.284-57.799-74.11z"/><path style="fill:#f4d44e" d="M315.725 335.468c-5.178-5.653-13.228-13.284-16.653 3.946-1.165 5.858-3.886 10.374-6.218 14.009-2.514-12.72-10.076-25.888-17.2-34.764-2.666-3.322-12.126-16.524-13.944-38.614-.271-3.297-4.187-4.845-6.636-2.621-23.407 21.248-36.254 50.473-36.731 83.371 0 0-9.747-8.216-15.041-23.5-1.426-4.116-6.944-4.901-9.338-1.262-.46.699-.885 1.399-1.27 2.078-18.059 31.933-26.747 70.71-18.716 106.787 13.428 60.418 102.254 77.31 149.279 39.335 16.103-13.004 26.087-31.329 28.112-51.597 3.054-30.698-8.761-67.832-35.644-97.168z"/><path style="fill:#eae9e8" d="M291.668 410.303c-2.885-3.15-7.37-7.401-9.278 2.198-.649 3.264-2.165 5.78-3.464 7.806-1.4-7.088-5.613-14.422-9.583-19.368-1.485-1.851-6.756-9.207-7.769-21.513-.151-1.837-2.333-2.699-3.697-1.46-13.04 11.837-20.198 28.12-20.464 46.449 0 0-5.431-4.577-8.38-13.092-.794-2.293-3.869-2.73-5.202-.703-.256.389-.493.779-.708 1.158-10.062 17.79-14.901 39.395-10.428 59.494 10.189 45.843 93.707 44.453 98.83-6.832 1.704-17.105-4.879-37.793-19.857-54.137z"/><path style="fill:#f7e7a1" d="M232.089 480.369c-4.475-17.98.366-37.306 10.428-53.221.214-.339.451-.688.708-1.036 1.333-1.814 4.408-1.423 5.202.628 2.95 7.618 8.38 11.711 8.38 11.711.219-13.471 5.099-25.702 14.062-35.511-2.004-2.775-8.137-9.47-9.293-23.517-.151-1.837-2.333-2.699-3.698-1.46-13.04 11.837-20.198 28.12-20.464 46.449 0 0-5.431-4.578-8.381-13.092-.794-2.293-3.869-2.73-5.202-.703-.256.389-.493.779-.708 1.158-10.062 17.79-14.901 39.394-10.428 59.494 4.141 18.631 21.151 29.828 39.957 32.53-10.142-4.978-17.939-12.867-20.563-23.43z"/><path style="fill:#d8553a" d="M186.697 73.544c20.99-17.072 20.943-49.011 0-66.044-20.988 17.07-20.942 49.011 0 66.044zM438.271 210.561c20.99-17.072 20.943-49.011 0-66.044-9.592 7.802-20.943 49.011 0 66.044zM66.524 223.56c15.127-12.303 15.093-35.322 0-47.599-6.913 5.623-15.093 35.324 0 47.599zM328.512 121.142c15.127-12.303 15.093-35.322 0-47.599-15.126 12.304-15.093 35.324 0 47.599z"/><path style="fill:#e89528" d="M217.089 284.435c3.474-41.009 19.133-77.474 45.43-105.273-.265-2.015-.49-4.083-.665-6.21-.401-4.87-6.186-7.157-9.804-3.872-27.4 24.873-44.985 57.15-51.463 93.66l-.01-.003a201.783 201.783 0 0 0-1.453 9.752l.003.007a185.679 185.679 0 0 0-1.34 19.745c.735.142 17.299 8.659 19.302-7.806z"/><path style="fill:#e8c842" d="M198.181 453.471c-7.14-33.704-1.059-69.645 13.065-100.786a60.989 60.989 0 0 1-7.947-15.388c-1.426-4.116-6.944-4.901-9.338-1.262a36.57 36.57 0 0 0-1.27 2.079c-18.06 31.933-26.747 70.71-18.716 106.787 6.289 28.295 29.115 47.042 56.437 55.081-15.903-10.56-27.933-26.188-32.231-46.511zM244.111 346.067c2.367-16.912 9.284-35.547 20.172-51.126a83.473 83.473 0 0 1-2.574-14.896c-.271-3.297-4.188-4.845-6.637-2.621-14.584 13.239-25.053 29.582-31 47.974l-.016-.003c-.936 2.889-2.258 7.677-3.061 11.456l.021-.004a123.402 123.402 0 0 0-2.676 23.95c13.1 1.632 23.933-1.611 25.771-14.73z"/><path d="M192.835 1.681a7.5 7.5 0 0 0-9.465 0c-24.681 20.076-24.63 57.646 0 77.682a7.5 7.5 0 0 0 9.465 0c11.752-9.56 18.492-23.716 18.492-38.841.001-15.126-6.739-29.282-18.492-38.841zm-4.732 61.399c-10.887-12.907-11.046-32.019 0-45.116 10.889 12.91 11.043 32.022 0 45.116zM444.409 138.698a7.5 7.5 0 0 0-9.465 0c-24.632 20.035-24.681 57.606 0 77.682a7.5 7.5 0 0 0 9.465 0c24.728-20.113 24.585-57.685 0-77.682zm-4.732 61.399c-10.888-12.909-11.047-32.019 0-45.116 10.888 12.909 11.047 32.018 0 45.116zM72.663 170.144a7.5 7.5 0 0 0-9.465 0c-18.82 15.306-18.781 43.961 0 59.234a7.5 7.5 0 0 0 9.465 0c18.82-15.305 18.781-43.96 0-59.234zm-4.732 42.386c-5.04-7.609-5.182-17.715 0-25.538 5.04 7.609 5.181 17.715 0 25.538zM334.651 126.961c18.82-15.305 18.782-43.96 0-59.234a7.5 7.5 0 0 0-9.465 0c-18.82 15.308-18.78 43.959 0 59.234a7.5 7.5 0 0 0 9.465 0zm-4.733-42.387c5.084 7.672 5.142 17.778 0 25.538-5.06-7.64-5.161-17.747 0-25.538z"/><path d="M297.157 128.178c-5.291-6.592-22.822-31.348-26.264-73.148-1.052-12.783-16.289-18.808-25.787-10.18-20.209 18.336-37.451 40.479-50.24 65.577a7.5 7.5 0 0 0 3.278 10.088 7.505 7.505 0 0 0 10.087-3.277c11.74-23.041 27.708-43.813 46.958-61.282.296-.272.722-.105.756.305 3.79 46.048 23.55 73.876 29.515 81.307 13.833 17.235 28.214 42.613 32.894 66.29 1.305 6.611 10.034 8.27 13.67 2.594 5.186-8.087 10.93-17.788 13.478-30.606 2.739-13.781 6.302-15.142 6.337-15.151 6.221-1.717 50.983 46.701 71.597 107.265a7.5 7.5 0 0 0 14.2-4.834C425.055 226.167 404.081 191 376.983 161.43c-5.948-6.493-17.018-18.584-29.183-15.18-8.343 2.333-13.905 11.059-17.01 26.674a54.934 54.934 0 0 1-2.836 9.564c-5.546-15.606-14.293-31.663-26.461-48.629a131.598 131.598 0 0 0-4.336-5.681z"/><path d="M438.124 292.01a7.5 7.5 0 0 0-5.95 8.78c12.329 64.199-3.235 121.74-54.075 160.275 48.683-61.48 23.011-153.986-29.516-211.307-4.346-4.742-13.39-14.617-23.528-11.773-10.343 2.892-12.625 15.857-14.299 22.75-15.333-37.16-36.134-41.174-40.021-88.399-.911-11.063-14.099-16.271-22.318-8.81-30.996 28.129-50.622 65.701-55.528 109.522a82.385 82.385 0 0 1-8.828-17.978c-4.164-12.02-20.231-14.045-27.147-3.528a61.634 61.634 0 0 0-2.138 3.498c-29.523 52.203-39.889 111.641-28.441 163.071 3.495 15.726 10.436 30.145 20.314 42.725-26.629-19.684-44.429-45.851-51.377-77.11-14.563-65.426-1.209-141.331 36.639-208.252a64.725 64.725 0 0 1 2.278-3.729c1.382-2.102 4.512-1.483 5.323.856 11.137 32.148 31.477 49.554 32.337 50.278 4.826 4.072 12.24.69 12.332-5.626.34-23.44 3.945-46.145 10.717-67.486a7.5 7.5 0 0 0-4.881-9.417 7.498 7.498 0 0 0-9.417 4.88c-5.419 17.081-8.936 34.962-10.503 53.361-5.494-7.352-11.855-17.748-16.412-30.9-4.897-14.135-23.839-16.634-32.028-4.189a80.95 80.95 0 0 0-2.801 4.586C79.203 238.198 65.27 317.982 80.63 386.981c11.444 51.494 50.729 92.469 107.781 112.419 127.395 44.545 291.32-30.54 258.49-201.44-.778-4.068-4.716-6.73-8.777-5.95zM292.559 487.352c-21.982 17.747-64.929 10.217-71.136-17.71-3.279-14.728-1.049-31.584 6.095-47.231 2.991 4.715 5.991 7.336 6.469 7.738 4.822 4.066 12.24.699 12.332-5.626.185-12.723 4.037-24.205 11.214-33.609 4.352 14.61 12.996 18.468 15.442 30.849 1.305 6.611 10.032 8.269 13.67 2.595 1.192-1.859 2.376-3.877 3.293-6.235 16.417 19.866 24.119 51.868 2.621 69.229zm54.457-16.693c27.968-42.47 10.323-102.416-24.355-140.257-3.268-3.568-10.066-10.996-18.367-8.668-5.403 1.512-8.193 6.354-9.678 10.534-3.291-6.478-7.928-13.59-11.708-18.305-1.763-2.196-10.645-14.185-12.318-34.533-.78-9.49-12.098-13.961-19.15-7.561-19.658 17.838-32.767 41.259-37.366 68.511a52.666 52.666 0 0 1-2.28-5.539c-3.466-10.007-16.888-11.746-22.687-2.933-5.662 8.601-14.488 27.569-19.319 46.702a7.498 7.498 0 0 0 5.435 9.107 7.496 7.496 0 0 0 9.108-5.436c3.316-13.132 8.355-25.945 14.992-38.126 6.08 14.24 15.172 22.019 15.593 22.373 4.819 4.065 12.24.701 12.332-5.626.413-28.459 10.524-53.678 29.267-73.055 3.197 19.827 11.873 31.985 14.697 35.503 6.557 8.162 13.482 20.343 15.692 31.525 1.303 6.601 10.026 8.281 13.669 2.595 7.212-11.24 6.683-15.578 8.098-19.89.722.644 1.678 1.583 2.933 2.953 38.031 41.501 50.776 108.517 4.286 140.903 11.439-24.157 1.513-55.691-17.283-76.201-2.091-2.283-6.985-7.63-13.575-5.785a9.823 9.823 0 0 0-4.379 2.566c-4.135-6.579-9.136-10.34-10.195-23.211-.662-8.032-10.248-11.813-16.213-6.396-9.374 8.519-16.298 19.273-19.959 31.779-4.599-3.778-11.785-3.054-15.311 2.306-12.654 19.228-19.026 53.417-9.336 75-23.35-15.861-30.112-38.12-29.737-66.236a7.5 7.5 0 0 0-7.399-7.599c-4.114-.057-7.544 3.257-7.6 7.398-.257 19.32 2.705 39.188 13.205 55.508-19.178-14.307-32.2-33.538-37.128-55.714-10.653-47.857-.865-103.416 26.855-152.43a53.957 53.957 0 0 1 1.639-2.695c.001 0 .035-.009.083-.009.098 0 .256.037.333.26 8.4 24.249 23.82 37.444 24.473 37.994 4.833 4.072 12.241.689 12.332-5.626.636-43.876 16.467-84.057 49.404-115.48 3.482 32.592 17.562 52.399 21.915 57.822 10.02 12.474 20.511 30.969 23.899 48.113 1.302 6.598 10.025 8.28 13.67 2.594 12.839-20.024 9.104-27.187 13.559-32.793 1.055.395 3.443 1.895 8.383 7.286l.001.001c55.982 61.095 76.134 160.092 9.49 210.771z"/></svg>