<svg xmlns="http://www.w3.org/2000/svg" viewBox="0 0 512 512" style="enable-background:new 0 0 512 512" xml:space="preserve"><path style="fill:#129b12" d="M478.747 240.972c0-34.779-21.15-64.618-51.289-77.357a74.525 74.525 0 0 0 8.347-34.342c0-41.349-33.52-74.87-74.87-74.87-11.781 0-22.921 2.729-32.837 7.577-8.811-31.544-37.741-54.693-72.097-54.693s-63.286 23.149-72.097 54.694c-9.915-4.848-21.056-7.577-32.837-7.577-41.349 0-74.87 33.52-74.87 74.87a74.525 74.525 0 0 0 8.347 34.342c-30.139 12.739-51.289 42.578-51.289 77.357 0 45.073 35.535 81.799 80.112 83.81 6.215 22.511 30.215 39.292 58.896 39.292 16.256 0 31.001-5.399 41.869-14.166 10.867 8.767 25.613 14.166 41.869 14.166s31.001-5.399 41.869-14.166c10.867 8.767 25.613 14.166 41.869 14.166 28.682 0 52.682-16.782 58.896-39.292 44.577-2.012 80.112-38.738 80.112-83.811z"/><path style="fill:#097c09" d="M251.511 7.435a73.26 73.26 0 0 0-2.752.211c-.279.027-.557.058-.836.088-.98.106-1.955.228-2.924.372-.181.027-.363.053-.544.081-1.153.18-2.298.38-3.433.611l-.006.001c19.654 3.997 38.056 17.686 49.714 34.941 8.256 12.219 22.362 19.262 37.074 18.262l.294-.02c-8.81-31.546-37.74-54.695-72.096-54.695-1.204 0-2.4.035-3.591.092-.301.014-.6.038-.9.056zM427.457 163.615a74.512 74.512 0 0 0 8.347-34.342c0-41.349-33.52-74.87-74.87-74.87-5.131 0-10.141.519-14.981 1.504 34.165 6.944 59.879 37.151 59.879 73.366a74.525 74.525 0 0 1-8.347 34.342c30.139 12.739 51.289 42.578 51.289 77.357 0 45.073-35.535 81.799-80.111 83.809-5.094 18.45-22.139 33.044-43.913 37.712a71.386 71.386 0 0 0 14.988 1.581c28.681 0 52.682-16.782 58.896-39.292 44.577-2.01 80.111-38.736 80.111-83.809.002-34.78-21.147-64.618-51.288-77.358z"/><path style="fill:#009000" d="M202.392 337.507c-6.752 11.452-34.735 24.258-45.112 24.986 1.142.245 2.299.459 3.465.649l.281.047c1.183.188 2.377.349 3.583.478l.093.009a72.008 72.008 0 0 0 4.092.307c1.149.055 2.304.092 3.47.092 14.826 0 28.385-4.501 38.902-11.942l1.844-1.341-9.391-15.408-1.227 2.123z"/><path style="fill:#bf6101" d="m293.438 356.625 32.077-50.616a9.592 9.592 0 0 0-14.926-11.875l-23.623 23.916c-3.133 3.172-8.501.534-7.904-3.884l6.947-51.468c.742-5.499-3.323-10.479-8.859-10.853l-6.508-.44a9.592 9.592 0 0 0-10.093 7.907l-12.399 70.449c-.69 3.918-5.665 5.211-8.175 2.124l-38.834-47.759a9.59 9.59 0 0 0-11.158-2.791l-6.799 2.858c-5.383 2.263-7.513 8.77-4.509 13.777l39.907 66.518c5.779 9.633 8.162 20.934 6.717 32.074-5.172 39.888-11.596 77.507-37.887 108.151h137.185c-28.144-32.805-35.086-73.601-38.811-116.618a50.603 50.603 0 0 1 7.652-31.47z"/><path style="fill:#9a4d01" d="M325.513 306.009a9.592 9.592 0 0 0-14.926-11.875l-10.55 10.68-13.073 13.236c-3.133 3.172-8.5.534-7.904-3.884l6.947-51.468c.724-5.36-3.125-10.214-8.447-10.803l-19.533 121.408a50.832 50.832 0 0 0-.894 14.791c3.725 43.018 10.667 83.814 38.811 116.618h28.649c-28.144-32.805-35.086-73.601-38.811-116.618a50.624 50.624 0 0 1 7.654-31.47l32.077-50.615z"/><path style="fill:#28a528" d="M241.753 66.065c-21.005 0-39.087 12.467-47.284 30.399a51.721 51.721 0 0 0-29.953-9.511c-28.706 0-51.977 23.271-51.977 51.977a51.72 51.72 0 0 0 6.972 25.991c-24.926 3.832-44.014 25.371-44.014 51.37 0 28.706 23.271 51.977 51.977 51.977S293.73 146.748 293.73 118.042s-23.272-51.977-51.977-51.977z"/><path style="fill:#121419" d="M437.094 160.109c3.984-9.778 5.998-20.118 5.998-30.835 0-2.173-.086-4.369-.256-6.524a7.287 7.287 0 0 0-14.528 1.144c.139 1.777.211 3.587.211 5.38 0 10.904-2.534 21.332-7.532 30.994a7.284 7.284 0 0 0 3.635 10.059 76.555 76.555 0 0 1 46.84 70.645c0 41.064-32.133 74.68-73.154 76.53a7.285 7.285 0 0 0-6.695 5.34c-5.43 19.669-27.246 33.945-51.872 33.945-11.734 0-22.926-3.123-32.145-8.889l24.074-37.99a16.91 16.91 0 0 0 2.643-8.553c.149-4.9-1.859-9.768-5.821-13.215-6.703-5.832-16.843-5.447-23.086.873l-18.065 18.289 5.89-43.63a16.94 16.94 0 0 0-3.652-12.931 16.945 16.945 0 0 0-11.937-6.166l-6.508-.44a16.837 16.837 0 0 0-17.761 13.914l-5.698 32.375-5.698 32.374-35.182-43.267a16.683 16.683 0 0 0-4.056-3.591l-.027-.019c-.163-.102-.334-.19-.5-.287a17.09 17.09 0 0 0-7.062-2.252c-.079-.007-.16-.006-.239-.012a17.53 17.53 0 0 0-1.1-.054 16.71 16.71 0 0 0-6.65 1.303l-6.799 2.858a16.87 16.87 0 0 0-9.502 10.309 16.868 16.868 0 0 0 1.567 13.934l28.798 48c-8.59 4.588-18.647 7.068-28.958 7.068-24.627 0-46.442-14.276-51.872-33.944a7.286 7.286 0 0 0-6.695-5.34c-41.021-1.85-73.154-35.466-73.154-76.531a76.553 76.553 0 0 1 46.84-70.645 7.284 7.284 0 0 0 3.635-10.059c-4.998-9.662-7.532-20.09-7.532-30.994 0-37.265 30.318-67.583 67.583-67.583 10.387 0 20.359 2.3 29.637 6.836a7.285 7.285 0 0 0 10.218-4.585c8.118-29.067 34.88-49.368 65.079-49.368s56.961 20.301 65.079 49.368a7.288 7.288 0 0 0 10.218 4.585c9.278-4.536 19.25-6.836 29.637-6.836 24.911 0 47.73 13.639 59.551 35.596a7.286 7.286 0 1 0 12.831-6.909c-14.367-26.684-42.102-43.26-72.382-43.26-9.839 0-19.373 1.699-28.444 5.061C320.293 21.083 289.932 0 256.001 0s-64.292 21.083-76.49 52.179c-9.071-3.362-18.605-5.061-28.444-5.061-45.302 0-82.157 36.855-82.157 82.156 0 10.717 2.014 21.058 5.998 30.835-29.962 15.653-48.94 46.627-48.94 80.863 0 47.179 35.631 86.097 82.019 90.723 9.12 23.595 34.75 39.665 64.275 39.665 12.944 0 25.62-3.214 36.457-9.142l3.611 6.018c4.926 8.212 6.965 17.938 5.74 27.389-1.06 8.171-2.365 17.793-4.02 27.211a7.286 7.286 0 0 0 5.916 8.437 7.283 7.283 0 0 0 8.437-5.916c1.705-9.703 3.039-19.527 4.119-27.86 1.645-12.691-1.087-25.746-7.695-36.759l-39.907-66.517a2.276 2.276 0 0 1-.214-1.904 2.28 2.28 0 0 1 1.298-1.408l6.8-2.858a2.317 2.317 0 0 1 2.681.671l38.835 47.76c.103.126.212.244.319.365 1.443 1.64 3.238 2.819 5.211 3.466 2.096.688 4.386.778 6.651.205.025-.006.05-.01.076-.017h.002a11.906 11.906 0 0 0 5.604-3.259c.058-.061.121-.118.178-.179.052-.057.1-.118.151-.176a11.904 11.904 0 0 0 2.813-5.862l12.399-70.449a2.322 2.322 0 0 1 2.426-1.901l6.509.44a2.288 2.288 0 0 1 1.63.843c.236.289.615.903.498 1.766l-6.947 51.469a11.916 11.916 0 0 0 7.438 12.689 11.913 11.913 0 0 0 12.873-2.711l23.622-23.916a2.292 2.292 0 0 1 1.481-.673c.024-.002.047-.008.071-.009l.036.002a2.306 2.306 0 0 1 1.565.561 2.295 2.295 0 0 1 .434 2.973l-32.077 50.616c-6.737 10.632-9.848 23.417-8.758 35.999 3.052 35.249 8.341 74.994 31.324 108.703H202.105c8.224-12.196 14.614-26.071 19.392-42.043a7.286 7.286 0 0 0-4.893-9.069 7.285 7.285 0 0 0-9.069 4.893c-5.828 19.482-14.22 35.433-25.657 48.761a7.287 7.287 0 0 0 5.53 12.031h137.185a7.285 7.285 0 0 0 5.53-12.03c-28.059-32.706-33.853-75.221-37.082-112.503-.815-9.421 1.51-18.99 6.549-26.941l.204-.323c11.543 7.234 25.447 11.158 39.944 11.158 29.525 0 55.155-16.07 64.275-39.666 46.388-4.626 82.019-43.544 82.019-90.722.002-34.237-18.977-65.211-48.938-80.864z"/></svg>