<svg xmlns="http://www.w3.org/2000/svg" viewBox="0 0 511.878 511.878" style="enable-background:new 0 0 511.878 511.878" xml:space="preserve"><path style="fill:#009688" d="M272.945 417.012c1.536 24.038 5.547 60.493 16.128 85.333h-68.267c10.581-24.841 14.592-61.295 16.128-85.333h36.011z" transform="translate(1 1)"/><path style="fill:#2e7d32" d="M351.451 409.246c-16.384 26.709-42.923 26.795-64.853 23.125a48.785 48.785 0 0 0 30.72-23.125c15.872-25.941-3.499-76.971-21.333-113.323a370.334 370.334 0 0 0 42.411 17.92c14.762 33.707 26.453 73.473 13.055 95.403zM338.395 127.646a370.409 370.409 0 0 0-42.411 17.92c17.835-36.352 37.205-87.381 21.333-113.323a48.782 48.782 0 0 0-30.72-23.125c21.931-3.669 48.469-3.584 64.853 23.125 13.399 21.931 1.708 61.697-13.055 95.403zM460.592 220.745c0 17.579 25.771 70.144-17.152 96.512a63.2 63.2 0 0 1-43.52 4.011 37.06 37.06 0 0 0 9.387-4.011c42.923-26.368 17.152-78.933 17.152-96.512s25.771-70.144-17.152-96.512a37.096 37.096 0 0 0-9.387-4.011 63.2 63.2 0 0 1 43.52 4.011c42.923 26.368 17.152 78.933 17.152 96.512z" transform="translate(1 1)"/><path style="fill:#4caf50" d="M426.459 220.745c0 17.579 25.771 70.144-17.152 96.512a37.096 37.096 0 0 1-9.387 4.011 287.42 287.42 0 0 1-69.803-25.344 320.208 320.208 0 0 1 8.277 17.92 370.409 370.409 0 0 1-42.411-17.92c17.835 36.352 37.205 87.381 21.333 113.323a48.782 48.782 0 0 1-30.72 23.125 110.812 110.812 0 0 1-48.725-2.987 110.826 110.826 0 0 1-48.725 2.987 48.785 48.785 0 0 1-30.72-23.125c-15.872-25.941 3.499-76.971 21.333-113.323a370.334 370.334 0 0 1-42.411 17.92c-22.357 7.68-44.971 12.032-61.525 7.424a37.06 37.06 0 0 1-9.387-4.011c-42.923-26.368-17.152-78.933-17.152-96.512s-25.771-70.144 17.152-96.512a37.096 37.096 0 0 1 9.387-4.011c16.555-4.608 39.168-.256 61.525 7.424a370.409 370.409 0 0 1 42.411 17.92c-17.835-36.352-37.205-87.381-21.333-113.323a48.782 48.782 0 0 1 30.72-23.125 110.812 110.812 0 0 1 48.725 2.987 110.836 110.836 0 0 1 48.727-2.987 48.785 48.785 0 0 1 30.72 23.125c15.872 25.941-3.499 76.971-21.333 113.323a370.155 370.155 0 0 1 42.411-17.92 320.208 320.208 0 0 1-8.277 17.92 287.42 287.42 0 0 1 69.803-25.344 37.06 37.06 0 0 1 9.387 4.011c42.921 26.368 17.15 78.933 17.15 96.512z" transform="translate(1 1)"/><path d="M62.966 117.954c-38.613 23.723-28.962 66.5-23.774 89.489a87.39 87.39 0 0 1 2.56 14.302 87.39 87.39 0 0 1-2.56 14.302c-5.188 22.989-14.839 65.766 23.791 89.498a55.206 55.206 0 0 0 29.269 7.151 190.879 190.879 0 0 0 71.142-18.449c-19.891 46.404-23.689 80.145-11.247 100.471a59.101 59.101 0 0 0 53.965 28.774 125.03 125.03 0 0 0 22.289-2.27 180.943 180.943 0 0 1-14.234 58.308 8.533 8.533 0 0 0 7.637 12.348h68.267a8.534 8.534 0 0 0 7.68-12.347 181.01 181.01 0 0 1-14.225-58.274c23.74 4.267 56.55 5.521 76.245-26.547 12.442-20.318 8.644-54.059-11.247-100.463a190.79 190.79 0 0 0 71.091 18.432 55.297 55.297 0 0 0 29.295-7.151c38.613-23.723 28.962-66.5 23.774-89.489a87.497 87.497 0 0 1-2.56-14.293 87.39 87.39 0 0 1 2.56-14.302c5.188-22.989 14.839-65.766-23.791-89.498-20.292-12.425-54.016-8.636-100.378 11.213 19.857-46.353 23.646-80.077 11.213-100.386C336.016-9.841 293.23-.19 270.25 4.998a87.717 87.717 0 0 1-14.31 2.56 87.698 87.698 0 0 1-14.31-2.56C218.65-.19 175.855-9.824 152.149 28.78c-12.433 20.309-8.644 54.025 11.213 100.386-46.371-19.856-80.095-23.637-100.396-11.212zm171.64 376.858a245.53 245.53 0 0 0 11.281-57.267 57.436 57.436 0 0 1 10.052-1.613c3.383.238 6.738.774 10.027 1.604a245.472 245.472 0 0 0 11.307 57.276h-42.667zM166.698 37.706c16-26.061 42.803-22.468 71.185-16.068a89.944 89.944 0 0 0 18.057 2.987 89.94 89.94 0 0 0 18.057-2.978c28.39-6.409 55.185-9.993 71.185 16.051 10.684 17.459 2.97 54.793-21.717 105.114-11.255 22.921-21.999 40.107-22.101 40.277a8.533 8.533 0 0 0 2.697 11.759 8.448 8.448 0 0 0 4.523 1.306 8.53 8.53 0 0 0 7.236-3.994c.435-.7 10.462-16.777 21.589-39.1 48.998-23.689 85.41-31.053 102.571-20.548 26.052 16 22.468 42.803 16.068 71.185a89.856 89.856 0 0 0-2.987 18.048 89.94 89.94 0 0 0 2.978 18.057c6.4 28.382 9.984 55.185-16.051 71.185-17.476 10.675-54.793 2.961-105.114-21.717-22.929-11.255-40.107-21.99-40.277-22.101a8.551 8.551 0 0 0-13.078 6.956 8.554 8.554 0 0 0 4.016 7.551c.691.435 16.777 10.462 39.1 21.589 23.671 48.998 31.036 85.419 20.54 102.562-15.991 26.061-42.803 22.468-71.185 16.068a89.889 89.889 0 0 0-18.048-3.029 89.94 89.94 0 0 0-18.057 2.978c-28.399 6.391-55.194 9.975-71.185-16.051-10.684-17.459-2.97-54.793 21.717-105.114 11.255-22.921 21.999-40.107 22.101-40.277a8.534 8.534 0 0 0-14.455-9.071c-.435.7-10.462 16.777-21.589 39.1-48.998 23.68-85.427 31.036-102.571 20.548-26.052-15.991-22.468-42.795-16.068-71.177a89.944 89.944 0 0 0 2.987-18.057 89.94 89.94 0 0 0-2.978-18.057c-6.4-28.382-9.984-55.185 16.051-71.185 17.476-10.675 54.793-2.97 105.114 21.717 22.929 11.255 40.107 21.99 40.277 22.101a8.551 8.551 0 0 0 13.078-6.956 8.554 8.554 0 0 0-4.016-7.551c-.691-.435-16.777-10.462-39.1-21.589-23.682-48.955-31.046-85.375-20.55-102.519z"/></svg>