<svg xmlns="http://www.w3.org/2000/svg" style="enable-background:new 0 0 512 512" xml:space="preserve" width="512" height="512"><path style="fill:#ffe082" d="m92.442 55.103-.687 2.648a107.38 107.38 0 0 1-50.978 66.45A65.667 65.667 0 0 0 7.5 181.324a21.137 21.137 0 0 0 15.849 20.465 522.062 522.062 0 0 0 261.237 0 21.138 21.138 0 0 0 15.849-20.465 65.667 65.667 0 0 0-33.277-57.123 107.384 107.384 0 0 1-50.978-66.45l-.687-2.648c-7.271-28.03-32.568-47.602-61.525-47.602-28.958 0-54.255 19.573-61.526 47.602z"/><path style="fill:#ffca28" d="M174.916 282.501v-64.529c-13.96.561-27.937.561-41.898 0v62.376c0 41.347 7.742 82.412 23.569 120.61 12.771 30.823 30.171 59.005 51.86 84.036 7.927 9.148 21.999 9.551 30.559.992 7.761-7.761 8.226-20.207 1.036-28.5-42.134-48.599-65.126-110.025-65.126-174.985z"/><path style="fill:#ffe082" d="m440.54 175.417.517 1.994a80.86 80.86 0 0 0 38.386 50.036A49.445 49.445 0 0 1 504.5 270.46a15.917 15.917 0 0 1-11.934 15.41 393.091 393.091 0 0 1-196.708 0 15.916 15.916 0 0 1-11.934-15.41 49.447 49.447 0 0 1 25.057-43.013 80.862 80.862 0 0 0 38.386-50.036l.517-1.994c5.475-21.106 24.523-35.844 46.328-35.844 21.804 0 40.853 14.737 46.328 35.844z"/><path style="fill:#ffca28" d="M267.157 124.201a107.384 107.384 0 0 1-50.978-66.45l-.687-2.648c-7.271-28.03-32.568-47.602-61.525-47.602-1.823 0-3.632.078-5.422.231 13.001 8.434 22.845 21.555 26.947 37.371l.687 2.648a107.38 107.38 0 0 0 50.978 66.45 65.666 65.666 0 0 1 33.277 57.123 21.137 21.137 0 0 1-15.849 20.465 522.049 522.049 0 0 1-226.802 7.655 21.102 21.102 0 0 0 5.565 2.345 522.04 522.04 0 0 0 261.237 0 21.138 21.138 0 0 0 15.849-20.465 65.667 65.667 0 0 0-33.277-57.123zM479.443 227.447a80.86 80.86 0 0 1-38.386-50.036l-.517-1.994c-5.475-21.106-24.523-35.844-46.328-35.844-3.25 0-6.437.334-9.529.962a47.766 47.766 0 0 1 15.857 24.882l.517 1.994a80.86 80.86 0 0 0 38.386 50.036A49.445 49.445 0 0 1 464.5 260.46a15.917 15.917 0 0 1-11.934 15.41 393.108 393.108 0 0 1-162.367 7.245 15.858 15.858 0 0 0 5.658 2.755 393.091 393.091 0 0 0 196.708 0 15.917 15.917 0 0 0 11.934-15.41 49.443 49.443 0 0 0-25.056-43.013z"/><path style="fill:#ffca28" d="M378.438 346.645v-48.59c10.512.422 21.037.422 31.548 0v46.968c0 31.134-5.83 62.055-17.747 90.818-9.616 23.21-22.719 44.431-39.05 63.278-5.969 6.889-16.565 7.192-23.01.747-5.844-5.844-6.194-15.215-.78-21.46 31.726-36.594 49.039-82.847 49.039-131.761z"/><path d="M182.416 263.842a95.662 95.662 0 0 0 9.996-3.688 7.5 7.5 0 1 0-5.978-13.758 79.603 79.603 0 0 1-4.018 1.615v-22.939c35.838-1.92 70.773-7.424 104.046-16.022 12.643-3.267 21.472-14.669 21.472-27.727 0-26.291-14.208-50.679-37.078-63.646-40.81-23.14-47.572-63.355-48.104-64.458C214.624 21.885 186.339 0 153.967 0S93.31 21.884 85.182 53.219c-.543 1.681-2.781 13.532-10.912 27.586a7.5 7.5 0 0 0 12.984 7.512c9.029-15.606 12.078-30.191 12.448-31.332C106.114 32.265 128.429 15 153.968 15s47.853 17.265 54.265 41.985l.687 2.648c7.763 29.929 27.642 55.84 54.539 71.091 18.182 10.309 29.476 29.697 29.476 50.598a13.638 13.638 0 0 1-10.225 13.204 511.518 511.518 0 0 1-42.989 9.141v-18.096a7.5 7.5 0 0 0-15 0v20.4a516.461 516.461 0 0 1-63.252 4.82v-19.99a7.5 7.5 0 0 0-15 0v19.99a516.28 516.28 0 0 1-63.253-4.82v-20.4a7.5 7.5 0 0 0-15 0v18.096a511.915 511.915 0 0 1-42.989-9.141A13.634 13.634 0 0 1 15 181.324c0-20.901 11.295-40.29 29.477-50.599a115.11 115.11 0 0 0 18.934-13.432 7.5 7.5 0 0 0 .711-10.583 7.498 7.498 0 0 0-10.583-.711 100.095 100.095 0 0 1-16.462 11.678C14.208 130.645 0 155.033 0 181.324a28.634 28.634 0 0 0 21.472 27.726c33.396 8.63 68.34 14.113 104.046 16.024v22.938a80.032 80.032 0 0 1-4.019-1.616 7.5 7.5 0 0 0-5.978 13.758 95.662 95.662 0 0 0 9.996 3.688c.639 9.882-3.881 59.018 16.767 120.325a7.5 7.5 0 0 0 14.216-4.788c-19.446-57.735-15.46-104.371-15.982-112.207a96.394 96.394 0 0 0 26.897 0c.676 9.424-3.987 54.64 17.235 111.577 11.409 30.609 28.139 58.753 49.725 83.65 4.585 5.289 4.29 13.32-.673 18.283-5.517 5.517-14.532 5.234-19.587-.6a300.405 300.405 0 0 1-44.861-69.002 7.498 7.498 0 0 0-9.977-3.599 7.5 7.5 0 0 0-3.599 9.977 315.364 315.364 0 0 0 47.101 72.447c10.709 12.359 29.827 13.087 41.53 1.384 10.502-10.502 11.118-27.508 1.4-38.716-74.273-85.669-62.005-180.615-63.293-188.731zm-41.897-11.852v-26.268c8.948.226 17.949.226 26.897 0v26.268a82.024 82.024 0 0 1-26.897 0z"/><path d="M483.142 220.922c-29.545-16.752-35.028-46.737-35.342-47.388-6.332-24.412-28.368-41.461-53.587-41.461-25.219 0-47.255 17.049-53.588 41.461-.461.956-5.237 30.318-35.342 47.388-17.8 10.093-28.858 29.075-28.858 49.537 0 10.677 7.22 20 17.557 22.671 25.239 6.522 51.034 10.524 76.957 12.025v18.328c-4.659-1.981-8.763.171-10.303 3.714a7.501 7.501 0 0 0 3.89 9.868 73.651 73.651 0 0 0 6.413 2.42c-.09 4.603.411 15.031-1.302 29.841a7.5 7.5 0 0 0 6.588 8.312 7.494 7.494 0 0 0 8.312-6.588c1.756-15.179 1.344-25.821 1.402-28.31 5.662.629 10.882.629 16.548 0-.295 3.203 2.092 43.723-17.175 90.23-9.286 22.413-22 43.016-37.79 61.237-3.148 3.633-8.706 3.69-12.04.355-3.053-3.053-3.236-7.992-.417-11.244 19.502-22.494 33.679-48.25 42.137-76.552a7.5 7.5 0 0 0-5.039-9.333 7.497 7.497 0 0 0-9.333 5.039c-7.845 26.25-21 50.145-39.099 71.021-7.951 9.171-7.448 23.084 1.144 31.676 9.517 9.517 25.162 9.04 33.982-1.138 16.845-19.44 30.408-41.417 40.311-65.319 21.35-51.531 17.963-95.199 18.318-99.226a73.896 73.896 0 0 0 6.413-2.42 7.5 7.5 0 0 0 3.89-9.868c-1.508-3.471-5.568-5.727-10.303-3.714v-18.328c25.922-1.501 51.717-5.502 76.957-12.025A23.416 23.416 0 0 0 512 270.459c0-20.462-11.058-39.444-28.858-49.537zm-97.204 106.707v-21.843c5.509.112 11.04.112 16.548 0v21.843a59.869 59.869 0 0 1-16.548 0zm104.751-49.021a383.592 383.592 0 0 1-28.38 6.187v-12.312a7.5 7.5 0 0 0-15 0v14.691a386.853 386.853 0 0 1-45.598 3.585v-13.745a7.5 7.5 0 0 0-15 0v13.745a386.853 386.853 0 0 1-45.598-3.585v-14.692a7.5 7.5 0 0 0-15 0v12.312a383.193 383.193 0 0 1-28.38-6.187 8.417 8.417 0 0 1-6.311-8.149c0-15.073 8.145-29.054 21.256-36.488 20.687-11.729 35.976-31.659 41.946-54.678l.517-1.993c4.617-17.797 20.682-30.228 39.068-30.228s34.452 12.43 39.068 30.228c.418.862 6.559 36.314 42.464 56.671C488.855 241.405 497 255.387 497 270.459a8.415 8.415 0 0 1-6.311 8.149zM402.897 64.607h14.857a7.5 7.5 0 0 0 0-15h-14.857a7.5 7.5 0 0 0 0 15zM358.04 64.607h14.857a7.5 7.5 0 0 0 0-15H358.04a7.5 7.5 0 0 0 0 15zM387.897 64.607a7.5 7.5 0 0 0-7.5 7.5v14.857a7.5 7.5 0 0 0 15 0V72.107a7.5 7.5 0 0 0-7.5-7.5zM387.897 48.607a7.5 7.5 0 0 0 7.5-7.5V27.25a7.5 7.5 0 0 0-15 0v13.857a7.5 7.5 0 0 0 7.5 7.5zM303.537 104.464h10.771a7.5 7.5 0 0 0 0-15h-10.771a7.5 7.5 0 0 0 0 15zM341.772 104.464h10.771a7.5 7.5 0 0 0 0-15h-10.771a7.5 7.5 0 0 0 0 15zM328.04 103.196a7.5 7.5 0 0 0-7.5 7.5v10.771a7.5 7.5 0 0 0 15 0v-10.771a7.5 7.5 0 0 0-7.5-7.5zM328.04 89.95a7.5 7.5 0 0 0 7.5-7.5v-9.989a7.5 7.5 0 0 0-15 0v9.989a7.5 7.5 0 0 0 7.5 7.5z"/></svg>