<svg xmlns="http://www.w3.org/2000/svg" viewBox="0 0 512 512" style="enable-background:new 0 0 512 512" xml:space="preserve"><path style="fill:#55606e" d="M7.515 256c0 137.235 111.25 248.485 248.485 248.485V7.515C118.765 7.515 7.515 118.765 7.515 256z"/><path style="fill:#d9dcdf" d="M256 7.515v496.971c137.235 0 248.485-111.25 248.485-248.485S393.235 7.515 256 7.515z"/><path style="fill:#68727e" d="M31.562 256c0 123.954 100.484 224.438 224.438 224.438V31.562C132.046 31.562 31.562 132.046 31.562 256z"/><path style="fill:#ecedef" d="M256 31.562v448.877c123.954 0 224.438-100.484 224.438-224.438S379.954 31.562 256 31.562z"/><path style="fill:#ffd072" d="M143.781 247.984c0-15.86 7.68-29.922 19.52-38.683a48.147 48.147 0 0 0-11.504-1.396c-26.562 0-48.094 21.532-48.094 48.094s21.532 48.094 48.094 48.094c10.702 0 20.584-3.5 28.574-9.411-21.005-5.157-36.59-24.103-36.59-46.698z"/><circle style="fill:#f9b270" cx="376.235" cy="256" r="48.094"/><circle style="fill:#ffd072" cx="376.235" cy="256" r="32.063"/><path style="fill:#c6cacf" d="M400.282 103.703c-2.828 0-5.539.492-8.059 1.388.026-.46.043-.922.043-1.388 0-13.281-10.766-24.047-24.047-24.047s-24.047 10.766-24.047 24.047c0 .466.017.929.043 1.388a24.005 24.005 0 0 0-8.059-1.388c-13.281 0-24.047 10.766-24.047 24.047h112.219c.001-13.281-10.765-24.047-24.046-24.047zM368.219 400.282c-2.828 0-5.539.492-8.059 1.388.026-.46.043-.922.043-1.388 0-13.281-10.766-24.047-24.047-24.047s-24.047 10.766-24.047 24.047c0 .466.017.929.043 1.388a24.005 24.005 0 0 0-8.059-1.388c-13.281 0-24.047 10.766-24.047 24.047h112.219c.001-13.281-10.765-24.047-24.046-24.047z"/><path d="M437.02 74.98C388.667 26.629 324.381 0 256 0S123.333 26.629 74.98 74.98C26.629 123.333 0 187.619 0 256s26.629 132.667 74.98 181.02C123.333 485.371 187.619 512 256 512s132.667-26.629 181.02-74.98C485.371 388.667 512 324.381 512 256s-26.629-132.667-74.98-181.02zM263.515 496.842v-333.69a7.516 7.516 0 0 0-15.03 0v333.703C119.077 492.872 15.029 386.358 15.029 256S119.077 19.128 248.485 15.145V127.75a7.516 7.516 0 0 0 15.03 0V15.158C392.922 19.143 496.971 125.643 496.971 256S392.922 492.857 263.515 496.842z"/><path d="M187.738 293.204a7.515 7.515 0 0 0-5.576-5.819c-18.174-4.462-30.866-20.664-30.866-39.4 0-12.997 6.005-24.895 16.475-32.642 5.02-3.714 3.374-11.852-2.677-13.339a55.847 55.847 0 0 0-13.297-1.612c-30.663 0-55.609 24.946-55.609 55.609s24.946 55.609 55.609 55.609c11.993 0 23.42-3.763 33.044-10.885a7.52 7.52 0 0 0 2.897-7.521zm-35.942 3.375c-22.376 0-40.579-18.204-40.579-40.579 0-20.613 15.448-37.687 35.377-40.248-6.619 9.322-10.328 20.595-10.328 32.232 0 19.651 10.194 37.27 26.146 47.198a40.681 40.681 0 0 1-10.616 1.397zM192.877 120.235h-1.002a7.516 7.516 0 0 0 0 15.03h1.002a7.516 7.516 0 0 0 0-15.03zM232.955 336.658h-1.002a7.516 7.516 0 0 0 0 15.03h1.002a7.516 7.516 0 0 0 0-15.03zM96.689 352.689h-1.002a7.516 7.516 0 0 0 0 15.03h1.002a7.516 7.516 0 0 0 0-15.03zM208.908 232.454h-1.002a7.516 7.516 0 0 0 0 15.03h1.002a7.516 7.516 0 0 0 0-15.03zM184.861 392.767h-1.002a7.516 7.516 0 0 0 0 15.03h1.002a7.516 7.516 0 0 0 0-15.03zM95.687 175.342h1.002a7.516 7.516 0 0 0 0-15.03h-1.002a7.516 7.516 0 0 0 0 15.03zM48.595 240.47h-1.002a7.516 7.516 0 0 0 0 15.03h1.002a7.516 7.516 0 0 0 0-15.03zM431.843 256c0-30.663-24.946-55.609-55.609-55.609S320.626 225.337 320.626 256s24.946 55.609 55.609 55.609 55.608-24.946 55.608-55.609zm-55.608 40.579c-22.376 0-40.579-18.204-40.579-40.579s18.204-40.579 40.579-40.579 40.579 18.204 40.579 40.579-18.203 40.579-40.579 40.579zM383.75 183.859v-16.031a7.516 7.516 0 0 0-15.03 0v16.031a7.516 7.516 0 0 0 15.03 0zM340.171 201.04c5.699 0 9.333-6.367 6.501-11.273l-8.016-13.883a7.515 7.515 0 0 0-13.015 7.515l8.016 13.883a7.51 7.51 0 0 0 6.514 3.758zM296.118 218.422l13.883 8.016a7.483 7.483 0 0 0 3.75 1.008c3.499 0 6.613-2.508 7.352-5.929.683-3.155-.793-6.482-3.589-8.095l-13.883-8.016a7.513 7.513 0 0 0-10.265 2.75 7.516 7.516 0 0 0 2.752 10.266zM288.063 263.515h16.031a7.516 7.516 0 0 0 0-15.03h-16.031a7.516 7.516 0 0 0 0 15.03zM310.001 285.563l-13.883 8.016c-3.269 1.887-4.646 6.057-3.129 9.518 1.772 4.044 6.81 5.713 10.644 3.499l13.883-8.016a7.515 7.515 0 0 0 2.75-10.265 7.513 7.513 0 0 0-10.265-2.752zM333.657 314.719l-8.016 13.883c-1.888 3.269-.995 7.569 2.049 9.807 3.565 2.621 8.758 1.534 10.967-2.292l8.016-13.883a7.515 7.515 0 0 0-2.75-10.265 7.514 7.514 0 0 0-10.266 2.75zM368.72 328.141v16.031a7.516 7.516 0 0 0 15.03 0v-16.031a7.516 7.516 0 0 0-15.03 0zM418.813 314.719a7.515 7.515 0 0 0-13.015 7.515l8.016 13.883c2.208 3.825 7.402 4.914 10.967 2.292 3.044-2.238 3.936-6.538 2.049-9.807l-8.017-13.883zM456.351 293.578l-13.883-8.016a7.515 7.515 0 0 0-7.515 13.015l13.883 8.016c3.833 2.214 8.871.545 10.644-3.499 1.517-3.459.141-7.629-3.129-9.516zM464.407 248.485h-16.031a7.516 7.516 0 0 0 0 15.03h16.031a7.516 7.516 0 0 0 0-15.03zM432.203 223.687c2.046 3.544 6.715 4.801 10.265 2.75l13.883-8.016a7.515 7.515 0 0 0-7.515-13.015l-13.883 8.016a7.515 7.515 0 0 0-2.75 10.265zM412.298 201.04a7.515 7.515 0 0 0 6.515-3.758l8.016-13.883a7.515 7.515 0 0 0-13.015-7.515l-8.016 13.883c-2.833 4.905.801 11.273 6.5 11.273zM312.11 135.264h112.219a7.516 7.516 0 0 0 7.515-7.515c0-17.403-14.159-31.562-31.562-31.562-.467 0-.933.01-1.398.031-3.369-13.803-15.84-24.078-30.665-24.078s-27.296 10.275-30.665 24.078a30.984 30.984 0 0 0-1.398-.031c-17.403 0-31.562 14.159-31.562 31.562a7.516 7.516 0 0 0 7.516 7.515zm24.047-24.047c2.112 0 3.998.531 6.007 1.101a7.554 7.554 0 0 0 5.162-.387 7.558 7.558 0 0 0 3.504-3.275c.87-1.613.858-3.183.858-4.955 0-9.116 7.417-16.532 16.532-16.532s16.532 7.416 16.532 16.532c0 2.669.308 5.011 2.392 6.925a7.576 7.576 0 0 0 7.599 1.545 16.482 16.482 0 0 1 5.54-.954c6.411 0 11.982 3.669 14.724 9.018h-93.573c2.74-5.349 8.311-9.018 14.723-9.018zM368.219 392.767c-.467 0-.933.01-1.398.031-3.369-13.803-15.84-24.078-30.665-24.078s-27.296 10.275-30.665 24.078a30.951 30.951 0 0 0-1.398-.031c-17.403 0-31.562 14.159-31.562 31.562a7.516 7.516 0 0 0 7.515 7.515h112.219a7.516 7.516 0 0 0 7.515-7.515c.001-17.403-14.158-31.562-31.561-31.562zm-78.849 24.047c2.74-5.348 8.311-9.018 14.724-9.018 1.897 0 3.76.321 5.54.954a7.514 7.514 0 0 0 10.022-7.504c-.018-.32-.031-.641-.031-.965 0-9.116 7.417-16.532 16.532-16.532s16.532 7.417 16.532 16.532c0 .325-.013.646-.031.965a7.517 7.517 0 0 0 10.022 7.504 16.482 16.482 0 0 1 5.54-.954c6.411 0 11.982 3.669 14.724 9.018H289.37z"/></svg>