<svg xmlns="http://www.w3.org/2000/svg" viewBox="0 0 512 512" style="enable-background:new 0 0 512 512" xml:space="preserve"><circle style="fill:#87dcff" cx="256" cy="256" r="248.5"/><path style="fill:#00c3ff" d="M337.497 423.003c-137.243 0-248.5-111.257-248.5-248.5 0-47.74 13.489-92.316 36.824-130.178C54.837 88.073 7.5 166.497 7.5 256c0 137.242 111.257 248.5 248.5 248.5 89.503 0 167.928-47.337 211.676-118.322-37.862 23.335-82.439 36.825-130.179 36.825z"/><path style="fill:#afd755" d="m49.118 393.657 6.936-63.012a16.03 16.03 0 0 0-4.802-13.323l-42.78-40.005c3.638 42.791 18.079 82.491 40.646 116.34z"/><path style="fill:#bee86e" d="M256 7.5c-.613 0-1.215.042-1.826.046l-13.539 57.403h-53.101a8.014 8.014 0 0 0-7.946 6.957l-4.417 33.124-24.598 1.288a8.014 8.014 0 0 0-7.589 7.686l-.853 21.378c-.192 4.813 3.875 8.707 8.676 8.307l23.029-1.919 19.038-26.553 56.113-2.004 12.11 18.328a16.032 16.032 0 0 0 17.663 6.611l20.663-5.734 5.069-13.448a16.032 16.032 0 0 1 11.762-10.047l10.034-2.071c6.752-1.393 13.148 3.594 13.441 10.483a11.191 11.191 0 0 1-9.905 11.593l-30.401 3.488-.335 10.354 24.549 12.525-8.517 12.525h-75.151l-66.133-26.052-59.185 54.702a16.03 16.03 0 0 0-4.687 15.606l10.932 44.407a16.032 16.032 0 0 0 14.707 12.177l60.569 3.257c11.917.64 21.561 9.924 22.657 21.808l5.108 55.461 20.326 53.161a23.296 23.296 0 0 0 37.445 8.906l54.103-49.258a24.048 24.048 0 0 0 7.607-14.312l5.771-39.579 39.106-43.097c4.288-4.725 1.605-12.322-4.697-13.307l-7.317-1.143 1.299-2.574 54.776-36.741-12.692-17.368 22.575-2.709a16.035 16.035 0 0 1 16.013 8.292l15.989 29.566 11.159 20.632a16.026 16.026 0 0 0 9.214 7.643l9.758 3.83c.035-1.712.129-3.409.129-5.129C504.5 118.757 393.243 7.5 256 7.5z"/><path d="M437.02 74.98C388.668 26.629 324.38 0 256 0S123.332 26.629 74.98 74.98C26.629 123.333 0 187.62 0 256s26.629 132.667 74.98 181.02C123.332 485.371 187.62 512 256 512s132.668-26.629 181.02-74.98C485.371 388.667 512 324.38 512 256s-26.629-132.667-74.98-181.02zM48.602 329.81l-4.595 41.028c-12.658-23.291-21.346-48.535-25.718-74.892l27.757 26.774a8.59 8.59 0 0 1 2.556 7.09zm377.811 96.603C380.894 471.932 320.374 497 256 497s-124.894-25.068-170.413-70.587a243.661 243.661 0 0 1-28.822-34.724l6.743-60.209c.808-7.209-1.828-14.52-7.049-19.555l-40.895-39.448A246.312 246.312 0 0 1 15 256c0-64.374 25.068-124.894 70.587-170.413 28.429-28.429 62.71-48.88 100.126-60.23l-4.866 12.895a7.5 7.5 0 1 0 14.033 5.296l8.619-22.84a242.068 242.068 0 0 1 38.229-5.279l-10.58 41.229-2.878.789h-40.736c-7.744 0-14.356 5.789-15.381 13.466l-3.593 26.951-18.379.962a15.445 15.445 0 0 0-14.692 14.877l-.852 21.379a15.523 15.523 0 0 0 4.773 11.824 15.505 15.505 0 0 0 12.02 4.255l1.31-.109-15.212 14.059a7.5 7.5 0 1 0 10.182 11.016l27.758-25.655 61.751 24.327a7.5 7.5 0 0 0 2.749.522h75.151a7.492 7.492 0 0 0 6.202-3.283l.009-.012.015-.022 8.493-12.491a7.5 7.5 0 0 0-2.793-10.898l-18.911-9.649 22.544-2.587c9.692-1.112 16.959-9.617 16.543-19.363a18.659 18.659 0 0 0-7.179-13.943 18.654 18.654 0 0 0-15.271-3.566l-10.033 2.07c-7.947 1.64-14.401 7.152-17.266 14.747l-3.725 9.884-16.993 4.715a8.512 8.512 0 0 1-9.399-3.518l-12.109-18.328c-1.441-2.181-3.929-3.466-6.525-3.361l-56.113 2.004a7.501 7.501 0 0 0-5.828 3.125l-17.019 23.737-19.575 1.631a.473.473 0 0 1-.399-.141.479.479 0 0 1-.159-.394l.852-21.378a.514.514 0 0 1 .488-.495l24.598-1.288a7.502 7.502 0 0 0 7.043-6.499l4.416-33.124a.518.518 0 0 1 .512-.449h41.746c.67 0 1.337-.09 1.983-.267l41.417-11.356a7.498 7.498 0 0 0 5.065-4.67l5.344-14.696a7.5 7.5 0 0 0-14.097-5.126l-4.019 11.052-17.167 4.707 9.514-37.076c63.88.341 123.885 25.364 169.093 70.571 44.141 44.141 69.048 102.389 70.516 164.577l-.029-.009a8.494 8.494 0 0 1-4.905-4.068l-11.159-20.632a7.498 7.498 0 0 0-10.165-3.029 7.5 7.5 0 0 0-3.028 10.165l11.159 20.632c2.905 5.373 7.709 9.357 13.608 11.244l4.378 1.346c-2.418 60.694-27.181 117.405-70.378 160.603zM236.962 151.775a7.502 7.502 0 0 0 7.377-6.139c.552-1.802 3.128-8.465 6.27-16.363l4.229 6.402a23.472 23.472 0 0 0 25.926 9.703l10.832-3.006-.005.158a7.498 7.498 0 0 0 4.088 6.922l16.973 8.66-1.502 2.21h-69.757l-55.854-22.003 11.284-15.739 40.876-1.46c-8.231 20.508-8.237 21.657-8.237 23.154a7.5 7.5 0 0 0 7.5 7.501zm73.81-28.209.734-1.95a8.492 8.492 0 0 1 6.261-5.348l10.033-2.07c.271-.056.527-.08.769-.08 1.06 0 1.838.465 2.247.784a3.646 3.646 0 0 1 1.417 2.753 3.702 3.702 0 0 1-3.267 3.822l-18.194 2.089z"/><path d="M390.084 348.455a7.498 7.498 0 0 0-10.567.919l-21.042 25.05a7.5 7.5 0 0 0 11.486 9.647l21.042-25.05a7.5 7.5 0 0 0-.919-10.566zM441.344 183.719l-36.561 4.323-22.872-20.465a7.502 7.502 0 0 0-11.194 1.357c-2.166 3.14-1.459 7.449 1.383 9.992l25.193 22.542a7.492 7.492 0 0 0 5.86 1.861l13.031-1.503 5.508 7.538-47.726 32.005a3 3 0 0 1-4.209-.892l-31.32-49.695a7.501 7.501 0 0 0-10.539-2.223c-3.406 2.292-4.174 7.007-1.987 10.481l33.963 53.942a7.502 7.502 0 0 0 5.188 3.414l17.374 2.715c.129.02.305.047.407.338s-.017.423-.104.519l-39.107 43.098a7.498 7.498 0 0 0-1.868 3.958l-5.772 39.58a16.59 16.59 0 0 1-5.233 9.848l-54.104 49.259a15.758 15.758 0 0 1-10.634 4.116c-6.503 0-12.433-4.081-14.754-10.155l-19.958-52.197-5.014-54.434c-1.426-15.475-14.203-27.774-29.723-28.609l-60.57-3.256a8.486 8.486 0 0 1-7.827-6.48l-10.931-44.407a8.533 8.533 0 0 1 2.494-8.305l5.843-5.401c3.016-2.787 3.497-7.542.8-10.64a7.5 7.5 0 0 0-10.752-.588l-6.072 5.612a23.534 23.534 0 0 0-6.877 22.906l10.931 44.407c2.494 10.131 11.169 17.313 21.587 17.874l60.569 3.256c8.141.438 14.844 6.89 15.591 15.007l5.108 55.461a7.53 7.53 0 0 0 .463 1.991l20.326 53.16c4.527 11.842 16.088 19.798 28.766 19.798 7.688 0 15.051-2.85 20.732-8.024l54.104-49.258a31.62 31.62 0 0 0 9.979-18.775l5.442-37.316 37.57-41.404a15.496 15.496 0 0 0 3.139-15.593 15.49 15.49 0 0 0-5.077-7.053l44.474-29.831c.894-.599 1.697-1.345 2.274-2.253 1.729-2.724 1.527-6.068-.249-8.499l-5.132-7.023 9.853-1.182a8.476 8.476 0 0 1 8.521 4.412 7.497 7.497 0 0 0 10.977 2.523c3.128-2.229 3.946-6.556 2.079-9.912-4.668-8.395-13.805-13.064-23.363-11.92zM378.043 143.965a7.492 7.492 0 0 0 6.222 3.302 7.5 7.5 0 0 0 6.208-11.7l-16.7-24.716a7.5 7.5 0 0 0-12.43 8.397l16.7 24.717z"/></svg>