<svg xmlns="http://www.w3.org/2000/svg" viewBox="0 0 512 512" style="enable-background:new 0 0 512 512" xml:space="preserve"><path style="fill:#ffdbcc" d="M340.645 256.734v49.584h44.075l-11.019-82.64c-18.256 0-33.056 14.801-33.056 33.056z"/><path style="fill:#ffc1a6" d="M406.756 256.734c0-18.256-14.799-33.056-33.056-33.056v82.64l33.056-33.056v-16.528z"/><path style="fill:#ffdbcc" d="M241.477 190.623c-18.257 0-33.056 14.799-33.056 33.056l-22.037 82.64H296.57l-22.037-82.64c0-18.257-14.799-33.056-33.056-33.056z"/><path style="fill:#fea680" d="M307.589 207.15c-18.257 0-33.056 14.8-33.056 33.056v66.112h66.112v-66.112c0-18.255-14.8-33.056-33.056-33.056zM175.365 74.376c-18.257 0-33.056 14.799-33.056 33.056v198.887h66.112V107.432c0-18.257-14.799-33.056-33.056-33.056zM375.905 273.262 258.006 504.654c82.153 0 148.752-66.599 148.752-148.752v-82.64h-30.853z"/><path style="fill:#ffc1a6" d="M142.309 273.262c-18.257 0-33.056 14.8-33.056 33.056v49.584c0 82.154 66.599 148.752 148.752 148.752 63.897 0 115.696-66.598 115.696-148.752v-82.64H142.309z"/><path style="fill:#42c8c6" d="M175.365 49.584a8.263 8.263 0 0 1-8.264-8.264V8.264c0-4.565 3.7-8.264 8.264-8.264s8.264 3.699 8.264 8.264V41.32c0 4.565-3.7 8.264-8.264 8.264zM128.617 73.184a8.24 8.24 0 0 1-5.843-2.42L99.4 47.389a8.264 8.264 0 0 1 11.686-11.687l23.374 23.375a8.264 8.264 0 0 1-5.843 14.107zM222.114 73.184a8.264 8.264 0 0 1-5.843-14.107L239.644 35.7a8.264 8.264 0 0 1 11.686 11.687l-23.374 23.375a8.23 8.23 0 0 1-5.842 2.422z"/><path d="M373.7 215.414c-10.495 0-20.083 3.939-27.378 10.409-5.854-15.714-21.006-26.937-38.734-26.937-10.495 0-20.083 3.939-27.378 10.409-5.854-15.714-21.006-26.937-38.734-26.937a41.096 41.096 0 0 0-24.792 8.287v-83.214c0-22.784-18.536-41.32-41.32-41.32s-41.32 18.536-41.32 41.32V265.83c-18.837 3.839-33.056 20.533-33.056 40.488v49.584c0 80.163 60.006 147.249 139.58 156.046a8.265 8.265 0 0 0 1.816-16.426c-71.186-7.872-124.868-67.894-124.868-139.619v-49.584c0-10.773 6.91-19.959 16.528-23.371v56.426c0 4.565 3.7 8.264 8.264 8.264s8.264-3.699 8.264-8.264V107.432c0-13.67 11.121-24.792 24.792-24.792 13.671 0 24.792 11.122 24.792 24.792v165.831c0 4.565 3.7 8.264 8.264 8.264s8.264-3.699 8.264-8.264v-49.584c0-13.67 11.121-24.792 24.792-24.792 13.671 0 24.792 11.122 24.792 24.792v49.584c0 4.565 3.7 8.264 8.264 8.264a8.263 8.263 0 0 0 8.264-8.264v-33.056c0-13.67 11.121-24.792 24.792-24.792 13.671 0 24.792 11.122 24.792 24.792v33.056c0 4.565 3.7 8.264 8.264 8.264a8.263 8.263 0 0 0 8.264-8.264v-16.528c0-13.67 11.121-24.792 24.792-24.792s24.792 11.122 24.792 24.792v99.168c0 71.726-53.682 131.748-124.868 139.619a8.262 8.262 0 0 0-7.305 9.121 8.265 8.265 0 0 0 9.121 7.306c79.573-8.798 139.58-75.884 139.58-156.047v-99.168c0-22.784-18.535-41.32-41.32-41.32z"/></svg>