<svg xmlns="http://www.w3.org/2000/svg" viewBox="0 0 512.003 512.003" style="enable-background:new 0 0 512.003 512.003" xml:space="preserve" width="512" height="512"><path style="fill:#ff5a59" d="M196.791 381.002c-110.6 0-167.815-72.42-187.383-103.73-4.253-6.806-1.084-15.785 6.482-18.461 16.239-5.743 43.253-17.96 65.351-40.955 44.962-46.787 96.077-46.858 115.55-25.067 19.473-21.79 70.587-21.719 115.55 25.067 22.099 22.995 49.112 35.212 65.351 40.955 7.566 2.676 10.735 11.655 6.482 18.461-19.568 31.31-76.783 103.73-187.383 103.73z"/><path style="fill:#ce3a4c" d="M377.692 258.811c-16.239-5.743-43.253-17.96-65.351-40.955-30.945-32.201-64.804-42.272-89.256-38.319 19.407 3.03 41.848 14.739 62.842 38.319 20.474 22.995 45.501 35.212 60.546 40.955 7.01 2.676 9.946 11.655 6.006 18.461-17.614 30.419-68.156 99.636-164.987 103.549 3.059.115 6.155.181 9.3.181 110.6 0 167.815-72.42 187.383-103.73 4.252-6.806 1.083-15.785-6.483-18.461z"/><path style="fill:#ff8383" d="M386.043 269.72c-44.332 17.143-121.399 40.064-189.252-17.863-67.853 57.927-144.92 35.006-189.252 17.863.369-4.757 3.42-9.171 8.349-10.912 16.243-5.743 43.252-17.957 65.35-40.955 44.967-46.784 96.079-46.852 115.554-25.064 19.475-21.789 70.587-21.72 115.554 25.064 22.098 22.998 49.107 35.212 65.35 40.955 4.927 1.741 7.978 6.155 8.347 10.912z"/><path style="fill:#ff5a59" d="M349.872 281.648c13.497-3.542 25.73-7.891 36.154-11.922-.347-4.549-3.029-8.378-6.898-10.302-3.137-1.565-38.262-11.886-66.787-41.568-22.598-23.51-57.3-43.875-89.251-38.318 19.406 3.031 41.844 14.74 62.837 38.318 20.474 22.995 45.501 35.212 60.546 40.955 7.01 2.676 9.946 11.655 6.006 18.461-.8 1.381-1.67 2.845-2.607 4.376z"/><path style="fill:#ce3a4c" d="M196.791 251.857c-22.465 19.179-45.94 29.49-68.902 34.088 17.681 11.248 42.024 18.199 68.902 18.199s51.221-6.951 68.902-18.199c-22.962-4.599-46.437-14.909-68.902-34.088z"/><path style="fill:#ebeae6" d="M472.578 25.271H330.059c-17.631 0-31.924 14.293-31.924 31.924v61.674c0 17.631 14.293 31.924 31.924 31.924h9.784c-3.317 12.384-12.062 23.166-24.692 28.615 10.138 4.121 21.83 4.438 32.756-.04 12.908-5.29 21.882-16.097 25.337-28.576h99.334c17.631 0 31.924-14.293 31.924-31.924V57.195c0-17.632-14.293-31.924-31.924-31.924z"/><path style="fill:#c9c5b5" d="M472.578 25.271h-22.892c17.631 0 31.924 14.292 31.924 31.924v61.674c0 17.631-14.293 31.924-31.924 31.924h22.892c17.631 0 31.924-14.292 31.924-31.924V57.194c0-17.631-14.293-31.923-31.924-31.923z"/><path style="fill:#fca" d="M69.29 486.732h85.105V237.704c0-35.917-29.117-65.034-65.034-65.034H80.24c-6.048 0-10.95 4.902-10.95 10.95v303.112z"/><path style="fill:#f2a077" d="M89.361 172.671H80.24c-1.567 0-3.055.335-4.403.928 30.722 5.19 54.128 31.907 54.128 64.105v249.028h24.43V237.704c0-35.917-29.116-65.033-65.034-65.033z"/><path style="fill:#d2f5ff" d="M77.166 246.292h-3.821a4.055 4.055 0 0 1-4.055-4.055v-80.552a4.055 4.055 0 0 1 4.055-4.055h3.818c14.565 0 26.372 11.807 26.372 26.372v35.921c0 14.563-11.806 26.369-26.369 26.369z"/><path d="M380.174 251.734c-14.093-4.992-40.921-16.702-62.427-39.082a176.881 176.881 0 0 0-7.207-7.082 7.5 7.5 0 0 0-10.194 11.004 162.175 162.175 0 0 1 6.588 6.475c22.413 23.325 49.384 36.136 68.12 42.786-30.409 11.034-68.561 20.567-107.592 12.837-.1-.024-.194-.063-.296-.083-24.627-4.934-46.546-16.251-65.505-32.432a7.504 7.504 0 0 0-8.63-.785c-.096.056-.182.135-.276.195-.284.182-.568.364-.831.588l-.002.001c-.044.038-.089.073-.132.111-9.435 8.031-19.455 14.742-29.898 20.038v-28.604c0-18.833-7.256-36.232-19.313-49.271 22.652-5.605 40.308.061 48.622 9.359a7.5 7.5 0 0 0 11.183-.001c12.243-13.699 41.762-17.656 74.491 1.283a7.498 7.498 0 0 0 10.248-2.734 7.5 7.5 0 0 0-2.734-10.248c-17.776-10.287-36.29-15.421-53.521-14.819-13.451.462-25.266 4.417-34.06 11.285-16.172-12.768-41.63-14.99-67.864-5.65a72.006 72.006 0 0 0-22.358-9.655c-11.051-19.465-32.555-16.952-33.245-17.119-6.369 0-11.55 5.182-11.55 11.551v116.36c-16.497-3.122-31.509-7.927-43.269-12.205a192.241 192.241 0 0 0 26.866-11.912 7.5 7.5 0 0 0-7.114-13.205 177.331 177.331 0 0 1-24.879 11.021h-.001c-6.312 2.388-10.367 6.858-12.27 12.312a19.908 19.908 0 0 0 1.928 17.196c10.775 17.238 29.606 42.016 58.74 63.671v141.813c0 4.143 3.358 7.5 7.5 7.5s7.5-3.357 7.5-7.5v-232.94h.37c18.676 0 33.87-15.194 33.87-33.87v-35.519a57.129 57.129 0 0 1 12.006 6.633c.213.18.434.347.664.501 14.195 10.578 23.189 27.481 23.189 46.165v40.153l-.001.037.001.049V308.837h-35.049c-4.142 0-7.5 3.357-7.5 7.5s3.358 7.5 7.5 7.5h35.049v95h-35.049c-4.142 0-7.5 3.357-7.5 7.5s3.358 7.5 7.5 7.5h35.049v52.896c0 4.143 3.358 7.5 7.5 7.5s7.5-3.357 7.5-7.5v-60.319c0-.026.004-.051.004-.077s-.004-.051-.004-.077V316.413c0-.026.004-.051.004-.077s-.004-.051-.004-.077v-8.526c11.15 2.587 22.844 3.91 34.9 3.91 26.216 0 51.047-6.315 70.344-17.806 9.653 1.75 19.597 2.634 29.823 2.634 1.135 0 2.28-.011 3.422-.032 26.564-.504 51.339-6.833 70.953-13.408-23.5 33.26-77.983 90.473-174.542 90.473-4.053 0-8.117-.102-12.079-.302-4.141-.227-7.66 2.974-7.869 7.111a7.5 7.5 0 0 0 7.111 7.869c4.214.213 8.533.321 12.837.321 114.365 0 173.588-75.007 193.744-107.256 6.472-10.355 2.419-24.701-10.361-29.513zM22.236 283.021c11.419 3.829 24.932 7.683 39.557 10.265v32.563c-17.539-14.541-30.486-29.95-39.557-42.828zm73.797-63.099c0 10.405-8.465 18.87-18.87 18.87h-.37v-73.66h.37A18.822 18.822 0 0 1 94.572 176.7a18.864 18.864 0 0 1 1.461 7.302v35.92zm148.804 68.155c-14.274 5.581-30.781 8.565-48.044 8.565-12.149 0-23.86-1.468-34.9-4.351v-9.362c12.207-5.466 23.908-12.619 34.899-21.351 15.125 12.019 31.324 20.805 48.045 26.499zM472.579 17.771H366.838c-4.143 0-7.5 3.357-7.5 7.5s3.357 7.5 7.5 7.5h105.741c13.468 0 24.424 10.956 24.424 24.424v61.674c0 13.468-10.956 24.424-24.424 24.424h-99.333a7.503 7.503 0 0 0-7.229 5.499c-2.986 10.788-10.624 19.403-20.952 23.637a35.915 35.915 0 0 1-10.534 2.559c5.927-6.123 10.274-13.729 12.558-22.254a7.5 7.5 0 0 0-7.244-9.441h-9.784c-13.468 0-24.424-10.956-24.424-24.424V57.195c0-13.468 10.956-24.424 24.424-24.424h6.777c4.143 0 7.5-3.357 7.5-7.5s-3.357-7.5-7.5-7.5h-6.777c-21.738 0-39.424 17.686-39.424 39.424v61.674c0 21.246 16.895 38.621 37.955 39.396-3.808 6.277-9.481 11.267-16.41 14.256a7.503 7.503 0 0 0-4.528 6.966 7.503 7.503 0 0 0 4.676 6.869c26.264 10.677 55.893-2.169 66.288-28.063h93.962c21.738 0 39.424-17.686 39.424-39.424V57.195c-.001-21.738-17.686-39.424-39.425-39.424z"/></svg>