<svg xmlns="http://www.w3.org/2000/svg" viewBox="0 0 512.001 512.001" style="enable-background:new 0 0 512.001 512.001" xml:space="preserve"><path style="fill:#edecff" d="M256.25 136c132.55 0 246 140 246 140s-113.45 140-246 140-246-140-246-140 113.45-140 246-140z"/><path style="fill:#3bcd92" d="M356.25 276c0 55.14-44.86 100-100 100s-100-44.86-100-100 44.86-100 100-100c55.033 0 100 44.738 100 100z"/><path d="M17.139 222.902C44.039 195.479 140.763 106 256 106c115.236 0 211.961 89.479 238.861 116.902 3.866 3.943 10.199 4.003 14.142.137 3.942-3.868 4.004-10.199.136-14.142C480.859 180.067 379.028 86 256 86 132.971 86 31.14 180.067 2.861 208.898c-3.867 3.943-3.806 10.274.137 14.142 3.931 3.855 10.263 3.816 14.141-.138z"/><path d="M2.231 282.296c1.188 1.465 29.604 36.295 74.917 71.593C128.764 394.096 191.098 426 256 426c64.899 0 127.231-31.901 178.852-72.111 45.313-35.298 73.73-70.128 74.918-71.593a10.001 10.001 0 0 0 0-12.592c-1.188-1.465-29.604-36.295-74.918-71.593C383.235 157.904 320.903 126 256 126s-127.237 31.905-178.852 72.111c-45.313 35.298-73.73 70.128-74.917 71.593a9.998 9.998 0 0 0 0 12.592zm87.56-68.68C129.467 182.77 190.51 146 256 146s126.533 36.77 166.21 67.616c32.525 25.287 56.444 50.871 66.617 62.384-10.173 11.513-34.092 37.097-66.617 62.384C382.533 369.231 321.49 406 256 406s-126.533-36.77-166.209-67.616C57.262 313.095 33.343 287.511 23.173 276c10.172-11.513 34.091-37.097 66.618-62.384z"/><path d="M256 386c60.654 0 110-49.346 110-110 0-60.731-49.147-110-110-110-60.654 0-110 49.346-110 110s49.346 110 110 110zm0-200c48.87 0 90 39.985 90 90 0 38.598-31.401 70-70 70-29.775 0-54-24.224-54-54 0-22.718 18.482-41.2 41.2-41.2 17.071 0 30.96 13.889 30.96 30.96 0 12.556-10.215 22.77-22.771 22.77-8.938 0-16.21-7.276-16.21-16.22 0-5.523-4.478-10-10-10-5.523 0-10 4.477-10 10 0 19.972 16.244 36.22 36.21 36.22 23.584 0 42.771-19.187 42.771-42.77 0-28.1-22.86-50.96-50.96-50.96-33.746 0-61.2 27.454-61.2 61.2 0 37.604 28.201 68.724 64.561 73.377A90.483 90.483 0 0 1 256 366c-49.626 0-90-40.374-90-90s40.374-90 90-90z"/></svg>