<svg xmlns="http://www.w3.org/2000/svg" viewBox="0 0 512 512" style="enable-background:new 0 0 512 512" xml:space="preserve"><path style="fill:#f23466" d="M261.541 385.705c0 64.912 52.622 117.534 117.534 117.534s117.534-52.622 117.534-117.534c-32.568-32.568-85.369-32.568-117.937 0h.805c-32.566-32.567-85.368-32.567-117.936 0z"/><path style="opacity:.1;enable-background:new" d="M478.252 371.841c-2.317 62.871-54.006 113.131-117.443 113.131-27.803 0-53.346-9.659-73.47-25.798 21.54 26.861 54.627 44.064 91.736 44.064 64.912 0 117.534-52.622 117.534-117.534a83.393 83.393 0 0 0-18.357-13.863z"/><path style="fill:#f9c5b5" d="M186.529 235.036c-27.964 17.802-123.291 87.069-144.945 215.882-4.713 28.033 17.048 53.542 45.474 53.542h68.208c21.538 0 38.999-17.461 38.999-38.999v-226.19c0-3.973-4.385-6.369-7.736-4.235z"/><path style="opacity:.1;enable-background:new" d="M186.916 235.036a270.315 270.315 0 0 0-11.423 7.709v213.404c0 16.099-13.052 29.151-29.151 29.151H68.286c-7.856 0-15.196-1.956-21.615-5.366 7.683 14.446 22.909 24.525 40.774 24.525h68.208c21.538 0 38.999-17.461 38.999-38.999V239.27c0-3.972-4.385-6.368-7.736-4.234z"/><path style="fill:#e3e3e3" d="M267.513 122.162s-56.439 80.647-126.061 80.647-126.063-80.647-126.063-80.647S71.828 41.515 141.45 41.515s126.063 80.647 126.063 80.647z"/><path style="opacity:.1;enable-background:new" d="M141.45 179.477c-52.949 0-98.267-46.64-116.939-68.981-5.879 7.034-9.124 11.666-9.124 11.666s56.439 80.647 126.061 80.647 126.061-80.647 126.061-80.647-3.244-4.631-9.124-11.666c-18.667 22.341-63.984 68.981-116.935 68.981z"/><path style="fill:#3a9cb4" d="M96.032 143.418c25.084 25.084 65.754 25.084 90.838 0s25.084-65.754 0-90.838v-.221c-14.092-6.571-29.406-10.844-45.42-10.844s-31.326 4.273-45.419 10.844v.221c-25.083 25.085-25.083 65.754.001 90.838z"/><circle style="fill:#342e30" cx="141.447" cy="95.006" r="27.081"/><path style="fill:#342e30" d="M461.461 74.607a15.857 15.857 0 0 1-11.248-4.659c-40.501-40.5-106.402-40.501-146.904 0-6.213 6.213-16.284 6.212-22.497 0-6.213-6.213-6.213-16.284 0-22.497 52.906-52.907 138.991-52.907 191.898 0 6.213 6.213 6.213 16.284 0 22.497a15.861 15.861 0 0 1-11.249 4.659z"/><path style="fill:#65cdef" d="M276.154 292.812c0 11.613-9.414 21.027-21.027 21.027-11.613 0-21.027-9.414-21.027-21.027 0-11.613 21.027-40.661 21.027-40.661s21.027 29.048 21.027 40.661z"/><path style="fill:#e3e3e3" d="M378.645 330.584s-80.647-56.439-80.647-126.061 80.647-126.061 80.647-126.061 80.647 56.439 80.647 126.061-80.647 126.061-80.647 126.061z"/><path style="opacity:.1;enable-background:new" d="M321.33 204.523c0-52.949 46.64-98.267 68.981-116.939-7.034-5.879-11.666-9.124-11.666-9.124s-80.647 56.439-80.647 126.061 80.647 126.062 80.647 126.062 4.631-3.244 11.666-9.124c-22.341-18.669-68.981-63.987-68.981-116.936z"/><path style="fill:#3a9cb4" d="M357.389 159.105c-25.084 25.084-25.084 65.754 0 90.838 25.084 25.084 65.754 25.084 90.838 0h.221c6.571-14.092 10.844-29.406 10.844-45.42s-4.273-31.326-10.844-45.419h-.221c-25.084-25.085-65.753-25.085-90.838.001z"/><circle style="fill:#342e30" cx="405.802" cy="204.52" r="27.081"/><path d="M501.942 380.374c-17.175-17.175-40.011-26.635-64.301-26.635-21.678 0-42.197 7.534-58.568 21.364-35.69-30.086-89.262-28.329-122.863 5.271a7.537 7.537 0 0 0-2.209 5.332c0 68.966 56.109 125.075 125.075 125.075s125.075-56.109 125.075-125.075a7.544 7.544 0 0 0-2.209-5.332zm-130.156 8.401a7.542 7.542 0 0 0 6.888 4.471h.805a7.543 7.543 0 0 0 6.889-4.473c14.025-12.891 32.107-19.952 51.274-19.952 17.259 0 33.628 5.742 46.958 16.293-59.729 54.786-151.859 55.005-211.839.641 28.928-23.48 71.249-22.484 99.025 3.02zm7.289 106.923c-54.53 0-99.911-39.886-108.517-92.016 31.373 25.17 69.571 37.765 107.774 37.765 38.9 0 77.794-13.056 109.484-39.151-8.021 52.807-53.728 93.402-108.741 93.402zM198.119 223.893a7.544 7.544 0 0 0-7.455-.145c-1.34.728-33.218 18.251-68.596 54.858-32.658 33.792-74.418 90.881-87.905 170.963-2.617 15.54 1.726 31.363 11.918 43.415A53.565 53.565 0 0 0 87.057 512h68.208c25.662 0 46.54-20.877 46.54-46.54V230.374a7.538 7.538 0 0 0-3.686-6.481zM186.724 465.46c0 17.346-14.112 31.458-31.458 31.458H87.058a38.513 38.513 0 0 1-29.461-13.673c-7.32-8.655-10.44-20.016-8.56-31.17 12.808-76.046 52.477-130.396 83.501-162.598 21.567-22.387 42.08-37.499 54.186-45.551V465.46z"/><path d="M120.662 447.551c-19.278 0-38.73 5.732-38.73 18.539a7.54 7.54 0 0 0 14.956 1.375c2.233-1.818 10.823-4.831 23.774-4.831s21.54 3.013 23.774 4.831a7.54 7.54 0 0 0 14.956-1.375c0-12.807-19.453-18.539-38.73-18.539zM141.451 210.35c72.712 0 129.843-80.44 132.239-83.864a7.541 7.541 0 0 0 0-8.648c-1.853-2.648-36.444-51.346-85.656-73.291l13.067-28.067a7.54 7.54 0 0 0-3.654-10.018 7.54 7.54 0 0 0-10.018 3.654l-13.522 29.048c-6.904-2.176-14.039-3.749-21.361-4.56V7.541a7.54 7.54 0 1 0-15.082 0v26.522c-7.594.306-15.008 1.466-22.195 3.307L102.58 10.115a7.54 7.54 0 0 0-13.672 6.364l11.908 25.579c-52.353 20.482-89.677 73.026-91.604 75.78a7.541 7.541 0 0 0 0 8.648c2.396 3.425 59.527 83.864 132.239 83.864zm56.691-112.351c0 15.143-5.897 29.379-16.604 40.087-10.707 10.707-24.944 16.605-40.088 16.605s-29.379-5.897-40.087-16.605c-21.931-21.931-22.09-57.501-.502-79.645 12.726-5.724 26.405-9.384 40.589-9.384 14.19 0 27.884 3.678 40.63 9.426 10.357 10.64 16.062 24.636 16.062 39.516zM73.636 74.418a71.871 71.871 0 0 0-3.958 23.581c0 19.171 7.466 37.195 21.022 50.751 13.556 13.557 31.58 21.022 50.751 21.022s37.196-7.466 50.751-21.022c13.557-13.556 21.022-31.579 21.022-50.751 0-8.136-1.358-16.06-3.941-23.529 23.964 17.319 41.8 38.681 48.805 47.693-12.681 16.314-60.844 73.106-116.635 73.106-55.8 0-103.968-56.807-116.639-73.11 6.995-9.021 24.829-30.414 48.822-47.741z"/><path d="M106.828 95.006c0 19.091 15.531 34.622 34.622 34.622s34.622-15.531 34.622-34.622-15.531-34.622-34.622-34.622-34.622 15.531-34.622 34.622zm54.162 0c0 10.774-8.766 19.54-19.54 19.54s-19.54-8.766-19.54-19.54 8.766-19.54 19.54-19.54c10.775 0 19.54 8.765 19.54 19.54zM371.179 204.523c0 19.091 15.531 34.622 34.622 34.622s34.622-15.531 34.622-34.622-15.531-34.622-34.622-34.622-34.622 15.531-34.622 34.622zm34.622-19.54c10.774 0 19.54 8.766 19.54 19.54s-8.766 19.54-19.54 19.54-19.54-8.766-19.54-19.54 8.766-19.54 19.54-19.54z"/><path d="M458.749 163.888c-20.482-52.353-73.026-89.677-75.779-91.604a7.538 7.538 0 0 0-8.648 0c-3.425 2.396-83.864 59.527-83.864 132.24s80.44 129.844 83.864 132.24c1.298.909 2.811 1.362 4.323 1.362s3.025-.454 4.323-1.362c2.648-1.853 51.346-36.444 73.29-85.656l28.07 13.067c1.03.48 2.112.707 3.177.707a7.541 7.541 0 0 0 6.841-4.361 7.54 7.54 0 0 0-3.654-10.018l-29.049-13.522c2.176-6.904 3.749-14.04 4.56-21.361h27.062a7.54 7.54 0 1 0 0-15.082h-26.522c-.306-7.594-1.466-15.008-3.307-22.195l27.255-12.688a7.541 7.541 0 0 0-6.364-13.672l-25.578 11.905zm-6.998 40.635c0 14.19-3.679 27.884-9.426 40.63-10.641 10.357-24.638 16.062-39.518 16.062-15.143 0-29.379-5.897-40.087-16.604-10.707-10.707-16.605-24.944-16.605-40.087s5.897-29.379 16.605-40.087c10.708-10.707 24.944-16.604 40.087-16.604 14.899 0 28.912 5.719 39.559 16.101 5.724 12.726 9.385 26.405 9.385 40.589zm-73.11 116.639c-16.314-12.656-73.102-60.741-73.102-116.639 0-55.8 56.808-103.968 73.111-116.639 9.02 6.998 30.413 24.832 47.74 48.826a71.848 71.848 0 0 0-23.582-3.96c-19.171 0-37.195 7.466-50.751 21.022-13.557 13.556-21.022 31.579-21.022 50.751s7.466 37.195 21.022 50.751c13.556 13.557 31.58 21.022 50.751 21.022 8.136 0 16.06-1.357 23.529-3.941-17.321 23.967-38.686 41.804-47.696 48.807zM88.906 408.792a7.542 7.542 0 0 0 9.629-4.585c.249-.702 25.472-70.566 74.29-102.243a7.54 7.54 0 1 0-8.21-12.652C111.551 323.744 85.408 396.1 84.321 399.164a7.541 7.541 0 0 0 4.585 9.628z"/><path d="M308.641 75.28c37.561-37.56 98.679-37.56 136.239 0 4.429 4.429 10.318 6.868 16.581 6.868s12.152-2.439 16.581-6.868c9.143-9.143 9.143-24.018 0-33.161C451.03 15.106 415.061.23 376.761.23S302.492 15.106 275.48 42.119c-4.429 4.429-6.868 10.317-6.868 16.581s2.439 12.152 6.868 16.581c9.144 9.142 24.02 9.14 33.161-.001zm-22.496-22.497c24.163-24.164 56.345-37.471 90.617-37.471s66.453 13.307 90.617 37.471a8.312 8.312 0 0 1 2.451 5.916 8.31 8.31 0 0 1-2.451 5.916 8.316 8.316 0 0 1-5.916 2.451 8.312 8.312 0 0 1-5.916-2.451c-21.721-21.721-50.252-32.58-78.784-32.58s-57.064 10.86-78.785 32.58c-3.262 3.262-8.569 3.262-11.832 0a8.312 8.312 0 0 1-2.451-5.916 8.305 8.305 0 0 1 2.45-5.916zM283.694 292.812c0-13.042-17.191-37.804-22.46-45.083a7.54 7.54 0 0 0-12.216 0c-5.269 7.279-22.46 32.041-22.46 45.083 0 15.752 12.816 28.568 28.568 28.568s28.568-12.815 28.568-28.568zm-42.054 0c0-4.429 6.245-16.17 13.482-27.311 7.255 11.201 13.49 23.009 13.49 27.311 0 7.436-6.05 13.486-13.486 13.486-7.436 0-13.486-6.049-13.486-13.486z"/></svg>