<svg xmlns="http://www.w3.org/2000/svg" viewBox="0 0 512.002 512.002" style="enable-background:new 0 0 512.002 512.002" xml:space="preserve"><path style="fill:#cf8bfc" d="M503.23 227.856c0 62.652-49.74 112.342-120.798 112.342s-131.964 0-109.632 71.291-71.058 92.903-71.058 92.903c2.832-7.826 4.69-15.389 5.614-22.627.142-1.015.254-2.01.345-3.005 0-.02 0-.041.01-.061 4.04-43.132-25.449-73.687-79.057-73.687-81.929 0-97.45-92.903-24.363-123.143 43.294-17.927 98.455-8.547 139.181-12.313 4.365-.396 8.557-.954 12.557-1.705.091-.01.183-.02.264-.041a96.85 96.85 0 0 0 5.542-1.228c18.688-4.751 32.189-14.953 36.635-36.564 12.222-59.445-75.605-46.999-100.455-42.35-.091.01-.173.03-.244.051-2.355.436-4.121.812-5.147 1.036-.061.02-.132.03-.193.041-.183.03-.345.071-.467.102-.244.051-.376.081-.376.081a95.84 95.84 0 0 1-1.797.315C-26.646 227.004-24.373 73.266 68.763 26.947c10.182-5.065 20.749-8.963 31.478-11.887 87.665-23.936 186.77 16.993 186.77 16.993s-126.96-2.375-142.836 57.546c-12.466 47.04 75.839 23.764 157.047 23.764 152.267-.001 202.008 51.841 202.008 114.493z"/><path style="fill:#96c" d="M356.333 208.813c-10.415 32.291-45 46.634-94.496 57.77 18.688-4.751 32.189-14.953 36.635-36.564 12.222-59.445-75.605-46.999-100.455-42.35 31.956-6.295 171.817-31.043 158.316 21.144zM207.711 478.7c4.04-43.132-25.449-73.687-79.057-73.687-81.929 0-97.45-92.903-24.363-123.143 43.294-17.927 98.455-8.547 139.181-12.313l.183.873c-172.568 18.993-90.345 110.951-66.49 126.685 23.349 15.4 35.51 35.173 30.546 81.585zM189.795 189.293C-26.646 227.004-24.373 73.266 68.764 26.947c10.182-5.065 20.749-8.963 31.478-11.887-107.926 74.629 16.496 185.825 89.553 174.233z"/><path style="fill:#f9d366" d="m460.921 95.031 18.124-3.675c8.556-1.735 8.556-13.963 0-15.698l-18.124-3.675a45.355 45.355 0 0 1-35.439-35.439l-3.675-18.124c-1.735-8.556-13.963-8.556-15.698 0l-3.675 18.124a45.355 45.355 0 0 1-35.439 35.439l-18.124 3.675c-8.556 1.735-8.556 13.963 0 15.698l18.124 3.675a45.355 45.355 0 0 1 35.439 35.439l3.675 18.124c1.735 8.556 13.963 8.556 15.698 0l3.675-18.124a45.354 45.354 0 0 1 35.439-35.439zM233.505 321.49l18.124-3.675c8.556-1.735 8.556-13.963 0-15.698l-18.124-3.675a45.355 45.355 0 0 1-35.439-35.439l-3.675-18.124c-1.735-8.556-13.963-8.556-15.698 0l-3.675 18.124a45.355 45.355 0 0 1-35.439 35.439l-18.124 3.675c-8.556 1.735-8.556 13.963 0 15.698l18.124 3.675a45.355 45.355 0 0 1 35.439 35.439l3.675 18.124c1.735 8.556 13.963 8.556 15.698 0l3.675-18.124a45.355 45.355 0 0 1 35.439-35.439z"/><path style="fill:#96c" d="M256.031 267.852c.091-.01.183-.02.264-.041-.081.01-.173.03-.254.051l-.01-.01zM375.62 292.052c43.65-5.076 73.088-48.725 73.088-80.194 0 0 15.734 36.036-13.196 64.967s-59.892 15.227-59.892 15.227z"/><path d="M387.802 387.463a7.612 7.612 0 0 0-7.613 7.613v20.175a7.613 7.613 0 0 0 15.226 0v-20.175a7.614 7.614 0 0 0-7.613-7.613zM387.802 441.78a7.612 7.612 0 0 0-7.613 7.613v20.175a7.613 7.613 0 0 0 15.226 0v-20.175a7.614 7.614 0 0 0-7.613-7.613zM425.047 424.709h-20.175a7.612 7.612 0 0 0-7.613 7.613 7.612 7.612 0 0 0 7.613 7.613h20.175a7.612 7.612 0 0 0 7.613-7.613 7.612 7.612 0 0 0-7.613-7.613zM370.73 424.709h-20.174a7.612 7.612 0 0 0-7.613 7.613 7.612 7.612 0 0 0 7.613 7.613h20.174a7.613 7.613 0 0 0 0-15.226zM192.927 196.468a7.18 7.18 0 0 0 .382-.078c19.321-4.467 73.549-12.074 92.205 6.132 6.073 5.926 7.872 14.42 5.499 25.964-4.92 23.933-22.021 33.24-63.097 34.335a7.614 7.614 0 0 0 .407 15.222c12.292-.328 24.398-1.297 35.314-4.047 47.025-10.449 92.13-24.682 100.153-63.648a7.612 7.612 0 0 0-5.921-8.992c-4.117-.85-8.143 1.803-8.992 5.921-2.835 13.768-12.084 24.246-29.11 32.976-5.973 3.063-12.732 5.778-19.897 8.223 2.654-4.824 4.721-10.411 6.06-16.924 3.452-16.799.159-30.236-9.79-39.937-12.27-11.965-34.14-17.222-64.99-15.622-21.041 1.09-38.874 5.018-41.075 5.518-24.308 4.321-45.164 6.146-63.085 6.145-72.656-.004-96.784-30.019-104.334-45.304-6.846-13.86-8.104-29.957-3.637-46.548 4.418-16.41 14.406-32.364 28.127-44.922a7.613 7.613 0 0 0-10.281-11.231C21.036 54.138 9.476 72.674 4.315 91.845c-5.443 20.222-3.823 40.018 4.689 57.249 10.678 21.62 31.562 37.588 60.393 46.18 32.336 9.638 73.898 10.038 123.53 1.194z"/><path d="M72.154 33.762C118.472 10.726 173.4 13.313 211.322 19.537c12.569 2.064 24.157 4.652 34.219 7.266-40.575 4.769-97.628 18.96-108.725 60.844-1.47 5.55-1.799 10.575-1.014 15.055-13.555-6.005-24.617-17.444-24.617-40.064a7.613 7.613 0 0 0-15.226 0c0 44.766 34.565 58.108 63.654 61.403 7.976 1.956 17.635 2.686 28.64 2.686 14.4 0 31.094-1.244 49.287-2.598 20.833-1.551 42.377-3.156 63.684-3.156 23.548 0 45.345 1.276 64.782 3.793 4.155.533 7.987-2.403 8.527-6.573a7.613 7.613 0 0 0-6.573-8.528c-20.083-2.601-42.537-3.919-66.737-3.919-21.874 0-43.704 1.626-64.816 3.198-28.221 2.101-57.16 4.25-73.166.4a7.588 7.588 0 0 0-1.397-.356c-4.232-1.17-7.444-2.815-9.318-5.072-.801-.964-3.237-3.898-.993-12.37 7.187-27.126 42.741-39.815 71.303-45.683 32.533-6.683 63.731-6.197 64.032-6.196a7.628 7.628 0 0 0 7.596-6.061 7.614 7.614 0 0 0-4.548-8.588c-1.307-.54-32.517-13.304-75.769-20.448-40.237-6.643-98.712-9.339-148.775 15.561a7.613 7.613 0 1 0 6.782 13.631zM497.442 175.676c-9.686-16.583-24.623-30.442-44.396-41.192a7.613 7.613 0 0 0-10.325 3.052 7.612 7.612 0 0 0 3.052 10.325c33.071 17.98 49.841 44.895 49.841 79.999 0 39.206-20.845 73.382-55.761 91.422a7.613 7.613 0 1 0 6.989 13.527c40.074-20.704 63.998-59.937 63.998-104.949.001-19.405-4.507-36.962-13.398-52.184zM293.509 357.033c.027-.012.053-.027.08-.04 19.621-9.176 53.457-9.181 88.843-9.181 11.77 0 23.28-1.31 34.211-3.894a7.612 7.612 0 0 0 5.657-9.16c-.966-4.092-5.073-6.628-9.16-5.657-9.785 2.313-20.115 3.486-30.708 3.486-38.272 0-72.634.002-95.239 10.542-24.12 8.072-52.532 25.901-60.939 52.174a7.612 7.612 0 0 0 7.253 9.935 7.617 7.617 0 0 0 7.249-5.295c2.636-8.237 9.364-18.108 21.034-26.928-2.551 11.131-1.314 24.603 3.745 40.753 4.985 15.913 3.903 30.303-3.217 42.768-11.128 19.483-34.49 30.813-49.23 36.296 5.507-24.022 2.193-46.009-9.729-62.994-14.683-20.92-41.214-32.441-74.705-32.441-17.323 0-32.43-4.551-43.686-13.161-9.898-7.572-16.651-18.287-19.013-30.171-2.404-12.094-.209-24.892 6.18-36.04 7.18-12.527 19.306-22.597 35.067-29.12 11.475-4.749 24.813-7.844 40.779-9.461a7.612 7.612 0 1 0-1.535-15.149c-17.461 1.769-32.202 5.217-45.067 10.54-42.572 17.617-55.968 53.978-50.359 82.198 3.085 15.519 11.855 29.475 24.697 39.297 13.935 10.66 32.241 16.293 52.937 16.293 28.386 0 50.491 9.22 62.241 25.962 11.294 16.092 12.604 38.542 3.686 63.214a7.613 7.613 0 0 0 8.876 10.005c2.106-.487 51.829-12.342 72.048-47.659 9.335-16.306 10.869-34.787 4.559-54.931-6.1-19.47-5.807-33.368.892-42.486 2.966-4.032 7.239-7.199 12.553-9.695z"/><path d="m462.433 102.493 18.124-3.675c7.371-1.494 12.517-7.79 12.517-15.311s-5.147-13.817-12.517-15.311l-18.124-3.675a37.673 37.673 0 0 1-29.491-29.491l-3.675-18.124c-1.495-7.371-7.791-12.518-15.311-12.518s-13.815 5.148-15.31 12.518l-3.675 18.124a37.67 37.67 0 0 1-29.491 29.49l-18.124 3.675c-7.371 1.494-12.517 7.79-12.517 15.311 0 7.52 5.147 13.816 12.517 15.311l18.124 3.675a37.672 37.672 0 0 1 29.491 29.491l3.675 18.124c1.495 7.371 7.791 12.517 15.31 12.517 7.52 0 13.816-5.147 15.311-12.517l3.675-18.124a37.676 37.676 0 0 1 29.491-29.49zm-44.414 26.465-3.675 18.124c-.033.162-.072.248-.064.248-.129.091-.516.091-.622.024a.907.907 0 0 1-.087-.272l-3.675-18.124a52.874 52.874 0 0 0-41.388-41.389l-18.124-3.675c-.148-.029-.232-.066-.246-.066-.002 0-.002 0-.002.002-.092-.13-.092-.517-.023-.623a.907.907 0 0 1 .272-.087l18.124-3.675a52.869 52.869 0 0 0 41.388-41.388l3.675-18.124c.038-.186.064-.25.064-.249.13-.092.518-.091.621-.023a.863.863 0 0 1 .088.272l3.675 18.124a52.873 52.873 0 0 0 41.388 41.388l18.124 3.675c.172.035.246.075.248.064.092.13.092.517.023.623a.907.907 0 0 1-.272.087l-18.124 3.675a52.878 52.878 0 0 0-41.388 41.389zM235.018 290.982a37.674 37.674 0 0 1-29.491-29.491l-3.675-18.124c-1.494-7.371-7.79-12.518-15.311-12.518s-13.817 5.148-15.311 12.518l-3.675 18.124a37.674 37.674 0 0 1-29.491 29.491l-18.124 3.675c-7.371 1.494-12.518 7.79-12.518 15.311 0 7.52 5.148 13.816 12.518 15.311l18.124 3.675a37.674 37.674 0 0 1 29.491 29.491l3.675 18.124c1.494 7.371 7.79 12.518 15.311 12.518 7.52 0 13.816-5.148 15.311-12.518l3.675-18.124a37.674 37.674 0 0 1 29.491-29.491l18.124-3.675c7.37-1.494 12.518-7.79 12.518-15.311s-5.148-13.817-12.518-15.311l-18.124-3.675zm15.371 19.284a.907.907 0 0 1-.272.087l-18.124 3.675a52.876 52.876 0 0 0-41.389 41.389l-3.675 18.124c-.032.162-.072.249-.065.249-.129.092-.516.093-.622.023a.907.907 0 0 1-.087-.272l-3.675-18.124a52.876 52.876 0 0 0-41.389-41.389l-18.124-3.675c-.148-.03-.233-.066-.247-.066l-.002.001c-.091-.13-.091-.516-.023-.622a.907.907 0 0 1 .272-.087l18.124-3.675a52.876 52.876 0 0 0 41.389-41.389l3.675-18.124c.032-.162.072-.249.065-.249.131-.092.517-.091.622-.023a.907.907 0 0 1 .087.272l3.675 18.124a52.876 52.876 0 0 0 41.389 41.389l18.124 3.675c.172.035.253.071.249.064.09.131.09.517.023.623z"/></svg>