<svg xmlns="http://www.w3.org/2000/svg" viewBox="0 0 512 512" style="enable-background:new 0 0 512 512" xml:space="preserve"><path style="fill:#b440a1" d="M427.825 180.463c14.799 79.898-29.521 165.699-109.354 185.079 0 0 93.934-115.208 72.433-204.582S222.617 9.512 201.718 8.51c28.2-1.343 56.664 2.4 83.918 11.991 44.442 16.286 81.462 41.469 109.607 81.462 17.772 25.183 26.658 48.88 32.582 78.5z"/><path style="fill:#b440a1" d="M180.473 84.184c79.898-14.799 165.699 29.521 185.079 109.354 0 0-115.208-93.934-204.582-72.433S9.522 289.392 8.52 310.292c-1.343-28.2 2.4-56.664 11.991-83.918 16.286-44.442 41.469-81.462 81.462-109.607 25.183-17.772 48.88-26.659 78.5-32.583z"/><path style="fill:#b440a1" d="M84.194 331.537c-14.799-79.898 29.521-165.699 109.354-185.079 0 0-93.934 115.208-72.433 204.582s168.287 151.448 189.186 152.45c-28.2 1.343-56.664-2.4-83.918-11.991-44.442-16.286-81.462-41.469-109.607-81.462-17.771-25.183-26.657-48.879-32.582-78.5z"/><path style="fill:#b440a1" d="M331.547 427.815c-79.898 14.799-165.699-29.521-185.079-109.354 0 0 115.208 93.934 204.582 72.433S502.498 222.607 503.5 201.708c1.343 28.2-2.4 56.664-11.991 83.918-16.286 44.442-41.469 81.462-81.462 109.607-25.183 17.772-48.879 26.658-78.5 32.582z"/><path style="fill:#ff2796" d="M331.547 405.792c29.621-5.924 53.317-14.81 78.5-32.583 39.993-28.145 65.176-65.165 81.462-109.607 7.102-20.173 10.989-40.995 11.991-61.895-2.599-54.55-24.236-108.121-59.384-150.107 45.917 75.549 53.317 173.297-1.487 248.835-4.438 5.924-8.886 10.373-13.324 16.297-29.588 29.588-68.061 51.797-110.973 48.89 64.237-29.275 100.687-113.83 87.469-185.161-5.924-29.621-14.81-53.317-32.583-78.5-28.143-39.992-65.164-65.175-109.605-81.461-20.173-7.102-40.995-10.989-61.895-11.991-54.55 2.599-108.121 24.236-150.107 59.384 75.549-45.917 173.297-53.317 248.835 1.487 5.924 4.438 10.373 8.886 16.297 13.324 29.588 29.588 51.797 68.061 48.89 110.973-29.243-64.284-113.803-100.692-185.161-87.47-29.621 5.924-53.317 14.81-78.5 32.583-39.993 28.145-65.176 65.165-81.462 109.607-7.102 20.173-10.989 40.995-11.991 61.895 2.599 54.55 24.236 108.121 59.384 150.107-45.917-75.549-53.317-173.297 1.487-248.835 4.438-5.924 8.886-10.373 13.324-16.297 29.588-29.588 68.061-51.797 110.973-48.89C129.464 175.661 93 260.215 106.217 331.536c5.924 29.621 14.81 53.317 32.583 78.5 28.145 39.993 65.165 65.176 109.607 81.462 20.173 7.102 40.995 10.989 61.895 11.991 54.55-2.599 108.121-24.236 150.107-59.384-75.549 45.917-173.297 53.317-248.835-1.487-5.924-4.438-10.373-8.886-16.297-13.324-29.588-29.588-51.797-68.061-48.89-110.973 29.235 64.298 113.796 100.696 185.16 87.471z"/><path style="fill:#fcd999" d="M257.111 224.067v66.068c36.492 0 66.068-14.788 66.068-33.034s-29.576-33.034-66.068-33.034z"/><path style="fill:#fff" d="M257.111 224.067c18.246 0 33.034 14.788 33.034 33.034s-14.788 33.034-33.034 33.034c-36.492 0-66.068-14.788-66.068-33.034s29.577-33.034 66.068-33.034z"/><circle style="fill:#fff" cx="257.116" cy="158.002" r="8.259"/><circle style="fill:#fff" cx="290.15" cy="191.036" r="8.259"/><circle style="fill:#fff" cx="356.218" cy="235.082" r="8.259"/><circle style="fill:#fff" cx="224.082" cy="345.196" r="8.259"/><path d="M182.784 257.101c0 12.115 8.494 23.034 23.917 30.745 13.603 6.802 31.506 10.548 50.41 10.548 18.905 0 36.808-3.746 50.411-10.548 15.423-7.711 23.916-18.63 23.916-30.745 0-12.115-8.493-23.034-23.916-30.745-13.603-6.802-31.506-10.548-50.411-10.548-18.904 0-36.808 3.746-50.41 10.548-15.423 7.711-23.917 18.629-23.917 30.745zm132.136 0c0 11.695-24.723 24.776-57.81 24.776s-57.81-13.08-57.81-24.776c0-11.695 24.723-24.776 57.81-24.776s57.81 13.081 57.81 24.776z"/><circle cx="19.678" cy="35.961" r="8.259"/><circle cx="52.712" cy="108.638" r="8.259"/><circle cx="97.451" cy="463.568" r="8.259"/><circle cx="493.442" cy="411.077" r="8.259"/><circle cx="493.442" cy="378.042" r="8.259"/><circle cx="257.116" cy="323.173" r="8.259"/><circle cx="257.116" cy="191.036" r="8.259"/><circle cx="158.014" cy="257.105" r="8.259"/><circle cx="412.178" cy="19.668" r="8.259"/><path d="M504.459 152.27c-9.679-38.683-28.357-75.328-54.011-105.97a8.26 8.26 0 0 0-13.39 9.591c47.84 78.704 47.418 172.763-1.072 239.645-2.046 2.723-4.106 5.127-6.285 7.669-2.155 2.514-4.38 5.11-6.638 8.085-11.5 11.441-26.432 23.765-44.097 32.823 14.461-11.979 26.923-26.875 36.782-44.226 20.414-35.921 27.775-79.998 20.196-120.929l-.023-.116c-6.565-32.829-16.715-57.247-33.929-81.634-27.341-38.854-64.473-66.482-113.619-84.501C248.509-1.32 204.386-3.788 160.78 5.572c-41.869 8.985-81.452 28.347-114.47 55.99a8.258 8.258 0 0 0-1.412 11.141 8.256 8.256 0 0 0 11.003 2.247c78.705-47.84 172.761-47.418 239.643 1.071 2.726 2.047 5.13 4.108 7.676 6.29 2.513 2.155 5.108 4.378 8.081 6.635 11.487 11.547 23.864 26.552 32.931 44.311-10.301-12.488-22.755-23.502-37.039-32.599-32.368-20.616-71.683-30.178-110.699-26.927a8.258 8.258 0 1 0 1.372 16.46c75.077-6.258 143.73 39.113 159.721 105.533a8.253 8.253 0 0 0 8.72 6.296 8.258 8.258 0 0 0 7.548-7.662c3.529-51.197-25.937-92.152-51.277-117.495a8.275 8.275 0 0 0-.885-.767c-2.746-2.06-5.164-4.133-7.727-6.328-2.649-2.272-5.39-4.619-8.567-7.003-.035-.025-.069-.052-.106-.077-37.26-27.032-81.995-40.892-129.407-40.082-6.485.111-12.977.49-19.456 1.133 42.429-10.515 86.699-9.443 126.359 4.51C328.57 45.035 363.143 70.7 388.49 106.722c16.008 22.679 25.056 44.498 31.222 75.296 14.699 79.537-31.687 158.286-103.429 175.558a8.258 8.258 0 0 0 1.366 16.267c2.828.195 5.62.29 8.385.29 47.285-.001 85.167-27.625 109.109-51.567.276-.276.532-.573.766-.885 2.06-2.747 4.135-5.167 6.329-7.729 2.271-2.648 4.617-5.387 7-8.564.025-.035.053-.069.077-.106 27.033-37.261 40.894-82.009 40.082-129.408a238.45 238.45 0 0 0-1.216-20.28c9.354 37.079 9.817 75.647.372 111.502a8.259 8.259 0 0 0 15.973 4.208c9.974-37.842 9.95-79.005-.067-119.034z"/><path d="M456.12 437.049c-78.705 47.84-172.76 47.42-239.639-1.069-2.728-2.048-5.132-4.109-7.679-6.292-2.513-2.155-5.108-4.378-8.081-6.637-11.441-11.499-23.764-26.428-32.822-44.093 11.979 14.461 26.873 26.921 44.224 36.78 35.922 20.415 80 27.777 120.928 20.196a4.73 4.73 0 0 0 .116-.022c32.833-6.567 57.249-16.716 81.635-33.93 34.869-24.537 60.517-56.693 78.412-98.308a8.258 8.258 0 1 0-15.173-6.526c-16.652 38.726-40.447 68.599-72.754 91.333-22.677 16.008-44.495 25.055-75.299 31.222-79.534 14.702-158.284-31.689-175.554-103.429a8.245 8.245 0 0 0-8.72-6.296 8.257 8.257 0 0 0-7.548 7.662c-3.531 51.198 25.936 92.153 51.277 117.495.276.276.573.533.885.767 2.746 2.06 5.164 4.133 7.726 6.328 2.65 2.272 5.39 4.619 8.568 7.002l.106.078c37.262 27.033 82.036 40.883 129.407 40.082 6.485-.111 12.976-.49 19.456-1.133-42.43 10.514-86.699 9.444-126.36-4.51-45.78-16.787-80.353-42.452-105.701-78.472-16.008-22.68-25.056-44.498-31.222-75.299-14.7-79.537 31.687-158.283 103.428-175.554a8.257 8.257 0 0 0-1.365-16.267c-51.176-3.525-92.152 25.936-117.495 51.278a8.354 8.354 0 0 0-.766.884c-2.06 2.747-4.134 5.165-6.328 7.727-2.272 2.649-4.618 5.388-7.001 8.566-.025.035-.053.069-.077.106-27.033 37.261-40.894 82.01-40.082 129.408a238.33 238.33 0 0 0 1.132 19.454c-10.517-42.434-9.446-86.693 4.511-126.358 16.785-45.78 42.451-80.353 78.471-105.701 18.773-13.252 37.282-21.803 60.016-27.727a8.26 8.26 0 0 0 5.909-10.074c-1.151-4.413-5.666-7.059-10.074-5.91-24.743 6.448-44.905 15.767-65.366 30.21-38.853 27.341-66.481 64.473-84.5 113.617C-1.31 263.5-3.777 307.623 5.582 351.231c8.985 41.869 28.347 81.451 55.99 114.47a8.26 8.26 0 0 0 13.39-9.591c-47.839-78.704-47.419-172.757 1.07-239.64 2.047-2.726 4.108-5.13 6.29-7.676 2.155-2.514 4.379-5.109 6.637-8.082 11.501-11.442 26.428-23.766 44.097-32.824-14.461 11.979-26.923 26.877-36.782 44.226-20.414 35.921-27.775 79.998-20.196 120.929l.023.116c6.565 32.828 16.714 57.246 33.929 81.635 27.342 38.854 64.474 66.481 113.619 84.501 24.02 8.451 49.584 12.706 75.651 12.706 17.195 0 34.612-1.852 51.944-5.572 41.869-8.985 81.452-28.347 114.47-55.99a8.26 8.26 0 0 0-9.594-13.39z"/></svg>