<svg xmlns="http://www.w3.org/2000/svg" viewBox="0 0 511.999 511.999" style="enable-background:new 0 0 511.999 511.999" xml:space="preserve"><path transform="rotate(-134.999 97.22 414.781)" style="fill:#ff9478" d="M61.504 393.268h71.431v43.021H61.504z"/><path transform="rotate(-134.999 275.84 236.166)" style="fill:#96c8ef" d="M183.067 193.823h185.544v84.682H183.067z"/><path style="fill:#ffde75" d="M180.299 200.497 67.361 313.435c-11.35 11.35-11.35 29.752 0 41.102l90.101 90.101c11.35 11.35 29.752 11.35 41.102 0L311.502 331.7 180.299 200.497z"/><path transform="rotate(-134.999 373.332 138.668)" style="fill:#96c8ef" d="M348.857 100.556h48.947v76.222h-48.947z"/><path transform="rotate(-134.999 326.088 185.917)" style="fill:#4d7c90" d="M205.074 157.205h242.025v57.421H205.074z"/><path transform="rotate(-134.999 417.957 94.044)" style="fill:#ff6243" d="M324.094 69.048h187.724v49.99H324.094z"/><path d="M180.627 410.633a9.84 9.84 0 0 1-3.82-.76 9.87 9.87 0 0 1-3.25-2.17 9.57 9.57 0 0 1-1.24-1.52c-.36-.54-.67-1.12-.92-1.72a9.81 9.81 0 0 1-.57-1.87c-.13-.65-.2-1.31-.2-1.96 0-.65.07-1.31.2-1.95.12-.64.32-1.27.57-1.87.25-.61.56-1.19.92-1.73.36-.55.78-1.06 1.24-1.52.46-.46.97-.88 1.52-1.24a9.87 9.87 0 0 1 1.73-.92c.6-.25 1.23-.44 1.87-.57 1.29-.26 2.61-.26 3.9 0 .64.13 1.27.32 1.87.57.61.25 1.19.56 1.73.92.55.36 1.06.78 1.52 1.24.46.46.88.97 1.24 1.52.36.539.67 1.12.92 1.73.25.6.45 1.23.57 1.87.13.64.2 1.3.2 1.95 0 .65-.07 1.31-.2 1.96a9.81 9.81 0 0 1-.57 1.87c-.25.6-.56 1.18-.92 1.72a9.57 9.57 0 0 1-1.24 1.52 9.87 9.87 0 0 1-3.25 2.17 9.84 9.84 0 0 1-3.82.76z"/><path d="M509.071 135.667 376.333 2.928c-3.905-3.904-10.235-3.904-14.143 0l-35.35 35.348a10.001 10.001 0 0 0 0 14.142l41.993 41.992-39.756 39.756-61.193-61.193c-3.906-3.905-10.237-3.904-14.143 0l-40.605 40.605a10.001 10.001 0 0 0 0 14.142l12.896 12.896-22.026 22.025-.005.005-30.775 30.775-30.416 30.416-.005.005-.005.005-82.512 82.512c-15.23 15.23-15.23 40.013 0 55.246l12.725 12.725-23.332 23.332a9.999 9.999 0 0 0 0 14.142l18.183 18.183-64.935 64.94c-3.905 3.905-3.905 10.237 0 14.143 1.953 1.953 4.512 2.929 7.071 2.929s5.119-.976 7.071-2.929l64.936-64.936 18.183 18.183a10.001 10.001 0 0 0 14.142 0l23.332-23.332 12.725 12.725c7.378 7.378 17.189 11.441 27.623 11.441 10.434 0 20.245-4.063 27.623-11.441l165.744-165.743 12.896 12.896a9.968 9.968 0 0 0 7.071 2.929c2.56 0 5.118-.976 7.071-2.929l40.604-40.605a10.001 10.001 0 0 0 0-14.142l-61.193-61.193 39.756-39.756 41.992 41.992a9.968 9.968 0 0 0 7.071 2.929c2.56 0 5.118-.976 7.071-2.929l35.349-35.349c3.909-3.906 3.909-10.238.004-14.143zm-210.365 77.626 27.56 27.561-45.733 45.733-86.091-86.091 16.637-16.636 46.266 46.266a9.968 9.968 0 0 0 7.071 2.929c2.56 0 5.118-.976 7.071-2.929 3.905-3.905 3.905-10.237 0-14.142l-46.266-46.266 14.953-14.953 58.532 58.528zM107.261 441.102l-18.178-18.178-.005-.005-.005-.005-18.178-18.178 16.261-16.26 36.364 36.364-16.259 16.262zm84.23-3.536c-7.433 7.432-19.527 7.433-26.96 0l-19.488-19.488c-.099-.108-.189-.22-.294-.325l-50.506-50.507c-.104-.104-.217-.194-.324-.293l-19.488-19.488c-7.433-7.433-7.433-19.528 0-26.96l14.244-14.244 24.624 24.624c1.953 1.953 4.512 2.929 7.071 2.929s5.119-.976 7.071-2.929c3.905-3.905 3.905-10.237 0-14.143l-24.624-24.624 16.457-16.457 46.265 46.265c1.953 1.953 4.512 2.929 7.071 2.929s5.119-.977 7.071-2.929c3.905-3.905 3.905-10.237 0-14.142l-46.266-46.266 16.457-16.457 24.624 24.624a9.968 9.968 0 0 0 7.071 2.929 9.966 9.966 0 0 0 7.071-2.929c3.905-3.905 3.905-10.237 0-14.143l-24.624-24.624 16.278-16.278 86.091 86.091-65.031 65.032c-3.905 3.905-3.905 10.237 0 14.143 1.953 1.953 4.512 2.929 7.071 2.929s5.119-.977 7.071-2.929l65.031-65.032 16.827 16.826-105.861 105.866zm120.011-120.009-16.826-16.827 45.733-45.734 16.826 16.826-45.733 45.735zm79.844-39.909-12.896-12.896-131.203-131.203a.018.018 0 0 0-.005-.004l-12.892-12.892 26.462-26.462L322 155.379l.005.005 34.611 34.611 61.192 61.192-26.462 26.461zM363.687 168.78l-20.469-20.469 39.756-39.757 20.469 20.469-39.756 39.757zm102.963-4.836-41.988-41.988-.005-.005-34.611-34.611-41.992-41.992 21.207-21.207 118.595 118.596-21.206 21.207z"/></svg>