<svg xmlns="http://www.w3.org/2000/svg" viewBox="0 0 512.001 512.001" style="enable-background:new 0 0 512.001 512.001" xml:space="preserve"><path style="fill:#dbdbdb" d="M495.069 94.016c-12.392 12.382-32.472 12.382-44.864 0a45.035 45.035 0 0 1-1.171-1.232L155.096 386.722 92.78 449.038c.417.377.835.764 1.232 1.171 12.392 12.382 12.392 32.472 0 44.864-12.392 12.382-32.472 12.382-44.864 0-6.323-6.333-9.409-14.663-9.276-22.941-8.289.132-16.618-2.963-22.941-9.286-12.392-12.382-12.392-32.472 0-44.864 12.382-12.382 32.472-12.382 44.864 0 .397.407.784.815 1.161 1.232L419.209 62.96a26.905 26.905 0 0 1-1.222-1.171c-12.392-12.382-12.392-32.472 0-44.864 12.382-12.382 32.472-12.382 44.864 0 6.323 6.323 9.409 14.653 9.276 22.941 8.289-.132 16.618 2.963 22.941 9.286 12.393 12.382 12.393 32.472.001 44.864z"/><path style="fill:#dbdbdb" d="M495.069 462.846c-6.323 6.323-14.653 9.419-22.941 9.286.132 8.278-2.953 16.608-9.276 22.941-12.392 12.382-32.482 12.382-44.864 0-12.392-12.392-12.392-32.482 0-44.864a26.39 26.39 0 0 1 1.222-1.171l-62.317-62.317-8.217-8.217-92.681-92.681-29.824-29.824-122.455-122.454-40.76-40.76c-.377.417-.764.825-1.161 1.232-12.392 12.382-32.482 12.382-44.864 0-12.392-12.392-12.392-32.482 0-44.864 6.323-6.323 14.653-9.419 22.941-9.286-.132-8.289 2.953-16.618 9.276-22.941 12.392-12.382 32.472-12.382 44.864 0 12.392 12.392 12.392 32.482 0 44.864-.397.407-.815.794-1.232 1.171l32.594 32.594 130.621 130.621L285.819 256l95.237 95.237 9.51 9.51 58.468 58.468c.377-.417.774-.825 1.171-1.232 12.392-12.382 32.472-12.382 44.864 0 12.392 12.391 12.392 32.481 0 44.863z"/><path style="fill:#c1c0bf" d="m381.055 351.236 9.51 9.51h-1.914c-8.655 0-16.781 3.37-22.911 9.49-4.572 4.582-7.606 10.284-8.849 16.485l-8.217-8.217-92.681-92.681-100.897 100.899c-2.983-14.795-16.088-25.975-31.749-25.975h-1.924L226.17 255.999 103.716 133.545l-7.779-7.779a174.646 174.646 0 0 1 22.177-37.471l7.26 7.26 130.621 130.621 137.88-137.882a173.788 173.788 0 0 1 22.177 37.471L285.819 255.999l95.236 95.237z"/><path style="fill:#dbdbdb" d="M399.791 194.864v135.335h-11.14c-17.381 0-33.113 7.046-44.508 18.44-11.384 11.384-18.43 27.116-18.43 44.497v35.985c0 17.565-14.235 31.8-31.8 31.8h-75.839c-17.555 0-31.79-14.235-31.79-31.8v-35.985c0-34.753-28.185-62.938-62.938-62.938h-11.14V194.864c0-79.413 64.374-143.787 143.787-143.787s143.798 64.374 143.798 143.787z"/><path style="fill:#c1c0bf" d="M159.343 296.986c1.174 14.408 8.604 27.556 20.276 36.084 16.755 12.24 39.453 39.729 39.453 98.832 0 12.005 2.159 21.536 5.916 29.02h-6.914c-17.555 0-31.79-14.235-31.79-31.8v-35.985c0-34.76-28.178-62.938-62.938-62.938h-11.14V194.864c0-79.413 64.374-143.787 143.787-143.787-35.325 0-112.355 53.132-96.65 245.909z"/><path style="fill:#423d3d" d="M256.482 283.702h-.968c-14.171 0-25.66 11.488-25.66 25.66v15.493c0 7.219 5.853 13.072 13.072 13.072 7.219 0 13.072-5.853 13.072-13.072 0 7.219 5.853 13.072 13.072 13.072s13.072-5.853 13.072-13.072v-15.493c0-14.173-11.488-25.66-25.66-25.66z"/><circle style="fill:#423d3d" cx="327.601" cy="243.777" r="42.604"/><circle style="fill:#423d3d" cx="184.405" cy="243.777" r="42.604"/><path d="m62.673 103.302 35.643 35.643c1.491 1.491 3.446 2.237 5.4 2.237s3.909-.745 5.4-2.237a7.637 7.637 0 0 0 0-10.8l-40.76-40.76a7.627 7.627 0 0 0-5.597-2.234 7.632 7.632 0 0 0-5.474 2.52c-.299.332-.608.656-.923.98-9.4 9.353-24.655 9.341-34.031-.034a23.937 23.937 0 0 1-7.056-17.036c0-6.433 2.505-12.48 7.057-17.028 4.651-4.651 10.811-7.15 17.419-7.05a7.638 7.638 0 0 0 7.758-7.758c-.105-6.588 2.396-12.774 7.039-17.417 9.392-9.384 24.675-9.386 34.065-.002a23.93 23.93 0 0 1 7.057 17.035c0 6.433-2.506 12.48-7.055 17.025l-.074.074c-.281.289-.58.562-.877.829a7.64 7.64 0 0 0-.284 11.069l32.594 32.594a7.637 7.637 0 0 0 10.8-10.8l-27.475-27.475c4.964-6.716 7.644-14.81 7.644-23.318 0-10.514-4.095-20.401-11.534-27.838-15.345-15.331-40.313-15.332-55.661.003-5.867 5.867-9.642 13.234-10.977 21.243-8.002 1.337-15.369 5.114-21.239 10.983C4.095 51.181 0 61.065 0 71.58c0 10.514 4.094 20.401 11.531 27.836 13.913 13.914 35.746 15.21 51.142 3.886zM449.321 408.701l-24.609-24.609a7.637 7.637 0 0 0-10.8 10.799l29.723 29.723a7.635 7.635 0 0 0 11.067-.282c.297-.329.612-.651.934-.981 9.395-9.352 24.653-9.339 34.033.032a23.934 23.934 0 0 1 7.057 17.035c0 6.433-2.505 12.481-7.057 17.028-4.652 4.651-10.847 7.153-17.418 7.05a7.593 7.593 0 0 0-5.522 2.236 7.638 7.638 0 0 0-2.236 5.522c.105 6.58-2.397 12.768-7.039 17.417-9.396 9.388-24.678 9.39-34.065.002a23.93 23.93 0 0 1-7.057-17.035c0-6.433 2.506-12.48 7.055-17.026l.071-.073c.282-.289.572-.563.869-.831a7.64 7.64 0 0 0 .284-11.069l-70.534-70.534a7.636 7.636 0 1 0-10.799 10.8l65.42 65.421c-4.96 6.715-7.639 14.807-7.639 23.313 0 10.514 4.095 20.401 11.532 27.836 7.669 7.67 17.746 11.506 27.826 11.505 10.08 0 20.163-3.837 27.842-11.509 5.864-5.873 9.637-13.237 10.972-21.238 8.003-1.337 15.369-5.114 21.24-10.983 7.437-7.431 11.533-17.315 11.533-27.831 0-10.514-4.094-20.4-11.533-27.838-13.922-13.909-35.758-15.202-51.15-3.88z"/><path d="M386.456 345.835a7.637 7.637 0 0 0-10.8 10.8l21.204 21.204a7.61 7.61 0 0 0 5.4 2.237 7.637 7.637 0 0 0 5.4-13.037l-21.204-21.204zM392.025 100.944l32.584-32.584a7.633 7.633 0 0 0-.284-11.069 19.303 19.303 0 0 1-.867-.829l-.074-.074c-4.55-4.545-7.055-10.592-7.055-17.025a23.932 23.932 0 0 1 7.057-17.035c9.388-9.388 24.67-9.387 34.063 0 4.645 4.645 7.146 10.831 7.041 17.419a7.638 7.638 0 0 0 7.758 7.758c6.593-.106 12.768 2.399 17.421 7.053 4.549 4.545 7.055 10.593 7.055 17.026a23.933 23.933 0 0 1-7.055 17.034c-9.393 9.385-24.676 9.385-34.024.045-.32-.329-.641-.657-.946-.993a7.631 7.631 0 0 0-5.473-2.516 7.619 7.619 0 0 0-5.594 2.234l-40.76 40.76a7.637 7.637 0 0 0 10.8 10.8l35.647-35.647c15.391 11.322 37.227 10.029 51.148-3.882 7.436-7.435 11.531-17.321 11.531-27.836 0-10.515-4.095-20.4-11.531-27.828-5.871-5.871-13.237-9.649-21.241-10.986-1.335-8.009-5.111-15.376-10.979-21.245-15.352-15.339-40.322-15.338-55.661.002-7.436 7.435-11.532 17.321-11.532 27.836 0 8.505 2.679 16.597 7.64 23.313l-27.471 27.471a7.637 7.637 0 0 0 0 10.8 7.642 7.642 0 0 0 10.802-.002zM157.924 373.094 87.38 443.638a7.633 7.633 0 0 0 .284 11.069c.297.268.596.541.879.831l.071.073c4.55 4.546 7.055 10.593 7.055 17.026a23.93 23.93 0 0 1-7.055 17.033c-9.392 9.385-24.674 9.385-34.061.006-4.647-4.655-7.149-10.842-7.044-17.423a7.636 7.636 0 0 0-7.758-7.758c-6.593.1-12.767-2.399-17.42-7.052-4.552-4.546-7.056-10.592-7.056-17.026s2.506-12.485 7.057-17.035c9.376-9.375 24.629-9.386 34.03-.034.315.324.623.648.923.98a7.637 7.637 0 0 0 11.071.286l67.978-67.978a7.636 7.636 0 1 0-10.8-10.799l-62.86 62.859c-15.394-11.321-37.229-10.027-51.142 3.886C4.094 420.017 0 429.903 0 440.417c0 10.515 4.095 20.4 11.531 27.829 5.872 5.872 13.237 9.65 21.242 10.986 1.336 8 5.11 15.366 10.978 21.244 7.672 7.666 17.75 11.5 27.829 11.499 10.079 0 20.159-3.834 27.833-11.501 7.436-7.435 11.532-17.321 11.532-27.836 0-8.507-2.681-16.602-7.644-23.319l65.424-65.424a7.637 7.637 0 0 0-10.801-10.801zM255.515 276.065c-18.36 0-33.297 14.937-33.297 33.297v15.493c0 11.419 9.29 20.708 20.708 20.708 4.953 0 9.504-1.747 13.071-4.658a20.611 20.611 0 0 0 13.072 4.658c11.419 0 20.708-9.289 20.708-20.708v-15.493c0-18.36-14.937-33.297-33.297-33.297h-.965zm18.99 33.295v15.493a5.44 5.44 0 0 1-5.434 5.434 5.44 5.44 0 0 1-5.435-5.434 7.637 7.637 0 1 0-15.274 0 5.44 5.44 0 0 1-5.434 5.434 5.44 5.44 0 0 1-5.434-5.434V309.36c0-9.938 8.085-18.023 18.023-18.023h.968c9.935.001 18.02 8.086 18.02 18.023zM327.597 294.014c27.703 0 50.241-22.538 50.241-50.241s-22.538-50.241-50.241-50.241-50.241 22.538-50.241 50.241 22.538 50.241 50.241 50.241zm0-85.208c19.282 0 34.968 15.686 34.968 34.968s-15.686 34.968-34.968 34.968c-19.282 0-34.968-15.686-34.968-34.968s15.687-34.968 34.968-34.968zM184.4 193.533c-27.703 0-50.241 22.538-50.241 50.241s22.538 50.241 50.241 50.241 50.241-22.538 50.241-50.241c.001-27.703-22.538-50.241-50.241-50.241zm0 85.208c-19.282 0-34.968-15.686-34.968-34.968s15.686-34.968 34.968-34.968 34.968 15.686 34.968 34.968-15.687 34.968-34.968 34.968z"/><path d="M388.653 337.838h11.136a7.637 7.637 0 0 0 7.637-7.637V194.866c0-83.496-67.929-151.427-151.427-151.427s-151.426 67.929-151.426 151.427v59.86a7.637 7.637 0 1 0 15.274 0v-59.86c0-75.074 61.077-136.153 136.153-136.153 75.074 0 136.152 61.078 136.152 136.153v127.697h-3.499c-36.334 0-66.335 27.603-70.155 62.938h-19.036V364.09a7.637 7.637 0 1 0-15.274 0v21.411h-20.553V364.09a7.637 7.637 0 1 0-15.274 0v21.411h-20.552V364.09a7.637 7.637 0 1 0-15.274 0v21.411h-19.036c-3.82-35.335-33.821-62.938-70.155-62.938h-3.499v-42.379a7.637 7.637 0 1 0-15.274 0V330.2a7.637 7.637 0 0 0 7.637 7.637h11.136c30.493 0 55.302 24.809 55.302 55.301v35.984c0 21.744 17.69 39.434 39.433 39.434h75.84c21.744 0 39.433-17.69 39.433-39.434v-35.984c-.001-30.493 24.807-55.3 55.301-55.3zm-70.576 91.285c0 .416-.01.83-.032 1.241-.46 9.046-5.919 16.795-13.663 20.532a24.026 24.026 0 0 1-10.465 2.386h-75.84c-3.746 0-7.297-.857-10.465-2.386-7.744-3.737-13.203-11.486-13.663-20.532a24.325 24.325 0 0 1-.032-1.241v-28.347h18.616v18.508a7.637 7.637 0 1 0 15.274 0v-18.508h20.552v18.508a7.637 7.637 0 1 0 15.274 0v-18.508h20.553v18.508a7.637 7.637 0 1 0 15.274 0v-18.508h18.616v28.347z"/></svg>