<svg xmlns="http://www.w3.org/2000/svg" width="512" height="512" viewBox="0 0 57 60"><g fill-rule="nonzero" fill="none"><path d="M44.31 10.06c0 6.04-3.62 8.46-6.04 10.88-1.34 1.34-4.35 3.98-6.77 6.06h-7c-.37-.32-.76-.66-1.16-1h5.16c2.42-2.08 5.43-4.72 6.77-6.06 2.42-2.42 6.04-4.84 6.04-10.88 0-3.94-1.54-6.59-3.95-7.95 4.06.57 6.95 3.56 6.95 8.95Z" fill="#BB193B"/><path d="M41.31 9.06c0 6.04-3.62 8.46-6.04 10.88-1.34 1.34-4.35 3.98-6.77 6.06h-5.16c-2.15-1.87-4.48-3.93-5.61-5.06-2.42-2.42-6.04-4.84-6.04-10.88 0-6.04 3.62-9.06 8.46-9.06.408 0 .815.027 1.22.08a8.524 8.524 0 0 1 4.66 2.2A9.276 9.276 0 0 1 28 5.83 8.89 8.89 0 0 1 35.85 1a9.336 9.336 0 0 1 1.51.11c2.41 1.36 3.95 4.01 3.95 7.95Z" fill="#EF314C"/><path d="M35 12.75c0 2.5-1.54 3.5-2.56 4.5S28.08 21 28.08 21s-3.34-2.75-4.36-3.75c-.35-.34-.76-.68-1.15-1.08a4.584 4.584 0 0 1-1.42-3.42A3.4 3.4 0 0 1 24.74 9a3.8 3.8 0 0 1 3.34 2 3.767 3.767 0 0 1 3.33-2c.4-.005.797.049 1.18.16A3.375 3.375 0 0 1 35 12.75Z" fill="#6A1B9A"/><path d="M32.85 10.75c0 2.5-1.54 3.5-2.57 4.5-1.03 1-4.36 3.75-4.36 3.75s-1.97-1.63-3.35-2.83a4.584 4.584 0 0 1-1.42-3.42A3.4 3.4 0 0 1 24.74 9a3.8 3.8 0 0 1 3.34 2 3.767 3.767 0 0 1 3.33-2c.4-.005.797.049 1.18.16.181.51.27 1.049.26 1.59Z" fill="#9D27B0"/><path d="M41 56a3 3 0 0 1-3 3H28a3 3 0 0 1-3-3V32h6v6a3 3 0 0 0 3 3h2a3 3 0 0 1 0 6h-2a3 3 0 0 0 0 6h4a3 3 0 0 1 3 3Z" fill="#FEC108"/><path d="M38 56a3 3 0 0 1-3 3h-8a3 3 0 0 1-3-3V32h4v6a3 3 0 0 0 3 3h2a3 3 0 0 1 0 6h-2a3 3 0 0 0 0 6h4a3 3 0 0 1 3 3Z" fill="#FFDC00"/><path d="M34 29.5a2.492 2.492 0 0 1-2.5 2.5h-7a2.5 2.5 0 1 1 0-5h7a2.5 2.5 0 0 1 2.5 2.5Z" fill="#FDD834"/><path d="M31 29.5a2.492 2.492 0 0 1-2.5 2.5h-4a2.5 2.5 0 1 1 0-5h4a2.5 2.5 0 0 1 2.5 2.5Z" fill="#FFEB3A"/><path d="M28.077 22a.994.994 0 0 1-.636-.229c-.138-.113-3.378-2.788-4.421-3.8-.135-.132-.279-.262-.427-.4a6.041 6.041 0 0 1-2.439-4.818A4.378 4.378 0 0 1 24.744 8a4.732 4.732 0 0 1 3.333 1.357A4.728 4.728 0 0 1 31.41 8 4.378 4.378 0 0 1 36 12.75a6.044 6.044 0 0 1-2.439 4.818c-.148.136-.292.266-.427.4-1.044 1.017-4.283 3.692-4.421 3.805a.992.992 0 0 1-.636.227Zm-3.333-12c-.968 0-2.59.357-2.59 2.75a4.128 4.128 0 0 0 1.786 3.341c.165.15.326.3.476.443.716.7 2.649 2.323 3.661 3.166 1.011-.843 2.944-2.468 3.661-3.166.15-.146.31-.293.475-.443A4.129 4.129 0 0 0 34 12.75c0-2.393-1.623-2.75-2.59-2.75-1.02 0-1.958.56-2.443 1.456a1 1 0 0 1-1.778.001A2.784 2.784 0 0 0 24.744 10Z" fill="#000"/><path d="M31.5 28a1 1 0 0 1-.652-1.758c1.511-1.3 5.192-4.486 6.715-6.009.342-.342.707-.684 1.083-1.036 2.293-2.146 4.664-4.365 4.664-9.137 0-5.047-2.789-8.06-7.46-8.06a7.9 7.9 0 0 0-6.95 4.274 1.041 1.041 0 0 1-1.792 0A7.9 7.9 0 0 0 20.15 2c-4.671 0-7.46 3.013-7.46 8.06 0 4.772 2.371 6.991 4.664 9.137.376.352.741.694 1.083 1.036 1.523 1.523 5.2 4.709 6.715 6.009a1 1 0 1 1-1.3 1.516c-1.9-1.632-5.31-4.6-6.825-6.111-.327-.327-.676-.653-1.035-.989-2.361-2.209-5.3-4.958-5.3-10.6C10.69 3.855 14.315 0 20.15 0A9.686 9.686 0 0 1 28 3.977 9.686 9.686 0 0 1 35.85 0c5.835 0 9.461 3.855 9.461 10.06 0 5.64-2.938 8.389-5.3 10.6-.359.336-.708.662-1.035.989-1.515 1.515-4.926 4.479-6.825 6.111a1 1 0 0 1-.651.24ZM38 60H28a4 4 0 0 1-4-4V32a1 1 0 0 1 2 0v24a2 2 0 0 0 2 2h10a2 2 0 1 0 0-4h-4a4 4 0 1 1 0-8h2a2 2 0 1 0 0-4h-2a4 4 0 0 1-4-4v-6a1 1 0 0 1 2 0v6a2 2 0 0 0 2 2h2a4 4 0 1 1 0 8h-2a2 2 0 1 0 0 4h4a4 4 0 1 1 0 8Z" fill="#000"/><path d="M15.69 11.06a1 1 0 0 1-1-1c0-5.009 2.969-6.06 5.46-6.06a1 1 0 0 1 0 2c-1.711 0-3.46.482-3.46 4.06a1 1 0 0 1-1 1ZM6 23a1 1 0 0 1-1-1v-1a1 1 0 0 1 2 0v1a1 1 0 0 1-1 1ZM9 25H8a1 1 0 0 1 0-2h1a1 1 0 0 1 0 2ZM6 28a1 1 0 0 1-1-1v-1a1 1 0 0 1 2 0v1a1 1 0 0 1-1 1ZM4 25H3a1 1 0 0 1 0-2h1a1 1 0 0 1 0 2ZM51 4a1 1 0 0 1-1-1V2a1 1 0 0 1 2 0v1a1 1 0 0 1-1 1ZM49 6h-1a1 1 0 0 1 0-2h1a1 1 0 0 1 0 2ZM54 6h-1a1 1 0 0 1 0-2h1a1 1 0 0 1 0 2ZM51 9a1 1 0 0 1-1-1V7a1 1 0 0 1 2 0v1a1 1 0 0 1-1 1ZM50 22a1 1 0 0 1-1-1v-1a1 1 0 0 1 2 0v1a1 1 0 0 1-1 1ZM53 24h-1a1 1 0 0 1 0-2h1a1 1 0 0 1 0 2ZM50 27a1 1 0 0 1-1-1v-1a1 1 0 0 1 2 0v1a1 1 0 0 1-1 1ZM48 24h-1a1 1 0 0 1 0-2h1a1 1 0 0 1 0 2ZM4 4a1 1 0 0 1-1-1V2a1 1 0 1 1 2 0v1a1 1 0 0 1-1 1ZM7 6H6a1 1 0 1 1 0-2h1a1 1 0 1 1 0 2ZM4 9a1 1 0 0 1-1-1V7a1 1 0 1 1 2 0v1a1 1 0 0 1-1 1ZM2 6H1a1 1 0 1 1 0-2h1a1 1 0 1 1 0 2ZM31.5 33h-7a3.5 3.5 0 0 1 0-7h7a3.5 3.5 0 0 1 0 7Zm-7-5a1.5 1.5 0 0 0 0 3h7a1.5 1.5 0 0 0 0-3h-7ZM45 35a1 1 0 0 1-1-1v-1a1 1 0 0 1 2 0v1a1 1 0 0 1-1 1ZM48 37h-1a1 1 0 0 1 0-2h1a1 1 0 0 1 0 2ZM45 40a1 1 0 0 1-1-1v-1a1 1 0 0 1 2 0v1a1 1 0 0 1-1 1ZM43 37h-1a1 1 0 0 1 0-2h1a1 1 0 0 1 0 2ZM53 51a1 1 0 0 1-1-1v-1a1 1 0 0 1 2 0v1a1 1 0 0 1-1 1ZM56 53h-1a1 1 0 0 1 0-2h1a1 1 0 0 1 0 2ZM53 56a1 1 0 0 1-1-1v-1a1 1 0 0 1 2 0v1a1 1 0 0 1-1 1ZM51 53h-1a1 1 0 0 1 0-2h1a1 1 0 0 1 0 2ZM15 38a1 1 0 0 1-1-1v-1a1 1 0 0 1 2 0v1a1 1 0 0 1-1 1ZM18 40h-1a1 1 0 0 1 0-2h1a1 1 0 0 1 0 2ZM15 43a1 1 0 0 1-1-1v-1a1 1 0 0 1 2 0v1a1 1 0 0 1-1 1ZM13 40h-1a1 1 0 0 1 0-2h1a1 1 0 0 1 0 2ZM5 50a1 1 0 0 1-1-1v-1a1 1 0 0 1 2 0v1a1 1 0 0 1-1 1ZM3 52H2a1 1 0 0 1 0-2h1a1 1 0 0 1 0 2ZM8 52H7a1 1 0 0 1 0-2h1a1 1 0 0 1 0 2ZM5 55a1 1 0 0 1-1-1v-1a1 1 0 0 1 2 0v1a1 1 0 0 1-1 1Z" fill="#000"/></g></svg>