<svg height="512" width="512" xmlns="http://www.w3.org/2000/svg"><path d="M303.181 12.758 406.98 66.23l22.018 112.187-46.133 54.521 19.921 107.992-29.357 58.715-45.084 31.454-36.697 73.393-44.036-12.581 48.23-102.751 34.6-9.436 24.115-33.551-30.406-118.478 22.018-32.502 8.388-90.169z" fill="#a0a0a0"/><path d="M428.998 178.417 406.98 66.23l-18.759-9.664 22.742 115.875-46.133 54.52 19.921 107.993-29.358 58.715-45.084 31.454-37.057 74.113 18.396 5.256 36.697-73.393 45.084-31.454 29.357-58.715-19.921-107.992z" fill="#8e8e8e"/><path d="M263.459 32.679 182.607 7.516 83.002 166.884l39.842 53.472 3.145 80.733 71.296 69.199 50.327 121.623 48.23-102.751 34.6-9.436 24.115-33.551-30.406-118.478 22.018-32.502 8.388-90.169-51.376-92.266z" fill="#e0e0e0"/><path d="m346.169 195.193 8.388-90.169-51.376-92.266-14.098 7.071 47.438 85.195-8.388 90.169-22.018 32.502 29.419 114.632-16.09 21.599-33.618 8.15-46.664 99.414 8.45 20.421 48.23-102.751 34.6-9.436 24.115-33.551-30.406-118.478z" fill="#ccc"/><path d="M403.466 303.191a7.52 7.52 0 0 0-8.753-6.027 7.516 7.516 0 0 0-6.027 8.754l6.254 33.902-27.378 54.755-43.517 30.36a7.528 7.528 0 0 0-2.422 2.802l-33.908 67.815-29.549-8.442 43.002-91.614 31.25-8.523a7.51 7.51 0 0 0 4.124-2.864l24.116-33.551a7.515 7.515 0 0 0 1.177-6.253L332.27 229.107l20.119-29.7a7.51 7.51 0 0 0 1.261-3.519l2.537-27.27a7.515 7.515 0 0 0-6.787-8.178c-4.141-.396-7.795 2.654-8.178 6.787l-2.358 25.349-20.936 30.906a7.516 7.516 0 0 0-1.058 6.082l29.534 115.075-20.511 28.537-32.03 8.736a7.514 7.514 0 0 0-4.825 4.057l-40.994 87.336-43.816-105.888a7.519 7.519 0 0 0-1.71-2.52l-27.217-26.417a7.514 7.514 0 0 0-10.626.159 7.514 7.514 0 0 0 .158 10.626l26.102 25.334 49.732 120.186c.874 2.09 2.696 3.732 4.879 4.353l44.036 12.581c3.436.98 7.189-.67 8.786-3.865l35.842-71.685 43.517-30.361a7.528 7.528 0 0 0 2.422-2.802l29.358-58.714a7.517 7.517 0 0 0 .669-4.724z"/><path d="M436.372 176.97 414.354 64.784a7.512 7.512 0 0 0-3.932-5.233L306.698 6.117c-2.131-1.109-4.729-1.16-6.885-.076l-37.014 18.563L184.84.34a7.514 7.514 0 0 0-8.606 3.193L76.629 162.901a7.516 7.516 0 0 0 .346 8.473l38.45 51.603 3.055 78.404a7.51 7.51 0 0 0 2.275 5.1l22.467 21.806c3.177 3.084 8.484 2.696 11.188-.807 2.304-2.985 1.983-7.354-.72-9.978l-20.309-19.712-2.471-63.408 28.989 18.418c2.46 1.563 5.693 1.545 8.135-.048l18.775-12.246 25.233-4.861a7.515 7.515 0 0 0 5.957-8.801c-.786-4.075-4.727-6.749-8.801-5.957l-26.681 5.14a7.511 7.511 0 0 0-2.683 1.084l-15.959 10.408-35.833-22.765-35.948-48.245L185.906 16.41l75.318 23.442a7.516 7.516 0 0 0 5.602-.458l33.289-16.695 46.742 83.944L344 137.35a7.514 7.514 0 0 0 6.787 8.178c4.139.375 7.794-2.654 8.178-6.787l3.072-33.025a7.506 7.506 0 0 0-.917-4.351l-39.28-70.543 78.464 40.422 20.623 105.074-43.8 51.763a7.518 7.518 0 0 0-1.654 6.217l7.499 40.654c.763 4.135 4.926 6.885 9.03 5.971 3.892-.866 6.474-4.779 5.751-8.697l-6.854-37.154 43.834-51.803a7.5 7.5 0 0 0 1.639-6.299z"/></svg>