<svg xmlns="http://www.w3.org/2000/svg" viewBox="0 0 511.999 511.999" style="enable-background:new 0 0 511.999 511.999" xml:space="preserve"><path style="fill:#ecf8fd" d="m422.555 87.386 84.306 89.39H379.374z"/><path style="fill:#cbedf9" d="m256.008 87.386 123.366 91.446 43.181-91.446z"/><path style="fill:#aae2f5" d="M506.861 176.776 256.008 424.611l123.366-247.835z"/><path style="fill:#7dd2f0" d="M90.471 87.386 7.193 177.804l128.515 1.028z"/><path style="fill:#64b9dc" d="m256.008 87.386-120.3 91.446-45.237-91.446z"/><path style="fill:#aae2f5" d="m256.008 87.386-122.356 90.418 245.722 1.028z"/><path style="fill:#7dd2f0" d="m133.652 177.804 122.356 246.807 124.394-246.807z"/><path style="fill:#64b9dc" d="m7.193 177.804 248.815 246.807-122.356-246.807z"/><path style="fill:#2d2b29" d="m504.812 160.648-72.779-72.78c-5.734-5.733-12.606-8.764-19.874-8.764H100.613c-7.442 0-15.168 3.283-20.667 8.782l-72.72 72.716C2.566 165.262 0 171.456 0 178.044a24.503 24.503 0 0 0 7.225 17.441l229.2 229.2c4.877 4.877 11.254 7.709 18.091 8.068.065.012.131.021.196.03.08.013.158.029.239.04.058.007.116.017.174.023.168.017.339.022.511.029.119.005.238.021.357.021l.006-.001.006.001c.118 0 .238-.015.357-.021.172-.008.342-.012.511-.029.059-.006.116-.016.175-.023.08-.011.158-.027.238-.04.066-.01.133-.018.197-.03 6.836-.36 13.212-3.19 18.09-8.067L504.79 195.463c9.603-9.604 9.615-25.221.022-34.815zm-347.064 9.045 90.026-66.019v66.019h-90.026zm90.026 16.45v203.683L145.932 186.143h101.842zM135.621 165.52l-34.983-69.966h130.391l-95.408 69.966zm98.313 233.412L21.146 186.143H127.54l106.394 212.789zm120.33-170.795a8.225 8.225 0 0 0-11.035 3.678l-79.005 158.01V186.143h16.452a8.226 8.226 0 0 0 0-16.45h-16.452v-66.019l69.117 50.687a8.192 8.192 0 0 0 4.858 1.594 8.226 8.226 0 0 0 4.872-14.86l-62.102-45.541H411.36l-37.069 74.138h-60.72a8.226 8.226 0 0 0 0 16.45h52.495l-6.385 12.77a8.225 8.225 0 0 0 3.679 11.035c1.18.59 2.436.871 3.671.871a8.225 8.225 0 0 0 7.363-4.548l10.064-20.128h106.388L278.064 398.93l79.878-159.757a8.227 8.227 0 0 0-3.678-11.036zm136.329-58.444h-97.911l32.637-65.275 65.274 65.275zM86.678 104.418l32.637 65.275H21.399l65.279-65.275z"/></svg>