<svg height="511pt" viewBox="-26 0 511 512" width="511pt" xmlns="http://www.w3.org/2000/svg"><path d="M425.047 246.852c-61.324-100.286-16.277-149.79.48-163.528 2.817-2.308 2.953-6.558.313-9.062L357.113 9.148c-2.156-2.043-5.488-2.23-7.832-.402-12.36 9.649-53.93 34.7-119.547-.082-65.617 34.781-107.187 9.73-119.546.082-2.344-1.828-5.676-1.64-7.833.402L33.63 74.262c-2.645 2.504-2.504 6.754.312 9.062 16.754 13.739 61.805 63.242.48 163.528-73.62 120.39 22.52 210.468 94.626 215.668 57.078 4.113 86.887 29.8 96.828 40.328a5.307 5.307 0 0 0 7.719 0c9.941-10.528 39.75-36.215 96.828-40.328 72.105-5.2 168.246-95.278 94.625-215.668zm0 0" fill="#f79f48"/><path d="M425.047 246.852c-61.324-100.286-16.277-149.79.48-163.528 2.817-2.308 2.953-6.558.313-9.062L357.113 9.148c-2.156-2.043-5.488-2.23-7.832-.402-4.922 3.84-14.476 10.121-28.336 14.098l54.274 51.418c2.64 2.5 2.504 6.754-.313 9.062-16.758 13.739-61.808 63.239-.48 163.528 73.62 120.39-15.625 174.5-88.371 192.601-33.668 8.379-65.426 35.98-81.633 46.149 10.527 6.605 17.539 13.101 21.453 17.246a5.307 5.307 0 0 0 7.719 0c9.941-10.528 39.746-36.22 96.828-40.332 72.105-5.196 168.246-95.274 94.625-215.664zm0 0" fill="#ef8229"/><path d="M232.785 466.605a5.29 5.29 0 0 1-6.105 0 155.17 155.17 0 0 0-4.848-3.304c-25.137-16.418-56.523-26.403-90.762-28.871-27.882-2.008-65.773-22.844-84.257-58.782C29.436 341.86 33.46 302.402 58.444 261.54c30.184-49.355 41.133-94.723 32.547-134.836-4.086-19.078-12.015-33.984-20.234-45.11a3.077 3.077 0 0 1 .367-4.066l36.55-34.625a3.069 3.069 0 0 1 3.477-.535c13.16 6.512 31.285 12.32 54.09 12.317 20.516 0 41.735-4.758 63.258-14.164a3.084 3.084 0 0 1 2.469 0c21.523 9.406 42.742 14.164 63.258 14.164 22.804 0 40.93-5.805 54.086-12.32a3.082 3.082 0 0 1 3.48.534l36.55 34.63a3.08 3.08 0 0 1 .368 4.066c-8.223 11.125-16.152 26.031-20.234 45.11-8.59 40.112 2.363 85.476 32.546 134.835 24.985 40.86 29.008 80.32 11.63 114.11-18.481 35.933-56.376 56.769-84.255 58.78-34.242 2.47-65.625 12.454-90.761 28.872a155.443 155.443 0 0 0-4.852 3.304zm0 0" fill="#ffe471"/><path d="M401.023 261.543c-30.183-49.36-41.132-94.727-32.546-134.84 4.086-19.078 12.015-33.984 20.234-45.105a3.086 3.086 0 0 0-.367-4.07l-36.551-34.626a3.074 3.074 0 0 0-3.48-.535c-9.47 4.688-21.528 8.996-36.04 11.051l25.45 24.11a3.086 3.086 0 0 1 .367 4.07c-8.219 11.125-16.153 26.027-20.235 45.105-8.585 40.113 2.364 85.48 32.547 134.84 24.985 40.86 29.008 80.316 11.63 114.11-18.481 35.933-52.509 41.34-84.02 51.062-25.617 7.902-51.95 16.172-73.586 26.75 6.07 2.969 11.894 6.238 17.406 9.84a148.96 148.96 0 0 1 4.852 3.3 5.284 5.284 0 0 0 6.101 0 155.474 155.474 0 0 1 4.852-3.3c25.136-16.422 56.52-26.407 90.761-28.875 27.88-2.008 65.774-22.844 84.254-58.778 17.38-33.793 13.356-73.25-11.629-114.109zm0 0" fill="#f2ca20"/><path d="M332.031 247.41c0 56.496-45.8 102.297-102.297 102.297s-102.297-45.8-102.297-102.297 45.801-102.297 102.297-102.297 102.297 45.801 102.297 102.297zm0 0" fill="#f79f48"/><path d="M229.734 145.113a102.62 102.62 0 0 0-25.312 3.157c44.258 11.265 76.988 51.378 76.988 99.14s-32.73 87.875-76.988 99.14a102.596 102.596 0 0 0 25.312 3.157c56.496 0 102.297-45.8 102.297-102.297 0-56.5-45.8-102.297-102.297-102.297zm0 0" fill="#ef8229"/><path d="m231.207 175.102 17.008 46.34c.219.597.773 1 1.41 1.027l49.324 1.855c1.461.055 2.059 1.899.91 2.797l-38.812 30.496a1.563 1.563 0 0 0-.54 1.66l13.477 47.485c.399 1.402-1.168 2.543-2.379 1.73l-41-27.492a1.57 1.57 0 0 0-1.742 0l-41 27.492c-1.21.813-2.777-.328-2.379-1.73l13.477-47.485a1.565 1.565 0 0 0-.54-1.66l-38.812-30.496c-1.148-.898-.55-2.742.91-2.797l49.325-1.855a1.571 1.571 0 0 0 1.414-1.028l17.008-46.336c.5-1.37 2.437-1.37 2.941-.003zm0 0" fill="#ffe471"/><path d="M320.293 126.277c-59.082-26.28-126.457-25.77-185.004 1.735-6.922 3.254-15.113.16-18.297-6.903-3.183-7.062-.156-15.425 6.762-18.675 65.695-30.871 141.367-31.582 207.613-1.95 4.238 1.899 16.313 9.336 10.582 21.594-4.367 9.332-14.004 7.606-21.656 4.2zM229.688 412.297c-36.188 0-72.364-7.899-105.934-23.672-6.918-3.25-9.945-11.613-6.762-18.676 3.188-7.066 11.383-10.156 18.297-6.906 58.543 27.512 125.977 28.14 185.004 1.738l4.117-1.844c6.977-3.12 15.113.122 18.168 7.247 3.059 7.12-.117 15.425-7.094 18.546l-4.117 1.84a248.884 248.884 0 0 1-101.68 21.727zm0 0" fill="#fff"/><path d="M458.754 324.078c-1.473-26.629-10.66-53.933-27.309-81.152-25.246-41.285-34.703-77.871-28.105-108.738 5.183-24.25 19.105-38.649 26.941-45.075a13.536 13.536 0 0 0 4.946-9.98A13.562 13.562 0 0 0 431 68.805L362.273 3.69c-4.82-4.566-12.386-4.941-17.605-.87-5.664 4.421-17.918 12.265-36.336 15.12-23.133 3.586-48.395-1.77-75.086-15.918a7.5 7.5 0 0 0-7.023 0c-26.692 14.149-51.957 19.504-75.086 15.918-18.418-2.855-30.672-10.699-36.336-15.12-5.219-4.071-12.79-3.696-17.606.87L28.47 68.805a13.544 13.544 0 0 0 .715 20.309c7.84 6.425 21.761 20.823 26.945 45.073 6.594 30.868-2.86 67.454-28.106 108.739C11.375 270.148 2.187 297.449.715 324.078c-1.324 23.895 3.515 46.73 14.387 67.867 21.968 42.72 68.605 74.813 113.406 78.04 54.258 3.913 82.355 27.878 91.914 38 2.41 2.55 5.805 4.015 9.312 4.015s6.903-1.465 9.313-4.016c9.558-10.12 37.652-34.086 91.914-38 44.8-3.226 91.437-35.32 113.406-78.039 10.871-21.136 15.711-43.972 14.387-67.867zm-27.727 61.008c-22.988 44.703-68.547 67.59-101.144 69.937-56.817 4.094-88.067 28.864-100.149 41.02-12.086-12.156-43.34-36.926-100.148-41.02-32.598-2.347-78.156-25.238-101.145-69.937-14.539-28.27-24.195-74.527 12.38-134.336 63.261-103.45 17.097-156.8-.856-172.176l66.64-63.133c7.207 5.414 21.508 14.114 42.235 17.325 25.351 3.93 52.55-1.344 80.894-15.668 28.344 14.328 55.543 19.597 80.895 15.668 20.726-3.211 35.027-11.91 42.23-17.325l66.645 63.133c-9.524 8.133-24.961 25.02-30.832 52.477-7.43 34.754 2.656 75.027 29.976 119.699 36.575 59.809 26.918 106.062 12.38 134.336zm0 0"/><path d="M375.813 128.262c3.316-15.508 9.687-29.711 18.93-42.219 3.171-4.293 2.64-10.297-1.24-13.973l-36.55-34.625c-3.207-3.039-8.02-3.765-11.969-1.812-15.464 7.656-32.543 11.539-50.757 11.543-19.43 0-39.7-4.555-60.258-13.54a10.607 10.607 0 0 0-8.469 0c-20.555 8.981-40.824 13.536-60.254 13.54h-.012c-18.21 0-35.289-3.887-50.75-11.543-3.953-1.953-8.761-1.227-11.968 1.812L65.965 72.07c-3.88 3.676-4.41 9.68-1.242 13.97 9.246 12.51 15.613 26.718 18.933 42.222 8.172 38.168-2.46 81.687-31.61 129.355-26.421 43.211-30.538 85.211-11.901 121.45 19.746 38.398 60.417 60.671 90.386 62.831 32.973 2.375 63.125 11.946 87.2 27.672 1.558 1.016 7.628 5.493 12.003 5.493 3.625 0 10.446-4.473 12.004-5.493 24.07-15.726 54.227-25.293 87.2-27.672 29.968-2.16 70.636-24.433 90.386-62.828 18.637-36.242 14.52-78.242-11.902-121.453-29.149-47.664-39.781-91.187-31.61-129.355zm30.171 243.945c-17.218 33.477-52.336 52.871-78.125 54.73-35.507 2.56-68.125 12.958-94.324 30.075-1.273.832-2.55 1.691-3.8 2.558a157.49 157.49 0 0 0-3.801-2.558c-26.2-17.117-58.817-27.516-94.325-30.075-25.793-1.859-60.91-21.253-78.125-54.73-16.117-31.336-12.187-68.258 11.36-106.766 31.219-51.054 42.484-98.265 33.48-140.32-3.488-16.305-9.96-31.355-19.254-44.8l31.559-29.9c16.8 7.802 35.152 11.755 54.605 11.755h.012c20.941-.004 42.629-4.723 64.488-14.031 21.86 9.312 43.547 14.03 64.489 14.03 19.46 0 37.812-3.952 54.613-11.753l31.559 29.898c-9.29 13.442-15.762 28.496-19.254 44.801-9.004 42.055 2.261 89.266 33.48 140.32 23.55 38.508 27.48 75.43 11.363 106.766zm0 0"/><path d="M175.188 169.852c16.019-11.286 34.878-17.25 54.546-17.25 52.27 0 94.797 42.523 94.797 94.796 0 19.563-5.906 38.34-17.082 54.301a7.5 7.5 0 0 0 1.844 10.446c3.266 2.285 8.074 1.542 10.445-1.844 12.95-18.496 19.793-40.246 19.793-62.903 0-60.543-49.254-109.8-109.797-109.8-22.777 0-44.625 6.914-63.183 19.992-3.387 2.387-4.2 7.066-1.813 10.453s7.067 4.2 10.45 1.809zM150.375 182.41a7.5 7.5 0 0 0-10.453 1.809c-13.074 18.558-19.984 40.402-19.984 63.18 0 60.542 49.253 109.796 109.796 109.796 22.778 0 44.625-6.914 63.184-19.992a7.505 7.505 0 0 0 1.812-10.453 7.504 7.504 0 0 0-10.453-1.809c-16.015 11.29-34.875 17.254-54.543 17.254-52.27 0-94.797-42.527-94.797-94.797 0-19.668 5.961-38.527 17.247-54.539 2.386-3.386 1.578-8.066-1.809-10.449zm0 0"/><path d="m154.973 233.008 35.687 28.035-12.39 43.656c-2.25 7.93 6.91 14.61 13.773 10.008l37.691-25.273 37.692 25.273c6.687 4.484 16.027-2.074 13.773-10.004l-12.39-43.66 35.683-28.035c6.477-5.086 2.957-15.88-5.258-16.192l-45.351-1.707s-15.586-42.457-15.637-42.601c-2.828-7.637-14.207-7.68-17.023 0l-15.637 42.601s-45.086 1.715-45.352 1.707c-6.754-.164-13.629 7.047-5.261 16.192zm55.152-3.059a9.035 9.035 0 0 0 8.172-5.933l11.437-31.164 11.438 31.16a9.033 9.033 0 0 0 8.172 5.937l33.172 1.25-26.102 20.508a9.028 9.028 0 0 0-3.121 9.606l9.062 31.933-27.574-18.488c-3.031-2.031-7.062-2.031-10.097 0l-27.57 18.488 9.062-31.93a9.039 9.039 0 0 0-3.121-9.609l-26.106-20.508zM340.371 95.633c-33.965-15.961-72.82-24.387-110.23-24.387-37.457 0-75.614 8.43-109.578 24.387-10.59 4.976-15.06 17.695-10.41 28.547 5.41 12.625 21.742 13.418 28.324 10.61 29.078-12.411 60.363-20.509 92.015-20.38 31.598-.113 63.36 6.914 91.965 20.38 8.906 4.194 22.031 3.32 28.32-10.61 4.864-10.762.188-23.57-10.406-28.547zm-3.266 22.383c-1.785 4.464-6.789 3.894-8.27 3.195-30.612-14.383-64.632-21.961-98.343-21.8-33.781-.102-67.781 7.417-98.394 21.8-1.48.7-6.493.582-8.27-3.195-1.558-3.317-.11-7.29 3.113-8.805 31.985-15.027 67.5-22.961 102.813-22.961 35.531-.117 72.031 7.828 104.234 22.96 3.227 1.513 4.477 5.403 3.117 8.806zM349.313 366.852c-2.387-5.297-6.676-9.309-12.075-11.305-5.332-1.969-11.101-1.723-16.25.695-28.785 13.528-59.468 20.383-91.21 20.383h-.094c-31.735 0-62.422-6.86-91.204-20.383-5.148-2.418-10.921-2.664-16.25-.695-5.398 1.992-9.687 6.008-12.078 11.305-4.851 10.761-.183 23.57 10.41 28.546 34.438 16.18 71.153 24.383 109.215 24.383 37.977 0 74.688-8.203 109.125-24.383 10.594-4.976 15.266-17.78 10.41-28.546zm-16.79 14.972c-32.421 15.235-66.992 22.961-102.836 22.961-35.75 0-70.32-7.726-102.742-22.96-3.226-1.516-4.761-5.532-3.113-8.805 1.898-3.778 7.45-3.586 8.27-3.2 30.363 14.266 64.105 21.805 97.585 21.805h.094c33.48 0 67.227-7.54 97.59-21.805 1.48-.699 6.617-.765 8.27 3.196 1.406 3.386.109 7.293-3.118 8.808zm0 0"/></svg>