<svg xmlns="http://www.w3.org/2000/svg" viewBox="0 0 512.004 512.004" style="enable-background:new 0 0 512.004 512.004" xml:space="preserve"><path style="fill:#d8b26b" d="M58.335 164.574c4.941 0 9.529-1.499 13.328-4.062l47.474 81.499c4.063-40.221 25.454-75.319 56.589-97.731H81.828c.145-1.052.227-2.124.227-3.216 0-12.984-10.62-23.51-23.72-23.51s-23.72 10.526-23.72 23.51 10.62 23.51 23.72 23.51zM336.28 144.28c31.135 22.412 52.527 57.511 56.589 97.732l47.474-81.5a23.759 23.759 0 0 0 13.328 4.062c13.1 0 23.72-10.526 23.72-23.51s-10.62-23.51-23.72-23.51-23.72 10.526-23.72 23.51c0 1.092.082 2.164.227 3.216H336.28zM245.8 52.549l-45.129 77.475c16.933-7.448 35.647-11.591 55.333-11.591 19.685 0 38.399 4.143 55.333 11.591l-45.13-77.475c7.987-3.784 13.519-11.842 13.519-21.2 0-12.984-10.62-23.51-23.72-23.51s-23.72 10.526-23.72 23.51c-.004 9.358 5.528 17.416 13.514 21.2zM175.725 367.725c-31.135-22.411-52.526-57.51-56.589-97.73l-47.474 81.5a23.75 23.75 0 0 0-13.328-4.064c-13.1 0-23.72 10.526-23.72 23.51s10.62 23.51 23.72 23.51 23.72-10.526 23.72-23.51c0-1.094-.101-2.162-.248-3.216h93.919zM266.218 459.433l45.117-77.452c-16.933 7.448-35.648 11.591-55.333 11.591s-38.4-4.143-55.333-11.591l45.117 77.452c-7.986 3.784-13.504 11.864-13.504 21.222 0 12.984 10.62 23.51 23.72 23.51s23.72-10.526 23.72-23.51c0-9.358-5.518-17.438-13.504-21.222zM453.67 347.431c-4.941 0-9.528 1.5-13.327 4.064l-47.475-81.502c-4.063 40.221-25.454 75.32-56.589 97.731h93.919a23.203 23.203 0 0 0-.249 3.216c0 12.984 10.62 23.51 23.72 23.51s23.72-10.526 23.72-23.51c.001-12.983-10.619-23.509-23.719-23.509z"/><ellipse style="fill:#febe2d" cx="256.002" cy="31.349" rx="23.72" ry="23.51"/><ellipse style="fill:#febe2d" cx="256.002" cy="480.655" rx="23.72" ry="23.51"/><ellipse style="fill:#febe2d" cx="58.335" cy="141.063" rx="23.72" ry="23.51"/><ellipse style="fill:#febe2d" cx="453.665" cy="141.063" rx="23.72" ry="23.51"/><ellipse style="fill:#febe2d" cx="58.335" cy="370.941" rx="23.72" ry="23.51"/><ellipse style="fill:#febe2d" cx="453.665" cy="370.941" rx="23.72" ry="23.51"/><circle style="fill:#febe2d" cx="256.002" cy="256.002" r="137.571"/><path d="M140.018 256.002c0-72.346 55.844-131.645 126.776-137.15a139.14 139.14 0 0 0-10.793-.42c-75.978 0-137.57 61.591-137.57 137.57s61.593 137.57 137.57 137.57c3.633 0 7.232-.143 10.793-.42-70.932-5.505-126.776-64.804-126.776-137.15z" style="opacity:.1"/><circle style="fill:#d8b26b" cx="256.263" cy="256.002" r="100.049"/><path d="M178.68 256.002c0-51.458 38.849-93.835 88.816-99.419a100.898 100.898 0 0 0-11.235-.631c-55.256 0-100.05 44.794-100.05 100.05s44.794 100.051 100.05 100.051c3.798 0 7.545-.219 11.235-.631-49.967-5.585-88.816-47.962-88.816-99.42z" style="opacity:.1"/><path style="fill:#febe2d" d="M275.93 263.361c-.93 0-1.833-.181-2.683-.541l-16.241-6.822a2.577 2.577 0 0 0-1.005-.202c-.342 0-.681.066-1.003.202l-16.237 6.82a6.85 6.85 0 0 1-2.686.542 6.915 6.915 0 0 1-4.077-1.323 6.945 6.945 0 0 1-2.834-6.169l1.482-17.53a2.576 2.576 0 0 0-.623-1.912l-11.516-13.307a6.937 6.937 0 0 1-1.346-6.655 6.949 6.949 0 0 1 5.01-4.598l17.156-4.01a2.59 2.59 0 0 0 1.623-1.179l9.121-15.047a6.966 6.966 0 0 1 5.93-3.339 6.97 6.97 0 0 1 5.932 3.339l9.121 15.047a2.59 2.59 0 0 0 1.626 1.179l17.154 4.007a6.946 6.946 0 0 1 5.009 4.601 6.928 6.928 0 0 1-1.343 6.655l-11.517 13.307a2.57 2.57 0 0 0-.621 1.912l1.48 17.529a6.943 6.943 0 0 1-2.833 6.17 6.872 6.872 0 0 1-4.079 1.324z"/><path d="M453.67 339.594c-3.509 0-6.95.572-10.211 1.679l-42.562-73.069c.334-4.041.512-8.108.512-12.203 0-4.107-.181-8.173-.516-12.196l42.566-73.075a31.674 31.674 0 0 0 10.211 1.679c17.401 0 31.557-14.062 31.557-31.347s-14.156-31.347-31.557-31.347c-15.821 0-28.959 11.626-31.215 26.726h-83.798a145.469 145.469 0 0 0-21.779-12.473l-40.191-68.996c6.778-5.878 10.872-14.491 10.872-23.626C287.559 14.062 273.403 0 256.002 0s-31.557 14.062-31.557 31.347c0 9.134 4.094 17.749 10.871 23.626l-40.191 68.996a145.469 145.469 0 0 0-21.779 12.473h-33.328a7.837 7.837 0 0 0 0 15.674h14.357c-18.67 18.267-32.459 41.503-39.184 67.553l-36.757-63.102a7.836 7.836 0 0 0-11.153-2.553 15.925 15.925 0 0 1-8.946 2.724c-8.758 0-15.883-7.031-15.883-15.673s7.125-15.673 15.883-15.673 15.883 7.031 15.883 15.673c0 .689-.051 1.411-.153 2.143a7.838 7.838 0 0 0 7.763 8.91h22.663a7.837 7.837 0 0 0 0-15.674H89.55c-2.257-15.101-15.396-26.726-31.215-26.726-17.401 0-31.557 14.062-31.557 31.347s14.156 31.347 31.557 31.347c3.509 0 6.951-.571 10.212-1.679l42.566 73.074c-.335 4.023-.516 8.09-.516 12.197 0 4.109.181 8.175.516 12.198l-42.566 73.074a31.68 31.68 0 0 0-10.212-1.679c-17.401 0-31.557 14.062-31.557 31.347s14.156 31.347 31.557 31.347c15.821 0 28.959-11.624 31.215-26.726h83.798a145.519 145.519 0 0 0 21.779 12.473l40.179 68.976c-6.77 5.879-10.86 14.5-10.86 23.646 0 17.285 14.156 31.347 31.557 31.347s31.557-14.062 31.557-31.347c0-9.146-4.09-17.766-10.86-23.646l7.666-13.162a7.837 7.837 0 0 0-13.543-7.889l-11.376 19.529a7.836 7.836 0 0 0 3.416 11.027c5.482 2.597 9.023 8.147 9.023 14.14 0 8.642-7.125 15.673-15.883 15.673s-15.884-7.031-15.884-15.673c0-5.992 3.542-11.543 9.023-14.14a7.833 7.833 0 0 0 3.415-11.027l-34.421-59.091a145.079 145.079 0 0 0 37.865 5.011c12.915 0 25.653-1.745 37.903-5.075l-7.865 13.502a7.834 7.834 0 0 0 2.827 10.715 7.834 7.834 0 0 0 10.716-2.827l17.354-29.791a146.694 146.694 0 0 0 21.69-12.373h83.827c2.256 15.102 15.395 26.726 31.215 26.726 17.401 0 31.557-14.062 31.557-31.347s-14.155-31.348-31.555-31.348zm-23.495-187.478a7.838 7.838 0 0 0 7.763-8.906 15.936 15.936 0 0 1-.153-2.147c0-8.642 7.125-15.673 15.883-15.673s15.883 7.031 15.883 15.673-7.125 15.673-15.883 15.673a15.93 15.93 0 0 1-8.945-2.722 7.837 7.837 0 0 0-11.153 2.553l-36.757 63.102c-6.726-26.05-20.514-49.286-39.184-67.554h72.546v.001zM252.571 56.493a7.839 7.839 0 0 0-3.415-11.027c-5.573-2.64-9.036-8.05-9.036-14.118 0-8.642 7.125-15.673 15.883-15.673s15.884 7.031 15.884 15.673c0 6.068-3.463 11.476-9.037 14.118a7.836 7.836 0 0 0-3.415 11.027l34.435 59.114c-12.079-3.261-24.77-5.011-37.865-5.011s-25.787 1.75-37.865 5.011l34.431-59.114zM81.807 359.888a7.834 7.834 0 0 0-7.762 8.915c.118.852.173 1.531.173 2.138 0 8.642-7.125 15.673-15.883 15.673s-15.883-7.031-15.883-15.673 7.125-15.673 15.883-15.673c3.211 0 6.304.941 8.944 2.723a7.835 7.835 0 0 0 11.154-2.552l36.757-63.103c6.725 26.049 20.514 49.286 39.184 67.553l-72.567-.001zm371.863 26.726c-8.758 0-15.883-7.031-15.883-15.673 0-.605.055-1.283.174-2.134a7.843 7.843 0 0 0-1.851-6.228 7.835 7.835 0 0 0-5.912-2.692h-72.512a144.43 144.43 0 0 0 15.466-17.736 7.837 7.837 0 0 0-1.662-10.957 7.834 7.834 0 0 0-10.957 1.662c-24.388 33.111-63.464 52.879-104.53 52.879-71.535 0-129.733-58.198-129.733-129.733s58.198-129.735 129.732-129.735S385.734 184.465 385.734 256c0 17.058-3.257 33.634-9.68 49.267a7.836 7.836 0 0 0 14.496 5.958 144.544 144.544 0 0 0 6.27-18.875l36.749 63.088a7.835 7.835 0 0 0 11.156 2.552 15.914 15.914 0 0 1 8.942-2.723c8.758 0 15.883 7.031 15.883 15.673.003 8.644-7.122 15.674-15.88 15.674z"/><path d="M331.123 189.166a7.837 7.837 0 0 0-1.481 10.983c12.321 16.158 18.833 35.472 18.833 55.853 0 50.847-41.366 92.214-92.214 92.214s-92.213-41.368-92.213-92.214 41.366-92.213 92.213-92.213c18.569 0 36.468 5.493 51.76 15.885a7.833 7.833 0 0 0 10.886-2.077 7.836 7.836 0 0 0-2.077-10.887c-17.901-12.165-38.846-18.595-60.57-18.595-59.489 0-107.887 48.398-107.887 107.887S196.771 363.89 256.26 363.89s107.889-48.398 107.889-107.887c0-23.844-7.623-46.444-22.043-65.355a7.834 7.834 0 0 0-10.983-1.482z"/><path d="M227.465 308.32a7.837 7.837 0 0 0 0 15.674h57.073a7.837 7.837 0 0 0 0-15.674h-57.073zM305.498 289.736a7.837 7.837 0 0 0-7.837-7.837h-83.318a7.837 7.837 0 0 0 0 15.674h83.318a7.838 7.838 0 0 0 7.837-7.837zM302.297 214.05c-1.584-4.89-5.679-8.652-10.682-9.817l-15.005-3.506-7.974-13.154c-2.658-4.391-7.499-7.119-12.636-7.119-5.135 0-9.975 2.727-12.631 7.114l-7.977 13.16-14.995 3.505c-5.006 1.163-9.102 4.921-10.686 9.799-1.593 4.88-.495 10.327 2.869 14.216l10.07 11.636-1.295 15.331c-.428 5.111 1.887 10.156 6.044 13.169a14.693 14.693 0 0 0 8.676 2.814c1.987 0 3.919-.391 5.722-1.154l14.204-5.967 14.191 5.961c1.819.77 3.75 1.161 5.739 1.161 3.147 0 6.152-.977 8.672-2.811 4.158-3.008 6.475-8.055 6.048-13.178l-1.294-15.328 10.069-11.633c3.363-3.887 4.462-9.336 2.871-14.199zm-26.245 17.254c-1.84 2.13-2.749 4.953-2.5 7.695l1.352 16.017-14.849-6.237c-1.287-.543-2.652-.819-4.053-.819s-2.765.276-4.039.814l-14.862 6.243 1.352-16.001a10.48 10.48 0 0 0-2.505-7.717l-10.513-12.147 15.688-3.667a10.473 10.473 0 0 0 6.529-4.745l8.35-13.776 8.34 13.76a10.501 10.501 0 0 0 6.553 4.763l15.675 3.662-10.518 12.155zM185.158 250.464a7.865 7.865 0 0 0-2.299 5.538 7.846 7.846 0 0 0 7.837 7.837 7.846 7.846 0 0 0 7.837-7.837 7.846 7.846 0 0 0-7.837-7.837 7.865 7.865 0 0 0-5.538 2.299zM313.471 256.002a7.846 7.846 0 0 0 7.837 7.837 7.865 7.865 0 0 0 5.538-2.299 7.865 7.865 0 0 0 2.299-5.538 7.865 7.865 0 0 0-2.299-5.538 7.864 7.864 0 0 0-5.538-2.299 7.846 7.846 0 0 0-7.837 7.837z"/></svg>