<svg xmlns="http://www.w3.org/2000/svg" viewBox="0 0 512 512" style="enable-background:new 0 0 512 512" xml:space="preserve"><circle style="fill:#d9dcdf" cx="231.958" cy="256.005" r="192.38"/><circle style="fill:#ecedef" cx="231.958" cy="256.005" r="168.332"/><path style="fill:#c4df64" d="M342.936 413.164c-32.563 23.038-70.939 35.215-110.978 35.215-106.078 0-192.38-86.301-192.38-192.38s86.301-192.38 192.38-192.38 192.38 86.301 192.38 192.38c0 4.491-.164 8.99-.474 13.472l-21.326-17.772c-6.802-5.669-16.91-4.749-22.58 2.052-5.667 6.802-4.748 16.911 2.053 22.58l48.095 40.079a16.001 16.001 0 0 0 10.263 3.715c3.645 0 7.29-1.238 10.263-3.715l48.095-40.079c6.801-5.668 7.72-15.777 2.053-22.58-5.668-6.801-15.777-7.72-22.58-2.052l-22.256 18.547c.298-4.743.456-9.499.456-14.247 0-59.951-23.346-116.312-65.738-158.705-42.392-42.392-98.755-65.738-158.705-65.738-59.951 0-116.312 23.346-158.705 65.738S7.515 196.049 7.515 256s23.346 116.312 65.738 158.705 98.754 65.738 158.705 65.738c46.709 0 91.488-14.214 129.496-41.104"/><path style="fill:#8ac451" d="M231.958 448.38c-106.078 0-192.38-86.301-192.38-192.379H7.515c0 59.951 23.346 116.312 65.738 158.705s98.754 65.738 158.705 65.738c46.709 0 91.488-14.214 129.496-41.104l-18.519-26.175c-32.563 23.038-70.938 35.215-110.977 35.215z"/><path style="fill:#ff8c78" d="M203.902 207.906c6.64 0 12.024-5.384 12.024-12.024v-56.111c0-6.64-5.384-12.024-12.024-12.024h-64.126c-6.64 0-12.024 5.384-12.024 12.024 0 6.64 5.384 12.024 12.024 12.024h52.103v32.063h-52.103c-6.64 0-12.024 5.384-12.024 12.024v56.111c0 6.64 5.384 12.024 12.024 12.024h64.126c6.64 0 12.024-5.384 12.024-12.024 0-6.64-5.384-12.024-12.024-12.024h-52.103v-32.063h52.103zM324.139 183.858h-4.008v-44.087c0-6.64-5.384-12.024-12.024-12.024-6.64 0-12.024 5.384-12.024 12.024v44.087H264.02v-44.087c0-6.64-5.384-12.024-12.024-12.024-6.64 0-12.024 5.384-12.024 12.024v56.111c0 6.64 5.384 12.024 12.024 12.024h44.087v44.087c0 6.64 5.384 12.024 12.024 12.024 6.64 0 12.024-5.384 12.024-12.024v-44.087h4.008c6.64 0 12.024-5.384 12.024-12.024 0-6.64-5.383-12.024-12.024-12.024zM272.037 284.056c-6.64 0-12.024 5.384-12.024 12.024v40.079h-56.111V296.08c0-6.64-5.384-12.024-12.024-12.024-6.64 0-12.024 5.384-12.024 12.024v104.206c0 6.64 5.384 12.024 12.024 12.024 6.64 0 12.024-5.384 12.024-12.024v-40.079h56.111v40.079c0 6.64 5.384 12.024 12.024 12.024s12.024-5.384 12.024-12.024V296.08c-.001-6.642-5.384-12.024-12.024-12.024z"/><path d="M357.113 433.204c-36.731 25.988-80.011 39.724-125.156 39.724-57.943 0-112.419-22.564-153.391-63.537S15.03 313.943 15.03 256s22.564-112.418 63.537-153.39 95.448-63.537 153.391-63.537c38.684 0 76.551 10.221 109.506 29.559 3.532 2.071 8.212.855 10.285-2.678 2.072-3.532.854-8.212-2.678-10.285-35.26-20.69-75.756-31.626-117.113-31.626C170 24.042 111.75 48.169 67.939 91.981 24.128 135.793 0 194.042 0 256s24.128 120.207 67.939 164.019 102.06 67.939 164.019 67.939c48.272 0 94.553-14.691 133.837-42.485a7.516 7.516 0 0 0-8.682-12.269z"/><path d="M506.553 248.942c-8.312-9.973-23.189-11.325-33.164-3.014l-9.484 7.904c-.556-61.149-24.629-118.549-67.93-161.849a237.622 237.622 0 0 0-13.273-12.298c-3.109-2.664-7.932-2.297-10.597.813-2.665 3.108-2.296 7.931.813 10.596a222.123 222.123 0 0 1 12.431 11.518c40.973 40.972 63.537 95.447 63.537 153.391 0 4.473-.148 9.108-.441 13.777-.404 6.438 7.344 10.381 12.311 6.243l22.255-18.547c3.61-3.008 8.991-2.517 11.997 1.089 3.006 3.608 2.517 8.99-1.091 11.996l-48.094 40.079c-3.118 2.597-7.787 2.599-10.906 0l-48.095-40.079c-3.608-3.006-4.097-8.388-1.092-11.995 3.008-3.608 8.392-4.096 11.997-1.09l21.326 17.772c4.626 3.852 11.894.738 12.308-5.256.326-4.727.491-9.434.491-13.989 0-110.222-89.672-199.894-199.894-199.894S32.063 145.778 32.063 256s89.672 199.894 199.894 199.894c41.603 0 81.479-12.655 115.319-36.596a7.516 7.516 0 0 0-8.681-12.27 185.037 185.037 0 0 1-7.763 5.196l-8.2-14.203a7.512 7.512 0 0 0-10.265-2.75 7.514 7.514 0 0 0-2.75 10.265l8.213 14.226c-24.154 12.709-50.77 19.852-78.357 20.949v-16.38a7.516 7.516 0 0 0-15.03 0V440.7c-28.172-1.132-54.737-8.597-78.314-21.009l8.171-14.153a7.515 7.515 0 0 0-13.015-7.515l-8.161 14.136A186.314 186.314 0 0 1 75.8 354.835l14.136-8.161a7.514 7.514 0 0 0 2.75-10.265 7.512 7.512 0 0 0-10.265-2.75l-14.153 8.171c-12.412-23.578-19.877-50.143-21.009-78.315h16.367a7.516 7.516 0 0 0 0-15.03H47.258c1.132-28.172 8.597-54.737 21.009-78.314l14.153 8.171c3.834 2.214 8.871.545 10.644-3.499 1.517-3.46.14-7.63-3.129-9.518l-14.135-8.16a186.35 186.35 0 0 1 57.323-57.323l8.161 14.136c2.208 3.826 7.403 4.914 10.968 2.293 3.044-2.238 3.936-6.538 2.049-9.807l-8.171-14.153c23.577-12.413 50.142-19.876 78.313-21.008V87.67a7.516 7.516 0 0 0 15.03 0V71.301c28.173 1.132 54.738 8.596 78.315 21.007l-8.172 14.155c-1.888 3.268-.995 7.569 2.049 9.807 3.565 2.621 8.759 1.534 10.968-2.293l8.166-14.143a186.325 186.325 0 0 1 57.317 57.331l-14.136 8.16c-3.269 1.888-4.646 6.057-3.129 9.518 1.773 4.044 6.81 5.713 10.644 3.499l14.162-8.176c13.192 25.058 20.802 53.495 21.153 83.646l-9.461-7.885c-9.974-8.313-24.852-6.96-33.164 3.015-8.311 9.975-6.958 24.851 3.015 33.162l48.096 40.079c8.622 7.186 21.525 7.184 30.148 0l48.095-40.079c9.972-8.31 11.326-23.187 3.014-33.162z"/><path d="M373.54 386.955a7.515 7.515 0 0 0-10.628 10.627l32.064 32.064c3.057 3.056 8.217 2.851 11.028-.431 2.518-2.941 2.337-7.461-.399-10.196l-32.065-32.064zM431.273 386.389l-37.144-26.009a7.515 7.515 0 0 0-8.62 12.312l37.144 26.009c3.623 2.537 8.789 1.317 10.909-2.558 1.811-3.315.803-7.589-2.289-9.754zM450.887 349.798l-41.098-19.164a7.515 7.515 0 0 0-6.353 13.622l41.098 19.164c3.802 1.773 8.429-.035 10.087-3.871 1.578-3.647-.139-8.076-3.734-9.751zM139.776 176.343c-10.773 0-19.539 8.765-19.539 19.539v56.111c0 10.773 8.765 19.539 19.539 19.539h64.126c10.773 0 19.539-8.765 19.539-19.539s-8.765-19.539-19.539-19.539h-44.588V215.42h44.588c10.773 0 19.539-8.765 19.539-19.539V139.77c0-10.773-8.765-19.539-19.539-19.539h-64.126c-10.773 0-19.539 8.765-19.539 19.539 0 10.773 8.765 19.539 19.539 19.539h44.588v17.034h-44.588zm52.103-32.063h-52.103a4.514 4.514 0 0 1-4.509-4.509 4.514 4.514 0 0 1 4.509-4.509h64.126a4.514 4.514 0 0 1 4.509 4.509v56.111a4.514 4.514 0 0 1-4.509 4.509h-52.103a7.516 7.516 0 0 0-7.515 7.515v32.063a7.516 7.516 0 0 0 7.515 7.515h52.103c2.486 0 4.509 2.023 4.509 4.509s-2.023 4.509-4.509 4.509h-64.126a4.514 4.514 0 0 1-4.509-4.509v-56.111a4.514 4.514 0 0 1 4.509-4.509h52.103a7.516 7.516 0 0 0 7.515-7.515v-32.063a7.516 7.516 0 0 0-7.515-7.515zM308.108 271.531c10.773 0 19.539-8.765 19.539-19.539v-36.888c9.106-1.657 16.032-9.646 16.032-19.224s-6.926-17.567-16.032-19.224V139.77c0-10.773-8.765-19.539-19.539-19.539-10.773 0-19.539 8.765-19.539 19.539v36.572h-17.034V139.77c0-10.773-8.765-19.539-19.539-19.539-10.773 0-19.539 8.765-19.539 19.539v56.111c0 10.773 8.765 19.539 19.539 19.539h36.572v36.572c.001 10.774 8.767 19.539 19.54 19.539zm-56.111-71.14a4.514 4.514 0 0 1-4.509-4.509v-56.111c0-2.486 2.023-4.509 4.509-4.509s4.509 2.023 4.509 4.509v44.087a7.515 7.515 0 0 0 7.515 7.515h32.063a7.515 7.515 0 0 0 7.515-7.515v-44.087a4.514 4.514 0 0 1 4.509-4.509 4.514 4.514 0 0 1 4.509 4.509v44.087a7.515 7.515 0 0 0 7.515 7.515h4.008a4.514 4.514 0 0 1 4.509 4.509 4.514 4.514 0 0 1-4.509 4.509h-4.008a7.515 7.515 0 0 0-7.515 7.515v44.087a4.514 4.514 0 0 1-4.509 4.509 4.514 4.514 0 0 1-4.509-4.509v-44.087a7.515 7.515 0 0 0-7.515-7.515h-44.087zM272.037 419.824c10.773 0 19.539-8.765 19.539-19.539V296.08c0-10.773-8.765-19.539-19.539-19.539s-19.539 8.765-19.539 19.539v32.564h-41.081V296.08c0-10.773-8.765-19.539-19.539-19.539s-19.539 8.765-19.539 19.539v104.206c0 10.773 8.765 19.539 19.539 19.539s19.539-8.765 19.539-19.539v-32.564h41.081v32.564c0 10.772 8.765 19.538 19.539 19.538zm-68.135-67.133a7.516 7.516 0 0 0-7.515 7.515v40.079a4.514 4.514 0 0 1-4.509 4.509 4.514 4.514 0 0 1-4.509-4.509V296.08a4.514 4.514 0 0 1 4.509-4.509 4.514 4.514 0 0 1 4.509 4.509v40.079a7.516 7.516 0 0 0 7.515 7.515h56.111a7.515 7.515 0 0 0 7.515-7.515V296.08c0-2.486 2.023-4.509 4.509-4.509s4.509 2.023 4.509 4.509v104.206c0 2.486-2.023 4.509-4.509 4.509s-4.509-2.023-4.509-4.509v-40.079a7.515 7.515 0 0 0-7.515-7.515h-56.111z"/></svg>