<svg xmlns="http://www.w3.org/2000/svg" viewBox="0 0 512 512" style="enable-background:new 0 0 512 512" xml:space="preserve"><path style="fill:#e8c1b5" d="M100.861 384.519H84.267c-42.143 0-76.43-34.33-76.43-76.527v-44.655c0-74.913 60.869-135.86 135.688-135.86h168.191c6.323 0 11.449 5.133 11.449 11.464s-5.126 11.464-11.449 11.464H143.525c-62.192 0-112.79 50.662-112.79 112.934v44.655c0 29.555 24.015 53.6 53.532 53.6h16.594c6.323 0 11.449 5.133 11.449 11.464 0 6.33-5.126 11.461-11.449 11.461z"/><path style="fill:#3f5666" d="M471.258 277.951c-1.559 5.014-4.515 8.536-7.825 11.006-9.026 6.735-22.206 2.908-26.229-7.618-1.474-3.858-2.089-8.414-.728-13.483.82-3.056 2.458-6.47 4.569-9.99 9.037-15.07 32.098-8.377 31.689 9.195-.096 4.106-.536 7.867-1.476 10.89z"/><path style="fill:#3f5666" d="M504.163 360.135v.46c0 13.218-10.7 23.928-23.897 23.928H87.103c-22.685 0-39.748-20.699-35.474-42.998 17.429-91.126 90.676-153.192 191.592-153.192 116.099 0 171.76 88.377 171.76 88.377h3.783a72.236 72.236 0 0 1 60.782 33.207l11.577 18.014 6.604 10.261a40.614 40.614 0 0 1 6.436 21.943z"/><path style="fill:#2f3f4a" d="M77.403 341.523c16.661-87.108 84.328-147.651 178.41-152.822a223.527 223.527 0 0 0-12.591-.366c-100.916 0-174.164 62.062-191.592 153.187-4.275 22.305 12.788 43 35.473 43h25.774c-22.685 0-39.748-20.694-35.474-42.999z"/><path style="fill:#e8c1b5" d="M504.163 360.135v.461c0 13.214-10.7 23.927-23.897 23.927h-11.368c-6.823-31.209 10.324-48.587 22.225-56.591l6.604 10.264a40.598 40.598 0 0 1 6.436 21.939z"/><path style="fill:#2f3f4a" d="M248.999 357.522v27h-25.464v-27c0-24.158-15.172-45.714-37.898-53.823l-32.246-11.504 49.319 9.833c25.83 5.151 45.338 27.157 46.258 53.488.021.669.031 1.338.031 2.006zM433.351 384.522h-28.473c0-20.177-12.664-38.17-31.65-44.941l-31.284-11.17 59.758 11.17a47.687 47.687 0 0 1 22.946 17.439 47.733 47.733 0 0 1 8.703 27.502z"/><path style="fill:#e8c1b5" d="M244.543 384.519h-71.779a4.183 4.183 0 0 1-4.183-4.183v-3.121c0-13.488 10.934-24.42 24.42-24.42h31.302c13.488 0 24.42 10.934 24.42 24.42v3.121a4.18 4.18 0 0 1-4.18 4.183zM423.961 384.519h-71.779a4.183 4.183 0 0 1-4.183-4.183v-3.121c0-13.488 10.934-24.42 24.42-24.42h31.302c13.488 0 24.42 10.934 24.42 24.42v3.121a4.18 4.18 0 0 1-4.18 4.183zM442.722 265.327c1.052 5.804-.063 10.848-2.075 15.031-5.488 11.404-20.598 14.457-30.069 6.072-3.471-3.073-6.449-7.289-7.728-13.044-.771-3.47-.913-7.721-.639-12.325 1.171-19.708 27.605-25.052 36.323-7.345 2.038 4.139 3.554 8.112 4.188 11.611z"/><path d="M143.527 158.239h168.187c10.636 0 19.289-8.658 19.289-19.299 0-10.642-8.653-19.299-19.289-19.299H193.829c-4.329 0-7.837 3.509-7.837 7.837s3.508 7.837 7.837 7.837h117.885c1.994 0 3.615 1.627 3.615 3.626s-1.622 3.626-3.615 3.626H143.527c-66.517 0-120.633 54.177-120.633 120.769v44.659c0 17.667 7.467 34.201 20.6 45.881a43.782 43.782 0 0 0 3.059 11.454c-18.587-12.302-30.88-33.403-30.88-57.336v-44.659c0-70.591 57.355-128.021 127.854-128.021 4.329 0 7.837-3.509 7.837-7.837s-3.508-7.837-7.837-7.837C64.386 119.641 0 184.102 0 263.335v44.659c0 46.52 37.804 84.365 84.271 84.365h193.296c4.329 0 7.837-3.509 7.837-7.837s-3.508-7.837-7.837-7.837h-21.018c-.253-15.519-11.514-28.402-26.301-31.169-4.226-22.502-20.136-41.406-41.977-49.198l-45.6-16.269c-4.075-1.451-8.56.672-10.014 4.748a7.835 7.835 0 0 0 4.747 10.014l45.6 16.269c15.438 5.508 26.97 18.339 31.064 33.878h-21.066c-17.609 0-31.958 14.186-32.243 31.727H87.103a28.178 28.178 0 0 1-21.782-10.262 28.298 28.298 0 0 1-5.996-23.429c8.294-43.364 29.641-80.074 61.734-106.156 32.734-26.604 74.976-40.666 122.161-40.666 15.589 0 30.933 1.677 45.609 4.984a7.836 7.836 0 1 0 3.446-15.289c-15.803-3.562-32.308-5.368-49.054-5.368-99.773 0-176.526 59.316-197.659 151.824-4.532-7.194-6.995-15.575-6.995-24.328v-44.659c0-57.951 47.085-105.097 104.96-105.097zm49.474 202.393h30.23c.032 0 .064.004.096.004.037 0 .074-.004.111-.004h.866c8.965 0 16.293 7.152 16.575 16.051h-13.092v-4.276a7.837 7.837 0 0 0-7.837-7.837 7.837 7.837 0 0 0-7.837 7.837v4.276h-6.269v-4.276a7.837 7.837 0 0 0-7.837-7.837 7.837 7.837 0 0 0-7.837 7.837v4.276h-13.746c.284-8.899 7.612-16.051 16.577-16.051z"/><circle cx="443.131" cy="317.095" r="7.155"/><path d="m504.316 333.95-18.177-28.269a79.874 79.874 0 0 0-12.832-15.337c2.443-2.93 4.264-6.293 5.433-10.06 1.111-3.562 1.707-7.83 1.826-13.048.266-11.494-6.956-21.359-17.972-24.548-7.057-2.043-14.256-.92-20.075 2.738-6.201-7.964-16.25-11.828-26.518-9.752-6.823 1.376-12.546 5.123-16.394 10.338-13.693-13.879-33.648-30.447-60.162-43.491a7.837 7.837 0 0 0-6.918 14.065c28.725 14.13 49.158 32.711 61.751 46.597-.13 4.602.17 8.519.921 11.9 1.503 6.77 4.93 12.562 10.184 17.214 4.981 4.409 11.254 6.753 17.778 6.753 1.816 0 3.652-.182 5.485-.551 6.054-1.219 11.338-4.347 15.207-8.853a64.363 64.363 0 0 1 12.658 7.123 64.088 64.088 0 0 1 16.441 17.385l7.659 11.912c-10.922 9.229-23.13 25.386-20.848 50.62h-23.799c-.285-17.542-14.635-31.727-32.243-31.727h-7.545a55.728 55.728 0 0 0-20.315-12.757l-51.848-18.505a7.835 7.835 0 1 0-5.269 14.76l47.776 17.052c-14.809 2.749-26.092 15.642-26.345 31.177h-12.598c-4.329 0-7.837 3.509-7.837 7.837s3.508 7.837 7.837 7.837h152.69c2.187 0 4.324-.223 6.387-.647C501.101 388.746 512 375.921 512 360.595v-.461a48.347 48.347 0 0 0-7.684-26.184zm-46.079-76.206c3.301.955 6.783 3.855 6.661 9.132-.106 4.591-.668 7.29-1.123 8.753-.618 1.992-1.6 3.699-2.964 5.181a80.055 80.055 0 0 0-10.381-5.394c.69-3.756.709-7.594.004-11.487a37.64 37.64 0 0 0-1.016-4.144c2.658-2.566 6.134-2.816 8.819-2.041zm-32.687 25.391c-3.557.717-7.121-.222-9.776-2.573-2.765-2.448-4.49-5.352-5.273-8.875-.56-2.526-.718-5.944-.467-10.162.385-6.462 4.936-9.654 9.068-10.488a12.15 12.15 0 0 1 2.398-.239c3.645 0 7.68 1.655 10.005 6.379a59.756 59.756 0 0 1 1.775 3.936c.025.072.056.141.085.212.812 2.034 1.366 3.841 1.647 5.397v.001c.644 3.548.18 6.89-1.416 10.217l-.02.04c-1.545 3.195-4.47 5.438-8.026 6.155zm-53.131 77.497h20.334c.026 0 .053.004.079.004.031 0 .062-.003.092-.004h10.797c8.965 0 16.293 7.152 16.575 16.051h-13.42v-4.276c0-4.328-3.508-7.837-7.837-7.837s-7.837 3.509-7.837 7.837v4.276h-6.269v-4.276a7.837 7.837 0 0 0-7.837-7.837 7.837 7.837 0 0 0-7.837 7.837v4.276H355.84c.286-8.899 7.614-16.051 16.579-16.051zm107.847 16.054h-4.741c-1.992-17.649 5.166-29.548 13.648-37.3l1.959 3.046a32.691 32.691 0 0 1 5.194 17.704v.46c0 7.209-4.756 13.327-11.289 15.367-1.507.469-3.11.723-4.771.723z"/></svg>