<svg height="512" viewBox="0 0 56 60" width="512" xmlns="http://www.w3.org/2000/svg"><g fill="none" fill-rule="evenodd"><path d="M28 49v10l-3.56-4.45A1.986 1.986 0 0 1 24 53.3v-5.66c1.27.49 2.6.94 4 1.36z" fill="#9e9e9e" fill-rule="nonzero"/><path d="M32 47.64v5.66c0 .455-.155.896-.44 1.25l-3.07 3.84L28 59V49c1.4-.42 2.73-.88 4-1.36z" fill="#707070" fill-rule="nonzero"/><path d="M41 14a3 3 0 0 1-3 3H18a3 3 0 1 1 2.82-4h14.36A3 3 0 0 1 41 14z" fill="#ffeb3a" fill-rule="nonzero"/><path d="M31 3v10h-6V3a2.006 2.006 0 0 1 2-2h2a2.006 2.006 0 0 1 2 2z" fill="#ff9801" fill-rule="nonzero"/><path d="M29 1h-2c-.17.002-.337.026-.5.072A2 2 0 0 1 28 3v10h3V3a2.006 2.006 0 0 0-2-2z" fill="#f57c00" fill-rule="nonzero"/><path d="M34 27h-2M24 27h-2M31 36a3 3 0 0 1-6 0c0-1.657 3-5 3-5s3 3.343 3 5zM17.121 36.121a3 3 0 0 1-4.242-4.242c1.171-1.172 5.657-1.415 5.657-1.415s-.243 4.486-1.415 5.657z" stroke="#000" stroke-linecap="round" stroke-linejoin="round" stroke-width="2"/><path d="M12.77 53.74a4.193 4.193 0 1 1-7.44-3.87c1.07-2.05 6.95-4.25 6.95-4.25s1.55 6.07.49 8.12z" fill="#f44335" fill-rule="nonzero"/><path d="M12.28 45.62s-1.268.476-2.731 1.189c.39 1.87.988 5.448.221 6.931a4.15 4.15 0 0 1-2.215 1.96 4.178 4.178 0 0 0 5.215-1.96c1.06-2.05-.49-8.12-.49-8.12z" fill="#c81e1e" fill-rule="nonzero"/><path d="M48.88 55.53a4.194 4.194 0 0 1-5.65-1.79c-1.06-2.05.49-8.12.49-8.12s5.88 2.2 6.95 4.25a4.2 4.2 0 0 1-1.79 5.66z" fill="#f44335" fill-rule="nonzero"/><path d="M50.67 49.87c-1.07-2.05-6.95-4.25-6.95-4.25s-.12.474-.269 1.189c1.692.823 3.645 1.962 4.219 3.061a4.2 4.2 0 0 1-1.79 5.66 4.136 4.136 0 0 1-.435.172 4.178 4.178 0 0 0 5.225-5.832z" fill="#c81e1e" fill-rule="nonzero"/><path d="M38.879 36.121a3 3 0 0 0 4.242-4.242c-1.171-1.172-5.657-1.415-5.657-1.415s.243 4.486 1.415 5.657z" stroke="#000" stroke-linecap="round" stroke-linejoin="round" stroke-width="2"/><g fill-rule="nonzero"><path d="M24 17h4v10h-4z" fill="#9e9e9e"/><path d="M28 17h4v10h-4z" fill="#707070"/><path d="M55 19.68c0 7.87-4.97 21.05-23 27.96-1.27.48-2.6.94-4 1.36-1.4-.42-2.73-.87-4-1.36C5.97 40.73 1 27.55 1 19.68 1 11.29 6.51 4 14.5 4A19.06 19.06 0 0 1 25 7.13V13h-4.18A3 3 0 1 0 18 17h6v10h8V17h6a3 3 0 1 0-2.82-4H31V7.13A19.06 19.06 0 0 1 41.5 4C49.49 4 55 11.29 55 19.68z" fill="#f44335"/><path d="M21 17h3v10h-3zM32.18 13h3a3.052 3.052 0 0 1 1.32-1.584A2.969 2.969 0 0 0 35 11a3.01 3.01 0 0 0-2.82 2zM16.5 11.416A2.938 2.938 0 0 0 15 11a3 3 0 0 0 0 6h3a2.992 2.992 0 0 1-1.5-5.584zM41.5 4c-.585 0-1.152.026-1.7.074 7.279.744 12.2 7.68 12.2 15.606 0 7.87-4.97 21.05-23 27.96-.806.3-1.647.6-2.5.88.5.163.99.326 1.5.48 1.4-.42 2.73-.88 4-1.36 18.03-6.91 23-20.09 23-27.96C55 11.29 49.49 4 41.5 4z" fill="#c81e1e"/><path d="M27.256 30.332C26.712 30.938 24 34.059 24 36a4 4 0 1 0 8 0c0-1.941-2.712-5.062-3.256-5.668a1.031 1.031 0 0 0-1.488 0zM28 38a2 2 0 0 1-2-2c0-.637.939-2.125 2-3.451 1.063 1.332 2 2.831 2 3.451a2 2 0 0 1-2 2zM18.481 29.466c-.813.044-4.937.333-6.309 1.706a4 4 0 1 0 5.656 5.656c1.373-1.373 1.662-5.5 1.706-6.31a1 1 0 0 0-1.053-1.052zm-2.067 5.948a2.047 2.047 0 0 1-2.828 0 2 2 0 0 1 0-2.828c.45-.451 2.167-.839 3.853-1.027-.19 1.694-.586 3.417-1.025 3.855zM12.737 44.73a1 1 0 0 0-.813-.049c-1.04.391-6.291 2.456-7.476 4.732a5.189 5.189 0 0 0 9.2 4.794c1.186-2.276-.131-7.762-.408-8.838a1 1 0 0 0-.503-.639zm-.858 8.553a3.19 3.19 0 1 1-5.657-2.946c.525-1.008 3.16-2.428 5.344-3.358.492 2.321.834 5.294.313 6.304zM44.076 44.681a1 1 0 0 0-1.32.688c-.277 1.076-1.594 6.562-.408 8.838a5.189 5.189 0 1 0 9.2-4.794c-1.181-2.276-6.432-4.341-7.472-4.732zm5.915 8.088a3.189 3.189 0 0 1-5.87.514c-.524-1.008-.178-3.981.314-6.3 2.184.93 4.819 2.35 5.343 3.358.393.748.47 1.623.213 2.428zM37.519 29.466a1 1 0 0 0-1.053 1.052c.044.813.333 4.937 1.706 6.31a4 4 0 1 0 5.656-5.656c-1.372-1.372-5.496-1.662-6.309-1.706zm4.9 5.948a2.047 2.047 0 0 1-2.828 0c-.451-.451-.839-2.168-1.026-3.855 1.686.188 3.4.576 3.854 1.027a2 2 0 0 1 0 2.828z" fill="#000"/><path d="M41.5 3A20 20 0 0 0 32 5.386V3a3 3 0 0 0-3-3h-2a3 3 0 0 0-3 3v2.386A20 20 0 0 0 14.5 3C6.369 3 0 10.327 0 19.68c0 9.312 6.137 21.891 23 28.631V53.3a3 3 0 0 0 .659 1.874l3.56 4.451a1 1 0 0 0 1.562 0l3.557-4.448A3 3 0 0 0 33 53.3v-4.989c16.863-6.74 23-19.319 23-28.631C56 10.327 49.631 3 41.5 3zM31 26h-2v-8h2zm-6 0v-8h2v8zm7-10H18a2 2 0 1 1 1.874-2.665 1 1 0 0 0 .942.665h14.368a1 1 0 0 0 .942-.665A1.995 1.995 0 1 1 38 16zM26 3a1 1 0 0 1 1-1h2a1 1 0 0 1 1 1v9h-4zm5 50.3a.981.981 0 0 1-.222.625L29 56.149V54a1 1 0 0 0-2 0v2.149l-1.781-2.227A.981.981 0 0 1 25 53.3v-4.237c.88.313 1.778.615 2.713.895a1 1 0 0 0 .574 0c.935-.28 1.833-.582 2.713-.895zm-3-5.345C8.816 42.094 2 29.081 2 19.68 2 11.448 7.49 5 14.5 5A18.052 18.052 0 0 1 24 7.688V12h-2.549A4 4 0 1 0 18 18h5v8h-1a1 1 0 0 0 0 2h12a1 1 0 0 0 0-2h-1v-8h5a4 4 0 1 0-3.451-6H32V7.688A18.052 18.052 0 0 1 41.5 5C48.51 5 54 11.448 54 19.68c0 9.401-6.816 22.414-26 28.275z" fill="#000"/></g></g></svg>