<svg xmlns="http://www.w3.org/2000/svg" viewBox="0 0 512.003 512.003" style="enable-background:new 0 0 512.003 512.003" xml:space="preserve"><circle style="fill:#f5d7b7" cx="264.171" cy="58.115" r="50.622"/><circle style="opacity:.1;enable-background:new" cx="264.171" cy="58.115" r="50.622"/><circle style="fill:#f5d7b7" cx="453.886" cy="247.83" r="50.622"/><circle style="opacity:.1;enable-background:new" cx="453.886" cy="247.83" r="50.622"/><circle style="fill:#38648c" cx="105.064" cy="406.937" r="97.512"/><path style="opacity:.1;enable-background:new" d="M174.02 475.891c38.083-38.083 38.083-99.827 0-137.909-38.083-38.083-99.827-38.083-137.909 0-15.065 15.065-24.145 33.835-27.291 53.376 7.937 5.645 19.03 11.116 34.061 16.931 12.696 4.911 28.211 10.009 45.766 15.067 5.058 17.556 10.156 33.069 15.067 45.766 5.814 15.032 11.285 26.125 16.93 34.061 19.541-3.147 38.312-12.227 53.376-27.292z"/><ellipse transform="rotate(-45.001 355.588 156.406)" style="fill:#f5d7b7" cx="355.588" cy="156.401" rx="149.457" ry="146.187"/><ellipse transform="rotate(-45.001 292.846 105.145)" style="fill:#f28b74" cx="292.846" cy="105.142" rx="23.688" ry="29.745"/><ellipse transform="rotate(134.999 406.865 219.156)" style="fill:#f28b74" cx="406.863" cy="219.155" rx="23.688" ry="29.745"/><path style="opacity:.05;enable-background:new" d="M315.892 14.899c-23.231 6.966-45.208 19.681-63.663 38.136-58.365 58.365-59.4 151.961-2.311 209.05 33.1 33.1 78.472 46.657 122.133 40.834-93.168-30.942-121.702-186.511-56.159-288.02z"/><path style="fill:#76b7eb" d="M133.91 221.872c59.515.713 194.021 14.883 271.459 55.306 12.084 6.309 17.55 20.599 12.759 33.361-12.145 32.359-44.197 80.173-73.535 108.937-14.832 14.543-35.192 22.121-55.931 20.942-81.841-4.653-262.418-46.22-275.574-73.159-13.364-27.363 28.616-97.77 78.794-132.65 12.308-8.557 27.037-12.917 42.028-12.737z"/><path style="opacity:.1;enable-background:new" d="M133.91 221.872c59.515.713 194.021 14.883 271.459 55.306 12.084 6.309 17.55 20.599 12.759 33.361-12.145 32.359-44.197 80.173-73.535 108.937-14.832 14.543-35.192 22.121-55.931 20.942-81.841-4.653-262.418-46.22-275.574-73.159-13.364-27.363 28.616-97.77 78.794-132.65 12.308-8.557 27.037-12.917 42.028-12.737z"/><path style="opacity:.1;enable-background:new" d="M91.88 234.609c-12.861 8.94-25.179 20.216-36.169 32.501 5.077 37.411 13.818 82.412 24.457 124.714a1030.57 1030.57 0 0 0 2.19 8.543c62.995 19.293 153.364 36.873 205.265 39.987a199.646 199.646 0 0 0 6.396-8.674c10.935-15.733 16.592-34.347 16.358-53.83-.31-25.891-3.734-79.303-13.798-136.741-62.144-13.357-126.363-18.801-162.671-19.236-14.989-.181-29.718 4.179-42.028 12.736z"/><path style="fill:#76b7eb" d="M290.13 378.093c-.713-59.515-14.883-194.021-55.307-271.459-6.308-12.085-20.599-17.55-33.361-12.759-32.359 12.145-80.173 44.197-108.937 73.535-14.543 14.832-22.121 35.192-20.942 55.931 4.653 81.841 46.22 262.418 73.159 275.574 27.363 13.364 97.77-28.615 132.65-78.794 8.557-12.309 12.918-27.038 12.738-42.028z"/><g style="opacity:.1"><path d="M119.473 320.952a7.5 7.5 0 0 1-7.346-6.03c-.621-3.103-3.521-22.094-3.521-25.77a7.499 7.499 0 0 1 14.998-.044c.083 2.419 2.502 19.232 3.229 22.873a7.499 7.499 0 0 1-7.36 8.971zm4.132-31.8h.01-.01zM198.705 188.673c-.79 0-1.594-.125-2.386-.389-3.929-1.311-6.045-5.581-4.735-9.51.538-1.611 1.987-4.662 5.247-11.335.895-1.834 1.742-3.565 2.049-4.244a7.5 7.5 0 0 1 13.663 6.189c-.397.877-1.208 2.537-2.235 4.639-1.422 2.91-4.068 8.327-4.511 9.541a7.468 7.468 0 0 1-7.092 5.109zM232.572 330.501a7.465 7.465 0 0 1-3.759-1.015c-3.557-2.065-13.492-7.746-16.706-9.21a7.498 7.498 0 1 1 6.217-13.65c4.466 2.034 16.646 9.09 18.02 9.888a7.499 7.499 0 0 1 2.72 10.251 7.492 7.492 0 0 1-6.492 3.736zM182.693 452.575a7.498 7.498 0 0 1-7.499-7.499c0-4.002-1.046-19.113-1.549-26.377a716.037 716.037 0 0 1-.331-4.884 7.5 7.5 0 0 1 7.038-7.933c4.137-.26 7.686 2.904 7.934 7.038.044.749.164 2.468.321 4.742.767 11.076 1.585 23.242 1.585 27.413 0 4.143-3.357 7.5-7.499 7.5zM326.472 325.728a7.501 7.501 0 0 1-2.492-14.574c2.769-.977 9.304-4.893 13.629-7.483 6.359-3.811 8.472-5.037 10.586-5.46a7.5 7.5 0 0 1 3.707 14.513c-1.093.522-4.249 2.414-6.583 3.814-5.699 3.415-12.158 7.285-16.354 8.763a7.53 7.53 0 0 1-2.493.427zm24.679-12.813a.03.03 0 0 1-.009.002.03.03 0 0 1 .009-.002z"/></g><path d="M412.826 167.01a21.517 21.517 0 0 0-15.315 6.344 7.499 7.499 0 1 0 10.606 10.604 6.615 6.615 0 0 1 4.709-1.95c1.779 0 3.451.692 4.709 1.951a6.615 6.615 0 0 1 1.951 4.708 6.62 6.62 0 0 1-1.951 4.71 7.499 7.499 0 1 0 10.607 10.604 21.514 21.514 0 0 0 6.343-15.314 21.512 21.512 0 0 0-6.343-15.313 21.511 21.511 0 0 0-15.316-6.344zM338.65 83.86c-8.445-8.442-22.185-8.442-30.629 0a7.5 7.5 0 1 0 10.605 10.606c2.596-2.598 6.82-2.597 9.417-.001a6.665 6.665 0 0 1 0 9.417 7.5 7.5 0 1 0 10.606 10.606c8.445-8.441 8.445-22.182.001-30.628zm160.902 128.046c7.241-17.967 11.147-37.244 11.366-57.052.431-38.973-13.418-75.605-39.145-103.978a66.331 66.331 0 0 1 27.045-15.515 7.5 7.5 0 0 0-4.183-14.403 81.36 81.36 0 0 0-33.466 19.31C432.788 14.52 396.127.673 357.149 1.084c-19.808.219-39.085 4.125-57.05 11.365C289.875 4.381 277.321 0 264.171 0c-.292 0-.586.002-.879.006-15.189.226-29.471 6.266-40.215 17.011-18.263 18.262-22.033 45.629-10.609 67.682a34.264 34.264 0 0 0-13.641 2.157c-33.559 12.596-82.604 45.673-111.657 75.306-15.965 16.282-24.375 38.737-23.075 61.607.382 6.713 1.019 14.166 1.884 22.198-19.66 18.208-37.458 41.194-49.166 63.613-7.766 14.872-19.453 42.57-10.466 60.971l.109.223c-14.087 38.388-4.74 81.33 24.351 110.421 20.13 20.132 46.891 30.81 74.19 30.808 12.148 0 24.404-2.124 36.226-6.46.075.038.152.079.227.115 4.401 2.149 9.654 3.206 15.612 3.206 14.81 0 33.949-6.535 55.019-19.067 19.497-11.597 38.471-27.102 53.925-43.764 8.062.866 15.526 1.498 22.228 1.88a81.19 81.19 0 0 0 4.622.131c21.248 0 41.801-8.318 56.985-23.205 16.983-16.652 35.584-40.27 51.036-64.8a7.499 7.499 0 1 0-12.69-7.993c-14.857 23.584-32.66 46.212-48.846 62.083-13.276 13.015-31.594 19.88-50.255 18.809-3.522-.2-7.275-.475-11.222-.818a180.058 180.058 0 0 0 5.687-7.71c9.412-13.54 14.28-29.585 14.079-46.399-.342-28.584-3.903-77.794-12.869-130.184-.087-.512-.18-1.037-.27-1.554 48.317 9.682 88.748 22.601 117.408 37.561 8.697 4.541 12.656 14.892 9.208 24.078-1.665 4.435-3.769 9.287-6.253 14.425a7.5 7.5 0 0 0 13.503 6.531c2.683-5.548 4.968-10.824 6.792-15.685a34.276 34.276 0 0 0 2.155-13.636 57.742 57.742 0 0 0 26.579 6.484c14.91 0 29.765-5.759 41.104-17.098 10.744-10.745 16.786-25.027 17.011-40.217.197-13.473-4.198-26.359-12.446-36.81zM233.683 27.623c13.733-13.734 34.194-16.355 50.517-7.712-13.524 7.3-26.08 16.626-37.274 27.82a160.3 160.3 0 0 0-22.231 27.795c-7.08-15.925-3.932-34.983 8.988-47.903zM41.414 470.587c-23.283-23.283-31.809-56.919-23.008-88.065 11.426 7.352 34.147 17.58 80.569 30.511 5.518 19.778 11.106 37.137 16.456 51.031 5.431 14.102 10.111 23.354 14.103 29.518-31.161 8.826-64.823.302-88.12-22.995zm229.822-54.746c-15.819 22.757-40.798 45.583-66.82 61.06-24.379 14.5-45.982 20.351-56.381 15.275a5.396 5.396 0 0 1-.741-.451 7.42 7.42 0 0 0-.884-.721c-6.151-5.635-18.426-28.62-34.025-85.695a7.68 7.68 0 0 0-.184-.673 1033.992 1033.992 0 0 1-5.437-20.837 7.498 7.498 0 0 0-9.096-5.455 7.5 7.5 0 0 0-5.455 9.095c.737 2.947 1.479 5.843 2.223 8.711-56.927-16.504-70.582-27.35-73.744-30.972-.048-.06-.1-.117-.15-.175-.431-.516-.631-.864-.716-1.037-7.989-16.358 11.774-61.98 48.435-99.324 3.58 26.48 9.08 57.257 15.888 88.354.886 4.047 4.886 6.605 8.93 5.723a7.501 7.501 0 0 0 5.723-8.929c-10.587-48.361-17.963-95.791-19.729-126.876-1.061-18.665 5.795-36.981 18.81-50.255 27.748-28.302 74.404-59.824 106.217-71.765 9.186-3.45 19.537.51 24.078 9.208 11.833 22.668 27.9 68.598 39.522 127.179a7.44 7.44 0 0 0 .392 1.983c8.091 41.345 13.943 88.871 14.542 138.916.162 13.679-3.779 26.701-11.398 37.661zM419.87 279.652a34.281 34.281 0 0 0-11.03-9.121c-31.514-16.45-74.306-29.941-127.249-40.123-7.684-39.817-20.336-89.35-40.117-127.244a34.309 34.309 0 0 0-9.121-11.031c6.665-12.381 15.113-23.728 25.18-33.795 55.35-55.35 144.37-56.385 198.444-2.311 26.172 26.172 40.358 61.21 39.944 98.66-.212 19.134-4.229 37.726-11.666 54.915-.228.412-.416.84-.56 1.28-7.118 16.015-17.223 30.784-30.029 43.589-10.068 10.067-21.415 18.515-33.796 25.181zm64.51-1.332c-12.92 12.921-31.98 16.069-47.904 8.988a160.385 160.385 0 0 0 27.795-22.231c11.194-11.194 20.52-23.75 27.821-37.274 8.642 16.321 6.02 36.785-7.712 50.517zM366.486 158.76a12.443 12.443 0 0 1-9.641-3.603 12.42 12.42 0 0 1-3.603-9.641 7.499 7.499 0 1 0-14.963-1.027 27.415 27.415 0 0 0 7.961 21.274 27.414 27.414 0 0 0 21.273 7.959 7.5 7.5 0 0 0-1.027-14.962z"/></svg>