<svg xmlns="http://www.w3.org/2000/svg" viewBox="0 0 512 512" style="enable-background:new 0 0 512 512" xml:space="preserve"><path style="fill:#c39b6e" d="M359.977 80.012c42.664 0 39.997-71.995 97.951-71.995 35.331 0 57.329 34.665 39.997 71.995-13.475 29.022-31.998 63.996-23.998 87.994l-113.95-87.994zM151.99 80.012c-42.664 0-39.997-71.995-97.951-71.995-35.331 0-57.329 34.665-39.997 71.995 13.475 29.022 31.998 63.996 23.998 87.994l113.95-87.994z"/><path style="fill:#aa825a" d="M255.983 48.014c-136.958 0-247.984 71.995-247.984 247.984 0 135.991 111.026 207.987 247.984 207.987s247.984-71.995 247.984-207.987c0-175.989-111.025-247.984-247.984-247.984z"/><path style="fill:#8c705c" d="M255.983 88.011c-88.359 0-191.988 56.839-191.988 195.777 0 107.361 85.955 164.199 191.988 164.199s191.988-56.838 191.988-164.199c0-138.938-103.627-195.777-191.988-195.777z"/><path style="fill:#7c665d" d="M221.355 271.999c-4.805-16.211-15.324-47.997-45.971-47.997-22.986 0-89.628 48.745-107.266 103.993-15.324 47.997 75.874 127.992 160.9 127.992 41.319.001 5.371-140.005-7.663-183.988zM290.934 271.999c4.805-16.211 15.324-47.997 45.972-47.997 22.986 0 89.627 48.745 107.266 103.993 15.324 47.997-75.874 127.992-160.9 127.992-41.319.001-5.372-140.005 7.662-183.988z"/><path style="fill:#c39b6e" d="M191.988 415.99c0 25.771 41.906 47.997 63.996 47.997s63.996-22.226 63.996-47.997H191.988z"/><path style="fill:#d7b487" d="M273.238 256h-34.511a23.946 23.946 0 0 0-21.533 13.397c-16.026 32.643-45.936 116.404-33.207 154.592 7.155 21.465 55.996 0 71.995 0s64.841 21.465 71.995 0c12.729-38.188-17.18-121.949-33.207-154.592A23.943 23.943 0 0 0 273.238 256z"/><circle style="fill:#464655" cx="175.989" cy="256.003" r="15.999"/><circle style="fill:#464655" cx="335.978" cy="256.003" r="15.999"/><ellipse style="fill:#464655" cx="255.983" cy="370.996" rx="41.497" ry="25.998"/><path d="M191.988 256c0-8.821-7.178-15.999-15.999-15.999S159.99 247.179 159.99 256c0 8.821 7.178 15.999 15.999 15.999s15.999-7.177 15.999-15.999zM335.978 240.001c-8.821 0-15.999 7.178-15.999 15.999 0 8.821 7.178 15.999 15.999 15.999s15.999-7.178 15.999-15.999c0-8.821-7.177-15.999-15.999-15.999z"/><path d="M480.176 148.99c2.021-2.536 2.377-6.155.61-9.098-3.258-5.43 4.003-18.456 11.69-32.246 4.033-7.234 8.603-15.433 12.704-24.265 9.658-20.803 9.032-42.394-1.719-59.238C493.676 8.81 477.079.017 457.927.017c-28.379 0-41.502 21.828-53.081 41.084-5.793 9.634-11.129 18.499-17.783 24.243-37.798-16.571-83.12-25.33-131.081-25.33-47.409 0-92.227 8.572-129.762 24.775-6.361-5.752-11.538-14.362-17.145-23.687C97.498 21.845 84.376.017 55.996.017c-19.153 0-35.749 8.793-45.535 24.125C-.289 40.986-.915 62.578 8.743 83.381c4.101 8.832 8.67 17.031 12.704 24.265 7.688 13.791 14.949 26.816 11.69 32.246a7.986 7.986 0 0 0-.476 7.291c-7.697 15.818-13.427 32.576-17.478 46.67C5.535 227.435 0 264.667 0 295.998c0 67.265 26.185 123.169 75.723 161.669 22.907 17.802 50.313 31.512 81.46 40.748 30.358 9.003 63.6 13.568 98.802 13.568s68.444-4.565 98.802-13.568c31.146-9.237 58.553-22.947 81.459-40.748 49.537-38.501 75.722-94.405 75.722-161.669 0-31.327-5.533-68.554-15.18-102.133-3.897-13.563-9.349-29.591-16.612-44.875zM255.983 495.985c-145.785 0-239.985-78.5-239.985-199.987 0-29.899 5.308-65.52 14.562-97.727 10.117-35.21 23.976-62.7 39.024-77.407a7.998 7.998 0 0 0 .129-11.312 7.997 7.997 0 0 0-11.312-.129c-4.093 4-7.901 8.532-11.44 13.434-2.717-7.169-6.994-14.842-11.541-23.001-4.088-7.334-8.315-14.917-12.167-23.213-7.312-15.749-7.059-31.747.694-43.893 6.788-10.636 18.469-16.735 32.049-16.735 19.33 0 28.616 15.445 39.368 33.33 10.897 18.123 23.247 38.666 48.626 38.666a8 8 0 0 0 7.999-7.999 7.987 7.987 0 0 0-3.64-6.702c32.098-11.335 68.902-17.297 107.633-17.297 39.26 0 76.545 6.121 108.949 17.761a7.979 7.979 0 0 0-2.999 6.238 8 8 0 0 0 7.999 7.999c25.378 0 37.729-20.542 48.625-38.666 10.752-17.885 20.039-33.33 39.369-33.33 13.58 0 25.26 6.1 32.048 16.733 7.753 12.147 8.006 28.145.694 43.894-3.852 8.294-8.079 15.878-12.167 23.213-4.939 8.859-9.555 17.146-12.204 24.835-3.896-5.598-8.125-10.762-12.717-15.25a8 8 0 0 0-11.184 11.44c15.043 14.706 28.898 42.194 39.012 77.401 9.252 32.204 14.559 67.82 14.559 97.716.002 121.488-94.198 199.988-239.983 199.988z"/><path d="M460.079 63.003a8 8 0 0 0 8.049-13.823c-3.828-2.33-11.635-4.955-20.924 3.646-4.464 4.133-8.719 10.215-13.226 16.653-8.075 11.539-17.229 24.618-27.575 26.686a8 8 0 0 0 3.137 15.689c16.637-3.327 28.23-19.893 37.546-33.202 4.022-5.744 10.016-14.307 12.993-15.649zM105.562 96.166C95.217 94.097 86.063 81.019 77.987 69.48c-4.507-6.438-8.762-12.52-13.226-16.653-9.289-8.599-17.096-5.975-20.924-3.646-3.774 2.297-4.941 7.203-2.644 10.975 2.231 3.666 6.967 4.884 10.692 2.848 2.979 1.342 8.972 9.904 12.993 15.649 9.315 13.31 20.909 29.875 37.546 33.202a8 8 0 0 0 9.412-6.276 7.997 7.997 0 0 0-6.274-9.413zM311.668 277.782a7.97 7.97 0 0 0-2.033-3.442 7.998 7.998 0 0 0-11.312.002c-4.095 4.097-1.727 9.016-.949 10.632.461.959 1.159 2.338 2.041 4.081 7.066 13.959 28.564 56.439 28.564 86.937 0 18.545-3.014 30.369-9.213 36.149-7.657 7.139-21.661 6.157-39.388 4.913-4.991-.35-10.111-.694-15.402-.893.001-.058.009-.114.009-.172v-15.973c1.806.009 3.535.016 5.161.016 17.916 0 34.837 0 34.837-24.04 0-22.055-21.532-39.997-47.997-39.997s-47.997 17.943-47.997 39.997c0 6.644 1.045 16.016 10.079 20.696 5.995 3.105 14.042 3.345 24.757 3.345 1.625 0 3.355-.007 5.161-.016v15.973c0 .06.008.116.009.175-5.378.206-10.578.567-15.647.934-17.613 1.274-31.525 2.28-39.134-4.801-6.207-5.774-9.223-17.649-9.223-36.306 0-21.362 10.622-53.315 29.91-89.973 1.562-2.969 2.088-3.969 2.088-6.021a8 8 0 0 0-7.999-7.999 8.004 8.004 0 0 0-7.396 4.943c-.171.339-.462.888-.852 1.628-20.772 39.477-31.751 73.166-31.751 97.424 0 23.669 4.552 38.928 14.325 48.019a32.546 32.546 0 0 0 1.731 1.496c1.192 25.54 32.182 54.477 71.938 54.477 39.84 0 70.874-29.06 71.944-54.637a32.238 32.238 0 0 0 1.748-1.506c9.757-9.097 14.302-24.302 14.302-47.851 0-34.316-22.005-77.794-30.288-94.161-.811-1.601-1.645-3.248-2.023-4.049zm-2.012 7.853zm-84.232 96.847c-.356-.185-1.439-.745-1.439-6.49 0-13.232 14.354-23.998 31.998-23.998 17.644 0 31.998 10.766 31.998 23.998 0 5.743-1.084 6.305-1.44 6.49-2.998 1.553-12.012 1.553-17.398 1.553-1.805 0-3.72-.009-5.75-.019a1412.42 1412.42 0 0 0-7.411-.023c-2.624 0-5.092.012-7.411.023-2.03.01-3.946.019-5.75.019-5.384-.001-14.4-.001-17.397-1.553zm30.559 81.505c-26.752 0-47.406-16.203-53.867-30.917 4.021.655 8.25.906 12.635.906 6.022 0 12.328-.456 18.748-.92 7.255-.524 14.756-1.067 22.484-1.067 7.654 0 15.086.521 22.274 1.025 11.189.785 22.03 1.545 31.641-.057-6.405 14.745-27.095 31.03-53.915 31.03z"/><path d="M263.983 439.989h-15.999a8 8 0 0 0 0 15.998h15.999a8 8 0 0 0 0-15.998z"/></svg>