<svg xmlns="http://www.w3.org/2000/svg" viewBox="0 0 511.998 511.998" style="enable-background:new 0 0 511.998 511.998" xml:space="preserve"><path style="fill:#efbb6a" d="M270.625 130.286h151.14c33.56 0 60.765 27.205 60.765 60.765v162.685c0 33.56-27.205 60.765-60.765 60.765H315.887l-9.052-51.9h114.931c4.888 0 8.865-3.977 8.865-8.865V191.051c0-4.888-3.977-8.865-8.865-8.865h-135.82l-15.321-51.9z"/><path style="fill:#f2f2f2" d="M350.64 100.18c8.498-6.595 13.967-16.906 13.967-28.495 0-19.909-16.138-36.047-36.047-36.047-.78 0-1.551.034-2.319.082-5.328-13.253-18.292-22.613-33.45-22.613-11.92 0-22.486 5.79-29.048 14.707a46.5 46.5 0 0 0-20.931-4.955 46.484 46.484 0 0 0-26.661 8.364C210.52 18.654 197.91 9.892 183.247 9.892c-9.925 0-18.911 4.012-25.43 10.501a46.494 46.494 0 0 0-21.054-5.017c-16.981 0-31.843 9.063-40.021 22.614a36.048 36.048 0 0 0-9.974-1.41c-19.909 0-36.047 16.14-36.047 36.047 0 9.954 4.035 18.966 10.559 25.49"/><path style="fill:#ccc" d="M268.857 40.074a46.484 46.484 0 0 1 26.661-8.364 46.487 46.487 0 0 1 20.931 4.955 36.212 36.212 0 0 1 6.689-6.914c-6.405-10-17.588-16.644-30.346-16.644-11.92 0-22.486 5.79-29.048 14.707a46.59 46.59 0 0 0-7.926-3.098 36.202 36.202 0 0 1 13.039 15.358zM103.425 81.48c0-19.909 16.14-36.047 36.047-36.047 3.462 0 6.806.498 9.974 1.41 8.177-13.551 23.04-22.614 40.021-22.614a46.494 46.494 0 0 1 21.054 5.017 36.377 36.377 0 0 1 3.08-2.724c-6.405-9.996-17.6-16.628-30.355-16.628-9.925 0-18.911 4.012-25.43 10.501a46.494 46.494 0 0 0-21.054-5.017c-16.981 0-31.843 9.063-40.021 22.614a36.048 36.048 0 0 0-9.974-1.41c-19.909 0-36.047 16.14-36.047 36.047 0 9.954 4.035 18.966 10.559 25.49l46.387.331a35.904 35.904 0 0 1-4.241-16.97z"/><path style="fill:#d88948" d="m46.488 364.453 9.462-173.906 2.385-43.877 2.535-46.498h287.857l2.535 46.498 2.385 43.877 9.462 173.906 2.396 43.877 2.202 40.547H41.89l2.203-40.547"/><path style="fill:#c4783f" d="m119.263 364.453 5.113-173.906 1.288-43.877 1.37-46.498H60.87l-2.535 46.498-2.385 43.877-9.462 173.906-2.395 43.877-2.203 40.547h74.889l1.189-40.547z"/><path style="fill:#efbb6a" d="M358.285 146.667H51.312l-2.149 43.878h311.271z"/><path style="fill:#f9dab4" d="M261.777 146.671h37.814v43.873h-37.814z"/><path style="fill:#efbb6a" d="M373.652 364.45H35.945l-2.149 43.88h342.005z"/><path style="fill:#d19b54" d="m35.945 364.45-2.149 43.88h72.82l2.149-43.88z"/><path style="fill:#f9dab4" d="M261.777 366.388h37.814v43.873h-37.814z"/><path style="fill:#d19b54" d="m51.312 146.667-2.149 43.878h62.948l2.147-43.878z"/><path style="fill:#efbb6a" d="M28.136 448.872h353.328v54.905H28.136z"/><path style="fill:#d19b54" d="M28.136 448.872h100.067v54.905H28.136z"/><path style="fill:#f9dab4" d="M257.734 448.872h49.8v54.724h-49.8z"/><path d="M422.431 120.394h-62.825l-.844-15.472c9.919-8.583 15.561-20.866 15.561-34.079 0-23.739-18.436-43.253-41.743-44.975-7.958-13.939-22.722-22.655-39.125-22.655-11.825 0-23.174 4.716-31.539 12.88-5.898-2.077-12.075-3.127-18.439-3.127-8.178 0-16.135 1.763-23.433 5.155C211.64 6.881 198.298 0 183.912 0c-9.871 0-19.263 3.154-27.02 8.982-6.206-2.325-12.727-3.499-19.462-3.499-17.517 0-33.568 7.966-44.082 21.595a45.134 45.134 0 0 0-5.913-.39c-24.868 0-45.1 20.231-45.1 45.1 0 10.481 3.555 20.415 10.088 28.429l-2.001 36.698a9.051 9.051 0 0 0-7.486 8.468l-2.148 43.878a9.052 9.052 0 0 0 6.294 9.065l-8.501 156.229H36.61a9.05 9.05 0 0 0-9.041 8.609l-2.148 43.878a9.052 9.052 0 0 0 9.042 9.495h.74l-1.219 22.444h-5.182a9.052 9.052 0 0 0-9.052 9.052v54.911a9.052 9.052 0 0 0 9.052 9.052H58.06a9.052 9.052 0 0 0 0-18.104H37.853v-36.807h335.221v36.807H91.854a9.052 9.052 0 0 0 0 18.104h290.272a9.052 9.052 0 0 0 9.052-9.052v-54.911a9.052 9.052 0 0 0-9.052-9.052h-5.18l-.885-16.292c.135.006.269.021.406.021h45.965c38.497 0 69.816-31.32 69.816-69.817V190.211c-.001-38.497-31.32-69.817-69.817-69.817zm-54.777 75.554a9.043 9.043 0 0 0 2.462-5.55h52.128v162.311h-49.997l-8.401-154.381a9.064 9.064 0 0 0 3.808-2.38zM59.335 180.653l1.261-25.774h289.733l1.261 25.774H59.335zm283.033-43.878h-25.14l-1.084-28.39h24.675l1.549 28.39zm-44.342-28.39 1.084 28.39h-39.714l-.479-28.39h39.109zm-57.216 0 .479 28.39h-71.652l.479-28.39h70.694zm-89.28 28.39h-39.713l1.083-28.39h39.109l-.479 28.39zm-57.831 0h-25.14l1.549-28.39h24.675l-1.084 28.39zm56.803 61.983-.681 40.508a9.053 9.053 0 0 0 18.102.304l.686-40.811h73.71l2.617 155.8h-78.943l1.384-82.409a9.053 9.053 0 0 0-8.899-9.203l-.155-.001a9.054 9.054 0 0 0-9.049 8.9l-1.389 82.714h-44.408l5.958-155.8h41.067v-.002zm117.971 173.905a9.052 9.052 0 0 0 0-18.104h-5.431l-2.617-155.8h41.066l3.511 91.796a9.051 9.051 0 0 0 9.392 8.7 9.052 9.052 0 0 0 8.7-9.391l-3.485-91.104h26.128l8.478 155.8h-28.649l-1.325-34.657a9.046 9.046 0 0 0-9.391-8.7 9.052 9.052 0 0 0-8.7 9.391l1.299 33.965h-9.204a9.052 9.052 0 0 0 0 18.104h67.453l1.261 25.774H43.967l1.261-25.774h223.245zm-121.627 43.879-.374 22.442h-46.227l.862-22.442h45.739zm18.107 0h81.021l.374 22.442h-81.77l.375-22.442zm99.128 0h45.739l.862 22.442h-46.227l-.374-22.442zM87.433 44.793c2.52 0 5.034.355 7.474 1.056a9.055 9.055 0 0 0 10.252-4.023c6.892-11.42 18.955-18.239 32.271-18.239 5.958 0 11.667 1.36 16.968 4.042a9.052 9.052 0 0 0 10.473-1.662c5.095-5.072 11.857-7.865 19.042-7.865 10.623 0 20.295 6.273 24.643 15.979a9.052 9.052 0 0 0 13.436 3.727 37.415 37.415 0 0 1 21.486-6.74c5.92 0 11.594 1.343 16.869 3.991a9.052 9.052 0 0 0 11.354-2.724c5.154-7.003 13.084-11.02 21.757-11.02 11.081 0 20.914 6.648 25.051 16.936a9.059 9.059 0 0 0 8.971 5.658 27.283 27.283 0 0 1 1.746-.064c14.886 0 26.995 12.11 26.995 26.995 0 7.426-2.982 14.361-8.264 19.436H67.803c-4.741-5.027-7.365-11.552-7.365-18.492 0-14.88 12.111-26.991 26.995-26.991zM65.188 198.758h26.128l-5.958 155.8H56.711l8.477-155.8zM53.331 416.542h29.655l-.862 22.442H52.113l1.218-22.442zM328.8 438.984l-.862-22.442h29.656l1.219 22.442H328.8zm145.342-86.088c0 28.515-23.198 51.713-51.711 51.713h-37.043l-1.655-33.795h38.697c9.88 0 17.917-8.037 17.917-17.917V190.211c0-9.879-8.037-17.917-17.917-17.917h-53.122l-1.317-26.909a9.036 9.036 0 0 0-3.743-6.886h58.183c28.515 0 51.711 23.198 51.711 51.713v162.684z"/></svg>