<svg xmlns="http://www.w3.org/2000/svg" viewBox="0 0 512.002 512.002" style="enable-background:new 0 0 512.002 512.002" xml:space="preserve"><path style="fill:#864a2d" d="M393.072 363.96c7.86 10.08 12.59 23.11 12.59 37.33 0 8.45-1.67 16.47-4.67 23.71h-287.66c-4.1-7.25-7-15.47-8.39-24.42-3.7-23.95 4.38-47.35 19.67-63.14 11.79-12.17 13.98-32.51 4.6-47.19-12.9-20.18-20.45-44.66-20.45-71.05 0-8.4.77-16.8 2.24-25.07a152 152 0 0 1 2.76-12.53c2.42-9.11 4.17-18.38 5.12-27.74.55-5.39.84-10.81.84-16.24v-2.68c0-35.2 15.06-67.06 39.4-90.12 24.34-23.06 57.96-37.32 95.11-37.32 74.29 0 134.51 57.05 134.51 127.44v9.5c0 1.92.03 3.84.1 5.76.48 13.81 2.67 27.51 6.59 40.78.82 2.79 1.68 5.75 2.53 8.84 4.93 17.72 9.99 39.39 9.99 53.71 0 24.61-6.56 47.55-17.91 66.9-7.9 13.49-6.41 31.41 3.03 43.53z"/><path style="fill:#aa6344" d="M382.122 95.33c-22.77-42.98-71.52-72.69-127.98-72.69-39.14 0-74.55 14.26-100.19 37.32-11.07 9.96-20.31 21.55-27.25 34.35 6.69-18.86 17.9-35.74 32.42-49.49 24.34-23.06 57.96-37.32 95.11-37.32 59.7 0 110.31 36.84 127.89 87.83z"/><path style="fill:#6e3117" d="M392.195 178H114.679a193.544 193.544 0 0 1-.917 3.6 152 152 0 0 0-2.76 12.53c5.58 13.1 18.59 22.3 33.71 22.3 3.99 0 7.88-.64 11.62-1.89.69 3.05 1.48 6.06 2.36 9.03a21.695 21.695 0 0 0-1.58 14.99c1.11 4.39 2.43 8.76 3.93 12.98 5.36 15.16 7.82 31.59 7.33 48.84-.02.85-.04 1.69-.04 2.54v.13c.02 22.48 18.32 40.76 40.82 40.76 5.68 0 11.01 2.74 13.92 7.16 7.32 11.12 19.63 17.76 32.93 17.76s25.61-6.64 32.93-17.76c2.91-4.42 8.24-7.16 13.94-7.16 22.48 0 40.78-18.28 40.8-40.77v-.12c0-1.7-.05-3.42-.15-5.1-.88-15.45 1.17-29.8 6.11-42.63 2.05-5.35 3.82-10.92 5.25-16.57 1.3-5.12.71-10.4-1.57-15.03.88-2.98 1.68-6 2.38-9.06 3.65 1.22 7.55 1.9 11.61 1.9 12.82 0 24.12-6.61 30.66-16.61-.85-3.09-1.71-6.05-2.53-8.84a161.985 161.985 0 0 1-3.237-12.98z"/><path style="fill:#afc3c3" d="M432.242 504.5H79.762c.86-61.36 33.06-115.15 81.34-146.05 5.22-3.35 10.63-6.42 16.21-9.21 4.25-2.13 8.61-4.09 13.05-5.87 3.21-1.29 6.47-2.49 9.77-3.59 17.56-5.87 36.35-9.04 55.87-9.04 19.53 0 38.32 3.17 55.88 9.04 3.3 1.1 6.55 2.29 9.76 3.59 4.45 1.78 8.8 3.74 13.06 5.87 5.58 2.78 10.99 5.86 16.21 9.21a176.381 176.381 0 0 1 29.73 23.92c31.35 31.34 50.93 74.45 51.6 122.13z"/><path style="fill:#c97f4c" d="m350.912 358.45-35.14 44.26c-2.48 3.13-7.14 3.39-9.96.57l-10.1-10.1c-3.26-3.26-8.84-.95-8.84 3.67v39.94c0 1.51-.51 2.97-1.45 4.16l-24.77 31.19c-2.38 3-6.92 3-9.3 0l-17.92-22.57a.214.214 0 0 1-.04-.12v-8.06c0-4.8-5.79-7.2-9.18-3.81-.04.04-.09.06-.14.06-.06 0-.12-.02-.16-.07l-62.81-79.12c5.22-3.35 10.63-6.42 16.21-9.21 4.25-2.13 8.61-4.09 13.05-5.87a169.868 169.868 0 0 1 9.77-3.59c17.56-5.87 36.35-9.04 55.87-9.04 19.53 0 38.32 3.17 55.88 9.04 1.58.53 3.15 1.08 4.71 1.65 1.7.62 3.38 1.26 5.05 1.94 4.45 1.78 8.8 3.74 13.06 5.87 5.58 2.78 10.99 5.86 16.21 9.21z"/><path style="fill:#e29c6d" d="M246.392 444.986v-3.596c0-9.815-7.734-17.86-17.434-18.372l-48.327-60.876a160.151 160.151 0 0 1 14.569-6.706 154.534 154.534 0 0 1 9.067-3.332c16.599-5.549 34.009-8.364 51.734-8.364 17.731 0 35.146 2.815 51.758 8.369 1.458.489 2.921 1.002 4.374 1.532 1.7.62 3.204 1.197 4.601 1.767a161.037 161.037 0 0 1 12.155 5.46c.833.415 1.665.839 2.494 1.271l-21.389 26.939-5.091-5.091c-3.438-3.438-7.989-5.333-12.813-5.333-10.046 0-18.219 8.162-18.219 18.195v37.74l-17.869 22.502-9.61-12.105z"/><path style="fill:#c97f4c" d="M316.592 341.43a40.534 40.534 0 0 1-13.72 2.38c-5.7 0-11.03 2.74-13.94 7.16-7.32 11.12-19.63 17.76-32.93 17.76s-25.61-6.64-32.93-17.76c-2.91-4.42-8.24-7.16-13.92-7.16-4.82 0-9.44-.84-13.74-2.38 1.56-.57 3.14-1.12 4.72-1.65 17.56-5.87 36.35-9.04 55.87-9.04 19.53 0 38.32 3.17 55.88 9.04 1.58.53 3.15 1.08 4.71 1.65z"/><path style="fill:#e29c6d" d="M390.929 179.806c0 13.047-10.579 23.626-23.626 23.626-3.436 0-6.688-.736-9.63-2.052-8.246-3.688-13.986-11.963-13.986-21.574 0-10.182 6.446-18.864 15.476-22.184a23.61 23.61 0 0 1 8.14-1.442c13.047 0 23.626 10.579 23.626 23.626z"/><path style="fill:#c97f4c" d="M359.163 157.622v22.01c0 7.366-.503 14.634-1.491 21.748-8.246-3.688-13.986-11.963-13.986-21.574.001-10.182 6.447-18.864 15.477-22.184z"/><path style="fill:#e29c6d" d="M168.327 179.806c0 9.611-5.74 17.886-13.986 21.574a23.503 23.503 0 0 1-9.63 2.052c-13.047 0-23.626-10.579-23.626-23.626s10.579-23.626 23.626-23.626c2.865 0 5.604.513 8.14 1.442 9.029 3.32 15.476 12.002 15.476 22.184z"/><path style="fill:#c97f4c" d="M168.327 179.806c0 9.611-5.74 17.886-13.986 21.574a158.288 158.288 0 0 1-1.491-21.748v-22.01c9.03 3.32 15.477 12.002 15.477 22.184z"/><path style="fill:#e29c6d" d="M346.582 98.89v80.74c0 11.68-1.38 22.95-3.95 33.57-11.33 46.94-45.84 81.09-86.63 81.09s-75.29-34.15-86.62-81.09c-2.57-10.62-3.95-21.89-3.95-33.57V98.89h181.15z"/><path style="fill:#c97f4c" d="M346.582 98.89v60.74c-28.51-1.57-62.67-7.96-92.68-26.02v.85c0 6.627-5.373 12-12 12h-1c-17.58 0-33.91-6.78-45.62-18.25-7.76 8.92-18.12 15.54-29.85 19.03V98.89h181.15zM342.632 213.2c-11.33 46.94-45.84 81.09-86.63 81.09s-75.29-34.15-86.62-81.09a21.91 21.91 0 0 1 9.1-1.96c13.12 0 25.06 6.43 32.52 16.43 13.5-8.08 29-12.42 45-12.42s31.5 4.34 45 12.42c7.46-10 19.4-16.43 32.52-16.43 3.2 0 6.3.68 9.11 1.96z"/><path style="fill:#864a2d" d="M361.847 81H146.31v55.995c22.468 0 41.494-13.668 47.991-32.542 7.542 17.022 25.562 29.009 46.602 29.009v-25.473c21.047 18.775 58.277 39.052 120.944 39.052V81zM342.279 235.437c1.438-5.682-2.893-11.197-8.755-11.197h-.002c-13.839 0-25.278 10.213-27.217 23.506-13.271-12.106-30.924-19.492-50.303-19.492s-37.032 7.385-50.303 19.492c-1.939-13.292-13.378-23.506-27.217-23.506-5.837 0-10.192 5.477-8.762 11.136a133.578 133.578 0 0 0 3.574 11.832c6.075 17.177 8.595 35.333 8.073 53.544a74.38 74.38 0 0 0-.031 2.168v.12c.013 15.273 12.52 27.769 27.794 27.769h.027c9.895 0 19.336 4.745 24.775 13.011 4.72 7.174 12.842 11.909 22.071 11.909 9.229 0 17.352-4.735 22.071-11.909 5.439-8.267 14.88-13.011 24.775-13.011h.027c15.273 0 27.78-12.496 27.794-27.769v-.12c0-1.464-.043-2.918-.125-4.361-.934-16.341 1.079-32.76 6.954-48.037a133.206 133.206 0 0 0 4.78-15.085z"/><path style="fill:#aa6344" d="M342.552 233.24c-5.42 1.17-10.92 2.9-14.59 5.12-2.29.96-4.3 2.49-5.83 4.43a14.292 14.292 0 0 0-2.96 6.83c-1.01 6.87-6.86 11.14-12.93 11.14-3.04 0-6.13-1.07-8.7-3.41a61.504 61.504 0 0 0-41.54-16.1c-7.7 0-15.24 1.43-22.28 4.16a61.61 61.61 0 0 0-19.26 11.94c-2.57 2.34-5.66 3.41-8.7 3.41-6.07 0-11.92-4.27-12.93-11.14-.75-5.12-4.2-9.33-8.78-11.25-3.28-1.5-8.73-3.13-14.58-4.58-.01-.2-.02-.4-.02-.6 0-4.8 3.95-8.95 9.03-8.95 13.84 0 25.28 10.21 27.22 23.51 13.27-12.11 30.92-19.5 50.3-19.5s37.03 7.39 50.3 19.5c.97-6.65 4.32-12.53 9.15-16.74a27.363 27.363 0 0 1 18.07-6.77c5.1 0 9.03 4.17 9.03 9z"/><path d="M433.862 460.682a7.502 7.502 0 0 0-14.52 3.77 169.286 169.286 0 0 1 5.4 40.153 7.5 7.5 0 0 0 7.497 7.396l.106-.001a7.5 7.5 0 0 0 7.395-7.604 184.306 184.306 0 0 0-5.878-43.714zM420.035 424.104a184.329 184.329 0 0 0-7.511-13.407c.416-3.099.636-6.258.636-9.406 0-15.323-5.034-30.219-14.173-41.939-7.746-9.943-8.763-24.39-2.473-35.127 12.391-21.131 18.94-45.576 18.94-70.693 0-17.559-6.976-44.862-12.828-64.677-4.238-14.35-6.388-29.293-6.388-44.416v-9.502c0-37.216-15.603-71.873-43.933-97.586a7.5 7.5 0 1 0-10.081 11.108c25.158 22.834 39.014 53.546 39.014 86.479v9.502c0 2.554.076 5.1.188 7.643a30.894 30.894 0 0 0-12.28-3.342 7.48 7.48 0 0 0 .2-1.698v-33.021c0-4.143-3.357-7.5-7.5-7.5s-7.5 3.357-7.5 7.5v25.414c-33.167-.943-76.503-8.542-108.451-37.042a7.502 7.502 0 0 0-12.493 5.597v17.377c-14.38-2.315-26.598-11.206-32.246-23.951a7.501 7.501 0 0 0-13.949.598c-4.891 14.209-17.834 24.388-33.399 26.887v-11.033c0-4.143-3.357-7.5-7.5-7.5s-7.5 3.357-7.5 7.5v19.129c0 4.143 3.357 7.5 7.5 7.5 3.966 0 7.852-.388 11.622-1.107v8.247a31.09 31.09 0 0 0-13.225-2.956 30.958 30.958 0 0 0-18.375 6.023c.592-5.754.891-11.456.891-17.082v-2.686C127.224 68.803 184.199 15 254.231 15c21.348 0 42.462 5.101 61.059 14.749a7.498 7.498 0 0 0 10.111-3.203 7.5 7.5 0 0 0-3.203-10.111C301.476 5.683 277.974 0 254.231 0c-78.304 0-142.008 60.532-142.008 134.936v2.686c0 13.617-1.923 27.768-5.714 42.057-3.485 13.132-5.252 26.43-5.252 39.522 0 5.452.326 11.028.969 16.574a7.501 7.501 0 0 0 8.313 6.587 7.5 7.5 0 0 0 6.587-8.313 129.416 129.416 0 0 1-.869-14.848c0-7.617.677-15.32 1.998-23.02 5.495 8.844 15.295 14.748 26.452 14.748a31.08 31.08 0 0 0 15.665-4.241 144.767 144.767 0 0 0 4.308 17.509c-2.542 3.845-3.37 8.512-2.232 13.016a141.06 141.06 0 0 0 3.774 12.496c5.588 15.802 8.161 32.903 7.646 50.831a85.655 85.655 0 0 0-.033 2.381v.126c.012 13.608 7.774 25.432 19.104 31.309a180.802 180.802 0 0 0-18.978 8.18c-24.752 12.366-45.831 29.744-62.282 50.561-1.123-18.716 5.5-37.198 18.326-50.44 14.279-14.752 16.657-39.017 5.529-56.446-3.972-6.211-7.416-12.914-10.238-19.923a7.5 7.5 0 0 0-13.914 5.604c3.169 7.869 7.043 15.405 11.512 22.396 7.366 11.539 5.757 28.203-3.665 37.936-17.52 18.09-25.632 44.072-21.7 69.506a82.545 82.545 0 0 0 1.897 8.902c-17.023 27.664-26.691 59.869-27.164 93.766a7.5 7.5 0 0 0 7.395 7.604c.035-.002.072-.002.107-.002a7.5 7.5 0 0 0 7.497-7.396c.768-55.058 27.913-105.278 72.253-136.093l58.538 73.732a7.704 7.704 0 0 0 7.84 2.678v4.529c0 1.703.576 3.382 1.669 4.786l17.916 22.566a13.365 13.365 0 0 0 10.524 5.084h.001a13.37 13.37 0 0 0 10.525-5.082l24.77-31.197a14.247 14.247 0 0 0 3.075-8.82v-34.341l6.133 6.134a14.253 14.253 0 0 0 10.845 4.131 14.202 14.202 0 0 0 10.3-5.344l30.842-38.845a169.006 169.006 0 0 1 22.851 19.15 168.835 168.835 0 0 1 31.311 43.206 7.501 7.501 0 0 0 6.697 4.114c1.14 0 2.296-.261 3.382-.811a7.498 7.498 0 0 0 3.302-10.077zm-36.604-244.3c0 8.891-7.233 16.124-16.124 16.124-5.474 0-10.493-2.726-13.491-7.299.175-2.988.267-5.99.267-8.999v-9.04a16.076 16.076 0 0 1 13.225-6.91c8.889 0 16.123 7.233 16.123 16.124zm-188.492-60.11c10.775 13.23 27.611 21.269 45.965 21.269 4.143 0 7.5-3.357 7.5-7.5v-9.988c28.335 19.871 61.816 27.667 90.679 30.117v26.038c0 7.635-.625 15.225-1.858 22.567a130.309 130.309 0 0 1-3.304 14.565c-.134-.003-.264-.022-.398-.022-13.137 0-24.901 7.452-30.869 18.535-13.644-9.425-29.854-14.521-46.65-14.521s-33.007 5.097-46.65 14.521c-5.968-11.083-17.732-18.535-30.87-18.535-.134 0-.263.019-.396.022a130.929 130.929 0 0 1-3.297-14.575c-1.231-7.333-1.856-14.923-1.856-22.558v-41.207c8.887-4.308 16.506-10.725 22.004-18.728zm-50.232 76.234c-8.891 0-16.124-7.233-16.124-16.124s7.233-16.124 16.124-16.124c5.279 0 10.201 2.58 13.225 6.907v9.043c0 3.018.092 6.03.268 9.027-.038.054-.081.103-.119.158a16.124 16.124 0 0 1-13.374 7.113zm35.657 48.779a126.914 126.914 0 0 1-3.373-11.168c-.108-.43-.02-.832.264-1.197a1.532 1.532 0 0 1 1.228-.602c9.864 0 18.374 7.346 19.794 17.087a7.499 7.499 0 0 0 12.476 4.459c12.394-11.306 28.464-17.532 45.249-17.532s32.855 6.227 45.249 17.532a7.5 7.5 0 0 0 12.476-4.459c1.42-9.741 9.93-17.087 19.797-17.087.619 0 1.001.323 1.213.595.203.262.415.692.271 1.262a125.799 125.799 0 0 1-4.512 14.233c-5.988 15.57-8.492 32.781-7.441 51.159.074 1.3.112 2.622.112 3.931v.114c-.009 11.18-9.112 20.275-20.319 20.275-12.686 0-24.289 6.127-31.041 16.389-3.515 5.343-9.424 8.532-15.806 8.532s-12.291-3.189-15.806-8.531c-6.752-10.263-18.355-16.39-31.067-16.39-11.181 0-20.283-9.096-20.293-20.27v-.12c0-.653.009-1.305.027-1.953.569-19.779-2.291-38.707-8.498-56.259zm130.103 152.622-9.446-9.448a12.638 12.638 0 0 0-13.82-2.748 12.642 12.642 0 0 0-7.828 11.715v39.657l-23.369 29.433-15.111-19.032v-5.519c0-5.228-3.121-9.898-7.95-11.899a12.84 12.84 0 0 0-6.566-.883l-54.097-68.138c2.75-1.57 5.539-3.089 8.397-4.517a165.683 165.683 0 0 1 21.838-9.057c6.164-2.06 12.51-3.76 18.879-5.088 2.487 1.58 4.634 3.648 6.273 6.139 6.299 9.571 16.892 15.286 28.337 15.286s22.038-5.715 28.337-15.287c1.641-2.495 3.792-4.565 6.286-6.146a167.69 167.69 0 0 1 18.883 5.098 165.524 165.524 0 0 1 21.842 9.059 169.202 169.202 0 0 1 8.396 4.499l-29.281 36.876zm27.595-54.79a181.076 181.076 0 0 0-18.989-8.184c11.321-5.878 19.084-17.703 19.096-31.315v-.12a82.88 82.88 0 0 0-.138-4.789c-.927-16.235 1.249-31.348 6.467-44.916a140.734 140.734 0 0 0 5.053-15.938v-.001c1.142-4.513.324-9.185-2.204-13.038a144.666 144.666 0 0 0 4.311-17.523 31.044 31.044 0 0 0 15.65 4.212c9.156 0 17.4-3.976 23.1-10.29 6.495 23.161 10.049 41.775 10.049 52.892 0 22.452-5.837 44.274-16.882 63.108-9.318 15.908-7.846 37.263 3.583 51.933 4.59 5.887 7.837 12.832 9.564 20.249a184.379 184.379 0 0 0-10.771-11.753 183.653 183.653 0 0 0-47.889-34.527z"/><path d="M214.805 197.327c4.143 0 7.5-3.357 7.5-7.5v-12.555c0-4.143-3.357-7.5-7.5-7.5s-7.5 3.357-7.5 7.5v12.555c0 4.143 3.357 7.5 7.5 7.5zM297.209 197.327c4.143 0 7.5-3.357 7.5-7.5v-12.555c0-4.143-3.357-7.5-7.5-7.5s-7.5 3.357-7.5 7.5v12.555c0 4.143 3.357 7.5 7.5 7.5zM361.072 416.977a7.499 7.499 0 0 0-7.5 7.5v9.504c0 4.143 3.357 7.5 7.5 7.5s7.5-3.357 7.5-7.5v-9.504c0-4.143-3.357-7.5-7.5-7.5zM381.76 430.748a7.499 7.499 0 0 0-7.5 7.5v9.504c0 4.143 3.357 7.5 7.5 7.5s7.5-3.357 7.5-7.5v-9.504a7.5 7.5 0 0 0-7.5-7.5zM182.11 455.694a7.5 7.5 0 0 0-10.606-.001 7.498 7.498 0 0 0-.001 10.606l10.354 10.355a7.476 7.476 0 0 0 5.304 2.197 7.498 7.498 0 0 0 5.304-12.802l-10.355-10.355zM156.097 453.18a7.5 7.5 0 0 0-10.606.001 7.498 7.498 0 0 0 .001 10.606l10.355 10.354c1.464 1.464 3.384 2.196 5.303 2.196s3.839-.732 5.304-2.197a7.498 7.498 0 0 0-.001-10.606l-10.356-10.354zM220.06 372.115h-.093c-4.143 0-7.453 3.357-7.453 7.5s3.403 7.5 7.546 7.5 7.5-3.357 7.5-7.5-3.358-7.5-7.5-7.5z"/></svg>