<svg xmlns="http://www.w3.org/2000/svg" viewBox="0 0 512 512" style="enable-background:new 0 0 512 512" xml:space="preserve"><circle style="fill:#d5a150" cx="256" cy="256" r="248.5"/><path style="fill:#ad712c" d="M410.572 61.429C444.324 103.858 464.5 157.57 464.5 216c0 137.243-111.257 248.5-248.5 248.5-58.43 0-112.142-20.176-154.572-53.928C106.954 467.802 177.187 504.5 256 504.5c137.243 0 248.5-111.257 248.5-248.5 0-78.812-36.698-149.046-93.928-194.571zM142.965 148.524a19.937 19.937 0 0 1-14.142-5.858c-21.444-21.444-21.444-56.337 0-77.782 10.388-10.388 24.199-16.109 38.891-16.109s28.503 5.721 38.891 16.109c7.81 7.811 7.81 20.474 0 28.285-7.812 7.809-20.475 7.81-28.285 0-2.833-2.833-6.6-4.394-10.606-4.394s-7.773 1.561-10.606 4.394c-5.849 5.849-5.849 15.365 0 21.213 7.811 7.811 7.811 20.474 0 28.284a19.938 19.938 0 0 1-14.143 5.858z"/><circle style="fill:#563f32" cx="167.71" cy="103.78" r="35"/><path style="fill:#7a5436" d="m132.87 100.428-.036.404c-.954 11.58 8.559 21.341 20.17 20.92a36.74 36.74 0 0 0 2.323-.159c16.476-1.662 29.686-14.983 31.229-31.47.013-.135.024-.269.035-.403.954-11.579-8.559-21.341-20.17-20.92a36.74 36.74 0 0 0-2.323.159c-16.474 1.661-29.684 14.982-31.228 31.469z"/><path style="fill:#ad712c" d="M62.965 308.524a19.937 19.937 0 0 1-14.142-5.858c-21.444-21.444-21.444-56.337 0-77.782 10.388-10.388 24.199-16.109 38.891-16.109s28.503 5.721 38.891 16.109c7.81 7.811 7.81 20.474 0 28.285-7.812 7.809-20.475 7.81-28.285 0-2.833-2.833-6.6-4.394-10.606-4.394s-7.773 1.561-10.606 4.394c-5.849 5.849-5.849 15.365 0 21.213 7.811 7.811 7.811 20.474 0 28.284a19.938 19.938 0 0 1-14.143 5.858z"/><circle style="fill:#563f32" cx="87.71" cy="263.78" r="35"/><path style="fill:#7a5436" d="m52.87 260.428-.036.404c-.954 11.58 8.559 21.341 20.17 20.92a36.74 36.74 0 0 0 2.323-.159c16.476-1.662 29.686-14.983 31.229-31.47.013-.135.024-.269.035-.403.954-11.579-8.559-21.341-20.17-20.92a36.74 36.74 0 0 0-2.323.159c-16.474 1.661-29.684 14.982-31.228 31.469z"/><path style="fill:#ad712c" d="M132.965 408.524a19.937 19.937 0 0 1-14.142-5.858c-21.444-21.444-21.444-56.337 0-77.782 10.388-10.388 24.199-16.109 38.891-16.109s28.503 5.721 38.891 16.109c7.81 7.811 7.81 20.474 0 28.285-7.812 7.809-20.475 7.81-28.285 0-2.833-2.833-6.6-4.394-10.606-4.394s-7.773 1.561-10.606 4.394c-5.849 5.849-5.849 15.365 0 21.213 7.811 7.811 7.811 20.474 0 28.284a19.938 19.938 0 0 1-14.143 5.858z"/><circle style="fill:#563f32" cx="157.71" cy="363.78" r="35"/><path style="fill:#7a5436" d="m122.87 360.428-.036.404c-.954 11.58 8.559 21.341 20.17 20.92a36.74 36.74 0 0 0 2.323-.159c16.476-1.662 29.686-14.983 31.229-31.47.013-.135.024-.269.035-.403.954-11.579-8.559-21.34-20.17-20.92a36.74 36.74 0 0 0-2.323.159c-16.474 1.661-29.684 14.982-31.228 31.469z"/><path style="fill:#ad712c" d="M242.965 478.524a19.937 19.937 0 0 1-14.142-5.858c-21.444-21.444-21.444-56.337 0-77.782 10.388-10.388 24.199-16.109 38.891-16.109s28.503 5.721 38.891 16.109c7.81 7.811 7.81 20.474 0 28.285-7.812 7.809-20.475 7.81-28.285 0-2.833-2.833-6.6-4.394-10.606-4.394s-7.773 1.561-10.606 4.394c-5.849 5.849-5.849 15.365 0 21.213 7.811 7.811 7.811 20.474 0 28.284a19.938 19.938 0 0 1-14.143 5.858z"/><circle style="fill:#563f32" cx="267.71" cy="433.78" r="35"/><path style="fill:#7a5436" d="m232.87 430.428-.036.404c-.954 11.58 8.559 21.341 20.17 20.92a36.74 36.74 0 0 0 2.323-.159c16.476-1.662 29.686-14.983 31.229-31.47.013-.135.024-.269.035-.403.954-11.579-8.559-21.34-20.17-20.92a36.74 36.74 0 0 0-2.323.159c-16.474 1.661-29.684 14.982-31.228 31.469z"/><path style="fill:#ad712c" d="M262.965 198.66a19.937 19.937 0 0 1-14.142-5.858c-21.444-21.444-21.444-56.337 0-77.782 10.388-10.388 24.199-16.109 38.891-16.109s28.503 5.721 38.891 16.109c7.81 7.811 7.81 20.474 0 28.285-7.812 7.809-20.475 7.81-28.285 0-2.833-2.833-6.6-4.394-10.606-4.394s-7.773 1.561-10.606 4.394c-5.849 5.849-5.849 15.365 0 21.213 7.811 7.811 7.811 20.474 0 28.284a19.938 19.938 0 0 1-14.143 5.858z"/><circle style="fill:#563f32" cx="287.71" cy="153.91" r="35"/><path style="fill:#7a5436" d="m252.87 150.564-.036.404c-.954 11.58 8.559 21.341 20.17 20.92a36.74 36.74 0 0 0 2.323-.159c16.476-1.662 29.686-14.983 31.229-31.47.013-.135.024-.269.035-.403.954-11.579-8.559-21.341-20.17-20.92a36.74 36.74 0 0 0-2.323.159c-16.474 1.661-29.684 14.982-31.228 31.469z"/><path style="fill:#ad712c" d="M382.965 378.524a19.937 19.937 0 0 1-14.142-5.858c-21.444-21.444-21.444-56.337 0-77.782 10.388-10.388 24.199-16.109 38.891-16.109s28.503 5.721 38.891 16.109c7.81 7.811 7.81 20.474 0 28.285-7.812 7.809-20.475 7.81-28.285 0-2.833-2.833-6.6-4.394-10.606-4.394s-7.773 1.561-10.606 4.394c-5.849 5.849-5.849 15.365 0 21.213 7.811 7.811 7.811 20.474 0 28.284a19.938 19.938 0 0 1-14.143 5.858z"/><circle style="fill:#563f32" cx="407.71" cy="333.78" r="35"/><path style="fill:#7a5436" d="M372.87 330.428a27.51 27.51 0 0 0-.035.404c-.954 11.58 8.559 21.341 20.17 20.92a36.74 36.74 0 0 0 2.323-.159c16.476-1.662 29.686-14.983 31.229-31.47.013-.135.024-.269.035-.403.954-11.579-8.559-21.34-20.17-20.92a36.74 36.74 0 0 0-2.323.159c-16.475 1.661-29.685 14.982-31.229 31.469z"/><path style="fill:#ad712c" d="M372.965 188.524a19.937 19.937 0 0 1-14.142-5.858c-21.444-21.444-21.444-56.337 0-77.782 10.388-10.388 24.199-16.109 38.891-16.109s28.503 5.721 38.891 16.109c7.81 7.811 7.81 20.474 0 28.285-7.812 7.809-20.475 7.81-28.285 0-2.833-2.833-6.6-4.394-10.606-4.394s-7.773 1.561-10.606 4.394c-5.849 5.849-5.849 15.365 0 21.213 7.811 7.811 7.811 20.474 0 28.284a19.938 19.938 0 0 1-14.143 5.858z"/><circle style="fill:#563f32" cx="397.71" cy="143.78" r="35"/><path style="fill:#7a5436" d="M362.87 140.428a27.51 27.51 0 0 0-.035.404c-.954 11.58 8.559 21.341 20.17 20.92a36.74 36.74 0 0 0 2.323-.159c16.476-1.662 29.686-14.983 31.229-31.47.013-.135.024-.269.035-.403.954-11.579-8.559-21.341-20.17-20.92a36.74 36.74 0 0 0-2.323.159c-16.475 1.661-29.685 14.982-31.229 31.469z"/><path style="fill:#ad712c" d="M222.965 308.524a19.937 19.937 0 0 1-14.142-5.858c-21.444-21.444-21.444-56.337 0-77.782 10.388-10.388 24.199-16.109 38.891-16.109s28.503 5.721 38.891 16.109c7.81 7.811 7.81 20.474 0 28.285-7.812 7.809-20.475 7.81-28.285 0-2.833-2.833-6.6-4.394-10.606-4.394s-7.773 1.561-10.606 4.394c-5.849 5.849-5.849 15.365 0 21.213 7.811 7.811 7.811 20.474 0 28.284a19.938 19.938 0 0 1-14.143 5.858z"/><circle style="fill:#563f32" cx="247.71" cy="263.78" r="35"/><path style="fill:#7a5436" d="m212.87 260.428-.036.404c-.954 11.58 8.559 21.341 20.17 20.92a36.74 36.74 0 0 0 2.323-.159c16.476-1.662 29.686-14.983 31.229-31.47.013-.135.024-.269.035-.403.954-11.579-8.559-21.341-20.17-20.92a36.74 36.74 0 0 0-2.323.159c-16.474 1.661-29.684 14.982-31.228 31.469z"/><path d="M437.02 74.98C388.668 26.629 324.38 0 256 0S123.333 26.629 74.98 74.98C26.629 123.333 0 187.62 0 256s26.629 132.667 74.98 181.02C123.333 485.371 187.62 512 256 512s132.668-26.629 181.02-74.98C485.371 388.667 512 324.38 512 256s-26.629-132.667-74.98-181.02zM256 497C123.112 497 15 388.888 15 256S123.112 15 256 15s241 108.112 241 241-108.112 241-241 241z"/><path d="M167.713 146.275c23.435 0 42.5-19.065 42.5-42.5 0-12.849-5.725-24.872-15.706-32.986-9.967-8.103-22.912-11.244-35.515-8.613-4.055.846-6.657 4.818-5.811 8.873s4.821 6.661 8.873 5.811c8.164-1.701 16.543.327 22.991 5.569 6.462 5.253 10.168 13.034 10.168 21.347 0 15.164-12.336 27.5-27.5 27.5-8.599 0-16.543-3.915-21.797-10.742-5.245-6.815-6.988-15.499-4.783-23.825a7.5 7.5 0 0 0-5.33-9.17 7.497 7.497 0 0 0-9.17 5.33c-3.407 12.862-.711 26.28 7.396 36.814 8.116 10.545 20.393 16.592 33.684 16.592zM130.213 263.775c0-14.326-7.152-27.591-19.133-35.485-11.971-7.889-26.967-9.227-40.116-3.581a7.5 7.5 0 0 0 5.918 13.784c8.627-3.704 18.083-2.857 25.944 2.323 7.872 5.187 12.386 13.555 12.386 22.959 0 15.164-12.336 27.5-27.5 27.5a27.587 27.587 0 0 1-20.235-8.877c-5.265-5.717-7.811-13.157-7.168-20.95a7.5 7.5 0 0 0-6.859-8.09 7.496 7.496 0 0 0-8.09 6.859c-.99 12.021 2.946 23.507 11.084 32.343 8.028 8.717 19.425 13.716 31.269 13.716 23.435-.001 42.5-19.066 42.5-42.501zM184.969 331.177c-9.72-8.12-22.368-11.497-34.697-9.267a7.5 7.5 0 0 0 2.669 14.761c7.945-1.437 16.113.756 22.411 6.018a27.405 27.405 0 0 1 9.861 21.086c0 15.164-12.336 27.5-27.5 27.5-9.18 0-17.435-4.347-22.646-11.925-5.213-7.581-6.326-16.825-3.053-25.365a7.5 7.5 0 1 0-14.007-5.367c-4.992 13.026-3.234 27.692 4.701 39.231a42.485 42.485 0 0 0 35.006 18.425c23.435 0 42.5-19.065 42.5-42.5a42.372 42.372 0 0 0-15.245-32.597zM265.893 391.32c-4.139.174-7.353 3.67-7.178 7.809s3.704 7.363 7.809 7.177c7.586-.319 14.763 2.384 20.216 7.612 5.465 5.239 8.475 12.291 8.475 19.856 0 15.164-12.337 27.5-27.5 27.5-15.164 0-27.5-12.336-27.5-27.5a7.5 7.5 0 0 0-15 0c0 23.435 19.065 42.5 42.5 42.5s42.5-19.065 42.5-42.5c0-11.692-4.65-22.589-13.094-30.684-8.433-8.083-19.533-12.26-31.228-11.77zM311.081 118.427c-11.972-7.889-26.969-9.226-40.125-3.578-14.225 6.129-24.008 19.472-25.531 34.822a7.5 7.5 0 0 0 14.927 1.481c.984-9.923 7.322-18.555 16.531-22.522 8.625-3.704 18.082-2.858 25.945 2.323 7.871 5.187 12.386 13.555 12.386 22.959 0 15.164-12.337 27.5-27.5 27.5-4.143 0-7.5 3.358-7.5 7.5s3.357 7.5 7.5 7.5c23.435 0 42.5-19.065 42.5-42.5 0-14.326-7.152-27.591-19.133-35.485zM431.081 298.291c-11.973-7.889-26.969-9.227-40.125-3.577-12.157 5.238-21.312 16.006-24.488 28.801-3.179 12.772-.352 26.045 7.755 36.417 8.118 10.386 20.325 16.343 33.491 16.343 4.143 0 7.5-3.358 7.5-7.5s-3.357-7.5-7.5-7.5c-8.518 0-16.417-3.856-21.673-10.581-5.244-6.709-7.073-15.295-5.016-23.561 2.055-8.28 7.986-15.25 15.857-18.641 8.626-3.704 18.082-2.858 25.945 2.323 7.871 5.187 12.386 13.555 12.386 22.959 0 4.142 3.357 7.5 7.5 7.5s7.5-3.358 7.5-7.5c.001-14.324-7.151-27.589-19.132-35.483zM397.714 186.275c23.435 0 42.5-19.065 42.5-42.5 0-4.142-3.357-7.5-7.5-7.5s-7.5 3.358-7.5 7.5c0 15.164-12.337 27.5-27.5 27.5s-27.5-12.336-27.5-27.5c0-10.996 6.546-20.921 16.678-25.287a7.499 7.499 0 0 0 3.92-9.855c-1.638-3.804-6.054-5.562-9.855-3.92-15.638 6.737-25.742 22.07-25.742 39.062-.001 23.435 19.064 42.5 42.499 42.5zM290.214 263.775c0-12.8-5.683-24.788-15.592-32.888-9.93-8.118-22.83-11.311-35.395-8.762-17.438 3.531-30.918 17.736-33.546 35.353-1.823 12.27 1.766 24.68 9.845 34.048a42.47 42.47 0 0 0 32.187 14.75c23.435-.001 42.501-19.066 42.501-42.501zm-63.329 17.954a27.527 27.527 0 0 1-6.368-22.042c1.699-11.391 10.414-20.577 21.689-22.86a27.752 27.752 0 0 1 5.515-.555 27.451 27.451 0 0 1 17.406 6.229 27.375 27.375 0 0 1 10.086 21.274c0 15.164-12.337 27.5-27.5 27.5a27.485 27.485 0 0 1-20.828-9.546z"/><circle cx="133.5" cy="293.5" r="7.5"/><circle cx="183.5" cy="293.5" r="7.5"/><circle cx="158.5" cy="248.5" r="7.5"/><circle cx="68.5" cy="338.5" r="7.5"/><circle cx="168.5" cy="448.5" r="7.5"/><circle cx="198.5" cy="408.5" r="7.5"/><circle cx="248.5" cy="348.5" r="7.5"/><circle cx="328.5" cy="318.5" r="7.5"/><circle cx="308.5" cy="338.5" r="7.5"/><circle cx="338.5" cy="368.5" r="7.5"/><circle cx="338.5" cy="428.5" r="7.5"/><circle cx="448.5" cy="218.5" r="7.5"/><circle cx="418.5" cy="418.5" r="7.5"/><circle cx="268.5" cy="38.5" r="7.5"/><circle cx="88.5" cy="128.5" r="7.5"/><circle cx="48.5" cy="188.5" r="7.5"/><circle cx="163.5" cy="203.5" r="7.5"/><circle cx="193.5" cy="188.5" r="7.5"/><circle cx="163.5" cy="173.5" r="7.5"/><circle cx="303.5" cy="248.5" r="7.5"/><circle cx="238.5" cy="98.5" r="7.5"/><circle cx="333.5" cy="188.5" r="7.5"/><circle cx="348.5" cy="233.5" r="7.5"/><circle cx="378.5" cy="233.5" r="7.5"/><circle cx="378.5" cy="263.5" r="7.5"/><circle cx="323.5" cy="83.5" r="7.5"/><circle cx="353.5" cy="68.5" r="7.5"/></svg>