<svg height="512pt" viewBox="-50 0 512 512.002" width="512pt" xmlns="http://www.w3.org/2000/svg"><path d="M234.984 7.574c-93.379 0-169.28 75.68-169.28 169.281v25.165c0 27.14-10.786 53.171-29.977 72.363L12.422 297.69c-9.871 9.872-2.883 26.75 11.078 26.75h33.52c4.796 0 8.683 3.887 8.683 8.68v28.754c0 42.973 35.156 78.133 78.129 78.133 16.754 0 30.383 13.578 30.383 30.383v24.96c0 5.094 4.133 9.223 9.226 9.223H327.63c5.168 0 9.36-4.191 9.36-9.36v-64.01c0-25.099 8.363-49.802 24.972-68.622 26.328-29.832 42.309-69.012 42.309-111.934V176.86c0-93.496-75.793-169.285-169.286-169.285zm0 0" fill="#e4eaf8"/><path d="M209.219 495.348V470.39c0-16.809-13.63-30.383-30.383-30.383-42.973 0-78.133-35.16-78.133-78.133v-28.754c0-4.797-3.887-8.684-8.68-8.684h-33.52c-13.96 0-20.952-16.875-11.081-26.75l23.308-23.304a102.341 102.341 0 0 0 29.973-72.367v-25.16c0-87.684 66.606-159.633 151.79-168.387a171.667 171.667 0 0 0-17.505-.895c-93.383 0-169.285 75.68-169.285 169.281v25.16a102.328 102.328 0 0 1-29.976 72.368l-23.305 23.305c-9.871 9.87-2.879 26.75 11.078 26.75h33.523c4.793 0 8.68 3.886 8.68 8.683v28.754c0 42.973 35.16 78.133 78.129 78.133 16.758 0 30.383 13.574 30.383 30.383v24.957c0 5.093 4.133 9.226 9.226 9.226h35.004a9.224 9.224 0 0 1-9.226-9.226zm0 0" fill="#d8dce5"/><path d="m324.613 186.469-20.351-11.75a3.979 3.979 0 0 1-1.953-4.067 70.158 70.158 0 0 0 0-22.484 3.979 3.979 0 0 1 1.953-4.066l20.351-11.75a7.927 7.927 0 0 0 2.903-10.829l-14.27-24.718c-2.191-3.79-7.039-5.09-10.828-2.899l-20.371 11.762c-1.43.824-3.227.7-4.5-.348a69.797 69.797 0 0 0-19.453-11.242c-1.54-.582-2.543-2.074-2.543-3.723V66.848a7.924 7.924 0 0 0-7.926-7.926h-28.543a7.926 7.926 0 0 0-7.926 7.926v23.507c0 1.645-1.004 3.141-2.543 3.723a69.776 69.776 0 0 0-19.449 11.242 3.975 3.975 0 0 1-4.504.344l-20.37-11.762a7.93 7.93 0 0 0-10.83 2.903l-14.269 24.718a7.921 7.921 0 0 0 2.899 10.825l20.351 11.75c1.43.824 2.22 2.441 1.954 4.066a70.563 70.563 0 0 0 0 22.484c.265 1.63-.524 3.243-1.954 4.07l-20.351 11.75a7.921 7.921 0 0 0-2.899 10.825l14.27 24.719c2.191 3.793 7.039 5.093 10.828 2.902l20.371-11.762a3.976 3.976 0 0 1 4.504.348 69.72 69.72 0 0 0 19.45 11.242c1.538.582 2.542 2.074 2.542 3.723v23.508a7.926 7.926 0 0 0 7.926 7.925h28.543c3.32 0 6.16-2.043 7.34-4.937-12.684-5.242-21.61-17.734-21.61-32.313 0-19.304 15.653-34.957 34.958-34.957 19.308 0 34.96 15.653 34.96 34.957 0 .891-.043 1.77-.109 2.645a7.923 7.923 0 0 0 10.082-3.277l14.27-24.72c2.187-3.792.89-8.64-2.903-10.827zm-91.261 8.883c-19.848 0-35.942-16.09-35.942-35.942 0-19.851 16.094-35.945 35.942-35.945 19.851 0 35.945 16.094 35.945 35.945 0 19.852-16.094 35.942-35.945 35.942zm0 0" fill="#ffc850"/><g fill="#feb644"><path d="M165.71 197.297c-2.187-3.793-.89-8.64 2.903-10.828l20.352-11.75c1.426-.824 2.215-2.438 1.95-4.067-.59-3.66-.903-7.414-.903-11.242s.312-7.582.902-11.242c.266-1.629-.523-3.242-1.95-4.066l-20.35-11.75c-3.794-2.188-5.09-7.036-2.903-10.829l11.605-20.097-13.027-7.52a7.927 7.927 0 0 0-10.828 2.903l-14.27 24.714c-2.187 3.793-.89 8.641 2.899 10.829l20.355 11.75c1.426.824 2.215 2.437 1.95 4.066-.59 3.66-.903 7.414-.903 11.242s.313 7.582.903 11.242c.265 1.63-.524 3.243-1.95 4.067l-20.355 11.75c-3.79 2.187-5.086 7.035-2.899 10.828l14.27 24.715c2.191 3.793 7.039 5.093 10.828 2.902l13.027-7.52zM237.676 86.172V66.848a7.926 7.926 0 0 1 7.926-7.926h-26.52a7.926 7.926 0 0 0-7.926 7.926v23.507c0 1.645-1.004 3.141-2.543 3.723 0 0 9.477-3.152 24.918-3.656 2.305-.074 4.145-1.945 4.145-4.25zM237.676 251.973v-19.325c0-2.308-1.84-4.175-4.145-4.25-15.441-.503-24.918-3.66-24.918-3.66 1.54.586 2.543 2.078 2.543 3.727v23.508a7.926 7.926 0 0 0 7.926 7.925h26.52a7.926 7.926 0 0 1-7.926-7.925zm0 0"/></g><path d="m333.781 241.02-14.398-8.313a2.81 2.81 0 0 1-1.383-2.879c.418-2.59.64-5.246.64-7.953s-.222-5.363-.64-7.953a2.81 2.81 0 0 1 1.383-2.879l14.398-8.313a5.607 5.607 0 0 0 2.051-7.66l-10.098-17.488a5.606 5.606 0 0 0-7.656-2.05l-14.414 8.32a2.82 2.82 0 0 1-3.187-.243 49.248 49.248 0 0 0-13.758-7.953 2.817 2.817 0 0 1-1.801-2.636v-16.633a5.606 5.606 0 0 0-5.61-5.606h-20.19a5.606 5.606 0 0 0-5.61 5.606v16.633c0 1.164-.711 2.222-1.801 2.636a49.344 49.344 0 0 0-13.758 7.953 2.813 2.813 0 0 1-3.187.243l-14.414-8.32a5.606 5.606 0 0 0-7.657 2.05l-10.097 17.488a5.606 5.606 0 0 0 2.05 7.66l14.403 8.313a2.816 2.816 0 0 1 1.379 2.879c-.418 2.59-.64 5.246-.64 7.953s.222 5.363.64 7.953a2.813 2.813 0 0 1-1.38 2.879l-14.401 8.313a5.61 5.61 0 0 0-2.051 7.66l10.097 17.488a5.606 5.606 0 0 0 7.66 2.05l14.41-8.32a2.814 2.814 0 0 1 3.188.247 49.405 49.405 0 0 0 13.762 7.953c1.09.41 1.797 1.468 1.797 2.632v16.633a5.61 5.61 0 0 0 5.61 5.61h20.195a5.608 5.608 0 0 0 5.605-5.606V270.73c0-1.164.71-2.218 1.8-2.632a49.44 49.44 0 0 0 13.759-7.953 2.82 2.82 0 0 1 3.187-.247l14.41 8.32a5.603 5.603 0 0 0 7.66-2.05l10.098-17.488a5.61 5.61 0 0 0-2.05-7.66zm-64.57 6.285c-14.043 0-25.43-11.387-25.43-25.43 0-14.047 11.387-25.43 25.43-25.43 14.047 0 25.434 11.383 25.434 25.43 0 14.043-11.387 25.43-25.434 25.43zm0 0" fill="#707487"/><path d="M221.355 248.68a5.608 5.608 0 0 1 2.055-7.66l14.399-8.313a2.816 2.816 0 0 0 1.382-2.879c-.421-2.59-.64-5.246-.64-7.953s.219-5.363.64-7.953a2.825 2.825 0 0 0-1.382-2.879l-14.399-8.313a5.608 5.608 0 0 1-2.055-7.66l8.211-14.218-9.218-5.32a5.606 5.606 0 0 0-7.657 2.05l-10.097 17.488a5.606 5.606 0 0 0 2.05 7.66l14.403 8.313a2.816 2.816 0 0 1 1.379 2.879c-.418 2.59-.64 5.246-.64 7.953s.222 5.363.64 7.953a2.813 2.813 0 0 1-1.38 2.879l-14.401 8.313a5.61 5.61 0 0 0-2.051 7.66l10.097 17.488a5.606 5.606 0 0 0 7.66 2.05l9.215-5.32zM272.273 170.059v-13.672a5.606 5.606 0 0 1 5.606-5.61h-18.762a5.61 5.61 0 0 0-5.61 5.61v16.633c0 1.164-.706 2.222-1.796 2.632 0 0 6.703-2.23 17.629-2.586 1.629-.054 2.933-1.375 2.933-3.007zM272.273 287.363v-13.672c0-1.632-1.304-2.953-2.937-3.007-10.922-.356-17.629-2.586-17.629-2.586a2.812 2.812 0 0 1 1.8 2.632v16.637a5.609 5.609 0 0 0 5.61 5.606h18.762a5.606 5.606 0 0 1-5.606-5.61zm0 0" fill="#52586d"/><path d="M403.988 221.84c-4.14 0-7.5 3.36-7.5 7.5v21.234c0 39.438-14.36 77.426-40.43 106.973-17.316 19.617-26.851 45.75-26.851 73.582v64.012a1.86 1.86 0 0 1-1.855 1.859h-58.024c-4.144 0-7.5 3.355-7.5 7.5s3.356 7.5 7.5 7.5h58.024c9.296 0 16.859-7.563 16.859-16.86V431.13c0-24.176 8.2-46.781 23.094-63.656 28.492-32.29 44.183-73.805 44.183-116.899V229.34a7.5 7.5 0 0 0-7.5-7.5zM234.707 0C137.227 0 57.922 79.305 57.922 176.781v25.16c0 25.336-9.863 49.153-27.774 67.063L6.84 292.313c-14.598 14.593-4.285 39.55 16.383 39.55h33.52c.652 0 1.183.532 1.183 1.184v28.758c0 47.215 38.414 85.629 85.629 85.629 12.617 0 22.882 10.265 22.882 22.882v24.961c0 9.223 7.504 16.727 16.727 16.727h51.164a7.5 7.5 0 0 0 7.5-7.504 7.5 7.5 0 0 0-7.5-7.5h-51.164c-.95 0-1.726-.773-1.726-1.723v-24.96c0-20.887-16.993-37.883-37.883-37.883-38.946 0-70.63-31.684-70.63-70.63v-28.757c0-8.922-7.257-16.184-16.183-16.184h-33.52c-7.273 0-10.921-8.797-5.777-13.941l23.309-23.309c20.746-20.746 32.172-48.328 32.172-77.668v-25.164C72.922 87.574 145.5 15 234.707 15s161.781 72.578 161.781 161.785v17.555a7.5 7.5 0 1 0 15 0v-17.555C411.488 79.305 332.188 0 234.707 0zm0 0"/><path d="M292.14 287.29V273.78a56.465 56.465 0 0 0 10.204-5.898l11.707 6.762c6.258 3.609 14.289 1.457 17.902-4.801l10.098-17.489c3.62-6.27 1.48-14.28-4.797-17.902l-11.695-6.754a57.208 57.208 0 0 0 0-11.793l11.691-6.754c6.29-3.625 8.418-11.64 4.8-17.906l-10.097-17.488c-3.613-6.258-11.648-8.41-17.906-4.797l-2.57 1.484-1.563-.902c.43-3.32.649-6.684.649-10.023a78.34 78.34 0 0 0-.649-10.028l18.34-10.586c7.371-4.258 9.906-13.718 5.648-21.093L319.605 93.05c-4.257-7.371-13.718-9.906-21.093-5.653L280.16 97.996a77.14 77.14 0 0 0-17.347-10.027V66.785c0-8.512-6.93-15.437-15.442-15.437h-28.594c-8.515 0-15.441 6.925-15.441 15.437v21.18a77.227 77.227 0 0 0-17.348 10.027l-18.355-10.594c-7.371-4.257-16.832-1.718-21.09 5.653l-14.297 24.762c-4.266 7.39-1.738 16.824 5.652 21.093l18.336 10.586a78.295 78.295 0 0 0-.648 10.028c0 3.34.219 6.703.648 10.023l-18.336 10.586c-7.39 4.266-9.921 13.7-5.652 21.09l14.297 24.765c4.258 7.375 13.719 9.907 21.094 5.653l18.351-10.598a77.078 77.078 0 0 0 17.348 10.027v1.813l-2.719 1.57c-6.273 3.621-8.422 11.63-4.797 17.903l10.094 17.488c3.625 6.277 11.633 8.422 17.906 4.8l11.707-6.757a56.66 56.66 0 0 0 10.203 5.898v13.508c0 7.227 5.88 13.106 13.106 13.106h20.195c7.227.003 13.11-5.875 13.11-13.106zm-98.585-79.392c-3.664-3-8.89-3.414-13.012-1.035l-20.406 11.782a.446.446 0 0 1-.602-.165l-14.297-24.761a.435.435 0 0 1 .16-.598l20.391-11.773c4.11-2.371 6.363-7.102 5.61-11.766-.54-3.32-.813-6.707-.813-10.066s.273-6.746.812-10.067c.754-4.66-1.5-9.39-5.609-11.765L145.4 125.91a.435.435 0 0 1-.16-.597l14.296-24.766a.442.442 0 0 1 .602-.16l20.41 11.785c4.117 2.379 9.344 1.957 13.004-1.04a62.291 62.291 0 0 1 17.394-10.05c4.422-1.676 7.395-5.996 7.395-10.746v-23.55a.44.44 0 0 1 .437-.442h28.594c.242 0 .441.199.441.441v23.55c0 4.75 2.973 9.071 7.391 10.747a62.236 62.236 0 0 1 17.395 10.05c3.66 3 8.89 3.415 13.011 1.04l20.407-11.785a.441.441 0 0 1 .601.164l14.297 24.761c.121.211.047.481-.164.602l-20.387 11.77c-4.113 2.375-6.367 7.105-5.61 11.765a63.47 63.47 0 0 1 .81 10.07c0 3.36-.27 6.747-.81 10.06-.073.472-.12.948-.14 1.421a51.202 51.202 0 0 0-2.472-1.18v-13.507c0-7.227-5.883-13.11-13.11-13.11h-7.816c-6.442-15.07-21.383-25.168-38.137-25.168-34.183 0-53.55 39.188-33.25 66.274l-4.008 6.937c-3.62 6.27-1.476 14.285 4.797 17.906l11.696 6.75a62.875 62.875 0 0 0-.208 2.563c-1.574-.809-9.542-3.195-18.55-10.567zm60.925-63.933c-5.09 1.805-8.75 6.648-8.75 12.347v13.508a56.465 56.465 0 0 0-10.203 5.899l-11.707-6.758c-4.886-2.82-10.843-2.113-14.945 1.3a26.283 26.283 0 0 1-2.281-10.741c0-25.56 32.828-36.235 47.886-15.555zm22.66 141.43h-16.41v-14.739c0-4.27-2.671-8.148-6.64-9.648a41.734 41.734 0 0 1-11.672-6.742c-3.293-2.696-7.988-3.07-11.684-.938l-12.773 7.375-8.203-14.21 4.828-2.786h.004l7.933-4.582a10.387 10.387 0 0 0 5.16-9c-.011-1.867-1.425-7.086-.132-15.07.683-4.192-1.34-8.442-5.031-10.582l-12.762-7.364 5.719-9.902v-.004l2.484-4.305 12.773 7.375c3.696 2.133 8.391 1.762 11.684-.933a41.795 41.795 0 0 1 11.668-6.746c3.976-1.504 6.644-5.383 6.644-9.649v-14.738h16.41v14.738c0 3.871 2.2 7.414 5.575 9.164 1.492.774 6.637 2.243 12.734 7.227 3.293 2.695 7.985 3.074 11.688.937l8.09-4.671c.003 0 .003-.004.003-.004l4.68-2.7 8.203 14.211-12.765 7.368c-3.688 2.132-5.711 6.382-5.032 10.566a42.262 42.262 0 0 1 0 13.512c-.68 4.191 1.344 8.437 5.036 10.574l12.757 7.363-8.199 14.211-12.773-7.371c-3.696-2.137-8.395-1.762-11.688.93a41.792 41.792 0 0 1-11.668 6.75c-3.976 1.504-6.644 5.383-6.644 9.644v14.739zm0 0"/><path d="M298.594 221.8c0-16.355-13.305-29.66-29.66-29.66-16.352 0-29.657 13.31-29.657 29.66 0 16.356 13.305 29.66 29.657 29.66 16.355 0 29.66-13.304 29.66-29.66zm-29.66 14.66c-8.082 0-14.657-6.573-14.657-14.66 0-8.081 6.575-14.66 14.657-14.66 8.086 0 14.66 6.579 14.66 14.66 0 8.087-6.574 14.66-14.66 14.66zm0 0"/></svg>