<svg xmlns="http://www.w3.org/2000/svg" viewBox="0 0 511.998 511.998" style="enable-background:new 0 0 511.998 511.998" xml:space="preserve"><path style="fill:#ffb98a" d="M369.085 176.211H357.22v72.992h11.865c13.06 0 23.645-10.587 23.645-23.645v-25.701c0-13.059-10.585-23.646-23.645-23.646z"/><path style="fill:#f7931e" d="M453.454 198.386c-5.688-42.838-28.796-68.654-44.442-81.563l29.433 1.267c.063.003.125.004.186.004 1.768 0 3.392-1.083 4.174-2.804.81-1.78.565-3.907-.624-5.422-21.147-26.951-46.134-39.323-65.029-44.993 4.817-2.399 9.29-5.805 12.891-10.585 6.047-8.025 6.7-15.983 6.755-16.864.126-2.057-.616-4.26-2.352-5.134-.728-.366-1.455-.563-2.16-.563-.91 0-1.777.331-2.547 1.052-.613.209-2.564.731-6.701.731-9.479.001-28.57-2.634-65.695-15.188-11.42-3.862-22.685-5.821-33.479-5.821-7.015 0-13.935.827-20.597 2.461C252.236 10.01 240.432 7.5 228.15 7.5c-10.797 0-22.065 1.959-33.49 5.823-37.122 12.553-56.215 15.188-65.696 15.188-4.133 0-6.084-.521-6.7-.73-.768-.723-1.636-1.054-2.548-1.054-.702 0-1.431.196-2.159.563-1.737.873-2.48 3.078-2.353 5.138.054.881.71 8.839 6.757 16.863 3.601 4.777 8.073 8.184 12.892 10.582-18.895 5.67-43.883 18.041-65.033 44.995-1.188 1.515-1.434 3.642-.624 5.422.783 1.721 2.405 2.804 4.174 2.804.062 0 .124-.001.186-.004l29.434-1.267c-15.647 12.909-38.755 38.726-44.443 81.563-.227 1.705.378 3.415 1.601 4.526a4.454 4.454 0 0 0 3 1.181c.474 0 .951-.078 1.416-.238l16.648-5.732c-.47 16.428 2.372 55.644 35.421 89.587 28.138 28.898 29.681 39.003 29.69 40.819-1.133 1.2-1.644 2.978-1.263 4.713.496 2.257 2.368 3.851 4.523 3.851h.002c.815 0 7.443-.228 16.143-6.889-5.536-19.076-10.947-39.898-10.947-48.424v-27.577h-11.864c-13.06 0-23.646-10.587-23.646-23.645v-25.701c0-13.059 10.586-23.645 23.646-23.645h11.864V153.84a4 4 0 0 1 6.712-2.94c10.74 9.903 23.129 16.618 36.824 19.958.392.095.791.144 1.187.144a5.013 5.013 0 0 0 4.691-3.279l6.647-18.126a4 4 0 0 1 6.181-1.804c13.775 10.508 34.617 23.746 55.682 27.144a5.03 5.03 0 0 0 3.889-1.007 5.02 5.02 0 0 0 1.893-3.546l1.596-20.744a4 4 0 0 1 6.328-2.937c12.361 8.913 34.053 20.212 67.195 23.422a4 4 0 0 1 3.614 3.982v2.106h11.865c13.06 0 23.645 10.587 23.645 23.645v25.701c0 13.059-10.585 23.645-23.645 23.645H357.22v27.577c0 9.127-6.203 32.354-12.122 52.44 9.386 7.681 16.679 7.872 17.32 7.872 2.156 0 4.028-1.595 4.523-3.852.381-1.738-.132-3.52-1.268-4.719-.031-1.914 1.481-11.836 29.695-40.813 33.05-33.943 35.893-73.159 35.422-89.587l16.647 5.732c.464.16.942.238 1.417.238a4.448 4.448 0 0 0 2.998-1.181c1.223-1.11 1.829-2.82 1.602-4.525z"/><path style="fill:#ffb98a" d="M154.781 176.211h-11.864c-13.06 0-23.646 10.587-23.646 23.645v25.701c0 13.059 10.586 23.645 23.646 23.645h11.864v-72.991zM85.6 389.289v45.037c0 6.99 2.135 13.711 6.175 19.439-3.924 3.451-6.175 8.39-6.175 13.549v31.948c0 2.893 2.373 5.237 5.298 5.237h28.344V355.27c-18.622.422-33.642 15.515-33.642 34.019zM426.402 389.289c0-18.769-15.449-34.039-34.44-34.039h-54.849c-1.577 4.959-2.577 8.002-2.577 8.002-1.086 3.963-4.338 4.813-7.227 1.892l-5.738-5.804-16.836 29.162c-2.053 3.558-5.416 3.558-7.469 0l-9.082-15.73c-4.099 1.374-28.448 30.73-28.448 30.73a6.726 6.726 0 0 1-1.265 1.615l121.53 99.383h41.104c2.926 0 5.298-2.345 5.298-5.237v-31.948c0-5.159-2.25-10.098-6.175-13.549a33.557 33.557 0 0 0 6.175-19.439v-45.038h-.001z"/><path style="fill:#775436" d="M258.472 405.117h-.001c-1.994 1.819-4.532 1.281-6.205-1.615 0 0-24.349-29.355-28.449-30.73l-9.081 15.73c-2.054 3.558-5.416 3.558-7.47 0L190.43 359.34l-5.738 5.804c-2.889 2.922-6.141 2.071-7.227-1.892 0 0-1-3.043-2.577-8.002h-55.646V504.5h260.759l-121.529-99.383z"/><g style="opacity:.15"><path style="fill:#3d0072" d="M119.241 355.25h29V504.5h-29z"/></g><path style="fill:#ffc7a9" d="M353.606 170.123c-33.143-3.21-54.834-14.509-67.195-23.422a3.998 3.998 0 0 0-6.328 2.937l-1.596 20.744a5.016 5.016 0 0 1-1.893 3.546 5.03 5.03 0 0 1-3.889 1.007c-21.065-3.398-41.907-16.637-55.682-27.144a4 4 0 0 0-6.181 1.804l-6.647 18.126a5.014 5.014 0 0 1-4.691 3.279c-.396 0-.795-.049-1.187-.144-13.694-3.34-26.083-10.055-36.824-19.958a3.997 3.997 0 0 0-4.317-.724 4 4 0 0 0-2.395 3.664v66.941c0 33.219 16.003 62.7 40.72 81.155V270c0-12.702 10.297-23 23-23h23.724c1.724 3.027 4.977 5.085 8.692 5.085h14.168c4.129 0 7.693-2.105 9.214-5.085h19.202c12.702 0 23 10.298 23 23v31.935c24.716-18.455 40.719-47.936 40.719-81.155v-46.676a4 4 0 0 0-3.614-3.981z"/><path style="fill:#f7931e" d="M316.501 301.935V270c0-12.702-10.298-23-23-23h-19.202c-1.521 2.98-5.085 5.085-9.214 5.085h-14.168c-3.715 0-6.968-2.058-8.692-5.085h-23.724c-12.703 0-23 10.298-23 23v31.935c-24.717-18.455-40.72-47.936-40.72-81.155v56c0 17.455 22.684 86.472 22.684 86.472 1.086 3.963 4.338 4.813 7.227 1.892l5.738-5.804 16.836 29.162c2.054 3.558 5.416 3.558 7.47 0l9.081-15.73c4.1 1.374 28.449 30.73 28.449 30.73 2.054 3.558 5.416 3.558 7.47 0 0 0 24.35-29.355 28.448-30.73l9.082 15.73c2.053 3.558 5.416 3.558 7.469 0l16.836-29.162 5.738 5.804c2.889 2.922 6.141 2.071 7.227-1.892 0 0 22.684-69.02 22.684-86.472v-56c0 33.219-16.003 62.7-40.719 81.155z"/><path style="opacity:.15;fill:#490089;enable-background:new" d="M195.501 301.935v-26.694c-10.084-15.733-15.939-34.425-15.939-54.461v-57.041c-6.436-3.401-12.478-7.685-18.07-12.84a3.997 3.997 0 0 0-4.317-.724 4 4 0 0 0-2.395 3.664v66.941c.001 33.219 16.004 62.7 40.721 81.155z"/><path style="fill:#f7931e" d="M316.501 301.935V270c0-12.702-10.298-23-23-23h-19.202c-1.521 2.98-5.085 5.085-9.214 5.085h-14.168c-3.715 0-6.968-2.058-8.692-5.085h-23.724c-12.703 0-23 10.298-23 23v31.935c-24.717-18.455-40.72-47.936-40.72-81.155v56c0 17.455 22.684 86.472 22.684 86.472 1.086 3.963 4.338 4.813 7.227 1.892l5.738-5.804 16.836 29.162c2.054 3.558 5.416 3.558 7.47 0l9.081-15.73c4.1 1.374 28.449 30.73 28.449 30.73 2.054 3.558 5.416 3.558 7.47 0 0 0 24.35-29.355 28.448-30.73l9.082 15.73c2.053 3.558 5.416 3.558 7.469 0l16.836-29.162 5.738 5.804c2.889 2.922 6.141 2.071 7.227-1.892 0 0 22.684-69.02 22.684-86.472v-56c0 33.219-16.003 62.7-40.719 81.155z"/><path style="fill:#f7931e" d="M316.501 301.935V270c0-12.702-10.298-23-23-23h-19.202c-1.521 2.98-5.085 5.085-9.214 5.085h-14.168c-3.715 0-6.968-2.058-8.692-5.085h-23.724c-12.703 0-23 10.298-23 23v31.935c-24.717-18.455-40.72-47.936-40.72-81.155v56c0 17.455 22.684 86.472 22.684 86.472 1.086 3.963 4.338 4.813 7.227 1.892l5.738-5.804 16.836 29.162c2.054 3.558 5.416 3.558 7.47 0l9.081-15.73c4.1 1.374 28.449 30.73 28.449 30.73 2.054 3.558 5.416 3.558 7.47 0 0 0 24.35-29.355 28.448-30.73l9.082 15.73c2.053 3.558 5.416 3.558 7.469 0l16.836-29.162 5.738 5.804c2.889 2.922 6.141 2.071 7.227-1.892 0 0 22.684-69.02 22.684-86.472v-56c0 33.219-16.003 62.7-40.719 81.155z"/><g style="opacity:.15"><path style="fill:#3d0072" d="M186.732 294.582c-19.666-18.465-31.95-44.698-31.95-73.802v56c0 17.455 22.684 86.472 22.684 86.472 1.086 3.963 4.338 4.813 7.227 1.892l5.738-5.804 16.836 29.162c1.693 2.933 4.273 3.442 6.279 1.54-8.691-28.827-21.062-70.923-26.814-95.46z"/></g><ellipse style="fill:#046699" cx="307.741" cy="205.53" rx="13.477" ry="13.529"/><ellipse style="fill:#046699" cx="204.26" cy="205.53" rx="13.477" ry="13.529"/><path style="fill:#fb8276" d="M220.326 313.536a3.43 3.43 0 0 1-3.431-3.431v-24.697c0-7.945 6.463-14.408 14.407-14.408h49.397c7.944 0 14.407 6.463 14.407 14.408v24.697a3.43 3.43 0 0 1-3.43 3.431h-71.35z"/><path style="fill:#fff" d="M280.699 271h-49.397c-7.944 0-14.407 6.463-14.407 14.408v8.919h78.211v-8.919c.001-7.945-6.462-14.408-14.407-14.408z"/><path d="M460.889 197.398c-4.428-33.35-19.095-56.994-32.546-72.237l9.75.42c.181.008.36.012.538.012 4.694 0 9.013-2.826 11.001-7.199 1.956-4.302 1.347-9.467-1.551-13.156-17.787-22.669-38.213-35.459-55.249-42.667a41.895 41.895 0 0 0 3.199-3.768c7.212-9.569 8.139-19.1 8.252-20.919.326-5.326-2.212-10.15-6.467-12.292-3.727-1.876-7.884-1.773-11.215.213-3.548.505-19.754 1.342-66.858-14.586-19.27-6.518-38.142-7.915-55.761-4.116C252.663 2.388 240.622 0 228.15 0c-11.618 0-23.693 2.092-35.892 6.219-47.099 15.927-63.354 15.079-66.85 14.589-3.327-1.989-7.495-2.093-11.219-.22-4.262 2.143-6.801 6.972-6.47 12.3.111 1.812 1.034 11.336 8.254 20.917a42.628 42.628 0 0 0 3.198 3.765c-17.037 7.208-37.463 19.999-55.251 42.668-2.897 3.692-3.506 8.855-1.551 13.157 1.989 4.373 6.307 7.198 11.001 7.198.181 0 .363-.004.508-.011l9.722-.418a132.239 132.239 0 0 0-5.175 6.215 7.5 7.5 0 0 0 11.814 9.242 116.237 116.237 0 0 1 17.524-18.014 7.5 7.5 0 0 0-5.095-13.279l-23.553 1.014C98.758 82.26 121.228 71.79 137.01 67.055a7.502 7.502 0 0 0 1.187-13.898c-4.17-2.076-7.617-4.896-10.245-8.382a27.831 27.831 0 0 1-4.527-9.103c1.453.199 3.275.337 5.54.337 14.403 0 37.951-5.389 68.099-15.583C207.712 16.826 218.171 15 228.15 15c11.207 0 21.987 2.289 32.041 6.805a7.484 7.484 0 0 0 4.858.442c6.075-1.489 12.403-2.245 18.811-2.245 9.975 0 20.431 1.825 31.077 5.426 30.148 10.194 53.693 15.583 68.092 15.583h.006c2.266 0 4.088-.138 5.541-.337a27.807 27.807 0 0 1-4.526 9.103c-2.625 3.485-6.071 6.307-10.243 8.385a7.5 7.5 0 0 0 1.188 13.897c15.779 4.734 38.248 15.205 57.89 38.285l-23.552-1.014c-3.239-.157-6.169 1.797-7.324 4.806a7.502 7.502 0 0 0 2.228 8.473c15.605 12.875 35.116 35.798 41.165 72.614l-12.172-4.19a7.507 7.507 0 0 0-6.884 1.049 7.504 7.504 0 0 0-3.055 6.258c.155 5.407-.068 14.006-2.016 24.264a7.5 7.5 0 0 0 14.736 2.797 132.713 132.713 0 0 0 2.094-16.824l6.883 2.37c1.247.43 2.547.648 3.864.648 2.969 0 5.826-1.113 8.043-3.131 3.053-2.775 4.546-6.911 3.994-11.066z"/><path d="M433.902 434.326V430.5h.323c4.143 0 7.5-3.357 7.5-7.5s-3.357-7.5-7.5-7.5h-.323v-12.095c3.603-.549 6.364-3.649 6.364-7.405 0-3.762-2.772-6.867-6.382-7.408-.379-22.582-19.033-40.842-41.923-40.842h-44.614a1351.46 1351.46 0 0 0 2.082-6.772c6.682 3.346 11.638 3.614 12.988 3.614 5.718 0 10.591-4.007 11.85-9.746a12.824 12.824 0 0 0-.636-7.578c1.389-3.486 6.742-13.408 27.11-34.327 8.064-8.282 14.969-17.447 20.524-27.241a7.5 7.5 0 0 0-2.823-10.224 7.5 7.5 0 0 0-10.224 2.823c-4.924 8.679-11.056 16.814-18.226 24.178-21.083 21.653-31.787 37.11-31.821 45.949-1.239-.501-2.714-1.231-4.352-2.252 5.563-19.288 10.898-40.189 10.898-49.395v-20.077h4.365c17.173 0 31.145-13.972 31.145-31.145v-25.701c0-17.174-13.972-31.145-31.145-31.145h-5.703a11.446 11.446 0 0 0-9.054-6.053c-31.473-3.049-51.92-13.668-63.531-22.04a11.428 11.428 0 0 0-6.727-2.173c-1.659 0-3.333.369-4.845 1.07a11.514 11.514 0 0 0-6.621 9.548l-1.384 17.979c-18.639-3.804-37.156-15.683-49.648-25.212-2.857-2.182-6.746-2.903-10.194-1.897a11.54 11.54 0 0 0-7.578 7.081l-5.866 15.996c-11.592-3.195-22.132-9.117-31.355-17.622a11.465 11.465 0 0 0-7.799-3.048 11.501 11.501 0 0 0-11.499 11.5v14.871h-4.364c-17.174 0-31.146 13.972-31.146 31.145v25.701c0 17.174 13.972 31.145 31.146 31.145h4.364v20.077c0 8.548 4.6 27.177 9.71 45.235a25.677 25.677 0 0 1-3.168 1.512v-.034c-.043-8.771-11.045-24.682-31.816-46.016-31.307-32.153-33.715-69.553-33.298-84.14a7.5 7.5 0 0 0-9.939-7.307l-12.17 4.19c1.128-6.834 2.776-13.484 4.915-19.823a7.5 7.5 0 1 0-14.211-4.797c-2.88 8.531-4.963 17.547-6.191 26.796-.552 4.156.94 8.292 3.989 11.063a11.947 11.947 0 0 0 8.047 3.133c1.315 0 2.614-.218 3.857-.646l6.9-2.376c1.24 20.227 8.134 54.361 37.354 84.372 20.256 20.803 25.663 30.825 27.085 34.388a12.827 12.827 0 0 0-.611 7.52c1.26 5.736 6.133 9.742 11.85 9.742 1.219 0 5.634-.22 11.673-2.963 1.184 3.946 2.332 7.69 3.396 11.12h-45.407a7.87 7.87 0 0 0-.772.039c-20.434.75-37.172 16.041-39.955 35.711h-3.177c-4.142 0-7.5 3.357-7.5 7.5s3.358 7.5 7.5 7.5H78.1v7h-5.63c-4.142 0-7.5 3.357-7.5 7.5s3.358 7.5 7.5 7.5h5.63v6h-2.63c-4.142 0-7.5 3.357-7.5 7.5s3.358 7.5 7.5 7.5h3.256a40.876 40.876 0 0 0 3.827 11.458 25.454 25.454 0 0 0-4.453 14.357v4.185h-2.63c-4.142 0-7.5 3.357-7.5 7.5s3.358 7.5 7.5 7.5h2.63v12.763c0 7.023 5.741 12.737 12.798 12.737h330.207c7.057 0 12.798-5.714 12.798-12.737V479.44a7.495 7.495 0 0 0-.171-14.903 25.512 25.512 0 0 0-4.281-11.579 40.985 40.985 0 0 0 4.451-18.632zm-48.672-234.47v25.701c0 8.902-7.242 16.145-16.145 16.145h-4.365v-22.041h5.291c4.142 0 7.5-3.357 7.5-7.5s-3.358-7.5-7.5-7.5h-5.291V183.71h4.365c8.902.001 16.145 7.244 16.145 16.146zm-222.949-38.439c10.265 8.063 21.759 13.679 34.272 16.73a12.6 12.6 0 0 0 2.95.354c5.222 0 9.937-3.295 11.733-8.197l5.031-13.72c14.355 10.461 34.539 22.417 55.249 25.758 3.411.549 6.998-.382 9.718-2.521a12.536 12.536 0 0 0 4.729-8.862l1.133-14.727c13.162 8.421 33.618 17.715 62.623 21.024v43.525c0 24.929-9.789 47.608-25.719 64.414V270c0-16.817-13.683-30.5-30.5-30.5h-10.916v-4.016c0-4.143-3.357-7.5-7.5-7.5s-7.5 3.357-7.5 7.5v8.163c-.208.294-1.057.938-2.5.938h-14.168c-1.355 0-2.5-1.145-2.5-2.5V203c0-4.143-3.358-7.5-7.5-7.5s-7.5 3.357-7.5 7.5v36.5h-14.915c-16.818 0-30.5 13.683-30.5 30.5v15.195c-15.93-16.806-25.72-39.485-25.72-64.415v-59.363zm-19.364 80.286c-8.903 0-16.146-7.243-16.146-16.145v-25.701c0-8.902 7.243-16.145 16.146-16.145h4.364v20.951h-5.291c-4.142 0-7.5 3.357-7.5 7.5s3.358 7.5 7.5 7.5h5.291v22.041l-4.364-.001zm19.364 34.382c7.22 12.198 16.902 23.027 28.732 31.86a7.503 7.503 0 0 0 11.988-6.01V270c0-8.547 6.953-15.5 15.5-15.5H238.6a17.439 17.439 0 0 0 12.317 5.085h14.168c5.067 0 9.625-1.967 12.823-5.085h15.593c8.547 0 15.5 6.953 15.5 15.5v31.935a7.5 7.5 0 0 0 11.988 6.01c11.83-8.834 21.512-19.662 28.732-31.86v.695c0 11.249-11.883 51.893-20.758 79.368l-2.058-2.082a7.5 7.5 0 0 0-11.828 1.523l-14.076 24.379-6.32-10.946a7.502 7.502 0 0 0-8.879-3.361c-1.934.648-5.903 1.98-29.799 30.603-23.896-28.623-27.866-29.955-29.801-30.603a7.502 7.502 0 0 0-8.878 3.361l-6.323 10.949-14.076-24.381a7.498 7.498 0 0 0-11.829-1.522l-2.058 2.08c-8.875-27.473-20.757-68.117-20.757-79.367v-.696zM93.1 486.5h.901c4.142 0 7.5-3.357 7.5-7.5s-3.358-7.5-7.5-7.5H93.1v-4.185c0-3.004 1.322-5.889 3.628-7.917a7.5 7.5 0 0 0 1.176-9.954 26.197 26.197 0 0 1-3.789-7.949c4.089-.062 7.387-3.39 7.387-7.494a7.5 7.5 0 0 0-7.5-7.5h-.901v-6h2.9c4.142 0 7.5-3.357 7.5-7.5s-3.358-7.5-7.5-7.5H93.1v-7h4.095c4.142 0 7.5-3.357 7.5-7.5s-3.358-7.5-7.5-7.5h-3.441c2.083-9.182 9.007-16.577 17.989-19.448V497H93.1v-10.5zM387.501 497v-66.5c0-4.143-3.357-7.5-7.5-7.5s-7.5 3.357-7.5 7.5v58.178l-33.752-27.601a7.5 7.5 0 0 0-9.496 11.612L358.982 497h-45.481v-8.5c0-4.143-3.357-7.5-7.5-7.5s-7.5 3.357-7.5 7.5v8.5h-50v-8.5c0-4.143-3.358-7.5-7.5-7.5s-7.5 3.357-7.5 7.5v8.5h-46v-8.5c0-4.143-3.358-7.5-7.5-7.5s-7.5 3.357-7.5 7.5v8.5h-45.759V362.75h42.67c.384 1.182.683 2.098.879 2.693 1.572 5.438 5.834 8.938 10.911 8.938 2.67 0 5.321-1.004 7.603-2.855l11.966 20.727c2.355 4.079 6.084 6.419 10.231 6.419s7.876-2.34 10.23-6.419l4.473-7.748c5.377 5.686 13.492 15.005 20.449 23.377 2.366 3.689 5.92 5.79 9.848 5.79.338 0 .67-.036 1.002-.067l41.25 33.734a7.5 7.5 0 0 0 9.496-11.612l-38.71-31.655c6.135-7.271 12.685-14.733 17.258-19.567l4.472 7.746c2.354 4.08 6.084 6.421 10.231 6.421 4.148 0 7.877-2.341 10.23-6.419l11.967-20.728c2.281 1.853 4.932 2.856 7.602 2.856h.001c5.076 0 9.339-3.5 10.911-8.938.195-.594.497-1.518.878-2.693h49.373c14.587 0 26.494 11.48 26.92 25.75h-11.882c-4.143 0-7.5 3.357-7.5 7.5s3.357 7.5 7.5 7.5h11.901v12h-9.901c-4.143 0-7.5 3.357-7.5 7.5s3.357 7.5 7.5 7.5h9.901v3.826a26.096 26.096 0 0 1-4.804 15.117 7.498 7.498 0 0 0 1.177 9.954 10.687 10.687 0 0 1 3.22 5.103h-10.719c-4.143 0-7.5 3.357-7.5 7.5s3.357 7.5 7.5 7.5h11.126V497h-31.401z"/><path d="M307.739 226.559c11.566 0 20.977-9.434 20.977-21.029s-9.41-21.029-20.977-21.029-20.977 9.434-20.977 21.029 9.411 21.029 20.977 21.029zm0-27.059c3.296 0 5.977 2.705 5.977 6.029s-2.681 6.029-5.977 6.029-5.977-2.705-5.977-6.029 2.681-6.029 5.977-6.029zM204.264 226.559c11.566 0 20.976-9.434 20.976-21.029s-9.41-21.029-20.976-21.029c-11.567 0-20.978 9.434-20.978 21.029s9.411 21.029 20.978 21.029zm0-27.059c3.295 0 5.976 2.705 5.976 6.029s-2.681 6.029-5.976 6.029c-3.296 0-5.978-2.705-5.978-6.029s2.681-6.029 5.978-6.029zM220.326 321.036h71.351c6.026 0 10.93-4.903 10.93-10.931v-24.697c0-12.08-9.827-21.908-21.907-21.908h-49.397c-12.08 0-21.907 9.828-21.907 21.908v24.697c-.001 6.028 4.902 10.931 10.93 10.931zm56.145-42.536h4.228a6.915 6.915 0 0 1 6.907 6.908v1.419h-11.135V278.5zm-25.94 0h10.939v8.327h-10.939V278.5zm-26.136 6.908a6.915 6.915 0 0 1 6.907-6.908h4.229v8.327h-11.136v-1.419zm0 16.419h63.211v4.209h-63.211v-4.209zM156.501 406v-16c0-4.143-3.358-7.5-7.5-7.5s-7.5 3.357-7.5 7.5v16c0 4.143 3.358 7.5 7.5 7.5s7.5-3.357 7.5-7.5zM178.001 408.5a7.5 7.5 0 0 0-7.5 7.5v16c0 4.143 3.358 7.5 7.5 7.5s7.5-3.357 7.5-7.5v-16a7.5 7.5 0 0 0-7.5-7.5zM223.001 405.5a7.5 7.5 0 0 0-7.5 7.5v16c0 4.143 3.358 7.5 7.5 7.5s7.5-3.357 7.5-7.5v-16a7.5 7.5 0 0 0-7.5-7.5zM270.001 443.5a7.499 7.499 0 0 0-7.5 7.5v16c0 4.143 3.357 7.5 7.5 7.5s7.5-3.357 7.5-7.5v-16c0-4.143-3.357-7.5-7.5-7.5zM205.001 445.5a7.5 7.5 0 0 0-7.5 7.5v16c0 4.143 3.358 7.5 7.5 7.5s7.5-3.357 7.5-7.5v-16a7.5 7.5 0 0 0-7.5-7.5zM152.001 451.5a7.5 7.5 0 0 0-7.5 7.5v16c0 4.143 3.358 7.5 7.5 7.5s7.5-3.357 7.5-7.5v-16a7.5 7.5 0 0 0-7.5-7.5z"/></svg>