<svg xmlns="http://www.w3.org/2000/svg" viewBox="0 0 512 512" style="enable-background:new 0 0 512 512" xml:space="preserve"><path style="fill:#00a35c" d="M315.227 243.023H41.184a29.41 29.41 0 0 1-28.352-21.593l-4.081-14.802S35.571 83.306 161.99 83.306v54.813s24.78-29.306 116.536-29.306c134.104 0 347.73 137.264 134.104 293.722-100.226 73.404-118.576-31.056-118.576-31.056s20.98 21.756 52.037 23.168c25.45 1.157 86.44-49.763 58.083-112.725-10.757-23.885-34.913-38.902-61.109-38.902h-27.836v.003z"/><path style="fill:#00723e" d="M159.718 243.023H86.451l73.267-34.591zM278.525 108.815c-4.738 0-9.286.082-13.673.23 134.328 6.285 333.008 140.74 124.444 293.491-19.939 14.604-36.628 22.149-50.586 24.897 17.455 4.013 41.364-1.055 73.919-24.897 213.625-156.457 0-293.721-134.104-293.721z"/><path style="fill:#00723e" d="M301.619 243.023h-30.49s14.677-49.971 39.982-54.059l-9.492 54.059z"/><circle style="fill:#d9d9db" cx="73.077" cy="163.047" r="34.516"/><path style="fill:#00a35c" d="m126.841 221.123 32.877 21.901-31.743 37.523s-54.899 0-66.638 34.673h78.88l78.88-83.893-7.166-42.362"/><path style="fill:#00723e" d="m211.931 188.964-.292.764a225.386 225.386 0 0 1-46.373 74.035l-48.382 51.456h23.332l78.88-83.893-7.165-42.362z"/><path style="fill:#00a35c" d="M376.858 197.474s-42.348-22.133-65.749-8.512c-30.538 17.777 3.167 91.582 3.167 91.582-29.443 0-58.281 34.673-58.281 34.673h76.825l55.064-75.25"/><path style="fill:#00723e" d="M351.315 187.723c-10.26-2.766-22.008-4.434-32.03-1.973 3.011.54 5.975 1.228 8.824 2.001 15.325 4.154 27.143 16.377 31.131 31.746a44.601 44.601 0 0 1-7.178 37.541l-42.574 58.181h23.332l42.577-58.185a44.594 44.594 0 0 0 7.177-37.533c-4-15.414-15.884-27.633-31.259-31.778z"/><path d="M509.154 243.489c-17.042-72.956-107.812-125.445-188.669-139.588-4.747-.834-9.294 2.352-10.126 7.11a8.749 8.749 0 0 0 7.112 10.126c38.96 6.815 79.325 23.02 110.746 44.458 44.02 30.034 59.043 61.1 63.896 81.874 5.218 22.338 1.8 45.389-10.158 68.51-13.776 26.636-38.84 53.382-74.496 79.497-29.668 21.729-53.973 29.044-72.247 21.736-11.029-4.411-18.583-13.718-23.613-22.913 9.238 4.591 20.809 8.484 34.093 9.088 11.404.531 26.307-6.153 39.98-17.839 14.991-12.812 26.082-29.6 31.23-47.273a8.748 8.748 0 0 0-5.953-10.848c-4.635-1.35-9.496 1.314-10.847 5.953-9.287 31.874-40.337 53.135-53.615 52.525-27.015-1.228-45.967-20.327-46.137-20.501a8.745 8.745 0 0 0-10.265-1.724 8.748 8.748 0 0 0-4.65 9.312c.332 1.892 8.537 46.495 43.182 60.428 6.674 2.684 13.778 4.024 21.302 4.022 19.835-.001 42.57-9.313 67.88-27.85 37.856-27.727 64.672-56.517 79.699-85.577 13.927-26.922 17.848-54.016 11.656-80.526zM62.765 163.051c0 5.674 4.626 10.291 10.31 10.291 5.686 0 10.312-4.616 10.312-10.291 0-5.674-4.626-10.291-10.312-10.291-5.684.001-10.31 4.617-10.31 10.291z"/><path d="m339.881 320.386 40.523-55.379c6.796 5.545 12.195 12.529 15.789 20.509 3.234 7.179 5.299 14.48 6.142 21.699.519 4.455 4.301 7.736 8.678 7.736a8.75 8.75 0 0 0 8.701-9.765c-1.05-9.003-3.595-18.037-7.567-26.856-4.844-10.753-12.163-20.124-21.394-27.468l4.19-5.727a8.75 8.75 0 0 0-1.895-12.228c-3.898-2.854-9.374-2.005-12.228 1.895l-52.441 71.668H277.42c10.432-8.633 24.179-17.174 36.857-17.174a8.75 8.75 0 0 0 7.959-12.384c-9.923-21.729-24.621-69.969-6.723-80.386 15.705-9.145 46.688 3.185 57.3 8.706 4.28 2.233 9.564.576 11.799-3.705a8.748 8.748 0 0 0-3.702-11.807c-4.773-2.495-47.402-23.917-74.202-8.318-17.253 10.043-19.055 31.848-15.794 52.872h-63.592a8.748 8.748 0 0 0 .404-4.407l-7.166-42.362c-.804-4.764-5.32-7.968-10.086-7.168a8.748 8.748 0 0 0-7.166 10.087l6.441 38.076-73.314 77.97H76.848c16.593-16.849 50.726-17.172 51.125-17.174a8.75 8.75 0 0 0 6.68-3.099l31.743-37.523c.007-.009.013-.019.021-.027a8.77 8.77 0 0 0 1.399-2.315c.016-.04.028-.08.044-.12.092-.234.176-.474.248-.717.021-.07.035-.14.054-.211.057-.215.11-.429.152-.65.019-.097.03-.195.044-.293a8.7 8.7 0 0 0 .072-.584c.01-.12.013-.241.019-.362.006-.124.019-.246.019-.371 0-.058-.008-.114-.009-.173-.002-.119-.01-.238-.018-.358a9.831 9.831 0 0 0-.05-.573c-.005-.041-.005-.08-.011-.121-.008-.062-.026-.121-.036-.183a8.084 8.084 0 0 0-.119-.605c-.021-.091-.046-.182-.07-.272a9.32 9.32 0 0 0-.277-.855 9.527 9.527 0 0 0-.366-.823 8.686 8.686 0 0 0-.299-.534c-.049-.082-.097-.164-.149-.245a8.897 8.897 0 0 0-.344-.488c-.059-.079-.115-.16-.178-.238-.127-.159-.264-.309-.401-.46-.063-.068-.121-.139-.187-.205a8.669 8.669 0 0 0-.554-.513c-.033-.028-.062-.058-.094-.086a8.83 8.83 0 0 0-.728-.544l-.008-.006-32.877-21.901a8.75 8.75 0 0 0-9.702 14.564l8.81 5.868H41.184c-9.264 0-17.455-6.238-19.916-15.169l-3.475-12.598c1.268-4.815 5.125-17.872 13.18-33.522 4.501 19.085 21.663 33.336 42.103 33.336 19.127 0 36.212-12.815 41.549-31.165a8.748 8.748 0 0 0-5.958-10.845c-4.634-1.351-9.495 1.316-10.845 5.958-3.178 10.924-13.354 18.554-24.747 18.554-14.208 0-25.767-11.559-25.767-25.767s11.559-25.767 25.767-25.767c9.08 0 17.321 4.64 22.042 12.412a8.753 8.753 0 0 0 12.022 2.935c4.13-2.508 5.443-7.891 2.935-12.021-7.698-12.671-20.979-20.357-35.711-20.784 22.058-16.85 48.438-26.091 78.877-27.561v45.856a8.75 8.75 0 0 0 15.432 5.649c.22-.262 24.544-26.206 109.855-26.206 3.501 0 7.119.099 10.754.296 4.795.26 8.949-3.439 9.209-8.264a8.75 8.75 0 0 0-8.265-9.209 218.136 218.136 0 0 0-11.696-.321c-58.123 0-90.886 11.701-107.786 21.05V83.307a8.75 8.75 0 0 0-8.75-8.75c-68.977 0-109.36 35.484-131.092 65.252C7.567 171.766.49 203.437.2 204.77a8.758 8.758 0 0 0 .115 4.186l4.082 14.801c4.547 16.496 19.675 28.016 36.787 28.016h99.672l-17.058 20.165c-14.108.79-59.083 6.02-70.747 40.477a8.754 8.754 0 0 0 1.177 7.905 8.752 8.752 0 0 0 7.11 3.65h78.88a8.747 8.747 0 0 0 6.374-2.756l65.29-69.44h82.809c2.256 8.309 4.895 15.832 7.121 21.604-10.601 2.631-21.708 8.54-33.167 17.66-11.462 9.123-19.06 18.205-19.377 18.588a8.747 8.747 0 0 0-1.195 9.31 8.747 8.747 0 0 0 7.921 5.035h76.826a8.756 8.756 0 0 0 7.061-3.585z"/></svg>