<svg xmlns="http://www.w3.org/2000/svg" viewBox="0 0 512 512" style="enable-background:new 0 0 512 512" xml:space="preserve"><path style="fill:#9dbf8c" d="M285.501 387.487h32.886c49.659 0 89.916 45.599 89.916 87.819v28.977H96.91v-40.35c0-42.219 40.257-76.445 89.916-76.445H285.501z"/><path style="opacity:.39;fill:#7d966e;enable-background:new" d="M318.387 387.487H283.4c49.659 0 89.916 45.599 89.916 87.819v28.977h34.987v-28.977c-.001-42.221-40.257-87.819-89.916-87.819z"/><path style="fill:#7d966e" d="M320.445 387.487H188.884c-.131 0-.259.004-.39.004v116.791H325.87V387.676a81.309 81.309 0 0 0-5.425-.189z"/><path style="fill:#775f45" d="M93.696 167.397v-17.021c0-23.463 5.74-45.65 15.886-65.225 0 0 11.939-23.954 49.561-54.578 20.602-16.769 48.816-22.855 77.209-22.855h37.285c78.462 0 142.657 64.195 142.657 142.657v17.021H93.696v.001z"/><path style="fill:#dd8e92" d="M392.654 248.102c23.639 0 42.803-19.164 42.803-42.803s-19.164-42.803-42.803-42.803H115.228c-23.639 0-42.803 19.164-42.803 42.803s19.164 42.803 42.803 42.803h277.426z"/><path style="fill:#f9c3c2" d="M283.388 365.04v62.269c0 7.191-5.829 13.02-13.02 13.02h-32.782c-7.191 0-13.02-5.829-13.02-13.02V365.04h58.822z"/><path style="fill:#f9c3c2" d="M157.929 339.632c25.437 21.993 56.791 38.198 92.867 38.198h5.616c72.9 0 132.545-59.645 132.545-132.545v-82.243c0-23.179-5.802-45.002-16.071-63.988-4.863-8.992-16-12.47-25.062-7.737l-18.009 9.404 14.749 28.47H146.851V81.038c-17.89 22.601-28.6 51.112-28.6 82.003v82.243c0 17.958 3.619 35.112 10.165 50.767 0 .001 10.908 27.494 29.513 43.581z"/><g style="opacity:.19"><path style="fill:#dd8e92" d="M372.885 99.053c-4.863-8.992-16-12.47-25.062-7.737l-11.135 5.815c.433.612.845 1.246 1.21 1.922 10.27 18.987 16.071 40.808 16.071 63.988v82.243c0 67.811-51.612 124.144-117.492 131.678 4.686.563 9.458.866 14.318.866h5.616c72.9 0 132.545-59.645 132.545-132.545V163.04c.001-23.178-5.8-45.001-16.071-63.987z"/></g><path style="fill:#b1dee0" d="M172.372 190.932c.343 2.445 3.087 27.706.686 48.893-2.401 21.187-3.43 32.595-.686 52.151 2.744 19.557 2.058 45.633-.343 59.485 0 0 26.06 17.476 48.752 22.577 0 0 6.13-44.725.985-66.231s-1.029-52.36-1.029-52.36 4.459-52.36-1.715-64.515h-46.65z"/><path style="fill:#dd8e92" d="M342.849 197.964h-66.373c-4.262 0-7.718-3.454-7.718-7.718s3.456-7.718 7.718-7.718h66.373c4.262 0 7.718 3.454 7.718 7.718s-3.456 7.718-7.718 7.718z"/><path style="fill:#b1dee0" d="M335.474 351.461c11.468-8.134-3.087-39.929-.343-59.485 2.744-19.557 1.715-30.965-.686-52.151-2.401-21.187.343-46.448.686-48.893h-46.649c-6.174 12.155-1.715 64.515-1.715 64.515s4.116 30.856-1.029 52.36 1.08 66.378 1.08 66.378 21.24-3.276 48.656-22.724z"/><path style="fill:#dd8e92" d="M259.497 237.067h-14.063a7.72 7.72 0 0 1-7.563-9.261l6.861-33.614c.852-4.176 4.929-6.875 9.105-6.019a7.718 7.718 0 0 1 6.019 9.106l-4.97 24.353h4.611a7.717 7.717 0 1 1 0 15.435zM237.021 283.898a7.717 7.717 0 0 1-5.457-13.174c6.015-6.016 14.01-9.327 22.516-9.327s16.503 3.312 22.516 9.327a7.718 7.718 0 1 1-10.915 10.913 16.298 16.298 0 0 0-11.601-4.806 16.292 16.292 0 0 0-11.601 4.806 7.698 7.698 0 0 1-5.458 2.261zM231.028 197.964h-66.373c-4.262 0-7.718-3.454-7.718-7.718s3.455-7.718 7.718-7.718h66.373c4.262 0 7.718 3.454 7.718 7.718s-3.456 7.718-7.718 7.718z"/><path d="M233.622 270.723a7.717 7.717 0 1 0 10.914 10.913c3.099-3.099 7.22-4.806 11.601-4.806s8.503 1.706 11.601 4.806a7.718 7.718 0 0 0 10.915-10.913c-6.015-6.016-14.01-9.327-22.516-9.327-8.505 0-16.501 3.312-22.515 9.327z"/><path d="M398.348 255.675c26.165-1.871 46.886-23.742 46.886-50.376 0-16.016-7.5-30.303-19.162-39.565v-15.359C426.072 67.458 358.614 0 275.697 0h-37.285c-28.934 0-57.085 8.332-81.407 24.095a7.718 7.718 0 0 0-2.279 10.674 7.716 7.716 0 0 0 10.674 2.279c21.816-14.139 47.063-21.613 73.011-21.613h37.285c74.405 0 134.939 60.533 134.939 134.939v6.99a50.212 50.212 0 0 0-12.153-2.431c-1.527-27.723-10.857-53.891-27.266-76.104a7.723 7.723 0 0 0-9.78-2.256l-33.137 17.303a7.72 7.72 0 0 0-3.281 10.392l8.912 17.202H156.627V81.038a7.72 7.72 0 0 0-5.182-7.29 7.72 7.72 0 0 0-8.587 2.501c-18.118 22.89-28.414 49.966-30.033 78.739a50.28 50.28 0 0 0-9.351 1.727v-6.34c0-21.694 5.054-42.444 15.021-61.674a7.718 7.718 0 1 0-13.705-7.103c-10.959 21.145-16.752 44.927-16.752 68.777v13.772c-12.861 9.167-21.271 24.192-21.271 41.153 0 26.402 20.362 48.125 46.204 50.324a138.37 138.37 0 0 0 10.384 43.406 7.719 7.719 0 0 0 14.241-5.954c-6.348-15.186-9.567-31.265-9.567-47.79V163.04c0-19.64 4.5-38.528 13.163-55.699v21.847a7.717 7.717 0 0 0 7.718 7.718h197.713a7.716 7.716 0 0 0 6.852-11.269l-11.211-21.64 20.308-10.605c13.58 20.546 20.725 44.485 20.725 69.646v82.245c0 35.937-15.271 68.369-39.657 91.166-.86-13.154-.697-29.943 1.192-43.402 2.892-20.606 1.762-32.72-.661-54.093-1.66-14.644-.736-31.841.045-40.992h.689c4.262 0 7.718-3.454 7.718-7.718s-3.456-7.718-7.718-7.718h-66.373c-4.262 0-7.718 3.454-7.718 7.718s3.456 7.718 7.718 7.718h2.294c-2.77 18.882-.324 50.735.307 58.139.01.121.024.244.04.364.039.294 3.871 29.665-.885 49.545-4.119 17.218-1.427 47.652.226 62.15a125.074 125.074 0 0 1-22.046 1.95h-5.616c-7.363 0-14.636-.648-21.756-1.907 1.654-14.48 4.355-44.956.232-62.192-4.743-19.826-.923-49.253-.885-49.545.016-.12.03-.243.04-.364.63-7.404 3.076-39.258.306-58.139h2.294c4.262 0 7.718-3.454 7.718-7.718s-3.456-7.718-7.718-7.718H166.71c-4.262 0-7.718 3.454-7.718 7.718s3.456 7.718 7.718 7.718h.688c.78 9.154 1.705 26.358.046 40.992-2.422 21.374-3.552 33.487-.661 54.093 1.894 13.505 2.054 30.363 1.183 43.537a128.826 128.826 0 0 1-2.568-2.454 7.718 7.718 0 0 0-10.829 10.999c16.666 16.409 36.676 28.171 58.423 34.637H188.88c-.107 0-.213.003-.32.003-.024 0-.046-.003-.07-.003-.036 0-.072.005-.108.005-53.607.233-97.136 37.893-97.136 84.157a7.717 7.717 0 0 0 7.718 7.718 7.717 7.717 0 0 0 7.718-7.718c0-35.609 32.559-64.974 74.09-68.39v101.022H98.965a7.717 7.717 0 0 0-7.718 7.718 7.717 7.717 0 0 0 7.718 7.718h311.392a7.717 7.717 0 0 0 7.718-7.718v-28.977c0-22.809-10.398-46.548-28.53-65.132-17.199-17.628-38.774-28.13-61.436-30.071a7.722 7.722 0 0 0-2.242-.333c-.414 0-.816.042-1.212.105a89.536 89.536 0 0 0-4.213-.105h-22.116c54.797-16.266 95.686-65.175 100.022-124.091zM82.201 205.299c0-17.753 13.257-32.459 30.39-34.762v69.524c-17.132-2.302-30.39-17.008-30.39-34.762zm316.532 34.849v-69.695c17.459 2.001 31.064 16.862 31.064 34.847.001 17.986-13.606 32.846-31.064 34.848zm-103.432 69.456c5.257-21.973 1.581-52.027 1.199-54.984-1.779-20.998-2.181-46.329-.144-56.658h32.398c-.801 9.856-1.691 27.113.08 42.73 2.34 20.654 3.348 31.416.711 50.211-2.601 18.542-2.207 42.229-.316 57.155a124.448 124.448 0 0 1-33.587 16.401c-1.548-14.215-3.722-40.722-.341-54.855zm-113.227-18.7c-2.637-18.795-1.629-29.557.711-50.211 1.769-15.607.88-32.871.079-42.73h32.398c2.034 10.325 1.634 35.656-.142 56.658-.383 2.962-4.057 33.013 1.199 54.984 3.387 14.156 1.2 40.727-.351 54.925a123.716 123.716 0 0 1-33.593-16.358c1.904-14.918 2.306-38.68-.301-57.268zm14.138 104.301h22.694v45.124a7.717 7.717 0 0 0 7.718 7.718 7.717 7.717 0 0 0 7.718-7.718v-51.296a7.802 7.802 0 0 0 0-3.092v-1.622a140.787 140.787 0 0 0 18.512 1.228h5.616c6.533 0 12.96-.459 19.258-1.328v56.109c0 4.263 3.455 7.718 7.718 7.718s7.718-3.454 7.718-7.718v-45.124h24.988v101.36h-121.94V395.205zm206.43 80.101v21.259h-69.054V396.378c39.77 7.122 69.054 45.475 69.054 78.928z"/><path d="M255.896 188.172c-4.176-.856-8.253 1.843-9.105 6.019l-6.861 33.614a7.716 7.716 0 0 0 7.563 9.261h14.064a7.718 7.718 0 0 0 0-15.436h-4.611l4.97-24.353a7.721 7.721 0 0 0-6.02-9.105z"/></svg>