<svg height="512" width="512" xmlns="http://www.w3.org/2000/svg"><path d="M494.458 387.885c-6.443-24.045-7.792-49.263-3.155-73.721 1.957-10.324 2.948-21.197 2.948-32.602s-.991-22.277-2.948-32.602c-4.636-24.458-3.288-49.676 3.155-73.721l9.496-35.439c3.271-12.208-7.9-23.379-20.108-20.108l-31.934 8.557c-29.037 7.78-59.566 7.454-88.603-.322-30.768-8.239-66.646-12.496-107.308-12.496s-76.54 4.257-107.308 12.496c-29.038 7.776-59.567 8.102-88.603.322l-31.934-8.557c-12.208-3.271-23.379 7.9-20.108 20.108l9.496 35.439c6.443 24.045 7.792 49.263 3.155 73.721-1.957 10.324-2.948 21.197-2.948 32.602s.991 22.277 2.948 32.602c4.636 24.458 3.288 49.676-3.155 73.721l-9.496 35.439c-3.271 12.208 7.9 23.379 20.108 20.108l31.934-8.557c29.037-7.78 59.566-7.454 88.603.322 30.768 8.239 66.646 12.496 107.308 12.496s76.54-4.257 107.308-12.496c29.038-7.776 59.567-8.102 88.603-.322l31.934 8.557c12.208 3.271 23.379-7.9 20.108-20.108z" fill="#e5ecf1"/><path d="M494.458 387.885c-6.443-24.046-7.792-49.263-3.155-73.722 1.957-10.324 2.948-21.197 2.948-32.602s-.991-22.277-2.948-32.602c-4.636-24.458-3.288-49.676 3.155-73.722l9.496-35.439c3.271-12.208-7.9-23.379-20.108-20.108l-31.934 8.557c-11.514 3.085-23.264 4.875-35.061 5.452l-.288 1.074c-6.443 24.045-7.792 49.263-3.155 73.722 1.957 10.324 2.948 21.197 2.948 32.602s-.991 22.277-2.948 32.602c-4.636 24.458-3.288 49.676 3.155 73.721l9.496 35.439c3.271 12.208-7.9 23.379-20.108 20.108l-31.934-8.557c-29.037-7.78-59.566-7.454-88.603.322-30.768 8.239-66.646 12.496-107.308 12.496s-76.54-4.257-107.308-12.496c-17.523-4.693-35.589-6.651-53.543-5.773l-9.208 34.366c-3.271 12.208 7.9 23.379 20.108 20.108l31.934-8.557c29.037-7.78 59.566-7.454 88.603.322 30.768 8.239 66.646 12.496 107.308 12.496s76.54-4.257 107.308-12.496c29.038-7.776 59.567-8.102 88.603-.322l31.934 8.557c12.208 3.271 23.379-7.9 20.108-20.108z" fill="#d6e4ea"/><path d="M286.596 203.45h-60.537c-43.111 0-78.06 34.949-78.06 78.06v54.144h216.657V281.51c0-43.111-34.949-78.06-78.06-78.06z" fill="#a64c31"/><path d="M287.893 203.45h-31.816c42.395 0 76.763 34.368 76.763 76.763v55.44h31.816v-55.44c0-42.394-34.368-76.763-76.763-76.763z" fill="#8a3e25"/><path d="M352.672 328.699a22.446 22.446 0 0 0-1.781-.054V296.79c0-17.138-13.893-31.031-31.031-31.031H193.45c-17.138 0-31.031 13.893-31.031 31.031v31.904a21.722 21.722 0 0 0-3.092.006c-15.368 1.132-27.253 9.83-25.91 28.063 1.314 17.849 14.819 38.203 29.804 37.992 6.037 46.222 45.566 81.913 93.434 81.913 47.88 0 87.417-35.709 93.439-81.948 14.451-.949 27.212-20.633 28.488-37.957 1.343-18.233-10.542-26.932-25.91-28.064z" fill="#ffcbbe"/><path d="M352.672 328.699a22.446 22.446 0 0 0-1.781-.054V296.79c0-17.138-13.893-31.031-31.031-31.031h-10.609c5.375 5.58 8.687 13.162 8.687 21.521v85.642c0 52.045-42.191 94.236-94.236 94.236-3.121 0-6.206-.156-9.249-.452 12.697 6.371 27.029 9.962 42.202 9.962 47.88 0 87.417-35.709 93.439-81.948 14.452-.949 27.212-20.633 28.488-37.957 1.343-18.233-10.542-26.932-25.91-28.064z" fill="#fdad9d"/><path d="M139.538 425.379c-27.121-5.504-55.262-4.714-81.382 2.285l-31.934 8.557c-4.508 1.207-7.549-1.218-8.648-2.317s-3.525-4.141-2.317-8.648l9.496-35.439c6.852-25.571 7.986-52.212 3.279-77.044-1.87-9.862-2.818-20.363-2.818-31.211s.948-21.349 2.818-31.212c4.707-24.831 3.573-51.472-3.279-77.044l-9.496-35.439c-1.208-4.507 1.218-7.549 2.317-8.648 1.099-1.098 4.14-3.525 8.647-2.317l31.935 8.557c18.364 4.92 37.442 6.794 56.704 5.566 4.115-.262 7.238-3.81 6.976-7.925s-3.815-7.243-7.925-6.976c-17.639 1.124-35.098-.589-51.89-5.088l-31.935-8.557c-8.338-2.234-16.964.077-23.069 6.181-6.106 6.106-8.416 14.73-6.182 23.071l9.496 35.439c6.275 23.417 7.323 47.76 3.032 70.399-2.043 10.777-3.079 22.213-3.079 33.992s1.036 23.215 3.079 33.992c4.291 22.64 3.242 46.984-3.032 70.399L.835 421.391c-2.234 8.34.076 16.965 6.182 23.07 4.573 4.573 10.558 7.017 16.779 7.017 2.085 0 4.197-.275 6.29-.835l31.934-8.557c23.901-6.404 49.68-7.122 74.548-2.075a7.467 7.467 0 0 0 8.801-5.831 7.464 7.464 0 0 0-5.831-8.801z"/><path d="M501.669 385.953c-6.275-23.416-7.323-47.759-3.032-70.399 2.043-10.777 3.079-22.214 3.079-33.992s-1.036-23.214-3.079-33.992c-4.291-22.639-3.243-46.982 3.032-70.399l9.496-35.439c2.234-8.34-.076-16.965-6.182-23.07-6.105-6.105-14.729-8.415-23.07-6.182l-31.934 8.557c-27.317 7.321-56.62 7.208-84.741-.322-31.594-8.46-68.347-12.75-109.239-12.75s-77.645 4.29-109.239 12.75a7.464 7.464 0 0 0-5.28 9.142 7.463 7.463 0 0 0 9.142 5.28c30.334-8.123 65.788-12.241 105.377-12.241s75.042 4.119 105.377 12.241c30.647 8.208 62.622 8.318 92.467.322l31.934-8.557c4.505-1.209 7.548 1.218 8.648 2.317 1.099 1.099 3.525 4.141 2.317 8.648l-9.496 35.439c-6.852 25.572-7.986 52.213-3.279 77.044 1.869 9.863 2.817 20.364 2.817 31.212s-.948 21.349-2.817 31.211c-4.707 24.831-3.573 51.473 3.279 77.044l9.496 35.439c1.208 4.507-1.218 7.549-2.317 8.648-1.099 1.098-4.14 3.526-8.647 2.317l-31.934-8.557c-29.844-7.996-61.818-7.885-92.468.322a304.977 304.977 0 0 1-15.81 3.771c5.245-9.411 9.063-19.75 11.095-30.758 16.055-5.154 28.04-25.683 29.366-43.689 1.004-13.62-4.301-21.844-8.928-26.344-1.494-1.453-3.17-2.736-4.977-3.881v-46.872c0-46.444-37.785-84.229-84.229-84.229h-63.13c-46.444 0-84.229 37.785-84.229 84.229v46.469c-2.064 1.239-3.96 2.658-5.633 4.285-4.627 4.5-9.932 12.724-8.929 26.344 1.396 18.951 14.314 39.726 30.751 44.082 8.971 47.557 50.955 82.741 99.933 82.741 30.234 0 57.785-13.417 76.567-34.862 11.131-1.847 21.901-4.153 32.016-6.863 28.121-7.531 57.423-7.642 84.74-.322l31.935 8.557c2.093.561 4.204.835 6.289.835 6.221 0 12.207-2.444 16.78-7.017 6.106-6.106 8.416-14.73 6.182-23.07zm-245.013 83.249c-43.431 0-80.416-32.421-86.032-75.415-.491-3.758-3.67-6.541-7.508-6.498-9.693.141-21.131-15.837-22.254-31.076-.466-6.327 1.031-11.221 4.449-14.545 3.24-3.151 8.276-5.062 14.565-5.525.68-.05 1.343-.051 2.027-.004a7.466 7.466 0 0 0 7.981-7.447V296.79c0-12.994 10.572-23.565 23.566-23.565h79.472a7.465 7.465 0 1 0 0-14.93H193.45c-19.107 0-35 13.995-37.986 32.271v-10.35c0-38.211 31.087-69.298 69.298-69.298h63.13c38.211 0 69.298 31.087 69.298 69.298v7.172c-4.208-16.696-19.346-29.092-37.33-29.092h-10.44a7.465 7.465 0 1 0 0 14.93h10.441c12.994 0 23.565 10.571 23.565 23.565v31.856a7.467 7.467 0 0 0 7.465 7.465h.044c.466-.001.842.008 1.189.034 6.288.463 11.325 2.373 14.565 5.525 3.418 3.324 4.914 8.218 4.449 14.545-1.087 14.754-11.954 30.427-21.532 31.056a7.465 7.465 0 0 0-6.913 6.486c-5.603 43.009-42.59 75.444-86.037 75.444z"/><path d="M273.358 395.352c-4.571 3.959-10.735 6.14-17.358 6.14s-12.787-2.181-17.358-6.14c-3.115-2.7-7.83-2.362-10.53.754s-2.362 7.831.754 10.53c7.284 6.311 16.921 9.786 27.134 9.786s19.85-3.476 27.134-9.786a7.464 7.464 0 0 0 .754-10.53 7.463 7.463 0 0 0-10.53-.754zM316.663 341.492a7.465 7.465 0 0 0-9.349 4.906c-1.11 3.562-4.367 5.954-8.104 5.954s-6.994-2.393-8.104-5.954a7.467 7.467 0 0 0-14.255 4.443c3.065 9.834 12.05 16.442 22.358 16.442s19.293-6.608 22.358-16.442a7.462 7.462 0 0 0-4.904-9.349zM236.458 350.841a7.465 7.465 0 0 0-4.906-9.349 7.465 7.465 0 0 0-9.349 4.906c-1.11 3.562-4.367 5.954-8.103 5.954s-6.994-2.393-8.104-5.954a7.466 7.466 0 0 0-14.255 4.443c3.065 9.834 12.051 16.442 22.358 16.442 10.309 0 19.294-6.608 22.359-16.442zM379.343 228.414c0 6.129 3.516 8.138 9.544 8.138h44.708c4.722 0 8.54-2.412 8.54-6.932 0-4.521-3.818-6.933-8.54-6.933h-32.149l37.876-45.009c1.508-1.708 2.311-3.918 2.311-5.927 0-5.727-3.416-7.535-7.635-7.535h-43.402c-4.722 0-8.54 2.411-8.54 6.932s3.818 6.933 8.54 6.933h28.734l-37.274 44.004c-1.507 1.808-2.713 3.717-2.713 6.329zM415.996 107.467h34.995c2.54 0 5.55-1.411 5.55-5.362s-3.01-5.362-5.55-5.362h-22.577l25.399-27.846c1.317-1.411 2.164-3.105 2.164-4.61 0-3.575-1.976-6.021-5.645-6.021h-32.643c-2.54 0-5.55 1.412-5.55 5.363s3.01 5.362 5.55 5.362h19.85l-25.87 28.127c-1.223 1.317-1.787 3.01-1.787 4.986 0 2.729 2.069 5.363 6.114 5.363zM360.909 64.682h26.186c1.901 0 4.153-1.056 4.153-4.012 0-2.957-2.253-4.012-4.153-4.012h-16.894l19.006-20.836c.986-1.056 1.619-2.323 1.619-3.449 0-2.675-1.478-4.505-4.224-4.505h-24.426c-1.901 0-4.153 1.056-4.153 4.013s2.253 4.012 4.153 4.012h14.853L357.671 56.94c-.915.986-1.337 2.253-1.337 3.731 0 2.04 1.549 4.011 4.575 4.011z"/></svg>