<svg xmlns="http://www.w3.org/2000/svg" viewBox="0 0 512 512" style="enable-background:new 0 0 512 512" xml:space="preserve"><path style="fill:#898890" d="M297.772 293.545h-.374C283.479 351.736 231.134 395 168.677 395S53.875 351.736 39.955 293.545h-.373L7.5 325.627V504.5h322.347l.007-178.873-32.082-32.082z"/><path style="fill:#57565c" d="M195.896 395C250.867 395 298 361.482 318 313.772l-20.228-20.228h-.374c-12.896 53.909-58.772 95.001-115.113 100.757 4.476.459 9.015.699 13.611.699zM46.573 313.772a131.488 131.488 0 0 1-6.618-20.227h-.373L7.5 325.627V504.5h27.219V325.627l11.854-11.855z"/><path style="fill:#c6c5ca" d="M7.5 431.56h60.968v72.938H7.5zM268.89 431.56h60.968v72.938H268.89z"/><path style="fill:#898890" d="M7.5 431.56h27.22v72.938H7.5zM268.89 431.56h27.22v72.938h-27.22zM258.337 293.545V136.66c0-38.287-24.002-70.963-57.777-83.818L196.347 37h23.736C234.12 37 245.5 25.621 245.5 11.583V7.5h-76.823a25.786 25.786 0 0 0-24.919 19.157l-6.965 26.185c-33.775 12.855-57.776 45.531-57.776 83.818v156.885H39.955C53.875 351.736 106.22 395 168.677 395s114.802-43.264 128.722-101.455h-39.062z"/><path style="fill:#57565c" d="M171.396 174.363c0 13.807-11.193 25-25 25s-25-11.193-25-25v-19.05h50v19.05zM252.233 174.363c0 13.807-11.193 25-25 25s-25-11.193-25-25v-19.05h50v19.05zM216.888 248.777c0 16.508-13.382 29.89-29.89 29.89s-29.89-13.382-29.89-29.89V226l29.89-15 29.89 15v22.777zM69.907 293.545H39.955C53.875 351.736 106.22 395 168.677 395c5.064 0 10.06-.289 14.976-.843-55.715-6.275-100.955-47.139-113.746-100.612z"/><path style="fill:#57565c" d="M108.969 136.66c0-38.287 24.001-70.962 57.776-83.818l6.965-26.185A25.786 25.786 0 0 1 198.629 7.5h-29.952a25.786 25.786 0 0 0-24.919 19.157l-6.965 26.185c-33.775 12.855-57.776 45.531-57.776 83.818v156.885h29.952V136.66z"/><path style="fill:#ffdaaa" d="M153.075 174.363c0 13.807-11.193 25-25 25s-25-11.193-25-25v-19.05h50v19.05zM233.912 174.363c0 13.807-11.193 25-25 25s-25-11.193-25-25v-19.05h50v19.05zM198.567 248.777c0 16.508-13.382 29.89-29.89 29.89s-29.89-13.382-29.89-29.89V226l29.89-15 29.89 15v22.777z"/><path style="fill:#ff9478" d="M208.912 199.363c3.637 0 7.089-.783 10.206-2.179-8.717-3.905-14.794-12.65-14.794-22.821v-19.05h-20.412v19.05c0 13.807 11.193 25 25 25zM123.487 174.363v-19.05h-20.412v19.05c0 13.807 11.193 25 25 25 3.637 0 7.089-.783 10.206-2.179-8.717-3.905-14.794-12.65-14.794-22.821zM159.199 248.776V226l19.684-9.878L168.677 211l-29.89 15v22.776c0 16.508 13.382 29.89 29.89 29.89 3.585 0 7.021-.632 10.206-1.79-11.482-4.17-19.684-15.176-19.684-28.1z"/><path style="fill:#ffb655" d="M380.746 504.5H350.47l-.157-262.862h30.275zM380.504 115.667l-30.275.025-.026 21.249 30.275-.026z"/><path style="fill:#ff7956" d="M365.531 504.5h-15.194l-.079-262.862h15.194zM365.41 115.667l-15.194.025-.013 21.249 15.194-.026z"/><path style="fill:#c6c5ca" d="M346.2 136.92h38.498v104.72H346.2z"/><path style="fill:#898890" d="M346.2 136.92h19.249v104.72H346.2zM437.056 122.869v-1.036c37.248 0 67.444 30.196 67.444 67.444s-30.196 67.444-67.444 67.444c0-22.84-18.516-41.356-41.356-41.356h-11.001v-51.14H395.7c22.84 0 41.356-18.515 41.356-41.356z"/><path style="fill:#57565c" d="M461.301 252.213c-2.247-20.719-19.791-36.848-41.107-36.848h-11v-51.139h11c21.658 0 39.415-16.651 41.198-37.848a67.237 67.237 0 0 0-24.335-4.544v1.036c0 22.84-18.516 41.356-41.356 41.356h-11v51.139h11c22.84 0 41.356 18.516 41.356 41.356a67.256 67.256 0 0 0 24.244-4.508z"/><path style="fill:#1d1d1f" d="M301.5 395.43h15v15h-15zM301.5 370.43h15v15h-15zM301.5 345.43h15v15h-15z"/><path style="fill:#fff" d="M232 445h15v37.533h-15zM232 395h15v15h-15zM232 420h15v15h-15z"/><path style="fill:#1d1d1f" d="m208.11 347.523 6.947 13.295a100.751 100.751 0 0 0 13.699-8.634l-8.992-12.006a85.628 85.628 0 0 1-11.654 7.345zM226.81 334.28l10.229 10.972a100.187 100.187 0 0 0 21.642-29.104l-13.455-6.629a85.272 85.272 0 0 1-18.416 24.761zM186.57 355.287l3.131 14.67a100.036 100.036 0 0 0 15.52-4.66l-5.467-13.969a84.87 84.87 0 0 1-13.184 3.959z"/><path style="fill:#1d1d1f" d="M81.432 371.953c25.004 19.983 55.173 30.547 87.245 30.547s62.241-10.563 87.245-30.547c24.264-19.394 41.584-46.619 48.771-76.663l2.212-9.245h-41.067V136.659c0-20.088-6.081-39.368-17.584-55.755-10.489-14.941-24.747-26.501-41.408-33.613l-.742-2.791h13.98C238.233 44.5 253 29.733 253 11.583V0h-84.323c-15.066 0-28.294 10.169-32.167 24.729l-6.001 22.563c-16.661 7.112-30.919 18.672-41.407 33.613-11.504 16.387-17.584 35.666-17.584 55.754v149.386H30.449l2.212 9.245c7.187 30.044 24.507 57.27 48.771 76.663zm36.542-70.908v-15H86.518V136.659c0-33.888 21.276-64.755 52.943-76.808l.027-.01c9.323-3.543 19.144-5.341 29.189-5.341v-15c-7.185 0-14.272.792-21.196 2.336l3.525-13.252C153.134 20.586 160.4 15 168.677 15h68.996c-1.6 8.251-8.878 14.5-17.59 14.5h-33.49l7.706 28.982 3.593 1.368c31.668 12.053 52.945 42.92 52.945 76.809v164.386h36.684c-16.479 51.358-64.058 86.455-118.844 86.455S66.312 352.403 49.833 301.045h68.141z"/><path style="fill:#fff" d="M219.61 85.614a72.29 72.29 0 0 0-13.081-10.386l-7.9 12.75a57.212 57.212 0 0 1 10.36 8.228l10.621-10.592zM225.158 127.954l14.82-2.32c-1.772-11.318-6.313-22.231-13.131-31.558l-12.109 8.852c5.413 7.405 9.017 16.059 10.42 25.026zM190.797 83.937l5.809-13.83a74.59 74.59 0 0 0-2.271-.909l-11.976-4.558-5.336 14.02 11.974 4.557c.606.229 1.205.47 1.8.72z"/><path style="fill:#1d1d1f" d="M160.575 174.363v-26.55h-65v26.55c0 17.921 14.579 32.5 32.5 32.5s32.5-14.579 32.5-32.5zm-50 0v-11.55h35v11.55c0 9.649-7.851 17.5-17.5 17.5s-17.5-7.85-17.5-17.5zM208.912 206.863c17.921 0 32.5-14.579 32.5-32.5v-26.55h-65v26.55c0 17.921 14.579 32.5 32.5 32.5zm-17.5-44.05h35v11.55c0 9.649-7.851 17.5-17.5 17.5s-17.5-7.851-17.5-17.5v-11.55zM131.287 248.776c0 20.617 16.772 37.391 37.39 37.391s37.391-16.773 37.391-37.391v-27.404l-37.391-18.764-37.39 18.764v27.404zm15-18.148 22.39-11.236 22.391 11.236v18.148c0 12.347-10.044 22.391-22.391 22.391-12.346 0-22.39-10.044-22.39-22.391v-18.148zM373.088 261.643 373.24 497h-15.274l-.153-235.367-15 .01.163 250.357h45.274l-.162-250.367z"/><path transform="rotate(-90.045 365.37 115.68)" style="fill:#1d1d1f" d="M357.87 93.045h15v45.27h-15z"/><path style="fill:#1d1d1f" d="M437.056 114.333h-7.5v8.536c0 18.669-15.188 33.856-33.855 33.856H392.2v-27.309h-53.498v119.721H392.2v-26.272h3.501c18.668 0 33.855 15.188 33.855 33.856v7.5h7.5c41.324 0 74.944-33.62 74.944-74.944s-33.62-74.944-74.944-74.944zm-59.857 119.805h-23.498v-89.721h23.498v89.721zm102.244-2.474c-9.688 9.688-22.108 15.651-35.523 17.171-3.78-23.204-23.964-40.97-48.22-40.97h-3.501v-36.14h3.501c24.607 0 45.024-18.286 48.374-41.984C473.832 133.229 497 158.599 497 189.277c0 16.012-6.235 31.065-17.557 42.387z"/><path style="fill:#fff" d="M470.947 192.942c-1.237 11.534-8.198 21.555-18.621 26.806l6.748 13.396c14.991-7.553 25.005-21.983 26.787-38.603l-14.914-1.599zM470.845 184.758l14.869-1.979a48.658 48.658 0 0 0-5.438-16.762l-13.199 7.127a33.747 33.747 0 0 1 3.768 11.614zM462.354 166.461l11.133-10.053a49.157 49.157 0 0 0-13.928-10.749l-6.896 13.32a34.231 34.231 0 0 1 9.691 7.482z"/><path style="fill:#1d1d1f" d="m318.983 304.148-10.607 10.605 13.978 13.979-.003 95.328h-45.964v-46.666h-15V497H75.968v-28.934h42.006v-15H75.968v-75.67h-15v46.665H15v-95.328l13.979-13.978-10.607-10.607L0 322.521V512h337.354V322.521l-18.371-18.373zM50.972 497v-36.434h-15V497H15v-57.938h45.968V497h-9.996zm225.414 0v-57.938h45.964v9.739h-22.98v15h22.979L322.348 497h-45.962z"/></svg>