<svg height="512pt" viewBox="0 -90 512.003 512" width="512pt" xmlns="http://www.w3.org/2000/svg"><path d="M504.492 126.977H7.512V35.555c0-15.489 12.554-28.043 28.043-28.043h440.894c15.488 0 28.043 12.554 28.043 28.043zm0 0" fill="#ff7a7a"/><path d="M504.496 35.555v91.422h-34.058V35.555c0-15.493-12.555-28.047-28.043-28.047h34.054c15.492 0 28.047 12.554 28.047 28.047zm0 0" fill="#ff5757"/><g fill="#ededed"><path d="M239.766 166.098h-45.688c-8.988 0-16.277-7.29-16.277-16.278v-22.843c0-21.602 17.515-39.118 39.12-39.118s39.122 17.512 39.122 39.118v22.843c0 8.989-7.29 16.278-16.277 16.278zm0 0"/><path d="M161.523 166.098h-35.351c-8.988 0-16.277-7.29-16.277-16.278v-28.007c0-18.754 15.203-33.954 33.953-33.954 18.754 0 33.957 15.2 33.957 33.954v28.007c-.004 8.989-7.29 16.278-16.282 16.278zM92.734 166.098H71.012c-8.992 0-16.282-7.29-16.282-16.278V115c0-14.992 12.153-27.14 27.141-27.14 14.988 0 27.14 12.148 27.14 27.14v34.82c0 8.989-7.288 16.278-16.277 16.278zM38.309 166.098h-14.52c-8.992 0-16.277-7.29-16.277-16.278v-38.422c0-13 10.535-23.539 23.535-23.539S54.586 98.4 54.586 111.4v38.421c0 8.989-7.29 16.278-16.277 16.278zM272.234 166.098h45.688c8.988 0 16.277-7.29 16.277-16.278v-22.843c0-21.602-17.515-39.118-39.12-39.118s-39.122 17.512-39.122 39.118v22.843c0 8.989 7.29 16.278 16.277 16.278zM350.477 166.098h35.351c8.988 0 16.277-7.29 16.277-16.278v-28.007c0-18.754-15.203-33.954-33.953-33.954-18.754 0-33.953 15.2-33.953 33.954v28.007c0 8.989 7.285 16.278 16.278 16.278zM419.266 166.098h21.722c8.992 0 16.282-7.29 16.282-16.278V115c0-14.992-12.153-27.14-27.141-27.14-14.988 0-27.14 12.148-27.14 27.14v34.82c0 8.989 7.288 16.278 16.277 16.278zM473.691 166.098h14.52c8.992 0 16.277-7.29 16.277-16.278v-38.422c0-13-10.535-23.539-23.535-23.539s-23.539 10.54-23.539 23.54v38.421c0 8.989 7.29 16.278 16.277 16.278zm0 0"/></g><path d="M256.04 126.977v22.847c0 8.985-7.286 16.274-16.274 16.274H221.25c8.996 0 16.285-7.29 16.285-16.274v-22.847c0-10.797-4.383-20.579-11.46-27.653-4.997-4.996-11.317-8.644-18.403-10.355a38.986 38.986 0 0 1 9.246-1.106c10.805 0 20.586 4.375 27.664 11.461 7.074 7.074 11.457 16.856 11.457 27.653zM177.805 121.809v28.015c0 8.985-7.285 16.274-16.282 16.274h-18.507c8.988 0 16.273-7.29 16.273-16.274V121.81c0-9.368-3.8-17.86-9.941-24.004a34.03 34.03 0 0 0-14.754-8.664 33.858 33.858 0 0 1 9.258-1.278c9.378 0 17.863 3.801 24.003 9.942 6.153 6.144 9.95 14.636 9.95 24.004zM109.012 114.996v34.828c0 8.985-7.29 16.274-16.278 16.274H74.22c8.996 0 16.285-7.29 16.285-16.274v-34.828c0-7.5-3.035-14.277-7.95-19.191a27.215 27.215 0 0 0-9.933-6.32c2.887-1.047 6-1.622 9.25-1.622a27.08 27.08 0 0 1 19.188 7.942c4.914 4.914 7.953 11.691 7.953 19.191zM54.59 111.395v38.43c0 8.984-7.29 16.273-16.285 16.273H23.789c-.672 0-1.336-.04-1.988-.121 8.039-.985 14.273-7.84 14.273-16.153v-38.43a23.446 23.446 0 0 0-6.898-16.636 23.356 23.356 0 0 0-7.387-5.004 23.442 23.442 0 0 1 9.258-1.89 23.454 23.454 0 0 1 16.644 6.894 23.446 23.446 0 0 1 6.899 16.637zM334.195 126.977v22.847c0 8.985-7.289 16.274-16.273 16.274h-18.516c8.996 0 16.281-7.29 16.281-16.274v-22.847c0-18.415-12.722-33.856-29.863-38.008a39.084 39.084 0 0 1 9.258-1.106c21.602 0 39.113 17.512 39.113 39.114zM402.105 121.809v28.015c0 8.985-7.289 16.274-16.273 16.274h-18.516c8.985 0 16.274-7.29 16.274-16.274V121.81c0-15.54-10.445-28.637-24.7-32.668a33.858 33.858 0 0 1 9.258-1.278c18.758 0 33.957 15.2 33.957 33.946zM457.27 114.996v34.828c0 8.985-7.286 16.274-16.282 16.274H422.48c8.989 0 16.274-7.29 16.274-16.274v-34.828c0-11.734-7.445-21.723-17.883-25.504a26.959 26.959 0 0 1 9.262-1.629c14.984 0 27.137 12.145 27.137 27.133zM504.496 111.395v38.43c0 8.984-7.289 16.273-16.285 16.273h-14.516c-.672 0-1.336-.04-1.988-.121 8.04-.985 14.273-7.84 14.273-16.153v-38.43c0-9.71-5.878-18.05-14.285-21.64a23.442 23.442 0 0 1 9.258-1.89c12.996 0 23.543 10.534 23.543 23.53zm0 0" fill="#d6d4d4"/><path d="M444.79 324.684H67.296c-15.488 0-28.043-12.555-28.043-28.043v-91.422h433.578v91.422c0 15.488-12.555 28.043-28.043 28.043zm0 0" fill="#ff7a7a"/><path d="M472.832 205.219v91.426c0 15.488-12.555 28.043-28.047 28.043h-34.047c15.48 0 28.035-12.555 28.035-28.043v-91.426zm0 0" fill="#ff5757"/><path d="M239.766 166.098H204.41c-8.988 0-16.277 7.289-16.277 16.277v28.008c0 18.754 15.203 33.957 33.957 33.957 18.75 0 33.953-15.203 33.953-33.957v-28.008c0-8.988-7.29-16.277-16.277-16.277zm0 0" fill="#ededed"/><path d="M172.11 166.098h-21.727c-8.988 0-16.278 7.289-16.278 16.277v34.824c0 14.988 12.153 27.14 27.141 27.14 14.988 0 27.14-12.151 27.14-27.14v-34.824c0-8.988-7.288-16.277-16.277-16.277zM117.68 166.098h-14.52c-8.988 0-16.277 7.289-16.277 16.277v38.426c0 13 10.539 23.535 23.539 23.535 12.996 0 23.535-10.535 23.535-23.535v-38.426c0-8.988-7.285-16.277-16.277-16.277zM70.05 166.098H55.528c-8.988 0-16.277 7.289-16.277 16.277v38.426c0 13 10.54 23.535 23.54 23.535 12.995 0 23.534-10.535 23.534-23.535v-38.426c0-8.988-7.285-16.277-16.273-16.277zM272.32 166.098h35.352c8.988 0 16.277 7.289 16.277 16.277v28.008c0 18.754-15.203 33.957-33.953 33.957-18.754 0-33.953-15.203-33.953-33.957v-28.008c0-8.988 7.285-16.277 16.277-16.277zm0 0" fill="#ededed"/><path d="M339.977 166.098h21.722c8.992 0 16.278 7.289 16.278 16.277v34.824c0 14.988-12.149 27.14-27.137 27.14-14.992 0-27.14-12.151-27.14-27.14v-34.824c0-8.988 7.284-16.277 16.277-16.277zM394.402 166.098h14.52c8.988 0 16.277 7.289 16.277 16.277v38.426c0 13-10.539 23.535-23.535 23.535-13 0-23.539-10.535-23.539-23.535v-38.426c0-8.988 7.29-16.277 16.277-16.277zM442.035 166.098h14.52c8.988 0 16.277 7.289 16.277 16.277v38.426c0 13-10.539 23.535-23.535 23.535-13 0-23.54-10.535-23.54-23.535v-38.426c0-8.988 7.29-16.277 16.278-16.277zm0 0" fill="#ededed"/><path d="M256.04 182.371v28.016c0 9.367-3.802 17.863-9.942 24.004a33.839 33.839 0 0 1-24.012 9.941 33.76 33.76 0 0 1-9.25-1.277 33.898 33.898 0 0 0 14.746-8.664c6.152-6.141 9.953-14.637 9.953-24.004V182.37c0-8.984-7.289-16.273-16.285-16.273h18.516c8.988 0 16.273 7.289 16.273 16.273zM188.383 182.371v34.832c0 7.5-3.04 14.274-7.942 19.188-4.918 4.906-11.691 7.941-19.191 7.941-3.246 0-6.363-.574-9.258-1.617a27.224 27.224 0 0 0 9.934-6.324c4.914-4.914 7.949-11.688 7.949-19.188v-34.832c0-8.984-7.29-16.273-16.273-16.273h18.503c8.989 0 16.278 7.289 16.278 16.273zM133.96 182.371v38.43a23.439 23.439 0 0 1-6.898 16.637 23.433 23.433 0 0 1-16.644 6.894c-3.29 0-6.414-.672-9.25-1.887a23.796 23.796 0 0 0 7.379-5.007 23.442 23.442 0 0 0 6.894-16.637v-38.43c0-8.312-6.23-15.168-14.273-16.152a16.737 16.737 0 0 1 1.992-.121h14.524c8.988 0 16.277 7.289 16.277 16.273zM86.324 182.371v38.43a23.439 23.439 0 0 1-6.898 16.637 23.408 23.408 0 0 1-16.637 6.894c-3.285 0-6.41-.672-9.258-1.887a23.605 23.605 0 0 0 7.39-5.007 23.442 23.442 0 0 0 6.895-16.637v-38.43c0-8.312-6.23-15.168-14.285-16.152a16.97 16.97 0 0 1 2-.121h14.516c8.988 0 16.277 7.289 16.277 16.273zM323.953 182.371v28.016c0 18.746-15.21 33.945-33.957 33.945-3.207 0-6.312-.441-9.258-1.277 14.254-4.028 24.7-17.13 24.7-32.668V182.37c0-8.984-7.29-16.273-16.278-16.273h18.508c8.996 0 16.285 7.289 16.285 16.273zM377.98 182.371v34.832c0 14.988-12.152 27.129-27.14 27.129a26.86 26.86 0 0 1-9.258-1.629c10.434-3.777 17.883-13.77 17.883-25.5v-34.832c0-8.984-7.29-16.273-16.274-16.273h18.504c8.996 0 16.285 7.289 16.285 16.273zM425.203 182.371v38.43c0 12.996-10.543 23.531-23.539 23.531-3.289 0-6.414-.672-9.258-1.887 8.403-3.59 14.281-11.933 14.281-21.644v-38.43c0-8.312-6.23-15.168-14.273-16.152a16.737 16.737 0 0 1 1.992-.121h14.516c8.996 0 16.281 7.289 16.281 16.273zM472.832 182.371v38.43c0 12.996-10.535 23.531-23.531 23.531-3.29 0-6.414-.672-9.262-1.887 8.406-3.601 14.285-11.933 14.285-21.644v-38.43c0-8.312-6.23-15.168-14.285-16.152.656-.078 1.32-.121 1.992-.121h14.524c8.988 0 16.277 7.289 16.277 16.273zm0 0" fill="#d6d4d4"/><path d="M476.45 0H137.183a7.512 7.512 0 0 0 0 15.023h339.265c11.32 0 20.531 9.211 20.531 20.532v49.261a30.834 30.834 0 0 0-16.027-4.468c-9.984 0-18.879 4.742-24.562 12.09-6.36-7.395-15.77-12.09-26.262-12.09-12.277 0-23.07 6.422-29.23 16.078-7.59-9.77-19.442-16.078-32.747-16.078-14.812 0-27.828 7.812-35.164 19.53-8.468-11.812-22.3-19.53-37.91-19.53-16.348 0-30.75 8.465-39.078 21.238-8.324-12.774-22.727-21.238-39.078-21.238-15.61 0-29.442 7.718-37.91 19.53-7.332-11.714-20.352-19.53-35.16-19.53-13.305 0-25.157 6.304-32.75 16.078-6.157-9.656-16.954-16.078-29.227-16.078-10.492 0-19.906 4.695-26.266 12.09-5.683-7.348-14.574-12.09-24.558-12.09a30.848 30.848 0 0 0-16.031 4.468V35.555c0-11.32 9.21-20.532 20.535-20.532h66.418a7.511 7.511 0 0 0 7.507-7.511A7.511 7.511 0 0 0 101.973 0H35.555C15.949 0 0 15.953 0 35.555V149.82c0 13.118 10.672 23.79 23.79 23.79h9.636a23.625 23.625 0 0 0-1.684 8.765v114.266c0 19.605 15.95 35.554 35.555 35.554h377.492c19.606 0 35.555-15.949 35.555-35.554v-5.004a7.512 7.512 0 0 0-7.512-7.512 7.509 7.509 0 0 0-7.508 7.512v5.004c0 11.324-9.21 20.535-20.535 20.535H67.297c-11.324 0-20.535-9.211-20.535-20.535v-49.258a30.878 30.878 0 0 0 16.027 4.465c9.559 0 18.117-4.344 23.816-11.157 5.7 6.813 14.258 11.157 23.817 11.157 9.984 0 18.879-4.743 24.562-12.086 6.36 7.39 15.77 12.086 26.262 12.086 11.938 0 22.484-6.067 28.719-15.282 7.61 9.32 19.183 15.282 32.125 15.282 14.031 0 26.45-7.012 33.953-17.707 7.508 10.695 19.926 17.707 33.953 17.707 12.945 0 24.516-5.961 32.125-15.282 6.234 9.215 16.781 15.282 28.719 15.282 10.492 0 19.906-4.696 26.265-12.086 5.68 7.343 14.575 12.086 24.56 12.086 9.558 0 18.116-4.344 23.815-11.157 5.7 6.813 14.258 11.157 23.817 11.157 5.86 0 11.348-1.633 16.027-4.465v9.332a7.512 7.512 0 0 0 7.512 7.512 7.509 7.509 0 0 0 7.508-7.512v-74.336c0-3.098-.602-6.055-1.68-8.77h9.55c13.118 0 23.79-10.671 23.79-23.789V35.555C512 15.953 496.05 0 476.449 0zM38.308 158.59h-14.52c-4.836 0-8.77-3.934-8.77-8.77v-38.425c0-8.836 7.192-16.028 16.028-16.028 8.84 0 16.027 7.192 16.027 16.028v38.425c0 4.836-3.933 8.77-8.765 8.77zm40.507 62.21c0 8.84-7.187 16.028-16.027 16.028s-16.027-7.187-16.027-16.027v-38.426c0-4.832 3.933-8.766 8.765-8.766h14.52c4.836 0 8.77 3.934 8.77 8.766zm-7.804-62.21c-4.836 0-8.77-3.934-8.77-8.77V115c0-10.824 8.805-19.633 19.63-19.633 10.823 0 19.632 8.809 19.632 19.633v34.82c0 4.836-3.934 8.77-8.77 8.77zm55.437 62.21c0 8.84-7.191 16.028-16.027 16.028-8.84 0-16.031-7.187-16.031-16.027v-38.426c0-4.832 3.933-8.766 8.77-8.766h14.519c4.836 0 8.765 3.934 8.765 8.766v38.426zm-.277-62.21c-4.832 0-8.766-3.934-8.766-8.77v-28.007c0-14.583 11.86-26.446 26.442-26.446s26.445 11.863 26.445 26.445v28.008c0 4.836-3.934 8.77-8.77 8.77zm54.703 58.61c0 10.823-8.805 19.628-19.629 19.628-10.824 0-19.629-8.805-19.629-19.629v-34.824c0-4.832 3.934-8.766 8.766-8.766h21.726c4.23 0 7.77 3.012 8.586 7-.043.586-.07 1.172-.07 1.766v28.008c0 1.531.09 3.039.25 4.523zm4.438-67.38v-22.843c0-17.43 14.18-31.61 31.609-31.61 16.883 0 30.715 13.305 31.566 29.977-.015.543-.039 1.086-.039 1.633v22.843c0 .328.012.657.024.98-.489 4.376-4.207 7.79-8.707 7.79h-45.688c-4.832 0-8.765-3.934-8.765-8.77zm63.218 60.563c0 14.582-11.863 26.445-26.441 26.445-13.363 0-24.434-9.96-26.195-22.844v-31.609c0-.594-.028-1.18-.075-1.766.82-3.988 4.36-7 8.59-7h35.352c4.836 0 8.77 3.934 8.77 8.766zm67.657-28.008v31.605c-1.758 12.887-12.833 22.848-26.192 22.848-14.582 0-26.445-11.863-26.445-26.445v-28.008c0-4.832 3.933-8.766 8.77-8.766h35.35c4.231 0 7.77 3.012 8.59 7.004a23.874 23.874 0 0 0-.074 1.762zm10.5-32.555c0 4.836-3.934 8.77-8.766 8.77h-45.688c-4.5 0-8.218-3.414-8.707-7.79.012-.323.024-.652.024-.98v-22.843c0-.547-.024-1.09-.04-1.633.852-16.672 14.684-29.977 31.567-29.977 17.43 0 31.61 14.18 31.61 31.61zm43.78 67.38c0 10.823-8.808 19.628-19.628 19.628-10.824 0-19.633-8.805-19.633-19.629v-2.297c.164-1.484.254-2.992.254-4.52v-28.007c0-.594-.031-1.18-.074-1.766.82-3.992 4.36-7 8.59-7h21.722c4.836 0 8.77 3.934 8.77 8.766zm-8.769-58.61h-11.222c-4.836 0-8.77-3.934-8.77-8.77v-28.007c0-14.583 11.863-26.446 26.445-26.446s26.446 11.863 26.446 26.445v28.008c0 4.836-3.934 8.77-8.77 8.77zm55.992 62.21c0 8.84-7.191 16.028-16.027 16.028-8.84 0-16.027-7.187-16.027-16.027v-38.426c0-4.832 3.93-8.766 8.765-8.766h14.52c4.836 0 8.77 3.934 8.77 8.766zm1.575-62.21c-4.832 0-8.77-3.934-8.77-8.77V115c0-10.824 8.809-19.633 19.633-19.633s19.629 8.809 19.629 19.633v34.82c0 4.836-3.934 8.77-8.77 8.77zm46.054 61.601v.61c0 8.84-7.187 16.027-16.027 16.027-8.836 0-16.027-7.187-16.027-16.027v-38.426c0-4.832 3.933-8.766 8.77-8.766h14.519c4.832 0 8.765 3.934 8.765 8.766zm31.66-70.37c0 4.835-3.933 8.769-8.765 8.769h-14.52c-4.836 0-8.77-3.934-8.77-8.77v-38.425c0-8.836 7.192-16.028 16.028-16.028 8.84 0 16.027 7.192 16.027 16.028zm0 0"/></svg>