<svg xmlns="http://www.w3.org/2000/svg" viewBox="0 0 512 512" style="enable-background:new 0 0 512 512" xml:space="preserve"><path style="fill:#b0ef60" d="M256 122.74c-24.862 0-45.088 20.227-45.088 45.088s20.227 45.088 45.088 45.088 45.088-20.227 45.088-45.088S280.862 122.74 256 122.74zm0 60.117c-8.287 0-15.029-6.742-15.029-15.029s6.742-15.029 15.029-15.029c8.287 0 15.029 6.742 15.029 15.029s-6.742 15.029-15.029 15.029z"/><path style="fill:#fdd835" d="M149.793 416.313c0 30.435-25.049 70.137-25.049 70.137s-25.049-39.702-25.049-70.137 25.049-40.078 25.049-40.078 25.049 9.643 25.049 40.078zM362.207 416.313c0 30.435 25.049 70.137 25.049 70.137s25.049-39.702 25.049-70.137-25.049-40.078-25.049-40.078-25.049 9.643-25.049 40.078z"/><circle style="fill:#b0ef60" cx="256" cy="454.387" r="50.098"/><path style="fill:#c68d6d" d="m186.334 138.971-.001.016a51.287 51.287 0 0 1 28.088 11.407 45.35 45.35 0 0 1 24.145-24.145 51.272 51.272 0 0 1-11.407-28.089l-.015.001a51.304 51.304 0 0 0-31.792-17.765L163.9 75.728l4.669 31.451a51.304 51.304 0 0 0 17.765 31.792zM227.144 237.494l.016.001a51.287 51.287 0 0 1 11.407-28.088 45.35 45.35 0 0 1-24.145-24.145 51.272 51.272 0 0 1-28.089 11.407l.001.016a51.304 51.304 0 0 0-17.765 31.792l-4.669 31.451 31.451-4.669a51.309 51.309 0 0 0 31.793-17.765zM325.666 196.684l.001-.016a51.287 51.287 0 0 1-28.088-11.407 45.35 45.35 0 0 1-24.145 24.145 51.272 51.272 0 0 1 11.407 28.089l.016-.001a51.304 51.304 0 0 0 31.792 17.765l31.451 4.669-4.669-31.451a51.304 51.304 0 0 0-17.765-31.793zM284.856 98.162l-.016-.001a51.287 51.287 0 0 1-11.407 28.088 45.35 45.35 0 0 1 24.145 24.145 51.272 51.272 0 0 1 28.089-11.407l-.001-.016a51.304 51.304 0 0 0 17.765-31.792l4.669-31.451-31.451 4.669a51.304 51.304 0 0 0-31.793 17.765z"/><path style="fill:#fdd835" d="M256 122.74a44.84 44.84 0 0 1 17.433 3.509c14.881-18.194 15.538-44.202 1.507-63.127L256 37.573l-18.941 25.548c-14.03 18.925-13.373 44.934 1.507 63.127A44.866 44.866 0 0 1 256 122.74zM210.912 167.828a44.84 44.84 0 0 1 3.509-17.433c-18.194-14.881-44.202-15.538-63.127-1.507l-25.548 18.94 25.548 18.941c18.925 14.03 44.934 13.373 63.127-1.507a44.852 44.852 0 0 1-3.509-17.434zM256 212.916a44.84 44.84 0 0 1-17.433-3.509c-14.881 18.194-15.538 44.202-1.507 63.127L256 298.082l18.941-25.548c14.03-18.925 13.373-44.934-1.507-63.127A44.866 44.866 0 0 1 256 212.916zM360.707 148.887c-18.925-14.03-44.934-13.373-63.127 1.507a44.84 44.84 0 0 1 3.509 17.433 44.84 44.84 0 0 1-3.509 17.433c18.194 14.881 44.202 15.538 63.127 1.507l25.548-18.939-25.548-18.941z"/><path style="fill:#fbc02d" d="M124.744 454.387s-16.705-26.481-22.83-52.767c-1.373 4.248-2.219 9.118-2.219 14.693 0 30.435 25.049 70.137 25.049 70.137s25.049-39.702 25.049-70.137c0-5.575-.846-10.445-2.219-14.693-6.126 26.287-22.83 52.767-22.83 52.767zM387.256 454.387s-16.705-26.481-22.83-52.767c-1.373 4.248-2.219 9.118-2.219 14.693 0 30.435 25.049 70.137 25.049 70.137s25.049-39.702 25.049-70.137c0-5.575-.846-10.445-2.219-14.693-6.125 26.287-22.83 52.767-22.83 52.767z"/><path style="fill:#64dd17" d="M256 484.446c-24.236 0-44.452-17.212-49.094-40.078a50.336 50.336 0 0 0-1.004 10.02c0 27.668 22.43 50.098 50.098 50.098s50.098-22.43 50.098-50.098c0-3.432-.347-6.782-1.004-10.02-4.642 22.867-24.858 40.078-49.094 40.078zM256 196.885c-22.125 0-40.565-16.023-44.36-37.072a45.06 45.06 0 0 0-.728 8.016c0 24.862 20.227 45.088 45.088 45.088s45.088-20.227 45.088-45.088c0-2.736-.259-5.413-.728-8.016-3.795 21.048-22.235 37.072-44.36 37.072z"/><path style="fill:#ad7153" d="M227.144 98.162a51.354 51.354 0 0 0-19.542-14.349 71.427 71.427 0 0 0 4.305 36.139 65.287 65.287 0 0 0-3.803 3.804c-8.302-3.275-17.204-5.011-26.223-5.011-3.338 0-6.638.241-9.892.69a51.346 51.346 0 0 0 14.347 19.536l-.001.016a51.287 51.287 0 0 1 28.088 11.407 45.35 45.35 0 0 1 24.145-24.145 51.272 51.272 0 0 1-11.407-28.089l-.017.002zM340.013 119.435a72.17 72.17 0 0 0-9.892-.69 71.495 71.495 0 0 0-26.223 5.011 65.287 65.287 0 0 0-3.803-3.804 71.414 71.414 0 0 0 4.305-36.139 51.356 51.356 0 0 0-19.542 14.349l-.016-.001a51.287 51.287 0 0 1-11.407 28.088 45.35 45.35 0 0 1 24.145 24.145 51.272 51.272 0 0 1 28.089-11.407l-.001-.016a51.383 51.383 0 0 0 14.345-19.536zM214.421 185.261a51.272 51.272 0 0 1-28.089 11.407l.001.016a51.367 51.367 0 0 0-14.347 19.536c3.254.45 6.555.69 9.892.691h.002c9.019 0 17.919-1.735 26.221-5.01a65.6 65.6 0 0 0 3.803 3.804 71.414 71.414 0 0 0-4.305 36.139 51.356 51.356 0 0 0 19.542-14.349l.016.001a51.287 51.287 0 0 1 11.407-28.088 45.366 45.366 0 0 1-24.143-24.147zM325.666 196.684l.001-.016a51.287 51.287 0 0 1-28.088-11.407 45.35 45.35 0 0 1-24.145 24.145 51.272 51.272 0 0 1 11.407 28.089l.016-.001a51.354 51.354 0 0 0 19.542 14.349 71.427 71.427 0 0 0-4.305-36.139 65.287 65.287 0 0 0 3.803-3.804 71.535 71.535 0 0 0 26.222 5.011h.003c3.336 0 6.637-.241 9.89-.69a51.35 51.35 0 0 0-14.346-19.537z"/><path style="fill:#fbc02d" d="M196.692 140.97a64.72 64.72 0 0 0-5.819 26.857 64.717 64.717 0 0 0 5.819 26.857 51.28 51.28 0 0 0 17.729-9.424c-2.258-5.365-3.509-11.256-3.509-17.433s1.251-12.068 3.509-17.433a51.271 51.271 0 0 0-17.729-9.424zM256 102.701a64.717 64.717 0 0 0-26.857 5.819 51.28 51.28 0 0 0 9.424 17.729A44.84 44.84 0 0 1 256 122.74a44.84 44.84 0 0 1 17.433 3.509 51.237 51.237 0 0 0 9.424-17.729A64.717 64.717 0 0 0 256 102.701zM301.088 167.828a44.84 44.84 0 0 1-3.509 17.433 51.237 51.237 0 0 0 17.729 9.424 64.72 64.72 0 0 0 5.819-26.857 64.717 64.717 0 0 0-5.819-26.857 51.28 51.28 0 0 0-17.729 9.424 44.84 44.84 0 0 1 3.509 17.433zM256 232.955a64.717 64.717 0 0 0 26.857-5.819 51.28 51.28 0 0 0-9.424-17.729A44.843 44.843 0 0 1 256 212.916a44.84 44.84 0 0 1-17.433-3.509 51.237 51.237 0 0 0-9.424 17.729A64.717 64.717 0 0 0 256 232.955z"/><path style="fill:#ed593b" d="M256 7.515c-88.538 0-160.313 71.775-160.313 160.313S167.462 328.141 256 328.141s160.313-71.775 160.313-160.313S344.538 7.515 256 7.515zm0 290.567c-71.823 0-130.254-58.432-130.254-130.254S184.177 37.573 256 37.573s130.254 58.432 130.254 130.254S327.823 298.082 256 298.082z"/><path style="fill:#e23423" d="M256 308.102c-85.172 0-154.818-66.424-159.992-150.294a162.986 162.986 0 0 0-.321 10.02c0 88.538 71.775 160.313 160.313 160.313s160.313-71.775 160.313-160.313c0-3.367-.116-6.705-.321-10.02-5.174 83.87-74.82 150.294-159.992 150.294z"/><path d="M256 30.059c-75.965 0-137.769 61.803-137.769 137.769S180.035 305.597 256 305.597s137.769-61.803 137.769-137.769S331.965 30.059 256 30.059zm94.864 78.224 2.283-15.38c13.017 16.839 21.767 37.136 24.597 59.261l-12.563-9.313a58.977 58.977 0 0 0-23.615-10.49 58.853 58.853 0 0 0 9.298-24.078zm-44.354 44.888c15.185-9.725 34.899-9.237 49.721 1.752l17.405 12.904-17.405 12.904c-14.822 10.988-34.535 11.477-49.721 1.752a52.398 52.398 0 0 0 2.093-14.657c0-5.085-.741-9.999-2.093-14.655zm29.487-47.094a43.82 43.82 0 0 1-13.476 25.64 58.645 58.645 0 0 0-22.298 7.681 53.003 53.003 0 0 0-15.793-15.793 58.656 58.656 0 0 0 7.681-22.298 43.82 43.82 0 0 1 25.642-13.477l21.426-3.181-3.182 21.428zM233.84 171.945l-13.472 7.778a37.408 37.408 0 0 1 0-23.79l13.472 7.778c-.247 1.336-.384 2.711-.384 4.117s.136 2.781.384 4.117zm7.525 13.009a22.555 22.555 0 0 0 7.12 4.125v15.565c-8.118-1.654-15.286-5.939-20.588-11.915l13.468-7.775zm0-34.253-13.467-7.775c5.302-5.977 12.47-10.26 20.588-11.915v15.565a22.549 22.549 0 0 0-7.121 4.125zM256 160.313c4.144 0 7.515 3.371 7.515 7.515s-3.371 7.515-7.515 7.515-7.515-3.371-7.515-7.515 3.371-7.515 7.515-7.515zm7.515 28.766a22.555 22.555 0 0 0 7.12-4.125l13.467 7.775c-5.302 5.977-12.47 10.26-20.588 11.915v-15.565h.001zm0-42.503v-15.565c8.118 1.654 15.286 5.939 20.588 11.915l-13.467 7.775a22.582 22.582 0 0 0-7.121-4.125zm14.645 25.369c.247-1.336.384-2.711.384-4.117s-.136-2.781-.384-4.117l13.472-7.778a37.408 37.408 0 0 1 0 23.79l-13.472-7.778zm52.764-101.264-15.379 2.283a58.864 58.864 0 0 0-24.078 9.297 58.948 58.948 0 0 0-10.492-23.615l-9.313-12.563c22.126 2.831 42.423 11.581 59.262 24.598zM256 50.191l12.904 17.406c10.989 14.822 11.478 34.535 1.752 49.721a52.398 52.398 0 0 0-14.657-2.093c-5.087 0-10.001.74-14.657 2.093-9.726-15.186-9.237-34.899 1.752-49.721L256 50.191zm-15.664-4.108-9.313 12.563a58.96 58.96 0 0 0-10.491 23.615 58.85 58.85 0 0 0-24.077-9.297l-15.38-2.283c16.84-13.017 37.137-21.767 59.261-24.598zm-46.088 41.748a43.82 43.82 0 0 1 25.641 13.477 58.645 58.645 0 0 0 7.681 22.298 53.003 53.003 0 0 0-15.793 15.793 58.637 58.637 0 0 0-22.298-7.68 43.816 43.816 0 0 1-13.476-25.641l-3.181-21.427 21.426 3.18zm11.242 94.653c-15.186 9.725-34.901 9.237-49.721-1.752l-17.406-12.904 17.405-12.904c14.822-10.988 34.535-11.477 49.721-1.752a52.398 52.398 0 0 0-2.093 14.657 52.5 52.5 0 0 0 2.094 14.655zm-46.638-89.581 2.283 15.379a58.864 58.864 0 0 0 9.297 24.078 58.97 58.97 0 0 0-23.615 10.489l-12.563 9.313c2.832-22.123 11.582-42.42 24.598-59.259zm2.284 134.469-2.283 15.38c-13.017-16.839-21.767-37.136-24.597-59.261l12.563 9.313c7.209 5.344 15.278 8.838 23.608 10.502a58.84 58.84 0 0 0-9.291 24.066zm14.867 2.206a43.817 43.817 0 0 1 13.462-25.626 58.672 58.672 0 0 0 22.309-7.7 52.995 52.995 0 0 0 15.796 15.798 58.656 58.656 0 0 0-7.681 22.298 43.82 43.82 0 0 1-25.642 13.477l-21.426 3.181 3.182-21.428zm5.073 35.397 15.379-2.283a58.85 58.85 0 0 0 24.078-9.297 58.96 58.96 0 0 0 10.491 23.615l9.313 12.563c-22.125-2.831-42.422-11.581-59.261-24.598zM256 285.465l-12.904-17.406c-10.989-14.822-11.478-34.535-1.752-49.721a52.398 52.398 0 0 0 14.657 2.093c5.087 0 10.001-.74 14.657-2.093 9.726 15.186 9.237 34.899-1.752 49.721L256 285.465zm15.664 4.108 9.313-12.563a58.975 58.975 0 0 0 10.492-23.615 58.85 58.85 0 0 0 24.077 9.297l15.38 2.283c-16.841 13.017-37.138 21.767-59.262 24.598zm46.088-41.748a43.82 43.82 0 0 1-25.641-13.477 58.645 58.645 0 0 0-7.681-22.298 53.006 53.006 0 0 0 15.796-15.798 58.671 58.671 0 0 0 22.31 7.7 43.817 43.817 0 0 1 13.462 25.627l3.181 21.427-21.427-3.181zm35.396-5.073-2.283-15.379a58.865 58.865 0 0 0-9.29-24.067c8.33-1.663 16.4-5.158 23.608-10.502l12.563-9.313c-2.832 22.126-11.582 42.422-24.598 59.261z"/><path d="M394.771 371.62v-17.929H409.8v-15.029h-15.029v-76.553c18.328-26.891 29.057-59.355 29.057-94.281C423.828 75.287 348.54 0 256 0S88.172 75.287 88.172 167.828c0 34.925 10.729 67.391 29.057 94.281v76.553H102.2v15.029h15.029v17.929c-8.466 4.9-25.049 17.911-25.049 44.693 0 32.237 25.138 72.451 26.208 74.147l6.355 10.074 6.355-10.074c1.07-1.696 26.208-41.91 26.208-74.147 0-26.782-16.583-39.794-25.049-44.693v-17.929h15.029v-15.029h-15.029V281.08c29.124 31.795 70.306 52.364 116.227 54.398v31.238h-15.029v15.029h15.029v15.535c-28.228 3.695-50.098 27.887-50.098 57.107C198.387 486.156 224.232 512 256 512s57.613-25.844 57.613-57.613c0-29.219-21.87-53.41-50.098-57.107v-15.535h15.029v-15.029h-15.029v-31.237c45.921-2.034 87.103-22.603 116.227-54.398v57.58h-15.029v15.029h15.029v17.929c-8.466 4.9-25.049 17.911-25.049 44.693 0 32.237 25.138 72.451 26.208 74.147l6.355 10.074 6.355-10.074c1.07-1.696 26.208-41.91 26.208-74.147.001-26.781-16.582-39.793-25.048-44.692zm-252.493 44.693c0 18.536-10.46 41.497-17.538 54.91-7.078-13.4-17.53-36.336-17.53-54.91 0-19.372 12.005-28.52 17.532-31.704 5.509 3.181 17.536 12.343 17.536 31.704zm156.305 38.074c0 23.481-19.102 42.583-42.583 42.583s-42.583-19.102-42.583-42.583c0-23.481 19.102-42.583 42.583-42.583s42.583 19.103 42.583 42.583zM256 320.626c-84.254 0-152.798-68.545-152.798-152.798S171.746 15.029 256 15.029s152.798 68.545 152.798 152.798S340.254 320.626 256 320.626zm131.252 150.597c-7.078-13.4-17.53-36.336-17.53-54.91 0-19.372 12.005-28.52 17.532-31.704 5.51 3.181 17.536 12.343 17.536 31.704.001 18.536-10.46 41.497-17.538 54.91z"/><path style="fill:#fff" d="M117.229 411.303h15.029v15.029h-15.029zM379.742 411.303h15.029v15.029h-15.029zM256 481.941c-15.193 0-27.554-12.36-27.554-27.554h15.029c0 6.906 5.618 12.524 12.524 12.524v15.03zM283.554 454.387h-15.029c0-6.906-5.618-12.524-12.524-12.524v-15.029c15.192 0 27.553 12.36 27.553 27.553zM248.485 232.955h15.029v25.049h-15.029zM248.485 77.652h15.029v25.049h-15.029z"/><path transform="rotate(-134.999 313.745 225.577)" style="fill:#fff" d="M305.242 218.061h17.004v15.029h-17.004z"/><path transform="rotate(-134.999 198.24 110.072)" style="fill:#fff" d="M189.737 102.556h17.004v15.029h-17.004z"/><path style="fill:#fff" d="M321.127 160.313h25.049v15.029h-25.049zM165.824 160.313h25.049v15.029h-25.049z"/><path transform="rotate(-134.999 313.747 110.076)" style="fill:#fff" d="M306.231 101.573h15.029v17.004h-15.029z"/><path transform="rotate(-134.999 198.241 225.575)" style="fill:#fff" d="M190.726 217.072h15.029v17.004h-15.029z"/></svg>