<svg height="512" width="512" xmlns="http://www.w3.org/2000/svg"><path d="M371.28 447.12 368 496H144l-3.28-48.88c-1.76-7.61-2.61-15.31-2.61-22.94 0-26.77 10.53-52.82 29.89-72.18a24.813 24.813 0 0 1-13.47-25.71l1.72-14.29.97-8 .99-8.2c.33-3.25.81-5.71 1.46-7.8.53-1.69 1.16-3.13 1.89-4.55 1.64-3.15 3.8-6.16 6.44-11.45h176c3.83 7.66 6.62 10.53 8.32 16 .66 2.08 1.14 4.55 1.47 7.8l3.68 30.49A24.822 24.822 0 0 1 344 352c24.88 24.88 35.19 60.83 27.28 95.12z" fill="#fad6c6"/><path d="M186.023 304a5.704 5.704 0 0 1 5.686 6.175c-.648 7.846-2.365 18.036-5.009 22.985-3.44 6.42-8.43 12-14.67 16.15L168 352a24.813 24.813 0 0 1-13.47-25.71l1.72-14.29.97-8z" fill="#eaaa94"/><path d="M192 80.001a8.001 8.001 0 0 1-7.155-4.423l-5.267-10.534C174.32 54.53 163.754 48 152 48V32c9.722 0 18.91 2.941 26.551 8.2A10.85 10.85 0 0 0 168 32V16a26.803 26.803 0 0 1 26.521 22.467l5.37 32.218a8 8 0 0 1-7.89 9.316z" fill="#fcc200"/><path d="M363.645 379.62C358.747 369.523 352.164 360.164 344 352s-24 24-88 24-88-24-88-24a101.955 101.955 0 0 0-19.645 27.62C159.498 387.993 192.738 408 256 408s96.502-20.007 107.645-28.38z" fill="#fbc6ea"/><path d="M363.645 379.62C352.502 387.993 319.262 408 256 408s-96.502-20.007-107.645-28.38c-10.03 20.677-12.952 44.46-7.635 67.5L144 496h224l3.28-48.88c5.317-23.04 2.395-46.823-7.635-67.5z" fill="#b71e71"/><path d="m284.438 446.656-8.875-13.312L256 446.384l-19.563-13.04-8.875 13.312L248 460.281V496h16v-35.719z" fill="#5b0b3c"/><g fill="#fad6c6"><path d="M24 240c0 .07 0 .14.01.22-.01.38-.01.73-.01 1.04z"/><path d="M488 172.35V183c0 11.98-4.15 23.17-11.23 32.02A51.137 51.137 0 0 1 448 233l-25.84 86.26a25.475 25.475 0 0 1-9.37 12.14 25.563 25.563 0 0 1-36.3-7.41L344 272H168c-8-8-16-14.21-16-31.74V224l-48 16 8 64 .84-1.69c2.2-4.39 5.53-7.96 9.55-10.44 4.01-2.49 8.71-3.87 13.61-3.87v24h32c3.638.752 5.645 4.747 3.983 8.07C162.468 339.093 138.403 352 120 352h-5.99c-7.75 0-15.07-2.5-21.05-6.83a35.81 35.81 0 0 1-13-17.9L32 256c-2.99-3.01-7.84-11.41-7.99-15.78.04-6.76.85-24.65 15.99-32.22l88-48c8-8 32-24 56-8h32v-24l-24-8-8.84 4.42a33.9 33.9 0 0 1-7.37 2.68c-2.55.6-5.16.9-7.79.9-8.84 0-16.84-3.58-22.63-9.37S136 104.84 136 96s3.58-16.84 9.37-22.63C151.16 67.58 159.16 64 168 64c5.26 0 10.45 1.22 15.16 3.58L192 72v-8c0-22.09 34.91-40 57-40h22c11.04 0 23.3 4.48 32.78 11.72C313.27 42.96 320 52.96 320 64v32l8 8-16 32-16 16h32c32-16 56 8 56 32l8.7 31 7.3 26 .74-1.85L416 201v-21c0-3.32 1.34-6.32 3.51-8.49S424.68 168 428 168s6.32 1.34 8.49 3.51S440 176.68 440 180s1.34 6.32 3.51 8.49a11.962 11.962 0 0 0 8.465 3.51c6.616.013 12.025-5.734 12.025-12.35V172c0-3.32 1.34-6.32 3.51-8.49a11.96 11.96 0 0 1 8.465-3.51c6.616-.013 12.025 5.734 12.025 12.35z"/></g><path d="M248 328h16v16h-16z" fill="#eaaa94"/><path d="M207.519 106.346c-8.029-5.353-9.154-16.711-2.33-23.534 5.97-5.971 15.652-5.971 21.623 0L232 88c4.248-21.24 58.15-33.95 78.699-27.1L320 64c0-22.091-26.909-40-49-40h-22c-22.091 0-57 17.909-57 40v8l-8.845-4.422A33.889 33.889 0 0 0 168 64c-17.673 0-32 14.327-32 32 0 17.673 14.327 32 32 32 5.261 0 10.45-1.225 15.155-3.578L192 120l24 8v-16z" fill="#fcc200"/><path d="M24 241.264c0-.352 0-.757.004-1.207 0-.018-.004-.039-.004-.057z" fill="#fad6c6"/><g fill="#eaaa94"><path d="M106 256H80v-16h24zM400.74 239.15l-9.18 24.48-15.12-5.26L392.7 215l7.3 26zM296 168h-1.373c-16.729 0-32.456-6.515-44.284-18.344l11.314-11.312c8.806 8.806 20.515 13.656 32.97 13.656H296zM268.422 168.845A36.994 36.994 0 0 0 256 178.905a36.994 36.994 0 0 0-12.422-10.06l-7.156 14.31c7.141 3.572 11.578 10.75 11.578 18.734V208h16v-6.111c0-7.985 4.437-15.162 11.578-18.734z"/></g><path d="M256 272h-88a40.93 40.93 0 0 1-17.004-43.983L152 224l32-32v-40h32v16c0 22.091 17.909 40 40 40s40-17.909 40-40v-16h32v40l32 32 1.004 4.017A40.93 40.93 0 0 1 344 272z" fill="#b71e71"/><path d="M352.32 288H159.67c.53-1.69 1.16-3.13 1.89-4.55 1.64-3.15 3.8-6.16 6.44-11.45h176c3.83 7.66 6.62 10.53 8.32 16z" fill="#fbc6ea"/><path d="M487.49 121c-.7-4.81-2.11-9.38-4.12-13.61-6.85-14.37-20.62-24.8-37-26.97A47.92 47.92 0 0 0 440 80c-2.15 0-4.28.14-6.36.42a47.16 47.16 0 0 0-9.89 2.4C422.42 90.31 415.88 96 408 96c-1.18 0-2.33-.13-3.44-.37-.52.57-1.04 1.16-1.53 1.76 2.25 2.92 3.84 6.38 4.55 10.15.28 1.44.42 2.94.42 4.46 0 5.9-2.13 11.3-5.66 15.48-2.63 3.1-6.03 5.53-9.9 6.99a47.834 47.834 0 0 0 13.63 27.49c3.8 3.79 8.23 6.95 13.12 9.3 6.29 3.04 13.35 4.74 20.81 4.74s14.53-1.7 20.82-4.74a47.93 47.93 0 0 0 13.11-9.31C482.62 153.26 488 141.26 488 128c0-2.38-.17-4.72-.51-7zM440 112c8.84 0 16 7.16 16 16s-7.16 16-16 16-16-7.16-16-16 7.16-16 16-16z" fill="#f4cb6e"/><path d="M488.17 113.16c-.83-2.57-2.6-4.58-4.8-5.77a10.129 10.129 0 0 0-7.97-.73l-1.35.44c-5.47 1.78-11.41.66-16.05-2.76-.11-.09-.23-.17-.35-.25-4.66-3.34-7.52-8.64-7.52-14.37V88.3c0-3.18-1.47-6.02-3.76-7.88a10.066 10.066 0 0 0-6.37-2.25c-2.41 0-4.63.84-6.36 2.25-.28.23-.55.47-.8.72a10.054 10.054 0 0 0-2.97 7.16v1.42c0 5.73-2.86 11.03-7.52 14.37-.12.08-.24.16-.35.25-4.18 3.08-9.42 4.3-14.42 3.2.28 1.44.42 2.94.42 4.46 0 5.9-2.13 11.3-5.66 15.48 4.14 2.16 7.25 5.92 8.67 10.45.05.14.09.27.14.41 1.8 5.48 1.06 11.49-2.33 16.16l-.83 1.14a9.97 9.97 0 0 0-1.92 6.32c.11 3 1.54 5.92 4.16 7.82 2.69 1.95 6.01 2.39 8.96 1.48 2.02-.62 3.86-1.88 5.19-3.72l.83-1.14c3.38-4.65 8.83-7.24 14.58-7.2h.42c5.75-.04 11.2 2.55 14.58 7.2l.83 1.14c1.34 1.84 3.18 3.1 5.2 3.72 2.94.91 6.26.47 8.95-1.48a10.07 10.07 0 0 0 4.16-7.83c.09-2.19-.54-4.41-1.92-6.31l-.83-1.14c-3.39-4.67-4.13-10.68-2.33-16.16.05-.14.09-.27.14-.41 1.71-5.46 5.88-9.8 11.33-11.57l1.34-.43c2.62-.85 4.65-2.67 5.83-4.93 1.23-2.33 1.55-5.14.68-7.84zM440 144c-8.84 0-16-7.16-16-16s7.16-16 16-16 16 7.16 16 16-7.16 16-16 16z" fill="#f48da1"/><path d="M476 128a4 4 0 0 1-4-4v-8a4 4 0 0 1 8 0v8a4 4 0 0 1-4 4z" fill="#feea01"/><path d="M428 104a4 4 0 0 1-2.829-6.828l8-8a4 4 0 1 1 5.658 5.656l-8 8A3.987 3.987 0 0 1 428 104zM468 152h-8a4 4 0 0 1 0-8h8a4 4 0 0 1 0 8z" fill="#fff"/><path d="M460 112h-8a4 4 0 0 1 0-8h8a4 4 0 0 1 0 8z" fill="#b71e71"/><path d="M404 144a4 4 0 0 1-2.829-6.828l8-8a4 4 0 1 1 5.658 5.656l-8 8A3.987 3.987 0 0 1 404 144z" fill="#40c6f3"/><path d="M428 168a3.987 3.987 0 0 1-2.829-1.172l-8-8a4 4 0 1 1 5.658-5.656l8 8A4 4 0 0 1 428 168z" fill="#fff"/><path d="M460 168h-8a4 4 0 0 1 0-8h8a4 4 0 0 1 0 8z" fill="#95d202"/><path d="M484.511 153.928C491.711 144.506 496 132.747 496 120c0-30.879-25.122-56-56-56-6.526 0-12.908 1.108-18.966 3.296a8 8 0 0 0-5.161 6.126A7.976 7.976 0 0 1 408 80c-.58 0-1.168-.063-1.748-.19a8.015 8.015 0 0 0-7.604 2.43 50.88 50.88 0 0 0-1.818 2.095 8 8 0 0 0-.137 9.938A15.8 15.8 0 0 1 400 104c0 6.626-4.17 12.647-10.377 14.982a8 8 0 0 0-5.112 8.553c2.355 17.528 12.823 32.312 27.287 40.786C409.419 171.611 408 175.64 408 180v19.459l-6.67 16.676-9.346-33.291c-.404-15.17-8.728-29.886-21.436-37.74-12.968-8.015-28.661-8.387-44.373-1.104h-10.861l2.343-2.343a8.011 8.011 0 0 0 1.498-2.079l16-32a8 8 0 0 0-1.498-9.235L328 92.687V64c0-27.032-30.64-48-57-48h-22c-12.645 0-28.374 4.96-41.049 12.947-5.118 3.225-9.472 6.749-13.01 10.487l-.538-1.628A26.8 26.8 0 0 0 168 16v16a10.85 10.85 0 0 1 10.551 8.2C170.91 34.94 161.722 32 152 32v16c8.027 0 15.497 3.05 21.103 8.329A41.585 41.585 0 0 0 168 56c-22.056 0-40 17.944-40 40s17.944 40 40 40c6.47 0 12.948-1.53 18.733-4.423l5.88-2.94L208 133.767V144h-21.701c-25.735-15.462-51.845-1.163-63.09 9.501l-86.922 47.412c-13.048 6.589-19.861 19.545-20.267 38.526A7.88 7.88 0 0 0 16 240v1.264c0 1.107.225 2.16.631 3.12 1.64 6.267 6.113 13.305 9.089 16.613l47.005 69.857A43.694 43.694 0 0 0 114.005 360H120c10.629 0 22.63-3.562 33.355-9.857a32.728 32.728 0 0 0 2.7 3.029c-22.246 26.264-30.91 61.124-23.275 95.111l3.238 48.252 15.964-1.07-3.28-48.88a7.972 7.972 0 0 0-.186-1.263c-4.497-19.495-2.699-39.347 4.672-57.112C165.944 398.555 196.306 416 256 416c59.695 0 90.057-17.446 102.812-27.79 7.373 17.766 9.172 37.618 4.673 57.111a7.934 7.934 0 0 0-.187 1.263l-3.28 48.88 15.964 1.072 3.238-48.253c7.636-33.982-1.027-68.842-23.272-95.106a32.78 32.78 0 0 0 9.455-27.925l-.585-4.848 4.89 7.823C375.88 338.104 386.52 344 398.167 344c14.005 0 26.663-8.831 31.498-21.976.056-.153.108-.308.155-.465l24.562-81.988C479.113 231.923 496 209.3 496 183v-11c0-7.982-4.711-14.866-11.489-18.072zM416 104c0-3.076-.428-6.081-1.264-8.956a23.964 23.964 0 0 0 15.436-13.833A40.068 40.068 0 0 1 440 80c22.056 0 40 17.944 40 40s-17.944 40-40 40c-18.082 0-33.774-12.225-38.522-29.205C410.37 124.96 416 114.889 416 104zm40 69.659V180c0 2.206-1.794 4-4 4s-4-1.794-4-4c0-1.554-.196-3.06-.533-4.513A55.555 55.555 0 0 0 456 173.66zM305.425 131.26l-12.693 12.693c-11.743-.467-22.717-5.252-31.075-13.61l-11.314 11.312c10.252 10.253 23.434 16.504 37.657 17.991V168c0 14.808-10.113 27.295-23.794 30.929.95-6.768 5.126-12.65 11.372-15.774l-7.156-14.31A36.994 36.994 0 0 0 256 178.905a36.994 36.994 0 0 0-12.422-10.06l-7.156 14.31c6.246 3.124 10.422 9.006 11.372 15.774C234.113 195.295 224 182.809 224 168v-56a8 8 0 0 0-3.563-6.656l-8.48-5.655c-2.499-1.665-3.084-4.065-3.211-5.347s-.023-3.75 2.1-5.873c1.376-1.377 3.207-2.135 5.154-2.135s3.778.758 5.155 2.135l5.188 5.188a8.002 8.002 0 0 0 13.501-4.088c.675-3.373 4.584-7.35 10.723-10.914C267.878 68.61 296.71 64.668 308.17 68.49L312 69.766V96a8 8 0 0 0 2.343 5.657l3.923 3.923zM194.53 112.41a8.007 8.007 0 0 0-6.108.434l-8.845 4.422A26.01 26.01 0 0 1 168 120c-13.233 0-24-10.767-24-24s10.767-24 24-24c3.999 0 8.002.945 11.578 2.733l8.844 4.422A7.999 7.999 0 0 0 200 72v-8c0-15.45 28.76-32 49-32h22c13.633 0 30.022 8.575 37.255 20.055-17.913-3.334-47.443 2.157-65.718 12.761-5.329 3.093-9.543 6.478-12.622 10.13-9.113-6.8-22.11-6.064-30.384 2.21-4.953 4.952-7.398 11.792-6.708 18.763s4.43 13.197 10.258 17.083l4.919 3.28v.618zM192 192v-32h16v8c0 26.468 21.533 48 48 48s48-21.532 48-48v-8h16v32a8 8 0 0 0 2.343 5.657l30.433 30.433.467 1.867c3.18 12.718-1.547 26.108-11.81 34.043H170.567c-10.263-7.935-14.99-21.325-11.81-34.043l.467-1.867 30.433-30.433A8 8 0 0 0 192 192zm-48 112v-16a8 8 0 0 0-8-8c-6.642 0-12.938 1.896-18.274 5.31l-4.975-39.794 29.077-9.693c-.611 14.41 5.203 28.492 15.906 38.267-.26.44-.517.87-.772 1.298-3.051 5.11-5.688 9.523-6.704 19.53L149.16 304zm-29.995 40a27.739 27.739 0 0 1-26.442-19.205 7.972 7.972 0 0 0-.97-1.991l-47.956-71.27a7.937 7.937 0 0 0-.967-1.178c-1.992-2.002-5.378-8.236-5.665-10.404.061-5.977.872-19.446 11.573-24.797.085-.042.17-.087.253-.132l88-48a8.017 8.017 0 0 0 1.826-1.366c.874-.874 20.623-20.201 42.343-9.075v32.105l-28.321 28.32L102.7 232H80v16h16.938l7.124 56.992a7.999 7.999 0 0 0 6.587 6.893 7.992 7.992 0 0 0 8.506-4.307l.845-1.69a17.826 17.826 0 0 1 8-8.018V312a8 8 0 0 0 8 8h26.842c-9.089 14.193-28.13 24-42.842 24zm69.386-35.063A8 8 0 0 0 176 304h-10.724l.876-7.24.018-.162c.654-6.518 1.868-8.551 4.529-13.006a166.1 166.1 0 0 0 2.1-3.592H339.2a166.172 166.172 0 0 0 2.1 3.592c2.662 4.457 3.877 6.49 4.533 13.009l.018.156 3.677 30.492c.007.058.014.115.023.173a16.799 16.799 0 0 1-9.129 17.423 7.978 7.978 0 0 0-2.02 1.457l-.008-.009C338.169 346.51 315.202 368 256 368s-82.169-21.49-82.394-21.707l-.009.009a7.98 7.98 0 0 0-2.014-1.455 16.828 16.828 0 0 1-5.348-4.238c6.894-6.407 12.416-14.173 15.424-22.955a8 8 0 0 0 1.732-8.717zM256 400c-60.988 0-87.568-19.347-95.2-26.365a94.678 94.678 0 0 1 8.098-10.845C180.3 370.47 207.3 384 256 384s75.699-13.53 87.102-21.21a94.666 94.666 0 0 1 8.098 10.845C343.568 380.652 316.99 400 256 400zm224-217c0 20.372-13.88 37.724-33.756 42.195a8 8 0 0 0-5.908 5.51l-25.766 86.004c-2.586 6.763-9.15 11.291-16.403 11.291a17.46 17.46 0 0 1-14.891-8.254l-28.708-45.933c12.902-11.984 18.56-30.285 14.198-47.737l-1.005-4.016a8.001 8.001 0 0 0-2.104-3.717L336 188.687v-31.475c11.992-4.555 20.727-1.84 26.136 1.502C370.558 163.919 376 173.844 376 184c0 .73.1 1.458.298 2.162l15.32 54.582-7.174 20.628 15.112 5.256 7.942-22.834 15.93-39.823A7.997 7.997 0 0 0 424 201v-21c0-2.206 1.794-4 4-4s4 1.794 4 4c0 11.028 8.972 20 20 20s20-8.972 20-20v-8c0-2.206 1.794-4 4-4s4 1.794 4 4z"/><path d="M248 328h16v16h-16zM275.563 433.344 256 446.384l-19.563-13.04-8.875 13.312L248 460.281V496h16v-35.719l20.438-13.625zM440 144c13.234 0 24-10.767 24-24s-10.766-24-24-24-24 10.767-24 24 10.766 24 24 24zm0-32c4.411 0 8 3.589 8 8s-3.589 8-8 8-8-3.589-8-8 3.589-8 8-8z"/></svg>