<svg xmlns="http://www.w3.org/2000/svg" viewBox="0 0 511.999 511.999" style="enable-background:new 0 0 511.999 511.999" xml:space="preserve"><path style="fill:#ff9940" d="m265.339 188.818-130.39 248.161 75.71 4.206s4.206-46.267 50.473-63.092v58.886s46.267 29.443 84.122 63.092c0 0-84.122 21.031-126.183-33.649 0 0-58.886 29.443-113.565 16.824-94.618-21.835-121.977-121.977-75.71-210.306s172.451-117.771 235.543-84.122z"/><path style="fill:#f5760f" d="M223.278 445.621s-58.886 29.443-113.565 16.824C37.012 445.669 4.027 382.661 13.63 314.304c-20.061 75.98 11.844 150.473 91.876 168.942 54.68 12.618 113.565-16.824 113.565-16.824 42.061 54.68 126.183 33.649 126.183 33.649-6.677-5.935-13.615-11.738-20.515-17.272-28.17 1.982-73.867-1.305-101.461-37.178z"/><path style="fill:#ffd042" d="M255.113 184.135c-42.363-16.632-105.599-9.701-156.928 19.826a84.283 84.283 0 0 0-2.067 18.507c0 46.46 37.663 84.122 84.122 84.122a84.071 84.071 0 0 0 25.248-3.86l55.171-105.001 4.681-8.909c-3.246-1.733-6.667-3.287-10.227-4.685z"/><circle style="fill:#928d86" cx="164.395" cy="218.255" r="12.618"/><circle style="fill:#ffd042" cx="446.205" cy="163.576" r="46.267"/><path style="fill:#ffc412" d="M419.988 163.581c0-22.108 15.511-40.583 36.241-45.165a46.397 46.397 0 0 0-10.026-1.102c-25.553 0-46.267 20.714-46.267 46.267s20.714 46.267 46.267 46.267c3.445 0 6.797-.388 10.026-1.102-20.731-4.582-36.241-23.056-36.241-45.165z"/><path style="fill:#64dde3" d="M291.551 56.012c-5.98 17.595-53.515 52.89-53.515 52.89s-16.182-56.951-10.202-74.546c5.98-17.595 25.093-27.011 42.688-21.031s27.009 25.092 21.029 42.687z"/><path style="fill:#37c9d4" d="M244.657 42.767c5.44-16.005 21.747-25.239 37.893-22.276a33.511 33.511 0 0 0-12.029-7.167c-17.595-5.98-36.707 3.435-42.688 21.031-5.98 17.595 10.202 74.547 10.202 74.547s5.138-3.815 12.246-9.561c-4.262-18.253-9.429-45.378-5.624-56.574z"/><path style="fill:#64dde3" d="M392.777 434.88c-17.678-5.732-53.64-52.764-53.64-52.764s56.717-16.984 74.395-11.253c17.678 5.732 27.363 24.709 21.631 42.386-5.731 17.677-24.708 27.362-42.386 21.631z"/><path style="fill:#37c9d4" d="M435.163 392.667c-5.731 17.678-24.709 27.362-42.386 21.631-10.634-3.448-27.882-21.839-39.94-35.95-8.158 2.106-13.699 3.766-13.699 3.766s35.961 47.033 53.64 52.765c17.678 5.731 36.655-3.954 42.386-21.631a33.474 33.474 0 0 0 .024-20.66c-.01.027-.017.053-.025.079z"/><path style="fill:#64dde3" d="M82.623 79.029c12.819 13.454 22.063 71.934 22.063 71.934s-57.966-12.056-70.785-25.51C21.082 111.998 21.596 90.7 35.051 77.88s34.752-12.305 47.572 1.149z"/><path style="fill:#37c9d4" d="M50.569 119.496c-12.819-13.454-12.305-34.753 1.149-47.573a33.928 33.928 0 0 1 3.94-3.226 33.502 33.502 0 0 0-20.607 9.184C21.597 90.7 21.083 112 33.902 125.454s70.785 25.51 70.785 25.51-.647-4.088-1.834-10.348c-18.134-4.699-44.196-12.631-52.284-21.12z"/><circle style="fill:#89ebf0" cx="270.673" cy="43.707" r="10.515"/><circle style="fill:#89ebf0" cx="409.475" cy="397.015" r="10.515"/><circle style="fill:#89ebf0" cx="64.573" cy="94.175" r="10.515"/><path style="fill:#ff9940" d="m400.23 158.406 81.803 34.443a46.065 46.065 0 0 0 10.436-29.267c0-.192-.013-.381-.015-.573l-78.163-32.911c-7.665 7.306-12.826 17.211-14.061 28.308z"/><path style="fill:#f5760f" d="m428.924 136.258-14.632-6.161c-7.665 7.307-12.826 17.211-14.061 28.307l19.88 8.37a46.291 46.291 0 0 1-.122-3.195 46.04 46.04 0 0 1 8.935-27.321z"/><path d="M143.887 218.261c0 11.306 9.199 20.505 20.505 20.505s20.505-9.199 20.505-20.505-9.199-20.505-20.505-20.505-20.505 9.199-20.505 20.505zm25.237 0a4.738 4.738 0 0 1-4.732 4.732 4.738 4.738 0 0 1-4.732-4.732 4.738 4.738 0 0 1 4.732-4.732 4.738 4.738 0 0 1 4.732 4.732z"/><path d="M506.957.601a7.883 7.883 0 0 0-10.201 4.508c-2.239 5.783-19.83 52.923-38.511 105.685a54.136 54.136 0 0 0-12.042-1.366c-29.86 0-54.154 24.293-54.154 54.154 0 21.937 13.119 40.856 31.917 49.358a638.3 638.3 0 0 0-2.166 7.344c-20.639 71.644-44.622 81.897-51.48 83.333-5.91 1.245-11.142-.817-15.538-6.109-8.598-10.349-12.964-33.357-2.232-59.42 17.084-41.491 43.57-116.094 28.999-149.552-3.523-8.088-9.14-13.628-16.698-16.462-22.237-8.34-47.24 9.036-74.308 51.643-13.492 21.236-24.044 43.234-29.142 54.476-32.578-14.098-77.179-14.564-121.396-.924-52.297 16.129-95.012 49.666-117.193 92.012-26.345 50.291-30.105 106.36-10.06 149.983 16.795 36.551 49.106 62.002 90.981 71.665 10.34 2.387 20.765 3.366 30.928 3.366 36.338-.002 69.241-12.541 82.19-18.175 18.698 21.211 46.42 33.45 80.614 35.502 3.613.217 7.123.311 10.504.311 22.057 0 38.413-4.016 39.2-4.212 6.025-1.507 7.979-9.411 3.326-13.546-32.177-28.602-69.714-53.794-81.475-61.487v-54.596c0-5.375-5.521-9.253-10.582-7.412-39.188 14.251-50.955 47.275-54.34 62.24l-56.46-3.136 93.743-178.414a7.886 7.886 0 0 0-3.313-10.65 7.884 7.884 0 0 0-10.649 3.313l-27.384 52.116a7.893 7.893 0 0 0-.731.149 76.5 76.5 0 0 1-19.064 2.402c-42.037 0-76.236-34.199-76.236-76.236 0-2.259.085-4.525.298-6.774.202-2.145.78-4.287.613-6.454 12.316-6.845 25.639-12.549 39.737-16.897 39.815-12.282 81.012-12.124 109.891.067l-13.987 26.622a7.886 7.886 0 0 0 13.962 7.337s31.223-65.683 49.336-94.192c21.88-34.438 41.574-50.532 55.456-45.331 3.504 1.313 5.975 3.853 7.777 7.991 8.815 20.243-2.073 71.551-29.124 137.249-11.505 27.941-9.621 58.285 4.686 75.505 7.576 9.118 19.128 13.936 30.904 11.467 24.848-5.202 47.365-38.729 63.404-94.404.665-2.308 1.4-4.792 2.182-7.391 2.314.304 4.669.476 7.064.476 29.86 0 54.154-24.293 54.154-54.154 0-20.136-11.055-37.728-27.407-47.058 18.685-52.791 36.284-99.957 38.515-105.722a7.885 7.885 0 0 0-4.508-10.2zM180.239 314.476c3.512 0 7.013-.209 10.485-.604l-62.756 119.439a7.884 7.884 0 0 0 6.544 11.542l75.71 4.206c4.204.227 7.877-2.927 8.289-7.134.15-1.532 3.738-34.411 34.736-51.616v46.67a7.89 7.89 0 0 0 3.652 6.653c.406.259 36.461 23.293 70.377 51.411-25.237 2.805-74.135 2.735-101.953-33.43a7.887 7.887 0 0 0-9.778-2.245c-.564.282-56.941 28.04-108.264 16.194-37.543-8.664-65.275-30.408-80.197-62.882-18.019-39.214-14.393-90.085 9.699-136.079 11.566-22.081 29.365-41.563 51.502-56.994a94.135 94.135 0 0 0-.054 2.86c0 50.734 41.274 92.009 92.008 92.009zm298.986-131.367-70.08-29.507a38.286 38.286 0 0 1 7.189-14.086l67.969 28.618a38.106 38.106 0 0 1-5.078 14.975zm-70.782-12.689 59.247 24.946a38.157 38.157 0 0 1-21.489 6.595c-18.827.001-34.521-13.631-37.758-31.541zm73.692-20.313-51.398-21.64a38.137 38.137 0 0 1 15.465-3.265c16.423-.002 30.465 10.37 35.933 24.905z"/><path d="M77.123 314.564c-4.397 5.761-12.663 6.87-18.423 2.475-5.761-4.397-6.872-12.663-2.475-18.424a7.887 7.887 0 0 0-1.486-11.054 7.884 7.884 0 0 0-11.054 1.485c-9.673 12.676-7.23 30.858 5.445 40.531a28.759 28.759 0 0 0 17.509 5.918c8.715 0 17.338-3.916 23.021-11.363a7.887 7.887 0 0 0-12.537-9.568zM108.018 367.432a28.777 28.777 0 0 0 17.509 5.917c8.716 0 17.338-3.915 23.021-11.363a7.887 7.887 0 0 0-12.539-9.569c-4.397 5.76-12.661 6.87-18.423 2.475-5.761-4.397-6.872-12.663-2.475-18.424a7.887 7.887 0 0 0-1.486-11.054 7.885 7.885 0 0 0-11.054 1.485c-9.67 12.677-7.229 30.859 5.447 40.533zM85.641 377.796a13.063 13.063 0 0 1-8.698 5.054 13.09 13.09 0 0 1-9.725-2.578c-5.761-4.397-6.872-12.661-2.474-18.424a7.887 7.887 0 0 0-1.486-11.054 7.884 7.884 0 0 0-11.054 1.485c-9.673 12.676-7.23 30.857 5.445 40.53a28.76 28.76 0 0 0 17.51 5.918c8.715 0 17.338-3.916 23.021-11.363a7.887 7.887 0 0 0-1.486-11.054 7.885 7.885 0 0 0-11.053 1.486zM235.497 116.369a7.946 7.946 0 0 0 7.239-1.135c8.268-6.139 49.837-37.72 56.281-56.683 7.371-21.685-4.273-45.323-25.958-52.692-21.685-7.375-45.323 4.273-52.693 25.96-6.445 18.962 7.268 69.335 10.083 79.239a7.886 7.886 0 0 0 5.048 5.311zm-.197-79.475c3.242-9.539 12.035-16.442 22.063-17.366 3.579-.33 7.216.107 10.619 1.264 13.45 4.572 20.673 19.234 16.102 32.683l-.001.001c-3.166 9.318-24.328 28.337-41.466 41.95-5.473-22.018-10.345-49.624-7.317-58.532zM415.964 363.359c-19.051-6.175-69.224 8.247-79.089 11.201-5.191 1.555-7.3 8.033-4.003 12.345 6.254 8.18 38.42 49.299 57.471 55.477h.001a41.37 41.37 0 0 0 12.779 2.028c17.52 0 33.852-11.186 39.542-28.73 7.064-21.785-4.916-45.256-26.701-52.321zm11.697 47.457c-4.382 13.514-18.937 20.942-32.452 16.562h.001c-9.362-3.036-28.677-23.926-42.531-40.871 21.937-5.783 49.471-11.049 58.422-8.142 13.511 4.38 20.941 18.939 16.56 32.451zM103.079 158.684c5.311 1.103 10.242-3.595 9.396-8.953-1.608-10.171-10.327-61.644-24.143-76.143-15.797-16.579-42.141-17.213-58.722-1.417-16.581 15.798-17.217 42.141-1.417 58.723 13.815 14.499 64.805 25.694 74.886 27.79zM40.49 83.59c4.979-4.744 11.376-7.099 17.767-7.099 6.807 0 13.603 2.673 18.657 7.978 6.79 7.125 13.834 34.693 17.954 56.19-21.271-5.151-48.467-13.52-55.257-20.646-9.799-10.285-9.405-26.623.879-36.423z"/></svg>