<svg xmlns="http://www.w3.org/2000/svg" viewBox="0 0 512 512" style="enable-background:new 0 0 512 512" xml:space="preserve"><path transform="rotate(-45.001 256.002 256.007)" style="fill:#ffb655" d="M-48.736 213.71h609.479v84.586H-48.736z"/><path style="fill:#ff7956" d="M40.62 441.582 456.586 25.616l-15.005-15.005L10.61 441.582l59.809 59.808 15.004-15.005z"/><path transform="rotate(-45.001 447.29 64.722)" style="fill:#ff7956" d="M413.068 22.423h68.441v84.586h-68.441z"/><path transform="rotate(-45.001 390.418 121.588)" style="fill:#ff7956" d="M375.018 79.289h30.801v84.586h-30.801z"/><path transform="rotate(-45.001 121.574 390.432)" style="fill:#ff7956" d="M106.178 348.136h30.801v84.586h-30.801z"/><path transform="rotate(-45.001 64.711 447.292)" style="fill:#ff7956" d="M30.495 404.996h68.441v84.586H30.495z"/><circle transform="rotate(-45.001 300.82 224.189)" style="fill:#ff7956" cx="300.821" cy="224.184" r="13.316"/><circle transform="rotate(-45.001 262.817 262.186)" style="fill:#ff7956" cx="262.819" cy="262.182" r="13.316"/><circle transform="rotate(-45.001 222.153 302.846)" style="fill:#ff7956" cx="222.156" cy="302.842" r="13.316"/><circle transform="rotate(-45.001 176.168 348.846)" style="fill:#ff7956" cx="176.171" cy="348.842" r="13.316"/><circle transform="rotate(-45.001 287.823 224.181)" style="fill:#cd2a00" cx="287.824" cy="224.177" r="13.316"/><circle transform="rotate(-45.001 249.82 262.188)" style="fill:#cd2a00" cx="249.822" cy="262.184" r="13.316"/><circle transform="rotate(-45.001 209.147 302.848)" style="fill:#cd2a00" cx="209.149" cy="302.845" r="13.316"/><circle transform="rotate(-45.001 163.161 348.848)" style="fill:#cd2a00" cx="163.164" cy="348.844" r="13.316"/><path style="fill:#57a4ff" d="M170.944 38.483h55.969v25.661h-55.969z"/><circle style="fill:#57a4ff" cx="245.399" cy="105.264" r="18.489"/><circle style="fill:#57a4ff" cx="189.431" cy="105.264" r="18.489"/><path style="fill:#57a4ff" d="M321.772 331.944h55.969v25.661h-55.969z"/><circle style="fill:#57a4ff" cx="396.227" cy="398.728" r="18.489"/><circle style="fill:#57a4ff" cx="340.259" cy="398.728" r="18.489"/><path style="fill:#57a4ff" d="M50.56 192.089h47.701v25.661H50.56z"/><circle style="fill:#57a4ff" cx="116.747" cy="258.873" r="18.489"/><path style="fill:#ff3f62" d="m423.197 59.005 33.389-33.389-15.005-15.005-48.394 48.394 59.808 59.809L468 103.809zM369.634 102.564l11.776-11.775-10.003-10.004-21.779 21.779 59.808 59.809 10.003-10.004zM100.791 371.407l11.776-11.775-10.003-10.004-21.779 21.779 59.808 59.809 10.003-10.004zM40.62 441.582l33.39-33.39-15.005-15.005-48.395 48.395 59.809 59.808 15.004-15.005z"/><path style="fill:#006df0" d="M170.935 38.48h20.006v25.662h-20.006zM246.913 105.264c0-6.522 3.385-12.243 8.486-15.534a18.383 18.383 0 0 0-10.003-2.955c-10.211 0-18.489 8.278-18.489 18.489s8.278 18.489 18.489 18.489c3.689 0 7.118-1.092 10.003-2.955-5.101-3.291-8.486-9.012-8.486-15.534zM190.945 105.264c0-6.522 3.385-12.243 8.486-15.534a18.383 18.383 0 0 0-10.003-2.955c-10.211 0-18.489 8.278-18.489 18.489s8.278 18.489 18.489 18.489c3.689 0 7.118-1.092 10.003-2.955-5.102-3.291-8.486-9.012-8.486-15.534zM321.763 331.937h20.006v25.661h-20.006zM397.742 398.727c0-6.522 3.385-12.243 8.486-15.534a18.383 18.383 0 0 0-10.003-2.955c-10.211 0-18.489 8.278-18.489 18.489s8.278 18.489 18.489 18.489c3.689 0 7.118-1.092 10.003-2.955-5.101-3.292-8.486-9.013-8.486-15.534zM341.774 398.727c0-6.522 3.385-12.243 8.486-15.534a18.383 18.383 0 0 0-10.003-2.955c-10.211 0-18.489 8.278-18.489 18.489s8.278 18.489 18.489 18.489c3.689 0 7.118-1.092 10.003-2.955-5.101-3.292-8.486-9.013-8.486-15.534zM50.556 192.092h20.006v25.661H50.556zM118.265 258.874c0-6.522 3.385-12.243 8.486-15.534a18.383 18.383 0 0 0-10.003-2.955c-10.211 0-18.489 8.278-18.489 18.489s8.278 18.489 18.489 18.489c3.689 0 7.118-1.092 10.003-2.955-5.101-3.292-8.486-9.012-8.486-15.534z"/><path transform="rotate(-45.001 333.021 203.423)" style="fill:#fff" d="M315.178 195.915h35.688v15.005h-35.688z"/><path transform="rotate(-45.001 358.015 178.437)" style="fill:#fff" d="M350.513 170.93h15.005v15.005h-15.005z"/><path transform="rotate(-45.001 375.699 160.748)" style="fill:#fff" d="M368.197 153.241h15.005v15.005h-15.005z"/><path d="m429.747 57.806 10.61-10.61 24.441 24.44-10.61 10.61zM59.4 466.423l24.441-24.441 10.61 10.61-24.44 24.44z"/><path d="M512 70.419 441.581.001l-61.334 61.333 10.61 10.61 2.329-2.329 49.198 49.198-2.329 2.329 10.61 10.61L512 70.419zM403.796 59.006l37.785-37.786 49.198 49.199-37.785 37.785-49.198-49.198zM339.018 102.564l70.419 70.419 32.389-32.389-70.419-70.419-32.389 32.389zm70.418 49.199-49.199-49.199 11.17-11.17 49.199 49.199-11.17 11.17zM70.174 371.407l70.419 70.419 32.389-32.389-70.419-70.419-32.389 32.389zm70.419 49.199-49.199-49.199 11.17-11.17 49.199 49.199-11.17 11.17zM287.821 244.998a20.684 20.684 0 0 0 14.721-6.097 20.682 20.682 0 0 0 6.097-14.722 20.684 20.684 0 0 0-6.097-14.721 20.682 20.682 0 0 0-14.721-6.097 20.684 20.684 0 0 0-14.722 6.097 20.682 20.682 0 0 0-6.097 14.721 20.684 20.684 0 0 0 6.097 14.722 20.684 20.684 0 0 0 14.722 6.097zm-4.111-24.928c1.097-1.098 2.558-1.703 4.11-1.703s3.013.604 4.109 1.703a5.773 5.773 0 0 1 1.703 4.109 5.766 5.766 0 0 1-1.703 4.11 5.773 5.773 0 0 1-4.109 1.703 5.766 5.766 0 0 1-4.11-1.703 5.774 5.774 0 0 1-1.703-4.11c0-1.551.605-3.012 1.703-4.109zM249.818 283a20.684 20.684 0 0 0 14.721-6.097 20.682 20.682 0 0 0 6.097-14.722 20.684 20.684 0 0 0-6.097-14.721 20.682 20.682 0 0 0-14.721-6.097 20.684 20.684 0 0 0-14.722 6.097 20.682 20.682 0 0 0-6.097 14.721 20.684 20.684 0 0 0 6.097 14.722A20.686 20.686 0 0 0 249.818 283zm-4.11-24.928a5.774 5.774 0 0 1 4.11-1.703c1.553 0 3.013.604 4.109 1.703a5.773 5.773 0 0 1 1.703 4.109 5.766 5.766 0 0 1-1.703 4.11 5.773 5.773 0 0 1-4.109 1.703 5.766 5.766 0 0 1-4.11-1.703 5.774 5.774 0 0 1-1.703-4.11 5.77 5.77 0 0 1 1.703-4.109zM209.153 282.029a20.684 20.684 0 0 0-14.721 6.097 20.682 20.682 0 0 0-6.097 14.722 20.684 20.684 0 0 0 6.097 14.721 20.682 20.682 0 0 0 14.721 6.097 20.684 20.684 0 0 0 14.722-6.097 20.682 20.682 0 0 0 6.097-14.721 20.684 20.684 0 0 0-6.097-14.722 20.684 20.684 0 0 0-14.722-6.097zm4.11 24.928a5.774 5.774 0 0 1-4.11 1.703 5.764 5.764 0 0 1-4.109-1.703 5.773 5.773 0 0 1-1.703-4.109c0-1.553.604-3.014 1.703-4.11a5.773 5.773 0 0 1 4.109-1.703c1.553 0 3.014.604 4.11 1.703a5.774 5.774 0 0 1 1.703 4.11 5.767 5.767 0 0 1-1.703 4.109zM148.442 334.118a20.682 20.682 0 0 0-6.097 14.721 20.684 20.684 0 0 0 6.097 14.722 20.682 20.682 0 0 0 14.722 6.097 20.681 20.681 0 0 0 14.72-6.097h.001a20.683 20.683 0 0 0 6.098-14.722 20.68 20.68 0 0 0-6.098-14.72 20.68 20.68 0 0 0-14.721-6.099 20.676 20.676 0 0 0-14.722 6.098zm20.534 14.72a5.768 5.768 0 0 1-1.703 4.11h-.001a5.773 5.773 0 0 1-4.109 1.703 5.766 5.766 0 0 1-4.11-1.703c-1.098-1.097-1.703-2.558-1.703-4.11s.604-3.013 1.703-4.11 2.558-1.703 4.11-1.703c1.553 0 3.012.604 4.11 1.704a5.771 5.771 0 0 1 1.703 4.109zM189.427 131.256c14.332 0 25.99-11.659 25.99-25.99s-11.659-25.99-25.99-25.99c-3.924 0-7.647.874-10.986 2.438V71.643h40.963v33.621c0 14.332 11.659 25.99 25.99 25.99s25.992-11.658 25.992-25.99-11.66-25.99-25.991-25.99c-3.924 0-7.647.874-10.986 2.438V30.977h-70.973v74.288c0 14.332 11.659 25.991 25.991 25.991zm55.968-36.977c6.059 0 10.986 4.929 10.986 10.986s-4.929 10.986-10.987 10.986-10.986-4.929-10.986-10.986c.001-6.058 4.93-10.986 10.987-10.986zm-66.954-48.297h40.963v10.656h-40.963V45.982zm10.986 48.297c6.058 0 10.986 4.929 10.986 10.986s-4.929 10.986-10.986 10.986-10.986-4.929-10.986-10.986c0-6.058 4.929-10.986 10.986-10.986zM396.225 372.736c-3.924 0-7.647.874-10.986 2.438V324.44h-70.974v74.288c0 14.332 11.66 25.99 25.991 25.99 14.332 0 25.99-11.659 25.99-25.99 0-14.332-11.659-25.99-25.99-25.99-3.924 0-7.648.874-10.987 2.438v-10.068h40.964v33.621c0 14.332 11.659 25.99 25.99 25.99s25.991-11.659 25.991-25.99c.002-14.333-11.658-25.993-25.989-25.993zm-55.969 15.005c6.058 0 10.986 4.929 10.986 10.986s-4.929 10.986-10.986 10.986c-6.059 0-10.987-4.929-10.987-10.986 0-6.058 4.929-10.986 10.987-10.986zm-10.987-48.297h40.964V350.1h-40.964v-10.656zm66.956 70.269c-6.058 0-10.986-4.929-10.986-10.986s4.929-10.986 10.986-10.986c6.059 0 10.987 4.929 10.987 10.986-.001 6.057-4.929 10.986-10.987 10.986zM90.756 258.873c0 14.332 11.66 25.991 25.991 25.991s25.99-11.66 25.99-25.991c0-14.332-11.659-25.99-25.99-25.99-3.924 0-7.648.874-10.987 2.438v-50.734H43.055v40.667h47.701v33.619zm25.991-10.985c6.058 0 10.986 4.929 10.986 10.986 0 6.059-4.929 10.987-10.986 10.987-6.059 0-10.987-4.929-10.987-10.987.001-6.059 4.928-10.986 10.987-10.986zM58.06 199.59h32.696v10.657H58.06V199.59zM171.206 389.977 389.972 171.21l10.61 10.61-218.766 218.767zM111.402 330.168l218.767-218.767 10.61 10.61-218.767 218.767zM118.813 442.385l-49.198-49.198 2.329-2.329-10.61-10.61L0 441.581 70.419 512l61.334-61.333-10.61-10.61-2.33 2.328zm-10.609 10.61-37.785 37.786-49.199-49.199 37.785-37.785 49.199 49.198z"/></svg>