<svg height="512pt" viewBox="0 0 512 512" width="512pt" xmlns="http://www.w3.org/2000/svg"><path d="M346 122.3c4.855.704 9.379 1.91 12.875 4.7 9.305 7.43 9.32 24.313 16.746 33.613 7.395 9.258 23.863 13.004 29.063 23.782 5.117 10.601-2.164 25.796.503 37.546 2.59 11.383 15.805 21.895 15.805 34.059s-13.215 22.68-15.805 34.059c-2.667 11.753 4.614 26.945-.503 37.546-5.2 10.778-21.668 14.528-29.063 23.786-7.426 9.3-7.445 26.183-16.746 33.609-9.258 7.39-25.707 3.68-36.484 8.879-10.602 5.113-17.922 20.34-29.672 23.012-11.383 2.586-24.555-7.899-36.719-7.899s-25.34 10.485-36.719 7.899c-11.754-2.672-19.07-17.899-29.672-23.012-10.777-5.2-27.23-1.488-36.488-8.879-9.3-7.426-9.316-24.309-16.746-33.61-7.39-9.257-23.863-13.007-29.063-23.785-5.113-10.601 2.168-25.793-.503-37.546-2.586-11.38-15.801-21.895-15.801-34.059s13.215-22.676 15.8-34.059c2.672-11.75-4.609-26.945.504-37.546 5.2-10.778 21.672-14.524 29.067-23.782 7.426-9.3 7.441-26.183 16.746-33.613 9.258-7.39 25.707-3.676 36.484-8.875 10.602-5.117 17.922-20.344 29.672-23.016 11.38-2.586 24.555 7.899 36.719 7.899s25.34-10.485 36.719-7.899c10.847 2.465 17.922 15.625 27.281 21.66zm0 0" fill="#74c26c"/><path d="M405.188 290.059c2.585-11.38 15.804-21.895 15.804-34.059s-13.219-22.68-15.805-34.059c-2.671-11.75 4.614-26.945-.503-37.546-5.2-10.778-21.672-14.528-29.063-23.782-7.426-9.304-7.445-26.183-16.746-33.613-3.496-2.793-8.02-4-12.875-4.7l-21.137-4.5c26.102 28.5 42.035 66.47 42.035 108.16 0 88.477-71.722 160.2-160.199 160.2-21.496 0-41.992-4.242-60.722-11.918 1.71 4.266 3.836 8.113 7.144 10.758 9.258 7.39 25.711 3.676 36.488 8.875 10.602 5.117 17.918 20.344 29.672 23.016 11.38 2.586 24.555-7.899 36.719-7.899s25.336 10.485 36.719 7.899c11.75-2.672 19.07-17.899 29.672-23.016 10.777-5.2 27.226-1.484 36.484-8.875 9.3-7.43 9.32-24.312 16.746-33.613 7.39-9.258 23.863-13.004 29.063-23.782 5.117-10.601-2.164-25.796.504-37.546zm0 0" fill="#63a65c"/><g fill="#9dcb3b"><path d="M225 176.21c0 10.77-8.73 19.5-19.5 19.5s-19.5-8.73-19.5-19.5c0-10.773 8.73-19.5 19.5-19.5s19.5 8.727 19.5 19.5zM275.5 27c0 10.77-8.73 19.5-19.5 19.5s-19.5-8.73-19.5-19.5S245.23 7.5 256 7.5s19.5 8.73 19.5 19.5zM351.43 240.672c0 10.77-8.73 19.5-19.5 19.5s-19.5-8.73-19.5-19.5 8.73-19.5 19.5-19.5 19.5 8.73 19.5 19.5zM236.258 314.785c0 16.988-13.77 30.758-30.758 30.758s-30.758-13.77-30.758-30.758c0-16.984 13.77-30.754 30.758-30.754s30.758 13.77 30.758 30.754zM467.465 44.531c-9.367-9.367-24.555-9.367-33.922 0-9.371 9.367-9.371 24.559 0 33.926 9.367 9.367 24.555 9.367 33.922 0 9.37-9.367 9.37-24.559 0-33.926zM504.5 256c0 10.77-8.73 19.5-19.5 19.5s-19.5-8.73-19.5-19.5 8.73-19.5 19.5-19.5 19.5 8.73 19.5 19.5zM458.145 422.66c-9.801-9.8-25.692-9.8-35.493 0-9.797 9.8-9.797 25.692 0 35.488 9.801 9.801 25.692 9.801 35.493 0 9.8-9.796 9.8-25.687 0-35.488zM275.5 485c0 10.77-8.73 19.5-19.5 19.5s-19.5-8.73-19.5-19.5 8.73-19.5 19.5-19.5 19.5 8.73 19.5 19.5zM107.86 404.137c-7.618-7.617-19.965-7.617-27.579 0-7.617 7.613-7.617 19.96 0 27.578 7.614 7.613 19.961 7.613 27.578 0 7.614-7.617 7.614-19.965 0-27.578zM46.5 256c0 10.77-8.73 19.5-19.5 19.5S7.5 266.77 7.5 256s8.73-19.5 19.5-19.5 19.5 8.73 19.5 19.5zM89.695 53.3c-10.05-10.05-26.343-10.05-36.394 0s-10.051 26.348 0 36.4 26.344 10.05 36.394 0c10.051-10.052 10.051-26.348 0-36.4zm0 0"/></g><path d="M232.5 176.21c0-14.89-12.113-27-27-27s-27 12.11-27 27c0 14.888 12.113 27 27 27s27-12.112 27-27zm-39 0c0-6.616 5.383-12 12-12s12 5.384 12 12c0 6.614-5.383 12-12 12s-12-5.386-12-12zM304.93 240.668c0 14.89 12.113 27 27 27 14.886 0 27-12.11 27-27 0-14.887-12.114-27-27-27-14.887 0-27 12.113-27 27zm27-12c6.617 0 12 5.383 12 12s-5.383 12-12 12c-6.618 0-12-5.383-12-12s5.382-12 12-12zM167.242 314.785c0 21.098 17.164 38.258 38.258 38.258s38.258-17.16 38.258-38.258c0-21.094-17.164-38.254-38.258-38.254s-38.258 17.16-38.258 38.254zm38.258-23.254c12.824 0 23.258 10.434 23.258 23.254 0 12.824-10.434 23.258-23.258 23.258s-23.258-10.434-23.258-23.258 10.434-23.254 23.258-23.254zm0 0"/><path d="M485 229c-12.23 0-22.172 8.328-25.48 19.5h-32.86c-4.238-14.004-12.445-20.688-14.156-28.223-2.254-9.902 5.289-25.968-1.066-39.14-6.391-13.254-23.844-17.551-29.954-25.203-1.964-2.457-3.343-6.164-4.683-10.13l57.793-57.788c4.84 2.91 10.12 4.964 15.914 4.964 8.41 0 16.316-3.273 22.265-9.222 12.278-12.278 12.278-32.254 0-44.531-12.304-12.305-32.222-12.309-44.53 0-10.4 10.394-11.442 26.066-4.231 38.156l-53.192 53.191c-4.617-8.883-10.465-13.777-23.746-15.695a7.499 7.499 0 1 0-2.144 14.844c10.648 1.539 12.234 4.484 16.59 17.832 5.484 16.793 8.597 20.648 23.648 29.64 14.512 8.672 15.152 10.317 12.973 26.688-2.371 17.793-1.114 22.586 8.328 36.894 9.351 14.184 9.351 16.266 0 30.446-9.477 14.367-10.688 19.172-8.328 36.898 2.183 16.399 1.511 18.027-12.977 26.688-15.043 8.988-18.16 12.843-23.644 29.64-5.211 15.957-6.622 17.012-23.196 18.551-17.644 1.633-22.09 3.836-34.113 16.406-11.711 12.242-13.477 12.504-28.844 6.77-6.172-2.305-12.55-4.684-19.363-4.684-13.39 0-26.93 9.926-35.059 8.082-4.375-.992-8.636-5.449-13.148-10.168-11.992-12.539-16.41-14.765-34.117-16.41-16.578-1.535-17.989-2.598-23.196-18.55-5.488-16.798-8.601-20.65-23.648-29.641-14.508-8.672-15.152-10.309-12.973-26.688 2.36-17.703 1.153-22.523-8.328-36.894-9.351-14.18-9.351-16.266 0-30.45 9.477-14.363 10.692-19.171 8.328-36.894-2.18-16.375-1.535-18.016 12.977-26.688 5.547-3.312 11.281-6.742 15.402-11.902 4.145-5.191 6.227-11.57 8.242-17.738 2.008-6.153 3.907-11.961 7.325-14.692 3.382-2.703 9.449-3.261 15.87-3.859 17.665-1.637 22.102-3.844 34.118-16.406 11.687-12.223 13.437-12.516 28.84-6.77 16.77 6.258 21.957 6.258 38.73 0 18.91-7.054 17.594-3.933 33.227 11.23a7.497 7.497 0 0 0 10.601-.16 7.495 7.495 0 0 0-.16-10.605c-1.308-1.27-2.605-2.629-3.984-4.066-16.27-17-24.238-18.168-44.926-10.45-2.29.852-4.488 1.637-6.621 2.297V52.48C274.672 49.172 283 39.23 283 27c0-14.887-12.113-27-27-27s-27 12.113-27 27c0 12.23 8.328 22.172 19.5 25.48v41.59c-2.133-.66-4.332-1.445-6.621-2.297-20.684-7.718-28.66-6.554-44.926 10.454-3.68 3.843-7.152 7.476-10.601 9.14-3.579 1.727-8.668 2.2-14.059 2.7-15.086 1.398-24.277 3.355-31.113 16.507L99.23 88.625c7.868-12.8 6.848-29.547-4.23-40.629-12.957-12.957-34.043-12.957-47.004 0-26.836 26.84 5.899 72.57 40.629 51.234l46.574 46.575c-3.543 10.48-4.879 11.832-16.058 18.511-19.88 11.88-23.121 19.223-20.149 41.543.719 5.395 1.399 10.493.504 14.418-1.71 7.535-9.918 14.215-14.156 28.223H52.48C49.172 237.328 39.23 229 27 229c-14.887 0-27 12.113-27 27s12.113 27 27 27c12.23 0 22.172-8.328 25.48-19.5h32.86c4.238 14.008 12.445 20.684 14.16 28.223 2.25 9.898-5.293 25.972 1.063 39.14 6.394 13.254 23.843 17.551 29.957 25.203 1.96 2.461 3.34 6.164 4.68 10.13l-28.41 28.41c-10.24-5.56-23.161-4.419-31.81 4.23-17.02 17.023-4.8 46.078 19.094 46.078a26.592 26.592 0 0 0 23.32-39.7l23.79-23.788c11.132 21.422 33.46 13.558 45.168 19.207 8.847 4.27 16.757 20.273 31.27 23.57 10.816 2.461 21.21-3.273 30.878-6.273v41.59C237.328 462.828 229 472.77 229 485c0 14.887 12.113 27 27 27s27-12.113 27-27c0-12.23-8.328-22.172-19.5-25.48v-41.59c9.809 3.039 20.082 8.73 30.883 6.273 14.472-3.289 22.484-19.336 31.265-23.57 11.852-5.719 33.977 2.332 45.172-19.207l7.875 7.879a7.51 7.51 0 0 0 10.61 0 7.502 7.502 0 0 0 0-10.61L376.8 366.191c3.547-10.488 4.89-11.832 16.058-18.507 19.875-11.88 23.121-19.223 20.149-41.543-1.867-14.012-1.485-15.344 5.98-26.66 3.13-4.747 5.91-10.169 7.668-15.981h32.86C462.828 274.672 472.77 283 485 283c14.887 0 27-12.113 27-27s-12.113-27-27-27zM450.508 45.004c14.656 0 21.976 17.832 11.66 28.148-6.445 6.442-16.875 6.446-23.32 0-10.32-10.32-2.993-28.148 11.66-28.148zM244 27c0-6.617 5.383-12 12-12s12 5.383 12 12-5.383 12-12 12-12-5.383-12-12zM58.605 84.395c-7.113-7.11-7.113-18.68 0-25.793 7.11-7.11 18.68-7.11 25.79 0 7.113 7.113 7.113 18.683 0 25.793-7.11 7.113-18.68 7.109-25.79 0zM27 268c-6.617 0-12-5.383-12-12s5.383-12 12-12 12 5.383 12 12-5.383 12-12 12zm75.559 158.414c-4.68 4.68-12.293 4.68-16.973 0-7.566-7.566-2.133-20.48 8.484-20.48 10.614 0 16.063 12.906 8.489 20.48zM268 485c0 6.617-5.383 12-12 12s-12-5.383-12-12 5.383-12 12-12 12 5.383 12 12zm217-217c-6.617 0-12-5.383-12-12s5.383-12 12-12 12 5.383 12 12-5.383 12-12 12zM423.734 413.129 410.93 400.32a7.51 7.51 0 0 0-10.61 0 7.502 7.502 0 0 0 0 10.61l12.809 12.804c-7.625 12.54-6.602 28.891 4.226 39.72 12.739 12.737 33.36 12.741 46.098 0 12.738-12.74 12.738-33.356 0-46.099-10.828-10.828-27.176-11.851-39.719-4.226zm29.114 39.719c-6.88 6.875-18.004 6.875-24.883 0-6.86-6.86-6.86-18.024 0-24.883s18.02-6.86 24.883 0c6.875 6.875 6.879 18.004 0 24.883zm0 0"/></svg>