<svg height="512pt" viewBox="-19 0 512 512" width="512pt" xmlns="http://www.w3.org/2000/svg"><path d="M176.664 113h119.82v391.5h-119.82zm0 0" fill="#ffca28"/><path d="M256.488 113v331.504c0 22.09-17.906 39.996-39.996 39.996h-39.828v20h119.824V113zm0 0" fill="#ffa000"/><path d="M458.39 244.633V504.5H296.489V244.633zm-443.628 0V504.5h161.902V244.633zm0 0" fill="#42a5f5"/><path d="M14.762 484.5h161.902v20H14.762zM418.39 244.633v159.875c0 44.18-35.812 79.992-79.995 79.992h-41.907v20h161.903V244.633zm0 0" fill="#1976d2"/><path d="M176.664 244.633H7.5V112.996h169.164zm119.824-131.637v131.637h169.164V112.996zm0 0" fill="#42a5f5"/><path d="M7.5 224.637h169.164v19.996H7.5zM415.652 112.996v61.645c0 27.609-22.382 49.996-49.996 49.996h-69.168v19.996h169.164V112.996zm0 0" fill="#1976d2"/><g fill="#ffca28"><path d="M282.844 112.996h-92.54V56.91c0-10.144 10.512-16.875 19.727-12.629l26.547 12.235 26.543-12.235c9.215-4.246 19.727 2.485 19.727 12.63v56.085zm0 0"/><path d="m191.348 51.59-69.703-38.707C93.585-2.7 59.113 17.593 59.113 49.688 59.113 86.566 88.203 113 121.5 113h68.805V56.91c0-1.914.375-3.703 1.043-5.32zM121.5 83c-16.758 0-32.39-13.09-32.39-33.316 0-8.293 7.25-12.157 12.148-12.157 1.972 0 3.933.532 5.824 1.582L186.122 83zM351.098 14.04l-68.739 39.179c.313 1.164.485 2.398.485 3.691v56.086h68.808c34.438 0 62.387-27.914 62.387-62.387 0-32.304-34.879-52.566-62.941-36.57zm.554 68.96h-60.96l75.261-42.902c1.918-1.094 3.914-1.649 5.934-1.649 4.898 0 12.152 3.864 12.152 12.16C384.04 68.47 369.512 83 351.652 83zm0 0"/></g><path d="M465.652 105.5h-70.82c16.246-12.809 26.707-32.645 26.707-54.89 0-38.157-41.215-61.868-74.156-43.087l-11.524 6.567a7.502 7.502 0 0 0-2.8 10.23 7.497 7.497 0 0 0 10.226 2.801l11.524-6.566c23.05-13.14 51.73 3.476 51.73 30.054 0 30.266-24.625 54.891-54.89 54.891h-61.305V90.473c.117.004.226.027.344.027h60.96c21.997 0 39.891-17.895 39.891-39.89 0-14.93-16.133-24.532-29.3-17.024l-71.895 40.98v-17.27l22.535-12.843a7.5 7.5 0 1 0-7.426-13.031l-20.265 11.55c-6.231-7.238-16.446-9.542-25.208-5.503l-23.406 10.789-23.406-10.79c-8.125-3.745-17.656-2.09-24.074 4.29l-63.809-35.43c-33.34-18.515-73.676 5.91-73.676 43.36 0 23.37 10.38 42.937 26.707 55.812H7.5A7.5 7.5 0 0 0 0 113v131.637c0 4.062 3.23 7.36 7.262 7.488V504.5c0 4.14 3.36 7.5 7.5 7.5H458.39c4.14 0 7.5-3.36 7.5-7.5V395.68a7.5 7.5 0 0 0-7.5-7.5 7.497 7.497 0 0 0-7.5 7.5V497H303.984V252.133h146.907V360.68c0 4.14 3.359 7.5 7.5 7.5s7.5-3.36 7.5-7.5V252.12a7.493 7.493 0 0 0 7.261-7.488V113a7.502 7.502 0 0 0-7.5-7.5zm-95.988-58.883c.79-.449 1.516-.668 2.223-.668.047 0 4.656.348 4.656 4.66 0 13.727-11.168 24.891-24.89 24.891h-32.66zM154.16 75.5H121.5c-13.727 0-24.89-11.164-24.89-24.89 0-4.313 4.609-4.66 4.656-4.66.707 0 1.433.218 2.218.667zm52.73-24.406 22.184 10.222v25.2a7.5 7.5 0 1 0 15 0v-25.2l22.188-10.222c4.242-1.957 9.086 1.144 9.086 5.816v48.586h-77.543V56.91c0-4.672 4.84-7.777 9.086-5.816zM66.61 49.687c0-26.378 28.394-43.019 51.394-30.246l64.8 35.985v17.156L110.72 32.551c-13.11-7.278-29.11 2.242-29.11 17.133 0 24.289 18.934 40.816 39.891 40.816h61.305v14.996H121.5c-29.05.004-54.89-23.05-54.89-55.808zM22.261 252.133h146.902V497H22.262zm161.902-48.551c0-4.14-3.36-7.5-7.5-7.5-4.14 0-7.5 3.36-7.5 7.5v33.555H15v-116.64h154.164v48.089c0 4.14 3.36 7.496 7.5 7.496 4.14 0 7.5-3.355 7.5-7.496v-48.09h104.824V497H184.164zm119.82 33.555v-116.64h154.168v116.64zm0 0"/></svg>