<svg viewBox="0 0 512 512.001" xmlns="http://www.w3.org/2000/svg"><g fill="#685c79"><path d="M51.723 148.145c2.632 12.082-5.774 20.57-17.856 23.207-12.082 2.632-23.262-1.582-25.894-13.665-2.637-12.082 6.093-19.972 18.175-22.609 12.082-2.633 22.938.984 25.575 13.067zM145.887 127.605c2.636 12.082-5.77 20.57-17.852 23.207-12.082 2.633-23.262-1.582-25.898-13.664-2.633-12.082 6.097-19.972 18.175-22.609 12.083-2.637 22.942.984 25.575 13.066zM125.379 33.586 31.215 54.125l-4.692-21.508a5.813 5.813 0 0 1 4.442-6.918L113.77 7.637a5.813 5.813 0 0 1 6.918 4.441zm0 0"/></g><path d="M371.445 458.008c-4.48 11.527-16.18 13.96-27.703 9.48-11.527-4.476-18.515-14.168-14.039-25.695 4.48-11.527 16.117-13.281 27.645-8.8 11.527 4.476 18.574 13.491 14.097 25.015zM461.281 492.914c-4.476 11.527-16.176 13.957-27.703 9.48-11.523-4.48-18.515-14.171-14.035-25.695 4.477-11.527 16.113-13.281 27.64-8.804 11.528 4.476 18.579 13.492 14.098 25.02zM496.133 403.215l-89.84-34.902 7.973-20.52a5.812 5.812 0 0 1 7.523-3.313l79 30.692a5.812 5.812 0 0 1 3.313 7.523zm0 0" fill="#ff2c5c"/><path d="M237.055 473.168c-47.246 47.246-130.621 40.312-185.407-15.746-54.285-55.55-59.191-139.031-10.933-184.688 15.32-14.5 34.195-23.546 54.543-27.304 35.469-6.547 64.367-28.086 80.738-58.887 4.133-7.77 9.758-14.7 16.246-21.188 70.707-70.707 226.688 81.778 152.254 156.211a80.616 80.616 0 0 1-18.39 13.774c-30.872 16.883-53.114 45.406-59.731 81.223-3.93 21.269-13.64 40.93-29.32 56.605zm0 0" fill="#b0693c"/><path d="M310.563 177.902c31.082 37.664 44.277 86.989 10.765 120.5a80.73 80.73 0 0 1-18.39 13.774c-30.872 16.883-53.114 45.402-59.731 81.219-3.93 21.27-13.64 40.93-29.316 56.605-43.504 43.5-117.633 41.07-171.871-3.344a164.21 164.21 0 0 0 9.628 10.766c54.782 56.058 138.16 62.992 185.407 15.746 15.675-15.68 25.39-35.336 29.316-56.606 6.617-35.816 28.86-64.335 59.734-81.222a80.662 80.662 0 0 0 18.387-13.77c40.992-40.992 12.106-105.644-33.93-143.668zm0 0" fill="#9c5d35"/><path d="M145.691 442.793 69.11 366.211c-7.21-7.207-7.21-18.895 0-26.106 7.211-7.207 18.899-7.207 26.106 0l76.582 76.583c7.21 7.21 7.21 18.898 0 26.105-7.207 7.21-18.899 7.21-26.106 0zm0 0" fill="#ffd659"/><path d="m412.535 56.938 42.426 42.425-204.344 204.344-42.426-42.426zm0 0" fill="#ebe4e2"/><path d="m433.75 78.152 21.21 21.211-204.343 204.344-21.215-21.21zm0 0" fill="#d1c4c4"/><path d="M238.332 273.566c-19.527-19.523-51.184-19.523-70.71 0-19.524 19.528-19.524 51.184 0 70.711 19.526 19.528 51.183 19.528 70.71 0 19.527-19.527 19.527-51.183 0-70.71zm0 0" fill="#594f69"/><path d="M238.336 273.57c-13.625-13.629-33.156-17.734-50.356-12.34a49.784 49.784 0 0 1 20.36 12.34c19.523 19.524 19.523 51.184 0 70.711a49.775 49.775 0 0 1-20.36 12.336c17.2 5.39 36.73 1.29 50.356-12.336 19.527-19.527 19.527-51.187 0-70.71zm0 0" fill="#50475e"/><path d="m424.375 132.418-44.797-44.797a4.924 4.924 0 0 1 .23-7.176L461.25 8.727a4.922 4.922 0 0 1 6.734.214l35.075 35.07a4.922 4.922 0 0 1 .21 6.735l-71.718 81.445a4.924 4.924 0 0 1-7.176.227zm0 0" fill="#b0693c"/><path d="M503.059 44.012 481.723 22.68a4.918 4.918 0 0 1 .215 6.734l-71.72 81.441a4.924 4.924 0 0 1-7.175.23l21.332 21.333a4.924 4.924 0 0 0 7.176-.227l71.719-81.445a4.922 4.922 0 0 0-.211-6.734zm0 0" fill="#9c5d35"/><path d="M14.121 176.8c3.887 1.872 8.285 2.817 12.992 2.817 2.696 0 5.492-.308 8.356-.933 17.191-3.75 26.886-16.961 23.582-32.13v-.003L40.14 59.855l79.507-17.343 14.016 64.25c-4.476-.848-9.516-.73-14.95.453-17.573 3.832-27.183 16.508-23.905 31.535 2.761 12.664 13.199 20.313 26.574 20.313 2.644 0 5.41-.301 8.25-.918 17.191-3.75 26.89-16.965 23.582-32.133v-.004l-25.2-115.531C126.454 3.305 119.34-1.258 112.16.309L29.367 18.367a13.232 13.232 0 0 0-8.363 5.809 13.205 13.205 0 0 0-1.809 10.027L39.5 127.305c-4.477-.848-9.52-.735-14.95.449-7.855 1.715-14.3 5.219-18.632 10.129-5.14 5.828-7.016 13.43-5.273 21.406 1.73 7.934 6.515 14.152 13.476 17.512zm112.313-33.312c-3.41.742-14.723 2.375-16.97-7.933-1.987-9.11 6.946-12.485 12.45-13.684 1.848-.402 3.832-.683 5.766-.683 4.918 0 9.523 1.808 10.879 8.015v.004c2.25 10.305-8.711 13.535-12.125 14.281zM113.719 15.32l2.734 12.535L36.945 45.2l-2.734-12.531zM17.168 147.81c2.176-2.465 5.934-4.383 10.582-5.399 1.848-.402 3.832-.683 5.766-.683 4.918 0 9.523 1.812 10.879 8.015v.004c2.246 10.309-8.711 13.54-12.125 14.281-4.48.977-8.614.715-11.637-.742-2.832-1.363-4.578-3.719-5.332-7.191-.738-3.375-.145-6.008 1.867-8.285zM510.863 375.242a13.233 13.233 0 0 0-7.363-7.047L424.504 337.5c-6.848-2.66-14.574.746-17.234 7.59l-34.528 88.879c-3.312-3.262-7.59-5.973-12.683-7.953-7.496-2.91-14.801-3.551-21.13-1.852-7.503 2.016-13.261 7.32-16.218 14.93-2.941 7.57-2.387 15.398 1.559 22.039 3.464 5.832 9.257 10.457 16.753 13.367 4.512 1.754 8.942 2.594 13.118 2.594 11.007 0 20.214-5.856 24.293-16.348l32.132-82.71 75.852 29.472-23.84 61.363c-3.312-3.258-7.586-5.969-12.683-7.95-16.766-6.515-31.778-1.257-37.348 13.079-2.942 7.57-2.387 15.395 1.562 22.04 3.465 5.831 9.258 10.452 16.75 13.366 4.512 1.75 8.946 2.594 13.121 2.594 11.008 0 20.215-5.86 24.29-16.352l42.82-110.218a13.237 13.237 0 0 0-.227-10.188zm-164.41 85.274c-4.277-1.66-7.578-4.16-9.289-7.043-1.605-2.707-1.762-5.633-.473-8.946 1.25-3.222 3.2-5.086 6.133-5.875 1.028-.277 2.164-.414 3.38-.414 2.534 0 5.425.594 8.421 1.762 4.379 1.7 7.715 4.125 9.398 6.832 1.563 2.512 1.696 5.207.426 8.48-3.82 9.833-14.738 6.47-17.996 5.204zm69.543-96.465 4.645-11.957 75.855 29.472-4.644 11.957zm20.293 131.37c-4.277-1.66-7.574-4.163-9.285-7.046-1.61-2.703-1.762-5.629-.477-8.941 1.891-4.864 5.637-6.34 9.493-6.34 3.03 0 6.132.914 8.44 1.812 4.38 1.7 7.716 4.125 9.4 6.832 1.562 2.512 1.695 5.207.425 8.477-3.82 9.836-14.738 6.472-17.996 5.207zM220.27 477.7c-46.118 33.515-116.301 22.55-163.258-25.505-27.387-28.027-42.696-64.808-41.989-100.91.563-28.847 11.516-54.805 30.84-73.094 13.762-13.007 31.313-21.78 50.758-25.375 26.422-4.878 49.817-17.636 67.652-36.89a7.497 7.497 0 0 0-.402-10.598 7.493 7.493 0 0 0-10.598.402c-15.628 16.868-36.156 28.047-59.375 32.336-22.296 4.118-42.468 14.223-58.343 29.227-22.27 21.078-34.887 50.8-35.528 83.7-.785 40.097 16.078 80.804 46.258 111.687C77.848 494.98 119.102 512 158.313 512c25.542 0 50.226-7.23 70.773-22.164a7.501 7.501 0 0 0-8.816-12.137zm0 0"/><path d="M349.79 326.887c15.675-15.68 23.167-35.88 21.655-58.418-1.195-17.887-7.984-36.89-19.675-55.293l47.863-47.863a7.497 7.497 0 1 0-10.602-10.605l-132.71 132.706a57.388 57.388 0 0 0-12.684-19.137c-5.559-5.558-12.055-9.832-19.133-12.683L380.714 99.37l31.825 31.824-.887.887a7.497 7.497 0 0 0 5.305 12.8c1.918 0 3.84-.73 5.3-2.194l1.9-1.895c1.19.375 2.437.574 3.702.574.13 0 .258-.004.387-.008a12.448 12.448 0 0 0 8.93-4.207l7.96-9.039 8.536 8.535a7.484 7.484 0 0 0 5.305 2.2c1.918 0 3.84-.735 5.304-2.2a7.497 7.497 0 0 0 0-10.605l-9.21-9.211 12.527-14.227 8.914 8.915a7.48 7.48 0 0 0 5.304 2.195 7.502 7.502 0 0 0 5.305-12.805l-9.59-9.586 12.434-14.117 6.457 6.461a7.48 7.48 0 0 0 5.305 2.195 7.502 7.502 0 0 0 5.305-12.805l-7.137-7.132 9-10.219c4.32-4.906 4.085-12.371-.536-16.996L473.285 3.637c-4.625-4.625-12.09-4.86-16.996-.54l-10.223 9.005-7.14-7.137a7.5 7.5 0 0 0-10.602 10.613l6.461 6.457-14.113 12.426-9.676-9.672a7.497 7.497 0 0 0-10.605 0 7.497 7.497 0 0 0 0 10.606l9.004 9-14.23 12.53-9.208-9.206a7.497 7.497 0 0 0-10.605 0 7.497 7.497 0 0 0 0 10.605l8.535 8.535-9.043 7.961a12.474 12.474 0 0 0-4.203 8.93 12.381 12.381 0 0 0 .527 3.957l-72.348 72.352c-42.164-27.094-84.625-27.254-111.879.004-7.015 7-12.386 13.835-16.421 20.894a7.499 7.499 0 0 0 2.785 10.234 7.496 7.496 0 0 0 10.234-2.79c3.367-5.881 7.941-11.678 14.004-17.73 29.812-29.816 70.656-11.6 90.375.29l-80.645 80.648a57.973 57.973 0 0 0-4.293-.175c-15.355 0-29.796 5.98-40.656 16.843-10.863 10.86-16.844 25.301-16.844 40.66s5.98 29.801 16.844 40.66c10.86 10.86 25.301 16.844 40.656 16.844 15.36 0 29.801-5.984 40.66-16.843s16.84-25.301 16.84-40.66c0-1.442-.07-2.872-.175-4.293l80.55-80.551c11.766 19.824 29.516 61-1.675 92.191a73.169 73.169 0 0 1-16.668 12.492c-34.102 18.653-56.66 49.352-63.516 86.442-2.855 15.484-8.824 29.484-17.746 41.617-2.453 3.34-1.738 8.035 1.598 10.488a7.466 7.466 0 0 0 4.437 1.457 7.483 7.483 0 0 0 6.047-3.058c10.277-13.977 17.145-30.051 20.414-47.782 6.02-32.566 25.895-59.558 55.965-76.007a88.228 88.228 0 0 0 20.078-15.047zM464.386 15.953l31.652 31.652-68.309 77.575-40.91-40.918zM233.03 338.988c-8.027 8.028-18.699 12.45-30.05 12.45-11.352 0-22.024-4.422-30.051-12.45-8.028-8.027-12.45-18.699-12.45-30.05 0-11.356 4.422-22.028 12.45-30.055 8.023-8.028 18.699-12.45 30.05-12.45 11.352 0 22.024 4.422 30.051 12.45 8.024 8.027 12.446 18.699 12.446 30.055 0 11.351-4.418 22.023-12.446 30.05zM63.805 334.816c-10.121 10.121-10.121 26.594 0 36.715l76.582 76.586c5.062 5.059 11.71 7.59 18.355 7.59 6.649 0 13.297-2.531 18.36-7.594 10.12-10.12 10.12-26.59 0-36.715l-76.582-76.586c-4.903-4.902-11.422-7.601-18.356-7.601-6.934 0-13.453 2.703-18.36 7.605zm102.687 87.192c4.274 4.273 4.274 11.226 0 15.5-4.27 4.273-11.222 4.277-15.5 0l-76.578-76.582c-4.273-4.274-4.273-11.23 0-15.504a10.894 10.894 0 0 1 7.75-3.211c2.926 0 5.68 1.14 7.75 3.21zm0 0"/><path d="M376.996 158.336a7.48 7.48 0 0 0 5.305-2.195c2.926-2.93 2.926-7.68 0-10.606l-16-16.004a7.51 7.51 0 0 0-10.61 0 7.502 7.502 0 0 0 0 10.61l16 16a7.48 7.48 0 0 0 5.305 2.195zM354.828 180.504a7.497 7.497 0 0 0 5.305-12.8l-16-16.005a7.504 7.504 0 0 0-10.606 0 7.502 7.502 0 0 0 0 10.61l16 16a7.47 7.47 0 0 0 5.301 2.195zM332.664 202.672a7.502 7.502 0 0 0 5.3-12.805l-16-16a7.497 7.497 0 0 0-10.605 0 7.497 7.497 0 0 0 0 10.606l16 16.004a7.473 7.473 0 0 0 5.305 2.195zM310.496 224.84a7.502 7.502 0 0 0 5.305-12.805l-16-16a7.497 7.497 0 0 0-10.606 0 7.497 7.497 0 0 0 0 10.606l16 16.004a7.47 7.47 0 0 0 5.301 2.195zM267.027 218.203a7.502 7.502 0 0 0 0 10.61l16 16a7.473 7.473 0 0 0 5.305 2.195 7.502 7.502 0 0 0 5.3-12.805l-16-16a7.497 7.497 0 0 0-10.605 0zM417.621 76.543a7.497 7.497 0 0 0-10.605 0 7.497 7.497 0 0 0 0 10.605 7.497 7.497 0 0 0 10.605 0 7.497 7.497 0 0 0 0-10.605zM435.61 94.375a7.502 7.502 0 0 0-10.61 0c-2.926 2.926-2.926 7.676 0 10.605a7.502 7.502 0 0 0 10.61 0c2.925-2.93 2.925-7.68 0-10.605zM440.129 54a7.497 7.497 0 0 0-10.606 0 7.497 7.497 0 0 0 0 10.605 7.497 7.497 0 0 0 10.606 0 7.497 7.497 0 0 0 0-10.605zM458.129 71.852a7.497 7.497 0 0 0-10.606 0 7.497 7.497 0 0 0 0 10.605 7.497 7.497 0 0 0 10.606 0 7.497 7.497 0 0 0 0-10.605zM462.648 31.48a7.497 7.497 0 0 0-10.605 0 7.497 7.497 0 0 0 0 10.606 7.497 7.497 0 0 0 10.605 0 7.497 7.497 0 0 0 0-10.606zM480.645 49.328a7.497 7.497 0 0 0-10.606 0 7.497 7.497 0 0 0 0 10.606 7.497 7.497 0 0 0 10.606 0 7.497 7.497 0 0 0 0-10.606zm0 0"/></svg>