<svg xmlns="http://www.w3.org/2000/svg" viewBox="0 0 512.005 512.005" style="enable-background:new 0 0 512.005 512.005" xml:space="preserve"><path style="fill:#fff" d="M488.999 356.946c-19.063-19.534-48.092-36.871-81.744-48.814-14.83-5.262-29.625-9.142-43.858-11.569v6.681c9.035.832 16.113 8.407 16.113 17.64 0 6.511-3.53 12.186-8.772 15.267.693 2.534 1.302 5.16 1.853 7.841a280.34 280.34 0 0 0 19.202 7.625c33.648 11.94 67.122 16.783 94.251 13.637a4.913 4.913 0 0 0 2.955-8.308z"/><path style="fill:#e02424" d="M448.327 347.192a41.774 41.774 0 0 1-10.602 16.321c17.297 2.788 33.727 3.428 48.317 1.738a4.913 4.913 0 0 0 2.956-8.306c-10.251-10.504-23.405-20.365-38.59-29.1a41.713 41.713 0 0 1-2.081 19.347z"/><path style="fill:#fff" d="M143.41 336.149c-5.241-3.081-8.77-8.755-8.77-15.266 0-9.789 7.952-17.724 17.76-17.724.294 0 .581.029.871.044v-9.329c-15.816 2.331-32.419 6.502-49.069 12.419-33.641 11.956-62.666 29.304-81.717 48.852a4.906 4.906 0 0 0-1.109 5.068 4.915 4.915 0 0 0 4.062 3.236c27.133 3.133 60.603-1.725 94.25-13.679a277.408 277.408 0 0 0 22.594-9.167c.351-1.508.729-2.994 1.128-4.454z"/><path style="fill:#e02424" d="M63.148 345.372a41.816 41.816 0 0 1-2.094-19.344c-15.176 8.744-28.321 18.605-38.569 29.118a4.906 4.906 0 0 0-1.109 5.068 4.915 4.915 0 0 0 4.062 3.236c14.59 1.685 31.025 1.038 48.321-1.762a41.792 41.792 0 0 1-10.611-16.316z"/><path style="fill:#fff" d="M499.793 228.309a4.91 4.91 0 0 0-3.584-3.756c-26.449-6.798-60.271-6.546-95.236.714-17.664 3.669-34.34 8.866-49.303 15.269a103.686 103.686 0 0 1 10.962 35.472c15.241-.32 31.361-2.162 47.747-5.564 34.96-7.261 66.08-20.495 87.624-37.262a4.907 4.907 0 0 0 1.79-4.873z"/><path style="fill:#e02424" d="M456.385 237.325a41.742 41.742 0 0 1-.568 19.449c16.228-6.594 30.602-14.574 42.188-23.592a4.911 4.911 0 0 0-1.795-8.629c-14.223-3.656-30.59-5.255-48.108-4.838a41.712 41.712 0 0 1 8.283 17.61z"/><path style="fill:#fff" d="M154.279 274.131a103.74 103.74 0 0 1 10.763-33.684c-16.016-7.249-34.168-13.092-53.508-17.1-34.961-7.243-68.783-7.482-95.232-.667a4.909 4.909 0 0 0-1.794 8.626c21.554 16.758 52.678 29.976 87.644 37.225 17.963 3.724 35.613 5.582 52.127 5.6z"/><path style="fill:#e02424" d="M56.13 235.434a41.84 41.84 0 0 1 8.272-17.615c-17.513-.406-33.876 1.197-48.1 4.863a4.909 4.909 0 0 0-1.794 8.626c11.588 9.011 25.97 16.988 42.203 23.572a41.74 41.74 0 0 1-.581-19.446z"/><path style="fill:#fff" d="M438.526 109.038a4.922 4.922 0 0 0-5.018-1.35c-26.135 7.916-54.902 25.685-81 50.033-14.616 13.638-27.225 28.251-37.194 42.95a105.48 105.48 0 0 1 25.756 23.437c14.547-8.722 29.134-19.757 42.97-32.668 26.097-24.347 45.803-51.805 55.49-77.312a4.902 4.902 0 0 0-1.004-5.09z"/><path style="fill:#e02424" d="M406.125 139.269a41.752 41.752 0 0 1 9.629 16.913c10.441-14.057 18.57-28.334 23.779-42.052a4.912 4.912 0 0 0-1.006-5.092 4.922 4.922 0 0 0-5.018-1.35c-14.054 4.257-28.87 11.385-43.621 20.833a41.803 41.803 0 0 1 16.237 10.748z"/><path style="fill:#fff" d="M73.9 112.73c9.7 25.505 29.417 52.951 55.523 77.293 14.777 13.773 30.409 25.433 45.933 34.398a105.49 105.49 0 0 1 24.435-22.725c-10.219-15.527-23.401-31.014-38.848-45.412-26.107-24.332-54.879-42.09-81.023-49.991a4.91 4.91 0 0 0-5.012 1.349 4.896 4.896 0 0 0-1.008 5.088z"/><path style="fill:#e02424" d="M107.316 137.856a41.883 41.883 0 0 1 16.232-10.757c-14.754-9.436-29.568-16.557-43.63-20.808a4.91 4.91 0 0 0-5.012 1.349 4.904 4.904 0 0 0-1.006 5.091c5.212 13.714 13.352 27.993 23.799 42.042a41.79 41.79 0 0 1 9.617-16.917z"/><path style="fill:#fff" d="M298.53 191.89c8.848-15.964 16.343-34.405 21.919-54.282 9.633-34.348 12.189-68.034 7.199-94.855a4.91 4.91 0 0 0-3.508-3.828 4.915 4.915 0 0 0-4.987 1.451c-18.214 20.327-33.551 50.437-43.186 84.785-5.712 20.365-8.915 40.486-9.553 59.093a104.723 104.723 0 0 1 32.116 7.636z"/><path style="fill:#e02424" d="M312.177 81.57a41.813 41.813 0 0 1 17.025 9.452c1.609-17.429 1.128-33.846-1.555-48.27a4.91 4.91 0 0 0-3.508-3.828 4.916 4.916 0 0 0-4.987 1.451c-9.795 10.931-18.744 24.71-26.437 40.436a41.836 41.836 0 0 1 19.462.759z"/><path style="fill:#fff" d="M216.251 192.69a104.69 104.69 0 0 1 31.394-8.208c-.583-18.822-3.804-39.216-9.603-59.863-9.652-34.339-24.999-64.444-43.228-84.764a4.915 4.915 0 0 0-4.985-1.447 4.91 4.91 0 0 0-3.506 3.827c-4.981 26.826-2.407 60.51 7.235 94.855 5.742 20.43 13.513 39.338 22.693 55.6z"/><path style="fill:#fffbca" d="M258.333 183.947c5.114 0 10.138.372 15.055 1.074 4.425-18.111 6.782-38.38 6.782-59.563 0-35.671-6.636-68.797-18.686-93.278a4.917 4.917 0 0 0-8.822 0c-12.05 24.481-18.686 57.608-18.686 93.278 0 21.33 2.39 41.733 6.874 59.939a106.271 106.271 0 0 1 17.483-1.45z"/><path style="fill:#e02424" d="M201.805 81.045c6.567-1.84 13.206-2 19.466-.768-7.701-15.718-16.655-29.492-26.457-40.422a4.915 4.915 0 0 0-4.985-1.447 4.91 4.91 0 0 0-3.506 3.827c-2.68 14.422-3.154 30.846-1.536 48.273a41.885 41.885 0 0 1 17.018-9.463z"/><path style="fill:#fffbca" d="M193.992 205.874c8.604-6.652 18.272-12 28.71-15.749-5.643-17.939-14.244-36.678-25.388-54.968-18.568-30.466-41.476-55.318-64.517-69.971a4.91 4.91 0 0 0-5.19-.051 4.907 4.907 0 0 0-2.344 4.63c2.45 27.173 14.026 58.915 32.587 89.389 10.844 17.795 23.174 33.67 36.142 46.72z"/><path style="fill:#0853a4" d="M150.652 102.964a41.926 41.926 0 0 1 18.536-5.984c-11.66-13.062-24.002-23.911-36.393-31.793a4.91 4.91 0 0 0-5.19-.051 4.907 4.907 0 0 0-2.344 4.63c1.314 14.61 5.296 30.553 11.56 46.897a41.875 41.875 0 0 1 13.831-13.699z"/><path style="fill:#fffbca" d="M386.157 66.129a4.923 4.923 0 0 0-5.196.052c-23.028 14.665-45.929 39.526-64.485 70.005-10.757 17.672-19.144 35.766-24.784 53.153a104.897 104.897 0 0 1 29.929 15.732c12.305-12.701 23.991-27.932 34.327-44.912 18.554-30.478 30.113-62.227 32.552-89.398a4.915 4.915 0 0 0-2.343-4.632z"/><path style="fill:#0853a4" d="M363.121 103.97a41.804 41.804 0 0 1 13.84 13.69c6.257-16.348 10.228-32.287 11.539-46.899a4.913 4.913 0 0 0-2.343-4.632 4.923 4.923 0 0 0-5.196.052c-12.384 7.886-24.724 18.743-36.377 31.814a41.849 41.849 0 0 1 18.537 5.975z"/><path style="fill:#fffbca" d="M477.366 164.468a4.916 4.916 0 0 0-4.466-2.651c-27.304.579-59.804 9.937-91.512 26.35-16.954 8.777-32.387 18.904-45.559 29.783a104.734 104.734 0 0 1 19.455 30.283c15.486-4.463 31.522-10.9 47.361-19.099 31.704-16.413 58.096-37.542 74.313-59.493a4.908 4.908 0 0 0 .408-5.173z"/><path style="fill:#0853a4" d="M438.001 184.847a41.723 41.723 0 0 1 4.704 18.88c13.848-10.723 25.532-22.28 34.253-34.086a4.912 4.912 0 0 0-4.058-7.825c-14.684.311-30.876 3.183-47.631 8.305a41.792 41.792 0 0 1 12.732 14.726z"/><path style="fill:#fffbca" d="M501.712 291.245c-23.631-13.675-56.269-22.545-91.896-24.977-16.894-1.153-33.303-.76-48.599 1.055a104.793 104.793 0 0 1 2.18 21.303v14.616c4.129.38 7.839 2.18 10.661 4.891 10.448 1.996 21.381 3.404 32.613 4.171 35.625 2.43 69.166-1.928 94.44-12.267a4.915 4.915 0 0 0 3.039-4.21 4.913 4.913 0 0 0-2.438-4.582z"/><path style="fill:#0853a4" d="M459.915 292.812a41.726 41.726 0 0 1-5.801 18.574c17.408-1.977 33.404-5.789 46.996-11.348a4.915 4.915 0 0 0 3.039-4.21 4.909 4.909 0 0 0-2.437-4.584c-12.709-7.354-28.038-13.304-45.018-17.623a41.726 41.726 0 0 1 3.221 19.191z"/><path style="fill:#fffbca" d="M459.01 416.786c-13.079-23.947-36.351-48.463-65.53-69.032a277.388 277.388 0 0 0-20.525-13.155 18.064 18.064 0 0 1-2.219 1.552c3.19 11.664 4.894 24.984 4.894 38.968 0 5.377-.251 10.656-.741 15.782 26.756 17.523 54.523 29.196 79.031 33.087a4.919 4.919 0 0 0 5.09-7.202z"/><path style="fill:#0853a4" d="M422.483 396.434a41.836 41.836 0 0 1-14.616 12.86c15.901 7.345 31.549 12.389 46.055 14.693a4.919 4.919 0 0 0 4.785-2.021 4.901 4.901 0 0 0 .304-5.181c-7.033-12.877-17.036-25.917-29.298-38.419a41.806 41.806 0 0 1-7.23 18.068z"/><path style="fill:#fffbca" d="M138.513 375.117c0-13.983 1.706-27.305 4.896-38.968a17.9 17.9 0 0 1-4.447-3.705 277.174 277.174 0 0 0-21.459 13.718c-29.166 20.578-52.428 45.105-65.494 69.061a4.914 4.914 0 0 0 5.087 7.201c25.377-4.041 54.247-16.409 81.87-34.997a166.926 166.926 0 0 1-.453-12.31z"/><path style="fill:#0853a4" d="M88.526 394.855a41.788 41.788 0 0 1-7.24-18.063c-12.253 12.508-22.247 25.547-29.277 38.431a4.914 4.914 0 0 0 5.087 7.201c14.504-2.307 30.154-7.361 46.053-14.717a41.824 41.824 0 0 1-14.623-12.852z"/><path style="fill:#fffbca" d="M151.297 303.215c.662-.166 1.318-.339 1.975-.509v-14.08c0-7.772.857-15.342 2.469-22.631-16.687-2.354-34.836-2.964-53.579-1.678-35.623 2.447-68.255 11.33-91.882 25.02a4.907 4.907 0 0 0-2.435 4.581 4.908 4.908 0 0 0 3.038 4.21c25.28 10.329 58.821 14.669 94.449 12.227 13.913-.956 27.359-2.906 40-5.728a17.666 17.666 0 0 1 5.965-1.412z"/><path style="fill:#0853a4" d="M52.076 290.884a41.805 41.805 0 0 1 3.207-19.191c-16.974 4.329-32.296 10.282-45.004 17.644a4.907 4.907 0 0 0-2.435 4.581 4.907 4.907 0 0 0 3.038 4.21c13.593 5.555 29.595 9.36 47.005 11.326a41.754 41.754 0 0 1-5.811-18.57z"/><path style="fill:#fffbca" d="M180.167 218.688c-13.805-11.821-30.289-22.825-48.544-32.264-31.709-16.395-64.211-25.741-91.521-26.304a4.912 4.912 0 0 0-4.056 7.824c16.227 21.945 42.629 43.06 74.339 59.464 17.181 8.885 34.591 15.678 51.285 20.146a104.734 104.734 0 0 1 18.497-28.866z"/><path style="fill:#0853a4" d="M75.01 183.131a41.853 41.853 0 0 1 12.726-14.732c-16.755-5.112-32.943-7.976-47.633-8.28a4.912 4.912 0 0 0-4.056 7.824c8.724 11.8 20.417 23.357 34.27 34.07a41.772 41.772 0 0 1 4.693-18.882z"/><path style="fill:#d69363" d="M258.333 252.692c-58.023 0-105.061 46.923-105.061 104.805v20.267c0 57.882 47.038 104.805 105.063 104.805 58.023 0 105.061-46.923 105.061-104.805v-20.267c0-57.882-47.038-104.805-105.063-104.805z"/><path style="opacity:.1;enable-background:new" d="M185.889 377.764v-20.267c0-52.348 38.474-95.729 88.752-103.546a106.017 106.017 0 0 0-16.309-1.259c-58.023 0-105.061 46.923-105.061 104.805v20.267c0 57.882 47.038 104.805 105.063 104.805 5.548 0 10.992-.433 16.308-1.259-50.279-7.817-88.753-51.198-88.753-103.546z"/><path style="fill:#0853a4" d="M257.075 73.725a41.831 41.831 0 0 1 18.946 4.515c-3.159-17.217-8.056-32.896-14.536-46.061a4.917 4.917 0 0 0-8.822 0c-6.479 13.165-11.377 28.844-14.536 46.061a41.859 41.859 0 0 1 18.948-4.515z"/><path style="fill:#971311" d="M258.333 183.947c-58.025 0-105.061 46.867-105.061 104.679v23.624l1.372-11.172c8.119-49.766 51.443-87.762 103.688-87.762 52.243 0 95.573 37.994 103.691 87.762l1.372 11.172v-23.624c.001-57.812-47.037-104.679-105.062-104.679z"/><path style="fill:#8c561f" d="M258.333 213.317c-58.025 0-105.061 46.866-105.061 104.679v12.452h3.842c12.335-44.148 52.978-76.546 101.219-76.546 48.243 0 88.885 32.398 101.221 76.546h3.842v-12.452c0-57.813-47.038-104.679-105.063-104.679z"/><path style="fill:#fff" d="M361.746 328.427c-2.175 0-4.249-.409-6.175-1.123-5 13.538-7.712 30.153-7.712 47.813 0 21.448 3.99 41.365 11.237 56.084a2.954 2.954 0 0 0 5.302 0c7.245-14.718 11.235-34.636 11.235-56.084 0-17.66-2.71-34.276-7.711-47.812a17.731 17.731 0 0 1-6.176 1.122z"/><ellipse style="fill:#971311" cx="361.75" cy="320.881" rx="17.762" ry="17.724"/><path style="fill:#fff" d="M152.4 328.427c-2.174 0-4.249-.409-6.174-1.123-5.001 13.538-7.712 30.153-7.712 47.813 0 21.448 3.989 41.365 11.236 56.084a2.954 2.954 0 0 0 5.302 0c7.246-14.718 11.236-34.636 11.236-56.084 0-17.66-2.71-34.276-7.711-47.812a17.733 17.733 0 0 1-6.177 1.122z"/><ellipse style="fill:#971311" cx="152.405" cy="320.881" rx="17.762" ry="17.724"/><path d="M266.169 383.432v-40.733c0-4.328-3.508-7.837-7.837-7.837s-7.837 3.509-7.837 7.837v40.732a7.837 7.837 0 0 0 7.837 7.837 7.836 7.836 0 0 0 7.837-7.836zM210.062 342.698v13.881c0 4.328 3.508 7.837 7.837 7.837s7.837-3.509 7.837-7.837v-13.881c0-4.328-3.508-7.837-7.837-7.837s-7.837 3.509-7.837 7.837zM290.932 342.698v13.881a7.837 7.837 0 1 0 15.674 0v-13.881a7.837 7.837 0 0 0-15.674 0zM234.744 430.025h47.177a7.837 7.837 0 0 0 7.837-7.837 7.837 7.837 0 0 0-7.837-7.837h-47.177a7.837 7.837 0 0 0-7.837 7.837 7.837 7.837 0 0 0 7.837 7.837zM241.863 317.785a7.837 7.837 0 0 0-7.837-7.837h-32.433a7.837 7.837 0 0 0-7.837 7.837 7.837 7.837 0 0 0 7.837 7.837h32.433a7.837 7.837 0 0 0 7.837-7.837zM323.438 317.785a7.837 7.837 0 0 0-7.837-7.837h-32.434a7.837 7.837 0 0 0-7.837 7.837 7.837 7.837 0 0 0 7.837 7.837h32.434a7.837 7.837 0 0 0 7.837-7.837z"/><path d="M505.637 284.462c-14.066-8.14-31.135-14.635-50.031-19.185 18.207-7.096 34.329-15.883 47.218-25.914 3.86-3.01 5.639-7.859 4.641-12.647-.981-4.721-4.632-8.548-9.305-9.752-13.341-3.429-28.386-5.168-44.716-5.168-2.848 0-5.728.074-8.621.183 15.61-11.742 28.743-24.556 38.445-37.687 2.902-3.939 3.306-9.083 1.053-13.432a12.71 12.71 0 0 0-11.588-6.877c-16.249.345-34.205 3.651-52.713 9.567 11.859-15.511 21.047-31.389 26.843-46.65a12.675 12.675 0 0 0-2.612-13.212 12.81 12.81 0 0 0-9.322-4.046c-1.25 0-2.492.184-3.693.546-15.559 4.711-31.961 12.737-48.189 23.426 7.232-18.135 11.798-35.906 13.258-52.165.429-4.873-1.9-9.478-6.081-12.018-4.077-2.473-9.454-2.419-13.473.141-13.715 8.733-27.351 20.883-40.096 35.558 2.072-19.419 1.679-37.767-1.306-53.817a12.667 12.667 0 0 0-9.097-9.935 12.765 12.765 0 0 0-12.939 3.768c-10.848 12.106-20.686 27.494-28.991 45.063-3.253-19.268-8.596-36.837-15.81-51.494a12.673 12.673 0 0 0-11.439-7.114c-4.824 0-9.316 2.795-11.443 7.118-7.195 14.618-12.529 32.134-15.783 51.345-8.354-17.732-18.266-33.254-29.198-45.44a12.762 12.762 0 0 0-12.929-3.765c-4.652 1.3-8.225 5.204-9.103 9.944-2.964 15.966-3.36 34.211-1.313 53.526C164.5 79.56 150.793 67.34 137.009 58.573c-4.018-2.559-9.388-2.616-13.466-.142-4.13 2.507-6.518 7.231-6.083 12.034 1.459 16.167 5.99 33.836 13.168 51.877-16.312-10.76-32.803-18.831-48.435-23.555a12.737 12.737 0 0 0-3.693-.546c-3.516 0-6.91 1.473-9.311 4.04-3.301 3.525-4.327 8.72-2.61 13.233 5.77 15.175 14.908 30.967 26.69 46.402-18.612-5.964-36.67-9.295-52.999-9.633a12.704 12.704 0 0 0-11.578 6.871c-2.229 4.286-1.813 9.565 1.058 13.448 9.654 13.056 22.709 25.801 38.222 37.488a230.576 230.576 0 0 0-8.799-.189c-16.374 0-31.455 1.747-44.824 5.193-4.737 1.221-8.299 4.955-9.295 9.739-.987 4.726.837 9.696 4.649 12.662 12.825 9.973 28.857 18.715 46.959 25.785-19.008 4.563-36.176 11.089-50.309 19.278-4.231 2.453-6.653 7.009-6.322 11.89.327 4.816 3.423 9.108 7.892 10.934 15.045 6.147 32.759 10.266 52.134 12.201-17.05 9.509-31.795 20.411-43.179 32.092-3.416 3.505-4.519 8.548-2.881 13.16 1.615 4.545 5.753 7.841 10.547 8.398 5.631.65 11.596.98 17.733.98 11.376 0 23.407-1.134 35.787-3.303-13.858 13.758-25.118 28.239-32.932 42.567a12.671 12.671 0 0 0 .784 13.445 12.77 12.77 0 0 0 12.42 5.24c23.177-3.691 49.034-13.996 74.276-29.39 1.963 12.698 5.386 24.29 10.109 33.883 1.799 3.664 5.601 6.032 9.686 6.032 3.768 0 7.162-1.924 9.123-5.065 19.759 32.789 55.75 54.783 96.811 54.783 18.719-.001 37.263-4.668 53.628-13.498a7.835 7.835 0 0 0 3.175-10.618 7.835 7.835 0 0 0-10.618-3.175c-14.085 7.6-30.056 11.617-46.185 11.618-39.667 0-73.835-23.829-88.938-57.876a5.166 5.166 0 0 0 2.039.418h26.04c2.873 0 5.224-2.351 5.224-5.224v-5.224c0-2.873-2.351-5.224-5.224-5.224h-25.409c.363-2.257.663-4.56.932-6.884h24.478c2.873 0 5.224-2.351 5.224-5.224v-5.224c0-2.873-2.351-5.224-5.224-5.224H174.07c.029-1.305.061-2.609.061-3.926 0-12.678-1.343-24.84-3.896-35.916 4.789-4.648 7.773-11.14 7.773-18.319 0-4.371-1.107-8.487-3.05-12.088 17.267-28.581 48.738-47.058 83.383-47.058 12.276 0 24.237 2.247 35.55 6.677a7.836 7.836 0 0 0 10.155-4.439 7.836 7.836 0 0 0-4.439-10.154c-13.143-5.147-27.026-7.756-41.267-7.756-39.021 0-74.587 20.195-94.987 51.718-.031-.016-.064-.028-.097-.044 3.616-16.913 11.736-32.627 23.74-45.534 16.607-17.857 39.111-28.771 63.37-30.73a7.836 7.836 0 0 0 7.181-8.442c-.348-4.314-4.148-7.524-8.442-7.181-28.174 2.275-54.306 14.946-73.587 35.679a112.132 112.132 0 0 0-5.186 5.984c15.552-32.897 49.148-55.731 88.008-55.731 38.978 0 72.656 22.972 88.145 56.029-16.153-20.178-39.183-34.842-65.968-40.162a7.837 7.837 0 1 0-3.052 15.374c38.128 7.571 67.434 37.121 75.725 73.774a28.26 28.26 0 0 0-.438.16c-7.045-10.698-15.892-20.24-26.188-28.034a7.837 7.837 0 0 0-9.46 12.497c9.253 7.004 17.147 15.638 23.329 25.335a25.382 25.382 0 0 0-4.278 14.126c0 7.178 2.983 13.67 7.772 18.318-2.555 11.076-3.897 23.24-3.897 35.917 0 1.317.037 2.62.066 3.926H321.82c-2.873 0-5.224 2.351-5.224 5.224v5.224c0 2.873 2.351 5.224 5.224 5.224h19.342c.27 2.328.586 4.623.95 6.884H321.82c-2.873 0-5.224 2.351-5.224 5.224v5.224c0 2.873 2.351 5.224 5.224 5.224h23.091c.212 0 .415-.039.621-.063.212.749.409 1.515.632 2.252-4.768 9.976-11.275 19.165-19.388 27.182a7.836 7.836 0 0 0-.064 11.082 7.81 7.81 0 0 0 5.573 2.328 7.81 7.81 0 0 0 5.508-2.263 113.497 113.497 0 0 0 16.323-20.317c1.999 2.003 4.741 3.212 7.639 3.212 4.144 0 7.854-2.309 9.683-6.025 4.326-8.789 7.565-19.248 9.589-30.698 24.412 14.505 49.297 24.209 71.688 27.765a12.765 12.765 0 0 0 12.395-5.231c2.792-3.941 3.101-9.226.787-13.469-7.782-14.249-18.975-28.651-32.746-42.341 12.451 2.191 24.552 3.336 35.989 3.336 6.165 0 12.159-.332 17.823-.99 4.862-.569 8.899-3.787 10.532-8.383 1.622-4.542.495-9.712-2.878-13.179-11.338-11.618-26.002-22.462-42.95-31.929 19.486-1.931 37.301-6.068 52.429-12.256 4.528-1.859 7.548-6.045 7.881-10.921.322-4.812-2.162-9.485-6.34-11.904zm-17.495-53.732c-6.873 4.831-14.631 9.31-23.069 13.385a49.887 49.887 0 0 0-3.429-16.476c9.438.378 18.311 1.406 26.498 3.091zm-439.685 3.114a50.034 50.034 0 0 0-1.009 8.382c-8.44-4.072-16.199-8.546-23.073-13.373 8.188-1.691 17.058-2.724 26.494-3.106a50.01 50.01 0 0 0-2.412 8.097zm-28.738 59.262c7.467-3.854 15.76-7.237 24.674-10.129a49.958 49.958 0 0 0 1.159 16.806c-9.242-1.649-17.908-3.879-25.833-6.677zm22.553 63.434c-3.3 0-6.538-.106-9.681-.312 6.148-5.722 13.22-11.215 21.023-16.402a50.028 50.028 0 0 0 2.151 8.177 50.023 50.023 0 0 0 3.497 7.686c-5.808.561-11.488.851-16.99.851zm413.438-6.723a50 50 0 0 0 2.148-8.175c7.807 5.184 14.882 10.674 21.034 16.391a147.12 147.12 0 0 1-9.761.318c-5.477 0-11.13-.288-16.914-.842a49.934 49.934 0 0 0 3.493-7.692zm-6.997-110.895a33.69 33.69 0 0 1 .317 12.122c-8.395 3.231-17.289 6.077-26.545 8.502a290.108 290.108 0 0 0-12.136-1.097 291.31 291.31 0 0 0-14.175-.618l22.542-4.681a7.837 7.837 0 1 0-3.186-15.345l-22.364 4.644a290.741 290.741 0 0 0 13.085-6.354 290.756 290.756 0 0 0 10.467-5.698c9.32-1.428 18.498-2.34 27.455-2.713a33.817 33.817 0 0 1 4.54 11.238zm18.091-68.985c-5.314 6.506-11.574 12.91-18.601 19.108a50.047 50.047 0 0 0-3.246-7.81 50.035 50.035 0 0 0-4.508-7.137c9.128-2.161 17.976-3.578 26.355-4.161zm-43.186 8.908a33.773 33.773 0 0 1 7.426 9.61 33.742 33.742 0 0 1 3.578 11.586c-10.705 7.977-22.671 15.452-35.58 22.134-13.22 6.843-26.549 12.395-39.535 16.566a112.226 112.226 0 0 0-1.815-3.498l48.303-25.004a7.836 7.836 0 0 0 3.356-10.562 7.835 7.835 0 0 0-10.562-3.357l-49.559 25.655a112.709 112.709 0 0 0-2.209-2.894c11.301-8.66 24.085-16.766 37.967-23.953 12.916-6.685 25.935-12.144 38.63-16.283zm6.218-61.695c-3.36 7.696-7.659 15.549-12.751 23.412a50.072 50.072 0 0 0-5.236-6.648 50.298 50.298 0 0 0-6.265-5.656c8.2-4.536 16.336-8.284 24.252-11.108zm-39.183 20.216a33.803 33.803 0 0 1 9.748 7.254 33.751 33.751 0 0 1 6.576 10.193c-5.492 7.116-11.609 14.161-18.255 21.035-3.651 1.7-7.3 3.477-10.937 5.359a291.705 291.705 0 0 0-12.459 6.843l16.837-15.709a7.837 7.837 0 0 0-10.692-11.461l-16.709 15.589a288.494 288.494 0 0 0 7.88-12.237 289.71 289.71 0 0 0 5.955-10.278c7.255-6.087 14.642-11.646 22.056-16.588zM379.98 76.28c-1.157 8.316-3.174 17.038-5.953 25.982a50.095 50.095 0 0 0-14.401-8.749c6.671-6.579 13.495-12.381 20.354-17.233zm-56.81 63.981c7.555-12.41 15.839-23.827 24.536-33.953a33.835 33.835 0 0 1 11.347 4.359 33.748 33.748 0 0 1 9.087 8.046c-4.998 12.369-11.334 24.965-18.887 37.371-8.759 14.388-18.493 27.447-28.722 38.69a116.57 116.57 0 0 0-2.527-1.621l30.974-50.882a7.838 7.838 0 0 0-13.389-8.15l-31.457 51.674c-.849-.377-1.704-.744-2.564-1.101 5.328-14.609 12.607-29.655 21.602-44.433zm-2.237-89.901c1.133 8.319 1.545 17.262 1.284 26.623a50.193 50.193 0 0 0-16.232-4.543c4.65-8.134 9.653-15.559 14.948-22.08zm-33.183 63.231c3.03-8.966 6.451-17.548 10.214-25.618a33.81 33.81 0 0 1 12.102 1.142 33.781 33.781 0 0 1 10.928 5.3c-.991 8.92-2.55 18.105-4.649 27.416a289.574 289.574 0 0 0-6.562 10.279 288.284 288.284 0 0 0-7.109 12.362l6.231-22.214a7.838 7.838 0 0 0-15.091-4.233l-6.182 22.038c.243-4.816.376-9.686.376-14.607a292.845 292.845 0 0 0-.258-11.865zm-30.675-72.276c3.337 7.706 6.15 16.204 8.428 25.289a50.16 50.16 0 0 0-16.857 0c2.277-9.085 5.089-17.584 8.429-25.289zm-11.96 42.409a33.809 33.809 0 0 1 11.959-2.161c4.141 0 8.147.729 11.958 2.161 2.163 13.163 3.301 27.213 3.301 41.734 0 17.994-1.745 35.263-5.036 51.007-.792-.063-1.589-.113-2.385-.159v-62.522a7.837 7.837 0 0 0-7.837-7.837 7.837 7.837 0 0 0-7.837 7.837v62.693c-.782.063-1.563.13-2.34.208-3.323-15.804-5.083-33.149-5.083-51.226-.001-14.523 1.137-28.572 3.3-41.735zm-29.088 3.722c3.827 8.199 7.305 16.922 10.376 26.052a290.161 290.161 0 0 0-.261 11.961c0 4.9.132 9.752.373 14.549l-6.325-22.51a7.836 7.836 0 0 0-9.664-5.425 7.836 7.836 0 0 0-5.425 9.664l6.185 22.015a288.668 288.668 0 0 0-7.28-12.67 290.435 290.435 0 0 0-6.411-10.042c-2.075-9.219-3.612-18.307-4.595-27.138a33.886 33.886 0 0 1 10.921-5.308 33.825 33.825 0 0 1 12.106-1.148zm-22.988-37.603c5.298 6.516 10.305 13.939 14.956 22.07a50.205 50.205 0 0 0-8.31 1.588 50.186 50.186 0 0 0-7.919 2.965c-.265-9.361.145-18.303 1.273-26.623zm-26.968 55.453c8.701 10.121 16.989 21.533 24.55 33.94 9.404 15.434 16.934 31.162 22.322 46.38-.723.318-1.442.643-2.157.975l-32.588-53.483a7.835 7.835 0 0 0-10.77-2.615 7.837 7.837 0 0 0-2.614 10.77l32.239 52.909c-.707.458-1.411.922-2.108 1.395-10.844-11.638-21.164-25.327-30.405-40.489-7.556-12.406-13.896-24.998-18.898-37.364a33.788 33.788 0 0 1 9.078-8.051 33.837 33.837 0 0 1 11.351-4.367zm-11.927-12.79a50.118 50.118 0 0 0-7.567 3.765 50.053 50.053 0 0 0-6.826 4.993c-2.783-8.943-4.805-17.662-5.965-25.977 6.86 4.846 13.684 10.644 20.358 17.219zm-31.355 43.44c7.484 4.984 14.941 10.589 22.263 16.745a290.735 290.735 0 0 0 6.106 10.541 290.512 290.512 0 0 0 7.683 11.937l-16.856-15.714a7.838 7.838 0 0 0-10.687 11.465l16.685 15.554a288.935 288.935 0 0 0-12.758-7.011 291.082 291.082 0 0 0-10.679-5.232c-6.579-6.807-12.628-13.784-18.068-20.828a33.807 33.807 0 0 1 6.565-10.196 33.823 33.823 0 0 1 9.746-7.261zM83.6 115.752c7.915 2.818 16.052 6.562 24.254 11.095a50.091 50.091 0 0 0-6.268 5.662 50.288 50.288 0 0 0-5.226 6.646c-5.094-7.86-9.397-15.71-12.76-23.403zm-1.633 70.986a33.792 33.792 0 0 1 7.423-9.615c12.701 4.133 25.719 9.584 38.635 16.262 15.175 7.848 29.058 16.789 41.104 26.361-.597.766-1.183 1.54-1.761 2.322l-53.138-27.48a7.838 7.838 0 0 0-7.2 13.922l51.891 26.834c-.512.945-1.008 1.9-1.493 2.861-14.21-4.272-28.889-10.235-43.438-17.759-12.911-6.679-24.881-14.15-35.59-22.121a33.684 33.684 0 0 1 3.567-11.587zm-17.153.596c-7.029-6.195-13.291-12.594-18.608-19.095 8.382.582 17.228 1.994 26.349 4.148a50.315 50.315 0 0 0-4.507 7.142 50.068 50.068 0 0 0-3.234 7.805zm-1.012 49.695a33.786 33.786 0 0 1 4.54-11.244c9.036.372 18.292 1.278 27.701 2.73a290.238 290.238 0 0 0 10.745 5.852 290.583 290.583 0 0 0 12.759 6.203l-22.556-4.674c-4.226-.876-8.385 1.845-9.263 6.083a7.836 7.836 0 0 0 6.083 9.264l22.315 4.624c-4.804.09-9.662.3-14.502.631-3.989.274-7.936.643-11.848 1.072-9.166-2.403-17.965-5.227-26.28-8.423a33.69 33.69 0 0 1 .306-12.118zm-3.907 53.317a33.74 33.74 0 0 1 1.336-12.056c13-3.059 26.959-5.159 41.467-6.154 6.255-.429 12.54-.647 18.679-.647 8.685 0 17.103.434 25.186 1.268-.18 1.266-.341 2.538-.479 3.817l-54.532 3.743a7.837 7.837 0 0 0-7.282 8.355 7.836 7.836 0 0 0 8.355 7.282l52.81-3.625v3.963c-.77.217-1.52.48-2.259.766-12.116 2.687-25.005 4.559-38.379 5.478-6.251.428-12.531.646-18.666.646-7.989 0-15.76-.362-23.251-1.066a33.692 33.692 0 0 1-2.985-11.77zm16.687 62.926a33.703 33.703 0 0 1-6.052-10.528 33.772 33.772 0 0 1-1.969-11.967c7.869-4.342 16.279-8.373 25.116-12.032 4.049-.109 8.123-.292 12.19-.57 4.768-.328 9.48-.773 14.134-1.323l-21.693 7.708a7.838 7.838 0 0 0 2.622 15.223c.87 0 1.758-.146 2.624-.454l21.525-7.649a289.792 289.792 0 0 0-12.097 8.079 288.58 288.58 0 0 0-9.616 7.09c-9.052 2.694-18.018 4.839-26.784 6.423zm-14.553 60.273c4.376-7.168 9.702-14.364 15.816-21.462a49.948 49.948 0 0 0 9.721 13.749c-8.742 3.382-17.313 5.991-25.537 7.713zm41.565-14.706a33.762 33.762 0 0 1-8.669-8.508 33.724 33.724 0 0 1-5.127-10.992c9.516-9.359 20.348-18.394 32.224-26.772a273.094 273.094 0 0 1 11.365-7.586 152.454 152.454 0 0 0-1.485 9.683l-15.134 10.677a7.836 7.836 0 0 0 4.524 14.241 7.794 7.794 0 0 0 4.51-1.434l4.881-3.443c0 .139-.005.276-.005.415 0 2.774.066 5.526.194 8.249-9.055 5.878-18.203 11.066-27.278 15.47zm48.806 18.033c-3.936-12.025-6.05-26.437-6.05-41.755 0-10.18.95-19.926 2.75-28.893 1.08.14 2.181.219 3.3.219 1.119 0 2.219-.079 3.301-.219 1.8 8.967 2.749 18.714 2.749 28.893 0 15.317-2.115 29.731-6.05 41.755zm0-86.102c-5.471 0-9.923-4.436-9.923-9.887s4.452-9.887 9.923-9.887c5.473 0 9.927 4.436 9.927 9.887s-4.454 9.887-9.927 9.887zm209.346 86.102c-3.936-12.025-6.051-26.438-6.051-41.754 0-10.179.949-19.925 2.75-28.895a25.68 25.68 0 0 0 3.301.219c1.118 0 2.218-.079 3.3-.219 1.8 8.967 2.749 18.714 2.749 28.893 0 15.318-2.115 29.731-6.049 41.756zm0-86.102c-5.472 0-9.924-4.436-9.924-9.887s4.452-9.887 9.924-9.887c5.473 0 9.927 4.436 9.927 9.887s-4.454 9.887-9.927 9.887zm54.336 61.142a33.75 33.75 0 0 1-8.664 8.514c-8.096-3.924-16.253-8.467-24.347-13.571.186-2.756.305-5.545.358-8.361l1.771 1.249a7.796 7.796 0 0 0 4.508 1.433 7.835 7.835 0 0 0 4.523-14.242l-11.541-8.135a157.913 157.913 0 0 0-1.225-9.735 279.418 279.418 0 0 1 7.5 5.096c11.878 8.374 22.717 17.405 32.238 26.761a33.783 33.783 0 0 1-5.121 10.991zm17.078 1.746c6.117 7.096 11.449 14.29 15.828 21.455-8.226-1.719-16.798-4.324-25.54-7.701a50.008 50.008 0 0 0 5.436-6.458 50.006 50.006 0 0 0 4.276-7.296zm7.784-49.09a33.724 33.724 0 0 1-6.045 10.532c-8.859-1.596-17.925-3.778-27.075-6.506a289.846 289.846 0 0 0-9.827-7.246 289.573 289.573 0 0 0-11.803-7.889l21.724 7.709a7.83 7.83 0 0 0 10.006-4.765 7.837 7.837 0 0 0-4.766-10.007l-21.514-7.635a290.58 290.58 0 0 0 14.493 1.362c3.967.271 7.944.45 11.896.559 8.743 3.63 17.076 7.621 24.874 11.918a33.764 33.764 0 0 1-1.963 11.968zm11.152-52.29a33.688 33.688 0 0 1-2.977 11.773 249.124 249.124 0 0 1-23.352 1.075c-6.102 0-12.348-.215-18.565-.638a267.035 267.035 0 0 1-29.667-3.685 25.693 25.693 0 0 0-6.305-3.646v-2.539l48.137 3.284a7.838 7.838 0 0 0 1.068-15.637l-49.634-3.387a110.646 110.646 0 0 0-.486-4.599 249.72 249.72 0 0 1 20.406-.831c6.1 0 12.344.215 18.557.638 14.509.991 28.468 3.082 41.472 6.137a33.647 33.647 0 0 1 1.346 12.055zm14.347 9.429a49.896 49.896 0 0 0 1.149-16.806c8.917 2.888 17.214 6.268 24.683 10.118-7.923 2.802-16.588 5.035-25.832 6.688z"/></svg>