<svg xmlns="http://www.w3.org/2000/svg" style="enable-background:new 0 0 512 512" xml:space="preserve" width="512" height="512"><path style="fill:#2bb4f3" d="M450.046 411.779H308.113V365.74c0-29.21 23.679-52.889 52.889-52.889h36.155c29.21 0 52.889 23.679 52.889 52.889v46.039z"/><path style="fill:#1687c4" d="M397.157 312.851H379.03c26.795 0 48.516 21.721 48.516 48.516v50.412h22.5V365.74c0-29.21-23.679-52.889-52.889-52.889z"/><path style="fill:#f2a077" d="M379.08 343.569c-16.195 0-29.323-13.128-29.323-29.323v-54.891h58.646v54.891c0 16.194-13.129 29.323-29.323 29.323z"/><path style="fill:#fca" d="M464.822 172.966v61.597c0 18.733-7.59 35.699-19.868 47.967-12.278 12.287-29.244 19.877-47.977 19.877-37.476 0-67.854-30.378-67.854-67.844v-1.002h-12.457c-6.144 0-11.125-4.971-11.125-11.115v-7.183a11.11 11.11 0 0 1 6.607-10.161h7.561c2.25 0 4.423-.331 6.474-.964a20.123 20.123 0 0 0 2.939-1.134c7.571-3.535 12.807-11.219 12.807-20.123v-3.866a6.042 6.042 0 0 1 6.049-6.049h116.844z"/><path style="fill:#f2a077" d="M443.988 172.965v61.597c0 18.733-7.59 35.699-19.867 47.968-9.956 9.964-22.996 16.837-37.56 19.08 3.396.523 6.874.797 10.417.797 18.733 0 35.699-7.59 47.977-19.877 12.278-12.268 19.867-29.234 19.867-47.968v-61.597h-20.834z"/><path style="fill:#f9dc6a" d="M504.5 108.278v32.438c0 17.817-14.433 32.249-32.249 32.249H347.98a6.042 6.042 0 0 0-6.049 6.049v3.866c0 8.903-5.236 16.588-12.807 20.123a20.01 20.01 0 0 1-2.939 1.134 21.914 21.914 0 0 1-6.474.964h-8.024v-63.109c0-11.711 8.771-21.55 20.397-22.892l163.439-18.828c4.78-.548 8.977 3.195 8.977 8.006z"/><path style="fill:#e5ac51" d="m495.521 100.272-15.506 1.786c1.791 1.471 2.953 3.694 2.953 6.219v32.438c0 17.817-14.433 32.249-32.249 32.249h21.532c17.816 0 32.249-14.433 32.249-32.249v-32.438c0-4.81-4.197-8.553-8.979-8.005z"/><path style="fill:#75dc5e" d="M202.042 411.779H60.109V365.74c0-29.21 23.679-52.889 52.889-52.889h36.155c29.21 0 52.889 23.679 52.889 52.889v46.039z"/><path style="fill:#2aad52" d="M149.153 312.851h-18.127c26.795 0 48.516 21.721 48.516 48.516v50.412h22.5V365.74c0-29.21-23.679-52.889-52.889-52.889z"/><path style="fill:#f2a077" d="M131.075 339.785c15.177 0 27.48-12.303 27.48-27.48v-47.661h-54.96v47.661c0 15.177 12.304 27.48 27.48 27.48z"/><path style="fill:#fca" d="M206.458 215.262v7.174c0 6.144-4.981 11.125-11.125 11.125h-12.467v1.002c0 37.467-30.368 67.844-67.844 67.844-18.743 0-35.699-7.59-47.977-19.877-12.278-12.268-19.877-29.234-19.877-47.967v-61.597H164.02c3.336 0 6.049 2.703 6.049 6.04v3.866c0 8.903 5.236 16.588 12.798 20.132.945.454 1.928.832 2.949 1.134 2.051.633 4.225.964 6.474.964h7.561a11.106 11.106 0 0 1 6.607 10.16z"/><path style="fill:#f2a077" d="M199.852 205.101h-7.561c-2.25 0-4.423-.331-6.474-.964a19.923 19.923 0 0 1-2.949-1.134c-7.561-3.544-12.798-11.229-12.798-20.132v-3.866c0-3.337-2.713-6.04-6.049-6.04h-20c3.336 0 6.049 2.703 6.049 6.04v3.866c0 8.903 5.236 16.588 12.798 20.132.945.454 0 30.557 0 30.557v1.002c0 34.07-25.114 62.271-57.847 67.105 3.265.482 6.603.739 10.002.739 37.476 0 67.844-30.378 67.844-67.844v-1.002h12.467c6.144 0 11.125-4.981 11.125-11.125v-7.174a11.111 11.111 0 0 0-6.607-10.16z"/><path style="fill:#475d6d" d="M200.315 156.33v48.771h-8.024c-2.25 0-4.423-.331-6.474-.964a19.812 19.812 0 0 1-2.949-1.134c-7.561-3.544-12.798-11.229-12.798-20.132v-3.866c0-3.337-2.713-6.04-6.049-6.04H42.604c-19.385 0-35.104-15.718-35.104-35.113 0-19.386 15.718-35.104 35.104-35.104h47.655a41.115 41.115 0 0 1 33.005 16.597l3.554 4.783h41.295c17.778.001 32.202 14.424 32.202 32.202z"/><path style="fill:#2c3f4f" d="m102.514 119.346 3.554 4.782h20.75l-3.554-4.782a41.117 41.117 0 0 0-33.005-16.597h-20.75a41.115 41.115 0 0 1 33.005 16.597zM168.113 124.129h-20.75c17.779 0 32.202 14.423 32.202 32.202v44.745a22.16 22.16 0 0 0 3.302 1.927c.945.454 1.928.832 2.949 1.134 2.051.633 4.225.964 6.474.964h8.024V156.33c.001-17.778-14.423-32.201-32.201-32.201z"/><path d="M379.888 251.791a7.5 7.5 0 0 0 11.093 10.098c4.455-4.895 10.805-7.701 17.422-7.701s12.967 2.807 17.422 7.701a7.48 7.48 0 0 0 5.548 2.451 7.5 7.5 0 0 0 5.545-12.549c-7.292-8.01-17.685-12.604-28.515-12.604s-21.223 4.594-28.515 12.604zM440.775 215.435a7.5 7.5 0 0 0 7.5-7.5V205.1c0-4.143-3.358-7.5-7.5-7.5s-7.5 3.357-7.5 7.5v2.835a7.5 7.5 0 0 0 7.5 7.5zM376.031 215.435a7.5 7.5 0 0 0 7.5-7.5V205.1c0-4.143-3.358-7.5-7.5-7.5s-7.5 3.357-7.5 7.5v2.835a7.5 7.5 0 0 0 7.5 7.5z"/><path d="M506.797 96.669a15.588 15.588 0 0 0-12.135-3.849l-163.44 18.829c-15.414 1.778-27.037 14.823-27.037 30.342v59.467a18.624 18.624 0 0 0-6.144 13.803v7.184c0 10.265 8.355 18.615 18.625 18.615h5.235c1.497 17.445 8.978 33.197 20.358 45.226v22.032a59.774 59.774 0 0 0-17.027 8.764 7.5 7.5 0 0 0 8.894 12.078 45.14 45.14 0 0 1 9.407-5.319c4.231 15.666 18.56 27.23 35.546 27.23 16.984 0 31.311-11.562 35.544-27.226 16.568 6.944 27.926 23.447 27.926 41.896v38.54H315.61v-38.54c0-5.499.976-10.878 2.899-15.987a7.5 7.5 0 0 0-14.038-5.285 60.16 60.16 0 0 0-3.861 21.272v46.04a7.5 7.5 0 0 0 7.5 7.5h141.94a7.5 7.5 0 0 0 7.5-7.5v-46.04c0-26.172-17.19-49.399-41.65-57.405v-.823c12.889-3.319 24.707-10.022 34.355-19.679 14.229-14.218 22.066-33.138 22.066-53.272v-54.099a39.736 39.736 0 0 0 20.178-5.533 7.5 7.5 0 0 0-7.648-12.904 24.725 24.725 0 0 1-12.601 3.439H347.98c-7.471 0-13.549 6.078-13.549 13.549v3.866c0 7.923-6.444 14.721-14.721 14.721h-.525v-55.609c0-7.897 5.914-14.536 13.755-15.44l163.434-18.828c.063-.007.25-.028.438.14.188.166.188.346.188.413v32.438c0 .843-.043 1.694-.127 2.532a7.5 7.5 0 0 0 6.71 8.214c4.133.425 7.799-2.588 8.215-6.71.134-1.335.203-2.693.203-4.036v-32.438a15.571 15.571 0 0 0-5.204-11.608zM379.08 336.07c-12.032 0-21.82-9.788-21.82-21.82V298.556a74.895 74.895 0 0 0 39.718 11.35c1.313 0 2.62-.037 3.922-.104v4.449c0 12.031-9.788 21.819-21.82 21.819zm-46.784-126.272c10.409-4.859 17.135-15.425 17.135-26.918v-2.415h107.891v54.097c0 16.126-6.275 31.277-17.673 42.666-11.39 11.399-26.544 17.678-42.671 17.678-33.279 0-60.354-27.07-60.354-60.344v-1.002a7.5 7.5 0 0 0-7.5-7.5h-12.457a3.624 3.624 0 0 1-3.625-3.615c.295-6.195-.742-8.085 1.168-9.844-.001-.001 9.864 1.153 18.086-2.803zM103.595 239.184a38.638 38.638 0 0 0-28.514 12.604 7.501 7.501 0 0 0 11.093 10.098c4.455-4.895 10.805-7.701 17.421-7.701s12.967 2.807 17.422 7.701a7.48 7.48 0 0 0 5.548 2.451 7.5 7.5 0 0 0 5.545-12.549 38.641 38.641 0 0 0-28.515-12.604zM78.723 207.932v-2.835c0-4.143-3.358-7.5-7.5-7.5s-7.5 3.357-7.5 7.5v2.835c0 4.143 3.358 7.5 7.5 7.5s7.5-3.357 7.5-7.5zM135.967 197.597a7.5 7.5 0 0 0-7.5 7.5v2.835c0 4.143 3.358 7.5 7.5 7.5s7.5-3.357 7.5-7.5v-2.835a7.5 7.5 0 0 0-7.5-7.5z"/><path d="M207.815 201.458V156.33c0-21.892-17.81-39.702-39.702-39.702H130.59l-1.305-1.757c-9.131-12.287-23.72-19.623-39.025-19.623H42.604C19.112 95.248 0 114.36 0 137.851c0 4.701.762 9.323 2.265 13.74a7.5 7.5 0 0 0 14.2-4.832A27.596 27.596 0 0 1 15 137.851c0-15.221 12.383-27.604 27.604-27.604H90.26c10.583 0 20.671 5.073 26.985 13.569l3.554 4.783a7.502 7.502 0 0 0 6.021 3.027h41.294c13.621 0 24.702 11.081 24.702 24.702V197.6h-.525a14.6 14.6 0 0 1-4.342-.654 12.617 12.617 0 0 1-1.898-.735c-5.152-2.415-8.48-7.651-8.48-13.341v-3.865c0-7.466-6.078-13.54-13.549-13.54H42.604c-3.545 0-6.992-.66-10.245-1.963a7.496 7.496 0 0 0-9.75 4.176 7.5 7.5 0 0 0 4.175 9.75 42.241 42.241 0 0 0 12.886 2.926v54.208c0 20.129 7.84 39.049 22.071 53.268 9.652 9.66 21.47 16.365 34.36 19.683v.259c-6.821 1.993-13.31 5.186-19.031 9.419a7.5 7.5 0 0 0 8.921 12.058 45.613 45.613 0 0 1 11.785-6.265c4.527 14.078 17.743 24.296 33.305 24.296 15.567 0 28.786-10.224 33.309-24.309 17.837 6.316 30.151 23.271 30.151 42.769v38.54H67.61v-38.54c0-5.351.917-10.579 2.727-15.541a7.499 7.499 0 0 0-4.478-9.615c-3.89-1.421-8.196.586-9.615 4.477a60.192 60.192 0 0 0-3.634 20.68v46.04a7.5 7.5 0 0 0 7.5 7.5h141.93a7.5 7.5 0 0 0 7.5-7.5v-46.04c0-27.142-17.944-50.582-43.48-57.978V289.94c13.442-12.398 22.376-29.615 24.029-48.879h5.245c10.27 0 18.625-8.355 18.625-18.625v-7.174a18.627 18.627 0 0 0-6.144-13.804zM151.06 312.3c0 11.018-8.963 19.98-19.98 19.98s-19.98-8.963-19.98-19.98v-2.498a74.867 74.867 0 0 0 39.96-9.108V312.3zm47.898-89.866a3.629 3.629 0 0 1-3.625 3.625h-12.467a7.5 7.5 0 0 0-7.5 7.5v1.002c0 33.273-27.07 60.344-60.344 60.344-16.126 0-31.281-6.278-42.675-17.683-11.4-11.391-17.678-26.541-17.678-42.661v-54.097h107.9v2.405c0 11.482 6.718 22.05 17.05 26.893a27.322 27.322 0 0 0 3.985 1.541c5.983 1.845 10.206 1.144 14.186 1.297 1.909 1.759.876 3.705 1.168 9.834zM289.757 266.7l-8.854-12.319 8.854-12.318a7.5 7.5 0 1 0-12.179-8.754l-12 16.695a7.499 7.499 0 0 0 0 8.754l8.854 12.319-8.854 12.319a7.502 7.502 0 0 0 0 8.754l8.854 12.319-8.854 12.322a7.502 7.502 0 0 0 0 8.754l12 16.699a7.49 7.49 0 0 0 6.097 3.124 7.5 7.5 0 0 0 6.084-11.878l-8.854-12.322 8.854-12.322a7.502 7.502 0 0 0 0-8.754l-8.854-12.319 8.854-12.319a7.505 7.505 0 0 0-.002-8.754zM246.424 283.396l-8.854-12.319 8.854-12.319a7.502 7.502 0 0 0 0-8.754l-12-16.695a7.5 7.5 0 0 0-12.179 8.754l8.854 12.318-8.854 12.319a7.502 7.502 0 0 0 0 8.754l8.854 12.319-8.854 12.319a7.502 7.502 0 0 0 0 8.754l8.854 12.322-8.854 12.322a7.5 7.5 0 0 0 12.181 8.754l12-16.699a7.502 7.502 0 0 0 0-8.754l-8.854-12.322 8.854-12.319a7.505 7.505 0 0 0-.002-8.754z"/></svg>