<svg xmlns="http://www.w3.org/2000/svg" viewBox="0 0 512.002 512.002" style="enable-background:new 0 0 512.002 512.002" xml:space="preserve"><path style="fill:#ffb229" d="M438.518 486.89v17.61H73.484v-17.61c0-49.851 19.97-95.031 52.371-127.961 3.04-3.09 6.19-6.07 9.44-8.94a182.25 182.25 0 0 1 39.22-26.46c4.39-2.2 8.88-4.22 13.46-6.06 3.34-1.35 6.73-2.59 10.17-3.74 18.19-6.08 37.64-9.36 57.851-9.36 20.22 0 39.67 3.28 57.861 9.36 3.43 1.15 6.82 2.39 10.16 3.74 4.59 1.84 9.08 3.86 13.47 6.06a182.572 182.572 0 0 1 38.06 25.44c3.28 2.84 6.45 5.8 9.51 8.86l.01.01c33.021 33.02 53.451 78.65 53.451 129.051z"/><path style="fill:#ff8b00" d="M393.398 504.5H270.296L125.854 358.928c3.04-3.09 6.19-6.07 9.44-8.94a182.25 182.25 0 0 1 39.22-26.46c4.39-2.2 8.88-4.22 13.46-6.06 3.34-1.35 6.73-2.59 10.17-3.74 18.19-6.08 37.64-9.36 57.851-9.36 20.22 0 39.67 3.28 57.861 9.36 3.43 1.15 6.82 2.39 10.16 3.74 4.59 1.84 9.08 3.86 13.47 6.06a182.572 182.572 0 0 1 38.06 25.44c3.28 2.84 6.45 5.8 9.51 8.86l.01.01-69.171 69.171 77.503 77.491z"/><path style="fill:#fecbaa" d="m334.287 321.958-80.711 80.711-79.121-79.111c.03-.01.04-.02.06-.03a179.621 179.621 0 0 1 27.66-11.09c4.23-1.3 8.52-2.45 12.87-3.45 13.17-3.03 26.87-4.62 40.95-4.62 13.94 0 27.51 1.56 40.55 4.52 4.49 1.02 8.92 2.2 13.27 3.54 1.35.42 2.7.85 4.04 1.3a180.673 180.673 0 0 1 20.432 8.23z"/><path style="fill:#ffae85" d="m334.287 321.958-80.711 80.711-79.121-79.111c.03-.01.04-.02.06-.03a179.621 179.621 0 0 1 27.66-11.09c4.23-1.3 8.52-2.45 12.87-3.45.4 2.13.61 4.33.62 6.57 12.32 1.64 22.73 9.39 28.07 20.1a36.675 36.675 0 0 1 24.15-.13c5.36-10.64 15.74-18.34 28.01-19.97.01-2.28.23-4.51.65-6.67 4.49 1.02 8.92 2.2 13.27 3.54 1.35.42 2.7.85 4.04 1.3a180.673 180.673 0 0 1 20.432 8.23z"/><path style="fill:#ffae85" d="m334.289 321.959-80.715 80.715-79.114-79.114c.021-.01.031-.021.052-.031a180.289 180.289 0 0 1 23.633-9.803c1.339-.45 2.678-.879 4.028-1.287L256 366.255l53.817-53.828a182.087 182.087 0 0 1 24.472 9.532z"/><path style="fill:#f47400" d="m375.547 348.968-68.841 68.851-9.19 9.19-9.2 9.2-29.18-29.19-12.33-12.33 18.39-18.39 58.821-58.831c4.59 1.84 9.08 3.86 13.47 6.06 8.52 4.26 16.66 9.16 24.36 14.66 4.74 3.38 9.32 6.98 13.7 10.78z"/><path style="fill:#f25600" d="m306.707 417.819-9.19 9.19-9.201 9.2-29.18-29.19-12.33-12.33 18.39-18.391z"/><path style="fill:#f25600" d="M361.847 338.188c-5.79 7.52-14.42 12.75-24.28 14.06-.12 20.19-16.57 36.59-36.8 36.59-4.16 0-8.15-.71-11.88-1.99-5.61 11.14-16.72 19.07-29.75 20.17l-12.33-12.33 9.19-9.19 68.021-68.031c4.59 1.84 9.08 3.86 13.47 6.06a181.85 181.85 0 0 1 24.359 14.661z"/><path style="fill:#f47400" d="M375.007 504.5h-86.401L135.295 349.988c4.65-4.1 9.51-7.98 14.57-11.59 7.78-5.59 16.02-10.56 24.65-14.87 4.39-2.2 8.88-4.22 13.46-6.06L375.007 504.5z"/><path style="fill:#f25600" d="M273.326 402.819a36.586 36.586 0 0 1-17.33 4.34c-14.41 0-26.91-8.33-32.94-20.43a36.631 36.631 0 0 1-12.26 2.11c-20.22 0-36.68-16.4-36.8-36.59-9.76-1.3-18.33-6.44-24.13-13.85 7.78-5.59 16.02-10.56 24.65-14.87 4.39-2.2 8.88-4.22 13.46-6.06l85.35 85.35z"/><path style="fill:#fecbaa" d="M222.014 236.813h67.983v78.451h-67.983z"/><path style="fill:#ffae85" d="M289.992 236.811v52.751a101.724 101.724 0 0 1-33.991 5.841 101.72 101.72 0 0 1-33.991-5.841v-52.751h67.982z"/><path style="fill:#fecbaa" d="M415.651 145.053c0 15.438-12.518 27.956-27.956 27.956-4.066 0-7.914-.87-11.395-2.428-9.758-4.363-16.549-14.155-16.549-25.528 0-12.048 7.627-22.321 18.313-26.249a27.945 27.945 0 0 1 9.632-1.706c15.438-.002 27.955 12.517 27.955 27.955z"/><path style="fill:#ffae85" d="M378.063 118.802v26.043c0 8.715-.596 17.316-1.764 25.734-9.758-4.363-16.549-14.155-16.549-25.528.001-12.046 7.628-22.32 18.313-26.249z"/><path style="fill:#fecbaa" d="M152.252 145.053c0 11.372-6.791 21.164-16.549 25.528a27.803 27.803 0 0 1-11.395 2.428c-15.438 0-27.956-12.518-27.956-27.956s12.518-27.956 27.956-27.956c3.39 0 6.631.607 9.632 1.706 10.684 3.928 18.312 14.202 18.312 26.25z"/><path style="fill:#ffae85" d="M152.252 145.053c0 11.372-6.791 21.164-16.549 25.528a187.272 187.272 0 0 1-1.764-25.734v-26.043c10.685 3.927 18.313 14.201 18.313 26.249z"/><path style="fill:#fecbaa" d="M363.174 114.667v30.172c0 74.929-47.99 135.672-107.173 135.672-59.194 0-107.173-60.743-107.173-135.672v-30.172c0-13.569 2.521-26.552 7.135-38.5 15.452-40.174 54.424-68.673 100.038-68.673h.01c45.615 0 84.575 28.498 100.038 68.673 4.604 11.948 7.125 24.931 7.125 38.5z"/><path style="fill:#fedfc5" d="M360.382 90.225c-16.93-38.89-57.281-66.251-104.371-66.251h-.01c-47.081 0-87.451 27.36-104.371 66.251 1.12-4.82 2.58-9.52 4.33-14.06 15.46-40.17 54.431-68.671 100.041-68.671h.01c45.611 0 84.571 28.5 100.041 68.671 1.75 4.54 3.2 9.24 4.33 14.06z"/><circle style="fill:#864a2d" cx="178.873" cy="315.774" r="23.803"/><circle style="fill:#c97f4c" cx="210.793" cy="352.034" r="23.803"/><circle style="fill:#864a2d" cx="256.004" cy="370.354" r="23.803"/><circle style="fill:#864a2d" cx="332.695" cy="315.774" r="23.803"/><circle style="fill:#c97f4c" cx="300.775" cy="352.034" r="23.803"/><path d="M428.237 406.552a7.5 7.5 0 0 0-13.59 6.35c10.863 23.253 16.372 48.147 16.372 73.985V504.5c0 4.143 3.357 7.5 7.5 7.5s7.5-3.357 7.5-7.5v-17.613c.001-28.051-5.982-55.078-17.782-80.335zM78.225 444.724a7.497 7.497 0 0 0-8.786 5.942 191.557 191.557 0 0 0-3.456 36.22V504.5c0 4.143 3.357 7.5 7.5 7.5s7.5-3.357 7.5-7.5v-17.613c0-11.202 1.071-22.432 3.185-33.376a7.503 7.503 0 0 0-5.943-8.787zM297.493 278.431c14.932-7.205 28.594-18.345 40.174-33.004 15.6-19.748 26.054-44.216 30.53-70.804 5.716 3.765 12.489 5.881 19.503 5.881 19.549 0 35.453-15.904 35.453-35.453s-15.904-35.453-35.453-35.453c-6.032 0-11.88 1.576-17.037 4.408C370.303 51.082 319.008 0 256.001 0 193.003 0 141.714 51.067 141.34 113.978a35.406 35.406 0 0 0-17.037-4.381c-19.549 0-35.453 15.904-35.453 35.453s15.904 35.453 35.453 35.453a35.413 35.413 0 0 0 19.507-5.872 168.664 168.664 0 0 0 7.068 27.533 7.5 7.5 0 0 0 14.16-4.95c-5.777-16.525-8.706-34.146-8.706-52.373v-30.173c0-54.959 44.712-99.67 99.67-99.67s99.67 44.712 99.67 99.67v30.173c0 70.674-44.712 128.172-99.67 128.172-29.262 0-56.959-16.521-75.988-45.329a7.5 7.5 0 0 0-12.516 8.268c12.698 19.223 28.912 33.671 47.013 42.414v23.047a188.574 188.574 0 0 0-7.015 1.712c-4.869-10.976-15.863-18.656-28.624-18.656-17.261 0-31.304 14.042-31.304 31.303 0 4.675 1.037 9.11 2.883 13.098-31.323 20.992-56.194 51.369-70.423 86.203a7.5 7.5 0 0 0 6.94 10.338 7.502 7.502 0 0 0 6.946-4.666c5.268-12.896 12.122-25.127 20.306-36.403l124.219 124.219a7.481 7.481 0 0 0 5.304 2.196 7.5 7.5 0 0 0 5.304-12.803l-125.442-125.44c3.457-4 7.089-7.849 10.89-11.527l148.808 148.818a7.476 7.476 0 0 0 5.304 2.197 7.498 7.498 0 0 0 5.304-12.802L145.73 351.009a174.098 174.098 0 0 1 14.136-10.383 31.134 31.134 0 0 0 19.002 6.451c.343 0 .682-.015 1.021-.026a31.43 31.43 0 0 0-.4 4.979c0 17.261 14.042 31.304 31.303 31.304 5.527 0 10.72-1.446 15.232-3.97 3.88 12.881 15.846 22.292 29.975 22.292 1.747 0 3.458-.151 5.128-.427l108.574 108.574c1.465 1.464 3.385 2.196 5.304 2.196s3.839-.732 5.304-2.196a7.5 7.5 0 0 0 0-10.607l-72.189-72.189 67.691-67.691a175.184 175.184 0 0 1 3.943 3.815 176.673 176.673 0 0 1 17.668 20.647 7.49 7.49 0 0 0 6.062 3.076 7.5 7.5 0 0 0 6.05-11.925 191.41 191.41 0 0 0-19.172-22.403 190.558 190.558 0 0 0-29.142-23.886 31.103 31.103 0 0 0 2.778-12.866c0-17.261-14.043-31.303-31.304-31.303-12.722 0-23.687 7.632-28.578 18.554a188.903 188.903 0 0 0-6.623-1.611v-22.983zM141.157 156.634a20.474 20.474 0 0 1-16.854 8.87c-11.278 0-20.453-9.175-20.453-20.453s9.175-20.453 20.453-20.453a20.47 20.47 0 0 1 16.854 8.87c.055.079.117.15.174.227v11.149c0 3.734.113 7.446.338 11.132-.18.208-.352.426-.512.658zM387.7 124.597c11.278 0 20.453 9.175 20.453 20.453s-9.175 20.453-20.453 20.453c-7.141 0-13.596-3.607-17.363-9.661.22-3.642.334-7.309.334-10.999v-11.107c3.808-5.738 10.095-9.139 17.029-9.139zM256.001 288.015a94.07 94.07 0 0 0 26.491-3.809v29.053c0 4.143 3.357 7.5 7.5 7.5a7.494 7.494 0 0 0 6.694-4.131c1.599.381 3.194.776 4.779 1.202.064.987.171 1.963.326 2.923-.34-.011-.679-.026-1.022-.026-14.051 0-25.968 9.306-29.915 22.078A31.11 31.11 0 0 0 256 339.05a31.098 31.098 0 0 0-15.231 3.969c-3.88-12.881-15.847-22.292-29.976-22.292-.343 0-.682.015-1.022.026.148-.92.251-1.854.316-2.799 1.734-.47 3.478-.909 5.227-1.325a7.494 7.494 0 0 0 6.694 4.131c4.143 0 7.5-3.357 7.5-7.5v-29.092c8.587 2.526 17.465 3.847 26.493 3.847zm28.465 64.015c0-8.989 7.313-16.303 16.304-16.303 8.989 0 16.303 7.313 16.303 16.303s-7.313 16.304-16.303 16.304c-8.991 0-16.304-7.313-16.304-16.304zm-121.9-36.256c0-8.989 7.313-16.303 16.304-16.303 8.989 0 16.303 7.313 16.303 16.303s-7.313 16.304-16.303 16.304c-8.991-.001-16.304-7.314-16.304-16.304zm48.227 52.56c-8.989 0-16.303-7.313-16.303-16.304 0-8.989 7.313-16.303 16.303-16.303 8.99 0 16.304 7.313 16.304 16.303.001 8.991-7.313 16.304-16.304 16.304zm28.905 2.019c0-8.989 7.313-16.303 16.303-16.303 8.99 0 16.304 7.313 16.304 16.303s-7.313 16.304-16.304 16.304c-8.989 0-16.303-7.314-16.303-16.304zm57.817 46.048-21.774-21.774a31.408 31.408 0 0 0 10.176-15.047 31.11 31.11 0 0 0 14.854 3.756c17.261 0 31.303-14.043 31.303-31.304 0-1.695-.14-3.357-.4-4.979.34.011.679.026 1.021.026 7.233 0 13.896-2.473 19.202-6.608a175.293 175.293 0 0 1 12.523 9.026l-66.905 66.904zm35.179-116.93c8.99 0 16.304 7.313 16.304 16.303s-7.313 16.304-16.304 16.304c-8.989 0-16.303-7.313-16.303-16.304.001-8.99 7.314-16.303 16.303-16.303z"/><path d="M194.806 133.44a7.498 7.498 0 0 0-10.221-2.832 7.498 7.498 0 0 0-2.832 10.221c5.029 8.886 14.34 14.19 24.906 14.19 10.102 0 19.188-4.769 25.587-13.428a7.498 7.498 0 0 0-1.574-10.488 7.498 7.498 0 0 0-10.488 1.574c-3.601 4.871-8.151 7.342-13.524 7.342-5.243 0-9.452-2.337-11.854-6.579zM304.167 155.019c10.102 0 19.188-4.769 25.587-13.428a7.498 7.498 0 0 0-1.574-10.488 7.498 7.498 0 0 0-10.488 1.574c-3.601 4.871-8.151 7.342-13.524 7.342-5.242 0-9.451-2.337-11.854-6.579a7.498 7.498 0 0 0-10.221-2.832 7.498 7.498 0 0 0-2.832 10.221c5.028 8.885 14.339 14.19 24.906 14.19zM235.957 53.85h-.097c-4.143 0-7.451 3.357-7.451 7.5s3.405 7.5 7.548 7.5 7.5-3.357 7.5-7.5-3.357-7.5-7.5-7.5zM212.836 53.85c-4.143 0-7.452 3.357-7.452 7.5s3.406 7.5 7.549 7.5c4.143 0 7.5-3.357 7.5-7.5s-3.357-7.5-7.5-7.5h-.097zM224.879 35.771h-.097c-4.143 0-7.451 3.357-7.451 7.5s3.405 7.5 7.548 7.5c4.143 0 7.5-3.357 7.5-7.5s-3.357-7.5-7.5-7.5zM269.728 195.347c-1.47 8.964-7.243 15.47-13.727 15.47s-12.256-6.506-13.726-15.47a7.501 7.501 0 0 0-14.803 2.427c2.664 16.248 14.662 28.042 28.528 28.042 13.865 0 25.863-11.793 28.529-28.042a7.501 7.501 0 0 0-6.188-8.615c-4.092-.674-7.942 2.1-8.613 6.188z"/></svg>