<svg height="512" viewBox="0 0 64 64" width="512" xmlns="http://www.w3.org/2000/svg"><g fill="#aab2bd"><path d="M41 62H15a91.16 91.16 0 0 0 12.08-5.47C31.48 58.86 36.14 60.7 41 62zM62 56.34V62H52v-4c3.31-.66 6.48-1.89 9.37-3.62l.47-.29c.11.74.16 1.5.16 2.25zM52 54v2l-4.27-.36c-2.01-.17-4-.44-5.96-.83 4.88-3.37 9.03-7.71 12.19-12.74 1.42.86 2.71 1.94 3.83 3.19.67.76 1.27 1.57 1.79 2.43-1.8 2.85-4.45 5.06-7.58 6.31zM48.94 40.06l-.62.62a92.876 92.876 0 0 1-14.6 11.89c-3.02-1.1-5.93-2.47-8.7-4.08l.73-.37c2-1 3.95-2.08 5.84-3.26h.01c1.48-.91 2.92-1.87 4.33-2.89h.01c1.69-1.21 3.33-2.5 4.91-3.85v-.01c.62.39 1.31.67 2.06.81l5.49 1.03c.18.03.36.07.54.11zM12 58v4H2v-5.66c0-.75.05-1.51.16-2.25l.47.29C5.52 56.11 8.69 57.34 12 58z"/><path d="M12 54a15.974 15.974 0 0 1-7.58-6.31c.52-.86 1.12-1.67 1.79-2.43.8-.9 1.69-1.7 2.65-2.4l5.5 4.87c3.9 3.43 8.17 6.38 12.72 8.8A91.16 91.16 0 0 1 15 62h-3v-4zM22.42 38.51c2.44 2.89 5.6 5.08 9.17 6.35a70.78 70.78 0 0 1-5.84 3.26l-.73.37a54.463 54.463 0 0 1-10.76-8.23c.44-.12.89-.23 1.34-.31l5.49-1.03c.47-.09.91-.23 1.33-.42zM40.85 38.12a72.919 72.919 0 0 1-4.91 3.85h-.01a15.471 15.471 0 0 1-6.23-5.8l-.29-.49v-.01L32 36c2.22 0 4.34-.69 6.1-1.93.3 1.69 1.32 3.16 2.75 4.04z"/><path d="M38.1 34.07A10.576 10.576 0 0 1 32 36l-2.59-.33c-.92-.22-1.81-.58-2.63-1.04-.3-.17-.59-.35-.87-.56-1.2-.83-2.22-1.92-3-3.21L20 26l.92.53c3.93 2.24 8.37 3.44 12.89 3.47 1.5 1.33 3.1 2.57 4.77 3.71-.15.13-.31.25-.48.36zM24.86 18.05A42.037 42.037 0 0 0 44.66 23h1.02c-.23.52-.5 1.04-.8 1.53L42.8 28c-4.56-.02-9.08-.86-13.35-2.46l-.09-.03a47.81 47.81 0 0 1-4.93-6.79l-.3-.5c.25-.05.49-.11.73-.17z"/><path d="M31.54 13h.26c-.51.88-.8 1.9-.8 3l-2.38.89a33.3 33.3 0 0 1-3.76 1.16c-.24.06-.48.12-.73.17-2.28.51-4.62.77-6.97.78-.11-.7-.16-1.41-.16-2.12 0-2.34.54-4.55 1.5-6.51l5.36 1.34 2.68.67c1.63.41 3.31.62 5 .62z"/><path d="M37.85 3.14c2.67 1.12 4.95 2.99 6.56 5.35-1.26 1-2.62 1.85-4.06 2.53A5.942 5.942 0 0 0 37 10c-2.22 0-4.16 1.21-5.2 3h-.26c-1.69 0-3.37-.21-5-.62l-2.68-.67.09-.03c5.23-1.74 9.99-4.66 13.9-8.54z"/></g><path d="M12 54v4c-3.31-.66-6.48-1.89-9.37-3.62l-.47-.29a16.554 16.554 0 0 1 2.26-6.4C6.22 50.54 8.87 52.75 12 54zM61.84 54.09l-.47.29A29.476 29.476 0 0 1 52 58v-4c3.13-1.25 5.78-3.46 7.58-6.31 1.19 1.96 1.96 4.14 2.26 6.4zM53.53 41.82c.14.08.29.17.43.25a43.803 43.803 0 0 1-12.19 12.74 53.89 53.89 0 0 1-8.05-2.24 92.876 92.876 0 0 0 14.6-11.89l.62-.62c1.62.36 3.17.96 4.59 1.76z" fill="#e6e9ed"/><path d="M52 58v4H41c-4.86-1.3-9.52-3.14-13.92-5.47a66.657 66.657 0 0 1-12.72-8.8l-5.5-4.87c1.62-1.18 3.45-2.07 5.4-2.6 3.25 3.2 6.87 5.96 10.76 8.23 2.77 1.61 5.68 2.98 8.7 4.08 2.61.95 5.3 1.7 8.05 2.24 1.96.39 3.95.66 5.96.83L52 56zM35.93 41.97a69.326 69.326 0 0 1-4.33 2.89h-.01a21.366 21.366 0 0 1-9.17-6.35v-.01a6.04 6.04 0 0 0 3.49-4.43c.28.21.57.39.87.56.82.46 1.71.82 2.63 1.04v.01l.29.49c1.49 2.48 3.65 4.48 6.23 5.8zM42.8 28l-1.71 2.86c-.67 1.11-1.52 2.07-2.51 2.85A47.905 47.905 0 0 1 33.81 30a47.14 47.14 0 0 1-4.45-4.49l.09.03c4.27 1.6 8.79 2.44 13.35 2.46z" fill="#e6e9ed"/><path d="M29.36 25.51A47.14 47.14 0 0 0 33.81 30c-4.52-.03-8.96-1.23-12.89-3.47L20 26l-.88-1.47c-1.02-1.7-1.69-3.58-1.96-5.53 2.35-.01 4.69-.27 6.97-.78l.3.5a47.81 47.81 0 0 0 4.93 6.79zM32.12 2c2.03 0 3.97.41 5.73 1.14-3.91 3.88-8.67 6.8-13.9 8.54l-.09.03-5.36-1.34c.72-1.5 1.69-2.85 2.86-4.01C24.05 3.66 27.77 2 31.88 2zM44.66 23c-3.01 0-5.99-.32-8.9-.95l.03-.17A6.005 6.005 0 0 0 43 16a6 6 0 0 0-2.65-4.98c1.44-.68 2.8-1.53 4.06-2.53 1.64 2.39 2.59 5.28 2.59 8.39 0 2.12-.45 4.21-1.32 6.12z" fill="#e6e9ed"/><path d="M31 16c0 2.9 2.06 5.32 4.79 5.88l-.03.17c-3.79-.82-7.46-2.16-10.9-4a33.3 33.3 0 0 0 3.76-1.16z" fill="#e6e9ed"/><path d="M40.35 11.02A6 6 0 0 1 37 22c-.42 0-.82-.04-1.21-.12A6.008 6.008 0 0 1 31 16c0-1.1.29-2.12.8-3 1.04-1.79 2.98-3 5.2-3 1.24 0 2.39.37 3.35 1.02z" fill="#fcd770"/><circle cx="37" cy="16" fill="#656d78" r="2"/><path d="M34 16c0 1.654 1.346 3 3 3s3-1.346 3-3-1.346-3-3-3-3 1.346-3 3zm4 0a1 1 0 1 1-2 0 1 1 0 0 1 2 0z"/><path d="M58.534 44.597a17.761 17.761 0 0 0-9.953-5.63l-5.482-1.027c-1.848-.347-3.338-1.723-3.874-3.495a11.505 11.505 0 0 0 2.72-3.074l3.793-6.321a15.885 15.885 0 0 0 2.263-8.17C48 8.123 40.877 1 32.121 1h-.242C23.123 1 16 8.123 16 16.879c0 2.878.782 5.703 2.263 8.17l3.793 6.321a11.509 11.509 0 0 0 2.721 3.074 5.045 5.045 0 0 1-3.875 3.495l-5.482 1.027a17.773 17.773 0 0 0-9.954 5.63A17.661 17.661 0 0 0 1 56.341V63h62v-6.659c0-4.334-1.586-8.505-4.466-11.744zM34.666 61h-14.52a93.589 93.589 0 0 0 6.961-3.354A67.323 67.323 0 0 0 34.666 61zM15.021 46.979l-4.518-3.997a15.795 15.795 0 0 1 3.5-1.592 55.136 55.136 0 0 0 33.643 15.249L51 56.92V61h-9.857a65.293 65.293 0 0 1-26.122-14.021zm34.003-5.589.219-.219c1.137.295 2.233.723 3.274 1.261A42.559 42.559 0 0 1 41.55 53.736a53.084 53.084 0 0 1-5.627-1.484c4.678-3.219 9.089-6.85 13.101-10.862zM53 54.648a16.836 16.836 0 0 0 6.464-5.067 15.665 15.665 0 0 1 1.288 3.995A28.352 28.352 0 0 1 53 56.725zm4.041-8.723c.492.554.928 1.147 1.333 1.757A14.859 14.859 0 0 1 53 52.432V51h-2v3.914l-3.187-.265a52.933 52.933 0 0 1-3.543-.429 44.475 44.475 0 0 0 9.966-10.765 15.647 15.647 0 0 1 2.805 2.47zM46.869 40.68a91.386 91.386 0 0 1-13.277 10.756 53.187 53.187 0 0 1-6.431-2.916 76.01 76.01 0 0 0 13.826-9.207 6.896 6.896 0 0 0 1.743.592zm-7.6-2.542a73.229 73.229 0 0 1-3.409 2.647 14.33 14.33 0 0 1-4.403-3.821c.182.009.36.036.543.036 1.95 0 3.839-.511 5.512-1.417a7.044 7.044 0 0 0 1.757 2.555zm-.759-5.705a47.073 47.073 0 0 1-5.731-4.78 39.455 39.455 0 0 0 8.284 1.299l-.833 1.389a9.538 9.538 0 0 1-1.72 2.092zm-17.787-7.172-.745-1.242a13.836 13.836 0 0 1-1.622-4.052 34.035 34.035 0 0 0 5.287-.627 49.28 49.28 0 0 0 7.481 9.482 25.43 25.43 0 0 1-9.705-3.164zm9.417-7.87c.165.816.478 1.576.901 2.263a41.092 41.092 0 0 1-3.416-1.353c.45-.148.899-.303 1.344-.47zM42 16c0 2.757-2.243 5-5 5s-5-2.243-5-5 2.243-5 5-5 5 2.243 5 5zm.244 10.984a37.435 37.435 0 0 1-12.272-2.317 47.111 47.111 0 0 1-3.588-4.747 43.275 43.275 0 0 0 17.661 4.061l-.021.039zM45.013 22h-.351a40.99 40.99 0 0 1-3.758-.193A7 7 0 0 0 44 16a6.968 6.968 0 0 0-1.891-4.769 21.9 21.9 0 0 0 2.019-1.282A13.78 13.78 0 0 1 46 16.879c0 1.761-.342 3.497-.987 5.121zM43.005 8.293a19.787 19.787 0 0 1-2.616 1.587A6.951 6.951 0 0 0 37 9a6.992 6.992 0 0 0-5.73 2.992 19.747 19.747 0 0 1-4.087-.489 37.154 37.154 0 0 0 10.853-7.16 13.93 13.93 0 0 1 4.969 3.95zM31.879 3h.242c1.331 0 2.614.199 3.833.55a35.269 35.269 0 0 1-12.152 7.12l-3.792-.948C22.444 5.701 26.846 3 31.879 3zm-12.811 8.547 7.228 1.808a21.65 21.65 0 0 0 4.009.608 6.902 6.902 0 0 0-.269 1.331l-1.768.664a32.005 32.005 0 0 1-10.22 2.019A13.86 13.86 0 0 1 18 16.879c0-1.889.382-3.689 1.068-5.332zm4.703 18.794-1.083-1.805a27.41 27.41 0 0 0 10.748 2.449 49.017 49.017 0 0 0 3.391 2.698A9.607 9.607 0 0 1 32 35a9.644 9.644 0 0 1-8.229-4.659zm4.97 6.17.101.169a16.324 16.324 0 0 0 5.236 5.368 74.557 74.557 0 0 1-2.582 1.699 20.445 20.445 0 0 1-7.515-4.998 7.057 7.057 0 0 0 2.507-3.165c.715.386 1.47.695 2.253.927zm-7.47 3.393c.293-.055.574-.139.853-.23a22.426 22.426 0 0 0 7.26 5.35 74.1 74.1 0 0 1-4.077 2.204l-.228.114a52.997 52.997 0 0 1-8.755-6.511zM6.96 45.925c.569-.64 1.191-1.23 1.855-1.766l4.882 4.32c3.466 3.058 7.271 5.729 11.298 8.01A91.39 91.39 0 0 1 14.812 61H13V51h-2v1.432a14.85 14.85 0 0 1-5.374-4.75c.406-.61.841-1.203 1.334-1.757zM11 56.726a28.396 28.396 0 0 1-7.752-3.149 15.614 15.614 0 0 1 1.288-3.995A16.833 16.833 0 0 0 11 54.648zm-8-.385c0-.204.02-.406.028-.61A30.351 30.351 0 0 0 11 58.784V61H3zM61 61h-8v-2.216a30.303 30.303 0 0 0 7.972-3.053c.008.204.028.405.028.61z"/></svg>