<svg xmlns="http://www.w3.org/2000/svg" viewBox="0 0 512 512" style="enable-background:new 0 0 512 512" xml:space="preserve"><path style="fill:#31a1f4" d="M353.392 138.091 98.827 182.723a3.677 3.677 0 0 0-3.042 3.622v201.597c-8.989-4.455-19.237-6.754-30.076-6.181-31.396 1.657-56.499 27.582-57.196 59.014-.755 34.028 26.603 61.85 60.46 61.851 27.926 0 55.586-21.378 59.484-49.619 1.907-13.821.992-28.148.992-42.104V249.154a3.678 3.678 0 0 1 3.063-3.626l187.238-31.714a3.678 3.678 0 0 1 4.292 3.626v139.37c-8.99-4.455-19.237-6.754-30.077-6.181-31.396 1.658-56.499 27.583-57.196 59.016-.754 34.027 26.604 61.848 60.46 61.848 28.131 0 50.01-19.564 58.1-45.727 4.117-13.311 2.376-28.503 2.376-42.323V141.714a3.678 3.678 0 0 0-4.313-3.623z"/><path style="fill:#0781e5" d="M355.328 425.764c-8.09 26.161-29.971 45.725-58.103 45.725a60.86 60.86 0 0 1-9.532-.75c23.558-3.817 41.533-21.807 48.696-44.974 4.112-13.312 2.375-28.5 2.375-42.319V141.715c0-.361-.052-.706-.147-1.037l14.776-2.589a3.68 3.68 0 0 1 4.31 3.626v241.731c.002 13.819 1.745 29.007-2.375 42.318z"/><path d="M68.972 510.123c-18.443-.001-35.702-7.263-48.598-20.45C7.481 476.49.607 459.066 1.018 440.609c.784-35.335 29.027-64.473 64.297-66.335a68.311 68.311 0 0 1 22.973 2.707V186.344a11.158 11.158 0 0 1 9.245-11.007l43.505-7.628a7.498 7.498 0 0 1 2.59 14.771l-40.345 7.074v198.388a7.495 7.495 0 0 1-10.826 6.718c-8.116-4.021-17.231-5.885-26.351-5.412-27.48 1.452-49.485 24.159-50.097 51.694-.319 14.391 5.038 27.974 15.087 38.249 10.051 10.277 23.503 15.938 37.877 15.938 24.989 0 48.829-19.759 52.057-43.147 1.364-9.877 1.196-20.454 1.033-30.681-.054-3.407-.11-172.146-.11-172.146a11.144 11.144 0 0 1 9.309-11.017L318.5 206.423a11.151 11.151 0 0 1 9.08 2.482 11.15 11.15 0 0 1 3.962 8.535v139.371a7.498 7.498 0 0 1-10.826 6.718c-8.117-4.022-17.222-5.896-26.352-5.411-27.48 1.451-49.485 24.159-50.096 51.695-.319 14.391 5.039 27.974 15.088 38.249 10.052 10.276 23.504 15.936 37.877 15.936 10.31 0 19.82-2.927 28.263-8.698a7.497 7.497 0 1 1 8.462 12.378c-10.827 7.401-23.527 11.314-36.725 11.314-18.441 0-35.7-7.261-48.596-20.447-12.893-13.182-19.768-30.607-19.359-49.065.783-35.337 29.025-64.475 64.296-66.336a68.482 68.482 0 0 1 22.974 2.706V221.96L136.95 252.38s.055 165.333.108 168.679c.172 10.794.35 21.955-1.171 32.971-4.273 30.93-34.289 56.093-66.915 56.093z"/><path d="M355.858 431.438a7.499 7.499 0 0 1-7.248-9.435c2.338-8.755 2.054-18.935 1.779-28.781-.09-3.218-.183-6.544-.183-9.781v-237.18l-159.635 27.988a7.498 7.498 0 0 1-2.589-14.771l164.114-28.773a11.155 11.155 0 0 1 9.118 2.451 11.152 11.152 0 0 1 3.987 8.557v241.729c0 3.028.086 6.105.177 9.362.305 10.918.619 22.207-2.281 33.069a7.5 7.5 0 0 1-7.239 5.565z"/><circle style="fill:#e84661" cx="294.038" cy="33.365" r="23.991"/><path style="fill:#ce1d4c" d="M318.031 33.369c0 13.245-10.746 23.982-23.992 23.982-11.316 0-20.793-7.817-23.312-18.344a23.832 23.832 0 0 0 10.526 2.439c13.255 0 23.992-10.736 23.992-23.992 0-1.939-.23-3.829-.67-5.638 7.968 3.89 13.456 12.077 13.456 21.553z"/><path d="M294.038 1.877c-17.362 0-31.488 14.126-31.488 31.488v63.872c0 4.142 3.356 7.497 7.497 7.497s7.497-3.356 7.497-7.497V60.174a31.292 31.292 0 0 0 16.493 4.679c17.362 0 31.487-14.126 31.487-31.488S311.4 1.877 294.038 1.877zm0 47.982c-9.095 0-16.493-7.398-16.493-16.493s7.398-16.493 16.493-16.493c9.094 0 16.492 7.398 16.492 16.493s-7.399 16.493-16.492 16.493z"/><circle style="fill:#00ddc2" cx="480.513" cy="468.947" r="23.991"/><path style="fill:#00bca1" d="M504.507 468.953c0 13.245-10.746 23.982-23.992 23.982-11.316 0-20.793-7.817-23.312-18.344a23.832 23.832 0 0 0 10.526 2.439c13.255 0 23.992-10.736 23.992-23.992 0-1.939-.23-3.829-.67-5.638 7.968 3.889 13.456 12.076 13.456 21.553z"/><path d="M504.503 373.287a7.496 7.496 0 0 0-7.497 7.497v61.356a31.292 31.292 0 0 0-16.493-4.679c-17.362 0-31.488 14.126-31.488 31.488s14.126 31.488 31.488 31.488c16.559 0 30.165-12.853 31.389-29.105.059-.381.099-.768.099-1.165v-89.383a7.498 7.498 0 0 0-7.498-7.497zm-23.991 112.155c-9.095 0-16.493-7.398-16.493-16.493 0-9.095 7.398-16.493 16.493-16.493 9.095 0 16.493 7.398 16.493 16.493 0 9.095-7.399 16.493-16.493 16.493z"/><circle style="fill:#ffe269" cx="31.488" cy="199.911" r="23.991"/><path style="fill:#f7d443" d="M55.483 199.913c0 13.245-10.746 23.982-23.992 23.982-11.316 0-20.793-7.817-23.312-18.344a23.832 23.832 0 0 0 10.526 2.439c13.255 0 23.992-10.736 23.992-23.992 0-1.939-.23-3.829-.67-5.638 7.968 3.889 13.456 12.076 13.456 21.553z"/><path d="M55.479 104.247a7.496 7.496 0 0 0-7.497 7.497V173.1a31.292 31.292 0 0 0-16.493-4.679C14.125 168.42 0 182.547 0 199.91s14.125 31.487 31.488 31.487c16.56 0 30.166-12.853 31.388-29.105.059-.38.099-.767.099-1.164v-89.383a7.496 7.496 0 0 0-7.496-7.498zM31.488 216.402c-9.095 0-16.493-7.398-16.493-16.492 0-9.095 7.398-16.493 16.493-16.493 9.094 0 16.493 7.398 16.493 16.493 0 9.092-7.399 16.492-16.493 16.492z"/><circle style="fill:#ffe269" cx="407.658" cy="214.086" r="18.252"/><path style="fill:#f7d443" d="M425.909 214.084c0 10.076-8.175 18.245-18.253 18.245-8.609 0-15.82-5.947-17.736-13.956a18.114 18.114 0 0 0 8.008 1.855c10.085 0 18.253-8.168 18.253-18.253 0-1.475-.175-2.913-.51-4.29 6.062 2.96 10.238 9.189 10.238 16.399z"/><circle style="fill:#ffe269" cx="467.777" cy="196.752" r="18.252"/><path style="fill:#f7d443" d="M486.036 196.759c0 10.077-8.176 18.245-18.253 18.245-8.609 0-15.819-5.947-17.736-13.956a18.114 18.114 0 0 0 8.008 1.855c10.085 0 18.253-8.168 18.253-18.253 0-1.475-.175-2.913-.51-4.29 6.063 2.96 10.238 9.189 10.238 16.399z"/><path d="M493.521 140.391a7.708 7.708 0 0 0-.023-.454c-.01-.118-.025-.235-.04-.352a6.683 6.683 0 0 0-.15-.796c-.015-.061-.023-.122-.04-.183-.01-.035-.024-.068-.034-.103a8.085 8.085 0 0 0-.146-.448c-.032-.091-.064-.182-.099-.27-.053-.133-.113-.262-.173-.392-.047-.101-.093-.201-.144-.299a7.359 7.359 0 0 0-.177-.312 8.057 8.057 0 0 0-.203-.335c-.054-.083-.114-.162-.171-.242-.086-.119-.171-.238-.263-.352-.056-.069-.116-.134-.174-.201-.1-.115-.2-.229-.307-.338-.064-.065-.132-.126-.198-.188a7.518 7.518 0 0 0-.325-.295c-.079-.067-.162-.128-.244-.191-.105-.081-.21-.163-.32-.239-.097-.067-.198-.128-.299-.191s-.201-.127-.305-.185a6.822 6.822 0 0 0-.341-.174c-.101-.05-.201-.101-.304-.146-.115-.05-.233-.094-.351-.139-.111-.042-.222-.086-.336-.123-.108-.035-.218-.064-.328-.095-.13-.036-.26-.072-.393-.101-.095-.021-.192-.037-.289-.054a7.721 7.721 0 0 0-.46-.07c-.084-.01-.169-.015-.254-.022a7.628 7.628 0 0 0-.503-.025c-.033 0-.065-.005-.098-.005-.057 0-.113.007-.17.009-.155.004-.31.01-.467.024-.117.01-.232.025-.347.04a6.605 6.605 0 0 0-.799.15c-.061.015-.122.023-.183.04l-60.127 16.322a7.497 7.497 0 0 0-5.533 7.235v33.801a25.591 25.591 0 0 0-10.754-2.362c-14.198 0-25.75 11.551-25.75 25.749 0 14.198 11.552 25.749 25.75 25.749 13.526 0 24.64-10.485 25.664-23.753.05-.35.085-.706.085-1.07v-52.381l45.132-12.252v22.995a25.591 25.591 0 0 0-10.754-2.362c-14.198 0-25.749 11.551-25.749 25.749 0 14.198 11.551 25.749 25.749 25.749 13.525 0 24.639-10.484 25.664-23.751a7.56 7.56 0 0 0 .085-1.071v-57.113c.005-.058-.002-.117-.004-.177zm-85.867 84.444c-5.931 0-10.755-4.824-10.755-10.754s4.824-10.754 10.755-10.754c5.93 0 10.754 4.824 10.754 10.754s-4.824 10.754-10.754 10.754zm60.127-17.325c-5.93 0-10.754-4.824-10.754-10.754s4.824-10.754 10.754-10.754 10.754 4.824 10.754 10.754-4.824 10.754-10.754 10.754z"/></svg>