<svg height="511pt" viewBox="-80 0 511 512" width="511pt" xmlns="http://www.w3.org/2000/svg"><path d="m288.766 389.719-36.434-23.555 52.313-80.914c6.503-10.063 19.933-12.945 29.992-6.441 10.062 6.504 12.945 19.933 6.441 29.996zm0 0" fill="#c97e67"/><path d="M252.824 120.367s4.946-75.824 86.387-70.004c4.21.301 6.871 4.649 5.234 8.54-8.082 19.234-34.222 67.37-91.62 61.464zm0 0" fill="#4b5055"/><path d="M250.305 93.11s74.59-14.485 89.66 65.761c.777 4.145-2.75 7.824-6.926 7.23-20.66-2.93-73.855-15.976-82.734-72.992zm0 0" fill="#5a5f64"/><path d="M339.844 474.164c0 8.356-3.38 15.93-8.86 21.399a30.154 30.154 0 0 1-21.41 8.87H38.336c-16.629 0-30.238-13.41-30.27-30.027-.07-38.289 15.426-72.957 40.508-98.039 19.18-19.187 43.98-32.758 71.707-38.047 11.106-2.117 19.168-11.793 19.168-23.101v-42.094h69.012v42.102c0 11.261 7.992 20.968 19.07 23.074 63.953 12.16 112.313 68.367 112.313 135.863zm0 0" fill="#4b5055"/><path d="M339.844 474.164c0 8.356-3.38 15.93-8.86 21.399a30.154 30.154 0 0 1-21.41 8.87H67.594c-16.63 0-30.239-13.41-30.27-30.027-.07-38.289 15.43-72.957 40.512-98.039 19.18-19.187 43.976-32.758 71.703-38.047 11.11-2.117 19.168-11.793 19.168-23.101v-42.094h39.754v42.102c0 11.261 7.992 20.968 19.07 23.074 63.953 12.16 112.313 68.367 112.313 135.863zm0 0" fill="#5a5f64"/><path d="M277.41 110.84v92.8c0 47.602-56.219 87.536-88.824 98.462-5.762 1.925-10.785 2.945-14.629 2.945-12.816 0-38.684-11.352-61.344-29.703C89.953 256.992 70.5 231.637 70.5 203.64V110.84c0-57.137 46.32-103.457 103.457-103.457 4.961 0 9.844.351 14.629 1.027 50.203 7.106 88.824 50.258 88.824 102.43zm0 0" fill="#5a5f64"/><path d="M277.41 110.84v92.8c0 47.602-56.219 87.536-88.824 98.462-13.43-4.5-30.856-13.914-46.715-26.758-22.66-18.352-42.113-43.707-42.113-71.703V110.84c0-52.172 38.62-95.324 88.828-102.43 50.203 7.106 88.824 50.258 88.824 102.43zm0 0" fill="#7d8287"/><path d="M260.035 162.121c.344 14.945-11.773 27.191-26.555 27.191H114.43c-14.61 0-26.567-11.953-26.567-26.574 0-14.62 11.965-26.566 26.567-26.566h118.496c14.52 0 26.777 11.422 27.11 25.95zm0 0" fill="#f2bb88"/><path d="M260.035 162.121c.344 14.945-11.773 27.191-26.555 27.191H137.3c-14.609 0-26.566-11.953-26.566-26.574 0-14.62 11.957-26.566 26.567-26.566h95.625c14.52 0 26.777 11.422 27.11 25.95zm0 0" fill="#f2d1a5"/><path d="M72.234 90.387c4.028 1.12 8.204-1.23 9.313-5.266 5.742-20.664 18.101-38.2 34.406-50.578 62.992-47.86 153.89-2.805 153.89 76.297v92.808c0 15.48-6.698 31.278-19.894 46.957-4.176 4.942-.558 12.442 5.79 12.442 2.148 0 4.288-.918 5.792-2.695 15.559-18.485 23.446-37.563 23.446-56.704v-46.277c20.445 12.363 44.652 16.356 48.914 16.356 8.644 0 15.097-7.836 13.511-16.254-4.148-22.118-12.957-39.52-26.222-51.871 10.332-8.934 22.36-25.008 30.246-43.766 3.629-8.676-2.32-18.356-11.672-19.02-24.824-1.78-47.356 3.043-66.149 19.13C228.418-30.036 93.97-16.212 66.97 81.073c-1.121 4.028 1.242 8.203 5.265 9.313zm259.91 67.933c-11.804-1.879-31.054-6.742-47.167-19.273v-13.438c8.464-2.23 16.476-5.77 24.003-10.625 11.512 9.88 19.29 24.418 23.165 43.336zm4.543-100.53c-10.253 23.308-27.597 43.987-51.73 51.96a110.078 110.078 0 0 0-5.234-32.7c14.816-15.648 35.363-20.448 56.965-19.26zm0 0"/><path d="M233.137 163.277c0 6.77-5.489 12.258-12.258 12.258-6.77 0-12.258-5.488-12.258-12.258 0-6.77 5.488-12.257 12.258-12.257 6.77 0 12.258 5.488 12.258 12.257zM139.29 163.277c0 6.77-5.49 12.258-12.259 12.258s-12.258-5.488-12.258-12.258c0-6.77 5.489-12.257 12.258-12.257s12.258 5.488 12.258 12.257zm0 0"/><path d="M232.926 128.605H114.43c-18.82 0-34.133 15.313-34.133 34.133 0 18.825 15.312 34.14 34.133 34.14h119.05c9.239 0 17.903-3.655 24.395-10.304 21.352-21.847 5.266-57.969-24.95-57.969zm14.125 47.391c-3.621 3.707-8.442 5.75-13.57 5.75H114.43c-10.477 0-19-8.527-19-19.008 0-10.476 8.523-19 19-19h118.496c17.039 0 26.05 20.059 14.125 32.258zm0 0"/><path d="M338.742 272.46c-13.539-8.769-31.648-4.92-40.457 8.677l-38.379 59.355a143.59 143.59 0 0 0-30.965-9.625c-7.484-1.422-12.914-8-12.914-15.648v-17.547a184.897 184.897 0 0 0 22.61-15.305c3.27-2.601 3.824-7.355 1.23-10.633-2.601-3.27-7.363-3.824-10.633-1.222-12.379 9.824-39.629 26.968-55.277 26.968-22.824 0-95.89-43.296-95.89-93.832V113.02c0-4.18-3.391-7.57-7.567-7.57s-7.566 3.39-7.566 7.57v90.628c0 39.497 34.703 74.368 68.949 94.043v17.528c0 7.636-5.48 14.226-13.016 15.668C90.152 336.363 64 350.238 43.22 371.023 15.934 398.313.5 434.746.5 474.418.531 495.141 17.5 512 38.336 512h271.238c20.906 0 37.836-16.895 37.836-37.836 0-11.883-1.433-23.71-4.258-35.152-1.007-4.055-5.113-6.528-9.172-5.528-4.054 1.008-6.527 5.106-5.52 9.16a131.402 131.402 0 0 1 3.817 31.52c0 12.461-10.054 22.703-22.703 22.703h-21.453V444.98a7.565 7.565 0 0 0-7.566-7.566 7.565 7.565 0 0 0-7.567 7.566v51.887H74.922V444.98a7.565 7.565 0 0 0-7.567-7.566 7.565 7.565 0 0 0-7.566 7.566v51.887H38.336c-12.281 0-22.703-9.812-22.703-22.703 0-34.918 13.601-67.75 38.289-92.45 18.625-18.612 42.062-31.054 67.781-35.968 14.668-2.793 25.313-15.637 25.313-30.527v-9.817c21.75 9.61 32.203 9.543 53.879-.03v9.847c0 14.91 10.601 27.734 25.222 30.52 39.867 7.605 74.332 33.804 92.477 70.128 1.867 3.735 6.41 5.246 10.152 3.39 3.73-1.866 5.254-6.413 3.39-10.148-6.417-12.855-14.671-24.566-24.366-34.847l39.66-61.356c8.78-13.554 4.906-31.68-8.688-40.445zm-4.015 32.235-38.094 58.93a147.72 147.72 0 0 0-23.117-16.293L311 289.359a14.04 14.04 0 0 1 8.898-6.144c12.325-2.66 21.606 11 14.829 21.48zm0 0"/></svg>