<svg xmlns="http://www.w3.org/2000/svg" viewBox="0 0 512 512" style="enable-background:new 0 0 512 512" xml:space="preserve"><path style="fill:#75706b" d="M504.396 137.064v282.568c0 12.377-10.034 22.411-22.411 22.411H30.015c-12.377 0-22.411-10.034-22.411-22.411V137.064c0-12.987 10.527-23.513 23.513-23.513h449.765c12.987-.001 23.514 10.526 23.514 23.513z"/><path style="fill:#e2d0c5" d="M477.642 122.894v269.149c0 12.496-10.129 22.625-22.626 22.625H56.983c-12.496 0-22.626-10.129-22.626-22.625V122.894"/><path style="fill:#fff2e9" d="M256.003 117.943V414.67h-3.356c-7.046-17.763-24.373-30.314-44.63-30.314H56.982c-12.491 0-22.629-10.128-22.629-22.619V92.586c0-12.501 10.139-22.629 22.629-22.629h151.035c26.502-.001 47.986 21.483 47.986 47.986zM477.643 92.586v269.15c0 12.491-10.128 22.619-22.629 22.619H303.989c-2.879 0-5.708.253-8.445.75-16.536 2.93-30.142 14.326-36.185 29.564h-3.356V117.943c0-23.623 17.063-43.251 39.541-47.246a48.33 48.33 0 0 1 8.445-.74h151.025c12.501-.001 22.629 10.128 22.629 22.629z"/><path style="fill:#ef6e4b" d="M313.608 69.956v141.605l42.582-28.794 42.582 28.794V69.956"/><path style="fill:#e2d0c5" d="M295.544 70.697v314.409c-16.536 2.93-30.142 14.326-36.185 29.564h-3.356V117.943c0-23.623 17.063-43.252 39.541-47.246z"/><path d="M56.267 434.44H30.01c-8.162 0-14.802-6.64-14.802-14.802V137.064a7.604 7.604 0 0 0-15.208 0v282.573c0 16.548 13.462 30.01 30.01 30.01h26.257a7.604 7.604 0 0 0 0-15.207zM504.396 129.46a7.604 7.604 0 0 0-7.604 7.604v282.573c0 8.163-6.645 14.802-14.813 14.802H81.616a7.604 7.604 0 0 0 0 15.208H481.98c16.553 0 30.02-13.462 30.02-30.01V137.064a7.604 7.604 0 0 0-7.604-7.604z"/><path d="M56.979 422.273h195.64l.026.002.043-.002h202.323c16.671 0 30.233-13.562 30.233-30.233V92.586c0-16.671-13.562-30.233-30.233-30.233H303.986c-20.441 0-38.329 11.098-47.986 27.577-9.657-16.479-27.545-27.577-47.986-27.577h-71.776a7.604 7.604 0 0 0 0 15.208h71.776c22.266 0 40.382 18.116 40.382 40.382v276.123c-10.272-10.878-24.707-17.315-40.382-17.315H56.979c-8.285 0-15.025-6.736-15.025-15.015V92.586c0-8.285 6.74-15.025 15.025-15.025h53.91a7.604 7.604 0 0 0 0-15.208h-53.91c-16.671 0-30.233 13.562-30.233 30.233v299.453c0 16.672 13.562 30.234 30.233 30.234zm398.032-15.208H272.452c7.521-9.425 18.98-15.107 31.534-15.107h151.025a30.047 30.047 0 0 0 15.025-4.013v4.095c0 8.285-6.74 15.025-15.025 15.025zM321.209 77.56h69.956v119.68l-30.719-20.772a7.602 7.602 0 0 0-8.518 0l-30.719 20.772V77.56zm-17.223 0h2.015v134.001a7.604 7.604 0 0 0 11.863 6.299l38.323-25.914 38.323 25.914a7.605 7.605 0 0 0 11.863-6.299V77.56h48.638c8.285 0 15.025 6.74 15.025 15.025v269.149c0 8.28-6.74 15.015-15.025 15.015H303.986c-15.673 0-30.109 6.432-40.382 17.308V117.943c0-22.267 18.116-40.383 40.382-40.383zM56.979 391.959h151.035c12.555 0 24.014 5.682 31.534 15.107H56.979c-8.285 0-15.025-6.74-15.025-15.025v-4.095a30.04 30.04 0 0 0 15.025 4.013z"/><path d="M204.247 120.937H81.221a7.604 7.604 0 0 0 0 15.208h123.026a7.604 7.604 0 0 0 0-15.208zM204.247 158.154H81.221a7.604 7.604 0 0 0 0 15.208h123.026a7.604 7.604 0 0 0 0-15.208zM204.247 232.588h-52.674a7.604 7.604 0 0 0 0 15.208h52.674a7.604 7.604 0 0 0 0-15.208zM81.221 247.796h45.004a7.604 7.604 0 0 0 0-15.208H81.221a7.604 7.604 0 0 0 0 15.208zM211.851 314.626a7.604 7.604 0 0 0-7.604-7.604H81.221a7.604 7.604 0 0 0 0 15.208h123.026a7.604 7.604 0 0 0 7.604-7.604zM204.247 195.371H81.221a7.604 7.604 0 0 0 0 15.208h123.026a7.604 7.604 0 0 0 0-15.208zM204.247 269.805H81.221a7.604 7.604 0 0 0 0 15.208h123.026a7.604 7.604 0 0 0 0-15.208zM136.388 347.46a7.604 7.604 0 0 0 0 15.208h12.694a7.604 7.604 0 0 0 0-15.208h-12.694zM422.391 136.145h14.24a7.604 7.604 0 0 0 0-15.208h-14.24a7.604 7.604 0 0 0 0 15.208zM422.391 173.362h14.24a7.604 7.604 0 0 0 0-15.208h-14.24a7.604 7.604 0 0 0 0 15.208zM313.605 247.796h123.026a7.604 7.604 0 0 0 0-15.208H313.605a7.604 7.604 0 0 0 0 15.208zM313.605 322.229h123.026a7.604 7.604 0 0 0 0-15.208H313.605a7.604 7.604 0 0 0 0 15.208zM422.391 210.579h14.24a7.604 7.604 0 0 0 0-15.208h-14.24a7.604 7.604 0 0 0 0 15.208zM313.605 285.013h17.875a7.604 7.604 0 0 0 0-15.208h-17.875a7.604 7.604 0 0 0 0 15.208zM436.631 269.805h-79.802a7.604 7.604 0 0 0 0 15.208h79.802a7.604 7.604 0 0 0 0-15.208zM381.464 347.46H368.77a7.604 7.604 0 0 0 0 15.208h12.694a7.604 7.604 0 0 0 0-15.208z"/></svg>