<svg height="512pt" viewBox="0 0 512 512" width="512pt" xmlns="http://www.w3.org/2000/svg"><path d="M445.953 416.2a34.057 34.057 0 0 1-25.344-2.903 72.12 72.12 0 0 1-18.859-13.14l-31.316.085-259.758.938C96 414.492 80.726 420.379 67.586 416.2a23.222 23.222 0 0 1-5.89-2.817C36.18 398.109 30.632 341.277 50.003 280.69c16.555-51.714 46.168-90.71 73.047-99.586l235.008-.34 31.23-.085c27.137 8.191 57.516 47.53 74.242 100.011 20.82 65.024 12.883 125.696-17.578 135.508zm0 0" fill="#4e342e"/><path d="M420.61 413.297a72.12 72.12 0 0 1-18.86-13.14l-31.316.085-.086-.086-291.075 1.024a75.306 75.306 0 0 1-17.578 12.203C36.18 398.109 30.633 341.277 50.004 280.69c16.555-51.714 46.168-90.71 73.047-99.586l235.008-.34c27.05 8.278 57.343 47.532 74.07 99.926 19.371 60.5 13.824 117.16-11.52 132.606zm0 0" fill="#795548"/><path d="M230.398 501.105a128.297 128.297 0 0 0 20.739 2.133c1.62.086 3.242.172 4.863.172s3.242-.086 4.863-.172c6.961-.148 13.895-.86 20.739-2.133l84.734-46.933a179.73 179.73 0 0 0 35.414-54.016 201.667 201.667 0 0 0 16.383-80.215 195.39 195.39 0 0 0-42.668-123.816h-238.93a195.563 195.563 0 0 0-42.668 123.816 201.892 201.892 0 0 0 16.809 81.239 179.565 179.565 0 0 0 34.988 52.992zm0 0" fill="#bfa885"/><path d="M234.445 501.105a91.536 91.536 0 0 0 17.457 2.133c1.368.086 2.73.172 4.098.172s2.73-.086 4.098-.172a91.536 91.536 0 0 0 17.457-2.133l71.355-46.933a185.542 185.542 0 0 0 29.867-54.016 234.662 234.662 0 0 0 13.758-80.215 219.532 219.532 0 0 0-35.937-123.816H155.402a219.755 219.755 0 0 0-35.937 123.816 234.771 234.771 0 0 0 14.16 81.239 185.049 185.049 0 0 0 29.465 52.992zm0 0" fill="#ffe0b2"/><path d="M230.398 501.105a128.297 128.297 0 0 0 20.739 2.133h9.726c6.961-.148 13.895-.86 20.739-2.133l51.199-46.59a133.601 133.601 0 0 0 17.066-66.304c0-63.66-41.984-115.2-93.867-115.2s-93.867 51.54-93.867 115.2a133.601 133.601 0 0 0 17.066 66.305zm0 0" fill="#fdd7ad"/><path d="M408.406 8.563 256 145.012l-20.82-18.606 106.75-95.574a231.36 231.36 0 0 0 66.476-22.27zm0 0" fill="#4e342e"/><path d="m341.93 30.832-106.75 95.574-106.754-95.574-24.832-22.27c2.816 1.622 46.68 26.454 131.586 30.036 6.656.257 13.652.43 20.82.43a426.747 426.747 0 0 0 85.93-8.196zm0 0" fill="#795548"/><path d="M313.004 211.57A106.129 106.129 0 0 1 256 273.012a147.196 147.196 0 0 1-14.164-8.11 101.796 101.796 0 0 1-42.84-53.332l42.84-56.406L256 136.477zm0 0" fill="#d84315"/><path d="M284.672 211.57a101.789 101.789 0 0 1-42.836 53.332 101.796 101.796 0 0 1-42.84-53.332l42.84-56.406zm0 0" fill="#ff5722"/><path d="M503.465 494.875H8.535a8.533 8.533 0 1 1 0-17.066h494.93a8.534 8.534 0 1 1 0 17.066zm0 0" fill="#805333"/><path d="M256 153.543a8.526 8.526 0 0 1-5.691-2.176L97.69 14.832a8.528 8.528 0 0 1-1.086-11.336 8.534 8.534 0 0 1 11.153-2.316c.496.265 50.52 29.289 148.242 29.289S403.746 1.445 404.242 1.156a8.533 8.533 0 0 1 10.066 13.652L261.692 151.34a8.538 8.538 0 0 1-5.691 2.203zM144.05 33.41 256 133.56 367.95 33.41A413.677 413.677 0 0 1 256 47.535 413.677 413.677 0 0 1 144.05 33.41zm0 0" fill="#59474e"/><g fill="#ffb301"><path d="M221.867 452.21c9.426 0 17.067 7.642 17.067 17.067v17.067c0 9.426-7.641 17.066-17.067 17.066s-17.066-7.64-17.066-17.066v-17.067c0-9.425 7.64-17.066 17.066-17.066zm0 0"/><path d="M187.734 452.21c9.426 0 17.067 7.642 17.067 17.067v17.067c0 9.426-7.64 17.066-17.067 17.066s-17.066-7.64-17.066-17.066v-17.067c0-9.425 7.64-17.066 17.066-17.066zM153.602 452.21c9.425 0 17.066 7.642 17.066 17.067v17.067c0 9.426-7.64 17.066-17.066 17.066-9.426 0-17.067-7.64-17.067-17.066v-17.067c0-9.425 7.64-17.066 17.067-17.066zM358.398 452.21c9.426 0 17.067 7.642 17.067 17.067v17.067c0 9.426-7.64 17.066-17.067 17.066-9.425 0-17.066-7.64-17.066-17.066v-17.067c0-9.425 7.64-17.066 17.066-17.066zM324.266 452.21c9.425 0 17.066 7.642 17.066 17.067v17.067c0 9.426-7.64 17.066-17.066 17.066s-17.067-7.64-17.067-17.066v-17.067c0-9.425 7.64-17.066 17.067-17.066zM290.133 452.21c9.426 0 17.066 7.642 17.066 17.067v17.067c0 9.426-7.64 17.066-17.066 17.066-9.426 0-17.067-7.64-17.067-17.066v-17.067c0-9.425 7.641-17.066 17.067-17.066zm0 0"/></g><path d="M172.715 70.43c-37.324 5.437-64.078 38.824-61.246 76.437 2.828 37.613 34.281 66.621 71.996 66.41a75.723 75.723 0 0 0 14.082-1.367c33.332-4.805 58.164-33.222 58.453-66.898" fill="#fff"/><path d="M221.867 145.012c0 18.847-15.281 34.133-34.133 34.133s-34.132-15.286-34.132-34.133c0-18.852 15.28-34.137 34.132-34.137s34.133 15.285 34.133 34.137zm0 0" fill="#37474f"/><path d="M339.285 70.43c37.324 5.437 64.078 38.824 61.246 76.437-2.828 37.613-34.281 66.621-71.996 66.41a75.723 75.723 0 0 1-14.082-1.367c-33.332-4.805-58.164-33.222-58.453-66.898" fill="#fff"/><path d="M358.398 145.012c0 18.847-15.28 34.133-34.132 34.133s-34.133-15.286-34.133-34.133c0-18.852 15.281-34.137 34.133-34.137s34.132 15.285 34.132 34.137zm0 0" fill="#37474f"/><path d="M187.734 179.145c18.852 0 34.133-15.286 34.133-34.133 0-18.852-15.281-34.137-34.133-34.137s-34.132 15.285-34.132 34.137c0 18.847 15.28 34.133 34.132 34.133zm0-51.204c9.426 0 17.067 7.645 17.067 17.07 0 9.423-7.64 17.067-17.067 17.067s-17.066-7.644-17.066-17.066c0-9.426 7.64-17.07 17.066-17.07zM324.266 179.145c18.851 0 34.132-15.286 34.132-34.133 0-18.852-15.28-34.137-34.132-34.137s-34.133 15.285-34.133 34.137c0 18.847 15.281 34.133 34.133 34.133zm0-51.204c9.425 0 17.066 7.645 17.066 17.07 0 9.423-7.64 17.067-17.066 17.067s-17.067-7.644-17.067-17.066c0-9.426 7.64-17.07 17.067-17.07zm0 0"/><path d="M503.465 477.809H384v-8.532a25.313 25.313 0 0 0-5.668-15.863 186.507 186.507 0 0 0 26.402-39.75 56.095 56.095 0 0 0 32.625 12.375c3.801.008 7.579-.566 11.204-1.707 35.542-11.445 45.687-75.684 23.101-146.219-15.36-48.316-42.777-87.32-70.332-101.547a79.545 79.545 0 0 0 8.27-35.14c-.184-33.606-21.18-63.578-52.704-75.23l57.41-51.364a8.528 8.528 0 0 0 1.087-11.336 8.534 8.534 0 0 0-11.153-2.316c-.496.265-50.52 29.289-148.242 29.289S108.254 1.445 107.758 1.156a8.533 8.533 0 0 0-10.066 13.652l57.41 51.364c-31.532 11.652-52.532 41.637-52.704 75.254a79.61 79.61 0 0 0 8.536 35.738c-27.266 14.602-53.649 52.676-69.121 100.93C19.285 348.633 29.422 412.87 65 424.332a36.754 36.754 0 0 0 11.195 1.707 55.223 55.223 0 0 0 31.477-11.555 186.392 186.392 0 0 0 25.996 38.91A25.33 25.33 0 0 0 128 469.278v8.532H8.535a8.534 8.534 0 1 0 0 17.066H129.57a25.36 25.36 0 0 0 17.739 16.293 25.372 25.372 0 0 0 23.359-5.879c9.645 8.875 24.484 8.875 34.133 0a25.34 25.34 0 0 0 27.015 4.64 136.415 136.415 0 0 0 18.91 1.837c1.758.093 3.508.175 5.274.175s3.516-.082 5.121-.168h.211c6.332-.18 12.64-.793 18.887-1.836a25.336 25.336 0 0 0 26.98-4.648c9.649 8.875 24.489 8.875 34.133 0a25.372 25.372 0 0 0 23.36 5.879 25.36 25.36 0 0 0 17.738-16.293h121.035a8.533 8.533 0 1 0 0-17.066zm-349.863-34.133a25.991 25.991 0 0 0-5.301.562 170.997 170.997 0 0 1-29.809-46.496 192.28 192.28 0 0 1-16.094-77.8 188.219 188.219 0 0 1 35.84-111.864c.258.18.489.395.754.567a79.621 79.621 0 0 0 54.406 12.464 109.22 109.22 0 0 0 38.11 47.079c-44.63 13.304-77.906 61.996-77.906 120.023a144.124 144.124 0 0 0 12.296 58.75 25.295 25.295 0 0 0-12.296-3.285zM256 220.496c4.71 0 8.535-3.82 8.535-8.535v-19.258a80.092 80.092 0 0 0 37.016 24.61A99.414 99.414 0 0 1 256 263.238a99.45 99.45 0 0 1-45.55-45.925 80.092 80.092 0 0 0 37.015-24.61v19.258a8.536 8.536 0 0 0 8.535 8.535zm62.566.613a79.584 79.584 0 0 0 54.383-12.457c.274-.18.512-.402.785-.582a187.96 187.96 0 0 1 35.868 111.871 192.227 192.227 0 0 1-15.704 76.872 170.839 170.839 0 0 1-30.199 47.425 25.991 25.991 0 0 0-5.3-.562 25.295 25.295 0 0 0-12.297 3.285 144.124 144.124 0 0 0 12.296-58.75c0-58.027-33.277-106.719-77.941-120.023a109.322 109.322 0 0 0 38.11-47.079zm136.84 62.184c20.676 64.578 10.242 117.598-12.031 124.773-8.824 2.782-19.855-.902-31.438-10.359a209.804 209.804 0 0 0 14.731-77.766 204.91 204.91 0 0 0-39.836-122.82 76.608 76.608 0 0 0 5.367-6.16c23.63 11.05 48.973 47.703 63.207 92.332zm-62.87-141.867a62.89 62.89 0 0 1-22.333 48.027c-.043 0-.105.04-.148.074-.04.036-.067.102-.118.145a64.288 64.288 0 0 1-6.316 4.687 63.31 63.31 0 0 1-47.562 9.164c-27.852-3.996-49.2-26.789-51.364-54.843l77.22-69.078c29.347 6.078 50.452 31.851 50.62 61.824zm-145.071-94.04v22.137a8.536 8.536 0 0 0 17.07 0V47.387A408.45 408.45 0 0 0 367.95 33.41L334.25 63.56c-.11.078-.195.18-.305.273L256 133.559l-77.945-69.727c-.11-.094-.196-.195-.305-.273l-33.7-30.149a408.45 408.45 0 0 0 103.415 13.977zm-77.38 32.216 77.22 69.078c-2.16 28.05-23.5 50.84-51.344 54.843a63.5 63.5 0 0 1-47.61-9.175 63.987 63.987 0 0 1-6.28-4.657c-.06-.05-.075-.128-.137-.171-.051-.032-.106-.06-.16-.086a62.86 62.86 0 0 1-22.31-48.008c.169-29.973 21.274-55.746 50.622-61.824zM70.204 408.074c-22.312-7.183-32.75-60.203-12.066-124.781 14.011-43.793 38.906-80.215 62.113-91.758 1.563 1.926 3.176 3.813 4.918 5.598A205.179 205.179 0 0 0 85.332 319.94a209.67 209.67 0 0 0 15.106 78.723c-11.145 8.762-21.75 12.09-30.235 9.41zm83.399 86.801a8.533 8.533 0 0 1-8.536-8.531v-17.067a8.534 8.534 0 1 1 17.067 0v17.067c0 4.71-3.82 8.531-8.531 8.531zm34.132 0a8.533 8.533 0 0 1-8.535-8.531v-17.067a8.534 8.534 0 1 1 17.067 0v17.067c0 4.71-3.82 8.531-8.532 8.531zm25.598-8.531v-17.067a8.534 8.534 0 1 1 17.066 0v17.067a8.533 8.533 0 0 1-17.066 0zm38.606 8.379h-.59c-1.809 0-3.532-.215-5.297-.325a25.375 25.375 0 0 0 1.414-8.054v-17.067a25.488 25.488 0 0 0-42.664-18.945 24.491 24.491 0 0 0-21.438-6.21 126.219 126.219 0 0 1-12.695-55.911c0-58.82 38.277-106.668 85.332-106.668s85.332 47.848 85.332 106.668a126.219 126.219 0 0 1-12.695 55.91 24.491 24.491 0 0 0-21.438 6.211 25.488 25.488 0 0 0-42.664 18.945v17.067a25.389 25.389 0 0 0 1.414 8.039c-1.844.117-3.625.297-5.539.34-2.832.152-5.64.152-8.472 0zm38.195.152a8.532 8.532 0 0 1-8.531-8.531v-17.067a8.533 8.533 0 1 1 17.066 0v17.067c0 4.71-3.82 8.531-8.535 8.531zm34.133 0a8.532 8.532 0 0 1-8.532-8.531v-17.067a8.533 8.533 0 1 1 17.067 0v17.067c0 4.71-3.82 8.531-8.535 8.531zm34.132 0a8.532 8.532 0 0 1-8.53-8.531v-17.067a8.533 8.533 0 1 1 17.066 0v17.067c0 4.71-3.82 8.531-8.536 8.531zm0 0"/><path d="M230.398 341.277A35.503 35.503 0 0 0 256 329.852a35.503 35.503 0 0 0 25.602 11.425c4.71 0 8.53-3.82 8.53-8.535 0-4.71-3.82-8.531-8.53-8.531a23.229 23.229 0 0 1-17.922-12.348 8.537 8.537 0 0 0-7.594-4.695H256a8.595 8.595 0 0 0-7.594 4.645 23.245 23.245 0 0 1-18.008 12.398 8.532 8.532 0 0 0-8.53 8.531 8.533 8.533 0 0 0 8.53 8.535zM290.133 418.078a8.533 8.533 0 0 0-8.531-8.535 23.22 23.22 0 0 1-17.922-12.348 8.526 8.526 0 0 0-7.594-4.691H256a8.584 8.584 0 0 0-7.594 4.64 23.236 23.236 0 0 1-18.008 12.399 8.533 8.533 0 0 0-8.53 8.535c0 4.711 3.82 8.531 8.53 8.531A35.488 35.488 0 0 0 256 415.184a35.488 35.488 0 0 0 25.602 11.425c4.71 0 8.53-3.82 8.53-8.53zM247.465 375.41a8.533 8.533 0 0 0-8.531-8.535c-8.157 0-13.422-11.73-13.457-11.816a8.537 8.537 0 0 0-15.727-.07c-.059.163-5.324 11.886-13.484 11.886a8.533 8.533 0 0 0-8.532 8.535c0 4.711 3.82 8.531 8.532 8.531a29.057 29.057 0 0 0 21.336-10.18 29.049 29.049 0 0 0 21.332 10.18 8.549 8.549 0 0 0 6.035-2.496 8.549 8.549 0 0 0 2.496-6.035zM286.54 355.023c-.052.13-5.317 11.852-13.474 11.852a8.533 8.533 0 0 0-8.53 8.535c0 4.711 3.82 8.531 8.53 8.531a29.049 29.049 0 0 0 21.332-10.18 29.057 29.057 0 0 0 21.336 10.18 8.533 8.533 0 0 0 0-17.066c-8.16 0-13.425-11.73-13.457-11.816a8.538 8.538 0 0 0-7.879-5.25 8.54 8.54 0 0 0-7.859 5.214zm0 0"/></svg>