<svg xmlns="http://www.w3.org/2000/svg" viewBox="0 0 512 512" style="enable-background:new 0 0 512 512" xml:space="preserve"><path style="fill:#f65200" d="M256 16.516C123.948 16.516 16.516 123.948 16.516 256S123.948 495.484 256 495.484 495.484 388.052 495.484 256 388.052 16.516 256 16.516zm205.744 325.539c-15.598 37.248-41.099 69.632-73.749 93.651a222.105 222.105 0 0 1-113.727 42.513 8.257 8.257 0 0 1-8.521-10.784l39.091-120.312h-17.366l-23.618 72.691a8.258 8.258 0 0 1-15.708 0l-25.493-78.459-.018-.054-10.707-32.952-.031-.097-18.821-57.925-14.05 10.208 13.908 42.803.021.065 53.298 164.034a8.257 8.257 0 0 1-8.521 10.784 222.105 222.105 0 0 1-113.727-42.513c-32.649-24.018-58.151-56.403-73.749-93.651a8.259 8.259 0 0 1 7.617-11.448h104.89a8.257 8.257 0 0 1 8.258 8.258v.001h16.092l-8.05-24.775H102.63a8.258 8.258 0 0 1-4.854-14.94l66.736-48.487a1.94 1.94 0 0 0 .056-.04l28.041-20.373.059-.043 49.282-35.807-14.05-10.208-36.302 26.375c-.075.055-.149.111-.226.163l-27.77 20.176c-.106.08-.212.16-.322.235L51.867 312.091a8.262 8.262 0 0 1-7.729 1.062 8.255 8.255 0 0 1-5.163-5.849 224.002 224.002 0 0 1-5.944-51.303c0-64.981 28.27-126.588 77.563-169.028a8.25 8.25 0 0 1 7.614-1.695 8.26 8.26 0 0 1 5.628 5.401l39.09 120.308 14.05-10.208-23.619-72.692a8.26 8.26 0 0 1 12.707-9.233l66.728 48.481c.022.017.045.032.067.048l28.031 20.365.068.05 58.374 42.411.051.036 28.048 20.378.054.039 66.737 48.488a8.258 8.258 0 0 1-4.854 14.94h-82.403l-.027.002-.028-.002h-34.677l-.028.002-.028-.002h-61.018l5.367 16.516h79.485c.127-.002.253-.002.382 0h137.732a8.259 8.259 0 0 1 7.619 11.449zm6.117-28.903a8.261 8.261 0 0 1-7.729-1.062l-111.409-80.942a8.702 8.702 0 0 1-.33-.241l-27.929-20.292-.004-.002-41.215-29.945-.002-.001-139.66-101.469a8.258 8.258 0 0 1 .557-13.733C174.96 44.248 215.025 33.032 256 33.032s81.04 11.216 115.861 32.433a8.26 8.26 0 0 1 .557 13.733l-83.465 60.641a8.257 8.257 0 0 1-11.533-1.824l-14.392 10.457 21.071 15.309 61.834-44.926a8.256 8.256 0 0 1 12.707 9.233l-23.619 72.692 14.05 10.208 39.09-120.308a8.255 8.255 0 0 1 13.242-3.706c49.294 42.439 77.564 104.046 77.564 169.027 0 17.302-2 34.564-5.943 51.305a8.254 8.254 0 0 1-5.163 5.846z"/><path style="fill:#f65200" d="m320.938 297.576 12.035-37.041-14.05-10.208-15.352 47.249z"/><path d="M437.019 74.981C388.667 26.63 324.38 0 256 0S123.333 26.63 74.981 74.981C26.628 123.334 0 187.62 0 256s26.628 132.666 74.981 181.019C123.333 485.371 187.62 512 256 512s132.667-26.629 181.019-74.981C485.372 388.666 512 324.38 512 256s-26.628-132.666-74.981-181.019zM256 495.484C123.948 495.484 16.516 388.052 16.516 256S123.948 16.516 256 16.516 495.484 123.948 495.484 256 388.052 495.484 256 495.484z"/><path d="M454.126 330.608H316.394a12.161 12.161 0 0 0-.382 0h-79.485l-5.367-16.516h61.018l.028.002.028-.002h34.677l.028.002.027-.002h82.403a8.258 8.258 0 0 0 4.854-14.94l-66.737-48.488-.054-.039-28.048-20.378-.051-.036L260.96 187.8l-.068-.05-28.031-20.365a1.393 1.393 0 0 0-.067-.048l-66.728-48.481a8.256 8.256 0 0 0-12.707 9.233l23.619 72.692-14.05 10.208-39.09-120.31a8.255 8.255 0 0 0-5.628-5.401 8.247 8.247 0 0 0-7.614 1.695C61.302 129.412 33.032 191.019 33.032 256c0 17.302 2 34.564 5.943 51.305a8.261 8.261 0 0 0 8.037 6.365c1.72 0 3.423-.537 4.855-1.578l111.413-80.947c.11-.075.217-.154.322-.235l27.77-20.176c.077-.053.151-.109.226-.163l36.302-26.375 14.05 10.208-49.282 35.807-.059.043-28.041 20.373a1.94 1.94 0 0 0-.056.04l-66.736 48.487a8.258 8.258 0 0 0 4.854 14.94h76.433l8.05 24.775 39.478 121.499c-67.641-9.605-125.736-51.8-155.899-113.242h92.072a8.257 8.257 0 0 0 8.258-8.257v-.001a8.257 8.257 0 0 0-8.258-8.258H57.874a8.256 8.256 0 0 0-7.617 11.448c15.598 37.248 41.099 69.632 73.749 93.651a222.105 222.105 0 0 0 113.727 42.513 8.257 8.257 0 0 0 8.521-10.784l-53.298-164.034-.021-.065-13.908-42.803 14.05-10.208 18.821 57.925.031.097 10.707 32.952.018.054 25.493 78.459a8.258 8.258 0 0 0 15.708 0l23.618-72.691h17.366l-39.091 120.312a8.257 8.257 0 0 0 8.521 10.784 222.105 222.105 0 0 0 113.727-42.513c32.649-24.018 58.151-56.403 73.749-93.651a8.262 8.262 0 0 0-.742-7.764 8.264 8.264 0 0 0-6.877-3.684zM52.543 291.185A208.02 208.02 0 0 1 49.548 256c0-55.962 22.65-109.228 62.544-148.021l36.786 113.214-96.335 69.992zm138.484-100.613-14.107-43.415 36.931 26.832-22.824 16.583zm-62.981 107.004 36.932-26.833 8.718 26.833h-45.65zm218.977-26.834 36.932 26.833h-45.651l8.719-26.833zm-14.05-10.207-12.035 37.04h-17.366l15.352-47.248 14.049 10.208zm-125.848-20.416 48.873-35.509 48.875 35.51-18.669 57.455h-60.412l-18.667-57.456zM256 390.538l-14.106-43.415h28.213L256 390.538zm29.41 69.827 36.795-113.242h119.103c-30.162 61.443-88.257 103.639-155.898 113.242zM401.405 86.972a8.257 8.257 0 0 0-13.242 3.706l-39.09 120.308-14.05-10.208 23.619-72.692a8.26 8.26 0 0 0-12.707-9.233l-61.834 44.926-21.071-15.309-103.374-75.105C189.22 57.75 222.274 49.548 256 49.548s66.78 8.202 96.345 23.817l-73.1 53.111a8.258 8.258 0 0 0-1.827 11.535l.002.002a8.254 8.254 0 0 0 11.533 1.824l83.465-60.641a8.258 8.258 0 0 0-.557-13.733C337.04 44.248 296.975 33.032 256 33.032s-81.04 11.216-115.861 32.433a8.257 8.257 0 0 0-.557 13.733l139.66 101.47.001.001 41.217 29.946.004.002 27.929 20.292c.108.083.218.163.33.241l111.409 80.943a8.264 8.264 0 0 0 7.729 1.062 8.255 8.255 0 0 0 5.163-5.849A224.034 224.034 0 0 0 478.968 256c0-64.981-28.27-126.588-77.563-169.028zm-103.256 87.017 36.931-26.832-14.107 43.415-22.824-16.583zm161.308 117.196-96.335-69.991 36.786-113.214c39.894 38.792 62.544 92.058 62.544 148.02 0 11.81-1.006 23.598-2.995 35.185z"/></svg>