<svg xmlns="http://www.w3.org/2000/svg" viewBox="0 0 512 512" style="enable-background:new 0 0 512 512" xml:space="preserve"><path style="fill:#f0d3a3" d="M363.483 357.315c0 81.042-65.696 146.738-146.738 146.738S70.009 438.356 70.009 357.315v-70.098c0-81.04 65.696-146.738 146.738-146.738s146.738 65.696 146.738 146.738v70.098h-.002z"/><path style="opacity:.05;enable-background:new" d="M177.295 472.232c-.92 0-1.855-.161-2.769-.5-23.828-8.86-44.829-25.39-59.134-46.546a7.947 7.947 0 0 1 13.166-8.902c12.465 18.436 30.758 32.838 51.507 40.553a7.947 7.947 0 0 1-2.77 15.395zM125.594 371.51a7.948 7.948 0 0 1-7.921-7.41 100.357 100.357 0 0 1-.229-6.784 7.947 7.947 0 1 1 15.892 0c0 1.897.065 3.819.193 5.711a7.946 7.946 0 0 1-7.935 8.483zM145.432 422.291a7.932 7.932 0 0 1-6.207-2.978c-7.852-9.801-13.701-20.819-17.385-32.751a7.946 7.946 0 0 1 5.249-9.937c4.194-1.292 8.643 1.055 9.937 5.249 3.092 10.015 8.005 19.269 14.601 27.502a7.949 7.949 0 0 1-1.232 11.171 7.92 7.92 0 0 1-4.963 1.744z"/><path style="opacity:.05;enable-background:new" d="M231.649 492.841c-81.042 0-146.738-65.696-146.738-146.738v-70.098c0-44.605 19.908-84.556 51.316-111.469-39.884 26.23-66.22 71.376-66.22 122.68v70.098c0 81.042 65.696 146.738 146.738 146.738 36.436 0 69.765-13.285 95.421-35.269-23.116 15.204-50.78 24.058-80.517 24.058z"/><path style="fill:#272f37" d="M108.243 329.888H85.557c-11.533 0-20.882-9.349-20.882-20.882v-87.297h43.568v108.179zM114.72 329.888a6.477 6.477 0 0 1-6.477-6.477V221.71h47.579v67.077c.001 22.699-18.401 41.101-41.102 41.101z"/><path style="fill:#00a155" d="M469.46 246.605c0 21.12-15.153 39.07-21.442 45.61a3.717 3.717 0 0 1-5.369 0c-6.287-6.539-21.442-24.49-21.442-45.61s15.153-39.07 21.442-45.61a3.717 3.717 0 0 1 5.369 0c6.289 6.539 21.442 24.49 21.442 45.61z"/><path style="fill:#c39774" d="M469.028 375.137c14.316 0 25.923-11.606 25.923-25.923 0-14.316-11.606-25.923-25.923-25.923H291.116c-14.316 0-25.923 11.606-25.923 25.923 0 14.316 11.606 25.923 25.923 25.923h177.912z"/><path style="opacity:.05;enable-background:new" d="M319.508 352.651h-25.845c-4.39 0-7.946-3.558-7.946-7.947s3.557-7.947 7.946-7.947h25.845a7.948 7.948 0 0 1 0 15.894zM417.045 360.959h-55.937c-4.39 0-7.947-3.558-7.947-7.947s3.557-7.947 7.947-7.947h55.937c4.39 0 7.946 3.558 7.946 7.947s-3.556 7.947-7.946 7.947z"/><path style="fill:#c39774" d="M231.646 390.232c-5.97 0-10.486 5.427-9.382 11.295 5.292 28.124 29.985 49.401 59.646 49.401 29.662 0 54.354-21.276 59.646-49.401 1.104-5.868-3.412-11.295-9.382-11.295H231.646z"/><path style="opacity:.1;enable-background:new" d="M249.105 416.705c-7.085 0-13.965.861-20.563 2.445 10.276 18.925 30.32 31.776 53.369 31.776a60.41 60.41 0 0 0 29.89-7.87c-15.937-16.255-38.133-26.351-62.696-26.351z"/><path style="fill:#c39774" d="M108.243 282.32c0-3.898-3.41-6.967-7.276-6.467-27.627 3.569-48.971 27.181-48.971 55.78 0 28.598 21.343 52.212 48.971 55.78 3.866.499 7.276-2.569 7.276-6.467V282.32z"/><path style="opacity:.2;enable-background:new" d="M216.746 140.479c-57.497 0-107.261 33.074-131.328 81.23H64.675v46.372h297.568c-9.378-71.998-70.942-127.602-145.497-127.602z"/><path style="fill:#de2a4e" d="M369.972 256.488H64.097c-15.323 0-24.992-16.479-17.52-29.856A269.538 269.538 0 0 0 72.482 28.726C69.131 15.553 82.116 4.129 94.754 9.13l87.025 34.437a401.108 401.108 0 0 1 205.878 183.368c7.171 13.368-2.515 29.553-17.685 29.553z"/><path style="opacity:.1;enable-background:new" d="M69.691 235.673A299.155 299.155 0 0 0 87.217 14.844a18.623 18.623 0 0 1-.811-6.765c-9.282 1.254-16.526 10.42-13.925 20.645a269.53 269.53 0 0 1-25.906 197.907c-7.473 13.377 2.197 29.855 17.519 29.855h6.178c-3.427-6.049-4.091-13.699-.581-20.813zm242.416 20.815h57.865c4.34 0 8.228-1.329 11.404-3.533l-69.269 3.533z"/><path style="fill:#fdd05f" d="M83.441 99.023c27.93 27.93 41.107 63.725 46.898 85.286 2.434 9.06-5.857 17.351-14.917 14.917-21.561-5.792-57.357-18.968-85.286-46.898a149.18 149.18 0 0 1-2.264-2.314c-33.615-35.126 18.131-86.871 53.255-53.255a149.18 149.18 0 0 1 2.314 2.264z"/><path style="opacity:.15;enable-background:new" d="M89.849 166.682a7.92 7.92 0 0 1-5.619-2.328l-32.186-32.186a7.946 7.946 0 0 1 11.237-11.237l32.186 32.186a7.946 7.946 0 0 1 0 11.237 7.918 7.918 0 0 1-5.618 2.328z"/><path d="M469.028 315.345h-33.262l15.964-15.964a11.626 11.626 0 0 0 2.017-1.658c7.114-7.398 23.659-27.189 23.659-51.118 0-23.928-16.546-43.719-23.659-51.117a11.725 11.725 0 0 0-8.413-3.585 11.724 11.724 0 0 0-8.412 3.585c-7.114 7.399-23.66 27.19-23.66 51.117 0 21.101 12.864 38.978 20.784 47.983l-20.756 20.757h-41.859v-28.127c0-7.622-.575-15.25-1.69-22.782h.23c9.947 0 18.933-5.095 24.041-13.63 5.107-8.535 5.35-18.863.647-27.627-45.631-85.069-120.194-151.48-209.957-187L97.679 1.741C89.04-1.677 79.345.012 72.374 6.147c-6.973 6.135-9.882 15.537-7.593 24.538a261.447 261.447 0 0 1 7.694 50.782C54.632 73.723 35.42 79.671 23.103 91.99c-15.683 15.682-21.053 42.536-.971 63.519.782.817 1.577 1.629 2.385 2.438 10.319 10.318 21.599 18.717 32.974 25.559a262.157 262.157 0 0 1-17.851 39.251c-4.898 8.77-4.788 19.178.296 27.841 3.801 6.476 9.808 10.999 16.795 12.871v29.929c-7.984 10.748-12.678 24.019-12.678 38.233 0 17.802 7.365 34.123 19.334 45.859 10 76.889 75.414 134.51 153.361 134.51 75.785 0 140.15-54.94 152.536-128.917h99.745c18.675 0 33.869-15.194 33.869-33.869-.001-18.676-15.195-33.869-33.87-33.869zm-39.873-68.74c0-15.43 9.716-29.262 16.18-36.756 6.463 7.493 16.179 21.326 16.179 36.756 0 15.431-9.715 29.263-16.179 36.756-6.464-7.493-16.18-21.326-16.18-36.756zM35.758 146.713a152.31 152.31 0 0 1-2.146-2.193c-13.703-14.319-9.508-31.056.728-41.292 6.685-6.685 13.936-9.426 20.817-9.426 7.741 0 15.014 3.471 20.477 8.699.734.704 1.464 1.417 2.188 2.141 27.229 27.229 39.783 62.894 44.843 81.729.572 2.131-.573 3.568-1.093 4.088-.519.52-1.954 1.667-4.088 1.093-18.836-5.06-54.5-17.614-81.726-44.839zm17.884 95.842c-2.2-3.749-2.247-8.252-.128-12.047 7.025-12.576 13.071-25.761 18.066-39.295 15.084 7.482 29.698 12.442 41.781 15.689 1.768.475 3.553.708 5.314.708 5.242 0 10.283-2.059 14.136-5.912 5.147-5.147 7.093-12.418 5.203-19.449-6.685-24.882-20.603-60.493-48.954-88.844-.112-.112-.227-.22-.34-.333a277.57 277.57 0 0 0-8.537-66.306c-.823-3.235.181-6.483 2.688-8.688 2.507-2.206 5.855-2.788 8.958-1.56l87.025 34.436c86.273 34.14 157.941 97.971 201.799 179.736 2.065 3.848 1.963 8.206-.28 11.954-2.243 3.749-6.034 5.897-10.402 5.897H64.097c-4.348 0-8.255-2.237-10.455-5.986zm57.623 28.882a14.359 14.359 0 0 0-11.316-3.466 63.642 63.642 0 0 0-27.327 10.276v-13.813h75.254v24.351c0 17.79-14.084 32.346-31.686 33.119V282.32a14.49 14.49 0 0 0-4.925-10.883zm-51.322 60.195c0-23.639 17.23-43.829 40.353-47.65v14.978c-14.72 3.581-25.683 16.867-25.683 32.673 0 15.806 10.964 29.093 25.683 32.673v14.978c-23.123-3.823-40.353-24.012-40.353-47.652zm40.354-15.835v31.669c-5.796-2.921-9.79-8.914-9.79-15.835 0-6.92 3.994-12.912 9.79-15.834zm116.449 180.31c-64.868 0-120.059-44.471-134.88-105.956a63.533 63.533 0 0 0 18.083 5.144 14.373 14.373 0 0 0 11.316-3.465 14.497 14.497 0 0 0 4.925-10.884v-43.147c26.368-.782 47.579-22.459 47.579-49.012v-24.351h189.889c.77 4.664 1.302 9.375 1.597 14.102a36.035 36.035 0 0 0-20.076-6.085c-19.988 0-36.25 16.262-36.25 36.25a7.936 7.936 0 0 0 3.591 6.643h-11.404c-18.675 0-33.869 15.194-33.869 33.869 0 16.174 11.398 29.728 26.583 33.071h-52.184a17.444 17.444 0 0 0-13.467 6.329 17.42 17.42 0 0 0-3.724 14.382c6.093 32.377 34.462 55.878 67.456 55.878 16.73 0 32.264-6.051 44.315-16.23-25.552 32.704-65.356 53.462-109.48 53.462zm138.791-187.405v6.643h-44.305a7.937 7.937 0 0 0 3.591-6.643c0-11.225 9.132-20.357 20.357-20.357s20.357 9.132 20.357 20.357zm-21.788 91.355c-4.682 24.871-26.482 42.924-51.838 42.924s-47.157-18.052-51.838-42.925a1.535 1.535 0 0 1 .339-1.297 1.56 1.56 0 0 1 1.233-.581h100.53a1.56 1.56 0 0 1 1.233.581c.218.262.452.699.341 1.298zm15.789-2.269a17.394 17.394 0 0 0-3.896-9.174 17.446 17.446 0 0 0-8.301-5.531h15.797a138.181 138.181 0 0 1-3.6 14.705zm119.49-30.598H291.116c-9.912 0-17.976-8.064-17.976-17.976 0-9.912 8.063-17.976 17.976-17.976h177.911c9.911 0 17.976 8.064 17.976 17.976.001 9.912-8.064 17.976-17.975 17.976zm-15.747-110.22v-20.731c0-4.389-3.557-7.946-7.947-7.946s-7.947 3.558-7.947 7.946v20.731c0 4.389 3.557 7.946 7.947 7.946s7.947-3.557 7.947-7.946zm-214.708 51.732a7.947 7.947 0 1 0 15.893 0c0-19.988-16.262-36.25-36.25-36.25s-36.25 16.262-36.25 36.25a7.947 7.947 0 0 0 15.893 0c0-11.225 9.132-20.357 20.357-20.357 11.226 0 20.357 9.132 20.357 20.357z"/></svg>