<svg xmlns="http://www.w3.org/2000/svg" viewBox="0 0 512 512" style="enable-background:new 0 0 512 512" xml:space="preserve"><path style="fill:#2d6ccf" d="M369.984 46.333c-34.464 0-64.56-15.614-80.708-38.833h-66.554c-16.148 23.219-46.243 38.833-80.708 38.833-18.371 0-35.499-4.439-49.936-12.099-2.91-1.544-6.412.596-6.412 3.889v61.679c0 43.805 35.511 79.316 79.316 79.316h182.035c43.805 0 79.316-35.511 79.316-79.316V38.124c0-3.294-3.503-5.433-6.412-3.889-14.438 7.66-31.566 12.098-49.937 12.098z"/><path style="fill:#2159aa" d="M419.921 34.234c-5.052 2.68-10.44 4.956-16.088 6.796v58.773c0 43.805-35.511 79.316-79.316 79.316h22.501c43.805 0 79.316-35.511 79.316-79.316V38.124c-.001-3.294-3.503-5.433-6.413-3.89z"/><path style="fill:#825939" d="M113 132.455c0-12.671 10.272-22.943 22.943-22.943h240.113c12.671 0 22.943 10.272 22.943 22.943v139.271H113V132.455z"/><path style="fill:#ffb700" d="M376.057 109.512H135.943c-12.671 0-22.943 10.272-22.943 22.943v5.337h286v-5.337c0-12.671-10.272-22.943-22.943-22.943z"/><path style="fill:#f0eeee" d="M203.073 363.444h105.855c41.621 0 75.362 33.741 75.362 75.362V504.5H127.711v-65.694c0-41.622 33.741-75.362 75.362-75.362z"/><path style="fill:#2d6ccf" d="M203.073 363.444h105.855c41.621 0 75.362 33.741 75.362 75.362V504.5H127.711v-65.694c0-41.622 33.741-75.362 75.362-75.362z"/><path style="fill:#2159aa" d="M308.927 363.444h-22.501c41.621 0 75.362 33.741 75.362 75.362V504.5h22.501v-65.695c0-41.621-33.741-75.361-75.362-75.361z"/><path style="fill:#4a89e5" d="M292.248 347.5 256 414.493l37 29.007 27.588-60.224c4.421-9.65.452-21.07-9.001-25.898l-19.339-9.878zM219.752 347.5 256 414.493 219 443.5l-27.588-60.224c-4.421-9.65-.452-21.07 9.001-25.898l19.339-9.878z"/><path style="fill:#fa9e3e" d="M213.904 281.729v90.668c0 23.249 18.847 42.096 42.096 42.096 23.249 0 42.096-18.847 42.096-42.096v-90.668h-84.192zM125.839 237.99h49.369v56.61h-49.369c-15.632 0-28.305-12.673-28.305-28.305 0-15.633 12.673-28.305 28.305-28.305zM386.161 237.99h-49.369v56.61h49.369c15.632 0 28.305-12.673 28.305-28.305 0-15.633-12.673-28.305-28.305-28.305z"/><path style="fill:#ffb56b" d="M368.115 244.675c0 61.919-50.195 112.115-112.115 112.115-61.919 0-112.115-50.195-112.115-112.115V137.792h224.229l.001 106.883z"/><path style="fill:#ef9245" d="M344.781 137.792v118.551c0 53.578-41.949 97.354-94.795 100.286 1.992.105 3.996.161 6.014.161 61.919 0 112.115-50.195 112.115-112.115V137.792h-23.334z"/><path style="fill:#5880a2" d="M375.629 232.118c0 25.929-21.02 46.948-46.948 46.948-25.929 0-46.948-21.019-46.948-46.948v-20.601h93.897v20.601h-.001zM183.32 279.066c-25.929 0-46.948-21.019-46.948-46.948v-20.601h93.897v20.601c-.001 25.928-21.021 46.948-46.949 46.948z"/><path style="fill:#2d6ccf" d="M133.118 137.792c17.683 27.483 48.539 45.687 83.647 45.687h78.47c35.109 0 65.964-18.204 83.647-45.687H133.118z"/><path style="fill:#d69400" d="M290.177 55.664c-14.013 0-26.438-6.786-34.177-17.248-7.74 10.462-20.164 17.248-34.177 17.248-.64 0-1.275-.02-1.908-.048A55.896 55.896 0 0 0 219 65.663c0 24.205 15.437 44.797 37 52.489 21.563-7.692 37-28.284 37-52.489 0-3.432-.32-6.787-.915-10.047-.633.028-1.268.048-1.908.048z"/><path style="fill:#2a434f" d="M233.005 432.52 256 455.515l22.995-22.995L256 414.493z"/><path style="fill:#3d5868" d="M267.958 443.557 256 455.515l-11.958-11.957-12.097 60.942h48.11z"/><path d="M433.83 99.8V38.12c0-4.209-2.154-8.019-5.763-10.192-3.594-2.165-7.951-2.289-11.662-.324-13.844 7.344-29.897 11.226-46.425 11.226-30.712 0-59.274-13.645-74.542-35.611A7.5 7.5 0 0 0 289.28 0h-66.56a7.5 7.5 0 0 0-6.158 3.219c-15.268 21.966-43.83 35.611-74.542 35.611-16.528 0-32.581-3.882-46.432-11.229-3.705-1.961-8.063-1.838-11.655.327-3.608 2.173-5.763 5.983-5.763 10.192V64a7.5 7.5 0 0 0 7.5 7.5 7.5 7.5 0 0 0 7.5-7.5V43.156c14.896 6.996 31.675 10.674 48.85 10.674 34.054 0 66.027-14.786 84.505-38.83h58.951c18.478 24.044 50.451 38.83 84.505 38.83 17.178 0 33.957-3.679 48.85-10.674V99.8a71.789 71.789 0 0 1-12.33 40.218v-7.562c0-16.787-13.657-30.443-30.443-30.443h-70.564c-4.143 0-7.5 3.358-7.5 7.5s3.357 7.5 7.5 7.5h70.564c.511 0 1.015.028 1.513.077.165.016.325.047.488.068.33.043.66.087.984.151.191.038.377.088.566.133.288.068.576.137.858.221.196.058.387.127.58.193.267.091.532.185.791.29.192.078.38.163.569.248a15.258 15.258 0 0 1 1.287.656 16.39 16.39 0 0 1 1.21.767c.224.157.441.323.656.491.159.125.319.249.474.38.213.181.417.372.62.564.142.134.287.266.423.405.207.211.401.433.596.656.118.135.241.264.354.403.219.268.422.549.623.832.074.105.156.204.228.311.265.395.514.802.742 1.221.051.093.092.193.141.287.171.33.337.662.485 1.005.07.163.127.332.192.497.11.283.221.567.315.858.061.19.111.386.165.579.077.276.153.552.215.833.046.207.081.417.118.627.031.174.056.35.081.527h-12.429l-.021-.002H133.12l-.021.002H120.67c.025-.176.05-.352.08-.527.037-.21.072-.42.118-.627.062-.281.137-.557.215-.833.054-.194.103-.389.165-.579.094-.291.204-.574.315-.858.065-.165.121-.335.192-.497.147-.341.312-.672.482-1 .05-.096.092-.198.144-.293.229-.419.477-.826.742-1.221.072-.107.154-.206.228-.311.201-.283.404-.564.623-.832.113-.139.236-.268.354-.403.194-.222.389-.445.596-.656.137-.14.282-.271.424-.405.203-.192.407-.383.62-.564.154-.131.314-.255.474-.38.215-.168.432-.334.656-.491a16.334 16.334 0 0 1 1.758-1.066c.243-.126.49-.244.74-.357.188-.085.377-.17.569-.248.259-.105.525-.199.791-.29.193-.066.384-.135.58-.193.282-.084.57-.153.858-.221.188-.045.374-.095.565-.133.324-.064.654-.108.984-.151.163-.021.323-.052.488-.068a15.454 15.454 0 0 1 1.514-.077H204c4.143 0 7.5-3.358 7.5-7.5s-3.357-7.5-7.5-7.5h-68.057c-16.786 0-30.443 13.657-30.443 30.443v7.562a71.786 71.786 0 0 1-12.33-40.218V94a7.5 7.5 0 0 0-7.5-7.5 7.5 7.5 0 0 0-7.5 7.5v5.8a86.809 86.809 0 0 0 27.33 63.227v73.822c-9.338 6.468-15.47 17.249-15.47 29.441 0 19.746 16.064 35.81 35.81 35.81h25.211a119.812 119.812 0 0 0 20.366 27.153c8.195 8.195 17.383 15.058 27.413 20.512l-1.825.932a27.225 27.225 0 0 0-8.26 6.496c-39.286 6.851-68.535 41.382-68.535 81.617v65.69a7.5 7.5 0 0 0 7.5 7.5h256.58a7.5 7.5 0 0 0 7.5-7.5v-65.69c0-40.229-29.241-74.757-68.519-81.614a27.309 27.309 0 0 0-8.27-6.495l-1.861-.951a119.6 119.6 0 0 0 47.785-47.65h25.235c19.745 0 35.81-16.065 35.81-35.81 0-12.192-6.132-22.973-15.47-29.441v-73.822A86.809 86.809 0 0 0 433.83 99.8zm-70.064 45.492c-.38.426-.766.85-1.155 1.269-17.341 18.697-41.896 29.42-67.371 29.42h-78.48c-6.369 0-12.68-.67-18.835-1.968a92.154 92.154 0 0 1-11.335-3.157c-14.065-4.904-26.905-13.194-37.201-24.296a92.269 92.269 0 0 1-1.155-1.268h215.532zm-208.199 114.86a39.517 39.517 0 0 1-4.624-5.492l-.003-.004a39.376 39.376 0 0 1-6.761-17.634 38.118 38.118 0 0 1-.308-4.902v-13.1H222.771v13.1c0 21.753-17.697 39.45-39.449 39.45a39.47 39.47 0 0 1-4.789-.292 39.523 39.523 0 0 1-22.966-11.126zm82.203-41.136h36.461v10.604H237.77v-10.604zm51.46 13.104v-13.1H368.13v13.1c0 1.686-.104 3.336-.313 4.946a39.37 39.37 0 0 1-6.76 17.594 39.503 39.503 0 0 1-32.378 16.91c-10.539 0-20.445-4.103-27.895-11.553-7.45-7.451-11.554-17.358-11.554-27.897zm-7.42-28.1c-.026 0-.051-.004-.077-.004h-51.465c-.026 0-.051.004-.077.004H151.39v-35.39c.129.1.263.191.393.29 1.009.771 2.027 1.529 3.061 2.263.036.025.071.052.107.078 1.063.753 2.144 1.478 3.232 2.191.235.153.469.307.704.459 1.075.691 2.159 1.366 3.257 2.018.169.101.341.197.511.297 1.016.596 2.042 1.175 3.077 1.736.19.103.377.209.567.311 1.125.602 2.262 1.182 3.407 1.744.241.118.482.233.724.35 1.167.561 2.34 1.109 3.526 1.628l.041.018c1.197.523 2.407 1.017 3.622 1.496a109.326 109.326 0 0 0 4.363 1.617c.185.064.371.123.556.186 1.119.379 2.245.74 3.376 1.082.201.061.402.125.603.185a106.283 106.283 0 0 0 4.482 1.218c1.266.316 2.537.617 3.816.887l.017.004c1.282.27 2.571.509 3.863.732a105.48 105.48 0 0 0 4.622.699c.206.026.412.048.619.073 1.172.143 2.347.266 3.526.37.213.019.426.041.64.059 1.28.105 2.564.184 3.85.243.28.013.56.022.84.033 1.32.05 2.642.083 3.967.083h78.48c1.325 0 2.647-.034 3.967-.083.28-.011.56-.02.841-.033 1.286-.059 2.57-.138 3.85-.243.214-.017.426-.04.64-.059 1.178-.104 2.354-.227 3.526-.37.206-.025.413-.047.619-.073 1.274-.163 2.543-.352 3.808-.56.272-.045.543-.092.815-.139 1.293-.223 2.582-.462 3.863-.732l.017-.004c1.279-.27 2.55-.571 3.817-.887.261-.065.522-.129.782-.197 1.24-.32 2.474-.658 3.7-1.022.2-.059.398-.122.597-.183 1.134-.343 2.263-.705 3.385-1.085.183-.062.367-.121.55-.184 1.211-.418 2.414-.861 3.609-1.322.251-.097.502-.196.753-.295 1.217-.48 2.428-.974 3.627-1.498l.033-.015c1.19-.52 2.367-1.069 3.537-1.632.239-.115.478-.229.716-.346a106.459 106.459 0 0 0 3.414-1.748c.187-.1.371-.204.557-.305 1.04-.565 2.072-1.147 3.094-1.746.165-.097.332-.191.497-.288 1.101-.654 2.188-1.33 3.266-2.023.232-.149.463-.301.694-.452a107.268 107.268 0 0 0 3.243-2.198l.083-.06c1.044-.74 2.07-1.505 3.088-2.283.127-.097.258-.187.384-.284v35.39H281.81v-.001zM120.5 145.292h8.639a107.95 107.95 0 0 0 7.25 9.214v49.514h-.02a7.5 7.5 0 0 0-7.5 7.5v18.97h-3.03c-1.814 0-3.597.138-5.34.4l.001-85.598zm5.34 141.808c-11.475 0-20.81-9.336-20.81-20.81 0-11.469 9.335-20.8 20.81-20.8h4.695a54.8 54.8 0 0 0 1.002 3.434c.267.822.55 1.639.856 2.448.043.114.081.229.125.343.346.896.721 1.781 1.114 2.658.103.23.21.458.316.686.35.755.716 1.502 1.101 2.24.074.142.143.286.218.427.449.842.924 1.67 1.416 2.488.131.217.266.432.4.647.17.273.333.551.507.821.141.991.298 1.979.463 2.964l.04.256a120.258 120.258 0 0 0 1.059 5.404c.314 1.438.644 2.872 1.011 4.296l.023.085a120.235 120.235 0 0 0 1.49 5.235c.43 1.395.876 2.785 1.357 4.163.038.107.079.213.117.32.317.902.641 1.801.98 2.695h-18.29zm99.444 73.205c.276.073.553.143.83.214 1.106.285 2.216.556 3.33.809.185.042.368.088.553.129 1.25.278 2.506.531 3.766.768.291.055.582.106.874.159 1.157.209 2.316.403 3.48.577.143.021.285.046.428.067a119.483 119.483 0 0 0 4.747.589c1.222.129 2.447.243 3.675.335.084.006.167.015.251.021a122.82 122.82 0 0 0 4.844.246c1.31.042 2.622.071 3.939.071a122.84 122.84 0 0 0 4.887-.105c1.302-.052 2.601-.118 3.895-.212l.252-.021c1.229-.091 2.453-.206 3.675-.335a119.735 119.735 0 0 0 4.748-.59c.139-.02.276-.044.415-.065 1.171-.175 2.337-.371 3.5-.58.285-.051.571-.102.856-.156 1.264-.238 2.525-.492 3.78-.771.176-.039.351-.082.527-.122 1.126-.255 2.249-.529 3.367-.818.267-.069.534-.136.801-.207 1.241-.329 2.477-.677 3.708-1.047.062-.019.125-.034.187-.053V372.4c0 9.245-3.598 17.93-10.134 24.457-6.534 6.535-15.223 10.133-24.466 10.133-19.078 0-34.6-15.517-34.6-34.59v-13.191c.065.02.132.036.197.056 1.226.367 2.455.713 3.688 1.04zm87.579 7.946c.293.446.555.906.786 1.377a12.247 12.247 0 0 1 .122 10.528l-23.629 51.574-16.514-12.948c.208-.079.41-.171.617-.253a46.625 46.625 0 0 0 3.583-1.584c.334-.164.667-.331.998-.503.416-.216.827-.44 1.237-.668.324-.18.646-.36.966-.548.411-.241.816-.492 1.221-.745.308-.193.617-.384.921-.584.41-.27.814-.552 1.217-.834.288-.202.578-.399.862-.608.416-.305.824-.625 1.232-.944.26-.203.524-.401.78-.61.445-.363.88-.742 1.314-1.122.208-.182.421-.355.626-.541a51.003 51.003 0 0 0 1.867-1.771c9.37-9.358 14.53-21.812 14.53-35.067v-9.658l2.585 1.32a12.304 12.304 0 0 1 4.679 4.189zm-50.209 70.003L256 444.909l-11.707-11.707L256 424.023l11.707 9.178-5.051 5.051-.002.002zm-64.988-59.562c-.051-.164-.079-.331-.123-.496-.09-.334-.185-.667-.246-1.005-.036-.199-.046-.4-.072-.6-.04-.306-.088-.612-.105-.919-.012-.215.003-.43.002-.645 0-.293-.009-.585.011-.877.016-.221.057-.44.084-.66.036-.283.063-.567.119-.847.044-.222.112-.439.169-.659.07-.274.133-.549.223-.819.072-.218.168-.429.253-.644.104-.264.202-.529.325-.787.101-.211.224-.414.337-.62.144-.262.281-.526.445-.78l.065-.095a12.203 12.203 0 0 1 4.667-4.18l2.579-1.317v9.658c0 .775.023 1.544.059 2.31.011.235.027.468.041.702a48.784 48.784 0 0 0 .425 4.155c.023.157.041.316.065.473.115.741.247 1.476.395 2.206.037.184.081.365.12.548a47.719 47.719 0 0 0 1.011 3.919c.06.199.117.398.179.596.222.703.457 1.402.709 2.091.027.074.058.147.085.221.229.616.471 1.226.723 1.831.086.205.175.408.264.612a49.714 49.714 0 0 0 1.815 3.751c.044.081.084.164.128.246.35.641.715 1.272 1.092 1.896.098.162.201.321.3.482a51.998 51.998 0 0 0 1.264 1.941c.314.458.637.91.966 1.357.104.141.205.285.311.425.437.581.885 1.152 1.347 1.712.075.091.153.178.229.269.39.466.787.925 1.193 1.377.146.163.295.323.443.484.361.391.729.776 1.102 1.156.146.148.29.298.438.444.505.5 1.018.993 1.544 1.472l.022.021c.538.489 1.09.963 1.649 1.429.155.129.313.254.47.381.415.337.834.667 1.26.991.179.136.358.272.54.406.463.342.933.676 1.408 1.002.126.086.249.176.375.261a50.03 50.03 0 0 0 1.833 1.176c.137.084.277.163.415.245.489.292.982.577 1.481.853.202.111.405.22.608.329.47.251.945.494 1.424.73.187.092.372.187.56.277.659.315 1.323.618 1.997.904l.143.058c.515.217 1.034.428 1.558.628l-16.537 12.966-23.629-51.573a13.715 13.715 0 0 1-.558-1.468zM135.21 438.81c0-29.719 19.474-55.646 46.889-64.563-.002.073.002.146 0 .218-.004.215-.001.429 0 .644.001.33.005.659.018.989.009.225.024.449.039.674a25.793 25.793 0 0 0 .297 2.599c.037.226.075.452.118.677.061.321.13.64.203.959.05.22.098.439.154.658.083.329.178.657.274.984.06.206.116.411.182.616.115.359.243.716.373 1.072.061.169.117.339.182.508.202.523.419 1.043.655 1.557l27.59 60.22a7.502 7.502 0 0 0 5.909 4.32c.119.014.238.015.356.024.169.012.337.029.506.03.016 0 .031.003.047.003.044 0 .088-.01.132-.011a7.541 7.541 0 0 0 1.237-.126 7.558 7.558 0 0 0 1.046-.265c.035-.012.068-.029.103-.041a7.594 7.594 0 0 0 1.176-.542c.323-.183.638-.381.934-.613l8.773-6.879 3.504 3.504L225.788 497H135.21v-58.19zM241.08 497l7.585-38.213 2.031 2.031a7.504 7.504 0 0 0 10.607 0l2.031-2.031L270.92 497h-29.84zm135.71-58.19V497h-90.578l-10.118-50.972 3.504-3.504 8.773 6.879a7.562 7.562 0 0 0 1.191.752c.302.156.61.295.928.408.031.011.06.026.091.036a7.497 7.497 0 0 0 1.342.313c.317.046.636.074.957.079.04.001.079.01.119.01l.043-.003c.187-.001.374-.018.561-.033.101-.008.202-.008.302-.02a7.502 7.502 0 0 0 5.912-4.32l27.59-60.22a28.41 28.41 0 0 0 .655-1.558c.065-.169.12-.339.182-.508.13-.356.258-.712.372-1.071.065-.204.121-.41.181-.615.096-.328.19-.655.274-.985.055-.219.104-.438.153-.658.073-.319.142-.639.203-.96a25.938 25.938 0 0 0 .414-3.279c.015-.223.03-.445.039-.668.014-.333.017-.667.018-1 .001-.211.005-.421 0-.631-.001-.074.002-.148 0-.222 27.418 8.914 46.892 34.841 46.892 64.56zm-81.513-97.149c-12.463 5.062-25.678 7.629-39.277 7.629-1.7 0-3.394-.04-5.081-.12-.921-.044-1.838-.102-2.755-.169a103.483 103.483 0 0 1-31.449-7.343c-13.021-5.271-24.693-13.013-34.688-23.008-8.054-8.062-14.688-17.278-19.724-27.394a104.415 104.415 0 0 1-1.662-3.52c-.145-.321-.287-.643-.429-.965a102.319 102.319 0 0 1-1.275-3.023c-.083-.207-.172-.412-.254-.619-.4-1.012-.773-2.034-1.141-3.058.09.048.184.089.275.137.529.281 1.07.54 1.608.803.448.219.891.445 1.345.652.546.249 1.103.474 1.658.705.46.191.915.391 1.379.57.564.217 1.138.408 1.709.607.468.162.931.335 1.403.484.583.185 1.176.342 1.766.507.471.132.938.276 1.413.395.609.153 1.227.276 1.842.408.465.1.927.213 1.395.301.649.121 1.305.211 1.96.309.443.066.883.148 1.329.204.733.091 1.473.147 2.211.208.374.031.745.079 1.12.103a54.58 54.58 0 0 0 3.366.106c25.721 0 47.319-17.934 52.985-41.95h39.373a53.981 53.981 0 0 0 12.625 24.036 55.02 55.02 0 0 0 1.874 1.967c10.284 10.284 23.958 15.947 38.503 15.947a54.58 54.58 0 0 0 3.366-.105c.372-.023.739-.071 1.109-.102.743-.061 1.486-.118 2.223-.209.439-.055.872-.136 1.309-.201.661-.099 1.324-.189 1.979-.312.463-.087.919-.199 1.379-.298.621-.133 1.244-.258 1.858-.412.472-.118.935-.261 1.403-.392.593-.166 1.189-.324 1.775-.51.473-.15.937-.322 1.405-.485.57-.198 1.143-.389 1.705-.605.467-.18.925-.381 1.387-.573.552-.23 1.105-.454 1.649-.701.458-.209.905-.437 1.357-.658.534-.261 1.069-.517 1.593-.796.091-.048.186-.089.276-.138a104.686 104.686 0 0 1-1.141 3.053c-.085.215-.177.428-.264.642a103.215 103.215 0 0 1-1.266 2.995c-.144.326-.288.652-.435.976a106.042 106.042 0 0 1-1.664 3.517c-11.407 22.913-30.728 40.812-54.407 50.405zM386.16 287.1h-18.294c.345-.909.675-1.823.997-2.74.029-.084.062-.166.091-.25a116.46 116.46 0 0 0 1.68-5.225c.412-1.381.806-2.768 1.168-4.165l.031-.114c.366-1.421.696-2.852 1.01-4.287a118.285 118.285 0 0 0 1.061-5.413c.015-.086.026-.173.04-.258.166-.986.323-1.975.464-2.967.179-.277.346-.561.52-.842.127-.204.254-.407.378-.612.497-.824.975-1.658 1.427-2.506.073-.136.139-.275.21-.412a55.06 55.06 0 0 0 1.1-2.235c.111-.238.222-.475.329-.715a53.99 53.99 0 0 0 1.098-2.618c.058-.151.109-.304.166-.455.285-.757.551-1.52.801-2.288.091-.28.182-.559.268-.84a53.69 53.69 0 0 0 .758-2.669h4.695c2.604 0 5.088.502 7.387 1.379a7.469 7.469 0 0 0 4.366 2.273c5.463 3.753 9.056 10.036 9.056 17.148.003 11.476-9.332 20.811-20.807 20.811zm0-56.61h-3.03v-18.97a7.5 7.5 0 0 0-7.5-7.5h-.02v-49.514a107.964 107.964 0 0 0 7.25-9.215h8.639v85.598a36.006 36.006 0 0 0-5.339-.399z"/><path d="M283.77 277.402a7.5 7.5 0 0 0-10.435 1.896 21.095 21.095 0 0 1-17.334 9.094 21.093 21.093 0 0 1-17.334-9.094 7.5 7.5 0 0 0-12.332 8.54 36.1 36.1 0 0 0 29.666 15.554 36.1 36.1 0 0 0 29.666-15.554 7.502 7.502 0 0 0-1.897-10.436zM256 125.652c.853 0 1.705-.146 2.521-.436 25.109-8.958 41.979-32.89 41.979-59.553 0-3.789-.349-7.622-1.037-11.393a7.5 7.5 0 0 0-7.713-6.147c-.522.024-1.045.041-1.573.041-11.208 0-21.468-5.179-28.147-14.209a7.499 7.499 0 0 0-12.058 0c-6.68 9.03-16.939 14.209-28.148 14.209-.528 0-1.052-.018-1.573-.041a7.5 7.5 0 0 0-7.713 6.147 63.656 63.656 0 0 0-1.037 11.393c0 26.663 16.87 50.595 41.98 59.553a7.51 7.51 0 0 0 2.519.436zm-29.5-59.989c0-.907.026-1.817.079-2.729 10.999-1.064 21.38-5.786 29.421-13.298 8.041 7.512 18.422 12.233 29.421 13.298.053.912.079 1.822.079 2.729 0 19.433-11.747 36.963-29.5 44.445-17.753-7.482-29.5-25.012-29.5-44.445z"/></svg>