<svg xmlns="http://www.w3.org/2000/svg" viewBox="0 0 512.002 512.002" style="enable-background:new 0 0 512.002 512.002" xml:space="preserve" width="512" height="512"><path style="fill:#fddb33" d="m429.872 195.536-156.699-.836 21.41-151.124c1.426-10.067-11.334-15.591-17.699-7.663L88.379 270.728c-5.261 6.554-.582 16.28 7.822 16.26l146.044-.348-39.13 177.676c-2.254 10.236 10.755 16.603 17.456 8.544l216.937-260.931c5.401-6.496.812-16.348-7.636-16.393z"/><path style="fill:#f9c032" d="m429.872 195.536-156.699-.836 21.41-151.124c1.426-10.067-11.334-15.591-17.699-7.663l-17.261 21.502-19.45 137.285 156.699.836c8.448.045 13.037 9.897 7.636 16.393L206.157 450.504l-3.042 13.812c-2.254 10.236 10.755 16.603 17.456 8.544l216.937-260.931c5.401-6.496.812-16.348-7.636-16.393zM209.245 286.64l-114.28.272c.403.047.814.077 1.236.076l113.027-.269.017-.079z"/><path d="M225.599 1.673a7.503 7.503 0 0 0-10.549 1.104l-195.357 241c-6.061 7.477 5.5 17.034 11.652 9.445l195.357-241a7.499 7.499 0 0 0-1.103-10.549zM481.708 257.673a7.503 7.503 0 0 0-10.549 1.104l-195.357 241c-6.061 7.477 5.5 17.034 11.652 9.445l195.357-241a7.499 7.499 0 0 0-1.103-10.549zM504.33 343.664a7.5 7.5 0 0 0-10.547 1.123l-95.296 118c-6.047 7.488 5.531 17.026 11.67 9.424l95.296-118a7.5 7.5 0 0 0-1.123-10.547zM113.548 49.211c6.079-7.527-5.592-16.95-11.67-9.424l-95.296 118c-6.047 7.488 5.531 17.026 11.67 9.424l95.296-118zM457.843 192.482a7.502 7.502 0 0 0-6.759-4.333l-169.279-.902L307.121 8.551c1.032-7.283-8.55-11.635-13.274-5.747L69.437 282.343c-3.874 4.827-.268 12.195 5.867 12.195l157.605-.376-45.967 208.724c-1.628 7.399 8.12 12.388 13.092 6.408l256.778-308.851a7.503 7.503 0 0 0 1.031-7.961zM208.228 475.975l41.342-187.722c.994-4.517-2.737-9.113-7.343-9.113l-151.273.361L288.436 33.505l-22.688 160.144c-.629 4.437 2.905 8.528 7.386 8.552l161.992.863-226.898 272.911z"/></svg>