<svg xmlns="http://www.w3.org/2000/svg" viewBox="0 0 511.999 511.999" style="enable-background:new 0 0 511.999 511.999" xml:space="preserve"><circle style="fill:#fff" cx="255.999" cy="255.998" r="212.621"/><path style="fill:#fff" d="M107.652 356.448 356.45 107.653c-28.648-19.435-63.221-30.794-100.448-30.794-98.938 0-179.142 80.205-179.142 179.142-.002 37.225 11.356 71.798 30.792 100.447z"/><path style="opacity:.1;enable-background:new" d="M89.216 321.497a213.838 213.838 0 0 1-.721-17.486c0-116.755 94.649-211.404 211.404-211.404 12.308 0 24.369 1.053 36.1 3.072-24.08-12.04-51.245-18.821-79.999-18.821-98.938 0-179.142 80.205-179.142 179.142 0 23.117 4.383 45.21 12.358 65.497z"/><path style="fill:#ff6465" d="M256 8.329c-136.785 0-247.67 110.886-247.67 247.67S119.215 503.67 256 503.67s247.671-110.886 247.671-247.671S392.786 8.329 256 8.329zM76.858 255.999c0-98.938 80.205-179.142 179.142-179.142 37.227 0 71.8 11.358 100.448 30.794L107.652 356.448c-19.436-28.649-30.794-63.222-30.794-100.449zM256 435.143c-37.227 0-71.8-11.358-100.448-30.794L404.35 155.552C423.785 184.2 435.144 218.773 435.144 256c-.001 98.937-80.206 179.143-179.144 179.143z"/><path d="M256 0c-23.87 0-47.508 3.286-70.263 9.767a8.329 8.329 0 0 0-5.728 10.292 8.324 8.324 0 0 0 10.292 5.728c21.27-6.058 43.374-9.13 65.699-9.13 63.931 0 124.035 24.896 169.24 70.102 45.206 45.206 70.102 105.31 70.102 169.24 0 88.293-48.368 169.132-126.228 210.969a8.33 8.33 0 0 0 7.884 14.674C460.27 436.897 511.999 350.437 511.999 256c0-68.381-26.629-132.667-74.98-181.019C388.668 26.629 324.381 0 256 0z"/><path d="M361.126 100.759c-31.079-21.086-67.432-32.231-105.125-32.231-103.372 0-187.471 84.099-187.471 187.471 0 37.691 11.145 74.043 32.23 105.123a8.332 8.332 0 0 0 12.783 1.214L362.339 113.54a8.33 8.33 0 0 0-1.213-12.781zM109.103 343.218C93.426 316.886 85.187 286.942 85.187 256c0-94.187 76.626-170.813 170.813-170.813 30.943 0 60.887 8.238 87.218 23.916L109.103 343.218z"/><path d="M343.188 496.758a8.33 8.33 0 0 0-5.674-15.663c-26.097 9.454-53.523 14.247-81.514 14.247-63.93 0-124.033-24.896-169.24-70.102-45.207-45.206-70.103-105.31-70.103-169.241 0-46.779 13.494-92.088 39.026-131.031 24.888-37.966 59.812-67.974 100.995-86.784a8.329 8.329 0 0 0-6.92-15.153c-44.043 20.117-81.392 52.208-108.005 92.804C14.439 157.5.001 205.968.001 255.999c0 68.38 26.629 132.667 74.982 181.019s112.639 74.98 181.019 74.98c29.93.002 59.265-5.126 87.186-15.24z"/><path d="M147.261 405.135a8.331 8.331 0 0 0 3.616 6.106c31.079 21.086 67.432 32.231 105.125 32.231 103.372 0 187.471-84.099 187.471-187.471 0-37.692-11.144-74.044-32.23-105.123a8.33 8.33 0 0 0-12.783-1.214L149.663 398.459a8.327 8.327 0 0 0-2.402 6.676zm255.638-236.353c15.675 26.329 23.915 56.277 23.915 87.218 0 94.187-76.626 170.813-170.813 170.813-30.943 0-60.887-8.238-87.218-23.916l234.116-234.115z"/></svg>