<svg xmlns="http://www.w3.org/2000/svg" viewBox="0 0 512.001 512.001" style="enable-background:new 0 0 512.001 512.001" xml:space="preserve"><path style="fill:#fe834d" d="M503.83 397.073 370.928 503.83l56.647-106.757-56.647-106.757z"/><path style="fill:#fea680" d="M210.823 80.609c-27.165-20.72-59.674-32.132-91.538-32.132H8.171v132.902h111.115c6.035 0 16.959 8.333 18.555 14.153l42.784 156.073 85.39-191.208c-8.425-30.731-28.025-59.066-55.192-79.788z"/><path style="fill:#fedc3d" d="M503.83 114.928 370.928 221.686l56.647-106.758L370.928 8.171z"/><path style="fill:#fea680" d="m460.256 397.073-89.328-106.757v40.306h-43.574c-5.654 0-15.589-7.31-18.138-13.007l-59.577 123.229c24.031 14.717 51.091 22.681 77.715 22.681h43.574v40.306l89.328-106.758z"/><path style="fill:#fe834d" d="m309.216 317.615-11.689 42.627c-8.192 29.903-24.892 57.834-47.888 80.602a159.729 159.729 0 0 1-13.824-9.456c-27.169-20.72-46.766-49.054-55.187-79.785l85.384-191.205 42.79 156.073c.098.371.239.752.414 1.144z"/><path style="fill:#ffe777" d="M460.256 114.928 370.928 8.171v40.306h-43.574c-31.864 0-64.373 11.412-91.538 32.132-27.167 20.721-46.766 49.056-55.19 79.787l-42.784 156.073c-1.596 5.82-12.521 14.153-18.555 14.153H8.171v132.902h111.115c31.864 0 64.373-11.412 91.538-32.132 27.167-20.721 46.766-49.056 55.19-79.787l42.784-156.073c1.596-5.82 12.521-14.153 18.555-14.153h43.574v40.306l89.329-106.757z"/><circle cx="86.605" cy="406.877" r="8.17"/><circle cx="130.179" cy="385.09" r="8.17"/><path d="M316.655 197.768c.973-2.589 8.023-7.967 10.699-8.218h35.404v32.136a8.17 8.17 0 0 0 13.286 6.369l132.902-106.757a8.168 8.168 0 0 0 0-12.738L376.045 1.801a8.169 8.169 0 0 0-13.286 6.369v32.136h-35.404c-33.644 0-67.912 12.006-96.493 33.806-28.58 21.8-49.22 51.676-58.115 84.124l-18.327 66.862-8.697-31.728c-2.583-9.42-16.665-20.162-26.434-20.162H16.341V56.647h102.945c25.104 0 50.505 7.423 73.457 21.468a8.172 8.172 0 0 0 11.233-2.704 8.173 8.173 0 0 0-2.705-11.235c-25.519-15.616-53.869-23.87-81.985-23.87H8.171a8.17 8.17 0 0 0-8.17 8.17v132.902a8.17 8.17 0 0 0 8.17 8.17l111.036-.002c2.755.253 9.805 5.631 10.755 8.145l15.984 58.311-15.961 58.231c-.973 2.589-8.023 7.966-10.699 8.218H8.171a8.17 8.17 0 0 0-8.17 8.17v132.902a8.17 8.17 0 0 0 8.17 8.17h111.115c33.644 0 67.912-12.006 96.493-33.806 28.58-21.8 49.22-51.676 58.115-84.124l42.761-155.995zM205.869 424.896c-25.75 19.641-56.5 30.457-86.584 30.457H16.341V338.792h102.945c9.769 0 23.852-10.741 26.436-20.164l42.784-156.073c7.953-29.013 26.516-55.808 52.266-75.451 25.749-19.639 56.499-30.456 86.582-30.456h43.574a8.17 8.17 0 0 0 8.17-8.17V25.214l111.686 89.714-111.686 89.715v-23.264a8.17 8.17 0 0 0-8.17-8.17h-43.574c-9.769 0-23.852 10.741-26.436 20.164l-42.783 156.073c-7.954 29.012-26.516 55.808-52.266 75.45z"/><path d="M508.947 390.705 376.045 283.947a8.167 8.167 0 0 0-13.286 6.369v32.135l-35.326.002c-2.746-.252-9.765-5.6-10.769-8.197-1.215-4.319-5.689-6.85-10.025-5.667a8.172 8.172 0 0 0-5.719 10.041c2.584 9.421 16.666 20.162 26.436 20.162h43.574a8.17 8.17 0 0 0 8.17-8.17v-23.263l111.686 89.714L379.1 486.788v-23.264a8.17 8.17 0 0 0-8.17-8.17h-43.574c-25.104 0-50.505-7.423-73.457-21.468a8.174 8.174 0 0 0-11.234 2.704 8.173 8.173 0 0 0 2.705 11.235c25.519 15.616 53.87 23.87 81.985 23.87h35.404v32.136a8.17 8.17 0 0 0 13.287 6.369l132.902-106.757a8.168 8.168 0 0 0-.001-12.738z"/></svg>