<svg xmlns="http://www.w3.org/2000/svg" viewBox="0 0 512 512" style="enable-background:new 0 0 512 512" xml:space="preserve"><path style="fill:#fff" d="M94.165 138.243a40.26 40.26 0 0 0-7.612-10.631c-7.568-7.576-17.634-11.747-28.342-11.747-4.283 0-8.512.677-12.569 2.014a4.562 4.562 0 0 0-2.904 2.905c-4.761 14.481-1.033 30.168 9.725 40.938 7.568 7.574 17.634 11.746 28.342 11.746h.002c4.282 0 8.51-.677 12.566-2.012.281-.093.54-.228.793-.37v-32.842h-.001z"/><path style="fill:#e0e0e0" d="M94.165 174.498v-18.902a4.549 4.549 0 0 0-.793-.37 40.167 40.167 0 0 0-12.568-2.012c-10.707 0-20.774 4.171-28.342 11.747-10.759 10.768-14.484 26.454-9.725 40.937a4.56 4.56 0 0 0 2.904 2.904 40.126 40.126 0 0 0 12.571 2.015h.001c10.705 0 20.77-4.171 28.34-11.747 6.751-6.758 10.728-15.453 11.581-24.572h-3.969zM402.791 392.978l-132.069-38.092c-14.295 6.596-29.782 10.361-45.967 10.403-16.184-.042-31.672-3.808-45.967-10.403l-132.07 38.092c-5.397 1.558-9.814 7.43-9.814 13.051v87.915c0 5.622 4.595 10.22 10.212 10.22h355.276c5.616 0 10.212-4.599 10.212-10.22v-87.915c.001-5.621-4.416-11.493-9.813-13.051z"/><g style="opacity:.1"><path style="fill:#231f20" d="M72.158 388.306c0-.897.039-1.795.092-2.693l-25.532 7.364c-5.397 1.558-9.814 7.43-9.814 13.051v87.915c0 5.622 4.595 10.22 10.212 10.22h25.041V388.306h.001z"/></g><g style="opacity:.1"><path style="fill:#231f20" d="M72.158 388.306c0-.897.039-1.795.092-2.693l-25.532 7.364c-5.397 1.558-9.814 7.43-9.814 13.051v87.915c0 5.622 4.595 10.22 10.212 10.22h25.041V388.306h.001z"/></g><path style="fill:#8c561f" d="M224.755 365.289c-18.079-.046-35.291-4.728-50.938-12.824v21.187c0 28.156 22.806 50.981 50.938 50.981s50.937-22.825 50.937-50.981v-21.187c-15.648 8.096-32.86 12.778-50.937 12.824z"/><path style="opacity:.1;fill:#231f20;enable-background:new" d="M206.541 373.652v-10.001c-11.452-2.023-22.429-5.859-32.724-11.187v21.187c0 28.156 22.806 50.981 50.938 50.981 5.725 0 11.225-.959 16.362-2.704-20.102-6.821-34.576-25.85-34.576-48.276z"/><path style="fill:#8c561f" d="M94.165 220.667v-36.514H75.572c-6.374 0-11.589 5.203-11.589 11.56v48.918c0 6.359 5.215 11.563 11.589 11.563h23.365c-3.107-11.704-4.773-23.67-4.772-35.527z"/><g style="opacity:.1"><path style="fill:#231f20" d="M79.975 244.63v-48.918c0-6.358 5.215-11.56 11.588-11.56H75.572c-6.374 0-11.589 5.203-11.589 11.56v48.918c0 6.359 5.215 11.563 11.589 11.563h15.991c-6.373 0-11.588-5.203-11.588-11.563z"/></g><path style="fill:#8c561f" d="M373.935 184.152h-18.591v36.514c0 11.859-1.667 23.825-4.773 35.527h23.364c6.374 0 11.59-5.204 11.59-11.563v-48.918c0-6.358-5.216-11.56-11.59-11.56z"/><path style="fill:#8c561f" d="M224.753 28.339c-72.123.266-130.6 57.501-130.588 127.913v64.414c-.004 70.321 58.389 144.438 130.59 144.622 72.201-.184 130.591-74.302 130.59-144.622v-64.414c.006-70.414-58.469-127.647-130.592-127.913z"/><path style="fill:#8c561f" d="M224.753 28.339c-72.123.266-130.6 57.501-130.588 127.913v64.414c-.004 70.321 58.389 144.438 130.59 144.622 72.201-.184 130.591-74.302 130.59-144.622v-64.414c.006-70.414-58.469-127.647-130.592-127.913z"/><path style="fill:#fff" d="M94.166 121.647h261.183v52.847H94.166z"/><path style="fill:#e02424" d="M463.818 119.126H355.344v25.111h108.474c6.201 0 11.277-5.075 11.277-11.278v-2.556c0-6.203-5.075-11.277-11.277-11.277z"/><path style="fill:#0853a4" d="M94.165 144.237h261.18v-32.924c0-57.149-46.326-103.476-103.467-103.476h-54.246c-57.143 0-103.467 46.328-103.467 103.476v32.924z"/><path style="fill:#d8b26b" d="M97.285 257.88c2.031 2.032 2.031 5.359 0 7.392L82.339 280.23c-2.03 2.032-5.355 2.032-7.385 0l-14.945-14.959c-2.03-2.032-2.03-5.359 0-7.392l14.945-14.958c2.03-2.032 5.355-2.032 7.385 0l14.946 14.959zM389.5 257.88c2.031 2.032 2.031 5.359 0 7.392l-14.945 14.959c-2.031 2.032-5.354 2.032-7.385 0l-14.945-14.959c-2.031-2.032-2.031-5.359 0-7.392l14.945-14.958c2.031-2.032 5.354-2.032 7.385 0L389.5 257.88z"/><g style="opacity:.1"><path style="fill:#231f20" d="M230.597 7.837h-32.964c-57.143 0-103.467 46.328-103.467 103.476v32.924h32.964v-32.924C127.129 54.164 173.454 7.837 230.597 7.837z"/></g><path style="fill:#8c561f" d="M145.708 143.489v-17.605c0-5.607-4.585-10.196-10.188-10.196H94.165v28.549h51.506c.018-.248.037-.497.037-.748z"/><path style="fill:#e02424" d="M145.708 143.489v-17.605c0-5.607-4.585-10.196-10.188-10.196H94.165v28.549h51.506c.018-.248.037-.497.037-.748z"/><path style="fill:#414042" d="M153.509 267.054c-28.508 0-51.704-21.602-51.704-48.153v-27.807c0-11.217 9.527-20.347 21.235-20.347h72.94c5.099 0 9.232 4.207 9.232 9.393v39.109c0 .194-.004.387-.017.578-.533 26.088-23.611 47.227-51.686 47.227z"/><path style="fill:#fff" d="M153.509 252.065a7.836 7.836 0 0 1-7.837-7.837 7.836 7.836 0 0 1 7.837-7.837c11.615 0 21.223-7.717 21.418-17.201.002-.152.007-.345.016-.538.165-4.326 3.808-7.723 8.129-7.532a7.835 7.835 0 0 1 7.532 8.129l-.006.222c-.37 17.991-17.007 32.594-37.089 32.594z"/><path style="fill:#414042" d="M296 267.054c28.511 0 51.704-21.602 51.704-48.153v-27.807c0-11.217-9.525-20.347-21.233-20.347h-72.939c-5.1 0-9.234 4.207-9.234 9.393v39.109c0 .194.007.387.018.578.531 26.088 23.611 47.227 51.684 47.227z"/><g style="opacity:.1"><path style="fill:#231f20" d="M123.646 218.901v-27.807c0-11.217 9.527-20.347 21.235-20.347H123.04c-11.708 0-21.235 9.129-21.235 20.347v27.807c0 26.551 23.196 48.153 51.704 48.153 3.737 0 7.38-.385 10.898-1.096-23.269-4.69-40.761-24.002-40.761-47.057z"/></g><g style="opacity:.1"><path style="fill:#231f20" d="M266.157 219.827c-.01-.191-.018-.383-.018-.578V180.14c0-5.186 4.134-9.393 9.234-9.393h-21.841c-5.1 0-9.234 4.207-9.234 9.393v39.109c0 .194.007.387.018.578.533 26.088 23.613 47.227 51.686 47.227a55.37 55.37 0 0 0 10.944-1.096c-22.917-4.629-40.327-23.516-40.789-46.131z"/></g><path style="fill:#fff" d="M296 252.065a7.836 7.836 0 0 1-7.837-7.837 7.836 7.836 0 0 1 7.837-7.837c11.816 0 21.428-7.846 21.428-17.491 0-4.329 3.508-7.837 7.837-7.837s7.837 3.508 7.837 7.837c0 18.288-16.645 33.165-37.102 33.165z"/><path d="M463.818 111.289H363.181C363.168 49.921 313.242 0 251.878 0h-54.246C136.258 0 86.328 49.935 86.328 111.313v5.834c-8.124-5.916-17.872-9.119-28.117-9.119-5.116 0-10.17.809-15.019 2.406a12.441 12.441 0 0 0-7.898 7.903c-5.134 15.62-2.002 32.414 8.115 45.004-10.117 12.588-13.249 29.381-8.112 45.012a12.441 12.441 0 0 0 7.894 7.892 47.91 47.91 0 0 0 12.957 2.361v26.024c0 1.833.262 3.604.741 5.286l-2.422 2.424c-5.087 5.092-5.087 13.378 0 18.47l14.945 14.958a12.968 12.968 0 0 0 9.237 3.822c3.494 0 6.774-1.357 9.237-3.822l9.428-9.435c6.828 17.248 16.683 33.649 29.141 48.069 9.736 11.269 20.491 20.713 31.959 28.205L44.546 385.448c-8.823 2.547-15.477 11.395-15.477 20.58v87.915c0 9.957 8.097 18.057 18.05 18.057h355.276c9.953 0 18.049-8.1 18.049-18.057v-20.308c0-4.329-3.508-7.837-7.837-7.837s-7.837 3.508-7.837 7.837v20.308c0 1.292-1.088 2.383-2.375 2.383H47.117c-1.287 0-2.375-1.092-2.375-2.383v-87.915c0-2.142 2.095-4.929 4.148-5.521l91.63-26.428c.069 13.663 3.486 27.214 9.9 39.216a7.838 7.838 0 0 0 6.918 4.145c1.246 0 2.51-.299 3.686-.928a7.835 7.835 0 0 0 3.217-10.605c-5.27-9.862-8.056-21.015-8.056-32.256v-4.092l9.794-2.824v6.916c0 32.432 26.366 58.817 58.774 58.817s58.773-26.386 58.773-58.817v-6.917l9.795 2.825v4.092c0 37.845-30.76 68.634-68.568 68.634-17.042.001-33.39-6.326-46.033-17.813a7.838 7.838 0 0 0-10.541 11.601c15.535 14.116 35.626 21.887 56.574 21.886 46.308 0 84-37.591 84.23-83.882l91.632 26.43c2.055.592 4.15 3.379 4.15 5.521v39.056a7.836 7.836 0 0 0 7.837 7.837 7.836 7.836 0 0 0 7.837-7.837v-39.056c0-9.186-6.653-18.033-15.479-20.58l-113.945-32.865c9.097-5.921 17.748-13.057 25.774-21.338a7.834 7.834 0 0 0-.172-11.08 7.835 7.835 0 0 0-11.08.172 138.082 138.082 0 0 1-13.778 12.445c-6.159-25.125-26.111-45.22-52.071-50.958a7.836 7.836 0 0 0-3.383 15.303c22.059 4.877 38.515 23.171 41.342 45.299-16.654 9.769-34.716 14.979-52.874 15.025-18.341-.047-36.344-5.222-52.922-14.958 2.8-22.159 19.267-40.486 41.349-45.366a7.837 7.837 0 0 0-3.383-15.303c-25.976 5.743-45.938 25.858-52.083 51.005-6.838-5.399-13.343-11.637-19.424-18.673-15.57-18.022-26.652-39.396-32.218-61.439 10.884 13.462 28.085 22.175 47.414 22.175 20.267 0 38.349-9.762 49.127-24.543 2.52 10.458 12.502 18.294 24.406 18.294 10.184 0 19.173-5.731 23.036-14.298 10.969 12.516 27.545 20.547 45.923 20.547 19.289 0 36.455-8.677 47.343-22.089-4.077 16.02-11.064 31.795-20.656 46.216a7.836 7.836 0 0 0 2.186 10.865 7.835 7.835 0 0 0 10.865-2.186 169.282 169.282 0 0 0 16.435-31.389l9.452 9.461a12.97 12.97 0 0 0 9.236 3.821c3.493 0 6.772-1.357 9.237-3.822l14.944-14.957c5.09-5.093 5.09-13.379.001-18.471l-2.423-2.424a19.22 19.22 0 0 0 .742-5.286v-48.918c0-10.696-8.714-19.396-19.427-19.396h-10.754v-24.243h100.637c10.539 0 19.113-8.574 19.113-19.114v-2.556c.003-10.541-8.572-19.115-19.111-19.115zM87.277 236.832a12.946 12.946 0 0 0-8.631-3.273c-2.453 0-4.794.681-6.826 1.934v-39.781c0-2.019 1.719-3.723 3.752-3.723h10.756v28.677c0 5.368.326 10.768.949 16.166zM49.698 124.84a32.256 32.256 0 0 1 8.513-1.138c8.614 0 16.71 3.356 22.798 9.449a32.467 32.467 0 0 1 5.32 7.011v5.536a47.75 47.75 0 0 0-5.524-.322c-9.249 0-18.09 2.615-25.701 7.475-6.051-7.957-8.078-18.243-5.406-28.011zm6.448 70.873v7.199a32.26 32.26 0 0 1-6.448-1.069c-3.063-11.2.046-23.074 8.307-31.342 6.088-6.093 14.183-9.449 22.798-9.449 1.86 0 3.705.176 5.524.491v14.774H75.572c-10.711-.002-19.426 8.699-19.426 19.396zm22.501 77.124-11.253-11.262 11.253-11.262L89.9 261.576l-11.253 11.261zm103.007 91.883c13.85 5.495 28.366 8.369 43.121 8.406 14.641-.037 29.173-2.946 43.081-8.487v9.013c0 23.79-19.335 43.144-43.1 43.144-23.766 0-43.101-19.354-43.101-43.144v-8.933h-.001zm-79.653-241.195h33.519c1.275 0 2.351 1.08 2.351 2.359l.001 10.516h-35.871v-12.875zm95.375 95.799a7.821 7.821 0 0 0-.015.342c-.447 21.808-20.118 39.551-43.852 39.551-24.188 0-43.867-18.086-43.867-40.316v-27.807c0-6.898 6.011-12.511 13.399-12.511h72.94c.769 0 1.395.698 1.395 1.556v39.185zm38.799 27.537c-.951 3.539-4.792 6.107-9.133 6.107-5.158 0-9.353-3.497-9.353-7.795v-42.921h18.773v16.997c0 .287.008.575.022.858.171 7.544 1.963 14.734 5.054 21.278-2.531.748-4.629 2.743-5.363 5.476zm-23.126-60.283v-2.702h23.412v2.702h-23.412zm126.818 32.323c0 22.23-19.679 40.316-43.867 40.316-23.734 0-43.405-17.742-43.851-39.551a5.515 5.515 0 0 0-.009-.257l-.006-39.269c0-.858.627-1.556 1.397-1.556h72.939c7.386 0 13.397 5.612 13.397 12.511v27.807zm7.641-82.501H201.665a7.836 7.836 0 0 0-7.837 7.837 7.836 7.836 0 0 0 7.837 7.837H347.508v16.13h-4.111c-4.771-3.326-10.615-5.292-16.927-5.292h-72.94c-4.821 0-9.174 2.037-12.282 5.292H208.26c-3.108-3.256-7.46-5.292-12.281-5.292h-72.94a29.536 29.536 0 0 0-16.928 5.292H102v-16.13h69.362a7.836 7.836 0 0 0 7.837-7.837 7.836 7.836 0 0 0-7.837-7.837h-17.818v-10.516c0-9.943-8.085-18.033-18.024-18.033h-33.449c1.83-51.138 43.989-92.178 95.561-92.178h54.246c52.731 0 95.63 42.905 95.63 95.64V136.4zm23.354 136.437-11.253-11.262 11.253-11.262 11.253 11.262-11.253 11.262zm3.073-80.849c2.034 0 3.753 1.705 3.753 3.723v39.781a12.98 12.98 0 0 0-6.826-1.934 12.946 12.946 0 0 0-8.642 3.284c.631-5.416.962-10.82.962-16.177v-28.677h10.753zm93.323-59.029c0 1.865-1.576 3.441-3.44 3.441H363.181v-9.438h100.637c1.864 0 3.44 1.576 3.44 3.441v2.556z"/><path d="M193.521 320.631a7.836 7.836 0 0 0 7.837 7.837h46.794c4.329 0 7.837-3.508 7.837-7.837s-3.508-7.837-7.837-7.837h-46.794a7.837 7.837 0 0 0-7.837 7.837z"/><path d="M127.129 220.667v-46.169H94.165v46.169c-.004 70.321 58.389 144.438 130.59 144.622a106.112 106.112 0 0 0 16.482-1.335c-64.401-10.293-114.112-78.405-114.108-143.287z" style="opacity:.1"/></svg>