<svg xmlns="http://www.w3.org/2000/svg" viewBox="0 0 512 512" style="enable-background:new 0 0 512 512" xml:space="preserve"><path style="fill:#ad7b64" d="M444.143 7.192H101.586v.001-.001a44.96 44.96 0 0 0-4.71.249v434.091h357.611V17.534c-.001-5.71-4.631-10.342-10.344-10.342z"/><path style="fill:#966653" d="M88.214 441.533h13.371V7.192c-24.674 0-44.701 19.999-44.701 44.701v420.969c0-17.231 14.099-31.329 31.33-31.329z"/><path style="fill:#875848" d="M76.885 14.639c-12.053 8.006-20.001 21.699-20.001 37.254v420.969c0-13.24 8.328-24.622 20.001-29.189V14.639z"/><path style="fill:#e4eaf8" d="M88.214 441.533c-17.231 0-31.329 14.098-31.329 31.329s14.098 31.329 31.329 31.329h356.629c5.326 0 9.645-4.318 9.645-9.645v-53.014l-366.274.001z"/><path style="fill:#d8dce5" d="M444.842 484.19H88.213c-13.737 0-25.474-8.965-29.673-21.328a31.04 31.04 0 0 0-1.656 10.001c0 17.231 14.098 31.329 31.329 31.329h356.629c5.326 0 9.645-4.318 9.645-9.645v-20.001c-.001 5.326-4.319 9.644-9.645 9.644z"/><path style="fill:#ffc850" d="M367.877 149.603h-61.47a5.547 5.547 0 0 1-5.547-5.547V82.183a5.547 5.547 0 0 0-5.547-5.547h-39.871a5.547 5.547 0 0 0-5.547 5.547v61.873a5.547 5.547 0 0 1-5.547 5.547h-61.47a5.547 5.547 0 0 0-5.547 5.547v39.871a5.547 5.547 0 0 0 5.547 5.547h61.47a5.547 5.547 0 0 1 5.547 5.547v160.426a5.547 5.547 0 0 0 5.547 5.547h39.871a5.547 5.547 0 0 0 5.547-5.547V206.116a5.547 5.547 0 0 1 5.547-5.547h61.47a5.547 5.547 0 0 0 5.547-5.547V155.15a5.548 5.548 0 0 0-5.547-5.547z"/><path style="fill:#f9b938" d="M269.896 144.056V82.183a5.547 5.547 0 0 1 5.547-5.547h-20.001a5.547 5.547 0 0 0-5.547 5.547v61.873a5.548 5.548 0 0 1-5.547 5.547h20.001a5.547 5.547 0 0 0 5.547-5.547zM269.896 366.542V206.116a5.548 5.548 0 0 0-5.547-5.547h-20.001a5.547 5.547 0 0 1 5.547 5.547v160.426a5.547 5.547 0 0 0 5.547 5.547h20.001a5.546 5.546 0 0 1-5.547-5.547zM197.331 195.022V155.15a5.547 5.547 0 0 1 5.547-5.547h-20.001a5.547 5.547 0 0 0-5.547 5.547v39.871a5.547 5.547 0 0 0 5.547 5.547h20.001a5.546 5.546 0 0 1-5.547-5.546z"/><path d="M255.756 379.898h39.871c7.194 0 13.048-5.853 13.048-13.048V208.378h59.517c7.194 0 13.048-5.853 13.048-13.048v-39.871c0-7.194-5.853-13.048-13.048-13.048h-59.517v-59.92c0-7.194-5.853-13.048-13.048-13.048h-39.871c-7.194 0-13.048 5.853-13.048 13.048v59.92h-59.517c-7.194 0-13.048 5.853-13.048 13.048v39.871c0 7.194 5.853 13.048 13.048 13.048h59.517V366.85c0 7.195 5.854 13.048 13.048 13.048zm-70.61-186.521v-35.965h59.517c7.194 0 13.048-5.853 13.048-13.048v-59.92h35.965v59.92c0 7.194 5.853 13.048 13.048 13.048h59.517v35.965h-59.517c-7.194 0-13.048 5.853-13.048 13.048v158.473H257.71V206.424c0-7.194-5.853-13.048-13.048-13.048h-59.516z"/><path d="M454.8 212.521c4.143 0 7.5-3.357 7.5-7.5V17.844C462.3 8.004 454.296 0 444.456 0H101.899c-28.783 0-52.2 23.417-52.2 52.2v420.97c0 21.41 17.419 38.829 38.829 38.829h169.663c4.143 0 7.5-3.357 7.5-7.5s-3.357-7.5-7.5-7.5H88.528c-13.139 0-23.828-10.689-23.828-23.828s10.69-23.828 23.829-23.828h358.772v45.514a2.147 2.147 0 0 1-2.144 2.144H293.193c-4.143 0-7.5 3.357-7.5 7.5s3.357 7.5 7.5 7.5h151.963c9.454 0 17.145-7.69 17.145-17.145V240.023c0-4.143-3.357-7.5-7.5-7.5s-7.5 3.357-7.5 7.5v194.319H109.4V15.001h335.056a2.846 2.846 0 0 1 2.843 2.843V205.02a7.502 7.502 0 0 0 7.501 7.501zM64.699 442.532V52.2c0-17.942 12.771-32.96 29.7-36.44v418.58c-5.202 0-17.685-1.176-29.7 8.192z"/></svg>