<svg height="512pt" viewBox="0 0 512 512" width="512pt" xmlns="http://www.w3.org/2000/svg"><path d="M503.469 162.133V384c0 14.14-11.465 25.602-25.602 25.602-14.14 0-25.601-11.461-25.601-25.602v-34.133h-17.067a34.424 34.424 0 0 1-8.277-1.11c-13.227-3.413-25.856-14.25-25.856-27.05v-14.508h-7.68c-19.312-.027-34.956-15.676-34.988-34.984v-30.293c36.27-31.402 68.27-72.875 68.27-121.43a118.14 118.14 0 0 0-14.508-57.09c-.597-1.277-1.281-2.472-1.96-3.668 59.39.34 93.269 42.836 93.269 102.399zm0 0" fill="#ffc900"/><path d="M477.867 162.133V384a25.608 25.608 0 0 1-12.8 22.188A25.608 25.608 0 0 1 452.265 384v-34.133h-17.067a34.424 34.424 0 0 1-8.277-1.11c-13.227-3.413-25.856-14.25-25.856-27.05v-14.508h-7.68c-19.312-.027-34.956-15.676-34.988-34.984v-30.293c36.27-31.402 68.27-72.875 68.27-121.43a118.14 118.14 0 0 0-14.508-57.09c42.238 11.352 65.707 49.153 65.707 98.73zM101.793 59.734a119.045 119.045 0 0 0-16.461 60.801c0 48.485 31.992 89.95 68.27 121.41v30.27c0 19.32-15.665 34.984-34.989 34.984h-7.68v14.508c0 15.574-18.57 28.16-34.132 28.16H59.734V384c0 14.14-11.46 25.602-25.601 25.602-14.137 0-25.598-11.461-25.598-25.602V162.133c0-59.528 33.91-102.074 93.258-102.399zm0 0" fill="#ffeb49"/><path d="M324.266 8.535c-4.2-.004-8.391.309-12.543.938C288.426 12.887 272.043 26.28 256 45.91a157.838 157.838 0 0 0-12.8-13.996 74.967 74.967 0 0 0-55.466-23.379c-4.37.008-8.73.32-13.058.938-50.43 6.996-89.344 54.101-89.344 111.105 0 93.184 118.273 160.512 157.867 180.563 8.024 3.925 12.801 6.058 12.801 6.058s170.668-74.664 170.668-186.62c0-61.868-45.824-112.044-102.402-112.044zm0 0" fill="#ef3a76"/><path d="M426.668 120.578C426.668 232.535 256 307.2 256 307.2s-4.777-2.133-12.8-6.058c39.593-20.051 157.866-87.38 157.866-180.563 0-57.004-38.91-104.11-89.343-111.105a83.226 83.226 0 0 1 12.543-.938c56.578 0 102.402 50.176 102.402 112.043zm0 0" fill="#bc2b6a"/><path d="M256 315.734a8.497 8.497 0 0 1-3.414-.718C245.402 311.875 76.8 236.773 76.8 120.536 76.8 54.077 126.566 0 187.734 0A86.944 86.944 0 0 1 256 32.742 86.944 86.944 0 0 1 324.266 0c61.168 0 110.933 54.078 110.933 120.535 0 116.238-168.601 191.34-175.785 194.48a8.497 8.497 0 0 1-3.414.72zM187.734 17.066c-51.754 0-93.867 46.414-93.867 103.47 0 96.679 138.426 166.1 162.133 177.276 23.707-11.187 162.133-80.699 162.133-177.269 0-57.063-42.11-103.477-93.867-103.477-27.938 0-44.86 13.653-61.66 34.211a8.842 8.842 0 0 1-13.211 0c-16.801-20.558-33.723-34.21-61.66-34.21zm0 0"/><path d="M137.172 76.8a8.536 8.536 0 0 1-7.684-4.823 8.53 8.53 0 0 1 1.004-9.016 73.45 73.45 0 0 1 57.242-28.828c4.711 0 8.532 3.82 8.532 8.535 0 4.71-3.82 8.531-8.532 8.531a56.512 56.512 0 0 0-43.879 22.375 8.528 8.528 0 0 1-6.683 3.227zM123.402 153.602a8.537 8.537 0 0 1-8.125-5.973 89.531 89.531 0 0 1-4.343-27.094 96.664 96.664 0 0 1 2.054-19.89 8.544 8.544 0 0 1 5.692-6.43 8.537 8.537 0 0 1 11.012 9.945 78.985 78.985 0 0 0-1.708 16.375 72.867 72.867 0 0 0 3.54 21.953 8.537 8.537 0 0 1-1.258 7.61 8.537 8.537 0 0 1-6.883 3.484zM290.133 67.285a8.534 8.534 0 0 1-7.895-5.21 8.545 8.545 0 0 1 1.77-9.298 50.926 50.926 0 0 1 40.258-18.644 8.534 8.534 0 1 1 0 17.066 34.55 34.55 0 0 0-28.004 13.492 8.533 8.533 0 0 1-6.13 2.594zM452.266 358.402c-4.711 0-8.532-3.824-8.532-8.535V170.668a8.533 8.533 0 1 1 17.067 0v179.2c0 4.71-3.82 8.534-8.535 8.534zM401.066 315.734a8.533 8.533 0 0 1-8.53-8.535v-59.73a8.533 8.533 0 1 1 17.066 0v59.73a8.534 8.534 0 0 1-8.536 8.535zM273.066 375.469a8.553 8.553 0 0 1-6.03-2.5L256 361.934l-11.035 11.035a8.534 8.534 0 0 1-11.961-.106 8.53 8.53 0 0 1-.102-11.96l17.067-17.067a8.532 8.532 0 0 1 12.066 0l17.067 17.066a8.534 8.534 0 0 1-6.036 14.567zm0 0"/><path d="M256 426.668a8.533 8.533 0 0 1-8.531-8.535v-68.266c0-4.71 3.82-8.535 8.531-8.535a8.536 8.536 0 0 1 8.535 8.535v68.266a8.534 8.534 0 0 1-8.535 8.535zM145.066 435.2a8.52 8.52 0 0 1-6.03-2.5L128 421.667l-11.035 11.031a8.534 8.534 0 0 1-11.961-.101 8.535 8.535 0 0 1-.102-11.965l17.067-17.067a8.532 8.532 0 0 1 12.066 0l17.067 17.067a8.542 8.542 0 0 1 1.847 9.3 8.53 8.53 0 0 1-7.883 5.266zm0 0"/><path d="M128 512a8.532 8.532 0 0 1-8.531-8.531v-93.867a8.533 8.533 0 1 1 17.066 0v93.867c0 4.71-3.82 8.531-8.535 8.531zM401.066 435.2a8.52 8.52 0 0 1-6.03-2.5L384 421.667l-11.035 11.031a8.534 8.534 0 0 1-11.961-.101 8.535 8.535 0 0 1-.102-11.965l17.067-17.067a8.532 8.532 0 0 1 12.066 0l17.067 17.067a8.542 8.542 0 0 1 1.847 9.3 8.53 8.53 0 0 1-7.883 5.266zm0 0"/><path d="M384 512a8.532 8.532 0 0 1-8.531-8.531v-93.867a8.533 8.533 0 1 1 17.066 0v93.867c0 4.71-3.82 8.531-8.535 8.531zM477.867 418.133c-18.851 0-34.133-15.281-34.133-34.133v-25.598H435.2c-19.726 0-42.664-16.043-42.664-36.695v-5.973c-23.687-.5-42.637-19.828-42.668-43.52v-30.26a8.536 8.536 0 0 1 2.945-6.45c43.34-37.606 65.32-76.281 65.32-114.969a110.696 110.696 0 0 0-15.265-56.422 8.529 8.529 0 0 1-.094-8.593 8.053 8.053 0 0 1 7.442-4.27C472.055 51.543 512 95.078 512 162.133V384c0 18.852-15.281 34.133-34.133 34.133zM366.934 245.82v26.395c.027 14.598 11.855 26.426 26.453 26.453h7.68a8.533 8.533 0 0 1 8.535 8.531v14.508c0 10.402 14.316 19.625 25.597 19.625h17.067a8.536 8.536 0 0 1 8.535 8.535V384c0 9.426 7.64 17.066 17.066 17.066 9.426 0 17.067-7.64 17.067-17.066V162.133c0-52.051-26.547-86.477-70.274-92.79a128.768 128.768 0 0 1 10.54 51.2c0 42.922-22.962 85.11-68.266 125.277zM59.734 358.402a8.536 8.536 0 0 1-8.535-8.535V170.668a8.534 8.534 0 1 1 17.067 0v179.2c0 4.71-3.82 8.534-8.532 8.534zM110.934 315.734a8.536 8.536 0 0 1-8.536-8.535v-59.73a8.536 8.536 0 0 1 17.07 0v59.73a8.536 8.536 0 0 1-8.534 8.535zm0 0"/><path d="M34.133 418.133C15.28 418.133 0 402.852 0 384V162.133C0 95.078 39.945 51.543 101.75 51.199h.043a8.542 8.542 0 0 1 7.422 4.309 8.527 8.527 0 0 1-.074 8.578 110.638 110.638 0 0 0-15.274 56.45c0 38.687 21.98 77.362 65.324 114.968a8.546 8.546 0 0 1 2.942 6.45v30.26c-.035 23.688-18.98 43.013-42.664 43.52v5.973c0 20.652-22.938 36.695-42.668 36.695h-8.535V384c0 18.852-15.282 34.133-34.133 34.133zm53.215-348.79c-43.735 6.313-70.282 40.739-70.282 92.79V384c0 9.426 7.641 17.066 17.067 17.066s17.066-7.64 17.066-17.066v-34.133c0-4.71 3.82-8.535 8.535-8.535h17.067c11.281 0 25.597-9.258 25.597-19.625v-14.508c0-4.71 3.825-8.531 8.536-8.531h7.68c14.597-.027 26.425-11.856 26.452-26.453v-26.367c-45.304-40.196-68.265-82.383-68.265-125.313a128.671 128.671 0 0 1 10.547-51.191zM256 477.867a8.533 8.533 0 0 1-8.531-8.535v-17.066c0-4.711 3.82-8.532 8.531-8.532a8.533 8.533 0 0 1 8.535 8.532v17.066a8.534 8.534 0 0 1-8.535 8.535zm0 0"/></svg>