<svg xmlns="http://www.w3.org/2000/svg" viewBox="0 0 512 512" style="enable-background:new 0 0 512 512" xml:space="preserve"><path style="fill:#d6b79d" d="M51.075 450.847h40.963V295.152H33.071v137.691c0 9.944 8.06 18.004 18.004 18.004z"/><path style="fill:#c69c79" d="M55.259 295.15h36.777v155.69H55.259z"/><path style="fill:#ab825b" d="M41.045 363.038h50.992v-67.886H34.155a6.029 6.029 0 0 0-6.029 6.029v48.937c-.001 7.136 5.784 12.92 12.919 12.92z"/><path style="fill:#a07853" d="M55.259 295.15h36.777v67.886H55.259z"/><path style="fill:#d6b79d" d="M460.923 450.847H419.96V295.152h58.967v137.692c0 9.943-8.06 18.003-18.004 18.003z"/><path style="fill:#c69c79" d="M456.737 295.152v155.695h4.186c9.943 0 18.004-8.061 18.004-18.004V295.152h-22.19z"/><path style="fill:#ab825b" d="M470.953 363.038h-50.992v-67.886h57.883a6.029 6.029 0 0 1 6.029 6.029v48.937c0 7.136-5.785 12.92-12.92 12.92z"/><path style="fill:#a07853" d="M419.959 295.15h36.777v67.886h-36.777z"/><path style="fill:#ab825b" d="M325.978 36.78 295.193 7.287h-78.388L186.02 36.78v2.274h139.958z"/><path style="fill:#b79274" d="M374.522 504.713H137.476c-28.137 0-50.946-22.809-50.946-50.946V92.969h338.938v360.798c0 28.137-22.809 50.946-50.946 50.946z"/><path style="fill:#ab825b" d="M395.593 92.969v360.798c0 28.137-22.809 50.946-50.946 50.946h29.875c28.137 0 50.946-22.809 50.946-50.946V92.969h-29.875z"/><path style="fill:#b79274" d="M216.805 97.83V7.287L186.02 36.78v61.05zM325.978 97.83V36.78L295.193 7.287V97.83z"/><path style="fill:#d6b79d" d="M368.518 259.656H143.48c-41.723 0-75.547-33.824-75.547-75.547v-70.158c0-11.588 9.394-20.982 20.982-20.982h334.169c11.588 0 20.982 9.394 20.982 20.982v70.158c-.001 41.723-33.824 75.547-75.548 75.547z"/><path style="fill:#c69c79" d="M423.083 92.969h-29.972c11.588 0 20.982 9.394 20.982 20.982v70.158c0 41.723-33.824 75.547-75.547 75.547h29.972c41.723 0 75.547-33.824 75.547-75.547v-70.158c0-11.588-9.394-20.982-20.982-20.982z"/><path style="fill:#ab825b" d="M161.156 322.094c-12.186 0-22.065-9.879-22.065-22.065V92.969h44.131v207.059c-.001 12.187-9.88 22.066-22.066 22.066z"/><path style="fill:#a07853" d="M153.25 92.969v207.059c0 6.4-2.727 12.16-7.08 16.191a21.984 21.984 0 0 0 14.986 5.875c12.186 0 22.065-9.879 22.065-22.065V92.969H153.25z"/><path style="fill:#ab825b" d="M350.842 322.094c-12.186 0-22.065-9.879-22.065-22.065V92.969h44.131v207.059c-.001 12.187-9.88 22.066-22.066 22.066z"/><path style="fill:#a07853" d="M342.936 92.969v207.059c0 6.4-2.727 12.16-7.079 16.191a21.984 21.984 0 0 0 14.986 5.875c12.186 0 22.065-9.879 22.065-22.065V92.969h-29.972z"/><path style="fill:#d6b79d" d="M370.371 462.191h-73.125c-10.97 0-19.863-8.893-19.863-19.863V348.83a7.4 7.4 0 0 1 7.401-7.401h98.05a7.4 7.4 0 0 1 7.401 7.401v93.498c-.001 10.97-8.894 19.863-19.864 19.863z"/><path style="fill:#c69c79" d="M360.262 341.43v100.898c0 10.97-8.893 19.863-19.863 19.863h29.972c10.97 0 19.863-8.893 19.863-19.863V348.83a7.4 7.4 0 0 0-7.401-7.401h-22.571v.001z"/><path style="fill:#ab825b" d="M364.043 386.957h-60.469c-14.465 0-26.191-11.726-26.191-26.191V348.83a7.4 7.4 0 0 1 7.401-7.401h98.05a7.4 7.4 0 0 1 7.401 7.401v11.935c-.001 14.466-11.727 26.192-26.192 26.192z"/><path style="fill:#a07853" d="M360.293 341.43v19.336c0 14.465-11.726 26.191-26.191 26.191h29.94c14.465 0 26.191-11.726 26.191-26.191V348.83a7.4 7.4 0 0 0-7.401-7.401h-22.539v.001z"/><path style="fill:#d6b79d" d="M214.752 462.191h-73.125c-10.97 0-19.863-8.893-19.863-19.863V348.83a7.4 7.4 0 0 1 7.401-7.401h98.05a7.4 7.4 0 0 1 7.401 7.401v93.498c0 10.97-8.894 19.863-19.864 19.863z"/><path style="fill:#c69c79" d="M204.644 341.43v100.898c0 10.97-8.893 19.863-19.863 19.863h29.972c10.97 0 19.863-8.893 19.863-19.863V348.83a7.4 7.4 0 0 0-7.401-7.401h-22.571v.001z"/><path style="fill:#ab825b" d="M208.424 386.957h-60.469c-14.465 0-26.191-11.726-26.191-26.191V348.83a7.4 7.4 0 0 1 7.401-7.401h98.05a7.4 7.4 0 0 1 7.401 7.401v11.935c0 14.466-11.727 26.192-26.192 26.192z"/><path style="fill:#a07853" d="M204.675 341.43v19.336c0 14.465-11.726 26.191-26.191 26.191h29.94c14.465 0 26.191-11.726 26.191-26.191V348.83a7.4 7.4 0 0 0-7.401-7.401h-22.539v.001z"/><path style="fill:#ab825b" d="M470.953 363.038h-50.992v-67.886h57.883a6.029 6.029 0 0 1 6.029 6.029v48.937c0 7.136-5.785 12.92-12.92 12.92z"/><path style="fill:#121419" d="M124.488 143.44c-7.793 0-14.134 6.341-14.134 14.134v63.411c0 7.793 6.341 14.134 14.134 14.134h72.639c7.793 0 14.134-6.341 14.134-14.134v-63.411c0-7.793-6.341-14.134-14.134-14.134h-72.639zm.439 77.106v-62.533h71.761v24.426h-35.88a7.287 7.287 0 1 0 0 14.574h35.88v23.533h-71.761zM314.522 143.44c-7.793 0-14.134 6.341-14.134 14.134v63.411c0 7.793 6.341 14.134 14.134 14.134h72.64c7.793 0 14.134-6.341 14.134-14.134v-63.411c0-7.793-6.341-14.134-14.134-14.134h-72.64zm.439 77.106v-62.533h71.762v24.426h-35.88a7.287 7.287 0 1 0 0 14.574h35.88v23.533h-71.762z"/><path style="fill:#121419" d="M491.159 301.181c0-7.342-5.973-13.316-13.316-13.316h-45.089v-51.543c11.616-14.256 18.598-32.431 18.598-52.214v-18.491a7.287 7.287 0 1 0-14.574 0v18.491c0 33.657-24.491 61.683-56.584 67.241v-6.734a7.287 7.287 0 1 0-14.573 0v55.413c0 8.149-6.63 14.779-14.78 14.779-8.149 0-14.778-6.63-14.778-14.779v-55.414a7.287 7.287 0 1 0-14.574 0v7.754H190.508v-7.754a7.287 7.287 0 1 0-14.574 0v55.414c0 8.149-6.63 14.779-14.779 14.779s-14.779-6.63-14.779-14.779v-55.413a7.287 7.287 0 1 0-14.574 0v6.734c-32.093-5.558-56.584-33.584-56.584-67.241v-70.157c0-7.012 5.3-12.801 12.102-13.595l.029-.002c.179-.02.338-.031.504-.045.351-.027.703-.054 1.061-.054h42.889v33.331a7.287 7.287 0 1 0 14.574 0v-33.331h29.558v33.331a7.287 7.287 0 1 0 14.574 0v-33.331h130.983v33.331a7.287 7.287 0 1 0 14.574 0v-33.331h29.558v33.331a7.287 7.287 0 1 0 14.573 0v-33.331h42.889c.358 0 .71.027 1.061.054.165.014.325.025.504.045l.029.002c6.802.793 12.102 6.583 12.102 13.595v21.842a7.287 7.287 0 1 0 14.574 0v-21.842c0-13.956-10.168-25.574-23.483-27.855a7.263 7.263 0 0 0-2.401-.413h-92.203V36.78a7.283 7.283 0 0 0-2.246-5.261L300.234 2.025c-.028-.027-.061-.048-.09-.074a7.35 7.35 0 0 0-.654-.54c-.046-.034-.091-.07-.138-.103a7.4 7.4 0 0 0-.808-.487c-.054-.028-.11-.053-.165-.079-.246-.12-.5-.227-.761-.319-.051-.018-.101-.039-.153-.056a7.221 7.221 0 0 0-.907-.234c-.066-.013-.133-.02-.2-.031a7.374 7.374 0 0 0-.735-.08c-.093-.006-.185-.012-.278-.014-.051-.001-.1-.008-.152-.008h-78.389c-.052 0-.103.007-.155.008-.091.002-.182.008-.273.014a7.205 7.205 0 0 0-.741.081c-.066.011-.132.018-.198.03-.31.059-.612.137-.906.234-.053.017-.103.038-.155.057a7.177 7.177 0 0 0-.756.317c-.057.028-.114.053-.17.082a7.268 7.268 0 0 0-.804.485c-.048.034-.094.071-.142.106a7.149 7.149 0 0 0-.651.538c-.029.027-.062.047-.09.075l-30.784 29.492a7.284 7.284 0 0 0-2.246 5.261v48.903H86.531c-.843 0-1.648.15-2.401.413-13.315 2.281-23.483 13.899-23.483 27.855v70.157c0 19.783 6.981 37.957 18.598 52.214v51.543h-45.09c-7.343 0-13.316 5.973-13.316 13.316v48.937c0 5.048 1.874 9.659 4.946 13.204v27.206a7.287 7.287 0 1 0 14.574 0v-20.215c.229.008.458.011.688.011h38.198v73.236h-28.17c-5.91 0-10.717-4.808-10.717-10.717v-12.471a7.287 7.287 0 1 0-14.574 0v12.471c0 13.945 11.345 25.29 25.29 25.29h28.35C81.667 488.21 106.837 512 137.476 512h237.046c30.639 0 55.809-23.79 58.052-53.866h28.35c13.945 0 25.29-11.345 25.29-25.29v-69.521c3.072-3.545 4.946-8.156 4.946-13.204v-48.938h-.001zM224.091 46.34h63.816v39.343h-63.816V46.34zm94.601 39.343H302.48V24.358l16.212 15.532v45.793zm-30.785-53.916h-63.816V14.573h63.816v17.194zm-94.601 8.123 16.212-15.532v61.324h-16.212V39.89zm283.28 262.548v47.68a5.62 5.62 0 0 1-2.099 4.38c-.021.016-.045.028-.066.045a5.778 5.778 0 0 1-.961.612l-.069.033c-.11.054-.224.106-.343.155-.053.021-.108.039-.162.059a4.822 4.822 0 0 1-.301.106c-.113.034-.228.061-.344.089-.055.013-.106.03-.163.041a5.65 5.65 0 0 1-1.126.113h-38.198v-53.313h43.832zM41.045 355.751a5.65 5.65 0 0 1-1.126-.113c-.057-.012-.109-.028-.165-.042-.115-.027-.23-.054-.342-.088-.104-.032-.202-.069-.3-.106-.054-.02-.109-.038-.163-.06a6.424 6.424 0 0 1-.343-.154l-.07-.034a5.714 5.714 0 0 1-.961-.612c-.021-.017-.045-.028-.066-.045a5.625 5.625 0 0 1-2.099-4.38v-47.68h43.832v53.313H41.045v.001zm377.136 98.017c0 24.074-19.585 43.659-43.659 43.659H137.476c-24.074 0-43.659-19.585-43.659-43.659V250.423c11.1 8.364 24.081 13.756 37.987 15.704v33.902c0 16.185 13.168 29.352 29.353 29.352 16.184 0 29.351-13.167 29.351-29.352v-33.086h130.983v33.086c0 16.185 13.167 29.352 29.351 29.352 16.185 0 29.353-13.167 29.353-29.352v-33.902c13.906-1.949 26.887-7.341 37.987-15.704V453.768h-.001zm53.459-20.925c0 5.909-4.807 10.717-10.717 10.717h-28.169v-73.236h38.198c.23 0 .459-.004.688-.011v62.53z"/><path style="fill:#121419" d="M382.833 334.143h-98.049c-8.099 0-14.688 6.589-14.688 14.687v93.497c0 14.971 12.179 27.15 27.15 27.15h73.125c14.971 0 27.15-12.179 27.15-27.15V348.83c0-8.098-6.589-14.687-14.688-14.687zm-98.164 14.687c0-.063.051-.114.115-.114h98.049c.064 0 .115.051.115.114v11.935c0 10.424-8.481 18.905-18.905 18.905h-60.469c-10.424 0-18.905-8.481-18.905-18.905V348.83zm85.702 106.075h-73.125c-6.935 0-12.577-5.642-12.577-12.577v-53.952a33.284 33.284 0 0 0 18.905 5.868h60.469c7.01 0 13.522-2.17 18.905-5.868v53.952c0 6.935-5.643 12.577-12.577 12.577zM227.214 334.143h-98.049c-8.099 0-14.688 6.589-14.688 14.687v93.497c0 14.971 12.179 27.15 27.15 27.15h73.125c14.971 0 27.15-12.179 27.15-27.15V348.83c0-8.098-6.589-14.687-14.688-14.687zM129.05 348.83c0-.063.051-.114.115-.114h98.049c.064 0 .115.051.115.114v11.935c0 10.424-8.481 18.905-18.905 18.905h-60.469c-10.424 0-18.905-8.481-18.905-18.905V348.83zm85.702 106.075h-73.125c-6.935 0-12.577-5.642-12.577-12.577v-53.952a33.284 33.284 0 0 0 18.905 5.868h60.469c7.01 0 13.522-2.17 18.905-5.868v53.952c0 6.935-5.642 12.577-12.577 12.577z"/></svg>