<svg xmlns="http://www.w3.org/2000/svg" viewBox="0 0 511.997 511.997" style="enable-background:new 0 0 511.997 511.997" xml:space="preserve"><path style="fill:#fa9e3e" d="M125.836 223.99h49.369v56.61h-49.369c-15.632 0-28.305-12.673-28.305-28.305s12.673-28.305 28.305-28.305zM386.158 223.99h-49.369v56.61h49.369c15.632 0 28.305-12.673 28.305-28.305s-12.673-28.305-28.305-28.305z"/><path style="fill:#f0eeee" d="M203.07 363.444h105.855c41.621 0 75.362 33.741 75.362 75.362V504.5H127.708v-65.694c0-41.622 33.741-75.362 75.362-75.362z"/><path style="fill:#49b6f2" d="m268.997 449.167 21.308 4.486a22.081 22.081 0 0 1 15.145 11.623l19.881 39.224h-39.038l-25.296-44.333 8-11zM241.983 449.167l-21.308 4.486a22.081 22.081 0 0 0-15.145 11.623L185.65 504.5h39.038l25.295-44.333-8-11z"/><circle style="fill:#2e93cc" cx="255.997" cy="443.67" r="22"/><path style="fill:#d9d4d4" d="M308.924 363.444h-22.632c41.621 0 75.362 33.741 75.362 75.362V504.5h22.632v-65.695c0-41.621-33.741-75.361-75.362-75.361z"/><path style="fill:#e5e3e3" d="M308.927 358.44h-45.029l-7.901 75.06 125.245-29.714c-13.038-26.816-40.552-45.346-72.315-45.346z"/><path style="fill:#49b6f2" d="M258.367 418.433a7.501 7.501 0 0 1-1.726-14.799l110.021-26.103a7.501 7.501 0 0 1 3.463 14.595l-110.021 26.102a7.523 7.523 0 0 1-1.737.205z"/><path style="fill:#e5e3e3" d="M203.067 358.44h45.029l7.901 75.06-125.245-29.714c13.037-26.816 40.552-45.346 72.315-45.346z"/><path style="fill:#49b6f2" d="M253.627 418.433a7.521 7.521 0 0 1-1.737-.204l-110.02-26.102a7.5 7.5 0 0 1 3.463-14.595l110.02 26.103a7.501 7.501 0 0 1-1.726 14.798z"/><path style="fill:#fa9e3e" d="M298.097 267.73v95.35l-42.1 70.42-42.1-70.42v-95.35z"/><path style="fill:#3e3d49" d="M116.997 148.59v57.265c0 34.173 27.702 61.875 61.875 61.875h154.25c34.173 0 61.875-27.702 61.875-61.875V148.59h-278z"/><path style="fill:#ffb56b" d="M255.997 342.79c-61.919 0-112.115-50.195-112.115-112.115V117.281h224.229v113.394c.001 61.92-50.195 112.115-112.114 112.115z"/><path style="fill:#ef9245" d="M344.778 117.281v125.062c0 53.578-41.949 97.354-94.795 100.286 1.992.105 3.996.161 6.014.161 61.919 0 112.115-50.195 112.115-112.115V117.281h-23.334z"/><path style="fill:#e5e3e3" d="M193.306 7.5h125.382c25.59 0 47.135 19.142 50.148 44.554l4.719 39.808H138.44l4.719-39.808C146.171 26.642 167.716 7.5 193.306 7.5z"/><path style="fill:#cecccc" d="M368.836 52.054C365.823 26.642 344.278 7.5 318.688 7.5h-24c25.59 0 47.135 19.142 50.147 44.554l4.719 39.808h24l-4.718-39.808z"/><path style="fill:#f0eeee" d="M415.664 80.969c-106.444-23.07-212.889-23.07-319.333 0l10 84.852c99.333-17.638 199.111-17.638 299.333 0l10-84.852z"/><path style="fill:#d9d4d4" d="m392.253 76.282-10.104 85.736a890.394 890.394 0 0 1 23.515 3.803l10-84.852a784.598 784.598 0 0 0-23.411-4.687z"/><path style="fill:#49b6f2" d="M412.58 114.702a7.58 7.58 0 0 1-1.481-.147c-102.918-20.625-207.285-20.625-310.203 0a7.498 7.498 0 0 1-8.827-5.88 7.498 7.498 0 0 1 5.88-8.827c104.873-21.019 211.225-21.018 316.098 0a7.499 7.499 0 0 1 5.88 8.827 7.504 7.504 0 0 1-7.347 6.027z"/><path d="M402.497 172.889c.628.109 1.255.21 1.883.32a7.501 7.501 0 0 0 8.736-6.511l10-84.85a7.5 7.5 0 0 0-5.859-8.208 783.788 783.788 0 0 0-39.188-7.445l-1.783-15.026C372.83 21.997 348.068 0 318.687 0h-125.38c-12.014 0-23.545 3.648-33.347 10.547a7.5 7.5 0 0 0-1.815 10.45 7.5 7.5 0 0 0 10.45 1.815C175.855 17.701 184.4 15 193.307 15h125.38c21.782 0 40.14 16.308 42.702 37.934l1.293 10.895a760.365 760.365 0 0 0-20.33-2.649c-4.103-.473-7.838 2.471-8.315 6.585a7.5 7.5 0 0 0 6.585 8.315c22.178 2.575 44.613 6.205 66.796 10.807l-8.274 70.206c-.98-.163-1.961-.326-2.941-.485a975.842 975.842 0 0 0-9.474-1.488 914.042 914.042 0 0 0-17.638-2.525 890.048 890.048 0 0 0-7.06-.904c-70.667-8.75-141.997-8.758-212.249-.019-2.298.286-4.594.58-6.889.885-3.121.418-6.223.855-9.312 1.3a881.762 881.762 0 0 0-17.789 2.741c-.96.156-1.938.318-2.941.486l-8.273-70.197c68.568-14.221 137.995-18.81 206.467-13.639 4.137.317 7.731-2.784 8.043-6.914a7.499 7.499 0 0 0-6.914-8.043c-53.999-4.079-108.571-2.209-162.862 5.546l1.293-10.893a43.764 43.764 0 0 1 2.482-10.181 7.5 7.5 0 0 0-4.375-9.662 7.498 7.498 0 0 0-9.662 4.375 58.794 58.794 0 0 0-3.339 13.689l-1.784 15.032a777.632 777.632 0 0 0-39.186 7.442 7.5 7.5 0 0 0-5.86 8.208l10 84.85a7.497 7.497 0 0 0 8.756 6.507c.638-.113 1.248-.219 1.863-.327v32.982c0 4.688.478 9.338 1.407 13.896-12.446 5.74-20.877 18.402-20.877 32.533 0 19.745 16.064 35.81 35.81 35.81h25.226c12.433 22.701 31.823 40.729 55.335 51.439v11.401h-3.33c-33.39 0-64.425 19.457-79.065 49.57a7.5 7.5 0 0 0-.032 6.492c.409.863.981 1.62 1.661 2.257-3.597 9.395-5.424 19.299-5.424 29.55v65.69c0 4.143 3.357 7.5 7.5 7.5H384.287c4.143 0 7.5-3.357 7.5-7.5v-65.69c0-10.253-1.827-20.156-5.424-29.55a7.48 7.48 0 0 0 1.662-2.259 7.5 7.5 0 0 0-.035-6.495 88.448 88.448 0 0 0-14.04-20.728 7.502 7.502 0 0 0-10.595-.511 7.502 7.502 0 0 0-.511 10.595 73.527 73.527 0 0 1 6.942 8.939L271.548 422.1l32.986-55.174c.19-.317.35-.649.49-.988h3.902c11.29 0 22.115 2.523 32.174 7.501a7.468 7.468 0 0 0 3.32.78 7.5 7.5 0 0 0 6.728-4.176 7.499 7.499 0 0 0-3.396-10.048c-12.145-6.011-25.208-9.058-38.826-9.058h-3.329v-11.402c23.516-10.714 42.906-28.743 55.334-51.439h25.225c19.745 0 35.81-16.064 35.81-35.81 0-14.131-8.431-26.793-20.876-32.533a69.554 69.554 0 0 0 1.407-13.896v-32.968zm-15 32.971a54.401 54.401 0 0 1-3.377 18.901c-.094.252-.199.498-.296.749-.209.539-.416 1.079-.641 1.611-.128.301-.269.595-.402.894-.211.472-.418.946-.641 1.412-.153.319-.32.63-.479.945-.22.435-.436.873-.667 1.301-.176.326-.364.645-.547.967-.231.408-.459.818-.701 1.22-.197.327-.405.647-.608.97-.243.386-.483.773-.736 1.153-.217.326-.445.645-.669.966-.255.365-.508.732-.772 1.091-.236.32-.481.634-.724.949-.268.348-.534.697-.811 1.039-.065.08-.134.158-.199.238.043-.526.082-1.054.112-1.586.014-.203.026-.407.038-.61l.016-.272c.027-.376.047-.748.065-1.122l.026-.486.005-.116c.016-.377.023-.73.035-1.097l.027-.846c.033-1.173.055-2.324.055-3.449v-62.041c.996.142 1.993.286 2.992.432.766.112 1.53.221 2.298.336 1.569.233 3.144.474 4.72.716.545.084 1.089.164 1.635.249l.245.039.001 35.447zm-250.918 34.179c-.289-.356-.567-.72-.846-1.084-.232-.302-.467-.602-.693-.909-.273-.371-.534-.75-.798-1.128-.215-.309-.435-.616-.644-.93-.26-.39-.508-.789-.758-1.186-.197-.312-.398-.622-.588-.938-.248-.412-.482-.832-.719-1.251-.176-.312-.359-.621-.529-.937-.236-.439-.458-.886-.683-1.332-.154-.306-.315-.607-.464-.916-.231-.48-.445-.969-.662-1.457-.126-.283-.26-.562-.381-.847-.234-.551-.45-1.112-.666-1.672-.089-.231-.187-.457-.273-.689a54.4 54.4 0 0 1-3.378-18.903v-35.472l.091-.015c.551-.087 1.111-.17 1.664-.256 1.549-.24 3.101-.48 4.666-.714.749-.112 1.504-.221 2.256-.331a917.01 917.01 0 0 1 3.213-.467v62.074a123.05 123.05 0 0 0 .082 4.294c.012.367.019.721.035 1.097l.005.116.026.486c.018.369.038.737.064 1.109l.018.305.035.57c.03.536.07 1.067.114 1.606-.061-.073-.126-.147-.187-.223zM125.837 273.1c-11.475 0-20.81-9.335-20.81-20.81 0-7.586 4.179-14.444 10.514-18.072.152.34.317.673.474 1.011.131.28.259.561.393.838.372.77.757 1.533 1.157 2.287.05.095.097.192.148.287.452.844.925 1.675 1.411 2.498.145.246.297.487.445.731a69.446 69.446 0 0 0 1.632 2.562c.382.571.774 1.135 1.173 1.694.163.229.323.46.489.687a69.443 69.443 0 0 0 1.732 2.273c.083.105.171.205.255.309a69.816 69.816 0 0 0 1.587 1.896c.206.237.417.47.626.705a66.5 66.5 0 0 0 2.023 2.176 68.75 68.75 0 0 0 1.555 1.547c.168.162.331.328.501.488a70.572 70.572 0 0 0 2.122 1.927c.179.156.364.306.545.461a68.87 68.87 0 0 0 1.69 1.399c.256.205.515.407.775.608a68.63 68.63 0 0 0 1.612 1.216c.253.185.504.372.76.554.7.498 1.41.985 2.13 1.459.092.061.182.125.274.185l.051.035c.396 1.364.825 2.719 1.27 4.067a120.31 120.31 0 0 0 1.708 4.851c.016.043.03.087.047.131h-18.289zm125.568 199.708c1.51.237 3.042.362 4.592.362 1.225 0 2.438-.101 3.643-.25L273.381 497h-35.78l13.804-24.192zm19.092-29.138a14.45 14.45 0 0 1-.788 4.715c-1.234 3.612-3.913 6.623-7.322 8.305-.486.24-.988.453-1.502.636l-.007.003a14.593 14.593 0 0 1-10.316-.214 14.49 14.49 0 0 1-9.065-13.446c0-1.947.407-3.858 1.153-5.627l11.615 2.755c.096.023.193.032.289.051.106.021.21.042.317.058.067.01.133.024.201.033.278.034.556.052.833.055.029 0 .056.007.085.007.292 0 .587-.018.883-.054l.039-.007.014-.002c.102-.013.201-.036.302-.053.167-.028.334-.049.501-.088l11.615-2.755a14.5 14.5 0 0 1 1.153 5.628zm-67.43-77.73h3.896c.006.014.015.027.021.042.136.325.293.642.475.947l32.985 55.174-98.234-23.301c13.384-20.22 36.358-32.862 60.857-32.862zm-67.86 72.87c0-8.734 1.61-17.157 4.79-25.117l87.951 20.862a29.475 29.475 0 0 0-1.451 9.115c0 .363.03.721.043 1.082l-7.409 1.56c-8.816 1.857-16.212 7.534-20.293 15.578L181.041 497h-45.834v-58.19zm62.65 58.19 14.358-28.326a14.535 14.535 0 0 1 10.006-7.685l8.675-1.826a29.42 29.42 0 0 0 6.707 7.569L220.332 497h-22.475zm92.795 0-16.97-29.736c.071-.053.135-.115.205-.169a29.74 29.74 0 0 0 1.869-1.545l.013-.011a29.977 29.977 0 0 0 1.736-1.721c.101-.108.203-.214.302-.323a29.93 29.93 0 0 0 1.534-1.823c.076-.097.146-.197.221-.296.47-.623.919-1.262 1.339-1.92.023-.036.05-.068.073-.104l7.788 1.639a14.5 14.5 0 0 1 9.996 7.682L313.117 497h-22.465zm86.135 0h-46.854l-17.794-35.105c-4.069-8.045-11.464-13.725-20.288-15.583l-6.408-1.348c.019-.431.053-.86.053-1.293 0-3.116-.5-6.191-1.451-9.115l87.951-20.863c3.18 7.959 4.789 16.382 4.789 25.117V497h.002zm-120.79-78.116-34.6-57.875V345.21c.07.021.141.038.211.059 1.214.365 2.434.708 3.659 1.033.288.077.577.149.866.224 1.09.281 2.182.547 3.279.796.198.045.395.094.592.138 1.244.276 2.493.528 3.745.764.299.056.598.109.896.163 1.147.207 2.296.399 3.45.572.15.023.3.049.45.071 1.27.185 2.544.345 3.822.49.309.035.618.067.927.1 1.217.128 2.438.242 3.662.333.086.006.172.015.259.022a122.631 122.631 0 0 0 4.842.246c1.31.042 2.622.071 3.939.071a122.892 122.892 0 0 0 4.887-.105c1.301-.052 2.6-.118 3.895-.212l.255-.021a144.138 144.138 0 0 0 4.589-.433c1.28-.145 2.557-.305 3.828-.491.145-.021.289-.046.434-.068 1.16-.174 2.316-.367 3.468-.575.295-.053.59-.105.885-.161 1.256-.236 2.509-.489 3.756-.766.192-.043.383-.09.575-.134a120.08 120.08 0 0 0 3.3-.801c.285-.073.57-.145.854-.221 1.226-.326 2.448-.669 3.664-1.035.07-.021.14-.038.21-.059v13.212l-.001.019.001.019v2.549l-34.599 57.875zm39.278-91.223c-12.465 5.063-25.68 7.629-39.278 7.629-2.55 0-5.086-.09-7.606-.27a103.605 103.605 0 0 1-24.586-4.776c-.263-.085-.524-.178-.787-.266-.531-.177-1.062-.351-1.591-.536-1.58-.555-3.15-1.148-4.708-1.781l-.006-.002c-23.682-9.594-43.006-27.493-54.417-50.41a103.29 103.29 0 0 1-1.156-2.393 103.873 103.873 0 0 1-1.42-3.198 103.724 103.724 0 0 1-2.586-6.678 104.234 104.234 0 0 1-2.333-7.663l-.025-.104a105.346 105.346 0 0 1-.809-3.325c-.026-.115-.047-.231-.073-.346-.223-.999-.433-2.001-.626-3.003a104.177 104.177 0 0 1-1.005-6.257l-.029-.224a102.193 102.193 0 0 1-.356-3.183c-.01-.097-.017-.199-.026-.297a102.519 102.519 0 0 1-.253-3.196l-.006-.11a107.883 107.883 0 0 1-.159-3.568 105.122 105.122 0 0 1-.048-3.026v-64.091l.138-.018c4.008-.499 8.019-.964 12.034-1.405l1.224-.137c3.874-.42 7.752-.809 11.632-1.174l1.612-.153a854.28 854.28 0 0 1 11.418-.974c.604-.047 1.207-.096 1.811-.142a843.656 843.656 0 0 1 24.585-1.519c.569-.027 1.139-.051 1.708-.077 3.863-.174 7.729-.325 11.595-.447.465-.015.93-.026 1.395-.04 3.981-.118 7.964-.213 11.948-.275l.847-.01c8.351-.122 16.706-.12 25.063.006l.779.01c4.016.064 8.032.161 12.049.282l1.291.037c3.909.124 7.817.278 11.725.455.529.024 1.059.047 1.588.072 3.852.182 7.704.393 11.556.628l1.704.105c3.838.242 7.676.51 11.513.804l1.679.131c3.865.304 7.728.632 11.591.989.499.046.997.095 1.496.142 3.934.37 7.867.765 11.798 1.19l1.134.126a848.306 848.306 0 0 1 12.308 1.436v64.048a108.931 108.931 0 0 1-.071 3.749c-.033.935-.076 1.869-.134 2.801-.002.051-.004.102-.008.154-.008.087-.013.175-.019.263-.064.969-.141 1.937-.231 2.902-.011.116-.019.226-.031.344-.102 1.059-.22 2.114-.354 3.168l-.029.218c-.272 2.1-.608 4.188-1.006 6.261-.441 2.28-.954 4.559-1.533 6.776a103.79 103.79 0 0 1-7.499 19.941c-11.406 22.911-30.73 40.811-54.417 50.407zm90.882-54.561h-18.289c.017-.044.031-.09.048-.135a120.02 120.02 0 0 0 1.708-4.849c.444-1.349.873-2.702 1.269-4.066l.05-.034c.095-.062.187-.128.282-.191a69.627 69.627 0 0 0 2.122-1.453c.257-.183.51-.371.764-.557a70.963 70.963 0 0 0 2.387-1.824 69.57 69.57 0 0 0 1.67-1.383c.188-.16.38-.316.566-.478a69.98 69.98 0 0 0 2.113-1.919c.175-.166.344-.338.518-.505a71.439 71.439 0 0 0 1.537-1.528c.232-.239.46-.48.689-.722.451-.477.895-.961 1.331-1.451.214-.239.428-.477.639-.719a67.592 67.592 0 0 0 1.561-1.866c.092-.114.189-.224.28-.339a67.483 67.483 0 0 0 1.725-2.263c.171-.233.335-.471.503-.707a71.955 71.955 0 0 0 1.709-2.508c.369-.568.727-1.143 1.079-1.722.151-.249.306-.495.454-.746.485-.821.957-1.65 1.408-2.492.053-.098.101-.2.153-.299.398-.75.781-1.509 1.151-2.275.136-.28.265-.563.397-.845.157-.336.321-.669.473-1.008 6.335 3.628 10.513 10.486 10.513 18.072 0 11.477-9.335 20.812-20.81 20.812z"/><path d="M287.933 260.31a7.5 7.5 0 0 0-10.435 1.896 26.163 26.163 0 0 1-21.501 11.278 26.166 26.166 0 0 1-21.501-11.278 7.497 7.497 0 0 0-10.435-1.896 7.5 7.5 0 0 0-1.897 10.435c7.691 11.107 20.339 17.739 33.833 17.739s26.142-6.632 33.833-17.739a7.499 7.499 0 0 0-1.897-10.435zM310.32 215.962a7.499 7.499 0 0 0-7.5 7.5v2c0 4.143 3.357 7.5 7.5 7.5s7.5-3.357 7.5-7.5v-2c0-4.143-3.357-7.5-7.5-7.5zM201.674 215.962a7.499 7.499 0 0 0-7.5 7.5v2c0 4.143 3.357 7.5 7.5 7.5s7.5-3.357 7.5-7.5v-2a7.5 7.5 0 0 0-7.5-7.5z"/></svg>