<svg xmlns="http://www.w3.org/2000/svg" height="512pt" viewBox="-8 0 512 512.001" width="512pt"><path d="M216.16 343.098V145.109l-153.347-2.023v3.75c0 1.27-.024 2.312-.047 3.39-6.043 15.395-4.149 28.653.047 44.66v5.38h107.394L156.73 343.098Zm0 0" style="stroke:none;fill-rule:nonzero;fill:#95ccc2;fill-opacity:1"/><path d="M92.746 194.887c-4.195-16.008-6.086-29.266-.043-44.66.02-1.079.043-2.122.043-3.391v-3.356l-29.933-.394v3.75c0 1.27-.024 2.312-.047 3.39-6.043 15.395-4.149 28.653.047 44.66v5.38h29.933v-5.379Zm0 0" style="stroke:none;fill-rule:nonzero;fill:#6fada1;fill-opacity:1"/><path d="M282.688 100.766v28.703a30.8 30.8 0 0 1-6.446 18.898c0 .012-.012.012-.012.02-5.34 6.906-13.52 11.484-22.789 11.984-.289.008-.57.031-.847.04-.29.01-.578.01-.86.01h-8.859a31.33 31.33 0 0 1-2.852-.128c-10.187-.93-18.937-6.797-23.859-15.188a30.807 30.807 0 0 1-4.238-15.636v-28.703Zm0 0" style="stroke:none;fill-rule:nonzero;fill:#f4f3d5;fill-opacity:1"/><path d="M246.102 145.105a30.771 30.771 0 0 1-4.243-15.636v-28.703h-29.933v28.703a30.807 30.807 0 0 0 4.238 15.636c4.922 8.391 13.672 14.258 23.86 15.188a31.33 31.33 0 0 0 2.851.129h8.86c.28 0 .57 0 .859-.012.277-.008.558-.031.847-.039a30.78 30.78 0 0 0 8.829-1.8 30.994 30.994 0 0 1-16.168-13.466Zm0 0" style="stroke:none;fill-rule:nonzero;fill:#e5e3c3;fill-opacity:1"/><path d="M327.164 87.05s-35.754 13.716-79.86 13.716c-44.105 0-79.859-13.715-79.859-13.715S203.2 73.34 247.305 73.34c44.105 0 79.86 13.71 79.86 13.71ZM276.89 37.785v7.574h-60.605v-7.574c0-16.73 30.3-30.3 30.3-30.3s30.306 13.57 30.306 30.3Zm0 0" style="stroke:none;fill-rule:nonzero;fill:#ffcd6b;fill-opacity:1"/><path d="M216.285 45.36h60.606v27.456h-60.606Zm0 0" style="stroke:none;fill-rule:nonzero;fill:#e63950;fill-opacity:1"/><path d="m432.242 162.785-.8 22.371h.011a89.977 89.977 0 0 1-1.887 8.848c0 .8.012 1.508.012 2.027v4.23H322.176l6.097 64.657-28.816 3.602 5.05 44.828 28.247-1.008 2.902 30.762H276.23v-87.207l26.54-36.618-26.54-25.55 32.637-22.801-8.27-23.348v-.047l128.981-4.453v1.969c0 .2.027 1.894.027 2.812a87.678 87.678 0 0 1 2.637 14.918v.008Zm0 0" style="stroke:none;fill-rule:nonzero;fill:#6fada1;fill-opacity:1"/><path d="m302.773 219.277-26.543 36.618v-62.168Zm0 0" style="stroke:none;fill-rule:nonzero;fill:#e63950;fill-opacity:1"/><path d="m332.754 312.34-28.246 1.008-5.051-44.828 28.816-3.602Zm0 0" style="stroke:none;fill-rule:nonzero;fill:#f4f3d5;fill-opacity:1"/><path d="m259.469 233.715-12.164 8.84-12.16-8.84 4.878-73.422a31.33 31.33 0 0 0 2.852.129h8.86c.28 0 .57 0 .859-.012h.847Zm0 0" style="stroke:none;fill-rule:nonzero;fill:#8a4470;fill-opacity:1"/><path d="M276.23 148.387v157.148h-60.074V145.113l.008-.008c4.922 8.391 13.672 14.258 23.86 15.188l-4.88 73.422 12.16 8.84 12.165-8.84-6.028-73.305h-.847c.277-.008.558-.031.847-.039 9.27-.5 17.45-5.078 22.79-11.984Zm0 0" style="stroke:none;fill-rule:nonzero;fill:#ffcd6b;fill-opacity:1"/><path d="M216.156 193.727v62.168l-26.543-36.618Zm0 0" style="stroke:none;fill-rule:nonzero;fill:#6fada1;fill-opacity:1"/><path d="m308.867 170.926-32.637 22.8v-45.34c0-.007.012-.007.012-.019l24.356-.836v.047Zm0 0" style="stroke:none;fill-rule:nonzero;fill:#8a4470;fill-opacity:1"/><path d="M216.156 145.113v48.614l-32.625-22.801 9.246-26.121Zm0 0" style="stroke:none;fill-rule:nonzero;fill:#e63950;fill-opacity:1"/><path d="M156.738 200.262h-37.843l-9.153-21.461 43.817-8.012Zm0 0" style="stroke:none;fill-rule:nonzero;fill:#8a4470;fill-opacity:1"/><path d="M400.813 467.988c.066-.75.105-1.504.105-2.265 0-12.375-8.488-22.762-19.957-25.668.48-1.996.742-4.078.742-6.223 0-14.621-11.855-26.477-26.476-26.477-10.946 0-20.336 6.637-24.372 16.11a33.405 33.405 0 0 0-3.324-.168c-18.164 0-32.886 14.726-32.886 32.887 0 4.222.804 8.25 2.253 11.96-8.12 1.922-14.21 9.25-14.21 17.938 0 10.14 8.296 18.434 18.433 18.434h96.168c10.14 0 18.434-8.293 18.434-18.434.004-8.937-6.442-16.437-14.91-18.094Zm0 0" style="stroke:none;fill-rule:nonzero;fill:#5cb57c;fill-opacity:1"/><path d="M236.121 305.531h22.363v198.985h-22.363Zm0 0" style="stroke:none;fill-rule:nonzero;fill:#7c4f2a;fill-opacity:1"/><path d="M319.96 462.559c-.706-12.602-10.976-22.598-23.542-22.598-1.645 0-3.25.172-4.8.5-4.266-11.313-15.18-19.36-27.985-19.36-10.649 0-19.988 5.57-25.285 13.954-3.528-6.137-10.145-10.274-17.73-10.274-8.09 0-15.079 4.7-18.395 11.52-.23-.008-.457-.02-.688-.02-13.719 0-24.84 11.121-24.84 24.84 0 .39.012.774.028 1.156-10.836.918-19.348 10-19.348 21.078 0 11.688 9.473 21.16 21.16 21.16h137.54c11.687 0 21.163-9.472 21.163-21.16-.004-10.359-7.449-18.972-17.277-20.796Zm0 0" style="stroke:none;fill-rule:nonzero;fill:#5e9e73;fill-opacity:1"/><path d="M431.441 185.152h57.684V162.79h-56.879M59.43 162.79H7.484v22.362h53.051" style="stroke:none;fill-rule:nonzero;fill:#7c4f2a;fill-opacity:1"/><path d="M200.207 467.988c.063-.75.102-1.504.102-2.265 0-12.375-8.489-22.762-19.957-25.668.48-1.996.742-4.078.742-6.223 0-14.621-11.852-26.477-26.477-26.477-10.945 0-20.336 6.637-24.37 16.11a33.405 33.405 0 0 0-3.325-.168c-18.16 0-32.887 14.726-32.887 32.887 0 4.222.805 8.25 2.254 11.96-8.121 1.922-14.21 9.25-14.21 17.938 0 10.14 8.296 18.434 18.437 18.434h96.164c10.14 0 18.437-8.293 18.437-18.434 0-8.937-6.445-16.437-14.91-18.094Zm0 0" style="stroke:none;fill-rule:nonzero;fill:#5cb57c;fill-opacity:1"/><path d="M112.012 486.082c0-7.156 4.133-13.39 10.129-16.441 2.164-1.102 3.257-3.567 2.703-5.934a32.693 32.693 0 0 1-.871-7.523c0-18.16 14.722-32.887 32.886-32.887h.032c1.941.004 3.742-.992 4.71-2.676a26.623 26.623 0 0 1 7.989-8.625 26.347 26.347 0 0 0-14.973-4.64c-10.941 0-20.336 6.636-24.367 16.109a33.405 33.405 0 0 0-3.324-.168c-18.164 0-32.887 14.723-32.887 32.887 0 4.218.805 8.25 2.254 11.957-8.563 2.027-14.867 10.058-14.156 19.359.734 9.691 9.148 17.016 18.867 17.016h29.45c-10.145 0-18.442-8.297-18.442-18.434Zm0 0" style="stroke:none;fill-rule:nonzero;fill:#5e9e73;fill-opacity:1"/><path d="M230.813 116.148c-.477.09-.95.243-1.407.422a7.407 7.407 0 0 0-2.426 1.625c-.347.34-.656.72-.937 1.137-.258.398-.5.84-.68 1.29-.187.448-.328.917-.425 1.394a7.045 7.045 0 0 0 0 2.926 7.609 7.609 0 0 0 1.105 2.691c.281.41.59.8.937 1.14.34.348.727.657 1.137.926.399.27.84.508 1.29.688.456.191.929.34 1.405.43a7.045 7.045 0 0 0 2.922 0c.48-.09.95-.239 1.399-.43.449-.18.887-.418 1.297-.688.41-.27.789-.578 1.129-.926a7.545 7.545 0 0 0 2.195-5.289c0-1.964-.8-3.902-2.195-5.289-1.739-1.746-4.32-2.543-6.746-2.047ZM255.426 126.348c.191.449.422.886.691 1.285.27.41.586.8.926 1.14.352.348.73.657 1.137.926.41.27.84.508 1.3.688a6.7 6.7 0 0 0 1.395.43c.48.101.977.152 1.465.152 1.969 0 3.894-.801 5.289-2.196.34-.34.66-.73.93-1.14.27-.399.5-.836.687-1.285.192-.461.328-.93.43-1.407.101-.48.14-.968.14-1.457a7.196 7.196 0 0 0-.57-2.863 7.47 7.47 0 0 0-1.617-2.426c-1.734-1.746-4.32-2.543-6.754-2.047-.477.09-.95.243-1.395.422-.46.188-.89.418-1.3.688-.407.277-.785.59-1.137.937-.34.34-.656.73-.926 1.137a7.425 7.425 0 0 0-1.117 2.684c-.09.488-.14.98-.14 1.468 0 .489.05.977.14 1.457.098.477.238.946.426 1.407Zm0 0" style="stroke:none;fill-rule:nonzero;fill:#000;fill-opacity:1"/><path d="M0 162.79v22.362a7.485 7.485 0 0 0 7.484 7.485H38.59l-9.715 7.5a7.48 7.48 0 0 0-1.352 10.496 7.464 7.464 0 0 0 5.93 2.91 7.458 7.458 0 0 0 4.567-1.559l2.648-2.047-1.059 2.262a7.486 7.486 0 0 0 6.774 10.656 7.49 7.49 0 0 0 6.785-4.312l5.61-11.984a7.425 7.425 0 0 0 4.035 1.191h99.171l-3.59 38.07a7.48 7.48 0 0 0 6.747 8.153 7.476 7.476 0 0 0 8.152-6.746l4.367-46.258a7.493 7.493 0 0 0-7.453-8.188h-6.746l-2.465-22.8a7.5 7.5 0 0 0-2.965-5.192 7.504 7.504 0 0 0-5.824-1.363l-43.812 8.02a7.46 7.46 0 0 0-5.243 3.816 7.474 7.474 0 0 0-.293 6.48l4.707 11.04h-37.57c-4.117-15.77-5.367-26.813-.266-39.821.29-.734.461-1.508.508-2.293l112 1.48-5.77 16.286a7.478 7.478 0 0 0 2.77 8.632l25.172 17.582-19.992 19.247a7.48 7.48 0 0 0-.867 9.78l25.125 34.653v77.29h-43.723l5.574-59.095a7.48 7.48 0 0 0-6.746-8.152c-4.113-.387-7.765 2.633-8.152 6.746l-6.348 67.281a7.488 7.488 0 0 0 7.45 8.188h59.43a7.485 7.485 0 0 0 7.484-7.484v-30.086h4.996v105.496c-2.575-.778-5.266-1.211-8.024-1.211-9.039 0-17.531 4.476-22.722 11.703a32.054 32.054 0 0 0-9.399 2.57c-1.168-17.676-15.91-31.703-33.879-31.703a33.912 33.912 0 0 0-28.804 15.961c-21.747.594-39.258 18.469-39.258 40.356 0 2.566.242 5.109.722 7.605a25.82 25.82 0 0 0-12.68 22.289c0 14.293 11.626 25.918 25.919 25.918h296.777c14.289 0 25.918-11.625 25.918-25.918 0-10.21-6.012-19.285-14.95-23.473a33.932 33.932 0 0 0-19.097-27.504c.02-.421.024-.847.024-1.27 0-6.858-2.036-13.468-5.883-19.116-2.332-3.414-6.989-4.297-10.399-1.965-.297.2-.566.426-.824.66-2.71 2.469-3.27 6.617-1.144 9.738a18.885 18.885 0 0 1 3.285 10.684c0 1.492-.18 2.996-.536 4.469a7.485 7.485 0 0 0 5.438 9.007c8.426 2.133 14.313 9.708 14.313 18.41 0 .493-.028 1.028-.079 1.637a7.488 7.488 0 0 0 6.02 7.977c5.137 1.004 8.867 5.527 8.867 10.746 0 6.043-4.914 10.953-10.953 10.953h-56.055a28.472 28.472 0 0 0 3.485-13.676c0-11.91-7.332-22.363-18.055-26.62a31.517 31.517 0 0 0-15.113-20.282 25.288 25.288 0 0 1 15.98-5.672c.852 0 1.719.043 2.574.13a7.486 7.486 0 0 0 7.633-4.517 18.984 18.984 0 0 1 13.766-11.199c3.699-.73 6.21-4.078 6.008-7.738a6.925 6.925 0 0 0-.121-1.055 7.484 7.484 0 0 0-8.797-5.886 33.916 33.916 0 0 0-22.176 15.312c-12.559.34-23.692 6.45-30.867 15.762-6.305-10.309-17.371-17.117-29.586-17.895V313.016h2.777v30.082a7.482 7.482 0 0 0 7.48 7.484h59.43c2.11 0 4.117-.887 5.535-2.445a7.501 7.501 0 0 0 1.918-5.742l-12.707-134.649h99.176c.629 0 1.242-.086 1.828-.234l2.582 7.324a7.483 7.483 0 1 0 14.114-4.977l-3.051-8.648 15.195 8.387a7.483 7.483 0 0 0 10.168-2.934 7.485 7.485 0 0 0-2.934-10.168l-6.992-3.86h28.637a7.482 7.482 0 0 0 7.48-7.484V162.79a7.479 7.479 0 0 0-7.48-7.48h-24.14a7.488 7.488 0 0 0 .554-7.02 7.48 7.48 0 0 0-9.848-3.871l-8.41 3.66 7.278-15.754a7.485 7.485 0 0 0-13.586-6.281l-5.657 12.246a8.532 8.532 0 0 0-.543-.586 7.51 7.51 0 0 0-5.457-2.098l-140.753 4.852a38.396 38.396 0 0 0 1.609-10.988v-8.598l10.621 12.156a7.474 7.474 0 0 0 5.637 2.559 7.485 7.485 0 0 0 5.633-12.41l-10.618-12.145 30.016 3.317a7.488 7.488 0 0 0 8.262-6.613 7.487 7.487 0 0 0-6.618-8.262l-14.843-1.641c6.922-2.031 11.09-3.605 11.582-3.793a7.484 7.484 0 0 0 0-13.973c-1.063-.41-19.192-7.254-45.473-11.293V37.785c0-20.976-31.172-35.543-34.726-37.133a7.486 7.486 0 0 0-6.118 0c-3.554 1.594-34.726 16.157-34.726 37.133v31.207c-25.508 4.063-42.992 10.672-44.035 11.07a7.48 7.48 0 0 0 0 13.973c.609.235 6.804 2.578 16.91 5.297l-21.98 4.508a7.485 7.485 0 0 0 1.5 14.816c.495 0 1.003-.05 1.511-.156l21.04-4.316-13.716 11.246a7.483 7.483 0 0 0-1.043 10.53c.325.395.688.743 1.07 1.056L62.91 135.602c-1.422-.028-2.855.386-4.082 1.156l-8.238-25.543a7.481 7.481 0 0 0-9.418-4.824 7.481 7.481 0 0 0-4.824 9.418l6.593 20.441-12.68-12.402a7.479 7.479 0 0 0-10.577.113 7.484 7.484 0 0 0 .113 10.582l21.219 20.762H7.484A7.485 7.485 0 0 0 0 162.789Zm59.43 7.483c.125 0 .246-.015.37-.02l.364 7.415h-45.2v-7.395Zm60.867 14.207 26.683-4.882 1.426 13.183H123.84ZM235.64 22.55c4.078-2.972 8.23-5.308 10.945-6.722 2.715 1.414 6.867 3.75 10.945 6.723 7.547 5.5 11.875 11.054 11.875 15.234v.094h-45.64v-.094c0-4.183 4.328-9.734 11.875-15.234Zm-11.875 30.294h45.64V65.34h-45.64Zm23.539 27.976c20.34 0 38.965 3.059 52.82 6.23-13.855 3.177-32.48 6.231-52.82 6.231-20.356 0-38.993-3.058-52.856-6.234 13.84-3.172 32.457-6.227 52.856-6.227Zm234.336 96.852h-49.93l.266-7.414c.09.004.18.015.27.015h49.394Zm-188.485 270.11a16.05 16.05 0 0 1 3.262-.337c8.523 0 15.582 6.82 16.07 15.532a7.482 7.482 0 0 0 6.106 6.937c6.465 1.203 11.16 6.856 11.16 13.441 0 7.543-6.137 13.68-13.68 13.68h-95.91a25.729 25.729 0 0 0 2.438-10.953c0-10.21-6.016-19.289-14.95-23.477a33.915 33.915 0 0 0-7.84-18.75c.567-.058 1.141-.09 1.723-.09l.485.016a7.472 7.472 0 0 0 6.937-4.207c2.188-4.508 6.66-7.308 11.66-7.308 4.625 0 8.93 2.5 11.242 6.52a7.485 7.485 0 0 0 6.332 3.753h.157a7.48 7.48 0 0 0 6.324-3.484c4.144-6.555 11.234-10.47 18.965-10.47 9.273 0 17.707 5.833 20.98 14.513a7.476 7.476 0 0 0 8.54 4.683Zm-192.64 49.253c-6.043 0-10.957-4.914-10.957-10.953 0-5.016 3.558-9.496 8.453-10.656a7.482 7.482 0 0 0 4.902-3.809 7.469 7.469 0 0 0 .344-6.195 25.333 25.333 0 0 1-1.738-9.238c0-14.008 11.394-25.403 25.402-25.403.855 0 1.723.043 2.578.13a7.475 7.475 0 0 0 7.629-4.513 18.98 18.98 0 0 1 17.488-11.558c3.371 0 6.535.89 9.281 2.441 5.79 3.258 9.711 9.45 9.711 16.555 0 1.492-.18 2.996-.535 4.469a7.485 7.485 0 0 0 5.438 9.007c8.425 2.133 14.312 9.708 14.312 18.41 0 .493-.027 1.028-.078 1.637a7.488 7.488 0 0 0 6.02 7.977c5.136 1.004 8.867 5.527 8.867 10.746 0 6.043-4.914 10.953-10.953 10.953Zm150.488-81.226a36.748 36.748 0 0 0-7.399 3.609V313.016h7.399Zm-27.36-117.758V162.727a38.269 38.269 0 0 0 8.477 3.636l-4.445 66.86a7.484 7.484 0 0 0 3.066 6.55l12.164 8.836a7.475 7.475 0 0 0 8.797 0l12.16-8.836a7.49 7.49 0 0 0 3.059-6.668l-5.461-66.449a38.603 38.603 0 0 0 7.281-2.73V298.05Zm51.56-189.805v21.223a23.358 23.358 0 0 1-4.833 14.242c-4.125 5.383-10.516 8.93-17.734 9.207-.301.008-.602.023-.903.023h-8.859c-12.941 0-23.469-10.53-23.469-23.472V108.25h55.797Zm149.562 54.871c.004.102.011.207.02.313.01.125.026.246.042.37 0 .02.004.04.008.055a82.353 82.353 0 0 1-.711 19.72 7.106 7.106 0 0 0-.133.878 82.794 82.794 0 0 1-1.652 7.621c-.063.23-.113.469-.152.707H322.18c-2.11 0-4.118.887-5.535 2.446a7.493 7.493 0 0 0-1.918 5.738l5.421 57.43-21.62 2.699a7.487 7.487 0 0 0-6.508 8.265l5.05 44.82a7.484 7.484 0 0 0 7.434 6.645c.09 0 .18 0 .27-.004l21.195-.75 1.469 15.543H283.71V258.32l25.125-34.648a7.486 7.486 0 0 0-.867-9.785l-19.992-19.242 25.175-17.583a7.483 7.483 0 0 0 2.766-8.632l-4.879-13.778 111.61-3.843a81.251 81.251 0 0 1 2.117 12.308ZM311.168 305.621l-3.45-30.59 13.837-1.73 3.004 31.847Zm-18.27-85.46-9.187 12.667v-21.512Zm-41.234 9.976-4.36 3.168-4.421-3.211 3.926-59.031Zm-53.625-77.782 10.637.141v26.875L192.48 168.06Zm10.637 58.961v21.512l-9.184-12.672Zm86.676-56.117 4.554 12.86-16.195 11.312v-23.773ZM179.52 137.004l24.921-20.43v12.895c0 2.75.293 5.426.844 8.015l-25.965-.343c.067-.051.137-.086.2-.137Zm0 0" style="stroke:none;fill-rule:nonzero;fill:#000;fill-opacity:1"/></svg>