<svg height="511pt" viewBox="0 1 511.998 511" width="511pt" xmlns="http://www.w3.org/2000/svg"><g fill="#ff9801"><path d="M267 37.102 247.46 56.73l-36.608 36.606c-3.352 3.328-8.762 3.328-12.118 0L185.25 79.77a8.54 8.54 0 0 1 0-12.032l36.61-36.61 19.542-19.624c3.352-3.328 8.762-3.328 12.118 0L267 25.07a8.532 8.532 0 0 1 0 12.032zM258.469 382.02l-13.485 13.484c-3.351 3.328-8.761 3.328-12.117 0l-19.539-19.543-36.61-36.606c-3.327-3.355-3.327-8.765 0-12.117l13.485-13.484c3.352-3.328 8.762-3.328 12.117 0l36.606 36.61 19.543 19.538c3.328 3.356 3.328 8.766 0 12.118zM145.059 469.828h85.336c4.71 0 8.53 3.82 8.53 8.535v17.067c0 4.71-3.82 8.53-8.53 8.53h-85.336a8.532 8.532 0 0 1-8.532-8.53v-17.067a8.533 8.533 0 0 1 8.532-8.535zM307.191 401.563h17.07c4.712 0 8.532 3.82 8.532 8.53v85.337c0 4.71-3.82 8.53-8.531 8.53h-17.07a8.532 8.532 0 0 1-8.532-8.53v-85.336c0-4.711 3.82-8.531 8.531-8.531zm0 0"/></g><path d="M443.727 171.16v17.067a8.534 8.534 0 0 1-8.536 8.535H281.594a8.534 8.534 0 0 0-8.535 8.535c.02 2.914-.5 5.805-1.536 8.531a25.32 25.32 0 0 1-24.062 17.067h-85.336l-25.598 42.667-87.21 14.508c-8.63 1.45-16.958-3.855-19.286-12.289l-.683-2.644-14.934-54.785a17.068 17.068 0 0 1 16.469-21.59h89.09a16.942 16.942 0 0 0 13.14-6.145l37.547-45.054 51.2 17.066H435.19a8.533 8.533 0 0 1 8.536 8.531zm0 0" fill="#4e342e"/><path d="M429.902 162.629v10.836a8.533 8.533 0 0 1-8.53 8.535H267.77a8.533 8.533 0 0 0-8.536 8.531c.02 2.918-.5 5.809-1.535 8.535a25.33 25.33 0 0 1-24.062 17.067H148.3L122.703 258.8l-87.125 14.504a15.36 15.36 0 0 1-6.23-.168l-14.934-54.785a17.068 17.068 0 0 1 16.469-21.59h89.09a16.942 16.942 0 0 0 13.14-6.145l37.547-45.054 51.2 17.066zm0 0" fill="#795548"/><path d="M170.66 503.96H145.06a8.532 8.532 0 0 1-8.532-8.53v-17.067a8.533 8.533 0 0 1 8.532-8.535h25.601zM298.66 435.695v-25.601c0-4.711 3.82-8.531 8.531-8.531h17.07c4.712 0 8.532 3.82 8.532 8.53v25.602zM267.027 37.129l-19.566 19.566-25.602-25.601 19.567-19.567a8.54 8.54 0 0 1 12.066 0l13.535 13.536a8.532 8.532 0 0 1 0 12.066zM232.895 395.527l-19.567-19.566 25.598-25.598 19.566 19.567a8.532 8.532 0 0 1 0 12.066l-13.531 13.531a8.532 8.532 0 0 1-12.066 0zm0 0" fill="#fec108"/><path d="M503.46 179.695s-17.065 25.602-34.132 25.602a22.64 22.64 0 0 1-19.2-6.402 22.627 22.627 0 0 1-6.401-19.2c-1.008-7.05 1.367-14.164 6.402-19.199s12.148-7.406 19.2-6.402c17.066 0 34.132 25.601 34.132 25.601zm0 0" fill="#fdd834"/><path d="M34.125 299.16a8.524 8.524 0 0 1-8.223-6.289L.301 199.008a8.53 8.53 0 0 1 1.449-7.422 8.54 8.54 0 0 1 6.777-3.36H124l40.105-48.124a8.53 8.53 0 0 1 9.25-2.637l49.887 16.629h211.95c9.425 0 17.07 7.64 17.07 17.066v17.067c0 9.425-7.645 17.07-17.07 17.07H281.593c0 18.851-15.281 34.133-34.133 34.133h-80.504l-23.117 38.527a8.548 8.548 0 0 1-5.906 4.02L35.535 299.043a7.751 7.751 0 0 1-1.41.117zm-14.43-93.863 20.637 75.644 90.902-15.152 23.578-39.254a8.532 8.532 0 0 1 7.313-4.172h85.336c9.426 0 17.066-7.64 17.066-17.066s7.641-17.07 17.067-17.07H435.19V171.16H221.86a8.429 8.429 0 0 1-2.695-.433l-45.68-15.223-38.937 46.719a8.544 8.544 0 0 1-6.555 3.074zm0 0"/><path d="M179.191 273.563H145.06a8.533 8.533 0 0 1-8.532-8.536c0-4.71 3.82-8.53 8.532-8.53h34.132a8.534 8.534 0 0 0 8.536-8.536v-17.066c0-4.711 3.82-8.532 8.535-8.532 4.71 0 8.531 3.82 8.531 8.532v17.066c0 14.14-11.461 25.601-25.602 25.601zM170.66 154.094a24.872 24.872 0 0 1-18.324-7.278 24.887 24.887 0 0 1-7.277-18.32 8.534 8.534 0 1 1 17.066 0 7.81 7.81 0 0 0 8.535 8.531c4.711 0 8.531 3.82 8.531 8.536 0 4.71-3.82 8.53-8.53 8.53zM418.125 171.16a8.532 8.532 0 0 1-8.531-8.531v-17.066a8.533 8.533 0 1 1 17.066 0v17.066c0 4.71-3.82 8.531-8.535 8.531zM290.125 205.297h-59.73a8.536 8.536 0 0 1 0-17.07h59.73a8.536 8.536 0 0 1 0 17.07zM230.395 512.496H170.66a8.534 8.534 0 0 1-8.535-8.535v-34.133c0-4.71 3.82-8.531 8.535-8.531h59.735c9.425 0 17.066 7.64 17.066 17.066v17.067c0 9.425-7.64 17.066-17.066 17.066zM179.19 495.43h51.204v-17.067H179.19zm0 0"/><path d="M170.66 512.496H145.06c-9.426 0-17.067-7.64-17.067-17.066v-17.067c0-9.426 7.64-17.066 17.067-17.066h25.601c4.711 0 8.531 3.82 8.531 8.531v34.133a8.533 8.533 0 0 1-8.53 8.535zm-25.601-34.133v17.067h17.066v-17.067zM324.262 512.496h-17.07c-9.422 0-17.067-7.64-17.067-17.066v-59.735a8.534 8.534 0 0 1 8.535-8.535h34.133a8.534 8.534 0 0 1 8.535 8.535v59.735c0 9.425-7.64 17.066-17.066 17.066zm-17.07-68.27v51.204h17.07v-51.203zm0 0"/><path d="M332.793 444.227H298.66a8.533 8.533 0 0 1-8.535-8.532v-25.601c0-9.426 7.645-17.067 17.066-17.067h17.07c9.427 0 17.067 7.641 17.067 17.067v25.601c0 4.711-3.82 8.532-8.535 8.532zm-25.602-17.067h17.07v-17.066h-17.07zM204.793 104.348a17.025 17.025 0 0 1-12.066-4.985L179.19 85.828c-3.199-3.2-5-7.543-5-12.07 0-4.528 1.801-8.871 5-12.07l36.637-36.626a8.532 8.532 0 0 1 12.067 0l25.597 25.602a8.532 8.532 0 0 1 0 12.066L216.86 99.363a17.025 17.025 0 0 1-12.066 4.985zm17.066-61.188-30.601 30.602 13.535 13.535 30.602-30.602zm0 0"/><path d="M247.46 65.23a8.546 8.546 0 0 1-6.034-2.5L215.828 37.13a8.532 8.532 0 0 1 0-12.066l19.567-19.567c6.664-6.664 17.468-6.664 24.132 0l13.532 13.535c6.664 6.664 6.664 17.465 0 24.13l-19.567 19.57a8.537 8.537 0 0 1-6.031 2.5zm-13.534-34.136 13.535 13.535 13.543-13.543-13.543-13.524zM213.328 384.496a8.546 8.546 0 0 1-6.035-2.5L170.66 345.36c-6.664-6.664-6.664-17.464 0-24.129l13.535-13.535c6.664-6.664 17.465-6.664 24.13 0l36.636 36.633a8.54 8.54 0 0 1 0 12.067l-25.602 25.601a8.544 8.544 0 0 1-6.03 2.5zm-30.601-51.2 30.601 30.599 13.531-13.532-30.597-30.601zm0 0"/><path d="M238.926 406.555a17.016 17.016 0 0 1-12.067-4.993l-19.566-19.566a8.532 8.532 0 0 1 0-12.066l25.602-25.602a8.532 8.532 0 0 1 12.066 0l19.566 19.567c6.66 6.664 6.66 17.468 0 24.132l-13.535 13.535c-3.195 3.204-7.539 5-12.066 4.993zm-13.531-30.594 13.53 13.543 13.536-13.543-13.535-13.531zM443.727 188.227c-4.711 0-8.536-3.82-8.536-8.532-.972-9.316 2.309-18.578 8.934-25.203s15.883-9.906 25.203-8.93c21.024 0 39.25 26.395 41.23 29.399 2.618 3.918 1.563 9.219-2.359 11.84a8.54 8.54 0 0 1-11.84-2.36c-4.761-7.117-17.644-21.812-27.03-21.812-12.282 0-17.067 4.785-17.067 17.066 0 4.711-3.825 8.532-8.535 8.532zm0 0"/><path d="M469.328 213.828a31.073 31.073 0 0 1-34.137-34.133 8.536 8.536 0 0 1 17.07 0c0 12.282 4.786 17.067 17.067 17.067 9.445 0 22.29-14.688 27.031-21.801a8.525 8.525 0 0 1 7.653-3.781 8.52 8.52 0 0 1 7.097 4.734 8.532 8.532 0 0 1-.55 8.516c-1.98 3.004-20.207 29.398-41.23 29.398zM273.059 341.828a8.532 8.532 0 0 1-8.532-8.531V299.16c0-4.71 3.82-8.531 8.532-8.531a8.533 8.533 0 0 1 8.535 8.531v34.137c0 4.71-3.82 8.531-8.535 8.531zM238.926 316.227a8.532 8.532 0 0 1-8.531-8.532V290.63a8.533 8.533 0 1 1 17.066 0v17.066c0 4.711-3.82 8.532-8.535 8.532zM273.059 137.027a8.532 8.532 0 0 1-8.532-8.53 65.562 65.562 0 0 0-7.605-30.313 8.53 8.53 0 0 1 8.05-12.406 8.524 8.524 0 0 1 7.157 4.66 82.196 82.196 0 0 1 9.465 38.058 8.52 8.52 0 0 1-2.5 6.031 8.53 8.53 0 0 1-6.035 2.5zM307.191 137.027a8.532 8.532 0 0 1-8.53-8.53 102.018 102.018 0 0 0-16.095-55.138 8.537 8.537 0 1 1 14.387-9.195 119.044 119.044 0 0 1 18.774 64.332c0 4.711-3.82 8.531-8.536 8.531zm0 0"/></svg>