<svg height="512" width="512" xmlns="http://www.w3.org/2000/svg"><path d="M462.047 328.117c.261-1.005.414-2.054.414-3.141v-63.083c0-6.904-5.596-12.5-12.5-12.5s-12.5 5.596-12.5 12.5v43.035c-13.163-8.225-28.708-12.994-45.373-12.994h-27.18c-9.748 0-15.605-10.96-10.047-18.969 5.892-8.49 10.378-17.474 13.356-26.791 1.564-4.894 4.916-9.063 9.44-11.498 21.014-11.314 35.331-33.525 35.331-59.017v-2.175c0-12.463-4.599-23.87-12.184-32.623V76.25c0-6.904-5.596-12.5-12.5-12.5s-12.5 5.596-12.5 12.5v26.838c-4.782-20.873-14.943-40.402-29.737-56.326C322.886 21.811 290.058 7.5 256 7.5s-66.886 14.311-90.066 39.262c-17.645 18.992-28.731 43.105-31.916 68.52a20.043 20.043 0 0 1-9.908 14.923l-.093.055V89.758c0-6.904-5.596-12.5-12.5-12.5s-12.5 5.596-12.5 12.5v86.321c0 .032.005.063.005.095.191 25.275 14.45 47.266 35.323 58.503 4.524 2.436 7.876 6.604 9.44 11.498 2.977 9.317 7.464 18.301 13.355 26.79 5.557 8.009-.299 18.969-10.047 18.969h-27.181a85.33 85.33 0 0 0-45.943 13.359V192.614c0-6.904-5.596-12.5-12.5-12.5s-12.5 5.596-12.5 12.5V329.5c-9.352 13.738-14.824 30.329-14.824 48.201V504.5h443.711V377.702c-.001-18.481-5.866-35.582-15.809-49.585z" fill="#d3effb"/><path d="M256 299.658c-27.265 0-83.036-31.35-86.367-76.588l-6.319-85.806C159.346 83.393 201.983 37.5 256 37.5s96.654 45.893 92.687 99.764l-6.319 85.806c-3.332 45.238-59.103 76.588-86.368 76.588z" fill="#f4fbff"/><path d="M276.31 39.721c21.654 18.498 34.647 46.713 32.377 77.543l-6.319 85.806c-3.332 45.238-59.102 76.588-86.367 76.588-3.762 0-8.067-.597-12.702-1.745 17.886 13.746 38.93 21.745 52.702 21.745 27.265 0 83.036-31.35 86.367-76.588l6.319-85.806c3.454-46.905-28.422-87.76-72.377-97.543z" fill="#e4f6ff"/><path d="M346.013 212.635h-2.877l4.348-59.035h15.618c10.982 0 19.886 8.903 19.886 19.886v2.175c0 20.42-16.555 36.974-36.975 36.974zM165.987 212.635h2.877l-4.348-59.035h-15.619c-10.982 0-19.886 8.903-19.886 19.886v2.175c.001 20.42 16.555 36.974 36.976 36.974zM392.088 321.934H311.31a7.98 7.98 0 0 1-7.98-7.981v-32.145c-16.593 11.35-34.916 17.849-47.33 17.849s-30.738-6.499-47.33-17.85v32.145a7.98 7.98 0 0 1-7.98 7.981h-80.778c-30.799 0-55.767 24.968-55.767 55.767v126.8h383.711V377.701c0-30.799-24.968-55.767-55.768-55.767z" fill="#f4fbff"/><path d="M394.936 322.006a55.543 55.543 0 0 1 12.919 35.696v69.136c0 31.846-25.816 57.662-57.662 57.662H64.144v20h383.711V377.701c0-29.844-23.443-54.212-52.919-55.695z" fill="#e4f6ff"/><g fill="#d3effb"><path d="M449.961 127.735c6.904 0 12.5 5.596 12.5 12.5v71.659c0 6.904-5.596 12.5-12.5 12.5s-12.5-5.596-12.5-12.5v-71.659c0-6.904 5.597-12.5 12.5-12.5zM111.517 7.5c6.904 0 12.5 5.596 12.5 12.5v14.758c0 6.904-5.596 12.5-12.5 12.5s-12.5-5.596-12.5-12.5V20c0-6.904 5.596-12.5 12.5-12.5zM388.304 7.5c6.904 0 12.5 5.596 12.5 12.5v6.25c0 6.904-5.596 12.5-12.5 12.5s-12.5-5.596-12.5-12.5V20c0-6.904 5.596-12.5 12.5-12.5zM61.469 69.428c6.904 0 12.5 5.596 12.5 12.5v60.685c0 6.904-5.596 12.5-12.5 12.5s-12.5-5.596-12.5-12.5V81.928c0-6.903 5.596-12.5 12.5-12.5z"/></g><path d="M241.603 147.974h-43.084c-4.143 0-7.5 3.357-7.5 7.5s3.357 7.5 7.5 7.5h43.084c4.143 0 7.5-3.357 7.5-7.5s-3.358-7.5-7.5-7.5zM256 220.135c12.074 0 21.897-9.822 21.897-21.896v-28.367a6.904 6.904 0 0 1 6.897-6.897h28.687c4.143 0 7.5-3.357 7.5-7.5s-3.357-7.5-7.5-7.5h-28.687c-12.074 0-21.897 9.823-21.897 21.897v28.367a6.904 6.904 0 0 1-6.897 6.896c-4.143 0-7.5 3.357-7.5 7.5s3.357 7.5 7.5 7.5zM256.363 377.797c10.799 0 19.874-5.559 26.244-16.075 4.31-7.113 5.854-14.029 6.016-14.794a7.502 7.502 0 0 0-14.676-3.106c-.035.163-4.316 18.975-17.584 18.975s-17.549-18.812-17.584-18.975a7.5 7.5 0 0 0-14.676 3.106c.162.765 1.706 7.681 6.016 14.794 6.37 10.516 15.445 16.075 26.244 16.075zM429.961 140.234v71.659c0 11.028 8.972 20 20 20s20-8.972 20-20v-71.659c0-11.028-8.972-20-20-20s-20 8.972-20 20zm25 0v71.659c0 2.757-2.243 5-5 5s-5-2.243-5-5v-71.659c0-2.757 2.243-5 5-5s5 2.244 5 5zM91.517 20v14.758c0 11.028 8.972 20 20 20s20-8.972 20-20V20c0-11.028-8.972-20-20-20s-20 8.972-20 20zm25 0v14.758c0 2.757-2.243 5-5 5s-5-2.243-5-5V20c0-2.757 2.243-5 5-5s5 2.243 5 5zM368.304 20v6.25c0 11.028 8.972 20 20 20s20-8.972 20-20V20c0-11.028-8.972-20-20-20s-20 8.972-20 20zm25 0v6.25c0 2.757-2.243 5-5 5s-5-2.243-5-5V20c0-2.757 2.243-5 5-5s5 2.243 5 5zM41.469 81.929v60.685c0 11.028 8.972 20 20 20s20-8.972 20-20V81.929c0-11.028-8.972-20-20-20s-20 8.971-20 20zm25 0v60.685c0 2.757-2.243 5-5 5s-5-2.243-5-5V81.929c0-2.757 2.243-5 5-5s5 2.243 5 5z"/><path d="M469.961 261.894c0-11.028-8.972-20-20-20s-20 8.972-20 20v30.574a93.09 93.09 0 0 0-37.873-8.033h-27.18c-3.738 0-5.973-4.185-3.885-7.193 6.321-9.111 11.146-18.795 14.337-28.782.988-3.093 3.121-5.709 5.852-7.179 24.226-13.043 39.275-38.188 39.275-65.62v-2.175a57.327 57.327 0 0 0-12.184-35.31V76.25c0-11.028-8.972-20-20-20-7.936 0-14.806 4.645-18.035 11.358C346.703 24.611 301.911 0 256 0c-55.857 0-107.006 35.868-124.483 91.68v-1.922c0-11.028-8.972-20-20-20s-20 8.972-20 20v86.321c0 26.047 14.385 51.803 39.272 65.201 2.73 1.471 4.863 4.087 5.852 7.179 3.193 9.991 8.017 19.676 14.337 28.782 2.083 3.003-.143 7.193-3.886 7.193h-27.181a93.022 93.022 0 0 0-38.442 8.292V192.613c0-11.028-8.972-20-20-20s-20 8.972-20 20v134.628c-9.706 15.055-14.824 32.449-14.824 50.46v31.156c0 4.143 3.357 7.5 7.5 7.5s7.5-3.357 7.5-7.5v-31.156c0-15.776 4.677-30.984 13.524-43.98a7.5 7.5 0 0 0 1.3-4.221V192.613c0-2.757 2.243-5 5-5s5 2.243 5 5v112.68c0 5.908 6.538 9.499 11.524 6.329a77.984 77.984 0 0 1 41.918-12.188h27.181c15.784 0 25.214-17.767 16.209-30.745-5.471-7.883-9.633-16.226-12.372-24.796-2.19-6.857-6.817-12.477-13.028-15.82-19.191-10.332-31.215-30.24-31.379-51.899 0-.828-.005 9.908-.005-86.416 0-2.757 2.243-5 5-5s5 2.243 5 5v40.502c0 5.745 6.225 9.421 11.331 6.447 7.563-4.349 12.525-11.817 13.611-20.493C148.8 57.66 198.501 15 256 15c52.584 0 100.167 35.966 112.493 89.763.853 3.721 4.372 6.213 8.153 5.777a7.5 7.5 0 0 0 6.657-7.452V76.25c0-2.757 2.243-5 5-5s5 2.243 5 5v64.612c0 1.804.65 3.548 1.832 4.911a42.336 42.336 0 0 1 10.352 27.712v2.175c0 21.906-12.026 41.99-31.387 52.413-6.209 3.343-10.835 8.96-13.028 15.818-2.738 8.568-6.901 16.912-12.372 24.798-8.995 12.958.407 30.745 16.208 30.745h27.18a78.034 78.034 0 0 1 41.398 11.854c4.985 3.116 11.475-.474 11.475-6.36v-43.034c0-2.757 2.243-5 5-5s5 2.243 5 5c0 67.49.082 63.354-.172 64.335a7.494 7.494 0 0 0 1.143 6.231c9.437 13.288 14.424 28.933 14.424 45.242V497h-15v-59.152c0-4.143-3.357-7.5-7.5-7.5s-7.5 3.357-7.5 7.5V497h-52.079v-79.73c0-4.143-3.357-7.5-7.5-7.5s-7.5 3.357-7.5 7.5V497H263.5v-66.709c0-10.997 8.947-19.943 19.944-19.943h61.552c4.143 0 7.5-3.357 7.5-7.5s-3.357-7.5-7.5-7.5h-61.552c-11.118 0-21.04 5.219-27.444 13.336-6.404-8.117-16.326-13.336-27.443-13.336h-61.553c-4.143 0-7.5 3.357-7.5 7.5s3.357 7.5 7.5 7.5h61.553c10.997 0 19.943 8.946 19.943 19.943V497H138.724v-79.73c0-4.143-3.357-7.5-7.5-7.5s-7.5 3.357-7.5 7.5V497H71.645V377.701c0-26.614 21.652-48.267 48.267-48.267h80.778c8.536 0 15.48-6.944 15.48-15.48v-18.803c13.953 7.528 28.414 12.007 39.83 12.007 11.383 0 25.913-4.572 39.83-12.062v18.857c0 8.536 6.944 15.48 15.48 15.48h80.778c26.614 0 48.267 21.652 48.267 48.267v25.146c0 4.143 3.357 7.5 7.5 7.5s7.5-3.357 7.5-7.5V377.7c0-34.886-28.381-63.267-63.267-63.267H311.31a.48.48 0 0 1-.48-.48v-28.281a120.656 120.656 0 0 0 7.534-5.946 7.501 7.501 0 0 0-9.763-11.389c-5.073 4.349-9.375 7.178-9.71 7.425-15.842 10.792-32.685 16.395-42.89 16.395-14.803 0-35.063-10.266-47.622-19.803-10.917-8.29-29.494-25.788-31.266-49.837-7.931-107.68 3.251 44.147-6.319-85.806C167.163 87.415 206.019 45 256 45c49.431 0 88.877 41.867 85.207 91.713-9.834 133.518 4.781-64.9-6.319 85.806-.509 6.911-2.469 13.814-5.824 20.52a7.499 7.499 0 0 0 3.351 10.063 7.497 7.497 0 0 0 10.063-3.351c4.236-8.465 6.716-17.257 7.369-26.131l.271-3.674c22.607-2.078 40.37-21.146 40.37-44.286v-2.175c0-15.101-12.285-27.386-27.386-27.386h-7.546l.61-8.285C360.45 79.655 314.315 30 256 30c-58.317 0-104.45 49.657-100.166 107.814l.61 8.285h-7.547c-15.1 0-27.385 12.285-27.385 27.386v2.175c0 23.14 17.763 42.208 40.37 44.286l.271 3.674c1.875 25.46 18.473 47.053 39.017 62.069v28.265a.48.48 0 0 1-.48.48h-80.778c-34.886 0-63.267 28.381-63.267 63.267V497h-15v-53.143c0-4.143-3.357-7.5-7.5-7.5s-7.5 3.357-7.5 7.5V504.5c0 4.143 3.357 7.5 7.5 7.5h443.711c4.143 0 7.5-3.357 7.5-7.5V377.702c0-18.404-5.329-36.1-15.442-51.374.069-.986.047 3.198.047-64.434zM363.102 161.1c6.829 0 12.386 5.557 12.386 12.386v2.175c0 14.468-10.479 26.535-24.245 29.01l3.209-43.57h8.65zm-226.589 14.56v-2.175c0-6.829 5.556-12.386 12.385-12.386h8.651l3.209 43.57c-13.767-2.474-24.245-14.541-24.245-29.009z"/></svg>