<svg xmlns="http://www.w3.org/2000/svg" viewBox="0 0 512 512" style="enable-background:new 0 0 512 512" xml:space="preserve"><path style="fill:#ec5569" d="m327.088 141.084-15.014-15.014c-31.198-31.188-81.768-31.188-112.966 0-15.594 15.604-23.391 36.036-23.391 56.488 0 20.432 7.797 40.884 23.391 56.478l8.797 8.797 121.513 121.512c4.208 4.198 11.016 4.198 15.224 0l100.051-100.071 30.518-30.518c31.188-31.198 31.188-81.768 0-112.966-31.198-31.188-81.768-31.188-112.966 0l-17.623 17.623c-4.198 4.198-11.006 4.198-15.214 0l-2.319-2.319"/><path style="fill:#e63950" d="M319.911 173.461a115.458 115.458 0 0 1-22.861 37.006c-10.186 11.106-22.521 20.222-36.356 26.67-14.804 6.907-31.318 10.766-48.741 10.766-1.359 0-2.699-.02-4.048-.07l-8.797-8.797c-15.594-15.594-23.391-36.046-23.391-56.478 0-20.452 7.797-40.884 23.391-56.488 31.198-31.188 81.768-31.188 112.966 0l15.014 15.014v.01a114.905 114.905 0 0 1-7.177 32.367z"/><path style="fill:#e63950" d="m237.895 247.832-8.797-8.797c-15.594-15.594-23.391-36.046-23.391-56.478 0-20.452 7.797-40.884 23.391-56.488 11.766-11.762 26.289-19.083 41.488-21.972-25.1-4.773-52.047 2.548-71.478 21.972-15.594 15.604-23.391 36.036-23.391 56.488 0 20.432 7.797 40.884 23.391 56.478l8.797 8.797 121.513 121.512c4.208 4.198 11.016 4.198 15.224 0l7.382-7.384-114.129-114.128z"/><path style="fill:#cc2e43" d="m235.542 245.479-6.443-6.443c-15.594-15.594-23.391-36.046-23.391-56.478 0-20.452 7.797-40.884 23.391-56.488 11.766-11.762 26.289-19.083 41.488-21.972l-.004-.001a80.361 80.361 0 0 0-2.918-.493 85.857 85.857 0 0 0-4.113-.523c-.349-.035-.699-.06-1.049-.09a80.479 80.479 0 0 0-2.351-.169c-.387-.022-.773-.046-1.16-.063a81.258 81.258 0 0 0-2.962-.071c-.381-.002-.761.003-1.142.006-.819.007-1.637.026-2.456.059-.312.012-.623.019-.935.035-.996.051-1.99.126-2.984.214a82.736 82.736 0 0 0-4.16.471c-.281.04-.561.088-.842.131-.854.13-1.705.274-2.556.432-.319.059-.638.115-.956.178a79.362 79.362 0 0 0-3.044.666c-.315.075-.628.156-.943.235-.92.231-1.836.477-2.748.742-.177.052-.356.097-.533.15a79.486 79.486 0 0 0-3.093.998 79.627 79.627 0 0 0-3.929 1.457c-.204.082-.406.171-.61.255-.903.372-1.799.762-2.691 1.169-.226.103-.453.203-.678.308a80.868 80.868 0 0 0-2.983 1.474c-.24.125-.479.254-.719.381a82.192 82.192 0 0 0-2.88 1.605c-.062.036-.125.07-.187.107a82.105 82.105 0 0 0-2.955 1.846c-.222.145-.444.289-.665.436a79.549 79.549 0 0 0-2.843 1.981c-.153.112-.304.229-.457.342a78.99 78.99 0 0 0-2.544 1.97c-.158.127-.318.251-.475.38a80.497 80.497 0 0 0-2.685 2.304c-.191.172-.381.346-.571.52a81.145 81.145 0 0 0-2.664 2.532 80.56 80.56 0 0 0-10.233 12.533 79.397 79.397 0 0 0-11.696 28.695 80.28 80.28 0 0 0 0 30.512 79.482 79.482 0 0 0 19.096 38.248 80.861 80.861 0 0 0 2.833 2.98l8.797 8.797a116.297 116.297 0 0 0 27.643-2.358z"/><path style="fill:#b5d3e3" d="m29.206 249.074 59.592-123 33.871-111.179L9.213 249.074c-5.538 10.676-.63 23.801 10.546 28.229l.01.01c2.489.97 5.008 1.429 7.467 1.429 3.542 0 6.977-.947 9.996-2.65-9.36-5.278-13.127-17.183-8.026-27.018z"/><path d="M396.652 483.535c-44.306 7.804-103.638 8.889-176.349 3.225-40.404-3.149-68.507-13.563-81.268-30.115-5.494-7.127-8.119-15.343-7.862-24.492 9.249 1.228 18.253 1.835 26.827 1.835 28.9 0 52.954-6.81 65.4-19.328 7.734-7.778 10.84-17.503 8.983-28.124-4.189-23.97-17.836-37.75-37.442-37.809h-.124c-15.2 0-32.778 8.345-48.248 22.91-13.351 12.57-23.136 28-27.627 43.267C65.843 404.029 9.957 370.143 18.193 307.425a7.497 7.497 0 0 0-14.866-1.954c-4.485 34.157 7.085 64.406 33.461 87.477 19.93 17.434 47.959 30.337 79.505 36.716-.825 13.373 2.861 25.748 10.868 36.134 15.642 20.29 46.588 32.372 91.978 35.91 30.881 2.405 59.424 3.607 85.522 3.607 36.415 0 68.061-2.34 94.593-7.013a7.497 7.497 0 0 0 6.083-8.684c-.72-4.078-4.61-6.804-8.685-6.083zM194.804 363.72h.092c12.135.036 19.778 8.581 22.716 25.396 1.011 5.778-.575 10.675-4.846 14.97-12.462 12.534-44.159 17.722-78.855 13.303 8.577-25.261 36.649-53.669 60.893-53.669zM499.32 346.568c-9.257-22.491-23.78-47.783-44.306-77.163l26.058-26.062c16.116-16.121 25.198-37.547 25.574-60.332.375-22.73-7.939-44.391-23.411-60.993a7.497 7.497 0 0 0-10.97 10.222c12.813 13.75 19.699 31.693 19.388 50.522-.312 18.876-7.836 36.626-21.185 49.979l-24.277 24.281c-4-5.513-7.791-10.619-10.956-14.845l6.375-10.8a7.497 7.497 0 0 0-12.914-7.62l-3.235 5.484a6323.676 6323.676 0 0 0-3.842-5.048c-1.44-1.89-2.838-3.728-4.21-5.534l6.736-11.412a7.496 7.496 0 0 0-2.644-10.267 7.496 7.496 0 0 0-10.267 2.644l-3.567 6.041c-4.333-5.904-8.264-11.503-10.938-15.961a7.495 7.495 0 0 0-10.285-2.573 7.496 7.496 0 0 0-2.573 10.285c3.114 5.193 7.623 11.58 12.506 18.204l-8.115 2.829a7.496 7.496 0 0 0-4.611 9.547 7.5 7.5 0 0 0 7.079 5.031c.819 0 1.651-.135 2.468-.42l12.63-4.402c1.26 1.657 2.546 3.347 3.862 5.074 1.552 2.038 3.145 4.129 4.763 6.259l-8.728 3.042a7.499 7.499 0 0 0 2.467 14.578c.819 0 1.651-.135 2.468-.42l13.279-4.628c3.358 4.491 7.351 9.885 11.514 15.651l-95.55 95.564a3.283 3.283 0 0 1-4.627.006l-109.36-109.359a121.253 121.253 0 0 0 31.706-7.832 70.55 70.55 0 0 1 3.189 9.183 7.5 7.5 0 0 0 7.233 5.545 7.499 7.499 0 0 0 7.242-9.453 85.576 85.576 0 0 0-4.054-11.639 122.2 122.2 0 0 0 26.629-19.552 71.017 71.017 0 0 1 5.412 6.26 7.489 7.489 0 0 0 5.956 2.937 7.497 7.497 0 0 0 5.944-12.058 85.858 85.858 0 0 0-7.155-8.204 122.124 122.124 0 0 0 16.421-26.482 77.188 77.188 0 0 1 9.114 5.376 7.454 7.454 0 0 0 4.231 1.313 7.496 7.496 0 0 0 4.246-13.681 91.895 91.895 0 0 0-12.215-7.071 122.203 122.203 0 0 0 3.815-15.719 18.36 18.36 0 0 0 3.945.445c4.674 0 9.349-1.778 12.904-5.334l17.622-17.622c21.644-21.637 54.735-27.331 82.345-14.17a7.497 7.497 0 0 0 6.451-13.535c-33.328-15.888-73.272-9.015-99.398 17.101l-17.623 17.623a3.268 3.268 0 0 1-4.611 0l-2.228-2.227c-.032-.033-.059-.069-.092-.102l-15.015-15.015c-34.067-34.057-89.498-34.057-123.569.003-16.499 16.51-25.585 38.452-25.585 61.788 0 23.339 9.086 45.279 25.587 61.779L324.68 373.943c3.559 3.55 8.23 5.325 12.905 5.325 4.676 0 9.354-1.777 12.916-5.331l93.747-93.761c29.908 43.023 64.191 101.783 49.18 145.048-8.154 23.499-30.942 40.876-67.732 51.647a7.497 7.497 0 0 0 4.213 14.39c41.713-12.212 67.848-32.777 77.684-61.122 7.93-22.853 5.147-50.969-8.273-83.571zM183.774 181.846c0-19.331 7.528-37.51 21.194-51.186 28.223-28.213 74.144-28.213 102.364-.001l12.528 12.528a107.546 107.546 0 0 1-4.095 20.146 86.03 86.03 0 0 0-14.801-2.744 7.49 7.49 0 0 0-8.179 6.747 7.498 7.498 0 0 0 6.747 8.179c3.671.352 7.279.989 10.802 1.888a107.231 107.231 0 0 1-13.846 22.137 79.571 79.571 0 0 0-13.139-7.272 7.495 7.495 0 0 0-9.867 3.878 7.496 7.496 0 0 0 3.878 9.867 64.916 64.916 0 0 1 8.762 4.65 107.211 107.211 0 0 1-22.118 15.958 79.362 79.362 0 0 0-8.625-10.589 7.498 7.498 0 0 0-10.764 10.438 64.384 64.384 0 0 1 5.514 6.492c-11.986 4.469-24.602 6.731-37.616 6.731-.306 0-.586-.005-.881-.007l-6.663-6.663c-13.667-13.668-21.195-31.843-21.195-51.177zM17.249 283.437c.118.053.238.104.359.151 3.307 1.288 6.734 1.94 10.188 1.94 12.353 0 23.34-8.284 26.744-20.152L130.4 16.368a7.496 7.496 0 0 0-13.918-5.453L3.067 245.01a27.847 27.847 0 0 0-1.312 22.432 27.845 27.845 0 0 0 15.494 15.995zm-.822-31.622.092-.184 71.482-147.542-47.825 156.984-.041.138c-1.558 5.49-6.632 9.324-12.34 9.324-1.51 0-3.033-.281-4.527-.835a7.476 7.476 0 0 0-.188-.078c-3.411-1.351-5.996-3.988-7.28-7.427-1.284-3.438-1.061-7.124.627-10.38z"/></svg>