<svg xmlns="http://www.w3.org/2000/svg" style="enable-background:new 0 0 512 512" xml:space="preserve" width="512" height="512"><path style="fill:#ffb954" d="M159.163 437.545 134 482H82.5l35-61.833zM276.837 437.545 302 482h51.5l-35-61.833z"/><circle style="fill:#ff5d5d" cx="218" cy="238" r="208"/><circle style="fill:#fff" cx="218" cy="238" r="144"/><circle style="fill:#fe8f8d" cx="218" cy="238" r="80"/><path style="fill:#ffb954" d="M403.926 196.074 362 238l41.926 41.927H502L460.074 238 502 196.074z"/><path d="M312.887 143.383c1.953 1.953 4.512 2.929 7.071 2.929s5.119-.976 7.071-2.929c3.905-3.905 3.905-10.237 0-14.143l-.135-.135c-3.905-3.905-10.237-3.905-14.143 0-3.905 3.905-3.905 10.237 0 14.143l.136.135z"/><path d="m474.216 238 34.855-34.855a10 10 0 0 0-7.072-17.071h-72.251c-9.444-38.66-29.265-73.887-57.6-102.223C330.975 42.676 276.23 20 218 20S105.025 42.676 63.851 83.851C22.676 125.026 0 179.77 0 238s22.676 112.975 63.851 154.149a219.563 219.563 0 0 0 40.074 31.7l-30.127 53.225A9.999 9.999 0 0 0 82.5 492H134a10 10 0 0 0 8.703-5.074l21.302-37.635C181.44 453.714 199.544 456 218 456s36.56-2.286 53.995-6.709l21.302 37.635A10 10 0 0 0 302 492h51.5a10 10 0 0 0 8.703-14.925l-30.127-53.225a219.606 219.606 0 0 0 40.074-31.7c28.324-28.324 48.155-63.566 57.598-102.223H502a10.002 10.002 0 0 0 7.072-17.071L474.216 238zm-18.285-10h-69.789l21.926-21.926h69.79L455.931 228zM128.169 472H99.651l21.766-38.453a215.009 215.009 0 0 0 22.985 9.775L128.169 472zm208.18 0h-28.518l-16.233-28.678a215.009 215.009 0 0 0 22.985-9.775L336.349 472zm21.658-93.993c-13.21 13.21-27.964 24.312-43.846 33.162-.196.095-.394.185-.587.294-.121.069-.231.148-.348.221a195.415 195.415 0 0 1-38.342 16.057 9.903 9.903 0 0 0-1.553.45C255.577 433.329 236.995 436 218 436c-18.995 0-37.577-2.671-55.331-7.808a9.926 9.926 0 0 0-1.555-.45 195.398 195.398 0 0 1-38.34-16.057c-.117-.073-.227-.152-.348-.221-.193-.109-.39-.199-.586-.294-15.882-8.85-30.636-19.952-43.846-33.163C40.596 340.61 20 290.888 20 238S40.596 135.39 77.993 97.993C115.39 60.596 165.112 40 218 40s102.61 20.596 140.007 57.993c24.573 24.573 42.099 54.844 51.098 88.081h-5.178a10.001 10.001 0 0 0-7.071 2.929l-26.541 26.541c-2.678-18.181-8.556-35.859-17.432-51.936-2.669-4.835-8.753-6.589-13.588-3.921-4.835 2.669-6.59 8.753-3.921 13.588 9.493 17.194 14.796 35.888 16.153 54.726h-44.092c-2.226-20.256-11.177-39.021-25.795-53.639-16.999-17-39.6-26.362-63.64-26.362s-46.641 9.362-63.639 26.36C137.362 191.36 128 213.96 128 238s9.362 46.641 26.36 63.639C171.359 318.638 193.96 328 218 328s46.641-9.362 63.639-26.36c14.618-14.618 23.569-33.383 25.795-53.64h44.049c-2.385 31.26-15.576 61.596-38.731 84.752C287.443 358.062 253.792 372 218 372s-69.443-13.938-94.752-39.248C97.938 307.443 84 273.793 84 238s13.938-69.443 39.248-94.752c41.982-41.982 107.562-51.284 159.478-22.621 4.834 2.668 10.918.914 13.588-3.921 2.669-4.835.914-10.918-3.921-13.588C263.748 87.303 230.019 81 197.422 85.374c-33.685 4.518-64.225 19.64-88.316 43.732C80.019 158.193 64 196.865 64 238s16.019 79.808 45.105 108.894C138.192 375.981 176.865 392 218 392s79.808-16.019 108.894-45.105c23.635-23.634 38.629-53.475 43.456-86.402l26.505 26.505a10.001 10.001 0 0 0 7.071 2.929h5.176c-8.999 33.235-26.532 63.517-51.095 88.08zM250.66 219.144c-2.761-4.784-8.877-6.422-13.66-3.66l-24 13.856a9.999 9.999 0 0 0 0 17.32l24 13.856a9.995 9.995 0 0 0 13.66-3.66c1.623-2.81 1.716-6.077.555-8.856h36.072c-2.119 14.903-8.956 28.664-19.79 39.497C254.276 300.719 236.698 308 218 308s-36.276-7.281-49.498-20.503C155.281 274.276 148 256.698 148 238s7.281-36.276 20.503-49.498C181.724 175.281 199.302 168 218 168s36.276 7.281 49.498 20.503c10.833 10.833 17.671 24.594 19.79 39.497h-36.072c1.16-2.78 1.067-6.046-.556-8.856zm157.408 50.782L386.142 248h69.789l21.927 21.926h-69.79z"/></svg>