<svg xmlns="http://www.w3.org/2000/svg" viewBox="0 0 512 512" style="enable-background:new 0 0 512 512" xml:space="preserve"><path style="fill:#f57c00" d="M441.878 391.533a335.797 335.797 0 0 0-16.043 32.341c-9.899 21.589-20.565 43.861-39.936 59.136a96.317 96.317 0 0 1-62.123 19.456h-1.024c-4.267 0-8.363-.256-12.203-.597-72.875-6.827-81.749-69.973-105.899-110.336-19.627-32.683-68.096-68.267-59.563-110.933a42.117 42.117 0 0 1 9.301-19.627.46.46 0 0 1 .256-.341c1.365-1.963 2.731-3.925 4.181-5.632v-.085l.085-.085a231.333 231.333 0 0 0 6.571-20.139 147.012 147.012 0 0 0 4.181-47.957c-5.12-61.269 2.048-85.845 8.533-95.744 4.437-6.656 8.533-6.656 8.533-6.656 20.395 13.568 94.805 16.384 124.331 16.896a5.551 5.551 0 0 1 1.195 0c4.864.171 8.363.171 9.984.171h1.024c9.472-.085 81.323-.683 118.443-10.411a60.151 60.151 0 0 0 17.067-6.656s25.6 0 17.067 102.4a141.641 141.641 0 0 0 4.267 47.445A159.379 159.379 0 0 0 486.677 255l-.171.256a43.219 43.219 0 0 1 14.933 25.344c8.535 42.667-39.934 78.251-59.561 110.933z" transform="translate(1 1)"/><path style="fill:#ff9801" d="M416.278 391.533a335.797 335.797 0 0 0-16.043 32.341c-9.899 21.589-20.565 43.861-39.936 59.136a90.632 90.632 0 0 1-49.749 18.859c-72.875-6.827-81.749-69.973-105.899-110.336-19.627-32.683-68.096-68.267-59.563-110.933a42.117 42.117 0 0 1 9.301-19.627.46.46 0 0 1 .256-.341c1.365-1.963 2.731-3.925 4.181-5.632v-.085l.085-.085a231.333 231.333 0 0 0 6.571-20.139 147.012 147.012 0 0 0 4.181-47.957c-5.12-61.269 2.048-85.845 8.533-95.744 37.12 9.728 108.971 10.325 118.443 10.411h1.024c1.963 0 6.741 0 13.397-.171a5.551 5.551 0 0 1 1.195 0c31.573-.768 101.291-3.755 120.917-16.896 0 0 4.096 0 8.533 6.656 6.485 9.899 13.653 34.475 8.533 95.744a141.641 141.641 0 0 0 4.267 47.445A159.379 159.379 0 0 0 461.076 255l-.171.256a43.219 43.219 0 0 1 14.933 25.344c8.536 42.667-39.933 78.251-59.56 110.933z" transform="translate(1 1)"/><path style="fill:#e57e25" d="M281.545 184.839a92.211 92.211 0 0 1 7.586 18.961 172.208 172.208 0 0 0-85.333 0 92.686 92.686 0 0 1 7.552-18.961c16.444-31.608 53.734-31.608 70.195 0z" transform="translate(1 1)"/><path style="fill:#d84315" d="M442.731 203.8a154.767 154.767 0 0 0-26.965-4.523l-15.701-.853c-4.267 0-8.533.171-12.8.512a171.61 171.61 0 0 0-29.867 4.864c.377-1.53.832-3.04 1.365-4.523a96.272 96.272 0 0 1 6.144-14.421 43.23 43.23 0 0 1 22.357-21.248c16.981-6.741 36.949.341 47.872 21.248a91.507 91.507 0 0 1 7.595 18.944z" transform="translate(1 1)"/><path style="fill:#e57e25" d="M205.505 237.933a8.533 8.533 0 0 1-8.533 8.533c-27.307 0-37.547 9.216-37.547 9.216a43.725 43.725 0 0 0-4.779 4.949c1.365-1.963 4.181-5.717 4.181-5.717l.085-.085a115.376 115.376 0 0 1 16.964-17.809 32.419 32.419 0 0 1 20.753-7.62h.341a8.534 8.534 0 0 1 8.535 8.533z" transform="translate(1 1)"/><path style="fill:#d84315" d="M388.886 399.384a98.486 98.486 0 0 0-15.104-5.205 215.298 215.298 0 0 0-50.517-6.827s-5.035 0-12.8.597a171.206 171.206 0 0 0-52.821 11.435 4.123 4.123 0 0 1-.939.341l5.291-8.875 32.085-54.187a75.776 75.776 0 0 1 16.811-4.011 82.091 82.091 0 0 1 12.373-.853c47.189 0 67.499 31.829 76.117 54.699 2.901 7.937-3.669 15.958-10.496 12.886z" transform="translate(1 1)"/><path style="fill:#ff5722" d="M417.131 203.8a171.595 171.595 0 0 0-29.867-4.864 160.605 160.605 0 0 0-12.8-.512 138.183 138.183 0 0 0-15.701.853 96.272 96.272 0 0 1 6.144-14.421 43.23 43.23 0 0 1 22.357-21.248 43.084 43.084 0 0 1 22.272 21.248 96.712 96.712 0 0 1 6.229 14.421 89.36 89.36 0 0 1 1.366 4.523zM373.782 394.179a7.776 7.776 0 0 1-10.496 5.206 171.242 171.242 0 0 0-52.821-11.435c-7.765-.597-12.8-.597-12.8-.597a221.726 221.726 0 0 0-35.669 3.499l32.085-54.187a75.776 75.776 0 0 1 16.811-4.011c29.507 4.507 53.892 25.385 62.891 53.845.94 2.473.94 5.206-.001 7.68z" transform="translate(1 1)"/><path style="fill:#fdd834" d="M305.345 314.733a335.797 335.797 0 0 0-16.043 32.341c-9.899 21.589-20.565 43.861-39.936 59.136a96.317 96.317 0 0 1-62.123 19.456h-1.024c-4.267 0-8.363-.256-12.203-.597-72.875-6.827-81.749-69.973-105.899-110.336C48.491 282.051.022 246.467 8.555 203.8a42.117 42.117 0 0 1 9.301-19.627.46.46 0 0 1 .256-.341c1.365-1.963 2.731-3.925 4.181-5.632v-.085l.085-.085a231.333 231.333 0 0 0 6.571-20.139 147.012 147.012 0 0 0 4.181-47.957c-5.12-61.269 2.048-85.845 8.533-95.744 4.437-6.656 8.533-6.656 8.533-6.656 20.395 13.568 94.805 16.384 124.331 16.896a5.551 5.551 0 0 1 1.195 0c4.864.171 8.363.171 9.984.171h1.024c9.472-.085 81.323-.683 118.443-10.411a60.151 60.151 0 0 0 17.067-6.656s25.6 0 17.067 102.4a141.641 141.641 0 0 0 4.267 47.445 159.379 159.379 0 0 0 6.571 20.821l-.171.256a43.219 43.219 0 0 1 14.933 25.344c8.534 42.667-39.936 78.251-59.562 110.933z" transform="translate(1 1)"/><path style="fill:#ffeb3a" d="M279.745 314.733a335.797 335.797 0 0 0-16.043 32.341c-9.899 21.589-20.565 43.861-39.936 59.136a90.632 90.632 0 0 1-49.749 18.859c-72.875-6.827-81.749-69.973-105.899-110.336C48.491 282.051.022 246.467 8.555 203.8a42.117 42.117 0 0 1 9.301-19.627.46.46 0 0 1 .256-.341c1.365-1.963 2.731-3.925 4.181-5.632v-.085l.085-.085a231.333 231.333 0 0 0 6.571-20.139 147.012 147.012 0 0 0 4.181-47.957c-5.12-61.269 2.048-85.845 8.533-95.744 37.12 9.728 108.971 10.325 118.443 10.411h1.024c1.963 0 6.741 0 13.397-.171a5.551 5.551 0 0 1 1.195 0c31.573-.768 101.291-3.755 120.917-16.896 0 0 4.096 0 8.533 6.656 6.485 9.899 13.653 34.475 8.533 95.744a141.641 141.641 0 0 0 4.267 47.445 159.379 159.379 0 0 0 6.571 20.821l-.171.256a43.219 43.219 0 0 1 14.933 25.344c8.536 42.667-39.934 78.251-59.56 110.933z" transform="translate(1 1)"/><path style="fill:#ffb301" d="M152.598 127a154.767 154.767 0 0 0-26.965-4.523l-15.701-.853c-4.267 0-8.533.171-12.8.512A171.61 171.61 0 0 0 67.265 127a91.446 91.446 0 0 1 1.365-4.523 96.816 96.816 0 0 1 6.229-14.421 43.084 43.084 0 0 1 22.272-21.248c17.067-6.741 37.035.341 47.872 21.248A91.563 91.563 0 0 1 152.598 127zM306.198 127a154.767 154.767 0 0 0-26.965-4.523l-15.701-.853c-4.267 0-8.533.171-12.8.512A171.61 171.61 0 0 0 220.865 127a91.446 91.446 0 0 1 1.365-4.523 96.816 96.816 0 0 1 6.229-14.421 43.084 43.084 0 0 1 22.272-21.248c17.067-6.741 37.035.341 47.872 21.248A91.563 91.563 0 0 1 306.198 127zM272.065 237.933S263.532 357.4 186.732 357.4a67.95 67.95 0 0 1-12.8-1.195c46.08-8.789 63.317-64.683 69.376-96.341a72.94 72.94 0 0 0 28.757-21.931z" transform="translate(1 1)"/><path style="fill:#fec108" d="M126.998 127a171.595 171.595 0 0 0-29.867-4.864 160.605 160.605 0 0 0-12.8-.512 138.183 138.183 0 0 0-15.701.853 96.816 96.816 0 0 1 6.229-14.421 43.084 43.084 0 0 1 22.272-21.248 43.084 43.084 0 0 1 22.272 21.248 96.712 96.712 0 0 1 6.229 14.421 90.4 90.4 0 0 1 1.366 4.523zM280.598 127a171.595 171.595 0 0 0-29.867-4.864 160.605 160.605 0 0 0-12.8-.512 138.183 138.183 0 0 0-15.701.853 96.816 96.816 0 0 1 6.229-14.421 43.084 43.084 0 0 1 22.272-21.248 43.084 43.084 0 0 1 22.272 21.248 96.712 96.712 0 0 1 6.229 14.421 90.4 90.4 0 0 1 1.366 4.523zM243.307 259.864c-6.059 31.659-23.296 87.552-69.376 96.341-46.08-8.789-63.317-64.683-69.376-96.341a191.172 191.172 0 0 1-3.157-21.931c18.176 24.235 53.504 31.232 72.533 33.28 7.765.853 12.8.853 12.8.853a154.067 154.067 0 0 0 56.576-12.202z" transform="translate(1 1)"/><path style="fill:#e57e25" d="m16.065 186.733 1.792-2.56a.46.46 0 0 1 .256-.341" transform="translate(1 1)"/><path d="M15.358 176.23a51.94 51.94 0 0 0-14.165 26.863c-6.827 34.074 17.331 62.857 38.647 88.252a243.235 243.235 0 0 1 21.956 28.74 296.018 296.018 0 0 1 14.285 28.612c17.493 38.332 39.27 85.99 111.138 86.502h1.075a134.693 134.693 0 0 0 27.46-2.85c16.998 36.838 40.107 79.215 107.998 79.65h1.084c71.808-.512 93.585-48.171 111.078-86.468a296.73 296.73 0 0 1 14.276-28.604 243.702 243.702 0 0 1 21.965-28.749c21.333-25.395 45.466-54.178 38.656-88.235a52.174 52.174 0 0 0-15.684-28.561 144.86 144.86 0 0 1-9.788-62.942c4.617-55.364.247-90.735-12.988-105.122a17.682 17.682 0 0 0-12.578-6.519 8.583 8.583 0 0 0-4.736 1.434c-11.494 7.68-51.328 13.346-104.96 15.113 2.253-44.902-2.5-74.095-14.217-86.827A17.673 17.673 0 0 0 323.265 0a8.525 8.525 0 0 0-4.727 1.434c-17.135 11.418-87.706 15.633-131.302 15.633S73.06 12.851 55.934 1.434A8.583 8.583 0 0 0 51.198 0 17.682 17.682 0 0 0 38.62 6.519C25.385 20.907 21.016 56.32 25.598 111.642a144.126 144.126 0 0 1-10.24 64.469v.119zm444.501-81.186c3.985 4.582 14.199 23.356 8.474 91.998a154.509 154.509 0 0 0 4.617 50.773 113.615 113.615 0 0 0-37.581-7.415 8.533 8.533 0 0 0 0 17.066c.521 0 51.695.41 58.701 35.84 5.214 26.044-15.223 50.389-34.987 73.933a255.237 255.237 0 0 0-23.526 30.942 307.592 307.592 0 0 0-15.164 30.293c-17.877 39.083-34.756 76.032-95.616 76.459h-.973c-56.32-.358-75.563-33.22-91.537-67.558a91.07 91.07 0 0 0 23.381-13.466c2.313-1.818 4.446-3.772 6.537-5.751a186.307 186.307 0 0 1 62.08-11.273 186.147 186.147 0 0 1 62.123 11.281 15.669 15.669 0 0 0 17.357-2.944 19.133 19.133 0 0 0 4.617-20.727c-14.626-38.844-44.493-60.228-84.096-60.228-4.456.02-8.905.331-13.321.93.913-1.707 1.758-3.482 2.714-5.069a243.702 243.702 0 0 1 21.965-28.749c19.849-23.654 42.129-50.244 39.603-81.297a162.94 162.94 0 0 1 66.398 2.987 8.531 8.531 0 0 0 10.351-10.47 99.97 99.97 0 0 0-8.243-20.668 48.64 48.64 0 0 0-42.667-28.331 47.53 47.53 0 0 0-39.902 23.757c-.853-.93-1.707-1.929-2.611-2.79a143.586 143.586 0 0 1-9.711-62.908c0-.401.051-.777.085-1.178 40.814-1.254 89.249-5.043 110.932-15.437zm-161.8 256.589 1.579-3.456c.555-1.212 1.101-2.33 1.647-3.524a77.83 77.83 0 0 1 22.98-3.319c41.003 0 59.682 26.743 68.096 49.092.23.56.254 1.182.068 1.758a201.91 201.91 0 0 0-68.164-12.365 230.75 230.75 0 0 0-43.204 4.796 287.558 287.558 0 0 0 16.998-32.982zm73.847-158.336 1.707-3.524a29.329 29.329 0 0 1 55.023.068 80.415 80.415 0 0 1 1.707 3.413 179.446 179.446 0 0 0-58.437.043zM42.665 110.225c-5.726-68.676 4.506-87.424 8.482-91.989C82.66 33.22 171.364 34.133 186.571 34.133h1.323c15.198 0 103.945-.913 135.45-15.898 3.977 4.565 14.217 23.313 8.491 91.989a153.601 153.601 0 0 0 4.574 50.79 113.589 113.589 0 0 0-37.572-7.415 8.533 8.533 0 0 0 0 17.066c.521 0 51.695.41 58.701 35.84 5.214 26.044-15.223 50.347-34.987 73.933a255.97 255.97 0 0 0-23.526 30.933 244.54 244.54 0 0 0-11.529 22.519c-.077.162-.154.307-.222.469-1.041 2.261-2.133 4.514-3.157 6.758l-1.57 3.413c-8.465 18.466-19.004 41.438-37.495 56.021a88.594 88.594 0 0 1-56.806 17.579h-.964c-60.919-.427-77.798-37.376-95.676-76.493a308.513 308.513 0 0 0-15.164-30.302 255.884 255.884 0 0 0-23.535-30.933c-19.755-23.552-40.192-47.889-34.987-73.95 6.98-35.209 58.377-35.789 58.88-35.789a8.533 8.533 0 0 0 0-17.066 113.989 113.989 0 0 0-38.861 7.893 153.624 153.624 0 0 0 4.726-51.265z"/><path d="M70.372 136.269a162.807 162.807 0 0 1 81.118 0 8.534 8.534 0 0 0 10.359-10.428 100.708 100.708 0 0 0-8.252-20.745 48.745 48.745 0 0 0-42.667-28.297 48.767 48.767 0 0 0-42.667 28.297 100.708 100.708 0 0 0-8.235 20.745 8.534 8.534 0 0 0 10.359 10.428h-.015zm13.014-23.288a31.677 31.677 0 0 1 27.546-19.115 31.677 31.677 0 0 1 27.546 19.115 71.36 71.36 0 0 1 1.707 3.499 178.457 178.457 0 0 0-58.573 0 196.591 196.591 0 0 1 1.774-3.499zM223.972 136.269a162.807 162.807 0 0 1 81.118 0 8.534 8.534 0 0 0 10.359-10.428 100.708 100.708 0 0 0-8.252-20.745 48.745 48.745 0 0 0-42.667-28.297 48.767 48.767 0 0 0-42.667 28.297 100.708 100.708 0 0 0-8.235 20.745 8.534 8.534 0 0 0 10.359 10.428h-.015zm13.014-23.288a31.677 31.677 0 0 1 27.546-19.115 31.677 31.677 0 0 1 27.546 19.115 71.36 71.36 0 0 1 1.707 3.499 178.457 178.457 0 0 0-58.573 0 196.591 196.591 0 0 1 1.774-3.499zM276.051 230.938a8.532 8.532 0 0 0-9.813 2.876c-22.69 30.259-77.961 30.72-78.507 30.72s-55.825-.461-78.507-30.72a8.533 8.533 0 0 0-15.36 5.726c.393 5.205 10.086 127.394 93.867 127.394s93.474-122.189 93.867-127.394a8.532 8.532 0 0 0-5.547-8.602zm-88.32 118.929c-48.265 0-66.688-55.748-73.335-88.431a150.551 150.551 0 0 0 73.335 20.164 150.495 150.495 0 0 0 73.387-20.181c-6.639 32.674-25.011 88.448-73.387 88.448zM158.274 203.844a8.534 8.534 0 0 0 11.469-3.712 23.237 23.237 0 0 1 17.988-12.399 23.222 23.222 0 0 1 17.963 12.348 8.537 8.537 0 1 0 15.274-7.628 40.109 40.109 0 0 0-33.237-21.786 40.105 40.105 0 0 0-33.237 21.786 8.532 8.532 0 0 0 3.78 11.391zM435.027 281.6c11.733.555 24.875 4.855 25.6 8.38 1.988 9.958-15.855 31.223-27.665 45.286a8.534 8.534 0 0 0 13.073 10.973c17.169-20.48 34.927-41.609 31.326-59.597-4.207-21.163-41.617-22.11-41.993-22.11a8.535 8.535 0 0 0-8.704 8.363 8.535 8.535 0 0 0 8.363 8.705zM298.562 205.38c11.725.555 24.866 4.855 25.6 8.38 1.997 9.958-15.855 31.215-27.665 45.286a8.534 8.534 0 0 0 13.073 10.973c17.178-20.48 34.927-41.609 31.334-59.597-4.19-21.154-41.6-22.101-41.975-22.101a8.535 8.535 0 1 0-.333 17.067l-.034-.008zM76.798 188.322c-.375 0-37.786.947-41.967 22.084-3.601 18.005 14.157 39.159 31.326 59.614a8.535 8.535 0 0 0 13.073-10.974c-11.819-14.071-29.653-35.328-27.665-45.303.7-3.507 13.841-7.808 25.233-8.354a8.533 8.533 0 0 0 0-17.067z"/></svg>