<svg xmlns="http://www.w3.org/2000/svg" viewBox="0 0 512 512" style="enable-background:new 0 0 512 512" xml:space="preserve"><path style="fill:#fff2e9" d="m355.563 333.965 90.806 28.538-141.855 141.854-34.135-103.306-46.873 103.306-13.4-80.362"/><path style="fill:#f7cb92" d="M355.563 333.965c4.851 19.789-6.196 40.007-25.476 46.61l-31.192 10.7-41.76 14.317-70.313 27.514 24.457-41.271v-93.241h-33.628V196.509l44.878-22.042 5.564-2.731 71.841-6.461 64.188-5.768-13.665 153.598 5.106 20.86z"/><path style="fill:#e2b27f" d="m350.458 313.106 13.665-153.598-64.188 5.768-24.008 9.192H222.53l-44.878 22.042v51.328h75.464c19.313 0 36.101 13.262 40.564 32.051 9.932 41.813 15.899 86.377 5.215 111.387l31.192-10.7c19.28-6.603 30.326-26.821 25.476-46.61l-5.105-20.86z"/><path style="fill:#efb078" d="m319.799 171.737-148.765 7.642v-28.133l2.461-26.112 4.084-43.519 6.964-73.972h138.102l4.457 47.43"/><path style="fill:#dd9f6c" d="m322.645 7.643 11.849 126.108-84.327 30.105 9.394-156.213z"/><path style="fill:#ef6e4b" d="M447.53 95.544c0 3.444-.408 6.787-1.182 9.986l-63.964 13.207-125.085 25.832a42.098 42.098 0 0 1-10.914-28.359c0-23.397 18.964-42.361 42.361-42.361 5.87 0 11.454 1.192 16.539 3.353a42.446 42.446 0 0 1 21.817-22.123l.662-.296a42.099 42.099 0 0 1 16.488-3.332c12.412 0 23.56 5.33 31.315 13.828 7.632-7.48 18.077-12.086 29.613-12.086 23.386 0 42.35 18.964 42.35 42.351z"/><path style="fill:#ba7052" d="M394.694 249.682c0 15.825-12.83 28.655-28.655 28.655-1.437 0-2.843-.112-4.219-.316.367.897.693 1.824.958 2.772a28.103 28.103 0 0 1 1.151 8.02c0 15.825-12.83 28.655-28.665 28.655-15.825 0-28.655-12.829-28.655-28.655 0-7.52 2.894-14.358 7.633-19.463-10.608-4.209-18.108-14.542-18.108-26.648a28.56 28.56 0 0 1 4.677-15.693c-7.887-5.105-13.115-13.971-13.115-24.069 0-2.211.255-4.361.734-6.43h97.225a28.516 28.516 0 0 1 5.982 17.517 28.53 28.53 0 0 1-4.83 15.917c4.881 5.145 7.887 12.085 7.887 19.738z"/><path style="fill:#a35d45" d="M394.694 249.682c0 15.825-12.83 28.655-28.655 28.655-1.437 0-2.843-.112-4.219-.316.367.897.693 1.824.958 2.772-7.378-3.088-13.624-6.593-17.619-10.537-18.77-18.556 2.038-34.647 2.038-34.647-19.361-19.361-8.152-39.1-8.152-39.1h46.61a28.516 28.516 0 0 1 5.982 17.517 28.53 28.53 0 0 1-4.83 15.917c4.881 5.146 7.887 12.086 7.887 19.739z"/><path style="fill:#db5b3e" d="M447.53 95.544c0 3.444-.408 6.787-1.182 9.986l-63.964 13.207c-8.825-3.628-14.124-8.366-14.124-14.491 0-36.593-41.158-49.168-41.158-49.168l.662-.296a42.099 42.099 0 0 1 16.488-3.332c12.412 0 23.56 5.33 31.315 13.828 7.632-7.48 18.077-12.086 29.613-12.086 23.386.001 42.35 18.965 42.35 42.352z"/><path style="fill:#efb078" d="M277.203 127.748a59.107 59.107 0 0 1-47.177 23.5H75.611c-24.996 0-45.258 20.262-45.258 45.258H435.52c25.476 0 46.128-20.653 46.128-46.128 0-25.476-20.653-46.128-46.128-46.128H324.38a59.097 59.097 0 0 0-47.177 23.498z"/><path style="fill:#dd9f6c" d="M435.519 104.248h-67.256c25.476 0 46.128 20.653 46.128 46.128 0 25.476-20.653 46.128-46.128 46.128h67.256c25.476 0 46.128-20.653 46.128-46.128.001-25.475-20.651-46.128-46.128-46.128z"/><path style="fill:#a35d45" d="m211.28 391.836 45.856 13.756-70.313 27.514z"/><path style="fill:#efd873" d="M160.904 81.614h53.961v43.517h-53.961z"/><path d="M454.932 100.247c.146-1.56.24-3.128.24-4.706 0-27.565-22.426-49.99-49.99-49.99-10.668 0-20.854 3.334-29.337 9.503-8.868-7.213-20.041-11.245-31.591-11.245-3.557 0-7.044.391-10.43 1.111l-3.57-37.992A7.643 7.643 0 0 0 322.645 0H184.543c-3.944 0-7.239 3-7.609 6.926l-6.312 67.05h-9.717a7.643 7.643 0 0 0-7.643 7.643v43.517a7.643 7.643 0 0 0 7.643 7.643h4.193l-1.02 10.825H75.611c-29.17 0-52.901 23.731-52.901 52.901a7.643 7.643 0 0 0 7.643 7.643h61.706a7.643 7.643 0 0 0 0-15.286H38.775c3.541-17.089 18.712-29.973 36.835-29.973h154.416c20.819 0 40.736-9.921 53.277-26.538 9.67-12.812 25.025-20.461 41.076-20.461h111.14c21.221 0 38.486 17.264 38.486 38.486s-17.264 38.486-38.486 38.486H117.535a7.643 7.643 0 0 0 0 15.286h317.984c29.65 0 53.771-24.121 53.771-53.771 0-22.806-14.278-42.328-34.358-50.13zM168.548 89.262h38.676v28.232h-38.676V89.262zm10.883 54.342 1.02-10.825h34.416a7.643 7.643 0 0 0 7.643-7.643V81.619a7.643 7.643 0 0 0-7.643-7.643h-28.891l5.525-58.691h124.187l3.323 35.367a49.888 49.888 0 0 0-17.499 17.2 49.9 49.9 0 0 0-12.764-1.646c-27.571 0-50.002 22.431-50.002 50.002a49.86 49.86 0 0 0 6.699 24.99 51.152 51.152 0 0 1-15.417 2.405h-50.597v.001zm144.948-46.998c-20.819 0-40.736 9.921-53.277 26.538-3.345 4.433-7.384 8.231-11.885 11.324a34.593 34.593 0 0 1-5.188-18.259c0-19.142 15.574-34.716 34.716-34.716 4.7 0 9.259.924 13.55 2.746a7.642 7.642 0 0 0 10.018-4.039 34.666 34.666 0 0 1 31.939-21.105c9.74 0 19.094 4.13 25.666 11.331a7.643 7.643 0 0 0 10.992.31c6.523-6.384 15.143-9.901 24.27-9.901 19.136 0 34.705 15.569 34.705 34.705 0 .42-.022.837-.037 1.254a54.419 54.419 0 0 0-4.331-.19l-111.138.002zM177.652 208.419a7.643 7.643 0 0 0-7.643 7.643v7.87l-16.517 2.951a7.643 7.643 0 0 0 2.689 15.048l13.829-2.47v59.135a7.643 7.643 0 0 0 7.643 7.643h25.985v3.76a7.643 7.643 0 0 0 15.286 0v-11.403a7.643 7.643 0 0 0-7.643-7.643h-25.985v-74.89a7.645 7.645 0 0 0-7.644-7.644zM332.564 387.805c23.176-7.937 36.254-31.866 30.422-55.66a7.644 7.644 0 0 0-14.846 3.639c3.935 16.057-4.89 32.204-20.532 37.561l-70.629 24.22-38.057-11.417v-22.143a7.643 7.643 0 0 0-15.286 0v25.735l-23.389 39.469a7.643 7.643 0 0 0 9.36 11.012l142.957-52.416zm-117.757 13.068 18.914 5.674-29.001 11.349 10.087-17.023zM248.146 241.928a7.646 7.646 0 0 0 8.867-6.181 7.644 7.644 0 0 0-6.18-8.868l-42.797-7.643a7.644 7.644 0 0 0-2.688 15.048l42.798 7.644zM308.289 225.428a7.644 7.644 0 0 0-3.324-4.835 21.24 21.24 0 0 1-6.982-7.449 7.643 7.643 0 0 0-13.348 7.449 36.536 36.536 0 0 0 6.518 8.457 36.225 36.225 0 0 0-2.661 13.653c0 11.753 5.543 22.442 14.664 29.17a36.191 36.191 0 0 0-4.188 16.941c0 20.015 16.283 36.298 36.298 36.298 20.02 0 36.308-16.283 36.308-36.298 0-1.084-.048-2.161-.143-3.232 17.468-2.612 30.907-17.715 30.907-35.898a36.137 36.137 0 0 0-6.359-20.521 36.054 36.054 0 0 0 2.502-7.538 7.642 7.642 0 1 0-14.948-3.194 20.85 20.85 0 0 1-3.078 7.266 7.644 7.644 0 0 0 .808 9.509 20.96 20.96 0 0 1 5.789 14.479c0 11.586-9.426 21.012-21.012 21.012-1.012 0-2.053-.078-3.097-.233a7.641 7.641 0 0 0-8.201 10.438 20.911 20.911 0 0 1 1.547 7.913c0 11.586-9.43 21.012-21.022 21.012-11.586 0-21.012-9.426-21.012-21.012 0-5.314 1.986-10.38 5.591-14.264a7.645 7.645 0 0 0-2.783-12.304c-8.07-3.202-13.284-10.873-13.284-19.543 0-4.102 1.186-8.08 3.429-11.507a7.666 7.666 0 0 0 1.081-5.769z"/><path d="M204.296 345.521a7.64 7.64 0 0 0 6.974 4.533h.012a7.651 7.651 0 0 0 6.976-4.522c4.132-9.218 10.617-16.106 13.654-16.106 9.32 0 13.851 4.857 20.471 12.781 5.632 6.741 12.92 15.466 25.478 15.466 3.211 0 6.768-.571 10.727-1.891a7.644 7.644 0 0 0-4.833-14.501c-9.197 3.065-12.473-.293-19.642-8.874-6.44-7.708-15.261-18.265-32.201-18.265-8.781 0-15.818 6.61-20.633 13.153-4.815-6.542-11.852-13.153-20.634-13.153-16.941 0-25.761 10.557-32.201 18.265-7.168 8.58-10.442 11.94-19.642 8.874a7.643 7.643 0 1 0-4.833 14.501c19.445 6.483 29.133-5.109 36.205-13.574 6.621-7.924 11.15-12.781 20.471-12.781 3.684-.002 10.248 8.501 13.651 16.094zM260.051 423.814a7.642 7.642 0 0 0-10.118 3.802l-23.017 50.728-5.2-31.185a7.642 7.642 0 1 0-15.077 2.513l9.327 55.942a7.642 7.642 0 0 0 7.543 6.386 7.645 7.645 0 0 0 6.957-4.485l33.387-73.584a7.642 7.642 0 0 0-3.802-10.117zM367.598 430.465l-59.719 59.719-20.352-61.594a7.644 7.644 0 0 0-14.513 4.795l24.244 73.37a7.64 7.64 0 0 0 12.661 3.006l68.489-68.489a7.642 7.642 0 0 0 0-10.808 7.645 7.645 0 0 0-10.81.001zM448.66 355.212 383.073 334.6a7.644 7.644 0 0 0-4.583 14.582l53.559 16.832-44.581 44.581a7.642 7.642 0 0 0 0 10.808 7.615 7.615 0 0 0 5.404 2.239 7.615 7.615 0 0 0 5.404-2.239l53.497-53.496a7.644 7.644 0 0 0-3.113-12.695z"/></svg>