<svg height="512" width="512" xmlns="http://www.w3.org/2000/svg"><g fill="#e7a52e"><path d="m176.132 427.833-51.788-24.857-18.591 75.517a20.985 20.985 0 0 0 11.297 23.936c10.449 5.015 22.985.61 28-9.838zM335.868 427.833l51.788-24.857 18.591 75.517a20.985 20.985 0 0 1-11.297 23.936c-10.449 5.015-22.985.61-28-9.838z"/></g><circle cx="256" cy="261" fill="#f1d333" r="204.754"/><path d="M264.976 465.55c-2.98.14-5.97.2-8.98.2-113.08 0-204.75-91.67-204.75-204.75s91.67-204.75 204.75-204.75c3.01 0 6 .06 8.98.2-108.91 4.69-195.77 94.48-195.77 204.55s86.86 199.86 195.77 204.55z" fill="#e7a52e"/><circle cx="256" cy="261" fill="#e4f6ff" r="156.36"/><path d="M334.697 182.303c-5.857-5.858-15.355-5.858-21.213 0L256 239.787l-38.51-38.51c-5.857-5.858-15.355-5.858-21.213 0s-5.858 15.355 0 21.213l49.116 49.116A14.95 14.95 0 0 0 256 276c.96 0 1.919-.092 2.865-.275a14.931 14.931 0 0 0 7.742-4.119l68.09-68.091c5.858-5.857 5.858-15.354 0-21.212z" fill="#b97ab7"/><circle cx="256" cy="261" fill="#f1d333" r="31.439"/><path d="M265.981 290.82a31.343 31.343 0 0 1-9.98 1.62c-17.36 0-31.44-14.08-31.44-31.44s14.08-31.44 31.44-31.44c3.49 0 6.85.57 9.98 1.62-12.47 4.17-21.45 15.95-21.45 29.82s8.98 25.65 21.45 29.82z" fill="#e7a52e"/><path d="M165.882 34.674c-36.232-36.232-94.976-36.232-131.208 0s-36.232 94.976 0 131.208z" fill="#f1d333"/><path d="M68.114 132.442v.01l-33.44 33.43c-36.23-36.23-36.23-94.97 0-131.21-17.77 17.77-2.8 61.54 33.44 97.77z" fill="#e7a52e"/><path d="M346.118 34.674c36.232-36.232 94.976-36.232 131.208 0s36.232 94.976 0 131.208z" fill="#f1d333"/><path d="M379.558 68.114h-.01l-33.43-33.44c36.23-36.23 94.97-36.23 131.21 0-17.77-17.77-61.54-2.8-97.77 33.44z" fill="#e7a52e"/><g fill="#454545"><circle cx="256" cy="141.335" r="16.347"/><circle cx="256" cy="380.665" r="16.347"/></g><g fill="#454545"><circle cx="375.665" cy="261" r="16.347"/><circle cx="136.335" cy="261" r="16.347"/></g><path d="M340.003 176.997c-8.767-8.766-23.042-8.769-31.827.001l-45.618 45.627c-2.134-.364-4.323-.563-6.559-.563s-4.425.2-6.559.564l-26.647-26.648a22.356 22.356 0 0 0-15.912-6.592c-6.013 0-11.663 2.343-15.905 6.592-8.772 8.771-8.772 23.044 0 31.816l26.648 26.648a38.964 38.964 0 0 0-.564 6.559c0 21.471 17.468 38.939 38.939 38.939s38.939-17.468 38.939-38.939c0-2.233-.199-4.419-.562-6.551l45.631-45.631c8.758-8.773 8.758-23.046-.004-31.822zm-138.42 40.19c-2.923-2.923-2.923-7.68.004-10.608a7.43 7.43 0 0 1 5.294-2.194 7.46 7.46 0 0 1 5.306 2.198l22.105 22.106a39.266 39.266 0 0 0-10.604 10.604zM256 284.939c-13.2 0-23.939-10.739-23.939-23.939S242.8 237.061 256 237.061 279.939 247.8 279.939 261 269.2 284.939 256 284.939zm73.397-86.722-41.082 41.082a39.246 39.246 0 0 0-10.608-10.61l41.072-41.081c2.932-2.926 7.695-2.927 10.613-.009 2.924 2.928 2.924 7.694.005 10.618z"/><path d="M351.537 385.009a7.5 7.5 0 0 0 10.572.854C398.811 354.647 419.86 309.137 419.86 261c0-90.353-73.507-163.86-163.86-163.86S92.14 170.647 92.14 261 165.647 424.86 256 424.86c28.179 0 55.972-7.275 80.375-21.037a7.5 7.5 0 0 0-7.369-13.065C306.847 403.254 281.602 409.86 256 409.86c-82.082 0-148.86-66.778-148.86-148.86S173.918 112.14 256 112.14 404.86 178.918 404.86 261c0 43.73-19.124 85.076-52.469 113.437a7.5 7.5 0 0 0-.854 10.572z"/><path d="m487.738 34.868 7.065-7.065c2.929-2.929 2.929-7.677 0-10.606s-7.678-2.929-10.606 0l-7.065 7.065C458.945 8.564 435.992 0 411.722 0c-26.785 0-51.967 10.431-70.907 29.371a7.5 7.5 0 0 0 0 10.606l60.304 60.303-3.114 3.112C360.366 69.446 310.557 48.75 256 48.75c-53.549 0-103.841 20.108-142.095 54.549l-3.021-3.021 60.301-60.301a7.5 7.5 0 0 0 0-10.606C152.245 10.431 127.063 0 100.278 0c-24.27 0-47.223 8.564-65.41 24.262l-7.065-7.065a7.5 7.5 0 0 0-10.606 0 7.5 7.5 0 0 0 0 10.606l7.065 7.065C8.564 53.055 0 76.008 0 100.278c0 26.785 10.431 51.967 29.371 70.907 1.464 1.465 3.384 2.197 5.303 2.197s3.839-.732 5.303-2.197l60.301-60.301 2.84 2.84a212.153 212.153 0 0 0-41.804 62.601 7.5 7.5 0 1 0 13.753 5.989C106.43 110.289 177.451 63.75 256 63.75c108.764 0 197.25 88.486 197.25 197.25S364.764 458.25 256 458.25 58.75 369.764 58.75 261c0-17.474 2.289-34.82 6.801-51.557a7.5 7.5 0 1 0-14.483-3.905c-4.856 18.01-7.319 36.671-7.319 55.463 0 61.995 26.72 117.863 69.245 156.703l-14.528 58.998c-3.199 13.025 3.251 26.69 15.35 32.496 3.892 1.86 8.028 2.803 12.293 2.803 10.899 0 20.988-6.345 25.702-16.165l19.343-40.302c26 11.384 54.695 17.717 84.846 17.717s58.846-6.333 84.846-17.717l19.343 40.303c4.713 9.82 14.802 16.164 25.701 16.164 4.265 0 8.401-.943 12.305-2.808 12.087-5.801 18.538-19.465 15.337-32.495l-14.527-58.993C441.53 378.863 468.25 322.995 468.25 261c0-57.094-22.667-108.987-59.465-147.175l2.94-2.938 60.298 60.298c1.464 1.465 3.384 2.197 5.303 2.197s3.839-.732 5.303-2.197c18.94-18.94 29.371-44.122 29.371-70.907 0-24.27-8.564-47.223-24.262-65.41zM34.905 155.044C6.821 121.574 8.513 71.441 39.977 39.977 56.084 23.87 77.5 15 100.278 15c20.261 0 39.441 7.017 54.769 19.903zm103.384 334.3c-2.232 4.651-7.013 7.656-12.179 7.656-2.009 0-3.97-.45-5.815-1.332-5.723-2.747-8.777-9.219-7.263-15.385l12.753-51.789a212.876 212.876 0 0 0 31.85 20.539zm260.677-9.065c1.516 6.171-1.538 12.643-7.25 15.384a13.424 13.424 0 0 1-5.827 1.337c-5.166 0-9.946-3.005-12.178-7.655l-19.347-40.311a212.825 212.825 0 0 0 31.85-20.539zm78.129-325.235L356.953 34.903C372.281 22.017 391.461 15 411.722 15c22.778 0 44.194 8.87 60.301 24.977 31.464 31.464 33.156 81.597 5.072 115.067z"/><path d="M279.848 141.335c0-13.149-10.698-23.847-23.848-23.847s-23.848 10.698-23.848 23.847S242.85 165.182 256 165.182s23.848-10.698 23.848-23.847zm-32.696 0c0-4.878 3.969-8.847 8.848-8.847s8.848 3.969 8.848 8.847-3.969 8.847-8.848 8.847-8.848-3.969-8.848-8.847zM232.152 380.665c0 13.149 10.698 23.847 23.848 23.847s23.848-10.698 23.848-23.847-10.699-23.847-23.848-23.847-23.848 10.698-23.848 23.847zm32.696 0c0 4.878-3.969 8.847-8.848 8.847s-8.848-3.969-8.848-8.847 3.969-8.847 8.848-8.847 8.848 3.969 8.848 8.847zM375.666 284.847c13.149 0 23.847-10.698 23.847-23.847s-10.698-23.847-23.847-23.847-23.848 10.698-23.848 23.847 10.698 23.847 23.848 23.847zm0-32.694c4.878 0 8.847 3.969 8.847 8.847s-3.969 8.847-8.847 8.847-8.848-3.969-8.848-8.847 3.969-8.847 8.848-8.847zM136.334 237.153c-13.149 0-23.847 10.698-23.847 23.847s10.698 23.847 23.847 23.847 23.848-10.698 23.848-23.847-10.698-23.847-23.848-23.847zm0 32.694c-4.878 0-8.847-3.969-8.847-8.847s3.969-8.847 8.847-8.847 8.848 3.969 8.848 8.847-3.969 8.847-8.848 8.847z"/><circle cx="196.2" cy="157.51" r="7.5"/><circle cx="152.37" cy="201.169" r="7.5"/><circle cx="152.37" cy="320.83" r="7.5"/><circle cx="196.2" cy="364.63" r="7.5"/><circle cx="315.83" cy="364.63" r="7.5"/><circle cx="359.63" cy="320.83" r="7.5"/><circle cx="315.83" cy="157.51" r="7.5"/><circle cx="359.63" cy="201.169" r="7.5"/></svg>