<svg height="512" viewBox="0 0 511.999 511.999" width="512" xmlns="http://www.w3.org/2000/svg"><path d="M438.713 376.025c0-29.248-20.172-54.633-48.664-61.239l-24.596-5.703c-10.053-2.331-18.568-8.814-23.79-17.715a61.417 61.417 0 0 0-26.217-24.186c16.261-3.952 33.496-1.506 48.108 6.563l12.883 7.114s20.529-58.592 21.447-62.961a54.343 54.343 0 0 0-16.341-51.117l-21.817-20.119c-6.688-6.168-10.826-14.537-12.024-23.556a92.6 92.6 0 0 0-5.799-22.184l3.658-8.353a94.916 94.916 0 0 0-3.748-83.759 2.526 2.526 0 0 0-3.998-.573l-43.13 43.004c-11.814-5.446-24.935-8.465-38.687-8.465s-26.872 3.019-38.687 8.465l-43.13-43.004a2.526 2.526 0 0 0-3.998.573 94.916 94.916 0 0 0-3.748 83.759l3.658 8.353a92.6 92.6 0 0 0-5.799 22.184c-1.198 9.018-5.336 17.388-12.024 23.556l-21.816 20.119a54.34 54.34 0 0 0-16.341 51.117c.918 4.369 21.447 62.961 21.447 62.961l12.883-7.114c14.612-8.069 31.847-10.515 48.108-6.563a61.417 61.417 0 0 0-26.217 24.186c-5.222 8.901-13.737 15.384-23.79 17.715l-24.616 5.708c-28.48 6.604-48.644 31.977-48.644 61.213a68.927 68.927 0 0 0 21.86 50.356l.131.122a48.576 48.576 0 0 0-21.991 40.655v37.362h365.428v-37.362a48.576 48.576 0 0 0-21.991-40.655l.121-.113a68.873 68.873 0 0 0 21.871-50.344z" fill="#a298a5"/><path d="M305.562 72.569c-2.196 5.014-2.601 10.653-1.018 15.893a92.86 92.86 0 0 1 3.159 14.644c1.197 9.018 5.336 17.388 12.024 23.556l21.817 20.12a54.343 54.343 0 0 1 16.341 51.117c-.629 2.994-10.466 31.445-16.596 49.062-2.53 7.271-10.995 10.507-17.734 6.785a67.616 67.616 0 0 0-4.869-2.438c-12.31-5.555-24.215 8.029-17.283 19.62l.261.441c5.221 8.901 13.737 15.384 23.79 17.715l17.282 4.007a38.752 38.752 0 0 1-1.072-1.722 61.417 61.417 0 0 0-26.217-24.186c16.261-3.952 33.497-1.506 48.108 6.563l12.883 7.114s20.529-58.592 21.447-62.961a54.343 54.343 0 0 0-16.341-51.117l-21.817-20.12c-6.688-6.167-10.826-14.537-12.024-23.556a92.6 92.6 0 0 0-5.799-22.184l3.658-8.353a94.916 94.916 0 0 0-3.748-83.759 2.527 2.527 0 0 0-3.998-.573L313.51 32.472a94.875 94.875 0 0 1-7.948 40.097zM438.713 376.025c0-29.248-20.172-54.633-48.664-61.24l-8.552-1.983c10.762 11.372 17.216 26.679 17.216 43.222 0 6.565-2.602 14.585-6.016 22.28-7.457 16.809-7.278 36.154 1.111 52.517 2.852 5.562 4.905 11.306 4.905 16.315 0 20.634-16.727 37.362-37.362 37.362H73.286v20h365.428v-37.362a48.576 48.576 0 0 0-21.991-40.655l.121-.113a68.875 68.875 0 0 0 21.869-50.343z" fill="#8b818e"/><path d="M256.286 200.024a19.459 19.459 0 0 1-18.834-14.569l-1.191-4.589c-1.275-4.912 2.433-9.706 7.508-9.706h25.035c5.075 0 8.783 4.793 7.508 9.706l-1.191 4.589a19.46 19.46 0 0 1-18.835 14.569z" fill="#dd636e"/><path d="M291.59 288.221a7.5 7.5 0 0 0-10.121-11.071c-14.402 13.167-36.513 13.19-50.939 0a7.5 7.5 0 0 0-10.121 11.071c20.127 18.402 51.019 18.434 71.181 0zM242.605 414.98c3.727 2.937 6.283 4.702 9.074 6.669a7.502 7.502 0 0 0 8.641 0l2.383-1.68a154.754 154.754 0 0 0 45.741-50.608l10.75 24.288c2.53 5.716 10.455 5.946 13.419.599l2.416-4.361c10.053-18.142 16.435-37.776 18.97-58.359a7.498 7.498 0 0 0-6.526-8.36c-4.097-.516-7.854 2.415-8.36 6.526-1.875 15.217-6.068 29.863-12.493 43.67l-10.931-24.695a7.5 7.5 0 0 0-13.746.068 139.763 139.763 0 0 1-45.942 57.582 143.165 143.165 0 0 1-4.111-3.119 7.5 7.5 0 0 0-9.285 11.78zM203.169 344.204a7.501 7.501 0 0 0-6.858 4.464l-10.739 24.264c-6.013-13.793-10.077-28.31-12.123-43.333-.56-4.104-4.351-6.987-8.443-6.42a7.501 7.501 0 0 0-6.42 8.443 178.386 178.386 0 0 0 20.801 62.626c2.997 5.407 10.913 5.06 13.419-.599l10.751-24.29a154.87 154.87 0 0 0 12.059 18.265 7.5 7.5 0 1 0 11.903-9.129 139.864 139.864 0 0 1-17.46-29.759 7.504 7.504 0 0 0-6.89-4.532zM388.356 322.093c8.177 1.896 15.631 5.515 22.155 10.756a7.5 7.5 0 1 0 9.395-11.693c-8.296-6.665-17.771-11.267-28.162-13.676l-24.596-5.702c-7.857-1.822-14.789-7-19.016-14.204a68.75 68.75 0 0 0-11.335-14.481c8.011.785 15.879 3.213 23.132 7.219l12.883 7.114c3.572 1.977 8.113.721 10.137-2.845.403-.705.614-1.375.567-1.24 4.854-13.854 20.764-59.402 21.709-63.9 4.452-21.198-2.674-43.488-18.597-58.172l-21.817-20.12c-5.251-4.843-8.687-11.601-9.673-19.029a100.443 100.443 0 0 0-5.133-20.998l2.427-5.542c12.664-28.92 11.152-62.706-4.044-90.378-3.182-5.796-11.104-7.024-15.868-2.274l-39.537 39.423c-23.169-9.249-49.861-9.623-73.967 0L179.479 2.927c-4.719-4.707-12.66-3.573-15.869 2.272-15.195 27.674-16.707 61.46-4.043 90.378l2.427 5.543a100.303 100.303 0 0 0-5.133 21 7.5 7.5 0 0 0 6.448 8.421c4.094.542 7.876-2.342 8.421-6.448 2.257-17.009 9.543-32.948 21.257-45.872a7.5 7.5 0 0 0-11.114-10.074 99.988 99.988 0 0 0-11.132 14.828c-7.205-21.01-6.117-44.312 3.024-64.562l38.251 38.14a7.503 7.503 0 0 0 8.436 1.5c22.503-10.374 48.559-10.389 71.094 0a7.5 7.5 0 0 0 8.436-1.501l38.25-38.14c9.142 20.25 10.23 43.552 3.025 64.563a99.928 99.928 0 0 0-11.132-14.829 7.501 7.501 0 0 0-11.114 10.074c11.63 12.832 18.98 28.746 21.257 45.872 1.446 10.895 6.551 20.868 14.373 28.082l21.817 20.12c12.061 11.122 17.458 28.005 14.1 44-.634 2.641-7.362 22.298-13.964 41.328l-1.742-5.225c-4.986-14.95-15.499-27.056-29.603-34.086a7.499 7.499 0 0 0-10.058 3.366 7.499 7.499 0 0 0 3.366 10.058c10.512 5.241 18.348 14.265 22.064 25.407l2.68 8.037c-15.52-7.446-32.978-9.332-49.628-5.287a7.502 7.502 0 0 0-1.495 14.04 53.694 53.694 0 0 1 23.014 21.229c6.302 10.741 16.713 18.478 28.564 21.226z"/><path d="M73.286 511.999h365.428c4.143 0 7.5-3.357 7.5-7.5v-37.361c0-15.985-6.723-30.945-18.33-41.48 17.157-20.108 23.072-48.36 14.303-73.114a7.496 7.496 0 0 0-9.573-4.565 7.5 7.5 0 0 0-4.565 9.573c7.594 21.447 1.248 46.929-16.326 63.341-3.871 3.62-2.994 9.323.897 11.868 11.644 7.614 18.595 20.466 18.595 34.378V497h-45.697v-87.854c0-4.143-3.357-7.5-7.5-7.5s-7.5 3.357-7.5 7.5V497H263.499v-50.667c0-4.143-3.357-7.5-7.5-7.5s-7.5 3.357-7.5 7.5V497H141.483v-87.854c0-4.143-3.357-7.5-7.5-7.5s-7.5 3.357-7.5 7.5V497H80.786v-29.861c0-13.912 6.951-26.764 18.595-34.378 3.842-2.512 4.817-8.186.887-11.879-12.381-11.572-19.481-27.93-19.481-44.877 0-25.892 17.615-48.059 42.838-53.906l24.616-5.708c11.852-2.749 22.263-10.485 28.564-21.227 5.41-9.223 13.368-16.563 23.014-21.229a7.5 7.5 0 0 0-1.495-14.04c-16.65-4.044-34.108-2.159-49.628 5.287l2.68-8.037c3.716-11.143 11.552-20.166 22.064-25.407a7.499 7.499 0 0 0 3.366-10.058 7.499 7.499 0 0 0-10.058-3.366c-14.104 7.031-24.618 19.137-29.604 34.087l-1.742 5.224c-6.6-19.027-13.325-38.671-13.95-41.267-3.372-16.056 2.024-32.938 14.086-44.061l15.326-14.134a7.501 7.501 0 0 0-10.17-11.028l-15.325 14.134c-15.924 14.684-23.049 36.975-18.597 58.173 1.015 4.829 21.513 63.428 21.832 64.224 1.665 4.107 6.427 5.826 10.269 3.922.257-.126.585-.313 13.195-7.277 7.254-4.006 15.12-6.434 23.132-7.219a68.808 68.808 0 0 0-11.335 14.481c-4.227 7.204-11.158 12.382-19.016 14.204l-24.616 5.707c-32.059 7.434-54.449 35.609-54.449 68.52 0 18.226 6.602 35.903 18.33 49.653-11.606 10.534-18.33 25.495-18.33 41.48v37.361a7.502 7.502 0 0 0 7.502 7.501z"/><path d="M221.544 231.661v8.588c0 4.143 3.357 7.5 7.5 7.5s7.5-3.357 7.5-7.5v-7.725h38.91v7.725c0 4.143 3.357 7.5 7.5 7.5s7.5-3.357 7.5-7.5v-8.588c14.525-3.402 25.374-16.464 25.374-32.011 0-4.143-3.357-7.5-7.5-7.5s-7.5 3.357-7.5 7.5c0 9.856-8.019 17.875-17.874 17.875h-19.168v-11.062a26.965 26.965 0 0 0 18.593-19.123c1.089-4.194 1.743-6.049 1.685-8.782v-36.209l28.66-16.548a7.5 7.5 0 0 0-7.5-12.99l-30.412 17.559a11.525 11.525 0 0 0-5.748 9.955v23.338c-1.991-.034 7.034-.002-25.295-.002-9.982 0-17.277 9.423-14.768 19.091l1.191 4.588a26.968 26.968 0 0 0 18.594 19.124v11.062h-19.742c-9.855 0-17.874-8.019-17.874-17.875 0-4.143-3.357-7.5-7.5-7.5s-7.5 3.357-7.5 7.5c0 15.546 10.849 28.607 25.374 32.01zm23.168-48.091c-1.305-5.028-1.26-4.665-1.146-4.811.12-.155-1.664-.1 25.238-.1.056 0 .125 0 .202.1.111.144.166-.246-1.146 4.812a11.958 11.958 0 0 1-23.148-.001zM236.008 153.66c4.143 0 7.5-3.357 7.5-7.5v-5.836c0-4.095-2.203-7.909-5.747-9.954l-30.413-17.56a7.5 7.5 0 0 0-7.5 12.99l28.66 16.548v3.812a7.5 7.5 0 0 0 7.5 7.5z"/></svg>