<svg height="511pt" viewBox="0 0 511.985 511" width="511pt" xmlns="http://www.w3.org/2000/svg"><path d="M503.453 158.316v337.067a8.536 8.536 0 0 1-8.535 8.535H264.52s85.332-25.602 59.73-76.8a389.477 389.477 0 0 0-53.672-81.837l22.356-225.363 47.359-49.75L469.316 48.75l23.125-3.84a4.267 4.267 0 0 1 4.012 6.91l-24.406 30.551a4.339 4.339 0 0 0 .77 6.059l25.09 18.773a4.273 4.273 0 0 1-.598 7.254l-21.848 10.922a4.26 4.26 0 0 0-2.328 3.457 4.263 4.263 0 0 0 1.73 3.797l25.176 18.86a8.655 8.655 0 0 1 3.414 6.823zm0 0" fill="#4e342e"/><path d="M475.375 158.316v337.067a8.533 8.533 0 0 1-8.531 8.535H264.52s85.332-25.602 59.73-76.8a389.477 389.477 0 0 0-53.672-81.837l22.356-225.363 47.359-49.75L469.316 48.75a4.245 4.245 0 0 1-.937 3.07l-24.406 30.551a4.339 4.339 0 0 0 .77 6.059l25.085 18.773a4.264 4.264 0 0 1 1.735 3.793 4.273 4.273 0 0 1-2.329 3.461l-21.847 10.922a4.273 4.273 0 0 0-2.332 3.457 4.275 4.275 0 0 0 1.734 3.797l25.176 18.86a8.64 8.64 0 0 1 3.41 6.823zM288.242 49.176a90.287 90.287 0 0 0-38.914-28.16 4.264 4.264 0 0 0-4.715 1.093 4.257 4.257 0 0 0-.66 4.793 187.78 187.78 0 0 1 20.395 70.743l42.668-9.301zm0 0" fill="#795548"/><path d="M28.059 294.168 11.25 273.516a25.582 25.582 0 0 1-.598-21.649 25.595 25.595 0 0 1 16.211-14.36l16.727-4.183c.851 1.621 24.234 49.922-15.531 60.844zm0 0" fill="#37474f"/><path d="m429.723 283.758-42.922 5.375a4.265 4.265 0 0 0-3.68 3.289 4.272 4.272 0 0 0 1.887 4.562l29.953 19.883a4.256 4.256 0 0 1 1.766 4.824 4.27 4.27 0 0 1-4.157 3.028h-56.832a4.26 4.26 0 0 0-3.441 1.789 4.248 4.248 0 0 0-.567 3.84l11.946 35.757a4.263 4.263 0 0 1-1.227 4.622 4.256 4.256 0 0 1-4.746.582l-24.406-12.204-32.34-16.128a8.027 8.027 0 0 0-4.867-.852l-19.965 2.473-106.496 13.312a8.537 8.537 0 0 0-7.512 8.45v5.804a8.48 8.48 0 0 1-11.52 7.934l-16.726-6.23-23.465-8.79a8.52 8.52 0 0 1-5.539-7.246 8.534 8.534 0 0 1 4.172-8.113l58.371-34.985a8.532 8.532 0 0 0 3.348-9.84 8.531 8.531 0 0 0-8.64-5.777l-20.907 3.156L54 315.414a16.785 16.785 0 0 1-16.383-9.387l-9.558-11.859c39.765-10.922 16.382-59.223 15.53-60.844l97.708-24.488c7.734-2.246 13.96-8 16.808-15.531l17.41-46.508a25.222 25.222 0 0 1 13.227-14.25l75.606-34.902.425-.172 19.797-9.13 90.883 99.84 36.692 14.676a4.28 4.28 0 0 1 2.57 3.133 4.278 4.278 0 0 1-1.203 3.867l-16.813 16.809a4.273 4.273 0 0 0-1.191 3.7 4.278 4.278 0 0 0 2.3 3.128l18.516 9.3a4.26 4.26 0 0 1 2.317 4.263 4.266 4.266 0 0 1-3.168 3.675l-11.778 2.899a4.276 4.276 0 0 0-3.168 3.676 4.272 4.272 0 0 0 2.317 4.261l28.246 14.164a4.27 4.27 0 0 1-1.367 8.024zm0 0" fill="#795548"/><path d="m401.648 283.758-42.921 5.375a4.266 4.266 0 0 0-1.793 7.852l29.953 19.882a4.27 4.27 0 0 1-2.39 7.852h-56.833a4.272 4.272 0 0 0-3.445 1.789 4.271 4.271 0 0 0-.567 3.84l9.645 28.757-32.34-16.128a8.027 8.027 0 0 0-4.867-.852l-19.965 2.473-3.246-1.621a8.01 8.01 0 0 0-4.863-.852L141.55 357.91a8.537 8.537 0 0 0-7.508 8.45v5.804c-.016.57-.07 1.14-.172 1.703l-23.465-8.789a8.52 8.52 0 0 1-5.539-7.246 8.534 8.534 0 0 1 4.172-8.113l58.371-34.985a8.532 8.532 0 0 0 3.348-9.84 8.531 8.531 0 0 0-8.64-5.777l-20.907 3.156a7.9 7.9 0 0 0-7.168-3.156L43.59 312.77a16.954 16.954 0 0 1-5.973-6.743l-9.558-11.859c39.765-10.922 16.382-59.223 15.53-60.844l97.708-24.488c7.734-2.246 13.96-8 16.808-15.531l17.41-46.508a25.222 25.222 0 0 1 13.227-14.25l75.606-34.902.425-.172 82.602 90.71 36.695 14.676a4.28 4.28 0 0 1 2.57 3.133 4.27 4.27 0 0 1-1.206 3.867l-16.809 16.809a4.268 4.268 0 0 0 1.11 6.828l18.515 9.3a4.26 4.26 0 0 1 2.316 4.263 4.276 4.276 0 0 1-3.168 3.675l-11.777 2.899a4.276 4.276 0 0 0-3.168 3.676 4.272 4.272 0 0 0 2.317 4.261l28.246 14.164a4.27 4.27 0 0 1-1.368 8.024zm0 0" fill="#bfa885"/><path d="m281.586 119.918 10.11-107.29A4.27 4.27 0 0 1 298.651 10a198.335 198.335 0 0 1 43.809 52.504 95.575 95.575 0 0 1 2.441 86.426 8.527 8.527 0 0 1-5.355 4.597 8.518 8.518 0 0 1-6.985-1.004zm0 0" fill="#bfa885"/><path d="m221.852 213.785-8.536-34.137 31.235-20.82c28.84 47.445-22.7 54.957-22.7 54.957zm0 0" fill="#f44335"/><path d="m505.156 144.664-19.625-14.754 15.598-7.808a12.802 12.802 0 0 0 1.965-21.684L481.52 84.203l21.668-27.082a12.802 12.802 0 0 0-12.102-20.617L350.703 59.918A206.282 206.282 0 0 0 304.18 3.496a12.792 12.792 0 0 0-12.723-2.191 12.994 12.994 0 0 0-8.258 10.562l-1.707 18.184a113.127 113.127 0 0 0-29.015-16.93 12.799 12.799 0 0 0-16.152 17.621 187.817 187.817 0 0 1 19.01 61.738l-70.179 32.31a33.976 33.976 0 0 0-17.636 19.019l-17.348 46.421a16.915 16.915 0 0 1-10.922 10.329L24.441 229.324a34.127 34.127 0 0 0-20.82 48.024c.277.55.613 1.066.996 1.547l25.84 31.851a25.602 25.602 0 0 0 24.816 13.117l6.758-1.031 7.117 14.242a8.53 8.53 0 0 0 11.45 3.82 8.534 8.534 0 0 0 3.824-11.449l-4.66-9.32 83.261-12.707-58.359 34.988a17.104 17.104 0 0 0-8.238 16.203 17.098 17.098 0 0 0 10.992 14.473l40.11 14.988a16.994 16.994 0 0 0 15.726-1.855 17.063 17.063 0 0 0 7.398-14.05v-5.79l95.121-11.852c.317.657.723 1.27 1.204 1.817a313.212 313.212 0 0 1 49.593 74.59 28.881 28.881 0 0 1 1.63 25.601c-9.052 21.008-43.622 35.438-56.18 39.254a8.53 8.53 0 0 0-5.856 9.399 8.528 8.528 0 0 0 8.356 7.265h230.398c9.426 0 17.066-7.64 17.066-17.066V158.316a17.14 17.14 0 0 0-6.828-13.652zM256.59 33.79a76.39 76.39 0 0 1 22.828 18.176l-2.895 30.722-4.855 2.243a196.128 196.128 0 0 0-15.078-51.14zM18.46 255.281a16.884 16.884 0 0 1 10.477-9.496l7.399-1.851c2.851 4.87 9.055 18.968 4.976 28.16a18.666 18.666 0 0 1-12.828 9.101l-9.972-12.27a16.929 16.929 0 0 1-.051-13.644zm476.458 240.102H303.301a76.481 76.481 0 0 0 30.601-32.074 45.648 45.648 0 0 0-2.015-40.008 359.863 359.863 0 0 0-45.856-71.278l11.094-1.382 56.738 28.324a12.799 12.799 0 0 0 14.188-1.738 12.793 12.793 0 0 0 3.73-13.801l-10.086-30.176h50.875a12.8 12.8 0 0 0 7.11-23.492L399.2 296.18l31.573-3.95a12.803 12.803 0 0 0 11-10.523 12.81 12.81 0 0 0-6.843-13.602l-17.922-8.968.469-.11a12.803 12.803 0 0 0 9.683-11.015 12.809 12.809 0 0 0-7.02-12.88l-13.242-6.644 12.63-12.633a12.846 12.846 0 0 0 3.523-11.714 12.66 12.66 0 0 0-7.758-9.235l-36.691-14.676a8.539 8.539 0 0 0-10.934 4.81 8.539 8.539 0 0 0 4.582 11.03l30.652 12.262-12.234 12.277a12.798 12.798 0 0 0 3.309 20.48l8.175 4.106-.476.11a12.798 12.798 0 0 0-9.676 11.02 12.8 12.8 0 0 0 7.02 12.874l15.64 7.852-28.96 3.617a12.802 12.802 0 0 0-10.891 9.82 12.81 12.81 0 0 0 5.48 13.606l18.203 12.09h-42.754a12.787 12.787 0 0 0-10.363 5.34 12.793 12.793 0 0 0-1.734 11.53l8.703 26.036-47.567-23.742a16.21 16.21 0 0 0-9.746-1.703l-126.418 15.82c-8.558 1.027-15.004 8.277-15.027 16.894v5.75l-40.16-15.066 58.734-35.219a17.064 17.064 0 0 0 6.54-20.004 17.067 17.067 0 0 0-17.852-11.144L53.368 306.89a8.308 8.308 0 0 1-8.114-4.692 8.887 8.887 0 0 0-1.008-1.562l-4.445-5.48a32.141 32.141 0 0 0 17.136-16.212 49.294 49.294 0 0 0-3.578-39.254l90.274-22.632a34.385 34.385 0 0 0 22.46-20.735l17.434-46.574a16.84 16.84 0 0 1 8.79-9.387l82.355-37.992-1.621 16.742a8.537 8.537 0 0 0 7.68 9.305h.812a8.534 8.534 0 0 0 8.531-7.734l9.293-98.637c18.91 17.555 50.485 53.496 50.485 97.871a8.533 8.533 0 0 0 17.066 0 119.422 119.422 0 0 0-8.746-43.938l124.68-20.78-17.442 21.812a12.79 12.79 0 0 0-2.703 9.605 12.793 12.793 0 0 0 5.016 8.63l19.558 14.679-15.601 7.804a12.8 12.8 0 0 0-7.02 10.297 12.782 12.782 0 0 0 5.059 11.387l25.199 18.902zm0 0"/><path d="m259.781 138.418-51.199 34.133c-3 2-4.418 5.676-3.543 9.172l8.535 34.132a8.533 8.533 0 0 0 9.696 6.344c1.132-.191 27.945-4.867 36.988-24.441a39.736 39.736 0 0 0-3.785-36.61l12.797-8.53a8.525 8.525 0 0 0 3.78-7.653 8.52 8.52 0 0 0-4.734-7.098 8.532 8.532 0 0 0-8.515.551zm-15.008 52.144a29.014 29.014 0 0 1-16.753 12.708l-4.965-19.856 19.132-12.75a22.968 22.968 0 0 1 2.586 19.899zM323.816 91.621a8.546 8.546 0 0 0-14.496-2.977 8.545 8.545 0 0 0-1.718 8.368l8.535 25.601a8.542 8.542 0 0 0 10.8 5.41 8.538 8.538 0 0 0 5.41-10.804zM443.387 373.57a8.544 8.544 0 0 0-6.121-6.152 8.545 8.545 0 0 0-8.344 2.387 8.539 8.539 0 0 0-1.938 8.457l11.735 41.082-10.617-5.309a12.8 12.8 0 0 0-18.516 11.453v11.434l-18.938-23.672c-2.945-3.68-8.316-4.277-11.996-1.332-3.683 2.945-4.277 8.316-1.332 12l26.54 33.168a12.64 12.64 0 0 0 9.913 4.82c1.48 0 2.95-.25 4.344-.742a12.653 12.653 0 0 0 8.535-12.074v-16.7l13.114 6.555a12.801 12.801 0 0 0 18.023-14.968zm0 0"/></svg>