<svg xmlns="http://www.w3.org/2000/svg" viewBox="0 0 511.997 511.997" style="enable-background:new 0 0 511.997 511.997" xml:space="preserve"><circle style="fill:#ffce54" cx="400.259" cy="114.128" r="94.27"/><path style="fill:#e6e9ed" d="m262.475 144.64-29.141 1.906 6-32-5.336-26.672-81.999 72.124-4.664-4.797-25.336 10.672-45.328 47.469-62 64.531 28 11.327-.672 22-21.328 55.999 22 19.344s26 68 28 70.656 30.664-12 30.664-12 43.336 52.672 46 53.344 32-32.672 33.335-35.344 32 14 32 14l25.328-62.656 18.672-8s-9.336-54-12-58.672-20-87.998-20-87.998l-.672-46.531s2-6.797 22-42.141c9.968-17.624 14.469-24.296 16.477-26.561z"/><path style="fill:#e6e9ed" d="m262.475 144.64 1.523-.094s.5-2.172-1.523.094z"/><path style="fill:#f6bb42" d="M394.669 74.03c0 12.781-10.375 23.156-23.172 23.156s-23.156-10.375-23.156-23.156c0-12.797 10.359-23.172 23.156-23.172s23.172 10.375 23.172 23.172z"/><path d="M268.123 129.905a10.687 10.687 0 0 0-9.781-1.25l-10.985 4.031 4.734-13.031c.828-2.266.859-4.75.094-7.031l-9.555-28.656a10.663 10.663 0 0 0-7.602-7 10.626 10.626 0 0 0-9.953 2.719l-62.445 60.75-30.867 9.344a10.614 10.614 0 0 0-3.422 1.781c-.859.656-21.43 16.562-47.382 40.608-35.031 32.453-61.695 62.766-79.257 90.046-2.117 3.281-2.266 7.469-.398 10.891s5.461 5.547 9.367 5.547h22.21c-9.718 16.25-21.664 42.594-22.21 74.499a10.68 10.68 0 0 0 5.891 9.719l15.781 7.891c1.273 14.297 7.227 48.016 34.797 75.453 3.172 3.156 7.977 4 12.031 2.125l20.265-9.453c3.625 5.438 8.82 13.047 14.445 20.734 19.797 27.078 27.992 32.375 35.453 32.375 8.578 0 17-7.25 30.039-25.875a303.944 303.944 0 0 0 7.961-12l19.688 14.469a10.652 10.652 0 0 0 13.523-.734c20.875-19.156 24.82-45.859 25.172-61.203h10.281c5.766 0 10.493-4.562 10.665-10.344 1.453-48.594-26.446-117.343-31.985-130.468l.492-79.421 35.563-50.297a10.776 10.776 0 0 0 1.953-6.155v-11.312c0-3.471-1.704-6.752-4.563-8.752zm-52.312 66.937a10.682 10.682 0 0 0-1.953 6.094l-.477 77.874c-14.18 7.109-26.008 21.031-33.516 31.625-11.141-12.094-32.289-28.656-67.82-34.937-5.797-1.031-11.336 2.843-12.359 8.64s2.852 11.328 8.648 12.359c46.039 8.125 61.929 35.875 62.859 37.562 1.781 3.531 5.328 5.702 9.281 5.78h.195c3.883 0 7.438-2.187 9.312-5.593 4.047-7.344 15.68-24.969 28.437-33.719 7.969 20.25 24.68 66.483 26.75 102.812h-10.5c-3.07 0-6 1.297-8.023 3.594a10.663 10.663 0 0 0-2.562 8.406c.039.312 3.273 28.141-12.14 48.406l-21.336-15.688a10.747 10.747 0 0 0-8.492-1.844 10.696 10.696 0 0 0-7.047 5.094c-8.906 15.344-19.82 30.562-25.554 35.953-3.031-2.766-9.203-9.422-20.398-24.969-9.07-12.609-16.766-24.609-16.844-24.719a10.685 10.685 0 0 0-8.984-4.922c-1.516 0-3.047.328-4.5 1l-21.585 10.062c-23.734-27.75-23.867-61.281-23.867-61.594a10.627 10.627 0 0 0-5.898-9.656L32.313 366.9c2.562-33.187 19.383-59.03 26.195-68.249h5.688c5.891 0 10.664-4.766 10.664-10.656s-4.773-10.655-10.664-10.655H31.124c38.531-51.312 98.492-99.625 108.742-107.719l2.477-.75-5.797 9.031c-3.18 4.953-1.742 11.562 3.219 14.734a10.64 10.64 0 0 0 5.75 1.703c3.508 0 6.945-1.75 8.984-4.906l19.75-30.781a8.65 8.65 0 0 0 1.398-1.125l52.117-50.702 3.016 9.031-11.312 31.141a10.624 10.624 0 0 0 2.5 11.187 10.666 10.666 0 0 0 11.203 2.469l11.133-4.094-28.493 40.283zM405.324 0C346.512 0 298.67 47.843 298.67 106.655c0 58.827 47.843 106.687 106.654 106.687 58.812 0 106.672-47.859 106.672-106.687C511.996 47.843 464.137 0 405.324 0zm0 191.998c-47.046 0-85.326-38.28-85.326-85.343 0-47.031 38.28-85.312 85.326-85.312 47.062 0 85.344 38.28 85.344 85.312 0 47.063-38.281 85.343-85.344 85.343z"/><path d="M469.324 95.999c-5.891 0-10.656 4.781-10.656 10.656 0 5.906 4.766 10.688 10.656 10.688s10.672-4.781 10.672-10.688c0-5.875-4.781-10.656-10.672-10.656zM405.324 138.655c-5.89 0-10.655 4.781-10.655 10.688 0 5.874 4.766 10.655 10.655 10.655 5.891 0 10.672-4.781 10.672-10.655 0-5.907-4.781-10.688-10.672-10.688zM405.324 74.655c0-17.625-14.343-32-31.999-32-17.641 0-31.999 14.375-31.999 32 0 17.656 14.358 32 31.999 32 17.656 0 31.999-14.344 31.999-32zm-31.999 10.688c-5.875 0-10.656-4.797-10.656-10.688 0-5.875 4.781-10.656 10.656-10.656 5.891 0 10.672 4.781 10.672 10.656 0 5.891-4.781 10.688-10.672 10.688z"/></svg>