<svg height="512" viewBox="0 0 64 64" width="512" xmlns="http://www.w3.org/2000/svg"><path d="M29 17h-4v-2c0-2.206 1.794-4 4-4h4v2c0 2.206-1.794 4-4 4zM37 21l1.414 1.414a2 2 0 0 0 1.414.586H48l-5.715-8.572L40 15c.116 2.041-.897 4.04-3 6z" fill="#f0bc5e"/><path d="m37 11 .828-.828A4 4 0 0 1 40.657 9H46l-1.658 3.317A4.856 4.856 0 0 1 40 15c.13-.985-1.005-2.36-3-4z" fill="#f0bc5e"/><path d="M38 15v-1h-3v2h.838a3.157 3.157 0 0 1-2.001 2l-.154.051.633 1.897.153-.051A5.153 5.153 0 0 0 38 15zM29.168 19.555l1.213 1.819-2.624.656.486 1.94 5.376-1.344-2.787-4.181z"/><circle cx="24" cy="50" r="1"/><circle cx="40" cy="50" r="1"/><path d="m57.847 61-.163-.979a14.154 14.154 0 0 0-3.551-7.284c.575-1.915.867-3.897.867-5.899V44.84c0-2.056-.603-4.046-1.743-5.758a10.354 10.354 0 0 0-6.468-4.388c-.871-4.601-2.84-8.599-4.021-10.694h7.101l-6.196-9.294a5.854 5.854 0 0 0 1.564-1.942L47.618 8h-5.64a12.857 12.857 0 0 0-2.146-6.555L39.155.43 32.586 7h-3.042a9.043 9.043 0 0 0-8.427 5.84l-.4 1.069a1.99 1.99 0 0 1-1.667 1.288l-5.473.568A3.014 3.014 0 0 0 11 18.734V21c0 1.371.93 2.517 2.188 2.874l.463 1.853A2.996 2.996 0 0 0 16.562 28h5.496c-1.026 1.554-2.426 4.005-2.895 6.42l-.929.103a10.358 10.358 0 0 0-7.491 4.559A10.352 10.352 0 0 0 9 44.84v1.998c0 2.002.292 3.984.868 5.899a14.147 14.147 0 0 0-3.551 7.284L6.153 61H1v2h62v-2zM24.401 28.131l1.954.489a12.738 12.738 0 0 0 10.199-1.788L36 26l-.597-.804a10.813 10.813 0 0 1-8.563 1.483l-2.598-.649-7.68-.03a.998.998 0 0 1-.97-.758L15.281 24h3.483a10.53 10.53 0 0 0 4.683-1.105l-.895-1.789a8.514 8.514 0 0 1-3.788.894H14c-.551 0-1-.449-1-1v-2.266c0-.494.369-.919.82-.985l1.18-.122V20h2v-2.58l2-.207V20h2v-3.43a3.986 3.986 0 0 0 1.589-1.958l.401-1.07A7.03 7.03 0 0 1 29.544 9h3.87l5.38-5.38a10.849 10.849 0 0 1 1.174 4.448 4.947 4.947 0 0 0-2.847 1.397l-.829.829 1.414 1.414.829-.829A3.02 3.02 0 0 1 40.657 10h3.725l-.935 1.87A3.832 3.832 0 0 1 40 14v2c.666 0 1.306-.122 1.911-.33l4.22 6.33h-6.303a.996.996 0 0 1-.708-.293l-1.414-1.414-1.414 1.414 1.414 1.414a2.982 2.982 0 0 0 2.123.879h.618c.805 1.32 3.181 5.494 4.247 10.404l-3.12-.346-1.742-2.613-1.664 1.109 1.708 2.563-1.411 3.527c-.815-.473-1.995-1.396-2.517-2.96l-1.897.633a6.933 6.933 0 0 0 1.437 2.453c-.419 1.476-1.539 2.633-2.488 3.378V38h-2v4.152c-.949-.742-2.068-1.898-2.488-3.383a6.948 6.948 0 0 0 1.437-2.453l-1.897-.633c-.516 1.549-1.702 2.477-2.519 2.955l-1.409-3.521 1.708-2.563-1.664-1.109-1.742 2.613-1.157.128c.661-2.471 2.368-5.005 3.132-6.055zM8.289 60.35a12.178 12.178 0 0 1 3.418-6.643l.437-.437-.195-.586A18.445 18.445 0 0 1 11 46.838V44.84a8.36 8.36 0 0 1 1.407-4.648 8.366 8.366 0 0 1 6.047-3.681l3.899-.433 2.068 5.169.895-.298c.062-.021.729-.25 1.558-.785 1.306 3.009 4.521 4.653 4.678 4.731l.448.223.447-.224c.157-.078 3.372-1.722 4.678-4.731.829.535 1.497.765 1.558.785l.895.298 2.068-5.169 3.899.433a8.363 8.363 0 0 1 6.047 3.681A8.358 8.358 0 0 1 53 44.84v1.998c0 1.99-.319 3.957-.949 5.846l-.195.586.437.437a12.172 12.172 0 0 1 3.418 6.643l.108.65h-6.292a25.971 25.971 0 0 1-3.939-8.083l-.149-.52A6.966 6.966 0 0 0 47 48v-7h-2v7c0 2.757-2.243 5-5 5h-4c-1.654 0-3-1.346-3-3v-3h-2v3c0 1.654-1.346 3-3 3h-4c-2.757 0-5-2.243-5-5v-7h-2v7c0 1.665.587 3.194 1.561 4.397l-.149.52A25.971 25.971 0 0 1 14.473 61H8.181zM20.2 53.87c.251.163.515.308.787.438a32.473 32.473 0 0 1-.792 6.691H16.89a27.914 27.914 0 0 0 3.31-7.129zm2.768 1.045c.338.051.681.085 1.032.085h4c1.641 0 3.088-.806 4-2.031.912 1.225 2.359 2.031 4 2.031h4c.351 0 .694-.034 1.032-.085.062 2.045.305 4.082.728 6.085H22.241c.422-2.003.665-4.039.727-6.085zm20.045-.606c.272-.13.536-.275.787-.438a27.918 27.918 0 0 0 3.31 7.13h-3.305a32.568 32.568 0 0 1-.792-6.692z"/></svg>