<svg height="512pt" viewBox="0 -17 512.209 512" width="512pt" xmlns="http://www.w3.org/2000/svg"><path d="M464.488 180.797c-10.5-1-20.699-4.399-29.797-9.8 2 3.5 4.2 6.901 6.7 10.198 7.8 10.102 21.597 23.903 39.097 23.903-11.699 1.898-23.5 2.5-35.297 1.898-.902 0-1.8 0-2.703-.098.903 7.899 1.403 15.899 1.403 23.797 0 0 8.5 110.903 51.199 128-10.2-.097-20.399-1-30.5-2.597-7.102-1-14.102-3-20.7-6 0 0-.3 2.5-.699 6.699-1.402 16-2.601 56.601 17.7 70.101-13.7-3-26.7-8.703-38.102-16.8-6-4.403-10.5-10.403-13.098-17.301-1.203 7.601-2.8 15.101-4.902 22.398-5 17.903-14.2 40.801-29.3 45.801 0-7.2-2.098-14.2-6.098-20.2-2.602-3.5-6.7-5.5-11-5.398-2.301 6.5-5.5 12.7-9.301 18.399-4 6.601-9.602 12-16.3 15.7-.099-7.599-2-15-5.5-21.802-.802-1.398-1.802-2.699-3-3.797a88.113 88.113 0 0 1-17.7 18.899c-4.602 4-10.399 6.398-16.5 6.7-.2-4.099-1.399-8-3.5-11.5-3.899-6.802-12.5-14.099-30.602-14.099a46.098 46.098 0 0 0-12.797 1.5c-11.8 2.098-20.601 12.098-21.3 24.098-8.5-1-16.403-5.098-22.102-11.5-4.5-4.3-8.5-9-12-14.098-4.5 5.297-7.3 11.899-7.898 18.899-.403 2.2-.602 4.5-.602 6.7-8.7-5.099-15.598-12.7-20.098-21.802-2.203-4-4-8.097-5.5-12.398-11.101 0-15 10.898-16.3 18.398-.5 2.403-.7 4.801-.801 7.203-8.8-4-15.8-11.3-19.5-20.203-7.2-15.199-12.102-31.398-14.602-48-4 9.703-11.297 17.703-20.699 22.403-9.5 5.398-19.7 9.3-30.3 11.597 5.702-4.199 10-10 12.402-16.699 9.597-24.098 4.5-60 4.5-60-7.903 3.402-16.301 5.7-24.903 6.7-8.699 1.202-17.5 1.8-26.297 1.902 1.7-.7 3.399-1.602 4.899-2.602 38.398-23.2 46.3-125.398 46.3-125.398 0-8 .4-15.903 1.4-23.801-8.5.5-17.099.398-25.599-.3-7.703-.7-12.402-1.5-12.402-1.5 26.602 0 44.7-32 45.8-34-9.898 5.8-20.898 9.3-32.3 10.198h-.098c-7.703.703-15.402.602-23-.297-3-.3-5.902-.8-8.8-1.402 9.199 0 18.398-25.598 18.398-25.598-36.398-33.8-20.898-105.203-13-133.3 2.102-7.301 3.8-11.801 3.8-11.801 36.7 25.601 45.9 8.5 110.2 25.601 10.602 2.598 20.7 7.098 29.7 13.297h.1c3.302 2.203 6.4 4.801 9.2 7.703a174.024 174.024 0 0 1 45.2-16.601s.1 0 .1-.102c3.302-4.5 4.602-10.097 3.802-15.5-1.102-5.398-3.602-10.297-7.301-14.297 11.601-.703 23 3.797 31.101 12.098 7.2 8.602 11.297 19.402 11.598 30.5.602-14.098 7.902-27.098 19.7-34.898 9.5-5.5 20.5-8.2 31.5-7.801 0 0-14.7 14.7-10 30.5 9.202 2.101 18.202 5 27 8.601 5.6 2.2 11.1 4.797 16.5 7.7 10.8-10.5 24.3-17.801 39-21.2 49.5-13.101 66.202-6.101 88.1-13.8 7.802-2.903 15.102-6.903 21.802-11.801 0 0 36.699 102.398-9.102 145.101 0 0 9.102 25.598 18.3 25.598-11.6 2.2-23.198 2.7-34.6 1.3zm0 0" fill="#4e342e"/><path d="M441.29 181.195c-11.4-.898-22.4-4.398-32.302-10.199 1.102 2 19.102 34 45.703 34 0 0-3.703.7-9.703 1.3l-2.699.302c-8.5.699-17.098.699-25.598.3.899 7.899 1.399 15.899 1.399 23.797 0 0 7.898 102.203 46.3 125.403 1.598 1 3.2 1.898 4.9 2.597-8.802-.097-17.599-.699-26.302-1.898-8.597-1-17-3.2-24.898-6.7 0 0-5.102 35.801 4.5 60-6-4.402-10.5-10.402-13.102-17.3-1.199 7.601-2.797 15.101-4.898 22.398-9.399-4.699-16.8-12.699-20.7-22.398-2.5 16.601-7.402 32.8-14.6 48a13.31 13.31 0 0 0-11-5.399c-2.302 6.5-5.5 12.7-9.302 18.399-1.297-7.5-5.199-18.399-16.297-18.399-1.5 4.297-3.402 8.399-5.5 12.399-.8-1.399-1.8-2.7-3-3.8a88.248 88.248 0 0 1-17.703 18.901c-.699-6.902-3.5-13.5-7.898-18.902-3.5 5.102-7.5 9.8-12 14.102-3.899-6.801-12.5-14.102-30.602-14.102a46.394 46.394 0 0 0-12.797 1.5 46.422 46.422 0 0 0-12.8-1.5c-18.2 0-26.7 7.3-30.602 14.102-4.5-4.301-8.5-9-12-14.102-4.5 5.3-7.3 11.902-7.898 18.902-6.801-5.402-12.7-11.703-17.7-18.902-1.203 1.102-2.203 2.402-3 3.8-2.203-4-4-8.1-5.5-12.398-11.101 0-15 10.899-16.3 18.399-3.801-5.7-7-11.899-9.301-18.399-4.3-.101-8.399 1.899-11 5.399-7.2-15.2-12.102-31.399-14.602-48-4 9.7-11.297 17.7-20.699 22.398-2-7.398-3.7-14.898-4.898-22.398-2.5 6.898-7.102 13-13.102 17.3 9.602-24.1 4.5-60 4.5-60-7.898 3.4-16.3 5.7-24.898 6.7-.301-4.2-.7-6.7-.7-6.7-6.601 2.9-13.5 5-20.703 6C60.391 332.899 68.29 230.696 68.29 230.696c0-8 .402-15.898 1.402-23.797-8.5.5-17.101.399-25.601-.3-7.7-.7-12.399-1.5-12.399-1.5 26.598 0 44.7-32 45.797-34-9.898 5.8-20.898 9.3-32.297 10.199 2.5-3.2 4.7-6.602 6.7-10.2-9.102 5.4-19.301 8.801-29.903 9.801-3-.3-5.898-.8-8.797-1.402 9.2 0 18.399-25.598 18.399-25.598-36.399-33.8-20.899-105.203-13-133.3 21.898 7.8 38.7.699 88.3 13.8 14.7 3.297 28.098 10.598 39 21 5.301-2.8 10.801-5.402 16.301-7.703h.098c3.3 2.203 6.402 4.801 9.2 7.703a174.05 174.05 0 0 1 45.202-16.601s.098 0 .098-.102c3.3-4.5 4.602-10.097 3.8-15.5 6 8.301 9.4 18.102 9.7 28.301.5-11.598 5.5-22.598 14-30.5 7.2 8.602 11.3 19.402 11.602 30.5.597-14.098 7.898-27.098 19.699-34.898-4.5 6.699-5.899 14.898-4.102 22.699 15.102 3.398 29.801 8.898 43.403 16.3 2.8-2.902 5.8-5.402 9.097-7.699 5.602 2.2 11.102 4.797 16.5 7.7 10.801-10.5 24.301-17.801 39-21.2 49.5-13.101 66.203-6.101 88.102-13.8 7.898 28.199 23.5 99.5-12.899 133.3 0 0 9.098 25.598 18.297 25.598-2.898.602-5.797 1.102-8.699 1.402-7.5.797-15.3 1-23 .297zm0 0" fill="#795548"/><path d="m136.488 153.898-22.297 42.7c-36.703 17.097-82.601 8.5-82.601 8.5 26.601 0 44.7-32 45.8-34-27.6 17-64.3 8.398-64.3 8.398 9.2 0 18.398-25.598 18.398-25.598-20.699-19.402-24.5-51-22.5-79.703 23.102-2.699 64.203-3.297 93.403 20 42.699 34.102 34.097 59.703 34.097 59.703zM375.79 153.898l22.3 42.7c36.7 17.097 82.601 8.5 82.601 8.5-26.601 0-44.703-32-45.8-34 27.597 17 64.3 8.398 64.3 8.398-9.203 0-18.402-25.598-18.402-25.598 20.8-19.402 24.7-50.902 22.602-79.703-23.102-2.699-64.2-3.297-93.403 20-42.699 34.102-34.199 59.703-34.199 59.703zm0 0" fill="#e91e63"/><path d="M255.988 59.996c-4.699 0-8.5-3.7-8.5-8.398v-.102c.203-13.098-7.097-25.2-18.699-31.2a30.29 30.29 0 0 1-9.398 28.7c-3.301 3.2-8.7 3.2-12-.098-3.301-3.3-3.301-8.601-.102-12 3.2-2.8 5-6.8 5-11.101 0-4.2-1.8-8.3-5-11-2.398-2.5-3.098-6.102-1.8-9.3 1.3-3.2 4.402-5.2 7.902-5.2 17.597-1.102 34.3 7.7 43.3 22.8 8.598-12.3 24.098-22.8 50.5-22.8 3.5 0 6.598 2.101 7.899 5.3 1.3 3.2.601 6.9-1.8 9.301-.099.098-12.599 13-6.9 24.297 2.098 4.203.4 9.301-3.8 11.5-4.2 2.203-9.3.403-11.5-3.797-4.2-8.601-4.399-18.601-.602-27.3-14.898 3.597-25.5 16.8-25.898 32.097-.102 4.5-3.899 8.301-8.602 8.301zm0 0" fill="#2c3e50"/><path d="M188.488 163.695c-12.398 3.903-19.898 16.5-17.398 29.203 2.398 12.7 14 21.7 27 20.7 12.898-.903 23.2-11.403 23.8-24.301" fill="#ffeb3a"/><path d="M238.89 205.098c-.902 0-1.8-.2-2.699-.403-32.402-10.398-59-33.797-73.5-64.699-1.101-2.8-.703-6.098 1.2-8.5 1.898-2.398 4.898-3.598 7.898-3.2s5.602 2.4 6.7 5.302c12.702 26 35.5 45.8 63 54.8 4 1.297 6.402 5.297 5.702 9.5-.5 4.098-4.101 7.2-8.3 7.2zm0 0" fill="#2c3e50"/><path d="M322.988 247.695c6.602-.097 13 2.5 17.703 7.102 31.297 31.601 9.098 61.2 9.098 61.2-17.098 25.6-42 42.698-93.898 42.698-51.903 0-76.903-20-93.903-42.699 0 0-22.199-29.598 9.102-61.2 4.7-4.6 11.101-7.198 17.7-7.1zm0 0" fill="#4e342e"/><path d="M323.488 163.695c12.403 3.903 19.903 16.5 17.403 29.203-2.403 12.7-14 21.7-27 20.7-12.903-.903-23.2-11.403-23.801-24.301" fill="#ffeb3a"/><path d="M273.09 205.098c-4.2 0-7.7-3-8.399-7.2-.703-4.101 1.7-8.101 5.7-9.5 27.597-9 50.3-28.8 63-54.8 1.8-4.403 6.699-6.5 11.097-4.7 4.403 1.797 6.5 6.7 4.703 11.098-14.402 30.8-41.101 54.3-73.5 64.7-.8.202-1.703.402-2.601.402zm0 0" fill="#2c3e50"/><path d="M255.988 358.695c4.602.102 9-1.699 12.203-4.898 3.2-3.2 5-7.602 4.899-12.2 0-17.1 34.101-25.6 25.601-34.1s-42.703-8.5-42.703-8.5-34.097 0-42.699 8.5c-8.5 8.5 25.602 17.1 25.602 34.1-.102 4.598 1.699 9 4.898 12.2 3.2 3.2 7.602 5 12.2 4.898zm0 0" fill="#37474f"/><path d="M136.488 162.398c-2.699 0-5.297-1.3-6.898-3.5-1.602-2.203-2-5.101-1.2-7.703 0 0 5.2-21.097-31.402-50.297-26.898-21.601-66-20.703-87-18.203a8.615 8.615 0 0 1-9.5-7.5c-.5-4.699 2.903-9 7.5-9.5 23.602-2.797 67.801-3.699 99.703 21.801 46 36.8 38 65.902 36.899 69.102-1.102 3.5-4.399 5.8-8.102 5.8zM375.39 162.297c-3.6 0-6.8-2.3-8-5.7-1.1-3.199-9.1-32.3 36.9-69.1 31.698-25.302 76-24.599 99.698-21.9 4.703.5 8 4.801 7.5 9.5-.5 4.7-4.797 8-9.5 7.5-20.898-2.402-60.199-3.199-87 18.2-36.597 29.3-31.398 50.3-31.297 50.601 1.2 4.5-1.3 9.098-5.703 10.5a8.301 8.301 0 0 1-2.597.399zm0 0" fill="#2c3e50"/><g fill="#cfd8dc"><path d="M225.39 355.898c-2.199 2.7-4.1 5.5-5.902 8.5-8.199 14.7-13.097 30.899-14.297 47.7-.101.898-.8 1.699-1.703 1.898-.898.2-1.898-.2-2.297-1-10-19.398-13.101-41.7-8.703-63.098v-.101c.301-1.5.5-3 .801-4.399l.5-.902c9.7 5.5 20.5 9.402 31.602 11.402zm0 0"/><path d="m193.691 344.496-.5.902c-.3 1.399-.5 2.797-.8 4.399v.101l-34.903 23.2c-.699.5-1.597.5-2.297 0-.703-.403-1.101-1.301-1-2.102l7.899-55c8.398 11.602 19.2 21.402 31.601 28.5zM255.988 358.695l-15.297 45.903c-.3.8-1.101 1.398-1.902 1.5-.898 0-1.7-.5-2-1.301l-17.2-40.3c1.7-3 3.7-5.802 5.9-8.5 10 1.8 20.202 2.698 30.5 2.698zM310.89 412.898c-.5.797-1.402 1.2-2.3 1a2.24 2.24 0 0 1-1.7-1.902c-1.3-16.7-6.199-33-14.3-47.7-1.7-2.898-3.5-5.6-5.602-8.198 11.203-1.801 22-5.403 31.903-10.801v.101c.3 1.399.5 2.797.8 4.399 4.2 21.398 1.2 43.7-8.8 63.101zm0 0"/><path d="M357.691 370.996c.098.8-.3 1.7-1 2.102a2.364 2.364 0 0 1-2.3 0l-34.903-23.301c-.297-1.5-.5-3-.797-4.399v-.101c12.598-7.102 23.297-17.102 31.098-29.399zM292.488 364.398l-17.199 40.399c-.3.8-1.2 1.3-2 1.3-.898 0-1.7-.6-1.898-1.5l-15.403-45.902c10.301.102 20.703-.699 30.903-2.5 2.097 2.602 4 5.301 5.597 8.203zm0 0"/></g><path d="M452.988 215.797a140.643 140.643 0 0 1-58.597-11.5c-2.903-1.2-4.801-3.899-5.102-7-.3-3.102 1.102-6.102 3.7-7.899 2.6-1.8 5.902-2 8.702-.601 14 6.101 29 9.398 44.2 9.7-7.403-6.802-13.7-14.802-18.7-23.5-1.8-3.4-1.101-7.599 1.7-10.302 2.8-2.597 7.097-3.097 10.3-1 12.399 6.903 26.5 10.203 40.7 9.301-3-5.2-5.403-10.598-7.403-16.3-1.097-3.2-.297-6.798 2.203-9.098 33.098-30.903 17.598-99.5 10.2-125.602-14 8-29.801 12-45.903 11.7-19.297.8-38.398 3.8-57 8.902-55.398 14.699-49.097 56.8-48.699 58.597.5 3-.598 6.102-2.898 8-2.301 2-5.5 2.5-8.403 1.5-2.898-1-5-3.5-5.5-6.5-.097-.597-9.699-59.097 61.203-78 19.7-5.398 40-8.597 60.399-9.398 16.898.601 33.398-4.7 46.8-14.899 2.2-1.5 4.9-1.902 7.5-1.101 2.5.8 4.5 2.7 5.4 5.2 1.5 4.3 35.8 102.198-7.2 149.901 2.101 5.598 5.2 10.7 9.2 15.098 4.198.402 7.401 3.8 7.698 7.902.301 4.2-2.5 7.899-6.597 8.899a115.697 115.697 0 0 1-39.801 1.2 32.72 32.72 0 0 0 19.601 7.6c4.399 0 8.098 3.4 8.5 7.7.399 4.398-2.601 8.398-6.902 9.2-9.898 1.5-19.598 2.3-29.3 2.3zM59.191 215.797c-9.703.101-19.5-.7-29.101-2.3-4.3-.802-7.3-4.802-6.899-9.2.399-4.399 4.098-7.7 8.5-7.7 7.2-.3 14.098-2.902 19.598-7.6-13.3 1.901-26.8 1.5-39.898-1.2-4.102-.899-6.801-4.7-6.602-8.899.3-4.203 3.5-7.5 7.7-7.902 4-4.398 7.202-9.5 9.202-15.098-43.203-47.8-8.8-145.703-7.203-150A8.478 8.478 0 0 1 19.891.695c2.5-.797 5.3-.398 7.5 1.102 13.5 10.2 30 15.5 46.898 14.898 20.5.903 40.8 4 60.602 9.403 71 18.898 61.398 77.398 61.3 78-.5 3.097-2.601 5.597-5.5 6.699-2.902 1.101-6.203.5-8.5-1.5a8.65 8.65 0 0 1-2.8-8.2c.3-1.699 6.597-43.8-48.903-58.5-18.699-5.1-37.797-8.1-57.199-8.902-16.098.301-32-3.797-46-11.699-7.5 26.102-23 94.8 10.2 125.602 2.5 2.3 3.402 5.898 2.202 9.097-2 5.602-4.5 11-7.402 16.203 14.2.797 28.402-2.402 40.8-9.3 3.302-2 7.5-1.602 10.302 1 2.8 2.597 3.5 6.898 1.699 10.3-5 8.797-11.3 16.7-18.7 23.5 15.2-.3 30.301-3.601 44.301-9.703 2.797-1.297 6-1 8.5.801 2.5 1.8 3.899 4.7 3.598 7.7-.3 3-2.098 5.702-4.898 7-18.602 8-38.602 11.902-58.7 11.6zm0 0" fill="#2c3e50"/><path d="M492.191.695a8.704 8.704 0 0 0-7.5 1.102c-13.402 10.2-30 15.5-46.8 14.898-20.403.903-40.7 4-60.403 9.403-14.097 3.398-27.199 9.898-38.297 19.199a180.737 180.737 0 0 0-34.203-12.8c.801-6.599 3.703-12.802 8.301-17.7 2.402-2.399 3.2-6.102 1.902-9.3A8.503 8.503 0 0 0 307.29.194c-26.5 0-42 10.5-50.5 22.801-9.098-15.098-25.8-23.898-43.3-22.8-3.4 0-6.5 2.1-7.9 5.202-1.398 3.098-.6 6.797 1.802 9.297 4.5 4.203 6 10.801 3.8 16.602-13.203 3.2-25.902 7.8-38 13.8a93.567 93.567 0 0 0-38.203-19c-19.797-5.402-40.097-8.6-60.597-9.402A73.231 73.231 0 0 1 27.488 1.797C25.29.297 22.59-.102 19.988.695c-2.5.801-4.5 2.703-5.398 5.203-1.5 4.297-35.899 102.2 7.2 150a46.758 46.758 0 0 1-9.2 15.098c-4.2.402-7.399 3.8-7.7 7.902-.3 4.2 2.5 7.899 6.598 8.899a116.207 116.207 0 0 0 39.903 1.2 32.729 32.729 0 0 1-19.602 7.6c-4.398 0-8.098 3.4-8.5 7.7-.398 4.398 2.602 8.398 6.902 9.2 9.598 1.6 19.297 2.401 29.098 2.3h1.102c-.301 4.7-.5 9.398-.5 14.398-2.301 29.5-14.903 108.301-45.801 120.602-3.8 1.5-6 5.5-5.2 9.5s4.301 6.898 8.4 6.898c14.698-.097 29.401-1.797 43.698-5.297 1 18.5-.398 48.598-14.297 57.899-3.402 2.3-4.703 6.601-3.101 10.398a8.567 8.567 0 0 0 9.601 5.102c16.5-3.5 32-10.8 45.098-21.399 5.2 20.098 15.902 48.598 35.8 55.297 2.602.801 5.4.403 7.7-1.199 2.2-1.598 3.5-4.2 3.5-6.898.102-5.102 1.402-10.102 3.902-14.602 5.297 12.8 14.598 23.5 26.5 30.7 2.598 1.3 5.797 1.202 8.297-.4s4-4.3 4-7.198c.102-3.403.602-6.801 1.403-10.102 7.699 8.402 19.597 18.602 32.699 18.602 4.7 0 8.5-3.801 8.5-8.5 0-.7.3-17.102 25.601-17.102 23.899 0 25.5 14.3 25.598 17.102 0 4.699 3.8 8.5 8.5 8.5 13.102 0 25.102-10.2 32.7-18.602.8 3.3 1.3 6.7 1.402 10.102 0 3 1.5 5.699 4 7.3 2.5 1.598 5.699 1.7 8.3.399 11.797-7.2 21.098-17.899 26.5-30.7 2.5 4.4 3.797 9.4 3.899 14.5 0 2.7 1.3 5.301 3.5 6.9 2.2 1.6 5.101 2 7.7 1.198 20-6.597 30.698-35.199 35.8-55.297 13.101 10.598 28.601 17.899 45.101 21.399 4 .8 8-1.3 9.5-5.102 1.598-3.797.2-8.097-3.101-10.398-14-9.3-15.399-39.399-14.3-57.899 14.3 3.399 29 5.2 43.8 5.297a8.562 8.562 0 0 0 8.398-6.898c.801-4-1.398-8-5.199-9.5-30.898-12.3-43.5-91.2-45.8-120.602 0-4.898-.2-9.699-.5-14.398h1.3c9.7.101 19.402-.7 29-2.3 4.3-.9 7.2-4.802 6.8-9.099-.398-4.3-4-7.703-8.398-7.8-7.203-.301-14.101-2.903-19.601-7.602 13.2 1.902 26.7 1.5 39.8-1.2 4.098-.898 6.9-4.698 6.598-8.898-.297-4.203-3.5-7.5-7.699-7.902-4-4.398-7.098-9.5-9.2-15.098 43.102-47.8 8.7-145.703 7.2-149.902-1.098-2.598-3.098-4.5-5.598-5.3zM474.59 147.598c-2.5 2.3-3.399 5.898-2.2 9.097 2 5.602 4.5 11.102 7.4 16.301-14.2.8-28.302-2.398-40.7-9.3-3.3-2-7.5-1.598-10.3 1-2.802 2.6-3.5 6.902-1.7 10.3 5 8.8 11.3 16.7 18.7 23.5-15.2-.398-30.2-3.7-44.2-9.7-2.8-1.398-6.102-1.198-8.7.602-2.6 1.797-4 4.797-3.699 7.899.297 3.101 2.297 5.8 5.098 7 12.7 5.7 26.3 9.2 40.102 10.5.398 5.101.699 10.398.699 15.898 0 .102.101.203.101.301 0 .102-.101.2 0 .3.7 9.7 7.098 80.7 34.2 116.9-7.5-.798-14.903-2.798-21.903-5.7-2.5-1.2-5.297-1.2-7.797.102-2.402 1.3-4.101 3.597-4.5 6.398-3 20.5-1.703 41.5 3.899 61.5a40.28 40.28 0 0 1-21.5-20.3 8.696 8.696 0 0 0-8.899-5.798c-3.902.399-7.101 3.399-7.703 7.297-2.398 16.602-9.398 42.102-19.5 54.602-2.398-11-12-19-23.199-19.2-3.7 0-6.898 2.4-8.098 5.801-2.601 7.5-6.5 14.5-11.402 20.7-1.598-5.801-4.5-11.102-8.598-15.5-1.8-1.801-4.3-2.7-6.902-2.5-2.5.3-4.8 1.597-6.3 3.8a67.062 67.062 0 0 1-20.5 19.899c-4.098-11.2-15.4-23.7-40.7-23.7-25.3 0-36.598 12.5-40.7 23.7-8.198-5.102-15.1-11.899-20.5-19.899a8.347 8.347 0 0 0-6.3-3.703c-2.5-.199-5 .703-6.8 2.5-4.098 4.403-7.098 9.703-8.598 15.5-4.903-6.199-8.7-13.199-11.403-20.699-1.199-3.5-4.398-5.8-8.097-5.8-11.301.3-20.801 8.202-23.2 19.202-10.203-12.5-17.101-38-19.5-54.601a8.615 8.615 0 0 0-7.703-7.3c-3.898-.302-7.597 2.1-8.898 5.8-4.3 9.3-12 16.5-21.5 20.3 5.601-20 6.898-40.902 3.898-61.5-.398-2.699-2.097-5.1-4.5-6.402-2.398-1.297-5.297-1.297-7.797-.097-7 3-14.3 4.898-21.902 5.699 27.102-36.2 33.5-107.3 34.2-116.899v-.601c0-5.5.3-10.8.702-15.899 13.899-1.3 27.598-4.8 40.399-10.5 2.8-1.3 4.601-4 4.898-7 .301-3-1.097-6-3.597-7.703-2.5-1.797-5.7-2-8.5-.797-14 6.098-29 9.297-44.301 9.7 6.7-6.2 12.5-13.2 17.3-21 .2-.301.4-.602.5-.903.5-.898.9-1.5.9-1.597 1.8-3.403 1.1-7.602-1.7-10.2-2.399-2.203-5.8-2.8-8.8-1.703-.099 0-.302.102-.4.203-.402.098-.8.297-1.199.5-12.402 6.899-26.601 10.2-40.8 9.297 3-5.199 5.398-10.597 7.398-16.199 1.2-3.2.3-6.8-2.2-9.098-16.8-15.703-21.1-41-20.3-65.703 21.8-1.699 55.7-.5 79.902 18.801 36.598 29.3 31.399 50.3 31.399 50.3-1 2.9-.3 6.102 1.7 8.4 2 2.3 5.1 3.3 8.1 2.702 3-.601 5.4-2.8 6.4-5.703 1.1-3.199 9.1-32.297-36.9-69.097-27.3-22.2-64.199-24.5-88.902-22.903 1.801-14.5 4.703-28.797 8.801-42.797 14 8 29.902 12 46 11.7 19.3.8 38.5 3.8 57.2 8.898 55.402 14.7 49.202 56.602 48.902 58.5-.7 4.602 2.398 8.902 6.898 9.7 4.5.8 9-2.2 9.902-6.798 1.899-16.101-2.101-32.402-11.101-45.8a167.553 167.553 0 0 1 23.3-8.7c3.301 2.5 8 2.2 11-.703 1.5-1.5 2.801-3.097 4-4.797.098-.101.2-.3.301-.402 5-6.8 6.797-15.3 5.098-23.5 11.602 6 18.902 18.102 18.7 31.2v.1c0 4.7 3.902 8.5 8.6 8.5 4.7 0 8.5-3.898 8.5-8.6.4-15.298 11-28.4 25.9-32.098-3.798 8.8-3.598 18.699.6 27.3 1 2 2.802 3.598 4.9 4.297 2.1.703 4.5.602 6.5-.5.402-.297.702-.5 1-.898 8.1 2.3 16.1 5.2 23.8 8.7-9 13.401-12.898 29.6-11 45.698.8 4.602 5.2 7.703 9.902 6.903 4.598-.801 7.7-5.2 6.899-9.903-.3-1.699-6.602-43.699 48.7-58.398a255.206 255.206 0 0 1 57-8.899c16.1.297 31.901-3.8 45.901-11.703 4 14 6.899 28.203 8.7 42.703-24.7-1.5-61.7.797-89.301 22.797-46 36.801-38 65.903-36.899 69.102 1.098 3.398 4.399 5.8 8 5.7.899 0 1.7-.099 2.598-.4 4.402-1.402 7-6.1 5.7-10.5-.098-.199-5.298-21.3 31.3-50.6 24.102-19.2 58-20.5 79.902-18.9 1 24.9-3.203 50.4-20.101 66zm0 0"/><path d="M175.39 161.098c-8.3 6.398-13.199 16.398-13.199 26.898 0 16.2 11.399 30.2 27.297 33.402 15.903 3.2 31.801-5.101 38.203-20.101 2.797 1.2 5.598 2.3 8.7 3.3 4.5 1.5 9.3-.902 10.8-5.402s-.902-9.297-5.402-10.797c-5.598-1.8-11-4.101-16.2-6.8a105.585 105.585 0 0 1-46.8-48c-1.8-4.403-6.7-6.5-11.098-4.7-4.402 1.797-6.5 6.7-4.703 11.098 3.102 7.5 7.301 14.602 12.403 21.102zm20.9 44c-9.4 0-17.099-7.602-17.099-17.102 0-5.598 2.797-10.898 7.399-14 7.601 7.7 16.2 14.3 25.601 19.7a16.8 16.8 0 0 1-15.902 11.402zM273.09 205.098c.898 0 1.8-.2 2.7-.403 3-1 5.901-2.097 8.698-3.297 5.602 13.098 18.703 21.399 33 20.7 14.301-.7 26.602-10.2 30.903-23.801s-.301-28.399-11.602-37.2c5.102-6.5 9.3-13.6 12.602-21.199 1.8-4.402-.403-9.3-4.7-11.101-4.402-1.8-9.3.398-11.101 4.7-10 20.6-26.5 37.5-46.8 48-5.2 2.698-10.599 5-16.2 6.8-4 1.3-6.5 5.3-5.8 9.5.698 4.2 4.1 7.3 8.3 7.3zm59.7-17.102c0 8.3-5.9 15.402-14.099 16.8-8.203 1.4-16.203-3.3-18.902-11.1 9.402-5.4 18-12.098 25.602-19.7 4.597 3.102 7.398 8.402 7.398 14zM338.191 241.098c-3.703-2.903-9.101-2.301-12 1.3-2.902 3.7-2.3 9.098 1.297 12 34.602 27.7 17.801 53.399 15.602 56.5 0 .098 0 .098-.102.2l-.199.199c-12.398 19.601-32.8 32.898-55.8 36.101-1.2 0-2.4.2-3.5.7-.9.097-1.798.199-2.7.398.5-2.2.8-4.5.8-6.8 0-4.5 7.7-9.9 13.302-13.9 7-5 13.097-9.3 13.699-16.398.2-2.101-.3-4.203-1.2-6.101.2-6.2 2.2-12.3 5.9-17.3 3.198-3.302 3.198-8.7-.099-12-3.3-3.302-8.601-3.302-12-.099-4.8 5.297-8.101 11.797-9.5 18.797-11.703-3-23.703-4.398-35.703-4.297-12-.101-24 1.297-35.699 4.297-1.398-7-4.598-13.5-9.5-18.797-3.3-3.203-8.7-3.203-12 .098-3.3 3.3-3.3 8.602-.098 12 3.7 5 5.7 11.102 5.899 17.3-.899 1.9-1.399 4-1.2 6.102.598 7 6.598 11.399 13.7 16.399 5.601 4 13.3 9.5 13.3 13.898 0 2.203.2 4.5.7 6.703-1.2-.203-2.3-.402-3.399-.601h-.101c-23.7-3.8-44.899-17-58.7-36.7-2.1-2.902-19.3-28.699 15.5-56.5 3.7-2.902 4.301-8.3 1.301-12-2.902-3.699-8.3-4.3-12-1.3-40.703 32.5-26.5 66.3-20.601 76.7l-8.102 56.698c-.5 3.301 1 6.602 3.903 8.403 2.8 1.8 6.5 1.699 9.3-.102l23.899-15.898c-1.3 20.097 4.2 40 15.8 56.597 1.598 2.102 4.098 3.403 6.801 3.403 4.7 0 8.5-3.801 8.5-8.5.399-11.2 2.399-22.301 5.899-32.903l11.898 27.703c1.301 3.098 4.403 5.2 7.801 5.2h.3c3.5-.102 6.602-2.5 7.7-5.801l9-26.899 9 26.899c1.102 3.398 4.2 5.7 7.7 5.8h.3c3.402 0 6.5-2 7.8-5.199l11.9-27.703c3.5 10.602 5.5 21.703 5.902 32.903 0 3.699 2.398 6.898 5.8 8.097 3.5 1.203 7.297 0 9.5-3 11.5-16.5 17.098-36.5 15.7-56.699l23.898 16c2.8 1.902 6.402 1.902 9.3.102a8.396 8.396 0 0 0 3.9-8.403l-8.098-56.699c6.199-10.598 20.398-44.398-20.2-76.898zm-111.203 72.699c-1-.7-2.199-1.602-3.297-2.399 10.598-2.703 21.399-4.101 32.297-3.902 10.903-.2 21.801 1.102 32.301 3.902-1.098.899-2.3 1.7-3.3 2.399-8.598 6.2-20.4 14.601-20.4 27.8 0 4.7-3.8 8.5-8.5 8.5-4.698 0-8.5-3.8-8.5-8.5-.1-13.3-11.898-21.699-20.6-27.8zm-59 21.898c4.203 4.102 8.703 7.903 13.5 11.203l-16.699 11.098zm32.801 52c-1.8-10.097-2-20.398-.7-30.5 3.7 1.602 7.5 2.903 11.4 4.102-4.7 8.2-8.298 17.101-10.7 26.398zm37.2-1.898-8.798-20.5.098-.102c4.7.703 9.7 1.301 15 1.602zm36.1 0-6.398-19.102c5.297-.297 10.297-.797 15.098-1.5zm37.2 1.898c-2.398-9.097-5.898-17.898-10.5-26.097a116.35 116.35 0 0 0 11.3-3.903c1.2 10 .9 20.102-.8 30zm20-40.398c4.602-3.3 8.902-7 12.902-11l3.098 21.7zm0 0"/></svg>