<svg xmlns="http://www.w3.org/2000/svg" style="enable-background:new 0 0 512 512" xml:space="preserve" width="512" height="512"><path style="fill:#e0e0e0" d="M417.888 307.5h-88.846l-41.375 19.929L266 281h-20l-21.667 46.428-41.375-19.928H94.112c-36.638 0-66.339 29.701-66.339 66.339V504.5h456.455V373.839c-.001-36.638-29.702-66.339-66.34-66.339z"/><path style="fill:#bdbdbd" d="M425.804 307.986c11.404 11.914 18.423 28.059 18.423 45.853v74.154c0 31.208-25.299 56.507-56.507 56.507H27.773v20h456.455V373.839c-.001-33.957-25.52-61.937-58.424-65.853z"/><circle style="fill:#42a5f5" cx="256" cy="144.25" r="136.75"/><path style="fill:#1976d2" d="M296.255 13.526C330.486 38.38 352.75 78.712 352.75 124.25 352.75 199.775 291.525 261 216 261c-14.011 0-27.528-2.111-40.255-6.026C198.286 271.341 226.013 281 256 281c75.525 0 136.75-61.225 136.75-136.75 0-61.514-40.618-113.538-96.495-130.724z"/><circle style="fill:#fff" cx="256" cy="144.25" r="105.667"/><path style="fill:#e0e0e0" d="M282.135 41.843c24.101 19.367 39.532 49.083 39.532 82.407 0 58.358-47.309 105.667-105.667 105.667-9.021 0-17.776-1.133-26.135-3.26 18.105 14.549 41.101 23.26 66.135 23.26 58.358 0 105.667-47.309 105.667-105.667 0-49.338-33.815-90.775-79.532-102.407zM224.333 327.429l-41.523-20V281H246zM287.667 327.429l41.523-20V281H266z"/><path style="fill:#ef5350" d="M271.158 340.214h-30.316L218.714 504.5h74.572z"/><path style="fill:#d32f2f" d="M271.158 340.214h-17.306l14.77 109.659c2.468 18.326-11.783 34.627-30.275 34.627h-16.938l-2.694 20h74.571l-22.128-164.286z"/><path style="fill:#ef5350" d="M266 281h-20l-16.238 34.794 11.08 24.42h30.316l11.08-24.42z"/><path style="fill:#d32f2f" d="m267.496 284.205-11.769 25.939a17.162 17.162 0 0 1-15.628 10.071h-8.331l9.074 20h30.316l11.08-24.42-14.742-31.59z"/><path style="fill:#ffca28" d="M271.582 144.25c0 6.777-5.494 12.27-12.27 12.27h-43.149c-6.777 0-12.27-5.494-12.27-12.27 0-6.777 5.494-12.27 12.27-12.27h43.149c6.776 0 12.27 5.494 12.27 12.27z"/><path style="fill:#ef5350" d="m294.625 91.232-40.748 40.748h5.434c6.395 0 11.641 4.893 12.213 11.139l37.493-37.493c3.975-3.974 3.975-10.418 0-14.393-3.974-3.975-10.418-3.975-14.392-.001z"/><path d="M369.167 144.25c0-24.247-7.558-47.368-21.857-66.864-2.45-3.34-7.143-4.063-10.483-1.612s-4.062 7.144-1.612 10.483c12.399 16.905 18.953 36.959 18.953 57.993 0 54.13-44.038 98.167-98.167 98.167s-98.167-44.037-98.167-98.167S201.871 46.083 256 46.083c20.11 0 39.438 6.036 55.894 17.455a7.501 7.501 0 0 0 8.552-12.325c-18.98-13.17-41.265-20.131-64.446-20.131-62.4 0-113.167 50.767-113.167 113.167S193.6 257.417 256 257.417 369.167 206.65 369.167 144.25z"/><path d="M263.5 68.357v-8.774c0-4.143-3.358-7.5-7.5-7.5s-7.5 3.357-7.5 7.5v8.774c0 4.143 3.358 7.5 7.5 7.5s7.5-3.357 7.5-7.5zM248.5 220.144v8.773c0 4.143 3.358 7.5 7.5 7.5s7.5-3.357 7.5-7.5v-8.773c0-4.143-3.358-7.5-7.5-7.5s-7.5 3.357-7.5 7.5zM331.893 151.75h8.774c4.142 0 7.5-3.357 7.5-7.5s-3.358-7.5-7.5-7.5h-8.774c-4.142 0-7.5 3.357-7.5 7.5s3.358 7.5 7.5 7.5zM180.107 136.75h-8.774c-4.142 0-7.5 3.357-7.5 7.5s3.358 7.5 7.5 7.5h8.774c4.142 0 7.5-3.357 7.5-7.5s-3.358-7.5-7.5-7.5z"/><path d="M417.888 300H336.69v-19a7.5 7.5 0 0 0-7.5-7.5h-9.193c47.517-23.624 80.253-72.682 80.253-129.25C400.25 64.71 335.54 0 256 0S111.75 64.71 111.75 144.25c0 56.568 32.736 105.626 80.253 129.25h-9.193a7.5 7.5 0 0 0-7.5 7.5v19H94.112c-40.715 0-73.84 33.124-73.84 73.839v53.865c0 4.143 3.358 7.5 7.5 7.5s7.5-3.357 7.5-7.5v-53.865c0-32.444 26.396-58.839 58.84-58.839h87.133l39.833 19.186c2.573 1.24 5.883.957 8.259-1.175l3.783 8.339L212.157 497h-97.088v-76.091c0-4.143-3.358-7.5-7.5-7.5s-7.5 3.357-7.5 7.5V497H35.272v-34.296c0-4.143-3.358-7.5-7.5-7.5s-7.5 3.357-7.5 7.5V504.5a7.5 7.5 0 0 0 7.5 7.5h456.455a7.5 7.5 0 0 0 7.5-7.5V373.839c.001-40.715-33.124-73.839-73.839-73.839zm-96.198 2.717-30.438 14.66-13.476-28.877h43.913v14.217zm-55.365 29.997h-20.65l-7.656-16.875 12.758-27.339h10.447l12.758 27.339-7.657 16.875zM126.75 144.25C126.75 72.981 184.731 15 256 15s129.25 57.981 129.25 129.25S327.269 273.5 256 273.5s-129.25-57.981-129.25-129.25zM234.223 288.5l-13.476 28.877-30.438-14.66V288.5h43.914zM476.728 497h-64.796v-76.091c0-4.143-3.358-7.5-7.5-7.5s-7.5 3.357-7.5 7.5V497h-97.088l-3.929-29.169c-.553-4.104-4.327-6.99-8.434-6.432a7.5 7.5 0 0 0-6.432 8.434L284.708 497h-57.415L247.4 347.715h17.2l11.776 87.431a7.5 7.5 0 0 0 14.866-2.002l-12.364-91.793 3.783-8.339c2.428 2.177 5.757 2.383 8.259 1.175L330.754 315h87.133c32.444 0 58.84 26.395 58.84 58.839V497z"/><path d="m278.979 146.271 35.342-35.343c6.893-6.893 6.893-18.107 0-24.999-6.908-6.908-18.09-6.91-25-.001L250.77 124.48h-34.607c-10.901 0-19.771 8.868-19.771 19.77s8.869 19.771 19.77 19.771h42.592l20.815 36.053a7.5 7.5 0 0 0 12.99-7.5l-19.64-34.018c3.328-3.168 5.568-7.467 6.06-12.285zm20.95-49.736a2.678 2.678 0 0 1 3.786 3.786l-30.204 30.205a19.873 19.873 0 0 0-4.244-3.328l30.662-30.663zm-88.536 47.715c0-2.63 2.14-4.77 4.771-4.77h43.148c2.63 0 4.77 2.14 4.77 4.77a4.776 4.776 0 0 1-4.77 4.771h-43.149a4.775 4.775 0 0 1-4.77-4.771z"/></svg>