<svg height="512" width="512" xmlns="http://www.w3.org/2000/svg"><path d="M256 7.5C118.757 7.5 7.5 118.757 7.5 256S118.757 504.5 256 504.5 504.5 393.243 504.5 256 393.243 7.5 256 7.5zm72.5 321h-145v-145h145z" fill="#ff7a3c"/><path d="M256 37.5v146h72.5v145H256v146c120.674 0 218.5-97.826 218.5-218.5S376.674 37.5 256 37.5z" fill="#ff9a42"/><path d="M256 37.5C135.326 37.5 37.5 135.326 37.5 256S135.326 474.5 256 474.5c104.106 0 188.5-97.826 188.5-218.5S360.106 37.5 256 37.5zm72.5 291h-145v-145h145z" fill="#ffba48"/><path d="M168.5 198.5v115c0 16.569 13.431 30 30 30h115c16.569 0 30-13.431 30-30v-115c0-16.569-13.431-30-30-30h-115c-16.569 0-30 13.431-30 30zm145 115h-115v-115h115z" fill="#ff9a42"/><circle cx="256" cy="444.5" r="7.5"/><circle cx="286" cy="414.5" r="7.5"/><circle cx="444.5" cy="256" r="7.5"/><circle cx="256" cy="444.5" r="7.5"/><circle cx="286" cy="414.5" r="7.5"/><circle cx="444.5" cy="256" r="7.5"/><path d="M437.02 74.98C388.668 26.629 324.38 0 256 0S123.332 26.629 74.98 74.98 0 187.62 0 256s26.629 132.668 74.98 181.02S187.62 512 256 512s132.668-26.629 181.02-74.98S512 324.38 512 256s-26.629-132.668-74.98-181.02zM256 497C123.112 497 15 388.888 15 256S123.112 15 256 15s241 108.112 241 241-108.112 241-241 241z"/><path d="M415.806 96.194C373.12 53.508 316.366 30 256 30c-54.611 0-107.335 19.748-148.458 55.604a7.501 7.501 0 0 0-.725 10.582 7.501 7.501 0 0 0 10.582.724C155.791 63.436 205.013 45 256 45c116.346 0 211 94.654 211 211s-94.654 211-211 211S45 372.346 45 256c0-50.987 18.436-100.209 51.91-138.601a7.5 7.5 0 1 0-11.306-9.857C49.748 148.665 30 201.389 30 256c0 60.366 23.508 117.12 66.194 159.806S195.634 482 256 482s117.12-23.508 159.806-66.194S482 316.366 482 256s-23.508-117.12-66.194-159.806z"/><path d="M351 313.5v-115c0-20.678-16.822-37.5-37.5-37.5h-115c-20.678 0-37.5 16.822-37.5 37.5v115c0 20.678 16.822 37.5 37.5 37.5h115c20.678 0 37.5-16.822 37.5-37.5zm-175 0v-115c0-12.406 10.094-22.5 22.5-22.5h115c12.406 0 22.5 10.094 22.5 22.5v115c0 12.406-10.094 22.5-22.5 22.5h-115c-12.406 0-22.5-10.094-22.5-22.5z"/><path d="M321 313.5v-115c0-4.143-3.357-7.5-7.5-7.5h-115a7.499 7.499 0 0 0-7.5 7.5v115c0 4.143 3.357 7.5 7.5 7.5h115c4.143 0 7.5-3.357 7.5-7.5zm-15-7.5H206V206h100z"/></svg>