<svg width="512" height="512" viewBox="0 0 512 512" fill="none" xmlns="http://www.w3.org/2000/svg">
  <circle cx="256" cy="256" r="256" fill="#FEDB43" />
  <path
    d="M14.5879 341.334H497.412C503.815 323.219 508.237 304.17 510.419 284.444H1.58197C3.76197 304.171 8.18396 323.22 14.5879 341.334V341.334Z"
    fill="#D80027" />
  <path
    d="M14.5879 170.777H497.412C503.815 188.892 508.237 207.941 510.419 227.667H1.58197C3.76197 207.94 8.18396 188.891 14.5879 170.777V170.777Z"
    fill="#D80027" />
  <path
    d="M95.1079 455.111H416.892C436.941 438.89 454.495 419.708 468.879 398.222H43.1229C57.5069 419.708 75.0589 438.889 95.1079 455.111V455.111Z"
    fill="#D80027" />
  <path
    d="M95.1079 57H416.892C436.941 73.221 454.495 92.403 468.879 113.889H43.1229C57.5069 92.403 75.0589 73.222 95.1079 57V57Z"
    fill="#D80027" />
</svg>