<svg xmlns="http://www.w3.org/2000/svg" version="1.1" xmlns:xlink="http://www.w3.org/1999/xlink"
  xmlns:svgjs="http://svgjs.com/svgjs" width="512" height="512" x="0" y="0" viewBox="0 0 512 512"
  style="enable-background:new 0 0 512 512" xml:space="preserve" class="">
  <g>
    <path xmlns="http://www.w3.org/2000/svg"
      d="m0 256c0 31.314 5.633 61.31 15.923 89.043l240.077 22.261 240.077-22.261c10.29-27.733 15.923-57.729 15.923-89.043s-5.633-61.31-15.923-89.043l-240.077-22.261-240.077 22.261c-10.29 27.733-15.923 57.729-15.923 89.043z"
      fill="#ffda44" data-original="#ffda44" class=""></path>
    <g xmlns="http://www.w3.org/2000/svg" fill="#d80027">
      <path d="m496.077 166.957c-36.171-97.484-130.006-166.957-240.077-166.957s-203.906 69.473-240.077 166.957z"
        fill="#d80027" data-original="#d80027" class=""></path>
      <path d="m15.923 345.043c36.171 97.484 130.006 166.957 240.077 166.957s203.906-69.473 240.077-166.957z"
        fill="#d80027" data-original="#d80027" class=""></path>
    </g>
  </g>
</svg>