<svg height="421pt" viewBox="-13 0 421 421.24" width="421pt" xmlns="http://www.w3.org/2000/svg"><path d="m114.23 233.621-35.867 18.863 6.848-39.945-29.016-28.289 40.106-5.824 17.93-36.34 17.937 36.34 40.102 5.824-29.02 28.29 6.852 39.944zm0 0" fill="#f9db5f"/><path d="m172.27 184.25-16.282-2.363-28.527 27.804 5.824 33.946 16.817 8.847-6.852-39.945zm0 0" fill="#f9ef8b"/><path d="m100.023 241.094 4.899-28.555-29.02-28.289 40.106-5.824 8.078-16.375-9.856-19.969-17.93 36.344-40.105 5.824 29.016 28.29-6.848 39.944zm0 0" fill="#f9b347"/><path d="M275.746 34.246c37.895 76.785 22.656 169.18-37.89 229.727S84.913 339.762 8.128 301.87c38.594 78.18 123.426 122.313 209.598 109.035 86.171-13.273 153.785-80.89 167.062-167.062 13.274-86.172-30.86-171.004-109.043-209.598zm0 0" fill="#f9db5f"/><path d="M275.746 34.246c3.477 7.05 6.535 14.3 9.152 21.711 65.434 51.059 92.477 137.254 67.942 216.54-24.531 79.284-95.535 135.136-178.367 140.312 4.242.27 8.52.43 12.832.43 92.86 0 173.48-63.977 194.582-154.407 21.101-90.434-22.875-183.484-106.145-224.586zm0 0" fill="#f9ef8b"/><path d="M117.71 321.379c64.392 6.676 128.024-18.246 170.755-66.871 42.73-48.63 59.262-114.942 44.36-177.938a200.507 200.507 0 0 0-57.079-42.324c28.906 58.57 27.363 127.566-4.129 184.785-31.492 57.215-88.96 95.434-153.906 102.348zM59.5 319.004A198.908 198.908 0 0 1 8.129 301.87c33.656 68.203 103.121 111.379 179.18 111.371a202.2 202.2 0 0 0 20.914-1.09A199.753 199.753 0 0 1 59.5 319.004zm0 0" fill="#f9b347"/><g fill="#16131b"><path d="M288.379 122.691a8 8 0 0 0 16 0c.058-23.777-4-47.386-12-69.777 54.32 35.281 86.996 95.742 86.758 160.512-.266 85.351-56.649 160.355-138.567 184.324a8 8 0 0 0-5.468 9.906 8 8 0 0 0 9.906 5.469c82.406-23.828 141.71-95.84 149.297-181.285 7.59-85.45-38.094-166.781-115.012-204.762a8.001 8.001 0 0 0-10.723 10.719 189.87 189.87 0 0 1 19.809 84.894zm0 0"/><path d="M187.309 421.238a8 8 0 0 0 0-16c-64.774.242-125.235-32.437-160.516-86.754a205.954 205.954 0 0 0 69.773 12c76.57.043 146.954-42.043 183.149-109.515a7.995 7.995 0 0 0-3.29-10.77c-3.866-2.082-8.687-.652-10.8 3.196-33.406 62.289-98.375 101.148-169.059 101.109a189.879 189.879 0 0 1-84.894-19.805 7.994 7.994 0 0 0-9.207 1.512 7.989 7.989 0 0 0-1.512 9.207c34.805 71.113 107.18 116.094 186.356 115.82zM295.11 184.254a207.667 207.667 0 0 0 6.933-30.32 8 8 0 0 0-6.711-9.11 8 8 0 0 0-9.11 6.711 191.7 191.7 0 0 1-6.398 27.973 7.998 7.998 0 0 0 9.414 10.3 7.988 7.988 0 0 0 5.864-5.566zm0 0"/><path d="m107.059 138.55-16.075 32.56-35.941 5.226a7.987 7.987 0 0 0-6.453 5.445 8 8 0 0 0 2.023 8.2l26 25.351-6.14 35.793a7.996 7.996 0 0 0 11.598 8.438l32.148-16.899 32.148 16.899a7.996 7.996 0 0 0 8.418-.614 8.005 8.005 0 0 0 3.184-7.82l-6.121-35.777 26-25.352a7.998 7.998 0 0 0 2.023-8.2 7.993 7.993 0 0 0-6.457-5.445l-40.094-5.847a7.995 7.995 0 0 0-7.527 2.91 8.012 8.012 0 0 0-1.16 7.988 8.007 8.007 0 0 0 6.387 4.934l24.062 3.5-17.41 16.969a8 8 0 0 0-2.3 7.082l4.108 23.968-21.523-11.308a7.992 7.992 0 0 0-7.445 0l-21.524 11.316 4.11-23.965a7.98 7.98 0 0 0-2.297-7.082l-17.418-16.98 24.066-3.5a8.004 8.004 0 0 0 6.024-4.38l10.773-21.808a8 8 0 0 0 14.043-7.648l-6.883-13.953a8.001 8.001 0 0 0-7.172-4.461 8.003 8.003 0 0 0-7.175 4.46zM49.094 66.707l58.531 7.29c.332.038.664.058 1 .058a7.999 7.999 0 0 0 7.984-7.508 8 8 0 0 0-7.007-8.434L70.52 53.25l41.562-31.71a7.995 7.995 0 0 0 2.879-8.411 7.996 7.996 0 0 0-6.668-5.879L54.633.07c-4.383-.586-8.406 2.493-8.992 6.871s2.492 8.403 6.87 8.989l34.485 4.62-41.773 31.86a8.006 8.006 0 0 0-2.871 8.45 8.004 8.004 0 0 0 6.734 5.85zM139.152 99.262a7.989 7.989 0 0 0 6.735 5.851l50.8 6.325a8.005 8.005 0 0 0 8.988-7.45 8.002 8.002 0 0 0-7.007-8.43l-31.356-3.902 34-25.953a8.007 8.007 0 0 0 2.883-8.414 8.005 8.005 0 0 0-6.675-5.879l-46.555-6.226a8 8 0 0 0-8.992 6.867 8.002 8.002 0 0 0 6.87 8.992l27.403 3.668-34.223 26.105a7.993 7.993 0 0 0-2.87 8.446zm0 0"/></g></svg>