<svg xmlns="http://www.w3.org/2000/svg" viewBox="0 0 512.006 512.006" style="enable-background:new 0 0 512.006 512.006" xml:space="preserve" width="512" height="512"><path style="fill:#aaa" d="M148.231 232.606c38.067 31.059 88.37 44.975 138.049 12.621-77.691-21.944-111.15-127.039-111.15-127.039-32.22 52.698-26.899 114.411-26.899 114.411v.007z"/><path style="fill:#e0e0e0" d="m426.203 274.279-38.962-7.663s-34.799-64.477-100.961-21.389c-98.872 64.392-200.22-54.482-202.652-127.039 0 0-93.744 161.376 59.44 265.852 0 0-68.711 13.984-128.319-4.941 0 0-3.689 70.998 44.818 125.407 0 0 66.736-80.725 130.069-76.94 63.333 3.785 132.284-3.443 166.907-63.562 24.224-42.061 69.66-89.725 69.66-89.725z"/><path style="fill:#999" d="M286.281 245.227c-10.553-2.981-20.283-7.505-29.231-13.082-39.592 12.264-77.965-1.483-108.509-26.286-1.22 16.148-.309 26.74-.309 26.74v.007c38.067 31.058 88.369 44.975 138.049 12.621z"/><path style="fill:#c4c4c4" d="M395.475 268.235c-15.347 17.405-40.24 47.287-56.072 74.778-34.623 60.119-103.574 67.347-166.907 63.562-59.424-3.551-121.842 67.294-129.321 76.054 4.666 7.444 10.084 14.801 16.392 21.877 0 0 66.736-80.725 130.069-76.94 63.333 3.785 132.284-3.443 166.907-63.562 24.224-42.062 69.66-89.725 69.66-89.725l-30.728-6.044z"/><path style="fill:#45bf7f" d="M360.348 33.86c14.099 21.38 6.797 51.065 6.797 51.065s-30.161-4.98-44.26-26.36c-14.1-21.381-6.797-51.065-6.797-51.065s30.161 4.979 44.26 26.36zM384.668 168.72c24.212 8.346 36.529 36.324 36.529 36.324s-26.94 14.448-51.152 6.102-36.529-36.324-36.529-36.324 26.939-14.448 51.152-6.102zM405.537 94.028c-12.753 22.21-3.632 51.387-3.632 51.387s29.796-6.831 42.549-29.041c12.753-22.209 3.633-51.387 3.633-51.387s-29.797 6.832-42.55 29.041zM447.524 205.76c-19.445 16.667-20.606 47.214-20.606 47.214s30.366 3.525 49.811-13.142c19.445-16.667 20.606-47.214 20.606-47.214s-30.366-3.524-49.811 13.142z"/><path style="fill:#00b76c" d="M322.884 58.564c14.099 21.38 44.26 26.36 44.26 26.36L316.088 7.5s-7.303 29.684 6.796 51.064zM370.044 211.146c24.213 8.346 51.152-6.102 51.152-6.102l-87.681-30.222s12.317 27.978 36.529 36.324zM444.454 116.374c12.753-22.209 3.633-51.387 3.633-51.387l-46.182 80.428s29.796-6.831 42.549-29.041zM476.729 239.833c19.445-16.667 20.606-47.214 20.606-47.214l-70.417 60.356s30.366 3.525 49.811-13.142z"/><path d="M94.63 460c-15.769 12.81-28.11 25.529-34.941 33.012-30.725-38.642-36.369-84.392-37.316-103.92 58.068 15.022 119.462 2.854 122.19 2.298a7.498 7.498 0 0 0 2.73-13.545c-58.731-40.056-87.122-93.106-84.383-157.676a7.499 7.499 0 0 0-7.175-7.811c-4.142-.2-7.636 3.037-7.811 7.175-1.313 30.962 4.192 60.033 16.363 86.403 12.705 27.526 32.725 52.142 59.634 73.363-23.775 2.742-67.636 5.119-106.903-7.348a7.5 7.5 0 0 0-9.76 6.759c-.157 3.025-3.274 74.722 46.71 130.787a7.498 7.498 0 0 0 5.599 2.508l.138-.001a7.505 7.505 0 0 0 5.641-2.717c.156-.188 15.874-19.068 38.742-37.645a7.5 7.5 0 0 0 1.092-10.55A7.5 7.5 0 0 0 94.63 460zM343.542 279.296c0-7.84-6.378-14.218-14.218-14.218s-14.218 6.378-14.218 14.218 6.378 14.218 14.218 14.218c7.839 0 14.218-6.379 14.218-14.218z"/><path d="M498.199 185.168c-1.372-.158-33.871-3.689-55.557 14.898-4.929 4.225-8.805 9.179-11.867 14.325-2.845-16.732-7.342-33.677-13.484-50.68a332.542 332.542 0 0 0-5.256-13.602c10.754-3.941 29.062-12.827 38.922-29.999 14.222-24.768 4.699-56.04 4.287-57.359a7.502 7.502 0 0 0-8.834-5.073c-1.347.309-33.156 7.849-47.377 32.617-3.599 6.268-5.674 12.952-6.764 19.463-7.5-13.094-13.925-22.301-17.112-26.655 1.601-9.191 4.275-33.924-8.548-53.37C350.886 5.887 318.673.325 317.309.1a7.504 7.504 0 0 0-8.504 5.608c-.33 1.342-7.905 33.142 7.818 56.985 13.088 19.847 37.587 27.023 46.223 29.002 5.761 7.892 25.958 37.11 40.496 77.546.212.59.41 1.18.618 1.77-4.868-3.838-10.474-7.185-16.848-9.382-27.002-9.308-55.923 5.931-57.141 6.584a7.5 7.5 0 0 0-3.319 9.631c.557 1.265 13.948 31.086 40.949 40.393 6.287 2.167 12.674 3.003 18.796 3.003 11.617 0 22.255-3.013 29.374-5.665 2.077 11.832 3.272 23.536 3.572 35.052a218.07 218.07 0 0 1-.127 14.636l-27.268-5.364c-5.109-7.963-20.436-28.514-45.999-35.022-19.203-4.889-39.626-.789-60.751 12.171-10.79-3.44-21.301-8.809-31.283-16.034a7.5 7.5 0 0 0-8.795 12.151c7.491 5.422 15.272 9.932 23.259 13.504-35.988 17.015-68.465 8.159-90.357-3.238-7.693-4.005-15.234-8.934-22.49-14.614-.453-11.535-.54-52.973 18.382-92.646 7.711 18.458 23.149 49.833 47.675 76.062a7.5 7.5 0 1 0 10.956-10.246c-34.186-36.56-50.113-85.585-50.269-86.073-1.908-5.992-10.257-7.015-13.545-1.637-22.817 37.319-27.579 78.429-28.262 101.236-8.751-8.683-16.84-18.484-23.939-29.119-15.464-23.167-24.725-48.119-25.407-68.457-.109-3.253-2.389-6.131-5.529-6.984-3.24-.881-6.765.565-8.452 3.469-.73 1.257-17.97 31.273-25.733 74.176-.728 4.023 2.023 7.986 6.044 8.715 4.022.729 7.988-2.022 8.715-6.044 3.467-19.159 9.035-35.741 13.929-47.879 4.536 16.783 12.77 34.574 23.956 51.333 17.885 26.793 41.693 48.816 67.041 62.013 14.978 7.798 34.287 14.561 56.219 14.56 19.371-.001 40.791-5.279 63.06-19.782 18.491-12.042 35.902-16.126 51.751-12.131 24.865 6.263 38.393 30.569 38.518 30.797a7.497 7.497 0 0 0 5.153 3.797l25.817 5.078c-14.692 16.321-43.583 49.98-61.568 81.208-14.895 25.863-37.251 42.972-68.345 52.305-24.622 7.39-53.738 9.776-91.617 7.514-20.884-1.244-43.967 5.736-68.568 20.759-3.215 1.964-4.486 6.158-2.888 9.573 1.868 3.992 6.937 5.53 10.706 3.229 21.936-13.396 42.072-19.65 59.855-18.587 56.061 3.351 135.082.019 173.854-67.306 14.511-25.197 37.104-52.783 52.359-70.3a204.175 204.175 0 0 1-15.202 46.442c-1.615 3.466-.287 7.711 3.013 9.641 3.766 2.202 8.746.639 10.584-3.307 11.069-23.764 17.706-48.927 19.848-75.074.019-.166.027-.332.036-.499.366-4.591.588-9.212.676-13.861 11.349-.053 31.982-2.171 47.255-15.263 21.685-18.586 23.167-51.243 23.22-52.624a7.502 7.502 0 0 0-6.631-7.737zm-86.158-87.405c7.361-12.82 21.825-19.901 30.547-23.173 1.585 9.16 2.762 25.161-4.639 38.05-7.361 12.819-21.825 19.901-30.547 23.172-1.584-9.159-2.762-25.16 4.639-38.049zm-39.553 106.292c-13.964-4.813-23.636-17.669-28.495-25.621 8.732-3.272 24.268-7.438 38.231-2.624 13.964 4.813 23.636 17.669 28.495 25.622-8.731 3.271-24.269 7.435-38.231 2.623zM329.145 54.436c-8.138-12.341-7.956-28.444-6.954-37.706 8.894 2.705 23.713 8.851 31.896 21.259 8.131 12.331 7.956 28.418 6.957 37.683-8.916-2.732-23.769-8.908-31.899-21.236zm142.703 179.702c-11.224 9.62-27.223 11.458-36.538 11.624 1.57-9.163 5.81-24.636 17.095-34.308 11.215-9.612 27.197-11.455 36.515-11.624-1.594 9.188-5.859 24.698-17.072 34.308z"/></svg>