<svg xmlns="http://www.w3.org/2000/svg" viewBox="0 0 511.997 511.997" style="enable-background:new 0 0 511.997 511.997" xml:space="preserve" width="512" height="512"><path style="fill:#66bb6a" d="M382.538 338.834c64.633-17.318 107.519-66.85 107.519-66.85s-41.05-14.225-91.195-10.157c-2.228.181-3.471-2.504-1.922-4.116 56.459-58.792 69.63-133.132 70.154-134.106 0 0-79.266 15.245-137.558 73.537-9.483 9.483-17.827 19.521-25.151 29.683-1.529 2.122-4.873.672-4.353-1.891 3.421-16.859 5.584-34.975 5.584-53.835 0-90.355-49.617-163.601-49.617-163.601s-49.617 73.247-49.617 163.601c0 18.861 2.162 36.976 5.584 53.835.52 2.563-2.823 4.013-4.353 1.891-7.324-10.162-15.668-20.2-25.151-29.683-58.292-58.292-137.558-73.537-137.558-73.537.064.119 14.526 76.05 70.162 134.108 1.546 1.614.304 4.296-1.924 4.115-50.148-4.07-91.201 10.156-91.201 10.156s42.886 49.532 107.519 66.85c17.041 4.566 33.892 6.437 49.469 6.716 2.545.046 3.336 3.48 1.05 4.601a127.005 127.005 0 0 0-7.606 4.052c-39.303 22.692-58.704 62.67-58.704 62.67s44.322 3.187 83.626-19.504c39.303-22.692 58.704-62.67 58.704-62.67s19.401 39.978 58.704 62.67 83.626 19.504 83.626 19.504-19.401-39.978-58.704-62.67a128.165 128.165 0 0 0-7.606-4.052c-2.286-1.121-1.495-4.556 1.05-4.601 15.576-.279 32.428-2.15 49.469-6.716z"/><path style="fill:#388e3c" d="M416.382 140.098c-9.861 27.049-27.891 64.757-59.443 97.613-1.549 1.612-.306 4.297 1.922 4.116 18.802-1.526 36.326-.479 50.886 1.425 45.686-55.83 56.864-118.752 57.346-119.648 0 .001-21.687 4.176-50.711 16.494zM341.48 345.245c13.155-.723 27.042-2.656 41.058-6.411 55.573-14.891 95.068-53.596 105.049-64.155 1.18-1.248.64-3.299-1.006-3.79-6.906-2.061-23.591-6.496-45.447-8.617a2.314 2.314 0 0 0-1.809.617c-16.57 15.602-51.288 43.753-96.787 55.945-14.015 3.755-27.902 5.687-41.058 6.411-4.723.26-6.137 6.496-2.037 8.854l.181.104c32.519 18.775 51.414 49.384 56.967 59.391.843 1.518-.237 3.385-1.973 3.414-6.54.111-21.08-.188-38.408-3.966-2.558-.558-3.941 2.917-1.676 4.229l.168.097c32.519 18.775 68.474 19.834 79.918 19.64 1.737-.029 2.814-1.895 1.971-3.414-5.554-10.007-24.448-40.616-56.967-59.391l-.181-.104c-4.1-2.358-2.686-8.594 2.037-8.854zM255.998 334.7s-3.097 6.381-9.322 15.491l-9.101 134.596c-.721 10.664 7.734 19.71 18.422 19.71s19.143-9.046 18.422-19.71L265.32 350.19c-6.225-9.11-9.322-15.49-9.322-15.49z"/><path d="M248.498 88.627V196.14a7.5 7.5 0 0 0 7.5 7.5 7.5 7.5 0 0 0 7.5-7.5V88.627a7.5 7.5 0 0 0-15 0z"/><path d="M101.224 253.678c-31.445-36.222-52.294-80.722-63.489-127.87-1.665-5.413 3.049-10.628 8.585-9.568 3.329.641 82.207 16.36 141.445 75.599a241.203 241.203 0 0 1 13.51 14.699c-1.591-11.99-2.394-23.849-2.394-35.439 0-91.603 48.829-164.739 50.908-167.808 2.972-4.39 9.449-4.385 12.418 0 2.079 3.069 50.908 76.205 50.908 167.808 0 11.59-.803 23.449-2.394 35.439a240.28 240.28 0 0 1 13.511-14.699C383.47 132.6 462.348 116.88 465.677 116.24c5.536-1.06 10.25 4.156 8.585 9.568-11.195 47.147-32.044 91.648-63.489 127.87 45.207-1.224 80.146 10.667 81.739 11.22 5.003 1.734 6.685 7.986 3.214 11.996-.592.684-14.786 16.955-39.168 34.313a7.5 7.5 0 0 1-8.699-12.219c12.247-8.719 21.793-17.183 28.05-23.201-15.314-3.769-44.053-9.112-76.44-6.483-9.081.745-14.274-10.186-7.94-16.785 39.885-41.532 57.903-91.369 65.293-118.645-23.769 6.618-79.095 25.685-121.981 68.573-8.643 8.642-16.842 18.32-24.371 28.765-2.762 3.833-7.715 5.188-12.042 3.294-4.321-1.891-6.684-6.44-5.744-11.063 3.605-17.765 5.434-35.375 5.434-52.343 0-67.841-29.059-126.318-42.111-149.159-13.047 22.87-42.123 81.441-42.123 149.159 0 16.967 1.828 34.578 5.435 52.343.938 4.623-1.424 9.172-5.746 11.063-4.325 1.893-9.278.539-12.042-3.295-7.528-10.445-15.728-20.123-24.369-28.765-42.998-42.998-98.287-62.011-122.015-68.593 6.473 23.473 24.593 76.155 65.336 118.672 6.316 6.588 1.151 17.526-7.946 16.779-32.467-2.636-61.132 2.694-76.424 6.465 15.242 14.607 49.916 43.664 95.291 55.821 14.883 3.988 30.918 6.162 47.662 6.462a9.916 9.916 0 0 1 9.527 7.784 9.883 9.883 0 0 1-5.31 11.051c-23.266 11.41-42.604 30.805-56.551 52.435 15.333-.768 42.29-4.288 66.814-18.447 26.497-15.298 43.578-39.101 51.165-51.435L119.92 306.002a7.5 7.5 0 0 1 3.883-14.49l107.099 28.697-114.344-114.343a7.5 7.5 0 0 1 10.607-10.606l121.333 121.333V231.14a7.5 7.5 0 0 1 7.5-7.5 7.5 7.5 0 0 1 7.5 7.5v85.453L384.831 195.26a7.5 7.5 0 0 1 10.607 10.606L281.095 320.21l107.099-28.697a7.501 7.501 0 0 1 3.883 14.49l-124.774 33.433c7.618 12.349 24.751 36.197 51.15 51.439 24.509 14.15 51.45 17.675 66.791 18.445-14.044-21.732-33.377-41.085-56.527-52.433a9.883 9.883 0 0 1-5.31-11.051 9.917 9.917 0 0 1 9.527-7.784c31.658-.567 58.912-7.517 85.968-21.389a7.5 7.5 0 0 1 6.844 13.348c-24.701 12.666-48.844 19.62-75.285 22.088 36.062 23.889 53.832 59.887 54.615 61.501 2.316 4.77-.927 10.376-6.209 10.755-1.905.138-47.089 3.083-87.914-20.49-14.924-8.616-27.065-19.507-36.511-29.943l7.463 110.359c1.013 14.981-10.894 27.716-25.905 27.716-15.015 0-26.919-12.739-25.904-27.716l2.181-32.251c.279-4.133 3.873-7.257 7.988-6.977a7.5 7.5 0 0 1 6.977 7.989l-2.18 32.251c-.433 6.376 4.623 11.704 10.938 11.704 6.39 0 11.365-5.402 10.939-11.704l-8.961-132.529a172.648 172.648 0 0 1-1.979-3.037c-.615.967-1.277 1.983-1.978 3.035l-4.421 65.359a7.5 7.5 0 1 1-14.967-1.012l2.921-43.187c-9.446 10.436-21.588 21.326-36.511 29.942-40.825 23.572-86.009 20.627-87.914 20.49-5.282-.379-8.525-5.985-6.209-10.755.783-1.615 18.554-37.612 54.615-61.501-11.784-1.1-23.173-3.113-34.019-6.019-66.097-17.71-109.435-67.093-111.247-69.186-3.471-4.008-1.79-10.262 3.214-11.996 1.593-.552 36.542-12.464 81.777-11.219h-.036z"/></svg>