<svg height="512" viewBox="0 0 512.002 512.002" width="512" xmlns="http://www.w3.org/2000/svg"><path d="M391.501 187.848h-30v166h30c45.84 0 83-37.16 83-83s-37.16-83-83-83z" fill="#db2116"/><path d="M444.501 270.848c0-45.84-37.16-83-83-83h-241c-45.84 0-83 37.16-83 83s37.16 83 83 83h241c45.84 0 83-37.16 83-83z" fill="#ff3a2f"/><path d="M376.501 97.501c-55.512 0-102.763 35.34-120.5 84.748-17.737-49.407-64.988-84.748-120.5-84.748-70.692 0-128 57.308-128 128 0 49.629 28.246 92.659 69.538 113.897l51.38-16.154c-50.818-3.63-90.918-46.001-90.918-97.743 0-54.124 43.876-98 98-98s98 43.876 98 98h45c0-54.124 43.876-98 98-98s98 43.876 98 98c0-70.692-30.543-128-98-128z" fill="#ffba48"/><path d="M376.501 97.501c54.124 0 98 57.308 98 128 0 51.742-40.1 94.113-90.917 97.743l51.379 16.154c41.292-21.238 69.538-64.268 69.538-113.897 0-70.692-57.308-128-128-128z" fill="#ff9a42"/><path d="m256.001 52.501-10 30 10 30c16.569 0 30-13.431 30-30s-13.432-30-30-30z" fill="#2fb3ea"/><path d="M226.001 82.501c0 16.569 13.431 30 30 30v-60c-16.569 0-30 13.432-30 30z" fill="#25d4f2"/><path d="M256.001 112.501c-16.569 0-30 13.431-30 30v182h60v-182c0-16.568-13.431-30-30-30z" fill="#ff9a42"/><path d="m372.751 328.824-116.75-4.323-116.75 4.323-58.375 25.677 175.125 60 175.125-60z" fill="#ff3a2f"/><path d="M431.126 354.501c-21.38 0-41.963-7.401-58.375-20.677-16.412 13.276-36.995 20.677-58.375 20.677s-41.963-7.401-58.375-20.677c-16.411 13.276-36.995 20.677-58.375 20.677s-41.963-7.4-58.375-20.677c-16.411 13.276-36.994 20.677-58.375 20.677-26.612 0-51.988-11.465-69.624-31.457-5.48-6.212-4.887-15.691 1.326-21.171 6.211-5.482 15.691-4.887 21.171 1.326 11.943 13.538 29.12 21.302 47.126 21.302 18.008 0 35.185-7.764 47.126-21.302a15 15 0 0 1 22.498 0c11.942 13.538 29.119 21.302 47.126 21.302s35.184-7.764 47.126-21.302a15 15 0 0 1 22.498 0c11.942 13.538 29.119 21.302 47.126 21.302s35.184-7.765 47.126-21.302a15 15 0 0 1 22.498 0c11.942 13.538 29.119 21.302 47.126 21.302 18.008 0 35.185-7.764 47.126-21.302 5.481-6.212 14.96-6.806 21.172-1.326 6.213 5.48 6.807 14.959 1.326 21.172-17.633 19.991-43.01 31.456-69.623 31.456z" fill="#ffba48"/><path d="M399.501 369.501h60v120h-60z" fill="#ff9a42"/><path d="M52.501 369.501h377v120h-377z" fill="#ffba48"/><circle cx="350.251" cy="429.501" fill="#fff" r="15"/><circle cx="161.751" cy="429.501" fill="#fff" r="15"/><path d="M271.001 414.501h-30c-8.284 0-15 6.716-15 15s6.716 15 15 15h30c8.284 0 15-6.716 15-15s-6.716-15-15-15z" fill="#ff3a2f"/><path d="M82.501 414.501h-30c-8.284 0-15 6.716-15 15s6.716 15 15 15h30c8.284 0 15-6.716 15-15s-6.716-15-15-15z" fill="#0abf52"/><path d="M459.501 354.501h-30v30h30c8.284 0 15-6.716 15-15s-6.716-15-15-15z" fill="#ff7a3c"/><path d="M444.501 369.501c0-8.284-6.716-15-15-15h-377c-8.284 0-15 6.716-15 15s6.716 15 15 15h377c8.284 0 15-6.716 15-15z" fill="#ff9a42"/><path d="M459.501 474.501h-30v30h30c8.284 0 15-6.716 15-15s-6.716-15-15-15z" fill="#ff7a3c"/><path d="M444.501 489.501c0-8.284-6.716-15-15-15h-377c-8.284 0-15 6.716-15 15s6.716 15 15 15h377c8.284 0 15-6.716 15-15z" fill="#ff9a42"/><path d="M459.501 414.501h-30v30h30c8.284 0 15-6.716 15-15s-6.716-15-15-15z" fill="#1da575"/><circle cx="429.501" cy="429.501" fill="#0abf52" r="15"/><circle cx="256.001" cy="142.501" r="7.5"/><circle cx="256.001" cy="205.311" r="7.5"/><circle cx="256.001" cy="268.122" r="7.5"/><path d="M350.251 407.001c-12.407 0-22.5 10.093-22.5 22.5s10.093 22.5 22.5 22.5 22.5-10.093 22.5-22.5-10.093-22.5-22.5-22.5zm0 30c-4.136 0-7.5-3.364-7.5-7.5s3.364-7.5 7.5-7.5 7.5 3.364 7.5 7.5-3.364 7.5-7.5 7.5zM161.751 407.001c-12.407 0-22.5 10.093-22.5 22.5s10.093 22.5 22.5 22.5 22.5-10.093 22.5-22.5-10.093-22.5-22.5-22.5zm0 30c-4.136 0-7.5-3.364-7.5-7.5s3.364-7.5 7.5-7.5 7.5 3.364 7.5 7.5-3.364 7.5-7.5 7.5zM271.001 407.001h-30c-12.407 0-22.5 10.093-22.5 22.5s10.093 22.5 22.5 22.5h30c12.407 0 22.5-10.093 22.5-22.5s-10.093-22.5-22.5-22.5zm0 30h-30c-4.136 0-7.5-3.364-7.5-7.5s3.364-7.5 7.5-7.5h30c4.136 0 7.5 3.364 7.5 7.5s-3.364 7.5-7.5 7.5z"/><path d="M504.385 296.248a22.327 22.327 0 0 0-9.406-4.928c11.182-20.015 17.022-42.435 17.022-65.819 0-74.715-60.785-135.5-135.5-135.5-32.892 0-63.924 11.625-88.52 32.94a37.792 37.792 0 0 0-9.506-10.44c9.117-6.847 15.026-17.746 15.026-30 0-18.11-12.904-33.261-30-36.745V30.001h7.5a7.5 7.5 0 0 0 0-15h-7.5v-7.5a7.5 7.5 0 0 0-15 0v7.5h-7.5a7.5 7.5 0 0 0 0 15h7.5v15.755c-17.096 3.484-30 18.635-30 36.745 0 12.254 5.909 23.153 15.026 30a37.792 37.792 0 0 0-9.506 10.44c-24.597-21.315-55.628-32.94-88.52-32.94-74.715 0-135.5 60.785-135.5 135.5 0 23.378 5.836 45.792 17.013 65.802a22.376 22.376 0 0 0-9.397 4.945 22.356 22.356 0 0 0-7.572 15.467 22.353 22.353 0 0 0 5.583 16.29 100.456 100.456 0 0 0 32.346 24.333c-4.872 4.13-7.973 10.29-7.973 17.162 0 9.778 6.271 18.114 15 21.21v17.575c-8.73 3.095-15 11.437-15 21.215s6.271 18.114 15 21.21v17.58c-8.729 3.096-15 11.432-15 21.21 0 12.407 10.093 22.5 22.5 22.5h407c12.407 0 22.5-10.093 22.5-22.5 0-9.778-6.271-18.114-15-21.21v-17.58c8.729-3.096 15-11.432 15-21.21s-6.27-18.12-15-21.215V390.71c8.729-3.096 15-11.432 15-21.21 0-6.873-3.101-13.031-7.972-17.162a100.456 100.456 0 0 0 32.346-24.333c3.976-4.507 5.959-10.293 5.583-16.291s-3.066-11.49-7.573-15.466zM376.501 105.001c66.444 0 120.5 54.056 120.5 120.5 0 26.691-8.553 51.966-24.728 73.117-10.502 11.684-25.464 18.383-41.147 18.383-.695 0-1.387-.03-2.079-.056 12.402-7.16 23.392-16.817 31.999-28.329 13.708-18.335 20.955-40.16 20.955-63.115 0-58.173-47.327-105.5-105.5-105.5-33.013 0-63.33 15.221-83 40.328v-17.828c0-1.385-.081-2.75-.228-4.097 22.527-21.566 51.931-33.403 83.228-33.403zm-83 90.347h98c33.412 0 62.884 22.097 72.349 53.96-7.673 28.484-28.885 51.755-57.69 61.711a55.466 55.466 0 0 1-16.535-12.781c-4.27-4.84-10.42-7.616-16.874-7.616s-12.604 2.776-16.874 7.616c-10.52 11.924-25.646 18.764-41.501 18.764a55.187 55.187 0 0 1-20.875-4.12zm4.557-15c16.009-27.872 45.677-45.347 78.443-45.347 48.322 0 87.92 38.069 90.378 85.791-16.445-24.704-44.51-40.444-75.378-40.444zm-64.557-97.847c0-12.407 10.093-22.5 22.5-22.5s22.5 10.093 22.5 22.5-10.093 22.5-22.5 22.5-22.5-10.093-22.5-22.5zm22.5 37.5c12.407 0 22.5 10.093 22.5 22.5v161.244a55.36 55.36 0 0 1-5.626-5.508c-4.27-4.84-10.42-7.616-16.874-7.616s-12.604 2.776-16.874 7.616a55.464 55.464 0 0 1-5.626 5.508V142.501c0-12.407 10.093-22.5 22.5-22.5zM105.843 311.019c-28.805-9.956-50.018-33.227-57.691-61.711 9.465-31.863 38.937-53.96 72.349-53.96h98v117.533a55.187 55.187 0 0 1-20.875 4.12c-15.856 0-30.983-6.839-41.501-18.764-4.27-4.84-10.42-7.616-16.874-7.616s-12.604 2.776-16.874 7.616a55.44 55.44 0 0 1-16.534 12.782zm-60.72-90.228c2.458-47.721 42.056-85.79 90.378-85.79 32.765 0 62.434 17.475 78.443 45.347h-93.443c-30.869 0-58.933 15.74-75.378 40.443zm90.378-115.79c31.296 0 60.701 11.837 83.228 33.404a37.705 37.705 0 0 0-.228 4.096v17.828c-19.67-25.107-49.987-40.328-83-40.328-58.173 0-105.5 47.327-105.5 105.5 0 22.955 7.246 44.78 20.955 63.115 8.607 11.512 19.597 21.169 31.999 28.329-.692.026-1.383.056-2.078.056-15.681 0-30.642-6.698-41.145-18.381-16.176-21.151-24.73-46.427-24.73-73.119-.001-66.444 54.055-120.5 120.499-120.5zm324 392h-407c-4.136 0-7.5-3.364-7.5-7.5s3.364-7.5 7.5-7.5h407c4.136 0 7.5 3.364 7.5 7.5s-3.364 7.5-7.5 7.5zm0-60h-30c-4.136 0-7.5-3.364-7.5-7.5s3.364-7.5 7.5-7.5a7.5 7.5 0 0 0 0-15c-12.407 0-22.5 10.093-22.5 22.5s10.093 22.5 22.5 22.5h22.5v15h-392v-15h22.5c12.407 0 22.5-10.093 22.5-22.5s-10.093-22.5-22.5-22.5a7.5 7.5 0 0 0 0 15c4.136 0 7.5 3.364 7.5 7.5s-3.364 7.5-7.5 7.5h-30c-4.136 0-7.5-3.364-7.5-7.5s3.364-7.5 7.5-7.5a7.5 7.5 0 0 0 7.5-7.5v-22.5h392v22.5a7.5 7.5 0 0 0 7.5 7.5c4.136 0 7.5 3.364 7.5 7.5s-3.364 7.5-7.5 7.5zm0-75c4.136 0 7.5 3.364 7.5 7.5s-3.364 7.5-7.5 7.5h-407c-4.136 0-7.5-3.364-7.5-7.5s3.364-7.5 7.5-7.5zm-325.928-15a99.858 99.858 0 0 0 5.678-3.757 100.575 100.575 0 0 0 5.678 3.757zm116.749 0a100.24 100.24 0 0 0 5.679-3.757 99.7 99.7 0 0 0 5.679 3.757zm116.75 0a100.24 100.24 0 0 0 5.679-3.757 99.7 99.7 0 0 0 5.679 3.757zm128.054-28.918c-16.21 18.378-39.538 28.918-64 28.918-19.449 0-38.505-6.75-53.658-19.008-1.375-1.113-3.046-1.669-4.717-1.669s-3.341.556-4.717 1.669c-15.153 12.258-34.209 19.008-53.658 19.008s-38.505-6.75-53.658-19.008a7.498 7.498 0 0 0-9.434 0c-15.151 12.258-34.208 19.008-53.658 19.008s-38.506-6.75-53.658-19.008a7.5 7.5 0 0 0-9.434 0c-15.151 12.257-34.208 19.008-53.658 19.008-24.46 0-47.787-10.54-63.999-28.918-1.326-1.502-1.986-3.431-1.861-5.43s1.021-3.83 2.525-5.157a7.431 7.431 0 0 1 5.428-1.86 7.45 7.45 0 0 1 5.157 2.524c13.366 15.151 32.593 23.841 52.75 23.841 20.159 0 39.386-8.689 52.75-23.841a7.5 7.5 0 0 1 11.25 0c13.365 15.151 32.592 23.841 52.75 23.841s39.386-8.689 52.75-23.841a7.502 7.502 0 0 1 11.249 0c13.366 15.151 32.593 23.841 52.75 23.841s39.385-8.689 52.75-23.841a7.5 7.5 0 0 1 11.25 0c13.366 15.151 32.593 23.841 52.75 23.841 20.159 0 39.386-8.689 52.75-23.84 2.737-3.101 7.485-3.4 10.587-.664a7.45 7.45 0 0 1 2.524 5.155c.126 2-.535 3.929-1.86 5.431z"/></svg>