<svg xmlns="http://www.w3.org/2000/svg" viewBox="0 0 512 512" style="enable-background:new 0 0 512 512" xml:space="preserve"><path style="fill:#f25f89" d="M260.629 62.52c-56.975-10.538-118.013-3.021-173.73 17.904-5.721 1.804-11.856-1.273-13.801-6.983-1.978-5.79 1.11-12.07 6.9-14.046 32.461-11.062 18.473-52.103-13.987-41.04C37.58 28.046 22.365 59 32.056 87.427c8.754 25.681 29.492 35.169 49.15 35.994 7.101.298 14.06-.54 20.259-2.148l20.148-6.87c41.659-12.688 86.238-16.996 128.244-9.766l-5.493 21.498 21.039 5.35c29.639 7.539 56.194 22.787 77.426 43.486 20.7 21.231 35.945 47.786 43.484 77.423l5.353 21.041 21.493-5.495c7.233 42.004 2.921 86.588-9.764 128.245l-6.867 20.146a69.685 69.685 0 0 0-2.15 20.26c.822 19.657 10.315 40.398 35.989 49.152 28.429 9.692 59.386-5.525 69.078-33.956 11.065-32.461-29.979-46.45-41.044-13.989a11.055 11.055 0 0 1-14.044 6.902 11.055 11.055 0 0 1-6.981-13.802c20.921-55.714 28.441-116.75 17.9-173.728l20.59-5.261-5.338-20.99c-11.454-45.025-34.688-85.305-66.246-117.4-32.098-31.563-72.378-54.796-117.403-66.249l-20.987-5.34-5.263 20.59z"/><path style="fill:#c9284b" d="M433.394 21.632c-31.124 7.036-32.561 55.142 8.893 53.88-1.263 41.456 46.844 40.019 53.878 8.892 3.058-13.537.844-28.956-5.428-57.342-28.389-6.272-43.807-8.49-57.343-5.43z"/><path style="fill:#f9993a" d="m95.922 362.14-28.643 28.643-46.481 46.481 41.495 18.241 18.244 41.492 28.485-28.49 46.636-46.629-18.242-41.497z"/><path style="fill:#000003" d="M139.677 31.492c.645 0 1.303-.059 1.963-.181 15.541-2.892 31.211-4.798 46.573-5.665 5.882-.334 10.379-5.371 10.048-11.252a10.657 10.657 0 0 0-11.252-10.048c-16.265.918-32.842 2.933-49.271 5.991-5.792 1.077-9.613 6.646-8.536 12.437.954 5.133 5.435 8.718 10.475 8.718z"/><path style="fill:#000003" d="M505.939 421.694c-5.832-8.148-15.3-13.012-25.331-13.012-14.526 0-26.905 9.838-32.302 25.675a.39.39 0 0 1-.369.271.45.45 0 0 1-.14-.027.38.38 0 0 1-.267-.404c21.187-56.634 28.005-114.869 19.883-169.12l11.094-2.833c5.702-1.458 9.148-7.259 7.696-12.964l-5.338-20.99c-10.83-42.573-32.088-81.963-61.714-114.556l16.525-16.525c2.033 4.4 4.55 7.716 6.892 10.129 6.614 6.821 15.679 10.577 25.525 10.579h.002c18.507 0 34.328-12.815 38.473-31.161 3.561-15.756 1.09-32.544-5.417-61.994a10.667 10.667 0 0 0-8.114-8.114c-19.679-4.348-34.344-7.044-46.635-7.044-5.499 0-10.524.531-15.36 1.625-19.842 4.485-33.136 22.822-30.922 42.654 1.173 10.521 7.316 22.282 20.416 28.296l-16.469 16.47c-32.593-29.629-71.983-50.89-114.557-61.717l-20.988-5.34c-5.705-1.447-11.506 1.994-12.964 7.696l-2.836 11.1c-14.591-2.171-29.636-3.27-44.862-3.27-40.813 0-83.771 8.006-124.265 23.154l-.027.002a.4.4 0 0 1-.373-.279c-.019-.057-.054-.158.017-.302.073-.146.181-.183.231-.201 20.566-7.01 27.504-23.829 25.258-37.39-2.569-15.478-15.769-26.289-32.104-26.289-4.547 0-9.267.822-14.027 2.446-16.449 5.606-29.732 17.292-37.406 32.903s-8.812 33.263-3.205 49.709c8.122 23.823 27.047 39.202 51.642 42.573l81.357 214.309-19.929 19.93-34.817-15.307a10.67 10.67 0 0 0-11.836 2.221l-75.124 75.126c-.063.063-.114.131-.176.194a9.323 9.323 0 0 0-.459.509c-.099.118-.192.24-.285.363-.114.15-.229.3-.336.457-.112.164-.215.332-.318.5-.075.125-.151.247-.221.375-.115.208-.219.421-.319.636-.034.075-.076.144-.109.219-.014.031-.025.064-.036.096-.095.221-.177.446-.256.671-.041.116-.085.234-.122.35a9.262 9.262 0 0 0-.157.588c-.039.153-.081.306-.113.459-.031.155-.052.31-.077.465-.03.194-.064.389-.083.583-.013.121-.015.242-.022.365-.015.223-.031.448-.032.671-.001.114.01.229.012.343.007.225.013.448.033.673.013.144.037.288.057.431.026.19.047.379.081.564.037.194.087.385.134.577.033.133.061.271.099.404.063.221.142.437.22.656.036.102.068.206.108.306.083.212.182.421.282.629.048.107.092.212.145.315.093.181.197.354.301.531.075.129.146.258.227.385.09.138.189.271.285.406.113.158.223.317.343.468.083.105.172.202.258.302.15.175.301.346.463.512.027.027.049.057.075.083.063.063.131.114.196.175.164.158.331.313.508.461.116.098.236.188.356.279.153.116.305.234.465.341.159.111.322.208.485.308.129.079.258.158.394.234.201.109.404.208.608.304.081.037.157.083.238.118L54.198 463.6l16.573 37.692c.019.046.047.083.067.127.181.398.386.785.619 1.163.037.061.07.125.109.183.244.379.516.743.813 1.095.09.107.183.204.277.306.112.125.218.254.337.375.118.118.247.221.371.334.102.094.201.19.306.277.345.291.7.558 1.071.8.052.033.107.061.159.094.347.217.705.409 1.07.581a10.427 10.427 0 0 0 1.561.606l.01.002a10.846 10.846 0 0 0 1.666.336c.405.052.813.085 1.22.09.038 0 .078.009.116.009.334 0 .67-.021 1.005-.052h.013c.197-.019.394-.057.592-.085.158-.025.317-.044.473-.073.142-.029.284-.07.425-.105.214-.052.429-.105.64-.169.111-.035.221-.077.332-.116.239-.081.475-.169.708-.267.033-.015.067-.025.101-.039.08-.035.154-.079.235-.116.206-.098.412-.196.612-.308.134-.073.262-.153.393-.232.163-.098.325-.198.484-.306.16-.11.315-.227.468-.346.118-.092.237-.179.352-.277.178-.148.347-.304.514-.465.063-.059.129-.111.19-.171l75.121-75.119a10.671 10.671 0 0 0 2.223-11.836l-15.307-34.819 19.928-19.93 214.351 81.373c3.058 21.829 15.917 42.553 42.531 51.627a64.881 64.881 0 0 0 20.979 3.491h.005c27.872-.002 52.639-17.725 61.63-44.103 4.243-12.448 2.964-24.358-3.602-33.533zM435.746 32.036c3.274-.739 6.759-1.1 10.656-1.1 9.049 0 20.433 1.913 35.365 5.092 4.629 21.773 6.404 35.344 3.991 46.025-2.256 9.983-10.737 14.529-17.663 14.529h-.002c-4.025 0-7.652-1.456-10.213-4.098-3.451-3.558-5.156-9.314-4.932-16.648 0-.044-.004-.085-.003-.127a9.979 9.979 0 0 0-.016-.713c-.005-.114-.006-.231-.017-.348a11.248 11.248 0 0 0-.096-.773c-.014-.09-.022-.179-.038-.269a11.048 11.048 0 0 0-.207-.905c-.011-.037-.017-.077-.028-.116a10.612 10.612 0 0 0-2.713-4.619 10.629 10.629 0 0 0-4.372-2.638c-.027-.009-.052-.019-.079-.027-.273-.083-.55-.148-.828-.208-.064-.013-.126-.033-.191-.046-.244-.048-.493-.079-.74-.111-.099-.013-.197-.033-.295-.044-.261-.026-.524-.031-.786-.037-.083-.002-.166-.013-.252-.013-.109 0-.217.002-.325.004-12.11.361-19.659-4.538-20.64-13.333-.858-7.667 3.908-17.099 14.424-19.477zM96.331 133.206a78.403 78.403 0 0 0 7.819-1.609c.256-.067.511-.142.761-.227l19.979-6.815c27.844-8.463 55.768-12.754 82.997-12.754 9.729 0 19.342.564 28.702 1.681l-2.558 10.011a10.668 10.668 0 0 0 7.707 12.98l21.038 5.35c23.762 6.046 45.901 17.55 64.617 33.5L171.5 331.213 96.331 133.206zm279.645 121.817 5.353 21.042a10.667 10.667 0 0 0 12.979 7.707l10.009-2.56c4.233 35.41.454 73.765-11.075 111.699l-6.809 19.981c-.085.247-.16.5-.227.756a78.989 78.989 0 0 0-1.604 7.823l-198.018-75.172 155.893-155.891c15.95 18.715 27.455 40.853 33.499 64.615zM112.51 449.938l-6.463-14.698c-2.372-5.392-8.664-7.84-14.059-5.471-5.394 2.371-7.842 8.665-5.471 14.059l9.804 22.298-12.3 12.3-11.964-27.214a10.67 10.67 0 0 0-5.473-5.471l-27.215-11.965 30.291-30.29 22.3 9.806c1.397.612 2.854.905 4.288.905 4.102 0 8.014-2.379 9.77-6.375 2.372-5.394-.077-11.688-5.471-14.059l-14.7-6.465 12.458-12.459 31.016 13.635 13.635 31.017-30.446 30.447zm376.838-1.594c-6.045 17.733-22.699 29.65-41.439 29.652a43.57 43.57 0 0 1-14.098-2.35c-30-10.229-31.152-39.998-27.052-56.267l6.731-19.755c.037-.11.073-.221.109-.334 13.792-45.29 17.275-91.336 10.073-133.163a10.66 10.66 0 0 0-4.711-7.139 10.661 10.661 0 0 0-8.443-1.383l-11.148 2.85-2.719-10.691c-7.85-30.865-23.821-59.303-46.184-82.24-.025-.027-.05-.05-.075-.075l-.021-.022-.021-.018-.075-.075c-22.94-22.363-51.379-38.334-82.245-46.186l-10.688-2.717 2.85-11.152a10.67 10.67 0 0 0-8.524-13.155c-14.096-2.425-28.827-3.657-43.784-3.657-29.392 0-59.463 4.621-89.38 13.731-.112.033-.224.07-.335.109l-19.755 6.737a59.549 59.549 0 0 1-14.361 1.771 58.1 58.1 0 0 1-2.478-.056c-12.256-.529-31.438-5.338-39.426-28.773-3.767-11.052-3.001-22.918 2.157-33.415 5.161-10.496 14.09-18.352 25.144-22.121 2.54-.865 4.944-1.305 7.143-1.305 7.127 0 10.41 4.548 11.054 8.444.975 5.884-3.171 11.008-11.096 13.709-5.495 1.875-9.934 5.777-12.492 10.986a21.573 21.573 0 0 0-1.062 16.594 21.724 21.724 0 0 0 20.564 14.73h.001a21.68 21.68 0 0 0 6.541-1.01c.181-.057.363-.118.542-.188 38.25-14.365 78.781-21.958 117.209-21.958 17.378 0 34.479 1.534 50.83 4.558 5.521 1.017 10.884-2.411 12.274-7.847l2.625-10.267 10.66 2.713c42.296 10.758 81.191 32.698 112.49 63.452 30.753 31.298 52.692 70.194 63.452 112.488l2.711 10.665-10.266 2.623a10.667 10.667 0 0 0-7.849 12.275c9.726 52.579 3.548 112.256-17.398 168.036-.067.179-.128.358-.187.54-3.586 11.36 2.437 23.267 13.711 27.108a21.718 21.718 0 0 0 27.584-13.556c2.431-7.132 6.845-11.224 12.11-11.224a9.83 9.83 0 0 1 7.981 4.094c2.459 3.423 2.728 8.481.766 14.234z"/><path style="fill:#000003" d="M407.261 168.414c-21.408-31.563-50.955-57.075-85.447-73.784-5.303-2.566-11.682-.352-14.249 4.95-2.569 5.302-.353 11.681 4.949 14.25 31.127 15.077 57.784 38.092 77.092 66.558a10.657 10.657 0 0 0 8.837 4.682 10.61 10.61 0 0 0 5.978-1.84c4.875-3.307 6.146-9.941 2.84-14.816zM422.557 194.729c-2.612-5.281-9.008-7.445-14.289-4.831-5.281 2.61-7.444 9.008-4.831 14.289l.535 1.098a10.664 10.664 0 0 0 14.25 4.954c5.302-2.569 7.52-8.948 4.953-14.25-.207-.42-.412-.844-.618-1.26zM315.947 442.634l-74.395-28.242c-5.51-2.098-11.667.679-13.757 6.188-2.091 5.506.679 11.667 6.187 13.757l74.395 28.242c1.246.473 2.526.698 3.783.698 4.303 0 8.357-2.623 9.974-6.885 2.091-5.508-.68-11.668-6.187-13.758zM18.21 394.234l23.154-23.154c4.164-4.164 4.164-10.918 0-15.086-4.166-4.164-10.921-4.164-15.086 0L3.124 379.148c-4.165 4.166-4.165 10.921 0 15.086a10.632 10.632 0 0 0 7.541 3.125 10.643 10.643 0 0 0 7.545-3.125z"/></svg>