<svg xmlns="http://www.w3.org/2000/svg" viewBox="0 0 488.418 488.418" style="enable-background:new 0 0 488.418 488.418" xml:space="preserve"><path style="fill:#fdc9a6" d="m188.209 128.01-32-32 53.328-60c5.988-6.742 5.686-16.982-.688-23.36l-.056-.056c-6.662-6.647-17.452-6.634-24.098.029-.165.166-.327.335-.486.507l-60.448 65.944c-8.68 9.471-8.363 24.098.72 33.184l41.328 39.752 22.4-24z"/><path style="fill:#f6bb92" d="m304.377 132.178 79.872-87.016c6.298-6.927 17.02-7.437 23.947-1.138.198.18.392.365.581.554 6.401 6.398 6.647 16.695.56 23.392l-79.296 86.208-25.664-22z"/><path style="fill:#f9e0a0" d="m180.209 120.01-24 24 48 40v96h96v-96l32-32-24-24-32 24h-56l-40-32z"/><path style="fill:#fdc9a6" d="M244.209 144.01c-13.255 0-24-10.745-24-24l-1.248-48h48l1.248 48c0 13.254-10.745 24-24 24z"/><path style="fill:#5b3726" d="m218.961 103.266 16-24 4.24 3.2c16.377 11.938 38.967 10.368 53.536-3.72l7.472-7.48-21.264-16a39.998 39.998 0 0 0-42.88-4.544l-9.104 4.56-.496.328c-13.428 8.952-18.089 26.501-10.872 40.936l3.368 6.72z"/><path style="fill:#4799cf" d="m300.209 272.01 5.504 27.536a31.996 31.996 0 0 1-4.24 23.24l-33.264 53.224 40 72v16h-40v-16l-40-72 16-48-48 48 32 72v16h-40v-16l-32-72 48-80v-24h96z"/><path style="fill:#1f6c8c" d="M228.209 480.01h-64v-8c0-13.255 10.745-24 24-24h40v32zM308.209 480.01h-64v-8c0-13.255 10.745-24 24-24h40v32z"/><path style="fill:#fbb540" d="M73.921 397.722 60.209 432.01l-13.712-34.288-34.288-13.712 34.288-13.712 13.712-34.288 13.712 34.288 34.288 13.712-34.288 13.712zM441.921 197.722l-13.712 34.288-13.712-34.288-34.288-13.712 34.288-13.712 13.712-34.288 13.712 34.288 34.288 13.712-34.288 13.712z"/><path style="fill:#ea9d2d" d="M428.209 392.01h16v16h-16v-16zM428.209 440.01h16v16h-16v-16zM452.209 416.01h16v16h-16v-16zM404.209 416.01h16v16h-16v-16zM76.209 176.01h16v16h-16v-16zM76.209 208.01h16v16h-16v-16zM92.209 192.01h16v16h-16v-16zM60.209 192.01h16v16h-16v-16z"/><path style="fill:#f9e0a0" d="M340.209 336.01a8 8 0 0 1-5.656-13.656l10.344-10.344-10.344-10.344a8 8 0 0 1 .196-11.312 8 8 0 0 1 11.116 0l16 16a8 8 0 0 1 0 11.312l-16 16a8.005 8.005 0 0 1-5.656 2.344zM380.209 336.01a8 8 0 0 1-5.656-13.656l10.344-10.344-10.344-10.344a8 8 0 0 1 .196-11.312 8 8 0 0 1 11.116 0l16 16a8 8 0 0 1 0 11.312l-16 16a8.005 8.005 0 0 1-5.656 2.344zM84.209 112.01a8 8 0 0 1-5.656-2.344l-16-16a8 8 0 0 1 0-11.312l16-16a8 8 0 0 1 11.312 11.312L79.521 88.01l10.344 10.344a8 8 0 0 1-5.656 13.656zM44.209 112.01a8 8 0 0 1-5.656-2.344l-16-16a8 8 0 0 1 0-11.312l16-16a8 8 0 0 1 11.312 11.312L39.521 88.01l10.344 10.344a8 8 0 0 1-5.656 13.656z"/><path style="fill:#f7e4ba" d="M276.209 152.01h-56l-40-32-24 24 48 40v88h51.28c30.792-46.552 40.552-108.944 43.496-137.08l-22.776 17.08z"/><path style="fill:#6cbae5" d="M255.489 272.01h-51.28v24l-17.352 28.92a120.95 120.95 0 0 0 68.632-52.92z"/><path d="M414.433 39.33c-9.726-9.75-25.515-9.77-35.265-.044-.276.275-.545.556-.807.844l-75.552 82.336-29.264 21.952h-8.424a32.113 32.113 0 0 0 11.088-24.248l-.72-22.832a47.762 47.762 0 0 0 22.904-12.528l7.472-7.464a8 8 0 0 0-.84-12.048l-21.08-15.888a48.144 48.144 0 0 0-51.456-5.448l-9.08 4.552c-.296.152-1.072.648-1.352.8-16.783 11.205-22.611 33.144-13.6 51.2l3.36 6.72.392 13.184a31.801 31.801 0 0 0 11.056 24h-.248l-37.456-29.968-18.4-18.36 48.312-54.352c8.818-9.937 8.351-25.027-1.064-34.4a24.569 24.569 0 0 0-18.2-7.328 24.857 24.857 0 0 0-17.92 8.112l-60.48 65.952c-11.617 12.613-11.193 32.151.96 44.248l31.752 31.752c.096.088.216.12.312.208s.128.2.224.28l45.12 37.6v106.04l-46.856 78.096a8 8 0 0 0-.456 7.368l28 62.928a32 32 0 0 0-20.656 29.824v8a8 8 0 0 0 8 8h64a8 8 0 0 0 8-8 8 8 0 0 0 8 8h64a8 8 0 0 0 8-8v-32a.865.865 0 0 0 0-.144 7.881 7.881 0 0 0-.52-2.592 5.691 5.691 0 0 0-.256-.64c-.08-.168-.112-.352-.2-.512l-37.704-67.872 30.76-49.224a39.856 39.856 0 0 0 5.304-29.048l-5.384-26.76V187.73l29.656-29.656c.04 0 .056-.104.096-.144s.104-.056.144-.104l77.152-84.064c8.977-9.851 8.614-25.022-.824-34.432zM259.521 98.57l.688 21.848c-.068 8.837-7.287 15.944-16.124 15.876-8.837-.068-15.944-7.287-15.876-16.124l-.48-15.2 9.28-13.92a48.536 48.536 0 0 0 22.512 7.52zm-28.512-36 8.632-4.312a32.169 32.169 0 0 1 34.488 3.776l13.912 10.472-.96.96c-11.723 11.338-29.905 12.591-43.072 2.968l-4.248-3.2a8.078 8.078 0 0 0-6.152-1.48 8 8 0 0 0-5.304 3.448l-7.72 11.576a24.376 24.376 0 0 1 10.424-24.192v-.016zM129.633 84.882l60.44-65.936a8.98 8.98 0 0 1 6.472-2.936 9.33 9.33 0 0 1 6.648 2.704 9.048 9.048 0 0 1 .36 12.392l-53.328 60a8 8 0 0 0 .328 10.976l18.344 18.344-12.688 12.68-26.096-26.096c-6.059-6.058-6.271-15.814-.48-22.128zm90.576 387.536h-48c0-8.837 7.163-16 16-16h32v16zm16 0v-24c0-.12-.064-.224-.072-.344a7.924 7.924 0 0 0-.512-2.56c0-.088-.048-.184-.08-.272v-.072l-29.768-66.984 20.152-20.152-5.288 15.848a8.047 8.047 0 0 0 .6 6.4l34.76 62.56a31.997 31.997 0 0 0-19.792 29.576zm64 0h-48c0-8.837 7.163-16 16-16h32v16zm-5.52-153.464-33.264 53.224a8 8 0 0 0-.208 8.128l33.392 60.112h-21.696l-36-64.8 14.888-44.664a8 8 0 0 0-13.248-8.184l-48 48a8 8 0 0 0-1.656 8.904l27 60.752h-22.488l-28.2-63.456 45.856-76.44a7.926 7.926 0 0 0 1.144-4.112v-16h81.44l4.224 21.104a24.002 24.002 0 0 1-3.184 17.432zm-.136-140.192a8 8 0 0 0-2.344 5.656v80h-80v-80a8 8 0 0 0-2.88-6.144l-41.272-34.4 12.744-12.736 34.4 27.528a7.999 7.999 0 0 0 5 1.752h56a8.048 8.048 0 0 0 4.8-1.6l26.448-19.84 13.44 13.44-26.336 26.344zM403.409 62.97l-71.48 77.88-12.672-12.672 70.888-77.224a8.797 8.797 0 0 1 6.4-2.928 8.59 8.59 0 0 1 6.544 2.616 8.937 8.937 0 0 1 .32 12.328zM9.233 391.842l31.104 12.448 12.44 31.096a8 8 0 0 0 14.864 0l12.44-31.096 31.104-12.448a8 8 0 0 0 0-14.856l-31.104-12.44-12.44-31.104a8 8 0 0 0-14.864 0l-12.44 31.104-31.104 12.44a8 8 0 0 0 0 14.856zm40.232-13.712a8.002 8.002 0 0 0 4.456-4.456l6.288-15.72 6.288 15.72a8.002 8.002 0 0 0 4.456 4.456l15.72 6.288-15.72 6.288a8.002 8.002 0 0 0-4.456 4.456l-6.288 15.712-6.288-15.712a8.002 8.002 0 0 0-4.456-4.456l-15.72-6.288 15.72-6.288z"/><path d="m479.185 176.986-31.104-12.44-12.44-31.104a8 8 0 0 0-14.864 0l-12.44 31.104-31.104 12.44a8 8 0 0 0 0 14.856l31.104 12.448 12.44 31.096a7.999 7.999 0 0 0 14.864 0l12.44-31.096 31.104-12.448a8 8 0 0 0 0-14.856zm-40.232 13.72a8.002 8.002 0 0 0-4.456 4.456l-6.288 15.712-6.288-15.712a8.002 8.002 0 0 0-4.456-4.456l-15.72-6.288 15.72-6.288a8.002 8.002 0 0 0 4.456-4.456l6.288-15.72 6.288 15.72a8.002 8.002 0 0 0 4.456 4.456l15.72 6.288-15.72 6.288zM428.209 392.418h16v16h-16v-16zM428.209 440.418h16v16h-16v-16zM452.209 416.418h16v16h-16v-16zM404.209 416.418h16v16h-16v-16zM76.209 176.418h16v16h-16v-16zM76.209 208.418h16v16h-16v-16zM92.209 192.418h16v16h-16v-16zM60.209 192.418h16v16h-16v-16zM334.553 334.074a8 8 0 0 0 11.312 0l16-16a8 8 0 0 0 0-11.312l-16-16a8 8 0 0 0-11.312.196 8 8 0 0 0 0 11.116l10.344 10.344-10.344 10.344a8 8 0 0 0 0 11.312zM385.865 290.762a8 8 0 0 0-11.312.196 8 8 0 0 0 0 11.116l10.344 10.344-10.344 10.344a8 8 0 0 0-.196 11.312 8 8 0 0 0 11.508 0l16-16a8 8 0 0 0 0-11.312l-16-16zM89.865 66.762a8 8 0 0 0-11.312 0l-16 16a8 8 0 0 0 0 11.312l16 16a8 8 0 0 0 11.312-11.312L79.521 88.418l10.344-10.344a8 8 0 0 0 0-11.312zM49.865 66.762a8 8 0 0 0-11.312 0l-16 16a8 8 0 0 0 0 11.312l16 16a8 8 0 0 0 11.312-11.312L39.521 88.418l10.344-10.344a8 8 0 0 0 0-11.312z"/></svg>