<svg height="672" viewBox="-68 0 504 504" width="672" xmlns="http://www.w3.org/2000/svg"><path d="M304 104v48l-32-32s-40 16-88 16-88-16-88-16l-32 32v-40C64 54.48 110.559 8 168 8h80v40c30.96 0 56 25.04 56 56zm0 0" fill="#965353"/><path d="M248 80c13.23 0 24 10.77 24 24v16l32 32v-48c0-30.96-25.04-56-56-56V8h-32v40c0 17.672 14.328 32 32 32zm0 0" fill="#844747"/><path d="M184 136c48 0 88-16 88-16l32 32v39.922h-32v-32H96v32H64V152l32-32s40 16 88 16zm0 0" fill="#eac6bb"/><path d="M272 191.922V216c0 48.559-39.36 88-88 88-48.559 0-88-39.441-88-88v-56.078h176zm0 0" fill="#ed5565"/><path d="M247.977 159.922V216c0 44.488-33.055 81.207-75.977 87.09 3.93.535 7.922.91 12 .91 48.64 0 88-39.441 88-88v-56.078zm0 0" fill="#da4453"/><path d="M304 191.922V216c0 46-25.922 86-64 106.078v.082C223.281 330.97 204.238 336 184 336s-39.281-5.04-56-13.84v-.082C89.922 302 64 262 64 216v-24.078h32V216c0 48.559 39.441 88 88 88 48.64 0 88-39.441 88-88v-24.078zm0 0" fill="#eac6bb"/><path d="M360 432v56c0 4.398-3.52 8-8 8H208l48-64-16-16 32-32-16-16h40c35.36 0 64 28.64 64 64zm0 0" fill="#545c66"/><path d="m256 368 16 16-32 32 16 16-48 64h-24l24.879-64 18.723-48L240 352zm0 0" fill="#656d78"/><path d="m160 373.2 16 18.8-16.879 40-18.64-48zM227.602 384l-18.723 48L192 392l16-18.8zm0 0" fill="#e6e9ed"/><path d="m240 352-12.398 32L208 373.2 184 360l-24 13.2-19.52 10.8L128 352v-29.84c16.719 8.809 35.762 13.84 56 13.84s39.281-5.04 56-13.84zm0 0" fill="#f5f7fa"/><path d="M208 373.2 192 392h-16l-16-18.8 24-13.2zm0 0" fill="#ed5565"/><path d="m192 392 16.879 40L184 496l-24.879-64L176 392zm0 0" fill="#da4453"/><path d="M159.121 432 184 496h-24l-48-64 16-16-32-32 32-32 12.48 32zm0 0" fill="#656d78"/><path d="m112 432 48 64H16c-4.398 0-8-3.602-8-8v-56c0-35.36 28.64-64 64-64h40l-16 16 32 32zm0 0" fill="#545c66"/><path d="M8 440.016a7.99 7.99 0 0 1-8-8C0 392.305 32.305 360 72.016 360c4.425 0 8 3.574 8 8s-3.575 8-8 8C41.129 376 16 401.129 16 432.016c0 4.425-3.574 8-8 8zM360 440.016a7.99 7.99 0 0 1-8-8c0-30.871-25.129-56-56-56a7.99 7.99 0 0 1-8-8c0-4.422 3.574-8 8-8 39.703 0 72 32.296 72 72 0 4.425-3.574 8-8 8zm0 0"/><path d="M112.008 376H72.016c-4.422 0-8-3.574-8-8s3.578-8 8-8h39.992c4.426 0 8 3.574 8 8s-3.574 8-8 8zM8.008 496c-4.414 0-8-3.574-8-8L0 432.016c0-4.414 3.574-8 8-8a8 8 0 0 1 8 8L16.008 488c0 4.414-3.574 8-8 8zm0 0"/><path d="M16.008 504c-8.824 0-16-7.176-16-16 0-4.426 3.578-8 8-8 4.426 0 8 3.574 8 8v.016c4.426 0 8 3.57 8 7.992a7.989 7.989 0 0 1-8 7.992zM352 504c-4.426 0-8-3.574-8-8s3.574-8 8-8h.016c0-4.426 3.57-8 7.992-8a7.989 7.989 0 0 1 7.992 8c0 8.824-7.176 16-16 16zm0 0"/><path d="M360 496a7.99 7.99 0 0 1-8-8v-55.984c0-4.422 3.574-8 8-8s8 3.578 8 8V488c0 4.426-3.574 8-8 8zm0 0"/><path d="M352 504H16.008c-4.422 0-8-3.574-8-8s3.578-8 8-8H352c4.426 0 8 3.574 8 8s-3.574 8-8 8zM128 360a7.99 7.99 0 0 1-8-8v-29.84c0-4.426 3.574-8 8-8s8 3.574 8 8V352c0 4.426-3.574 8-8 8zM240 360a7.99 7.99 0 0 1-8-8v-29.84c0-4.426 3.574-8 8-8s8 3.574 8 8V352c0 4.426-3.574 8-8 8zm0 0"/><path d="M184 344c-70.574 0-128-57.426-128-128 0-4.426 3.574-8 8-8s8 3.574 8 8c0 61.762 50.238 112 112 112s112-50.238 112-112c0-4.426 3.574-8 8-8s8 3.574 8 8c0 70.574-57.426 128-128 128zm0 0"/><path d="M184 312c-52.938 0-96-43.063-96-96 0-4.426 3.574-8 8-8s8 3.574 8 8c0 44.113 35.887 80 80 80s80-35.887 80-80c0-4.426 3.574-8 8-8s8 3.574 8 8c0 52.938-43.063 96-96 96zM140.465 392.016a8.007 8.007 0 0 1-7.016-4.137c-2.137-3.871-.73-8.742 3.145-10.871l43.543-24.016c3.879-2.137 8.742-.726 10.87 3.145a7.997 7.997 0 0 1-3.144 10.87l-43.543 24.016a7.996 7.996 0 0 1-3.855.993zm0 0"/><path d="M227.535 392.016a7.996 7.996 0 0 1-3.855-.993l-43.543-24.015a8.013 8.013 0 0 1-3.145-10.871c2.145-3.864 7-5.274 10.871-3.145l43.543 24.016a8.01 8.01 0 0 1 3.145 10.87 7.998 7.998 0 0 1-7.016 4.138zM96 392.016a7.984 7.984 0 0 1-5.656-2.344 7.99 7.99 0 0 1 0-11.313l32-32.015c3.129-3.13 8.183-3.13 11.312 0s3.13 8.183 0 11.312l-32 32.016A7.984 7.984 0 0 1 96 392.016zm0 0"/><path d="M128 424a7.984 7.984 0 0 1-5.656-2.344l-32-31.984c-3.13-3.129-3.13-8.184 0-11.313s8.183-3.129 11.312 0l32 31.985a7.99 7.99 0 0 1 0 11.312A7.984 7.984 0 0 1 128 424zm0 0"/><path d="M112 440a7.984 7.984 0 0 1-5.656-2.344 7.99 7.99 0 0 1 0-11.312l16-16c3.129-3.13 8.183-3.13 11.312 0s3.13 8.183 0 11.312l-16 16A7.984 7.984 0 0 1 112 440zm0 0"/><path d="M160.008 504a7.983 7.983 0 0 1-6.406-3.2l-48-64c-2.657-3.527-1.938-8.542 1.597-11.19a7.979 7.979 0 0 1 11.192 1.597l48 64c2.656 3.527 1.937 8.547-1.598 11.191a7.908 7.908 0 0 1-4.785 1.602zM184 504a8.008 8.008 0 0 1-7.457-5.105l-56-144a8.002 8.002 0 0 1 4.555-10.352c4.109-1.606 8.757.441 10.351 4.555l56 144a8.002 8.002 0 0 1-4.554 10.351c-.95.383-1.926.551-2.895.551zM272 392.016a7.984 7.984 0 0 1-5.656-2.344l-32-32.016c-3.13-3.129-3.13-8.183 0-11.312s8.183-3.13 11.312 0l32 32.015a7.99 7.99 0 0 1 0 11.313 7.984 7.984 0 0 1-5.656 2.344zm0 0"/><path d="M240 424a7.984 7.984 0 0 1-5.656-2.344 7.99 7.99 0 0 1 0-11.312l32-31.985c3.129-3.129 8.183-3.129 11.312 0s3.13 8.184 0 11.313l-32 31.984A7.984 7.984 0 0 1 240 424zm0 0"/><path d="M256 440a7.984 7.984 0 0 1-5.656-2.344l-16-16c-3.13-3.129-3.13-8.183 0-11.312s8.183-3.13 11.312 0l16 16a7.99 7.99 0 0 1 0 11.312A7.984 7.984 0 0 1 256 440zm0 0"/><path d="M207.992 504a7.947 7.947 0 0 1-4.793-1.602c-3.535-2.644-4.254-7.664-1.597-11.191l48-64c2.656-3.535 7.664-4.246 11.191-1.598 3.535 2.649 4.254 7.664 1.598 11.192l-48 64a7.946 7.946 0 0 1-6.399 3.199zM184 504a7.837 7.837 0 0 1-2.895-.543 7.989 7.989 0 0 1-4.554-10.352l56-144a7.973 7.973 0 0 1 10.351-4.554 7.989 7.989 0 0 1 4.555 10.351l-56 144A8.012 8.012 0 0 1 184 504zM296 376.016h-40a7.99 7.99 0 0 1-8-8c0-4.422 3.574-8 8-8h40c4.426 0 8 3.578 8 8 0 4.425-3.574 8-8 8zM159.113 440c-1.043 0-2.097-.2-3.113-.633a8 8 0 0 1-4.258-10.48l16.89-39.985c1.72-4.07 6.415-5.965 10.481-4.254 4.07 1.72 5.977 6.414 4.254 10.48l-16.887 39.985a8.008 8.008 0 0 1-7.367 4.887zm0 0"/><path d="M208.887 440a7.992 7.992 0 0 1-7.367-4.887l-16.887-40a7.992 7.992 0 0 1 4.254-10.48c4.066-1.73 8.761.183 10.48 4.254l16.89 40a7.997 7.997 0 0 1-4.257 10.48 7.897 7.897 0 0 1-3.113.633zm0 0"/><path d="M192 400.016h-16a7.99 7.99 0 0 1-8-8c0-4.422 3.574-8 8-8h16c4.426 0 8 3.578 8 8 0 4.425-3.574 8-8 8zm0 0"/><path d="M192 400.016a7.955 7.955 0 0 1-5.184-1.91 7.982 7.982 0 0 1-.894-11.274l16-18.785c2.855-3.375 7.902-3.774 11.27-.895 3.367 2.856 3.769 7.91.898 11.274l-16 18.781a7.99 7.99 0 0 1-6.09 2.809zm0 0"/><path d="M176 400.016a7.972 7.972 0 0 1-6.09-2.817l-16-18.785c-2.863-3.36-2.469-8.414.899-11.27 3.359-2.87 8.414-2.48 11.27.895l16 18.785c2.866 3.36 2.472 8.414-.895 11.274a7.923 7.923 0 0 1-5.184 1.918zM96 224a7.99 7.99 0 0 1-8-8v-56.016c0-4.425 3.574-8 8-8s8 3.575 8 8V216c0 4.426-3.574 8-8 8zM272 224a7.99 7.99 0 0 1-8-8v-56.016c0-4.425 3.574-8 8-8s8 3.575 8 8V216c0 4.426-3.574 8-8 8zM64.008 224.031c-4.422 0-8-3.574-8-8V112c0-4.426 3.578-8 8-8 4.426 0 8 3.574 8 8v104.031c0 4.426-3.574 8-8 8zM304.008 224.031c-4.422 0-8-3.574-8-8V104.016c0-4.422 3.578-8 8-8 4.426 0 8 3.578 8 8V216.03c0 4.426-3.574 8-8 8zm0 0"/><path d="M304.008 112.016c-4.422 0-8-3.575-8-8 0-26.473-21.528-48-48-48-4.422 0-8-3.575-8-8 0-4.422 3.578-8 8-8 35.289 0 64 28.71 64 64 0 4.425-3.574 8-8 8zm0 0"/><path d="M248.008 56.016c-4.422 0-8-3.575-8-8V8c0-4.426 3.578-8 8-8 4.426 0 8 3.574 8 8v40.016c0 4.425-3.574 8-8 8zm0 0"/><path d="M248.008 16h-80c-4.422 0-8-3.574-8-8s3.578-8 8-8h80c4.426 0 8 3.574 8 8s-3.574 8-8 8zm0 0"/><path d="M64.008 120c-4.422 0-8-3.574-8-8 0-61.762 50.238-112 112-112 4.426 0 8 3.574 8 8s-3.574 8-8 8c-52.938 0-96 43.063-96 96 0 4.426-3.574 8-8 8zM304.008 160a7.984 7.984 0 0 1-5.656-2.344l-32-32a7.99 7.99 0 0 1 0-11.312 7.99 7.99 0 0 1 11.312 0l32 32a7.99 7.99 0 0 1 0 11.312 7.984 7.984 0 0 1-5.656 2.344zm0 0"/><path d="M184.008 144c-48.977 0-89.281-15.895-90.969-16.566-4.102-1.641-6.094-6.297-4.465-10.403 1.64-4.094 6.274-6.12 10.403-4.465.382.16 39.246 15.434 85.03 15.434 45.93 0 84.641-15.273 85.032-15.434 4.066-1.636 8.762.356 10.402 4.465a8.01 8.01 0 0 1-4.464 10.403c-1.688.671-41.993 16.566-90.97 16.566zm0 0"/><path d="M64.008 160a7.984 7.984 0 0 1-5.656-2.344 7.99 7.99 0 0 1 0-11.312l32-32a7.99 7.99 0 0 1 11.312 0 7.99 7.99 0 0 1 0 11.312l-32 32A7.984 7.984 0 0 1 64.008 160zM272 167.984H96c-4.426 0-8-3.578-8-8 0-4.425 3.574-8 8-8h176c4.426 0 8 3.575 8 8 0 4.422-3.574 8-8 8zM184 280c-17.098 0-33.168-6.656-45.258-18.754a7.992 7.992 0 0 1 0-11.309 7.99 7.99 0 0 1 11.313 0C159.129 259.007 171.175 264 184 264s24.863-4.992 33.938-14.063a7.985 7.985 0 0 1 11.308 0 7.985 7.985 0 0 1 0 11.31C217.168 273.343 201.098 280 184 280zM168.016 216c-4.422 0-8-3.574-8-8 0-4.414-3.582-8-8-8-4.414 0-8 3.586-8 8 0 4.426-3.575 8-8 8-4.422 0-8-3.574-8-8 0-13.23 10.77-24 24-24s24 10.77 24 24c0 4.426-3.575 8-8 8zM232.008 216c-4.422 0-8-3.574-8-8 0-4.414-3.582-8-8-8-4.414 0-8 3.586-8 8 0 4.426-3.574 8-8 8-4.422 0-8-3.574-8-8 0-13.23 10.77-24 24-24s24 10.77 24 24c0 4.426-3.574 8-8 8zM304 199.984h-31.992c-4.422 0-8-3.578-8-8 0-4.425 3.578-8 8-8H304c4.426 0 8 3.575 8 8 0 4.422-3.574 8-8 8zM96 199.984H64c-4.426 0-8-3.578-8-8 0-4.425 3.574-8 8-8h32c4.426 0 8 3.575 8 8 0 4.422-3.574 8-8 8zm0 0"/></svg>