<svg height="512pt" viewBox="0 0 512 512" width="512pt" xmlns="http://www.w3.org/2000/svg"><path d="M504.484 223.938c0-46.442-30.382-85.778-72.351-99.239.129-1.64.21-3.293.21-4.965 0-35.414-28.71-64.125-64.124-64.125a63.944 63.944 0 0 0-22.031 3.887C328.151 28.418 294.52 7.516 256 7.516c-42.512 0-79.074 25.46-95.281 61.964a55.818 55.818 0 0 0-24.953-5.855c-24.297 0-44.985 15.445-52.786 37.055-43.574 12.476-75.464 52.605-75.464 100.187 0 43.973 27.234 81.578 65.757 96.88a64.448 64.448 0 0 0-1.632 14.362c0 35.414 28.71 64.125 64.125 64.125 15.05 0 28.879-5.199 39.82-13.879 19.113 23.16 48.039 37.926 80.414 37.926 33.078 0 62.55-15.414 81.64-39.449 10.06 9.54 23.637 15.402 38.594 15.402 29.98 0 54.465-23.511 56.028-53.101 41.902-13.5 72.222-52.805 72.222-99.195zm0 0" fill="#fff6df"/><path d="M408.297 344.172c-14.957 0-28.535-5.863-38.594-15.402-19.09 24.035-48.562 39.449-81.64 39.449-32.375 0-61.301-14.766-80.415-37.926-10.941 8.68-24.77 13.879-39.82 13.879-35.414 0-64.125-28.711-64.125-64.125 0-4.942.578-9.742 1.633-14.363-38.52-15.301-65.758-52.907-65.758-96.88 0-20.57 5.969-39.738 16.254-55.89-29.043 18.492-48.316 50.969-48.316 87.953 0 43.973 27.234 81.578 65.757 96.88a64.448 64.448 0 0 0-1.632 14.362c0 35.414 28.71 64.125 64.125 64.125 15.05 0 28.879-5.199 39.82-13.879 19.113 23.16 48.039 37.926 80.414 37.926 33.078 0 62.55-15.414 81.64-39.449 10.06 9.54 23.637 15.402 38.594 15.402 23.84 0 44.196-14.875 52.32-35.847a55.9 55.9 0 0 1-20.257 3.785zm0 0" fill="#ffedbf"/><path d="M95.688 480.438c0-13.282-14.356-24.047-32.063-24.047s-32.063 10.765-32.063 24.046 14.356 24.047 32.063 24.047 32.063-10.765 32.063-24.046zM167.828 432.344c0-13.281-14.355-24.047-32.062-24.047s-32.063 10.765-32.063 24.047 14.356 24.047 32.063 24.047 32.062-10.766 32.062-24.047zm0 0" fill="#fff6df"/><path d="M489.465 156.645c-2.504-3.31-7.219-3.97-10.527-1.465a7.514 7.514 0 0 0-1.465 10.527c12.754 16.875 19.496 37.012 19.496 58.23 0 42.141-26.93 79.13-67.012 92.043a7.519 7.519 0 0 0-5.2 6.758c-1.362 25.785-22.675 45.98-48.523 45.98-12.48 0-24.351-4.738-33.421-13.34a7.515 7.515 0 0 0-11.055.777c-18.48 23.267-46.094 36.61-75.758 36.61-28.965 0-56.164-12.827-74.617-35.195a7.516 7.516 0 0 0-10.469-1.101c-10.102 8.015-22.254 12.254-35.148 12.254-31.215 0-56.61-25.399-56.61-56.614 0-4.226.485-8.496 1.446-12.683a7.513 7.513 0 0 0-4.551-8.66c-37.07-14.723-61.02-50.008-61.02-89.899 0-42.93 28.793-81.16 70.02-92.96a7.521 7.521 0 0 0 5-4.677c6.93-19.195 25.3-32.09 45.715-32.09 7.578 0 14.847 1.704 21.605 5.067a7.512 7.512 0 0 0 5.895.344 7.536 7.536 0 0 0 4.324-4.02c15.504-34.933 50.21-57.5 88.41-57.5 34.355 0 66.422 18.48 83.687 48.235a7.513 7.513 0 0 0 9.083 3.285 56.463 56.463 0 0 1 19.449-3.426c31.215 0 56.61 25.395 56.61 56.61 0 1.304-.06 2.742-.188 4.39a7.518 7.518 0 0 0 5.199 7.73 96.319 96.319 0 0 1 22.226 10.422 7.516 7.516 0 0 0 8.063-12.683 111.346 111.346 0 0 0-20.27-10.153c-.156-39.367-32.234-71.347-71.64-71.347-6.371 0-12.64.828-18.715 2.472C328.954 19.23 293.668 0 256 0c-41.66 0-79.719 23.23-98.926 59.773-6.812-2.433-13.949-3.664-21.308-3.664-25.438 0-48.454 15.293-58.438 38.438-21.422 6.941-40.629 20.508-54.39 38.496C7.933 152.656 0 176.109 0 200.867c0 22.817 6.836 44.762 19.77 63.465 11.445 16.555 26.93 29.578 45.039 37.953a71.6 71.6 0 0 0-.684 9.824c0 39.504 32.137 71.641 71.64 71.641 13.91 0 27.145-3.898 38.665-11.332 21.105 22.57 50.453 35.379 81.57 35.379 31.703 0 61.371-13.184 82.535-36.426 10.883 8.027 24.008 12.379 37.7 12.379 32.109 0 58.878-23.816 63.054-55.102C482.99 312.422 512 270.953 512 223.938c0-24.516-7.793-47.786-22.535-67.293zM63.625 448.875c-21.824 0-39.578 14.16-39.578 31.563S41.8 512 63.625 512c21.82 0 39.578-14.16 39.578-31.563s-17.758-31.562-39.578-31.562zm0 48.094c-13.309 0-24.547-7.57-24.547-16.531s11.238-16.532 24.547-16.532c13.305 0 24.547 7.57 24.547 16.531S76.93 496.97 63.625 496.97zM135.766 400.781c-21.825 0-39.578 14.16-39.578 31.563s17.753 31.562 39.578 31.562c21.82 0 39.578-14.16 39.578-31.562s-17.758-31.563-39.578-31.563zm0 48.094c-13.305 0-24.547-7.57-24.547-16.531s11.242-16.531 24.547-16.531 24.547 7.57 24.547 16.53-11.243 16.532-24.547 16.532zm0 0"/><path d="M230.781 212.816a7.518 7.518 0 0 0-6.844-4.41h-56.109a7.516 7.516 0 0 0 0 15.031h39.55l-45.206 51.66c-4.168 4.766-.664 12.466 5.656 12.466h56.11c4.148 0 7.515-3.368 7.515-7.516s-3.367-7.516-7.516-7.516h-39.55l45.207-51.66a7.517 7.517 0 0 0 1.187-8.055zM241.3 211.344a7.517 7.517 0 0 0 6.684 4.078h40.078c4.149 0 7.516-3.367 7.516-7.516s-3.367-7.515-7.515-7.515h-25.477l31.59-44.227c3.492-4.887-.13-11.883-6.114-11.883h-40.078a7.516 7.516 0 0 0 0 15.031h25.477l-31.59 44.227a7.517 7.517 0 0 0-.57 7.805zM305.387 147.14a7.516 7.516 0 0 0 6.722 4.157h24.047a7.516 7.516 0 0 0 0-15.031h-9.015l15.027-20.04c3.648-4.863.055-12.023-6.012-12.023H312.11a7.516 7.516 0 0 0 0 15.031h9.02l-15.031 20.04a7.51 7.51 0 0 0-.711 7.867zm0 0"/></svg>