<svg xmlns="http://www.w3.org/2000/svg" viewBox="0 0 511.998 511.998" style="enable-background:new 0 0 511.998 511.998" xml:space="preserve"><path style="fill:#ffc2a6" d="m347.275 390.91-31.29-20.863h-119.96l-31.29 20.863c7.028 15.645 17.944 30.38 31.53 41.836l-.24.28v68.977h119.96v-68.977l-.24-.28c13.586-11.456 24.503-26.191 31.53-41.836z"/><path style="fill:#fff" d="M461.937 210.1h39.986c-6.128-42.886-35.958-78.634-77.055-92.33l-22.912-7.637 39.987-9.997 19.993-9.997-13.116-10.497a134.562 134.562 0 0 0-84.082-29.49h-2.769c14.465-7.238 25.522-16.155 39.987-23.392-27.98-22.383-93.608-28.95-145.951 23.392C203.393-2.46 136.145 4.987 110.054 25.86c14.465 7.238 25.522 17.054 39.987 24.292h-2.769c-30.57 0-60.22 10.397-84.082 29.49L50.073 90.139l39.987 9.997 19.993 9.997-22.912 7.637c-41.096 13.695-70.927 49.444-77.055 92.33H50.073l-14.625 14.625a86.607 86.607 0 0 0-25.362 61.23v4.119H50.073l-5.258 7.018a86.57 86.57 0 0 0-14.735 72.956l19.993-9.997 19.993-9.997a86.57 86.57 0 0 0 14.735 72.956l5.258 7.018 48.864-42.196c5.033 7.406 15.367 10.042 23.502 4.618l33.599-22.403a21.4 21.4 0 0 0 11.306 18.864 21.376 21.376 0 0 0 21.963-1.06l15.625-10.407a19.974 19.974 0 0 1 22.173 0l15.625 10.407a21.379 21.379 0 0 0 21.963 1.06 21.397 21.397 0 0 0 11.306-18.864l33.599 22.403c8.257 5.508 18.574 2.639 23.502-4.618l48.864 42.196 5.258-7.018a86.57 86.57 0 0 0 14.735-72.956l19.993 9.997 19.993 9.997a86.57 86.57 0 0 0-14.735-72.956l-5.258-7.018h39.986v-4.119a86.609 86.609 0 0 0-25.362-61.23L461.937 210.1z"/><circle style="fill:#d4e9ff" cx="196.021" cy="270.081" r="43.316"/><circle style="fill:#d4e9ff" cx="315.982" cy="270.081" r="43.316"/><path style="fill:#ffc2a6" d="M385.353 288.854c-3.889-7.787-6.078-16.195-6.728-24.772-.41-5.258-.24-10.577.46-15.855 8.277-62.469-40.337-118.101-103.516-118.101h-39.127c-63.179 0-111.793 55.632-103.516 118.101 1.849 13.905.01 28.071-6.268 40.627-6.338 12.666-3.849 27.971 6.168 37.987l14.265 14.265a68.214 68.214 0 0 1 52.043-30.839l-.03-.32c-23.13 1.814-43.066-16.512-43.066-39.867 0-22.083 17.904-39.987 39.987-39.987 14.795 0 27.721 8.037 34.639 19.993 7.68 13.306 7.163 30.203-2.019 43.126l3.449 17.244a24.393 24.393 0 0 0 2.279 6.468c4.109 7.907 12.356 13.136 21.633 13.136s17.524-5.228 21.633-13.136a24.358 24.358 0 0 0 2.279-6.468l3.449-17.244a39.813 39.813 0 0 1-7.368-23.132c0-22.095 17.913-39.987 39.987-39.987 22.175 0 39.987 18.004 39.987 39.987 0 23.68-20.398 41.809-43.166 39.857l-.03.32a68.255 68.255 0 0 1 43.196 19.803 67.856 67.856 0 0 1 8.947 11.046l14.265-14.265c10.016-10.017 12.506-25.322 6.168-37.987z"/><path d="M281.348 200.103h-50.683c-5.521 0-9.997 4.476-9.997 9.997s4.476 9.997 9.997 9.997h50.683c5.521 0 9.997-4.476 9.997-9.997 0-5.522-4.477-9.997-9.997-9.997z"/><path d="M501.924 220.096a9.997 9.997 0 0 0 9.897-11.41 124.302 124.302 0 0 0-27.636-62.102 124.228 124.228 0 0 0-47.166-34.911c14.085-3.654 2.217.473 29.389-12.591a9.995 9.995 0 0 0 1.775-16.746l-13.117-10.497c-17.982-14.389-39.214-24.225-61.626-28.783 4.204-2.596 8.416-5.065 12.989-7.353a9.998 9.998 0 0 0 1.771-16.746C391.027 5.217 364.53-1.695 337.323.47c-21.019 1.671-51.54 9.401-81.327 35.945-54.24-48.111-122.242-42.317-152.189-18.359a9.994 9.994 0 0 0 1.772 16.746c4.831 2.417 9.283 5.167 13.76 8.097-22.699 4.489-44.208 14.384-62.397 28.939L43.828 82.335a9.995 9.995 0 0 0 3.823 17.504l35.254 8.813C38.77 123.807 6.803 162.43.193 208.685a9.993 9.993 0 0 0 2.344 7.963c1.898 2.189 4.654 3.347 7.553 3.347h15.939C-3.36 251.578.381 288.473.094 290.072c0 5.521 4.476 9.897 9.997 9.897h20.74c-12.829 21.737-16.655 47.673-10.445 72.502a9.995 9.995 0 0 0 14.168 6.516l22.975-11.488c-1.579 41.164 22.408 64.617 24.534 68.52 3.488 4.654 10.169 5.341 14.534 1.572l42.133-36.384c6.245 3.901 14.013 5.229 21.544 3.102a128.903 128.903 0 0 0 25.758 32.729v64.963c0 5.521 4.476 9.997 9.997 9.997h119.96c5.521 0 9.997-4.476 9.997-9.997v-64.963a128.939 128.939 0 0 0 25.769-32.749c7.291 2.017 15.132.854 21.517-3.097l42.149 36.398c4.406 3.805 11.078 3.039 14.534-1.572 2.001-3.676 26.109-27.418 24.534-68.52l22.975 11.488a9.995 9.995 0 0 0 14.168-6.516c6.21-24.829 2.383-50.669-10.444-72.402h20.739c5.521 0 9.997-4.475 9.997-9.997v-4.119c0-24.295-9.414-48.104-25.935-65.858h15.935v.002zm-359.087 26.818c-7.478-56.428 36.476-106.792 93.606-106.792h39.127c57.151 0 101.081 50.381 93.606 106.791a88.564 88.564 0 0 0-.653 7.172h-5.188c-6.763-19.873-25.775-33.989-47.348-33.989-15.772 0-30.588 7.537-39.966 19.993h-40.028c-9.374-12.453-24.193-19.993-39.967-19.993-24.138 0-44.333 17.199-48.978 39.987h-3.466a87.145 87.145 0 0 0-.745-13.169zm229.279 72.858-6.226 6.226a76.991 76.991 0 0 0-2.849-3.006 78.212 78.212 0 0 0-17.096-12.928c11.147-8.374 18.681-21.297 19.85-35.985h4.124c1.313 6.744 3.471 13.194 6.495 19.248a22.876 22.876 0 0 1-4.298 26.445zM226.015 270.08c0 16.617-13.46 29.99-29.99 29.99-16.537 0-29.99-13.454-29.99-29.99s13.454-29.99 29.99-29.99c16.25 0 29.99 13.149 29.99 29.99zm17.227 42.232a14.387 14.387 0 0 1-1.346-3.816l-2.659-13.295c4.439-7.607 6.772-16.204 6.772-25.122 0-3.369-.348-6.818-1.017-10.097h22.027a51.009 51.009 0 0 0-1.017 10.097c0 8.916 2.333 17.511 6.772 25.121l-2.659 13.296a14.379 14.379 0 0 1-1.348 3.819 14.334 14.334 0 0 1-12.763 7.748 14.334 14.334 0 0 1-12.762-7.751zm70.344-12.342c-15.239-1.192-27.591-13.95-27.591-29.89 0-16.806 13.706-29.99 29.99-29.99 16.142 0 29.99 13.174 29.99 29.99.001 17.573-15.146 31.367-32.389 29.89zM135.6 293.324a74.254 74.254 0 0 0 5.092-13.248h6.356c2.483 12.186 9.415 22.772 19.018 29.986a78.195 78.195 0 0 0-17.095 12.929 78.485 78.485 0 0 0-2.849 3.006l-6.226-6.226a22.874 22.874 0 0 1-4.296-26.447zm70.422 198.682v-40.089c15.688 9.26 32.677 14.097 49.983 14.097 17.307 0 34.298-4.838 49.984-14.096v40.088h-99.967zm49.983-45.984c-33.008 0-62.52-22.864-78.386-51.688l12.683-8.456a31.33 31.33 0 0 0 12.307 11.844 31.328 31.328 0 0 0 32.226-1.55l15.635-10.414a9.943 9.943 0 0 1 11.08.006l15.622 10.404a31.32 31.32 0 0 0 32.219 1.558 31.356 31.356 0 0 0 12.316-11.85l12.684 8.457c-15.848 28.794-45.348 51.689-78.386 51.689zm99.125-61.89-33.598-22.403a9.995 9.995 0 0 0-15.543 8.317c0 4.212-2.307 8.062-6.032 10.053a11.37 11.37 0 0 1-11.699-.569l-15.616-10.401a29.876 29.876 0 0 0-33.265-.006l-15.629 10.41a11.374 11.374 0 0 1-11.705.561 11.372 11.372 0 0 1-6.022-10.048 9.995 9.995 0 0 0-15.543-8.317c-36.548 24.368-34.729 23.602-37.41 23.602-3.611 0-7.028-2.821-7.028-7.008 0-30.433 23.486-55.804 53.855-58.09 9.286-.712 18.75.866 27.552 4.557a34.233 34.233 0 0 0 28.557 15.266 34.234 34.234 0 0 0 28.557-15.266c8.779-3.679 18.218-5.258 27.472-4.565 30.53 2.274 53.935 27.744 53.935 58.099.001 5.618-6.182 8.912-10.838 5.808zm136.567-104.056h-29.759a9.998 9.998 0 0 0-8 15.991l5.262 7.023c11.327 15.098 16.579 33.506 15.099 51.963l-27.883-13.941a9.997 9.997 0 0 0-14.168 11.368c5.463 21.847 1.129 44.679-11.889 62.964l-35.236-30.428c.546-2.164.842-4.405.842-6.691a77.874 77.874 0 0 0-5.96-29.948 77.97 77.97 0 0 0-2.608-5.607l8.859-8.859a42.84 42.84 0 0 0 8.042-49.523c-3.041-6.09-4.907-12.771-5.586-19.881.006-.142.021-.281.021-.424 0-.689-.07-1.361-.203-2.01a66.293 66.293 0 0 1 .466-12.532c9.061-68.386-44.2-129.411-113.427-129.411h-39.127c-69.005 0-122.519 60.79-113.426 129.415 1.666 12.526-.167 24.572-5.298 34.835a42.845 42.845 0 0 0 8.039 49.53l8.848 8.847a78 78 0 0 0-8.556 35.566c0 2.285.296 4.527.842 6.691l-35.236 30.43c-13.018-18.281-17.353-41.115-11.889-62.964a9.998 9.998 0 0 0-14.168-11.368l-27.883 13.942c-2.801-34.909 18.465-55.469 20.36-58.987a9.996 9.996 0 0 0-8-15.991H20.314c2.953-37.57 29.754-53.952 36.828-62.908a9.995 9.995 0 0 0-7.07-17.065H22.254c8.765-34.148 34.017-61.508 68.05-72.849l22.912-7.637a9.997 9.997 0 0 0 1.31-18.425c-27.442-13.607-14.344-8.718-42.391-15.842 21.54-16.275 48.086-25.201 75.138-25.201h2.769a9.998 9.998 0 0 0 4.473-18.936c-6.672-3.339-12.618-7.311-18.911-11.517a639.29 639.29 0 0 0-5.457-3.62c27.423-10.553 77.097-10.551 118.792 31.146 3.904 3.904 10.234 3.904 14.138 0 27.648-27.648 56.499-35.284 75.835-36.822 15.431-1.228 30.774 1.097 43.081 6.23a748.494 748.494 0 0 0-5.373 3.381c-6.344 4.016-12.336 7.808-19.119 11.202a9.996 9.996 0 0 0 4.473 18.936h2.769c46.884 0 78.195 27.724 78.756 28.035l-5.04 2.52-38.922 9.731a9.998 9.998 0 0 0-.736 19.182l22.913 7.638c34.032 11.34 59.283 38.701 68.049 72.849h-27.82a9.999 9.999 0 0 0-7.07 17.065l14.625 14.625c12.864 12.866 20.778 30.202 22.199 48.282z"/><path d="M216.019 180.109h79.974c5.521 0 9.997-4.476 9.997-9.997s-4.476-9.997-9.997-9.997h-79.974c-5.521 0-9.997 4.476-9.997 9.997 0 5.522 4.475 9.997 9.997 9.997z"/></svg>