<svg height="505pt" viewBox="0 -1 505.071 505" width="505pt" xmlns="http://www.w3.org/2000/svg"><path d="M12.18 210.883c-.575.18-1.164.32-1.762.418-.672-.504-1.344-1.004-2.016-1.426 1.243.41 2.5.746 3.778 1.008zm0 0" fill="#fec108"/><g fill="#ff9801"><path d="M478.438 134.336c-41.97 75.539-41.97 92.328-25.18 109.113a32.99 32.99 0 0 0 3.187 2.856c-7.132 6.125-16.87 8.644-28.367-2.856-16.789-16.785-16.789-33.574 25.18-109.113 17.297-27.992 16.937-63.438-.926-91.07a111.122 111.122 0 0 0-7.469-34.832s75.54 50.359 33.575 125.902zM461.648 318.988c-29.628 29.63-33.07 72.27-10.488 81.836a45.785 45.785 0 0 1-14.691 2.102c-33.574 0-33.574-50.364 0-83.938a126.831 126.831 0 0 0 31.14-67.566c17.04 1.68 27.614-24.758 27.614-24.758s0 58.754-33.575 92.324zM478.438 453.285c-25.18 33.574-25.18 41.969-25.18 41.969h-25.18s0-8.395 25.18-41.969a94.417 94.417 0 0 0 17.875-51.117c12.988-1.02 23.25-11.426 24.09-24.426a103.787 103.787 0 0 1-16.785 75.543zm0 0"/></g><path d="M471.133 402.168a94.417 94.417 0 0 1-17.875 51.117c-25.18 33.574-25.18 41.969-25.18 41.969H67.16a202.279 202.279 0 0 0-25.183-92.328c-21.82-36.344-31.055-41.215-33.07-74.617-.337-5.121-.505-10.996-.505-17.711a65.905 65.905 0 0 0 13.262 12.757c8.648 5.875 19.809 8.98 28.707-4.367 16.367-24.508-15.023-88.8-39.953-107.687a12.838 12.838 0 0 0 1.762-.418h.086c15.109 3.355 68.238 9.066 46.5-84.942-13.43-58.168-3.024-87.71 9.652-102.57A42.516 42.516 0 0 1 92.34 8.434s0 25.43 9.148 37.097a13.183 13.183 0 0 0 16.032 4.867 32.088 32.088 0 0 0 17.878-14.937A59.808 59.808 0 0 0 142.7 8.434a150.413 150.413 0 0 1 34.582 92.41l24.758 19.976 12.258 9.907 37.601-28.875c.25-25.938 1.68-48.012 10.743-66.391a74.542 74.542 0 0 1 22.746-27.027 46.933 46.933 0 0 0 5.539 33.07 46.521 46.521 0 0 0 19.64 17.289 54.746 54.746 0 0 1 30.22-41.379 86.449 86.449 0 0 1 28.538-8.98s-26.023 58.5 7.805 83.933l21.988 9.067 2.52 1.004c38.527 6.968 52.46-25.516 50.695-59.172 17.863 27.632 18.223 63.078.926 91.07-41.969 75.539-41.969 92.328-25.18 109.113 11.496 11.5 21.234 8.98 28.367 2.856a21.353 21.353 0 0 0 11.164 5.117 126.831 126.831 0 0 1-31.14 67.566c-33.574 33.575-33.574 83.938 0 83.938 4.98.101 9.941-.606 14.691-2.102a24.349 24.349 0 0 0 10.488 2.102c3.18.027 6.352-.223 9.485-.758zm0 0" fill="#fec108"/><path d="M105.945 495.254c-3.668-22.293-19.64-83.719-35.18-109.602-5.378-8.972-10.07-16.125-14.03-22.254l-3.231-4.96a54.813 54.813 0 0 0 24.8-20.79c19.247-28.863 8.176-71.578-9.796-105.035a65.108 65.108 0 0 0 12.09-11.75c18.004-22.664 21.562-56.144 10.91-102.402a184.724 184.724 0 0 1-5.406-41.48 44.808 44.808 0 0 0 26.07 8 50.801 50.801 0 0 0 15.965-2.684 65.923 65.923 0 0 0 12.101-5.426c2.032 8.25 3.2 16.691 3.485 25.184l.547 15.332 69.562 56.113 71.496-54.96.145-16.36c.058-7.094.242-13.305.57-18.793a92.248 92.248 0 0 0 9.508 5.48l45.234 22.555.527-8.035a75.089 75.089 0 0 0 15.645 15.84l3.434 2.585 31.77 13.06 3.491.628c5.301.98 10.676 1.48 16.067 1.496a72.256 72.256 0 0 0 30.508-6.48c-32.926 60.507-48.27 101.14-12.707 136.703a64.052 64.052 0 0 0 18.996 13.37 61.435 61.435 0 0 1-10.602 14.688c-30.672 30.672-42.926 74.215-29.797 105.895a55.613 55.613 0 0 0 41.781 34.254c-7.277 9.808-21.636 52.172-26.238 59.828zm0 0" fill="#ff5722"/><path d="M386.11 396.547v81.918c-.028 9.262-7.528 16.762-16.786 16.789h-209.84c-9.257-.027-16.757-7.527-16.785-16.79v-67.652l218.23-12.757zm0 0" fill="#bfa885"/><path d="M360.93 398.055v80.41c-.028 9.262-7.528 16.762-16.79 16.789H159.485c-9.257-.027-16.757-7.527-16.785-16.79v-67.652zm0 0" fill="#ffe0b2"/><path d="M411.29 209.875v134.297c-.048 37.062-30.083 67.101-67.15 67.144H164.524s-1.933.086-5.12 0h-.587c-17.964-.671-72.351-8.558-69.164-78.73 3.696-83.934 3.696-105.922 3.696-105.922s.754-16.789 25.093-16.789zm0 0" fill="#bfa885"/><path d="M388.965 209.875v134.297c-.047 37.062-30.086 67.101-67.149 67.144h-163c-17.964-.671-72.351-8.558-69.164-78.73 3.696-83.934 3.696-105.922 3.696-105.922s.754-16.789 25.093-16.789zm0 0" fill="#ffe0b2"/><path d="M142.7 209.875v-83.934c0-18.543 15.03-33.574 33.573-33.574s33.575 15.031 33.575 33.574v83.934h-41.97" fill="#fdd7ad"/><path d="M272.46 226.664a33.493 33.493 0 0 0 4.536-16.789v-83.934c0-18.543-15.031-33.574-33.574-33.574s-33.574 15.031-33.574 33.574v83.934M310.566 92.367c18.543 0 33.575 15.031 33.575 33.574v83.934c0 18.543-15.032 33.574-33.575 33.574-18.539 0-33.57-15.031-33.57-33.574v-83.934c0-18.543 15.031-33.574 33.57-33.574zm0 0" fill="#fdd7ad"/><path d="M411.29 125.941v83.934c0 18.543-15.032 33.574-33.575 33.574a31.544 31.544 0 0 1-12.59-2.52 33.389 33.389 0 0 1-20.984-31.054v-83.934a33.389 33.389 0 0 1 20.984-31.054 31.477 31.477 0 0 1 12.59-2.52 33.539 33.539 0 0 1 23.754 9.82 33.539 33.539 0 0 1 9.82 23.754zm0 0" fill="#bfa885"/><path d="M386.11 125.941v83.934a33.383 33.383 0 0 1-20.985 31.055 33.389 33.389 0 0 1-20.984-31.055v-83.934a33.389 33.389 0 0 1 20.984-31.054 34.288 34.288 0 0 1 11.164 7.3 33.795 33.795 0 0 1 9.82 23.754zm0 0" fill="#fdd7ad"/><path d="M318.96 193.09h-16.784a8.393 8.393 0 1 0 0 16.785h16.785a8.393 8.393 0 1 0 0-16.785zM369.324 209.875h16.785a8.393 8.393 0 1 0 0-16.785h-16.785a8.393 8.393 0 1 0 0 16.785zM318.96 125.941h-16.784a8.393 8.393 0 1 0 0 16.785h16.785a8.393 8.393 0 1 0 0-16.785zM369.324 142.727h16.785a8.393 8.393 0 1 0 0-16.786h-16.785a8.393 8.393 0 1 0 0 16.785zM235.027 142.727h16.786a8.393 8.393 0 1 0 0-16.786h-16.786a8.393 8.393 0 1 0 0 16.785zM159.484 134.336a8.393 8.393 0 0 0 8.395 8.39h16.789a8.393 8.393 0 0 0 0-16.785h-16.79a8.394 8.394 0 0 0-8.394 8.395zM360.93 285.418a8.394 8.394 0 0 0-8.395-8.395h-50.36a8.393 8.393 0 1 0 0 16.785h50.36a8.393 8.393 0 0 0 8.395-8.39zM335.75 327.383a8.393 8.393 0 0 0 0-16.785h-16.79a8.393 8.393 0 1 0 0 16.785zM251.813 411.316a8.393 8.393 0 0 0-8.391 8.395v33.574a8.393 8.393 0 1 0 16.785 0v-33.574a8.394 8.394 0 0 0-8.394-8.395zM218.242 411.316a8.394 8.394 0 0 0-8.394 8.395v25.18a8.393 8.393 0 1 0 16.785 0v-25.18a8.393 8.393 0 0 0-8.39-8.395zm0 0"/><path d="M494.383 369.395a8.387 8.387 0 0 0-7.551 8.347c0 .692-.285 16.79-25.184 16.79a14.488 14.488 0 0 1-14.761-9.442c-5.684-13.715.504-39.973 20.699-60.164 35.621-35.625 36.031-95.746 36.031-98.262a8.39 8.39 0 0 0-6.793-8.254 8.397 8.397 0 0 0-9.39 5.113c-2.309 5.707-9.434 17.946-16.735 19.43a13.683 13.683 0 0 1-11.508-5.437c-11.691-11.692-16.226-22.059 26.582-99.102C530.98 57.047 450.336 1.996 449.523 1.45a8.392 8.392 0 0 0-12.45 10.07c9.193 22.942 10.517 56.7-3.178 73.489a29.283 29.283 0 0 1-28.73 9.406 41.612 41.612 0 0 0-24.505-10.172c-25.508-21.824-3.894-71.933-3.668-72.445A8.393 8.393 0 0 0 368.078.133c-41.68 6.242-57.074 30.215-62.715 45.324a36.678 36.678 0 0 1-11.832-34.969 8.395 8.395 0 0 0-13.18-8.77c-30.988 23.243-35.847 48.255-36.687 82.255h-.242a41.81 41.81 0 0 0-33.574 17.054 42.554 42.554 0 0 0-3.922-4.816 42.119 42.119 0 0 0-20.738-11.223c-4.426-56.035-35.84-81.984-37.235-83.093A8.392 8.392 0 0 0 139.074.87a8.39 8.39 0 0 0-4.77 7.563c0 .277-.218 27.597-19.437 34-3.25 1.082-4.523.175-5.137-.27-6.101-4.355-9-22.727-9-33.73A8.387 8.387 0 0 0 91.148.125a52.346 52.346 0 0 0-32.96 22.812c-15.79 23.024-18.352 58.317-7.606 104.918 8.066 34.934 6.227 58.98-5.32 69.547-12.5 11.434-34.02 4.59-34.207 4.532a8.393 8.393 0 0 0-10.2 4.273 8.389 8.389 0 0 0 2.891 10.676c24.34 16.207 52.508 78.176 39.64 97.472-3.667 5.508-6.714 5.602-7.718 5.625-6.961.11-16.941-9.644-20.55-14.421a8.398 8.398 0 0 0-9.368-2.926 8.399 8.399 0 0 0-5.738 7.965c0 42.586 6.312 52.28 21.562 75.699 3.758 5.773 8.14 12.496 13.211 20.984a195.134 195.134 0 0 1 23.98 87.973 8.393 8.393 0 0 0 8.395 8.39h386.098a8.387 8.387 0 0 0 8.39-7.554c.286-1.164 3.047-10.48 23.547-37.77a111.55 111.55 0 0 0 18.297-82.254 8.392 8.392 0 0 0-9.11-6.671zM352.535 125.94c0-13.906 11.274-25.18 25.18-25.18s25.18 11.274 25.18 25.18v83.934c0 13.906-11.274 25.18-25.18 25.18s-25.18-11.274-25.18-25.18zM276.844 27.47a52.944 52.944 0 0 0 29.972 38.879 8.392 8.392 0 0 0 12.145-6.941c.11-1.286 2.762-28.423 37.426-39.45-5.035 17.398-9.828 46.348 4.668 67.5a42.047 42.047 0 0 0-16.914 13.563 41.593 41.593 0 0 0-33.575-17.043 41.58 41.58 0 0 0-33.57 17.043 36.782 36.782 0 0 0-16.594-13.372c.485-27.527 3.02-44.8 16.442-60.18zm58.906 182.406c0 13.906-11.273 25.18-25.184 25.18-13.906 0-25.18-11.274-25.18-25.18v-83.934c0-13.906 11.274-25.18 25.18-25.18 13.91 0 25.184 11.274 25.184 25.18zm-109.117 8.395h16.789a23.88 23.88 0 0 1 23.5 16.785h-40.29zm16.789-117.508a25.122 25.122 0 0 1 17.82 7.36 25.148 25.148 0 0 1 7.36 17.82v83.984a41.983 41.983 0 0 0-25.18-8.446h-25.18v-75.539c0-13.906 11.274-25.18 25.18-25.18zm-41.969 25.18v75.538h-50.36v-75.539c0-13.906 11.274-25.18 25.18-25.18s25.18 11.274 25.18 25.18zM49.172 398.601c-5.188-8.653-9.68-15.543-13.531-21.47-11.45-17.577-16.567-25.44-18.215-46.577a33.436 33.436 0 0 0 18.683 6.187 26.021 26.021 0 0 0 21.246-13.094c16.184-24.273-4.199-74.359-26.566-103.113a43.208 43.208 0 0 0 25.711-10.66c16.586-15.11 20.102-43.95 10.45-85.797-11.919-51.629-3.981-78.058 4.773-91.18A40.587 40.587 0 0 1 84.64 20.395c1.3 11.632 4.968 27.992 15.27 35.417a21.537 21.537 0 0 0 20.26 2.579 44.403 44.403 0 0 0 27.958-31.36 115.719 115.719 0 0 1 20.144 57.774c-19.703 3.824-33.937 21.066-33.968 41.136v75.54h-8.39c-23.169.027-41.942 18.8-41.97 41.968v100.723c.04 31.992 20.207 60.5 50.36 71.191v63.102c.027 2.867.55 5.707 1.547 8.394H75.199a206.127 206.127 0 0 0-26.027-88.257zm110.312 88.257a8.393 8.393 0 0 1-8.39-8.394v-59.258a77.2 77.2 0 0 0 8.39.504h8.395a8.393 8.393 0 1 0 0-16.785h-8.395a62.64 62.64 0 0 1-7.359-.438c-29.379-3.71-51.406-28.703-51.395-58.316V243.449c0-13.906 11.274-25.18 25.184-25.18v16.786a8.393 8.393 0 1 0 16.785 0V218.27h67.149v16.785c0 9.273 7.515 16.789 16.785 16.789h40.422a25.174 25.174 0 0 1-23.633 16.785h-75.543a8.394 8.394 0 0 0-8.395 8.394 8.394 8.394 0 0 0 8.395 8.395h16.789v8.39c0 13.907 11.273 25.18 25.18 25.18h33.574c32.433.04 58.715 26.32 58.754 58.754a8.393 8.393 0 1 0 16.785 0c-.05-41.695-33.84-75.488-75.54-75.539h-33.573a8.394 8.394 0 0 1-8.395-8.394v-8.391h41.969c23.164-.031 41.937-18.8 41.965-41.969v-.226a41.403 41.403 0 0 0 58.754-8.395 41.402 41.402 0 0 0 27.605 16.606 41.38 41.38 0 0 0 31.149-8.211v100.949c-.043 32.43-26.325 58.707-58.754 58.754h-25.18a8.393 8.393 0 1 0 0 16.785h8.394v41.969a8.393 8.393 0 0 0 16.786 0v-41.97a75.66 75.66 0 0 0 33.574-7.972v66.727a8.393 8.393 0 0 1-8.39 8.394zm312.239-38.609a215.872 215.872 0 0 0-24.586 38.61h-54.18a24.835 24.835 0 0 0 1.547-8.395V400.28a74.894 74.894 0 0 0 25.18-56.11v-218.23a41.361 41.361 0 0 0-2.704-14.386 42.96 42.96 0 0 0 29.922-15.899c12.844-15.738 15.95-39.844 12.97-62.394 17.023 19.43 35.35 53.59 11.23 96.992-41.02 73.863-45.688 97.223-23.778 119.129a28.85 28.85 0 0 0 26.766 10.015 27.507 27.507 0 0 0 9.375-3.937 114.034 114.034 0 0 1-27.75 57.594c-23.281 23.285-33.516 56.297-24.34 78.453a31.275 31.275 0 0 0 30.273 19.808 49.221 49.221 0 0 0 26.02-6.328 85.591 85.591 0 0 1-15.945 43.262zm0 0"/></svg>