<svg xmlns="http://www.w3.org/2000/svg" viewBox="0 0 512 512" style="enable-background:new 0 0 512 512" xml:space="preserve"><path style="fill:#ff533e" d="M256 7.5c-10.059 0-18.574 6.602-21.455 15.709-8.476-4.401-19.163-3.051-26.275 4.062-8.787 8.787-8.787 23.033 0 31.82l31.82 31.82H256l17.73-31.82L256 7.5z"/><path style="fill:#ff2e23" d="M303.73 27.27c-7.112-7.112-17.8-8.463-26.275-4.062C274.574 14.102 266.059 7.5 256 7.5V90.91h15.91l31.82-31.82c8.787-8.787 8.787-23.033 0-31.82z"/><path style="fill:#ff9d73" d="M366 306.5h-50l52 198h50v-146c0-28.719-23.281-52-52-52z"/><path style="fill:#ffc28e" d="M316 306.5H146c-28.719 0-52 23.281-52 52v146h50l224-56v-90c0-28.719-23.281-52-52-52z"/><path style="fill:#de2318" d="M308 384.5a60 60 0 0 0-14.981 1.896L338 504.5h30v-60c0-33.137-26.863-60-60-60z"/><path style="fill:#ff2e23" d="M293.019 386.396c-15.792 4.064-29.066 14.394-37.019 28.186-10.364-17.974-29.762-30.082-52-30.082-33.137 0-60 26.863-60 60v60h194v-60c0-27.951-19.113-51.437-44.981-58.104z"/><circle style="fill:#2d2d2d" cx="357" cy="220.5" r="56"/><path style="fill:#ffc28e" d="M154 135.672c-16.569 0-30 13.432-30 30 0 16.569 13.431 30 30 30h97v-60h-97z"/><path style="fill:#ff9d73" d="M358 135.672h-97v60h97c16.569 0 30-13.431 30-30 0-16.568-13.431-30-30-30z"/><path style="fill:#ff9d73" d="M317.819 74.75H256V276.5c53.572 0 97-43.428 97-97v-30c0-30.078-13.691-56.958-35.181-74.75z"/><path style="fill:#ffc28e" d="M305.172 83.623 194.181 74.75C172.691 92.542 159 119.422 159 149.5v30c0 53.572 43.428 97 97 97 37.003 0 67-43.428 67-97v-30c0-25.434-6.765-48.578-17.828-65.877z"/><path style="fill:#2d2d2d" d="m256 52.5 49.172 31.123a97.158 97.158 0 0 0 12.647-8.873C301.035 60.853 279.493 52.5 256 52.5z"/><path style="fill:#424242" d="M256 52.5c-23.493 0-45.035 8.353-61.819 22.25C210.965 88.647 232.507 97 256 97c17.948 0 34.753-4.88 49.172-13.377C292.934 64.485 275.435 52.5 256 52.5z"/><path style="fill:#ff533e" d="M256 214c-12.128 0-23.005-7.677-27.066-19.103a7.499 7.499 0 0 1 4.554-9.579 7.496 7.496 0 0 1 9.579 4.554c1.941 5.46 7.139 9.128 12.934 9.128s10.992-3.668 12.934-9.128a7.497 7.497 0 0 1 9.579-4.554 7.5 7.5 0 0 1 4.554 9.579C279.005 206.323 268.128 214 256 214z"/><path style="fill:#ff2e23" d="M215 63.5c0-7.944-4.121-14.921-10.338-18.925 1.558-7.222-.452-15.06-6.064-20.673-5.613-5.613-13.451-7.623-20.673-6.065C173.921 11.621 166.944 7.5 159 7.5s-14.921 4.121-18.925 10.337c-7.222-1.558-15.06.452-20.673 6.065-5.613 5.613-7.623 13.45-6.064 20.673C107.121 48.579 103 55.556 103 63.5s4.121 14.921 10.338 18.925c-1.558 7.222.452 15.06 6.064 20.673 5.613 5.613 13.451 7.623 20.673 6.064 4.004 6.217 10.981 10.337 18.925 10.337s14.921-4.121 18.925-10.337c7.222 1.558 15.06-.452 20.673-6.064 5.613-5.613 7.623-13.451 6.064-20.673C210.879 78.421 215 71.444 215 63.5z"/><circle style="fill:#ffb833" cx="159" cy="63.5" r="15"/><circle style="fill:#ff9d73" cx="196" cy="182" r="16"/><path style="fill:#ff7859" d="M323 167.629 312.144 182l9.786 14.852C327.828 194.495 332 188.74 332 182c0-6.323-3.677-11.772-9-14.371z"/><path style="fill:#ff9d73" d="M323 167.629a15.91 15.91 0 0 0-7-1.629c-8.837 0-16 7.164-16 16s7.163 16 16 16a15.95 15.95 0 0 0 5.93-1.148c.702-5.63 1.07-11.429 1.07-17.352v-11.871z"/><path d="M233.5 156.5v-7c0-4.143-3.357-7.5-7.5-7.5h-20c-4.143 0-7.5 3.357-7.5 7.5s3.357 7.5 7.5 7.5h12.517a7.5 7.5 0 0 0 14.983-.5zM306 142h-20a7.499 7.499 0 0 0-7.5 7.5v7c0 4.143 3.357 7.5 7.5 7.5a7.5 7.5 0 0 0 7.483-7H306c4.143 0 7.5-3.357 7.5-7.5s-3.357-7.5-7.5-7.5zM366 299H146c-32.809 0-59.5 26.691-59.5 59.5v146c0 4.143 3.357 7.5 7.5 7.5h324c4.143 0 7.5-3.357 7.5-7.5v-146c0-32.809-26.691-59.5-59.5-59.5zM151.5 444.5c0-28.948 23.552-52.5 52.5-52.5 18.703 0 36.139 10.089 45.503 26.328a7.499 7.499 0 0 0 12.994 0C271.861 402.089 289.297 392 308 392c28.948 0 52.5 23.552 52.5 52.5V497h-209v-52.5zm259 52.5h-35V384.5c0-4.143-3.357-7.5-7.5-7.5s-7.5 3.357-7.5 7.5v17.639C348.116 386.82 329.187 377 308 377c-20.222 0-39.289 9.168-52 24.494C243.289 386.168 224.222 377 204 377c-21.187 0-40.116 9.82-52.5 25.139V384.5c0-4.143-3.357-7.5-7.5-7.5s-7.5 3.357-7.5 7.5V497h-35V358.5c0-24.537 19.963-44.5 44.5-44.5h220c24.537 0 44.5 19.963 44.5 44.5V497z"/><circle cx="174" cy="444.5" r="7.5"/><circle cx="228.67" cy="444.5" r="7.5"/><circle cx="283.33" cy="444.5" r="7.5"/><circle cx="338" cy="444.5" r="7.5"/><circle cx="201.33" cy="474.5" r="7.5"/><circle cx="256" cy="474.5" r="7.5"/><circle cx="310.67" cy="474.5" r="7.5"/><circle cx="201.33" cy="414.5" r="7.5"/><circle cx="310.67" cy="414.5" r="7.5"/><path d="M105.359 85.732a29.848 29.848 0 0 0 8.739 22.668c5.655 5.656 13.182 8.771 21.191 8.771.491 0 .982-.012 1.474-.036a29.83 29.83 0 0 0 17.283 9.453c-.119.53-.245 1.059-.355 1.591-20.536.167-37.191 16.918-37.191 37.492 0 20.678 16.822 37.5 37.5 37.5h.205C164.959 249.429 206.518 284 256 284c21.222 0 40.982-6.365 57.484-17.277A63.41 63.41 0 0 0 357 284c35.014 0 63.5-28.486 63.5-63.5 0-20.096-9.349-38.675-25.238-50.657.152-1.37.238-2.76.238-4.171 0-20.573-16.655-37.324-37.189-37.492-4.852-23.316-17.5-43.803-35.082-58.614a7.472 7.472 0 0 0-1.361-1.128 104.915 104.915 0 0 0-10.055-7.245c3.896-5.168 6.008-11.427 6.008-18.012 0-8.014-3.121-15.547-8.787-21.213-7.413-7.411-17.864-10.296-27.713-8.09C275.919 5.354 266.484 0 256 0c-10.924 0-20.707 5.811-25.977 14.963a7.5 7.5 0 0 0-.528 14.209c.639.241 1.158.468 1.589.691a7.498 7.498 0 0 0 10.61-4.393A14.947 14.947 0 0 1 256 15a14.944 14.944 0 0 1 14.305 10.471 7.499 7.499 0 0 0 10.607 4.395 14.942 14.942 0 0 1 17.515 2.709 14.902 14.902 0 0 1 4.394 10.605c0 4.007-1.561 7.773-4.395 10.606l-.155.155C285.339 48.198 271.037 45 256 45c-12.451 0-24.537 2.148-36.043 6.39a29.862 29.862 0 0 0-7.317-10.122 29.854 29.854 0 0 0-8.739-22.668c-6.002-6.003-14.162-9.163-22.665-8.735C175.596 3.616 167.583 0 159 0s-16.596 3.616-22.236 9.864c-8.505-.434-16.663 2.732-22.665 8.734a29.854 29.854 0 0 0-8.739 22.669c-6.246 5.64-9.86 13.652-9.86 22.233s3.614 16.593 9.859 22.232zM405.5 220.5c0 26.743-21.757 48.5-48.5 48.5a48.413 48.413 0 0 1-31.435-11.592c15.786-14.111 27.277-32.932 32.23-54.236H358c13.588 0 25.511-7.265 32.089-18.115 9.77 9.09 15.411 21.809 15.411 35.443zm-60-71c0 4.143 3.357 7.5 7.5 7.5s7.5-3.357 7.5-7.5c0-2.085-.069-4.155-.19-6.21 11.325 1.16 20.19 10.755 20.19 22.382 0 11.682-8.95 21.31-20.353 22.395.23-2.826.353-5.682.353-8.567 0-4.143-3.357-7.5-7.5-7.5s-7.5 3.357-7.5 7.5c0 49.351-40.149 89.5-89.5 89.5s-89.5-40.149-89.5-89.5c0-4.143-3.357-7.5-7.5-7.5s-7.5 3.357-7.5 7.5c0 2.885.123 5.741.353 8.567-11.403-1.085-20.353-10.713-20.353-22.395 0-11.631 8.872-21.229 20.203-22.384a106.097 106.097 0 0 0-.203 6.212c0 4.143 3.357 7.5 7.5 7.5s7.5-3.357 7.5-7.5a89.502 89.502 0 0 1 3.417-24.548 29.85 29.85 0 0 0 11.32-7.816c.491.024.982.036 1.474.036 8.01 0 15.536-3.115 21.19-8.771a29.879 29.879 0 0 0 7.841-13.745 104.308 104.308 0 0 0 44.259 9.844c22.101 0 43.672-7.077 61.453-20.006C334.713 100.82 345.5 123.923 345.5 149.5zm-40.326-74.742C290.648 84.306 273.52 89.5 256 89.5a89.34 89.34 0 0 1-38.867-8.876 29.828 29.828 0 0 0 5.21-14.073C233.021 62.204 244.321 60 256 60c18.15 0 35.052 5.436 49.174 14.758zM117.398 50.881a7.5 7.5 0 0 0 3.271-7.888c-1.084-5.022.426-10.176 4.037-13.788a14.863 14.863 0 0 1 10.584-4.377c1.075 0 2.153.114 3.203.341a7.493 7.493 0 0 0 7.888-3.271C149.163 17.579 153.88 15 159 15s9.837 2.579 12.619 6.898a7.497 7.497 0 0 0 7.888 3.271 15.187 15.187 0 0 1 3.203-.341 14.86 14.86 0 0 1 10.584 4.378c3.611 3.611 5.121 8.765 4.037 13.787a7.5 7.5 0 0 0 3.271 7.888c4.319 2.781 6.898 7.499 6.898 12.619s-2.579 9.838-6.898 12.619a7.987 7.987 0 0 0-.762.578 7.489 7.489 0 0 0-2.508 7.309c1.084 5.022-.425 10.177-4.037 13.788a14.859 14.859 0 0 1-10.584 4.377c-1.075 0-2.153-.114-3.203-.341a7.496 7.496 0 0 0-7.888 3.271c-2.783 4.32-7.5 6.899-12.62 6.899s-9.837-2.579-12.619-6.898a7.5 7.5 0 0 0-7.888-3.27c-1.05.227-2.128.341-3.203.341a14.864 14.864 0 0 1-10.585-4.378c-3.611-3.61-5.12-8.765-4.036-13.787a7.5 7.5 0 0 0-3.271-7.888c-4.319-2.781-6.898-7.499-6.898-12.619s2.579-9.839 6.898-12.62z"/><path d="M159 86c12.406 0 22.5-10.094 22.5-22.5S171.406 41 159 41s-22.5 10.094-22.5 22.5S146.594 86 159 86zm0-30c4.136 0 7.5 3.364 7.5 7.5S163.136 71 159 71s-7.5-3.364-7.5-7.5 3.364-7.5 7.5-7.5z"/></svg>