<svg xmlns="http://www.w3.org/2000/svg" viewBox="0 0 512 512" style="enable-background:new 0 0 512 512" xml:space="preserve"><path style="fill:#d2d26e" d="M128.104 144.625c-5.471-16.685 4.06-34.685 21.198-39.388 16.391-4.498 33.702 6.119 38.16 22.52 5.849 21.523-2.403 48.55-7.114 61.199-1.437 3.859-6.075 5.313-9.516 3.051-11.728-7.702-35.573-25.556-42.728-47.382z"/><path style="fill:#beb96e" d="M170.831 192.009c1.68 1.104 3.64 1.296 5.38.781-3.399-6.914-6.604-17.619-10.563-35.087-5.465-24.107-16.071-39.521-24.571-48.691-11.71 7.365-17.479 21.874-12.974 35.614 7.156 21.825 31.002 39.679 42.728 47.383z"/><path style="fill:#d2d26e" d="M54.531 357.154c9.678-20.711 35.614-28.633 55.5-15.665 16.034 10.455 21.607 30.566 13.503 47.908-12.486 26.722-46.475 45.498-61.168 52.606-3.645 1.763-7.96-.259-8.946-4.186-3.973-15.838-11.373-53.947 1.111-80.663z"/><path style="fill:#beb96e" d="M54.531 357.153c-12.484 26.717-5.085 64.826-1.111 80.662.388 1.545 1.374 2.675 2.549 3.516 23.508-28.339 42.032-71.34 37.346-91.187-1.546-6.548-1.405-11.129-.284-14.704-15.712-1.659-31.436 6.597-38.5 21.713z"/><path style="fill:#d2d26e" d="M279.224 316.403c-15.371-14.796-19.477-35.468-9.172-46.173 10.305-10.705 31.118-7.388 46.488 7.408 19.651 18.917 31.156 48.611 36.221 64.431 1.542 4.817-2.901 9.434-7.774 8.076-15.999-4.459-46.111-14.825-65.763-33.742z"/><path style="fill:#beb96e" d="M344.988 350.145a6.252 6.252 0 0 0 5.077-.743c-16.397-18.311-51.74-56.399-80.714-78.192-9.252 10.931-5.073 30.804 9.875 45.193 19.65 18.917 49.762 29.283 65.762 33.742z"/><path style="fill:#d29b82" d="m383.154 229.766 44.168 22.626c4.505 2.308 10.241-.881 10.658-5.926l4.089-49.457-49.845-20.29-9.07 53.047z"/><path style="fill:#beb96e" d="M320.337 56.805c-54.459 6.014-54.524 54.933-52.065 70.481.501 3.171 3.759 5.102 6.734 3.892 15.244-6.198 50.126-29.195 53.184-61.51l-7.853-12.863z"/><path style="fill:#c38264" d="M405.102 135.227c3.814 39.107-8.705 92.865-14.43 114.731-1.268 4.844-6.981 6.867-11.019 3.905-18.251-13.382-61.515-47.066-78.221-77.113-14.662-26.37-12.697-57.484 2.445-81.263 14.126-22.184 41.845-33.491 66.045-23.193 23.032 9.801 32.412 34.55 35.18 62.933z"/><path style="fill:#d28c73" d="M350.184 165.762c31.205 23.878 83.474 41.614 105.069 48.291 4.784 1.479 9.517-2.306 9.133-7.299-1.735-22.564-7.515-77.09-24.22-107.137-14.662-26.37-42.126-41.121-70.316-40.809-26.299.291-50.531 17.869-54.555 43.86-3.831 24.735 12.24 45.763 34.889 63.094z"/><path style="fill:#d2d26e" d="M326.112 70.443c14.824 3.143 48.659 6.668 88.027-13.303 4.092-2.076 3.993-8.002-.227-9.804-18.777-8.022-61.186-20.42-90.691 14.282-2.635 3.1-1.09 7.981 2.891 8.825z"/><path d="M449.802 96.01c-6.873-12.602-16.772-23.307-28.619-31.194a171.801 171.801 0 0 0 8.883-4.512 7.5 7.5 0 0 0 .446-12.908c-.721-.46-17.925-11.323-40.587-15.2-27.61-4.721-51.294 2.88-69.068 22.007-13.573-18.955-31.533-33.705-52.617-43.039-28.519-12.625-61.924-14.584-96.609-5.665-40.736 10.476-71.071 39.344-83.23 79.202-4.896 16.05-8.462 39.94-2.884 70.868-3.59-.804-7.164-.871-10.341-.4a7.5 7.5 0 1 0 2.198 14.84c2.902-.428 9.983-.492 13.523 7.955 8.45 28.298 24.437 61.315 52.409 98.599-9.173-2.462-18.392-3.034-26.726-1.358-14.622 2.939-25.571 12.636-30.829 27.306-3.243 9.046-3.315 17.542-2.37 25.737-14.493 2.271-27.647 11.469-34.312 25.731-17.166 36.735-.169 91.152.563 93.451a7.501 7.501 0 0 0 9.985 4.666c2.232-.913 54.879-22.788 72.044-59.524 10.64-22.771.771-49.953-22-60.593a45.475 45.475 0 0 0-11.144-3.55c-.987-7.208-1.126-13.941 1.353-20.855 3.514-9.802 10.13-15.744 19.664-17.66 16.036-3.223 37.643 5.331 51.399 20.342 39.833 44.799 60.343 95.242 70.535 129.674 11.1 37.503 12.723 64.714 12.738 64.979a7.5 7.5 0 0 0 7.898 7.081 7.5 7.5 0 0 0 7.081-7.898c-.063-1.161-1.683-28.885-13.199-67.965-7.731-26.236-21.208-61.372-44.102-96.689-.069-.169-.136-.339-.218-.505-1.391-2.817-5.332-12.457 2.378-18.176a7.502 7.502 0 0 0-8.937-12.049c-3.572 2.65-6.275 5.936-8.072 9.641a316.73 316.73 0 0 0-14.931-18.105c-36.867-41.447-62.065-81.983-74.894-120.483-7.841-23.531-10.84-46.249-8.991-66.937 4.506-7.66 11.021-11.246 18.917-10.357 4.381.491 9.269 2.425 14.078 5.824a38.472 38.472 0 0 0-6.684 9.397c-4.627 9.143-5.418 19.54-2.225 29.277 10.409 31.747 51.105 54.732 52.832 55.694a7.496 7.496 0 0 0 5.988.575 7.497 7.497 0 0 0 4.485-4.01c.822-1.798 20.007-44.417 9.599-76.164-6.59-20.099-28.305-31.089-48.405-24.501-.842.276-1.664.589-2.478.918-7.678-6.66-16.431-10.899-25.521-11.918-5.787-.65-11.261.098-16.229 2.111.058-.195.105-.396.165-.59 10.596-34.739 37.064-59.907 72.617-69.05 4.16-1.07 8.276-1.968 12.345-2.702l.015-.001c2.382-.275 4.512.289 5.996 1.592 2.028 1.783 2.485 4.652 2.512 6.746a7.501 7.501 0 0 0 7.499 7.405h.098a7.502 7.502 0 0 0 7.405-7.596c-.049-3.804-.82-7.348-2.229-10.473 18.973-.669 36.764 2.625 53.16 9.883 13.99 6.194 26.441 15.098 36.867 26.266-25.424 12.925-34.046 34.452-36.687 50.998-3.067 19.21 1.199 35.512 1.382 36.197a7.502 7.502 0 0 0 10.837 4.647c2.339-1.275 4.852-2.493 7.513-3.783.732-.355 1.466-.711 2.202-1.071a87.885 87.885 0 0 0 10.758 42.275c21.127 38.741 84.555 79.201 87.245 80.904a7.498 7.498 0 0 0 11.048-3.737h.001a431.39 431.39 0 0 0 4.144-11.793c22.018 10.737 35.253 15.809 35.867 16.043a7.503 7.503 0 0 0 6.259-.425 7.501 7.501 0 0 0 3.747-5.033c.136-.642 3.039-14.51 5.936-38.827a434.691 434.691 0 0 0 12.16 2.889v-.002a7.489 7.489 0 0 0 1.568.179h.058a7.501 7.501 0 0 0 7.5-7.442c.03-3.186.365-78.418-20.762-117.159zM119.115 362.838c2.788 7.679 2.418 15.983-1.04 23.383-11.104 23.763-41.859 41.223-56.369 48.395-3.808-15.733-10.147-50.524.957-74.288 4.485-9.6 13.354-15.78 23.116-17.277 2.233 12.677 3.687 24.87-4.463 38.908a7.501 7.501 0 0 0 12.973 7.534c9.735-16.766 9.06-31.533 6.981-44.782.687.263 1.37.542 2.046.858 7.4 3.458 13.01 9.591 15.799 17.269zm39.633-251.191c9.825 0 18.992 6.253 22.215 16.085 6.207 18.928-1.191 44.447-5.816 57.241-11.304-7.574-32.373-23.756-38.579-42.684a23.212 23.212 0 0 1 1.355-17.828 23.436 23.436 0 0 1 4.021-5.672c4.777 6.25 8.913 14.296 11.625 24.192a7.505 7.505 0 0 0 7.23 5.521 7.502 7.502 0 0 0 7.239-9.486c-2.796-10.2-7.153-19.399-12.587-27.121a23.099 23.099 0 0 1 3.297-.248zm228.225-64.736c8.647 1.435 16.488 4.108 22.585 6.671-32.974 13.987-61.028 11.56-75.55 8.594 13.934-13.659 31.7-18.794 52.965-15.265zm-110.342 78.264c-1.697-15.776-.511-47.329 32.16-62.051a122.457 122.457 0 0 1 5.65 8.685c-13.44 11.712-23.047 27.273-27.483 44.829a89.244 89.244 0 0 0-.788 3.456c-2.777 1.755-6.162 3.439-9.539 5.081zm31.576 48.053c-8.847-16.222-11.228-35.015-6.705-52.916a73.475 73.475 0 0 1 6.248-16.279c1.177 26.003 19.358 53.124 49.906 74.43a7.462 7.462 0 0 0 4.284 1.349 7.5 7.5 0 0 0 4.298-13.653c-26.731-18.644-42.588-41.57-43.509-62.901-.466-10.8 3.067-19.991 9.943-25.964 6.493 1.261 14.873 2.321 24.723 2.321 13.098 0 28.785-1.881 46.037-7.65 14.195 6.614 25.636 17.356 33.199 31.226 15.14 27.763 18.182 79.278 18.788 100.426-21.793-5.356-41.479-12.097-58.627-20.085a7.502 7.502 0 0 0-9.966 3.631 7.5 7.5 0 0 0 3.631 9.966 264.66 264.66 0 0 0 4.181 1.901c-2.818 14.125-6.902 28.992-12.191 44.372-17.45-11.956-59.085-42.386-74.24-70.174zm122.102 71.134c-6.328-2.704-16.017-7.027-28.26-13.041 2.663-9.031 4.908-17.87 6.712-26.466 8.215 3.144 16.854 6.048 25.887 8.699-1.574 13.544-3.186 24.026-4.339 30.808z"/><path d="M323.079 272.235c-15.657-15.072-35.86-19.71-49.854-12.566-10.657-8.751-19.074-13.813-19.715-14.195a7.5 7.5 0 0 0-10.282 2.609 7.5 7.5 0 0 0 2.609 10.282c.136.081 7.165 4.311 16.349 11.69-3.786 6.429-4.933 14.447-3.196 23.189 2.028 10.21 7.842 20.354 16.369 28.563 29.083 27.997 78.305 37.974 80.386 38.385a7.5 7.5 0 0 0 8.751-9.092c-.49-2.062-12.334-50.869-41.417-78.865zM285.763 311c-6.249-6.015-10.643-13.551-12.059-20.678-.485-2.442-.889-6.309.239-9.959 5.66 5.432 11.403 11.718 16.412 18.695a7.49 7.49 0 0 0 6.1 3.126 7.5 7.5 0 0 0 6.086-11.875c-5.014-6.984-10.63-13.297-16.225-18.844.412-.025.825-.047 1.247-.047 7.772 0 17.321 4.125 25.112 11.625 17.607 16.949 28.439 43.74 33.596 59.273-15.719-4.564-42.902-14.368-60.508-31.316z"/></svg>