<svg height="512" width="512" xmlns="http://www.w3.org/2000/svg"><path d="m386.222 136.633-4.916.1c-14.368.581-28.075 3.695-40.69 8.921 0 0-29.146 4.566-79.759 68.014l-3.404 4.095c-41.011-54.077-78.227-69.606-84.144-71.819-.751-.28-1.492-.571-2.233-.861-13.316-5.317-27.804-8.3-42.983-8.45-65.782-.651-120.099 52.695-120.579 118.476-.481 66.332 53.146 120.259 119.368 120.259l4.916-.1c14.368-.581 28.075-3.695 40.69-8.921 0 0 29.707-4.656 81.21-69.846l-.21.28 1.171 1.432c47.929 56.93 85.956 68.134 85.956 68.134 14.047 5.817 29.456 9.021 45.606 9.021 65.931 0 119.368-53.446 119.368-119.367s-53.436-119.368-119.367-119.368zM187.346 298.192c-16.691 17.502-35.684 31.008-60.965 31.008-40.43 0-73.2-32.77-73.2-73.2 0-40.42 32.76-73.19 73.17-73.2 22.588-.01 40.52 12.145 56.98 26.823 25.081 22.358 44.145 44.315 44.145 44.315s-26.323 29.756-40.13 44.254zm199.406 31.009c-22.588.01-40.52-12.145-56.98-26.823-25.081-22.358-44.145-44.315-44.145-44.315s26.323-29.757 40.13-44.255c16.691-17.502 35.684-31.008 60.965-31.008 40.43 0 73.2 32.77 73.2 73.2.001 40.42-32.76 73.191-73.17 73.201z" fill="#fb2b3a"/><g fill="#d6132b"><path d="M285.627 258.063s5.527 6.368 14.558 15.739l-31.96 39.639a350.645 350.645 0 0 1-13.567-15.229l-1.171-1.432.21-.28zM227.476 253.938s-5.337-6.147-14.087-15.259l30.968-37.096a327.622 327.622 0 0 1 13.096 16.18zM424.679 142.961c37.416 20.145 62.848 59.684 62.848 105.16 0 65.921-53.436 119.368-119.367 119.368-14.718 0-28.816-2.663-41.832-7.549 9.041 4.866 14.288 6.408 14.288 6.408 14.047 5.817 29.456 9.021 45.606 9.021 65.931 0 119.368-53.446 119.368-119.367-.001-52.467-33.853-97.032-80.911-113.041z"/></g><path d="M505.506 264.86a7.508 7.508 0 0 0-8.456 6.425c-3.624 26.54-16.758 50.954-36.984 68.743a111.742 111.742 0 0 1-73.842 27.834c-14.805 0-29.185-2.844-42.741-8.454a8.175 8.175 0 0 0-.719-.255c-.159-.048-16.156-5.045-39.975-23.953a7.51 7.51 0 0 0-9.338 11.764c24.436 19.396 41.604 25.482 44.597 26.449 15.295 6.282 31.501 9.468 48.176 9.468 30.863 0 60.61-11.214 83.761-31.575 22.937-20.173 37.833-47.87 41.946-77.988a7.511 7.511 0 0 0-6.425-8.458z"/><path d="M324.771 307.98c15.938 14.208 35.76 28.732 61.956 28.731h.026c44.487-.017 80.679-36.223 80.679-80.711 0-44.504-36.206-80.71-80.71-80.71h-.001c-30.684 0-51.602 17.818-66.395 33.34-21.646 22.714-70.736 80.957-72.52 83.214-47.065 59.567-75.018 66.74-76.548 67.091-.638.083-1.027.218-1.637.471-12.092 5.004-24.896 7.816-38.054 8.357l-4.763.096c-30.004-.02-58.169-11.757-79.311-33.054-21.158-21.313-32.69-49.597-32.47-79.643.217-29.791 12.127-57.786 33.535-78.827 21.152-20.79 48.927-32.197 78.329-32.197.376 0 .756.002 1.132.005 13.914.139 27.465 2.8 40.282 7.912.791.315 1.582.625 2.38.924 3.909 1.462 38.367 15.38 77.154 64.616 0 0-16.665 20.353-20.519 24.929-7.561-8.237-21.807-23.194-38.982-38.505-15.938-14.208-35.759-28.731-61.954-28.731h-.027c-2.678 0-5.383.134-8.038.398-4.127.411-7.14 4.088-6.73 8.215s4.096 7.136 8.215 6.73a66.606 66.606 0 0 1 6.557-.325h.028c11.872 0 27.33 2.97 51.955 24.922 17.506 15.607 32.174 31.172 39.132 38.797-10.999 12.653-22.775 25.559-35.566 38.98-18.905 19.837-36.029 28.684-55.524 28.684-36.222 0-65.692-29.47-65.692-65.692 0-22.019 10.954-42.468 29.302-54.702a7.51 7.51 0 1 0-8.332-12.496C59.125 203.828 45.671 228.949 45.671 256c0 44.503 36.206 80.71 80.71 80.711 30.687 0 51.603-17.818 66.396-33.341 21.646-22.714 73.856-84.901 73.856-84.901l.094-.115c46.203-57.919 73.607-64.943 75.118-65.29.638-.082 1.026-.218 1.637-.471 12.092-5.004 24.895-7.816 38.054-8.358l4.761-.096c26.799.018 52.712 9.655 72.973 27.141 20.074 17.324 33.377 41.207 37.459 67.25a7.51 7.51 0 0 0 14.838-2.326c-4.633-29.553-19.72-56.647-42.484-76.293-23.006-19.855-52.432-30.79-82.859-30.79l-.152.001-4.917.099c-.051.001-.102.002-.153.005-14.706.596-29.025 3.693-42.574 9.207-6.283 1.4-34.814 10.605-80.83 67.311-39.585-49.277-74.741-64.244-81.658-66.83-.698-.261-1.391-.533-2.08-.808-14.544-5.801-29.917-8.822-45.693-8.979-33.863-.354-65.849 12.625-90.138 36.498C13.755 189.485.25 221.245.003 255.055c-.248 34.078 12.831 66.158 36.83 90.333 24.001 24.177 55.98 37.492 90.046 37.492l.152-.001 4.917-.099c.051-.001.102-.002.153-.005 14.705-.596 29.025-3.693 42.573-9.207 6.207-1.381 34.049-10.358 78.963-65.024a351.064 351.064 0 0 0 13.002 14.084 7.509 7.509 0 1 0 10.744-10.494 339.67 339.67 0 0 1-14.11-15.391c3.944-4.759 18.659-22.693 22.515-27.271 7.558 8.235 21.809 23.197 38.983 38.508zm6.427-88.988c18.905-19.838 36.029-28.684 55.524-28.683 36.222 0 65.692 29.469 65.692 65.692 0 36.209-29.458 65.678-65.667 65.692h-.026c-11.872 0-27.332-2.97-51.957-24.923-17.509-15.61-32.178-31.178-39.133-38.802 10.998-12.65 22.778-25.557 35.567-38.976z"/></svg>