<svg height="511pt" viewBox="0 0 511.999 511" width="511pt" xmlns="http://www.w3.org/2000/svg"><path d="m85.2 297.137-10.638 8.48L56 320.5v-40.004l11.441-7.68a15.077 15.077 0 0 1 8.32-2.48c3.84 0 7.68 1.441 10.481 4.242.797.719 1.438 1.598 2.078 2.48 4.32 6.481 3.04 15.2-3.12 20.079zm0 0" fill="#d6cfc8"/><g fill="#6c2c91"><path d="M24.563 438.898 48 504.496l-24-64zM432 328.496l8 32-24 16-16 112-24-72v88H136v-88l-24 72-16-112-24-16 8-32-15.277 3.36 9.84-26.239 10.64-8.48c6.156-4.88 7.438-13.598 3.117-20.078-.64-.883-1.277-1.762-2.078-2.48L96 248.495s18.879 49.043 69.602 79.762c13.199-37.2 48.636-63.762 90.398-63.762 41.758 0 77.2 26.563 90.398 63.762C397.118 297.539 416 248.496 416 248.496l9.758 26.082c-.801.719-1.442 1.598-2.078 2.48-4.32 6.481-3.04 15.2 3.117 20.079l10.64 8.48v.078l9.84 26.16zM487.996 440.496l-23.996 64 23.438-65.598zm0 0"/></g><path d="M416 248.5s-18.883 49.04-69.602 79.758C333.2 291.058 297.758 264.5 256 264.5c-41.762 0-77.2 26.559-90.398 63.758C114.879 297.539 96 248.5 96 248.5h96l.32-1.121C206 243.699 216 231.297 216 216.5l-8-24 32 32 16 8 16-8 32-32-8 24c0 14.797 10 27.2 23.68 30.879l.32 1.121zm0 0" fill="#ebe5dd"/><path d="m312 144.5-8 48-32 31.996-16 8-16-8-32-31.996-8-48 56-48zm0 0" fill="#ffb398"/><path d="m352 72.5-22.242 40.078c-.559-.078-1.2-.078-1.758-.078l-10.32-2.32L256 96.5l-61.68 13.68L184 112.5c-.559 0-1.2 0-1.762.078L160 72.5l16-32 24-8 32-24h48l31.996 24 24 8zm0 0" fill="#6c2c91"/><path d="M205.656 26.844c-3.125-3.125-8.187-3.125-11.312 0s-3.125 8.187 0 11.312l40 40c1.562 1.563 3.61 2.344 5.656 2.344s4.094-.781 5.656-2.344a7.997 7.997 0 0 0 0-11.312zM317.656 26.844a7.997 7.997 0 0 0-11.312 0l-40 40a7.997 7.997 0 0 0 0 11.312c1.562 1.563 3.61 2.344 5.656 2.344s4.094-.781 5.656-2.344l40-40a7.997 7.997 0 0 0 0-11.312zm0 0" fill="#ffd422"/><path d="m279.43 173.531-16-40c-1.64-4.117-6.328-6.11-10.399-4.46a8.001 8.001 0 0 0-4.46 10.398L256 168.496h-8c-4.422 0-8 3.578-8 8a7.996 7.996 0 0 0 8 8.004h24a8.006 8.006 0 0 0 7.43-10.969zm0 0" fill="#f49b7f"/><path d="M416 240.496v8.004h-88c-2.879 0-5.68-.402-8.32-1.121C306 243.699 296 231.297 296 216.5l8-24 8-48-56-48 61.68 13.68L328 112.5c.559 0 1.2 0 1.758.078 10.32.402 19.68 4.8 26.558 11.602 7.204 7.28 11.68 17.28 11.68 28.32v40c6.64 0 12.64 2.719 16.961 7.04 4.32 4.32 7.043 10.32 7.043 16.96 6.637 0 12.64 2.719 16.957 7.04 4.32 4.32 7.043 10.32 7.043 16.956zM208 192.5l8 23.996c0 14.8-10 27.203-23.68 30.883a31.707 31.707 0 0 1-8.32 1.117H96v-8c0-6.64 2.719-12.64 7.04-16.96 4.32-4.321 10.32-7.04 16.96-7.04 0-6.64 2.719-12.64 7.04-16.96 4.32-4.321 10.32-7.04 16.96-7.04v-40c0-11.039 4.48-21.039 11.68-28.32 6.879-6.797 16.242-11.2 26.558-11.598.563-.082 1.203-.082 1.762-.082l10.32-2.32L256 96.496l-56 48zm0 0" fill="#ffd422"/><path d="M352 360.496c0 33.36-17.043 62.8-42.883 80H202.961c-25.922-17.121-42.961-46.558-42.961-80 0-11.36 1.918-22.16 5.602-32.238 13.199-37.2 48.636-63.762 90.398-63.762 41.758 0 77.2 26.563 90.398 63.762 3.68 10.078 5.602 20.879 5.602 32.238zm0 0" fill="#5aaae7"/><path d="M328 456.496v16H184v-16c0-8.8 7.2-16 16-16h112c8.8 0 16 7.2 16 16zm0 0" fill="#e8bf13"/><path d="M344 504.496H168v-16c0-8.836 7.164-16 16-16h144c8.836 0 16 7.164 16 16zm0 0" fill="#ffd422"/><path d="M312 344.496c0 12.242-3.043 23.762-8.48 33.84-2.243-1.2-4.801-1.84-7.52-1.84-8.8 0-16 7.203-16 16 0 3.524 1.121 6.883 3.2 9.52-12 9.12-27.04 14.48-43.2 14.48-39.758 0-72-32.238-72-72 0-39.758 32.242-71.996 72-71.996s72 32.238 72 71.996zm0 0" fill="#a7d9f2"/><path d="M312 392.496c0 8.8-7.2 16-16 16a15.823 15.823 0 0 1-12.8-6.48c-2.083-2.641-3.2-6-3.2-9.52 0-8.797 7.2-16 16-16 2.719 0 5.277.64 7.52 1.84 5.039 2.723 8.48 8.082 8.48 14.16zM216 304.5c0 8.836-7.164 16-16 16s-16-7.164-16-16c0-8.84 7.164-16.004 16-16.004s16 7.164 16 16.004zm0 0" fill="#fff"/><path d="m312 144.5 13.605-4.54a12.634 12.634 0 0 1 15.293 6.337 12.635 12.635 0 0 1-.468 12.148l-17.762 29.606a9.165 9.165 0 0 1-7.856 4.449c-5.66 0-9.964-5.086-9.035-10.668zM200 144.5l-13.61-4.54a12.63 12.63 0 0 0-15.288 6.337 12.625 12.625 0 0 0 .464 12.148l17.766 29.606a9.165 9.165 0 0 0 7.856 4.449c5.66 0 9.964-5.086 9.035-10.668zm0 0" fill="#ffb398"/><path d="M70.559 228.098 56 264.496v72l-32 8-8-72 24-32L55.602 219.7c1.757-2.32 4.316-3.441 6.878-3.441 3.122 0 6.16 1.68 7.762 4.8 1.117 2.16 1.2 4.72.317 7.04zm0 0" fill="#ebe5dd"/><path d="m112 488.496-32 16H48l-23.438-65.598L8 392.496l24-24-24-24 56.719-12.64L80 328.495l-8 32 24 16zm0 0" fill="#8034ad"/><path d="m40 240.496-24 32-8-48 16.48-27.52c3.282-5.359 11.2-5.117 14 .563.56 1.117.88 2.398.88 3.598 0 .883-.16 1.68-.4 2.48L32 224.497zm0 0" fill="#d6cfc8"/><path d="m495.996 272.496-8 72-31.996-8v-72l-14.563-36.398c-.878-2.32-.796-4.88.32-7.04 1.602-3.12 4.641-4.8 7.763-4.8 2.558 0 5.117 1.12 6.878 3.441L472 240.496zm0 0" fill="#ebe5dd"/><path d="M456 280.496v40L437.437 305.7v-.082l-10.64-8.48c-6.156-4.88-7.438-13.598-3.117-20.078.64-.88 1.277-1.762 2.078-2.48 2.8-2.802 6.64-4.24 10.48-4.24 2.88 0 5.758.798 8.32 2.481zm0 0" fill="#d6cfc8"/><path d="m479.996 368.496 24.004 24-16.563 46.402L464 504.496h-32l-32-16 16-112 24-16-8-32 15.277 3.36L504 344.495zm0 0" fill="#8034ad"/><path d="m504 224.496-8.004 48-23.996-32 8-16-6.96-20.879c-.243-.8-.403-1.597-.403-2.48 0-1.2.32-2.48.883-3.598 2.796-5.68 10.718-5.922 13.996-.559zm0 0" fill="#d6cfc8"/><path d="M272 72.5c0-13.254-7.164-24-16-24s-16 10.746-16 24 7.164 24 16 24 16-10.746 16-24zm0 0" fill="#ed539d"/><path d="M278.625 180.98a8.002 8.002 0 0 0 .805-7.449l-16-40c-1.64-4.117-6.328-6.11-10.399-4.46a8.001 8.001 0 0 0-4.46 10.398l11.617 29.027H248c-4.422 0-8 3.578-8 8a7.996 7.996 0 0 0 8 8.004h24a8.006 8.006 0 0 0 6.625-3.52zm0 0"/><path d="m491.313 368.496 18.34-18.344a8 8 0 0 0-3.938-13.469l-8.57-1.902 6.789-61.238 7.953-47.73a8.035 8.035 0 0 0-1.024-5.422l-16.523-27.594c-3.063-5.008-8.664-8.008-14.445-7.664-5.797.265-10.985 3.664-13.524 8.804-1.133 2.258-1.734 4.75-1.734 7.204 0 1.586.242 3.156.816 5.007l5.906 17.735-.734 1.465-7.852-10.473c-3.18-4.203-8.015-6.617-13.25-6.617-6.289 0-11.992 3.508-14.867 9.125-2.14 4.125-2.39 9.062-.652 13.687l13.789 34.453c-5.34-3.035-11.895-3.691-17.707-2.203l-6.09-16.27v-6.55c0-8.531-3.328-16.57-9.383-22.617-4.308-4.313-9.633-7.242-15.43-8.57-1.328-5.797-4.253-11.118-8.57-15.43-4.11-4.11-9.136-6.969-14.617-8.375V152.5c0-12.773-4.965-24.828-14.05-34.016-5.634-5.558-12.481-9.414-19.844-11.672l16.886-30.43a7.992 7.992 0 0 0 .164-7.46l-16-32a7.994 7.994 0 0 0-4.625-4.008l-22.77-7.594-30.96-23.218A7.977 7.977 0 0 0 280 .5h-48a7.977 7.977 0 0 0-4.797 1.602l-30.96 23.218-22.774 7.594a7.994 7.994 0 0 0-4.625 4.008l-16 32a8.004 8.004 0 0 0 .164 7.46l16.887 30.43c-7.368 2.262-14.23 6.137-19.903 11.743C140.97 127.672 136 139.727 136 152.5v33.008c-5.477 1.406-10.508 4.265-14.617 8.375-4.313 4.312-7.242 9.633-8.57 15.43-5.797 1.328-11.118 4.257-15.43 8.57C91.328 223.93 88 231.969 88 240.5v6.55l-6.078 16.24c-5.836-1.552-12.3-.84-17.719 2.233l13.79-34.453c.015-.047.038-.093.054-.148 1.687-4.477 1.437-9.414-.688-13.508-2.89-5.648-8.593-9.156-14.882-9.156-5.235 0-10.07 2.414-13.274 6.64l-7.832 10.442-.73-1.457 5.976-17.938c.5-1.648.742-3.218.742-4.804 0-2.454-.601-4.946-1.703-7.133a15.925 15.925 0 0 0-13.554-8.875c-5.875-.36-11.383 2.664-14.493 7.734L1.133 220.391a8.035 8.035 0 0 0-1.024 5.421l7.957 47.731 6.79 61.238-8.575 1.903a8 8 0 0 0-3.937 13.468l18.343 18.344L2.344 386.84a7.994 7.994 0 0 0-1.875 8.344l15.746 44.093c-.211 1.356-.192 2.735.293 4.032l24 64c.156.41.418.742.629 1.113.187.328.328.687.554.98.278.356.63.618.954.914.27.25.5.54.8.747.367.253.785.402 1.188.59.324.152.62.359.969.468.77.242 1.574.375 2.398.375h32a8.058 8.058 0 0 0 3.578-.844l32-16c.137-.07.23-.187.363-.261a7.98 7.98 0 0 0 .97-.696 7.698 7.698 0 0 0 1.05-.965 7.56 7.56 0 0 0 .633-.855c.289-.434.531-.875.73-1.355.07-.176.203-.313.262-.493L128 465.793v38.703c0 4.422 3.578 8 8 8h240c4.422 0 8-3.578 8-8v-38.703l8.414 25.234c.059.184.191.32.266.496.195.473.433.91.715 1.336.203.309.402.598.644.871.316.364.672.668 1.055.973.3.235.59.465.922.656.144.086.254.215.406.293l32 16a8.005 8.005 0 0 0 3.578.844h32c.82 0 1.625-.133 2.398-.375.348-.11.649-.316.977-.473.398-.187.812-.335 1.176-.585.304-.211.539-.5.812-.75.32-.297.668-.56.942-.91.234-.298.375-.66.562-.997.211-.363.473-.691.625-1.097l24-64c.48-1.297.504-2.68.29-4.032l15.75-44.093a7.988 7.988 0 0 0-1.88-8.344zm4.312-142.414-4.445 26.656-9.813-13.082 5.79-11.578a8.016 8.016 0 0 0 .429-6.11l-6.93-20.882zm-45.629-1.574 37.703 50.254-6.27 56.527-2.968-.66-14.465-3.246v-62.887a8.056 8.056 0 0 0-.57-2.969l-14.57-36.789c.007-.004 1.136-.222 1.14-.23zm-9.894 54.949 7.898 5.305v19.125l-4.805-3.828c-.242-.25-.5-.485-.773-.704l-10.656-8.484c-2.86-2.273-3.477-6.305-1.61-9.113.23-.317.465-.625.711-.926.156-.184.301-.367.54-.59 2.14-2.133 6.14-2.445 8.695-.785zm-40.668-16.223a185.633 185.633 0 0 1-2.914 4.672c-.352.547-.68 1.074-1.051 1.633a179.179 179.179 0 0 1-4.531 6.547c-.344.476-.735.973-1.09 1.457a181.402 181.402 0 0 1-6.125 7.8 181.863 181.863 0 0 1-5.133 5.903c-.445.488-.852.973-1.305 1.465a178.502 178.502 0 0 1-7.12 7.207c-.669.637-1.38 1.266-2.067 1.902a167.722 167.722 0 0 1-6.243 5.489c-.832.695-1.66 1.394-2.52 2.082-2.933 2.359-5.968 4.683-9.202 6.921-.535-1.14-1.145-2.23-1.719-3.347-.465-.903-.902-1.824-1.39-2.711-.848-1.54-1.766-3.024-2.684-4.508-.434-.7-.832-1.422-1.285-2.11a101.741 101.741 0 0 0-4.426-6.277c-.008-.007-.016-.015-.024-.027a105.645 105.645 0 0 0-4.847-5.86c-.551-.613-1.137-1.187-1.7-1.788-1.167-1.254-2.343-2.508-3.57-3.704-.71-.69-1.46-1.335-2.191-2.007-1.137-1.043-2.274-2.086-3.453-3.075-.813-.683-1.656-1.324-2.489-1.98a101.391 101.391 0 0 0-3.507-2.68c-.887-.64-1.793-1.246-2.703-1.86a106.241 106.241 0 0 0-3.618-2.355c-.949-.582-1.91-1.14-2.875-1.695a108.603 108.603 0 0 0-3.75-2.055 97.534 97.534 0 0 0-6.906-3.27 94.6 94.6 0 0 0-3.11-1.292 104.673 104.673 0 0 0-4.058-1.477c-1.05-.363-2.098-.73-3.164-1.062-1.41-.438-2.844-.82-4.281-1.2-1.047-.273-2.086-.566-3.145-.808-1.515-.348-3.05-.629-4.586-.91-1.004-.184-2-.395-3.015-.55-1.715-.263-3.45-.438-5.184-.614-.86-.086-1.707-.215-2.574-.281-2.606-.2-5.234-.309-7.879-.309s-5.27.11-7.879.309c-.871.066-1.723.195-2.59.285-1.726.176-3.453.347-5.16.61-1.023.155-2.035.37-3.055.558-1.52.277-3.043.554-4.543.902-1.07.246-2.125.54-3.18.816-1.421.375-2.84.754-4.241 1.188-1.082.336-2.149.707-3.215 1.078-1.344.461-2.676.938-3.996 1.453-1.07.422-2.133.871-3.188 1.324-1.277.551-2.539 1.118-3.789 1.72a106.83 106.83 0 0 0-3.14 1.566 105.797 105.797 0 0 0-3.575 1.96c-1.027.586-2.05 1.184-3.058 1.805a105.82 105.82 0 0 0-3.371 2.192 110.26 110.26 0 0 0-2.961 2.035 99.252 99.252 0 0 0-3.16 2.414c-.954.746-1.91 1.48-2.837 2.258-1.011.847-1.98 1.742-2.957 2.629-.898.816-1.816 1.617-2.687 2.464-.945.922-1.84 1.891-2.75 2.848-.84.883-1.707 1.742-2.516 2.656-.922 1.04-1.777 2.133-2.656 3.207a102.336 102.336 0 0 0-3.965 5.172c-.844 1.176-1.707 2.332-2.5 3.543-.676 1.031-1.285 2.11-1.926 3.168-.69 1.145-1.406 2.274-2.054 3.445-.598 1.079-1.133 2.2-1.692 3.305-.492.969-1.027 1.91-1.492 2.902-3.222-2.23-6.242-4.55-9.168-6.902-.86-.691-1.687-1.39-2.52-2.086a165.952 165.952 0 0 1-6.206-5.465c-.692-.64-1.407-1.273-2.078-1.918a175.074 175.074 0 0 1-7.102-7.191c-.457-.496-.867-.984-1.316-1.477a177.41 177.41 0 0 1-5.125-5.902 130.241 130.241 0 0 1-1.82-2.226 171.386 171.386 0 0 1-4.305-5.57c-.36-.485-.75-.981-1.098-1.462a175.543 175.543 0 0 1-4.527-6.539c-.387-.578-.73-1.129-1.094-1.695a186.852 186.852 0 0 1-2.856-4.567c-.351-.582-.707-1.167-1.035-1.726a173.554 173.554 0 0 1-2.691-4.742c-.059-.11-.137-.239-.192-.344h83.27a8.02 8.02 0 0 0 5.773-2.465c.563-.207 1.075-.5 1.625-.734a38.607 38.607 0 0 0 2.313-1.043 38.24 38.24 0 0 0 3.273-1.84c.688-.426 1.383-.836 2.04-1.3 1.085-.77 2.097-1.618 3.097-2.485.535-.465 1.102-.89 1.61-1.383a40.257 40.257 0 0 0 3.46-3.836c.184-.23.407-.434.586-.668a40.134 40.134 0 0 0 3.297-5.098c.281-.511.488-1.062.746-1.59.64-1.296 1.246-2.609 1.742-3.976.258-.703.446-1.43.66-2.152.376-1.25.715-2.508.97-3.801.156-.797.265-1.598.37-2.41.09-.684.258-1.344.313-2.035l10.469 10.468a8.01 8.01 0 0 0 2.078 1.5l16 8a8 8 0 0 0 7.156 0l16-8a8.01 8.01 0 0 0 2.078-1.5l10.469-10.468c.055.691.223 1.351.312 2.03.11.817.215 1.622.371 2.419.254 1.289.59 2.539.965 3.785.22.727.407 1.46.664 2.172.493 1.347 1.09 2.64 1.72 3.926.269.543.484 1.113.773 1.644a40.474 40.474 0 0 0 3.28 5.074c.212.274.466.508.68.774 1.051 1.304 2.157 2.562 3.36 3.726.531.512 1.121.961 1.684 1.446.972.843 1.957 1.668 3.015 2.418.676.48 1.39.902 2.102 1.343a38.978 38.978 0 0 0 3.207 1.801c.765.383 1.547.727 2.343 1.063.551.23 1.063.523 1.625.73a8.016 8.016 0 0 0 5.774 2.461H403.3a167.443 167.443 0 0 1-2.906 5.14c-.31.52-.637 1.06-.961 1.598zM320 464.496H192v-8c0-4.414 3.586-8 8-8h112c4.414 0 8 3.586 8 8zm-13.36-32H205.423c-16.156-11.293-27.652-27.539-33.344-45.937 14.129 22.726 39.25 37.937 67.922 37.937 15.074 0 29.96-4.344 42.578-12.328 3.934 2.695 8.555 4.328 13.422 4.328 13.234 0 23.996-10.766 23.996-24 0-6.238-2.45-12.082-6.613-16.484 4.262-9.887 6.613-20.617 6.613-31.516 0-28.785-15.336-53.996-38.219-68.09 26.118 8.031 47.657 27.957 57.106 54.59 3.398 9.305 5.117 19.234 5.117 29.5 0 28.742-13.922 55.484-37.36 72zm-17.156-35.437c-.96-1.204-1.484-2.829-1.484-4.563 0-4.414 3.586-8 8-8 1.371 0 2.625.297 3.734.89 2.63 1.423 4.266 4.145 4.266 7.11 0 4.414-3.586 8-8 8-2.54 0-4.852-1.172-6.516-3.437zm9.766-28.344a23.657 23.657 0 0 0-3.25-.219c-13.234 0-24 10.766-24 24 0 1.25.113 2.488.3 3.703.075.473.204.922.305 1.383.125.578.211 1.168.38 1.734-9.876 6.024-21.157 9.18-32.985 9.18-35.29 0-64-28.71-64-64 0-8.96 1.871-17.492 5.21-25.246 4.4 5.586 11.145 9.246 18.79 9.246 13.234 0 24-10.766 24-23.996 0-7.648-3.66-14.39-9.246-18.79A63.572 63.572 0 0 1 240 280.497c35.29 0 64 28.711 64 64 0 8.484-1.594 16.602-4.75 24.219zM200 296.496c4.414 0 8 3.586 8 8.004 0 4.414-3.586 8-8 8s-8-3.586-8-8c0-1 .234-1.938.57-2.816a63.458 63.458 0 0 1 4.614-4.614c.882-.34 1.816-.574 2.816-.574zm15.473-107.84-6.84-41.015L256 107.039l47.367 40.602-6.84 41.015-29.27 29.262L256 223.551l-11.258-5.633zm103.629-38.094 9.03-3.007c2.188-.758 4.595.273 5.61 2.312a4.622 4.622 0 0 1-.172 4.461l-17.757 29.61c-.438.718-1.586.507-1.883.148a1.071 1.071 0 0 1-.258-.938zm-63.094-62.066h-.02C252.723 88.484 248 82.254 248 72.5c0-9.766 4.734-16 8-16s8 6.234 8 16c0 9.754-4.727 15.984-7.992 15.996zm-57.68 94.668c.063.34-.023.656-.258.922-.304.351-1.445.562-1.882-.149L178.43 154.32a4.592 4.592 0 0 1-.172-4.445c.797-1.594 2.445-2.559 4.164-2.559.476 0 .96.07 1.437.227l9.04 3.016zM360 152.5v40c0 4.422 3.578 8 8 8 4.258 0 8.273 1.66 11.305 4.695A15.881 15.881 0 0 1 384 216.5c0 4.422 3.578 8 8 8 4.258 0 8.273 1.664 11.305 4.695S408 236.242 408 240.5h-80c-2.086 0-4.18-.281-6.242-.844-10.063-2.703-17.211-11.633-17.727-21.945l5.989-17.98c1.55.453 3.144.769 4.792.769 5.993 0 11.633-3.188 14.72-8.328l17.757-29.602c3.649-6.078 3.938-13.492.766-19.851-4.563-9.117-15.29-13.578-24.977-10.344l-9.312 3.105-28.262-24.226 40.738 9.05c.578.133 1.813.196 2.399.196.265.04.539.062.804.07 7.946.305 15.493 3.61 21.188 9.235 6.039 6.11 9.367 14.164 9.367 22.695zm-17.04-80.195-17.444 31.437-50.766-11.277c2.727-4.578 4.484-10.168 4.988-16.39l34.422-34.427 16.168 5.391zM234.665 16.5h42.672l22.488 16.863-23.082 23.082C272.637 46.883 265.016 40.5 256 40.5c-9.02 0-16.64 6.383-20.742 15.945l-23.082-23.082zm-52.992 30.54 16.164-5.392 34.426 34.426c.504 6.223 2.261 11.817 4.988 16.39l-50.766 11.278-17.445-31.437zM108.695 229.19c3.032-3.027 7.047-4.695 11.305-4.695 4.422 0 8-3.574 8-8 0-4.254 1.664-8.273 4.695-11.305s7.047-4.695 11.305-4.695c4.422 0 8-3.578 8-8v-40a32.022 32.022 0 0 1 9.305-22.625c5.757-5.695 13.304-9 21.25-9.305.035 0 .136-.004.191-.004.04 0 .078.016.113.016.383 0 .766-.023 1.141-.082.594 0 1.18-.059 1.758-.195l40.738-9.051-28.258 24.227-9.324-3.114c-9.64-3.21-20.406 1.227-24.969 10.36-3.172 6.351-2.882 13.765.766 19.836l17.758 29.609c3.086 5.14 8.726 8.328 14.719 8.328 1.652 0 3.242-.316 4.792-.77l5.989 17.981a23.874 23.874 0 0 1-.496 3.793c-1.852 8.656-8.43 15.79-17.254 18.16-2.04.555-4.133.836-6.219.836h-80c0-4.254 1.664-8.27 4.695-11.305zm-27.812 51.32c.375.36.648.821.781.985 2.047 3.07 1.43 7.102-1.445 9.383l-10.64 8.476c-.036.028-.056.067-.09.094L64 303.832v-19.07l7.82-5.258c2.735-1.774 6.414-1.602 9.063 1.008zm-49.508-79.425-6.96 20.883a8.016 8.016 0 0 0 .429 6.11l5.789 11.577-9.813 13.082-4.445-26.656zm-7.078 73.676 38.18-50.508.664.484c.015.032.047.211-.047.492L48.57 261.527a8.056 8.056 0 0 0-.57 2.97v62.882l-14.46 3.25-2.97.656zm53.812 221.734H53.641L17.234 394.574l20.422-20.422a7.997 7.997 0 0 0 0-11.312l-13.672-13.672 1.352-.3c.008 0 .016 0 .023-.005l2.149-.48 41.601-9.297-4.867 19.473a8.006 8.006 0 0 0 3.32 8.597l21.024 14.016 14.676 102.75zm59.172-87.898c-3.836-.625-7.625 1.648-8.867 5.367l-13.285 39.844-11.207-78.446a8.018 8.018 0 0 0-3.484-5.523l-19.313-12.875 6.633-26.531a7.994 7.994 0 0 0-2.024-7.512 8.03 8.03 0 0 0-7.453-2.235l-.898.196 3.879-10.348 8.394-6.719.516-.414a23.224 23.224 0 0 0 3.156-3.027c.34-.39.586-.832.895-1.238.543-.723 1.113-1.43 1.562-2.203.309-.528.516-1.098.778-1.649.335-.703.71-1.39.972-2.12.211-.599.32-1.22.485-1.83.19-.726.418-1.437.539-2.175.101-.633.101-1.273.148-1.91.059-.742.145-1.48.129-2.234-.016-.641-.129-1.282-.195-1.922-.082-.754-.133-1.5-.29-2.25-.132-.64-.359-1.266-.55-1.899-.219-.742-.418-1.484-.715-2.215-.254-.62-.602-1.218-.91-1.832-.297-.574-.516-1.168-.864-1.73l1.727-4.633c.125.219.297.48.426.703a184.537 184.537 0 0 0 3.39 5.61c.211.336.383.636.602.976a191.711 191.711 0 0 0 4.762 7.102c.48.683 1.004 1.383 1.504 2.078a186.415 186.415 0 0 0 6.238 8.187 182.202 182.202 0 0 0 5.023 5.973c.621.715 1.204 1.414 1.848 2.133a184.271 184.271 0 0 0 7.672 8.039c.562.559 1.187 1.11 1.766 1.664a183.906 183.906 0 0 0 6.937 6.34c.996.863 2.02 1.71 3.05 2.566a177.353 177.353 0 0 0 7.02 5.52c1.059.793 2.09 1.586 3.18 2.367 1.84 1.312 3.762 2.582 5.7 3.852A102.412 102.412 0 0 0 152 360.496c0 29.566 12.516 57.168 33.914 76.664-5.976 4.367-9.914 11.38-9.914 19.336v9.473c-9.29 3.312-16 12.113-16 22.527v8h-16v-80a8.005 8.005 0 0 0-6.719-7.898zM176 496.496v-8c0-4.414 3.586-8 8-8h144c4.414 0 8 3.586 8 8v8zm207.586-82.531c-1.242-3.719-5.047-5.985-8.867-5.367a8.005 8.005 0 0 0-6.719 7.898v80h-16v-8c0-10.414-6.71-19.21-16-22.527v-9.473c0-7.953-3.934-14.965-9.91-19.332 21.394-19.562 33.91-47.168 33.91-76.668 0-9.945-1.45-19.621-4.156-28.851 1.933-1.27 3.86-2.54 5.699-3.852 1.09-.781 2.121-1.574 3.176-2.367a174.692 174.692 0 0 0 7.023-5.52c1.031-.855 2.055-1.703 3.051-2.566a183.906 183.906 0 0 0 6.937-6.34c.579-.559 1.2-1.105 1.766-1.664a184.271 184.271 0 0 0 7.672-8.04c.644-.718 1.227-1.417 1.848-2.132a187.226 187.226 0 0 0 11.261-14.16c.5-.695 1.028-1.395 1.504-2.078a193.342 193.342 0 0 0 4.762-7.102c.219-.34.39-.64.602-.976 1.23-1.961 2.359-3.828 3.39-5.61.13-.222.3-.484.426-.703l1.719 4.61c-.39.617-.649 1.273-.973 1.91-.293.574-.633 1.129-.871 1.715-.297.726-.484 1.468-.703 2.21-.184.622-.418 1.235-.547 1.864-.152.734-.191 1.472-.27 2.21-.07.65-.191 1.29-.203 1.938-.015.742.082 1.473.137 2.207.05.64.047 1.285.148 1.918.125.754.364 1.48.559 2.219.16.594.262 1.203.473 1.785.277.777.672 1.508 1.035 2.254.246.508.433 1.04.719 1.527.476.82 1.078 1.578 1.664 2.344.277.367.496.766.8 1.117a23.282 23.282 0 0 0 3.16 3.032l8.868 7.066 3.922 10.418-.883-.195a8.035 8.035 0 0 0-7.453 2.234 8.004 8.004 0 0 0-2.024 7.516l6.633 26.53-19.312 12.876a8.018 8.018 0 0 0-3.485 5.523l-11.203 78.442zm25.148 69.957 14.676-102.754 21.028-14.016a7.996 7.996 0 0 0 3.316-8.593l-4.867-19.477 41.605 9.3 2.145.481c.008.004.015 0 .023.004l1.352.301-13.672 13.672a8.004 8.004 0 0 0 0 11.312l20.422 20.422-36.403 101.922h-24.468zm0 0"/></svg>