<svg height="512pt" viewBox="0 -6 512.001 512" width="512pt" xmlns="http://www.w3.org/2000/svg"><path d="M305.031 406.574 192.11 293.652c-7.078-7.078-7.086-18.527-.023-25.59a17.919 17.919 0 0 1 9.91-5.054 18.061 18.061 0 0 1 15.684 5.074l-29.078-29.074a18.038 18.038 0 0 1-5.309-12.793c0-.961.078-1.93.23-2.895a17.978 17.978 0 0 1 5.059-9.906 17.912 17.912 0 0 1 9.77-5.035 18.076 18.076 0 0 1 14.101 3.566l-11.066-11.066a18.088 18.088 0 0 1-5.07-15.75 17.905 17.905 0 0 1 5.042-9.852 17.926 17.926 0 0 1 9.922-5.054c5.528-.891 11.406.8 15.684 5.078l12.672 12.672a18.083 18.083 0 0 1-5.078-15.684 17.92 17.92 0 0 1 5.054-9.91c7.059-7.055 18.52-7.05 25.594.023l73.383 73.387.207-.293a32.9 32.9 0 0 1 12.777-7.941c11.543-3.887 24.82-1.23 34.028 7.976l34.218 34.219a35.114 35.114 0 0 1 10.282 24.777l.02 21.407a37.784 37.784 0 0 0 11.073 26.687l7.633 7.629-87.277 87.273-9.75-9.75a37.796 37.796 0 0 0-24.254-10.988 35.072 35.072 0 0 1-22.516-10.21zm0 0" fill="#fecbaa"/><path d="m355.879 443.191 99.058-99.058c3.266-3.266 8.56-3.266 11.82 0l35.282 35.277a8.363 8.363 0 0 1 0 11.82l-99.062 99.063a8.363 8.363 0 0 1-11.82 0l-35.278-35.281c-3.266-3.262-3.266-8.555 0-11.82zm0 0" fill="#fdd559"/><path d="m206.953 406.586 112.922-112.922c7.078-7.078 7.082-18.527.02-25.59a17.927 17.927 0 0 0-9.907-5.058c-5.531-.891-11.406.8-15.687 5.078l29.078-29.078a18.032 18.032 0 0 0 5.308-12.793c0-.961-.074-1.93-.23-2.891a17.978 17.978 0 0 0-5.059-9.906 17.899 17.899 0 0 0-9.77-5.035 18.089 18.089 0 0 0-14.1 3.562l11.066-11.066a18.079 18.079 0 0 0 5.312-12.805 17.244 17.244 0 0 0-.242-2.941 17.892 17.892 0 0 0-5.043-9.852 17.902 17.902 0 0 0-9.918-5.055 18.08 18.08 0 0 0-15.687 5.075l-12.672 12.671a18.076 18.076 0 0 0 5.078-15.683 17.896 17.896 0 0 0-5.055-9.906c-7.058-7.059-18.52-7.051-25.59.02l-73.386 73.386-.207-.29a32.9 32.9 0 0 0-12.778-7.94c-11.539-3.891-24.82-1.231-34.027 7.976l-34.215 34.219a35.098 35.098 0 0 0-10.281 24.777l-.024 21.406a37.757 37.757 0 0 1-11.07 26.688l-7.633 7.629 87.274 87.273 9.754-9.75a37.796 37.796 0 0 1 24.254-10.988 35.109 35.109 0 0 0 22.515-10.211zm0 0" fill="#fecbaa"/><path d="m156.105 443.203-99.062-99.062c-3.266-3.266-8.559-3.266-11.82 0L9.94 379.42c-3.261 3.263-3.261 8.556 0 11.821l99.063 99.059a8.355 8.355 0 0 0 11.82 0l35.281-35.278c3.262-3.265 3.262-8.558 0-11.82zm0 0" fill="#ff84a7"/><path d="M328.215 135.957v159.695c0 10.012-8.09 18.11-18.082 18.11-3.95 0-7.61-1.27-10.582-3.43a18.073 18.073 0 0 1-7.5-14.68v41.121a18.049 18.049 0 0 1-7.5 14.68 17.95 17.95 0 0 1-10.578 3.43 17.94 17.94 0 0 1-10.473-3.348 18.085 18.085 0 0 1-7.45-12.492v15.652c0 5-2.03 9.54-5.3 12.809-.688.7-1.45 1.34-2.25 1.91a17.91 17.91 0 0 1-10.531 3.402c-3.95 0-7.61-1.273-10.59-3.441a18.073 18.073 0 0 1-7.5-14.68v-17.922c0 6.04-2.961 11.403-7.5 14.68a17.905 17.905 0 0 1-10.578 3.43c-9.98 0-18.082-8.11-18.082-18.11V232.988l-.352.063a32.87 32.87 0 0 1-14.648-3.422c-10.91-5.41-18.422-16.68-18.422-29.7v-48.39c0-9.3 3.691-18.21 10.25-24.793l15.121-15.148a37.786 37.786 0 0 0 11.039-26.703v-10.79h123.426v13.79c0 9.171 3.34 18.03 9.379 24.921a35.079 35.079 0 0 1 8.703 23.141zm0 0" fill="#fedfc5"/><path d="M319.895 268.074a17.927 17.927 0 0 0-9.907-5.058c-5.531-.891-11.406.8-15.683 5.078l29.078-29.078a18.048 18.048 0 0 0 5.074-15.684 17.933 17.933 0 0 0-5.055-9.906 17.922 17.922 0 0 0-9.773-5.035 18.083 18.083 0 0 0-14.098 3.562l11.067-11.066a18.075 18.075 0 0 0 5.308-12.805 16.857 16.857 0 0 0-.242-2.941 17.912 17.912 0 0 0-5.039-9.852 17.913 17.913 0 0 0-9.922-5.055 18.07 18.07 0 0 0-15.683 5.075l-12.672 12.671a18.073 18.073 0 0 0 5.074-15.683 17.896 17.896 0 0 0-5.055-9.906c-7.058-7.059-18.52-7.051-25.59.02l-73.386 73.386-.207-.29a32.9 32.9 0 0 0-12.778-7.94c-5.535-1.868-11.472-2.208-17.168-1.06 4.59 6.934 11 12.684 18.82 16.563a48.519 48.519 0 0 0 6.657 2.707v90.996c0 18.258 14.84 33.11 33.082 33.11 2.191 0 4.355-.211 6.46-.63a33.004 33.004 0 0 0 10.29 12.247 32.96 32.96 0 0 0 8.894 4.594l92.43-92.434c7.082-7.074 7.09-18.523.024-25.586zm0 0" fill="#ffae85"/><path d="M343.203 295.652V231.79a33.102 33.102 0 0 0-4.418 3.711l-.203.29-73.387-73.388c-7.07-7.07-18.535-7.078-25.59-.02a17.915 17.915 0 0 0-5.058 9.907 18.087 18.087 0 0 0 5.078 15.684L226.953 175.3a18.07 18.07 0 0 0-15.683-5.074 17.913 17.913 0 0 0-9.922 5.054 17.943 17.943 0 0 0-5.043 9.852 17.24 17.24 0 0 0-.239 2.941c0 4.625 1.774 9.27 5.313 12.805l11.066 11.066a18.096 18.096 0 0 0-14.101-3.562 17.922 17.922 0 0 0-9.774 5.035 17.933 17.933 0 0 0-5.054 9.906 18.048 18.048 0 0 0 5.074 15.684l29.078 29.078a18.072 18.072 0 0 0-15.684-5.078 17.946 17.946 0 0 0-9.906 5.055c-7.062 7.066-7.055 18.515.024 25.593l75.648 75.649c2.031.386 4.11.582 6.215.582 7.008 0 13.71-2.172 19.351-6.262 1.442-1.04 2.801-2.2 4.043-3.441 6.246-6.243 9.684-14.555 9.684-23.407v-8.152c1.02.094 2.047.14 3.082.14 18.238-.003 33.078-14.855 33.078-33.113zm0 0" fill="#ffae85"/><path d="M328.215 135.957v159.695c0 10.012-8.09 18.11-18.082 18.11-.27 0-.559 0-.852-.02a17.888 17.888 0 0 1-9.707-3.398c-.012 0-.012-.012-.023-.012a18.073 18.073 0 0 1-7.5-14.68v41.121a18.049 18.049 0 0 1-7.5 14.68 17.95 17.95 0 0 1-10.578 3.43 17.94 17.94 0 0 1-10.473-3.348 18.085 18.085 0 0 1-7.45-12.492v15.652c0 5-2.03 9.54-5.3 12.809-.688.7-1.45 1.34-2.25 1.91a17.91 17.91 0 0 1-10.531 3.402c-3.95 0-7.61-1.273-10.59-3.441a18.073 18.073 0 0 1-7.5-14.68v-17.922c0 6.04-2.961 11.403-7.5 14.68a17.905 17.905 0 0 1-10.578 3.43c-9.98 0-18.082-8.11-18.082-18.11V232.988l-.352.063a32.87 32.87 0 0 1-14.648-3.422c-10.91-5.41-18.422-16.68-18.422-29.7v-48.39c0-9.3 3.691-18.21 10.25-24.793l15.121-15.148a37.688 37.688 0 0 0 9.352-15.543 37.654 37.654 0 0 0 1.687-11.16v-10.79h123.426v13.79c0 3.09.328 6.351 1.191 9.332a37.564 37.564 0 0 0 8.188 15.59c5.562 6.351 8.703 14.68 8.703 23.14zm0 0" fill="#fedfc5"/><path d="M328.215 135.957v159.695c0 10.012-8.09 18.11-18.082 18.11-.27 0-.559 0-.852-.02a17.888 17.888 0 0 1-9.707-3.398l.309-153.887c0-.93-.211-2.398-.602-4.27-6.898-33.609-35.27-56.132-69.582-56.132h-44.68a37.654 37.654 0 0 0 1.688-11.16v-10.79h123.426v13.79c0 3.09.328 6.351 1.191 9.332a37.564 37.564 0 0 0 8.188 15.59c5.562 6.351 8.703 14.68 8.703 23.14zm0 0" fill="#fecbaa"/><path d="M318.152 74.11H178.055c-4.614 0-8.356-3.743-8.356-8.36V15.86c0-4.618 3.742-8.36 8.356-8.36h140.097c4.614 0 8.356 3.742 8.356 8.36v49.89c0 4.617-3.742 8.36-8.356 8.36zm0 0" fill="#83d9ff"/><path d="m210.36 447.887-1.505 7.347 1.45-7.355a7.498 7.498 0 1 0-2.898 14.715c.011.004.124.023.136.027.477.09.95.137 1.418.137 3.527 0 6.672-2.5 7.355-6.094.782-4.07-1.886-8-5.957-8.777zM267.703 450.297l.746 7.46-.77-7.456a7.494 7.494 0 0 0-6.69 8.226 7.498 7.498 0 0 0 8.226 6.696l.207-.024c4.101-.48 7.012-4.18 6.555-8.281-.461-4.098-4.172-7.05-8.274-6.621zM238.992 451.242l-.11-.004c-4.132-.187-7.585 3.024-7.773 7.16-.183 4.137 3.067 7.641 7.203 7.829a7.496 7.496 0 0 0 7.832-7.152 7.499 7.499 0 0 0-7.152-7.833zM182.656 440.266l-.094-.036c-3.898-1.398-8.148.641-9.546 4.54-1.403 3.898.668 8.21 4.566 9.613a7.503 7.503 0 0 0 9.594-4.524 7.495 7.495 0 0 0-4.52-9.593zM296.008 445.047l1.847 7.27-1.87-7.262a7.5 7.5 0 0 0 1.863 14.765c.62 0 1.25-.078 1.879-.242.03-.008.164-.043.199-.05 3.98-1.087 6.308-5.176 5.246-9.165-1.063-3.984-5.168-6.355-9.164-5.316zM323.121 435.59l2.973 6.883-2.996-6.875a7.504 7.504 0 0 0-3.883 9.87 7.504 7.504 0 0 0 6.883 4.509c.996 0 2.015-.204 2.988-.625.031-.016.152-.067.184-.082 3.761-1.7 5.421-6.106 3.742-9.875-1.68-3.774-6.11-5.465-9.89-3.805zM154.008 93.7c1.203 0 2.426-.29 3.554-.891a7.5 7.5 0 0 0 3.086-10.149 7.495 7.495 0 0 0-10.144-3.086l-.09.047c-3.652 1.95-4.992 6.469-3.043 10.125 1.344 2.524 3.953 3.953 6.637 3.953zM67.254 177.469a7.496 7.496 0 0 0 10.129-3.16l.133-.262a7.496 7.496 0 0 0-3.422-10.04 7.494 7.494 0 0 0-10.004 3.348 7.5 7.5 0 0 0 3.164 10.114zM56.695 205.684c.797.27 1.606.398 2.407.398a7.505 7.505 0 0 0 7.101-5.098l.098-.297a7.495 7.495 0 0 0-4.965-9.37 7.5 7.5 0 0 0-9.348 4.874 7.5 7.5 0 0 0 4.707 9.493zM82.05 151.23a7.493 7.493 0 0 0 10.477-1.652l.098-.133c2.406-3.367 1.621-8.039-1.738-10.445-3.364-2.41-8.051-1.637-10.465 1.723l6.043 4.445-6.067-4.414a7.5 7.5 0 0 0 1.653 10.476zM128.547 109.898c1.574 0 3.16-.496 4.516-1.527 3.343-2.445 4.066-7.137 1.62-10.48a7.499 7.499 0 0 0-10.48-1.621l-.187.136c-3.297 2.504-3.954 7.219-1.45 10.52a7.493 7.493 0 0 0 5.98 2.972zM50 319.426a7.49 7.49 0 0 0 7.156 5.289c.73 0 1.477-.11 2.211-.336 3.938-1.207 6.16-5.379 4.98-9.324a7.498 7.498 0 0 0-9.183-5.168 7.502 7.502 0 0 0-5.262 9.21l.098.329zM105.89 129.664c1.95 0 3.9-.754 5.372-2.254 2.925-2.93 2.925-7.68 0-10.605a7.502 7.502 0 0 0-10.61 0l-.125.125c-2.898 2.957-2.84 7.699.118 10.597a7.46 7.46 0 0 0 5.246 2.137zM58.29 286.727c-.528-4.075-4.25-6.965-8.33-6.48a7.505 7.505 0 0 0-6.558 8.335l.043.3c.547 3.727 3.746 6.4 7.407 6.4.359 0 .726-.028 1.097-.083 4.082-.594 6.914-4.39 6.34-8.472zM48.867 265.246c.078 0 .153.004.227.004a7.5 7.5 0 0 0 7.492-7.281l.008-.32a7.5 7.5 0 0 0-7.5-7.5 7.497 7.497 0 0 0-7.5 7.402 7.498 7.498 0 0 0 7.273 7.695zM50.512 235.168a7.507 7.507 0 0 0 8.707-6.063c.02-.109.035-.218.05-.328a7.495 7.495 0 0 0-6.328-8.511c-4.05-.602-7.843 2.183-8.496 6.222-.71 4.07 2 7.95 6.067 8.68zM404.3 153.598a7.47 7.47 0 0 0 6.173 3.238c1.464 0 2.949-.43 4.246-1.324 3.41-2.344 4.273-7.016 1.93-10.43l-6.235 4.172 6.211-4.207a7.5 7.5 0 1 0-12.418 8.418zM442.602 229.07a7.497 7.497 0 0 0-6.614 8.293l.04.325a7.505 7.505 0 0 0 8.488 6.363 7.503 7.503 0 0 0 6.375-8.39c-.473-4.106-4.2-7.052-8.29-6.59zM429.945 207.906l.032.098a7.5 7.5 0 0 0 7.191 5.387c.7 0 1.41-.098 2.117-.309a7.5 7.5 0 0 0 5.082-9.312l-.031-.098a7.494 7.494 0 0 0-9.313-5.078 7.5 7.5 0 0 0-5.078 9.312zM419.352 179.863a7.54 7.54 0 0 0 6.765 4.211c1.106 0 2.23-.246 3.29-.77 3.714-1.827 5.257-6.296 3.425-10.015l-6.797 3.168 6.79-3.184a7.498 7.498 0 0 0-9.973-3.605 7.5 7.5 0 0 0-3.61 9.973zM385.41 130.176a7.467 7.467 0 0 0 5.356 2.25c1.894 0 3.789-.711 5.25-2.145a7.495 7.495 0 0 0 .171-10.535 7.499 7.499 0 0 0-11.003 10.192zM445.04 260.387c-4.122-.106-7.571 3.125-7.716 7.246a7.502 7.502 0 0 0 7.5 7.844c3.95 0 7.258-3.09 7.48-7.086l.012-.309c.118-4.137-3.14-7.574-7.277-7.695zM337.45 93.348l.179.097a7.432 7.432 0 0 0 3.496.875 7.5 7.5 0 0 0 6.605-3.957c1.954-3.636.579-8.183-3.046-10.152l-3.63 6.562 3.606-6.578a7.501 7.501 0 0 0-10.183 2.973c-1.989 3.629-.66 8.191 2.972 10.18zM362.816 109.797l.118.09a7.466 7.466 0 0 0 4.527 1.523A7.502 7.502 0 0 0 372 97.933l-.052-.035a7.498 7.498 0 0 0-10.515 1.38 7.504 7.504 0 0 0 1.382 10.519zm0 0"/><path d="m507.371 373.93-35.207-35.27a15.742 15.742 0 0 0-11.215-4.652 15.733 15.733 0 0 0-11.21 4.652l-.817.817-2.313-2.313a30.272 30.272 0 0 1-6.566-9.824 7.309 7.309 0 0 0-.535-1.39 30.33 30.33 0 0 1-1.746-10.188v-9.977a7.489 7.489 0 0 0 3.508.867 7.5 7.5 0 0 0 7.367-6.148 7.5 7.5 0 0 0-10.922-8.05c-.461-10.657-4.817-20.61-12.395-28.204l-34.156-34.215c-7.664-7.676-17.855-11.902-28.695-11.902-8.39 0-16.383 2.543-23.125 7.25l-3.625-3.645v-85.781a42.588 42.588 0 0 0-10.567-28.086 30.266 30.266 0 0 1-7.515-19.976v-6.286h.515c8.743 0 15.856-7.113 15.856-15.859V15.86c0-8.747-7.113-15.86-15.856-15.86H178.055c-8.742 0-15.856 7.113-15.856 15.86v49.89c0 8.746 7.114 15.86 15.856 15.86h1.156v3.288c0 8.086-3.145 15.688-8.852 21.403l-15.12 15.148c-8.024 8.04-12.442 18.723-12.442 30.09v48.387a40.44 40.44 0 0 0 4.355 18.281c-9.945.574-19.214 4.719-26.316 11.828L86.68 264.25c-8.024 8.04-12.442 18.727-12.442 30.09v21.422c0 8.086-3.14 15.687-8.847 21.402l-2.286 2.29c-.011.007-.02.015-.027.023l-.812-.817a15.742 15.742 0 0 0-11.215-4.652 15.733 15.733 0 0 0-11.211 4.652L4.629 373.93c-6.172 6.183-6.172 16.246 0 22.43l12.059 12.074a7.497 7.497 0 0 0 10.605.011 7.502 7.502 0 0 0 .008-10.61l-12.055-12.077a.87.87 0 0 1 0-1.23l35.211-35.27a.84.84 0 0 1 1.191 0l6.122 6.133h.003l83.582 83.726 9.364 9.383c.34.34.34.89 0 1.23L115.512 485a.842.842 0 0 1-1.196 0l-65.78-65.895a7.497 7.497 0 0 0-10.606-.011 7.502 7.502 0 0 0-.012 10.61l65.785 65.894c2.992 3 6.977 4.652 11.215 4.652a15.74 15.74 0 0 0 11.21-4.652l35.208-35.27c6.172-6.18 6.172-16.242 0-22.426l-.383-.382 4.442-4.45a30.137 30.137 0 0 1 19.402-8.797 42.439 42.439 0 0 0 27.308-12.382l32.344-32.414c9.328-2.45 16.59-10.047 18.563-19.563a25.437 25.437 0 0 0 10.96 2.473c14.106 0 25.583-11.489 25.583-25.614v-17.808a25.421 25.421 0 0 0 10.582 2.3c14.105 0 25.578-11.488 25.578-25.613v-52.648l23.07 23.183a7.473 7.473 0 0 0 5.317 2.208 7.48 7.48 0 0 0 5.293-2.184 7.5 7.5 0 0 0 .023-10.606l-19.234-19.328a25.374 25.374 0 0 1 12.285-3.144c6.828 0 13.25 2.664 18.078 7.504l34.156 34.21c5.195 5.208 8.059 12.13 8.059 19.493v21.422c0 12.09 4.699 23.453 13.23 32l2.328 2.332-10.879 10.898-65.796 65.91-3.668-3.675c-.04-.036-.075-.075-.114-.11l-.644-.648a45.157 45.157 0 0 0-29.043-13.164 27.503 27.503 0 0 1-17.688-8.028l-24.644-24.511a7.502 7.502 0 0 0-10.61.027c-2.918 2.937-2.906 7.687.032 10.605l24.629 24.493a42.44 42.44 0 0 0 27.312 12.382 30.151 30.151 0 0 1 19.398 8.793l.364.364c.195.222.402.43.62.625l3.458 3.46-.383.387c-6.172 6.184-6.172 16.243 0 22.426l35.207 35.27c2.996 3 6.977 4.652 11.215 4.652a15.75 15.75 0 0 0 11.215-4.652l99.07-99.243c6.172-6.183 6.172-16.242 0-22.425zm-64.582-74.578-.14-.024-1.368-.277zm-241.3 101.941a27.45 27.45 0 0 1-17.66 8.012 45.158 45.158 0 0 0-29.048 13.164l-4.426 4.433-3.984-3.992c-.05-.05-.101-.105-.152-.152l-72.54-72.664 2.329-2.332c8.531-8.547 13.23-19.91 13.23-32V294.34c0-7.363 2.86-14.285 8.059-19.492l34.156-34.211c4.828-4.84 11.25-7.504 18.078-7.504 4.38 0 8.59 1.101 12.324 3.168l-19.265 19.297a7.5 7.5 0 0 0 .008 10.605 7.483 7.483 0 0 0 5.3 2.192 7.486 7.486 0 0 0 5.309-2.2l23.012-23.054v93.632c0 14.125 11.476 25.614 25.582 25.614 3.976 0 7.742-.914 11.101-2.54 1.524 7.434 6.274 13.7 12.711 17.27zm119.23-105.637c0 5.852-4.75 10.614-10.582 10.614-5.836 0-10.582-4.762-10.582-10.614v-83.66a7.5 7.5 0 0 0-7.5-7.5 7.5 7.5 0 0 0-7.5 7.5v124.781c0 5.852-4.746 10.61-10.582 10.61-5.239 0-9.586-3.836-10.426-8.856v-126.62a7.497 7.497 0 0 0-11.172-6.54 7.497 7.497 0 0 0-3.984 6.625v124.777c0 .954.054 1.887.156 2.813v15.113c0 5.852-4.746 10.613-10.582 10.613-5.832 0-10.578-4.761-10.578-10.613V211.82a7.502 7.502 0 0 0-15.004 0v124.953c0 5.852-4.746 10.614-10.578 10.614-5.836 0-10.582-4.762-10.582-10.614V197.262a7.5 7.5 0 1 0-15 0v25.804a7.363 7.363 0 0 0-1.805.864c-9.7-3.645-16.621-13.028-16.621-24.004v-48.387c0-7.363 2.863-14.285 8.058-19.492l15.122-15.149c8.535-8.546 13.234-19.91 13.234-32V81.61h15.078a7.5 7.5 0 0 0 7.5-7.5c0-4.144-3.355-7.5-7.5-7.5h-31.234a.859.859 0 0 1-.856-.859V15.86c0-.473.383-.86.856-.86h140.093a.86.86 0 0 1 .86.86v49.89c0 .477-.383.86-.86.86H244.5a7.5 7.5 0 1 0 0 15h58.137v6.285c0 11 3.988 21.605 11.234 29.87a27.574 27.574 0 0 1 6.848 18.192zm176.035 90.102L397.684 485a.802.802 0 0 1-.598.25.815.815 0 0 1-.598-.25l-35.207-35.27a.87.87 0 0 1 0-1.23l5.668-5.68.004-.004 57.512-57.609 35.887-35.95a.837.837 0 0 1 1.191 0l35.21 35.27c.34.34.34.891 0 1.23zm0 0"/><path d="M201.8 32.805c-4.402 0-7.984 3.59-7.984 8 0 4.414 3.582 8 7.985 8 4.406 0 7.988-3.586 7.988-8 0-4.41-3.582-8-7.988-8zM463.402 374.688c-4.406 0-7.988 3.59-7.988 8s3.582 8 7.988 8c4.403 0 7.985-3.59 7.985-8s-3.582-8-7.985-8zM124.984 451.203c0-4.41-3.582-8-7.984-8-4.406 0-7.988 3.59-7.988 8s3.582 8 7.988 8c4.402 0 7.984-3.59 7.984-8zm0 0"/></svg>