<svg xmlns="http://www.w3.org/2000/svg" viewBox="0 0 512 512" style="enable-background:new 0 0 512 512" xml:space="preserve"><circle style="fill:#ffdc64" cx="256" cy="256" r="248.5"/><path style="fill:#ffc850" d="M337.497 423.003c-137.243 0-248.5-111.257-248.5-248.5 0-47.74 13.489-92.316 36.824-130.178C54.837 88.073 7.5 166.497 7.5 256c0 137.242 111.257 248.5 248.5 248.5 89.503 0 167.928-47.337 211.676-118.322-37.862 23.335-82.439 36.825-130.179 36.825z"/><circle style="fill:#ffdc64" cx="203.9" cy="380.25" r="20.04"/><circle style="fill:#fff082" cx="304.1" cy="143.77" r="16.03"/><circle style="fill:#fff082" cx="155.8" cy="147.78" r="36.07"/><circle style="fill:#fff082" cx="368.23" cy="336.16" r="32.06"/><circle style="fill:#ffdc64" cx="95.68" cy="280.05" r="16.03"/><path d="M203.896 352.709c-15.187 0-27.541 12.354-27.541 27.541s12.354 27.541 27.541 27.541c15.186 0 27.54-12.354 27.54-27.541s-12.355-27.541-27.54-27.541zm0 40.082c-6.915 0-12.541-5.625-12.541-12.541s5.626-12.541 12.541-12.541 12.54 5.625 12.54 12.541-5.625 12.541-12.54 12.541zM304.097 120.242c-12.976 0-23.532 10.557-23.532 23.533s10.557 23.532 23.532 23.532 23.532-10.557 23.532-23.532c0-12.977-10.557-23.533-23.532-23.533zm0 32.065c-4.705 0-8.532-3.828-8.532-8.532 0-4.705 3.827-8.533 8.532-8.533s8.532 3.828 8.532 8.533c0 4.704-3.827 8.532-8.532 8.532zM95.678 256.516c-12.976 0-23.532 10.557-23.532 23.532s10.557 23.532 23.532 23.532 23.532-10.557 23.532-23.532-10.557-23.532-23.532-23.532zm0 32.065c-4.705 0-8.532-3.828-8.532-8.532s3.827-8.532 8.532-8.532 8.532 3.828 8.532 8.532-3.827 8.532-8.532 8.532zM398.347 320.581a7.5 7.5 0 0 0-5.301 9.187c2.271 8.467-.162 17.573-6.353 23.763-4.641 4.64-10.81 7.195-17.37 7.195-6.562 0-12.73-2.555-17.37-7.195s-7.194-10.809-7.194-17.37c0-6.562 2.555-12.73 7.195-17.37 6.182-6.183 15.277-8.619 23.736-6.361 4.003 1.07 8.112-1.31 9.181-5.312s-1.31-8.112-5.312-9.181c-13.616-3.636-28.258.292-38.212 10.247-7.474 7.473-11.589 17.408-11.589 27.977 0 10.568 4.115 20.503 11.588 27.976s17.408 11.588 27.977 11.588c10.567 0 20.503-4.116 27.976-11.588 9.97-9.969 13.892-24.628 10.235-38.257a7.502 7.502 0 0 0-9.187-5.299z"/><path d="M437.02 74.98C388.668 26.629 324.38 0 256 0S123.332 26.629 74.98 74.98C26.629 123.333 0 187.62 0 256s26.629 132.667 74.98 181.02C123.332 485.371 187.62 512 256 512s132.668-26.629 181.02-74.98C485.371 388.667 512 324.38 512 256s-26.629-132.667-74.98-181.02zm-10.607 351.433C380.894 471.932 320.374 497 256 497s-124.894-25.068-170.413-70.587S15 320.374 15 256 40.068 131.106 85.587 85.587 191.626 15 256 15s124.894 25.068 170.413 70.587S497 191.626 497 256s-25.068 124.894-70.587 170.413z"/><path d="M223.936 256.516h-8.532v-8.532c0-4.142-3.357-7.5-7.5-7.5s-7.5 3.358-7.5 7.5v8.532h-8.532c-4.143 0-7.5 3.358-7.5 7.5s3.357 7.5 7.5 7.5h8.532v8.532c0 4.142 3.357 7.5 7.5 7.5s7.5-3.358 7.5-7.5v-8.532h8.532a7.5 7.5 0 0 0 0-15zM426.93 223.936l2.713-2.713a7.5 7.5 0 0 0-10.607-10.606l-2.712 2.712-2.712-2.712a7.5 7.5 0 0 0-10.607 10.606l2.713 2.713-2.713 2.713a7.5 7.5 0 0 0 5.304 12.803 7.478 7.478 0 0 0 5.304-2.197l2.712-2.712 2.712 2.712c1.465 1.464 3.385 2.197 5.304 2.197s3.839-.732 5.304-2.197a7.5 7.5 0 0 0 0-10.606l-2.715-2.713zM197.881 136.46a7.501 7.501 0 0 0-14.489 3.886c2.642 9.849-.19 20.44-7.391 27.64-11.14 11.14-29.268 11.139-40.407 0-11.141-11.141-11.141-29.268-.001-40.408 7.193-7.191 17.772-10.025 27.609-7.399a7.5 7.5 0 0 0 3.869-14.492c-14.992-4.004-31.119.319-42.085 11.284-16.988 16.989-16.988 44.632.001 61.622 8.494 8.494 19.652 12.741 30.811 12.741 11.158 0 22.315-4.248 30.811-12.742 10.979-10.978 15.297-27.122 11.272-42.132z"/></svg>