<svg height="511pt" viewBox="0 1 511 511.997" width="511pt" xmlns="http://www.w3.org/2000/svg"><path d="M503.77 428.496c0 22.594-18.32 40.91-40.915 40.91s-40.91-18.316-40.91-40.91c0-22.598 18.317-40.914 40.91-40.914s40.915 18.316 40.915 40.914zm0 0" fill="#ffdc13"/><path d="M481.254 391.957a40.707 40.707 0 0 1 4.375 18.398c0 22.598-18.317 40.915-40.91 40.915a40.723 40.723 0 0 1-18.403-4.375c6.739 13.351 20.563 22.511 36.54 22.511 22.593 0 40.91-18.316 40.91-40.91.004-15.976-9.16-29.8-22.512-36.539zm0 0" fill="#ffa511"/><path d="M310.516 463.598c0 22.593-18.317 40.91-40.91 40.91-22.598 0-40.915-18.317-40.915-40.91 0-22.598 18.317-40.914 40.914-40.914 22.594 0 40.91 18.316 40.91 40.914zM474.887 391.3c0 22.595-18.32 40.91-40.914 40.91s-40.91-18.315-40.91-40.91c0-22.597 18.316-40.913 40.91-40.913s40.914 18.316 40.914 40.914zm0 0" fill="#ffdc13"/><path d="M409.328 401.332c0 22.594-18.316 40.91-40.91 40.91-22.598 0-40.914-18.316-40.914-40.91 0-22.598 18.316-40.914 40.914-40.914 22.594 0 40.91 18.316 40.91 40.914zm0 0" fill="#ffdc13"/><g fill="#ffa511"><path d="M288.004 427.059a40.711 40.711 0 0 1 4.375 18.402c0 22.594-18.317 40.91-40.914 40.91a40.695 40.695 0 0 1-18.399-4.375c6.735 13.352 20.563 22.512 36.536 22.512 22.597 0 40.914-18.317 40.914-40.91 0-15.977-9.16-29.801-22.512-36.54zM452.371 354.762a40.711 40.711 0 0 1 4.375 18.402c0 22.594-18.316 40.91-40.91 40.91a40.723 40.723 0 0 1-18.402-4.375c6.738 13.352 20.562 22.512 36.539 22.512 22.593 0 40.91-18.316 40.91-40.91.004-15.977-9.16-29.801-22.512-36.54zm0 0"/><path d="M386.816 364.793a40.723 40.723 0 0 1 4.375 18.402c0 22.594-18.316 40.91-40.914 40.91a40.707 40.707 0 0 1-18.398-4.375c6.734 13.352 20.562 22.516 36.535 22.516 22.598 0 40.914-18.32 40.914-40.914 0-15.977-9.16-29.8-22.512-36.539zM305.582 408.64c.266-7.917 1.578-17.85 11.066-27.34 10.829-10.827 22.239-11.007 30.57-11.136 7.29-.117 11.692-.187 16.825-5.324 5.14-5.137 5.207-9.535 5.324-16.828.13-8.328.313-19.739 11.14-30.567 10.829-10.828 22.24-11.007 30.567-11.14a62.206 62.206 0 0 0 2.903-.13c1.886-.12 2.558-2.55 1.003-3.62l-77.16-53.137-88.015 88.016L301.98 409.8c1.114 1.543 3.543.789 3.602-1.11a.111.111 0 0 1 0-.05zm0 0"/></g><path d="m414.98 302.555-77.164-53.137-19.914 19.914 57.996 53.613a39.482 39.482 0 0 1 4.606-5.5c10.828-10.828 22.238-11.007 30.57-11.14a57.66 57.66 0 0 0 2.903-.13c1.882-.12 2.558-2.55 1.003-3.62zm0 0" fill="#f77900"/><path d="M172.344 435.984a7.49 7.49 0 0 1-7.489-7.488 7.488 7.488 0 0 1 7.489-7.492c33.89 0 61.695-26.527 63.746-59.906l-11.977 10.875c-15.41 13.992-36.84 20.105-57.312 16.359l-17.164-3.144a7.485 7.485 0 0 1-6.016-8.715 7.482 7.482 0 0 1 8.715-6.016l17.16 3.14c15.914 2.91 32.57-1.84 44.547-12.714l24.621-22.356a7.482 7.482 0 0 1 8.066-1.3 7.485 7.485 0 0 1 4.458 6.847v13.063c0 43.476-35.368 78.847-78.844 78.847zm0 0" fill="#3a6187"/><path d="m120.613 35.64-84.468 84.47c-37.606 37.605-37.606 98.578 0 136.187l23.246 23.246a229.07 229.07 0 0 0 150.972 66.824 60.537 60.537 0 0 0 45.707-17.656l73.14-73.145a60.526 60.526 0 0 0 17.661-45.707 229.061 229.061 0 0 0-66.824-150.968l-23.25-23.25c-37.606-37.606-98.578-37.606-136.184 0zm0 0" fill="#ffa511"/><path d="M346.871 209.86a229.07 229.07 0 0 0-66.824-150.973l-23.25-23.246C229.742 8.582 190.59.996 156.747 12.875c13.194 4.629 25.581 12.219 36.132 22.766l23.246 23.246a229.033 229.033 0 0 1 66.824 150.972 60.522 60.522 0 0 1-17.656 45.707l-73.145 73.145a60.474 60.474 0 0 1-18.925 12.8 228.632 228.632 0 0 0 37.14 4.856 60.537 60.537 0 0 0 45.707-17.656l73.14-73.145a60.526 60.526 0 0 0 17.661-45.707zm0 0" fill="#f77900"/><path d="m349.352 265.879-82.98 82.98c-7.731 7.73-20.263 7.73-27.993 0-7.73-7.73-7.73-20.261 0-27.992l82.98-82.98c7.73-7.73 20.262-7.73 27.993 0 7.73 7.73 7.73 20.261 0 27.992zm0 0" fill="#48709b"/><path d="M349.352 237.887a19.727 19.727 0 0 0-6.942-4.489c2.692 7.067 1.203 15.36-4.488 21.051l-82.98 82.98c-5.692 5.696-13.985 7.18-21.047 4.489a19.628 19.628 0 0 0 4.484 6.941c7.73 7.73 20.262 7.73 27.992 0l82.98-82.98c7.731-7.73 7.731-20.262 0-27.992zm0 0" fill="#3a6187"/><path d="M269.605 511.996c-26.69 0-48.402-21.71-48.402-48.398 0-26.692 21.711-48.403 48.402-48.403 26.688 0 48.399 21.711 48.399 48.403 0 26.687-21.711 48.398-48.399 48.398zm0-81.824c-18.43 0-33.425 14.996-33.425 33.426 0 18.425 14.996 33.422 33.425 33.422 18.426 0 33.422-14.997 33.422-33.422 0-18.43-14.996-33.426-33.422-33.426zm0 0"/><path d="M481.816 383.953c-3.55-23.215-23.652-41.055-47.843-41.055-15.13 0-29.063 6.946-38.133 18.579a48.568 48.568 0 0 0-19.176-7.825c.129-1.793.16-3.625.191-5.523.122-7.828.262-16.703 8.946-25.387 8.683-8.683 17.558-8.824 25.39-8.949a69.274 69.274 0 0 0 3.274-.145 9.482 9.482 0 0 0 8.523-6.941 9.476 9.476 0 0 0-3.758-10.32l-57.085-39.309c.324-1.695.496-3.433.496-5.195 0-7.29-2.84-14.14-7.993-19.293a27.974 27.974 0 0 0-2.539-2.238 67.449 67.449 0 0 0 2.243-20.852c-1.856-38.64-13.313-76.625-33.133-109.844-2.121-3.55-6.719-4.715-10.27-2.593a7.488 7.488 0 0 0-2.594 10.269c18.567 31.117 29.297 66.691 31.04 102.887a52.821 52.821 0 0 1-1.32 14.511 27.286 27.286 0 0 0-2.716-.132c-7.289 0-14.14 2.836-19.293 7.988l-82.98 82.984c-5.152 5.153-7.992 12.004-7.992 19.29 0 4.617 1.144 9.058 3.289 13.003l-14.336 13.016c-11.98 10.875-28.633 15.625-44.547 12.719l-17.164-3.145a7.487 7.487 0 0 0-8.715 6.02 7.487 7.487 0 0 0 6.02 8.715l17.16 3.14a66.417 66.417 0 0 0 11.96 1.082c16.594 0 32.93-6.16 45.356-17.441l11.961-10.86c-2.058 33.371-29.851 59.895-63.73 59.895a7.487 7.487 0 0 0-7.489 7.488 7.487 7.487 0 0 0 7.489 7.488c41.804 0 76.093-32.707 78.672-73.87.449.023.902.035 1.355.035 1.902 0 3.773-.2 5.598-.575l37.933 52.61a9.464 9.464 0 0 0 10.457 3.52 9.488 9.488 0 0 0 6.703-8.782v-.074c.23-6.711 1.141-14.508 8.88-22.246.183-.188.37-.344.554-.52a48.327 48.327 0 0 0-2.48 15.25c0 26.688 21.71 48.402 48.398 48.402 15.21 0 29.094-7.242 38.05-18.597a47.852 47.852 0 0 0 8.552 4.726c3.566 23.344 23.765 41.036 47.84 41.036 26.687 0 48.398-21.711 48.398-48.403 0-19.703-11.645-37.015-29.442-44.539zm-238.14-40.39a12.224 12.224 0 0 1-3.606-8.7c0-3.285 1.282-6.375 3.606-8.699l82.98-82.98a12.208 12.208 0 0 1 8.7-3.606c3.285 0 6.374 1.277 8.699 3.606a12.224 12.224 0 0 1 3.605 8.699c0 3.285-1.281 6.375-3.605 8.699l-82.98 82.98c-2.325 2.325-5.415 3.606-8.7 3.606s-6.379-1.281-8.7-3.605zm67.676 32.445c-6.102 6.101-9.399 12.457-11.188 18.472l-28.84-40c.113-.109.23-.214.34-.324l82.984-82.98c.211-.211.41-.43.614-.649l42.644 29.364c-7.082 1.37-15.015 4.578-22.699 12.257-12.969 12.977-13.187 26.68-13.328 35.747-.074 4.726-.16 7.03-1.043 8.886-.082.145-.156.29-.23.442-.438.773-1.032 1.496-1.86 2.324-2.887 2.887-4.5 3.012-11.644 3.129-9.07.14-22.778.355-35.75 13.332zm98.628 23.953c-4.085-.61-7.898 2.223-8.503 6.312-2.403 16.239-16.614 28.48-33.059 28.48-18.43 0-33.426-14.991-33.426-33.421 0-8.863 3.551-17.379 9.79-23.629.863-.023 1.714-.039 2.558-.055 7.898-.125 14.719-.23 22-7.511.7-.703 1.316-1.399 1.894-2.094 9.7.828 18.668 5.871 24.391 13.871a7.47 7.47 0 0 0 6.098 3.133 7.451 7.451 0 0 0 4.351-1.399 7.486 7.486 0 0 0 1.735-10.445c-.329-.46-.68-.898-1.024-1.348 6.223-8.722 16.254-13.98 27.188-13.98 18.43 0 33.425 14.996 33.425 33.426s-14.996 33.422-33.425 33.422c-7.371 0-14.36-2.364-20.125-6.73a47.197 47.197 0 0 0 2.445-9.524 7.49 7.49 0 0 0-6.313-8.508zm52.875 61.957c-14.472 0-26.918-9.262-31.52-22.293.876.047 1.755.074 2.638.074 23.468 0 43.082-16.793 47.476-38.992 9.125 6.066 14.828 16.332 14.828 27.785 0 18.43-14.992 33.426-33.422 33.426zm0 0"/><path d="M200.469 353.168c3.824-.004 7.094-2.922 7.449-6.809a7.492 7.492 0 0 0-6.773-8.14c-51.458-4.711-99.918-27.43-136.458-63.973L41.442 251c-34.629-34.625-34.629-90.969 0-125.594l84.465-84.469c34.63-34.625 90.969-34.625 125.598 0l23.246 23.247a224.62 224.62 0 0 1 14 15.378 7.487 7.487 0 1 0 11.535-9.55 237.438 237.438 0 0 0-14.945-16.418l-23.246-23.246c-40.465-40.465-106.309-40.465-146.778 0l-84.468 84.464c-40.465 40.47-40.465 106.317.004 146.782l23.246 23.246c39.007 39.008 90.746 63.265 145.68 68.297.23.02.46.031.69.031zm0 0"/></svg>