<svg xmlns="http://www.w3.org/2000/svg" viewBox="0 0 505.063 505.063" style="enable-background:new 0 0 505.063 505.063" xml:space="preserve" width="512" height="512"><path style="fill:#ffd0a6" d="M469.356 307.798c0 27.027-20.814 49.175-47.279 51.292-1.38.117-2.784.176-4.188.176-3.604 0-7.114-.363-10.506-1.076h-310a50.947 50.947 0 0 1-10.507 1.076h-.036c-28.419-.023-51.433-23.049-51.433-51.468 0-26.793 20.475-48.8 46.636-51.222a47.166 47.166 0 0 1 4.832-.234c2.165 0 4.282.129 6.376.386h318.26a52.21 52.21 0 0 1 6.377-.386c3.054 0 6.049.269 8.95.784 24.16 4.224 42.518 25.307 42.518 50.672z"/><path style="fill:#e8b182" d="M426.838 257.126v65.192a143.93 143.93 0 0 1-4.762 36.773c-1.38.117-2.784.176-4.188.176-3.604 0-7.114-.363-10.506-1.076h-310a50.947 50.947 0 0 1-10.507 1.076h-.035a144.213 144.213 0 0 1-4.797-36.948v-65.741a47.166 47.166 0 0 1 4.832-.234c2.165 0 4.282.129 6.376.386h318.26a52.21 52.21 0 0 1 6.377-.386 51.017 51.017 0 0 1 8.95.782z"/><path style="fill:#e8b182" d="M411.509 233.539V340.5c0 76.54-54.755 140.293-127.236 154.228a157.603 157.603 0 0 1-29.835 2.831c-86.743 0-157.059-70.316-157.059-157.059V233.54c0-86.743 70.316-157.071 157.059-157.071 10.202 0 20.182.971 29.835 2.832 31.414 6.037 59.494 21.434 81.232 43.172 28.419 28.43 46.004 67.695 46.004 111.066z"/><path style="fill:#ffd0a6" d="M411.509 233.539V340.5c0 76.54-54.755 140.293-127.236 154.228-72.481-13.935-127.236-77.688-127.236-154.228V233.54c0-76.54 54.755-140.305 127.236-154.239 31.414 6.037 59.494 21.434 81.232 43.172 28.419 28.43 46.004 67.695 46.004 111.066z"/><path style="fill:#5b5b68" d="M411.511 233.539v23.189c-185.946-.234-247.756-76.283-247.756-76.283 0 31.59-31.59 64.923-66.373 76.283v-23.189c0-86.743 70.316-157.071 157.059-157.071 10.202 0 20.182.971 29.835 2.832 31.414 6.037 59.494 21.434 81.232 43.172 28.418 28.431 46.003 67.696 46.003 111.067z"/><path style="fill:#40404c" d="M284.268 79.3c-55.539 10.682-100.666 50.614-118.742 103.134-1.205-1.275-1.778-1.989-1.778-1.989 0 31.59-31.59 64.923-66.373 76.283v-23.189c0-86.743 70.316-157.071 157.059-157.071 10.202.001 20.182.972 29.834 2.832z"/><path style="fill:#f95c5c" d="m367.295 15.752-54.391 111.73c-3.534 7.261 1.753 15.715 9.828 15.715h34.858l-25.739 68.308c-3.861 10.247 8.277 19.034 16.806 12.166l116.79-94.052c8.249-6.643 3.552-19.965-7.039-19.965h-38.305l45.508-80.238C471.16 19.633 464.093 7.5 452.846 7.5h-72.355a14.678 14.678 0 0 0-13.196 8.252z"/><path d="M419.014 248.869v-15.325c0-17.272-2.669-34.24-7.923-50.523l59.06-47.562c6.27-5.049 8.591-13.217 5.915-20.809s-9.608-12.497-17.658-12.497h-25.429l39.156-69.038c3.938-6.942 3.89-15.205-.127-22.102C467.99 4.118 460.827 0 452.845 0H380.49c-8.424 0-16.25 4.894-19.938 12.469l-35.287 72.488a163.198 163.198 0 0 0-39.568-13.017 165.612 165.612 0 0 0-31.253-2.966c-39.266 0-77.286 14.058-107.056 39.585a7.5 7.5 0 1 0 9.763 11.386c27.053-23.197 61.605-35.972 97.292-35.972 9.572 0 19.133.907 28.419 2.696a148.212 148.212 0 0 1 35.83 11.787l-12.531 25.742c-2.799 5.749-2.446 12.418.944 17.839 3.391 5.422 9.232 8.659 15.627 8.659h24.017l-21.917 58.164c-2.94 7.803-.378 16.331 6.376 21.221 3.244 2.349 6.983 3.517 10.714 3.517 4.036 0 8.062-1.368 11.437-4.085l45.126-36.341c3.666 13.087 5.526 26.622 5.526 40.373v15.625c-51.381-.675-122.173-7.902-181.723-36.873-37.232-18.113-52.583-36.419-52.717-36.582a7.499 7.499 0 0 0-13.32 4.73c0 13.107-6.476 27.572-18.235 40.729-9.13 10.216-20.839 18.821-33.135 24.525v-12.155c0-33.083 10.58-64.434 30.597-90.661a7.5 7.5 0 1 0-11.924-9.1c-22.029 28.865-33.673 63.362-33.673 99.762v15.369a104.469 104.469 0 0 0-3.012-.073c-32.516 0-58.97 26.449-58.97 58.96 0 32.516 26.454 58.97 58.97 58.97 1.697 0 3.391-.09 5.079-.235 12.516 78.412 80.611 138.527 162.493 138.527 10.523 0 21.039-.999 31.25-2.966 43.633-8.388 82.597-34.681 106.902-72.136a7.5 7.5 0 1 0-12.583-8.165c-22.095 34.05-57.504 57.949-97.154 65.572a150.496 150.496 0 0 1-28.415 2.696c-82.467 0-149.559-67.092-149.559-149.559v-78.508c16.557-6.398 32.136-17.193 44.319-30.826 9.878-11.053 16.673-23.121 19.902-35.092 8.972 7.669 23.703 18.431 45.486 29.15 35.086 17.265 96.169 37.776 189.423 38.94v76.336c0 19.694-3.766 38.83-11.194 56.877a7.499 7.499 0 0 0 6.933 10.356 7.501 7.501 0 0 0 6.938-4.647 163.11 163.11 0 0 0 10.236-36.337c.322.005.643.018.965.018 32.511 0 58.96-26.454 58.96-58.97.002-32.136-25.843-58.33-57.836-58.933zm-75.061-31.04c-1.684 1.356-3.197.645-3.948.102-.751-.544-1.898-1.759-1.136-3.781l25.739-68.308a7.502 7.502 0 0 0-7.018-10.145h-34.858c-1.654 0-2.533-1.01-2.909-1.612-.376-.602-.899-1.833-.175-3.32l54.391-111.73A7.22 7.22 0 0 1 380.491 15h72.355c3.723 0 5.576 2.492 6.2 3.564s1.878 3.914.041 7.151l-45.508 80.238a7.5 7.5 0 0 0 6.524 11.2h38.305c2.378 0 3.248 1.738 3.511 2.485.264.747.676 2.646-1.176 4.138l-116.79 94.053zM86.872 351.771c-24.245 0-43.97-19.725-43.97-43.97 0-24.24 19.725-43.96 43.97-43.96.541 0 1.659.033 3.012.082v25.151c-10.25-.221-23.09 3.309-29.166 17.283a7.499 7.499 0 0 0 3.888 9.868 7.463 7.463 0 0 0 2.986.624 7.502 7.502 0 0 0 6.882-4.512c3.216-7.398 10.342-8.529 15.41-8.289v36.456c0 3.738.137 7.445.384 11.122a44.194 44.194 0 0 1-3.396.145zm331.758-.019c.25-3.729.384-7.479.384-11.248v-36.456c5.067-.239 12.185.896 15.4 8.289a7.502 7.502 0 0 0 6.882 4.512c.998 0 2.013-.201 2.986-.624a7.499 7.499 0 0 0 3.888-9.868c-6.073-13.969-18.907-17.501-29.156-17.283v-25.205c23.722.599 42.838 20.068 42.838 43.932 0 23.997-19.323 43.554-43.222 43.951z"/><path d="M216.51 407.98c20.917-20.917 54.949-20.916 75.865 0 1.464 1.464 3.384 2.197 5.303 2.197s3.839-.732 5.303-2.197a7.5 7.5 0 0 0 0-10.606c-26.765-26.765-70.313-26.764-97.078 0a7.5 7.5 0 0 0 10.607 10.606zM165.935 339.268a7.502 7.502 0 0 0 9.374 4.963l39.642-12.198a7.501 7.501 0 0 0 3.097-12.472l-26.682-26.682a7.5 7.5 0 0 0-10.606 0 7.5 7.5 0 0 0 0 10.606l17.874 17.874-27.736 8.534a7.502 7.502 0 0 0-4.963 9.375zM334.722 344.564a7.5 7.5 0 0 0 2.203-14.67l-27.735-8.534 17.874-17.874a7.5 7.5 0 0 0 0-10.606 7.498 7.498 0 0 0-10.606 0l-26.682 26.682a7.5 7.5 0 0 0 3.097 12.472l39.642 12.198a7.523 7.523 0 0 0 2.207.332zM73.872 91.309l-29.004 6.693a7.5 7.5 0 0 0-4.554 11.468l30.494 45.741a7.492 7.492 0 0 0 6.247 3.341c1.43 0 2.875-.408 4.153-1.261a7.498 7.498 0 0 0 2.08-10.4l-24.475-36.712 29.069-6.708a7.501 7.501 0 0 0 4.53-11.504L50.218 29.454a7.498 7.498 0 0 0-10.412-2.021 7.5 7.5 0 0 0-2.021 10.412l36.087 53.464zM130.73 92.402a7.502 7.502 0 0 0 6.893 4.539 7.5 7.5 0 0 0 6.886-10.466l-12.095-28.117 19.811-.893a7.499 7.499 0 0 0 6.535-10.495l-15.482-35.432c-1.659-3.796-6.083-5.53-9.875-3.87a7.5 7.5 0 0 0-3.87 9.875l11.111 25.428-19.744.89a7.498 7.498 0 0 0-6.552 10.456l16.382 38.085z"/></svg>