<svg xmlns="http://www.w3.org/2000/svg" viewBox="0 0 512 512" style="enable-background:new 0 0 512 512" xml:space="preserve"><path style="fill:#ff8163" d="M256 360.696a21.917 21.917 0 0 1-15.514-6.453L89.148 202.085c-21.398-21.489-33.181-50.065-33.181-80.459s11.782-58.973 33.181-80.461c21.392-21.489 49.835-33.328 80.105-33.328 30.257 0 58.7 11.839 80.102 33.328L256 47.847l6.647-6.682c21.391-21.489 49.836-33.328 80.101-33.328 30.259 0 58.704 11.839 80.105 33.328 21.389 21.487 33.182 50.067 33.182 80.461s-11.794 58.97-33.182 80.459L271.512 354.243A21.91 21.91 0 0 1 256 360.696z"/><path style="fill:#f9f4e1" d="M342.747 7.837c-30.264 0-58.709 11.839-80.101 33.328l-4.485 4.509L418.152 206.81l4.699-4.724c21.389-21.489 33.182-50.065 33.182-80.459s-11.794-58.973-33.182-80.461c-21.4-21.491-49.845-33.329-80.104-33.329z"/><path style="fill:#f9eeb7" d="M281.839 25.644a114.388 114.388 0 0 0-19.193 15.521l-4.485 4.509L418.152 206.81l4.699-4.724a114.74 114.74 0 0 0 15.287-19.027L281.839 25.644zM342.747 7.837a113.345 113.345 0 0 0-30.809 4.241l139.788 140.787a114.74 114.74 0 0 0 4.308-31.239c0-2.894-.109-5.769-.32-8.625L351.639 8.186a114.1 114.1 0 0 0-8.892-.349z"/><path style="fill:#e2f7f6" d="M189.436 234.71c-5.943-.019-11.531-2.314-15.735-6.464-8.253-8.154-8.35-20.584-.241-30.946l13.885-18.836a2.612 2.612 0 0 1 2.101-1.055c.831 0 1.613.393 2.102 1.055l13.889 18.847c8.03 10.43 7.932 22.86-.243 30.936-4.202 4.149-9.792 6.445-15.74 6.464h-.008l-.01-.001zM315.118 434.049c-5.943-.018-11.531-2.314-15.735-6.463-8.253-8.154-8.35-20.586-.24-30.946l13.885-18.836a2.607 2.607 0 0 1 2.101-1.055c.831 0 1.613.392 2.102 1.055l13.889 18.846c8.03 10.43 7.932 22.86-.243 30.936-4.202 4.148-9.793 6.445-15.74 6.463h-.019zM196.917 427.027c-5.943-.018-11.531-2.314-15.735-6.463-8.253-8.155-8.35-20.586-.241-30.947l13.886-18.836a2.611 2.611 0 0 1 2.101-1.055c.831 0 1.614.393 2.102 1.055l13.889 18.847c8.03 10.43 7.932 22.86-.243 30.936-4.202 4.148-9.792 6.445-15.74 6.463h-.019zM256.018 504.163c-5.943-.018-11.531-2.314-15.735-6.463-8.253-8.154-8.35-20.586-.241-30.947l13.885-18.836a2.612 2.612 0 0 1 2.101-1.055c.831 0 1.613.393 2.102 1.055l13.889 18.847c8.03 10.43 7.932 22.86-.243 30.936-4.202 4.148-9.792 6.445-15.74 6.463H256.018z"/><path d="M128.266 202.085c-21.398-21.489-33.181-50.065-33.181-80.459s11.782-58.973 33.181-80.461c16.709-16.785 37.72-27.681 60.541-31.649a114.101 114.101 0 0 0-19.555-1.679c-30.269 0-58.713 11.839-80.105 33.328-21.4 21.488-33.181 50.068-33.181 80.461s11.782 58.97 33.181 80.459l151.339 152.157A21.917 21.917 0 0 0 256 360.695a21.914 21.914 0 0 0 15.512-6.453l4.047-4.07-147.293-148.087z" style="opacity:.1"/><path style="opacity:.1;enable-background:new" d="M316.559 427.587c-8.253-8.154-8.35-20.586-.24-30.946l7.398-10.035-6.486-8.801a2.609 2.609 0 0 0-2.102-1.055c-.831 0-1.613.392-2.101 1.055l-13.885 18.836c-8.108 10.36-8.011 22.792.24 30.946 4.204 4.148 9.792 6.445 15.735 6.463h.016a22.554 22.554 0 0 0 8.583-1.709 22.385 22.385 0 0 1-7.158-4.754zM198.358 420.564c-8.253-8.155-8.35-20.586-.241-30.947l7.398-10.035-6.486-8.801c-.488-.662-1.271-1.055-2.102-1.055s-1.613.393-2.101 1.055l-13.886 18.836c-8.108 10.361-8.011 22.792.241 30.947 4.203 4.148 9.792 6.445 15.735 6.463h.016a22.554 22.554 0 0 0 8.583-1.709 22.375 22.375 0 0 1-7.157-4.754zM257.459 497.701c-8.253-8.154-8.35-20.586-.241-30.947l7.398-10.035-6.486-8.801c-.488-.662-1.271-1.055-2.102-1.055s-1.613.393-2.101 1.055l-13.885 18.836c-8.108 10.361-8.011 22.792.241 30.947 4.204 4.148 9.792 6.445 15.735 6.463h.016a22.554 22.554 0 0 0 8.583-1.709 22.374 22.374 0 0 1-7.158-4.754z"/><path d="M221.582 278.504a7.837 7.837 0 0 0 7.837-7.837c0-14.793 11.924-26.829 26.581-26.829s26.582 12.036 26.582 26.829a7.837 7.837 0 0 0 7.837 7.837 7.837 7.837 0 0 0 7.837-7.837c0-23.436-18.956-42.502-42.256-42.502s-42.255 19.066-42.255 42.502a7.837 7.837 0 0 0 7.837 7.837z"/><path d="M463.518 112.28v-.002c-2.178-28.953-14.451-55.883-35.113-76.642C405.52 12.655 375.1 0 342.747 0c-32.359 0-62.78 12.656-85.657 35.638L256 36.734l-1.093-1.099C232.022 12.655 201.602 0 169.253 0c-32.362 0-62.783 12.656-85.658 35.635C60.724 58.6 48.13 89.139 48.13 121.626c0 32.484 12.595 63.022 35.462 85.986l151.347 152.166c5.634 5.645 13.113 8.754 21.061 8.754s15.427-3.11 21.068-8.764l70.694-71.075a7.838 7.838 0 0 0-11.111-11.054l-70.685 71.067c-2.672 2.678-6.21 4.152-9.964 4.152-3.755 0-7.294-1.474-9.958-4.143L94.7 196.556c-19.924-20.009-30.898-46.619-30.898-74.93 0-28.314 10.974-54.924 30.899-74.933 19.914-20.004 46.389-31.02 74.551-31.02 28.152 0 54.626 11.017 74.545 31.019L345.95 149.694c-2.853 10.323-12.245 17.919-23.368 17.919-13.379 0-24.264-10.988-24.264-24.492 0-4.329-3.509-7.837-7.837-7.837s-7.837 3.508-7.837 7.837c0 22.148 17.916 40.166 39.937 40.166 15.333 0 28.667-8.737 35.354-21.522l46.942 47.277-45.366 45.61a7.837 7.837 0 0 0 11.111 11.053l57.782-58.092c22.87-22.977 35.465-53.515 35.465-85.988.002-3.135-.119-6.252-.351-9.345zm-27.042 57.983-67.68-68.163a7.838 7.838 0 0 0-11.123 11.043l70.341 70.843a107.386 107.386 0 0 1-10.719 12.573l-1.365 1.372L266.984 47.917l1.217-1.224a106.985 106.985 0 0 1 12.684-10.89l57.081 57.489a7.815 7.815 0 0 0 5.561 2.315 7.81 7.81 0 0 0 5.521-2.276 7.836 7.836 0 0 0 .04-11.083L294.561 27.33a103.793 103.793 0 0 1 15.126-6.372l133.175 134.1a104.772 104.772 0 0 1-6.386 15.205zm10.612-33.19L327.624 16.753a106.524 106.524 0 0 1 20.546-.94l53.067 53.445a7.815 7.815 0 0 0 5.561 2.315 7.836 7.836 0 0 0 5.561-13.358L375.167 20.76c15.713 5.08 30.115 13.87 42.13 25.934 12.081 12.136 20.865 26.701 25.913 42.593l-9.062-9.127a7.837 7.837 0 0 0-11.123 11.042l25.046 25.227a108.182 108.182 0 0 1-.983 20.644z"/><path d="M168.195 233.824c5.674 5.6 13.209 8.698 21.249 8.723h.032c8.013-.024 15.551-3.122 21.223-8.725 10.93-10.797 11.337-27.737.999-41.222l-8.642-11.728c15.326-5.617 26.298-20.419 26.298-37.752a7.837 7.837 0 0 0-7.837-7.837 7.837 7.837 0 0 0-7.837 7.837c0 13.505-10.885 24.492-24.264 24.492s-24.264-10.988-24.264-24.492a7.837 7.837 0 0 0-7.837-7.837 7.837 7.837 0 0 0-7.837 7.837c0 17.349 10.993 32.161 26.342 37.767l-8.608 11.679c-10.436 13.418-10.039 30.368.983 41.258zm11.437-31.694c.046-.06.092-.119.137-.18l9.678-13.129 9.683 13.139.099.132c5.588 7.257 5.768 15.336.459 20.578-2.728 2.695-6.366 4.187-10.242 4.204-3.872-.017-7.508-1.508-10.236-4.2-5.364-5.301-5.198-13.363.422-20.544zM323.541 373.158a10.484 10.484 0 0 0-8.414-4.246 10.479 10.479 0 0 0-8.409 4.242l-13.821 18.751c-10.439 13.418-10.043 30.368.98 41.26 5.676 5.6 13.211 8.697 21.248 8.721h.031c8.012-.023 15.549-3.121 21.225-8.724 10.929-10.797 11.335-27.738.999-41.224l-13.839-18.78zm1.829 48.852c-2.73 2.695-6.368 4.187-10.243 4.202-3.871-.016-7.508-1.507-10.236-4.201-5.362-5.299-5.197-13.361.422-20.541l.137-.181 9.678-13.13 9.682 13.138.099.132c5.587 7.26 5.768 15.338.461 20.581zM219.181 384.916l-13.842-18.783a10.483 10.483 0 0 0-8.412-4.245 10.479 10.479 0 0 0-8.409 4.242l-13.822 18.75c-10.437 13.419-10.041 30.369.981 41.261 5.675 5.601 13.21 8.698 21.248 8.722h.031c8.012-.023 15.549-3.121 21.225-8.724 10.93-10.796 11.336-27.737 1-41.223zm-12.012 30.071c-2.73 2.695-6.368 4.187-10.243 4.202-3.871-.016-7.507-1.507-10.235-4.201-5.362-5.299-5.197-13.362.422-20.543.046-.06.092-.119.137-.18l9.678-13.129 9.682 13.139.099.132c5.586 7.259 5.767 15.338.46 20.58zM264.438 443.268a10.484 10.484 0 0 0-8.409-4.242 10.483 10.483 0 0 0-8.409 4.242l-13.821 18.751c-10.439 13.42-10.041 30.37.981 41.26 5.675 5.601 13.21 8.698 21.248 8.722h.031c8.012-.023 15.549-3.121 21.225-8.724 10.929-10.797 11.335-27.738.999-41.223l-13.845-18.786zm1.831 48.856c-2.73 2.695-6.368 4.187-10.243 4.203-3.871-.016-7.507-1.507-10.236-4.2-5.362-5.299-5.197-13.362.422-20.543.046-.06.092-.119.137-.18l9.678-13.129 9.683 13.139.099.132c5.587 7.257 5.767 15.336.46 20.578z"/></svg>