<svg xmlns="http://www.w3.org/2000/svg" version="1.1" xmlns:xlink="http://www.w3.org/1999/xlink" xmlns:svgjs="http://svgjs.com/svgjs" width="512" height="512" x="0" y="0" viewBox="0 0 512 512" style="enable-background:new 0 0 512 512" xml:space="preserve" class=""><g><g xmlns="http://www.w3.org/2000/svg"><g><path d="m410.409 165.348c16.893-4.004 33-13.08 44.841-25.012 12.518-12.374 22.71-28.308 25.774-45.072.875-4.667 3.139-8.96 6.497-12.318l9.773-9.339 7.206-24.552v-36.94c0-2.209-1.791-4-4-4h-43.101c-1.09 0-2.133.445-2.887 1.232l-26.187 27.315c-3.518 3.518-8.061 5.832-12.975 6.61l-87.073 13.781c-14.057 2.225-24.862 13.623-26.332 27.779l-1.045 8.408 4.073 53.15 15.193 38.878z" fill="#fedecf" data-original="#fedecf"></path><path d="m164.732 410.409c-4.004 16.893-13.08 33-25.012 44.841-12.374 12.518-28.308 22.71-45.072 25.774-4.667.875-8.96 3.139-12.318 6.497l-9.339 9.773-24.551 7.206h-36.94c-2.209 0-4-1.791-4-4v-43.101c0-1.09.445-2.133 1.232-2.887l27.315-26.187c3.518-3.518 5.832-8.061 6.61-12.975l13.781-87.073c2.225-14.057 13.623-24.862 27.779-26.332l14.123-1.74 47.433 4.769 38.878 15.193z" fill="#fedecf" data-original="#fedecf"></path><path d="m183.25 331.81-26.87 26.43-43.17 42.45c-3.94 3.87-10.27 3.82-14.14-.12-1.92-1.95-2.88-4.49-2.88-7.02 0-2.58 1-5.17 2.99-7.12l38.744-38.088c2.377-2.337 2.394-6.164.036-8.521l-39.62-39.621 36.97-4.55z" fill="#fdd0bf" data-original="#fdd0bf"></path><path d="m440.33 152.43c-5.46-10.42-12.57-20.19-21.31-28.94-4.99-4.99-9.593-8.905-15.25-12.88 1.194-3.521.383-7.566-2.447-10.345-1.95-1.92-4.49-2.88-7.02-2.88-1.318-.009-3.705.52-6.068 2.198-.907.644-2.066.79-3.077.324-15.506-7.149-33.148-11.437-50.668-11.437-11.53 0-22.82 1.63-33.59 4.77l-5.25 42.686 24.52 49.344 90.24-19.92c10.56-2.51 20.82-7 29.92-12.92z" fill="#fdd0bf" data-original="#fdd0bf"></path><path d="m258.387 415.098c-1.953 1.953-5.119 1.953-7.071 0l-24.365-14.559-122.123-122.128c-38.875-38.876-38.875-101.907 0-140.783 38.877-38.874 101.901-38.874 140.777 0l1.743 1.743 4.2 8.668c1.953 1.953 5.119 1.953 7.071 0l3.728-8.662 1.75-1.75c38.877-38.874 101.901-38.874 140.777 0 38.873 38.876 16.377 107.866-22.495 146.742z" fill="#fe7f86" data-original="#fe7f86" class=""></path><path d="m404.88 137.63c-1.761-1.761-3.588-3.416-5.445-5.019-1.125 1.19-2.341 2.309-3.626 3.349 18.423 37.219 12.151 83.55-18.839 114.54l-150.02 150.04 20.4 20.4 3.97-.234c1.95 1.95 5.11 1.95 7.07 0l3.96.244 142.53-142.54c38.87-38.88 38.87-101.91 0-140.78z" fill="#f76d7b" data-original="#f76d7b"></path><path d="m106.076 407.697 81.595-80.225c5.479-5.479 12.873-7.877 20.029-7.192 5.558.532 6.358 7.198 10.618 11.45 9.757 9.739 3.692 21.849-6.056 31.597l-38.443 40.232c-3.108 3.108-5.361 6.99-6.375 11.266-4.004 16.893-11.446 29.081-23.378 40.922-12.374 12.518-31.112 23.003-47.876 26.067-4.667.875-8.96 3.139-12.318 6.497l-10.881 8.983-24.551 7.206h-36.94z" fill="#fedecf" data-original="#fedecf"></path><path d="m230.26 345.11c0 6.38-2.44 12.77-7.31 17.64l-43.49 42.49c-3.11 3.11-5.36 6.99-6.38 11.27-4 16.89-13.08 33-25.01 44.84-12.37 12.52-29.57 21.37-46.33 24.44-4.67.87-8.96 3.14-12.32 6.49l-10.896 10.306c-1.3 1.229-3.021 1.914-4.81 1.914h-25.274l21.98-24.22c3.36-3.35 7.65-5.62 12.32-6.49 16.76-3.07 33.96-11.92 46.33-24.44 11.93-11.84 21.01-27.95 25.01-44.84 1.02-4.28 3.27-8.16 6.38-11.27l43.49-42.49c4.87-4.87 7.31-11.26 7.31-17.64 0-4.45-1.19-8.89-3.56-12.83 5.56.54 10.97 2.93 15.23 7.18 4.88 4.87 7.33 11.26 7.33 17.65z" fill="#fdd0bf" data-original="#fdd0bf"></path><path d="m407.697 106.692-80.225 81.595c-5.479 5.479-7.877 12.873-7.192 20.029.532 5.558 7.198 6.358 11.45 10.618 9.739 9.757 21.849 3.692 31.597-6.056l40.232-38.443c3.108-3.108 6.99-5.361 11.266-6.375 16.893-4.004 29.081-11.446 40.922-23.378 12.518-12.374 23.003-31.112 26.067-47.876.875-4.667 3.139-8.96 6.497-12.318l8.983-10.881 7.206-24.552v-36.94z" fill="#fedecf" data-original="#fedecf"></path><path d="m345.11 230.876c6.38 0 12.77-2.44 17.64-7.31l42.49-43.49c3.11-3.11 6.99-5.36 11.27-6.38 16.89-4 33-13.08 44.84-25.01 12.52-12.37 21.37-29.57 24.44-46.33.87-4.67 3.14-8.96 6.49-12.32l10.306-10.896c1.229-1.3 1.914-3.021 1.914-4.81v-25.274l-24.22 21.98c-3.35 3.36-5.62 7.65-6.49 12.32-3.07 16.76-11.92 33.96-24.44 46.33-11.84 11.93-27.95 21.01-44.84 25.01-4.28 1.02-8.16 3.27-11.27 6.38l-42.49 43.49c-4.87 4.87-11.26 7.31-17.64 7.31-4.45 0-8.89-1.19-12.83-3.56.54 5.56 2.93 10.97 7.18 15.23 4.87 4.88 11.26 7.33 17.65 7.33z" fill="#fdd0bf" data-original="#fdd0bf"></path></g><g><path d="m509.785 73.374c-2.939-2.92-7.688-2.903-10.607.036l-11.249 11.327c-4.445 4.445-7.407 10.061-8.571 16.272-2.832 15.495-11.18 31.327-22.382 42.4-10.901 10.986-25.935 19.368-41.247 22.997-5.547 1.315-10.679 4.209-14.901 8.432l-42.433 43.429c-3.295 3.295-7.675 5.108-12.334 5.108-.003 0-.006 0-.009 0-4.663-.002-9.045-1.82-12.338-5.12-6.789-6.802-6.784-17.864.056-24.705l80.225-81.595c2.904-2.953 2.864-7.702-.09-10.605-2.954-2.905-7.702-2.864-10.606.09l-14.229 14.472c-24.746-14.684-53.85-18.314-80.658-11.609l1.942-18.69c1.118-10.76 9.36-19.455 20.044-21.146l24.936-3.946c4.091-.647 6.883-4.489 6.235-8.581-.647-4.09-4.487-6.875-8.58-6.235l-24.936 3.946c-17.387 2.753-30.8 16.904-32.619 34.412l-2.641 25.427c-13.253 5.343-27.418 15.503-37.94 26.778-40.885-45.081-112.198-47.216-155.327-3.944-3.958 3.959-7.637 8.262-10.932 12.788-2.438 3.349-1.699 8.04 1.649 10.478 1.333.97 2.877 1.438 4.408 1.438 2.317 0 4.602-1.07 6.07-3.087 2.837-3.897 6.004-7.602 9.412-11.009 40.45-39.769 101.603-33.882 137.22 7.049v58.038h-3.97c-20.258 0-36.739 16.481-36.739 36.739s16.481 36.738 36.739 36.738h3.97v128.838l-30.824-30.825 11.725-11.457c6.132-6.132 9.507-14.285 9.502-22.957-.004-8.672-3.386-16.822-9.524-22.948-12.65-12.626-33.224-12.616-45.817-.022l-11.732 11.535-60.549-60.552c-23.478-23.479-32.499-57.955-23.543-89.975 1.116-3.989-1.213-8.128-5.203-9.243-3.99-1.118-8.127 1.214-9.243 5.202-10.413 37.229.079 77.318 27.382 104.621l7.877 7.877-24.026 2.9c-17.48 1.846-31.598 15.247-34.346 32.612l-13.781 87.074c-.53 3.349-2.07 6.388-4.456 8.793l-28.486 27.309c-2.99 2.867-3.09 7.614-.224 10.604 1.473 1.536 3.442 2.31 5.415 2.31 1.866 0 3.736-.692 5.189-2.086l28.547-27.368c.038-.036.075-.073.112-.11 4.669-4.668 7.683-10.583 8.715-17.105l13.781-87.074c1.691-10.684 10.386-18.926 21.146-20.044.032 0 35.586-4.295 35.891-4.331l39.101 39.103-59.167 58.173c-2.954 2.903-2.994 7.652-.09 10.605 2.904 2.954 7.653 2.995 10.606.09l81.64-80.269c6.796-6.796 17.857-6.802 24.659-.012 3.3 3.293 5.119 7.675 5.121 12.338s-1.812 9.047-5.047 12.282l-43.552 42.556c-4.16 4.162-7.054 9.293-8.369 14.84-3.549 14.974-11.709 29.778-22.388 40.617-2.907 2.951-2.872 7.699.079 10.606 1.461 1.439 3.363 2.157 5.263 2.157 1.938 0 3.875-.747 5.343-2.236 12.733-12.925 22.073-29.86 26.298-47.686.673-2.839 2.188-5.5 4.319-7.632l21.098-20.615 43.75 43.752c1.406 1.407 3.314 2.197 5.303 2.197s3.897-.79 5.303-2.197l51.233-51.235c2.929-2.929 2.929-7.678 0-10.606s-7.678-2.929-10.606.001l-38.431 38.432v-136.339c0-4.143-3.358-7.5-7.5-7.5h-11.47c-11.987 0-21.739-9.752-21.739-21.739 0-11.986 9.752-21.738 21.739-21.738h11.47c4.142 0 7.5-3.357 7.5-7.5v-65.536c11.162-12.167 25.411-23.258 41.416-28.656 24.087-8.485 51.24-6.852 74.419 5.654l-55.069 56.009c-12.638 12.638-12.647 33.212-.021 45.862 6.126 6.138 14.276 9.52 22.948 9.523h.016c8.666 0 16.813-3.374 23.002-9.564l42.433-43.428c2.193-2.192 4.854-3.708 7.693-4.381 1.021-.242 2.038-.506 3.052-.781 10.304 32.592 1.704 68.512-22.668 92.886l-74.023 74.026c-2.929 2.929-2.929 7.678 0 10.606 1.464 1.464 3.384 2.196 5.303 2.196s3.839-.732 5.303-2.197l74.023-74.026c28.46-28.462 38.425-70.459 26.211-108.483 11.674-5.105 22.404-12.357 31.182-21.204 13.454-13.299 23.127-31.641 26.535-50.287.599-3.194 2.13-6.098 4.447-8.414l11.268-11.346c2.923-2.937 2.907-7.685-.032-10.604z" fill="#000000" data-original="#000000"></path><path d="m389.151 55.075c.39 0 .785-.03 1.182-.093l27.137-4.296c6.521-1.032 12.437-4.045 17.106-8.715.029-.029.058-.059.086-.088l28.226-29.168c2.88-2.977 2.803-7.725-.174-10.605-2.978-2.881-7.726-2.801-10.605.174l-28.179 29.119c-2.408 2.393-5.452 3.937-8.806 4.467l-27.138 4.296c-4.091.648-6.882 4.489-6.235 8.581.587 3.694 3.775 6.328 7.4 6.328z" fill="#000000" data-original="#000000"></path><path d="m116.817 473.417c-5.465 2.318-10.993 3.998-16.46 4.998-6.142 1.15-11.728 4.084-16.161 8.485l-12.849 12.15c-3.01 2.846-3.143 7.593-.296 10.603 1.475 1.56 3.46 2.347 5.451 2.347 1.849 0 3.702-.68 5.151-2.051l12.919-12.217c.051-.048.101-.097.15-.146 2.298-2.299 5.202-3.83 8.364-4.422 6.519-1.192 13.11-3.19 19.589-5.939 3.813-1.618 5.593-6.021 3.975-9.834-1.618-3.811-6.021-5.591-9.833-3.974z" fill="#000000" data-original="#000000"></path></g></g></g></svg>