<svg xmlns="http://www.w3.org/2000/svg" viewBox="0 0 512.001 512.001" style="enable-background:new 0 0 512.001 512.001" xml:space="preserve"><path transform="scale(-1) rotate(61.041 225.684 -295.924)" style="fill:#272f37" d="M107.518 110.304h133.888v45.495H107.518z"/><path style="opacity:.2;enable-background:new" d="m161.96 63.461-39.804 22.028 28.809 52.057a203.942 203.942 0 0 1 40.848-20.142L161.96 63.461z"/><path style="fill:#c39774" d="M422.113 255.84c-18.671-71.847-83.767-124.974-161.349-125.438-92.827-.555-168.78 76.603-168.78 169.433v78.509a127.373 127.373 0 0 1-38.833 91.567c-5.853 5.66-3.565 15.515 4.182 18.018l18.761 6.061c69.487 22.449 145.658 6.83 200.701-41.156l-47.767-98.947 51.861-55.592c.001.001 86.972-20.035 141.224-42.455z"/><path style="opacity:.08;enable-background:new" d="M74.234 462.847a127.373 127.373 0 0 0 38.833-91.567v-78.509c0-70.365 43.646-131.715 105.197-157.051-72.429 18.906-126.279 85.953-126.279 164.116v78.509a127.373 127.373 0 0 1-38.833 91.567c-5.853 5.66-3.565 15.515 4.182 18.018l18.761 6.061c46.592 15.053 96.181 12.965 140.398-4.494-38.554 10.637-80.004 10.13-119.316-2.57l-18.761-6.061c-7.748-2.504-10.034-12.359-4.182-18.019z"/><path style="opacity:.2;fill:#fff;enable-background:new" d="M260.764 130.402c-.141-.001-.281.003-.421.003a67.08 67.08 0 0 0-.755 10.046c0 36.78 29.816 66.596 66.596 66.596 21.724 0 41.014-10.406 53.17-26.502-30.211-30.724-72.162-49.866-118.59-50.143z"/><circle style="opacity:.2;fill:#fff;enable-background:new" cx="219.284" cy="206.235" r="24.216"/><path style="opacity:.08;enable-background:new" d="M422.113 255.84c-6.65-25.589-19.192-48.799-36.087-68.106-.826.74-1.618 1.534-2.335 2.432l-51.379 64.395a35.677 35.677 0 0 1-32.21 13.163L190.919 254.4c-12.696-1.549-24.022 8.042-24.585 20.82l-4.215 95.534a48.476 48.476 0 0 0 14.231 36.493l68.7 68.377a207.954 207.954 0 0 0 31.746-22.789l-47.767-98.947 51.861-55.592s86.971-20.036 141.223-42.456z"/><path style="fill:#fdd05f" d="m485.052 273.533-69.839 54.239a78.32 78.32 0 0 1-65.334 14.53l-48.243-10.923c-9.672-2.19-19.29 3.861-21.503 13.526l-5.988 26.149a24.231 24.231 0 0 0 3.822 19.38l63.99 90.679c6.116 8.667-.082 20.628-10.69 20.628h-27.821a29.245 29.245 0 0 1-20.627-8.515l-86.383-85.978a48.474 48.474 0 0 1-14.231-36.493l4.215-95.534c.564-12.778 11.89-22.369 24.585-20.82l109.183 13.325a35.677 35.677 0 0 0 32.21-13.163l51.379-64.395c7.369-9.235 21.086-10.128 29.589-1.925l53.492 51.604c9.782 9.435 8.928 25.349-1.806 33.686z"/><path style="opacity:.3;fill:#fff;enable-background:new" d="M433.366 188.241c-8.504-8.203-22.22-7.31-29.589 1.925l-3.727 4.672c2.433 25.79 24.14 45.971 50.566 45.971a50.559 50.559 0 0 0 28.31-8.616l-45.56-43.952z"/><path style="fill:#de2a4e" d="M76.425 182.279C116.546 119.29 185.019 81.685 259.588 81.685V18.698c0-6.093-5.069-10.96-11.157-10.727-45.955 1.766-91.021 14.405-130.987 36.826-38.596 21.651-72.009 52.101-97.203 88.482-3.466 5.005-2.073 11.891 3.061 15.162l53.123 33.838z"/><path style="opacity:.15;enable-background:new" d="m109.158 137.693-54.92-45.016a292.454 292.454 0 0 0-10.998 11.576l55.822 45.755c.479.393.997.695 1.529.959a217.302 217.302 0 0 1 10.617-10.716 7.92 7.92 0 0 0-2.05-2.558zm12.727-95.33a290.445 290.445 0 0 0-4.442 2.434 289.262 289.262 0 0 0-9.359 5.514l36.944 62.343c.24.406.52.77.816 1.116a214.132 214.132 0 0 1 13.582-7.704 7.983 7.983 0 0 0-.699-1.53l-36.842-62.173zm100.678 42.466-13.75-72.59-.003-.014a291.504 291.504 0 0 0-15.602 3.196l13.708 72.373c.02.105.049.205.073.309a216.934 216.934 0 0 1 15.576-3.256l-.002-.018z"/><path style="fill:#272f37" d="M90.63 181.452c36.945-53.229 95.983-85.658 160.628-88.229 4.66-.186 8.329-4.043 8.329-8.705V70.31c-78.476 0-150.535 39.574-192.756 105.858l11.982 7.632c3.934 2.506 9.159 1.483 11.817-2.348z"/><path d="m492.386 234.114-53.492-51.603a28.1 28.1 0 0 0-21.265-7.792 28.07 28.07 0 0 0-20.078 10.482l-1.58 1.98c-14.946-18.302-33.596-33.602-54.449-44.588-24.707-13.017-52.617-19.985-80.712-20.153-18.114-.091-35.849 2.617-52.737 7.908l-10.746-19.418c17.266-5.67 35.474-9.005 54.245-9.752 8.958-.356 15.974-7.675 15.974-16.661V18.698c0-5.128-2.035-9.91-5.731-13.468-3.7-3.56-8.557-5.41-13.694-5.216-47.141 1.811-93.677 14.895-134.576 37.839-39.48 22.148-74.009 53.577-99.851 90.892-2.92 4.216-3.969 9.306-2.956 14.335 1.015 5.031 3.957 9.319 8.284 12.076l43.525 27.725.004.003 11.982 7.632a16.687 16.687 0 0 0 8.985 2.634 16.58 16.58 0 0 0 13.652-7.158c12.762-18.388 28.169-34.136 45.539-46.917l10.929 19.749a180.788 180.788 0 0 0-16.866 14.805c-34.017 33.814-52.751 78.635-52.751 126.206v78.51c0 32.184-13.269 63.472-36.406 85.843-4.777 4.62-6.733 11.244-5.23 17.718 1.503 6.474 6.176 11.558 12.499 13.601l18.761 6.061c21.43 6.924 44.004 10.435 66.556 10.434 10.371 0 20.742-.743 30.988-2.238 30.144-4.397 59.426-15.326 85.105-31.704l20.905 20.807c7.02 6.987 16.34 10.835 26.244 10.835h27.821a20.974 20.974 0 0 0 18.686-11.362 20.974 20.974 0 0 0-1.491-21.819l-63.99-90.679a16.288 16.288 0 0 1-2.567-13.012l5.989-26.149c1.23-5.374 6.608-8.76 11.984-7.539l48.243 10.924c25.273 5.724 51.509-.111 71.976-16.006l69.84-54.239a30.259 30.259 0 0 0 11.663-22.293 30.255 30.255 0 0 0-9.211-23.414zM64.509 165.248l-36.93-23.523a2.755 2.755 0 0 1-1.228-1.792 2.745 2.745 0 0 1 .436-2.121c24.472-35.337 57.167-65.1 94.553-86.07 38.709-21.716 82.763-34.1 127.396-35.813a2.768 2.768 0 0 1 2.04.776c.317.305.849.97.849 1.993v43.787c-75.461 2.495-144.424 40.369-187.116 102.763zm19.581 11.664c-.216.309-.662.385-.999.173l-2.389-1.522-1.441-.917-1.319-.84c39.742-57.786 103.692-92.909 173.682-95.391v6.103c0 .398-.306.734-.683.75-32.944 1.311-65.524 10.334-94.218 26.096-28.691 15.758-53.808 38.425-72.633 65.548zm108.846-41.032a173.646 173.646 0 0 0-26.197 13.729l-10.778-19.475a194.319 194.319 0 0 1 26.295-13.553l10.68 19.299zm-24.043 358.126c-30.131 4.396-61.373 1.771-90.351-7.592l-18.761-6.062c-1.324-.428-1.747-1.467-1.882-2.049s-.212-1.702.788-2.669c26.221-25.354 41.261-60.816 41.261-97.292v-78.51c0-43.299 17.066-84.109 48.054-114.912 30.229-30.05 69.885-46.561 111.764-46.561.317 0 .637.001.953.003 25.917.155 50.607 6.318 73.386 18.317 19.985 10.529 37.739 25.423 51.68 43.271l-39.609 49.643c-5.955 7.463-15.546 11.379-25.021 10.225l-109.183-13.324a30.008 30.008 0 0 0-22.953 6.865 30 30 0 0 0-10.552 21.508l-4.215 95.534a56.547 56.547 0 0 0 16.569 42.487l53.882 53.629c-23.053 14.123-49.062 23.587-75.81 27.489zm311.275-226.761-69.84 54.239c-16.69 12.962-38.083 17.72-58.692 13.052l-48.243-10.924c-13.922-3.152-27.837 5.603-31.023 19.515l-5.989 26.149a32.24 32.24 0 0 0 5.078 25.749l63.99 90.679c1.621 2.297.794 4.478.363 5.309-.431.831-1.736 2.764-4.547 2.764h-27.821a21.139 21.139 0 0 1-15.009-6.197l-86.384-85.978a40.595 40.595 0 0 1-11.894-30.498l4.215-95.534c.174-3.939 1.926-7.51 4.934-10.057 2.56-2.168 5.701-3.315 8.992-3.315.576 0 1.157.035 1.741.106l109.183 13.324c14.929 1.824 30.021-4.348 39.398-16.101L410 195.132a11.948 11.948 0 0 1 8.662-4.523c3.44-.23 6.696.97 9.175 3.362l53.492 51.603a14.345 14.345 0 0 1 4.368 11.1 14.348 14.348 0 0 1-5.529 10.571z"/></svg>