<svg height="512" viewBox="0 0 60 60" width="512" xmlns="http://www.w3.org/2000/svg"><g fill-rule="nonzero" fill="none"><path d="M33.5 58.06a3.11 3.11 0 0 1-4.39 0l-4.51-4.43a3.1 3.1 0 0 1 0-4.38 3.11 3.11 0 0 1 4.39 0l4.47 4.48a3.1 3.1 0 0 1 .04 4.33z" fill="#ffe0b2"/><path d="M33.5 53.68 29 49.2a3.11 3.11 0 0 0-3.7-.51c.256.137.491.308.7.51l4.47 4.48a3.1 3.1 0 0 1 0 4.38c-.207.2-.439.37-.69.51a3.1 3.1 0 0 0 3.69-.51 3.1 3.1 0 0 0 .03-4.38z" fill="#dfc49c"/><path d="M37.93 53.63a3.11 3.11 0 0 1-4.39 0L29 49.2a3.11 3.11 0 0 1 0-4.39 3.11 3.11 0 0 1 4.39 0l4.47 4.48a3.1 3.1 0 0 1 .07 4.34z" fill="#ffe0b2"/><path d="m37.93 49.25-4.47-4.48a3.1 3.1 0 0 0-3.69-.51c.251.14.483.31.69.51l4.47 4.48a3.1 3.1 0 0 1 0 4.38c-.207.2-.439.37-.69.51a3.1 3.1 0 0 0 3.69-.51 3.1 3.1 0 0 0 0-4.38z" fill="#dfc49c"/><path d="M42.36 49.2a3.11 3.11 0 0 1-4.39 0l-4.47-4.48a3.11 3.11 0 0 1 0-4.39 3.11 3.11 0 0 1 4.39 0l4.47 4.47a3.11 3.11 0 0 1 0 4.4z" fill="#ffe0b2"/><path d="m42.36 44.81-4.47-4.47a3.1 3.1 0 0 0-3.69-.51c.251.14.483.31.69.51l4.47 4.47a3.11 3.11 0 0 1 0 4.39c-.207.2-.439.37-.69.51a3.1 3.1 0 0 0 3.69-.51 3.11 3.11 0 0 0 0-4.39z" fill="#dfc49c"/><path d="M46.79 44.77a3.09 3.09 0 0 1-4.39 0l-4.47-4.47a3.11 3.11 0 0 1 0-4.39 3.11 3.11 0 0 1 4.39 0l4.13 4.14.33.33a3.09 3.09 0 0 1 .01 4.39z" fill="#ffe0b2"/><path d="m46.79 40.38-.33-.33-4.13-4.14a3.1 3.1 0 0 0-3.69-.51c.251.14.483.31.69.51l4.13 4.14.33.33a3.09 3.09 0 0 1 0 4.39c-.207.2-.439.37-.69.51a3.07 3.07 0 0 0 3.69-.51 3.09 3.09 0 0 0 0-4.39z" fill="#dfc49c"/><path d="M38 25.49A3.58 3.58 0 0 1 31.9 28l-6.33-6.33-13 13-2.21 2.22-2.51-2.54a7.16 7.16 0 0 1 0-10.13L18 14.1a7.15 7.15 0 0 1 10.12 0L30 16l7 7a3.54 3.54 0 0 1 1 2.49z" fill="#ffe0b2"/><path d="m52.15 34.35-5.69 5.7-4.13-4.14a3.11 3.11 0 0 0-4.39 0 3.11 3.11 0 0 0 0 4.39 3.11 3.11 0 0 0-4.39 0 3.11 3.11 0 0 0 0 4.39 3.11 3.11 0 0 0-4.39 0 3.11 3.11 0 0 0 0 4.39 3.11 3.11 0 0 0-4.39 0l-.95 1-2.22 2.21a3.1 3.1 0 0 1-2.21.92A3.14 3.14 0 0 1 17 48a3.16 3.16 0 0 1-2.21.92 3.2 3.2 0 0 1-2.2-.92 3.15 3.15 0 0 1 0-4.44 3.07 3.07 0 0 1-2.21.93 3.15 3.15 0 0 1-2.22-5.36l2.22-2.21 2.21-2.22 13-13L31.9 28a3.58 3.58 0 1 0 5.1-5l-7-7 1.9-1.9a7.15 7.15 0 0 1 10.1 0l10.15 10.12a7.16 7.16 0 0 1 0 10.13z" fill="#ffe0b2"/><path d="M52.15 24.22 42 14.1a7.15 7.15 0 0 0-6.56-1.94A7.05 7.05 0 0 1 39 14.1l10.15 10.12a7.16 7.16 0 0 1 0 10.13L45 38.55l1.49 1.5 5.69-5.7a7.16 7.16 0 0 0-.03-10.13z" fill="#dfc49c"/><path d="M9.62 15.7a.79.79 0 0 1-1.24 0l-6.5-8.09a4.11 4.11 0 0 1-.79-3.41 4 4 0 0 1 3.08-3.12A4 4 0 0 1 9 5.07a4 4 0 0 1 7.91-.87 4.11 4.11 0 0 1-.79 3.41zM51.62 15.7a.79.79 0 0 1-1.24 0l-6.5-8.09a4.11 4.11 0 0 1-.79-3.41 4 4 0 0 1 7.91.87 4 4 0 0 1 7.91-.87 4.11 4.11 0 0 1-.79 3.41z" fill="#e91e63"/><path d="M58.91 4.2a4 4 0 0 0-5.41-2.9 4 4 0 0 1 2.41 2.9 4.11 4.11 0 0 1-.79 3.41l-5.62 7 .88 1.09a.79.79 0 0 0 1.24 0l6.5-8.09a4.11 4.11 0 0 0 .79-3.41z" fill="#ad1457"/><g fill="#000"><path d="M42.73 13.39a8.16 8.16 0 0 0-11.54 0L30 14.58l-1.19-1.19a8.16 8.16 0 0 0-11.54 0L7.14 23.52A8.15 8.15 0 0 0 7.13 35L9 36.88l-1.55 1.51a4.14 4.14 0 0 0 3.24 7 4.18 4.18 0 0 0 1.2 3.23 4.14 4.14 0 0 0 3.24 1.19 4.12 4.12 0 0 0 7.03 3.23l.66-.66c.181.72.55 1.38 1.07 1.91l4.48 4.47A4 4 0 0 0 31.25 60a4.22 4.22 0 0 0 3-1.24 4.07 4.07 0 0 0 1.2-2.9 3.16 3.16 0 0 0 0-.32h.3a4.22 4.22 0 0 0 3-1.24 4.07 4.07 0 0 0 1.2-2.9 3.16 3.16 0 0 0 0-.32h.3a4.22 4.22 0 0 0 3-1.24 4.07 4.07 0 0 0 1.2-2.9 3.16 3.16 0 0 0 0-.32h.3a4.21 4.21 0 0 0 3-1.23 4.07 4.07 0 0 0 .33-5.4l5-5a8.16 8.16 0 0 0 0-11.54zM8.57 33.66a6.14 6.14 0 0 1 0-8.7L18.68 14.8a6.17 6.17 0 0 1 8.71 0l8.86 8.87a2.56 2.56 0 0 1 0 3.64 2.57 2.57 0 0 1-3.64 0L26.28 21a1 1 0 0 0-1.42 0l-13 13-1.5 1.5zm24.84 22.21a2.13 2.13 0 0 1-.66 1.53 2.1 2.1 0 0 1-3 0l-4.45-4.48a2.1 2.1 0 0 1 0-2.94 2.09 2.09 0 0 1 3 0l4.48 4.47c.381.377.606.884.63 1.42zm4.43-4.43a2.13 2.13 0 0 1-.66 1.56 2.1 2.1 0 0 1-3 0l-4.48-4.48a2.12 2.12 0 0 1 0-3 2.11 2.11 0 0 1 3 0L37.23 50c.379.385.597.9.61 1.44zM42.27 47a2.13 2.13 0 0 1-.66 1.53 2.1 2.1 0 0 1-3 0l-4.47-4.48a2.06 2.06 0 0 1-.62-1.48 2.1 2.1 0 0 1 .62-1.49 2.09 2.09 0 0 1 3 0l4.48 4.47c.396.381.628.9.65 1.45zM46 44.11a2.1 2.1 0 0 1-3 0l-4.48-4.48a2.12 2.12 0 0 1 0-3 2.11 2.11 0 0 1 3 0L46 41.1a2.11 2.11 0 0 1-.05 3zm5.4-10.47-5 5L43 35.2a4.1 4.1 0 0 0-5.8 0 4.06 4.06 0 0 0-1.2 3.26h-.31a4.08 4.08 0 0 0-2.9 1.2 4.08 4.08 0 0 0-1.2 2.9v.31a4.06 4.06 0 0 0-3.21 1.17h-.05a4.06 4.06 0 0 0-1.17 3.21h-.31a4.08 4.08 0 0 0-2.9 1.2h-.05l-3.13 3.12a2.13 2.13 0 1 1-3-3l3.13-3.07a1 1 0 0 0 .29-.71 1 1 0 0 0-1-1 1 1 0 0 0-.74.34l-3.13 3.12a2.2 2.2 0 0 1-3 0 2.15 2.15 0 0 1 0-3l3.17-3.17a1 1 0 0 0-1.42-1.41l-3.17 3.17a2.18 2.18 0 0 1-3 0 2.14 2.14 0 0 1 0-3l2.2-2.2 14.47-14.53 5.62 5.62a4.582 4.582 0 0 0 6.48-6.48L31.41 16l1.2-1.2a6.17 6.17 0 0 1 8.71 0l10.12 10.13a6.14 6.14 0 0 1 0 8.71zM9 17a1.83 1.83 0 0 0 1.4-.67l6.5-8.09a5.13 5.13 0 0 0 1-4.24A5 5 0 0 0 14 .11a4.94 4.94 0 0 0-4.16 1A5 5 0 0 0 9 2a5 5 0 0 0-.87-.91A4.94 4.94 0 0 0 4 .11 5 5 0 0 0 .11 4a5.13 5.13 0 0 0 1 4.24l6.5 8.09c.342.417.85.662 1.39.67zM2.07 4.4a3 3 0 0 1 2.3-2.34C4.578 2.02 4.789 2 5 2a2.94 2.94 0 0 1 1.87.67A3.07 3.07 0 0 1 8 5.07a1 1 0 1 0 2 0 3.07 3.07 0 0 1 1.13-2.4 3 3 0 0 1 2.5-.61 3 3 0 0 1 2.3 2.34 3.13 3.13 0 0 1-.59 2.6L9 14.88 2.66 7a3.13 3.13 0 0 1-.59-2.6zM56 .11a4.93 4.93 0 0 0-4.16 1A5 5 0 0 0 51 2a5 5 0 0 0-.87-.91A4.94 4.94 0 0 0 46 .11 5 5 0 0 0 42.11 4a5.13 5.13 0 0 0 1 4.24l6.5 8.09a1.8 1.8 0 0 0 2.8 0l6.5-8.09a5.13 5.13 0 0 0 1-4.24A5 5 0 0 0 56 .11zM57.34 7 51 14.88 44.66 7a3.13 3.13 0 0 1-.59-2.59A3 3 0 0 1 47 2a2.94 2.94 0 0 1 1.87.67A3.07 3.07 0 0 1 50 5.07a1 1 0 0 0 2 0 3.07 3.07 0 0 1 1.13-2.4 3 3 0 0 1 2.5-.61 3 3 0 0 1 2.3 2.34 3.13 3.13 0 0 1-.59 2.6z"/></g></g></svg>