<svg xmlns="http://www.w3.org/2000/svg" version="1.1" xmlns:xlink="http://www.w3.org/1999/xlink" xmlns:svgjs="http://svgjs.com/svgjs" width="512" height="512" x="0" y="0" viewBox="0 0 512.001 512.001" style="enable-background:new 0 0 512 512" xml:space="preserve" class=""><g><g xmlns="http://www.w3.org/2000/svg"><g><path d="m90.613 447.64c-24.6 2.167-46.943-16.033-49.11-40.623-1.444-16.388 6.15-31.498 18.657-40.38 1.364-.968 1.759-2.852.785-4.211-15.289-21.325-4.576-57.677 18.539-72.041 1.773-1.102 1.977-3.609.34-4.905-18.444-14.606-21.788-47.236-3.671-63.784 1.366-1.248 1.332-3.425-.129-4.561-21.002-16.336-18.492-74.745 24.94-81.707 1.823-.292 2.962-2.19 2.346-3.931-10.728-30.331 12.102-58.867 43.165-60.416 1.487-.074 2.688-1.225 2.829-2.707 2.921-30.597 37.984-48.906 67.212-35.66 1.551.703 3.4.027 4.032-1.554 12.8-32.01 61.59-31.038 74.108-.121.638 1.576 2.48 2.252 4.028 1.55 2.204-.999 4.417-1.789 6.608-2.438 27.317-1.931 51.912 9.802 54.612 38.094.141 1.482 1.342 2.633 2.829 2.707 31.063 1.549 53.893 30.086 43.165 60.416-.614 1.735.502 3.638 2.316 3.95 22.71 3.896 38.993 24.631 36.936 47.975-1.259 14.289-6.654 26.419-17.373 33.645-1.632 1.1-1.811 3.428-.337 4.731 18.53 16.372 17.775 45.192.774 63.647-1.289 1.399-.937 3.63.705 4.591 23.406 13.695 27.049 51.109 10.88 72.887-1.008 1.358-.633 3.268.745 4.248 12.499 8.883 20.086 23.988 18.643 40.37-2.075 23.557-22.064 41.235-45.369 40.772z" fill="#ffc263" data-original="#ffc263" class=""></path><path d="m465.193 407.41c-2.08 23.56-22.07 41.24-45.37 40.77l-24.29-.04c21.97-1.06 40.32-18.21 42.3-40.73 1.45-16.38-6.14-31.49-18.64-40.37-1.38-.98-1.75-2.89-.74-4.25 16.16-21.78 12.52-59.19-10.88-72.88-1.65-.97-2-3.2-.71-4.6 17-18.45 17.76-47.27-.77-63.64-1.48-1.31-1.3-3.63.33-4.73 10.72-7.23 16.12-19.36 17.38-33.65 2.05-23.34-14.23-44.08-36.94-47.97-1.81-.31-2.93-2.22-2.32-3.95 10.73-30.33-12.1-58.87-43.16-60.42-1.49-.07-2.69-1.22-2.83-2.71-1.8-18.9-15.88-33.12-33.26-38.09 27.67-8.02 57.91 9.77 60.61 38.09.14 1.49 1.34 2.64 2.83 2.71 31.06 1.55 53.89 30.09 43.17 60.42-.62 1.73.5 3.64 2.31 3.95 22.71 3.89 38.99 24.63 36.94 47.97-1.26 14.29-6.66 26.42-17.37 33.65-1.64 1.1-1.82 3.42-.34 4.73 18.53 16.37 17.77 45.19.77 63.64-1.29 1.4-.93 3.63.71 4.6 23.4 13.69 27.05 51.1 10.88 72.88-1.01 1.36-.63 3.27.74 4.25 12.5 8.88 20.09 23.99 18.65 40.37z" fill="#ffaa5a" data-original="#ffaa5a"></path><path d="m85.896 466.265 6.432-8.294-1.715-10.331c6.108-14.246 18.174-25.237 33.483-29.88l9.477-2.87 33.377-6.423 157.66-5.432c6.062 1.168 21.929 7.336 29.972 3.83 35.154 8.661 61.85 22.432 68.163 50.135.205.9-2.391 10.607-2.229 11.536l5.463 6.629z" fill="#fdd0bf" data-original="#fdd0bf"></path><path d="m426.069 475.618-340.94-6.565 1.915-9.413c.73-4.19 1.93-8.21 3.57-12 12.12-1.83 23-8.1 31.28-16.39 4.9-4.91 8.89-10.53 11.68-16.36l21.17-6.42 182.21-5.44c6.06 1.17 11.96 2.44 17.63 3.83-.71 7.26 1.2 14.59 5.55 20.87 5.7 8.23 14.69 13.12 24.66 13.43 5.37.16 10.5 2.27 14.44 5.94 5.99 5.61 14.402 9.12 23.512 9.9.2.9.388 1.81.548 2.74z" fill="#fcc1ac" data-original="#fcc1ac"></path><path d="m432.374 477.194c-17.192 2.442-35.878-1.018-48.597-12.911-.736-.688-1.69-1.082-2.697-1.112-33.447-1.013-61.67-39.101-51.2-69.835.73-2.144-.501-4.461-2.675-5.093l-26.681-9.683h-92.714l-48.866 14.709c-1.681.506-2.821 2.049-2.84 3.805-.389 36.426-38.353 73.322-79.81 68.734-2.117-.234-4.059 1.183-4.423 3.281l-5.341 30.727c-.425 2.446 1.458 4.685 3.941 4.685h356.231l9.731-2.197c2.483 0 4.366-2.239 3.941-4.685l-3.442-17.159c-.373-2.152-2.397-3.573-4.558-3.266z" fill="#857e87" data-original="#857e87"></path><path d="m439.853 504.5h-13.15c-24.254-3.666-42.241-13.458-48.769-23.723-.792-1.245-2.035-2.147-3.495-2.364-18.812-2.785-35.463-13.083-46.526-29.033-6.94-10.02-11.04-21.58-12.12-33.41-1.04-11.48-2.4-22.93-4.47-34.27l25.06 7.29c2.17.63 3.4 2.95 2.67 5.09-10.47 30.73 11.75 64.05 45.19 65.07 1.01.03 1.97.42 2.7 1.11 12.72 11.89 31.28 16.74 48.47 14.3 2.16-.31 4.18 1.11 4.56 3.26l3.82 21.99c.43 2.45-1.46 4.69-3.94 4.69z" fill="#766e7a" data-original="#766e7a"></path><path d="m304.563 326.795 7.55 57.834c2.913 17.122-7.676 33.943-24.791 38.469-10.959 2.898-22.986.086-31.215-6.594-.715-.581-1.737-.574-2.461-.003-3.819 3.012-8.97 5.307-13.849 6.597-18.122 4.793-36.698-6.013-41.491-24.135-2.469-9.336-.856-8.21 4.891-58.036l2.356-20.249z" fill="#fdd0bf" data-original="#fdd0bf"></path><path d="m368.86 200.837h16.496c10.885 0 19.709 8.824 19.709 19.709 0 26.668-21.619 48.287-48.287 48.287h-203.987c-26.668 0-48.287-21.619-48.287-48.287 0-10.885 8.824-19.709 19.709-19.709h18.467z" fill="#fdd0bf" data-original="#fdd0bf"></path><path d="m336.104 307.892c-28.926 37.995-69.747 53.079-81.319 53.079-15.274 0-66.793-24.291-86.827-60.605-15.412-27.928-24.587-62.97-25.277-99.53 12.939-.049 23.414-19.591 23.414-43.685 0-2.281-.094-4.517-.274-6.698-.124-1.502.888-2.834 2.357-3.171 11.483-2.636 20.808-10.922 24.909-21.771.475-1.256 1.709-2.047 3.048-1.939 10.547.851 21.133-3.006 28.699-10.914 1.095-1.144 2.858-1.265 4.093-.273 15.242 12.239 37.137 12.099 52.233-.416 1.252-1.038 3.065-.913 4.172.278 7.463 8.039 18.174 12.21 29.096 11.324 1.336-.108 2.568.686 3.042 1.939 4.101 10.85 13.426 19.135 24.909 21.771 1.461.335 2.483 1.66 2.358 3.154-2.114 25.426 8.245 50.399 23.188 50.399h.944c-1.393 70.764-32.811 107.158-32.765 107.058z" fill="#fedecf" data-original="#fedecf" class=""></path></g><g><path d="m474.368 189.792-15.922-4.187c.236-2.261.35-3.092.362-7.391-.087-4.14-3.473-7.442-7.656-7.34-4.141.087-7.428 3.515-7.34 7.656.029 1.399-.015 2.78-.131 4.104-1.285 14.59-6.987 24.607-16.947 29.776-2.312 1.199-3.835 3.512-4.025 6.108-.191 2.597.979 5.106 3.09 6.63 8.257 5.961 13.153 14.945 13.786 25.299.721 11.78-4.233 23.803-13.252 32.16-1.847 1.711-2.711 4.234-2.303 6.718s2.036 4.598 4.333 5.627c12.639 5.665 17.115 18.168 18.658 25.116 3.222 14.503-.26 30.315-8.868 40.285-1.442 1.671-2.076 3.893-1.731 6.073.346 2.181 1.634 4.099 3.521 5.242 12.219 7.404 19.03 20.847 17.776 35.083-1.577 17.905-15.802 31.97-33.268 33.746-13.961-25.397-46.095-36.47-78.501-43.301.43-1.348.912-2.686 1.485-4 .862-1.98.83-4.236-.091-6.19-.92-1.954-2.638-3.417-4.714-4.014l-24.221-6.962c-1.03-9.61-1.594-16.249-3.782-35.63 3.91-3.12 7.796-6.5 11.59-10.165 2.979-2.878 3.062-7.626.184-10.605-2.879-2.98-7.627-3.062-10.605-.184-25.087 24.234-53.421 34.024-61.01 34.024-12.206 0-61.602-22.908-80.262-56.729-14.153-25.646-22.643-57.353-24.144-89.894 14.505-5.409 24.315-28.844 23.144-53.28 11.095-3.644 20.314-11.786 25.3-22.388h.103c10.424 0 20.584-3.802 28.458-10.618 16.684 11.314 38.825 11.156 55.351-.376 7.926 7.06 18.227 10.998 28.855 10.998h.145c4.986 10.6 14.207 18.742 25.301 22.385-.704 18.163 4.309 36.075 13.194 46.068 3.264 3.67 6.968 6.225 10.934 7.575-1.707 36.828-11.75 63.21-20.121 79.14-1.928 3.667-.517 8.201 3.149 10.128 3.666 1.929 8.2.516 10.128-3.149 2.555-4.861 5.252-10.622 7.852-17.257 28.231-2.676 50.395-26.554 50.395-55.528 0-15.003-12.206-27.209-27.209-27.209-1.025-.011-17.433 0-17.433 0-2.139 0-4.321-1.233-6.484-3.667-6.062-6.817-11.097-23.095-8.989-41.014.474-4.021-2.331-7.691-6.335-8.293-10.428-1.565-19.148-9.113-22.218-19.229-1.077-3.551-4.595-5.783-8.262-5.243-9.99 1.463-20.09-2.577-26.344-10.544-1.308-1.665-3.258-2.7-5.369-2.85-2.12-.147-4.188.602-5.718 2.064-12.896 12.35-33.269 12.54-46.377.431-1.521-1.404-3.559-2.12-5.617-1.973-2.064.146-3.978 1.139-5.285 2.743-6.354 7.794-16.078 11.576-26.005 10.128-3.655-.539-7.184 1.69-8.262 5.243-3.07 10.116-11.792 17.664-22.22 19.229-4.005.602-6.81 4.273-6.335 8.295.325 2.761.49 5.618.49 8.494 0 20.344-8.57 36.156-15.943 36.185h-18.438c-15.003 0-27.209 12.206-27.209 27.209 0 14.874 6.095 28.92 17.16 39.552 9.579 9.203 21.73 14.767 34.672 15.979 3.551 9.82 7.74 19.191 12.553 27.912 8.084 14.653 20.679 27.31 34.197 37.44-1.726 14.882-3.174 25.913-4.241 33.962l-37.505 11.582c-3.264 1.008-5.435 4.094-5.279 7.507.122 2.681-.014 5.403-.371 8.137l-26.271 7.967c-15.863 4.81-28.679 15.593-36.118 29.708-8.657-.042-16.952-3.058-23.668-8.686-7.613-6.382-12.287-15.349-13.159-25.247-1.254-14.236 5.558-27.68 17.775-35.083 1.888-1.144 3.176-3.062 3.521-5.242.345-2.181-.289-4.402-1.731-6.073-6.521-7.552-8.773-18.966-6.181-31.317 3.13-14.908 12.75-28.161 24.509-33.765 2.5-1.191 4.141-3.664 4.266-6.431.126-2.767-1.284-5.377-3.666-6.79-6.028-3.576-10.828-9.748-13.515-17.378-1.376-3.907-5.656-5.959-9.565-4.583-3.907 1.376-5.959 5.658-4.583 9.565 2.453 6.965 6.223 13.136 10.973 18.086-7.426 5.829-13.622 13.774-17.937 22.906l-10.444-4.3c-3.831-1.574-8.214.251-9.791 4.08-1.576 3.83.25 8.214 4.08 9.791l11.251 4.632c-3.177 12.804-1.447 28.364 4.543 38.624-13.014 10.85-19.97 27.305-18.446 44.594 1.223 13.89 7.781 26.471 18.465 35.426 8.027 6.729 17.665 10.794 27.852 11.888-.016-.19-2.062 10.443-2.272 11.514-2.827.436-5.637.67-8.406.67-3.761 0-6.94 2.786-7.435 6.514l-3.955 29.827c-.545 4.106 2.343 7.877 6.448 8.421.335.045.667.066.996.066 3.703 0 6.925-2.743 7.425-6.515l3.135-23.638c14.662-1.423 29.71-7.498 43.015-17.462 3.315-2.482 3.99-7.184 1.507-10.499-2.482-3.314-7.183-3.99-10.499-1.507-5.125 3.838-10.526 6.969-16.027 9.357 2.512-16.856 15.246-31.802 31.992-36.8l16.598-5.034c-1.908 3.902-4.27 7.721-7.069 11.379-2.517 3.29-1.89 7.997 1.399 10.515 1.36 1.04 2.963 1.543 4.552 1.543 2.256 0 4.486-1.013 5.963-2.942 9.573-12.514 15.074-26.769 15.807-40.716l26.159-8.078c-.015 3.224.423 5.69 1.371 9.276 2.831 10.701 9.659 19.66 19.227 25.226 6.413 3.73 13.543 5.638 20.77 5.638 3.556 0 7.135-.461 10.663-1.395 4.735-1.252 9.268-3.186 13.09-5.539 9.923 6.422 22.831 8.607 34.437 5.539 17.979-4.755 30.114-20.4 30.825-38.234l10.816 3.109c-4.135 15.463-1.536 32.064 7.448 45.779 10.038 15.323 26.641 24.76 44.81 25.606 13.15 11.768 31.554 17.508 50.013 15.772l4.07 23.403c.634 3.646 3.802 6.216 7.38 6.216.427 0 .859-.036 1.294-.112 4.081-.709 6.813-4.593 6.104-8.674l-5.324-30.619c-.348-2.003-1.495-3.779-3.178-4.921-1.684-1.143-3.761-1.553-5.747-1.135-1.833.383-3.673.65-5.512.842l-1.552-8.925c-.213-1.227-.464-2.427-.741-3.606 22.664-4.11 40.624-23.038 42.716-46.783 1.519-17.237-5.392-33.646-18.331-44.497 8.153-13.173 10.97-30.389 7.335-46.755-2.841-12.786-9.428-23.447-18.579-30.435 8.064-10.593 12.269-23.806 11.471-36.851-.695-11.375-4.981-21.619-12.281-29.675 5.789-5.063 10.132-11.657 12.934-19.594l15.345 4.035c.639.169 1.28.249 1.912.249 3.325 0 6.363-2.228 7.248-5.595 1.048-4.001-1.345-8.102-5.351-9.155zm-98.247 18.545h9.235c6.732 0 12.209 5.477 12.209 12.209 0 18.738-12.672 34.555-29.872 39.314 4.185-14.323 7.463-31.509 8.428-51.523zm-264.116 12.209c0-6.732 5.477-12.209 12.209-12.209h11.225c.876 17.682 3.708 35.142 8.282 51.659-18-4.642-31.716-20.828-31.716-39.45zm173.399 195.301c-8.741 2.31-18.987-.083-25.496-5.958-2.859-2.581-7.207-2.576-10.061.009-2.718 2.462-7.192 4.687-11.97 5.949-14.09 3.731-28.594-4.706-32.322-18.802-1.051-3.971-1.249-4.726-.029-14.38 1.077-8.334 2.466-18.542 4.05-31.786 18.566 11.279 36.59 17.593 45.208 17.593 8.889 0 26.754-5.825 45.863-18.054 1.979 16.964 1.94 22.349 4.072 35.468 2.307 13.558-5.997 26.438-19.315 29.961zm106.062 38.003c-1.504-1.499-3.58-2.295-5.677-2.178-14.331-.009-27.054-6.892-34.913-18.889-4.124-6.296-6.404-13.414-6.817-20.635 39.082 8.494 60.573 20.479 68.728 38.622 1.788 3.443 3.388 10.947 4.125 16.028-9.723-1.78-18.685-6.211-25.446-12.948z" fill="#000000" data-original="#000000" class=""></path><path d="m296.443 229.026c4.143 0 7.5-3.357 7.5-7.5v-16.725c1.803.195 3.418.267 4.75.267 1.099 0 2.013-.044 2.699-.095 3.549-.146 6.597-2.808 7.108-6.45.576-4.103-2.281-7.895-6.383-8.471-.825-.116-1.449-.069-1.822-.038-2.896.224-12.97.326-21.262-7.781-2.963-2.897-7.712-2.843-10.605.119-2.896 2.961-2.843 7.709.119 10.605 3.355 3.281 6.904 5.688 10.396 7.452v21.116c0 4.144 3.358 7.501 7.5 7.501z" fill="#000000" data-original="#000000" class=""></path><path d="m221.383 221.526v-21.116c3.491-1.764 7.04-4.171 10.396-7.452 2.962-2.896 3.015-7.645.119-10.605-2.896-2.961-7.645-3.016-10.605-.119-8.293 8.108-18.366 8.006-21.262 7.781-.372-.03-.999-.077-1.825.038-4.102.579-6.957 4.373-6.379 8.475.514 3.639 3.559 6.298 7.104 6.446.68.052 1.604.098 2.726.098 1.322 0 2.93-.072 4.728-.267v16.722c0 4.143 3.357 7.5 7.5 7.5s7.498-3.358 7.498-7.501z" fill="#000000" data-original="#000000" class=""></path><path d="m262.083 245.616c-1.124.316-1.887.818-2.175 1.008-1.813 1.194-6.589 3.588-11.736.037-3.409-2.349-8.081-1.491-10.433 1.917-2.351 3.41-1.493 8.081 1.917 10.433 4.688 3.232 9.545 4.51 14.109 4.51 5.431 0 10.446-1.81 14.265-4.285 2.796-1.708 4.235-5.123 3.305-8.432-1.123-3.988-5.27-6.305-9.252-5.188z" fill="#000000" data-original="#000000" class=""></path><path d="m231.674 299.431c6.003-3.588 25.769-10.564 44.872.11 1.158.646 2.413.953 3.651.953 2.629 0 5.181-1.385 6.555-3.843 2.02-3.616.727-8.186-2.89-10.206-24.41-13.639-49.847-5.892-59.886.11-3.555 2.125-4.714 6.73-2.589 10.286s6.731 4.716 10.287 2.59z" fill="#000000" data-original="#000000" class=""></path><path d="m61.869 228.375c-1.876 3.693-.403 8.207 3.29 10.083 1.089.553 2.248.815 3.391.815 2.734 0 5.37-1.501 6.692-4.105 2.046-4.027 4.864-7.354 8.377-9.891 2.111-1.523 3.281-4.034 3.09-6.63-.19-2.597-1.714-4.909-4.025-6.108-9.29-4.82-14.212-22.06-10.972-38.429 1.738-8.785 8.496-29.457 33.63-31.671 2.405-.212 4.562-1.568 5.793-3.646s1.388-4.62.419-6.833c-5.321-12.157-4.462-24.648 2.42-35.172 7.481-11.443 20.626-18.274 35.161-18.274 4.043 0 7.358-3.205 7.496-7.246.419-12.377 7.188-23.236 18.571-29.792 12.677-7.304 27.906-7.561 40.738-.688 1.975 1.059 4.317 1.177 6.388.327s3.655-2.58 4.317-4.719c4.887-15.775 19.09-21.396 30.752-21.396 11.339 0 26.305 5.57 31.167 21.268.662 2.139 2.246 3.869 4.317 4.719 2.069.85 4.413.729 6.388-.327 11.131-5.962 24.065-6.549 35.575-1.834 12.011 4.449 23.566 17.572 23.736 32.314.138 4.041 3.453 7.246 7.496 7.246 14.534 0 27.679 6.831 35.16 18.273 6.882 10.524 7.741 23.017 2.42 35.174-.969 2.213-.812 4.756.419 6.833s3.388 3.435 5.794 3.646c6.822.601 13.325 3.055 18.806 7.098 3.335 2.459 8.03 1.749 10.488-1.584 2.458-3.334 1.749-8.029-1.584-10.488-5.171-3.813-10.985-6.62-17.146-8.308 3.566-14.055 1.289-28.449-6.643-40.579-9.066-13.865-24.044-22.794-40.937-24.688-.976-5.539-2.895-10.829-5.638-15.695l12.502-6.642c3.658-1.943 5.048-6.484 3.104-10.142-1.942-3.657-6.482-5.048-10.142-3.104l-14.855 7.892c-2.877-2.737-6.099-5.19-9.639-7.298l8.517-14.922c2.054-3.598.802-8.179-2.796-10.231-3.596-2.053-8.178-.801-10.231 2.796l-9.358 16.397c-11.377-3.205-23.442-2.803-34.64 1.273-7.877-14.863-23.68-24.087-42.28-24.087-18.371 0-34.029 9.273-41.881 24.208-15.659-5.696-33.015-4.248-47.802 4.271-13.639 7.855-22.778 20.774-25.358 35.413-4.398.493-8.661 1.473-12.729 2.883l-6.694-11.73c-2.053-3.597-6.633-4.852-10.231-2.796-3.598 2.053-4.85 6.634-2.796 10.231l6.299 11.036c-4.616 3.159-8.725 7.017-12.192 11.47l-11.99-6.37c-3.658-1.943-8.198-.554-10.142 3.104s-.554 8.198 3.104 10.142l11.569 6.146c-3.827 9.811-4.454 20.529-1.801 31.06-19.589 5.029-33.423 20.232-37.757 42.129-3.706 18.724.825 37.627 10.742 48.408-2.275 2.629-4.238 5.558-5.869 8.77z" fill="#000000" data-original="#000000" class=""></path><circle cx="272.738" cy="154.064" r="7.5" fill="#000000" data-original="#000000" class=""></circle><circle cx="210.182" cy="261.55" r="7.5" fill="#000000" data-original="#000000" class=""></circle><circle cx="317.163" cy="264.359" r="7.5" fill="#000000" data-original="#000000" class=""></circle><circle cx="183.562" cy="249.273" r="7.5" fill="#000000" data-original="#000000" class=""></circle></g></g></g></svg>