<svg height="512" viewBox="0 0 60 61" width="512" xmlns="http://www.w3.org/2000/svg"><g fill-rule="nonzero" fill="none"><path d="M12.63 48H4l4.1-6.93c1.529.194 3 .705 4.32 1.5.524 1.764.596 3.631.21 5.43z" fill="#ff9801"/><path d="M47.58 42.57a10.982 10.982 0 0 0-.21 5.43H12.63a10.982 10.982 0 0 0-.21-5.43 11.06 11.06 0 0 0-4.32-1.5l17.7-29.96A11.082 11.082 0 0 0 30 14a11.082 11.082 0 0 0 4.2-2.89l17.7 29.96c-1.529.194-3 .705-4.32 1.5z" fill="#ffdc00"/><path d="M51.9 41.07 34.2 11.11c-.59.65-1.259 1.224-1.99 1.71L48.9 41.07c-1.529.194-3 .705-4.32 1.5a10.982 10.982 0 0 0-.21 5.43h3a10.982 10.982 0 0 1 .21-5.43 11.06 11.06 0 0 1 4.32-1.5zM27 14c.516-.21 1.017-.454 1.5-.733a10.778 10.778 0 0 1-2.7-2.157l-1.01 1.71A11.7 11.7 0 0 0 27 14z" fill="#fec108"/><path d="M34.2 11.11A11.082 11.082 0 0 1 30 14a11.082 11.082 0 0 1-4.2-2.89L30 4zM56 48h-8.63a10.982 10.982 0 0 1 .21-5.43 11.06 11.06 0 0 1 4.32-1.5z" fill="#ff9801"/><path d="M43.74 34.66 43 34a21.079 21.079 0 0 0-8.74-3.61 23.461 23.461 0 0 0-8.52 0A21.079 21.079 0 0 0 17 34l-.99.11a.942.942 0 0 1 .25-.77C17.99 31.43 23.49 26 30 26s12.01 5.43 13.74 7.34c.35.37.35.95 0 1.32z" fill="#ffe0b2"/><path d="M43.74 34.66C42.01 36.57 36.51 42 30 42s-12.01-5.43-13.74-7.34a.927.927 0 0 1-.25-.55L17 34a21.079 21.079 0 0 1 8.74-3.61A4.935 4.935 0 0 0 25 33a5 5 0 0 0 10 0 4.935 4.935 0 0 0-.74-2.61c3.15.526 6.138 1.76 8.74 3.61z" fill="#f5f5f5"/><path d="M35 33a5 5 0 0 1-10 0 4.935 4.935 0 0 1 .74-2.61c2.816-.52 5.704-.52 8.52 0 .486.784.742 1.688.74 2.61z" fill="#0377bc"/><g fill="#000"><path d="M56.868 48.5a1 1 0 0 0-.007-1.005l-26-44a1.041 1.041 0 0 0-1.722 0l-26 44A1 1 0 0 0 4 49h52a1 1 0 0 0 .868-.5zm-10.25-6.2a12.247 12.247 0 0 0-.413 4.7H13.8a12.247 12.247 0 0 0-.413-4.7 1 1 0 0 0-.455-.589 12.526 12.526 0 0 0-3.251-1.347l16.327-27.642a12.419 12.419 0 0 0 3.619 2.206 1 1 0 0 0 .746 0 12.419 12.419 0 0 0 3.619-2.206l16.332 27.639a12.526 12.526 0 0 0-3.251 1.347 1 1 0 0 0-.455.592zM30 5.966l2.946 4.986A10.163 10.163 0 0 1 30 12.915a10.163 10.163 0 0 1-2.946-1.963zM8.607 42.17c1.034.2 2.031.558 2.955 1.063.309 1.23.382 2.509.216 3.767H5.753zM48.222 47a10.066 10.066 0 0 1 .216-3.767c.924-.505 1.92-.864 2.955-1.063L54.247 47z"/><path d="M44.486 32.67C42.4 30.364 36.8 25 30 25s-12.395 5.364-14.486 7.671a1.973 1.973 0 0 0 0 2.659C17.605 37.636 23.2 43 30 43s12.4-5.364 14.486-7.671a1.972 1.972 0 0 0 0-2.658zm-4.663-1.627a24.635 24.635 0 0 0-19.643 0C22.651 29.076 26.167 27 30 27s7.352 2.077 9.823 4.043zM34 33a4 4 0 1 1-7.611-1.7 22.027 22.027 0 0 1 7.222 0c.254.53.387 1.112.389 1.7zm-17 1.006.084.1-.091-.1zM30 41c-5.435 0-10.231-4.17-12.313-6.266a20.21 20.21 0 0 1 6.452-2.951 6 6 0 1 0 11.722 0 20.213 20.213 0 0 1 6.439 2.943C40.215 36.845 35.426 41 30 41zM6.877 18a1 1 0 0 0 .361 1.367l6.915 4.023a1 1 0 1 0 1.006-1.728l-6.915-4.024A1 1 0 0 0 6.877 18zM11.717 13.683a1 1 0 0 0 .132 1.408l4.683 3.882a1 1 0 0 0 1.276-1.54l-4.684-3.882a1 1 0 0 0-1.407.132zM15.752 8.85a1 1 0 0 0-.172 1.4l3.32 4.25a1 1 0 0 0 1.577-1.232l-3.321-4.246a1 1 0 0 0-1.404-.172zM19.2 4.982a1 1 0 0 0-.288 1.385l2.451 3.74a1 1 0 1 0 1.672-1.1l-2.451-3.74a1 1 0 0 0-1.384-.285zM24.714 6.237a.986.986 0 0 0 .439-.1A1 1 0 0 0 25.61 4.8l-1.587-3.24a1 1 0 1 0-1.794.88l1.586 3.237a1 1 0 0 0 .899.56zM5.517 24.34a1 1 0 0 0 .583 1.289l5.689 2.153a1 1 0 1 0 .707-1.87l-5.69-2.153a1 1 0 0 0-1.289.581zM3.311 30.237a1 1 0 0 0 .843 1.135l5.327.786a1 1 0 0 0 .291-1.979l-5.327-.785a1 1 0 0 0-1.134.843zM1.651 35.145a1 1 0 0 0 .935 1.061l4.464.282h.064a1 1 0 0 0 .063-2l-4.464-.283a1 1 0 0 0-1.062.94zM1 41.032h.063l3.6-.22a1 1 0 0 0 .937-1.061.989.989 0 0 0-1.06-.937l-3.6.22a1 1 0 0 0 .061 2zM51.756 17.638l-6.915 4.023a1 1 0 1 0 1.006 1.728l6.915-4.023a1 1 0 0 0-1.006-1.728zM46.876 13.551l-4.684 3.882a1 1 0 1 0 1.276 1.54l4.683-3.882a1 1 0 0 0-1.275-1.54zM42.844 9.022l-3.317 4.243A1 1 0 0 0 41.1 14.5l3.32-4.246a1 1 0 0 0-1.576-1.232zM40.8 4.982a1 1 0 0 0-1.384.289l-2.451 3.74a1 1 0 1 0 1.672 1.1l2.451-3.74a1 1 0 0 0-.288-1.389zM37.314 1.1a1 1 0 0 0-1.337.46L34.39 4.8a1 1 0 1 0 1.796.878l1.585-3.238a1 1 0 0 0-.457-1.34zM53.194 23.759l-5.689 2.153a1 1 0 1 0 .707 1.87l5.688-2.153a1 1 0 1 0-.707-1.87zM55.555 29.394l-5.327.785a1 1 0 0 0 .291 1.979l5.327-.786a1 1 0 0 0-.291-1.978zM51.889 35.553a1 1 0 0 0 1 .937h.064l4.464-.282a1.002 1.002 0 0 0-.127-2l-4.464.283a1 1 0 0 0-.937 1.062zM59 41.032a1 1 0 0 0 .061-2l-3.6-.22a.989.989 0 0 0-1.06.937 1 1 0 0 0 .937 1.059l3.6.22a.334.334 0 0 0 .062.004zM30 51.029a1 1 0 0 0-1 1L29.014 60a1 1 0 0 0 2 0L31 52.027a1 1 0 0 0-1-.998zM34.836 51.036a1 1 0 0 0-.82 1.152l1.008 5.977a1 1 0 0 0 1.804.414 1 1 0 0 0 .172-.747l-1.009-5.977a1 1 0 0 0-1.155-.819zM39.628 51.087a1 1 0 0 0-.554 1.3l2.007 4.979a1 1 0 0 0 1.856-.747l-2.007-4.978a1 1 0 0 0-1.302-.554zM44.552 51.114a1 1 0 0 0-.444 1.343l2.006 3.983a1 1 0 0 0 1.787-.9L45.9 51.558a1 1 0 0 0-1.348-.444zM49.444 51.169a1 1 0 0 0-.272 1.388l2 2.986a1 1 0 1 0 1.66-1.114l-2-2.986a1 1 0 0 0-1.388-.274zM24.016 51.873l-.992 5.98a1 1 0 0 0 .988 1.161A1 1 0 0 0 25 58.18l.991-5.98a1 1 0 1 0-1.972-.327zM19.073 51.672l-1.993 4.985a1 1 0 1 0 1.858.742l1.993-4.984a1 1 0 0 0-1.858-.743zM14.107 51.6l-1.994 3.988a1 1 0 1 0 1.789.894L15.9 52.5a1 1 0 1 0-1.789-.894zM9.17 51.5l-2 2.993a1 1 0 0 0 1.664 1.11l2-2.992A1 1 0 0 0 9.17 51.5z"/></g></g></svg>