<svg height="512" viewBox="0 0 64 64" width="512" xmlns="http://www.w3.org/2000/svg"><path d="M37 35h3c6.075 0 11 4.925 11 11v4H13v-4c0-6.075 4.925-11 11-11h3l5 5z" fill="#8892a0"/><path d="M20.5 48c9.84 0 18.263-5.278 21.764-12.764A11.04 11.04 0 0 0 40 35h-3l-5 5-5-5h-3c-6.075 0-11 4.925-11 11v.927A26.594 26.594 0 0 0 20.5 48z" fill="#b8bec6"/><path d="m44.879 4.879-.757-.757A7.243 7.243 0 0 0 39 2H25a7.242 7.242 0 0 0-5.121 2.121l-.757.757a7.243 7.243 0 0 0-.001 10.243L21 17v-2h8a7.064 7.064 0 0 0 6.058-3.43L36 10l.942 1.57A7.064 7.064 0 0 0 43 15v2l1.879-1.879a7.242 7.242 0 0 0 0-10.242z" fill="#815643"/><path d="M37.867 2H25a7.242 7.242 0 0 0-5.121 2.121l-.757.757A7.243 7.243 0 0 0 17 10c0 .154.013.307.023.46C19.078 11.434 21.456 12 24 12c7.112 0 12.971-4.359 13.867-10z" fill="#9a7869"/><path d="M32 31c-6.075 0-11-4.925-11-11v-5h8a7.064 7.064 0 0 0 6.058-3.43L36 10l.942 1.57A7.064 7.064 0 0 0 43 15v5c0 6.075-4.925 11-11 11z" fill="#f2cbae"/><path d="M32 31c-1.802 0-3.499-.442-5-1.21V35l5 5 5-5v-5.21A10.944 10.944 0 0 1 32 31zM21 20v-3h-1a3 3 0 1 0 0 6h1.425A10.965 10.965 0 0 1 21 20zM44 17h-1v3c0 1.041-.154 2.045-.425 3H44a3 3 0 1 0 0-6z" fill="#f2cbae"/><path d="M40.485 27A10.955 10.955 0 0 0 43 20H21c0 2.659.944 5.098 2.515 7z" fill="#4d5d7a"/><path d="M54 54H10a2 2 0 1 1 0-4h44a2 2 0 1 1 0 4zM54 58H10a2 2 0 1 1 0-4h44a2 2 0 1 1 0 4zM54 62H10a2 2 0 1 1 0-4h44a2 2 0 1 1 0 4z" fill="#976947"/><path d="M52 50h-2v-4c0-5.514-4.486-10-10-10h-3v-2h3c6.617 0 12 5.383 12 12zM14 50h-2v-4c0-6.617 5.383-12 12-12h3v2h-3c-5.514 0-10 4.486-10 10zM32 32c-6.617 0-12-5.383-12-12v-5a1 1 0 0 1 1-1h8a6.095 6.095 0 0 0 5.2-2.944l.942-1.57c.361-.603 1.354-.603 1.715 0l.942 1.57A6.098 6.098 0 0 0 43 14a1 1 0 0 1 1 1v5c0 6.617-5.383 12-12 12zM22 16v4c0 5.514 4.486 10 10 10s10-4.486 10-10v-4.063a8.108 8.108 0 0 1-5.915-3.853L36 11.943l-.085.142A8.104 8.104 0 0 1 29 16z"/><path d="M44 24h-1v-2h1c1.103 0 2-.897 2-2s-.897-2-2-2h-1a1 1 0 0 1-.707-1.707l1.879-1.879A6.2 6.2 0 0 0 46 10a6.2 6.2 0 0 0-1.828-4.414l-.758-.758A6.204 6.204 0 0 0 39 3H25a6.204 6.204 0 0 0-4.414 1.828l-.758.758A6.2 6.2 0 0 0 18 10a6.2 6.2 0 0 0 1.828 4.414l1.879 1.879A1 1 0 0 1 21 18h-1c-1.103 0-2 .897-2 2s.897 2 2 2h1v2h-1c-2.206 0-4-1.794-4-4a4.008 4.008 0 0 1 2.777-3.809l-.363-.363C16.857 14.272 16 12.202 16 10s.857-4.272 2.414-5.828l.758-.758A8.188 8.188 0 0 1 25 1h14c2.201 0 4.271.857 5.828 2.414l.758.758C47.143 5.728 48 7.798 48 10s-.857 4.272-2.414 5.828l-.363.363A4.008 4.008 0 0 1 48 20c0 2.206-1.794 4-4 4zM54 63H10c-1.654 0-3-1.346-3-3s1.346-3 3-3h44c1.654 0 3 1.346 3 3s-1.346 3-3 3zm-44-4a1.001 1.001 0 0 0 0 2h44a1.001 1.001 0 0 0 0-2z"/><path d="M54 59H10c-1.654 0-3-1.346-3-3s1.346-3 3-3h44c1.654 0 3 1.346 3 3s-1.346 3-3 3zm-44-4a1.001 1.001 0 0 0 0 2h44a1.001 1.001 0 0 0 0-2z"/><path d="M54 55H10c-1.654 0-3-1.346-3-3s1.346-3 3-3h44c1.654 0 3 1.346 3 3s-1.346 3-3 3zm-44-4a1.001 1.001 0 0 0 0 2h44a1.001 1.001 0 0 0 0-2zM11.286 58.703l1.414-1.414 4 4-1.415 1.413zM17.285 58.704l1.414-1.414 4 4-1.415 1.413zM23.285 58.704l1.414-1.414 4 4-1.415 1.413zM29.284 58.705l1.414-1.414 4 4-1.415 1.413zM35.283 58.706l1.414-1.414 4 4-1.415 1.413zM41.283 58.706l1.414-1.414 4 4-1.415 1.413zM47.282 58.707l1.414-1.414 4 4-1.415 1.413z"/><path d="M11.286 54.704 12.7 53.29l4 4-1.415 1.413zM17.286 54.704 18.7 53.29l4 4-1.415 1.413zM23.285 54.705l1.414-1.414 4 4-1.415 1.413zM29.285 54.705l1.414-1.414 4 4-1.415 1.413zM35.284 54.706l1.414-1.414 4 4-1.415 1.413zM41.283 54.707l1.414-1.414 4 4-1.415 1.413zM47.283 54.707l1.414-1.414 4 4-1.415 1.413zM11.287 50.704 12.7 49.29l4 4-1.415 1.413zM17.286 50.705 18.7 49.29l4 4-1.415 1.413zM23.286 50.705 24.7 49.29l4 4-1.415 1.413zM29.285 50.706l1.414-1.414 4 4-1.415 1.413zM35.284 50.707l1.414-1.414 4 4-1.415 1.413zM41.284 50.707l1.414-1.414 4 4-1.415 1.413zM47.283 50.708l1.414-1.414 4 4-1.415 1.413zM32 41a.997.997 0 0 1-.707-.293l-5-5A.997.997 0 0 1 26 35v-5h2v4.586l4 4 4-4V30h2v5c0 .265-.105.52-.293.707l-5 5A.997.997 0 0 1 32 41zM21 19h22v2H21zM23 26h18v2H23z"/><path d="M31 40h2v10h-2zM20 44h2v6h-2zM42 44h2v6h-2z"/></svg>