<svg height="511pt" viewBox="-29 0 511 511.999" width="511pt" xmlns="http://www.w3.org/2000/svg"><path d="M357.578 504.5h-261.5a4.057 4.057 0 0 1-4.058-4.055v-79.879c0-21.418 13.293-40.582 33.351-48.086l101.457-37.964 101.453 37.964c20.059 7.504 33.352 26.668 33.352 48.086v79.88a4.056 4.056 0 0 1-4.055 4.054zm0 0" fill="#9e71d3"/><path d="M226.828 334.516 125.371 372.48c-20.058 7.504-33.351 26.668-33.351 48.086v79.88a4.056 4.056 0 0 0 4.054 4.054h130.75V334.516zm0 0" fill="#f9dc6a"/><path d="m328.281 372.48-101.453-37.964v8.527l78.664 29.437c20.059 7.504 33.348 26.672 33.348 48.086v79.88a4.054 4.054 0 0 1-4.055 4.054h22.79a4.054 4.054 0 0 0 4.058-4.055v-79.879c0-21.418-13.293-40.582-33.352-48.086zm0 0" fill="#7f56af"/><path d="m226.828 473.086-34.254-52.512a4.506 4.506 0 0 0-5.476-1.707l-35.782 14.649c-3.652 1.496-7.324-2.106-5.906-5.79l16.707-43.308c1.098-2.844-.89-5.934-3.933-6.113l-43.004-2.582c-4.703-.282-5.875-6.684-1.57-8.602 28.831-12.848 87.777-37.648 113.218-37.648 25.438 0 84.387 24.8 113.215 37.648 4.305 1.918 3.133 8.32-1.57 8.602l-43.004 2.582c-3.043.183-5.028 3.27-3.93 6.113l16.703 43.309c1.422 3.683-2.25 7.285-5.906 5.789l-35.777-14.649a4.504 4.504 0 0 0-5.477 1.707zm0 0" fill="#6e7093"/><path d="M261.082 420.574a4.504 4.504 0 0 1 5.477-1.707l35.777 14.649c3.656 1.496 7.328-2.106 5.906-5.79l-16.703-43.308c-1.098-2.844.887-5.934 3.93-6.113l43.004-2.582c4.703-.282 5.875-6.684 1.57-8.602-28.828-12.848-87.777-37.648-113.215-37.648v143.613zm0 0" fill="#81ebc7"/><path d="M186.605 290.871v59.16c0 22.215 18.008 40.223 40.223 40.223 22.211 0 40.219-18.008 40.219-40.223v-59.16zm0 0" fill="#f9c295"/><path d="M186.605 330.797c15.766 10.168 34.028 15.98 53.493 15.98a96.625 96.625 0 0 0 26.949-3.824v-52.082h-80.442zm0 0" fill="#e59f6a"/><path d="M334.633 202.977c0-67.079-48.266-121.454-107.805-121.454-59.543 0-107.808 54.375-107.808 121.454 0 67.082 48.265 121.457 107.808 121.457 59.54 0 107.805-54.375 107.805-121.457zm0 0" fill="#f9c295"/><path d="M276.84 95.363c23.515 22.282 38.469 55.668 38.469 92.996 0 67.078-48.27 121.453-107.809 121.453-18.055 0-35.066-5.003-50.012-13.84 18.742 17.758 42.93 28.462 69.34 28.462 59.54 0 107.805-54.38 107.805-121.457 0-46.739-23.438-87.305-57.793-107.614zm0 0" fill="#e59f6a"/><path d="m431.879 80.934-76.356-64.13c-12.336-10.359-29.722-12.202-43.968-4.675l-84.727 44.836-84.73-44.836c-14.243-7.527-31.63-5.684-43.97 4.676l-76.35 64.129a38.618 38.618 0 0 0-13.157 36.5l19.223 105.199 19.082-1.875-3.309-31.559c-1.781-17.035 10.676-32.246 27.719-33.847 13.488-1.262 26.219 6.441 31.348 18.98l16.906 41.293a137.825 137.825 0 0 1-.574-12.648c0-13.84 2.054-27.125 5.836-39.512 0-.004 0-.004.003-.008 0 0 .004-.004.008-.004 2.649-5.3 6.149-10.098 10.301-14.254 9.969-9.969 23.746-16.137 38.969-16.137 24.804 0 45.789 16.399 52.695 38.95 6.902-22.551 27.89-38.95 52.695-38.95 21.559 0 40.207 12.368 49.27 30.391.004 0 .008 0 .008.004 0 0 0 .004.004.004 3.777 12.39 5.836 25.676 5.836 39.512 0 4.277-.192 8.5-.575 12.652l16.903-41.297c5.133-12.539 17.86-20.238 31.347-18.98 17.047 1.605 29.504 16.812 27.72 33.847l-3.306 31.563 19.083 1.875L445.03 117.43a38.62 38.62 0 0 0-13.152-36.496zm0 0" fill="#9e71d3"/><path d="M445.031 117.434 425.81 222.633l-19.079-1.875 3.305-31.559c1.785-17.035-10.676-32.246-27.719-33.847-13.488-1.262-26.218 6.441-31.347 18.98l-16.903 41.293c.383-4.152.57-8.375.57-12.648 0-13.84-2.054-27.125-5.835-39.512v-.012h-.008c-9.063-18.02-27.711-30.387-49.27-30.387-24.808 0-45.793 16.399-52.695 38.946V56.965l84.727-44.836c14.242-7.527 31.633-5.684 43.968 4.676l76.356 64.129a38.624 38.624 0 0 1 13.152 36.5zm0 0" fill="#f9dc6a"/><path d="m431.879 80.934-76.356-64.13c-12.336-10.359-29.722-12.202-43.968-4.675l-.477.254a39.512 39.512 0 0 1 22.102 9.129l76.351 64.125a38.621 38.621 0 0 1 13.156 36.5L409.5 194.312l-2.773 26.446 19.082 1.875 19.222-105.2a38.624 38.624 0 0 0-13.152-36.5zm0 0" fill="#e5ac51"/><path d="M438.54 222.633c0 11.914-9.657 21.574-21.575 21.574-11.914 0-21.57-9.66-21.57-21.574 0-11.914 9.656-21.574 21.57-21.574 11.918 0 21.574 9.66 21.574 21.574zm0 0" fill="#9e71d3"/><path d="M58.262 222.633c0 11.914-9.66 21.574-21.575 21.574s-21.574-9.66-21.574-21.574c0-11.914 9.66-21.574 21.575-21.574s21.574 9.66 21.574 21.574zm0 0" fill="#f9dc6a"/><path d="M436.703 75.188 419.695 60.91a7.5 7.5 0 1 0-9.644 11.488l17.008 14.278c8.535 7.168 12.597 18.437 10.593 29.406l-14.28 78.188a28.95 28.95 0 0 0-6.255-.708l.375-3.574c1.078-10.25-1.926-20.281-8.453-28.25-6.523-7.968-15.766-12.886-26.023-13.847-16.891-1.586-32.567 7.906-38.989 23.605l-3.648 8.922a141.412 141.412 0 0 0-4.336-18.91 7.332 7.332 0 0 0-.715-1.742c-10.758-21.102-32.105-34.2-55.805-34.2-17.582 0-33.695 7.168-45.195 19.168V61.48l80.738-42.722c11.602-6.133 25.59-4.645 35.641 3.793l36.184 30.398a7.5 7.5 0 1 0 9.648-11.484l-36.187-30.402C345.602-1.318 325.078-3.505 308.05 5.5l-81.223 42.98-81.23-42.984c-17.02-8.996-37.547-6.812-52.293 5.566l-76.356 64.13C4.297 85.815-1.723 102.52 1.246 118.776l15.168 83.04c-5.426 5.28-8.8 12.663-8.8 20.816 0 16.031 13.042 29.074 29.074 29.074s29.074-13.043 29.074-29.074c0-10.383-5.473-19.512-13.68-24.656l-1.004-9.559c-.652-6.23 1.172-12.332 5.14-17.18 3.966-4.84 9.587-7.832 15.817-8.414 10.27-.96 19.809 4.805 23.711 14.352l16.496 40.308c1.828 18.336 7.051 35.676 15.54 51.567a7.497 7.497 0 0 0 6.62 3.969 7.45 7.45 0 0 0 3.524-.887c3.652-1.953 5.035-6.496 3.082-10.149-7.852-14.699-12.567-30.816-14.02-47.898-.011-.125-.023-.25-.043-.371-.285-3.52-.43-7.125-.43-10.735 0-12.55 1.79-24.894 5.32-36.687a47.386 47.386 0 0 1 8.63-11.785c8.992-8.992 20.945-13.942 33.664-13.942 21.035 0 39.309 13.485 45.5 33.563a7.574 7.574 0 0 0 .48 1.219l.059.117c.012.02.02.035.027.05l.047.087a7.456 7.456 0 0 0 3.324 3.164c.008.004.012.007.016.007.16.079.324.149.488.215.008 0 .012.004.016.008l.152.059a7.545 7.545 0 0 0 5.16.004c.004-.004.012-.004.016-.004l.152-.059a7.477 7.477 0 0 0 3.844-3.395c.02-.027.031-.058.047-.085a.21.21 0 0 0 .027-.051l.059-.117s.004-.004.004-.008c.191-.387.351-.79.476-1.211 6.192-20.078 24.465-33.563 45.5-33.563 17.915 0 34.067 9.844 42.297 25.73 3.528 11.798 5.317 24.134 5.317 36.684 0 2.934-.094 5.864-.285 8.75l-.012.2-.047.644c-2.09 28.43-13.441 54.758-32.004 74.2-18.57 19.449-42.707 30.16-67.96 30.16-12.74 0-25.153-2.707-36.712-7.872a7.42 7.42 0 0 0-.844-.378c-11.699-5.372-22.503-13.274-31.847-23.45a7.502 7.502 0 0 0-10.598-.453 7.493 7.493 0 0 0-.45 10.594c9.68 10.547 20.747 18.973 32.731 25.063v12.414c-24.144 8.183-50.312 19.285-68.546 27.418-5.153 2.293-7.934 7.558-6.926 13.101 1.008 5.547 5.468 9.5 11.097 9.832l38.914 2.336-15.238 39.492a12.008 12.008 0 0 0 15.754 15.422l33.477-13.707 32.804 50.281a7.492 7.492 0 0 0 6.38 3.555 7.492 7.492 0 0 0 6.378-3.555l32.805-50.28L299.5 440.46a12.003 12.003 0 0 0 12.941-2.55 11.999 11.999 0 0 0 2.793-12.888l-15.23-39.48 33.73-2.027c12.637 7.988 20.403 21.992 20.403 37.05V497H319.5v-41.23a7.5 7.5 0 1 0-15 0V497h-70.176v-1.066a7.499 7.499 0 1 0-14.996 0V497h-70.176v-41.23a7.5 7.5 0 1 0-15 0V497H99.516v-76.434a43.61 43.61 0 0 1 3.644-17.496 7.498 7.498 0 0 0-13.75-5.984 58.484 58.484 0 0 0-4.894 23.48v79.875c0 6.372 5.187 11.559 11.558 11.559h261.5c6.375 0 11.563-5.188 11.563-11.559v-79.875c0-17.105-7.469-33.195-20.047-44.238.422-.922.734-1.91.922-2.957 1.008-5.543-1.774-10.808-6.922-13.101-18.238-8.13-44.403-19.235-68.547-27.418v-12.43c11.312-5.754 21.816-13.578 31.094-23.29 20.129-21.081 32.742-49.23 35.789-79.675l16.48-40.281c3.906-9.543 13.43-15.317 23.707-14.352 6.235.582 11.856 3.574 15.82 8.414 3.97 4.848 5.797 10.95 5.141 17.184l-1.004 9.555c-8.207 5.144-13.68 14.273-13.68 24.656 0 16.031 13.044 29.074 29.075 29.074s29.074-13.043 29.074-29.074c0-8.156-3.375-15.535-8.8-20.82l15.167-83.036c2.969-16.257-3.05-32.96-15.703-43.59zM36.688 236.707c-7.762 0-14.075-6.312-14.075-14.074 0-4.719 2.336-8.903 5.91-11.457a8.57 8.57 0 0 0 .536-.363 13.982 13.982 0 0 1 7.628-2.254c1.856 0 3.633.363 5.254 1.015.133.063.262.117.399.168 4.953 2.184 8.426 7.137 8.426 12.89-.004 7.763-6.317 14.075-14.078 14.075zm137.44-111.137c-16.722 0-32.444 6.512-44.269 18.336-4.703 4.707-8.59 10.055-11.554 15.906a7.336 7.336 0 0 0-.676 1.637 141.089 141.089 0 0 0-4.352 18.969l-3.652-8.922c-6.418-15.695-22.078-25.184-38.988-23.605-10.254.96-19.496 5.882-26.024 13.847-6.523 7.969-9.527 18-8.453 28.25l.375 3.575a28.914 28.914 0 0 0-6.25.71L16 116.082c-2-10.969 2.059-22.234 10.598-29.406l76.351-64.125c10.051-8.438 24.04-9.926 35.637-3.793l80.742 42.722v83.258c-11.5-12.004-27.617-19.168-45.2-19.168zm10.13 286.356L154.91 423.94l14.211-36.836a12.04 12.04 0 0 0-1.11-10.792 12.062 12.062 0 0 0-9.378-5.5l-30.602-1.836c15.18-6.567 33.524-14.098 51.078-20.258v1.312c0 23.762 17.457 43.52 40.22 47.13v50.702l-20.477-31.379c-3.141-4.82-9.278-6.738-14.594-4.558zm141.363-42.95-30.617 1.84a12.044 12.044 0 0 0-9.363 5.497 12.067 12.067 0 0 0-1.106 10.808l14.207 36.824-29.344-12.015c-5.316-2.184-11.457-.266-14.593 4.55l-20.48 31.383v-50.695c9.898-1.555 19.023-6.176 26.241-13.395 9.012-9.011 13.977-20.996 13.977-33.742v-1.312c17.555 6.16 35.898 13.691 51.078 20.258zm-66.078-30.863V350.031c0 8.742-3.402 16.957-9.582 23.137-6.18 6.18-14.395 9.582-23.133 9.582-18.043 0-32.719-14.676-32.719-32.719V326.688a104.374 104.374 0 0 0 32.72 5.246c11.202 0 22.202-1.797 32.714-5.262zm157.422-101.406c-7.758 0-14.074-6.312-14.074-14.074 0-5.785 3.507-10.766 8.507-12.926.086-.035.172-.07.258-.11a14.022 14.022 0 0 1 5.309-1.038c2.812 0 5.433.828 7.633 2.254.172.128.347.25.53.363 3.579 2.554 5.915 6.738 5.915 11.457-.004 7.762-6.316 14.074-14.078 14.074zm0 0"/><path d="M302.785 238.625c-4.219-1.813-8.797-3.328-13.582-4.523-.07-.02-.137-.043-.203-.063-.125-.031-.246-.047-.367-.07a103.198 103.198 0 0 0-13.07-2.309c-4.133-.465-7.82 2.516-8.278 6.633a7.5 7.5 0 0 0 6.633 8.277c.836.09 1.668.203 2.496.317-8.828 12.957-30.781 24.297-49.586 24.297s-40.758-11.34-49.59-24.297c.832-.114 1.66-.223 2.496-.317a7.5 7.5 0 0 0 6.633-8.277c-.453-4.117-4.16-7.098-8.273-6.633-4.457.492-8.84 1.277-13.074 2.309-.122.023-.243.039-.364.07-.07.016-.136.043-.203.063-4.785 1.195-9.363 2.707-13.582 4.523a7.498 7.498 0 0 0-3.926 9.852 7.495 7.495 0 0 0 9.852 3.925 68.965 68.965 0 0 1 5.172-1.972c4.426 8.816 12.668 17.047 23.914 23.695 12.965 7.66 27.887 12.059 40.945 12.059s27.98-4.399 40.945-12.059c11.247-6.648 19.489-14.879 23.914-23.695a68.965 68.965 0 0 1 5.172 1.972 7.495 7.495 0 0 0 9.852-3.926 7.498 7.498 0 0 0-3.926-9.851zM186.605 216.645a7.5 7.5 0 0 0 7.5-7.5v-3.168a7.496 7.496 0 0 0-7.5-7.497c-4.14 0-7.5 3.356-7.5 7.497v3.168c0 4.14 3.36 7.5 7.5 7.5zM267.047 216.645a7.5 7.5 0 0 0 7.5-7.5v-3.168a7.496 7.496 0 0 0-7.5-7.497c-4.14 0-7.5 3.356-7.5 7.497v3.168c0 4.14 3.36 7.5 7.5 7.5zm0 0"/></svg>