<svg xmlns="http://www.w3.org/2000/svg" viewBox="0 0 512 512" style="enable-background:new 0 0 512 512" xml:space="preserve"><circle style="fill:#f5e038" cx="255.957" cy="179.04" r="128.267"/><path style="fill:#fff2ba" d="m421.141 369.25 22.26 12.752c8.195 4.695 18.646 1.858 23.341-6.339 4.695-8.195 1.858-18.646-6.339-23.341l-22.26-12.752-17.002 29.68z"/><path style="fill:#f1ede8" d="m332.921 264.551 111.441 66.685-27.052 47.22-101.491-54.047z"/><path style="fill:#fff2ba" d="m90.78 369.25-22.26 12.752c-8.195 4.695-18.646 1.858-23.341-6.339s-1.858-18.646 6.339-23.341l22.26-12.752 17.002 29.68z"/><path style="fill:#f1ede8" d="M179 264.551 67.561 331.236l27.05 47.22 101.492-54.047z"/><path style="fill:#e3dcd2" d="m179 264.551-27.299 16.336-10.386 72.698 54.788-29.176zM332.921 264.551l27.301 16.336 10.385 72.698-54.788-29.176z"/><path style="fill:#f1ede8" d="M367.126 503.983h-222.33L179 264.551h153.921z"/><path style="fill:#754f1e" d="M247.409 93.528h17.102c37.781 0 68.409 30.628 68.409 68.409v102.614H179V161.937c0-37.781 30.628-68.409 68.409-68.409z"/><circle style="fill:#fff2ba" cx="255.957" cy="179.04" r="59.858"/><path style="fill:#f9c900" d="M315.819 179.04c0-33.059-26.799-59.858-59.858-59.858s-59.858 26.799-59.858 59.858c0 11.282 3.125 21.832 8.551 30.84v-10.531c0-9.445 7.656-17.102 17.102-17.102h68.409c9.446 0 17.102 7.658 17.102 17.102v10.531c5.426-9.008 8.552-19.558 8.552-30.84z"/><path style="fill:#9e6d4a" d="M264.512 93.528H247.41c-37.781 0-68.409 30.628-68.409 68.409v102.614h25.653V179.04c0-9.446 7.656-17.102 17.102-17.102h68.409c9.446 0 17.102 7.656 17.102 17.102v85.511h25.653V161.937c.001-37.781-30.627-68.409-68.408-68.409z"/><path d="M476.142 360.579c-1.758-6.475-5.932-11.878-11.754-15.212l-14.217-8.145 1.146-2a8.017 8.017 0 0 0-2.839-10.864l-107.54-64.352v-98.069c0-42.141-34.285-76.426-76.426-76.426H247.41c-42.141 0-76.426 34.285-76.426 76.426v17.102a8.016 8.016 0 0 0 8.017 8.017 8.016 8.016 0 0 0 8.017-8.017v-17.102c0-33.3 27.092-60.392 60.392-60.392h17.102c33.3 0 60.392 27.092 60.392 60.392v94.597h-9.62V179.04c0-13.851-11.268-25.119-25.119-25.119h-68.409c-13.851 0-25.119 11.268-25.119 25.119v77.495h-9.62V212.71a8.016 8.016 0 0 0-8.017-8.017 8.016 8.016 0 0 0-8.017 8.017v47.296l-107.54 64.351a8.016 8.016 0 0 0-2.839 10.864l1.146 2-14.217 8.145c-11.869 6.799-16.123 22.388-9.309 34.28 4.636 8.093 13.12 12.629 21.839 12.629 4.232 0 8.518-1.069 12.445-3.318l14.215-8.145.932 1.628c2.125 3.708 6.948 5.099 10.724 3.091l59.789-31.838-21.308 149.156c-.68 4.759 3.134 9.151 7.937 9.151h222.33c4.803 0 8.616-4.392 7.937-9.151l-9.396-65.771c-.626-4.386-4.697-7.423-9.07-6.802a8.015 8.015 0 0 0-6.802 9.07l8.088 56.621H154.039l31.914-223.399h140.014l17.562 122.928c.626 4.385 4.694 7.416 9.07 6.802a8.015 8.015 0 0 0 6.802-9.07l-5.648-39.535 59.787 31.839c3.775 2.007 8.599.617 10.724-3.091l.933-1.628 14.216 8.145c11.879 6.805 27.488 2.55 34.282-9.31 3.337-5.822 4.206-12.594 2.447-19.069zM64.537 375.046c-4.348 2.492-9.91.979-12.401-3.368-2.491-4.346-.98-9.909 3.367-12.399l14.216-8.144 9.032 15.767-14.214 8.144zm34.008-7.767c-.175-.689-18.767-33.082-19.383-33.642l89.525-53.571-7.71 53.966-62.432 33.247zm123.211-197.325h68.409c5.01 0 9.086 4.076 9.086 9.086v28.534l-.003.004c-9.643 14.591-25.824 23.303-43.287 23.303-17.486 0-33.648-8.716-43.29-23.32V179.04c-.001-5.01 4.076-9.086 9.085-9.086zm-9.086 61.377c12.009 9.96 27.222 15.583 43.29 15.583a67.712 67.712 0 0 0 43.29-15.59v25.21h-86.58v-25.203zm130.566 48.735 89.525 53.571c-.617.559-19.208 32.953-19.383 33.642l-62.139-33.092c-.095-.05-.193-.09-.29-.136l-7.713-53.985zm116.55 91.613c-2.489 4.346-8.052 5.859-12.4 3.367l-14.216-8.144 9.032-15.767 14.216 8.144c4.348 2.49 5.858 8.052 3.368 12.4z"/><path d="M255.961 417.937a8.016 8.016 0 0 0 8.017-8.017v-68.944h17.637a8.016 8.016 0 0 0 8.017-8.017 8.016 8.016 0 0 0-8.017-8.017h-17.637v-17.637c0-4.428-3.588-8.017-8.017-8.017s-8.017 3.588-8.017 8.017v17.637h-17.637a8.016 8.016 0 0 0-8.017 8.017 8.016 8.016 0 0 0 8.017 8.017h17.637v68.944a8.016 8.016 0 0 0 8.017 8.017zM353.77 262.41a8.02 8.02 0 0 0 11.224-1.596c17.828-23.734 27.25-52.011 27.25-81.775 0-75.147-61.136-136.284-136.284-136.284S119.677 103.892 119.677 179.04c0 29.769 9.425 58.049 27.26 81.786a8.001 8.001 0 0 0 6.415 3.201 7.978 7.978 0 0 0 4.809-1.608 8.016 8.016 0 0 0 1.594-11.224c-15.731-20.937-24.045-45.889-24.045-72.156 0-66.307 53.945-120.251 120.251-120.251s120.251 53.944 120.251 120.251c0 26.263-8.312 51.21-24.037 72.146a8.017 8.017 0 0 0 1.595 11.225zM255.961 33.136a8.016 8.016 0 0 0 8.017-8.017V8.017A8.016 8.016 0 0 0 255.961 0a8.016 8.016 0 0 0-8.017 8.017v17.102a8.017 8.017 0 0 0 8.017 8.017zM167.782 50.894c2.355 4.081 7.898 5.241 11.7 2.445 3.246-2.388 4.2-6.975 2.186-10.461l-8.551-14.811a8.017 8.017 0 0 0-13.885 8.017l8.55 14.81zM96.437 104.746l14.811 8.551c4.091 2.36 9.463.583 11.355-3.733 1.618-3.691.149-8.14-3.338-10.153l-14.811-8.551a8.015 8.015 0 0 0-10.951 2.934 8.017 8.017 0 0 0 2.934 10.952zM76.386 195.608h17.102c4.428 0 8.017-3.588 8.017-8.017s-3.588-8.017-8.017-8.017H76.386c-4.428 0-8.017 3.588-8.017 8.017s3.59 8.017 8.017 8.017zM111.247 261.884l-14.811 8.551c-3.487 2.014-4.956 6.463-3.338 10.153 1.891 4.314 7.265 6.094 11.355 3.733l14.811-8.551a8.017 8.017 0 0 0-8.017-13.886zM392.657 275.769l14.811 8.551c4.091 2.36 9.463.583 11.355-3.733 1.618-3.691.149-8.14-3.338-10.153l-14.811-8.551a8.016 8.016 0 0 0-10.951 2.934 8.017 8.017 0 0 0 2.934 10.952zM410.416 187.591a8.016 8.016 0 0 0 8.017 8.017h17.102c4.428 0 8.017-3.588 8.017-8.017s-3.588-8.017-8.017-8.017h-17.102a8.016 8.016 0 0 0-8.017 8.017zM396.673 114.373c1.36 0 2.74-.346 4.001-1.075l14.811-8.551a8.017 8.017 0 0 0-8.017-13.885l-14.811 8.551c-2.982 1.722-4.557 5.27-3.829 8.637.79 3.648 4.111 6.323 7.845 6.323zM333.188 53.828c3.788 2.185 8.768.848 10.951-2.934l8.551-14.811a8.017 8.017 0 0 0-13.885-8.017l-8.551 14.811a8.016 8.016 0 0 0 2.934 10.951z"/></svg>