<svg height="512pt" viewBox="0 -14 512.001 512" width="512pt" xmlns="http://www.w3.org/2000/svg"><path d="m408.71 237.516-74.929 74.933 104.801 104.805 57.816-57.82c10.825-10.825 10.825-28.375 0-39.204-10.824-10.824-28.375-10.824-39.199 0l-3.61 3.61c-7.288 7.293-19.109 7.293-26.398 0-7.293-7.29-7.293-19.11 0-26.399l20.723-20.722c10.824-10.828 10.824-28.38 0-39.203-10.828-10.828-28.379-10.828-39.203 0zm0 0" fill="#eedb00"/><path d="m265.617 192.89-72.722 72.727c-42.348 42.348-111.247 42.348-153.594-.004-42.348-42.347-42.348-111.25 0-153.597l72.722-72.727c42.344-42.348 111.247-42.348 153.594 0 42.344 42.348 42.344 111.254 0 153.602zM77.41 150.126c-21.332 21.332-21.332 56.047 0 77.379 21.332 21.332 56.043 21.332 77.375 0l72.723-72.727c21.332-21.332 21.332-56.047 0-77.379-21.332-21.335-56.043-21.335-77.375 0zm0 0" fill="#f4e74d"/><path d="M94.703 131.766c0 20.984-17.008 37.992-37.992 37.992-20.98 0-37.992-17.008-37.992-37.992S35.73 93.773 56.71 93.773c20.984 0 37.992 17.008 37.992 37.993zM169.77 56.7c0 20.984-17.012 37.991-37.997 37.991-20.98 0-37.992-17.007-37.992-37.992s17.012-37.992 37.992-37.992c20.985 0 37.997 17.008 37.997 37.992zm0 0" fill="#00ce8e"/><path d="M467.105 466.184c-13.984 13.984-36.652 13.984-50.636 0L191.168 240.87l50.633-50.637 225.304 225.313c13.98 13.98 13.98 36.652 0 50.637zm0 0" fill="#f9ee80"/><path d="M259.14 308.844c4.055-8.16 10.575-18.223 21.028-28.676 10.988-10.988 13.598-25.598 13.086-38.48L241.8 190.233l-50.633 50.637zm0 0" fill="#eedb00"/><path d="M120.297 58.695C98.48 36.88 67.004 32.977 49.992 49.988c-17.008 17.008-13.11 48.485 8.711 70.305 21.82 21.82 53.297 25.719 70.305 8.71 17.012-17.01 13.11-48.487-8.711-70.308zm0 0" fill="#fcf5af"/><path d="M107.797 107.785c-6.629 6.633-22.113-2.941-27.879-8.707-5.766-5.77-16.606-19.984-8.711-27.883 7.895-7.894 22.113 2.946 27.879 8.711 5.77 5.766 15.34 21.25 8.71 27.88zm0 0" fill="#ff8a98"/><path d="M226.813 254.238h-36.301c-15.149 0-27.43-12.277-27.43-27.425v-36.31c0-15.148 12.281-27.429 27.43-27.429h36.3c15.149 0 27.43 12.281 27.43 27.43v36.309c0 15.148-12.281 27.425-27.43 27.425zm0 0" fill="#fcf5af"/><path d="M193.078 214.586v-11.86c0-5.331 4.324-9.652 9.652-9.652h11.86a9.65 9.65 0 0 1 9.652 9.653v11.859a9.65 9.65 0 0 1-9.652 9.652h-11.86c-5.328 0-9.652-4.32-9.652-9.652zm0 0" fill="#ff8a98"/><path d="M113.102 113.09c2.988-2.988 7.21-9.887 1.898-22.48-2.902-6.887-7.531-12.926-10.61-16.008-1.699-1.7-7.824-7.512-15.285-10.977-12.437-5.777-19.875-1.059-23.199 2.266-3.328 3.328-8.043 10.765-2.27 23.203 3.47 7.465 9.282 13.586 10.977 15.285 3.082 3.082 9.121 7.707 16.008 10.61 12.594 5.312 19.488 1.09 22.48-1.9zM76.512 76.5c2.16-2.16 10.715 2.152 17.273 8.71 5.606 5.606 9.563 14.993 8.695 17.259-2.265.867-11.652-3.09-17.257-8.696-6.559-6.558-10.871-15.113-8.711-17.273zM202.73 185.574c-9.457 0-17.152 7.696-17.152 17.153v11.859a17.03 17.03 0 0 0 5.027 12.129 17.04 17.04 0 0 0 12.125 5.023h11.864c4.726 0 9.015-1.922 12.12-5.027a17.104 17.104 0 0 0 5.032-12.125v-11.86a17.05 17.05 0 0 0-5.023-12.128 17.05 17.05 0 0 0-12.13-5.024zm14.012 17.153v11.859a2.156 2.156 0 0 1-2.148 2.156l-11.864-.004c-.734 0-1.234-.34-1.523-.629a2.126 2.126 0 0 1-.629-1.523v-11.86c0-1.187.965-2.152 2.152-2.152h11.86c.738 0 1.234.344 1.523.63.29.288.633.784.63 1.523zm0 0"/><path d="m403.41 232.21-54.512 54.517-83.253-83.258 5.277-5.278c45.27-45.273 45.27-118.933-.004-164.207a7.497 7.497 0 0 0-10.606 0c-2.925 2.926-2.925 7.676 0 10.606 39.024 39.023 39.415 102.27 1.18 141.785-.906-7.766-4.367-14.957-9.976-20.57-4.407-4.403-9.782-7.48-15.641-9.043 21.129-24.414 20.121-61.485-3.063-84.668-14.636-14.637-35.593-20.864-55.585-17.102-.543-13.86-7.434-27.015-18.97-35.273 25.888-8.192 54.274-5.715 78.548 7.355a7.503 7.503 0 0 0 10.16-3.047 7.5 7.5 0 0 0-3.05-10.16c-32.852-17.691-72.27-18.48-105.802-2.226-7.82-1.114-15.832-.168-23.355 2.867-9.555 3.855-17.34 10.672-22.387 19.472-17.762-4.625-35.691-1.285-47.676 10.7-11.988 11.988-15.328 29.918-10.703 47.683-16.203 9.325-24.851 27.621-22.324 45.715C-9.93 182.618-1.008 235.91 34 270.918c45.27 45.273 118.93 45.273 164.2.004l6.206-6.207 95.063 95.066a7.497 7.497 0 0 0 10.605 0 7.51 7.51 0 0 0 0-10.61l-87.43-87.429s18.192.426 28.86-10.242c10.664-10.668 10.242-30.719 10.242-30.719l200.059 200.07c11.03 11.036 11.035 28.993 0 40.028-11.04 11.039-28.996 11.039-40.032 0l-90.605-90.61a7.497 7.497 0 0 0-10.606 0 7.497 7.497 0 0 0 0 10.606l90.606 90.613c16.887 16.883 44.355 16.883 61.242 0 16.883-16.886 16.883-44.36 0-61.246l-8.105-8.101 37.398-37.403c13.73-13.73 13.73-36.078 0-49.808-26.277-26.278-53.418 3.61-53.418 3.61-4.351 4.35-11.437 4.35-15.793 0-4.351-4.356-4.351-11.442 0-15.798l20.727-20.722c13.73-13.73 13.73-36.079 0-49.81-13.735-13.733-36.078-13.733-49.809 0zM222.203 82.7c32.953 32.952-6.098 72.874-6.098 72.874h-25.593c-9.332 0-18.102 3.633-24.7 10.23-6.597 6.598-10.23 15.372-10.23 24.7v25.598s-38.332 40.636-72.867 6.097c-12.445-12.445-16.84-30.597-11.738-47.238 16.613-4.54 26.343-21.574 28.617-28.008 13.21.52 25.66-3.59 34.718-12.648 9.06-9.059 13.168-21.512 12.649-34.72 6.434-2.276 23.773-12.312 27.996-28.616 16.621-5.074 34.898-.614 47.246 11.73zm-78.496-54.063c15.473 6.578 22.707 24.52 16.129 39.996a30.46 30.46 0 0 1-15.422 15.808c-3.27-10.992-9.59-21.828-18.812-31.05-5.809-5.813-12.266-10.457-18.993-13.926 11.461-15.137 29.602-14.016 37.098-10.828zM55.301 55.285c14.054-14.058 40.836-10.148 59.695 8.711s22.77 45.645 8.711 59.7c-14.059 14.058-40.836 10.152-59.7-8.708-18.859-18.863-22.765-45.644-8.706-59.703zM39.484 106.61c3.47 6.727 8.114 13.176 13.918 18.985 9.223 9.222 20.059 15.543 31.055 18.812-3.098 6.809-8.965 11.625-15.648 15.352-10.504 5.86-30.766 4.168-40.086-15.895-6.246-13.437-1.036-29.18 10.761-37.254zm5.121 153.704c-26.984-26.985-36.168-66.446-24.878-102.051 14.73 18.539 30.168 18.789 35.253 18.984-3.789 19.984 2.38 40.813 17.13 55.563 11.734 11.734 27.355 18.195 43.988 18.195 15.12 0 29.394-5.352 40.683-15.137 3.653 13.594 15.32 23.934 29.606 25.621-39.516 38.239-102.762 37.848-141.782-1.176zm202.137-33.504c0 10.992-8.937 19.933-19.93 19.93h-36.304c-5.32 0-10.324-2.071-14.09-5.837a19.771 19.771 0 0 1-5.836-14.09v-36.308c0-5.324 2.07-10.328 5.836-14.094a19.812 19.812 0 0 1 14.094-5.836h36.304a19.81 19.81 0 0 1 14.09 5.836 19.803 19.803 0 0 1 5.836 14.094zm195.867 44.605-20.722 20.723c-10.203 10.203-10.203 26.804 0 37.008 10.199 10.203 26.8 10.203 37.004 0 0 0 16.933-18.88 32.203-3.61 7.883 7.887 7.883 20.715 0 28.598l-37.399 37.398-94.195-94.199 54.516-54.516c7.882-7.882 20.71-7.882 28.593 0 7.883 7.883 7.883 20.711 0 28.598zm0 0"/></svg>