<svg xmlns="http://www.w3.org/2000/svg" viewBox="0 0 512 512" style="enable-background:new 0 0 512 512" xml:space="preserve"><path style="fill:#f0eced" d="M260.112 7.523H112.855c-14.644 0-25.897 12.958-23.83 27.455 10.336 72.547 8.522 228.588-5.441 277.459h176.53c24.07-64.192 24.07-248.746-.002-304.914zM139.751 71.715c-8.864 0-16.048-7.186-16.048-16.048s7.185-16.048 16.048-16.048c8.864 0 16.048 7.186 16.048 16.048s-7.186 16.048-16.048 16.048z"/><path style="fill:#e1d8dc" d="M217.755 7.523h-104.9c-14.644 0-25.897 12.958-23.83 27.455 10.336 72.547 8.522 228.588-5.441 277.459h134.173c24.07-64.192 24.07-248.746-.002-304.914zm-78.004 64.192c-8.864 0-16.048-7.186-16.048-16.048s7.185-16.048 16.048-16.048c8.864 0 16.048 7.186 16.048 16.048s-7.186 16.048-16.048 16.048z"/><path style="fill:#a58b95" d="m85.637 500.122-25.556-5.679c-13.417-2.982-21.619-16.573-18.002-29.833l41.503-152.174h80.241l-49.854 170.927c-3.552 12.18-15.946 19.512-28.332 16.759z"/><path style="fill:#d2c5ca" d="M118.688 249.248c7.863-84.346 1.492-182.366-4.074-241.725h-1.758c-14.644 0-25.897 12.958-23.83 27.455 10.336 72.547 8.522 228.588-5.441 277.459h26.058a651.16 651.16 0 0 0 9.045-63.189z"/><path style="fill:#967883" d="M83.582 312.437 42.08 464.611c-2.922 10.713 1.873 21.639 10.897 27.015 22.934-56.812 44.086-114.135 56.663-179.189H83.582z"/><path style="fill:#a58b95" d="M446.672 8.024h-16.048c-13.295 0-24.072 10.777-24.072 24.072v175.527h64.193V32.096c-.001-13.295-10.78-24.072-24.073-24.072z"/><path style="fill:#967883" d="M450.684 8.363a24.108 24.108 0 0 0-4.012-.339h-16.048c-13.295 0-24.072 10.777-24.072 24.072v175.527h24.072V32.096c-.001-11.926 8.675-21.822 20.06-23.733z"/><path style="fill:#e1d8dc" d="M470.744 432.297V207.623H310.262c-2.803 36.892-2.707 94.143 16.048 160.481 17.292 61.161 43.946 107.058 64.193 136.409l80.241-72.216zm-24.072-24.072c0 8.863-7.185 16.048-16.048 16.048s-16.048-7.186-16.048-16.048 7.185-16.048 16.048-16.048 16.048 7.185 16.048 16.048z"/><path style="fill:#f0eced" d="M366.431 368.104c13.323 47.123 32.202 85.175 49.428 113.59l-25.356 22.819c-20.247-29.351-46.901-75.248-64.193-136.409-18.755-66.338-18.852-123.59-16.048-160.481h40.12c-2.803 36.892-2.707 94.143 16.049 160.481z"/><path d="M260.112 0H112.855a31.584 31.584 0 0 0-23.868 10.889 31.562 31.562 0 0 0-7.41 25.149c10.691 75.044 7.76 228.875-5.228 274.332-.005.017-.007.034-.011.052-.003.012-.01.023-.013.035L34.822 462.632c-3.64 13.348 2.082 27.967 13.883 35.224a31.762 31.762 0 0 0 9.745 3.932l25.556 5.679c2.285.508 4.571.752 6.828.752 13.748-.001 26.364-9.06 30.356-22.747l48.275-165.512h90.647a7.52 7.52 0 0 0 7.043-4.882c11.605-30.947 18.534-90.052 18.534-158.107 0-68.169-6.977-125.145-18.662-152.412A7.524 7.524 0 0 0 260.112 0zM106.747 481.257c-2.435 8.347-10.991 13.406-19.477 11.522L61.714 487.1c-9.094-2.022-14.832-11.503-12.376-20.51l39.99-146.63h64.464l-47.045 161.297zm148.022-176.342h-26.618c6.812-23.306 10.44-53.51 12.328-76.15a7.522 7.522 0 1 0-14.993-1.249c-2.746 32.935-7.245 59.513-13.073 77.4H93.155c12.459-59.182 12.985-203.133 3.316-270.998-1.398-9.821 6.472-18.872 16.384-18.872h99.77c11.67 32.444 17.799 103.571 15 176.767a7.523 7.523 0 0 0 15.035.574c2.332-60.981-1.301-136.416-14.164-177.342h26.489c9.708 26.936 15.658 80.375 15.658 141.926 0 61.867-6.035 117.643-15.874 147.944z"/><path d="M139.751 32.096c-12.997 0-23.571 10.574-23.571 23.571s10.574 23.571 23.571 23.571c12.997 0 23.571-10.574 23.571-23.571s-10.574-23.571-23.571-23.571zm0 32.097c-4.701 0-8.526-3.824-8.526-8.526s3.824-8.526 8.526-8.526 8.526 3.824 8.526 8.526-3.825 8.526-8.526 8.526z"/><circle cx="83.581" cy="464.895" r="7.523"/><path d="M446.672.502h-16.048c-17.421 0-31.595 14.174-31.595 31.595V200.1h-88.766a7.524 7.524 0 0 0-7.502 6.953c-4.189 55.127 1.299 110.002 16.31 163.098 14.006 49.54 35.956 96.183 65.239 138.634 2.539 3.678 7.9 4.313 11.225 1.32l80.241-72.217a7.519 7.519 0 0 0 2.49-5.592v-400.2c0-17.421-14.173-31.594-31.594-31.594zm-32.598 31.594c0-9.125 7.424-16.55 16.55-16.55h16.048c9.125 0 16.55 7.424 16.55 16.55V200.1h-49.147V32.096zm-22.18 461.045c-25.951-39.17-45.566-81.883-58.345-127.083-13.898-49.158-19.362-99.894-16.262-150.912h25.067c-3.083 52.402 2.56 104.509 16.837 155.006 10.89 38.516 26.712 75.515 47.045 110.081l-14.342 12.908zm71.327-64.194-45.564 41.008c-18.938-32.697-33.726-67.602-43.987-103.897-13.899-49.158-19.339-99.894-16.239-150.912H463.22v213.801z"/><circle cx="438.646" cy="40.12" r="7.523"/><path d="M430.623 431.795c12.997 0 23.571-10.574 23.571-23.571s-10.574-23.571-23.571-23.571-23.571 10.574-23.571 23.571 10.574 23.571 23.571 23.571zm0-32.096c4.701 0 8.526 3.824 8.526 8.526s-3.824 8.526-8.526 8.526-8.526-3.824-8.526-8.526 3.825-8.526 8.526-8.526z"/></svg>