<svg xmlns="http://www.w3.org/2000/svg" viewBox="0 0 512.002 512.002" style="enable-background:new 0 0 512.002 512.002" xml:space="preserve"><path style="fill:#484655" d="M115.75 153.5h280.5V255h-280.5z"/><path style="fill:#fa9e3e" d="M125.839 223.99h49.369v56.61h-49.369c-15.632 0-28.305-12.673-28.305-28.305s12.673-28.305 28.305-28.305zM386.161 223.99h-49.369v56.61h49.369c15.632 0 28.305-12.673 28.305-28.305s-12.673-28.305-28.305-28.305z"/><path style="fill:#fb403f" d="M203.073 363.444h105.855c41.621 0 75.362 33.741 75.362 75.362V504.5H127.711v-65.694c0-41.622 33.741-75.362 75.362-75.362z"/><path style="fill:#c21c1c" d="M308.927 363.444h-22.632c41.621 0 75.362 33.741 75.362 75.362V504.5h22.632v-65.695c0-41.621-33.741-75.361-75.362-75.361z"/><path style="fill:#5880a2" d="M349.451 375.25V504.5h-24.57V365.14a74.773 74.773 0 0 1 24.57 10.11z"/><path style="fill:#ffb700" d="M310.891 442.33h52.55v24.333h-52.55z"/><path style="fill:#5880a2" d="M187.12 365.14V504.5h-24.57V375.25c7.41-4.73 15.7-8.21 24.57-10.11z"/><path style="fill:#ffb700" d="M148.56 442.33h52.55v24.333h-52.55z"/><path style="fill:#fa9e3e" d="M298.1 267.73v95.35L256 400l-42.1-36.92v-95.35z"/><path style="fill:#ffb56b" d="M143.89 164v66.68c0 61.91 50.19 112.11 112.11 112.11s112.11-50.2 112.11-112.11V164H143.89z"/><path style="fill:#ef9245" d="M344.781 242.342c0 53.578-41.949 97.354-94.795 100.286.99.052 1.984.092 2.981.119l.018.001a114.032 114.032 0 0 0 11.46-.274l.433-.034c1.704-.134 3.397-.306 5.079-.515 55.332-6.872 98.152-54.062 98.152-111.246V164H344.78l.001 78.342z"/><path style="fill:#fb403f" d="M135.825 19.586c0 6.675 5.411 12.086 12.086 12.086h7.402c5.795 0 10.493 4.698 10.493 10.493s-4.698 10.493-10.493 10.493h-5.927c-11.422 0-20.682 9.259-20.682 20.682v58.189h254.591v-28.502c0-52.759-42.769-95.528-95.528-95.528H147.911c-6.675.001-12.086 5.412-12.086 12.087z"/><path style="fill:#c21c1c" d="M287.767 7.5h-22.686c52.759 0 95.528 42.769 95.528 95.528v28.502h22.686v-28.502C383.296 50.269 340.526 7.5 287.767 7.5z"/><path style="fill:#c21c1c" d="M123.546 117.817h264.908c14.336 0 25.958 11.622 25.958 25.958v11.462c0 14.336-11.622 25.958-25.958 25.958H123.546c-14.336 0-25.958-11.622-25.958-25.958v-11.462c.001-14.336 11.622-25.958 25.958-25.958z"/><path style="fill:#931111" d="M388.454 117.817h-23.622c14.336 0 25.958 11.622 25.958 25.958v11.462c0 14.336-11.622 25.958-25.958 25.958h23.622c14.336 0 25.958-11.622 25.958-25.958v-11.462c-.001-14.336-11.622-25.958-25.958-25.958z"/><path style="fill:#484655" d="M366.77 226.08c-5.24 33.58-25.37 62.23-53.44 78.96v-10.83c0-28.65-23.23-51.88-51.88-51.88h-10.9c-28.65 0-51.88 23.23-51.88 51.88v10.83c-28.07-16.73-48.2-45.38-53.44-78.96h-1.34v66.68c0 61.91 50.19 112.11 112.11 112.11s112.11-50.2 112.11-112.11v-66.68h-1.34zm-84.103 84.947c0 8.821-7.151 15.973-15.973 15.973h-21.388c-8.821 0-15.973-7.151-15.973-15.973v-3.761c0-14.728 11.939-26.667 26.667-26.667 14.728 0 26.667 11.939 26.667 26.667v3.761z"/><path d="M310.324 215.962a7.5 7.5 0 0 0-7.5 7.5v2c0 4.143 3.358 7.5 7.5 7.5s7.5-3.357 7.5-7.5v-2a7.5 7.5 0 0 0-7.5-7.5zM201.676 215.962a7.5 7.5 0 0 0-7.5 7.5v2c0 4.143 3.358 7.5 7.5 7.5s7.5-3.357 7.5-7.5v-2a7.5 7.5 0 0 0-7.5-7.5zM289.75 301.924a33.917 33.917 0 0 0-8.409-17.578 35.186 35.186 0 0 0-1.178-1.239C273.71 276.653 265.128 273.1 256 273.1c-18.841 0-34.17 15.328-34.17 34.17v3.761c0 12.941 10.533 23.47 23.48 23.47h21.38c12.947 0 23.48-10.528 23.48-23.47v-3.761c0-1.139-.055-2.271-.165-3.39a34.27 34.27 0 0 0-.255-1.956zm-14.579 9.106c0 4.67-3.804 8.47-8.48 8.47h-21.38c-4.676 0-8.48-3.8-8.48-8.47v-3.761c0-10.57 8.6-19.17 19.17-19.17.64 0 1.276.031 1.905.093a19.03 19.03 0 0 1 11.652 5.521c.036.036.066.076.101.112.413.42.81.853 1.179 1.303.09.11.165.228.252.34.302.385.601.771.871 1.175.175.262.323.538.484.808.16.266.333.525.478.798.184.345.339.704.501 1.059.096.21.208.413.296.627.22.53.409 1.072.58 1.621.014.045.034.088.048.134.16.529.289 1.069.404 1.613.014.068.037.134.051.202.244 1.227.368 2.487.368 3.766v3.759z"/><path d="M375.61 288.1h10.55c19.746 0 35.81-16.064 35.81-35.81 0-13.351-7.354-25.011-18.22-31.165v-36.133c11.051-5.638 18.16-16.984 18.16-29.752v-11.47c0-17.654-13.754-32.147-31.11-33.357v-7.382c0-20.365-5.935-40.06-17.164-56.951a7.501 7.501 0 0 0-10.398-2.095 7.499 7.499 0 0 0-2.094 10.397c9.588 14.425 14.656 31.247 14.656 48.648v7.29H194.82c-4.142 0-7.5 3.357-7.5 7.5s3.358 7.5 7.5 7.5h193.63c10.179 0 18.46 8.276 18.46 18.449v11.471c0 8.104-5.185 15.175-12.925 17.601a18.315 18.315 0 0 1-5.535.849h-264.9c-1.002 0-1.994-.085-2.97-.244a18.44 18.44 0 0 1-2.587-.612c-7.718-2.418-12.903-9.488-12.903-17.593V143.77c0-10.173 8.281-18.449 18.46-18.449h41.27c4.142 0 7.5-3.357 7.5-7.5s-3.358-7.5-7.5-7.5H136.2V73.34c0-7.267 5.917-13.18 13.19-13.18h5.92l.02-.001H191c4.142 0 7.5-3.357 7.5-7.5s-3.358-7.5-7.5-7.5h-17.954c.163-.98.264-1.976.264-2.989 0-9.925-8.075-18-18-18h-7.4a4.546 4.546 0 0 1-3.237-1.344 4.55 4.55 0 0 1-1.343-3.236 4.59 4.59 0 0 1 4.58-4.59h139.86c20.124 0 39.066 6.611 54.779 19.118a7.5 7.5 0 0 0 9.342-11.736C333.495 7.739 311.322 0 287.77 0H147.91c-10.796 0-19.58 8.788-19.58 19.59a19.45 19.45 0 0 0 5.736 13.843 19.447 19.447 0 0 0 13.844 5.737h7.4c1.654 0 3 1.346 3 3 0 1.082-.546 1.79-.859 2.103a3.027 3.027 0 0 1-2.133.887h-.005l-.019.001h-5.903c-15.544 0-28.19 12.642-28.19 28.18v37.072c-17.357 1.211-31.11 15.704-31.11 33.357v11.471c0 12.774 7.116 24.125 18.16 29.755v36.13c-10.866 6.154-18.22 17.813-18.22 31.165 0 19.745 16.064 35.81 35.81 35.81h10.55v4.66c0 27.072 9.059 53.007 25.678 74.046-.653.374-1.307.737-1.958 1.132a47.611 47.611 0 0 0-1.631 1.013l-.025.016-.012.009c-23.941 15.334-38.233 41.433-38.233 69.835v65.69a7.5 7.5 0 0 0 7.5 7.5h256.58a7.5 7.5 0 0 0 7.5-7.5v-65.69c0-28.429-14.318-54.552-38.245-69.844-.544-.354-1.1-.698-1.609-1.002a94.217 94.217 0 0 0-1.995-1.172c16.613-21.038 25.668-46.967 25.668-74.033l.001-4.661zm-15.405-65.642c-.036.065-.067.133-.101.199a7.237 7.237 0 0 0-.507 1.258c-.024.079-.049.156-.07.236a7.557 7.557 0 0 0-.166.772c-4.101 26.281-17.942 49.692-38.623 65.951-1.735-31.197-27.664-56.045-59.287-56.045h-10.9c-31.623 0-57.552 24.848-59.287 56.045-20.68-16.259-34.521-39.67-38.623-65.951a7.5 7.5 0 0 0-.166-.772c-.021-.08-.047-.157-.07-.236a7.362 7.362 0 0 0-.508-1.259c-.034-.066-.065-.133-.1-.198a7.37 7.37 0 0 0-.396-.642l-.01-.016v-33.11h209.22v33.11l-.01.016a7.684 7.684 0 0 0-.396.642zM386.16 273.1h-10.55v-41.61h10.55c2.105 0 4.135.32 6.052.903.815.522 1.737.89 2.727 1.065 7.094 3.318 12.031 10.501 12.031 18.832 0 11.475-9.335 20.81-20.81 20.81zm0-56.61h-10.55v-27.8h12.84l.028-.001.272-.001v27.906a36.326 36.326 0 0 0-2.59-.104zm-262.91-27.801.272.001.028.001h12.84v27.8h-10.55c-.872 0-1.733.042-2.59.104v-27.906zm2.59 84.411c-11.475 0-20.81-9.335-20.81-20.81 0-8.331 4.938-15.514 12.031-18.832a7.439 7.439 0 0 0 2.727-1.065 20.755 20.755 0 0 1 6.051-.903h10.55v41.61H125.84zm230.1 186.07h-37.55v-9.34h37.55v9.34zm-38.56-24.34h-6.49a7.5 7.5 0 0 0-7.5 7.5v24.34a7.5 7.5 0 0 0 7.5 7.5h6.49V497H194.62v-22.83h6.49a7.5 7.5 0 0 0 7.5-7.5v-24.34a7.5 7.5 0 0 0-7.5-7.5h-31.06v-55.323c.166-.093.329-.187.497-.28l.059-.033c.372-.207.753-.406 1.153-.614.196-.103.412-.206.614-.309.886.865 1.789 1.715 2.702 2.554.228.209.461.413.691.621a121.27 121.27 0 0 0 2.558 2.249c.298.254.595.509.895.76.134.112.266.228.401.34v26.365c0 4.143 3.358 7.5 7.5 7.5s7.5-3.357 7.5-7.5v-15.715c18.471 11.109 39.427 16.925 61.38 16.925 21.954 0 42.91-5.816 61.38-16.924v39.384zm-161.32 24.34v-9.34h37.55v9.34h-37.55zm-20.85-20.36c0-18.263 7.219-35.364 19.84-47.968v43.988h-6.49a7.5 7.5 0 0 0-7.5 7.5v24.34a7.5 7.5 0 0 0 7.5 7.5h6.49V497h-19.84v-58.19zM170.05 497v-22.83h9.57V497h-9.57zm162.33 0v-22.83h9.57V497h-9.57zm44.41-58.19V497h-19.84v-22.83h6.49a7.5 7.5 0 0 0 7.5-7.5v-24.34a7.5 7.5 0 0 0-7.5-7.5h-31.06v-50.034c.136-.113.27-.231.405-.344a122.346 122.346 0 0 0 3.474-3.028c.217-.197.438-.389.654-.588.918-.843 1.825-1.696 2.714-2.565.209.107.428.211.634.318.38.198.761.397 1.167.623.173.095.349.197.522.294v33.223a7.5 7.5 0 0 0 15 0v-21.897c12.61 12.591 19.84 29.703 19.84 47.978zm-16.18-146.05c0 26.594-9.987 51.938-28.124 71.364a105.248 105.248 0 0 1-12.22 11.173c-18.511 14.44-40.733 22.073-64.267 22.073s-45.756-7.633-64.27-22.076a105.132 105.132 0 0 1-4.446-3.691 105.119 105.119 0 0 1-7.772-7.481c-18.135-19.425-28.122-44.769-28.122-71.362v-25.964a118.111 118.111 0 0 0 1.794 3.108c.177.297.359.59.539.886a118.776 118.776 0 0 0 2.005 3.189c.474.727.956 1.447 1.446 2.163.193.283.383.567.579.848a119.506 119.506 0 0 0 4.281 5.77c.222.281.45.559.674.838a117.026 117.026 0 0 0 4.094 4.82c.24.267.477.537.719.803a119.75 119.75 0 0 0 2.464 2.627l.011.011a116.3 116.3 0 0 0 2.535 2.53c.265.257.535.51.802.765a116.584 116.584 0 0 0 4.695 4.245c.282.242.561.486.846.725.924.778 1.858 1.546 2.808 2.298l.003.002a119.69 119.69 0 0 0 2.881 2.203c.303.225.61.445.916.668a115.11 115.11 0 0 0 5.263 3.628c.321.209.639.42.962.626 1.031.657 2.071 1.305 3.125 1.933a7.501 7.501 0 0 0 11.34-6.442v-10.83c0-24.471 19.909-44.38 44.38-44.38h10.9c24.471 0 44.38 19.909 44.38 44.38v10.83a7.5 7.5 0 0 0 4.691 6.953c.069.028.142.045.211.07.239.088.478.174.722.237.085.022.172.031.257.05.232.051.464.102.699.131.098.012.197.011.296.019.208.017.415.04.623.04.016 0 .031-.003.047-.003.149-.001.297-.02.445-.03.179-.012.359-.016.537-.041.158-.022.312-.063.469-.095.166-.034.334-.059.499-.104.189-.052.372-.126.557-.193.128-.046.258-.081.384-.135.308-.131.61-.283.902-.458a120.796 120.796 0 0 0 3.126-1.934c.322-.205.638-.416.958-.624a114.778 114.778 0 0 0 5.268-3.631c.304-.222.61-.44.912-.665a120.553 120.553 0 0 0 5.694-4.505c.284-.239.562-.482.843-.723a117.943 117.943 0 0 0 4.699-4.25c.267-.254.536-.506.8-.762.857-.833 1.704-1.674 2.535-2.53l.011-.011c.837-.863 1.656-1.741 2.465-2.628.242-.266.48-.536.72-.804a117.519 117.519 0 0 0 4.085-4.809c.228-.284.459-.565.685-.851.735-.931 1.46-1.87 2.167-2.822l.012-.016a120.3 120.3 0 0 0 2.095-2.921c.201-.289.396-.581.595-.871a116.435 116.435 0 0 0 3.424-5.309c.187-.308.378-.615.562-.925a121.378 121.378 0 0 0 1.784-3.091l.003-.006v25.967h-.003z"/><path d="M253.13 427.05c-.45.18-.89.41-1.29.68-.41.28-.8.59-1.14.94a7.403 7.403 0 0 0-1.63 2.43c-.18.45-.33.93-.42 1.41-.1.48-.15.97-.15 1.46s.05.98.15 1.47c.09.48.24.95.42 1.4.19.45.42.89.69 1.29.28.42.59.8.94 1.14a7.346 7.346 0 0 0 2.43 1.629c.45.181.93.33 1.41.42.48.101.97.15 1.46.15s.98-.05 1.47-.15c.47-.09.95-.239 1.4-.42a7.403 7.403 0 0 0 2.43-1.629c.35-.34.66-.72.94-1.14.27-.4.5-.84.69-1.29.18-.45.33-.92.42-1.4a7.17 7.17 0 0 0 0-2.93c-.09-.48-.24-.95-.42-1.41a7.403 7.403 0 0 0-1.63-2.43c-.34-.351-.73-.66-1.14-.94-.4-.27-.84-.5-1.29-.68-.45-.19-.93-.34-1.4-.43-.97-.2-1.97-.2-2.93 0-.48.09-.96.239-1.41.43zM262.93 468.8c-.19-.45-.42-.89-.69-1.3-.28-.41-.59-.79-.94-1.141a7.522 7.522 0 0 0-2.43-1.619c-.45-.19-.93-.33-1.4-.431-.97-.19-1.97-.19-2.94 0a7.592 7.592 0 0 0-3.83 2.05c-.35.351-.66.73-.93 1.141-.27.41-.51.85-.69 1.3-.19.45-.34.92-.43 1.4a7.246 7.246 0 0 0 0 2.93c.09.479.24.95.43 1.41.18.45.42.88.69 1.29s.58.79.93 1.14c.34.35.73.66 1.14.93a7.597 7.597 0 0 0 2.69 1.12 7.262 7.262 0 0 0 2.94 0 7.597 7.597 0 0 0 2.69-1.12c.41-.27.8-.58 1.14-.93.35-.35.66-.729.94-1.14.27-.41.5-.84.69-1.29.18-.46.33-.931.42-1.41a7.26 7.26 0 0 0 0-2.93c-.09-.48-.24-.95-.42-1.4z"/></svg>