<svg xmlns="http://www.w3.org/2000/svg" viewBox="0 0 512 512" style="enable-background:new 0 0 512 512" xml:space="preserve"><path style="fill:#f0eeee" d="M310.278 29.667c-1.015 0-2.023.03-3.026.081C296.233 16.341 277.396 7.5 255.999 7.5s-40.234 8.841-51.254 22.247a59.546 59.546 0 0 0-3.026-.081c-34.242 0-62 29.299-62 65.441s27.758 65.441 62 65.441c23.371 0 43.713-13.654 54.279-33.812 10.566 20.157 30.908 33.812 54.279 33.812 34.242 0 62-29.299 62-65.441.001-36.141-27.757-65.44-61.999-65.44z"/><path style="fill:#d9d4d4" d="M310.278 29.667c-1.015 0-2.023.03-3.026.081C296.233 16.341 277.396 7.5 255.999 7.5a75.26 75.26 0 0 0-16 1.713c14.617 3.179 27.086 10.597 35.253 20.534a59.546 59.546 0 0 1 3.026-.081c34.242 0 62 29.299 62 65.441 0 30.302-19.516 55.783-46.002 63.23a58.952 58.952 0 0 0 16.002 2.211c34.242 0 62-29.299 62-65.441 0-36.141-27.758-65.44-62-65.44z"/><path style="fill:#fa8500" d="M114.256 182.987v144.667c0 23.844 13.467 45.679 34.818 56.294 73.281 36.433 144.772 35.601 214.598.109 20.987-10.668 34.07-32.366 34.07-55.909V182.987c0-74.234-60.178-134.412-134.413-134.412h-14.66c-74.234-.001-134.413 60.178-134.413 134.412z"/><path style="fill:#ce6a06" d="M263.33 48.574h-14.661c-1.659 0-3.309.041-4.954.1 71.938 2.607 129.459 61.738 129.459 134.312v145.161c0 23.542-13.083 45.241-34.07 55.909-31.126 15.822-62.585 24.735-94.384 26.551 40.188 2.333 79.831-6.666 118.952-26.551 20.987-10.668 34.07-32.366 34.07-55.909v-145.16c0-74.234-60.178-134.413-134.412-134.413z"/><path style="fill:#fa9e3e" d="M125.838 223.99h49.369v56.61h-49.369c-15.632 0-28.305-12.673-28.305-28.305s12.673-28.305 28.305-28.305zM386.16 223.99h-49.369v56.61h49.369c15.632 0 28.305-12.673 28.305-28.305s-12.672-28.305-28.305-28.305z"/><path style="fill:#484655" d="M203.072 363.444h105.855c41.621 0 75.362 33.741 75.362 75.362V504.5H127.71v-65.694c0-41.622 33.741-75.362 75.362-75.362z"/><path style="fill:#35343f" d="M308.927 363.444h-22.632c41.621 0 75.362 33.741 75.362 75.362V504.5h22.632v-65.695c-.001-41.621-33.741-75.361-75.362-75.361z"/><path style="fill:#f0eeee" d="M357.939 441.53c-5.593-28.99-14.016-55.024-24.562-76.667-.964-1.978-2.732-3.455-4.867-3.99l-.17-.042c-5.801-1.442-10.846 4.135-8.819 9.758 7.769 21.559 13.931 47.074 17.987 75.262-54.97 10.36-109.32 10.42-163.05.19 4.056-28.264 10.228-53.845 18.015-75.453 2.019-5.603-2.993-11.207-8.774-9.773l-.167.042a7.5 7.5 0 0 0-4.912 4.004c-10.563 21.674-18.997 47.752-24.592 76.791-3.803 19.735-6.289 40.839-7.249 62.85h218.438c-.962-22.057-3.458-43.205-7.278-62.972z"/><path style="fill:#f0eeee" d="M277.219 349.5h-42.433a45.72 45.72 0 0 0-39.947 23.502c-29.066 52.261 46.849 35.453 56.523 15.498h9.272c9.716 20.04 86.236 36.907 56.147-16.168-8.047-14.196-23.243-22.832-39.562-22.832z"/><path style="fill:#fa9e3e" d="M296.849 267.73v95.35l-5.158 8.628c-16.704 27.94-57.18 27.94-73.884 0l-5.158-8.628v-95.35h84.2z"/><path style="fill:#ffb56b" d="M368.109 193.47v37.21c0 61.91-50.19 112.11-112.11 112.11s-112.11-50.2-112.11-112.11v-31.44c0-35.15 18.19-66.04 45.68-83.78 7.78 27.81 33.31 48.21 63.61 48.21h38.49c28.07 0 55.13 10.45 75.91 29.32l.53.48z"/><path style="fill:#ef9245" d="M368.109 230.68v-37.21l-.53-.48a112.826 112.826 0 0 0-22.8-16.046v65.399c0 53.578-41.949 97.354-94.794 100.286.99.052 1.983.092 2.98.119l.019.001c1.002.027 2.007.041 3.015.041 61.92 0 112.11-50.2 112.11-112.11z"/><path d="M421.969 252.29c0-12.73-6.686-23.922-16.727-30.27v-39.033c0-30.266-9.53-58.345-25.739-81.407.179-2.133.276-4.298.276-6.469 0-40.116-31.018-72.772-69.205-72.939C297.554 8.227 277.453 0 255.999 0s-41.555 8.227-54.575 22.171c-38.188.167-69.205 32.823-69.205 72.939 0 2.145.095 4.284.27 6.394-9.737 13.891-17.002 29.53-21.224 45.863a7.5 7.5 0 1 0 14.523 3.754c9.521-36.827 35.962-68.182 70.73-83.873a7.5 7.5 0 0 0 3.751-9.921 7.497 7.497 0 0 0-9.921-3.751c-15.451 6.973-29.711 16.839-41.796 28.849 5.457-25.865 27.216-45.255 53.167-45.255.822 0 1.692.024 2.66.071a7.531 7.531 0 0 0 6.164-2.729C220.584 22.294 237.576 15 255.999 15s35.416 7.294 45.455 19.512a7.508 7.508 0 0 0 6.164 2.729 53.52 53.52 0 0 1 2.661-.071c25.988 0 47.771 19.443 53.191 45.361-25.684-25.604-61.096-41.456-100.141-41.456h-14.66c-9.516 0-19.03.948-28.277 2.818a7.499 7.499 0 0 0-5.864 8.838c.821 4.061 4.78 6.679 8.838 5.865a127.902 127.902 0 0 1 25.304-2.521h14.661c69.98 0 126.913 56.933 126.913 126.912v20.62a7.503 7.503 0 0 0-.911-.999l-16.181-14.689-.011-.011-.519-.47c-22.204-20.163-50.954-31.268-80.952-31.268h-38.49c-2.453 0-4.879-.154-7.269-.455-23.099-2.906-42.741-19.476-49.122-42.288a58.344 58.344 0 0 1-2.169-15.816v-7.28c0-4.143-3.358-7.5-7.5-7.5s-7.5 3.357-7.5 7.5v7.28c0 4.922.493 9.806 1.456 14.577-28.074 20.137-44.686 52.286-44.686 87.053v17.25h-10.55c-1.375 0-2.735.082-4.08.234V182.99c0-1.116.009-2.213.038-3.319a7.5 7.5 0 0 0-7.307-7.688l-.194-.002a7.5 7.5 0 0 0-7.494 7.309 146.594 146.594 0 0 0-.042 3.7v39.018c-10.298 6.49-16.73 17.896-16.73 30.282 0 12.399 6.44 23.814 16.73 30.294v45.066c0 24.166 12.048 46.095 31.94 58.989-11.922 14.702-18.489 33.193-18.489 52.171v65.69a7.5 7.5 0 0 0 7.5 7.5h256.58c4.143 0 7.5-3.357 7.5-7.5v-65.69c0-33.58-20.532-64.007-51.407-76.688-.09-.187-.176-.372-.267-.56-1.953-3.987-5.515-6.891-9.771-7.965l-.076-.019a9.37 9.37 0 0 0-.265-.063c-4.626-1.105-9.301.031-12.804 2.844a81.853 81.853 0 0 0-3.848-.299 52.234 52.234 0 0 0-9.002-6.665v-9.29c24.081-10.638 43.918-28.865 56.593-52.005h25.217c1.381 0 2.742-.087 4.083-.24v40.287c0 11.895-3.695 23.237-10.686 32.801a7.5 7.5 0 0 0 6.049 11.926 7.488 7.488 0 0 0 6.061-3.075c8.882-12.15 13.576-26.554 13.576-41.652V282.57c10.038-6.351 16.724-17.546 16.724-30.28zm-37.682-36.63a7.483 7.483 0 0 0 5.555-2.458c.143-.158.273-.323.4-.489v4.016a35.984 35.984 0 0 0-4.083-.24h-10.55v-6.08l3.638 3.303a7.468 7.468 0 0 0 5.04 1.948zm-266.933 17.641c2.652-1.201 5.507-1.811 8.485-1.811h10.553c.013 1.961.076 3.913.181 5.855.017.308.038.615.057.923.047.764.101 1.527.162 2.288.027.331.053.662.083.993.075.842.159 1.681.252 2.519.023.206.042.412.065.617.12 1.037.254 2.071.401 3.102.036.251.077.502.114.753a116.863 116.863 0 0 0 .975 5.618c.055.276.107.552.163.827.209 1.017.43 2.031.666 3.041.032.138.068.276.101.414.207.873.425 1.743.652 2.611.082.312.167.622.251.933.195.722.398 1.441.607 2.159.09.308.178.615.27.922.268.89.545 1.778.833 2.663.034.103.065.207.099.311.324.982.664 1.96 1.014 2.935.103.286.21.571.315.856.156.423.306.847.467 1.269h-18.281c-2.977 0-5.831-.609-8.512-1.824a20.836 20.836 0 0 1-12.298-18.986c0-8.178 4.827-15.627 12.325-18.988zm4.405 94.349v-39.784c1.345.152 2.705.234 4.08.234h25.225c12.202 22.258 31.151 40.081 54.085 50.864v12.09a53.144 53.144 0 0 0-6.339 4.997c-1.343.069-2.68.178-4.013.31a14.827 14.827 0 0 0-12.894-2.833 8.528 8.528 0 0 0-.348.095c-4.226 1.097-7.747 3.986-9.683 7.959l-.274.571a81.753 81.753 0 0 0-10.621 5.267 82.777 82.777 0 0 0-11.537 8.214c-17.155-9.852-27.681-27.938-27.681-47.984zm102.475 18.377c.255.07.511.136.766.204 1.136.304 2.276.592 3.42.863.226.053.45.11.676.162 1.289.296 2.583.569 3.881.822.293.057.587.11.881.165 1.167.218 2.337.421 3.511.604.19.03.379.063.57.092 1.311.198 2.627.37 3.946.525.314.037.629.07.944.105 1.24.135 2.483.255 3.73.352.117.009.233.021.349.03a122.257 122.257 0 0 0 5.002.263c1.36.045 2.722.076 4.089.076a122.495 122.495 0 0 0 4.714-.098c1.255-.048 2.507-.11 3.756-.197l.159-.013a123.49 123.49 0 0 0 3.607-.316c.301-.031.602-.061.902-.094a120.89 120.89 0 0 0 3.706-.457c.095-.013.189-.03.283-.043 1.156-.166 2.309-.352 3.459-.551.289-.05.578-.1.866-.153a119.29 119.29 0 0 0 3.658-.717c.119-.025.237-.054.356-.08 1.122-.244 2.241-.507 3.356-.783.272-.068.545-.134.817-.204a119.41 119.41 0 0 0 3.609-.978l.102-.028V361.003l-.476.797-3.62 6.062-.043.069a37.152 37.152 0 0 1-1.138 1.773c-.103.152-.212.298-.317.448a37.718 37.718 0 0 1-1.291 1.729 37.01 37.01 0 0 1-1.345 1.599l-.004.004a35.046 35.046 0 0 1-12.75 9.009c-.16.065-.323.126-.484.189a34.043 34.043 0 0 1-2.344.825c-.246.078-.494.149-.742.221a34.53 34.53 0 0 1-1.404.381l-.081.019a35.113 35.113 0 0 1-2.96.588c-.125.02-.25.043-.376.061a34.588 34.588 0 0 1-2.334.261 37.513 37.513 0 0 1-2.463.113c-.25.003-.5.006-.75.003a36.794 36.794 0 0 1-1.73-.055c-.348-.02-.696-.051-1.044-.081a43.729 43.729 0 0 1-.728-.07c-.383-.042-.766-.083-1.148-.137a35.342 35.342 0 0 1-5.658-1.257c-.076-.024-.153-.044-.229-.069a35.406 35.406 0 0 1-1.54-.533c-.145-.053-.29-.105-.435-.161a34.357 34.357 0 0 1-1.905-.799 35.138 35.138 0 0 1-1.385-.662c-.143-.073-.284-.149-.426-.224a35.524 35.524 0 0 1-1.393-.765c-.079-.046-.156-.096-.235-.143a35.028 35.028 0 0 1-4.331-3.044c-.107-.088-.217-.17-.322-.259-.344-.29-.678-.594-1.011-.897-.196-.178-.393-.354-.585-.537a34.895 34.895 0 0 1-.864-.857 36.218 36.218 0 0 1-1.413-1.524 36.25 36.25 0 0 1-.713-.847c-.214-.26-.427-.52-.634-.788-.27-.35-.53-.71-.789-1.071-.16-.223-.324-.441-.479-.668-.409-.6-.806-1.211-1.182-1.841l-4.099-6.863v-16.173c.083.026.167.047.249.073 1.273.396 2.552.772 3.836 1.125zm126.34 96.926c.05.257.094.517.143.774a383.59 383.59 0 0 1 1.137 6.21c.149.855.286 1.719.43 2.578.254 1.515.506 3.031.744 4.557.151.968.292 1.942.436 2.914.213 1.434.422 2.871.62 4.314a480.351 480.351 0 0 1 .942 7.345c.12 1.006.239 2.013.352 3.022.167 1.489.324 2.984.477 4.48.098.964.199 1.926.29 2.892.155 1.632.295 3.271.432 4.911.07.836.147 1.67.212 2.508.175 2.251.333 4.509.475 6.773.014.229.033.456.047.685l.004.083H154.682l.004-.068c.013-.215.031-.429.044-.644.142-2.275.301-4.543.477-6.805.064-.825.14-1.646.208-2.469.138-1.649.279-3.297.435-4.939.09-.95.189-1.896.285-2.844.154-1.515.312-3.027.481-4.534a415.289 415.289 0 0 1 .892-7.355c.126-.972.253-1.944.386-2.912.205-1.494.421-2.982.641-4.467.136-.917.269-1.835.41-2.749.251-1.615.516-3.219.784-4.822.128-.766.25-1.536.382-2.298.409-2.355.834-4.7 1.282-7.027 5.17-26.85 12.742-51.018 22.533-71.892.466-1.019.952-2.037 1.395-3.033l.074-.019c-.196.544-.386 1.099-.579 1.647-.302.853-.606 1.702-.902 2.565-.219.639-.432 1.291-.649 1.935-.267.795-.537 1.584-.799 2.387-.22.673-.433 1.358-.649 2.037-.252.788-.507 1.571-.754 2.367-.211.679-.415 1.37-.623 2.054-.245.808-.494 1.611-.735 2.426-.2.677-.393 1.367-.59 2.049-.241.836-.486 1.666-.722 2.509-.179.639-.352 1.289-.529 1.933-.247.899-.497 1.794-.739 2.702-.174.653-.341 1.317-.512 1.975-.237.908-.476 1.812-.707 2.729-.173.684-.338 1.378-.508 2.066-.223.905-.449 1.805-.667 2.717-.158.659-.308 1.329-.463 1.992-.222.951-.447 1.898-.664 2.857-.135.599-.264 1.207-.397 1.809-.23 1.039-.462 2.074-.685 3.123-.076.356-.148.718-.223 1.075-.274 1.3-.546 2.601-.81 3.915-.077.383-.149.772-.225 1.155-.59 2.98-1.16 5.989-1.7 9.04-.022.127-.043.256-.066.383a492.012 492.012 0 0 0-2.462 15.401 7.5 7.5 0 0 0 6.021 8.434c1.697.323 3.396.636 5.096.939.401.072.803.137 1.204.207 1.296.227 2.592.454 3.889.669.654.108 1.308.209 1.963.314 1.048.169 2.095.341 3.144.503.689.106 1.38.203 2.07.306 1.015.151 2.029.306 3.045.45.698.099 1.397.189 2.095.285 1.009.138 2.017.279 3.026.41.723.094 1.447.179 2.171.269.984.123 1.969.249 2.954.365.759.09 1.519.17 2.279.255.951.107 1.9.218 2.852.318.787.083 1.576.158 2.364.237.924.093 1.848.189 2.773.276.822.077 1.645.145 2.468.218.89.079 1.78.161 2.67.234.849.07 1.698.13 2.547.195.867.066 1.734.136 2.602.197.854.06 1.71.111 2.564.166.863.055 1.726.115 2.59.165.856.05 1.713.091 2.569.136.864.045 1.727.094 2.591.134.857.04 1.714.071 2.57.105.865.035 1.729.074 2.595.104s1.732.051 2.598.076c.855.025 1.711.053 2.567.073.874.02 1.749.031 2.624.046.85.014 1.7.033 2.55.042.879.01 1.759.011 2.638.015.767.004 1.533.013 2.3.013l.233-.001c.946 0 1.893-.01 2.84-.017.791-.006 1.582-.007 2.374-.017.956-.012 1.912-.033 2.869-.051.781-.015 1.562-.025 2.343-.044.966-.023 1.932-.056 2.899-.086.774-.024 1.547-.043 2.322-.071.965-.035 1.931-.079 2.896-.12.776-.033 1.551-.061 2.327-.098.963-.046 1.926-.101 2.889-.153.779-.042 1.557-.08 2.336-.126.976-.058 1.953-.126 2.93-.19.764-.05 1.528-.096 2.293-.15.975-.069 1.949-.148 2.924-.224.77-.06 1.54-.115 2.311-.179.975-.081 1.951-.171 2.927-.259.766-.068 1.532-.132 2.299-.204.995-.094 1.99-.198 2.985-.299.749-.076 1.498-.147 2.247-.226.999-.106 1.999-.222 2.998-.335.745-.084 1.49-.163 2.235-.251 1.006-.119 2.012-.248 3.018-.373.739-.092 1.477-.179 2.216-.275 1.021-.133 2.042-.275 3.063-.415.724-.099 1.447-.192 2.17-.294 1.039-.147 2.078-.305 3.117-.459.706-.104 1.412-.204 2.117-.312 1.081-.166 2.161-.342 3.242-.515.664-.107 1.328-.207 1.992-.317 1.192-.197 2.383-.404 3.574-.61.553-.095 1.106-.186 1.658-.283 1.744-.308 3.488-.627 5.232-.955a7.499 7.499 0 0 0 6.035-8.439c-2.016-13.998-4.534-27.343-7.529-39.962-.05-.212-.098-.428-.149-.64-.288-1.205-.585-2.397-.882-3.589-.098-.392-.192-.791-.29-1.182-.242-.958-.492-1.903-.74-2.852-.161-.616-.317-1.238-.48-1.85-.2-.75-.407-1.489-.611-2.233-.218-.798-.433-1.603-.655-2.394-.177-.632-.362-1.254-.542-1.882-.255-.891-.508-1.786-.769-2.668-.156-.528-.318-1.046-.476-1.571-.292-.972-.583-1.948-.882-2.909-.12-.386-.244-.763-.365-1.147-.343-1.089-.686-2.179-1.037-3.255-.096-.294-.196-.582-.293-.875a284.962 284.962 0 0 0-1.156-3.453c-.059-.173-.121-.342-.181-.515a303.793 303.793 0 0 0-1.291-3.678l.025.007-.001.003a221.63 221.63 0 0 1 1.466 3.076c3.046 6.5 5.879 13.326 8.492 20.458 5.748 15.692 10.432 32.859 13.984 51.286zm-47.505-75.668a.008.008 0 0 0 .002-.004l.114-.186a36.992 36.992 0 0 1 7.07 8.934c3.005 5.301 9.383 18.06 3.728 22.039-6.315 4.442-23.224 1.879-35.196-3.898.075-.04.146-.087.22-.128.891-.484 1.77-.989 2.628-1.527.115-.072.225-.152.34-.225a49.098 49.098 0 0 0 2.189-1.481c.267-.191.528-.39.791-.587a49.44 49.44 0 0 0 1.684-1.315c.263-.215.525-.429.784-.649.61-.52 1.206-1.057 1.791-1.607.163-.153.332-.299.493-.455a50.329 50.329 0 0 0 2.136-2.195c.181-.198.354-.405.532-.606a51.019 51.019 0 0 0 1.501-1.767c.154-.191.312-.378.464-.572.07-.089.134-.185.204-.275.447-.576.881-1.165 1.305-1.763.147-.207.302-.404.446-.614.051-.074.098-.152.148-.227a54.213 54.213 0 0 0 1.684-2.622l4.942-8.27zm25.932 72.478c-48.995 8.422-98.051 8.487-146.038.199 1.659-10.446 3.612-20.475 5.843-30.059.149.112.286.229.44.339 4.965 3.548 11.626 5.048 18.864 5.048 15.48 0 33.587-6.865 43.33-15.232.175.011.354.008.53.017.826.046 1.652.074 2.478.079.101.001.2.01.301.01h.001c.131 0 .259-.012.389-.012a50.804 50.804 0 0 0 2.469-.079c.417-.023.831-.056 1.245-.089.49-.04.978-.087 1.466-.141 6.467 5.706 16.575 10.677 27.537 13.394 4.119 1.021 9.97 2.117 16.107 2.117 6.465 0 13.248-1.217 18.652-5.02.201-.142.382-.291.575-.436 2.216 9.528 4.16 19.491 5.811 29.865zm-121.728-71.06 4.099 6.856a51.885 51.885 0 0 0 1.686 2.625c.076.111.151.223.228.334.153.22.318.428.474.645a48.991 48.991 0 0 0 1.638 2.178c.151.188.308.368.461.553a53.73 53.73 0 0 0 1.844 2.122l.33.355c.232.246.469.485.705.725.433.443.87.881 1.318 1.307.096.091.19.185.286.275.102.096.211.183.314.278l.079.07c.526.482 1.055.96 1.599 1.418.038.032.078.061.116.093.137.115.28.223.418.337a51.181 51.181 0 0 0 3.163 2.382 49.974 49.974 0 0 0 2.764 1.782c.038.022.074.046.112.069.841.5 1.697.973 2.566 1.423l.244.128c.083.042.163.087.246.129-11.919 5.422-27.892 7.617-33.996 3.253-5.473-3.911.572-16.263 3.427-21.395a38.1 38.1 0 0 1 5.865-7.929l.014-.013zm-72.064 70.107c0-15.757 5.516-31.106 15.529-43.219a68.065 68.065 0 0 1 11.218-10.786c-.079.21-.152.427-.23.637a297.568 297.568 0 0 0-2.04 5.657c-.082.235-.16.475-.241.71a307.88 307.88 0 0 0-2.285 6.884 327.215 327.215 0 0 0-1.583 5.097c-.096.318-.196.632-.291.952a329.454 329.454 0 0 0-1.736 6.044c-.153.549-.301 1.103-.452 1.655a356.148 356.148 0 0 0-1.303 4.921c-.134.522-.271 1.04-.403 1.565a370.451 370.451 0 0 0-1.529 6.286c-.1.429-.196.864-.295 1.294-.405 1.76-.799 3.533-1.183 5.316-.129.602-.259 1.203-.386 1.807a405.055 405.055 0 0 0-1.336 6.601 406.043 406.043 0 0 0-1.337 7.327c-.139.801-.266 1.61-.4 2.413a395.577 395.577 0 0 0-.814 5.005c-.149.961-.287 1.928-.43 2.893a450.083 450.083 0 0 0-.663 4.619c-.14 1.022-.272 2.048-.405 3.074a441.035 441.035 0 0 0-.927 7.674c-.17 1.519-.33 3.041-.485 4.567-.105 1.042-.211 2.083-.309 3.127a430.271 430.271 0 0 0-.417 4.741c-.083.994-.17 1.985-.247 2.981a467.405 467.405 0 0 0-.366 5.218c-.056.849-.119 1.695-.17 2.545-.012.194-.027.387-.039.581h-4.445V438.81zm241.58 0V497h-4.444c-.011-.195-.027-.389-.039-.585-.052-.868-.117-1.731-.174-2.597a462.044 462.044 0 0 0-.364-5.188c-.077-1.002-.165-1.998-.248-2.997a457.12 457.12 0 0 0-.418-4.746c-.099-1.049-.205-2.094-.311-3.14a449.294 449.294 0 0 0-.851-7.726 466.964 466.964 0 0 0-.566-4.531c-.134-1.031-.267-2.061-.408-3.088a424.036 424.036 0 0 0-.665-4.619c-.144-.969-.283-1.941-.433-2.907-.26-1.671-.536-3.332-.815-4.991-.137-.813-.265-1.63-.406-2.44a405.192 405.192 0 0 0-1.343-7.334 395.775 395.775 0 0 0-1.715-8.369 375.194 375.194 0 0 0-1.191-5.35c-.095-.414-.187-.832-.284-1.245a366.242 366.242 0 0 0-1.536-6.311c-.125-.495-.254-.985-.381-1.478a353.437 353.437 0 0 0-1.324-4.999c-.145-.532-.289-1.066-.436-1.596a333.17 333.17 0 0 0-1.746-6.078c-.081-.271-.166-.538-.247-.808a317.034 317.034 0 0 0-2.154-6.875 315.835 315.835 0 0 0-1.738-5.193c-.081-.233-.158-.47-.239-.703a299.879 299.879 0 0 0-2.045-5.679c-.073-.197-.142-.401-.215-.598 16.504 12.64 26.736 32.524 26.736 53.981zm-82.676-110.683c-12.131 4.753-24.954 7.163-38.113 7.163-3.509 0-6.991-.17-10.441-.51a105.53 105.53 0 0 1-3.281-.382 103.36 103.36 0 0 1-26.085-6.953c-.213-.088-.427-.17-.639-.259l-.002-.001c-23.131-9.707-42.042-27.44-53.249-49.929-7.241-14.531-10.913-30.202-10.913-46.576v-31.439c0-28.238 12.74-54.479 34.497-71.899.129.292.27.576.402.865.164.358.328.716.498 1.071.252.526.512 1.046.776 1.565.167.329.331.659.502.985.298.565.607 1.121.919 1.677.151.27.297.542.452.81.444.768.902 1.528 1.373 2.278.03.047.057.096.087.144a74.136 74.136 0 0 0 1.564 2.373c.15.219.308.431.46.648.389.553.78 1.104 1.182 1.645.203.272.412.539.619.808.366.477.734.953 1.111 1.42.228.283.461.562.694.842a70.99 70.99 0 0 0 5.026 5.464c.25.245.497.493.75.735.455.435.919.861 1.385 1.284.225.204.446.412.673.614a72.687 72.687 0 0 0 1.791 1.533c.112.094.222.191.335.284a74.908 74.908 0 0 0 2.22 1.753c.155.117.314.228.469.344a76.24 76.24 0 0 0 1.789 1.301c.259.182.524.356.785.535.509.348 1.02.693 1.538 1.028.298.193.599.379.9.568.493.309.988.614 1.488.912.317.189.637.373.957.557.495.285.994.564 1.496.836.327.178.654.354.984.527.511.268 1.026.528 1.543.784.325.161.649.323.976.479.547.261 1.099.511 1.652.758.303.136.605.276.91.407.638.275 1.283.536 1.929.793.226.09.45.186.677.274.881.34 1.769.665 2.664.972.126.043.254.08.38.123.764.257 1.532.505 2.306.738.308.092.619.175.928.264.599.171 1.198.34 1.802.497.357.093.717.177 1.076.264.564.137 1.129.27 1.697.394.379.083.759.159 1.14.236a71.584 71.584 0 0 0 4.533.763c.389.053.777.106 1.167.153.584.07 1.171.128 1.759.184.373.036.744.075 1.118.105a73.65 73.65 0 0 0 1.943.122c.318.017.634.041.953.053.969.039 1.94.061 2.916.061h38.49c1.54 0 3.076.036 4.608.103l.194.007c1.481.067 2.957.169 4.429.297.114.01.228.017.342.028 1.434.13 2.862.293 4.285.481.148.02.296.036.444.057 1.395.19 2.783.411 4.165.656.172.031.345.059.518.091 1.361.248 2.714.526 4.062.827.189.042.379.083.568.126 1.332.306 2.657.639 3.975.996.197.053.395.106.592.161a105.195 105.195 0 0 1 12.7 4.412l.568.242c1.253.536 2.496 1.095 3.728 1.679l.522.251c1.242.598 2.473 1.218 3.691 1.865l.462.249c1.232.662 2.454 1.346 3.661 2.058.13.077.258.156.387.233 1.228.731 2.444 1.485 3.644 2.268.094.061.187.125.281.187 1.23.808 2.447 1.64 3.646 2.501l.153.112a106.006 106.006 0 0 1 7.26 5.734l.056.047v33.843c0 4.094-.229 8.143-.687 12.142-1.372 11.996-4.795 23.535-10.226 34.433-11.628 23.324-31.368 41.39-55.586 50.869zm92.046-55.026h-18.281c.156-.41.303-.822.454-1.233.111-.303.225-.605.335-.909.346-.964.682-1.931 1.002-2.902.046-.141.089-.282.134-.423.275-.845.54-1.692.796-2.543.099-.328.194-.658.289-.987.201-.691.396-1.384.585-2.079.091-.334.182-.667.269-1.001.215-.823.421-1.649.619-2.478.043-.18.09-.36.132-.54.232-.995.45-1.993.656-2.994.063-.304.12-.61.181-.915a113.983 113.983 0 0 0 .951-5.482c.042-.283.088-.566.129-.85.144-1.016.276-2.034.395-3.055.028-.242.05-.485.077-.727a126.974 126.974 0 0 0 .329-3.465c.059-.73.11-1.463.156-2.196.021-.333.043-.667.061-1.001.055-1.019.1-2.04.13-3.063l.005-.211c.023-.85.039-1.701.044-2.555h10.553c11.475 0 20.81 9.331 20.81 20.8-.001 11.473-9.336 20.809-20.811 20.809z"/><path d="M287.936 260.31a7.5 7.5 0 0 0-10.435 1.896c-4.891 7.063-12.928 11.278-21.501 11.278s-16.611-4.216-21.501-11.278a7.5 7.5 0 0 0-12.332 8.539A41.165 41.165 0 0 0 256 288.484a41.168 41.168 0 0 0 33.833-17.739 7.5 7.5 0 0 0-1.897-10.435zM310.322 215.962a7.5 7.5 0 0 0-7.5 7.5v2a7.5 7.5 0 0 0 7.5 7.5c4.143 0 7.5-3.357 7.5-7.5v-2c0-4.143-3.357-7.5-7.5-7.5zM201.676 215.962a7.5 7.5 0 0 0-7.5 7.5v2c0 4.143 3.358 7.5 7.5 7.5s7.5-3.357 7.5-7.5v-2a7.5 7.5 0 0 0-7.5-7.5z"/></svg>