<svg height="512pt" viewBox="0 0 512.024 512" width="512pt" xmlns="http://www.w3.org/2000/svg"><path d="M419.242 328.547c0 96.594-84.992 174.93-209.918 174.93-4.437 0-8.789-.082-13.058-.34-106.836-4.778-174.934-68.61-186.11-150.442l10.496-14.422 13.48-82.261a73.89 73.89 0 0 1 20.223-6.657 91.955 91.955 0 0 1 53.165 8.536 82.081 82.081 0 0 1 11.945 6.656c9.996-6 21.07-9.973 32.597-11.692a78.619 78.619 0 0 1 48.473 7.422l21.332 45.485 8.531 19.027c21.336 27.563 31.403 45.996 60.418 49.836 4.094.61 8.235.895 12.372.852 42.07 0 70.402-22.954 89.94-58.536a230.134 230.134 0 0 0 15.618-35.246h2.133a133.754 133.754 0 0 1 8.363 46.852zm0 0" fill="#558b30"/><path d="M393.645 328.547c0 93.351-79.364 169.64-197.38 174.59-106.835-4.778-174.933-68.61-186.109-150.442l10.496-14.422 13.48-82.261a73.89 73.89 0 0 1 20.223-6.657 104.37 104.37 0 0 1 39.512 15.192 74.295 74.295 0 0 1 13.653-6.656 85.432 85.432 0 0 1 44.542-5.036 79.332 79.332 0 0 1 22.872 7.422l21.332 45.485 8.535 19.027c24.148 31.148 33.875 50.688 72.789 50.688a94.21 94.21 0 0 0 13.226-.852c4.094.61 8.235.895 12.371.852 42.07 0 70.403-22.954 89.942-58.536.344 3.84.516 7.68.516 11.606zm0 0" fill="#8bc34a"/><path d="M197.887 41.059a110.581 110.581 0 0 0-78.422-32.512c-4.278-.008-8.55.25-12.797.765C50.738 15.81 8.547 63.176 8.535 119.478l-.004 136.535a31.191 31.191 0 0 1 1.114-8.535c3.867-15.075 17.457-25.61 33.023-25.598h153.598a31.187 31.187 0 0 1 8.535 1.11 34.07 34.07 0 0 1 24.488 24.488 31.342 31.342 0 0 1 1.113 8.535l-.004-136.535a110.579 110.579 0 0 0-32.511-78.418zm0 0" fill="#c52828"/><path d="M172.29 41.059a110.361 110.361 0 0 0-65.622-31.746C50.738 15.809 8.547 63.175 8.535 119.477v103.511a31.14 31.14 0 0 1 8.531-1.11h153.602c15.562-.01 29.156 10.524 33.023 25.599a31.339 31.339 0 0 1 1.11 8.535V119.477a110.612 110.612 0 0 0-32.512-78.418zm0 0" fill="#f44335"/><path d="M93.867 159.305h51.2v91.023h-51.2zm0 0" fill="#bfa885"/><path d="M230.398 256.012v95.062l-57.683 57.684c-6.656 6.617-17.406 6.617-24.063 0a3.347 3.347 0 0 1-.683-.852c-6.035-6.699-5.735-16.96.683-23.297l47.614-47.617v-72.445a67.478 67.478 0 0 0-44.203-6.402 75.152 75.152 0 0 0-32.598 14.933 67.279 67.279 0 0 0-12.797-8.191 69.459 69.459 0 0 0-64-.34v72.445l47.613 47.617c6.125 6.73 5.887 17.082-.535 23.528-6.422 6.445-16.773 6.718-23.527.62L8.535 351.075v-95.062a31.038 31.038 0 0 1 1.11-8.535c3.867-15.075 17.457-25.61 33.023-25.598h153.598c15.566-.012 29.156 10.523 33.023 25.598a31.188 31.188 0 0 1 1.11 8.535zm0 0" fill="#bfa885"/><path d="M503.465 205.41c-3.922 77.824-84.395 76.883-92.586 76.285h-2.133a88.48 88.48 0 0 1-11.008-.254c-24.406-1.707-78.847-13.312-82.004-76.628a8.104 8.104 0 0 1 2.364-6.172 8.095 8.095 0 0 1 6.168-2.364h65.023a8.622 8.622 0 0 1 5.977 2.477l1.789 3.414 9.816 18.43a4.107 4.107 0 0 0 2.984 1.28c1.13 0 2.211-.46 2.989-1.28l11.605-21.844a8.613 8.613 0 0 1 5.973-2.477h64.512c2.363.012 4.62 1 6.234 2.727a8.583 8.583 0 0 1 2.297 6.406zm0 0" fill="#2e7d32"/><path d="M204.8 256.012v95.062l-56.831 56.832c-6.035-6.699-5.735-16.96.683-23.297l47.614-47.617v-72.445a67.478 67.478 0 0 0-44.203-6.402c-18.942-3.754-22.184 1.453-32.598 6.742a115.617 115.617 0 0 0-58.195-6.742c-12.458-2.473-2.047-1.875-18.602 6.402v72.445l47.613 47.617a17.005 17.005 0 0 1 5.035 12.032c0 4.097-24.148 18.347-27.05 21.504l-58.11-65.45-1.62-1.62v-95.063a31.038 31.038 0 0 1 1.109-8.535c3.867-15.075 17.457-25.61 33.023-25.598h128c15.562-.012 29.156 10.523 33.023 25.598a31.339 31.339 0 0 1 1.11 8.535zm0 0" fill="#ffecb3"/><path d="M477.867 205.41c-3.156 62.293-55.21 74.067-80.129 76.031-24.406-1.707-78.847-13.312-82.004-76.628a8.104 8.104 0 0 1 2.364-6.172 8.095 8.095 0 0 1 6.168-2.364h39.425a8.62 8.62 0 0 1 5.973 2.477l11.606 21.844a4.116 4.116 0 0 0 2.988 1.28c1.129 0 2.207-.46 2.984-1.28l9.813-18.43 9.816 18.43a4.107 4.107 0 0 0 2.984 1.28c1.13 0 2.211-.46 2.989-1.28l11.605-21.844a8.613 8.613 0 0 1 5.973-2.477h38.91c2.367.012 4.621 1 6.238 2.727a8.598 8.598 0 0 1 2.297 6.406zm0 0" fill="#4caf50"/><path d="M341.332 68.277c0 9.426-7.64 17.067-17.066 17.067s-17.067-7.64-17.067-17.067c0-9.425 7.64-17.066 17.067-17.066s17.066 7.64 17.066 17.066zM460.8 110.945c0 9.426-7.64 17.067-17.066 17.067s-17.066-7.64-17.066-17.067c0-9.425 7.64-17.066 17.066-17.066s17.067 7.64 17.067 17.066zm0 0" fill="#00bcd4"/><path d="M179.2 107.875v20.137c0 32.988-26.743 59.734-59.735 59.734-32.988 0-59.73-26.746-59.73-59.734v-20.137c52.648-12.8 59.73-48.129 59.73-48.129s7.086 35.328 59.734 48.129zm0 0" fill="#ffecb3"/><path d="M2.023 356.398c13.524 92.91 94.95 155.614 207.29 155.614 124.535 0 218.453-78.875 218.453-183.465a142.961 142.961 0 0 0-5.262-38.52 106.627 106.627 0 0 0 62.555-23.613A82.937 82.937 0 0 0 512 205.852a17.318 17.318 0 0 0-4.71-12.797 16.835 16.835 0 0 0-12.356-5.309h-64.532c-4.5.012-8.816 1.8-12.004 4.984a8.553 8.553 0 0 0-1.503 2.02l-7.047 13.277-7.075-13.277a8.448 8.448 0 0 0-1.503-2.02 17.062 17.062 0 0 0-11.989-4.984h-65.015a17.147 17.147 0 0 0-12.602 5.266 16.38 16.38 0 0 0-4.465 12.226 83.256 83.256 0 0 0 27.051 60.688 107.196 107.196 0 0 0 62.293 24.008c-21.078 52.46-50.941 77.011-93.363 77.011-30.207 0-39.551-12.39-58.18-37.07-1.91-2.559-3.977-5.238-6.066-7.96V119.476C238.934 53.5 185.445.012 119.464.012 53.489.012 0 53.5 0 119.477v231.597a8.631 8.631 0 0 0 .656 3.258c.352.754.813 1.45 1.367 2.066zm66.243-241.996a89.037 89.037 0 0 0 51.199-34.793 89.059 89.059 0 0 0 51.203 34.793v13.61c0 28.277-22.926 51.199-51.203 51.199-28.274 0-51.2-22.922-51.2-51.2zm51.199 81.875a67.89 67.89 0 0 0 17.07-2.242v19.309h-34.137v-19.309a67.86 67.86 0 0 0 17.067 2.242zm76.8 34.133c11.739-.004 21.973 7.988 24.81 19.38.554 2.026.82 4.12.792 6.222v91.527l-55.187 55.188a8.529 8.529 0 0 1-11.645-.395 8.534 8.534 0 0 1-.394-11.648l47.66-47.633a8.681 8.681 0 0 0 2.5-6.059v-80.98a8.49 8.49 0 0 0-6.57-8.305 8.49 8.49 0 0 0-9.551 4.574 79.113 79.113 0 0 0-69.215 10.192 79.16 79.16 0 0 0-69.203-10.18 8.481 8.481 0 0 0-16.129 3.719v80.98a8.678 8.678 0 0 0 2.5 6.043l47.66 47.66A8.527 8.527 0 0 1 87 399.16a8.532 8.532 0 0 1-14.75 3.567l-53.91-53.914a173.17 173.17 0 0 1-1.274-20.266v-72.535a23.04 23.04 0 0 1 .856-6.426c2.887-11.3 13.082-19.2 24.746-19.176zm128-25.597h64.524l10.57 19.789a8.673 8.673 0 0 0 1.36 1.875c5.086 5.003 13.246 5.003 18.336 0a8.436 8.436 0 0 0 1.355-1.875l10.473-19.79 64.05.172a66.56 66.56 0 0 1-21.18 48.637c-24.534 21.676-61.925 19.629-62.292 19.559h-.64c-.356 0-.708.02-1.06.07a7.56 7.56 0 0 0-1.425-.043h-.238c-.36 0-37.657 2.012-62.559-20.035a66.503 66.503 0 0 1-21.273-48.36zM303.18 384.012c47.011 0 81.605-25.89 105.328-78.832a127.45 127.45 0 0 1 2.183 23.367c0 94.863-86.57 166.398-201.386 166.398-92.297 0-161.86-45.515-184.407-115.437l35.29 35.285a25.605 25.605 0 0 0 25.117 7.48 25.604 25.604 0 0 0 18.535-18.535 25.614 25.614 0 0 0-7.48-25.12L51.2 333.46v-63.336a63.006 63.006 0 0 1 62.644 9.387 8.3 8.3 0 0 0 1.476.855c.297.203.606.39.93.555a8.511 8.511 0 0 0 3.215.691 8.507 8.507 0 0 0 3.219-.683c.32-.164.632-.352.93-.555a8.3 8.3 0 0 0 1.476-.855 63.55 63.55 0 0 1 62.644-9.387v63.328l-45.16 45.156c-9.293 10.102-8.972 25.735.735 35.442 9.707 9.703 25.34 10.027 35.437.734l57.688-57.688a8.631 8.631 0 0 0 2.5-6.031v-1.043c15.847 20.2 30.718 33.98 64.246 33.98zM119.465 17.078c56.539.04 102.363 45.863 102.402 102.399v102.445a42.56 42.56 0 0 0-25.601-8.535h-42.664v-25.64c0-.224-.114-.411-.13-.626a68.265 68.265 0 0 0 34.262-59.11v-9.831c2.473.43 4.848.906 7.473 1.23.352.047.707.07 1.059.067a8.53 8.53 0 0 0 8.492-8.004 8.534 8.534 0 0 0-7.442-8.993c-60.527-7.57-69.12-42.804-69.504-44.476 0-.203-.18-.348-.23-.547a8.71 8.71 0 0 0-1.059-2.48 8.087 8.087 0 0 0-1.468-1.477 7.657 7.657 0 0 0-.852-.855 8.427 8.427 0 0 0-6.441-1.262 8.618 8.618 0 0 0-3.075 1.289c-.406.328-.777.7-1.109 1.101-.445.36-.848.77-1.203 1.22a8.454 8.454 0 0 0-1.29 3.062c-.073.367-8.038 36.695-69.495 44.375a8.544 8.544 0 0 0-7.113 4.726 8.544 8.544 0 0 0 .539 8.528 8.535 8.535 0 0 0 7.652 3.793c.355.003.71-.02 1.066-.067 2.63-.324 5-.8 7.473-1.23v9.832a68.265 68.265 0 0 0 34.262 59.11c0 .214-.125.401-.125.624v25.598H42.668a42.67 42.67 0 0 0-25.602 8.535V119.477C17.13 62.949 62.937 17.14 119.465 17.078zm0 0"/><path d="M102.398 128.012a8.533 8.533 0 1 1-17.066 0c0-4.711 3.82-8.535 8.535-8.535 4.711 0 8.531 3.824 8.531 8.535zM153.602 128.012a8.534 8.534 0 1 1-17.067 0c0-4.711 3.82-8.535 8.531-8.535a8.536 8.536 0 0 1 8.536 8.535zM110.934 162.145H128c4.71 0 8.535-3.82 8.535-8.532a8.536 8.536 0 0 0-8.535-8.535h-17.066a8.534 8.534 0 1 0 0 17.067zM107.117 291l-5.613 2.816a17.185 17.185 0 0 1-15.274 0L80.613 291a8.53 8.53 0 0 0-11.449 3.82 8.537 8.537 0 0 0 3.82 11.453l5.618 2.809a34.312 34.312 0 0 0 30.53 0l5.614-2.809a8.533 8.533 0 0 0 4.707-7.12 8.525 8.525 0 0 0-3.812-7.637 8.534 8.534 0 0 0-8.524-.516zM175.387 439.129l-5.617 2.816a17.16 17.16 0 0 1-15.274 0l-5.613-2.816c-4.219-2.106-9.348-.395-11.453 3.824a8.535 8.535 0 0 0 3.824 11.45l5.613 2.808a34.312 34.312 0 0 0 30.531 0l5.618-2.809a8.533 8.533 0 0 0 .89-14.758 8.528 8.528 0 0 0-8.52-.515zM234.215 396.46a8.54 8.54 0 0 0-11.453 3.825 8.54 8.54 0 0 0 3.824 11.453l5.613 2.805a34.295 34.295 0 0 0 30.535 0l5.614-2.805a8.542 8.542 0 0 0 .895-14.762 8.544 8.544 0 0 0-8.524-.515l-5.614 2.816a17.168 17.168 0 0 1-15.277 0zM243.898 453.176l-5.62 2.816a17.168 17.168 0 0 1-15.266 0l-5.617-2.816a8.533 8.533 0 0 0-11.45 3.82 8.534 8.534 0 0 0 3.82 11.453l5.618 2.809a34.295 34.295 0 0 0 30.523 0l5.621-2.809a8.537 8.537 0 1 0-7.629-15.273zM286.566 428.805l5.614 2.804a34.27 34.27 0 0 0 30.523 0l5.625-2.804a8.54 8.54 0 0 0 3.824-11.453 8.54 8.54 0 0 0-11.453-3.825l-5.62 2.817a17.152 17.152 0 0 1-15.27 0l-5.614-2.817a8.54 8.54 0 0 0-11.453 3.825 8.54 8.54 0 0 0 3.824 11.453zM160.332 334.723l5.617-2.809a8.533 8.533 0 0 0 3.82-11.45 8.535 8.535 0 0 0-11.449-3.823l-5.617 2.816a17.16 17.16 0 0 1-15.273 0l-5.618-2.816c-4.214-2.106-9.343-.395-11.449 3.824s-.394 9.344 3.825 11.45l5.613 2.808a34.286 34.286 0 0 0 30.531 0zM324.266 93.879c14.14 0 25.601-11.461 25.601-25.602 0-14.136-11.46-25.597-25.601-25.597-14.137 0-25.598 11.46-25.598 25.597 0 14.141 11.46 25.602 25.598 25.602zm0-34.133a8.533 8.533 0 1 1 0 17.066 8.533 8.533 0 0 1-8.532-8.535c0-4.71 3.82-8.53 8.532-8.53zM443.734 136.547c14.137 0 25.598-11.465 25.598-25.602 0-14.136-11.46-25.601-25.598-25.601-14.14 0-25.601 11.465-25.601 25.601 0 14.137 11.46 25.602 25.601 25.602zm0-34.137c4.711 0 8.532 3.82 8.532 8.535 0 4.711-3.82 8.532-8.532 8.532a8.533 8.533 0 1 1 0-17.067zM315.734 110.945c0 4.711-3.82 8.532-8.535 8.532a8.532 8.532 0 0 1-8.531-8.532 8.533 8.533 0 1 1 17.066 0zM384 68.277a8.534 8.534 0 1 1-17.068.003A8.534 8.534 0 0 1 384 68.277zm0 0"/></svg>