<svg height="512pt" viewBox="0 -51 512.002 512" width="512pt" xmlns="http://www.w3.org/2000/svg"><g fill="#bfea92"><path d="M169.164 192.918c-2.23-7.215-9.89-11.254-17.101-9.023-8.317 2.566-18.168 1.863-27.036-1.942-8.644-3.707-16.53-10.234-22.797-18.875-2.953-4.062-7.73-11.91-6.585-18.758.359-2.152 1.39-4.78 2.488-7.562 1.156-2.942 2.465-6.278 3.375-9.988 2.863-11.688.734-24.012-5.168-34.168 2.61-1.118 5.2-2.473 7.664-4.165 10.055-6.89 15.816-17.921 15.047-28.789-.473-6.628-6.223-11.62-12.856-11.152-6.629.473-11.62 6.227-11.148 12.856.105 1.464-.707 3.27-2.07 4.89a25.241 25.241 0 0 0-14.493-10.281c-3.351-10.125-4.886-20.996-4.457-31.844.262-6.637-4.906-12.234-11.547-12.496-6.62-.266-12.234 4.906-12.5 11.543a114.543 114.543 0 0 0 5.114 38.625 25.184 25.184 0 0 0-7.032 11.14A90.583 90.583 0 0 1 26.73 61.126c-5.328-3.969-12.867-2.871-16.835 2.457-3.973 5.328-2.875 12.867 2.453 16.836 13.386 9.98 28.925 16.965 44.988 20.242a25.017 25.017 0 0 0 14.723 4.781c2.84 4.38 4.086 9.95 2.89 14.82-.472 1.927-1.344 4.145-2.265 6.493-1.493 3.789-3.18 8.082-4.012 13.066-2.094 12.54 1.855 26.133 11.426 39.32 9.164 12.633 20.972 22.298 34.148 27.946 9.77 4.191 20.106 6.086 30.18 5.64a62.62 62.62 0 0 0 15.715-2.706c7.21-2.23 11.254-9.887 9.023-17.102zM342.836 192.918c2.234-7.215 9.894-11.254 17.101-9.023 8.317 2.566 18.172 1.863 27.04-1.942 8.644-3.707 16.527-10.234 22.796-18.875 2.95-4.062 7.727-11.91 6.582-18.758-.355-2.152-1.39-4.78-2.484-7.562-1.156-2.942-2.469-6.278-3.379-9.988-2.863-11.688-.734-24.012 5.172-34.168-2.613-1.118-5.2-2.473-7.668-4.165-10.05-6.89-15.816-17.921-15.043-28.789.469-6.628 6.219-11.62 12.852-11.152 6.629.473 11.62 6.227 11.148 12.856-.101 1.464.707 3.27 2.07 4.89a25.241 25.241 0 0 1 14.493-10.281c3.355-10.125 4.89-20.996 4.46-31.844-.265-6.637 4.907-12.234 11.547-12.496 6.622-.266 12.235 4.906 12.497 11.543a114.638 114.638 0 0 1-5.11 38.625 25.218 25.218 0 0 1 7.031 11.14 90.558 90.558 0 0 0 21.329-11.804c5.328-3.969 12.867-2.871 16.84 2.457s2.87 12.867-2.458 16.836c-13.386 9.98-28.925 16.965-44.988 20.242a24.996 24.996 0 0 1-14.719 4.781c-2.843 4.38-4.086 9.95-2.894 14.82.472 1.927 1.344 4.145 2.27 6.493 1.488 3.789 3.175 8.082 4.007 13.066 2.094 12.54-1.855 26.133-11.422 39.32-9.164 12.633-20.976 22.298-34.152 27.946-9.77 4.191-20.106 6.086-30.18 5.64a62.59 62.59 0 0 1-15.71-2.706c-7.216-2.23-11.259-9.887-9.028-17.102zm0 0"/><path d="M410.645 241.488a68.225 68.225 0 0 0 9.054-34.039v-6.969c0-32.464-22.574-59.64-52.879-66.734v-30.219c0-53.035-42.988-96.023-96.02-96.023h-29.597c-53.031 0-96.023 42.988-96.023 96.023v30.22c-30.301 7.093-52.88 34.269-52.88 66.733v6.97a68.187 68.187 0 0 0 9.06 34.038c-34.657 5.426-61.169 35.407-61.169 71.582v7.813c0 36.719 27.473 67.535 63.922 71.965 101.258 12.304 202.52 12.304 303.778 0 36.449-4.43 63.921-35.246 63.921-71.965v-7.813c0-36.175-26.515-66.156-61.167-71.582zm0 0"/></g><path d="M410.645 241.488a68.246 68.246 0 0 0 9.054-34.039v-6.969c0-32.464-22.574-59.64-52.879-66.734v-30.223c0-53.03-42.988-96.02-96.02-96.02h-24c53.032 0 96.024 42.99 96.024 96.02v30.223c30.301 7.094 52.875 34.27 52.875 66.734v6.97a68.246 68.246 0 0 1-9.054 34.038c34.656 5.426 61.167 35.407 61.167 71.582v7.813c0 36.719-27.472 67.535-63.921 71.965A1259.848 1259.848 0 0 1 244 402.012c54.629.523 109.258-2.528 163.887-9.164 36.449-4.43 63.925-35.246 63.925-71.965v-7.813c0-36.175-26.515-66.156-61.167-71.582zm0 0" fill="#9bc66a"/><path d="M295.941 49.96c-14.664-1.085-27.843 5.532-35.925 16.22-2 2.644-6.028 2.644-8.028 0-8.082-10.688-21.261-17.305-35.925-16.22-20.165 1.493-36.438 17.83-37.864 37.997-1.703 24.05 17.309 44.09 40.992 44.09 13.356 0 25.22-6.371 32.723-16.238a5.113 5.113 0 0 1 8.176 0c7.504 9.867 19.363 16.238 32.719 16.238 23.687 0 42.695-20.04 40.996-44.09-1.426-20.168-17.7-36.504-37.864-37.996zm0 0" fill="#e6eff5"/><path d="M237.52 96.559c0 10.12-8.208 18.328-18.329 18.328s-18.324-8.207-18.324-18.328 8.203-18.325 18.324-18.325 18.329 8.204 18.329 18.325zM311.137 86.121c0 10.121-8.207 18.328-18.328 18.328s-18.325-8.207-18.325-18.328 8.204-18.324 18.325-18.324S311.137 76 311.137 86.12zm0 0" fill="#363b51"/><path d="M181.031 304.797c0 10.133-8.215 18.348-18.347 18.348-10.133 0-18.348-8.215-18.348-18.348s8.215-18.348 18.348-18.348c10.132 0 18.347 8.215 18.347 18.348zM190.336 186.383c0 8.449-6.848 15.297-15.297 15.297-8.445 0-15.297-6.848-15.297-15.297 0-8.446 6.852-15.297 15.297-15.297 8.45 0 15.297 6.851 15.297 15.297zM382.117 338.441c0 8.446-6.847 15.293-15.297 15.293-8.445 0-15.293-6.847-15.293-15.293 0-8.449 6.848-15.296 15.293-15.296 8.45 0 15.297 6.847 15.297 15.296zm0 0" fill="#9bc66a"/><path d="M508.121 59.102c-6.433-8.637-18.695-10.43-27.344-3.989a82.473 82.473 0 0 1-13.12 8.012 32.731 32.731 0 0 0-2.356-3.32c3.289-12 4.707-24.407 4.219-36.946-.438-10.754-9.489-19.164-20.297-18.738-10.754.438-19.16 9.535-18.739 20.29.34 8.609-.699 17.413-3.015 25.683a32.5 32.5 0 0 0-4.692 2.39 19.73 19.73 0 0 0-3.062-4.785 19.398 19.398 0 0 0-13.375-6.687c-10.719-.754-20.094 7.351-20.871 18.101-.957 13.508 6.05 27.114 18.293 35.508.64.438 1.297.863 1.968 1.277-4.199 10.426-5.14 21.977-2.515 32.66 1.008 4.114 2.383 7.641 3.597 10.75l.083.212c.859 2.167 1.832 4.625 2.066 6.03.203 1.227-.031 2.817-.645 4.634-8.898-10.11-20.53-17.875-33.992-22.149v-24.512C374.324 46.441 327.883 0 270.801 0h-29.598c-16.71 0-33.312 4.078-48.02 11.79a7.497 7.497 0 0 0-3.156 10.124 7.5 7.5 0 0 0 10.125 3.16C212.715 18.484 226.91 15 241.203 15h29.598c48.812 0 88.523 39.71 88.523 88.523v22.723h-17.539a7.5 7.5 0 1 0 0 15h24.145c15.418 3.828 28.183 13.23 36.375 25.777a7.39 7.39 0 0 0 1.086 1.723 60.881 60.881 0 0 1 8.43 24.844c.011.254.038.504.077.758.2 2.02.301 4.062.301 6.132v6.965c0 9.203-2.09 18.297-6.074 26.54H303.109c-4.14 0-7.5 3.359-7.5 7.5 0 4.144 3.356 7.5 7.5 7.5h106.93c14.906 2.468 28.566 10.148 38.508 21.663a64.935 64.935 0 0 1 15.765 42.422v7.813c0 32.808-24.648 60.547-57.328 64.515a1294.962 1294.962 0 0 1-27.05 2.997 7.5 7.5 0 0 0-6.72 8.207 7.503 7.503 0 0 0 8.208 6.714 1271.12 1271.12 0 0 0 27.371-3.027c40.2-4.883 70.52-39.023 70.52-79.406v-7.813a79.932 79.932 0 0 0-19.415-52.226 80.123 80.123 0 0 0-38.363-24.61 76.042 76.042 0 0 0 5.664-28.789v-6.965c0-1.449-.039-2.886-.12-4.316a99.248 99.248 0 0 0 10.898-12.621c10.777-14.856 15.187-30.402 12.75-44.957-.957-5.746-2.872-10.617-4.438-14.602-.82-2.101-1.598-4.082-1.95-5.515-.433-1.77-.269-3.86.419-5.887a32.373 32.373 0 0 0 12.918-4.895c16.594-3.62 32.629-10.953 46.46-21.265a19.392 19.392 0 0 0 7.66-12.848c.747-5.164-.562-10.308-3.675-14.472zM496.95 71.418a4.501 4.501 0 0 1-1.773 2.98c-12.5 9.313-27.024 15.852-42.012 18.915a7.51 7.51 0 0 0-2.902 1.277 17.555 17.555 0 0 1-10.328 3.351 7.505 7.505 0 0 0-6.282 3.418c-4.07 6.278-5.52 14.012-3.879 20.688.586 2.394 1.54 4.828 2.582 7.492 1.415 3.598 2.875 7.32 3.575 11.52 1.761 10.504-1.73 22.148-10.09 33.668a79.168 79.168 0 0 1-2.133 2.808 75.407 75.407 0 0 0-5.637-13.351c3.688-5.899 6.938-13.559 5.684-21.106-.5-2.973-1.727-6.078-2.899-9.043l-.07-.176c-1.097-2.812-2.23-5.718-3.004-8.879-2.316-9.425-.722-19.855 4.367-28.609a7.502 7.502 0 0 0-3.535-10.668c-2.367-1.012-4.457-2.144-6.375-3.457-7.867-5.394-12.39-13.851-11.808-22.062.18-2.5 2.37-4.395 4.847-4.211a4.503 4.503 0 0 1 3.102 1.55 4.51 4.51 0 0 1 1.101 3.262c-.257 3.422 1.098 7.078 3.82 10.3a7.511 7.511 0 0 0 6.138 2.645 7.496 7.496 0 0 0 5.808-3.293 17.651 17.651 0 0 1 10.168-7.218 7.504 7.504 0 0 0 5.223-4.903c3.625-10.949 5.297-22.882 4.836-34.496-.098-2.496 1.855-4.613 4.347-4.71a4.548 4.548 0 0 1 4.715 4.347c.477 12.281-1.133 24.422-4.785 36.086a7.505 7.505 0 0 0 2.078 7.762 17.752 17.752 0 0 1 4.953 7.836 7.498 7.498 0 0 0 9.883 4.785 97.759 97.759 0 0 0 23.082-12.785 4.54 4.54 0 0 1 6.356.937c.718.961 1.02 2.149.847 3.34zm0 0"/><path d="M245.02 96.559c0-14.239-11.586-25.825-25.829-25.825-14.238 0-25.824 11.586-25.824 25.825 0 14.238 11.586 25.828 25.824 25.828 14.243 0 25.829-11.59 25.829-25.828zm-36.653 0c0-5.97 4.856-10.825 10.824-10.825 5.973 0 10.829 4.856 10.829 10.825s-4.856 10.828-10.829 10.828c-5.968 0-10.824-4.86-10.824-10.828zm0 0"/><path d="M256 122.676c9.25 10.761 22.504 16.87 36.809 16.87 13.437 0 26.402-5.64 35.562-15.476 9.297-9.968 13.883-22.984 12.914-36.64-1.683-23.86-20.941-43.184-44.793-44.95-15.531-1.148-30.441 5.067-40.492 16.739-10.05-11.672-24.957-17.887-40.492-16.735-23.848 1.766-43.106 21.09-44.793 44.946-.965 13.656 3.62 26.672 12.914 36.644 9.164 9.832 22.129 15.473 35.566 15.473 14.305 0 27.559-6.113 36.805-16.871zm-61.398-8.828c-6.422-6.895-9.594-15.903-8.922-25.36 1.164-16.48 14.465-29.828 30.937-31.047 11.469-.855 22.465 4.106 29.387 13.262 2.383 3.152 6.027 4.961 9.996 4.961 3.973 0 7.613-1.809 9.996-4.96 6.926-9.157 17.906-14.114 29.39-13.263 16.473 1.22 29.774 14.567 30.938 31.043.668 9.461-2.5 18.465-8.926 25.364-6.43 6.898-15.164 10.699-24.59 10.699-10.581 0-20.331-4.84-26.75-13.281-2.417-3.176-6.081-5-10.054-5-3.977 0-7.64 1.824-10.059 5-6.418 8.441-16.172 13.28-26.75 13.28-9.43 0-18.164-3.8-24.593-10.698zm0 0"/><path d="M292.809 111.95c14.242 0 25.828-11.587 25.828-25.829 0-14.238-11.586-25.824-25.828-25.824-14.239 0-25.825 11.586-25.825 25.824 0 14.242 11.586 25.828 25.825 25.828zm0-36.653c5.968 0 10.828 4.855 10.828 10.824 0 5.973-4.86 10.828-10.828 10.828s-10.825-4.855-10.825-10.828c0-5.969 4.856-10.824 10.825-10.824zM350.273 391c-81.37 6.172-163.886 4.29-245.253-5.598-32.684-3.972-57.329-31.707-57.329-64.52v-7.812a64.93 64.93 0 0 1 15.766-42.422c9.941-11.515 23.598-19.191 38.504-21.66h33.238a7.5 7.5 0 1 0 0-15h-29.32A61.016 61.016 0 0 1 99.8 207.45v-6.969c0-2.066.105-4.113.304-6.132.04-.25.067-.504.079-.754a60.881 60.881 0 0 1 8.43-24.844 7.472 7.472 0 0 0 1.085-1.723c8.332-12.77 21.406-22.28 37.192-25.976a7.504 7.504 0 0 0 5.789-7.305v-30.223c0-23.32 8.992-45.328 25.316-61.976a7.498 7.498 0 0 0-.101-10.606 7.498 7.498 0 0 0-10.606.102c-19.094 19.469-29.61 45.21-29.61 72.48v24.512c-13.46 4.274-25.093 12.04-33.995 22.149-.614-1.813-.844-3.403-.641-4.625.234-1.414 1.207-3.871 2.078-6.075l.07-.175c1.211-3.11 2.586-6.637 3.598-10.75 2.621-10.688 1.684-22.235-2.516-32.664.672-.415 1.332-.84 1.973-1.278 12.238-8.39 19.246-21.996 18.29-35.515-.778-10.739-10.122-18.84-20.872-18.09a19.398 19.398 0 0 0-13.375 6.687 19.426 19.426 0 0 0-3.062 4.785 32.5 32.5 0 0 0-4.692-2.39 83.773 83.773 0 0 1-3.015-25.688c.421-10.75-7.985-19.851-18.75-20.289-10.711-.43-19.848 7.985-20.29 18.754a121.623 121.623 0 0 0 4.22 36.93 32.963 32.963 0 0 0-2.356 3.324 82.728 82.728 0 0 1-13.125-8.02c-8.64-6.433-20.903-4.644-27.328 3.98a19.382 19.382 0 0 0-3.684 14.49 19.378 19.378 0 0 0 7.656 12.847c13.832 10.312 29.867 17.648 46.465 21.27a32.287 32.287 0 0 0 12.918 4.89c.684 2.027.852 4.121.414 5.895-.258 1.05-.738 2.367-1.078 3.265a7.493 7.493 0 0 0 4.356 9.668 7.498 7.498 0 0 0 9.671-4.355c.77-2.04 1.274-3.586 1.618-5.008 1.64-6.676.191-14.41-3.88-20.688a7.507 7.507 0 0 0-6.28-3.421 17.51 17.51 0 0 1-10.329-3.352 7.562 7.562 0 0 0-2.902-1.273C43.852 90.25 29.324 83.71 16.824 74.395a4.493 4.493 0 0 1-1.773-2.977 4.486 4.486 0 0 1 .86-3.355c1.491-2.004 4.339-2.422 6.335-.934A97.739 97.739 0 0 0 45.34 79.922a7.498 7.498 0 0 0 9.883-4.785 17.766 17.766 0 0 1 4.949-7.836 7.503 7.503 0 0 0 2.078-7.762 106.531 106.531 0 0 1-4.781-36.07 4.54 4.54 0 0 1 4.699-4.364c2.504.102 4.46 2.215 4.36 4.708-.458 11.62 1.214 23.55 4.835 34.503a7.49 7.49 0 0 0 5.227 4.899 17.676 17.676 0 0 1 10.168 7.219 7.5 7.5 0 0 0 11.941.648c2.727-3.219 4.082-6.879 3.824-10.262a4.499 4.499 0 0 1 1.102-3.297 4.503 4.503 0 0 1 3.102-1.55c2.5-.188 4.668 1.71 4.847 4.199.582 8.223-3.941 16.68-11.804 22.07-1.926 1.317-4.012 2.45-6.383 3.461a7.493 7.493 0 0 0-4.172 4.54 7.51 7.51 0 0 0 .637 6.128c5.093 8.754 6.683 19.18 4.37 28.61-.777 3.16-1.91 6.066-3.007 8.878l-.055.141c-1.187 3-2.414 6.105-2.914 9.086-1.254 7.535 1.996 15.195 5.684 21.098a75.698 75.698 0 0 0-5.637 13.351 82.395 82.395 0 0 1-2.125-2.8c-5.441-7.5-8.816-15.005-10.035-22.31a7.497 7.497 0 0 0-8.63-6.163 7.5 7.5 0 0 0-6.167 8.629c1.605 9.617 5.871 19.254 12.691 28.66a99.46 99.46 0 0 0 10.895 12.613 79.047 79.047 0 0 0-.121 4.316v6.97a76.132 76.132 0 0 0 5.664 28.788 80.084 80.084 0 0 0-38.363 24.61 79.946 79.946 0 0 0-19.41 52.222v7.813c0 40.387 30.316 74.523 70.519 79.406a1269.63 1269.63 0 0 0 153.043 9.258c31.797 0 63.566-1.195 95.156-3.594a7.498 7.498 0 0 0 6.91-8.043c-.312-4.133-3.933-7.222-8.047-6.91zm0 0"/><path d="M162.684 293.95a7.5 7.5 0 0 0 7.5-7.5 7.5 7.5 0 0 0-7.5-7.5c-14.254 0-25.848 11.593-25.848 25.847 0 14.25 11.594 25.848 25.848 25.848s25.847-11.598 25.847-25.848a7.5 7.5 0 1 0-15 0c0 5.98-4.867 10.848-10.847 10.848-5.98 0-10.848-4.868-10.848-10.848s4.867-10.848 10.848-10.848zM197.836 186.383c0-12.57-10.227-22.793-22.797-22.793a7.5 7.5 0 1 0 0 15c4.3 0 7.797 3.496 7.797 7.797 0 4.297-3.496 7.793-7.797 7.793-4.297 0-7.797-3.496-7.797-7.793 0-4.145-3.355-7.5-7.5-7.5a7.5 7.5 0 0 0-7.5 7.5c0 12.566 10.227 22.793 22.797 22.793s22.797-10.227 22.797-22.797zM389.617 338.441c0-12.57-10.226-22.796-22.793-22.796a7.497 7.497 0 0 0-7.5 7.5 7.5 7.5 0 0 0 7.5 7.5c4.297 0 7.793 3.496 7.793 7.796 0 4.297-3.496 7.793-7.793 7.793-4.3 0-7.797-3.496-7.797-7.793 0-4.144-3.355-7.5-7.5-7.5a7.497 7.497 0 0 0-7.5 7.5c0 12.57 10.227 22.793 22.793 22.793 12.57 0 22.797-10.222 22.797-22.793zm0 0"/></svg>