<svg height="512pt" viewBox="-28 0 512 512.001" width="512pt" xmlns="http://www.w3.org/2000/svg"><path d="m342.8 396.98-82.792-29.218a32.068 32.068 0 0 1-21.39-30.239v-41.445h-96.196v41.445a32.071 32.071 0 0 1-21.395 30.239L38.238 396.98c-19.23 6.79-32.09 24.961-32.09 45.356V504.5h368.743v-62.164c0-20.395-12.86-38.566-32.09-45.356zm0 0" fill="#e3aa75"/><path d="M190.52 392.273c31.472 0 59.664-7.738 80.886-20.492l-11.398-4.02c-8.375-2.956-14.883-9.187-18.426-16.917-14.035 5.734-31.418 9.367-51.062 9.367-19.649 0-37.028-3.633-51.067-9.367-3.543 7.734-10.047 13.96-18.426 16.918l-11.394 4.02c21.219 12.753 49.414 20.491 80.887 20.491zm0 0" fill="#ffd064"/><path d="M190.52 488.469c-76.68 0-143.989-23.653-182.438-59.29-1.203 4.22-1.934 8.618-1.934 13.157V504.5h368.743v-62.164c0-4.54-.73-8.938-1.934-13.156-38.45 35.636-105.762 59.289-182.437 59.289zm0 0" fill="#c38c66"/><path d="M435.79 256.527c2.53.739 5.015-1.52 4.519-4.109-4.516-23.688-15.973-47.39-34.364-67.621-18.386-20.23-40.89-33.895-64.039-40.649-2.531-.738-5.015 1.52-4.52 4.11 4.52 23.687 15.977 47.39 34.364 67.62 18.387 20.231 40.89 33.895 64.04 40.65zm0 0" fill="#ffc269"/><path d="M440.309 252.418c-4.516-23.688-15.973-47.39-34.36-67.621-18.39-20.23-40.89-33.895-64.043-40.649-1.265-.367-2.52.012-3.394.805L439.184 255.72c.875-.793 1.37-2.004 1.125-3.301zm0 0" fill="#ffa95f"/><path d="M448.02 117.035c1.91-.789 2.328-3.387.757-4.73-14.375-12.293-33.007-21.196-54.183-24.578-21.176-3.38-41.653-.723-59.14 6.484-1.911.789-2.325 3.387-.755 4.73 14.375 12.297 33.004 21.2 54.18 24.579 21.176 3.382 41.652.722 59.14-6.485zm0 0" fill="#ffc269"/><path d="M448.777 112.305c-14.375-12.293-33.007-21.196-54.183-24.578-21.176-3.38-41.653-.723-59.14 6.484-.954.394-1.536 1.242-1.684 2.156l115.933 18.512c.145-.914-.144-1.902-.926-2.574zm0 0" fill="#ffa95f"/><path d="M142.422 326.46c15.453 6.353 31.598 9.7 48.098 9.7s32.644-3.348 48.097-9.7v-30.378h-96.195zm0 0" fill="#d29b6e"/><path d="m302.742 207.902-20.488 95.618a160.255 160.255 0 0 0-3.559 33.593v5.973c0 6.066.32 12.133.953 18.168L294.727 504.5h-56.114V207.902zm0 0" fill="#64505a"/><path d="M278.695 337.113v5.973c0 3.035.082 6.074.239 9.11h-40.317v-32.067h40.985a160.086 160.086 0 0 0-.907 16.984zm0 0" fill="#ffd064"/><path d="m78.293 207.902 20.488 95.618a160.255 160.255 0 0 1 3.559 33.593v5.973c0 6.066-.317 12.133-.953 18.168L86.309 504.5h56.113V207.902zm0 0" fill="#64505a"/><path d="M314.605 199.887c7.758-17.13 12.188-36.086 12.188-56.114C326.793 68.512 265.781 7.5 190.52 7.5S54.242 68.512 54.242 143.773c0 20.028 4.43 38.985 12.188 56.114zm0 0" fill="#5a4650"/><path d="M306.75 175.84h-12.023c0-45.403-64.282-69.375-98.461-105.63a7.877 7.877 0 0 0-11.5 0c-34.176 36.255-98.457 60.228-98.457 105.63H74.285c-11.07 0-20.043 8.972-20.043 20.039s8.973 20.039 20.043 20.039h12.426c4.11 53.797 48.96 96.195 103.805 96.195 54.847 0 99.699-42.398 103.808-96.195h12.426c11.07 0 20.043-8.973 20.043-20.04s-8.973-20.038-20.043-20.038zm0 0" fill="#f5b97d"/><path d="M154.445 227.914c0 17.711 16.149 32.066 36.075 32.066 19.921 0 36.07-14.355 36.07-32.066zm0 0" fill="#fff"/><path d="M102.34 337.113v5.973c0 3.035-.078 6.074-.238 9.11h40.32v-32.067h-40.988c.601 5.637.906 11.309.906 16.984zm0 0" fill="#ffd064"/><path d="M118.371 207.902V175.84c0-13.285 10.77-24.05 24.05-24.05h145.794c-3.844-8.852-14.895-20.274-20.305-24.048H113.121c-.258.23-.504.465-.758.695-.363.329-.722.66-1.078.993-.308.28-.625.562-.93.847v.051C96.273 143.566 86.31 158.043 86.31 175.84H74.285c-11.07 0-20.043 8.972-20.043 20.039s8.973 20.039 20.043 20.039h12.426c4.11 53.797 48.96 96.195 103.805 96.195 5.484 0 10.832-.535 16.086-1.351-49.946-7.707-88.23-50.754-88.23-102.86zm0 0" fill="#e3aa75"/><path d="M206.55 440.371c0 8.856-7.179 16.031-16.03 16.031-8.856 0-16.032-7.175-16.032-16.03 0-8.856 7.176-16.032 16.032-16.032 8.851 0 16.03 7.176 16.03 16.031zm0 0" fill="#ffd064"/><path d="M318.777 127.742H62.262c-8.856 0-16.035-7.18-16.035-16.031 0-8.856 7.18-16.031 16.035-16.031h256.515c8.852 0 16.032 7.175 16.032 16.03 0 8.853-7.18 16.032-16.032 16.032zm0 0" fill="#ffc250"/><path d="M318.777 127.742H118.371V95.676h200.406c8.852 0 16.032 7.18 16.032 16.035 0 8.851-7.18 16.031-16.032 16.031zm0 0" fill="#ffd064"/><path d="M151.273 191.871v-8.016a7.5 7.5 0 1 0-15 0v8.016a7.5 7.5 0 1 0 15 0zM239.969 176.355c-4.14 0-7.5 3.36-7.5 7.5v8.016c0 4.14 3.36 7.5 7.5 7.5s7.5-3.36 7.5-7.5v-8.016c0-4.14-3.36-7.5-7.5-7.5zM152.633 165.254a7.499 7.499 0 0 0 6.61-8.293 7.494 7.494 0 0 0-8.294-6.61l-16.031 1.81c-4.117.46-7.074 4.175-6.613 8.292a7.506 7.506 0 0 0 7.445 6.66c.281 0 .563-.015.848-.05zM248.824 152.156l-16.031-1.808a7.501 7.501 0 0 0-1.68 14.906l16.032 1.809a7.5 7.5 0 0 0 8.293-6.613 7.501 7.501 0 0 0-6.614-8.294zM227.945 220.414h-72.148c-4.14 0-7.5 3.36-7.5 7.5 0 21.816 19.547 39.566 43.574 39.566s43.574-17.75 43.574-39.566c0-4.14-3.36-7.5-7.5-7.5zm-36.074 32.066c-12.715 0-23.516-7.175-27.21-17.066h54.421c-3.695 9.89-14.496 17.066-27.21 17.066zm0 0"/><path d="M453.734 108.969c-14.656-14.89-34.34-24.762-55.43-27.793-20.21-2.903-40.945.597-58.706 9.84l-12.575-1.805a23.438 23.438 0 0 0-2.347-.59c-10.442-25.148-27.684-46.68-50.113-62.476C250.273 9.039 221.68 0 191.87 0c-29.8 0-58.387 9.035-82.672 26.133C86.758 41.93 69.512 63.465 59.066 88.62c-10.804 2.125-18.984 11.668-18.984 23.09 0 7.348 3.387 13.922 8.684 18.238a145.697 145.697 0 0 0-.668 13.824c0 12.438 1.605 24.754 4.742 36.672a27.382 27.382 0 0 0-4.742 15.434c0 13.152 9.27 24.176 21.617 26.89l20.77 77.145a166.094 166.094 0 0 1 5.71 43.172c0 5.781-.308 11.629-.914 17.383l-.976 9.246-57.211 20.195C14.906 397.738 0 418.81 0 442.336V504.5c0 4.14 3.36 7.5 7.5 7.5s7.5-3.36 7.5-7.5v-60.34c20.645 13.867 43.434 25.172 67.926 33.692l-2.723 25.863A7.501 7.501 0 0 0 87.672 512a7.502 7.502 0 0 0 7.45-6.715l15.077-143.246c.082-.777.145-1.562.215-2.344h25.86V504.5a7.5 7.5 0 1 0 15 0v-10.95c13.382 1.598 27.003 2.419 40.597 2.419s27.219-.813 40.598-2.41V504.5c0 4.14 3.36 7.5 7.5 7.5s7.5-3.36 7.5-7.5v-72.145c0-4.14-3.36-7.5-7.5-7.5s-7.5 3.36-7.5 7.5v46.086c-26.711 3.336-54.477 3.34-81.196.004V394.52c10.024 2.816 21.344 4.562 33.098 5.082v18.468c-9.309 3.14-16.031 11.95-16.031 22.301 0 12.977 10.558 23.531 23.531 23.531 12.977 0 23.531-10.554 23.531-23.53 0-10.352-6.722-19.161-16.03-22.302v-18.465c11.76-.523 23.077-2.27 33.097-5.085v5.773a7.5 7.5 0 1 0 15 0v-40.598h25.86c.073.782.132 1.563.214 2.34l15.078 143.25a7.503 7.503 0 0 0 8.246 6.672 7.5 7.5 0 0 0 6.672-8.242l-2.719-25.863c24.485-8.52 47.278-19.829 67.922-33.692v60.34c0 4.14 3.36 7.5 7.5 7.5 4.14 0 7.5-3.36 7.5-7.5v-62.164c0-23.527-14.906-44.598-37.094-52.43l-57.214-20.191-.973-9.25a166.704 166.704 0 0 1-.914-17.383c0-14.574 1.922-29.098 5.71-43.168l20.77-77.144c12.348-2.72 21.618-13.739 21.618-26.891 0-5.715-1.75-11.027-4.743-15.434a144.003 144.003 0 0 0 4.516-28.93l.789.872c2.84 26.207 14.238 51.472 32.316 71.39 18.672 20.575 43.704 34.637 70.48 39.594a7.481 7.481 0 0 0 6.406-1.82 7.508 7.508 0 0 0 2.435-6.2c-2.348-27.132-13.922-53.406-32.598-73.98-18.074-19.918-42.117-33.707-67.93-39.066l-11.707-12.899c4.93-4.316 8.051-10.648 8.051-17.699 0-.133-.008-.266-.008-.402 13.465 10.832 29.934 18.027 47.375 20.53 4.645.669 9.32 1 13.98 1 16.49 0 32.798-4.132 47.028-12.054a7.51 7.51 0 0 0 3.778-5.484 7.507 7.507 0 0 0-2.079-6.328zm-135.8 61.191a27.387 27.387 0 0 0-9.832-1.82h-5.266c-1.305-7.567-4.895-19.887-14.676-33.098h31.969c.078 0 .152-.008.226-.008.188 2.84.29 5.696.29 8.54 0 8.91-.91 17.746-2.711 26.386zm-254.32-66.984H264.02a7.5 7.5 0 1 0 0-15h-34.344c-12.367-9.696-21.34-18.2-26.774-23.739-2.941-2.996-6.859-4.648-11.03-4.648s-8.09 1.652-11.032 4.648c-5.434 5.536-14.406 14.043-26.774 23.739h-78.37c9.503-19.871 23.902-36.942 42.136-49.778C139.578 23.09 165.18 15 191.872 15c26.698 0 52.304 8.094 74.054 23.41 18.226 12.836 32.62 29.899 42.12 49.766h-11.964a7.5 7.5 0 1 0 0 15h24.047c4.707 0 8.531 3.828 8.531 8.535 0 4.703-3.828 8.531-8.531 8.531H63.613c-4.703 0-8.531-3.828-8.531-8.531 0-4.707 3.828-8.535 8.531-8.535zm113.917-15c5.938-5.235 10.621-9.778 14.012-13.23.066-.067.172-.157.328-.157s.262.09.328.156c3.39 3.457 8.074 7.996 14.012 13.23zM63.613 135.242h31.969c-9.785 13.211-13.371 25.531-14.676 33.098h-5.27c-3.464 0-6.777.648-9.831 1.82a129.528 129.528 0 0 1-2.707-26.387c0-2.843.105-5.695.289-8.539.074.004.148.008.226.008zm215.16 160.774a180.662 180.662 0 0 0-3.632 16.613h-27.672v-7.86a112.563 112.563 0 0 0 39.086-37.656zm-46.304 50.773c-11.617 3.836-25.813 5.922-40.598 5.922-14.77 0-28.976-2.094-40.598-5.926v-34.808c12.59 4.925 26.282 7.636 40.598 7.636 14.313 0 28.008-2.71 40.598-7.636zm-96.196-34.16h-27.671a180.662 180.662 0 0 0-3.633-16.613l-7.782-28.903a112.564 112.564 0 0 0 39.086 37.657zM17.707 427.8c4.188-10.88 12.957-19.715 24.379-23.746l50.48-17.82-8.027 76.277c-24.266-8.766-46.707-20.418-66.832-34.711zm93.465-83.11c.004-.535.023-1.074.023-1.609 0-5.16-.246-10.316-.687-15.453h25.765v17.062zm80.7 104.211c-4.708 0-8.532-3.828-8.532-8.53s3.828-8.532 8.531-8.532 8.531 3.828 8.531 8.531-3.828 8.531-8.53 8.531zm0-64.129c-14.77 0-28.977-2.09-40.599-5.925v-16.395c12.141 3.41 26.184 5.258 40.598 5.258 14.426 0 28.461-1.844 40.598-5.258v16.399c-11.617 3.836-25.817 5.921-40.598 5.921zm55.597-40.078V327.63h25.765a180.545 180.545 0 0 0-.687 15.457c0 .531.02 1.07.023 1.61zm94.187 59.36c11.422 4.027 20.192 12.867 24.38 23.746-20.126 14.293-42.567 25.945-66.833 34.71l-8.031-76.277zm-33.55-195.637h-4.532c0-.172.008-.344.008-.516a7.5 7.5 0 1 0-15 0c0 53.328-43.387 96.711-96.71 96.711-53.329 0-96.712-43.386-96.712-96.71a7.5 7.5 0 1 0-15 0c0 .171.008.343.008.515h-4.531c-6.914 0-12.54-5.625-12.54-12.54 0-6.913 5.626-12.538 12.54-12.538h6.011c8.086-.004 8.086 0 9.872-1.07 2.304-1.383 3.69-3.836 3.64-6.524-.004-.848.152-20.367 20.168-40.504h153.078c20.02 20.14 20.18 39.664 20.176 40.453a7.5 7.5 0 0 0 3.64 6.575c1.786 1.07 1.782 1.07 9.876 1.07h6.007c6.915 0 12.543 5.625 12.543 12.539-.003 6.914-5.628 12.539-12.543 12.539zm96.035-16.965c14.293 15.75 23.636 34.516 27.355 54.77-19.797-5.66-37.57-16.774-51.867-32.524-10.516-11.59-18.344-24.816-23.23-39.062l24.546 27.047a7.481 7.481 0 0 0 5.555 2.457 7.499 7.499 0 0 0 5.55-12.54l-24.546-27.046c13.71 6.242 26.117 15.308 36.637 26.898zm-10.98-74.46c-7.735-1.114-15.114-3.24-22.013-6.29l16.48 2.371c.364.051.724.078 1.079.078a7.501 7.501 0 0 0 1.059-14.926l-16.485-2.37c7.48-.985 15.16-.942 22.89.167 14.438 2.075 27.661 7.649 38.782 16.274-13.101 5.144-27.355 6.77-41.793 4.695zm0 0"/></svg>