<svg xmlns="http://www.w3.org/2000/svg" version="1.1" xmlns:xlink="http://www.w3.org/1999/xlink" xmlns:svgjs="http://svgjs.com/svgjs" width="512" height="512" x="0" y="0" viewBox="0 0 300 300" style="enable-background:new 0 0 512 512" xml:space="preserve" class=""><g><g xmlns="http://www.w3.org/2000/svg"><circle cx="142.796" cy="131.397" fill="#ffffff" r="92" data-original="#ffe8dc" class=""></circle><g><circle cx="90.796" cy="199.397" fill="#d8dd6b" r="16" data-original="#bd53b5" class=""></circle><path d="m90.796 219.397c-11.027 0-20-8.973-20-20s8.973-20 20-20 20 8.973 20 20-8.973 20-20 20zm0-32c-6.617 0-12 5.383-12 12s5.383 12 12 12 12-5.383 12-12-5.383-12-12-12z" fill="#4c241d" data-original="#4c241d" class=""></path></g><g><circle cx="78.796" cy="231.397" fill="#d8dd6b" r="16" data-original="#bd53b5" class=""></circle><path d="m78.796 251.397c-11.027 0-20-8.973-20-20s8.973-20 20-20 20 8.973 20 20-8.973 20-20 20zm0-32c-6.617 0-12 5.383-12 12s5.383 12 12 12 12-5.383 12-12-5.383-12-12-12z" fill="#4c241d" data-original="#4c241d" class=""></path></g><g><circle cx="58.796" cy="203.397" fill="#d8dd6b" r="16" data-original="#bd53b5" class=""></circle><path d="m58.796 223.397c-11.027 0-20-8.973-20-20s8.973-20 20-20 20 8.973 20 20-8.973 20-20 20zm0-32c-6.617 0-12 5.383-12 12s5.383 12 12 12 12-5.383 12-12-5.383-12-12-12z" fill="#4c241d" data-original="#4c241d" class=""></path></g><path d="m65.798 131.397c-1.111 0-2.217-.459-3.006-1.359-1.459-1.66-1.295-4.188.363-5.645 4.77-4.191 7.223-7.889 6.732-10.145-.268-1.227-1.49-2.18-3.465-3.633-2.5-1.84-5.613-4.131-6.535-8.367-1.195-5.486 1.838-11.326 9.268-17.855 1.664-1.457 4.193-1.297 5.645.363 1.459 1.66 1.295 4.188-.363 5.645-4.77 4.191-7.223 7.889-6.732 10.145.268 1.225 1.488 2.176 3.461 3.627 2.502 1.842 5.617 4.135 6.539 8.373 1.195 5.486-1.838 11.326-9.268 17.855-.76.668-1.702.996-2.639.996z" fill="#4c241d" data-original="#4c241d" class=""></path><path d="m85.798 131.397c-1.111 0-2.217-.459-3.006-1.359-1.459-1.66-1.295-4.188.363-5.645 4.77-4.191 7.223-7.889 6.732-10.145-.268-1.227-1.49-2.18-3.465-3.633-2.5-1.84-5.613-4.131-6.535-8.367-1.195-5.486 1.838-11.326 9.268-17.855 1.66-1.457 4.193-1.297 5.645.363 1.459 1.66 1.295 4.188-.363 5.645-4.77 4.191-7.223 7.889-6.732 10.145.268 1.225 1.488 2.176 3.461 3.627 2.502 1.842 5.617 4.135 6.539 8.373 1.195 5.486-1.838 11.326-9.268 17.855-.76.668-1.702.996-2.639.996z" fill="#4c241d" data-original="#4c241d" class=""></path><path d="m163.538 256.603c-.504-26.884 46.498-47.673-28.096-56.191-9.363.002-18.728-14.046-18.728-37.458 0-8.138 15.316-18.804 30.081-35.557 30.283-30.76 46.773-61.092 72.172-75.76 48.199-16.292 62.748 18.637 28.992 50.156-20.476 26.929 11.033 76.677 9.307 106.9-4.936 29.57-42.386 33.72-62.471 14.704" fill="#ffded5" data-original="#ffded5" class=""></path><path d="m163.542 260.603c-1.469 0-2.879-.809-3.582-2.211-3.457-6.914 1.355-14.459 6.008-21.754 3.746-5.871 7.617-11.941 7.617-17.494 0-9.166-26.492-14.73-38.141-14.73-11.02 0-22.73-14.531-22.73-41.459 0-5.934 6.133-12.162 14.623-20.783 4.186-4.25 8.514-8.646 12.377-13.32 27.09-32.793 67.324-75.891 67.727-76.322 1.504-1.621 4.043-1.697 5.652-.191 1.613 1.508 1.699 4.039.191 5.652-.402.43-40.469 43.354-67.406 75.955-4.082 4.943-8.734 9.67-12.84 13.84-5.201 5.281-12.324 12.514-12.324 15.17 0 21.832 8.555 33.459 14.73 33.459 7.59 0 46.141 3.951 46.141 22.73 0 7.887-4.715 15.275-8.871 21.795-3.453 5.416-7.027 11.018-5.598 13.875.988 1.977.188 4.379-1.789 5.367-.574.286-1.184.421-1.785.421z" fill="#4c241d" data-original="#4c241d" class=""></path><g><path d="m173.216 194.364s-6.42-38.966 31.686 5.034h-14.106" fill="#6b4f5b" data-original="#6b4f5b"></path><path d="m204.901 203.397h-14.105c-2.211 0-4-1.791-4-4s1.789-4 4-4h5.098c-13.719-14.439-17.594-12.912-17.641-12.891-1.191.557-1.941 5.947-1.086 11.213.352 2.178-1.125 4.234-3.305 4.59-2.176.352-4.234-1.117-4.59-3.295-.438-2.656-2.227-16.088 5.582-19.752 7.109-3.318 17.297 3.305 33.07 21.516 1.023 1.184 1.266 2.857.613 4.281-.648 1.424-2.069 2.338-3.636 2.338z" fill="#4c241d" data-original="#4c241d" class=""></path></g><path d="m203.694 228.386c-5.414 0-9.527-1.02-9.891-1.113-2.141-.549-3.43-2.729-2.883-4.867.551-2.139 2.73-3.43 4.863-2.885.25.066 15.301 3.699 23.055-4.465 6.344-6.684 6.609-20.244.77-39.219-.648-2.111.535-4.35 2.648-4.998 2.113-.656 4.348.535 5 2.646 6.844 22.24 5.949 38.092-2.652 47.113-6.019 6.315-14.402 7.788-20.91 7.788z" fill="#4c241d" data-original="#4c241d" class=""></path><path d="m155.366 66.087c-2.004 0-3.988-.494-5.805-1.465-2.906-1.555-5.031-4.146-5.988-7.301s-.625-6.492.93-9.398 4.148-5.033 7.301-5.988c3.152-.963 6.488-.627 9.398.928 2.906 1.555 5.031 4.146 5.988 7.301.957 3.154.625 6.492-.926 9.398-1.555 2.906-4.148 5.033-7.305 5.988-1.183.359-2.39.537-3.593.537zm.023-16.686c-.426 0-.848.062-1.266.189-1.109.336-2.02 1.084-2.566 2.105s-.664 2.195-.328 3.305c.695 2.291 3.137 3.584 5.41 2.893 1.109-.336 2.023-1.084 2.57-2.105s.66-2.195.324-3.305-1.086-2.02-2.105-2.566c-.64-.342-1.335-.516-2.039-.516z" fill="#4c241d" data-original="#4c241d" class=""></path><g><path d="m68.966 163.316s-24.766 6.531-31.297-18.234c0 0 26.385-10.189 31.297 18.234z" fill="#a9ba5a" data-original="#a9ba5a" class=""></path><path d="m61.852 168.187c-10.311 0-23.445-4.617-28.051-22.086-.52-1.971.525-4.018 2.426-4.752.547-.207 13.471-5.076 24.23 1.021 6.582 3.73 10.77 10.549 12.449 20.264.354 2.045-.916 4.02-2.922 4.549-2.262.597-5.073 1.004-8.132 1.004zm-19.056-20.356c4.918 11.898 15.521 12.764 21.326 12.242-1.504-5.109-4.041-8.705-7.572-10.721-4.61-2.63-10.172-2.22-13.754-1.521z" fill="#4c241d" data-original="#4c241d" class=""></path></g><path d="m72.507 199.159c-1.652 0-3.199-1.033-3.775-2.682-10.557-30.176 6.916-43.719 7.664-44.279 1.773-1.328 4.277-.965 5.6.799 1.32 1.76.971 4.25-.773 5.582-.584.455-13.469 10.873-4.939 35.258.73 2.084-.369 4.367-2.455 5.096-.438.152-.885.226-1.322.226z" fill="#4c241d" data-original="#4c241d" class=""></path></g></g></svg>