<svg xmlns="http://www.w3.org/2000/svg" viewBox="0 0 512 512" style="enable-background:new 0 0 512 512" xml:space="preserve"><path style="fill:#303c42" d="M448 266.667c0-24.962-9.085-54.28-17.755-76.638C487.435 175.296 512 74.178 512 32a10.66 10.66 0 0 0-10.667-10.667c-60.137 0-141.182 39.081-157.033 81.564-22.59-8.639-54.114-17.564-88.3-17.564s-65.71 8.924-88.301 17.564c-15.85-42.483-96.896-81.564-157.033-81.564A10.66 10.66 0 0 0 0 32c0 42.178 24.565 143.296 81.755 158.029C73.085 212.387 64 241.704 64 266.667c0 18.719-3.833 25.417-8.708 33.896-5.917 10.322-12.625 22.041-12.625 51.437 0 56.677 75.979 138.667 213.333 138.667S469.333 408.677 469.333 352c0-29.396-6.708-41.115-12.625-51.438-4.875-8.479-8.708-15.177-8.708-33.895z"/><path style="fill:#ffee58" d="M400.438 150.521c5.25-2.667 11.688-.656 14.375 4.583.382.741 3.228 6.339 7.064 14.882 10.01-1.695 18.934-7.691 26.839-16.277-1.47-22.102-14.262-71.655-28.268-90.72-29.005 13.956-51.608 32.642-56.635 48.164 8.816 4.134 14.23 7.237 14.918 7.639 5.083 2.979 6.771 9.5 3.813 14.583-2.958 5.083-9.479 6.833-14.583 3.833-.521-.302-53.083-30.542-111.958-30.542-59.083 0-111.417 30.229-111.938 30.542a10.719 10.719 0 0 1-5.396 1.458c-3.646 0-7.229-1.885-9.208-5.281-2.979-5.083-1.271-11.615 3.813-14.594.688-.402 6.102-3.505 14.918-7.639-5.027-15.522-27.63-34.208-56.635-48.164-14.428 19.639-27.146 70.22-27.911 91.115 7.818 8.374 16.622 14.214 26.482 15.883 3.836-8.543 6.682-14.141 7.064-14.882 2.708-5.24 9.146-7.271 14.375-4.583 5.229 2.698 7.292 9.135 4.583 14.365-.313.604-30.813 60.271-30.813 101.781 0 24.396-6.125 35.073-11.521 44.5-2.939 5.132-5.757 10.185-7.62 18.133C74.767 323.478 84.99 320 96 320c29.417 0 53.333 23.927 53.333 53.333 0 24.596-16.822 45.154-39.51 51.288 32.003 24.927 80.672 44.712 146.177 44.712s114.174-19.785 146.177-44.712c-22.689-6.134-39.51-26.691-39.51-51.288C362.667 343.927 386.583 320 416 320c11.01 0 21.233 3.477 29.807 9.299-1.863-7.947-4.681-13.001-7.62-18.133-5.396-9.427-11.521-20.104-11.521-44.5 0-41.594-30.5-101.177-30.813-101.771-2.707-5.239-.645-11.676 4.585-14.374z"/><circle style="fill:#303c42" cx="160" cy="266.667" r="32"/><circle style="fill:#fff" cx="170.667" cy="256" r="10.667"/><circle style="fill:#303c42" cx="352" cy="266.667" r="32"/><circle style="fill:#fff" cx="343.04" cy="256" r="10.667"/><path style="fill:#303c42" d="M311.229 335.25c-.792 1.125-6.125 4.552-16.313 5.719-9.917 1.135-23.563-.25-31.833-7.604a10.622 10.622 0 0 0-7.069-2.701 10.628 10.628 0 0 0 7.527-3.122l10.667-10.667a10.693 10.693 0 0 0 2.313-11.625 10.655 10.655 0 0 0-9.854-6.583h-21.333a10.655 10.655 0 0 0-9.854 6.583 10.692 10.692 0 0 0 2.313 11.625l10.667 10.667a10.624 10.624 0 0 0 7.527 3.122 10.617 10.617 0 0 0-7.069 2.701c-8.271 7.375-21.938 8.75-31.833 7.604-10.188-1.167-15.521-4.594-16.313-5.719-3.375-4.833-10.021-6.042-14.854-2.677-4.833 3.354-6.042 10-2.688 14.844 7.201 10.372 22.612 13.548 29.927 14.518-.18 15.685.837 39.401 14.74 53.628 7.208 7.365 16.667 11.104 28.104 11.104 10.438 0 19.646-3.969 26.646-11.479 13.478-14.495 15.954-39.034 16.195-53.253 7.311-.97 22.728-4.145 29.93-14.518 3.333-4.833 2.125-11.417-2.688-14.781-4.771-3.334-11.459-2.188-14.855 2.614z"/><path style="fill:#e53935" d="M243.167 400.656c-8.165-8.355-8.806-26.975-8.671-38.947 7.906-1.21 15.297-3.587 21.504-7.251 6.172 3.648 13.642 5.669 21.491 6.887-.254 12.069-2.375 30.595-10.47 39.311-6.688 7.136-18.271 5.761-23.854 0z"/><path style="opacity:.1;enable-background:new" d="M256 373.292c5.655 3.342 12.457 5.217 19.585 6.462 1.201-6.461 1.794-13.068 1.906-18.409-7.849-1.217-15.319-3.238-21.491-6.887-6.207 3.664-13.598 6.042-21.504 7.251-.061 5.371.142 12.076 1.003 18.595 7.514-1.253 14.567-3.51 20.501-7.012z"/><path style="fill:#e53935" d="M424.092 403.928C401.934 410.135 384 393.582 384 373.333c0-17.646 14.354-32 32-32 14.169 0 26.181 9.363 30.264 22.797-3.011 12.34-10.399 26.198-22.172 39.798z"/><path style="opacity:.2;fill:#fff;enable-background:new" d="M389.777 380.345c0-17.646 14.354-32 32-32 8.145 0 15.353 3.336 20.975 8.517-5.607-9.337-15.374-15.529-26.753-15.529-17.646 0-32 14.354-32 32 0 9.639 4.15 18.353 10.799 24.26-3.1-5.032-5.021-10.902-5.021-17.248z"/><path style="fill:#e53935" d="M87.901 403.921c-11.768-13.598-19.154-27.453-22.165-39.79 4.083-13.435 16.095-22.797 30.264-22.797 17.646 0 32 14.354 32 32 0 20.271-18.091 36.752-40.099 30.587z"/><path style="opacity:.2;fill:#fff;enable-background:new" d="M97.777 351.111c14.059 0 25.895 9.172 30.18 21.801-.232-17.447-14.456-31.578-31.957-31.578-14.169 0-26.181 9.362-30.264 22.797.638 2.613 1.578 5.324 2.608 8.056 4.587-12.437 15.924-21.076 29.433-21.076z"/><linearGradient id="a" gradientUnits="userSpaceOnUse" x1="-36.545" y1="631.769" x2="-29.604" y2="624.828" gradientTransform="matrix(21.3333 0 0 -21.3333 996.333 13791.667)"><stop offset="0" style="stop-color:#000;stop-opacity:.1"/><stop offset="1" style="stop-color:#000;stop-opacity:0"/></linearGradient><path style="fill:url(#a)" d="m183.229 347.417 30.587 30.587c-.492-5.75-.715-11.309-.66-16.069-7.315-.97-22.726-4.146-29.927-14.518zm179.438 25.916c0-1.215.277-2.353.358-3.547l-33.961-33.961h-.007c2.134 3.482 2.182 8.012-.286 11.591-7.202 10.374-22.618 13.548-29.93 14.518-.241 14.219-2.717 38.758-16.195 53.253-7 7.51-16.208 11.479-26.646 11.479-11.438 0-20.896-3.74-28.104-11.104l52.77 52.77c53.184-4.259 93.669-22.025 121.512-43.711-22.69-6.134-39.511-26.691-39.511-51.288z"/><linearGradient id="b" gradientUnits="userSpaceOnUse" x1="-47.864" y1="642.606" x2="-23.703" y2="631.336" gradientTransform="matrix(21.3333 0 0 -21.3333 996.333 13791.667)"><stop offset="0" style="stop-color:#fff;stop-opacity:.2"/><stop offset="1" style="stop-color:#fff;stop-opacity:0"/></linearGradient><path style="fill:url(#b)" d="M448 266.667c0-24.962-9.085-54.28-17.755-76.638C487.435 175.296 512 74.178 512 32a10.66 10.66 0 0 0-10.667-10.667c-60.137 0-141.182 39.081-157.033 81.564-22.59-8.639-54.114-17.564-88.3-17.564s-65.71 8.924-88.301 17.564c-15.85-42.483-96.896-81.564-157.033-81.564A10.66 10.66 0 0 0 0 32c0 42.178 24.565 143.296 81.755 158.029C73.085 212.387 64 241.704 64 266.667c0 18.719-3.833 25.417-8.708 33.896-5.917 10.322-12.625 22.041-12.625 51.437 0 56.677 75.979 138.667 213.333 138.667S469.333 408.677 469.333 352c0-29.396-6.708-41.115-12.625-51.438-4.875-8.479-8.708-15.177-8.708-33.895z"/></svg>