<svg xmlns="http://www.w3.org/2000/svg" viewBox="0 0 510.756 510.756" style="enable-background:new 0 0 510.756 510.756" xml:space="preserve" width="512" height="512"><path style="fill:#ffca28" d="M132.772 215.908 23.959 107.095c-22.78-22.78-22.78-59.715 0-82.495s59.715-22.78 82.495 0l108.813 108.813c22.78 22.78 22.78 59.715 0 82.495-22.78 22.781-59.715 22.781-82.495 0z"/><path style="fill:#ffa000" d="M215.267 133.413 106.454 24.6C89.892 8.038 65.853 3.53 45.207 11.05A58.097 58.097 0 0 1 66.455 24.6l108.813 108.813c22.78 22.781 22.78 59.715 0 82.495a58.076 58.076 0 0 1-21.248 13.55c20.646 7.52 44.686 3.012 61.248-13.55 22.78-22.78 22.78-59.715-.001-82.495z"/><path style="fill:#ef5350" d="m315.085 416.724 78.921-136.696c15.562-26.954 50.027-36.189 76.981-20.627l3.428 1.979c26.954 15.562 36.189 50.027 20.627 76.981l-78.921 136.696c-15.562 26.954-50.027 36.189-76.981 20.627l-3.428-1.979c-26.953-15.562-36.188-50.028-20.627-76.981z"/><path style="fill:#d32f2f" d="m474.415 261.38-3.428-1.979a56.499 56.499 0 0 0-11.134-4.909c14.41 17.615 17.242 42.992 5.189 63.869l-78.921 136.696c-13.485 23.356-41.161 33.394-65.847 25.536a56.199 56.199 0 0 0 15.438 13.112l3.428 1.979c26.954 15.562 61.419 6.327 76.981-20.627l78.921-136.696c15.562-26.954 6.327-61.419-20.627-76.981z"/><path style="fill:#42a5f5" d="M495.042 338.361c15.562-26.954 6.327-61.419-20.627-76.981l-3.428-1.979c-26.954-15.562-61.419-6.327-76.981 20.627l-39.461 68.348 101.036 58.333 39.461-68.348z"/><path style="fill:#1976d2" d="m474.415 261.38-1.979-1.143-1.449-.837-.009-.005a55.225 55.225 0 0 0-2.667-1.443c-.131-.067-.264-.124-.395-.19a56.09 56.09 0 0 0-2.385-1.126l-.186-.078a57.073 57.073 0 0 0-5.492-2.068c14.41 17.615 17.242 42.992 5.189 63.869l-40.621 70.357 31.16 17.99 39.461-68.348c5.813-10.068 8.163-21.185 7.425-31.973a56.327 56.327 0 0 0-1.158-8.161c-3.256-14.975-12.575-28.577-26.894-36.844z"/><path transform="rotate(-45.001 119.612 120.256)" style="fill:#ffa000" d="M61.28 106.652h116.666v27.203H61.28z"/><circle style="fill:#90caf9" cx="137.911" cy="386.079" r="99.298"/><path style="fill:#42a5f5" d="M161.153 289.523c22.022 18.213 36.055 45.745 36.055 76.555 0 54.841-44.457 99.298-99.298 99.298a99.556 99.556 0 0 1-23.242-2.742c17.176 14.205 39.212 22.742 63.242 22.742 54.841 0 99.298-44.457 99.298-99.298 0-46.835-32.428-86.091-76.055-96.555z"/><circle style="fill:#ef5350" cx="354.676" cy="139.586" r="66.214"/><path style="fill:#d32f2f" d="M374.981 76.557c9.91 11.575 15.909 26.597 15.909 43.029 0 36.569-29.645 66.214-66.214 66.214a66.152 66.152 0 0 1-20.305-3.185c12.144 14.184 30.168 23.185 50.305 23.185 36.569 0 66.214-29.645 66.214-66.214 0-29.484-19.276-54.455-45.909-63.029z"/><path style="fill:#42a5f5" d="M51.916 435.727a100.042 100.042 0 0 0 8.797 12.828l169.903-98.093a99.963 99.963 0 0 0-6.711-14.032 100.042 100.042 0 0 0-8.797-12.828L45.205 421.695a100.187 100.187 0 0 0 6.711 14.032z"/><path d="M128.105 221.212c25.726 25.726 67.371 25.731 93.102 0 25.668-25.668 25.668-67.434 0-93.102L112.394 19.297c-25.726-25.727-67.371-25.732-93.102 0-25.668 25.668-25.668 67.434 0 93.102l108.813 108.813zm82.495-10.607c-19.864 19.864-52.021 19.868-71.889 0L99.225 171.12l6.517-6.517a7.5 7.5 0 0 0 0-10.606 7.5 7.5 0 0 0-10.606 0l-6.517 6.517-8.629-8.629 71.889-71.889 8.629 8.629-40.623 40.623a7.5 7.5 0 0 0 0 10.606 7.5 7.5 0 0 0 10.606 0l40.623-40.623 39.485 39.485c19.82 19.82 19.82 52.069.001 71.889zM29.898 29.904c19.82-19.819 52.068-19.82 71.889 0l39.485 39.485-71.889 71.889-39.485-39.485c-19.864-19.865-19.868-52.021 0-71.889zM478.801 254.884l-3.428-1.979c-30.562-17.645-69.578-7.194-87.226 23.372l-8.084 14.002a7.5 7.5 0 0 0 12.99 7.5l8.084-14.002c13.5-23.383 43.349-31.384 66.736-17.881l3.428 1.979c23.329 13.469 31.351 43.407 17.882 66.736l-35.711 61.853-88.046-50.833 10.127-17.54a7.5 7.5 0 0 0-12.99-7.5l-53.337 92.383c-17.645 30.561-7.195 69.579 23.372 87.226l3.428 1.979c30.616 17.677 69.614 7.133 87.226-23.372l78.921-136.695c17.605-30.493 7.121-69.623-23.372-87.228zm-68.539 216.422c-13.5 23.382-43.35 31.385-66.736 17.882l-3.428-1.979c-23.382-13.5-31.384-43.35-17.882-66.736l35.71-61.853 88.046 50.833-35.71 61.853zM355.312 213.3c40.646 0 73.714-33.068 73.714-73.714s-33.068-73.714-73.714-73.714-73.714 33.068-73.714 73.714c0 40.647 33.068 73.714 73.714 73.714zm0-132.428c32.375 0 58.714 26.339 58.714 58.714S387.687 198.3 355.312 198.3s-58.714-26.339-58.714-58.714 26.339-58.714 58.714-58.714zM138.547 279.281c-58.888 0-106.797 47.909-106.797 106.798 0 58.75 47.787 106.797 106.797 106.797 58.889 0 106.798-47.909 106.798-106.797-.001-58.753-47.79-106.798-106.798-106.798zm0 15c25.583 0 48.751 10.523 65.414 27.464L99.722 381.927a7.5 7.5 0 0 0-2.745 10.245 7.498 7.498 0 0 0 10.245 2.745l106.485-61.479a91.85 91.85 0 0 1 8.029 13.858l-158.35 91.423a91.85 91.85 0 0 1-8.029-13.858l21.555-12.445a7.5 7.5 0 0 0-7.5-12.99l-19.335 11.163a91.581 91.581 0 0 1-3.328-24.51c0-50.618 41.18-91.798 91.798-91.798zm0 183.595c-25.583 0-48.751-10.523-65.414-27.464l153.884-88.845a91.589 91.589 0 0 1 3.328 24.511c-.001 50.618-41.181 91.798-91.798 91.798z"/></svg>