<svg height="512" viewBox="0 0 64 64" width="512" xmlns="http://www.w3.org/2000/svg"><g fill="#8c421c"><path d="M23 7h4v4h-4zM23 47h7v-4h-7zM23 43h4V31h-4v10z"/></g><path d="M35 11H11a17.438 17.438 0 0 1 0 20h24a17.438 17.438 0 0 0 0-20z" fill="#ffecc7"/><path d="M23 41H3v3a3 3 0 0 0 3 3h17z" fill="#ad5223"/><path d="m39 7 3 3-3 3h7V7z" fill="#707070"/><path d="M43 38a9 9 0 0 1-9 9H8l1.958 6.854A9.853 9.853 0 0 0 19.431 61h26.716C51.589 61 56 56.589 56 51.148V38z" fill="#8c421c"/><path d="M48 20h-5a8.003 8.003 0 0 1 0 10h5a10.026 10.026 0 0 0 0-10zM57 20h-4.336a10.026 10.026 0 0 1 0 10H57a8.003 8.003 0 0 0 0-10z" fill="#707070"/><path d="M52.664 20H48a10.026 10.026 0 0 1 0 10h4.664a10.026 10.026 0 0 0 0-10z" fill="#ffecc7"/><path d="M55 5h-9v6h9z" fill="#707070"/><path d="m29 7 2-3H19l2 3h6z" fill="#8c421c"/><circle cx="20" cy="56" fill="#4398d1" r="2"/><circle cx="30" cy="56" fill="#4398d1" r="2"/><circle cx="40" cy="56" fill="#4398d1" r="2"/><path d="M29 20a4 4 0 0 0-8 0c0 1.477-.191 2.752 1 3.445V26h6v-2.555c1.191-.693 1-1.968 1-3.445z" fill="#fff"/><path d="M34 47H8l1.143 4H36c7 0 11-6 11-9h9v-3.875H42.994C42.926 43.037 38.928 47 34 47z" fill="#ad5223"/><path d="M3 42v2a3 3 0 0 0 3 3h17v-2H6a3 3 0 0 1-3-3z" fill="#8c421c"/><path d="M46.148 59H19.431a9.851 9.851 0 0 1-9.473-7.146L8.571 47H8l1.958 6.854A9.853 9.853 0 0 0 19.431 61h26.716C51.589 61 56 56.589 56 51.148v-2C56 54.589 51.589 59 46.148 59z" fill="#7d3b19"/><path d="M51 53.132v-2.316A2.996 2.996 0 0 0 53 48c0-1.654-1.346-3-3-3s-3 1.346-3 3c0 1.302.839 2.402 2 2.816v2.316l-1.445-.964-1.109 1.664 3 2a.995.995 0 0 0 1.109 0l3-2-1.109-1.664zM50 47a1.001 1.001 0 1 1-1 1c0-.551.448-1 1-1z"/><path d="M57 34a1 1 0 0 0-1-1h-1v-2h2a1 1 0 0 0 .781-.375 8.955 8.955 0 0 0 0-11.249A.999.999 0 0 0 57 19h-2v-7a1 1 0 0 0 1-1V5a1 1 0 0 0-1-1V2h-2v2h-7a1 1 0 0 0-1 1v1h-6a1 1 0 0 0-.707 1.707L40.586 10l-2.293 2.293A1 1 0 0 0 39 14h7a1 1 0 0 0 1-1v-1h6v7H43a.999.999 0 0 0-.781 1.625 6.963 6.963 0 0 1 0 8.751A1.001 1.001 0 0 0 43 31h10v2H43a1 1 0 0 0-1 1v4c0 4.411-3.589 8-8 8h-3v-3a1 1 0 0 0-1-1h-2V32h7a.999.999 0 0 0 .819-.427c4.427-6.324 4.427-14.822 0-21.146A.999.999 0 0 0 35 10h-7V8h1c.334 0 .646-.167.832-.445l2-3A1 1 0 0 0 31 3h-5V2h-2v1h-5a1 1 0 0 0-.832 1.554l2 3A1 1 0 0 0 21 8h1v2H11a1 1 0 0 0-.82 1.573c3.947 5.639 3.947 13.215 0 18.854A1 1 0 0 0 11 32h11v4H3a1 1 0 0 0-1 1v7c0 2.206 1.794 4 4 4h1.245l1.751 6.129C10.321 58.764 14.612 62 19.432 62h26.716C52.132 62 57 57.132 57 51.148V39h5v-2h-5zM45 12h-3.586l1.293-1.293a.999.999 0 0 0 0-1.414L41.414 8H45v3zm2-5V6h7v4h-7zm5.042 22h-2.471a11.073 11.073 0 0 0 0-8h2.471a9.021 9.021 0 0 1 0 8zm4.458 0h-2.264a11.073 11.073 0 0 0 0-8H56.5a6.955 6.955 0 0 1 0 8zm-11.678-8h2.556a9.028 9.028 0 0 1 0 8h-2.556a8.925 8.925 0 0 0 0-8zM53 37v-2h2v2zm-5 0v-2h3v2zm-2-2v2h-2v-2zM29 46h-5v-2h5zM20.868 5h8.264l-.667 1h-6.93zM24 8h2v2h-2zm-11.194 4H34.47c3.562 5.446 3.562 12.554 0 18H12.806a18.524 18.524 0 0 0 0-18zM26 32v10h-2V32zm-4 8h-3v-2h3zM9 40v-2h3v2zm5-2h3v2h-3zm-7 0v2H4v-2zm-3 6v-2h18v4H6c-1.103 0-2-.897-2-2zm19 4h11c5.177 0 9.447-3.954 9.95-9H55v2h-8a1 1 0 0 0-1 1c0 2.322-3.504 8-10 8H9.897l-.572-2zm23.147 12H19.432C15.5 60 12 57.36 10.92 53.58L10.468 52H36c7.058 0 11.199-5.458 11.896-9H55v8.148C55 56.029 51.028 60 46.147 60z"/><path d="M20 53c-1.654 0-3 1.346-3 3s1.346 3 3 3 3-1.346 3-3-1.346-3-3-3zm0 4a1.001 1.001 0 0 1 0-2 1.001 1.001 0 0 1 0 2zM30 53c-1.654 0-3 1.346-3 3s1.346 3 3 3 3-1.346 3-3-1.346-3-3-3zm0 4a1.001 1.001 0 0 1 0-2 1.001 1.001 0 0 1 0 2zM40 53c-1.654 0-3 1.346-3 3s1.346 3 3 3 3-1.346 3-3-1.346-3-3-3zm0 4a1.001 1.001 0 0 1 0-2 1.001 1.001 0 0 1 0 2zM23 20h1v2h-1zM26 20h1v2h-1z"/><path d="m31.293 14.293-2.494 2.494C27.881 15.704 26.528 15 25 15s-2.881.704-3.799 1.787l-2.494-2.494-1.414 1.414 2.922 2.922A4.937 4.937 0 0 0 20 20l-.006.522c-.02 1.188-.041 2.517 1.006 3.433v.631l-2.707 2.707 1.414 1.414 1.833-1.833c.14.074.291.126.46.126h6c.169 0 .32-.052.46-.126l1.833 1.833 1.414-1.414L29 24.586v-.631c1.047-.917 1.025-2.245 1.006-3.433L30 20c0-.479-.089-.932-.215-1.371l2.922-2.922zM27 23.445V25h-4v-1.555a.999.999 0 0 0-.497-.864c-.47-.273-.53-.678-.509-2.026L22 20c0-1.654 1.346-3 3-3s3 1.346 3 3l.006.555c.021 1.349-.039 1.753-.509 2.026a.999.999 0 0 0-.497.864z"/></svg>