<svg height="512pt" viewBox="-26 0 512 512.003" width="512pt" xmlns="http://www.w3.org/2000/svg"><g fill-rule="evenodd"><path d="M379.89 395.73H63.138C33.91 395.73 10 419.64 10 448.863 10 478.09 33.91 502 63.137 502h333.726C426.09 502 450 478.09 450 448.863c0-29.222-23.91-53.133-53.137-53.133zm0 0" fill="#c58965"/><path d="M63.516 357.355c0 15.047 6.382 28.684 16.593 38.375h299.782c10.582-10.042 16.597-23.828 16.597-38.375 0-29.226-24.082-53.136-53.515-53.136H117.027c-29.433 0-53.511 23.91-53.511 53.136zm0 0" fill="#dca98a"/><path d="M121.242 304.219h218.496c18.309-36.727 4.809-93.856-66.629-112.864-49.558-13.183-52.238-52.964-48.492-78.085 1.54-10.325-5.734-15.31-16.676-7.31-58.304 42.65-57.48 89.974-37.398 124.509-29.434 0-53.516 23.91-53.516 53.136a52.369 52.369 0 0 0 4.215 20.614zm0 0" fill="#c58965"/></g><path d="M399.582 385.8c4.473-8.769 6.902-18.523 6.902-28.445 0-31.105-22.75-57.011-52.574-62.18 5.3-18.562 3.922-39.038-4.207-57.046-8.605-19.05-28.43-44.309-74.023-56.438-32.649-8.687-46.504-31.21-41.176-66.949 1.332-8.91-1.66-16.515-8-20.347-3.242-1.961-12.113-5.54-24.469 3.496-9.441 6.906-17.777 14.222-24.777 21.754-3.758 4.042-3.528 10.37.515 14.132 4.047 3.758 10.375 3.528 14.133-.515 6.137-6.602 13.52-13.07 21.938-19.227.219-.16.426-.308.625-.445-2.395 17.8-.637 33.668 5.234 47.18 8.703 20.046 25.809 33.59 50.836 40.25 38.008 10.113 54.117 30.238 60.938 45.343 6.863 15.203 7.402 32.676 1.703 47.856H128.367c-.89-3.446-1.34-7-1.34-10.614 0-23.734 19.434-43.05 43.36-43.132H240.035c5.524 0 10-4.48 10-10 0-5.524-4.476-10-10-10h-63.539c-3.273-6.528-5.605-13.192-6.953-19.871-1.09-5.415-6.36-8.918-11.777-7.829-5.414 1.09-8.918 6.364-7.825 11.778 1.204 5.972 3.016 11.906 5.418 17.742-27.714 6.781-48.332 31.7-48.332 61.312 0 3.81.36 7.567 1.036 11.258-30.79 4.344-54.547 30.707-54.547 62.492 0 9.922 2.43 19.676 6.902 28.446C26.863 387.23 0 414.969 0 448.867c0 34.813 28.324 63.137 63.137 63.137h333.726c34.813 0 63.137-28.324 63.137-63.137-.004-33.902-26.863-61.637-60.418-63.066zM396.863 492H63.137C39.352 492 20 472.648 20 448.867c0-23.785 19.352-43.137 43.137-43.137H279.89c5.523 0 10-4.476 10-10 0-5.523-4.477-10-10-10H84.348c-7.004-7.882-10.832-17.82-10.832-28.375 0-23.785 19.52-43.136 43.511-43.136h4.188c.012 0 .023.004.031.004.02 0 .035-.004.05-.004h218.392c.011 0 .027.004.042.004.012 0 .024-.004.036-.004h3.207c23.992 0 43.515 19.351 43.515 43.136 0 10.555-3.828 20.493-10.836 28.375h-15.761c-5.52 0-9.996 4.477-9.996 10 0 5.524 4.476 10 9.996 10h36.976c23.781 0 43.133 19.352 43.133 43.137C440 472.648 420.648 492 396.863 492zM218.984 52.262c-2.761 4.785-1.12 10.898 3.66 13.66a9.94 9.94 0 0 0 4.989 1.344c3.457 0 6.82-1.797 8.672-5.004 8.629-14.95 3.925-26.317.812-33.836-2.715-6.567-3.449-8.86-.812-13.422 2.761-4.785 1.12-10.902-3.66-13.664-4.782-2.758-10.899-1.121-13.66 3.66-7.692 13.32-3.27 24.004-.348 31.074 2.695 6.512 4.047 9.778.347 16.188zM328 141.254c-2.762 4.785-1.121 10.898 3.66 13.66a9.997 9.997 0 0 0 13.66-3.656c8.633-14.95 3.93-26.317.813-33.84-2.715-6.563-3.45-8.856-.813-13.422 2.762-4.785 1.125-10.898-3.66-13.66-4.785-2.762-10.898-1.125-13.66 3.66-7.688 13.32-3.27 24-.344 31.07 2.696 6.508 4.047 9.778.344 16.188zM70.172 207.71c-2.762 4.782-1.125 10.9 3.66 13.657a9.94 9.94 0 0 0 4.988 1.344 9.998 9.998 0 0 0 8.672-5c8.63-14.95 3.926-26.316.813-33.84-2.715-6.562-3.45-8.86-.813-13.422 2.762-4.781 1.121-10.898-3.66-13.66-4.781-2.762-10.898-1.125-13.66 3.66-7.692 13.32-3.274 24.004-.348 31.07 2.696 6.512 4.051 9.778.348 16.192zm0 0"/><path d="M319.895 385.73h-.008c-5.52 0-9.996 4.477-9.996 10 0 5.524 4.48 10 10.004 10 5.523 0 10-4.476 10-10 0-5.523-4.477-10-10-10zM158.832 170.191a9.969 9.969 0 0 0 3.934.813c3.882 0 7.574-2.274 9.199-6.066 2.176-5.075-.176-10.958-5.25-13.13-5.078-2.175-10.957.176-13.133 5.25l-.004.008c-2.172 5.075.18 10.95 5.254 13.125zm0 0"/></svg>