<svg width="512" height="512" fill="none" xmlns="http://www.w3.org/2000/svg"><path opacity=".1" d="M89.216 321.497c-.479-5.816-.72-11.65-.721-17.486 0-116.755 94.649-211.404 211.404-211.404 12.308 0 24.369 1.053 36.1 3.072-24.08-12.04-51.245-18.821-79.999-18.821-98.938 0-179.142 80.205-179.142 179.142 0 23.117 4.383 45.21 12.358 65.497Z" fill="#000"/><path d="M256 8.329c-136.785 0-247.67 110.886-247.67 247.67S119.215 503.67 256 503.67c136.785 0 247.671-110.886 247.671-247.671S392.786 8.329 256 8.329ZM76.858 255.999c0-98.938 80.205-179.142 179.142-179.142 37.227 0 71.8 11.358 100.448 30.794L107.652 356.448c-19.436-28.649-30.794-63.222-30.794-100.449ZM256 435.143c-37.227 0-71.8-11.358-100.448-30.794L404.35 155.552C423.785 184.2 435.144 218.773 435.144 256c-.001 98.937-80.206 179.143-179.144 179.143Z" fill="#FF6465"/><path d="M256 0c-23.87 0-47.508 3.286-70.263 9.767a8.329 8.329 0 0 0-4.246 13.185 8.32 8.32 0 0 0 8.81 2.835c21.27-6.058 43.374-9.13 65.699-9.13 63.931 0 124.035 24.896 169.24 70.102 45.206 45.206 70.102 105.31 70.102 169.24 0 88.293-48.368 169.132-126.228 210.969a8.327 8.327 0 0 0-3.278 11.216 8.327 8.327 0 0 0 11.162 3.458C460.27 436.897 511.999 350.437 511.999 256c0-68.381-26.629-132.667-74.98-181.019C388.668 26.629 324.381 0 256 0Z" fill="#000"/><path d="M361.126 100.759c-31.079-21.086-67.432-32.231-105.125-32.231-103.372 0-187.471 84.099-187.471 187.471 0 37.691 11.145 74.043 32.23 105.123a8.327 8.327 0 0 0 6.106 3.615 8.332 8.332 0 0 0 6.677-2.401L362.339 113.54a8.328 8.328 0 0 0-1.213-12.781ZM109.103 343.218C93.426 316.886 85.187 286.942 85.187 256c0-94.187 76.626-170.813 170.813-170.813 30.943 0 60.887 8.238 87.218 23.916L109.103 343.218Z" fill="#000"/><path d="M343.188 496.758a8.327 8.327 0 0 0 .651-15.326 8.328 8.328 0 0 0-6.325-.337c-26.097 9.454-53.523 14.247-81.514 14.247-63.93 0-124.033-24.896-169.24-70.102-45.207-45.206-70.103-105.31-70.103-169.241 0-46.779 13.494-92.088 39.026-131.031 24.888-37.966 59.812-67.974 100.995-86.784a8.33 8.33 0 0 0-.549-15.38 8.33 8.33 0 0 0-6.371.227c-44.043 20.117-81.392 52.208-108.005 92.804C14.439 157.5.001 205.968.001 255.999c0 68.38 26.629 132.667 74.982 181.019 48.353 48.352 112.639 74.98 181.019 74.98 29.93.002 59.265-5.126 87.186-15.24Z" fill="#000"/><path d="M147.261 405.135a8.329 8.329 0 0 0 3.616 6.106c31.079 21.086 67.432 32.231 105.125 32.231 103.372 0 187.471-84.099 187.471-187.471 0-37.692-11.144-74.044-32.23-105.123a8.33 8.33 0 0 0-12.783-1.214L149.663 398.459a8.332 8.332 0 0 0-2.402 6.676Zm255.638-236.353c15.675 26.329 23.915 56.277 23.915 87.218 0 94.187-76.626 170.813-170.813 170.813-30.943 0-60.887-8.238-87.218-23.916l234.116-234.115Z" fill="#000"/></svg>