<svg height="512" width="512" xmlns="http://www.w3.org/2000/svg"><path d="M469.025 7.5H337.403c-13.945 0-25.25 11.305-25.25 25.25v131.622c0 13.945 11.305 25.25 25.25 25.25h23.616c6.876 0 12.45 5.574 12.45 12.45v21.294c0 4.474 5.663 6.413 8.405 2.879l24.819-31.982a11.992 11.992 0 0 1 9.475-4.641h52.856c13.945 0 25.25-11.305 25.25-25.25V32.75c.001-13.945-11.304-25.25-25.249-25.25z" fill="#f7e365"/><path d="M469.025 7.5h-27.278c13.945 0 25.25 11.305 25.25 25.25v131.622c0 13.945-11.305 25.25-25.25 25.25h27.278c13.945 0 25.25-11.305 25.25-25.25V32.75c0-13.945-11.305-25.25-25.25-25.25z" fill="#f3d332"/><path d="M305.664 504.5H39.776l3.659-50.219c2.241-30.733 25.374-55.858 55.826-60.621l21.055-3.302c10.706-1.667 18.587-10.89 18.587-21.715V291.35h79.003v77.293c0 10.825 7.892 20.048 18.587 21.715l21.066 3.302c30.441 4.763 53.585 29.889 55.815 60.622l2.834 38.881c.445 6.124-4.403 11.337-10.544 11.337z" fill="#faa68e"/><path d="M120.74 438.298a7.982 7.982 0 0 1 7.725-5.974h33.188c17.978 0 32.552-14.574 32.552-32.552V386.09a5.802 5.802 0 0 1 5.802-5.802h21.256a21.888 21.888 0 0 1-3.358-11.644v-22.996h-69.783c-3.735 0-5.921-4.2-3.778-7.253l13.986-19.984a16.71 16.71 0 0 0 3.042-10.208 16.834 16.834 0 0 0-6.96-13.218l-.357-.26a17.54 17.54 0 0 0-15.152-2.688v76.606c0 10.825-7.881 20.048-18.587 21.715L99.26 393.66a66.109 66.109 0 0 0-36.52 18.524l-22.562 86.798-.402 5.517h63.755z" fill="#e09380"/><path d="M305.664 504.5H39.776l3.659-50.219c2.241-30.733 25.374-55.858 55.826-60.621l21.055-3.302a22.645 22.645 0 0 0 4.308-1.126c13.001 14.062 32.097 22.95 53.379 22.95 21.402 0 40.584-8.974 53.596-23.177a22.033 22.033 0 0 0 4.893 1.353l21.066 3.302c30.441 4.763 53.585 29.889 55.815 60.622l2.834 38.881c.444 6.115-4.405 11.337-10.543 11.337z" fill="#acd980"/><path d="M128.466 432.324h33.188c14.108 0 26.116-8.976 30.634-21.528a74.96 74.96 0 0 1-14.284 1.386c-21.282 0-40.378-8.888-53.379-22.95-12.724 4.719-39.174.316-61.884 22.952l-22.562 86.798-.402 5.517h63.755l17.21-66.202a7.98 7.98 0 0 1 7.724-5.973zM316.207 493.162l-2.834-38.881a66.079 66.079 0 0 0-17.329-40.049c-22.713-24.666-50.918-20.509-63.384-24.83-.049-.017-.095-.037-.144-.054-.309-.109-.617-.22-.918-.343a69.723 69.723 0 0 1-7.162 6.756l5.736.899c30.441 4.763 53.585 29.889 55.815 60.622l2.833 38.879c.237 3.255-1.031 6.244-3.184 8.339h20.027c6.142 0 10.99-5.213 10.544-11.338z" fill="#8cc951"/><path d="M192.551 40.894h-33.527c-39.02 0-73.059 21.32-91.11 52.945-25.094 6.574-43.387 29.768-42.601 56.945l2.895 100.149h293.347v-81.035c.001-71.247-57.756-129.004-129.004-129.004z" fill="#655e67"/><g fill="#faa68e"><path d="M91.86 267.793H40.19c-12.407 0-22.465-10.058-22.465-22.465v-7.043c0-12.407 10.058-22.465 22.465-22.465h51.67zM258.155 267.793h51.67c12.407 0 22.465-10.058 22.465-22.465v-7.043c0-12.407-10.058-22.465-22.465-22.465h-51.67z"/><path d="M296.35 233.228c0 74.044-74.701 116.549-118.343 116.549-43.631 0-118.343-42.505-118.343-116.549 0-47.298 13.147-83.094 34.42-107.099 4.786-5.401 13.219-5.346 18 .06 4.864 5.5 9.984 10.754 15.56 15.543 6.568 5.641 14.321 10.79 22.965 10.884 5.77.07 11.755-3.024 14.863-7.648 2.574-3.829 7.683-5.011 11.863-3.058 27.561 12.879 57.97 20.773 88.458 22.479 12.26.686 22.688 9.336 25.465 21.297 3.313 14.281 5.092 30.133 5.092 47.542z"/></g><path d="M291.257 185.687c-2.206-9.505-9.252-16.903-18.202-19.891 2.672 13.23 4.1 27.71 4.1 43.439 0 75.608-76.279 119.011-120.843 119.011-20.724 0-48.314-9.396-71.9-27.052 25.684 31.45 65.899 48.584 93.595 48.584 43.643 0 118.343-42.505 118.343-116.549 0-17.41-1.779-33.262-5.093-47.542z" fill="#e09380"/><path d="m82.15 504.5 21.577-83.004a8.048 8.048 0 0 1 7.789-6.023h33.137c17.978 0 32.552-14.574 32.552-32.552v-13.683a5.802 5.802 0 0 1 5.802-5.802h32.357c9.58 0 17.688-7.589 17.764-17.169a17.25 17.25 0 0 0-5.066-12.395 17.272 17.272 0 0 0-12.254-5.077h-84.686c-3.735 0-5.921-4.2-3.778-7.253l13.986-19.984a16.71 16.71 0 0 0 3.042-10.208 16.832 16.832 0 0 0-6.961-13.218l-.357-.26c-7.892-5.727-18.847-3.984-24.508 3.865-9.992 13.856-53.91 74.662-58.251 80.681l-34.593 133.08c-1.184 4.555 2.254 9.001 6.961 9.001H82.15z" fill="#f9b1a0"/><path d="M403.214 36.641c-19.177 0-34.777 15.601-34.777 34.778 0 4.142 3.357 7.5 7.5 7.5s7.5-3.358 7.5-7.5c0-10.906 8.872-19.778 19.777-19.778 10.906 0 19.778 8.872 19.778 19.778s-8.872 19.778-19.778 19.778h-4.76a7.5 7.5 0 0 0-7.5 7.5v25.659c0 4.142 3.357 7.5 7.5 7.5s7.5-3.358 7.5-7.5V106.09c17.9-1.402 32.038-16.417 32.038-34.671 0-19.177-15.602-34.778-34.778-34.778zM398.454 143.284a7.5 7.5 0 0 0-7.5 7.5v2.197c0 4.142 3.357 7.5 7.5 7.5s7.5-3.358 7.5-7.5v-2.197a7.5 7.5 0 0 0-7.5-7.5z"/><path d="M469.019 0H337.4c-18.059 0-32.75 14.691-32.75 32.75v59.346c-24.681-35.453-65.723-58.706-112.1-58.706h-33.53c-39.209 0-75.726 20.641-96.045 54.07-27.575 8.646-46 34.331-45.162 63.537l1.894 65.445c-5.833 5.472-9.487 13.239-9.487 21.849v7.04c0 16.52 13.444 29.96 29.97 29.96h20.105c5.118 12.659 12.565 24.47 22.223 35.231-5.316 7.362-32.63 45.187-34.306 47.51a7.518 7.518 0 0 0-1.176 2.5l-34.593 133.08a14.591 14.591 0 0 0 2.597 12.684 14.594 14.594 0 0 0 11.622 5.705H305.66c5.002 0 9.824-2.1 13.231-5.761a18.15 18.15 0 0 0 4.799-13.625l-2.84-38.876c-.713-9.839-3.325-19.255-7.765-27.987a7.501 7.501 0 0 0-13.371 6.799c3.53 6.942 5.607 14.435 6.175 22.277l2.84 38.872c.084 1.166-.477 1.956-.817 2.322s-1.087.98-2.252.98h-34.593v-30.645c0-4.142-3.357-7.5-7.5-7.5s-7.5 3.358-7.5 7.5V497H91.849l19.137-73.616a.549.549 0 0 1 .531-.411h33.137a39.8 39.8 0 0 0 18.635-4.615A82.478 82.478 0 0 0 178 419.681c21.034 0 41.107-8.035 55.802-22.192l.028.005c1.464.304.354.08 22.572 3.577a58.25 58.25 0 0 1 22.679 8.616 7.493 7.493 0 0 0 10.366-2.246 7.5 7.5 0 0 0-2.247-10.366c-8.673-5.584-18.256-9.225-28.479-10.823-19.244-3.227-21.01-2.937-24.091-4.121-5.414-2.089-9.116-7.243-9.209-13.26 8.869-3.807 15.129-12.475 15.208-22.537a24.856 24.856 0 0 0-1.246-8.015c17.741-10.517 43.179-30.42 56.33-63.029h14.117c16.52 0 29.96-13.44 29.96-29.96v-7.04c0-9.208-4.177-17.457-10.73-22.959v-19.297a32.726 32.726 0 0 0 8.341 1.086h23.619c2.729 0 4.95 2.22 4.95 4.95v21.3c0 5.295 3.237 9.823 8.248 11.536a12.43 12.43 0 0 0 4.025.677c3.676 0 7.178-1.678 9.552-4.745l24.815-31.973a4.482 4.482 0 0 1 3.56-1.745h52.86c18.059 0 32.75-14.691 32.75-32.75V32.75C501.78 14.691 487.084 0 469.019 0zM25.22 245.33v-7.04c0-8.254 6.715-14.97 14.97-14.97h12.17c-.516 13.041-.178 23.78 3.079 36.97H40.19c-8.255 0-14.97-6.711-14.97-14.96zm153.038 159.344a39.803 39.803 0 0 0 6.448-21.752v-11.985h25.797c.569 7.492 3.899 14.225 9.065 19.12-11.403 9.313-26.017 14.558-41.31 14.617zm37.107-48.738h-32.357c-7.335 0-13.302 5.967-13.302 13.302v13.683c0 13.813-11.238 25.052-25.052 25.052h-33.137a15.55 15.55 0 0 0-15.048 11.637L76.35 497H27.062L61.2 365.667c2.645-3.665 51.292-71.032 57.428-79.541a9.873 9.873 0 0 1 6.484-4 10.037 10.037 0 0 1 7.529 1.811l.366.267c2.383 1.729 3.792 4.403 3.87 7.398a9.218 9.218 0 0 1-1.691 5.656l-13.98 19.974a12.066 12.066 0 0 0-.834 12.537 12.075 12.075 0 0 0 10.75 6.526h84.686a9.769 9.769 0 0 1 6.951 2.88 9.742 9.742 0 0 1 2.87 7.032c-.042 5.365-4.647 9.729-10.264 9.729zM324.79 245.33c0 8.249-6.711 14.96-14.96 14.96h-9.259a112.728 112.728 0 0 0 3.278-27.06c0-3.344-.071-6.654-.199-9.91h6.18c8.249 0 14.96 6.716 14.96 14.97zm-14.96-37.01h-7.253c-.879-8.424-2.219-16.582-4.012-24.328-3.504-15.075-16.808-26.215-32.355-27.09-29.058-1.629-58.694-9.163-85.709-21.789-7.564-3.528-16.699-1.092-21.252 5.668-1.719 2.554-5.331 4.412-8.552 4.339-5.251-.061-11.025-2.946-18.167-9.077-4.816-4.142-9.669-8.991-14.83-14.819a19.581 19.581 0 0 0-14.648-6.618h-.019a19.483 19.483 0 0 0-14.567 6.55c-7.217 8.144-13.478 17.494-18.609 27.788a7.501 7.501 0 0 0 13.425 6.693c4.545-9.118 10.066-17.372 16.409-24.529a4.423 4.423 0 0 1 3.343-1.501c.774.012 2.234.201 3.431 1.556 5.622 6.348 10.949 11.665 16.29 16.258 6.274 5.386 15.979 12.563 27.764 12.699 8.347.085 16.622-4.202 21.172-10.96.453-.673 1.561-.876 2.464-.455 28.726 13.425 60.268 21.438 91.213 23.174 8.938.503 16.581 6.88 18.585 15.503 2.107 9.103 3.55 18.853 4.287 28.997.404 5.409.609 11.079.609 16.852 0 11.072-1.813 21.866-5.389 32.084-11.205 32.035-36.282 51.171-52.931 60.812-4.241-3.136-9.351-4.831-14.721-4.831h-79.137l10.795-15.424c3.058-4.352 4.58-9.46 4.403-14.713-.196-7.642-3.861-14.602-10.045-19.089l-.365-.266c-5.452-3.955-12.101-5.547-18.722-4.487-6.589 1.057-12.368 4.621-16.275 10.036-2.822 3.914-8.354 11.577-14.933 20.69-8.512-10.036-14.884-21.011-18.981-32.729-5.774-16.494-6.096-31.308-4.779-48.947.755-10.358 2.252-20.328 4.449-29.632a7.5 7.5 0 1 0-14.599-3.447c-1.881 7.966-3.278 16.365-4.186 25.034H40.19c-1.948 0-3.85.193-5.696.55l-1.687-58.305c-.668-23.248 14.552-43.59 37.012-49.469a7.503 7.503 0 0 0 4.615-3.538c17.306-30.33 49.718-49.17 84.586-49.17h33.53c67.001 0 121.51 54.509 121.51 121.51v38.724a30.118 30.118 0 0 0-4.23-.304zm176.95-43.95c0 9.788-7.963 17.75-17.75 17.75h-52.86c-6.062 0-11.674 2.746-15.404 7.541l-19.796 25.507V202.07c0-11-8.949-19.95-19.95-19.95H337.4c-2.968 0-5.798-.719-8.341-2.084V169.9c0-17.568-3.338-34.37-9.409-49.809V32.75c0-9.788 7.963-17.75 17.75-17.75h131.619c9.793 0 17.761 7.962 17.761 17.75z"/><path d="M140.106 240.658a7.5 7.5 0 0 0 7.5-7.5v-8.374a7.5 7.5 0 0 0-15 0v8.374a7.5 7.5 0 0 0 7.5 7.5zM252.183 240.658a7.5 7.5 0 0 0 7.5-7.5v-8.374a7.5 7.5 0 0 0-15 0v8.374a7.5 7.5 0 0 0 7.5 7.5zM183.209 277.559c10.226-5.965 19.749-5.965 29.975 0a7.497 7.497 0 0 0 10.257-2.7 7.5 7.5 0 0 0-2.7-10.257c-14.749-8.604-30.341-8.604-45.09 0a7.5 7.5 0 1 0 7.558 12.957z"/></svg>