<svg xmlns="http://www.w3.org/2000/svg" viewBox="0 0 512 512" style="enable-background:new 0 0 512 512" xml:space="preserve"><path style="fill:#fa496e" d="M504.396 419.094H308.579c0-29.037-23.542-52.589-52.579-52.589-29.047 0-52.589 23.552-52.589 52.589H7.604c0-137.186 111.21-248.396 248.396-248.396s248.396 111.21 248.396 248.396z"/><path style="fill:#a67eff" d="M341.223 419.094h-32.646c0-29.037-23.542-52.589-52.579-52.589-29.047 0-52.589 23.552-52.589 52.589h-32.636c0-47.063 38.162-85.215 85.225-85.215s85.225 38.151 85.225 85.215z"/><path style="fill:#52dbff" d="M373.849 419.094h-32.626c0-47.063-38.162-85.215-85.225-85.215s-85.225 38.152-85.225 85.215h-32.626c0-65.09 52.761-117.851 117.851-117.851s117.851 52.761 117.851 117.851z"/><path style="fill:#00dcab" d="M406.485 419.094h-32.636c0-65.09-52.761-117.851-117.851-117.851s-117.851 52.761-117.851 117.851h-32.636c0-83.116 67.371-150.487 150.487-150.487s150.487 67.37 150.487 150.487z"/><path style="fill:#ff8522" d="M471.758 419.094h-32.636c0-101.133-81.981-183.124-183.124-183.124-101.133 0-183.124 81.991-183.124 183.124H40.238c0-119.159 96.601-215.76 215.76-215.76s215.76 96.601 215.76 215.76z"/><path style="fill:#fd0" d="M439.122 419.094h-32.636c0-83.116-67.371-150.487-150.487-150.487s-150.487 67.371-150.487 150.487H72.874c0-101.133 81.991-183.124 183.124-183.124 101.143 0 183.124 81.991 183.124 183.124z"/><path d="M504.396 426.699a7.604 7.604 0 0 1-7.604-7.604c0-64.317-25.046-124.786-70.527-170.266-45.479-45.48-105.947-70.526-170.266-70.526s-124.786 25.046-170.266 70.526c-45.479 45.479-70.525 105.947-70.525 170.266a7.604 7.604 0 0 1-15.208 0c0-68.38 26.629-132.668 74.98-181.019 48.352-48.352 112.64-74.981 181.02-74.981s132.668 26.629 181.019 74.981C485.371 286.427 512 350.714 512 419.095a7.604 7.604 0 0 1-7.604 7.604z"/><path d="M308.578 426.699a7.604 7.604 0 0 1-7.604-7.604c0-24.805-20.175-44.985-44.974-44.985-24.805 0-44.985 20.18-44.985 44.985a7.604 7.604 0 0 1-15.208 0c0-33.191 27.003-60.193 60.193-60.193 33.184 0 60.182 27.002 60.182 60.193a7.604 7.604 0 0 1-7.604 7.604z"/><path d="M471.758 426.699a7.604 7.604 0 0 1-7.604-7.604c0-114.778-93.379-208.158-208.157-208.158S47.84 304.317 47.84 419.095a7.604 7.604 0 0 1-15.208 0c0-59.664 23.234-115.755 65.421-157.943s98.281-65.422 157.943-65.422 115.755 23.235 157.942 65.422 65.421 98.281 65.421 157.943a7.6 7.6 0 0 1-7.601 7.604z"/><path d="M72.87 426.699a7.604 7.604 0 0 1-7.604-7.604c0-105.169 85.562-190.731 190.731-190.731 36.636 0 72.221 10.415 102.912 30.121a7.605 7.605 0 0 1-8.216 12.797c-28.235-18.128-60.98-27.71-94.696-27.71-96.783 0-175.523 78.74-175.523 175.523 0 4.2-3.403 7.604-7.604 7.604zM439.123 426.699a7.604 7.604 0 0 1-7.604-7.604c0-52.332-23.106-101.554-63.393-135.044a7.604 7.604 0 1 1 9.72-11.694c43.774 36.388 68.88 89.873 68.88 146.739a7.602 7.602 0 0 1-7.603 7.603z"/><path d="M406.487 426.699a7.604 7.604 0 0 1-7.604-7.604c0-78.788-64.098-142.888-142.887-142.888s-142.888 64.099-142.888 142.888a7.604 7.604 0 0 1-15.208 0C97.9 331.921 168.821 261 255.995 261c87.173 0 158.094 70.922 158.094 158.095a7.6 7.6 0 0 1-7.602 7.604z"/><path d="M138.141 426.699a7.604 7.604 0 0 1-7.604-7.604c0-20.04 4.586-39.193 13.63-56.927a7.606 7.606 0 0 1 13.548 6.911c-7.944 15.574-11.972 32.402-11.972 50.018a7.6 7.6 0 0 1-7.602 7.602zM373.852 426.699a7.604 7.604 0 0 1-7.604-7.604c0-60.793-49.458-110.252-110.251-110.252-35.075 0-67.265 16.124-88.314 44.239a7.605 7.605 0 0 1-12.175-9.116c23.95-31.986 60.577-50.332 100.489-50.332 69.178 0 125.459 56.281 125.459 125.46a7.603 7.603 0 0 1-7.604 7.605z"/><path d="M341.218 426.699a7.604 7.604 0 0 1-7.604-7.604c0-42.798-34.819-77.617-77.617-77.617-42.799 0-77.618 34.819-77.618 77.617a7.604 7.604 0 0 1-15.208 0c0-51.184 41.641-92.825 92.826-92.825s92.825 41.641 92.825 92.825c0 4.2-3.404 7.604-7.604 7.604zM256 145.119a7.604 7.604 0 0 1-7.604-7.604v-44.61a7.604 7.604 0 0 1 15.208 0v44.61c0 4.2-3.404 7.604-7.604 7.604zM371.199 170.448a7.605 7.605 0 0 1-6.944-10.696l18.131-40.759a7.604 7.604 0 0 1 13.895 6.181l-18.131 40.759a7.604 7.604 0 0 1-6.951 4.515zM458.368 231.983a7.575 7.575 0 0 1-5.437-2.288 7.604 7.604 0 0 1 .121-10.753l31.897-31.187a7.603 7.603 0 0 1 10.752.122 7.604 7.604 0 0 1-.121 10.753l-31.897 31.187a7.587 7.587 0 0 1-5.315 2.166zM140.801 170.448a7.605 7.605 0 0 1-6.951-4.516l-18.131-40.759a7.603 7.603 0 0 1 3.858-10.038 7.603 7.603 0 0 1 10.037 3.857l18.131 40.759a7.603 7.603 0 0 1-3.858 10.038 7.554 7.554 0 0 1-3.086.659zM53.631 231.983a7.578 7.578 0 0 1-5.315-2.168L16.42 198.628a7.603 7.603 0 0 1-.121-10.753 7.603 7.603 0 0 1 10.752-.121l31.896 31.187a7.603 7.603 0 0 1 .121 10.753 7.574 7.574 0 0 1-5.437 2.289z"/></svg>