<svg xmlns="http://www.w3.org/2000/svg" viewBox="0 0 512 512" style="enable-background:new 0 0 512 512" xml:space="preserve"><path style="fill:#ffc850" d="m259.605 21.498 30.231-11.424a10.198 10.198 0 0 1 9.98 1.581l25.222 20.207a10.196 10.196 0 0 0 6.856 2.228l32.283-1.523a10.195 10.195 0 0 1 9.003 4.588l17.743 27.012a10.19 10.19 0 0 0 5.832 4.237l31.173 8.527a10.194 10.194 0 0 1 7.144 7.144l8.527 31.173a10.192 10.192 0 0 0 4.237 5.832l27.012 17.743a10.198 10.198 0 0 1 4.588 9.003l-1.523 32.283a10.2 10.2 0 0 0 2.228 6.856l20.207 25.222a10.198 10.198 0 0 1 1.581 9.98l-11.424 30.231a10.194 10.194 0 0 0 0 7.209l11.424 30.231a10.198 10.198 0 0 1-1.581 9.98l-20.207 25.222a10.196 10.196 0 0 0-2.228 6.856l1.523 32.283a10.195 10.195 0 0 1-4.588 9.003l-27.012 17.743a10.19 10.19 0 0 0-4.237 5.832l-8.527 31.173a10.194 10.194 0 0 1-7.144 7.144l-31.173 8.527a10.192 10.192 0 0 0-5.832 4.237L373.18 474.85a10.198 10.198 0 0 1-9.003 4.588l-32.283-1.523a10.2 10.2 0 0 0-6.856 2.228l-25.222 20.207a10.198 10.198 0 0 1-9.98 1.581l-30.231-11.424a10.194 10.194 0 0 0-7.209 0l-30.231 11.424a10.198 10.198 0 0 1-9.98-1.581l-25.222-20.207a10.196 10.196 0 0 0-6.856-2.228l-32.283 1.523a10.195 10.195 0 0 1-9.003-4.588l-17.743-27.012a10.19 10.19 0 0 0-5.832-4.237l-31.173-8.527a10.194 10.194 0 0 1-7.144-7.144l-8.527-31.173a10.192 10.192 0 0 0-4.237-5.832L37.154 373.18a10.198 10.198 0 0 1-4.588-9.003l1.523-32.283a10.2 10.2 0 0 0-2.228-6.856l-20.207-25.222a10.198 10.198 0 0 1-1.581-9.98l11.424-30.231a10.194 10.194 0 0 0 0-7.209l-11.424-30.233a10.198 10.198 0 0 1 1.581-9.98l20.207-25.222a10.196 10.196 0 0 0 2.228-6.856l-1.523-32.283a10.195 10.195 0 0 1 4.588-9.003l27.012-17.743a10.19 10.19 0 0 0 4.237-5.832l8.527-31.173a10.194 10.194 0 0 1 7.144-7.144l31.173-8.527a10.192 10.192 0 0 0 5.832-4.237l17.743-27.012a10.198 10.198 0 0 1 9.003-4.588l32.283 1.523c2.48.118 4.918-.676 6.856-2.228l25.222-20.207a10.198 10.198 0 0 1 9.98-1.581l30.231 11.424a10.18 10.18 0 0 0 7.208.004z"/><path style="fill:#e1a546" d="M332.961 435.573c-141.679 0-256.534-114.854-256.534-256.534 0-37.945 8.304-73.929 23.089-106.334l-15.441 4.224a10.194 10.194 0 0 0-7.144 7.144l-8.528 31.173a10.198 10.198 0 0 1-4.237 5.833l-27.012 17.743a10.197 10.197 0 0 0-4.588 9.002l1.523 32.283a10.2 10.2 0 0 1-2.228 6.856l-20.207 25.222a10.196 10.196 0 0 0-1.581 9.979l11.424 30.231a10.194 10.194 0 0 1 0 7.209l-11.424 30.231a10.198 10.198 0 0 0 1.581 9.98l20.207 25.222a10.196 10.196 0 0 1 2.228 6.856l-1.523 32.283a10.195 10.195 0 0 0 4.588 9.003l27.012 17.743a10.193 10.193 0 0 1 4.237 5.832l8.528 31.173a10.2 10.2 0 0 0 7.144 7.146l31.173 8.528a10.192 10.192 0 0 1 5.832 4.237l17.743 27.012a10.2 10.2 0 0 0 9.003 4.588l32.282-1.523a10.202 10.202 0 0 1 6.857 2.228l25.222 20.207a10.199 10.199 0 0 0 9.979 1.581l30.231-11.424a10.194 10.194 0 0 1 7.209 0l30.231 11.424a10.195 10.195 0 0 0 9.979-1.581l25.222-20.207a10.207 10.207 0 0 1 6.857-2.228l32.282 1.523a10.195 10.195 0 0 0 9.003-4.588l17.743-27.012a10.193 10.193 0 0 1 5.832-4.237l31.173-8.528a10.193 10.193 0 0 0 7.144-7.146l4.224-15.441c-32.407 14.784-68.391 23.087-106.335 23.087z"/><circle style="fill:#ffdc64" cx="255.999" cy="256" r="196.676"/><path style="fill:#ffc850" d="M336.537 395.929c-1.436-2.393-3.93-3.919-6.707-4.203-99.11-10.134-176.444-93.801-176.444-195.585 0-25.788 4.99-50.401 14.024-72.961 2.306-5.757-4.134-10.967-9.218-7.416-49.284 34.42-79.609 94.099-72.069 160.304 8.767 76.978 70.306 139.279 147.113 149.444 36.326 4.808 70.523-2.121 99.925-17.162 4.511-2.307 5.983-8.075 3.376-12.421z"/><path style="fill:#fff" d="M384.31 226.071c0-11.807-9.571-21.378-21.378-21.378h-74.009c19.906-16.117 33.424-37.736 35.378-55.516 1.448-13.184-7.667-25.705-20.929-25.828-11.894-.11-21.574 9.401-21.574 21.268 0 7.699-16.71 30.547-48.025 40.713-5.021 1.629-9.398 4.73-13.011 8.578-2.662 2.833-9.754 11.462-16.708 16.167-1.262-3.148-4.313-5.383-7.912-5.383h-51.307a8.552 8.552 0 0 0-8.551 8.551v136.818a8.552 8.552 0 0 0 8.551 8.551h51.307a8.552 8.552 0 0 0 8.551-8.551h136.861c9.446 0 17.102-7.658 17.102-17.102 0-9.446-7.656-17.102-17.102-17.102h8.551c9.446 0 17.102-7.658 17.102-17.102 0-9.446-7.656-17.102-17.102-17.102h8.551c9.446 0 17.102-7.658 17.102-17.102 0-9.446-7.656-17.102-17.102-17.102h4.276c11.806-.001 21.378-9.571 21.378-21.378z"/><path style="fill:#fffab4" d="M332.961 298.755a8.552 8.552 0 0 0 0 17.102H349.192c8.519 0 16.415-5.822 17.783-14.231.158-.978.149-1.924.147-2.871h-34.161zM332.961 264.551a8.552 8.552 0 0 0 0 17.102h24.782c8.519 0 16.415-5.822 17.783-14.231.158-.978.149-1.924.148-2.871h-42.713zM332.961 230.346a8.552 8.552 0 0 0 0 17.102h29.972c10.329 0 18.836-7.365 20.833-17.102h-50.805z"/><path style="fill:#fffab4" d="M230.347 324.409V219.666c0-3.722 2.395-6.978 5.931-8.136 17.232-5.65 66.339-26.733 70.55-84.467l-3.619-3.713c-11.819-.022-21.412 9.455-21.412 21.269 0 7.699-16.71 30.547-48.025 40.713-5.021 1.629-9.398 4.73-13.011 8.578-2.58 2.746-9.325 10.909-16.069 15.695V332.96h-25.653c-9.446 0-17.102-7.656-17.102-17.102V204.693h-17.102a8.552 8.552 0 0 0-8.551 8.551v136.818a8.552 8.552 0 0 0 8.551 8.551h51.307a8.552 8.552 0 0 0 8.551-8.551h136.861c9.446 0 17.102-7.658 17.102-17.102H238.897a8.55 8.55 0 0 1-8.55-8.551z"/><path d="M392.327 226.071c0-16.209-13.186-29.395-29.395-29.395H308.91c13.125-14.753 21.703-31.552 23.36-46.623 1.012-9.205-1.832-18.342-7.805-25.069-5.459-6.149-12.924-9.576-21.02-9.651l-.281-.001c-7.831 0-15.181 3.016-20.728 8.512-5.548 5.497-8.618 12.82-8.654 20.635-.285 1.711-3.295 7.61-10.66 14.614-6.03 5.736-16.446 13.621-31.825 18.614-6.03 1.958-11.541 5.563-16.379 10.715a105.986 105.986 0 0 1-11.048 10.18 16.454 16.454 0 0 0-7.728-1.924h-51.307c-9.136 0-16.568 7.432-16.568 16.568v136.818c0 9.136 7.432 16.568 16.568 16.568h51.307c6.228 0 11.659-3.458 14.489-8.551h130.923c13.851 0 25.119-11.268 25.119-25.119 0-4.657-1.273-9.021-3.491-12.765 7.217-4.418 12.042-12.376 12.042-21.44 0-4.657-1.273-9.021-3.491-12.765 7.217-4.418 12.042-12.376 12.042-21.44a24.982 24.982 0 0 0-4.371-14.146c7.793-5.292 12.923-14.226 12.923-24.335zm-29.395 13.361h-4.276a8.017 8.017 0 0 0 0 16.034c5.01 0 9.086 4.076 9.086 9.086s-4.076 9.086-9.086 9.086h-8.551a8.017 8.017 0 0 0 0 16.034c5.01 0 9.086 4.076 9.086 9.086s-4.076 9.086-9.086 9.086h-8.551a8.017 8.017 0 0 0 0 16.034c5.01 0 9.086 4.076 9.086 9.086 0 5.01-4.076 9.086-9.086 9.086H212.71v-77.495a8.017 8.017 0 0 0-16.034 0v85.511a.534.534 0 0 1-.534.534h-51.307a.534.534 0 0 1-.534-.534V213.244c0-.295.239-.534.534-.534h51.307c.295 0 .534.239.534.534v17.103a8.017 8.017 0 0 0 16.034 0v-17.103c0-.389-.032-.77-.059-1.152a121.724 121.724 0 0 0 13.954-12.695c2.967-3.161 6.211-5.327 9.642-6.44 18.87-6.126 31.569-15.99 38.898-23.186 9.186-9.019 14.669-18.421 14.669-25.152 0-3.556 1.387-6.889 3.906-9.385 2.55-2.527 5.927-3.862 9.576-3.867 4.494.042 7.47 2.341 9.177 4.263 2.926 3.295 4.366 8.033 3.857 12.672-1.751 15.929-14.49 35.619-32.454 50.161a8.018 8.018 0 0 0 5.044 14.247h74.01c7.368 0 13.361 5.993 13.361 13.361s-5.992 13.361-13.359 13.361z"/><path d="M170.489 316.306c-4.427 0-8.059 3.632-8.059 8.059s3.632 8.059 8.059 8.059 8.059-3.632 8.059-8.059-3.631-8.059-8.059-8.059z"/><path d="m497.71 256 13.772-36.443a8.014 8.014 0 0 0-1.243-7.847l-24.359-30.404 1.836-38.915a8.017 8.017 0 0 0-3.606-7.078l-32.562-21.389-10.278-37.578a8.016 8.016 0 0 0-5.617-5.617l-37.578-10.278-21.389-32.561a8.027 8.027 0 0 0-7.078-3.606l-38.915 1.836-30.404-24.359a8.018 8.018 0 0 0-7.847-1.243L255.999 14.29 219.558.519a8.012 8.012 0 0 0-7.847 1.243l-30.404 24.359-38.915-1.836a8.001 8.001 0 0 0-7.078 3.606l-21.389 32.562-37.577 10.278a8.016 8.016 0 0 0-5.617 5.617l-10.278 37.578-32.562 21.389a8.016 8.016 0 0 0-3.606 7.078l1.836 38.915-24.359 30.403a8.018 8.018 0 0 0-1.243 7.847L14.29 256 .518 292.442a8.014 8.014 0 0 0 1.243 7.847l24.359 30.404-1.836 38.915a8.017 8.017 0 0 0 3.606 7.078l32.562 21.389 10.278 37.578a8.016 8.016 0 0 0 5.617 5.617l37.578 10.278 21.389 32.562a8.04 8.04 0 0 0 7.078 3.606l38.915-1.836 30.404 24.359a8.013 8.013 0 0 0 7.847 1.243l36.443-13.772 36.443 13.772a8.02 8.02 0 0 0 7.846-1.243l30.404-24.359 38.915 1.836a8.025 8.025 0 0 0 7.078-3.606l21.389-32.562 37.578-10.278a8.016 8.016 0 0 0 5.617-5.617l10.278-37.578 32.562-21.389a8.016 8.016 0 0 0 3.606-7.078l-1.836-38.915 24.359-30.404a8.018 8.018 0 0 0 1.243-7.847L497.71 256zm-16.069 2.834 13.226 34.999-23.394 29.199a8.014 8.014 0 0 0-1.752 5.39l1.764 37.373-31.272 20.541a8.017 8.017 0 0 0-3.332 4.586l-9.871 36.089-36.089 9.871a8.022 8.022 0 0 0-4.586 3.332l-20.541 31.272-37.373-1.764a8.023 8.023 0 0 0-5.39 1.752l-29.199 23.394-34.999-13.226a8.018 8.018 0 0 0-5.668 0l-34.999 13.226-29.199-23.394a8.03 8.03 0 0 0-5.39-1.752l-37.373 1.764-20.541-31.272a8.017 8.017 0 0 0-4.586-3.332l-36.089-9.871-9.871-36.089a8.022 8.022 0 0 0-3.332-4.586l-31.271-20.541 1.764-37.373a8.012 8.012 0 0 0-1.752-5.39l-23.394-29.199 13.226-34.999a8.008 8.008 0 0 0 0-5.668l-13.226-34.999 23.394-29.199a8.014 8.014 0 0 0 1.752-5.39l-1.764-37.373 31.271-20.541a8.017 8.017 0 0 0 3.332-4.586l9.871-36.089 36.089-9.871a8.022 8.022 0 0 0 4.586-3.332l20.541-31.271 37.373 1.764a8.022 8.022 0 0 0 5.39-1.752l29.199-23.394 34.999 13.226a8.008 8.008 0 0 0 5.668 0l34.999-13.226 29.199 23.394a8.01 8.01 0 0 0 5.39 1.752l37.373-1.764 20.541 31.271a8.017 8.017 0 0 0 4.586 3.332l36.089 9.871 9.871 36.089a8.022 8.022 0 0 0 3.332 4.586l31.271 20.541-1.764 37.373a8.012 8.012 0 0 0 1.752 5.39l23.394 29.199-13.226 34.999a8.024 8.024 0 0 0 .001 5.668z"/><path d="M389.144 122.491a194.67 194.67 0 0 1 5.679 5.926 7.996 7.996 0 0 0 5.908 2.595 8.017 8.017 0 0 0 5.903-13.438 209.24 209.24 0 0 0-12.573-12.573 8.017 8.017 0 0 0-11.327.484 8.016 8.016 0 0 0 .484 11.327 193.36 193.36 0 0 1 5.926 5.679zM122.339 122.491c30.54-30.541 70.972-49.806 113.845-54.247 42.275-4.38 85.171 5.709 120.792 28.403 3.735 2.379 8.689 1.281 11.068-2.453s1.281-8.689-2.453-11.068c-38.66-24.63-85.206-35.576-131.059-30.829-46.525 4.82-90.395 25.722-123.531 58.857-36.467 36.467-57.699 84.911-59.785 136.408-2.072 51.193 14.884 100.897 47.747 139.953a7.998 7.998 0 0 0 6.139 2.855 8.017 8.017 0 0 0 6.13-13.177c-30.281-35.989-45.905-81.795-43.994-128.982 1.921-47.462 21.49-92.11 55.101-125.72zM417.442 143.589a8.015 8.015 0 0 0-2.453 11.068c22.694 35.622 32.781 78.52 28.403 120.792-4.441 42.874-23.706 83.305-54.246 113.847-33.611 33.61-78.259 53.179-125.72 55.101-47.179 1.918-92.994-13.713-128.982-43.993a8.016 8.016 0 0 0-11.295.973 8.016 8.016 0 0 0 .973 11.295c36.921 31.065 83.351 47.917 131.566 47.916 2.789 0 5.589-.057 8.389-.17 51.497-2.085 99.94-23.317 136.408-59.784 33.136-33.136 54.039-77.007 58.857-123.532 4.75-45.855-6.198-92.399-30.829-131.059-2.381-3.735-7.339-4.834-11.071-2.454z"/></svg>