<svg xmlns="http://www.w3.org/2000/svg" viewBox="0 0 513.303 513.303" style="enable-background:new 0 0 513.303 513.303" xml:space="preserve" width="512" height="512"><path style="fill:#d39e7a" d="M238.585 112.536c-9.978 0-18.066-8.089-18.066-18.066V25.566c0-9.978 8.089-18.066 18.066-18.066 9.978 0 18.066 8.089 18.066 18.066V94.47c.001 9.978-8.088 18.066-18.066 18.066z"/><path style="fill:#ba8b6a" d="M328.916 114.956a144.482 144.482 0 0 0-36.132-14.686v173.766c0 9.978 8.089 18.066 18.066 18.066 9.978 0 18.066-8.089 18.066-18.066v-159.08zM74.671 241.052v246.685c0 9.978-8.089 18.066-18.066 18.066-9.978 0-18.066-8.089-18.066-18.066V241.052"/><path style="fill:#ba8b6a" d="M74.671 361.302c39.043 58.966 105.964 97.862 181.98 97.862 120.461 0 218.113-97.652 218.113-218.113 0-108.15-78.718-197.898-181.98-215.117v36.729c83.195 16.76 145.848 90.254 145.848 178.387 0 100.505-81.475 181.98-181.98 181.98s-181.98-81.475-181.98-181.98c0-88.133 62.653-161.628 145.848-178.387V25.935C117.257 43.153 38.539 132.902 38.539 241.052"/><path style="fill:#904f15" d="M292.784 62.664V94.47a18.06 18.06 0 0 1-.884 5.57c63.227 15.754 110.077 72.907 110.077 141.012 0 80.261-65.064 145.325-145.325 145.325s-145.325-65.064-145.325-145.325c0-68.104 46.85-125.258 110.077-141.012a18.03 18.03 0 0 1-.885-5.57V62.664c-83.195 16.76-145.848 90.254-145.848 178.387 0 100.505 81.475 181.98 181.98 181.98s181.98-81.475 181.98-181.98c.001-88.132-62.652-161.627-145.847-178.387z"/><path style="fill:#904f15" d="M274.718 112.536c-9.978 0-18.066-8.089-18.066-18.066V25.566c0-9.978 8.089-18.066 18.066-18.066 9.978 0 18.066 8.089 18.066 18.066V94.47c0 9.978-8.089 18.066-18.066 18.066z"/><path style="fill:#7c4213" d="M190.519 71.469v40.154a144.366 144.366 0 0 1 30.885-11.582 18.03 18.03 0 0 1-.885-5.57V62.664a180.568 180.568 0 0 0-30 8.805z"/><path style="fill:#a0785d" d="M74.671 241.052v120.25a219.3 219.3 0 0 0 30 36.171v-56.314c-18.955-28.72-30-63.121-30-100.107zM190.519 71.469a180.661 180.661 0 0 1 30-8.804v-36.73a216.72 216.72 0 0 0-30 7.24v38.294zM292.784 131.625l36.132 15v-31.669a144.482 144.482 0 0 0-36.132-14.686v31.355z"/><path d="M428.198 94.52c-33.251-38.883-78.755-65.358-128.638-74.979C296.843 8.343 286.739 0 274.718 0c-7.047 0-13.437 2.866-18.066 7.494C252.022 2.866 245.632 0 238.585 0c-12.021 0-22.126 8.343-24.842 19.541-49.883 9.621-95.388 36.096-128.638 74.979-34.866 40.772-54.067 92.811-54.067 146.532v246.685c0 14.097 11.469 25.566 25.566 25.566s25.566-11.469 25.566-25.566v-39.321a7.5 7.5 0 0 0-15 0v39.321c0 5.826-4.74 10.566-10.566 10.566-5.826 0-10.566-4.74-10.566-10.566V241.052c0-50.148 17.923-98.726 50.467-136.783 30.251-35.376 71.355-59.755 116.514-69.286v21.646c-.335.079-.668.167-1.003.248a192.922 192.922 0 0 0-9.318 2.511c-.703.209-1.403.424-2.103.642-.554.172-1.108.343-1.66.52-.704.226-1.406.458-2.107.692-.542.181-1.084.36-1.623.545-.71.244-1.417.496-2.123.749-.527.188-1.055.374-1.58.567-.72.264-1.435.537-2.151.81-.507.193-1.016.384-1.522.581-.734.287-1.464.584-2.194.88-.484.196-.969.388-1.451.588-.766.318-1.528.647-2.289.975-.439.189-.881.373-1.319.566-.859.378-1.713.768-2.567 1.159-.335.153-.673.301-1.007.457a188.47 188.47 0 0 0-7.067 3.464c-.325.168-.646.342-.969.512-.834.437-1.668.874-2.495 1.323-.423.23-.842.467-1.264.7-.723.399-1.446.797-2.164 1.206-.461.263-.918.533-1.377.799-.671.39-1.343.778-2.009 1.176-.479.286-.953.579-1.429.869-.641.39-1.282.78-1.919 1.178-.486.304-.967.614-1.45.922-.62.395-1.24.791-1.855 1.193-.489.32-.974.645-1.46.969-.602.402-1.203.804-1.8 1.213-.49.335-.977.675-1.464 1.015-.587.409-1.173.82-1.755 1.236a214.42 214.42 0 0 0-4.614 3.405 193.517 193.517 0 0 0-3.112 2.419 188.978 188.978 0 0 0-4.693 3.852 169.853 169.853 0 0 0-2.985 2.585c-.45.397-.899.795-1.345 1.196-.533.48-1.061.966-1.589 1.452-.44.405-.88.81-1.316 1.219-.528.496-1.05.997-1.572 1.499-.426.41-.854.817-1.277 1.231-.526.515-1.046 1.037-1.566 1.558-.41.411-.823.82-1.229 1.235-.528.539-1.049 1.086-1.572 1.632-.389.407-.781.81-1.167 1.22-.539.574-1.07 1.156-1.602 1.737-.36.393-.724.781-1.08 1.177-.585.65-1.161 1.309-1.738 1.967-.293.335-.591.665-.883 1.002-.864 1-1.719 2.009-2.563 3.029-28.016 33.844-43.445 76.72-43.448 120.728l-.001.012v177.364a7.5 7.5 0 0 0 15 0v-34.362c42.675 52.098 106.341 82.611 174.48 82.611 60.264 0 116.92-23.468 159.532-66.081 42.613-42.612 66.081-99.269 66.081-159.532-.002-53.718-19.203-105.757-54.068-146.529zM274.718 15c5.826 0 10.566 4.74 10.566 10.566V94.47c0 .322-.02.639-.048.954-.012.126-.029.252-.045.378a10.484 10.484 0 0 1-.175 1.002c-.032.14-.07.277-.107.414-.045.167-.088.334-.141.5-1.374 4.241-5.357 7.318-10.05 7.318-5.826 0-10.566-4.74-10.566-10.566V25.566C264.151 19.74 268.892 15 274.718 15zm-46.699 10.566c0-5.826 4.74-10.566 10.566-10.566s10.566 4.74 10.566 10.566V94.47c0 5.826-4.74 10.566-10.566 10.566-4.69 0-8.672-3.074-10.048-7.312-.056-.172-.1-.347-.147-.521-.035-.131-.071-.262-.102-.395a10.737 10.737 0 0 1-.176-1.005c-.016-.126-.034-.253-.045-.38a10.746 10.746 0 0 1-.048-.954V25.566zM122.175 129.875c.766-.926 1.543-1.842 2.327-2.75.259-.3.523-.594.784-.892.53-.606 1.061-1.212 1.599-1.81.316-.351.636-.696.954-1.043.49-.536.98-1.072 1.477-1.601.347-.37.698-.734 1.048-1.101.477-.5.955-1 1.438-1.494.365-.373.734-.743 1.102-1.113.476-.478.953-.955 1.434-1.428a170.54 170.54 0 0 1 5.23-4.927c.394-.356.788-.711 1.184-1.064a172.31 172.31 0 0 1 1.511-1.324c.397-.344.793-.689 1.192-1.029.518-.441 1.04-.876 1.562-1.311.394-.328.786-.657 1.182-.981.548-.448 1.1-.888 1.653-1.329.378-.302.755-.607 1.136-.906.61-.478 1.227-.948 1.843-1.419.329-.251.655-.507.986-.756.944-.71 1.895-1.411 2.852-2.101.146-.105.295-.207.441-.311a168.91 168.91 0 0 1 2.47-1.741c.365-.252.736-.497 1.103-.747.614-.417 1.228-.835 1.848-1.245.42-.277.843-.548 1.265-.821.574-.372 1.148-.745 1.727-1.111.445-.281.893-.557 1.34-.834.563-.349 1.126-.697 1.693-1.039.458-.277.92-.549 1.381-.822.562-.332 1.124-.663 1.69-.989a196.74 196.74 0 0 1 4.539-2.527c.571-.307 1.144-.61 1.719-.911.479-.251.958-.501 1.439-.747.583-.298 1.169-.592 1.755-.883.476-.237.953-.475 1.431-.708.601-.293 1.206-.578 1.81-.864.469-.222.938-.445 1.409-.663.635-.293 1.273-.578 1.912-.863.444-.199.887-.401 1.332-.595.721-.315 1.447-.62 2.172-.926.368-.155.733-.314 1.102-.467 1.092-.451 2.188-.891 3.289-1.32.193-.075.387-.145.58-.219.916-.353 1.834-.701 2.756-1.038.399-.146.801-.284 1.201-.427.72-.257 1.44-.515 2.164-.763.452-.155.906-.302 1.359-.453.678-.226 1.355-.452 2.036-.669.473-.151.948-.296 1.422-.443.666-.207 1.332-.412 2.001-.61.484-.144.97-.283 1.455-.422a152.799 152.799 0 0 1 3.468-.958c.346-.092.694-.179 1.04-.269V94.555c-59.92 17.783-103.222 70.506-108.623 133.219a7.5 7.5 0 0 0 6.829 8.116c4.134.365 7.76-2.702 8.116-6.829 4.876-56.614 44.015-104.193 98.145-120.176 4.61 6.727 12.348 11.151 21.101 11.151 7.047 0 13.437-2.866 18.066-7.494 4.629 4.628 11.019 7.494 18.066 7.494a25.41 25.41 0 0 0 10.566-2.295v156.294c0 14.097 11.469 25.566 25.566 25.566s25.566-11.469 25.566-25.566v-66.238a7.5 7.5 0 0 0-15 0v66.238c0 5.826-4.74 10.566-10.566 10.566-5.826 0-10.566-4.74-10.566-10.566V110.291a137.129 137.129 0 0 1 21.132 9.084v58.422a7.5 7.5 0 0 0 15 0v-49.25c35.636 25.235 58.061 66.665 58.061 112.504 0 75.997-61.828 137.825-137.825 137.825-34.293 0-67.158-12.674-92.541-35.688-25.208-22.854-41.024-53.991-44.535-87.675a7.496 7.496 0 0 0-8.237-6.682 7.499 7.499 0 0 0-6.682 8.237c3.894 37.363 21.43 71.895 49.378 97.233 28.148 25.52 64.592 39.575 102.617 39.575 84.268 0 152.825-68.557 152.825-152.825 0-68.043-44.565-127.336-109.193-146.497V72.09c.346.089.692.177 1.037.268a171.982 171.982 0 0 1 3.466.957c.489.14.977.28 1.464.425.665.197 1.327.402 1.989.607.478.148.957.295 1.434.447.674.216 1.346.439 2.017.663.46.153.92.303 1.378.46.711.244 1.419.497 2.127.75.413.147.827.29 1.238.44.891.326 1.778.663 2.663 1.004.224.086.449.167.672.254 1.098.427 2.19.866 3.279 1.315.386.16.77.327 1.155.489.708.298 1.416.596 2.12.903.457.2.91.407 1.365.61.627.28 1.254.56 1.877.847.482.222.96.451 1.439.677.593.28 1.187.561 1.777.848.489.238.976.481 1.463.724.574.286 1.148.573 1.72.866a180.17 180.17 0 0 1 4.618 2.453 207.033 207.033 0 0 1 3.108 1.75c.552.318 1.101.641 1.649.965.474.28.948.561 1.419.845.552.333 1.1.673 1.648 1.012.461.285.923.57 1.382.86.563.356 1.121.718 1.679 1.08.437.283.876.564 1.31.851.594.393 1.182.794 1.772 1.193.393.267.79.53 1.181.8.763.527 1.52 1.064 2.275 1.603.271.194.544.385.814.581.89.643 1.775 1.294 2.654 1.955.358.269.711.546 1.067.818.589.45 1.179.899 1.763 1.357.398.312.791.63 1.186.946.535.427 1.07.853 1.6 1.286.41.335.816.676 1.223 1.015.509.424 1.018.848 1.523 1.278.409.349.815.702 1.221 1.054a165.806 165.806 0 0 1 5.331 4.821 181.977 181.977 0 0 1 5.121 5.025c.476.487.947.98 1.418 1.473.356.372.713.744 1.065 1.119.49.522.974 1.051 1.458 1.58.324.354.651.706.973 1.063.531.59 1.055 1.189 1.579 1.787.267.305.538.606.802.913a174.71 174.71 0 0 1 2.325 2.748c25.797 31.164 40.003 70.647 40.003 111.176 0 96.209-78.271 174.48-174.48 174.48-96.208 0-174.48-78.272-174.48-174.48 0-40.529 14.207-80.012 40.004-111.176zm134.476 321.789c-70.118 0-135.164-34.614-174.48-92.683V314.93c28.851 67.879 96.197 115.601 174.48 115.601 104.48 0 189.48-85.001 189.48-189.48 0-6.877-.377-13.726-1.119-20.518-4.01-36.675-18.689-71.664-42.329-100.223a186.191 186.191 0 0 0-2.563-3.029c-.291-.337-.589-.667-.883-1.002-.577-.658-1.152-1.317-1.738-1.967-.357-.396-.72-.784-1.08-1.177-.532-.581-1.063-1.163-1.602-1.737-.387-.412-.781-.817-1.171-1.225-.52-.544-1.039-1.089-1.566-1.626-.409-.418-.825-.829-1.238-1.243a174.999 174.999 0 0 0-1.557-1.55c-.423-.414-.852-.823-1.279-1.233-.523-.502-1.045-1.004-1.573-1.5-.435-.409-.875-.812-1.313-1.216-.528-.487-1.057-.973-1.591-1.454-.446-.402-.896-.799-1.345-1.196a170.26 170.26 0 0 0-2.986-2.585c-.542-.46-1.086-.917-1.633-1.371a218.733 218.733 0 0 0-3.06-2.482 193.771 193.771 0 0 0-9.478-7.059c-.487-.34-.975-.681-1.466-1.016-.597-.408-1.198-.81-1.799-1.211-.487-.325-.973-.651-1.463-.971-.614-.402-1.233-.797-1.852-1.192-.483-.308-.966-.619-1.452-.923-.636-.398-1.278-.788-1.919-1.178-.476-.29-.951-.583-1.429-.869-.667-.398-1.339-.787-2.011-1.177-.458-.266-.915-.536-1.375-.799-.717-.409-1.441-.807-2.164-1.206-.422-.233-.84-.471-1.264-.7a190.37 190.37 0 0 0-2.483-1.316c-.328-.172-.653-.349-.982-.519a189.166 189.166 0 0 0-7.066-3.463c-.336-.156-.675-.305-1.012-.459-.852-.39-1.704-.779-2.561-1.156-.44-.193-.884-.379-1.325-.569-.76-.327-1.52-.656-2.284-.973-.483-.201-.97-.393-1.454-.59-.729-.295-1.457-.592-2.189-.878-.507-.198-1.017-.389-1.526-.583-.715-.272-1.43-.545-2.148-.809-.525-.193-1.053-.379-1.58-.567-.707-.252-1.413-.505-2.123-.749-.54-.186-1.083-.365-1.625-.546-.701-.234-1.402-.467-2.106-.692-.552-.177-1.106-.349-1.66-.52-.7-.217-1.4-.432-2.103-.642a194.704 194.704 0 0 0-3.79-1.084 192.922 192.922 0 0 0-5.528-1.427c-.335-.081-.667-.169-1.003-.248V34.982c45.159 9.531 86.263 33.91 116.514 69.286 32.544 38.058 50.467 86.635 50.467 136.783-.002 116.133-94.482 210.613-210.615 210.613z"/></svg>