<svg xmlns="http://www.w3.org/2000/svg" viewBox="0 0 512.002 512.002" style="enable-background:new 0 0 512.002 512.002" xml:space="preserve"><path style="fill:#d8dce5" d="M247.159 501.835c-1.931-1.012-47.838-25.277-94.208-68.58-54.714-51.094-96.102-115.82-96.102-190.348V75.24a19.134 19.134 0 0 1 9.32-16.427c3.568-2.133 88.581-52.249 189.87-52.249 101.29 0 186.303 50.116 189.871 52.249a19.14 19.14 0 0 1 9.32 16.427v167.667c0 74.549-41.411 139.274-96.102 190.349-46.37 43.303-92.277 67.568-94.208 68.58a19.138 19.138 0 0 1-17.761-.001z"/><path style="fill:#c3c8d1" d="M76.868 242.234V65.469a20.177 20.177 0 0 1 9.826-17.319c.227-.135.773-.458 1.609-.939-13.18 6.311-21.098 10.982-22.134 11.601a19.136 19.136 0 0 0-9.32 16.427v167.667c0 74.547 41.408 139.272 96.101 190.348 46.37 43.304 92.277 67.569 94.208 68.58a19.062 19.062 0 0 0 10.916 2.07c-92.665-57.472-181.206-150.678-181.206-261.67z"/><path style="fill:#5e6377" d="M100.491 83.92c27.037-13.306 88.119-39.08 155.548-39.08h.001v67.567c1.193 0 2.373.422 3.349 1.219.139.114.287.211.417.341l5.211 5.21 15.631 15.631a5.328 5.328 0 0 1 0 7.535c-6.211 6.211-7.891 7.271-8.304 10.773l-6.742 57.103c-.587 4.969 3.625 9.179 8.592 8.592l57.104-6.742c6.73-.796 9.508-10.94 15.557-9.767 2.128.411 1.34.053 18.382 17.095 4.373 4.373 6.771 5.924 6.771 8.979 0 3.033-.16 2.367-22.402 24.609a5.328 5.328 0 0 1-7.534 0c-6.254-6.254-7.287-7.893-10.774-8.304l-57.369-6.773c-4.833-.571-8.929 3.525-8.358 8.358l6.773 57.369c.413 3.504 2.097 4.566 8.304 10.773a5.328 5.328 0 0 1 0 7.535l-15.631 15.631c-4.352 4.352-5.92 6.771-8.978 6.771-2.964 0-4.228-2.021-8.978-6.771-17.034-17.034-16.682-16.253-17.094-18.381-1.187-6.123 8.956-8.682 9.767-15.557l6.727-56.985c.595-5.029-3.669-9.291-8.698-8.698l-56.983 6.728a8.13 8.13 0 0 0-4.794 2.324l-5.98 5.98a5.328 5.328 0 0 1-7.534 0l-15.631-15.631c-4.355-4.355-6.771-5.921-6.771-8.978H95.127V92.564a9.617 9.617 0 0 1 5.364-8.644z"/><path style="fill:#707487" d="M372.01 228.377c0-1.451-.671-2.879-1.56-3.768-22.637-22.636-21.402-21.881-23.592-22.305-6.113-1.185-8.754 8.963-15.557 9.767l-57.104 6.742c-4.968.587-9.179-3.625-8.592-8.592l6.742-57.103c.413-3.503 2.096-4.564 8.304-10.773a5.328 5.328 0 0 0 0-7.535l-15.631-15.631-5.211-5.21c-.13-.13-.278-.227-.417-.341-.977-.796-2.156-1.219-3.349-1.219v-67.57c.248 0 .494.008.742.009 39.903.111 77.411 9.125 106.946 19.219l.629.219a413.426 413.426 0 0 1 32.22 12.603 380.493 380.493 0 0 1 15.023 7.006 9.627 9.627 0 0 1 5.356 8.638v135.843H372.01v.001zM140.069 228.377c0 2.962 2.021 4.227 6.771 8.978l15.631 15.631a5.328 5.328 0 0 0 7.534 0l5.98-5.98a8.127 8.127 0 0 1 4.794-2.324l56.983-6.728c5.029-.594 9.292 3.669 8.698 8.698l-6.727 56.985c-.812 6.88-10.955 9.434-9.767 15.557.412 2.128.053 1.339 17.094 18.381 4.386 4.387 5.928 6.771 8.978 6.771v116.913a9.672 9.672 0 0 0 3.683-.747 9.608 9.608 0 0 1-8.717-.67C173.68 412.419 95.124 334.34 95.124 242.907v-14.53h44.945z"/><path style="fill:#5e6377" d="M203.497 414.602c-58.891-55.244-88.75-113.235-88.75-172.361v-13.866H95.124v14.53c0 91.396 78.644 169.566 155.881 216.936a9.54 9.54 0 0 0 5.034 1.396v-4.146c-15.586-10.922-34.136-25.222-52.542-42.489zM256.039 461.26c.315 0 .459-.022 0-.021v.021zM256.525 461.235zM256.525 461.235l-.175.009.175-.009zM257.42 461.144c.072-.01.143-.02.214-.033-.071.012-.142.022-.214.033zM258.708 460.866zM257.634 461.111zM258.473 460.925c.078-.021.156-.037.234-.06-.077.023-.156.04-.234.06z"/><path style="fill:#4f5466" d="M114.746 226.759V82.044c0-1.971.564-3.854 1.57-5.46a389.381 389.381 0 0 0-15.825 7.336 9.625 9.625 0 0 0-5.366 8.643v135.812h19.622l-.001-1.616z"/><path style="fill:#5e6377" d="M256.04 344.347c2.966 0 4.237-2.03 8.978-6.771l15.631-15.631a5.328 5.328 0 0 0 0-7.535c-6.211-6.211-7.891-7.271-8.304-10.773l-6.773-57.369c-.571-4.833 3.525-8.929 8.358-8.358l57.369 6.773c3.507.414 4.574 2.106 10.774 8.304a5.328 5.328 0 0 0 7.534 0c22.388-22.388 22.402-21.631 22.402-24.61h44.945v14.53c0 111.403-115.274 192-155.867 216.921a9.88 9.88 0 0 1-5.047 1.432V344.347z"/><path style="fill:#707487" d="M252.356 460.512c-.055-.023-.113-.036-.168-.06.055.024.113.037.168.06zM252.188 460.452z"/><path style="fill:#d8dce5" d="M161.763 203.059a6.33 6.33 0 0 1 8.95 0l5.98 5.981a7.163 7.163 0 0 0 4.202 2.038l57.189 6.752a6.632 6.632 0 0 0 5.498-1.908 6.631 6.631 0 0 0 1.907-5.498l-6.752-57.189a7.147 7.147 0 0 0-2.037-4.202c-6.34-6.34-7.25-6.83-7.718-9.247a6.295 6.295 0 0 1 0-2.416c.49-2.53-.236-1.294 22.581-24.111.119-.119.248-.22.378-.319l.113-.088c2.284-1.863 5.679-1.864 7.966 0l.114.089c.13.099.259.2.377.319 22.483 22.484 22.695 21.822 22.695 25.317 0 5.959-9.159 8.62-9.872 14.658l-6.741 57.103a6.696 6.696 0 0 0 1.927 5.554 6.703 6.703 0 0 0 5.553 1.927l57.103-6.742c6.473-.766 8.957-11.089 15.866-9.756 2.539.49 1.332-.198 24.112 22.581 2.652 2.663 2.25 6.698-.001 8.949-22.484 22.483-21.823 22.696-25.318 22.696-5.973 0-8.609-9.157-14.657-9.872l-57.369-6.773a6.48 6.48 0 0 0-5.38 1.867 6.493 6.493 0 0 0-1.867 5.38l6.773 57.369c.365 3.098 1.812 3.977 8.018 10.182a6.326 6.326 0 0 1 0 8.951c-22.191 22.191-21.66 22.695-25.317 22.695-1.737 0-3.421-.803-4.475-1.854-22.809-22.809-22.09-21.579-22.579-24.109-1.336-6.875 9.002-9.471 9.755-15.867l6.728-56.985a6.794 6.794 0 0 0-1.954-5.633 6.798 6.798 0 0 0-5.633-1.954l-56.983 6.728a7.154 7.154 0 0 0-4.203 2.038l-5.98 5.981a6.336 6.336 0 0 1-8.95 0c-22.168-22.168-22.695-21.651-22.695-25.317.001-3.897 1.124-3.742 22.696-25.315z"/><path style="fill:#c3c8d1" d="M236.702 149.032a7.15 7.15 0 0 1 2.037 4.202l6.752 57.189a6.631 6.631 0 0 1-1.907 5.498c-.014.015-.031.026-.045.041l15.818 1.868a6.632 6.632 0 0 0 5.498-1.908 6.622 6.622 0 0 0 1.831-3.474 6.79 6.79 0 0 1-.088-2.109l.077-.653-6.665-56.45a7.147 7.147 0 0 0-2.037-4.202c-5.96-5.96-8.519-7.534-7.718-11.663.489-2.529.563-2.092 16.42-17.95l-6.16-6.16a3.638 3.638 0 0 0-.377-.319l-.114-.089c-2.286-1.865-5.681-1.864-7.966 0l-.113.088c-.13.099-.259.201-.378.319-22.821 22.821-22.092 21.581-22.581 24.111a6.335 6.335 0 0 0 0 2.416c.46 2.384 1.278 2.807 7.716 9.245zM161.875 232.477l-.092-.118c-.931-1.142-1.443-2.555-1.443-3.982 0-3.765 1.562-4.183 16.55-19.173-.063-.058-.135-.104-.195-.165l-5.98-5.981a6.33 6.33 0 0 0-8.95 0c-22.193 22.193-22.695 21.659-22.695 25.318 0 3.936 1.323 3.945 22.695 25.317a6.336 6.336 0 0 0 8.95 0l5.98-5.981c.061-.06.133-.107.195-.165-.333-.331-14.732-14.698-15.015-15.07zM251.992 322.652a6.312 6.312 0 0 1-1.737-3.266 6.295 6.295 0 0 1 0-2.416c.463-2.391 1.287-2.818 7.718-9.248a7.15 7.15 0 0 0 2.037-4.202l6.665-56.448-.109-.922a6.565 6.565 0 0 1 .06-1.891 6.792 6.792 0 0 0-1.842-3.355 6.798 6.798 0 0 0-5.633-1.954l-15.744 1.859c.034.033.073.061.106.095a6.795 6.795 0 0 1 1.954 5.633l-6.728 56.985c-.754 6.403-11.092 8.988-9.755 15.867.489 2.529-.236 1.293 22.579 24.109 1.044 1.039 2.718 1.854 4.475 1.854 3.684 0 5.65-3.028 10.635-8.014l-14.681-14.686z"/><path style="fill:#231f20" d="M97.118 77.639c-5.885 2.906-9.539 8.795-9.539 15.37v135.843c0 16.364-1.402 41.221 10.935 75.3 24.406 67.411 87.968 125.381 148.512 162.549 5.403 3.316 12.288 3.478 17.934.017 72.475-44.448 148.067-117.166 158.244-202.967 1.599-13.468 1.22-5.094 1.22-170.712 0-6.584-3.663-12.477-9.558-15.38h-.001c-30.243-14.884-91.095-39.852-158.862-39.852h-.001c-53.949 0-110.67 16.029-158.884 39.832zm151.375 372.256c-72.234-46.281-145.9-121.142-145.9-206.514v-7.023h32.388c.351.488.841 1.109 1.3 1.569l20.842 20.842c4.938 4.938 13.07 5.082 18.153 0l5.979-5.979a.625.625 0 0 1 .365-.178l57.391-6.751c-.039.334-6.713 57.495-6.95 57.734l-2.989 2.99-2.99 2.99a12.75 12.75 0 0 0-3.761 9.076c0 3.428 1.335 6.653 3.76 9.076l20.841 20.842c.452.452 1.143.994 1.569 1.302l.002 100.024zm160.915-206.513c0 86.437-73.455 160.238-145.9 206.528V349.857c.181-.131.364-.257.539-.397l-.004.003c.914-.695-.512.653 21.877-21.736 5.01-5.014 5.01-13.138-.002-18.151l-5.98-5.98a.621.621 0 0 1-.177-.364l-6.728-56.986c-.007-.058-.019-.156.093-.268.112-.111.21-.1.27-.093l56.981 6.728c.139.016.27.08.366.176l5.981 5.982.001.001.023.021c5.082 5.056 13.181 4.922 18.126-.023l20.843-20.842c.442-.442.954-1.088 1.301-1.569h32.387v7.024h.003zm-145.9-190.441c61.71 1.743 116.784 24.438 144.725 38.189a2.106 2.106 0 0 1 1.175 1.909v128.306h-32.401c-.429-.592-.766-1.044-1.287-1.569l-20.842-20.842a12.817 12.817 0 0 0-11.518-3.524c-4.728.914-6.379 3.27-12.612 9.504a.622.622 0 0 1-.365.178l-57.189 6.752c-.048.006-.079.009-.135-.047-.056-.056-.053-.087-.047-.135l6.752-57.189a.618.618 0 0 1 .177-.364l5.981-5.981c5.012-5.012 5.009-13.143 0-18.152-23.074-23.073-21.014-21.119-22.412-22.132l-.002-54.903zm10.253 86.11-4.439 4.438a15.696 15.696 0 0 0-4.471 9.221l-6.752 57.188c-1.15 9.742 7.101 18.005 16.853 16.854L332.143 220a15.713 15.713 0 0 0 9.22-4.471l4.438-4.439 17.76 17.759-17.76 17.76-4.439-4.44a15.71 15.71 0 0 0-9.222-4.47l-56.982-6.728c-9.856-1.163-18.198 7.184-17.035 17.034 7.073 59.91 6.722 57.25 6.98 58.455a15.52 15.52 0 0 0 4.05 7.567c.057.059.109.123.167.182l4.439 4.44L256 336.41l-8.88-8.88-8.88-8.88 1.479-1.479c9.352-9.351 6.414-3.57 14.203-69.549.914-7.736-4.299-12.394-4.299-12.394a14.949 14.949 0 0 0-12.394-4.3l-57.37 6.773a15.708 15.708 0 0 0-9.221 4.471l-4.438 4.438-17.76-17.76 17.759-17.759c4.522 4.522 7.263 8.153 13.66 8.91l57.104 6.742c9.693 1.152 18.094-7.061 16.928-16.929l-6.741-57.103c-.755-6.344-4.382-9.133-8.91-13.659l17.759-17.76 17.762 17.759zM248.493 52.94v54.892c-.19.138-.378.281-.564.43l.023-.019c-.913.695.51-.651-21.87 21.731-5.008 5.006-5.029 13.125-.001 18.152l1.993 1.993 3.986 3.987a.742.742 0 0 1 .178.364l6.741 57.103c.006.052.013.111-.066.19s-.139.071-.19.066l-57.102-6.741a.712.712 0 0 1-.365-.176l-5.98-5.981c-5.029-5.029-13.171-4.984-18.152 0l-20.853 20.852c-.495.497-.854.975-1.278 1.56h-32.4c0-137.065-.56-129.389 1.172-130.243 44.245-21.84 95.603-36.792 144.728-38.16z"/><path style="fill:#231f20" d="M462.699 75.714c0-9.323-4.972-18.087-12.976-22.871C446.469 50.898 368.935 5.155 273.38.011a7.495 7.495 0 0 0-7.901 7.093 7.508 7.508 0 0 0 7.093 7.901c91.889 4.947 166.323 48.861 169.447 50.727a11.689 11.689 0 0 1 5.664 9.984v135.62a7.506 7.506 0 0 0 7.507 7.507 7.506 7.506 0 0 0 7.507-7.507V75.714h.002zM237.514.069C142.458 5.504 65.507 50.913 62.278 52.844c-8.003 4.785-12.975 13.548-12.975 22.871v167.667c0 76.584 42.057 143.139 98.487 195.836 47.105 43.99 93.881 68.712 95.849 69.743a26.664 26.664 0 0 0 24.728 0c43.936-23.015 121.317-79.69 162.702-152.277 20.413-35.804 31.046-72.881 31.603-110.202a7.505 7.505 0 0 0-7.394-7.618l-.114-.001a7.507 7.507 0 0 0-7.504 7.395c-1.07 71.49-41.634 133.37-93.693 181.985-45.611 42.595-90.673 66.424-92.568 67.417-3.319 1.737-7.478 1.737-10.794 0-1.895-.992-46.929-24.795-92.568-67.416-52.707-49.219-93.72-112.126-93.72-184.862V75.714c0-4.069 2.17-7.895 5.665-9.984 3.1-1.854 76.971-45.445 168.388-50.672a7.507 7.507 0 0 0 7.067-7.924c-.236-4.138-3.791-7.296-7.923-7.065z"/></svg>