<svg xmlns="http://www.w3.org/2000/svg" viewBox="0 0 512 512" style="enable-background:new 0 0 512 512" xml:space="preserve"><path style="fill:#e0230d" d="M414.5 7.5h-30v497h30c49.5 0 90-40.5 90-90v-317c0-49.5-40.5-90-90-90z"/><path style="fill:#ff5440" d="M474.5 97.5v317c0 49.5-40.5 90-90 90h-287c-49.5 0-90-40.5-90-90v-317c0-49.5 40.5-90 90-90h287c49.5 0 90 40.5 90 90z"/><path style="fill:#fff" d="M120 367c-29.224 0-53-23.775-53-53 0-8.284 6.716-15 15-15s15 6.716 15 15c0 12.683 10.318 23 23 23s23-10.317 23-23v-20c0-12.683-10.318-23-23-23-29.224 0-53-23.775-53-53v-20c0-29.225 23.776-53 53-53s53 23.775 53 53c0 8.284-6.716 15-15 15s-15-6.716-15-15c0-12.683-10.318-23-23-23s-23 10.317-23 23v20c0 12.683 10.318 23 23 23 29.224 0 53 23.775 53 53v20c0 29.225-23.776 53-53 53zM392 367c-29.225 0-53-23.775-53-53 0-8.284 6.716-15 15-15s15 6.716 15 15c0 12.683 10.317 23 23 23s23-10.317 23-23v-20c0-12.683-10.317-23-23-23-29.225 0-53-23.775-53-53v-20c0-29.225 23.775-53 53-53s53 23.775 53 53c0 8.284-6.716 15-15 15s-15-6.716-15-15c0-12.683-10.317-23-23-23s-23 10.317-23 23v20c0 12.683 10.317 23 23 23 29.225 0 53 23.775 53 53v20c0 29.225-23.775 53-53 53zM256 367c-29.224 0-53-23.775-53-53V198c0-29.225 23.776-53 53-53 29.225 0 53 23.775 53 53v116c0 29.225-23.775 53-53 53zm0-192c-12.682 0-23 10.317-23 23v116c0 12.683 10.318 23 23 23 12.683 0 23-10.317 23-23V198c0-12.683-10.317-23-23-23z"/><path d="M414.5 0h-317C43.738 0 0 43.738 0 97.5v317C0 468.262 43.738 512 97.5 512h317c53.762 0 97.5-43.738 97.5-97.5v-317C512 43.738 468.262 0 414.5 0zM497 414.5c0 45.49-37.01 82.5-82.5 82.5h-317C52.009 497 15 459.99 15 414.5v-317C15 52.01 52.009 15 97.5 15h317c45.49 0 82.5 37.01 82.5 82.5v317z"/><path d="M120 182.5c8.547 0 15.5 6.953 15.5 15.5 0 12.406 10.093 22.5 22.5 22.5s22.5-10.094 22.5-22.5c0-33.359-27.14-60.5-60.5-60.5S59.5 164.641 59.5 198v20c0 33.359 27.14 60.5 60.5 60.5 8.547 0 15.5 6.953 15.5 15.5v20c0 8.547-6.953 15.5-15.5 15.5s-15.5-6.953-15.5-15.5c0-12.406-10.093-22.5-22.5-22.5S59.5 301.594 59.5 314c0 33.359 27.14 60.5 60.5 60.5s60.5-27.141 60.5-60.5v-20c0-33.359-27.14-60.5-60.5-60.5-8.547 0-15.5-6.953-15.5-15.5v-20c0-8.547 6.953-15.5 15.5-15.5zm0 66c25.089 0 45.5 20.411 45.5 45.5v20c0 25.089-20.411 45.5-45.5 45.5S74.5 339.089 74.5 314c0-4.136 3.364-7.5 7.5-7.5s7.5 3.364 7.5 7.5c0 16.817 13.682 30.5 30.5 30.5s30.5-13.683 30.5-30.5v-20c0-16.817-13.682-30.5-30.5-30.5-25.089 0-45.5-20.411-45.5-45.5v-20c0-25.089 20.411-45.5 45.5-45.5s45.5 20.411 45.5 45.5c0 4.136-3.364 7.5-7.5 7.5s-7.5-3.364-7.5-7.5c0-16.817-13.682-30.5-30.5-30.5S89.5 181.183 89.5 198v20c0 16.817 13.682 30.5 30.5 30.5zM392 182.5c8.547 0 15.5 6.953 15.5 15.5 0 12.406 10.094 22.5 22.5 22.5s22.5-10.094 22.5-22.5c0-33.359-27.141-60.5-60.5-60.5s-60.5 27.141-60.5 60.5v20c0 33.359 27.141 60.5 60.5 60.5 8.547 0 15.5 6.953 15.5 15.5v20c0 8.547-6.953 15.5-15.5 15.5s-15.5-6.953-15.5-15.5c0-12.406-10.094-22.5-22.5-22.5s-22.5 10.094-22.5 22.5c0 33.359 27.141 60.5 60.5 60.5s60.5-27.141 60.5-60.5v-20c0-33.359-27.141-60.5-60.5-60.5-8.547 0-15.5-6.953-15.5-15.5v-20c0-8.547 6.953-15.5 15.5-15.5zm0 66c25.089 0 45.5 20.411 45.5 45.5v20c0 25.089-20.411 45.5-45.5 45.5s-45.5-20.411-45.5-45.5c0-4.136 3.364-7.5 7.5-7.5s7.5 3.364 7.5 7.5c0 16.817 13.683 30.5 30.5 30.5s30.5-13.683 30.5-30.5v-20c0-16.817-13.683-30.5-30.5-30.5-25.089 0-45.5-20.411-45.5-45.5v-20c0-25.089 20.411-45.5 45.5-45.5s45.5 20.411 45.5 45.5c0 4.136-3.364 7.5-7.5 7.5s-7.5-3.364-7.5-7.5c0-16.817-13.683-30.5-30.5-30.5s-30.5 13.683-30.5 30.5v20c0 16.817 13.683 30.5 30.5 30.5zM256 137.5c-33.36 0-60.5 27.141-60.5 60.5v116c0 33.359 27.14 60.5 60.5 60.5 33.359 0 60.5-27.141 60.5-60.5V198c0-33.359-27.141-60.5-60.5-60.5zM301.5 314c0 25.089-20.411 45.5-45.5 45.5s-45.5-20.411-45.5-45.5V198c0-25.089 20.411-45.5 45.5-45.5s45.5 20.411 45.5 45.5v116z"/><path d="M256 167.5c-16.818 0-30.5 13.683-30.5 30.5v43c0 4.143 3.358 7.5 7.5 7.5s7.5-3.357 7.5-7.5v-43c0-8.547 6.953-15.5 15.5-15.5s15.5 6.953 15.5 15.5v116c0 8.547-6.953 15.5-15.5 15.5s-15.5-6.953-15.5-15.5v-43c0-4.143-3.358-7.5-7.5-7.5s-7.5 3.357-7.5 7.5v43c0 16.817 13.682 30.5 30.5 30.5 16.817 0 30.5-13.683 30.5-30.5V198c0-16.817-13.683-30.5-30.5-30.5z"/></svg>