<svg height="512pt" viewBox="-1 0 512 512.001" width="512pt" xmlns="http://www.w3.org/2000/svg"><path d="M313.219 199.367c-7.508-7.508-13.54-15.887-18.008-24.832l-25.352 25.356a10.334 10.334 0 0 0 0 14.625l28.207 28.21c4.04 4.04 10.59 4.04 14.63 0l25.35-25.351c-8.94-4.469-17.32-10.5-24.827-18.008zm0 0" fill="#bdbdbd"/><path d="m316.582 202.566-22.023 22.024c-4.04 4.039-10.59 4.039-14.63 0l-10.07-10.074 28.207 28.21c4.04 4.04 10.59 4.04 14.63 0l25.355-25.351c-7.633-3.816-14.852-8.773-21.469-14.809zm0 0" fill="#a3a3a3"/><path d="M254.059 314.277c17.953-49.836 39.363-67.656 44.324-71.265-.106-.094-.215-.184-.317-.282l-27.046-27.05c-12.707 10.71-34.973 35.242-53.106 85.578-16.601 46.082-45.875 64.347-89.496 64.312C34.945 365.496 2.227 494.863 8.281 500.918a19.25 19.25 0 0 0 3.817 2.957c9.129 5.398 51.058-103.902 125.64-101.035 46.98 1.805 92.77-23.2 116.32-88.563zm0 0" fill="#e0e0e0"/><path d="M284.793 229.453v.004L271.02 215.68zM298.066 242.727 285.09 229.75c-4.988 3.637-26.371 21.469-44.305 71.254-23.547 65.363-69.34 90.367-116.32 88.562-56.48-2.168-94.227 59.97-113.192 87.926-3.605 12.824-4.496 21.926-2.992 23.426a19.25 19.25 0 0 0 3.817 2.957c9.129 5.398 51.054-103.902 125.64-101.035 46.98 1.805 92.77-23.2 116.32-88.563 17.954-49.836 39.364-67.656 44.325-71.265-.106-.098-.215-.184-.317-.285zm0 0" fill="#c9c9c9"/><path d="M370.813 28.398C413.592 7.711 462.96.832 487.355 25.23c35.778 35.778 4.31 125.25-39.355 168.915-43.664 43.664-99.004 41-134.781 5.222-35.778-35.777-38.442-91.12 5.222-134.781 8.118-8.117 17.817-15.809 28.457-22.73 0 0 11.72-8.012 23.914-13.458zm0 0" fill="#e0e0e0"/><path d="M487.355 25.23c-4.14-4.144-9.015-7.363-14.44-9.785 18.495 41.453-10.567 115.848-49.165 154.446-38.605 38.605-86.336 40.992-121.605 16.3a98.594 98.594 0 0 0 11.074 13.176c35.777 35.778 91.117 38.442 134.781-5.222 43.664-43.665 75.133-133.141 39.355-168.915zm0 0" fill="#c9c9c9"/><path d="M234.805 102.656c-22.524 22.52-51.067 21.149-69.52 2.696-18.453-18.454-19.828-47 2.692-69.52 22.523-22.523 68.671-38.754 87.125-20.3 18.453 18.452 2.222 64.605-20.297 87.124zm0 0" fill="#e0e0e0"/><path d="M255.102 15.531c-3.348-3.347-7.618-5.543-12.485-6.773 5.563 21.945-8.644 56.203-27.074 74.637-18.434 18.433-40.902 20.847-58.57 11.003 2.183 3.918 4.964 7.606 8.312 10.954 18.453 18.453 47 19.824 69.52-2.696 22.52-22.52 38.75-68.672 20.297-87.125zm0 0" fill="#c9c9c9"/><path d="M165.285 105.352c-3.875-3.875-6.984-8.196-9.289-12.809l-13.078 13.078a5.335 5.335 0 0 0 0 7.543l14.55 14.55a5.333 5.333 0 0 0 7.548 0l13.074-13.073c-4.61-2.309-8.934-5.418-12.805-9.29zm0 0" fill="#bdbdbd"/><path d="M109.102 200.586c-10.403 7.219-22.29 10.176-34.329 9.715-38.468-1.48-60.093 54.898-64.804 52.11a9.742 9.742 0 0 1-1.965-1.524c-3.125-3.125 13.75-69.852 61.965-69.813 22.496.02 37.597-9.402 46.16-33.172 9.351-25.96 20.836-38.613 27.39-44.136l13.95 13.949.164.148c-2.559 1.86-13.602 11.051-22.863 36.754-3.391 9.414-7.676 17.2-12.622 23.52 0 0-6.003 8.32-13.046 12.449zM474.516 344.621c-22.52 22.52-51.067 21.149-69.52 2.692-18.453-18.454-19.824-46.997 2.695-69.516 22.52-22.524 68.672-38.754 87.125-20.3s2.223 64.605-20.3 87.124zm0 0" fill="#e0e0e0"/><path d="M494.816 257.496c-3.55-3.547-8.129-5.805-13.363-6.988 4.977 21.976-9.101 55.57-27.289 73.762-18.187 18.187-40.305 20.78-57.863 11.39 2.238 4.18 5.148 8.106 8.699 11.656 18.453 18.454 46.996 19.825 69.52-2.695 22.52-22.52 38.75-68.672 20.296-87.125zm0 0" fill="#c9c9c9"/><path d="M404.996 347.316c-3.871-3.875-6.98-8.195-9.285-12.808l-13.078 13.078a5.335 5.335 0 0 0 0 7.543l14.55 14.55a5.328 5.328 0 0 0 7.544 0l13.078-13.077c-4.614-2.305-8.934-5.415-12.809-9.286zm0 0" fill="#bdbdbd"/><path d="M349.41 442.129c-10.547 7.523-22.652 10.605-34.922 10.137-38.468-1.48-60.093 54.894-64.804 52.109-.735-.434-1.391-.95-1.97-1.523-3.12-3.125 13.755-69.852 61.966-69.813 22.5.02 37.597-9.402 46.16-33.172 9.355-25.96 20.84-38.613 27.39-44.137l13.954 13.95c.05.05.109.097.16.144-2.559 1.863-13.602 11.055-22.86 36.758-3.39 9.414-7.68 17.2-12.62 23.52 0 0-7.454 8.851-12.454 12.027zm0 0" fill="#e0e0e0"/><path d="M299.227 252.012c7.246 2.664 14.152.558 18.722-4.012l21.668-21.668c40.059 17.266 82.422 4.3 113.637-26.914 22.535-22.54 42.226-57.3 51.387-90.723 26.324-96.03-39.95-130.379-130.532-90.09a7.471 7.471 0 0 0-3.793 9.864c1.68 3.773 6.098 5.468 9.864 3.793 43.57-19.38 83.55-20.07 101.86-1.758 32.937 32.937.108 118.879-39.356 158.344-92.872 92.87-226.957-52.825-91.747-140.735a7.473 7.473 0 0 0 2.192-10.34 7.473 7.473 0 0 0-10.34-2.191c-62.594 40.703-74.84 94.805-56.539 137.3l-21.707 21.716c-4.961 4.96-6.887 12.609-3.496 19.98-13.207 12.656-33.57 37.984-50.195 84.137-15.586 43.258-42.008 59.07-82.547 59.375-69.578 0-104.477 66.043-116.254 94.45-4.574 11.034-8.227 22.42-10.281 32.065-3.325 15.582-2.391 20.438 6.492 25.692 5.93 3.508 11.304-.535 15.652-5.926 15.262-18.902 54.527-96.348 113.504-94.074 60.367 2.328 102.918-35.98 123.637-93.496 14.402-39.98 30.718-58.074 38.172-64.79zm-5.707-65.258c8.398 13.215 18.796 23.266 31.14 31.36.399.261.727.652 1.133.91-18.406 17.718-18.063 19.25-20.445 19.25-2.375 0-1.516-1.051-30.239-29.051a2.867 2.867 0 0 1-.843-2.028c0-2.402 1.648-2.156 19.254-20.441zm-155.528 208.61c-57.129-2.165-95.387 54.952-115.933 85.656-2.07 3.09-4.262 6.367-6.23 9.175 3.062-16.34 14.753-52.062 39.179-80.511 19.41-22.61 43.582-36.653 73.5-36.653 48.746 0 79.383-22.008 96.402-69.254 15.414-42.777 33.793-66.097 45.824-77.793l16.614 16.618c-9.7 9.367-26.157 29.726-40.352 69.132-20.121 55.856-58.844 85.567-109.004 83.63zM10.3 270.02c6.25 0 10.434-7.47 14.208-13.102 9.367-13.996 26.8-40.05 49.949-39.16 14.238.539 27.676-3.274 38.875-11.043a7.473 7.473 0 1 0-8.523-12.278c-8.63 5.993-18.653 8.813-29.778 8.383-21.898-.832-38.496 13.715-50.254 28.176 9.547-17.715 25.11-33.031 45.22-32.457 26.51 0 43.89-12.469 53.128-38.113 6.719-18.645 14.473-29.817 20.273-36.192l3.47 3.47c-14.45 16.07-17.891 34.163-24.434 46.273a7.47 7.47 0 0 0 3.027 10.125 7.47 7.47 0 0 0 10.125-3.024c7.406-13.715 10.629-31.812 23.969-45.027.593.082 1.054.683 1.656.683 8.207 0 10.926-6.636 18.672-13.363 22.129 8.29 43.816.918 60.172-15.441 23.484-23.485 43.351-74.637 20.297-97.692C237.316-12.8 186.184 7.016 162.66 30.54c-16.45 16.45-23.691 38.2-15.453 60.184-7.656 8.734-15.117 11.355-12.8 21.476-32.595 32.754-18.872 70.762-64.516 71.395-38.067 0-56.95 35.625-63.301 50.945-2.442 5.89-4.399 11.988-5.5 17.172-1.395 6.543-1.617 11.242 1.597 14.453 2.047 2.047 4.72 3.856 7.614 3.856zM173.23 41.105c20.59-20.59 62.286-34.57 76.555-20.3 18.18 18.18-9.64 90.52-51.398 91.082-29.828.492-57.61-38.328-25.157-70.782zm-7.097 74.883-4.922 4.922-11.527-11.527 4.921-4.922a58.915 58.915 0 0 0 11.528 11.527zM500.066 252.203c-23.039-23.039-74.168-3.223-97.691 20.3-16.45 16.45-23.691 38.2-15.453 60.185-7.66 8.738-15.117 11.347-12.8 21.476-32.606 32.766-18.864 70.762-64.517 71.395-38.066 0-56.949 35.625-63.3 50.949-2.442 5.887-4.395 11.984-5.5 17.172-1.746 8.187-1.813 13.07 5.043 17.12 4.742 2.805 9.293.36 12.73-3.898 8.035-9.945 27.524-48.261 55.59-47.18 14.523.563 28.207-3.425 39.55-11.519a7.47 7.47 0 0 0 1.739-10.422 7.47 7.47 0 0 0-10.422-1.742c-8.746 6.242-18.965 9.18-30.293 8.75-21.914-.848-38.492 13.711-50.254 28.176 9.551-17.719 25.11-33.035 45.223-32.461 26.508 0 43.89-12.469 53.129-38.113 6.715-18.645 14.473-29.817 20.273-36.192.102.106 3.692 3.696 3.469 3.469-14.848 16.512-17.816 34.594-25.133 47.539a7.473 7.473 0 1 0 13.012 7.352c8.152-14.43 11.266-33.13 24.805-46.543.593.082 1.058.683 1.656.683 8.207 0 10.93-6.637 18.676-13.363 63.308 23.71 112.297-81.3 80.468-113.133zm-94.222 105.75-4.918 4.922-11.528-11.527 4.922-4.922a59.103 59.103 0 0 0 11.524 11.527zm63.355-18.625c-41.363 41.363-97.445-15.07-56.254-56.258 20.653-20.652 62.23-34.62 76.555-20.3 14.219 14.222.398 55.859-20.3 76.558zm0 0"/></svg>