<svg xmlns="http://www.w3.org/2000/svg" viewBox="0 0 511.998 511.998" style="enable-background:new 0 0 511.998 511.998" xml:space="preserve"><path style="fill:#07a9f0" d="M260.604 500.527c-6.903 2.398-14.426 3.72-22.425 3.72-3.493 0-6.903-.248-10.2-.734-46.7-6.852-72.897-60.073-47.961-101.709l47.134-92.098c.258-.486.527-.951.827-1.385 5.157-7.575 16.876-7.11 21.226 1.385l11.409 22.291 35.725 69.807c22.643 37.814 3.101 85.258-35.735 98.723z"/><path style="fill:#40c1fa" d="M260.604 500.527c-38.815-13.476-58.388-60.879-35.715-98.722l35.725-69.807 35.725 69.807c22.643 37.813 3.101 85.257-35.735 98.722z"/><path style="fill:#07a9f0" d="M214.845 260.878 62.343 164.471C7.087 130.326-6.368 62.183 44.569 24.071c.134-.103.269-.196.403-.289 53.675-39.694 128.567-.683 129.239 62.418.155 14.395 2.005 55.639 16.834 102.825 6.779 21.526 16.245 44.282 29.494 66.294 2.222 3.688-2.046 7.863-5.694 5.559z"/><path style="fill:#40c1fa" d="m191.045 189.025-99.942-63.183c-39.549-24.43-57.685-66.273-46.132-102.06 53.676-39.694 128.568-.683 129.24 62.418.155 14.395 2.005 55.639 16.834 102.825z"/><path style="fill:#07a9f0" d="M450.856 137.56s-35.467 11.047-93.834 52.787c-23.293 16.659-50.224 38.205-80.007 65.891-2.873 2.677-7.286-.703-5.456-4.175L371.697 62.586c26.714-46.969 72.949-68.919 110.421-35.26 10.613 9.528 17.382 21.082 20.286 33.152 7.274 30.248-9.756 63.782-51.548 77.082z"/><path style="fill:#40c1fa" d="M450.856 137.56s-35.467 11.047-93.834 52.787l45.749-86.559c24.203-42.546 64.413-64.568 99.632-43.31 7.275 30.248-9.755 63.782-51.547 77.082zM205.751 292.769l-54.213 53.552c-25.35 28.615-73.094 19.087-84.854-18.095a51.98 51.98 0 0 1-1.746-7.337 48.61 48.61 0 0 1 2.718-25.629c8.567-21.929 32.439-36.717 58.057-30.63l61.809 10.417 13.331 2.243c.403.062.785.155 1.168.269 6.458 1.941 8.731 10.27 3.73 15.21z"/><path style="fill:#93dcfc" d="m187.521 275.046-35.984 35.539c-24.709 27.902-70.686 19.542-83.882-15.326 8.567-21.929 32.439-36.717 58.057-30.63l61.809 10.417z"/><path style="fill:#0691ce" d="m276.432 176.17-21.946 42.925a5.947 5.947 0 0 1-.385.65c-2.4 3.529-7.861 3.314-9.89-.645l-21.986-42.905c-12.44-20.748 2.403-47.74 27.081-47.751 1.63-.001 3.217.116 4.756.342 21.764 3.182 33.982 27.977 22.37 47.384zM472.679 227.577l-33.872-7.547a4.145 4.145 0 0 1-.522-.152c-2.893-1.035-3.728-4.88-1.335-7.009l25.93-23.063c12.213-12.412 33.701-6.94 38.162 10.255.295 1.136.5 2.263.62 3.376 1.71 15.741-13.364 28.73-28.983 24.14zM91.089 444.779l30.167-17.153a4.01 4.01 0 0 1 .489-.239c2.839-1.175 6.039 1.113 5.695 4.297l-3.73 34.502c-.715 17.399-20.313 27.772-35.164 18.026a23.465 23.465 0 0 1-2.726-2.085c-11.835-10.516-9.387-30.261 5.269-37.348zM48.299 202.453l23.665 25.382c.127.135.242.275.345.421 1.799 2.491.314 6.132-2.863 6.534l-34.428 4.353C17.925 242.472 3.3 225.805 9.347 209.102c.399-1.103.867-2.15 1.398-3.134 7.493-13.949 27.27-16.133 37.554-3.515z"/><path style="fill:#40c1fa" d="M460.157 378.367a70.67 70.67 0 0 1-5.436 8.67 66.951 66.951 0 0 1-6.025 7.1c-29.711 30.506-82.89 26.331-106.297-12.432l-59.235-84.823a12.15 12.15 0 0 1-.847-1.385c-4.268-8.102 1.643-18.229 11.182-18.095l22.901.341 80.544 1.209c51.846-2.666 88.046 52.643 63.213 99.415z"/><path style="fill:#93dcfc" d="M460.157 378.367a70.67 70.67 0 0 1-5.436 8.67 66.951 66.951 0 0 1-6.025 7.1c-26.807 5.839-56.683-4.506-72.67-30.982l-59.235-84.823c-.134-.196-.269-.393-.393-.589l80.544 1.209c51.848-2.666 88.048 52.643 63.215 99.415z"/><path d="M256.106 306.179c-7.447-14.547-28.349-14.688-35.85.001l-47.021 91.87c-29.443 49.556 5.925 113.949 64.948 113.949 58.706 0 94.598-64.059 64.947-113.95l-47.024-91.87zm-17.925 190.319c-46.415 0-75.398-50.834-51.514-90.71.431-.722 47.313-92.515 47.723-93.109 1.842-2.706 6.243-2.707 7.916.563 49.209 96.129 47.122 92.1 47.386 92.545 23.725 39.61-4.798 90.711-51.511 90.711zM58.203 171.018c178.014 112.004 168.16 107.591 172.427 107.59 6.265 0 9.945-7.071 6.35-12.198-42.161-60.161-52.224-129.787-54.469-165.935-.266-4.272-3.949-7.532-8.216-7.256a7.752 7.752 0 0 0-7.256 8.216c1.997 32.141 9.937 89.653 39.574 145.067L66.418 157.873c-49.463-30.562-64.553-92.179-17.205-127.6C92.754-2.302 153.79 22.407 164.802 71.775a7.752 7.752 0 0 0 15.13-3.374C166.539 8.361 92.692-21.61 39.927 17.862-15.845 59.585-1.047 134.409 58.203 171.018zM267.027 276.421c81.186-78.755 142.647-112.625 172.058-125.805a7.75 7.75 0 0 0 3.902-10.242 7.75 7.75 0 0 0-10.242-3.903c-26.108 11.7-76.597 39.107-142.99 97.758l88.738-167.916C401.79 25.43 442.41 2.082 476.938 33.097c30.342 27.249 24.908 71.9-15.698 91.974a7.752 7.752 0 0 0 6.871 13.896c50.795-25.111 57.439-83.046 19.185-117.402-42.086-37.803-93.837-12.92-122.336 37.186-.112.197 2.501-4.738-110.182 208.485-4.132 7.817 6.034 15.217 12.249 9.185zM202.141 269.643l-74.894-12.614c-42.965-10.001-81.496 30.674-67.95 73.528 13.501 42.699 68.333 54.146 97.869 21.102l54.031-53.375c9.762-9.644 4.537-26.385-9.056-28.641zm-56.401 71.539c-21.498 24.27-61.771 15.988-71.662-15.297-9.87-31.215 18.217-61.23 49.845-53.714.569.136 75.563 12.72 75.866 12.81.601.181.812.692.884.982.392 1.569-51.338 51.163-54.933 55.219z"/><path d="M237.315 222.635c4.715 9.198 17.496 9.851 23.172 1.503.888-1.291-.351.852 22.735-44.223 14.2-24.109-.9-54.831-28.027-58.796-3.202-.472-5.996-.43-5.892-.426-30.514.013-49.213 33.265-33.863 59.254l21.875 42.688zm-8.66-74.384c7.235-12.781 20.767-12.085 20.663-12.057 18.505 0 29.885 20.249 20.464 35.996-.246.409 1.12-2.218-20.435 39.934-21.582-42.102-20.206-39.466-20.473-39.916-4.439-7.402-4.521-16.358-.219-23.957zM486.962 176.369c-10.68-2.862-21.653.057-29.412 7.806l-25.754 22.906c-7.321 6.515-4.026 18.458 5.325 20.514 38.602 8.528 37.4 8.651 41.928 8.651 17.961 0 32.264-15.711 30.318-33.64-.161-1.497-9.745-22.845-22.405-26.237zm-12.097 43.772c-.378-.112-8.154-1.83-27.515-6.148 14.723-13.1 20.781-18.469 21.055-18.749 8.636-8.779 24.151-3.87 25.552 9.032.53 4.885-8.664 18.926-19.092 15.865zM117.426 420.889l-29.96 17.034c-19.389 9.594-22.696 35.87-6.799 49.993 19.363 17.225 49.518 4.111 50.777-21.135l3.704-34.263c1.051-9.729-9.39-16.392-17.722-11.629zm-1.459 44.98c-.507 12.378-15.372 19.041-24.998 10.464-7.628-6.776-6.285-19.846 3.494-24.576.155-.074.308-.155.457-.24l24.06-13.68c-2.172 20.137-2.996 27.631-3.013 28.032zM78.634 223.775c-.834-1.176.024-.077-24.502-26.433-14.899-17.944-44.036-13.109-52.072 9.12-8.041 22.21 11.181 44.607 34.168 40.339l34.194-4.323c9.08-1.148 13.357-11.584 8.212-18.703zm-45.098 7.76c-12.156 2.365-22.091-10.555-15.962-21.9 4.835-9 17.87-10.687 24.718-2.285.259.316 5.191 5.587 19.212 20.632-20.137 2.55-27.571 3.476-27.968 3.553zM396.813 271.203h-.031.006l-.062-.001h.02l-.06-.001h.018l-.064-.001-103.335-1.547c-11.108 0-20.144 9.051-20.144 20.174 0 10.904 3.014 8.651 62.743 96.103 10.166 16.709 26.118 28.629 44.946 33.574 4.14 1.091 8.377-1.387 9.465-5.528a7.75 7.75 0 0 0-5.528-9.465c-14.992-3.937-27.687-13.461-35.751-26.818a7.794 7.794 0 0 0-.281-.432c-62.513-90.212-60.093-84.553-60.093-87.432 0-2.248 1.775-4.673 4.726-4.673 108.069 1.614 103.47 1.567 103.961 1.542 46.21-2.403 77.948 46.622 55.964 88.034-8.825 16.618-23.96 27.32-41.242 30.669a7.751 7.751 0 0 0-6.135 9.084c.818 4.223 4.901 6.945 9.084 6.135 57.266-11.096 82.076-82.423 39.38-126.601-15.084-15.607-35.65-23.873-57.587-22.816zM396.746 271.203l.037.001-.037-.001zM396.639 271.201l.047.001-.047-.001z"/></svg>