<svg xmlns="http://www.w3.org/2000/svg" viewBox="0 0 512.004 512.004" style="enable-background:new 0 0 512.004 512.004" xml:space="preserve"><path style="fill:#ff812d" d="M422.049 293.044c27.484-14.545 54.968 5.442 82.452-22.042-41.746 0-44.771-38.72-80.916-44.322 19.826-23.956 52.866-16.008 67.741-51.917-38.568 15.975-56.181-18.64-91.718-9.982 9.149-29.719 42.716-35.02 42.716-73.888-29.519 29.519-59.038 4.278-88.556 25.876-2.92-30.958 26.063-48.701 11.189-84.611-15.975 38.568-52.906 26.546-71.913 57.796-14.546-27.484 5.441-54.968-22.043-82.452 0 41.746-38.72 44.771-44.321 80.916-23.956-19.826-16.008-52.866-51.917-67.741 15.975 38.568-18.64 56.181-9.982 91.718-29.719-9.149-35.02-42.716-73.888-42.716 29.519 29.519 4.279 59.038 25.876 88.557-30.958 2.92-48.701-26.063-84.611-11.189 38.568 15.975 26.546 52.906 57.796 71.913-27.485 14.546-54.969-5.442-82.453 22.042 41.746 0 44.771 38.72 80.916 44.322-19.826 23.956-52.866 16.008-67.741 51.917 38.568-15.975 56.181 18.64 91.718 9.982-9.149 29.719-42.716 35.02-42.716 73.888 29.519-29.519 59.038-4.279 88.556-25.876 2.92 30.958-26.063 48.701-11.189 84.611 15.975-38.568 52.906-26.546 71.913-57.796 14.545 27.484-5.442 54.968 22.042 82.452 0-41.746 38.72-44.771 44.321-80.916 23.956 19.826 16.008 52.866 51.917 67.74-15.975-38.568 18.64-56.181 9.982-91.718 29.719 9.149 35.02 42.716 73.888 42.716-29.519-29.519-4.279-59.038-25.876-88.557 30.958-2.92 48.701 26.063 84.611 11.189-38.566-15.974-26.544-52.905-57.794-71.912z"/><path style="fill:#ffb833" d="M256.001 116.002v280c77.32 0 140-62.68 140-140 0-77.319-62.68-140-140-140z"/><path style="fill:#ffce53" d="M366.001 256.002c0-77.32-49.249-140-110-140-77.32 0-140 62.68-140 140s62.68 140 140 140c60.752 0 110-62.68 110-140z"/><path style="fill:#ffe373" d="M256.001 146.002v220c60.751 0 110-49.249 110-110s-49.248-110-110-110z"/><path style="fill:#ffe9b0" d="M336.001 256.002c0-60.751-35.817-110-80-110-60.751 0-110 49.249-110 110s49.249 110 110 110c44.183 0 80-49.248 80-110z"/><path d="M172.875 183.581a7.501 7.501 0 0 0-10.509 1.438c-15.612 20.566-23.865 45.111-23.865 70.983 0 64.79 52.71 117.5 117.5 117.5s117.5-52.71 117.5-117.5-52.71-117.5-117.5-117.5c-25.873 0-50.418 8.253-70.983 23.865a7.5 7.5 0 1 0 9.071 11.947c17.934-13.614 39.343-20.812 61.912-20.812 56.519 0 102.5 45.981 102.5 102.5s-45.981 102.5-102.5 102.5-102.5-45.981-102.5-102.5c0-22.569 7.197-43.979 20.813-61.913a7.5 7.5 0 0 0-1.439-10.508z"/><path d="M509.805 276.306a7.5 7.5 0 0 0-5.304-12.804c-19.395 0-28.805-9.408-39.702-20.301-7.177-7.175-15.053-15.049-26.203-19.929 5.369-3.547 11.376-6.035 17.594-8.612 15.124-6.267 32.266-13.369 42.064-37.026a7.499 7.499 0 0 0-9.799-9.799c-6.01 2.488-11.674 3.699-17.315 3.699-9.593.001-18.113-3.527-27.135-7.263-9.701-4.017-19.723-8.167-31.827-8.394 3.603-5.327 8.196-9.922 12.952-14.68 11.574-11.577 24.693-24.699 24.693-50.306a7.499 7.499 0 0 0-12.804-5.304c-13.713 13.714-27.02 13.716-42.428 13.719-10.148.001-21.284.003-32.62 4.437 1.289-6.304 3.776-12.312 6.351-18.53 6.264-15.125 13.362-32.269 3.563-55.926a7.499 7.499 0 0 0-13.858 0c-7.423 17.918-19.715 23.013-33.949 28.911-9.376 3.885-19.663 8.148-28.439 16.582-1.222-6.317-1.223-12.818-1.224-19.549-.002-16.371-.004-34.927-18.11-53.034a7.499 7.499 0 0 0-12.804 5.304c0 19.395-9.408 28.805-20.301 39.702-7.175 7.177-15.048 15.052-19.929 26.202-3.546-5.368-6.035-11.374-8.611-17.592-6.267-15.125-13.37-32.267-37.027-42.065a7.499 7.499 0 0 0-9.799 9.799c7.422 17.918 2.332 30.213-3.562 44.448-3.882 9.377-8.143 19.666-8.385 31.835-5.331-3.603-9.928-8.199-14.688-12.958-11.578-11.574-24.7-24.693-50.307-24.693a7.499 7.499 0 0 0-5.303 12.804c13.713 13.713 13.716 27.02 13.718 42.428.001 10.15.003 21.289 4.439 32.627-6.285-1.285-12.29-3.771-18.533-6.357-9.978-4.132-20.296-8.405-32.87-8.405-7.648 0-15.189 1.584-23.055 4.843a7.499 7.499 0 0 0 0 13.858c17.918 7.423 23.012 19.715 28.911 33.949 3.885 9.375 8.148 19.663 16.582 28.439-6.317 1.222-12.818 1.223-19.549 1.224-16.371.002-34.927.004-53.033 18.11a7.5 7.5 0 0 0 5.303 12.804c19.395 0 28.805 9.408 39.702 20.301 7.177 7.175 15.053 15.049 26.203 19.929-5.369 3.547-11.375 6.035-17.593 8.612-15.124 6.267-32.266 13.369-42.065 37.026a7.499 7.499 0 0 0 1.626 8.173 7.495 7.495 0 0 0 8.173 1.626c6.011-2.489 11.675-3.699 17.315-3.699 9.592 0 18.112 3.527 27.133 7.263 9.702 4.017 19.724 8.167 31.829 8.394-3.602 5.327-8.196 9.922-12.952 14.68-11.575 11.577-24.694 24.699-24.694 50.306a7.499 7.499 0 0 0 4.63 6.929 7.495 7.495 0 0 0 8.173-1.625c13.714-13.714 27.021-13.716 42.428-13.719 10.149-.001 21.285-.003 32.621-4.437-1.289 6.304-3.776 12.311-6.351 18.529-6.263 15.126-13.362 32.27-3.563 55.927a7.5 7.5 0 0 0 13.858 0c7.422-17.918 19.715-23.013 33.949-28.911 9.375-3.885 19.663-8.148 28.439-16.582 1.222 6.317 1.223 12.818 1.224 19.549.002 16.371.004 34.927 18.111 53.034a7.497 7.497 0 0 0 8.174 1.625 7.499 7.499 0 0 0 4.63-6.929c0-19.395 9.408-28.805 20.301-39.702 7.175-7.177 15.049-15.053 19.929-26.203 3.547 5.369 6.035 11.376 8.612 17.594 6.267 15.124 13.369 32.266 37.026 42.064a7.318 7.318 0 0 0 2.951.571 7.5 7.5 0 0 0 7.438-7.5 7.471 7.471 0 0 0-.784-3.343c-7.139-17.663-2.086-29.864 3.757-43.975 3.882-9.377 8.143-19.666 8.384-31.836 5.331 3.603 9.929 8.199 14.689 12.958 11.577 11.574 24.699 24.693 50.306 24.693 4.162 0 7.521-3.357 7.521-7.5a7.48 7.48 0 0 0-2.515-5.603c-13.417-13.608-13.418-26.833-13.421-42.129-.001-10.15-.003-21.289-4.438-32.627 6.285 1.286 12.289 3.772 18.532 6.357 9.979 4.132 20.297 8.404 32.871 8.405 7.647 0 15.189-1.584 23.055-4.843a7.499 7.499 0 0 0 0-13.858c-17.918-7.423-23.013-19.715-28.911-33.949-3.885-9.376-8.148-19.663-16.582-28.439 6.317-1.222 12.818-1.223 19.549-1.224 16.37 0 34.926-.002 53.033-18.109zm-91.264 10.11a7.501 7.501 0 0 0-.389 13.037c12.313 7.489 16.707 18.092 21.795 30.369 4.448 10.733 9.316 22.483 20.226 31.903-.17.002-.34.004-.511.004-9.592-.001-18.112-3.529-27.134-7.264-9.979-4.133-20.298-8.405-32.873-8.405-1.701 0-3.425.081-5.124.241a7.5 7.5 0 0 0-5.349 11.896c8.51 11.632 8.512 23.109 8.514 36.399.002 11.617.003 24.334 6.476 37.21-9.106-3.631-15.614-10.138-22.762-17.282-8.695-8.693-17.687-17.683-31.98-22.083a7.501 7.501 0 0 0-9.495 8.943c3.412 14.003-.979 24.607-6.063 36.887-4.444 10.733-9.31 22.482-8.258 36.855-7.022-6.84-10.546-15.341-14.414-24.678-4.707-11.358-9.573-23.104-21.097-32.641a7.497 7.497 0 0 0-7.443-1.233 7.504 7.504 0 0 0-4.75 5.863c-2.206 14.242-10.32 22.359-19.717 31.758-8.213 8.216-17.204 17.209-21.733 30.891-3.871-9.007-3.873-18.209-3.874-28.315-.001-12.296-.003-25.01-6.999-38.229a7.501 7.501 0 0 0-13.037-.389c-7.489 12.313-18.092 16.707-30.37 21.795-10.733 4.448-22.48 9.315-31.9 20.223-.13-9.803 3.391-18.305 7.257-27.642 4.704-11.36 9.568-23.107 8.163-37.997a7.499 7.499 0 0 0-11.895-5.349c-11.631 8.51-23.109 8.512-36.398 8.514-11.618.002-24.334.003-37.211 6.476 3.631-9.106 10.137-15.614 17.283-22.761 8.693-8.695 17.683-17.688 22.083-31.981a7.499 7.499 0 0 0-8.943-9.495c-3.314.808-6.504 1.2-9.754 1.2-9.591 0-18.111-3.527-27.131-7.263-9.979-4.132-20.297-8.403-32.872-8.403-1.331 0-2.657.048-3.983.144 6.839-7.021 15.34-10.544 24.676-14.412 11.359-4.707 23.104-9.573 32.64-21.097a7.5 7.5 0 0 0-4.629-12.193c-14.242-2.206-22.359-10.32-31.758-19.717-8.216-8.214-17.209-17.204-30.891-21.733 9.007-3.871 18.209-3.872 28.316-3.873 12.295-.002 25.009-.003 38.229-6.999 2.385-1.262 3.908-3.708 3.988-6.405s-1.294-5.229-3.599-6.632c-12.314-7.489-16.708-18.092-21.795-30.369-4.448-10.734-9.316-22.483-20.226-31.903 9.768-.137 18.463 3.457 27.644 7.26 9.979 4.133 20.299 8.406 32.875 8.405 1.703 0 3.427-.081 5.124-.241a7.498 7.498 0 0 0 5.348-11.896c-8.51-11.632-8.512-23.109-8.514-36.399-.002-11.617-.003-24.334-6.475-37.21 9.106 3.631 15.614 10.138 22.761 17.283 8.695 8.692 17.687 17.682 31.98 22.082a7.501 7.501 0 0 0 9.494-8.943c-3.412-14.003.979-24.606 6.063-36.886 4.444-10.734 9.31-22.483 8.258-36.856 7.023 6.84 10.546 15.341 14.415 24.678 4.707 11.359 9.574 23.104 21.096 32.641a7.5 7.5 0 0 0 12.194-4.63c2.207-14.242 10.321-22.359 19.717-31.758 8.214-8.216 17.205-17.209 21.734-30.891 3.871 9.007 3.872 18.209 3.873 28.316.002 12.295.003 25.009 6.999 38.228a7.501 7.501 0 0 0 6.405 3.989 7.519 7.519 0 0 0 6.632-3.6c7.489-12.313 18.092-16.707 30.369-21.795 10.732-4.448 22.48-9.315 31.9-20.223.13 9.802-3.391 18.304-7.257 27.642-4.704 11.36-9.568 23.107-8.163 37.997a7.501 7.501 0 0 0 11.896 5.349c11.631-8.51 23.108-8.512 36.398-8.514 11.617-.002 24.334-.003 37.21-6.476-3.631 9.106-10.138 15.614-17.282 22.762-8.693 8.695-17.683 17.687-22.083 31.98a7.499 7.499 0 0 0 1.709 7.35 7.493 7.493 0 0 0 7.234 2.145c3.313-.808 6.505-1.2 9.754-1.2 9.591 0 18.11 3.527 27.13 7.263 9.979 4.132 20.299 8.405 32.874 8.403 1.33 0 2.657-.048 3.982-.145-6.839 7.022-15.34 10.545-24.676 14.413-11.358 4.707-23.104 9.573-32.641 21.097a7.498 7.498 0 0 0 4.63 12.193c14.242 2.206 22.359 10.32 31.758 19.717 8.216 8.214 17.209 17.204 30.891 21.733-9.007 3.871-18.209 3.872-28.316 3.873-12.296.002-25.01.002-38.229 6.999z"/><path d="M256.001 108.502c-81.332 0-147.5 66.168-147.5 147.5 0 33.57 11.59 66.429 32.634 92.523a7.499 7.499 0 0 0 10.546 1.13 7.5 7.5 0 0 0 1.13-10.546c-19.174-23.776-29.31-52.514-29.31-83.107 0-73.061 59.439-132.5 132.5-132.5s132.5 59.44 132.5 132.5-59.439 132.5-132.5 132.5c-30.592 0-59.33-10.135-83.107-29.31a7.5 7.5 0 0 0-9.416 11.676c26.096 21.045 58.954 32.634 92.523 32.634 81.332 0 147.5-66.168 147.5-147.5s-66.168-147.5-147.5-147.5z"/></svg>