<svg height="512pt" viewBox="-34 0 512 512.148" width="512pt" xmlns="http://www.w3.org/2000/svg"><path d="M393.016 204.79h24.14a17.494 17.494 0 0 1 13.48 5.687 17.474 17.474 0 0 1 4.442 13.941l-12.57 76.797c-1.613 8.574-9.2 14.715-17.918 14.508H39.32c-8.718.199-16.3-5.938-17.922-14.508L8.82 224.418a17.47 17.47 0 0 1 4.438-13.945 17.486 17.486 0 0 1 13.484-5.684zm0 0" fill="#bfa885"/><path d="m409.664 102.39-27.05 221.184a.315.315 0 0 1-.083.254 154.19 154.19 0 0 0-11.605 33.879c-4.61 31.402-6.23 66.902-31.488 93.867-16.043 17.067-44.461 26.281-66.391 38.485a78.132 78.132 0 0 1-49.067 13.398h-4.265c-4.012 0-7.512-.086-10.668-.258a76.46 76.46 0 0 1-38.399-13.14c-22.015-12.204-50.261-21.418-66.304-38.485-25.258-26.965-26.88-62.465-31.489-93.867-2.218-15.02-10.753-27.902-15.617-41.984a13.802 13.802 0 0 1-.597-1.707 75.58 75.58 0 0 1-1.875-7.594c-.258-1.281-.512-2.559-.684-3.84a5.085 5.085 0 0 1-.172-1.11l-2.558-99.413v-.086c12.543-24.235 41.214-78.25 99.242-71.508l233.129-25.258zm0 0" fill="#bfa885"/><path d="m383.723 105.207-26.707 218.367a.305.305 0 0 1-.086.254 154.394 154.394 0 0 0-11.606 33.879c-4.61 31.402-6.23 66.902-31.488 93.867-16.043 17.067-44.457 26.281-66.39 38.485a76.2 76.2 0 0 1-38.4 13.14 76.46 76.46 0 0 1-38.398-13.14c-22.015-12.204-50.261-21.418-66.304-38.485-25.258-26.965-26.88-62.465-31.489-93.867-2.218-15.02-10.753-27.902-15.617-41.984a13.802 13.802 0 0 1-.597-1.707 75.58 75.58 0 0 1-1.875-7.594c-.258-1.281-.512-2.559-.684-3.84a5.085 5.085 0 0 1-.172-1.11l-2.558-99.413v-.086c12.543-24.235 41.214-78.25 99.242-71.508zm0 0" fill="#ffe0b2"/><path d="M150.594 130.465c-58.028-6.742-86.7 47.273-99.242 71.508v2.816H34.199a130.227 130.227 0 0 0 2.047-19.027 86.213 86.213 0 0 0-10.582-49.239C8.598 110.922 47.766 13.984 119.531 42.656c10.41 4.18 20.309 7.852 29.356 10.922zM312.043 133.281c-15.102 2.473-30.293 8.364-47.7 5.29 16.47-2.387 31.489-8.704 47.7-5.29zm0 0" fill="#795548"/><path d="M409.664 204.79h-12.543c-2.558-5.122-5.035-9.9-7.508-14.337 6.145-45.14 36.008-85.16-18.09-139.262-19.457-19.457-36.183-27.992-51.882-30.464 22.183-3.157 44.714 2.218 72.957 30.464 59.734 59.73 17.066 102.399 17.066 153.598zm0 0" fill="#4e342e"/><g fill="#795548"><path d="M389.613 190.453c-31.316-56.746-54.445-60.926-77.57-57.172-16.211-3.414-31.23 2.903-47.7 5.29a50.644 50.644 0 0 1-8.277-2.048 41.337 41.337 0 0 0-25.601-1.28c-28.672 8.534-34.133 52.48-34.133 52.48a171.622 171.622 0 0 1-17.238-16.297c-25.856-27.82-66.133-87.125-10.582-145.664A170.374 170.374 0 0 1 187.8 8.523a28.847 28.847 0 0 0 26.879 34.559 84.02 84.02 0 0 0 24.32-.426c31.402-4.437 55.89-18.433 80.64-21.93 15.7 2.473 32.426 11.008 51.883 30.465 54.098 54.102 24.235 94.121 18.09 139.262zm0 0"/><path d="M239 42.656a84.02 84.02 0 0 1-24.32.426c1.023-.168 2.132-.254 3.242-.426 40.277-5.718 68.95-27.05 101.719-21.93-24.75 3.497-49.239 17.493-80.641 21.93zM256.066 136.523a50.644 50.644 0 0 0 8.278 2.047 61.411 61.411 0 0 1-29.356-2.047 52.913 52.913 0 0 0-4.523-1.28 41.337 41.337 0 0 1 25.601 1.28zm0 0"/></g><path d="M392.598 273.055c0 72.707-43.094 89.515-80.211 83.882 28.84-4.863 54.613-27.562 54.613-83.882 0-54.868-21.504-76.883-45.738-82.09 32.082-6.145 71.336 8.023 71.336 82.09zm0 0" fill="#283593"/><path d="M367 273.055c0 56.32-25.773 79.02-54.613 83.882h-.086a89.227 89.227 0 0 1-39.168-15.613c-34.133-25.601-51.2-25.601-51.2-25.601a41.112 41.112 0 0 0-12.8 3.242 156.886 156.886 0 0 0-38.403 22.36 90.13 90.13 0 0 1-64.765 15.612h-.086c-28.844-4.863-54.613-27.562-54.613-83.882 0-54.868 21.504-76.883 45.738-82.09a72.809 72.809 0 0 1 56.66 13.824c36.27 29.016 35.586 45.652 55.469 50.008a59.928 59.928 0 0 0 12.8 1.191c34.133 0 25.598-17.066 68.266-51.199a73.956 73.956 0 0 1 31.063-13.824c24.234 5.207 45.738 27.222 45.738 82.09zm0 0" fill="#3f51b5"/><path d="m163.574 261.34-58.523-13.652a9.392 9.392 0 0 0-10.992 10.937l2.62 16.496c2.239 15.863 14.305 28.55 30.04 31.574h.058c17.258 2.782 34.043-7.133 39.946-23.586l3.351-8.808a9.66 9.66 0 0 0-.324-7.946 9.68 9.68 0 0 0-6.176-5.015zM280.293 261.34l58.52-13.652c3.046-.583 6.187.378 8.386 2.566s3.172 5.324 2.606 8.371l-2.621 16.496a37.474 37.474 0 0 1-30.036 31.574h-.062c-17.254 2.782-34.043-7.133-39.941-23.586l-3.356-8.808a9.675 9.675 0 0 1 .324-7.946 9.677 9.677 0 0 1 6.18-5.015zm0 0" fill="#37474f"/><path d="M12.96 302.582c2.247 12.73 13.435 21.93 26.36 21.676h12.09a288.827 288.827 0 0 0 4.403 10.18 93.94 93.94 0 0 1 8.601 24.507 774.151 774.151 0 0 1 1.613 11.817c3.809 28.613 8.118 61.05 32.094 86.656a155.675 155.675 0 0 0 47.633 29.773c7.367 3.473 14.32 6.766 20.754 10.325a86.079 86.079 0 0 0 53.207 14.472h4.324a85.715 85.715 0 0 0 53.164-14.504c6.469-3.601 13.5-6.921 20.942-10.43a155.116 155.116 0 0 0 47.52-29.679c23.987-25.598 28.288-58.023 32.093-86.656.523-3.985 1.05-7.926 1.613-11.793a103.961 103.961 0 0 1 8.074-24.625c.965-2.313 1.938-4.633 2.875-6.973.489-.988.93-2.066 1.39-3.105h12.888c12.914.25 24.09-8.946 26.332-21.668l12.578-76.852a24.96 24.96 0 0 0-5.778-20.121 26.826 26.826 0 0 0-19.035-9.2 208.597 208.597 0 0 1 6.688-33.347c8.8-33.937 18.773-72.406-26.742-117.914-46.883-46.84-81.137-35.086-117.36-22.664a232.784 232.784 0 0 1-43.52 11.75c-17.741 2.563-30.5.418-36.812-6.144a22.628 22.628 0 0 1-4.789-17.833 8.533 8.533 0 0 0-13.558-8.464 144.268 144.268 0 0 0-37.836 41.285c-7.133-2.563-14.508-5.266-22.067-8.32-30.652-13.18-66.344-3.36-85.941 23.644-21.485 26.453-29.992 65.219-18.219 82.883a76.282 76.282 0 0 1 9.156 44.18c-.16 4.195-.504 7.882-.851 10.82h-.121a26.982 26.982 0 0 0-20.582 9.387 24.973 24.973 0 0 0-5.77 20.164zm132.173-163.875a188.63 188.63 0 0 0 45.918 55.723c.398.293.824.543 1.27.75.136.078.25.164.394.23a8.351 8.351 0 0 0 3.336.77c.086 0 .16.058.246.058s.223-.05.344-.05a8.261 8.261 0 0 0 1.902-.305c.187 0 .367-.078.547-.137.18-.062.324-.07.484-.129a8.515 8.515 0 0 0 3.934-3.414c.078-.121.137-.238.207-.36a8.389 8.389 0 0 0 1.074-3.062c1.082-8.687 7.14-33.281 21.938-42.582a29.866 29.866 0 0 1 26.632-1.578 81.58 81.58 0 0 0 47.668-.621c25.27-5.914 45.391-10.402 81.606 60.133a57.847 57.847 0 0 0-20.719-16.965c-25.984-12.484-58.43-3.934-77.059 10.957a206.068 206.068 0 0 0-33.757 33.852c-9.7 11.894-12.63 15.48-29.164 15.48-16.54 0-19.465-3.586-29.176-15.48A205.916 205.916 0 0 0 159 198.125c-18.645-14.898-51.074-23.441-77.059-10.957a58.28 58.28 0 0 0-22.14 18.918v-1.895c11.449-22.015 36.785-68.18 85.332-65.484zM59.8 273.055c0-36.836 10.238-61.215 29.531-70.5 20.625-9.918 46.934-.77 59 8.898a187.984 187.984 0 0 1 31.2 31.32c10.698 13.098 17.765 21.75 42.402 21.75 24.632 0 31.699-8.652 42.402-21.75a187.812 187.812 0 0 1 31.195-31.32c12.086-9.668 38.352-18.824 59-8.898 19.293 9.285 29.535 33.664 29.535 70.5a115.747 115.747 0 0 1-5.921 38.734 8.056 8.056 0 0 0-.625 1.707 53.117 53.117 0 0 1-25.461 30.106c-23.188 11.578-55.723 4.488-73.805-9.07-35.39-26.575-54.281-27.34-56.32-27.34-2.04 0-20.934.765-56.32 27.304-18.083 13.566-50.645 20.66-73.805 9.07C70.89 333.106 59.8 308.72 59.8 273.055zm273.414 172.672a143.696 143.696 0 0 1-42.36 25.925c-7.363 3.473-14.992 7.075-21.964 10.957a70.41 70.41 0 0 1-44.91 12.313h-4.208a70.116 70.116 0 0 1-44.988-12.32c-6.922-3.84-14.453-7.399-21.734-10.848a143.988 143.988 0 0 1-42.488-26.016c-20.231-21.597-23.977-49.879-27.606-77.218a1123.62 1123.62 0 0 0-1.535-11.172 56.235 56.235 0 0 0 2.75 1.484c30.18 15.098 69.758 5.762 91.68-10.684 28.691-21.52 44.168-23.687 46.082-23.89 1.91.195 17.39 2.363 46.078 23.89a99.677 99.677 0 0 0 57.386 18.297 76.413 76.413 0 0 0 34.297-7.613 87.867 87.867 0 0 0 2.66-1.434c-.535 3.665-1.03 7.368-1.535 11.094-3.617 27.367-7.37 55.649-27.605 77.235zm93.422-222.72-12.559 76.802a9.392 9.392 0 0 1-9.488 7.34h-7.145a146.364 146.364 0 0 0 3.688-34.094c0-5.657-.274-10.887-.692-15.871.852-12.707.77-18.774.649-30.72 0-3.66-.078-7.987-.102-13.175H417.2a9.933 9.933 0 0 1 7.598 3.414 7.86 7.86 0 0 1 1.84 6.332zM180.562 25.813a34.283 34.283 0 0 0 7.926 13.883c10.403 10.985 27.797 14.832 51.723 11.41a250.453 250.453 0 0 0 46.574-12.503c35.098-12.024 60.442-20.692 99.781 18.62 38.606 38.614 31.043 67.782 22.282 101.548a218.16 218.16 0 0 0-7.239 37.488h-3.812c-29.79-57.926-52.711-72.246-76.887-72.246a105.097 105.097 0 0 0-23.773 3.37 65.717 65.717 0 0 1-38.399 1.044 46.453 46.453 0 0 0-41.125 3.336 62.837 62.837 0 0 0-23.039 30.234 146.947 146.947 0 0 1 1.504-74.598 8.536 8.536 0 0 0-6.219-10.293 8.532 8.532 0 0 0-10.336 6.145 173.529 173.529 0 0 0-4.27 70.492A108.755 108.755 0 0 1 149.11 88.56c.172-22.274 10.735-43.344 31.454-62.747zM50.035 69.11c14.824-21.246 42.617-29.023 66.313-18.55 7.304 2.933 14.379 5.57 21.336 8.054a88.206 88.206 0 0 0-5.567 29.91 99.735 99.735 0 0 0 5.711 32.957c-51.984 1.704-79.59 49.047-91.82 72.329a8.915 8.915 0 0 0-1.969 2.449c.305-2.953.586-6.375.734-10.242a91.294 91.294 0 0 0-12.007-54.27c-6.094-9.098-1.528-39.441 17.27-62.637zM19.113 216.74a9.93 9.93 0 0 1 7.61-3.415H42.73c0 17.14.165 20.735.567 31.426l.355 9.387a186.615 186.615 0 0 0-.922 18.918 151.052 151.052 0 0 0 2.836 30.09c.051.308.059.718.118.972.136 1.024.351 2.047.554 3.074H39.32a9.387 9.387 0 0 1-9.515-7.355l-12.57-76.742a7.868 7.868 0 0 1 1.878-6.356zm0 0"/><path d="M293.543 84.64c2.152-.913 52.719-21.718 74.352 21.563 2.105 4.219 7.234 5.93 11.453 3.824a8.534 8.534 0 0 0 3.82-11.453c-23.105-46.191-73.129-39.578-96.332-29.625-4.293 1.875-6.266 6.864-4.426 11.172a8.534 8.534 0 0 0 11.133 4.52zM59.8 119.457c4.712 0 8.532-3.82 8.532-8.535 0-1.39.395-34.133 34.133-34.133a8.533 8.533 0 1 0 0-17.066 49.383 49.383 0 0 0-36.778 14.422 49.383 49.383 0 0 0-14.421 36.777 8.53 8.53 0 0 0 2.5 6.035 8.53 8.53 0 0 0 6.035 2.5zM221.934 383.988c27 0 34.132-16.742 34.132-25.597a8.399 8.399 0 0 0-8.27-8.371h-.265a8.668 8.668 0 0 0-8.531 8.132c-.102 1.465-1.367 8.778-17.066 8.778-15.582 0-16.957-7.2-17.067-8.735a8.537 8.537 0 0 0-8.633-8.437 8.531 8.531 0 0 0-8.433 8.633c0 8.855 7.133 25.597 34.133 25.597zM264.598 409.59h-85.332a8.536 8.536 0 0 0-8.536 8.535c0 4.71 3.825 8.531 8.536 8.531h85.332a8.533 8.533 0 1 0 0-17.066zM125.309 315.066c2.437.43 4.906.649 7.382.649 18.774-.23 35.47-12 42-29.602l3.356-8.808a18.5 18.5 0 0 0-.95-15.29 17.737 17.737 0 0 0-11.577-8.988l-58.524-13.652a17.294 17.294 0 0 0-15.785 4.266A18.377 18.377 0 0 0 85.629 260l2.629 16.488c2.84 19.453 17.726 34.953 37.05 38.578zm-22.196-59.078 58.524 13.657 1.937-8.313-1.547 8.695c.2.364.227.801.07 1.188l-3.312 8.82c-4.422 12.676-17.297 20.356-30.547 18.219a29.01 29.01 0 0 1-23.086-24.473l-2.687-16.476a1.179 1.179 0 0 1 .648-1.317zM269.172 286.113c6.535 17.614 23.242 29.383 42.027 29.61 2.485 0 4.961-.22 7.406-.649 19.317-3.64 34.18-19.152 37-38.605l2.63-16.504a18.348 18.348 0 0 0-5.579-16.34 17.325 17.325 0 0 0-15.789-4.266l-58.52 13.653a17.73 17.73 0 0 0-11.581 8.984 18.494 18.494 0 0 0-.946 15.293zm12.664-16.078a.68.68 0 0 1 .394-.383l58.801-13.535c.309.305.442.746.352 1.168l-2.63 16.496a29.015 29.015 0 0 1-23.132 24.485c-13.246 2.129-26.11-5.563-30.5-18.239l-3.351-8.797a1.408 1.408 0 0 1 .066-1.195zM230.465 443.723h-17.067a8.533 8.533 0 0 0-8.53 8.535c0 4.71 3.82 8.531 8.53 8.531h17.067a8.533 8.533 0 1 0 0-17.066zm0 0"/></svg>