<svg xmlns="http://www.w3.org/2000/svg" viewBox="0 0 511.999 511.999" style="enable-background:new 0 0 511.999 511.999" xml:space="preserve"><path style="fill:#ffdba9" d="M289.714 504.486h-67.429a5.01 5.01 0 0 1-5.01-5.01v-27.389a5.01 5.01 0 0 1 5.01-5.01h67.429a5.01 5.01 0 0 1 5.01 5.01v27.389a5.009 5.009 0 0 1-5.01 5.01zM304.013 394.212h-96.024a4.752 4.752 0 0 1-4.752-4.752V359.9a4.752 4.752 0 0 1 4.752-4.752h96.024a4.752 4.752 0 0 1 4.752 4.752v29.559a4.753 4.753 0 0 1-4.752 4.753z"/><path style="fill:#ffc473" d="M304.013 394.212h-21.564v-39.063h21.564a4.752 4.752 0 0 1 4.752 4.752v29.559a4.753 4.753 0 0 1-4.752 4.752zM289.714 504.486H271.03v-37.409h18.685a5.01 5.01 0 0 1 5.01 5.01v27.389a5.01 5.01 0 0 1-5.011 5.01z"/><path style="fill:#6b6c8a" d="m292.04 355.149 22.618-232.031a5.012 5.012 0 0 0-.532-2.78L256 7.491v347.657h36.04z"/><path style="fill:#595b75" d="m314.658 123.116-22.615 232.032h-22.966l22.615-232.032c.1-.952-.09-1.924-.531-2.775l-35.16-68.256V7.495l58.126 112.844c.44.853.621 1.825.531 2.777z"/><path style="fill:#b7c1ca" d="m219.961 355.149-22.618-232.031a5.012 5.012 0 0 1 .532-2.78L256 7.491v347.657h-36.039z"/><path style="fill:#b76035" d="M228.971 394.209h54.063v72.864h-54.063z"/><path style="fill:#a04c27" d="M256.002 394.209h27.031v72.864h-27.031z"/><path d="M320.806 116.897 262.681 4.05c-.015-.03-.037-.055-.053-.084-.111-.208-.245-.4-.375-.597-.102-.155-.194-.317-.306-.463-.134-.173-.289-.327-.437-.489-.132-.143-.255-.296-.396-.427-.161-.15-.342-.277-.515-.412-.15-.117-.292-.244-.451-.348-.182-.121-.381-.217-.575-.322-.17-.093-.335-.195-.512-.274-.182-.081-.377-.138-.567-.205-.208-.073-.411-.154-.625-.209-.034-.009-.065-.025-.099-.033-.159-.038-.319-.046-.478-.073-.222-.039-.441-.083-.667-.102-.204-.017-.406-.01-.609-.01-.215-.001-.429-.008-.646.011-.212.018-.418.061-.627.096-.171.029-.342.038-.513.079-.037.009-.069.026-.106.036-.194.05-.379.125-.568.19-.21.072-.423.135-.623.225-.154.069-.297.16-.446.239-.216.115-.437.223-.639.357-.141.093-.266.207-.401.31-.191.146-.387.286-.563.449-.135.125-.252.271-.378.407-.154.167-.315.327-.453.506-.111.144-.202.305-.304.459-.13.197-.265.39-.377.6-.016.03-.038.054-.053.084l-58.124 112.844a12.495 12.495 0 0 0-1.332 6.952l21.815 223.786h-3.691c-6.763 0-12.267 5.503-12.267 12.268v29.558c0 6.764 5.503 12.268 12.267 12.268h13.468v4.895a7.515 7.515 0 1 0 15.03 0v-4.895h39.031v57.834h-39.031v-6.179a7.515 7.515 0 1 0-15.03 0v6.221c-6.518.431-11.695 5.857-11.695 12.483v27.389c0 6.906 5.618 12.525 12.525 12.525h67.429c6.906 0 12.525-5.618 12.525-12.525v-27.389c0-6.626-5.175-12.053-11.695-12.483v-57.876h13.468c6.763 0 12.267-5.503 12.267-12.268V359.9c0-6.764-5.503-12.268-12.267-12.268h-3.69l12.211-125.255a7.515 7.515 0 0 0-6.75-8.208c-4.141-.414-7.806 2.619-8.208 6.75L285.22 347.633h-21.705V38.493l43.591 84.63-5.038 51.687a7.514 7.514 0 0 0 6.75 8.208c4.122.399 7.805-2.62 8.208-6.75l5.109-52.417a12.48 12.48 0 0 0-1.329-6.954zM287.21 496.97h-62.42v-22.379H287.209v22.379h.001zm4.829-134.306h9.21v24.033H210.751v-24.033H292.039zm-65.26-15.03-21.885-224.511 43.591-84.63v309.14h-21.706z"/></svg>