<svg height="511pt" viewBox="-153 1 511 512" width="511pt" xmlns="http://www.w3.org/2000/svg"><path d="M95.617 10.102 11.945 80.437a11.079 11.079 0 0 0-3.82 10.157L43.684 322.93h118.12l35.563-232.336a11.09 11.09 0 0 0-3.824-10.156l-83.672-70.336a11.072 11.072 0 0 0-14.254 0zm0 0" fill="#d67046"/><path d="m193.543 80.438-15.047-12.649-34.691 226.645H39.32l4.364 28.496h118.12l35.563-232.336a11.09 11.09 0 0 0-3.824-10.157zm0 0" fill="#bd633e"/><path d="M171.46 376.496H34.032c-8.441 0-15.285-6.844-15.285-15.281v-23c0-8.442 6.844-15.285 15.285-15.285h137.43c8.437 0 15.281 6.843 15.281 15.285v23c0 8.437-6.844 15.281-15.281 15.281zm0 0" fill="#da9783"/><path d="M171.46 322.93h-27c8.442 0 15.282 6.843 15.282 15.285v23c0 8.437-6.84 15.281-15.281 15.281h27c8.437 0 15.281-6.844 15.281-15.281v-23c0-8.442-6.844-15.285-15.281-15.285zm0 0" fill="#ba8170"/><path d="M115.328 504.496H90.16c-14.59 0-26.414-11.828-26.414-26.418V376.496h77.996v101.582c0 14.59-11.824 26.418-26.414 26.418zm0 0" fill="#d67046"/><path d="M123.531 376.496v83.371c0 14.59-11.824 26.414-26.414 26.414H71.95c-2.496 0-4.91-.351-7.199-1 3.133 11.086 13.32 19.215 25.414 19.215h25.164c14.59 0 26.418-11.828 26.418-26.418V376.496zm0 0" fill="#bd633e"/><path d="M102.746 291.941c-9.39 0-17-7.609-17-17V90.281c0-9.39 7.61-17 17-17 9.387 0 17 7.61 17 17v184.66c0 9.391-7.613 17-17 17zm0 0" fill="#da9783"/><path d="M127.246 274.95V90.284c0-13.512-10.992-24.5-24.5-24.5-13.512 0-24.5 10.988-24.5 24.5V274.95c0 13.508 10.988 24.5 24.5 24.5 13.508 0 24.5-10.992 24.5-24.5zm-34 0V90.284c0-5.238 4.262-9.5 9.5-9.5s9.5 4.262 9.5 9.5V274.95c0 5.239-4.262 9.5-9.5 9.5s-9.5-4.261-9.5-9.5zm0 0"/><path d="M198.371 74.703 114.7 4.367a18.544 18.544 0 0 0-23.91 0L7.121 74.703c-4.93 4.14-7.383 10.664-6.41 17.031l8.91 58.22a7.498 7.498 0 0 0 8.547 6.276 7.499 7.499 0 0 0 6.281-8.546c-8.433-59.348-10.586-59.055-7.68-61.5l83.672-70.336a3.574 3.574 0 0 1 4.606 0l83.672 70.336c2.945 2.476 2.511-9.602-33.352 229.25H50.125l-21.39-139.75a7.505 7.505 0 0 0-8.551-6.282 7.502 7.502 0 0 0-6.278 8.551L34.95 315.437h-.918c-12.562 0-22.785 10.22-22.785 22.782v23c0 12.562 10.223 22.785 22.785 22.785h22.215v94.078C56.246 496.785 71.461 512 90.16 512h25.168c18.7 0 33.914-15.215 33.914-33.918V454.5a7.5 7.5 0 1 0-15 0v23.582c0 10.434-8.484 18.918-18.914 18.918H90.16c-10.43 0-18.914-8.484-18.914-18.918v-94.078h62.996V426.5a7.5 7.5 0 0 0 7.5 7.5c4.145 0 7.5-3.355 7.5-7.5v-42.496h22.219c12.562 0 22.781-10.223 22.781-22.785v-23c0-12.563-10.219-22.781-22.781-22.781h-.922L204.781 91.73c.973-6.363-1.484-12.886-6.41-17.027zm-26.91 255.734c4.289 0 7.781 3.489 7.781 7.782v23c0 4.293-3.492 7.785-7.781 7.785H34.03c-4.293 0-7.785-3.492-7.785-7.785v-23c0-4.293 3.492-7.781 7.785-7.781zm0 0"/></svg>