<svg xmlns="http://www.w3.org/2000/svg" version="1.1" xmlns:xlink="http://www.w3.org/1999/xlink" xmlns:svgjs="http://svgjs.com/svgjs" width="512" height="512" x="0" y="0" viewBox="0 0 512 512" style="enable-background:new 0 0 512 512" xml:space="preserve" class=""><g><path xmlns="http://www.w3.org/2000/svg" d="m151.189 233.631h-43.369v-49.657c0-11.909 9.654-21.563 21.563-21.563h.242c11.909 0 21.563 9.654 21.563 21.563v49.657z" fill="#fa4954" data-original="#fa4954" class=""></path><path xmlns="http://www.w3.org/2000/svg" d="m299.79 233.631h-43.369v-49.657c0-11.909 9.654-21.563 21.563-21.563h.242c11.909 0 21.563 9.654 21.563 21.563v49.657z" fill="#fa4954" data-original="#fa4954" class=""></path><path xmlns="http://www.w3.org/2000/svg" d="m129.505 162.41c-2.798 0-5.464.548-7.919 1.513 8.055 3.165 13.765 10.993 13.765 20.171v49.537h15.838v-49.537c0-11.976-9.708-21.684-21.684-21.684z" fill="#fa2a3b" data-original="#fa2a3b" class=""></path><path xmlns="http://www.w3.org/2000/svg" d="m278.106 162.41c-2.798 0-5.464.548-7.919 1.513 8.055 3.165 13.765 10.993 13.765 20.171v49.537h15.838v-49.537c0-11.976-9.708-21.684-21.684-21.684z" fill="#fa2a3b" data-original="#fa2a3b" class=""></path><path xmlns="http://www.w3.org/2000/svg" d="m331.723 274.68v-37.147c0-7.744-6.277-14.021-14.021-14.021h-227.793c-7.744 0-14.021 6.277-14.021 14.021v37.147c0 12.111-4.887 23.71-13.555 32.17l-48.286 47.123c-4.159 4.059-6.505 9.625-6.505 15.437v90.552c0 24.523 19.88 44.403 44.403 44.403h303.722c24.523 0 44.403-19.88 44.403-44.403v-90.552c0-5.812-2.345-11.378-6.505-15.437l-48.286-47.123c-8.668-8.46-13.556-20.059-13.556-32.17z" fill="#fc8086" data-original="#fc8086" class=""></path><path xmlns="http://www.w3.org/2000/svg" d="m393.564 353.972-48.286-47.123c-8.668-8.459-13.555-20.058-13.555-32.17v-37.147c0-7.743-6.277-14.021-14.021-14.021h-52.616c7.744 0 14.021 6.277 14.021 14.021v37.147c0 12.112 4.887 23.71 13.555 32.17l48.286 47.123c4.159 4.059 6.505 9.625 6.505 15.437v90.552c0 24.523-19.88 44.403-44.403 44.403h52.616c24.523 0 44.403-19.88 44.403-44.403v-90.551c0-5.812-2.345-11.378-6.505-15.438z" fill="#fb636f" data-original="#fb636f" class=""></path><circle xmlns="http://www.w3.org/2000/svg" cx="203.805" cy="382.093" fill="#eaeaea" r="84.596" data-original="#eaeaea" class=""></circle><circle xmlns="http://www.w3.org/2000/svg" cx="203.805" cy="382.093" fill="#fa4954" r="26.156" data-original="#fa4954" class=""></circle><path xmlns="http://www.w3.org/2000/svg" d="m210.952 356.934c.644 2.272.996 4.667.996 7.146 0 14.446-11.711 26.156-26.156 26.156-2.479 0-4.874-.352-7.146-.997 3.11 10.971 13.193 19.01 25.16 19.01 14.446 0 26.156-11.711 26.156-26.156 0-11.967-8.04-22.049-19.01-25.159z" fill="#fa2a3b" data-original="#fa2a3b" class=""></path><path xmlns="http://www.w3.org/2000/svg" d="m247.3 309.53c7.635 12.711 12.034 27.587 12.034 43.495 0 46.721-37.875 84.596-84.596 84.596-15.907 0-30.784-4.398-43.495-12.034 14.79 24.622 41.749 41.102 72.563 41.102 46.721 0 84.596-37.875 84.596-84.596 0-30.814-16.48-57.772-41.102-72.563z" fill="#cbcbcb" data-original="#cbcbcb" class=""></path><path xmlns="http://www.w3.org/2000/svg" d="m498.427 210.746c-12.327-36.257-36.447-76.452-70.369-113.578-33.923-37.126-71.784-64.765-106.785-80.304-41.659-18.496-67.233-6.682-89.327 13.506-7.29 6.68-7.797 18.118-1.127 25.418l53.364 58.403c6.707 7.34 18.095 7.854 25.435 1.147l23.366-21.35c3.194-2.919 8.03-3.14 11.455-.495 15.042 11.613 29.784 25.191 43.565 40.274 13.782 15.083 25.978 30.986 36.19 47.013 2.325 3.649 1.67 8.445-1.524 11.364l-23.366 21.35c-7.34 6.707-7.854 18.095-1.147 25.435l53.364 58.403c6.67 7.299 18.107 7.823 25.416 1.164 22.095-20.188 36.162-44.595 21.49-87.75z" fill="#fb636f" data-original="#fb636f" class=""></path><path xmlns="http://www.w3.org/2000/svg" d="m498.427 210.746c-12.327-36.257-36.447-76.452-70.37-113.578s-71.784-64.765-106.785-80.304c-20.49-9.097-37.083-10.851-51.291-7.893 7.534 1.401 15.67 3.954 24.541 7.893 35.001 15.539 72.862 43.178 106.785 80.304s58.043 77.321 70.369 113.578c14.382 42.301 1.144 66.586-20.194 86.543l.038.042c6.67 7.299 18.107 7.823 25.416 1.164 22.096-20.187 36.163-44.594 21.491-87.749z" fill="#fa4954" data-original="#fa4954" class=""></path><path xmlns="http://www.w3.org/2000/svg" d="m247.65 301.037c-13.377-7.25-28.538-11.082-43.845-11.082-50.805 0-92.139 41.333-92.139 92.138s41.333 92.139 92.139 92.139 92.139-41.333 92.139-92.139c0-20.877-7.178-41.329-20.21-57.587-2.606-3.252-7.352-3.774-10.601-1.168-3.251 2.604-3.773 7.352-1.168 10.601 11.053 13.79 16.895 30.44 16.895 48.153 0 42.488-34.567 77.054-77.055 77.054s-77.054-34.567-77.054-77.054 34.567-77.054 77.054-77.054c12.805 0 25.48 3.202 36.657 9.26 3.663 1.984 8.24.626 10.224-3.036 1.986-3.663.626-8.24-3.036-10.225z" fill="#000000" data-original="#000000" class=""></path><path xmlns="http://www.w3.org/2000/svg" d="m203.805 348.395c-18.581 0-33.698 15.117-33.698 33.699 0 18.581 15.117 33.699 33.698 33.699 18.582 0 33.699-15.117 33.699-33.699s-15.117-33.699-33.699-33.699zm0 52.313c-10.264 0-18.614-8.35-18.614-18.615 0-10.264 8.35-18.614 18.614-18.614s18.614 8.35 18.614 18.614c.001 10.265-8.349 18.615-18.614 18.615z" fill="#000000" data-original="#000000" class=""></path><path xmlns="http://www.w3.org/2000/svg" d="m213.286 327.623c0-5.278-4.279-9.557-9.557-9.557s-9.557 4.279-9.557 9.557 4.279 9.557 9.557 9.557 9.557-4.278 9.557-9.557z" fill="#000000" data-original="#000000" class=""></path><circle xmlns="http://www.w3.org/2000/svg" cx="174.132" cy="336.254" r="9.557" fill="#000000" data-original="#000000" class=""></circle><circle xmlns="http://www.w3.org/2000/svg" cx="233.356" cy="336.254" r="9.557" fill="#000000" data-original="#000000" class=""></circle><path xmlns="http://www.w3.org/2000/svg" d="m253.613 349.987c-5.278 0-9.557 4.279-9.557 9.557s4.279 9.557 9.557 9.557 9.557-4.279 9.557-9.557c.001-5.278-4.278-9.557-9.557-9.557z" fill="#000000" data-original="#000000" class=""></path><path xmlns="http://www.w3.org/2000/svg" d="m163.498 359.544c0-5.278-4.279-9.557-9.557-9.557s-9.557 4.279-9.557 9.557 4.279 9.557 9.557 9.557 9.557-4.278 9.557-9.557z" fill="#000000" data-original="#000000" class=""></path><path xmlns="http://www.w3.org/2000/svg" d="m162.415 427.878c5.278 0 9.557-4.279 9.557-9.557s-4.279-9.557-9.557-9.557-9.557 4.279-9.557 9.557 4.279 9.557 9.557 9.557z" fill="#000000" data-original="#000000" class=""></path><path xmlns="http://www.w3.org/2000/svg" d="m178.817 434.809c0 5.278 4.279 9.557 9.557 9.557s9.557-4.279 9.557-9.557-4.279-9.557-9.557-9.557-9.557 4.279-9.557 9.557z" fill="#000000" data-original="#000000" class=""></path><path xmlns="http://www.w3.org/2000/svg" d="m219.229 425.252c-5.278 0-9.557 4.279-9.557 9.557s4.279 9.557 9.557 9.557 9.557-4.279 9.557-9.557-4.279-9.557-9.557-9.557z" fill="#000000" data-original="#000000" class=""></path><circle xmlns="http://www.w3.org/2000/svg" cx="149.568" cy="390.255" r="9.557" fill="#000000" data-original="#000000" class=""></circle><circle xmlns="http://www.w3.org/2000/svg" cx="258.06" cy="390.255" r="9.557" fill="#000000" data-original="#000000" class=""></circle><path xmlns="http://www.w3.org/2000/svg" d="m505.568 208.319c-13.093-38.514-38.643-79.795-71.942-116.238-21.839-23.901-45.463-44.274-70.217-60.552-3.481-2.287-8.156-1.322-10.446 2.158-2.288 3.48-1.323 8.157 2.158 10.446 23.708 15.591 46.375 35.146 67.369 58.124 31.926 34.939 56.359 74.33 68.797 110.918 14.133 41.571-.989 62.898-19.429 79.746-4.258 3.877-10.884 3.575-14.769-.676l-53.364-58.404c-1.885-2.063-2.854-4.737-2.728-7.528.126-2.792 1.332-5.368 3.395-7.252l23.365-21.35c5.922-5.41 7.098-14.236 2.798-20.984-10.58-16.604-23.023-32.77-36.983-48.048-13.963-15.279-28.943-29.126-44.524-41.155-6.335-4.89-15.23-4.513-21.15.897l-23.367 21.35c-4.26 3.891-10.89 3.593-14.781-.667l-53.365-58.402c-3.885-4.253-3.591-10.879.647-14.763 18.448-16.857 41.049-29.999 81.181-12.18 2.722 1.208 5.519 2.52 8.311 3.898 3.735 1.846 8.258.311 10.102-3.423 1.843-3.736.31-8.258-3.424-10.102-2.977-1.469-5.961-2.869-8.87-4.159-20.982-9.317-39.526-12.008-56.682-8.227-13.987 3.082-26.949 10.409-40.8 23.064-10.369 9.503-11.087 25.682-1.599 36.066l53.364 58.402c4.603 5.038 10.892 7.982 17.709 8.289 6.814.303 13.344-2.058 18.382-6.661l23.368-21.351c.499-.455 1.237-.494 1.758-.092 14.894 11.499 29.229 24.752 42.606 39.391 13.374 14.636 25.284 30.106 35.397 45.978.354.554.247 1.286-.251 1.742l-23.365 21.35c-10.4 9.502-11.129 25.692-1.628 36.091l39.597 43.336-2.834 2.834c-16.61 16.61-16.61 43.638 0 60.25l8.674 8.673c5.197 5.197 8.06 12.107 8.06 19.458 0 15.173-12.345 27.519-27.519 27.519h-10.956v-36.676c0-7.795-3.199-15.389-8.779-20.834l-48.286-47.124c-7.17-6.997-11.282-16.754-11.282-26.772v-37.146c0-11.89-9.673-21.564-21.563-21.564h-10.37v-31.876c0-16.115-13.111-29.226-29.226-29.226s-29.226 13.111-29.226 29.226v31.876h-90.148v-31.876c0-16.115-13.111-29.226-29.226-29.226-16.116 0-29.226 13.111-29.226 29.226v31.876h-10.37c-11.89 0-21.563 9.673-21.563 21.564v37.146c0 10.017-4.112 19.775-11.281 26.772l-48.288 47.124c-5.579 5.444-8.779 13.038-8.779 20.834v90.552c0 28.643 23.302 51.946 51.945 51.946h37.081c4.165 0 7.542-3.376 7.542-7.542s-3.377-7.542-7.542-7.542h-37.081c-20.325 0-36.861-16.536-36.861-36.862v-90.552c0-3.756 1.542-7.415 4.23-10.039l48.286-47.124c10.06-9.817 15.83-23.51 15.83-37.567v-37.146c0-3.573 2.906-6.479 6.479-6.479h227.793c3.573 0 6.478 2.907 6.478 6.479v37.146c0 14.057 5.77 27.749 15.83 37.567l48.286 47.124c2.689 2.624 4.231 6.283 4.231 10.039v90.552c0 20.325-16.535 36.862-36.861 36.862h-233.2c-4.165 0-7.542 3.376-7.542 7.542s3.377 7.542 7.542 7.542h233.201c28.642 0 51.945-23.303 51.945-51.946v-38.791h10.956c23.491 0 42.603-19.111 42.603-42.603 0-11.381-4.432-22.079-12.478-30.125l-8.673-8.672c-10.73-10.731-10.73-28.188 0-38.917l2.353-2.353 3.582 3.921c5.029 5.503 11.936 8.297 18.868 8.297 6.146-.001 12.313-2.199 17.202-6.653 13.843-12.649 22.306-24.898 26.635-38.551 5.309-16.751 4.297-35.458-3.092-57.195zm-241.605-24.226c0-7.798 6.345-14.142 14.142-14.142 7.798 0 14.142 6.344 14.142 14.142v31.876h-28.285v-31.876zm-148.6 0c0-7.798 6.344-14.142 14.142-14.142s14.142 6.344 14.142 14.142v31.876h-28.285v-31.876z" fill="#000000" data-original="#000000" class=""></path></g></svg>