<svg xmlns="http://www.w3.org/2000/svg" style="enable-background:new 0 0 512 512" xml:space="preserve" width="512" height="512"><path style="fill:#8e4f20" d="M390.57 136.96v135.79H121.43V136.96c0-2.18.05-4.35.16-6.5C124.98 61.98 181.57 7.5 250.89 7.5h10.22c40.11 0 75.96 18.24 99.71 46.88 17.28 20.85 28.15 47.2 29.58 76.04.12 2.17.17 4.35.17 6.54z"/><path style="fill:#723700" d="M390.57 136.96v79.12a45.932 45.932 0 0 1-17.38 3.4c-2.52 0-5.01-.21-7.42-.6-4.13 20.18-13.76 38.83-27.68 53.87H173.92a112.542 112.542 0 0 1-27.69-53.87c-2.42.39-4.91.6-7.42.6-6.14 0-12.01-1.21-17.38-3.4v-79.12c0-2.18.05-4.35.16-6.5a45.92 45.92 0 0 1 17.22-3.33c1.71 0 3.44.1 5.16.3l13 2.64h198.06l13-2.64c1.73-.19 3.45-.3 5.16-.3 6.03 0 11.84 1.14 17.21 3.29.12 2.17.17 4.35.17 6.54z"/><path style="fill:#723700" d="M390.57 136.96v31.82c-6.82 5.21-15.3 8.26-24.36 8.26-16.34 0-30.82-9.94-37-24.52-14.58-6.18-24.52-20.65-24.52-37 0-16.34 9.94-30.81 24.52-36.99 5.49-12.96 17.53-22.25 31.61-24.15 18.58 22.41 29.75 51.19 29.75 82.58z"/><path style="fill:#f9d1b7" d="M418.96 339.34v80.82c0 20.02-14.39 36.24-32.15 36.24H125.19c-17.76 0-32.15-16.22-32.15-36.24v-80.82c0-1.05.01-2.08.02-3.12.87-42.23 26.09-77.89 61.18-92.93a94.208 94.208 0 0 1 37.26-7.67h129c13.14 0 25.73 2.72 37.26 7.67 35.09 15.04 60.31 50.7 61.18 92.93.01 1.04.02 2.07.02 3.12z"/><path style="fill:#e2a67d" d="M269 280.85v108.23c0 8.4-4.63 16.04-12.08 19.92l-90.94 47.4h-40.79c-17.76 0-32.15-16.22-32.15-36.24v-31.61a47.12 47.12 0 0 1 7.83-4.41l95.07-42.29 20.81-68.73c2.68-8.85 9.61-15.59 18.54-18.02 2.3-.63 4.67-.95 7.04-.95 14.71 0 26.67 11.98 26.67 26.7z"/><path style="fill:#e2a67d" d="M418.96 388.55v31.61c0 20.02-14.39 36.24-32.15 36.24h-40.79L255.08 409A22.395 22.395 0 0 1 243 389.08V280.85c0-14.72 11.96-26.7 26.67-26.7 2.37 0 4.74.32 7.04.95 8.92 2.43 15.85 9.16 18.54 18.02l20.81 68.73 95.07 42.29a47.12 47.12 0 0 1 7.83 4.41z"/><path style="fill:#e2a67d" d="M357.76 243.29c-9.59 20.88-25.53 38.72-46.07 50.5-12.93 7.41-26.99 12.11-41.78 13.94-4.59.57-9.27.86-13.91.86-4.64 0-9.32-.29-13.91-.86a110.864 110.864 0 0 1-41.78-13.94c-20.54-11.78-36.48-29.62-46.07-50.5a94.208 94.208 0 0 1 37.26-7.67h129c13.14 0 25.73 2.72 37.26 7.67z"/><path style="fill:#e2a67d" d="M148.23 302.01h217.31V456.4H148.23z"/><path style="fill:#fe9700" d="M148.23 315.01h217.31V456.4H148.23z"/><path style="fill:#f26200" d="M365.54 363.86v92.54h-19.52L256 409.48l-90.02 46.92h-17.75v-93.33l47.71-21.22 8.13-26.84h103.86l8.13 26.84z"/><path style="fill:#f9d1b7" d="M406.37 173.3c0 18.33-14.85 33.18-33.18 33.18-2.13 0-4.22-.19-6.24-.58-15.34-2.92-26.93-16.4-26.93-32.6 0-1.91.16-3.78.48-5.6 2.33-13.76 13.13-24.62 26.85-27.06 1.89-.33 3.85-.51 5.84-.51 12 0 22.5 6.36 28.33 15.89a32.986 32.986 0 0 1 4.85 17.28z"/><path style="fill:#e2a67d" d="M401.52 156.02c-6.88 12.65-20.31 21.02-35.31 21.02-9.67 0-18.68-3.48-25.71-9.34 2.33-13.76 13.13-24.62 26.85-27.06 1.89-.33 3.85-.51 5.84-.51 12 0 22.5 6.36 28.33 15.89z"/><path style="fill:#e2a67d" d="M367.346 140.638v55.919c0 3.145-.133 6.262-.398 9.34-15.337-2.918-26.932-16.398-26.932-32.597 0-16.331 11.794-29.896 27.33-32.662z"/><path style="fill:#f9d1b7" d="M171.984 173.301c0 16.199-11.595 29.679-26.932 32.597a33.088 33.088 0 0 1-6.243.587c-18.33 0-33.184-14.854-33.184-33.184 0-18.321 14.854-33.174 33.184-33.174 1.989 0 3.95.18 5.845.511 15.536 2.766 27.33 16.331 27.33 32.663z"/><path style="fill:#e2a67d" d="M145.052 205.897a108.922 108.922 0 0 1-.398-9.34v-55.919c15.536 2.766 27.33 16.331 27.33 32.663 0 16.199-11.595 29.679-26.932 32.596z"/><path style="fill:#f9d1b7" d="M355.03 128.07v68.49c0 36.77-20.04 68.87-49.81 85.95-2 1.15-4.05 2.23-6.14 3.24-9.31 4.5-19.43 7.6-30.08 8.99l-.69.09a99.967 99.967 0 0 1-24.62 0l-.69-.09a98.158 98.158 0 0 1-30.07-8.99 99.978 99.978 0 0 1-6.15-3.24c-29.77-17.08-49.81-49.18-49.81-85.95v-68.49h198.06z"/><path style="fill:#e2a67d" d="M355.03 128.07v47.37c-11.54-3.36-21.1-11.78-25.82-22.92-10.69-4.53-18.89-13.53-22.5-24.45h48.32zM269 280.85v13.89l-.69.09a99.967 99.967 0 0 1-24.62 0l-.69-.09a98.158 98.158 0 0 1-30.07-8.99l3.82-12.63c2.68-8.85 9.61-15.59 18.54-18.02 2.3-.63 4.67-.95 7.04-.95 14.71 0 26.67 11.98 26.67 26.7z"/><path style="fill:#e2a67d" d="M299.08 285.75a98.378 98.378 0 0 1-30.77 9.08 99.967 99.967 0 0 1-24.62 0l-.69-.09v-13.89c0-14.72 11.96-26.7 26.67-26.7 2.37 0 4.74.32 7.04.95 8.92 2.43 15.85 9.16 18.54 18.02l3.83 12.63zM156.97 128.07h198.06v14.04H156.97z"/><path style="fill:#f9d1b7" d="M238.706 267.64a13.694 13.694 0 0 0-9.509 9.246l-21.696 71.66a6.48 6.48 0 0 1-2.825 3.653l-98.525 43.819c-17.859 7.943-25.412 29.233-16.551 46.655 8.605 16.918 29.36 23.565 46.192 14.793l115.12-59.995a9.46 9.46 0 0 0 5.088-8.389V280.855c0-9.029-8.583-15.587-17.294-13.215z"/><path style="fill:#f9d1b7" d="M422.4 442.67c-6.03 11.86-18.02 18.67-30.45 18.67-5.31 0-10.7-1.24-15.74-3.87L266.13 400.1v-.01l-5.04-2.62a9.453 9.453 0 0 1-5.09-8.39V280.85c0-6.26 4.14-11.34 9.58-13.06 2.4-.76 5.05-.87 7.71-.15a13.68 13.68 0 0 1 9.51 9.25l21.7 71.66a6.508 6.508 0 0 0 2.82 3.65l98.53 43.82c17.86 7.94 25.41 29.23 16.55 46.65z"/><path style="fill:#e2a67d" d="M269 280.85v108.23c0 3.94-1.02 7.71-2.87 11.01l-5.04-2.62a9.453 9.453 0 0 1-5.09-8.39V280.85c0-6.26 4.14-11.34 9.58-13.06 2.18 3.86 3.42 8.32 3.42 13.06z"/><path style="fill:#fe4080" d="M414.727 115.522c0-13.191-9.404-24.182-21.872-26.644-2.462-12.469-13.453-21.872-26.644-21.872-13.191 0-24.182 9.404-26.644 21.872-12.468 2.462-21.872 13.453-21.872 26.644s9.404 24.182 21.872 26.644c2.463 12.468 13.453 21.872 26.644 21.872 13.191 0 24.182-9.404 26.644-21.872 12.468-2.462 21.872-13.453 21.872-26.644z"/><circle style="fill:#f9d1b7" cx="366.21" cy="115.522" r="13.096"/><path d="M431.213 413.284a42.048 42.048 0 0 0-4.747-9.442v-47.754c0-4.143-3.357-7.5-7.5-7.5s-7.5 3.357-7.5 7.5v34.337a42.993 42.993 0 0 0-2.568-1.259l-35.861-15.95v-83.31c0-4.143-3.357-7.5-7.5-7.5s-7.5 3.357-7.5 7.5v17.601h-58.125l-3.716-12.272c22.956-9.354 41.468-26.264 53.042-47.213 31.891 11.172 55.625 40.126 61.034 75.036a7.501 7.501 0 0 0 8.559 6.263 7.5 7.5 0 0 0 6.263-8.56c-3.386-21.856-13.027-41.698-27.028-57.373v-57.926c9.608-7.448 15.81-19.089 15.81-32.158 0-10.111-3.687-19.662-10.292-27.056 11.196-5.854 18.644-17.585 18.644-30.727 0-14.881-9.542-27.968-23.273-32.743-3.826-11.003-12.995-19.301-24.141-22.171C349.275 22.641 306.861 0 261.109 0H250.89c-22.487 0-44.798 5.577-64.52 16.129a7.5 7.5 0 0 0 7.076 13.226C211 19.964 230.863 15 250.891 15h10.219c37.398 0 72.296 16.989 95.364 45.931-10.63 3.128-19.311 11.222-23.005 21.848-13.732 4.775-23.273 17.862-23.273 32.743 0 1.709.14 3.391.384 5.043H164.467V92.854c0-4.143-3.358-7.5-7.5-7.5s-7.5 3.357-7.5 7.5V134.044a40.773 40.773 0 0 0-10.661-1.419c-3.39 0-6.682.423-9.833 1.208.807-32.614 14.236-62.833 38.022-85.387a7.5 7.5 0 1 0-10.321-10.885c-27.562 26.134-42.741 61.433-42.741 99.396v4.191c-9.608 7.448-15.81 19.09-15.81 32.159s6.202 24.711 15.81 32.158v57.95c-13.772 15.421-23.339 34.869-26.864 56.278a7.5 7.5 0 0 0 14.801 2.438c5.676-34.473 29.342-63.047 60.891-74.107 11.574 20.949 30.085 37.858 53.043 47.213l-3.715 12.272h-56.363v-17.601c0-4.143-3.358-7.5-7.5-7.5s-7.5 3.357-7.5 7.5v82.526l-37.624 16.734c-.877.39-1.729.817-2.568 1.259V355.09c0-4.143-3.358-7.5-7.5-7.5s-7.5 3.357-7.5 7.5v48.753a42.051 42.051 0 0 0-4.748 9.442c-3.855 10.867-3.099 22.512 2.128 32.79 5.076 9.98 13.745 17.357 24.408 20.772a41.748 41.748 0 0 0 12.747 2.006c6.604 0 13.157-1.592 19.188-4.734l.474-.247c.199.016.398.03.601.03h230.999c.3 0 .594-.022.885-.057l.525.273c6.031 3.143 12.582 4.734 19.188 4.734 4.269 0 8.561-.665 12.747-2.006 10.663-3.415 19.332-10.792 24.409-20.773 5.228-10.277 5.983-21.923 2.128-32.789zm-73.177-90.776v44.038l-46.515-20.688-7.069-23.35h53.584zm25.029-73.04a104.525 104.525 0 0 0-27.501-15.115 106.23 106.23 0 0 0 5.796-22.144 40.742 40.742 0 0 0 11.833 1.777c3.404 0 6.71-.426 9.872-1.218v36.7zm-9.872-50.482c-3.698 0-7.334-.807-10.662-2.326l.002-.101v-25.241c1.213.13 2.435.22 3.677.22 11.065 0 21.131-5.281 27.532-13.632a25.549 25.549 0 0 1 5.133 15.399c0 14.161-11.521 25.681-25.682 25.681zM341.02 96.235a7.501 7.501 0 0 0 5.905-5.904c1.81-9.17 9.921-15.825 19.285-15.825s17.476 6.655 19.287 15.825a7.499 7.499 0 0 0 5.904 5.904c9.17 1.812 15.825 9.923 15.825 19.287s-6.655 17.476-15.825 19.285a7.501 7.501 0 0 0-5.904 5.905c-1.812 9.17-9.923 15.825-19.287 15.825s-17.476-6.655-19.285-15.825a7.503 7.503 0 0 0-5.905-5.905c-9.17-1.81-15.825-9.921-15.825-19.285s6.655-17.475 15.825-19.287zm-202.214 51.389c3.697 0 7.332.807 10.661 2.326v46.609l.002.108a25.757 25.757 0 0 1-10.663 2.319c-14.161 0-25.681-11.521-25.681-25.681s11.521-25.681 25.681-25.681zm-9.871 101.871v-36.726a40.63 40.63 0 0 0 9.872 1.217 40.8 40.8 0 0 0 11.833-1.774 106.158 106.158 0 0 0 5.795 22.138c-9.943 3.645-19.187 8.785-27.5 15.145zm35.532-52.935v-60.994h152.136c4.106 5.784 9.952 10.296 16.865 12.699 2.588 7.444 7.631 13.638 14.065 17.767v30.528c0 36.805-22.172 69.971-55.708 84.241l-1.844-6.089c-2.129-7.029-7.631-12.378-14.716-14.308-6.429-1.75-13.146-.437-18.438 3.607-.284.217-.557.442-.828.671-.27-.228-.544-.454-.828-.671-5.291-4.043-12.012-5.358-18.438-3.607-7.087 1.931-12.588 7.279-14.716 14.309l-1.843 6.087c-33.535-14.269-55.707-47.435-55.707-84.24zm-8.741 125.948h51.822l-7.069 23.35-44.752 19.904v-43.254zm-43.828 130.054c-6.821-2.185-12.366-6.904-15.613-13.288-3.344-6.574-3.828-14.023-1.361-20.975 2.466-6.95 7.535-12.43 14.274-15.427l98.525-43.82c.296-.132.583-.282.859-.451a13.96 13.96 0 0 0 6.096-7.881l21.696-71.661a6.163 6.163 0 0 1 4.302-4.182 6.154 6.154 0 0 1 5.389 1.054 6.149 6.149 0 0 1 2.434 4.923v108.229c0 .733-.404 1.398-1.054 1.737l-115.12 59.995c-6.35 3.311-13.604 3.931-20.427 1.747zm56.558-3.661 85.923-44.779a17.082 17.082 0 0 0 1.621-.973c.52.349 1.057.679 1.622.974l85.922 44.778H168.456zm247.259-9.628c-3.247 6.384-8.792 11.104-15.612 13.288-6.823 2.184-14.077 1.564-20.429-1.746l-115.119-59.994a1.956 1.956 0 0 1-1.055-1.738V280.854a6.15 6.15 0 0 1 2.435-4.923 6.145 6.145 0 0 1 5.388-1.054h.001a6.166 6.166 0 0 1 4.303 4.182l21.695 71.661a13.964 13.964 0 0 0 6.097 7.881c.276.169.563.319.859.451l98.524 43.82c6.739 2.997 11.809 8.476 14.274 15.427s1.983 14.4-1.361 20.974z"/><path d="M235.113 183.092a7.5 7.5 0 1 0-11.835-9.214c-3.1 3.98-7.872 6.264-13.093 6.264s-9.992-2.283-13.091-6.264a7.5 7.5 0 0 0-11.836 9.214c5.961 7.657 15.047 12.049 24.927 12.049 9.879 0 18.966-4.392 24.928-12.049zM301.813 195.141c.001 0 0 0 0 0 9.881 0 18.968-4.392 24.93-12.049a7.499 7.499 0 0 0-1.311-10.525 7.496 7.496 0 0 0-10.525 1.311c-3.1 3.98-7.872 6.264-13.093 6.264s-9.993-2.283-13.092-6.264a7.5 7.5 0 1 0-11.836 9.214c5.962 7.657 15.048 12.049 24.927 12.049zM224.431 209.947c0 17.407 14.162 31.569 31.569 31.569s31.569-14.162 31.569-31.569c0-4.143-3.357-7.5-7.5-7.5s-7.5 3.357-7.5 7.5c0 9.137-7.433 16.569-16.569 16.569s-16.569-7.433-16.569-16.569a7.5 7.5 0 0 0-15 0zM318.157 473.259H193.854c-4.142 0-7.5 3.357-7.5 7.5s3.358 7.5 7.5 7.5h124.304c4.143 0 7.5-3.357 7.5-7.5s-3.358-7.5-7.501-7.5zM274.487 497h-36.964c-4.142 0-7.5 3.357-7.5 7.5s3.358 7.5 7.5 7.5h36.964c4.143 0 7.5-3.357 7.5-7.5s-3.357-7.5-7.5-7.5zM366.21 136.118c11.356 0 20.596-9.239 20.596-20.596s-9.239-20.596-20.596-20.596-20.596 9.239-20.596 20.596 9.24 20.596 20.596 20.596zm0-26.191c3.086 0 5.596 2.51 5.596 5.596s-2.51 5.596-5.596 5.596-5.596-2.51-5.596-5.596 2.51-5.596 5.596-5.596z"/></svg>