<svg xmlns="http://www.w3.org/2000/svg" viewBox="0 0 511.998 511.998" style="enable-background:new 0 0 511.998 511.998" xml:space="preserve"><path style="fill:#d9b43a" d="m385.898 15.72-.005-.005c-2.73-2.73-7.054-2.915-10.07-.505-25.417 20.321-61.384 20.963-87.454 1.904-5.236-3.827-12.465-3.313-17.05 1.273L18.621 271.085c-4.538 4.538-5.179 11.737-1.379 16.908a71.574 71.574 0 0 1 9.461 17.559c8.729 23.58 4.715 50.808-12.041 71.033-2.466 2.976-2.325 7.318.409 10.052l.003.003c2.186 2.186 5.474 2.738 8.308 1.508 4.794-2.082 10.579-1.163 14.5 2.758 3.921 3.921 4.84 9.706 2.758 14.5-1.231 2.835-.678 6.123 1.508 8.308l.743.743c2.186 2.186 5.474 2.738 8.308 1.508 4.794-2.082 10.579-1.163 14.5 2.758s4.84 9.706 2.758 14.5c-1.231 2.835-.678 6.123 1.508 8.308l.743.743c2.186 2.186 5.474 2.738 8.308 1.508 4.794-2.082 10.579-1.163 14.5 2.758s4.84 9.706 2.758 14.5c-1.231 2.835-.678 6.123 1.508 8.308l.743.743c2.186 2.186 5.474 2.738 8.308 1.508 4.794-2.082 10.579-1.163 14.5 2.758s4.84 9.706 2.758 14.5c-1.231 2.835-.678 6.123 1.508 8.308 2.73 2.73 7.073 2.882 10.043.413 25.692-21.365 62.487-22.438 88.95-3.123 5.227 3.814 12.442 3.279 17.018-1.296l251.78-251.787c4.581-4.581 5.101-11.801 1.284-17.036-19.051-26.12-18.233-62.293 2.341-87.925 2.418-3.013 2.233-7.344-.498-10.076-2.213-2.213-5.539-2.76-8.415-1.528-4.782 2.048-10.536 1.121-14.439-2.782-3.904-3.904-4.832-9.657-2.782-14.439 1.233-2.877.686-6.202-1.528-8.415l-.65-.65c-2.213-2.213-5.539-2.76-8.415-1.528-4.782 2.048-10.536 1.121-14.439-2.782-3.904-3.904-4.832-9.657-2.782-14.439 1.233-2.877.686-6.202-1.528-8.415l-.65-.65c-2.213-2.213-5.539-2.76-8.415-1.528-4.782 2.048-10.536 1.121-14.439-2.782-3.904-3.904-4.832-9.657-2.782-14.439 1.233-2.877.686-6.202-1.528-8.415l-.65-.65c-2.213-2.213-5.539-2.76-8.415-1.528-4.782 2.048-10.536 1.121-14.439-2.782-3.904-3.904-4.832-9.657-2.782-14.439 1.22-2.885.673-6.211-1.541-8.424z"/><path style="fill:#bb9430" d="m80.269 209.437-61.647 61.647c-4.538 4.538-5.181 11.737-1.379 16.908a71.615 71.615 0 0 1 8.648 15.471l319.728 85.671 85.65-85.65-351-94.047z"/><path style="fill:#e2c35a" d="m80.269 209.437 350.997 94.049 62.118-62.118c4.581-4.581 5.101-11.801 1.284-17.036a70.947 70.947 0 0 1-8.216-14.658l-320.533-85.887-85.65 85.65z"/><path style="fill:#e2c35a" d="M278.89 66.448 66.771 278.567c-3.635 3.633-4.758 9.037-3.004 13.868 7.429 20.459 8.684 42.677 3.767 63.728a13.104 13.104 0 0 0 3.488 12.251l72.645 72.645a13.103 13.103 0 0 0 12.32 3.472c21.235-5.086 43.65-3.914 64.261 3.525 4.823 1.74 10.212.611 13.837-3.015L445.356 233.77c3.62-3.62 4.748-8.996 3.025-13.818-7.204-20.151-8.467-42.067-3.774-62.901.977-4.334-.408-8.861-3.548-12.003l-74.033-74.035c-3.123-3.123-7.618-4.509-11.932-3.564-20.691 4.537-42.458 3.177-62.489-4.053a13.099 13.099 0 0 0-13.715 3.052z"/><path style="fill:#d9b43a" d="m124.144 221.194-57.373 57.373c-3.633 3.633-4.758 9.037-3.004 13.868a111.651 111.651 0 0 1 5.616 22.684l232.36 62.261 85.65-85.65-263.249-70.536z"/><path style="fill:#ebd37a" d="m124.144 221.194 263.248 70.536 57.963-57.963c3.62-3.62 4.748-8.996 3.025-13.818a112.071 112.071 0 0 1-5.398-21.924l-233.187-62.483-85.651 85.652z"/><path style="fill:#644d2d" d="m139.871 321.365-27.815 27.815c-3.841 3.841-3.841 10.068 0 13.908 3.841 3.841 10.068 3.841 13.908 0l6.953-6.953 30.133 30.133c3.841 3.841 10.068 3.841 13.908 0 3.841-3.841 3.841-10.068 0-13.908l-30.133-30.133 6.953-6.953c3.841-3.841 3.841-10.068 0-13.908-3.841-3.841-10.068-3.841-13.907-.001zM348.949 112.286l-27.815 27.815c-3.841 3.841-3.841 10.068 0 13.908 3.841 3.841 10.068 3.841 13.908 0l6.953-6.953 30.133 30.133c3.841 3.841 10.068 3.841 13.908 0 3.841-3.841 3.841-10.068 0-13.908l-30.133-30.133 6.953-6.953c3.841-3.841 3.841-10.068 0-13.908-3.839-3.842-10.066-3.842-13.907-.001zM158.877 302.358c-3.841 3.841-3.841 10.068 0 13.908l37.087 37.087c3.841 3.841 10.068 3.841 13.908 0s3.841-10.068 0-13.908l-37.087-37.087c-3.84-3.841-10.067-3.841-13.908 0zM273.02 239.21v-27.253c0-5.431-4.403-9.834-9.834-9.834s-9.834 4.403-9.834 9.834v31.889l-11.027-11.027c-3.841-3.841-10.068-3.841-13.908 0-3.841 3.841-3.841 10.068 0 13.908l37.087 37.087c3.841 3.841 10.068 3.841 13.908 0 3.841-3.841 3.841-10.068 0-13.908l-6.391-6.391v-4.637h27.253c2.716 0 5.174-1.1 6.953-2.881a9.805 9.805 0 0 0 2.881-6.953c0-5.431-4.403-9.834-9.834-9.834H273.02zM210.799 278.405a16.178 16.178 0 0 1 11.513-4.769c5.431 0 9.834-4.403 9.834-9.834s-4.403-9.834-9.834-9.834c-19.823 0-35.949 16.127-35.95 35.95.001 19.822 16.128 35.949 35.95 35.95 9.912 0 18.899-4.032 25.409-10.541 6.509-6.509 10.541-15.497 10.541-25.408 0-5.431-4.403-9.834-9.834-9.834s-9.834 4.403-9.834 9.834c0 4.349-1.694 8.438-4.769 11.513a16.168 16.168 0 0 1-11.511 4.768c-8.978 0-16.282-7.305-16.283-16.282a16.17 16.17 0 0 1 4.768-11.513z"/><path style="fill:#644d2d" d="M288.682 172.552c-14.059 14.059-14.059 36.936 0 50.995 14.059 14.059 36.936 14.059 50.995 0a36.073 36.073 0 0 0 9.339-16.169c1.402-5.248-1.716-10.637-6.964-12.038-5.248-1.4-10.637 1.716-12.038 6.964a16.367 16.367 0 0 1-4.243 7.336c-3.784 3.784-8.971 5.328-13.902 4.63l27.81-27.81c3.841-3.841 3.841-10.068 0-13.908-14.061-14.059-36.938-14.059-50.997 0zm9.277 27.81c-.698-4.93.847-10.119 4.63-13.902 3.783-3.783 8.971-5.328 13.902-4.63l-18.532 18.532z"/><path style="fill:#9e7325" d="m111.61 274.403 8.76 4.672 6.955-6.955c2.398-2.398 6.519-.337 6.092 3.047l-1.286 10.18 9.101 4.854c3.089 1.648 2.303 6.258-1.143 6.694l-9.569 1.209-1.209 9.569c-.435 3.446-5.046 4.233-6.694 1.143l-4.854-9.101-10.18 1.286c-3.384.427-5.447-3.694-3.047-6.092l6.955-6.955-4.672-8.76c-1.665-3.119 1.67-6.454 4.791-4.791zM167.24 218.773l8.76 4.672 6.955-6.955c2.398-2.398 6.519-.337 6.092 3.047l-1.286 10.18 9.101 4.854c3.089 1.648 2.303 6.258-1.143 6.694l-9.569 1.209-1.209 9.569c-.435 3.446-5.046 4.233-6.694 1.143l-4.854-9.101-10.18 1.286c-3.384.427-5.447-3.694-3.047-6.092l6.955-6.955-4.672-8.76c-1.665-3.119 1.671-6.455 4.791-4.791zM222.872 163.143l8.76 4.672 6.955-6.955c2.398-2.398 6.519-.337 6.092 3.047l-1.286 10.18 9.101 4.854c3.089 1.648 2.303 6.258-1.143 6.694l-9.569 1.209-1.209 9.569c-.435 3.446-5.046 4.233-6.694 1.143l-4.854-9.101-10.18 1.286c-3.384.427-5.447-3.694-3.047-6.092l6.955-6.955-4.672-8.76c-1.666-3.121 1.669-6.456 4.791-4.791zM278.502 107.511l8.76 4.672 6.955-6.955c2.398-2.398 6.519-.337 6.092 3.047l-1.286 10.18 9.101 4.854c3.089 1.648 2.303 6.258-1.143 6.694l-9.569 1.209-1.209 9.569c-.435 3.446-5.046 4.233-6.694 1.143l-4.854-9.101-10.18 1.286c-3.384.427-5.447-3.694-3.047-6.092l6.955-6.955-4.672-8.76c-1.665-3.119 1.67-6.455 4.791-4.791zM213.6 376.394l8.76 4.672 6.955-6.955c2.398-2.398 6.519-.337 6.092 3.047l-1.286 10.18 9.101 4.854c3.089 1.648 2.303 6.259-1.143 6.694l-9.569 1.209-1.209 9.569c-.435 3.446-5.046 4.233-6.694 1.143l-4.854-9.101-10.18 1.286c-3.384.427-5.447-3.694-3.047-6.092l6.955-6.955-4.672-8.76c-1.667-3.12 1.669-6.455 4.791-4.791zM269.23 320.763l8.76 4.672 6.955-6.955c2.398-2.398 6.519-.337 6.092 3.047l-1.286 10.18 9.101 4.854c3.089 1.648 2.303 6.259-1.143 6.694l-9.569 1.209-1.209 9.569c-.435 3.446-5.046 4.233-6.694 1.143l-4.854-9.101-10.18 1.286c-3.384.427-5.447-3.694-3.047-6.092l6.955-6.955-4.672-8.76c-1.665-3.12 1.671-6.456 4.791-4.791zM324.861 265.132l8.76 4.672 6.955-6.955c2.398-2.398 6.519-.337 6.092 3.047l-1.286 10.18 9.101 4.854c3.089 1.648 2.303 6.258-1.143 6.694l-9.569 1.209-1.209 9.571c-.435 3.446-5.046 4.233-6.694 1.143l-4.854-9.101-10.18 1.286c-3.384.427-5.447-3.694-3.047-6.092l6.955-6.955-4.672-8.76c-1.666-3.121 1.67-6.457 4.791-4.793zM380.492 209.502l8.76 4.672 6.955-6.955c2.398-2.398 6.519-.337 6.092 3.047l-1.286 10.18 9.101 4.854c3.089 1.648 2.303 6.258-1.143 6.694l-9.569 1.209-1.209 9.571c-.435 3.446-5.046 4.233-6.694 1.143l-4.854-9.101-10.18 1.286c-3.384.427-5.447-3.694-3.047-6.092l6.955-6.955-4.672-8.76c-1.665-3.122 1.67-6.457 4.791-4.793z"/><path d="M508.888 225.866c-23.849-23.849-23.992-63.199-.32-87.719 3.727-3.859 3.671-9.992-.121-13.785l-9.295-9.294c-3.841-3.841-10.068-3.839-13.907 0a3.283 3.283 0 0 1-4.637 0 3.283 3.283 0 0 1 0-4.637c3.841-3.841 3.841-10.068 0-13.907l-9.272-9.272c-3.841-3.841-10.068-3.841-13.907 0a3.265 3.265 0 0 1-2.318.96 3.265 3.265 0 0 1-2.318-.96c-.835-.835-.96-1.811-.96-2.318s.125-1.482.96-2.318c3.841-3.841 3.841-10.068 0-13.907l-9.272-9.272a9.83 9.83 0 0 0-13.906 0 3.265 3.265 0 0 1-2.318.96 3.267 3.267 0 0 1-2.318-.96 3.256 3.256 0 0 1-.96-2.318c0-.507.125-1.483.96-2.318 3.841-3.841 3.841-10.068 0-13.907l-9.272-9.272c-3.841-3.841-10.068-3.841-13.907 0-1.278 1.278-3.359 1.278-4.637 0s-1.278-3.358 0-4.637a9.832 9.832 0 0 0 0-13.907l-9.295-9.295c-3.791-3.792-9.922-3.847-13.782-.123-24.267 23.416-63.41 23.066-87.257-.78-3.841-3.841-10.068-3.841-13.907 0L3.111 272.688c-3.841 3.841-3.841 10.068 0 13.907 24.284 24.285 24.284 63.798 0 88.082a9.831 9.831 0 0 0 0 13.908l9.272 9.272c3.841 3.841 10.068 3.839 13.907 0a3.265 3.265 0 0 1 2.318-.96c.507 0 1.483.125 2.318.96s.96 1.811.96 2.318-.125 1.483-.96 2.318c-3.841 3.841-3.841 10.068 0 13.907l9.272 9.272c3.841 3.841 10.068 3.841 13.907 0 .835-.835 1.811-.96 2.318-.96s1.483.125 2.318.96.96 1.811.96 2.318-.125 1.483-.96 2.318c-3.841 3.841-3.841 10.068 0 13.907l9.272 9.272c3.841 3.841 10.068 3.841 13.907 0a3.284 3.284 0 0 1 4.637 0 3.283 3.283 0 0 1 0 4.637c-3.841 3.841-3.841 10.068 0 13.907l9.272 9.272c3.841 3.841 10.068 3.841 13.907 0a3.265 3.265 0 0 1 2.318-.96c.507 0 1.483.125 2.318.96a3.283 3.283 0 0 1 0 4.637 9.832 9.832 0 0 0 0 13.907l9.272 9.272a9.833 9.833 0 0 0 13.908 0c11.899-11.899 27.672-18.495 44.414-18.571 16.738-.108 32.381 6.354 44.132 18.107a9.83 9.83 0 0 0 13.906 0l268.884-268.881c3.84-3.842 3.84-10.069 0-13.908zm-276.25 262.34c-14.299-11.241-31.85-17.328-50.377-17.328h-.383c-17.022.077-33.275 5.286-46.985 14.886.611-6.568-1.592-13.351-6.611-18.37-5.891-5.891-14.211-7.901-21.768-6.037.445-1.795.673-3.656.673-5.552 0-6.13-2.386-11.892-6.72-16.226-4.334-4.335-10.096-6.72-16.226-6.72-1.897 0-3.758.228-5.553.673 1.867-7.553-.146-15.876-6.037-21.768-5.895-5.895-14.228-7.905-21.782-6.033 1.874-7.557-.138-15.888-6.033-21.783-4.334-4.335-10.096-6.72-16.226-6.72a23.5 23.5 0 0 0-2.179.101c20.32-29.285 19.366-68.968-2.872-97.274l256.73-256.726c14.185 11.165 31.572 17.299 49.886 17.449 16.845.146 32.87-4.758 46.496-13.98a23.418 23.418 0 0 0-.135 2.507 22.797 22.797 0 0 0 6.72 16.226c5.891 5.891 14.214 7.904 21.768 6.037a23.111 23.111 0 0 0-.673 5.553 22.798 22.798 0 0 0 6.721 16.225 22.791 22.791 0 0 0 16.225 6.721 23.1 23.1 0 0 0 5.539-.669 23.084 23.084 0 0 0-.669 5.537c0 6.13 2.386 11.892 6.72 16.226 4.334 4.335 10.096 6.72 16.226 6.72 1.896 0 3.758-.228 5.552-.673-1.866 7.553.146 15.876 6.037 21.768 5.105 5.103 12.032 7.293 18.71 6.576-9.346 13.726-14.349 29.916-14.288 46.787.066 18.407 6.155 35.856 17.319 50.067l-255.805 255.8z"/><path d="M444.51 220.705 225.646 439.567c-23.482-8.974-49.226-10.432-73.728-4.164l-75.236-75.234c6.074-24.302 4.516-49.848-4.445-73.161L287.319 71.926c22.738 8.658 47.693 10.326 71.479 4.769l76.586 76.59c-4.067 17.018-4.477 34.905-1.156 52.093 1.031 5.333 6.184 8.818 11.52 7.79 5.333-1.031 8.821-6.188 7.79-11.52-3.104-16.068-2.329-32.863 2.241-48.571a9.834 9.834 0 0 0-2.489-9.7l-84.559-84.563a9.828 9.828 0 0 0-9.647-2.504c-23.232 6.615-48.118 4.854-70.068-4.955a9.827 9.827 0 0 0-10.966 2.025L53.673 277.756a9.835 9.835 0 0 0-2.011 10.996C61.783 311.2 63.42 336.584 56.27 360.23a9.831 9.831 0 0 0 2.459 9.8l.008.008.004.004 83.343 83.343a9.835 9.835 0 0 0 9.853 2.444c23.834-7.353 49.401-5.819 71.992 4.314a9.832 9.832 0 0 0 10.978-2.02l223.514-223.512c3.841-3.841 3.841-10.068 0-13.907-3.843-3.84-10.07-3.84-13.911.001z"/></svg>