<svg xmlns="http://www.w3.org/2000/svg" viewBox="0 0 480.008 480.008" style="enable-background:new 0 0 480.008 480.008" xml:space="preserve"><path style="fill:#ffe4b6" d="M423.12 372.004c-19.36 0-35.112 16.152-35.112 36 0 15.44 12.24 28 27.288 28 11.6 0 21.032-9.688 21.032-21.6 0-9.088-7.184-16.48-16.024-16.48v-8c13.248 0 24.024 10.976 24.024 24.48 0 16.32-13.024 29.6-29.032 29.6-19.456 0-35.288-16.152-35.288-36v-356H14.48l21.104 42.208c.528 1.056.56 2.28.096 3.368l-23.32 54.424 23.328 54.424a4.014 4.014 0 0 1 0 3.16L12.36 264.004l23.328 54.424a4.014 4.014 0 0 1 0 3.16L12.36 376.004l23.328 54.424a3.995 3.995 0 0 1-.248 3.632l-20.368 33.944h408.936c24.264 0 44-19.744 44-44v-6c0-25.368-20.136-46-44.888-46zM60.216 150.74l24-72c1.088-3.264 6.496-3.264 7.584 0l24 72a4.01 4.01 0 0 1-.544 3.6 3.992 3.992 0 0 1-3.248 1.664h-20v28h-8v-28h-20a3.992 3.992 0 0 1-3.248-1.664 3.986 3.986 0 0 1-.544-3.6zm54.624 286.432-5.656 5.656-21.176-21.168-21.168 21.168-5.656-5.656 21.168-21.168-21.168-21.168 5.656-5.656 21.168 21.168 21.168-21.168 5.656 5.656-21.168 21.168 21.176 21.168zm1.168-101.168h-8v-28h-20a3.992 3.992 0 0 1-3.248-1.664 3.962 3.962 0 0 1-.544-3.6l24-72c1.088-3.264 6.496-3.264 7.584 0l20.208 60.616 20.208-60.624c1.088-3.264 6.496-3.264 7.584 0l24 72a4.01 4.01 0 0 1-.544 3.6 3.978 3.978 0 0 1-3.248 1.672h-20v28h-8v-28h-40v28zm239.768 46.656a4.03 4.03 0 0 1-.496 3.648 4.002 4.002 0 0 1-3.272 1.696h-28v28h-8v-28h-28a4.002 4.002 0 0 1-3.272-1.696 4.006 4.006 0 0 1-.496-3.648l12.328-34.656h-8.56c-1.384 0-2.672-.72-3.4-1.896s-.8-2.648-.176-3.888l32-64c1.36-2.704 5.8-2.704 7.16 0l32 64c.624 1.24.552 2.712-.176 3.888s-2.024 1.896-3.408 1.896h-8.552l12.32 34.656zm-.936-225.488a4.003 4.003 0 0 1 0 5.656l-24 24c-.784.784-1.808 1.176-2.832 1.176s-2.048-.392-2.832-1.168l-21.168-21.176-21.168 21.168a4.003 4.003 0 0 1-5.656 0l-24-24a4.003 4.003 0 0 1 0-5.656l21.168-21.168-21.168-21.168a4.003 4.003 0 0 1 0-5.656l24-24a4.003 4.003 0 0 1 5.656 0l21.168 21.168 21.168-21.168a4.003 4.003 0 0 1 5.656 0l24 24a4.003 4.003 0 0 1 0 5.656l-21.168 21.168 21.176 21.168z"/><path style="fill:#ffe4b6" d="M428.008 12.004c-22.056 0-40 17.944-40 40v330.56c7.824-11.208 20.632-18.56 35.112-18.56 18.944 0 35.552 10.256 44.888 25.584V52.004c0-22.056-17.944-40-40-40z"/><path style="fill:#ff8242" d="M306.84 114.836a4.003 4.003 0 0 1-5.656 0L280.008 93.66l-18.344 18.344 21.168 21.168a4.003 4.003 0 0 1 0 5.656l-21.168 21.176 18.344 18.344 21.168-21.168c.784-.784 1.808-1.176 2.832-1.176s2.048.392 2.832 1.168l21.168 21.176 18.344-18.344-21.168-21.168a4.003 4.003 0 0 1 0-5.656l21.168-21.176-18.344-18.344-21.168 21.176z"/><path style="fill:#00d3e1" d="M294.48 340.004h7.752c1.304 0 2.52.632 3.272 1.696a4.006 4.006 0 0 1 .496 3.648l-12.328 34.656h52.664l-12.328-34.656a4.03 4.03 0 0 1 .496-3.648 4.002 4.002 0 0 1 3.272-1.696h7.752l-25.52-51.056-25.528 51.056z"/><path style="fill:#ffc34c" d="M88.008 92.652 69.56 148.004h36.896zM93.56 300.004h36.896l-18.448-55.352zM160.008 244.652l-18.448 55.352h36.896z"/><path style="fill:#120536" d="M428.008.004c-24.536 0-45.104 17.104-50.544 40H8.008c-2.776 0-5.344 1.44-6.808 3.8S-.384 49.108.848 51.58l22.336 44.68L.648 148.852a7.97 7.97 0 0 0 0 6.296l22.656 52.856L.656 260.852a7.97 7.97 0 0 0 0 6.296l22.648 52.856L.656 372.852a7.97 7.97 0 0 0 0 6.296l22.384 52.24-21.896 36.496a8.009 8.009 0 0 0-.104 8.064 8.007 8.007 0 0 0 6.968 4.056h416c30.88 0 56-25.128 56-56v-372c0-28.672-23.328-52-52-52zm-4 464H22.136l16.728-27.88a8.01 8.01 0 0 0 .496-7.264l-22.648-52.856 22.648-52.848a7.97 7.97 0 0 0 0-6.296l-22.648-52.856 22.648-52.848a7.97 7.97 0 0 0 0-6.296l-22.648-52.856L39.36 99.156a8.01 8.01 0 0 0-.192-6.728L20.952 56.004h355.056v352c0 22.056 17.624 40 39.288 40 18.216 0 33.032-15.072 33.032-33.6 0-15.704-12.568-28.48-28.024-28.48v16c6.632 0 12.024 5.592 12.024 12.48 0 9.704-7.64 17.6-17.032 17.6-12.84 0-23.288-10.768-23.288-24 0-17.648 13.96-32 31.112-32 22.544 0 40.888 18.84 40.888 42v6c0 22.056-17.944 40-40 40zm-.888-104c-11.928 0-22.8 4.576-31.112 12.048V52.004c0-19.848 16.152-36 36-36s36 16.152 36 36v325.768c-10.352-10.936-24.84-17.768-40.888-17.768z"/><path style="fill:#120536" d="M358.816 348.204a8.005 8.005 0 0 0 .352-7.784l-32-64c-2.712-5.424-11.6-5.424-14.312 0l-32 64c-1.24 2.48-1.104 5.424.352 7.784s4.024 3.8 6.8 3.8h2.888l-10.424 29.32a7.994 7.994 0 0 0 1 7.288 7.99 7.99 0 0 0 6.536 3.392h24v24h16v-24h24a7.99 7.99 0 0 0 6.536-3.392 7.97 7.97 0 0 0 1-7.288l-10.424-29.32h2.888a8.01 8.01 0 0 0 6.808-3.8zm-59.472 27.8 10.424-29.32a8 8 0 0 0-7.536-10.68h-1.28l19.056-38.112 19.056 38.112h-1.28a8 8 0 0 0-6.536 3.392 7.97 7.97 0 0 0-1 7.288l10.424 29.32h-41.328zM168.008 336.004v-24h16c2.568 0 4.984-1.232 6.488-3.32s1.912-4.776 1.104-7.208l-24-72a8 8 0 0 0-7.592-5.472 8 8 0 0 0-7.592 5.472L136.008 278.7 119.6 229.468a8.004 8.004 0 0 0-15.184.008l-24 72c-.816 2.44-.4 5.128 1.104 7.208s3.92 3.32 6.488 3.32h16v24h16v-24h32v24h16zm-68.904-40 12.904-38.704 12.904 38.704H99.104zm60.904-38.704 12.904 38.704h-25.808l12.904-38.704zM64.008 160.004h16v24h16v-24h16c2.568 0 4.984-1.232 6.488-3.32s1.912-4.776 1.104-7.208l-24-72a8 8 0 0 0-7.592-5.472 8 8 0 0 0-7.592 5.472l-24 72c-.816 2.44-.4 5.128 1.104 7.208s3.92 3.32 6.488 3.32zm24-54.704 12.904 38.704H75.104L88.008 105.3zM357.664 106.348l-24-24a7.991 7.991 0 0 0-11.312 0l-18.344 18.344-18.344-18.344a7.991 7.991 0 0 0-11.312 0l-24 24a7.991 7.991 0 0 0 0 11.312l18.344 18.344-18.344 18.344a7.991 7.991 0 0 0 0 11.312l24 24a7.991 7.991 0 0 0 11.312 0l18.344-18.344 18.344 18.344c1.56 1.56 3.608 2.344 5.656 2.344s4.096-.784 5.656-2.344l24-24a7.991 7.991 0 0 0 0-11.312l-18.344-18.344 18.344-18.344a7.991 7.991 0 0 0 0-11.312zm-35.312 24a7.991 7.991 0 0 0 0 11.312l18.344 18.344-12.688 12.688-18.344-18.344c-1.56-1.56-3.608-2.344-5.656-2.344s-4.096.784-5.656 2.344l-18.344 18.344-12.688-12.688 18.344-18.344a7.991 7.991 0 0 0 0-11.312l-18.344-18.344 12.688-12.688 18.344 18.344a7.991 7.991 0 0 0 11.312 0l18.344-18.344 12.688 12.688-18.344 18.344zM106.352 386.348l-18.344 18.344-18.344-18.344-11.312 11.312 18.344 18.344-18.344 18.344 11.312 11.312 18.344-18.344 18.344 18.344 11.312-11.312-18.344-18.344 18.344-18.344zM178.624 145.564l-8.552-13.512c-5.328 3.368-10.112 7.744-13.84 12.664l12.744 9.672c2.576-3.408 5.92-6.464 9.648-8.824zM201.624 373.212l10.232 12.296a149.63 149.63 0 0 0 12.376-11.536l-11.576-11.048c-3.384 3.56-7.104 7.016-11.032 10.288zM205.992 138.1l-2.12-15.856c-6.248.832-11.824 1.84-16.576 2.992l3.76 15.544c4.216-1.016 9.248-1.928 14.936-2.68zM149.04 182.156l15.2-4.984a22.856 22.856 0 0 1-1.032-4.832 22.457 22.457 0 0 1-.104-2.072c0-1.544.168-3.12.504-4.664l-15.632-3.408a37.73 37.73 0 0 0-.872 8.072c0 1.232.056 2.464.184 3.688.28 2.752.872 5.512 1.752 8.2zM176.408 390.052l7.512 14.128a170.61 170.61 0 0 0 14.424-8.6l-8.864-13.312a160.859 160.859 0 0 1-13.072 7.784zM222.312 351.484l12.88 9.488a121.349 121.349 0 0 0 9.168-14.448l-14.088-7.576a106.954 106.954 0 0 1-7.96 12.536zM224.872 242.204l12.232-10.312c-1.88-2.232-3.896-4.36-6.056-6.384s-4.568-3.976-7.168-5.816l-9.24 13.064c2.024 1.44 3.824 2.88 5.472 4.432a62.357 62.357 0 0 1 4.76 5.016zM201.88 225.356l7.128-14.328c-2.896-1.44-5.832-2.816-8.776-4.184l-5.776-2.728-6.936 14.424 5.936 2.8c2.824 1.312 5.648 2.632 8.424 4.016zM241 281.796c.456 3.768.68 7.648.68 11.56 0 1.072-.016 2.128-.048 3.176l15.992.544a98.29 98.29 0 0 0 .056-3.752c0-4.52-.272-9.056-.8-13.464L241 281.796zM236.864 135.948l-.344-16c-4.808 0-10.416.216-16.224.632l1.136 15.952c5.432-.376 10.656-.584 15.432-.584zM239.408 314.492a92.695 92.695 0 0 1-3.144 10.976l15.08 5.344a106.45 106.45 0 0 0 3.688-12.88c.272-1.248.528-2.512.76-3.776l-15.736-2.888c-.2 1.08-.416 2.16-.648 3.224zM238.072 267.436l15.352-4.512c-1.688-5.752-3.88-11.216-6.496-16.264l-14.2 7.376c2.144 4.128 3.944 8.64 5.344 13.4zM158.872 198.652c3.736 4.152 8.344 8.056 13.688 11.608l8.864-13.312c-4.232-2.824-7.824-5.848-10.672-9.016l-11.88 10.72zM148.312 401.684l4.672 15.296a172.242 172.242 0 0 0 15.776-5.664l-6.136-14.784a156.383 156.383 0 0 1-14.312 5.152zM118.592 407.588l1.432 15.936a159.384 159.384 0 0 0 16.68-2.424l-3.128-15.688c-5.056 1.008-10.096 1.744-14.984 2.176z"/></svg>