<svg xmlns="http://www.w3.org/2000/svg" width="512" height="512" viewBox="0 0 512.002 512.002" style="enable-background:new 0 0 512 512" xml:space="preserve"><g xmlns="http://www.w3.org/2000/svg"><path d="M84.793 146.97h-17.75l-1.091 1.168v10.455c0 9.342-5.51 14.659-13.814 18.941-11.398 5.877-14.823 39.222 6.607 50.1l6.089.92 42.625-16.5v-24.167z" fill="#9f7545" data-original="#365e7d"/><path d="M81.639 177.534c6.338-3.268 11.038-7.146 12.913-12.948l-9.759-17.616h-17.75l-1.091 1.168v10.455c0 9.342-5.51 14.659-13.814 18.941-11.398 5.877-14.823 39.222 6.607 50.1l6.089.92 16.213-6.276c-13.181-13.832-9.306-39.641.592-44.744z" fill="#8a653c" data-original="#2b4d66"/><path d="M211.637 177.534c-8.326-4.293-13.811-9.613-13.811-18.938v-10.623l-1.741-1.646h-18.619l-21.381 43.225v21.875l44 17.125 4.093-1.24c20.985-11.168 18.746-43.958 7.459-49.778z" fill="#9f7545" data-original="#365e7d"/><path d="m229.838 237.251-52.372-20.283-4.673 2.071H91.96l-5.775-2.044a972229.99 972229.99 0 0 0-52.247 20.256c-11.244 4.627-26.301 19.188-26.301 40.794v48.675h40.522v47.253h167.457V326.72h40.522v-48.675c0-18.607-11.913-34.873-26.3-40.794z" fill="#7fb5fb" data-original="#ffafe2"/><path d="M41.691 260.386c0-15.148 8.024-25.656 16.474-32.528a637374.07 637374.07 0 0 1-24.227 9.392c-11.244 4.627-26.301 19.188-26.301 40.794v48.675h34.054v-66.333z" fill="#61a1f9" data-original="#ff94d5"/><path d="m197.741 117.499-1.469-1.477h-17.531v30.719l.968 2h13.232c8.83 0 15.988-7.158 15.988-15.988 0-7.158-4.704-13.215-11.188-15.254zM65.952 117.35l.002.015c-6.74 1.879-11.692 8.048-11.692 15.387 0 8.83 7.158 15.988 15.988 15.988h13.815l1.518-1.77v-31.042h-18.5z" fill="#ffcebe" data-original="#ffcebe"/><g fill="#ffb1a0"><path d="M194.402 116.022h-15.661v30.719l.968 2h13.232c.493 0 .979-.03 1.461-.074zM69.924 132.752c0-7.339 4.952-13.508 11.692-15.387l-.002-.015 1.133-1.421H67.085l-1.133 1.421.002.015c-6.74 1.879-11.692 8.048-11.692 15.387 0 8.83 7.158 15.988 15.988 15.988h13.815l.087-.102c-8-.876-14.228-7.651-14.228-15.886zM48.159 325.72H7.637v39.489a8.764 8.764 0 0 0 8.764 8.764h31.758V325.72z" data-original="#ffb1a0"/></g><path d="M215.616 325.72v48.253h31.758a8.764 8.764 0 0 0 8.764-8.764V325.72zM161.886 210.934a4.863 4.863 0 0 1-3.108-4.523l-.013-16.292-2.138-2.234H107.46l-2.491 2.33v16.167c0 3.721-3.319 4.618-4.735 5.167l-14.049 5.447c5.733 18.521 22.75 33.119 46.193 33.198 21.036.071 38.975-14.062 45.088-33.225l-15.58-6.035z" fill="#ffcebe" data-original="#ffcebe"/><path d="M131.889 187.886H107.46l-2.491 2.33v16.167c0 3.721-3.319 4.618-4.735 5.167l-14.049 5.447c5.693 18.391 22.515 32.907 45.704 33.187z" fill="#ffb1a0" data-original="#ffb1a0"/><path d="M223.116 373.973v-91.276a7.5 7.5 0 0 0-15 0v91.276z" fill="#ff636e" data-original="#ff636e"/><path d="M174.793 112.72h-21l-16.5-20.5h-9.833l-15.295 16.57v42.271c0 19.966 12.274 38.574 32.131 45.678 20.311-5.347 35.413-24.163 35.413-46.082v-33.894z" fill="#ffdecf" data-original="#ffdecf"/><path d="M113.287 151.121v-43.548l-5.827 6.313H86.185l-2.118 2.877v34.358c0 24.575 19.211 47.042 48.312 47.139 4.957.017 9.74-.76 14.24-2.2-20.53-6.232-33.332-24.88-33.332-44.939z" fill="#ffcebe" data-original="#ffcebe"/><path d="M131.019 30.588C94.782 31.054 65.952 61.26 65.952 97.5v19.865a15.965 15.965 0 0 1 4.299-.602H96.57c1.631 0 10.803-.747 10.129-.695 11.607-.889 21.643-9.656 24.409-21.05.089-.364.407-.623.782-.623s.694.26.782.623c2.764 11.367 12.709 20.033 24.144 21.003 8.306.704 8.418.743 9.917.743h26.21c1.705 0 3.344.272 4.885.766V96.519c-.002-36.705-29.992-66.405-66.809-65.931z" fill="#9f7545" data-original="#365e7d"/><path d="M95.452 97.5c0-31.483 21.763-58.4 51.233-65.232a66.162 66.162 0 0 0-15.667-1.68C94.783 31.054 65.952 61.26 65.952 97.5v19.865a15.965 15.965 0 0 1 4.299-.602h25.201z" fill="#8a653c" data-original="#2b4d66"/><path d="M333.294 146.97h-17.75l-1.091 1.168v10.455c0 9.342-5.51 14.659-13.814 18.941-11.398 5.877-14.823 39.222 6.607 50.1l6.089.92 42.625-16.5v-24.167z" fill="#9f7545" data-original="#365e7d"/><path d="M330.14 177.534c6.338-3.268 11.038-7.146 12.913-12.948l-9.759-17.616h-17.75l-1.091 1.168v10.455c0 9.342-5.51 14.659-13.814 18.941-11.398 5.877-14.823 39.222 6.607 50.1l6.089.92 16.213-6.276c-13.181-13.832-9.306-39.641.592-44.744z" fill="#8a653c" data-original="#2b4d66"/><path d="M460.138 177.534c-8.326-4.293-13.811-9.613-13.811-18.938v-10.623l-1.741-1.646h-18.619l-21.381 43.225v21.875l44 17.125 4.093-1.24c20.985-11.168 18.746-43.958 7.459-49.778z" fill="#9f7545" data-original="#365e7d"/><path d="m478.339 237.251-52.372-20.283-4.673 2.071h-80.833l-5.775-2.044a972229.99 972229.99 0 0 0-52.247 20.256c-11.244 4.627-26.301 19.188-26.301 40.794v48.675h40.522v47.253h167.457V326.72h40.522v-48.675c0-18.607-11.913-34.873-26.3-40.794z" fill="#b3e59f" data-original="#ffd064"/><path d="m446.242 117.499-1.469-1.477h-17.531v30.719l.968 2h13.232c8.83 0 15.988-7.158 15.988-15.988 0-7.158-4.704-13.215-11.188-15.254zM314.453 117.35l.002.015c-6.74 1.879-11.692 8.048-11.692 15.387 0 8.83 7.158 15.988 15.988 15.988h13.815l1.518-1.77v-31.042h-18.5z" fill="#ffcebe" data-original="#ffcebe"/><path d="M442.903 116.022h-15.661v30.719l.968 2h13.232c.493 0 .979-.03 1.461-.074zM318.425 132.752c0-7.339 4.952-13.508 11.692-15.387l-.002-.015 1.133-1.421h-15.661l-1.133 1.421.002.015c-6.74 1.879-11.692 8.048-11.692 15.387 0 8.83 7.158 15.988 15.988 15.988h13.815l.087-.102c-8.001-.876-14.229-7.651-14.229-15.886z" fill="#ffb1a0" data-original="#ffb1a0"/><path d="M464.117 325.72v48.253h31.758a8.764 8.764 0 0 0 8.764-8.764V325.72zM410.387 210.934a4.863 4.863 0 0 1-3.108-4.523l-.013-16.292-2.138-2.234h-49.167l-2.491 2.33v16.167c0 3.721-3.319 4.618-4.735 5.167l-14.049 5.447c5.733 18.521 22.75 33.119 46.193 33.198 21.036.071 38.975-14.062 45.088-33.225l-15.58-6.035z" fill="#ffcebe" data-original="#ffcebe"/><path d="M380.39 187.886h-24.429l-2.491 2.33v16.167c0 3.721-3.319 4.618-4.735 5.167l-14.049 5.447c5.693 18.391 22.515 32.907 45.704 33.187z" fill="#ffb1a0" data-original="#ffb1a0"/><path d="M423.294 112.72h-21l-16.5-20.5h-9.833l-15.295 16.57v42.271c0 19.966 12.274 38.574 32.131 45.678 20.311-5.347 35.413-24.163 35.413-46.082v-33.894z" fill="#ffdecf" data-original="#ffdecf"/><path d="M361.788 151.121v-43.548l-5.827 6.313h-21.275l-2.118 2.877v34.358c0 24.575 19.211 47.042 48.312 47.139 4.957.017 9.74-.76 14.24-2.2-20.53-6.232-33.332-24.88-33.332-44.939z" fill="#ffcebe" data-original="#ffcebe"/><path d="M379.52 30.588c-36.237.466-65.067 30.672-65.067 66.912v19.865a15.965 15.965 0 0 1 4.299-.602H345.07c1.631 0 10.803-.747 10.129-.695 11.607-.889 21.643-9.656 24.409-21.05.089-.364.407-.623.782-.623s.694.26.782.623c2.764 11.367 12.709 20.033 24.144 21.003 8.306.704 8.418.743 9.917.743h26.21c1.705 0 3.344.272 4.885.766V96.519c-.001-36.705-29.991-66.405-66.808-65.931z" fill="#9f7545" data-original="#365e7d"/><path d="M343.953 97.5c0-31.483 21.763-58.4 51.233-65.232a66.162 66.162 0 0 0-15.667-1.68c-36.237.466-65.067 30.672-65.067 66.912v19.865a15.965 15.965 0 0 1 4.299-.602h25.201V97.5z" fill="#8a653c" data-original="#2b4d66"/><path d="M209.044 255.637h-17.75l-1.091 1.168v10.455c0 9.342-5.51 14.659-13.814 18.941-11.398 5.877-14.823 39.222 6.607 50.1l6.089.92 42.625-16.5v-24.167z" fill="#9f7545" data-original="#365e7d"/><path d="M205.889 286.201c6.338-3.268 11.038-7.146 12.913-12.948l-9.759-17.616h-17.75l-1.091 1.168v10.455c0 9.342-5.51 14.659-13.814 18.941-11.398 5.877-14.823 39.222 6.607 50.1l6.089.92 16.213-6.276c-13.18-13.832-9.305-39.641.592-44.744z" fill="#8a653c" data-original="#2b4d66"/><path d="M335.887 286.201c-8.326-4.293-13.811-9.613-13.811-18.938V256.64l-1.741-1.646h-18.619l-21.381 43.225v21.875l44 17.125 4.093-1.24c20.986-11.168 18.747-43.958 7.459-49.778z" fill="#9f7545" data-original="#365e7d"/><path d="m354.089 345.918-52.372-20.283-4.673 2.071h-80.833l-5.775-2.044a972229.99 972229.99 0 0 0-52.247 20.256c-11.244 4.627-26.301 19.188-26.301 40.794v48.675h40.522v47.253h167.457v-47.253h40.522v-48.675c0-18.607-11.913-34.873-26.3-40.794z" fill="#ff7f87" data-original="#ff7f87"/><path d="M165.941 369.053c0-15.148 8.024-25.656 16.474-32.528a637374.07 637374.07 0 0 1-24.227 9.392c-11.244 4.627-26.301 19.188-26.301 40.794v48.675h34.054v-66.333z" fill="#ff636e" data-original="#ff636e"/><path d="m321.992 226.166-1.469-1.477h-17.531v30.719l.968 1.999h13.232c8.83 0 15.988-7.158 15.988-15.988 0-7.157-4.704-13.214-11.188-15.253zM190.203 226.017l.002.015c-6.74 1.879-11.692 8.048-11.692 15.387 0 8.83 7.158 15.988 15.988 15.988h13.815l1.518-1.77v-31.042h-18.5z" fill="#ffcebe" data-original="#ffcebe"/><path d="M318.653 224.689h-15.661v30.719l.968 1.999h13.232c.493 0 .979-.03 1.461-.074zM194.175 241.419c0-7.339 4.952-13.508 11.692-15.387l-.002-.015 1.133-1.421h-15.661l-1.133 1.421.002.015c-6.74 1.879-11.692 8.048-11.692 15.387 0 8.83 7.158 15.988 15.988 15.988h13.815l.087-.102c-8.002-.876-14.229-7.651-14.229-15.886zM172.41 434.387h-40.522v39.489a8.764 8.764 0 0 0 8.764 8.764h31.758v-48.253z" fill="#ffb1a0" data-original="#ffb1a0"/><path d="M339.867 434.387v48.253h31.758a8.764 8.764 0 0 0 8.764-8.764v-39.489zM286.136 319.601a4.863 4.863 0 0 1-3.108-4.523l-.013-16.292-2.138-2.234H231.71l-2.491 2.33v16.167c0 3.721-3.319 4.618-4.735 5.167l-14.049 5.447c5.733 18.521 22.75 33.119 46.193 33.198 21.036.071 38.975-14.062 45.088-33.225l-15.58-6.035z" fill="#ffcebe" data-original="#ffcebe"/><path d="M256.14 296.553h-24.429l-2.491 2.33v16.167c0 3.721-3.319 4.618-4.735 5.167l-14.049 5.447c5.693 18.391 22.515 32.907 45.704 33.187z" fill="#ffb1a0" data-original="#ffb1a0"/><path d="M299.044 221.387h-21l-16.5-20.5h-9.833l-15.295 16.57v42.271c0 19.966 12.274 38.574 32.131 45.678 20.311-5.347 35.413-24.163 35.413-46.082V225.43z" fill="#ffdecf" data-original="#ffdecf"/><path d="M237.538 259.788V216.24l-5.827 6.313h-21.275l-2.118 2.877v34.358c0 24.575 19.211 47.042 48.312 47.139 4.957.017 9.74-.76 14.24-2.2-20.53-6.232-33.332-24.88-33.332-44.939z" fill="#ffcebe" data-original="#ffcebe"/><path d="M255.27 139.255c-36.237.466-65.067 30.672-65.067 66.912v19.865a15.965 15.965 0 0 1 4.299-.602H220.82c1.631 0 10.803-.747 10.129-.695 11.607-.889 21.643-9.656 24.409-21.05.089-.364.407-.623.782-.623s.694.26.782.623c2.764 11.367 12.709 20.033 24.144 21.003 8.306.704 8.418.743 9.917.743h26.21c1.705 0 3.344.272 4.885.766v-21.011c-.002-36.705-29.992-66.405-66.808-65.931z" fill="#9f7545" data-original="#365e7d"/><path d="M219.703 206.167c0-31.483 21.763-58.4 51.233-65.232a66.162 66.162 0 0 0-15.667-1.68c-36.237.466-65.067 30.672-65.067 66.912v19.865a15.965 15.965 0 0 1 4.299-.602h25.201v-19.263z" fill="#8a653c" data-original="#2b4d66"/><path d="m481.057 229.702-.146-.059-13.95-5.402c13.871-17.393 10.928-46.535-3.521-53.986h-.001c-8.117-4.185-9.748-7.798-9.748-12.271v-5.899c6.66-4.15 11.104-11.537 11.104-19.945s-4.444-15.795-11.104-19.945V95.906c0-40.835-33.237-73.925-74.403-73.43-39.96.514-72.47 33.895-72.47 74.411v14.955c-6.983 4.075-11.689 11.645-11.689 20.297 0 4.753 1.423 9.178 3.86 12.879-12.695-9.204-27.942-14.068-43.951-13.875-16.471.212-31.668 6.017-43.853 15.595a23.37 23.37 0 0 0 5.108-14.599c0-8.408-4.444-15.795-11.104-19.945V95.906c0-40.769-33.173-73.926-74.403-73.43-39.96.514-72.47 33.895-72.47 74.411v14.955c-6.983 4.075-11.689 11.645-11.689 20.297s4.706 16.221 11.689 20.297v5.544c0 4.474-1.631 8.088-9.75 12.275-7.999 4.124-13.142 15.295-13.1 28.46.031 10.086 3.12 19.09 8.595 25.901l-12.971 5.029-.144.057C16.042 235.835 0 253.388 0 277.432v87.164c0 8.967 7.294 16.264 16.265 16.264h108.254a52.896 52.896 0 0 0-.268 5.239v87.164c0 8.966 7.294 16.264 16.264 16.264h97.986c4.143 0 7.5-3.358 7.5-7.5s-3.357-7.5-7.5-7.5h-58.729v-83.776c0-4.142-3.357-7.5-7.5-7.5s-7.5 3.358-7.5 7.5v35.523h-25.521v-40.175c0-16.424 11.061-29.461 21.586-33.83l45.217-17.529c9.022 18.995 28.034 30.933 50.413 31.008h.176c20.811 0 39.997-12.436 49.108-31.066l19.831 7.68 25.583 9.907c11.166 4.632 21.587 17.959 21.587 33.831v40.175H347.23v-35.523c0-4.142-3.357-7.5-7.5-7.5s-7.5 3.358-7.5 7.5v83.776h-58.729c-4.143 0-7.5 3.358-7.5 7.5s3.357 7.5 7.5 7.5c104.959 0 98.46.036 99.647-.084 8.192-.834 14.604-7.772 14.604-16.18V386.1c0-1.756-.1-3.504-.28-5.239h108.266c8.968 0 16.264-7.296 16.264-16.264v-87.164c0-20.604-12.726-40.232-30.945-47.731zm-108.305 243.56c0 .697-.567 1.265-1.265 1.265h-24.258v-33.253h25.522v31.988zm83.812-289.675c5.182 2.675 8.038 25.068-4.823 34.76l-37.1-14.368-.002-10.711c11.564-9.242 19.135-22.596 20.65-37.642h3.399v2.356c.001 14.691 10.203 21.649 17.876 25.605zM319.83 168.225c1.32-3.133 1.987-6.562 1.987-10.246v-2.353h3.352c1.43 15.349 9.173 28.825 20.664 37.812l.001 10.524-16.394 6.356v-5.747c-.001-12.604-3.232-25.19-9.61-36.346zm5.617 73.79c-.625 4.287-4.31 7.279-8.392 7.279h-5.732v-16.977h5.732c5.017 0 9.138 4.445 8.392 9.698zm14.484-93.888V123.65c14.029 0 29.072.257 40.331-14.113 10.728 13.662 24.543 14.113 40.311 14.113v24.477c0 25.802-19.319 42.088-39.805 42.021-21.491-.076-40.837-15.367-40.837-42.021zm109.862-15.988c0 4.746-3.885 8.488-8.488 8.488h-5.732V123.65h5.732c4.608 0 8.488 3.748 8.488 8.489zM321.816 96.887c0-32.351 25.867-59.003 57.663-59.412 32.727-.399 59.21 25.909 59.21 58.431v12.745c-28.752 0-21.828.226-32.877-.716-8.148-.691-15.504-7.125-17.487-15.291a8.285 8.285 0 0 0-8.072-6.362 8.293 8.293 0 0 0-8.071 6.356c-1.834 7.565-8.496 14.454-17.849 15.353-10.458.876-6.151.659-32.517.659zm-3.201 26.763h6.315v16.977c-6.455 0-6.48.052-7.48-.09-4.39-.646-7.323-4.327-7.323-8.399 0-4.742 3.885-8.488 8.488-8.488zm-63.386 22.492c15.771-.216 30.618 5.779 41.826 16.844a59.09 59.09 0 0 1 7.704 9.355c.048.08.083.166.135.244 10.951 16.701 9.545 31.047 9.545 44.732-28.748 0-21.836.226-32.878-.716-7.96-.676-15.467-6.98-17.487-15.291-.905-3.746-4.224-6.362-8.071-6.362s-7.167 2.616-8.071 6.356c-1.885 7.775-8.712 14.475-17.849 15.353-10.5.879-5.892.659-32.518.659v-11.764c0-32.333 25.855-59.002 57.664-59.41zm41.093 86.175v24.477c0 26.19-19.654 42.021-39.805 42.021-24.236-.085-40.838-18.944-40.838-39.639v-26.858c13.981 0 29.057.277 40.331-14.115 10.728 13.664 24.544 14.114 40.312 14.114zm-183.99-26.548v-4.035c11.977 4.315 26.233 4.718 38.806.048l.003 4.039c.014 4.698 2.528 9.193 7.902 11.496l8.415 3.259c-6.83 12.948-20.398 21.505-35.063 21.505h-.127c-16.014-.054-29.656-8.278-36.423-21.452 8.539-3.311 16.487-5.264 16.487-14.86zM91.43 150.508V123.65c16.794 0 29.912-.814 40.331-14.113 5.878 7.486 14.657 12.528 24.283 13.344 8.485.724 8.754.77 10.55.77h5.478v24.477c0 25.95-19.35 42.01-39.805 42.021-24.917-.089-40.837-19.589-40.837-39.641zm74.711 53.471-.002-10.711c11.564-9.242 19.135-22.596 20.65-37.642h3.399c0 2.964-.235 7.558 2.136 12.942a74.974 74.974 0 0 0-9.759 36.984v4.787zm28.223 28.338h6.315v16.977h-6.315c-4.631 0-8.488-3.804-8.488-8.488 0-4.658 3.836-8.489 8.488-8.489zm6.928-100.178c0 4.742-3.882 8.488-8.488 8.488h-5.732V123.65h5.732c4.608 0 8.488 3.748 8.488 8.489zM73.315 96.887c0-32.351 25.867-59.003 57.663-59.412.259-.003.518-.005.775-.005 32.23 0 58.435 26.056 58.435 58.437v12.745h-23.595c-1.044 0-.824.005-9.282-.716-8.148-.691-15.504-7.125-17.487-15.291a8.285 8.285 0 0 0-8.072-6.362 8.293 8.293 0 0 0-8.071 6.356c-2.076 8.564-9.545 14.555-17.849 15.353-10.077.844-6.863.659-32.517.659zm-5.598 27.114c1.809-.481 2.193-.35 8.713-.35v16.977h-6.315c-4.55 0-8.488-3.699-8.488-8.488-.001-3.849 2.574-7.102 6.09-8.139zm-12.278 59.586c7.674-3.957 17.876-10.917 17.876-25.607v-2.353h3.352c1.354 14.537 8.444 27.833 19.701 37.021.302.249.599.501.907.745l.056.046.001 10.524-37.997 14.731c-8.141-5.977-8.858-16.649-8.869-20.027-.026-8.046 2.924-14.024 4.973-15.08zM40.521 365.86H16.265A1.266 1.266 0 0 1 15 364.595v-31.988h25.521zm124.251 75.414v33.253h-24.258a1.266 1.266 0 0 1-1.264-1.265v-31.988zm-5.053-134.029c0 .047-.003.092-.003.138v.001c.032 9.408 2.78 18.7 8.576 25.906-12.09 4.687-30.381 9.848-39.967 32.569H55.522l-.001-83.776c0-4.142-3.357-7.5-7.5-7.5s-7.5 3.358-7.5 7.5v35.523H15v-40.175c0-18.256 12.885-30.215 21.588-33.831l24.73-9.587 20.486-7.942c9.022 18.995 28.034 30.933 50.412 31.008h.176c14.6 0 28.401-6.119 38.486-16.202.022 8.176 4.356 15.946 11.688 20.225v5.544c0 4.475-1.631 8.088-9.75 12.275-7.972 4.11-13.102 15.219-13.097 28.324zm23.87 20.115c-13.282-9.719-8.996-32.477-3.9-35.106 7.675-3.957 17.877-10.916 17.877-25.607v-2.353h3.352c1.433 15.388 9.348 29.107 20.665 37.812v10.525l-.193.075zm73.056 23.387h-.127c-16.015-.054-29.657-8.277-36.423-21.451l6.965-2.7.252-.094c7.662-2.819 9.271-8.117 9.271-12.065v-4.036c11.893 4.286 26.147 4.75 38.806.049l.003 4.038a12.29 12.29 0 0 0 7.9 11.495l8.417 3.26c-6.832 12.947-20.4 21.504-35.064 21.504zm70.841-23.735-37.095-14.366-.002-10.709c11.564-9.241 19.136-22.596 20.651-37.643h3.399v2.356c0 18.211 15.843 24.012 18.17 25.796 1.551 1.19 4.044 5.83 4.093 13.281.058 7.982-2.839 16.48-9.216 21.285zm169.516 37.583c0 .697-.567 1.265-1.265 1.265H471.48v-33.253h25.521v31.988zm0-46.988H471.48v-35.523c0-4.142-3.357-7.5-7.5-7.5s-7.5 3.358-7.5 7.5v83.776h-72.861c-9.985-23.82-28.452-28.127-40.895-32.947 5.984-7.512 9.04-17.682 8.978-27.284-.082-12.536-4.878-22.77-12.515-26.708-8.117-4.185-9.748-7.798-9.748-12.272v-5.878c7.064-4.363 11.178-12.122 11.1-20.114a54.218 54.218 0 0 0 19.568 12.721 7.502 7.502 0 0 0 5.291-14.037c-9.229-3.479-16.635-10.131-21.05-18.715l6.959-2.698.252-.094c7.665-2.818 9.273-8.117 9.273-12.066v-4.035c11.759 4.237 25.948 4.828 38.806.048l.003 4.039c.028 10.074 8.901 11.882 16.314 14.753-4.492 8.511-11.97 15.324-20.938 18.837a7.5 7.5 0 0 0 5.47 13.966c12.849-5.033 23.447-14.994 29.501-27.37l45.426 17.592c10.739 4.456 21.587 17.487 21.587 33.831v40.178z" data-original="#000000"/></g></svg>