<svg xmlns="http://www.w3.org/2000/svg" viewBox="0 0 511.999 511.999" style="enable-background:new 0 0 511.999 511.999" xml:space="preserve"><path style="fill:#ffaa50" d="m248.987 300.736-44.403-19.03H153.17l-44.403 19.03a25.707 25.707 0 0 0-15.58 23.628v120.153h171.379V324.364a25.703 25.703 0 0 0-15.579-23.628z"/><path style="fill:#ff913c" d="m229.199 292.255-24.615-10.549H153.17l-24.615 10.549c4.868 23.333 25.544 40.865 50.322 40.865s45.454-17.531 50.322-40.865z"/><path style="fill:#64463c" d="m7.498 126.952 51.414 26.219s11.247-42.309 54.092-50.878l29.813-23.386S54.036 40.524 7.498 126.952z"/><path style="fill:#553732" d="m28.975 137.904 29.937 15.267s11.247-42.309 54.092-50.878l15.018-11.781c-28.458-3.26-70.218 1.635-99.047 47.392z"/><path style="fill:#ffaa50" d="M95.545 108.398c5.154-2.623 10.894-4.792 17.458-6.105l29.813-23.386s-18.508-7.968-43.033-8.446c-2.357 5.299-7.191 19.11-4.238 37.937z"/><path style="fill:#d29b6e" d="M178.877 307.413c-14.198 0-25.707-11.509-25.707-25.707v-25.707h51.414v25.707c0 14.198-11.509 25.707-25.707 25.707z"/><path style="fill:#f0c087" d="M255.998 161.74v-17.138c0-42.593-34.528-77.121-77.121-77.121-42.593 0-77.121 34.528-77.121 77.121v17.138c-11.472 0-20.311 11.271-16.047 23.345 2.36 6.681 9.012 10.931 16.098 10.931h.451c4.267 38.556 36.925 68.552 76.618 68.552s72.351-29.996 76.618-68.552h.451c7.086 0 13.738-4.25 16.098-10.931 4.266-12.073-4.573-23.345-16.045-23.345z"/><path style="fill:#e6af78" d="M255.998 170.309v-25.707H144.602c0-35.151 23.54-64.751 55.698-74.042-6.809-1.967-13.981-3.078-21.422-3.078-42.593 0-77.121 34.528-77.121 77.121v17.138c-11.472 0-20.312 11.271-16.047 23.344 2.36 6.682 9.012 10.931 16.098 10.931h.451c4.268 38.556 36.925 68.552 76.619 68.552a77.086 77.086 0 0 0 21.529-3.051c-32.213-9.256-55.805-38.88-55.805-74.069v-17.139h111.396z"/><path style="fill:#ff913c" d="m122.444 336.669-25.53-25.53c-2.359 3.921-3.726 8.452-3.726 13.225v120.153h34.276v-95.729c0-4.546-1.806-8.905-5.02-12.119z"/><path style="fill:#64463c" d="M191.731 67.482h-12.854c-42.593 0-77.121 34.528-77.121 77.121h154.242v-12.854c0-35.494-28.773-64.267-64.267-64.267z"/><path style="fill:#553732" d="M198.158 70.01c-6.173-1.592-12.61-2.528-19.28-2.528-42.592 0-77.121 34.528-77.121 77.121h38.56c0-35.923 24.596-66.019 57.841-74.593z"/><path style="fill:#ffaa50" d="m403.228 300.736-44.403-19.03h-51.414l-44.403 19.03a25.707 25.707 0 0 0-15.58 23.628v120.153h171.38V324.364a25.706 25.706 0 0 0-15.58-23.628z"/><path style="fill:#ff913c" d="m383.441 292.255-24.615-10.549h-51.414l-24.615 10.549c4.868 23.333 25.544 40.865 50.322 40.865s45.453-17.531 50.322-40.865z"/><path style="fill:#64463c" d="m161.739 126.952 51.414 26.219s11.247-42.309 54.092-50.878l29.813-23.386s-88.78-38.383-135.319 48.045z"/><path style="fill:#553732" d="m183.216 137.904 29.937 15.267s11.247-42.309 54.092-50.878l15.018-11.781c-28.458-3.26-70.217 1.635-99.047 47.392z"/><path style="fill:#ffaa50" d="M249.787 108.398c5.154-2.623 10.894-4.792 17.458-6.105l29.813-23.386s-18.508-7.968-43.033-8.446c-2.358 5.299-7.192 19.11-4.238 37.937z"/><path style="fill:#64463c" d="m504.498 126.952-51.414 26.219s-11.247-42.309-54.092-50.878l-29.813-23.386c.001 0 88.781-38.383 135.319 48.045z"/><path style="fill:#553732" d="m483.021 137.904-29.937 15.267s-11.247-42.309-54.092-50.878l-15.018-11.781c28.458-3.26 70.218 1.635 99.047 47.392z"/><path style="fill:#ffaa50" d="M416.451 108.398c-5.154-2.623-10.894-4.792-17.458-6.105L369.18 78.907s18.508-7.968 43.033-8.446c2.358 5.299 7.191 19.11 4.238 37.937z"/><path style="fill:#d29b6e" d="M333.119 307.413c-14.198 0-25.707-11.509-25.707-25.707v-25.707h51.414v25.707c0 14.198-11.51 25.707-25.707 25.707z"/><path style="fill:#f0c087" d="M410.239 161.74v-17.138c0-42.593-34.528-77.121-77.121-77.121-42.593 0-77.121 34.528-77.121 77.121v17.138c-11.472 0-20.311 11.271-16.047 23.345 2.36 6.681 9.012 10.931 16.098 10.931h.451c4.267 38.556 36.925 68.552 76.618 68.552s72.351-29.996 76.618-68.552h.451c7.086 0 13.738-4.25 16.098-10.931 4.267-12.073-4.573-23.345-16.045-23.345z"/><path style="fill:#e6af78" d="M410.239 170.309v-25.707H298.843c0-35.151 23.54-64.751 55.698-74.042-6.809-1.967-13.981-3.078-21.422-3.078-42.593 0-77.121 34.528-77.121 77.121v17.138c-11.472 0-20.312 11.271-16.047 23.344 2.36 6.682 9.012 10.931 16.098 10.931h.451c4.268 38.556 36.925 68.552 76.619 68.552a77.086 77.086 0 0 0 21.529-3.051c-32.213-9.256-55.805-38.88-55.805-74.069v-17.139h111.396z"/><path style="fill:#ff913c" d="m276.685 336.669-25.53-25.53c-2.359 3.921-3.726 8.452-3.726 13.225v120.153h34.276v-95.729c0-4.546-1.806-8.905-5.02-12.119zM389.552 336.669l25.53-25.53c2.359 3.921 3.726 8.452 3.726 13.225v120.153h-34.276v-95.729a17.143 17.143 0 0 1 5.02-12.119z"/><path style="fill:#64463c" d="M333.119 67.482c-42.593 0-77.121 34.528-77.121 77.121h154.241c0-42.593-34.528-77.121-77.12-77.121z"/><path style="fill:#553732" d="M352.399 70.01c-6.173-1.592-12.61-2.528-19.28-2.528-42.592 0-77.121 34.528-77.121 77.121h38.56c0-35.923 24.597-66.019 57.841-74.593z"/><path d="M144.602 171.379a7.5 7.5 0 0 0-7.5 7.5v8.569a7.5 7.5 0 0 0 15 0v-8.569a7.5 7.5 0 0 0-7.5-7.5zM213.153 171.379a7.5 7.5 0 0 0-7.5 7.5v8.569a7.5 7.5 0 0 0 15 0v-8.569a7.5 7.5 0 0 0-7.5-7.5zM191.082 212.415c-3.07 2.681-7.518 4.219-12.204 4.219s-9.134-1.538-12.205-4.219a7.501 7.501 0 0 0-9.867 11.299c5.849 5.107 13.688 7.92 22.071 7.92 8.384 0 16.223-2.813 22.071-7.921a7.5 7.5 0 0 0-9.866-11.298zM298.843 171.379a7.5 7.5 0 0 0-7.5 7.5v8.569a7.5 7.5 0 0 0 15 0v-8.569a7.5 7.5 0 0 0-7.5-7.5zM367.395 171.379a7.5 7.5 0 0 0-7.5 7.5v8.569a7.5 7.5 0 0 0 15 0v-8.569a7.5 7.5 0 0 0-7.5-7.5zM345.324 212.414c-3.071 2.682-7.519 4.219-12.205 4.219s-9.134-1.538-12.204-4.219a7.501 7.501 0 0 0-9.868 11.298c5.849 5.108 13.687 7.921 22.071 7.921s16.222-2.813 22.071-7.92a7.5 7.5 0 0 0-9.865-11.299z"/><path d="M511.102 123.397c-25.68-47.691-62.473-59.562-88.816-61.123-24.252-1.437-43.882 5.356-49.566 7.577a84.085 84.085 0 0 0-39.6-9.868 84.082 84.082 0 0 0-39.6 9.868c-5.686-2.221-25.323-9.015-49.566-7.577-8.711.516-18.567 2.173-28.783 5.866-11.367-5.414-23.564-8.157-36.292-8.157a84.082 84.082 0 0 0-39.6 9.868c-5.686-2.221-25.321-9.015-49.566-7.577C63.369 63.835 26.576 75.706.897 123.397a7.501 7.501 0 0 0 3.196 10.237l51.414 26.219a7.46 7.46 0 0 0 3.39.813 7.521 7.521 0 0 0 7.26-5.546c.36-1.322 7.967-28.097 33.627-40.547a84.166 84.166 0 0 0-5.524 30.03v10.811a24.694 24.694 0 0 0-12.625 9.248c-4.701 6.646-5.792 15-2.994 22.922 2.69 7.617 9.179 13.236 17.033 15.185 5.191 28.509 24.426 51.646 50 62.54v11.452l-39.856 17.081a33.168 33.168 0 0 0-20.126 30.522v120.152a7.5 7.5 0 0 0 15 0V325.519l16.454 16.454a9.574 9.574 0 0 1 2.822 6.815v95.729a7.5 7.5 0 0 0 15 0v-95.729c0-6.582-2.563-12.77-7.216-17.422l-20.765-20.765a18.213 18.213 0 0 1 4.741-2.972l35.7-15.3c4.441 13.115 16.859 22.584 31.454 22.584s27.013-9.469 31.454-22.584l16.999 7.285a7.471 7.471 0 0 0 2.951.608 7.5 7.5 0 0 0 2.958-14.395l-21.154-9.066v-11.53c19.346-8.308 35.137-23.65 43.903-42.967 8.73 19.408 24.489 34.766 43.924 43.045v11.452l-39.856 17.081a33.168 33.168 0 0 0-20.126 30.522v120.152a7.5 7.5 0 0 0 15 0V325.52l16.453 16.453a9.576 9.576 0 0 1 2.823 6.815v95.729a7.5 7.5 0 0 0 15 0v-95.729a24.478 24.478 0 0 0-7.216-17.422l-20.765-20.765a18.213 18.213 0 0 1 4.741-2.972l35.7-15.3c4.441 13.115 16.858 22.584 31.454 22.584s27.013-9.469 31.454-22.584l35.701 15.3a18.207 18.207 0 0 1 4.74 2.972l-20.765 20.765c-4.654 4.653-7.217 10.84-7.217 17.422v95.729a7.5 7.5 0 0 0 15 0v-95.729a9.57 9.57 0 0 1 2.823-6.815l16.453-16.453v118.997a7.5 7.5 0 0 0 15 0V324.364a33.17 33.17 0 0 0-20.126-30.522l-39.857-17.081v-11.452c25.573-10.894 44.809-34.031 50-62.54 7.854-1.949 14.342-7.568 17.033-15.185 2.798-7.921 1.707-16.276-2.994-22.922a24.694 24.694 0 0 0-12.625-9.248v-10.811a84.166 84.166 0 0 0-5.524-30.03c25.659 12.45 33.266 39.222 33.621 40.526a7.498 7.498 0 0 0 10.655 4.754l51.414-26.219a7.503 7.503 0 0 0 3.752-4.446 7.524 7.524 0 0 0-.561-5.791zm-108.773 13.706H263.908c3.753-34.874 33.356-62.121 69.21-62.121s65.458 27.247 69.211 62.121zM264.46 95.229a78.103 78.103 0 0 0-9.342 2.639c.515-11.616 4.996-18.999 5.822-20.265a112.942 112.942 0 0 1 16.904 3.008 85.292 85.292 0 0 0-13.384 14.618zm-20.176-17.947.13-.007c-2.538 6.325-5.051 15.89-4.15 27.765-17.65 11.152-26.949 27.616-31.248 37.603l-36.858-18.796c17.626-28.939 41.86-44.595 72.126-46.565zm-189.51 65.361-36.858-18.796c17.626-28.938 41.86-44.594 72.126-46.564l.13-.007c-2.538 6.325-5.051 15.89-4.15 27.765-17.649 11.15-26.949 27.615-31.248 37.602zm46.102-44.775c.515-11.616 4.996-18.999 5.822-20.265a112.895 112.895 0 0 1 16.904 3.008 85.336 85.336 0 0 0-13.384 14.618 78.156 78.156 0 0 0-9.342 2.639zm96.209 183.764v.076c-.001 10.038-8.168 18.205-18.207 18.205s-18.206-8.167-18.207-18.205v-11.612a85.051 85.051 0 0 0 18.207 1.971c6.231 0 12.322-.703 18.207-2.008v11.573zm-18.207-24.564c-35.526 0-65.26-26.601-69.164-61.876a7.5 7.5 0 0 0-7.455-6.675h-.451c-4.082 0-7.793-2.438-9.026-5.929-1.581-4.476.009-7.725 1.097-9.264a9.667 9.667 0 0 1 7.878-4.083 7.5 7.5 0 0 0 7.5-7.5v-9.638h26.776a7.5 7.5 0 0 0 0-15h-26.366c3.753-34.874 33.356-62.121 69.21-62.121 6.039 0 11.928.756 17.625 2.243-14.752 9.237-29.289 23.741-41.367 46.172a7.501 7.501 0 0 0 3.196 10.237l51.414 26.219a7.495 7.495 0 0 0 6.463.168 7.498 7.498 0 0 0 4.192-4.922c.086-.323 7.717-27.811 33.605-40.486a84.18 84.18 0 0 0-5.509 29.991v10.811a24.698 24.698 0 0 0-12.625 9.248c-4.701 6.646-5.792 15-2.994 22.922 2.348 6.649 7.592 11.774 14.11 14.266-6.696 31.811-35.109 55.217-68.109 55.217zm172.448 24.564v.076c-.001 10.038-8.168 18.205-18.207 18.205s-18.206-8.166-18.207-18.205v-11.611a85.051 85.051 0 0 0 36.414 0v11.535zm66.792-108.308c1.088 1.539 2.678 4.788 1.097 9.264-1.233 3.491-4.945 5.929-9.026 5.929h-.451a7.5 7.5 0 0 0-7.455 6.675c-3.903 35.275-33.637 61.876-69.164 61.876-35.526 0-65.26-26.601-69.164-61.877a7.5 7.5 0 0 0-7.455-6.675h-.451c-4.082 0-7.793-2.438-9.026-5.929-1.581-4.476.009-7.725 1.097-9.264a9.665 9.665 0 0 1 7.878-4.083 7.5 7.5 0 0 0 7.5-7.5v-9.638h139.241v9.638a7.5 7.5 0 0 0 7.5 7.5 9.668 9.668 0 0 1 7.879 4.084zm-29.723-92.711a112.934 112.934 0 0 1 16.905-3.008c.707 1.095 5.263 8.606 5.808 20.26a77.92 77.92 0 0 0-9.331-2.635 85.2 85.2 0 0 0-13.382-14.617zm68.827 62.03c-4.299-9.987-13.598-26.451-31.248-37.603.901-11.875-1.612-21.44-4.15-27.765l.13.007c30.266 1.97 54.5 17.626 72.126 46.564l-36.858 18.797z"/></svg>