<svg xmlns="http://www.w3.org/2000/svg" viewBox="0 0 512 512" style="enable-background:new 0 0 512 512" xml:space="preserve"><path style="fill:#ff94d2" d="M36.918 197.745v-88.662H6.935v88.662c0 8.089 6.558 14.646 14.646 14.646h29.982c-8.087 0-14.645-6.556-14.645-14.646z"/><path style="fill:#f77cc9" d="M6.935 109.079h29.98v36.398H6.935z"/><circle style="fill:#f7cf69" cx="41.552" cy="212.391" r="24.144"/><circle style="fill:#ff94d2" cx="89.592" cy="217.148" r="24.144"/><circle style="fill:#f7cf69" cx="133.713" cy="236.775" r="24.144"/><circle style="fill:#ff94d2" cx="168.99" cy="269.624" r="24.144"/><circle style="fill:#f7cf69" cx="192.205" cy="311.957" r="24.144"/><ellipse style="fill:#ff94d2" cx="211.792" cy="356.807" rx="25.857" ry="24.559"/><circle style="fill:#f7cf69" cx="469.325" cy="212.391" r="24.144"/><circle style="fill:#ff94d2" cx="421.286" cy="217.148" r="24.144"/><circle style="fill:#f7cf69" cx="377.165" cy="236.775" r="24.144"/><circle style="fill:#ff94d2" cx="341.888" cy="269.624" r="24.144"/><circle style="fill:#f7cf69" cx="318.673" cy="311.957" r="24.144"/><ellipse style="fill:#ff94d2" cx="299.095" cy="356.807" rx="25.857" ry="24.559"/><path style="fill:#ec5569" d="M421.872 129.435c5.505-5.505 14.431-5.505 19.936 0l3.11 3.11a1.898 1.898 0 0 0 2.685 0l3.06-3.06c5.505-5.505 14.431-5.505 19.936 0 5.505 5.505 5.505 14.431 0 19.936l-22.998 22.998a1.898 1.898 0 0 1-2.685 0l-23.044-23.048c-5.506-5.505-5.506-14.431 0-19.936z"/><path style="fill:#ffc7e7" d="M503.945 109.083H6.935v88.663c0 8.089 6.558 14.646 14.646 14.646h30.362c58.118 0 110.735 34.374 134.086 87.595l37.295 85.006a32.347 32.347 0 0 0 29.621 19.35h4.992a32.347 32.347 0 0 0 29.621-19.35l37.295-85.006c23.35-53.221 75.967-87.595 134.086-87.595H489.3c8.089 0 14.646-6.558 14.646-14.646v-88.663h-.001z"/><path style="fill:#ec5569" d="m325.342 298.886-4.94 4.94a1.898 1.898 0 0 1-2.685 0l-23.044-23.048c-5.505-5.505-5.505-14.431 0-19.936 5.505-5.505 14.431-5.505 19.936 0l3.11 3.11a1.898 1.898 0 0 0 2.685 0l3.06-3.06c5.505-5.505 14.431-5.505 19.936 0a14.048 14.048 0 0 1 2.946 4.306M164.517 265.175a14.072 14.072 0 0 1 2.958-4.333c5.505-5.505 14.431-5.505 19.936 0l3.11 3.11a1.898 1.898 0 0 0 2.685 0l3.06-3.06c5.505-5.505 14.431-5.505 19.936 0 5.505 5.505 5.505 14.431 0 19.936l-22.998 22.998a1.898 1.898 0 0 1-2.685 0l-5.01-5.011M231.074 329.684c5.505-5.505 14.431-5.505 19.936 0l3.11 3.11a1.898 1.898 0 0 0 2.685 0l3.06-3.06c5.505-5.505 14.431-5.505 19.936 0 5.505 5.505 5.505 14.431 0 19.936l-22.998 22.998a1.898 1.898 0 0 1-2.685 0l-23.044-23.048c-5.506-5.504-5.506-14.431 0-19.936zM377.315 237.259l-19.043-19.047c-5.505-5.505-5.505-14.431 0-19.936 5.505-5.505 14.431-5.505 19.936 0l3.11 3.11a1.898 1.898 0 0 0 2.685 0l3.06-3.06c5.505-5.505 14.431-5.505 19.936 0 5.505 5.505 5.505 14.431 0 19.936l-6.132 6.132M231.074 198.277c5.505-5.505 14.431-5.505 19.936 0l3.11 3.11a1.898 1.898 0 0 0 2.685 0l3.06-3.06c5.505-5.505 14.431-5.505 19.936 0 5.505 5.505 5.505 14.431 0 19.936l-22.998 22.998a1.898 1.898 0 0 1-2.685 0l-23.044-23.048c-5.506-5.505-5.506-14.43 0-19.936zM110.101 224.434l-6.22-6.221c-5.505-5.505-5.505-14.431 0-19.936 5.505-5.505 14.431-5.505 19.936 0l3.11 3.11a1.898 1.898 0 0 0 2.685 0l3.06-3.06c5.505-5.505 14.431-5.505 19.936 0 5.505 5.505 5.505 14.431 0 19.936l-19.012 19.012M294.673 129.435c5.505-5.505 14.431-5.505 19.936 0l3.11 3.11a1.898 1.898 0 0 0 2.685 0l3.06-3.06c5.505-5.505 14.431-5.505 19.936 0 5.505 5.505 5.505 14.431 0 19.936l-22.998 22.998a1.898 1.898 0 0 1-2.685 0l-23.044-23.048c-5.505-5.505-5.505-14.431 0-19.936zM167.475 129.435c5.505-5.505 14.431-5.505 19.936 0l3.11 3.11a1.898 1.898 0 0 0 2.685 0l3.06-3.06c5.505-5.505 14.431-5.505 19.936 0 5.505 5.505 5.505 14.431 0 19.936l-22.998 22.998a1.898 1.898 0 0 1-2.685 0l-23.044-23.048c-5.505-5.505-5.505-14.431 0-19.936zM421.872 129.435c5.505-5.505 14.431-5.505 19.936 0l3.11 3.11a1.898 1.898 0 0 0 2.685 0l3.06-3.06c5.505-5.505 14.431-5.505 19.936 0 5.505 5.505 5.505 14.431 0 19.936l-22.998 22.998a1.898 1.898 0 0 1-2.685 0l-23.044-23.048c-5.506-5.505-5.506-14.431 0-19.936zM40.282 129.435c5.505-5.505 14.431-5.505 19.936 0l3.11 3.11a1.898 1.898 0 0 0 2.685 0l3.06-3.06c5.505-5.505 14.431-5.505 19.936 0 5.505 5.505 5.505 14.431 0 19.936l-22.998 22.998a1.898 1.898 0 0 1-2.685 0l-23.044-23.048c-5.506-5.505-5.506-14.431 0-19.936z"/><path style="fill:#ff94d2" d="M6.935 109.079h497.007v36.398H6.935zM253.306 384.992l-37.295-85.006c-23.35-53.221-75.967-87.595-134.086-87.595H51.943c58.118 0 110.735 34.374 134.086 87.595l37.295 85.006a32.347 32.347 0 0 0 29.621 19.35h4.992c4.379 0 8.607-.902 12.495-2.532-7.512-3.15-13.727-9.07-17.126-16.818z"/><path style="fill:#e63950" d="m243.037 361.585-13.303-30.323c-4.103 5.519-3.668 13.35 1.341 18.358l11.962 11.965zM193.204 303.826l16.489-16.489a146.116 146.116 0 0 0-16.344-23.528l-.143.143a1.898 1.898 0 0 1-2.685 0l-3.11-3.11c-5.505-5.505-14.431-5.505-19.936 0a14.06 14.06 0 0 0-2.958 4.333l.082.132a146.188 146.188 0 0 1 20.833 33.386l.076.122 5.01 5.011a1.9 1.9 0 0 0 2.686 0zM100.824 213.637a14.05 14.05 0 0 0 3.056 4.577l6.22 6.221.169.093a146.658 146.658 0 0 1 23.148 12.65l.179.098 10.852-10.853a146.1 146.1 0 0 0-43.624-12.786z"/><path d="M226.33 323.678a21.416 21.416 0 0 0-5.943 11.299 21.544 21.544 0 0 0 5.943 19.227l23.08 23.089a9.385 9.385 0 0 0 6.613 2.706 9.363 9.363 0 0 0 6.642-2.742l22.985-22.994c4.083-4.068 6.332-9.493 6.332-15.272 0-1.099-.084-2.191-.25-3.256l-.125-.728a21.337 21.337 0 0 0-5.947-11.281c-8.126-8.125-21.168-8.408-29.637-.85-8.468-7.61-21.55-7.342-29.693.802zm36.332 13.707 3.058-3.058c2.575-2.574 6.765-2.574 9.35.013a6.436 6.436 0 0 1 1.74 3.128l.072.368c.073.367.108.745.108 1.155a6.531 6.531 0 0 1-1.932 4.664l-19.04 19.047-19.09-19.096a6.574 6.574 0 0 1-1.807-5.882 6.529 6.529 0 0 1 1.807-3.446c1.248-1.248 2.906-1.935 4.669-1.935s3.421.688 4.677 1.943l3.109 3.1a9.325 9.325 0 0 0 6.64 2.75 9.33 9.33 0 0 0 6.639-2.751zM285.661 192.315c-8.124-8.125-21.166-8.409-29.636-.85-8.465-7.609-21.548-7.343-29.691.8-8.418 8.419-8.418 22.118 0 30.536l23.046 23.05a9.367 9.367 0 0 0 6.642 2.745 9.365 9.365 0 0 0 6.642-2.747l22.999-22.998c8.417-8.418 8.417-22.117-.002-30.536zm-10.6 19.937-19.041 19.041-19.087-19.091c-2.574-2.574-2.574-6.764 0-9.337a6.612 6.612 0 0 1 9.337 0l3.11 3.11a9.332 9.332 0 0 0 6.643 2.751 9.33 9.33 0 0 0 6.642-2.751l3.06-3.06a6.612 6.612 0 0 1 9.337 0 6.611 6.611 0 0 1-.001 9.337z"/><path d="M504.505 166.573a7.495 7.495 0 0 0 7.495-7.495v-14.309c0-.023-.003-.045-.003-.068v-36.33a7.495 7.495 0 0 0-7.495-7.495H79.608a7.495 7.495 0 0 0 0 14.99h417.399v21.406H14.99v-21.406h33.418a7.495 7.495 0 0 0 0-14.99H7.495A7.495 7.495 0 0 0 0 108.371v88.662c0 7.852 4.241 15.046 10.778 18.991 2.124 15.393 15.362 27.289 31.334 27.289a31.599 31.599 0 0 0 22.037-8.889c5.715 8.244 15.237 13.656 26.002 13.656 4.855 0 9.539-1.134 13.757-3.178 3.834 13.153 15.991 22.795 30.364 22.795 1.239 0 2.467-.08 3.682-.22-.022.479-.034.958-.034 1.439 0 15.283 10.897 28.069 25.329 30.998a31.52 31.52 0 0 0-2.124 11.326c0 13.966 9.099 25.839 21.678 30.023-2.444 4.494-3.81 9.557-3.81 14.826 0 17.678 14.964 32.059 33.358 32.059a34.85 34.85 0 0 0 4.913-.352c6.463 14.184 20.617 23.327 36.24 23.327h4.987c15.623 0 29.776-9.141 36.24-23.327 1.62.23 3.262.353 4.923.353 18.388 0 33.348-14.382 33.348-32.059 0-5.27-1.365-10.331-3.809-14.825 12.578-4.182 21.677-16.058 21.677-30.025 0-3.928-.752-7.757-2.126-11.325 14.439-2.927 25.341-15.714 25.341-30.998 0-.481-.012-.959-.034-1.438 1.211.139 2.435.219 3.672.219 14.374 0 26.531-9.642 30.364-22.795a31.535 31.535 0 0 0 13.757 3.178c10.77 0 20.294-5.416 26.009-13.664a31.572 31.572 0 0 0 22.031 8.897c15.973 0 29.21-11.895 31.334-27.288 6.536-3.943 10.779-11.139 10.779-18.992v-7.465a7.495 7.495 0 0 0-14.99 0v7.465c0 3.136-2.09 5.946-5.079 6.85l-.062.019a7.192 7.192 0 0 1-2.005.286h-30.36c-4.752 0-9.604.226-14.422.672l-.047.005-.081.01c-.068.008-.136.014-.204.024a153.29 153.29 0 0 0-25.668 4.689 22 22 0 0 0 .098-2.012c0-5.781-2.249-11.205-6.323-15.263a17.5 17.5 0 0 0-.552-.526c-8.245-7.706-20.795-7.759-29.08-.324-3.958-3.571-9.036-5.523-14.423-5.523-5.781 0-11.205 2.249-15.263 6.323-8.419 8.419-8.419 22.118 0 30.536l12.788 12.795a153.714 153.714 0 0 0-19.262 17.395 21.401 21.401 0 0 0-13.07-4.432c-5.355 0-10.411 1.935-14.372 5.473-3.966-3.569-9.042-5.52-14.419-5.52-5.757 0-11.179 2.243-15.278 6.328-8.401 8.417-8.401 22.111.005 30.532l23.082 23.082c.043.043.091.079.135.12l-9.69 22.082-.061.144-22.145 50.473a24.854 24.854 0 0 1-22.757 14.864h-4.987a24.853 24.853 0 0 1-22.756-14.859l-22.188-50.571-.067-.149-9.633-21.958c.066-.063.137-.117.202-.182l22.986-22.986c4.083-4.068 6.332-9.493 6.332-15.273a21.462 21.462 0 0 0-6.323-15.274c-8.125-8.123-21.166-8.409-29.636-.85-3.966-3.57-9.042-5.521-14.419-5.521-4.787 0-9.33 1.571-13.095 4.451a150.023 150.023 0 0 0-6.873-6.895l-.048-.046a153.401 153.401 0 0 0-12.287-10.402l12.779-12.778c4.071-4.085 6.313-9.507 6.313-15.263a21.446 21.446 0 0 0-6.323-15.264c-8.125-8.124-21.167-8.409-29.636-.85-3.967-3.57-9.046-5.521-14.429-5.521-5.504 0-10.729 2.062-14.719 5.805a16.89 16.89 0 0 0-.544.518c-4.732 4.732-6.804 11.133-6.217 17.325a153.141 153.141 0 0 0-25.674-4.69c-.069-.01-.139-.016-.209-.024l-.077-.009-.048-.006a157.02 157.02 0 0 0-14.412-.672H22.146a7.206 7.206 0 0 1-2.037-.291c-3.014-.893-5.119-3.717-5.119-6.866v-44.771h19.042c.477.59.973 1.163 1.512 1.702l23.045 23.045a9.325 9.325 0 0 0 6.64 2.75 9.329 9.329 0 0 0 6.638-2.748l23.007-22.997a21.597 21.597 0 0 0 1.55-1.751h64.797c.477.59.973 1.163 1.512 1.702l23.08 23.08a9.387 9.387 0 0 0 6.614 2.706 9.36 9.36 0 0 0 6.64-2.74l22.997-22.996a21.967 21.967 0 0 0 1.552-1.751h64.864c.47.617.962 1.211 1.453 1.702l23.08 23.08a9.386 9.386 0 0 0 6.613 2.705 9.363 9.363 0 0 0 6.641-2.74l22.995-22.995a21.81 21.81 0 0 0 1.554-1.752h64.814c.476.59.972 1.163 1.511 1.701l23.071 23.081a9.387 9.387 0 0 0 6.614 2.706 9.36 9.36 0 0 0 6.639-2.739l23.006-22.996a21.623 21.623 0 0 0 1.551-1.752h18.997v6.816c-.009 4.134 3.347 7.49 7.486 7.49zM301.209 373.086l12.341-28.128c2.82 3.045 4.463 6.98 4.463 11.132 0 8.923-7.408 16.258-16.804 16.996zm19.876-45.306 11.202-25.526.371-.831a16.653 16.653 0 0 1 3.224 9.817c0 8.555-6.487 15.619-14.797 16.54zm21.362-42.224c-.464 0-.917-.042-1.373-.078a138.218 138.218 0 0 1 11.596-16.199 137.26 137.26 0 0 1 5.395-6.109 16.576 16.576 0 0 1 1.031 5.748c0 9.173-7.469 16.638-16.649 16.638zm35.277-32.849a16.61 16.61 0 0 1-6.907-1.509c3.615-2.999 7.361-5.834 11.239-8.432a138.084 138.084 0 0 1 12.273-7.357c.008.22.033.437.033.658.001 9.175-7.464 16.64-16.638 16.64zm44.122-19.617a16.692 16.692 0 0 1-11.722-4.833 138.39 138.39 0 0 1 27.739-7.36c-1.955 7.02-8.387 12.193-16.017 12.193zm62.883-13.911c-2.749 5.415-8.364 9.144-14.844 9.144a16.608 16.608 0 0 1-14.828-9.063c1.489-.048 2.973-.081 4.445-.081h25.227zm-120.583-16.326c1.235-1.239 2.888-1.922 4.654-1.922s3.419.683 4.672 1.941l3.073 3.062a9.31 9.31 0 0 0 6.674 2.794h.001c2.526 0 4.897-.991 6.631-2.749l3.081-3.071c2.52-2.526 6.534-2.6 9.182-.125l.151.14a6.523 6.523 0 0 1 1.922 4.654 6.57 6.57 0 0 1-1.937 4.678l-5.125 5.133c-.345.153-.691.307-1.045.466a7.475 7.475 0 0 0-.35.167 152.512 152.512 0 0 0-16.826 8.954L364.137 212.2c-2.575-2.575-2.575-6.763.009-9.347zm-63.613 71.922c-2.572-2.577-2.572-6.771-.014-9.333a6.598 6.598 0 0 1 4.683-1.941 6.56 6.56 0 0 1 4.672 1.941l3.109 3.099a9.22 9.22 0 0 0 3.006 2.02 9.352 9.352 0 0 0 10.271-2.02l3.058-3.058a6.566 6.566 0 0 1 4.672-1.935 6.55 6.55 0 0 1 3.354.922 153.474 153.474 0 0 0-13.907 21.673l-.042.08a154.542 154.542 0 0 0-3.726 7.583l-.054.054-19.082-19.085zM74.135 220.896a138.149 138.149 0 0 1 27.737 7.36 16.69 16.69 0 0 1-11.72 4.834c-7.632 0-14.062-5.174-16.017-12.194zm43.498 15.172c0-.21.024-.416.032-.625 4.227 2.247 8.355 4.687 12.312 7.349 3.865 2.592 7.599 5.418 11.2 8.406a16.598 16.598 0 0 1-6.906 1.509c-9.173 0-16.638-7.465-16.638-16.639zm35.278 32.849c0-1.973.353-3.914 1.026-5.742a138.917 138.917 0 0 1 5.373 6.077 139.134 139.134 0 0 1 11.62 16.242 17.05 17.05 0 0 1-1.38.062c-9.175 0-16.639-7.465-16.639-16.639zm23.204 42.322c0-3.581 1.168-7.002 3.22-9.811.13.282.26.563.39.859l11.183 25.49c-8.309-.926-14.793-7.986-14.793-16.538zm17.869 44.851c0-4.152 1.643-8.088 4.463-11.133l12.341 28.128c-9.398-.742-16.804-8.074-16.804-16.995zm-11.308-90.649 3.107 3.097c2.617 2.62 6.548 3.456 9.956 2.153a9.266 9.266 0 0 0 3.324-2.151l3.058-3.058c2.574-2.573 6.764-2.575 9.337-.001a6.566 6.566 0 0 1 1.933 4.674 6.531 6.531 0 0 1-1.932 4.664l-19.04 19.04-.11-.11a144.2 144.2 0 0 0-3.807-7.711 154.293 154.293 0 0 0-13.878-21.602 6.569 6.569 0 0 1 3.379-.935 6.553 6.553 0 0 1 4.673 1.94zm-72.952-62.56.204-.188a6.489 6.489 0 0 1 4.478-1.762c1.768 0 3.428.687 4.674 1.932l3.073 3.073a9.313 9.313 0 0 0 6.679 2.792h.001c2.53 0 4.902-.992 6.642-2.757l3.058-3.058a6.611 6.611 0 0 1 9.338 0 6.552 6.552 0 0 1 1.932 4.664c0 1.764-.69 3.427-1.932 4.673l-14.747 14.747a153.95 153.95 0 0 0-16.903-9 5.3 5.3 0 0 0-.186-.088l-.091-.042c-.324-.146-.651-.287-.974-.43l-5.229-5.236a6.56 6.56 0 0 1-1.935-4.669 6.547 6.547 0 0 1 1.918-4.651zm-52.78 16.378a16.596 16.596 0 0 1-14.831 9.063c-6.481 0-12.094-3.729-14.843-9.144h25.237c1.468.001 2.95.033 4.437.081zm8.285-56.809-10.187-10.187h20.38L65.229 162.45zm127.191.004-10.191-10.191h20.384l-10.193 10.191zm127.197.001-10.193-10.192h20.386l-10.193 10.192zm127.198-.001-10.187-10.191h20.383l-10.196 10.191z"/></svg>