<svg xmlns="http://www.w3.org/2000/svg" viewBox="0 0 512.001 512.001" style="enable-background:new 0 0 512.001 512.001" xml:space="preserve"><path style="fill:#9ad14b" d="M407.455 156.636c7.893 1.316 13.232 8.785 11.905 16.678-1.316 7.904-8.785 13.232-16.678 11.916-7.893-1.316-13.232-8.785-11.916-16.689 1.315-7.893 8.784-13.231 16.689-11.905z"/><path style="fill:#2ba5f7" d="M319.095 229.492c7.187 3.523 10.155 12.21 6.621 19.396-3.523 7.187-12.21 10.155-19.396 6.621s-10.155-12.221-6.621-19.396c3.533-7.186 12.22-10.154 19.396-6.621z"/><path style="fill:#f95428" d="M93.133 161.344c8.013 0 14.504 6.491 14.504 14.493s-6.491 14.493-14.504 14.493c-8.002 0-14.493-6.491-14.493-14.493s6.491-14.493 14.493-14.493z"/><path style="fill:#e09b2d" d="m147.474 230.177 20.462-20.451a57.843 57.843 0 0 1 40.924-16.95c3.218 0 4.327-4.251 1.544-5.838-28.823-16.483-48.241-47.523-48.241-83.109 0-21.799 7.295-41.902 19.57-57.983 18.179-23.821 47.284-38.858 79.836-37.619 22.93.87 43.772 9.894 59.798 24.202 19.853 17.711 32.313 43.522 32.15 71.954-.196 35.335-19.559 66.137-48.219 82.543-1.098.631-1.598 1.674-1.598 2.707 0 1.587 1.174 3.142 3.12 3.142a57.921 57.921 0 0 1 40.935 16.95l43.577 43.577 32.15 32.15c6.578 6.589 9.872 15.221 9.872 23.854a33.629 33.629 0 0 1-9.872 23.832c-13.166 13.166-34.509 13.166-47.676 0l-35.988-35.988 8.459 82.358 8.926 86.947c.12 1.185.185 2.359.185 3.512 0 18.483-15.015 33.878-33.933 33.878-17.276 0-31.78-12.993-33.704-30.16l-9.742-74.215c-1.261-11.286-10.807-19.831-22.169-19.831s-20.908 8.546-22.169 19.831l-9.742 74.215c-.968 8.589-5.067 16.135-11.101 21.517a33.772 33.772 0 0 1-22.604 8.644c-20.103 0-35.792-17.385-33.748-37.39l3.631-35.39v-.011l13.754-133.905-35.988 35.988c-6.589 6.589-15.21 9.872-23.843 9.872-8.622 0-17.255-3.283-23.832-9.872-13.166-13.166-13.166-34.509 0-47.686l55.276-55.275zM306.32 255.51c7.187 3.534 15.874.565 19.396-6.621 3.534-7.187.565-15.874-6.621-19.396-7.176-3.534-15.863-.565-19.396 6.621-3.534 7.175-.566 15.862 6.621 19.396z"/><path style="fill:#c9841f" d="m177.027 466.456 3.631-35.39v-.011l11.859-115.451c1.014-9.871-6.732-18.454-16.655-18.454l-16.403 133.905v.011l-3.631 35.39c-2.044 20.005 13.645 37.39 33.748 37.39 3.688 0 7.246-.596 10.585-1.694-14.684-4.829-24.801-19.39-23.134-35.696zM110.749 333.139c-13.166-13.166-13.166-34.509 0-47.686l55.275-55.275 20.462-20.451a57.843 57.843 0 0 1 40.924-16.95c3.218 0 4.327-4.251 1.544-5.838-28.823-16.483-48.241-47.523-48.241-83.109 0-21.799 7.295-41.902 19.57-57.983 15.45-20.246 38.793-34.137 65.434-37.094a95.177 95.177 0 0 0-6.799-.524c-32.552-1.239-61.657 13.797-79.836 37.619-12.275 16.08-19.57 36.183-19.57 57.983 0 35.585 19.418 66.626 48.241 83.109 2.783 1.587 1.674 5.838-1.544 5.838a57.848 57.848 0 0 0-40.924 16.95l-20.462 20.451-55.275 55.275c-13.166 13.177-13.166 34.52 0 47.686 6.578 6.589 15.21 9.872 23.832 9.872 3.585 0 7.166-.575 10.603-1.709a33.491 33.491 0 0 1-13.234-8.164zM308.301 473.686l-9.742-74.215c-1.261-11.286-10.807-19.831-22.169-19.831-3.825 0-7.433.987-10.601 2.702 6.24 3.38 10.732 9.643 11.569 17.128l9.742 74.215c1.924 17.168 16.428 30.16 33.704 30.16 3.716 0 7.278-.601 10.608-1.696-12.303-4.047-21.598-14.961-23.111-28.463z"/><path style="fill:#333" d="m429.245 279.691-29.186-29.186 9.573-57.392a22.583 22.583 0 0 0 8.597-3.748 22.5 22.5 0 0 0 9.177-14.707 22.489 22.489 0 0 0-3.909-16.889 22.493 22.493 0 0 0-14.706-9.178c-5.972-.996-11.967.392-16.889 3.909a22.495 22.495 0 0 0-9.178 14.706 22.492 22.492 0 0 0 3.909 16.89 22.564 22.564 0 0 0 6.915 6.331l-7.657 45.91-22.248-22.248c4.175-1.237 6.668-5.556 5.586-9.815a8.158 8.158 0 0 0-9.91-5.897l-9.27 2.354c-8.364-7.264-18.271-12.229-28.941-14.57 25.137-19.378 40.383-49.575 40.565-81.729.12-21.289-6.264-41.752-18.173-59.092 2.942-.65 5.417-2.889 6.179-6.014a8.157 8.157 0 0 0-5.993-9.854l-10.663-2.599 1.604-3.381a8.154 8.154 0 1 0-14.734-6.988l-1.47 3.1C301.972 7.69 282.445.859 261.88.077 233.345-1 206.351 9.274 185.836 29.024a107.195 107.195 0 0 0-4.638 4.763l-4.534-4.534a8.152 8.152 0 0 0-11.531 0 8.154 8.154 0 0 0-.234 11.289l-6.493 1.146a8.155 8.155 0 0 0 2.833 16.06l3.824-.675c-7.228 14.3-11.054 30.206-11.054 46.76 0 32.401 15.251 62.824 40.563 82.327-12.184 2.675-23.372 8.769-32.406 17.801l-14.685 14.685-33.645-33.645a22.5 22.5 0 0 0 1.955-9.164c0-12.49-10.161-22.65-22.65-22.65-12.49 0-22.652 10.161-22.652 22.65s10.161 22.65 22.652 22.65a22.49 22.49 0 0 0 9.163-1.954l33.645 33.645-43.41 43.41-3.464-3.88a8.154 8.154 0 0 0-12.166 10.861l4.56 5.108c-4.741 6.907-7.3 15.067-7.3 23.624 0 11.184 4.359 21.698 12.262 29.595 7.899 7.912 18.411 12.27 29.604 12.27 11.186 0 21.701-4.355 29.611-12.264l19.767-19.767-9.657 94.038-.66-.66c-3.186-3.185-8.349-3.185-11.531 0a8.151 8.151 0 0 0-.001 11.531l5.045 5.045-4.978 2.687a8.153 8.153 0 0 0-3.302 11.049 8.15 8.15 0 0 0 11.048 3.303l1.055-.57-2.061 20.076A42.156 42.156 0 0 0 161 498.125a42.137 42.137 0 0 0 31.228 13.878 41.962 41.962 0 0 0 28.042-10.714 42.062 42.062 0 0 0 13.761-26.606l9.732-74.148a14.136 14.136 0 0 1 14.081-12.732c7.215 0 13.26 5.407 14.062 12.577.005.052.012.104.018.155l9.733 74.151c2.426 21.282 20.383 37.317 41.802 37.317 23.205 0 42.084-18.857 42.084-42.035 0-1.436-.077-2.902-.227-4.337l-8.272-80.544 8.426-2.949a8.154 8.154 0 0 0 5.003-10.39 8.154 8.154 0 0 0-10.391-5.003l-4.751 1.662-5.06-49.272 19.767 19.767c7.911 7.911 18.427 12.267 29.609 12.267 11.184 0 21.697-4.358 29.601-12.267 7.909-7.91 12.264-18.421 12.264-29.599-.002-11.187-4.357-21.703-12.267-29.612zm-30.436-109.803a6.303 6.303 0 0 1 2.57-4.117 6.295 6.295 0 0 1 4.73-1.094 6.297 6.297 0 0 1 4.117 2.57 6.305 6.305 0 0 1 1.095 4.728 6.301 6.301 0 0 1-2.57 4.117 6.303 6.303 0 0 1-4.729 1.095c-1.67-.278-3.133-1.192-4.117-2.57s-1.374-3.058-1.096-4.729zm-312.013 5.949c0-3.498 2.845-6.342 6.343-6.342s6.342 2.845 6.342 6.342-2.844 6.342-6.342 6.342-6.343-2.844-6.343-6.342zm330.915 151.534c-4.825 4.828-11.241 7.488-18.066 7.488-6.826 0-13.247-2.66-18.076-7.491L345.58 291.38a8.156 8.156 0 0 0-13.878 6.6l17.389 169.331c.092.89.14 1.784.14 2.655 0 14.185-11.563 25.726-25.775 25.726-13.134 0-24.141-9.849-25.606-22.909l-.018-.153-9.732-74.148c-1.762-15.394-14.756-26.992-30.26-26.992-15.502 0-28.495 11.595-30.26 26.986l-9.733 74.152c-.007.049-.012.099-.018.148a25.776 25.776 0 0 1-8.441 16.358 25.678 25.678 0 0 1-17.164 6.557c-7.383 0-14.175-3.018-19.123-8.498-4.95-5.483-7.263-12.551-6.509-19.9l17.387-169.315a8.158 8.158 0 0 0-4.61-8.198 8.158 8.158 0 0 0-9.268 1.598l-35.988 35.988c-4.83 4.828-11.251 7.488-18.08 7.488-6.83 0-13.245-2.657-18.069-7.49-4.828-4.825-7.489-11.24-7.489-18.066 0-6.827 2.66-13.247 7.492-18.078l49.512-49.513 16 16a8.134 8.134 0 0 0 5.767 2.389 8.131 8.131 0 0 0 5.767-2.389 8.152 8.152 0 0 0 0-11.531l-16.001-16 14.685-14.685c9.394-9.393 21.881-14.565 35.168-14.565 5.186 0 9.563-3.364 10.895-8.37 1.334-5.015-.8-10.119-5.31-12.7-27.221-15.573-44.132-44.703-44.132-76.025 0-24.01 9.529-46.405 26.83-63.061 17.293-16.648 40.088-25.31 64.113-24.398 22.694.862 43.914 10.463 59.749 27.031 15.833 16.565 24.483 38.206 24.353 60.933-.175 31.103-17.078 60.036-44.112 75.51-4.517 2.585-6.656 7.697-5.321 12.719 1.331 5.001 5.707 8.362 10.891 8.362 13.283 0 25.77 5.172 35.161 14.565l40.611 40.611-2.413 14.466a8.155 8.155 0 0 0 16.086 2.683l.497-2.979 20.951 20.951c4.828 4.828 7.489 11.25 7.489 18.079-.001 6.819-2.662 13.236-7.492 18.068z"/><path style="fill:#333" d="m209.263 110.186 6.535-6.535 6.535 6.535a8.126 8.126 0 0 0 5.766 2.389 8.131 8.131 0 0 0 5.767-2.389 8.151 8.151 0 0 0-.001-11.531l-6.534-6.534 6.534-6.534a8.151 8.151 0 0 0 .001-11.531c-3.186-3.185-8.349-3.186-11.531 0l-6.535 6.535-6.535-6.535a8.151 8.151 0 0 0-11.531 0 8.151 8.151 0 0 0 .001 11.531l6.534 6.534-6.534 6.534a8.151 8.151 0 0 0-.001 11.531 8.128 8.128 0 0 0 5.767 2.389 8.128 8.128 0 0 0 5.762-2.389zM281.811 110.186a8.128 8.128 0 0 0 5.767 2.389 8.127 8.127 0 0 0 5.766-2.389l6.535-6.535 6.535 6.535c1.592 1.593 3.679 2.389 5.766 2.389s4.174-.796 5.767-2.389a8.151 8.151 0 0 0-.001-11.531l-6.534-6.534 6.534-6.534a8.151 8.151 0 0 0 .001-11.531c-3.186-3.185-8.349-3.186-11.531 0l-6.535 6.535-6.535-6.535a8.151 8.151 0 0 0-11.531 0 8.151 8.151 0 0 0 .001 11.531l6.534 6.534-6.534 6.534a8.148 8.148 0 0 0-.005 11.531zM262.489 151.918a8.154 8.154 0 1 0 16.308 0v-3.443h9.302v3.443a8.154 8.154 0 1 0 16.308 0v-3.443h3.081a8.154 8.154 0 0 0 8.154-8.154 8.154 8.154 0 0 0-8.154-8.154h-3.081v-2.356a8.154 8.154 0 1 0-16.308 0v2.356h-9.302v-2.356a8.154 8.154 0 1 0-16.308 0v2.356h-9.302v-2.356a8.154 8.154 0 1 0-16.308 0v2.356h-9.301v-2.356a8.154 8.154 0 1 0-16.308 0v2.356h-3.081a8.154 8.154 0 0 0-8.154 8.154 8.154 8.154 0 0 0 8.154 8.154h3.081v3.443a8.154 8.154 0 1 0 16.308 0v-3.443h9.301v3.443a8.154 8.154 0 1 0 16.308 0v-3.443h9.302v3.443zM322.695 222.169a22.517 22.517 0 0 0-17.301-1.107 22.499 22.499 0 0 0-13.015 11.451 22.504 22.504 0 0 0-1.108 17.301 22.572 22.572 0 0 0 4.806 8.05l-35.819 72.929a8.154 8.154 0 0 0 7.313 11.751 8.15 8.15 0 0 0 7.325-4.561l35.819-72.929c.653.057 1.306.094 1.958.094 8.371 0 16.435-4.656 20.367-12.662a22.513 22.513 0 0 0 1.107-17.301 22.5 22.5 0 0 0-11.452-13.016zm-4.293 23.125c-1.543 3.14-5.354 4.439-8.49 2.897a6.302 6.302 0 0 1-3.206-3.644 6.307 6.307 0 0 1 .31-4.845 6.31 6.31 0 0 1 3.646-3.206 6.313 6.313 0 0 1 4.844.311 6.302 6.302 0 0 1 3.206 3.644 6.302 6.302 0 0 1-.31 4.843z"/></svg>