<svg xmlns="http://www.w3.org/2000/svg" viewBox="0 0 512.001 512.001" style="enable-background:new 0 0 512.001 512.001" xml:space="preserve"><path style="fill:#f7cf9c" d="M396.168 161.083c.024-.05.054-.094.08-.143l-15.696-22.579a14.524 14.524 0 0 0-11.928-6.235H102.778a14.97 14.97 0 0 0-12.293 6.427L30.46 224.9h.009a9.153 9.153 0 0 1 6.683-2.896h398.513l-39.497-60.921z"/><path style="fill:#eab883" d="M123.497 138.552a14.972 14.972 0 0 1 12.293-6.426h-33.014a14.972 14.972 0 0 0-12.293 6.426l-60.024 86.347h.009a9.153 9.153 0 0 1 6.683-2.896h28.334l58.012-83.451z"/><path style="fill:#eab883" d="M434.018 221.004H37.152a9.19 9.19 0 0 0-9.189 9.189V480.25c0 13.394 10.858 24.252 24.252 24.252h366.74c13.394 0 24.252-10.858 24.252-24.252V230.193c-.001-5.075-4.115-9.189-9.189-9.189z"/><path style="fill:#e0a773" d="M57.959 480.25V230.193a9.189 9.189 0 0 1 9.189-9.189H37.151a9.19 9.19 0 0 0-9.189 9.189V480.25c0 13.394 10.858 24.252 24.252 24.252h29.997c-13.395-.001-24.252-10.858-24.252-24.252z"/><path style="fill:#f94a46" d="m199.528 174.488-42.524-24.551c-5.082-2.935-6.823-9.432-3.89-14.514L223.9 12.819c2.935-5.082 9.433-6.823 14.514-3.89l92.231 53.249c5.081 2.934 6.823 9.432 3.889 14.514l-56.462 97.794h-78.544v.002z"/><path style="fill:#ed3e3e" d="M250.238 28.407c2.341-4.054 6.583-6.314 10.951-6.329L238.415 8.929c-5.081-2.935-11.58-1.193-14.514 3.89l-70.785 122.604c-2.934 5.082-1.193 11.58 3.89 14.514l17.301 9.989 75.931-131.519z"/><path style="fill:#70b5e8" d="M377.793 329.077c-14.613 0-26.46-11.846-26.46-26.46H115.569c0 14.613-11.847 26.46-26.46 26.46a4.736 4.736 0 0 0-4.736 4.736v65.475c0 4.49 5.119 4.908 4.736 4.736 14.613 0 26.46 11.846 26.46 26.46h235.763c0-14.613 11.847-26.46 26.46-26.46a6.543 6.543 0 0 0 6.543-6.543V335.62a6.542 6.542 0 0 0-6.542-6.543z"/><path style="fill:#52a5d8" d="M119.106 391.026a4.736 4.736 0 0 1-4.736-4.736v-39.478a4.736 4.736 0 0 1 4.736-4.736c17.596-4.082 28.344-26.83 26.46-39.458H115.57c0 14.613-11.847 26.46-26.46 26.46a4.736 4.736 0 0 0-4.736 4.736v65.475a4.736 4.736 0 0 0 4.736 4.736c14.613 0 26.46 11.846 26.46 26.46h29.996c1.884-12.628-8.864-35.375-26.46-39.459z"/><path style="fill:#92b620" d="m481.536 211.268-5.194-5.064c-7.525-7.333-3.105-16.278-3.006-19.973a8.273 8.273 0 0 0-6.968-9.591c-3.525-1.04-13.505.333-18.131-9.04l-3.217-6.517a8.274 8.274 0 0 0-11.275-3.664c-3.463 1.23-10.711 8.198-19.962 3.334l-6.341-3.334c-4.066-2.137-9.188-.565-11.274 3.664-2.101 3.069-3.879 13.018-14.236 14.523l-7.11 1.033a8.271 8.271 0 0 0-6.968 9.591c.097 3.641 4.476 12.681-3.006 19.973l-5.194 5.064a8.272 8.272 0 0 0 0 11.855l5.194 5.063c7.524 7.334 3.105 16.279 3.006 19.975a8.272 8.272 0 0 0 6.968 9.591c3.518 1.038 13.504-.333 18.131 9.04 2.097 3.051 3.244 11.136 10.651 11.136 3.199 0 4.672-1.623 10.182-4.289 9.313-4.897 16.397 2.067 19.962 3.334a8.272 8.272 0 0 0 11.275-3.663l3.217-6.517c4.651-9.427 14.534-7.979 18.131-9.04a8.272 8.272 0 0 0 6.968-9.591l-1.204-7.019c-1.779-10.371 7.086-15.008 9.404-18.018a8.278 8.278 0 0 0-.003-11.856z"/><path style="fill:#83a00b" d="M393.275 240.061c-15.988-27.692-7.674-62.727 18.304-80.468l-4.135-2.174c-4.066-2.137-9.188-.565-11.275 3.664-2.101 3.069-3.879 13.018-14.236 14.523l-7.11 1.034a8.271 8.271 0 0 0-6.968 9.591c.097 3.641 4.476 12.681-3.006 19.973l-5.194 5.064a8.272 8.272 0 0 0 0 11.855l5.194 5.063c7.524 7.334 3.105 16.279 3.006 19.975a8.272 8.272 0 0 0 6.968 9.591c3.518 1.038 13.504-.333 18.131 9.04 2.097 3.051 3.244 11.136 10.651 11.136 3.199 0 4.673-1.623 10.182-4.289 9.313-4.896 16.397 2.067 19.962 3.334a8.272 8.272 0 0 0 11.275-3.663l1.426-2.889c-21.174.178-41.834-10.715-53.175-30.36z"/><path d="M135.334 342.823c17.947 56.107 15.134 55.144 19.783 57.189 4.987 2.196 13.228 1.251 14.672-3.437 16.566-54.545 16.566-53.943 16.566-54.721 0-4.764-11.69-8.246-13.306-3.085L160.8 383.975l-12.336-45.205c-1.665-5.294-14.543-1.548-13.13 4.053zM192.434 390.012c1.115 2.614 6.241 8.595 11.412 10.045 5.235 1.471 11.744 1.474 17.051 0 7.678-2.13 13.129-8.433 13.129-19.694-.868-19.294 2.884-31.537-6.256-39.434-8.795-7.594-37.01-8.844-37.01 16.082.375 20.492-1.009 26.722 1.674 33.001zm14.143-39.698c2.789-2.85 8.745-2.843 11.588 0 3.44 3.44 1.598 9.049 2.115 30.049 0 3.056-.705 5.286-2.115 6.696-2.844 2.844-8.8 2.849-11.588 0-1.381-1.41-2.071-3.642-2.071-6.696.512-21.271-1.294-26.614 2.071-30.049zM267.863 396.4v-47.848c11.143-.472 13.502 1.201 15.245-1.851 2.046-3.58 1.211-10.486-3.085-10.486-39.165.625-39.54-1.459-41.239 1.938-1.93 3.857-.964 10.398 3.172 10.398h12.16v47.848c.001 5.685 13.747 5.571 13.747.001zM291.479 399.572c3.226 1.842 3.583.729 35.513 1.058 4.217 0 5.159-6.631 3.085-10.178-1.835-3.134-3.261-1.263-26.701-1.807v-14.98c12.333-.448 14.794 1.108 16.391-1.719 2.018-3.581.698-8.855-3.173-8.855h-13.218v-14.893c23.146-.536 24.862 1.336 26.701-1.807 1.252-2.137 1.533-5.452.088-8.283-1.697-3.31-2.797-1.303-34.543-1.895-2.742 0-5.992 1.22-5.992 4.229.613 58.16-1.532 57.198 1.849 59.13zM115.569 281.273h235.763c4.142 0 7.499-3.357 7.499-7.499s-3.357-7.499-7.499-7.499H115.569a7.498 7.498 0 0 0-7.499 7.499 7.498 7.498 0 0 0 7.499 7.499zM351.332 451.919H115.569a7.5 7.5 0 0 0 0 14.998h235.763a7.498 7.498 0 0 0 7.499-7.499 7.498 7.498 0 0 0-7.499-7.499zM444.534 200.171a7.498 7.498 0 0 0-10.58.733l-19.908 22.875-6.395-7.946a7.5 7.5 0 0 0-11.685 9.405l12.014 14.924c2.928 3.636 8.433 3.742 11.499.221l25.789-29.632a7.5 7.5 0 0 0-.734-10.58z"/><path d="M377.793 411.524c7.743 0 14.042-6.299 14.042-14.042V335.62c0-7.743-6.299-14.042-14.042-14.042-10.456 0-18.962-8.506-18.962-18.961a7.498 7.498 0 0 0-7.499-7.499H178.084c-4.142 0-7.499 3.357-7.499 7.499s3.357 7.499 7.499 7.499h166.583c3.356 14.829 16.444 26.01 32.17 26.446v59.977c-15.726.436-28.813 11.618-32.17 26.447H122.236c-3.227-14.258-15.45-25.143-30.363-26.35v-60.172c14.913-1.207 27.138-12.091 30.363-26.349h20.852c4.142 0 7.499-3.357 7.499-7.499s-3.357-7.499-7.499-7.499H115.57a7.498 7.498 0 0 0-7.499 7.499c0 10.455-8.506 18.961-18.962 18.961-6.747 0-12.235 5.488-12.235 12.235v65.474c0 6.747 5.488 12.235 12.235 12.235 10.456 0 18.962 8.506 18.962 18.962a7.498 7.498 0 0 0 7.499 7.499h235.762a7.498 7.498 0 0 0 7.499-7.499c0-10.453 8.506-18.959 18.962-18.959z"/><path d="M481.576 200.833c-6.142-5.987 4.042-14.714-3.633-25.277-7.648-10.528-19.194-3.599-22.981-11.275-2.469-3.881-3.677-11.678-12.485-14.541-12.373-4.02-17.675 8.336-25.203 4.375-2.938-.637-9.529-7.913-19.444-4.039l-11.121-15.996a22.033 22.033 0 0 0-18.086-9.455H315.52l25.51-44.183c4.996-8.654 2.02-19.761-6.635-24.757l-92.231-53.25c-8.692-5.018-19.76-2.025-24.758 6.634L205.229 30.16a7.499 7.499 0 1 0 12.989 7.499l12.177-21.091a3.118 3.118 0 0 1 1.898-1.457 3.12 3.12 0 0 1 2.372.313l92.23 53.25a3.13 3.13 0 0 1 1.146 4.27l-54.297 94.044h-72.207l-40.783-23.546a3.133 3.133 0 0 1-1.54-3.095c.111-.899-2.555 3.934 41.502-72.374a7.499 7.499 0 0 0-2.745-10.244 7.497 7.497 0 0 0-10.244 2.745l-37.037 64.151h-47.912a22.486 22.486 0 0 0-18.451 9.645c-64.566 93.809-63.863 88.759-63.863 96.922V480.25c0 17.508 14.243 31.751 31.751 31.751h364.392c18.803 0 34.099-15.296 34.099-34.099 0-4.142-3.357-7.499-7.499-7.499s-7.499 3.357-7.499 7.499c0 10.532-8.568 19.101-19.101 19.101H52.214c-9.237 0-16.753-7.516-16.753-16.753.173-256.332-.983-250.739 1.685-250.747l315.019-.001 4.441 4.329c6.426 6.264-4.082 15.167 3.746 25.941 7.823 10.769 19.608 3.547 23.577 11.588 1.826 2.475 4.551 15.597 17.644 15.597 5.103 0 7.851-2.099 13.929-5.259 6.813-3.583 10.935 4.815 20.206 5.255V441.92c0 4.142 3.357 7.499 7.499 7.499s7.499-3.357 7.499-7.499V278.4c1.105-1.664 1.098-2.003 4.256-8.293 2.514-5.094 8.17-3.817 12.979-5.017 8.397-1.485 14.278-9.495 12.785-18.198l-1.204-7.021c-1.449-8.455 12.014-9.623 12.014-22.678-.002-9.229-7.151-12.954-9.96-16.36zm-119.86-4.951c-.075 7.171-10.049 8.207-11.859 18.623H46.818l49.823-71.672a7.473 7.473 0 0 1 6.136-3.209h41.451a18.247 18.247 0 0 0 3.792 12.232c2.978 3.837 4.347 4.021 23.521 15.131h-10.955c-4.142 0-7.499 3.357-7.499 7.499s3.357 7.499 7.499 7.499h159.06c4.142 0 7.499-3.357 7.499-7.499s-3.357-7.499-7.499-7.499h-28.584l15.799-27.364h61.763a7.027 7.027 0 0 1 5.77 3.018l13.17 18.945c-.971 2.12-2.093 4.381-3.973 5.594-4.48 2.892-13.933-.451-20.346 8.377-5.725 7.884-1.474 15.108-1.529 20.325zm103.025 46.524c1.182 7.354 1.406 7.146 1.068 7.611-1.244 1.713-17.024-1.287-24.297 13.453l-3.217 6.516c-.414.835-1.251.398-3.609-.965-12.178-7.048-18.537-5.377-28.704.235-3.9 2.151-2.092 1.907-6.306-5.787-7.232-14.654-22.996-11.663-24.297-13.453-1.207-1.662 6.453-15.748-5.298-27.203-5.717-5.604-5.133-4.945-5.305-5.222-.48-.778.153-.92 5.306-6.018 12.516-12.2 2.813-27.071 5.817-27.514l7.109-1.034c17.449-2.535 18.25-20.371 20.943-18.97l6.341 3.334c14.496 7.619 25.589-4.03 27.546-3.388.551.178.252.159 3.673 6.915 7.241 14.673 22.971 11.638 24.297 13.452 1.22 1.68-6.46 15.744 5.298 27.202l5.193 5.063.001.001c2.211 2.159-14.555 8.305-11.559 25.772z"/></svg>