<svg height="512pt" viewBox="-56 0 512 512" width="512pt" xmlns="http://www.w3.org/2000/svg"><path d="M312 188c0 6.16-15.512 11.68-40 15.36-19.441 2.878-44.559 4.64-72 4.64s-52.559-1.762-72-4.64c-24.48-3.68-40-9.2-40-15.36 0-6.32 16.398-12 42.078-15.68L128 184h144l-2.078-11.602C295.602 176.078 312 181.68 312 188zm0 0" fill="#656d78"/><path d="M269.922 172.398 272 184H128l2.078-11.68L144 96c24 0 32 16 56 16s32-16 56-16zm0 0" fill="#656d78"/><path d="M152 320v64h-48v-24c0-22.078 17.84-40 40-40zm0 0" fill="#4a89dc"/><path d="M168 296.398c9.602 4.809 20.488 7.524 32 7.524 11.52 0 22.398-2.723 32-7.524V320l-16 16-16-8-16 8-16-16zm0 0" fill="#5d9cec"/><path d="M248 320v64h-96v-64h16l16 16 16-8 16 8 16-16zM296 360v24h-48v-64h8c22.078 0 40 17.922 40 40zm0 0" fill="#4a89dc"/><path d="M272 231.922V232c0 28.238-16.32 52.64-40 64.398-9.602 4.809-20.48 7.524-32 7.524-11.512 0-22.398-2.723-32-7.524-23.68-11.757-40-36.16-40-64.398v-28.64c19.441 2.878 44.559 4.64 72 4.64s52.559-1.762 72-4.64zm0 0" fill="#eac6bb"/><path d="M88 188c0 6.16 15.52 11.68 40 15.36V232c0 28.238 16.32 52.64 40 64.398V320h-24c-22.16 0-40 17.922-40 40v24H56V56h288v328h-48v-24c0-22.078-17.922-40-40-40h-24v-23.602c23.68-11.757 40-36.16 40-64.398v-28.64c24.488-3.68 40-9.2 40-15.36 0-6.32-16.398-11.922-42.078-15.602L256 96c-24 0-32 16-56 16s-32-16-56-16l-13.922 76.32C104.398 176 88 181.68 88 188zm0 0" fill="#e6e9ed"/><path d="M8 8v496h384V8zm336 376H56V56h288zm0 0" fill="#f5f7fa"/><path d="M32.238 40c-4.422 0-8.039-3.574-8.039-8s3.535-8 7.953-8h.086c4.418 0 8 3.574 8 8s-3.582 8-8 8zM32.238 488c-4.422 0-8.039-3.574-8.039-8s3.535-8 7.953-8h.086c4.418 0 8 3.574 8 8s-3.582 8-8 8zM368.238 40c-4.422 0-8.039-3.574-8.039-8s3.535-8 7.953-8h.086c4.418 0 8 3.574 8 8s-3.582 8-8 8zM368.238 488c-4.422 0-8.039-3.574-8.039-8s3.535-8 7.953-8h.086c4.418 0 8 3.574 8 8s-3.582 8-8 8zm0 0"/><path d="M392 512H8a7.99 7.99 0 0 1-8-8V8c0-4.426 3.574-8 8-8h384c4.426 0 8 3.574 8 8v496c0 4.426-3.574 8-8 8zM16 496h368V16H16zm0 0"/><path d="M344 392H56a7.99 7.99 0 0 1-8-8V56c0-4.426 3.574-8 8-8h288c4.426 0 8 3.574 8 8v328c0 4.426-3.574 8-8 8zM64 376h272V64H64zm0 0"/><path d="M104 368a7.99 7.99 0 0 1-8-8c0-26.473 21.527-48 48-48 4.426 0 8 3.574 8 8s-3.574 8-8 8c-17.648 0-32 14.352-32 32 0 4.426-3.574 8-8 8zm0 0"/><path d="M168 328h-24c-4.426 0-8-3.574-8-8s3.574-8 8-8h24c4.426 0 8 3.574 8 8s-3.574 8-8 8zM296 368a7.99 7.99 0 0 1-8-8c0-17.648-14.352-32-32-32-4.426 0-8-3.574-8-8s3.574-8 8-8c26.473 0 48 21.527 48 48 0 4.426-3.574 8-8 8zm0 0"/><path d="M256 328h-24c-4.426 0-8-3.574-8-8s3.574-8 8-8h24c4.426 0 8 3.574 8 8s-3.574 8-8 8zM128 239.984c-4.426 0-8-3.578-8-8v-28.656c0-4.426 3.574-8 8-8s8 3.574 8 8v28.656c0 4.422-3.574 8-8 8zM272 239.984c-4.426 0-8-3.578-8-8v-28.656c0-4.426 3.574-8 8-8s8 3.574 8 8v28.656c0 4.422-3.574 8-8 8zM128 192.008c-.48 0-.953-.04-1.441-.137a7.989 7.989 0 0 1-6.438-9.297l16-88.008c.781-4.351 4.969-7.285 9.293-6.437a7.989 7.989 0 0 1 6.441 9.297l-16 88.008c-.687 3.87-4.054 6.574-7.855 6.574zM272 192.008c-3.8 0-7.168-2.703-7.855-6.567l-16-88.007c-.801-4.344 2.085-8.504 6.44-9.297 4.345-.856 8.513 2.086 9.294 6.437l16 88.012c.8 4.344-2.086 8.504-6.438 9.293-.488.09-.96.129-1.441.129zm0 0"/><path d="M200 120c-13.887 0-23.29-4.695-31.574-8.84-7.692-3.847-14.32-7.16-24.434-7.16-4.426 0-8-3.574-8-8s3.574-8 8-8c13.887 0 23.29 4.695 31.574 8.84 7.692 3.847 14.32 7.16 24.434 7.16s16.742-3.313 24.434-7.16c8.285-4.145 17.687-8.84 31.574-8.84 4.426 0 8 3.574 8 8s-3.574 8-8 8c-10.113 0-16.742 3.313-24.434 7.16C223.29 115.305 213.887 120 200 120zM104 392a7.99 7.99 0 0 1-8-8v-24c0-4.426 3.574-8 8-8s8 3.574 8 8v24c0 4.426-3.574 8-8 8zM296 392a7.99 7.99 0 0 1-8-8v-24c0-4.426 3.574-8 8-8s8 3.574 8 8v24c0 4.426-3.574 8-8 8zM152 392a7.99 7.99 0 0 1-8-8v-64c0-4.426 3.574-8 8-8s8 3.574 8 8v64c0 4.426-3.574 8-8 8zM248 392a7.99 7.99 0 0 1-8-8v-64c0-4.426 3.574-8 8-8s8 3.574 8 8v64c0 4.426-3.574 8-8 8zM200 311.91c-44.113 0-80-35.887-80-80 0-4.422 3.574-8 8-8s8 3.578 8 8c0 35.29 28.71 64 64 64s64-28.71 64-64c0-4.422 3.574-8 8-8s8 3.578 8 8c0 44.113-35.887 80-80 80zm0 0"/><path d="M168 328a7.99 7.99 0 0 1-8-8v-23.586c0-4.422 3.574-8 8-8s8 3.578 8 8V320c0 4.426-3.574 8-8 8zM232 328a7.99 7.99 0 0 1-8-8v-23.586c0-4.422 3.574-8 8-8s8 3.578 8 8V320c0 4.426-3.574 8-8 8zM200 216.008c-28.152 0-120-2.016-120-28 0-7.727 5.594-17.383 49.191-23.574 4.352-.664 8.426 2.421 9.047 6.796a8.008 8.008 0 0 1-6.797 9.051c-18.984 2.696-28.234 5.781-32.554 7.781 11.097 4.985 45.527 11.954 101.113 11.954s90.016-6.97 101.113-11.953c-4.328-2-13.578-5.094-32.593-7.79-4.375-.625-7.415-4.671-6.801-9.05a7.994 7.994 0 0 1 9.05-6.797C314.407 170.617 320 180.28 320 188.008c0 25.984-91.848 28-120 28zm0 0"/><path d="M272.008 192.008H127.992a7.99 7.99 0 0 1-8-8c0-4.422 3.574-8 8-8h144.016c4.426 0 8 3.578 8 8 0 4.426-3.574 8-8 8zM184 344a7.984 7.984 0 0 1-5.656-2.344l-16-16c-3.13-3.129-3.13-8.183 0-11.312s8.183-3.13 11.312 0l16 16a7.99 7.99 0 0 1 0 11.312A7.984 7.984 0 0 1 184 344zm0 0"/><path d="M184.008 344a8.003 8.003 0 0 1-3.594-15.16l16-8c3.945-1.961 8.754-.375 10.738 3.574a8.004 8.004 0 0 1-3.578 10.738l-16 8a7.934 7.934 0 0 1-3.566.848zm0 0"/><path d="M215.992 344c-1.199 0-2.426-.273-3.566-.84l-16-8a8 8 0 0 1-3.578-10.734c1.984-3.953 6.793-5.54 10.738-3.578l16 8c3.95 1.976 5.55 6.785 3.574 10.738a8.013 8.013 0 0 1-7.168 4.414zm0 0"/><path d="M216 344a7.984 7.984 0 0 1-5.656-2.344 7.99 7.99 0 0 1 0-11.312l16-16c3.129-3.13 8.183-3.13 11.312 0s3.13 8.183 0 11.312l-16 16A7.984 7.984 0 0 1 216 344zM104 480a7.99 7.99 0 0 1-8-8v-24c0-4.426 3.574-8 8-8s8 3.574 8 8v24c0 4.426-3.574 8-8 8zM140 480c-11.031 0-20-8.969-20-20s8.969-20 20-20 20 8.969 20 20-8.969 20-20 20zm0-24c-2.2 0-4 1.8-4 4s1.8 4 4 4 4-1.8 4-4-1.8-4-4-4zM188 480c-11.031 0-20-8.969-20-20s8.969-20 20-20 20 8.969 20 20-8.969 20-20 20zm0-24c-2.2 0-4 1.8-4 4s1.8 4 4 4 4-1.8 4-4-1.8-4-4-4zM236 480c-11.031 0-20-8.969-20-20s8.969-20 20-20 20 8.969 20 20-8.969 20-20 20zm0-24c-2.2 0-4 1.8-4 4s1.8 4 4 4 4-1.8 4-4-1.8-4-4-4zM296 456h-16c-4.426 0-8-3.574-8-8s3.574-8 8-8h16c4.426 0 8 3.574 8 8s-3.574 8-8 8zm0 0"/><path d="M296.008 480a7.984 7.984 0 0 1-6.664-3.559l-16-24a7.995 7.995 0 0 1 2.215-11.097 7.995 7.995 0 0 1 11.097 2.215l16 24a7.995 7.995 0 0 1-2.215 11.097 8.058 8.058 0 0 1-4.433 1.344zm0 0"/><path d="M296 480h-16c-4.426 0-8-3.574-8-8s3.574-8 8-8h16c4.426 0 8 3.574 8 8s-3.574 8-8 8zM296 424H104c-4.426 0-8-3.574-8-8s3.574-8 8-8h192c4.426 0 8 3.574 8 8s-3.574 8-8 8zm0 0"/></svg>