<svg height="512" viewBox="0 0 512.001 512.001" width="512" xmlns="http://www.w3.org/2000/svg"><path d="M406.677 354.299a167.966 167.966 0 0 0-27.831-35.199 8.172 8.172 0 0 1-2.195-8.045c1.494-5.432 6.785-7.709 11.757-5.061l2.735 1.457a2.905 2.905 0 0 0 4.103-1.569c4.717-13.01 22.483-62.126 23.393-66.303 4.5-20.657-2.601-42.074-18.693-56.384l-24.957-22.192c-7.558-6.721-12.389-15.803-13.708-25.635a99.166 99.166 0 0 0-6.681-24.818l4.184-9.214c13.518-29.766 11.935-63.898-4.283-92.382-.927-1.628-3.214-1.951-4.578-.64L307.968 48.65c-4.299 4.133-10.673 5.52-16.397 3.569-11.156-3.801-23.139-5.844-35.569-5.807-12.43-.036-24.413 2.007-35.569 5.807-5.725 1.95-12.098.564-16.397-3.569L162.078 8.314c-1.364-1.311-3.651-.988-4.578.64-16.218 28.484-17.801 62.615-4.283 92.382l4.184 9.214a99.166 99.166 0 0 0-6.681 24.818c-1.319 9.832-6.149 18.914-13.708 25.635l-24.957 22.192c-16.093 14.31-23.193 35.727-18.693 56.384.91 4.177 18.676 53.293 23.393 66.303a2.906 2.906 0 0 0 4.103 1.569l2.735-1.457c4.972-2.648 10.263-.37 11.757 5.061a8.172 8.172 0 0 1-2.195 8.045 167.966 167.966 0 0 0-27.831 35.199c-18.159 30.665-27.709 65.366-27.709 100.678v47.987c0 .849.714 1.537 1.594 1.537h353.584c.88 0 1.594-.688 1.594-1.537v-47.987c0-35.312-9.551-70.013-27.71-100.678z" fill="#ecf9f9"/><path d="M406.677 354.299a167.966 167.966 0 0 0-27.831-35.199 8.172 8.172 0 0 1-2.195-8.045c1.494-5.432 6.785-7.709 11.757-5.061l2.735 1.457a2.905 2.905 0 0 0 4.103-1.569c4.717-13.01 22.483-62.126 23.393-66.303 4.5-20.657-2.601-42.074-18.693-56.384l-24.957-22.192c-7.558-6.721-12.389-15.803-13.708-25.635a99.166 99.166 0 0 0-6.681-24.818l4.184-9.214c13.518-29.766 11.935-63.898-4.283-92.382-.927-1.628-3.214-1.951-4.578-.64L327.46 29.91c1.627 17.351-1.239 35.049-8.676 51.425a25.018 25.018 0 0 0-1.09 17.769 99.34 99.34 0 0 1 3.587 16.263c1.319 9.832 6.149 18.914 13.708 25.635l24.957 22.192c16.093 14.31 23.193 35.727 18.693 56.384-.852 3.91-16.47 47.187-22.334 63.381-1.16 3.204-4.889 4.636-7.897 3.034-4.972-2.648-10.263-.37-11.757 5.061a7.023 7.023 0 0 0 1.701 7.57 168.032 168.032 0 0 1 28.325 35.674c18.159 30.665 27.709 65.366 27.709 100.678 0 27.352-22.173 49.524-49.524 49.524H77.614v18.463c0 .849.714 1.537 1.594 1.537h353.584c.88 0 1.594-.688 1.594-1.537v-47.987c.001-35.311-9.55-70.012-27.709-100.677z" fill="#daf1f4"/><path d="M256.001 263.726a21.464 21.464 0 0 1-20.775-16.07l-1.314-5.062c-1.407-5.418 2.683-10.706 8.281-10.706h27.615c5.598 0 9.688 5.287 8.281 10.706l-1.314 5.062a21.463 21.463 0 0 1-20.774 16.07z" fill="#909ba5"/><path d="M279.353 311.694c-7.041 6.438-12.848 9.926-23.353 9.926s-16.312-3.489-23.353-9.926a7.5 7.5 0 1 0-10.121 11.07c7.87 7.196 17.373 13.856 33.474 13.856s25.604-6.66 33.474-13.856a7.5 7.5 0 0 0 .475-10.596 7.5 7.5 0 0 0-10.596-.474zM174.061 228.839a7.5 7.5 0 0 0 3.804 9.901l13.716 6.103 12.264 31.08c5.706 14.461 19.439 23.806 34.986 23.806h34.34c15.547 0 29.28-9.344 34.986-23.806l12.264-31.08 13.716-6.103a7.499 7.499 0 1 0-6.097-13.704l-16.518 7.35a7.502 7.502 0 0 0-3.928 4.099l-13.39 33.933c-3.431 8.694-11.687 14.312-21.033 14.312h-9.67v-14.49c9.887-2.65 17.868-10.429 20.533-20.699l1.315-5.063c2.639-10.167-5.03-20.09-15.541-20.09h-27.615c-10.503 0-18.182 9.915-15.54 20.091l1.313 5.061c2.666 10.271 10.647 18.05 20.534 20.7v14.489h-9.67c-9.347 0-17.603-5.618-21.033-14.312l-13.39-33.933a7.502 7.502 0 0 0-3.928-4.099l-16.518-7.35a7.503 7.503 0 0 0-9.9 3.804zm68.424 16.932-1.313-5.061a1.05 1.05 0 0 1 1.021-1.321h27.615c.7 0 1.196.652 1.022 1.321l-1.315 5.063a13.964 13.964 0 0 1-27.03-.002zM190.471 61.385l-14.287-13.736a7.498 7.498 0 0 0-10.604.209 7.5 7.5 0 0 0 .208 10.604l14.287 13.736c2.983 2.867 7.732 2.781 10.604-.209a7.5 7.5 0 0 0-.208-10.604zM331.926 72.198l14.287-13.736a7.5 7.5 0 0 0-10.396-10.813L321.53 61.385a7.5 7.5 0 0 0 10.396 10.813zM315.491 147.021l-33.546 19.368a7.5 7.5 0 0 0-3.75 6.495v14.286c0 4.142 3.357 7.5 7.5 7.5s7.5-3.358 7.5-7.5v-9.956l29.796-17.203a7.5 7.5 0 0 0 2.745-10.245 7.498 7.498 0 0 0-10.245-2.745zM229.364 146.497c5.814 0 9.474-6.425 6.374-11.443l-7.349-11.894a7.5 7.5 0 0 0-12.761 7.884l7.349 11.894a7.493 7.493 0 0 0 6.387 3.559zM293.935 120.722a7.5 7.5 0 0 0-10.323 2.438l-7.349 11.894c-3.095 5.01.551 11.443 6.374 11.443a7.496 7.496 0 0 0 6.388-3.559l7.349-11.894a7.5 7.5 0 0 0-2.439-10.322zM186.265 149.766a7.5 7.5 0 0 0 2.745 10.245l29.796 17.203v9.956c0 4.142 3.357 7.5 7.5 7.5s7.5-3.358 7.5-7.5v-14.286a7.5 7.5 0 0 0-3.75-6.495l-33.546-19.368a7.497 7.497 0 0 0-10.245 2.745z"/><path d="M93.612 399.005a7.498 7.498 0 0 0-4.94-9.385 7.498 7.498 0 0 0-9.386 4.941 203.703 203.703 0 0 0-9.171 60.416v47.987c0 4.983 4.079 9.037 9.094 9.037h353.584c5.015 0 9.094-4.054 9.094-9.037v-47.987c0-52.198-20.633-105.318-57.828-141.27a.671.671 0 0 1-.176-.663c.121-.441.282-.638.286-.654.295-.048.654.191 3.448 1.679 5.578 2.973 12.515.332 14.68-5.631 1.864-5.141 22.518-61.978 23.67-67.263 5.052-23.19-3.01-47.554-21.038-63.584l-24.956-22.192c-6.179-5.494-10.177-12.962-11.258-21.028a106.948 106.948 0 0 0-5.969-23.62l2.867-6.313c14.415-31.743 12.697-68.825-4.595-99.193-3.345-5.877-11.4-7.039-16.294-2.336l-41.955 40.337c-2.271 2.184-5.721 2.918-8.779 1.876-24.863-8.471-52.149-8.118-75.979 0-3.063 1.042-6.508.306-8.779-1.877L167.276 2.906c-4.895-4.702-12.949-3.537-16.293 2.337-17.292 30.369-19.01 67.451-4.595 99.194l2.867 6.313a106.915 106.915 0 0 0-5.969 23.621c-1.081 8.065-5.079 15.533-11.257 21.027l-24.957 22.192c-18.028 16.03-26.09 40.395-21.038 63.585 1.145 5.253 21.841 62.22 23.671 67.266 2.16 5.948 9.091 8.606 14.678 5.629l2.735-1.457c.403-.215.657-.234.671-.242.047.034.208.231.329.672a.672.672 0 0 1-.176.663c-14.801 14.305-25.681 29.637-34.488 46.499a7.5 7.5 0 0 0 3.175 10.12 7.498 7.498 0 0 0 10.12-3.175c8.08-15.469 17.999-29.496 31.617-42.659 8.99-8.688 4.448-23.782-6.842-26.64l2.09-11.393c2.175-11.856 7.394-23.144 15.093-32.643a7.502 7.502 0 0 0-1.104-10.549 7.502 7.502 0 0 0-10.55 1.104c-9.274 11.444-15.565 25.062-18.192 39.38l-.717 3.909a5076.087 5076.087 0 0 1-11.37-31.82l1.905-4.188c7.353-16.166 20.581-29.148 37.248-36.556a7.5 7.5 0 0 0-6.091-13.707c-16.559 7.359-30.307 19.333-39.588 34.29-2.905-17.201 3.406-34.979 16.793-46.882l24.958-22.192c8.86-7.88 14.598-18.62 16.156-30.242 2.038-15.191 7.909-30.184 17.938-43.45a7.5 7.5 0 0 0-1.46-10.506 7.499 7.499 0 0 0-10.505 1.46 109.285 109.285 0 0 0-6.243 9.196c-9.329-24.335-8.104-51.68 3.36-75.15l37.591 36.141c6.369 6.123 15.569 8.139 24.014 5.262 20.918-7.127 44.808-7.322 66.303 0 8.442 2.876 17.646.861 24.014-5.262l37.591-36.141c11.463 23.469 12.689 50.815 3.36 75.15a108.885 108.885 0 0 0-6.243-9.196 7.5 7.5 0 0 0-11.965 9.046c9.672 12.794 15.821 27.67 17.938 43.449 1.559 11.623 7.296 22.363 16.157 30.243l24.957 22.192c13.399 11.915 19.71 29.715 16.795 46.885-9.281-14.958-23.029-26.933-39.59-34.293a7.5 7.5 0 0 0-9.899 3.808 7.498 7.498 0 0 0 3.808 9.899c16.667 7.408 29.896 20.39 37.248 36.556l1.905 4.187a5036.896 5036.896 0 0 1-11.37 31.821l-.717-3.91c-2.627-14.318-8.918-27.936-18.192-39.38a7.5 7.5 0 0 0-10.55-1.104 7.5 7.5 0 0 0-1.104 10.549c7.699 9.499 12.918 20.787 15.093 32.643l2.09 11.393c-11.335 2.869-15.808 17.976-6.842 26.639 34.427 33.28 53.252 82.597 53.252 130.484v42.024H347.83l10.459-37.876a7.5 7.5 0 0 0-5.233-9.226 7.498 7.498 0 0 0-9.226 5.233l-11.561 41.868H179.017l-11.561-41.868a7.495 7.495 0 0 0-9.226-5.233 7.5 7.5 0 0 0-5.233 9.226l10.459 37.876H85.115v-42.024c0-18.963 2.858-37.794 8.497-55.968z"/><path d="M334.245 393.088c3.565 2.14 8.167.966 10.29-2.571 5.256-8.757 9.807-18.133 13.527-27.868a7.5 7.5 0 0 0-4.328-9.683 7.5 7.5 0 0 0-9.684 4.329c-3.407 8.917-7.571 17.497-12.377 25.502a7.501 7.501 0 0 0 2.572 10.291zM158.225 353.443a7.501 7.501 0 0 0-4.27 9.709c11.808 30.345 30.974 55.773 55.426 73.538 46.568 33.829 42.783 31.16 43.536 31.51 2.43 1.137 5.396.916 7.657-.726l41.669-30.27c7.047-5.12 13.754-10.971 19.938-17.392a7.5 7.5 0 0 0-10.804-10.404c-9.941 10.323-17.139 15.072-29.43 24.001 6.146-10.743 11.994-23.411 17.421-43.108a7.5 7.5 0 0 0-5.238-9.223 7.5 7.5 0 0 0-9.223 5.238c-8.411 30.531-17.349 41.828-28.813 60.34-11.72-18.926-20.412-29.851-28.812-60.34a7.5 7.5 0 0 0-9.223-5.238 7.5 7.5 0 0 0-5.238 9.223c5.396 19.587 11.208 32.222 17.317 42.927l-11.939-8.673c-22.12-16.07-39.501-39.184-50.264-66.842a7.503 7.503 0 0 0-9.71-4.27z"/></svg>