<svg height="512" width="512" xmlns="http://www.w3.org/2000/svg"><path d="M166.957 96.032S136.275 32.757 55.802 9.085c0 0-91.529 138.882 23.027 207.519" fill="#665e66"/><path d="m78.828 216.609 6.574-8.984 33.087-45.268-1.056-4.313c0-29.253-15.378-66.433-30.767-96.333C71.239 31.741 55.801 9.092 55.801 9.092s-91.523 138.882 23.027 207.517z" fill="#f9f6f9"/><path d="M69.655 186.828c5.498 10.757 10.757 17.4 15.747 20.797l33.087-45.268-1.056-4.313c0-29.253-15.378-66.433-30.767-96.333-20.069 21.742-47.359 65.766-17.011 125.117z" fill="#dfdde2"/><path d="M345.043 96.032s30.682-63.275 111.155-86.947c0 0 91.529 138.882-23.027 207.519" fill="#665e66"/><path d="m433.172 216.609-6.574-8.984-33.087-45.268 1.056-4.313c0-29.253 15.378-66.433 30.767-96.333C440.762 31.741 456.2 9.092 456.2 9.092s91.522 138.882-23.028 207.517z" fill="#f9f6f9"/><path d="M442.345 186.828c-5.498 10.757-10.757 17.4-15.747 20.797l-33.087-45.268 1.056-4.313c0-29.253 15.378-66.433 30.767-96.333 20.068 21.742 47.359 65.766 17.011 125.117z" fill="#dfdde2"/><path d="M463.47 372.384s19.531 55.139 9.761 103.813c0 0-24.103-32.509-44.382-48.595 0 0-1.952 62.44-45.069 75.318 0 0 3.416-17.29-5.169-35.976-34.9 19.691-77.121 31.225-122.608 31.225-13.147 0-26.016-.966-38.515-2.809h-.01c-30.767-4.542-59.272-14.412-84.083-28.416-8.585 18.685-5.169 35.976-5.169 35.976-43.127-12.878-45.069-75.318-45.069-75.318-20.288 16.086-44.392 48.595-44.392 48.595-9.761-48.675 9.761-103.813 9.761-103.813L7.5 404.156s67.788-193.125 71.334-208.264C90.407 146.44 131.692 105.714 186.78 86.85c21.314-7.311 44.7-11.344 69.222-11.344s47.908 4.034 69.222 11.344c55.089 18.864 96.373 59.591 107.947 109.042 3.546 15.139 71.324 208.264 71.324 208.264z" fill="#665e66"/><path d="M217.477 495.36c-30.767-4.542-59.272-14.412-84.083-28.416-8.585 18.685-5.169 35.976-5.169 35.976-43.127-12.878-45.069-75.318-45.069-75.318-20.288 16.086-44.392 48.595-44.392 48.595-9.761-48.675 9.761-103.813 9.761-103.813L7.5 404.156s67.788-193.125 71.334-208.264C90.407 146.44 131.692 105.714 186.78 86.85c21.314-7.311 44.7-11.344 69.222-11.344-69.222 0-161.94 132.07-161.94 213.812S83.156 394.854 83.156 394.854s24.422-7.729 42.021-41.992c-.747 1.664-16.185 36.803-6.693 92.738l23.675-31.713c.001 0 5.289 56.493 75.318 81.473z" fill="#454045"/><circle cx="256.449" cy="372.377" fill="#da4a54" r="66.098"/><g fill="#fff"><path d="M224.177 398.527a81.323 81.323 0 0 0 .016 6.322c-1.275 30.776 15.373 57.571 8.748 66.723-3.344 4.043-15.124 2.356-27.036-9.214-11.741-11.158-23.615-32.191-23.21-57.509a78.553 78.553 0 0 1 1.695-17.565M327.611 387.284a79.025 79.025 0 0 1 1.695 17.565c.404 25.318-11.477 46.351-23.218 57.509-11.912 11.57-23.685 13.258-27.036 9.214-6.625-9.152 10.023-35.947 8.748-66.723.086-2.131.093-4.238.016-6.322"/></g><path d="M365.394 375.212a49.586 49.586 0 0 1-22.301 41.404 49.553 49.553 0 0 1-27.32 8.197c-30.528 0-55.706-22.878-59.322-52.44h-.896c-3.616 29.561-28.794 52.44-59.322 52.44a49.553 49.553 0 0 1-27.32-8.197 49.598 49.598 0 0 1-18.297-21.882 49.671 49.671 0 0 1-4.004-19.522 49.604 49.604 0 0 1 13.446-33.984l44.9-47.808c41.035-47.938 23.775-164.619-18.177-206.571 21.314-7.311 44.7-11.344 69.222-11.344s47.908 4.034 69.222 11.344c-41.952 41.952-59.212 158.633-18.177 206.571l44.9 47.808a49.604 49.604 0 0 1 13.446 33.984z" fill="#f9f6f9"/><path d="M307.038 323.378c0-18.812-22.851-34.062-51.038-34.062s-51.038 15.25-51.038 34.062S227.812 372.38 256 372.38s51.038-30.19 51.038-49.002z" fill="#454045"/><path d="M72.581 122.374a7.482 7.482 0 0 0 5.732 2.66 7.5 7.5 0 0 0 5.726-12.34L66.722 92.198a7.5 7.5 0 0 0-11.457 9.68zM65.949 126.389l-13.851-3.374a7.5 7.5 0 1 0-3.55 14.574l13.851 3.374a7.534 7.534 0 0 0 1.781.215 7.501 7.501 0 0 0 1.769-14.789zM455.845 91.31a7.5 7.5 0 0 0-10.569.889l-17.314 20.495a7.5 7.5 0 0 0 11.459 9.68l17.314-20.495a7.5 7.5 0 0 0-.89-10.569zM447.821 141.178c.587 0 1.185-.07 1.781-.215l13.85-3.374a7.5 7.5 0 0 0-3.55-14.574l-13.85 3.374a7.5 7.5 0 0 0 1.769 14.789zM333.235 358.354c1.097-6.468-6.441-11.112-11.759-7.334-2.575 1.829-3.745 5.248-2.809 8.271.963 3.111 3.896 5.328 7.172 5.328 3.622.001 6.793-2.707 7.396-6.265zM341.248 390.995c.885-3.174-.489-6.678-3.307-8.393-2.584-1.573-5.949-1.435-8.384.369-2.622 1.942-3.69 5.483-2.591 8.552 1.052 2.938 3.928 4.977 7.053 4.977 3.34 0 6.333-2.292 7.229-5.505zM300.657 376.769c-2.267 1.944-3.163 5.193-2.219 8.026 1.011 3.033 3.914 5.155 7.121 5.155 3.745 0 6.967-2.889 7.439-6.587.851-6.661-7.263-10.949-12.341-6.594zM183.18 364.62c3.447 0 6.519-2.464 7.302-5.811 1.555-6.646-6.289-11.769-11.774-7.717-2.459 1.817-3.569 5.074-2.754 8.016.889 3.208 3.884 5.512 7.226 5.512zM174.99 396.5c3.681 0 6.88-2.793 7.418-6.419.48-3.231-1.27-6.465-4.214-7.861-2.723-1.292-6.063-.782-8.283 1.258-4.927 4.525-1.592 13.022 5.079 13.022zM203.46 389.94c3.888 0 7.182-3.079 7.477-6.946.249-3.264-1.736-6.36-4.778-7.54-2.774-1.076-6.038-.353-8.101 1.793-4.491 4.672-1.067 12.693 5.402 12.693z"/><path d="M511.576 401.673c-14.95-42.591-49.235-140.828-64.117-185.479 41.383-29.489 57.992-73.573 48.037-127.875-.747-4.075-4.662-6.774-8.729-6.024a7.5 7.5 0 0 0-6.024 8.729c8.632 47.084-4.226 84.086-38.197 110.151-1.081-3.413-1.798-5.818-2.073-6.991-5.59-23.893-17.641-45.643-34.464-64.101 10.175-40.557 37.347-86.764 49.885-106.725 5.072 9.247 12.432 24.134 18.227 41.846a7.5 7.5 0 0 0 14.256-4.664c-10.442-31.918-25.288-54.633-25.915-55.585a7.502 7.502 0 0 0-8.379-3.068c-66.928 19.686-100.486 65.182-111.716 83.618C316.333 74.288 286.889 68.007 256 68.007c-30.894 0-60.343 6.283-86.381 17.504-4.625-7.547-13.281-20.051-26.768-33.498-23.734-23.664-52.309-40.529-84.933-50.126a7.5 7.5 0 0 0-8.379 3.068c-1.93 2.928-47.1 72.485-33.244 139.569 6.006 29.08 22.23 53.166 48.243 71.678C49.654 260.857 15.372 359.084.423 401.672a7.5 7.5 0 0 0 11.669 8.413l23.074-17.871c-4.935 21.206-9.997 54.333-3.754 85.453a7.498 7.498 0 0 0 13.378 2.992c.193-.261 16.17-21.721 32.576-37.829.998 5.785 2.573 12.757 5.053 20.023 8.505 24.923 23.601 41.262 43.658 47.251a7.5 7.5 0 0 0 7.163-1.631 7.531 7.531 0 0 0 2.347-6.977c-.024-.127-1.967-10.884 1.81-23.872 35.565 18.372 76.373 28.044 118.602 28.044 42.228 0 83.037-9.672 118.603-28.044 3.774 12.986 1.834 23.739 1.815 23.84a7.501 7.501 0 0 0 9.504 8.64c20.057-5.989 35.153-22.328 43.658-47.251 2.479-7.265 4.055-14.237 5.054-20.022 16.395 16.101 32.383 37.567 32.577 37.828a7.499 7.499 0 0 0 13.377-2.993c6.242-31.121 1.18-64.247-3.755-85.453l23.074 17.871a7.5 7.5 0 0 0 11.67-8.411zM438.185 23.454a595.095 595.095 0 0 0-13.026 22.59c-14.624 26.71-25.137 50.836-31.383 71.946-11.17-9.98-23.865-18.724-37.751-25.986 9.306-14.69 34.816-48.576 82.16-68.55zM312.014 90.617c-17.384 22.639-30.272 58.281-34.457 96.459-4.873 44.462 2.63 83.129 20.612 107.222-10.572-7.734-25.442-12.482-42.17-12.482-16.717 0-31.579 4.742-42.15 12.467 17.971-24.099 25.467-62.76 20.593-107.211-4.186-38.175-17.074-73.817-34.458-96.455 17.652-4.943 36.516-7.611 56.014-7.611s38.364 2.669 56.016 7.611zm-93.401 337.857c.277 1.499.574 3.019.914 4.586 1.219 5.678 2.667 11.013 3.944 15.719 1.53 5.638 3.745 13.796 3.568 17.289-2.702-.179-8.793-2.179-15.968-9.142-6.613-6.289-12.229-15.071-15.935-24.636.365.007.729.02 1.094.02a67.071 67.071 0 0 0 22.383-3.836zm14.845-2.189a116.565 116.565 0 0 1-.787-4.718c9.806-6.328 17.899-15.14 23.326-25.615 5.424 10.474 13.514 19.285 23.315 25.615a120.503 120.503 0 0 1-.86 5.131c-6.973 2.836-14.356 4.28-22.001 4.28-8.025 0-15.742-1.58-22.993-4.693zm22.658-61.409-.337-.004c-24.606-.165-43.317-27.694-43.317-41.494 0-14.398 19.938-26.562 43.538-26.562s43.538 12.164 43.538 26.562c0 13.82-18.764 41.411-43.422 41.498zm32.407 83.9c1.236-4.552 2.637-9.711 3.831-15.185.013-.058.024-.116.035-.175.367-1.694.686-3.329.981-4.939a67.053 67.053 0 0 0 22.398 3.842c.362 0 .722-.013 1.083-.02-3.709 9.559-9.334 18.349-15.984 24.68-7.134 6.924-13.217 8.914-15.917 9.089-.172-3.497 2.042-11.653 3.573-17.292zm27.246-31.456c-23.804 0-44.28-16.05-50.4-38.386 11.607-2.298 22.788-8.793 32.204-18.884 10.464-11.216 16.965-25.268 16.965-36.672 0-5.392-1.392-10.508-3.914-15.196l35.859 38.183c7.355 7.832 11.406 18.076 11.406 28.846a41.963 41.963 0 0 1-3.391 16.568 42.09 42.09 0 0 1-15.54 18.582 41.986 41.986 0 0 1-23.189 6.959zM155.977 92.002c-13.887 7.262-26.584 16.007-37.755 25.988-6.246-21.11-16.759-45.236-31.382-71.947a595.882 595.882 0 0 0-13.026-22.59c47.381 19.983 72.872 53.866 82.163 68.549zM32.048 86.921c5.615-27.078 17.04-50.742 24.062-63.557 12.54 19.965 39.707 66.167 49.88 106.719-16.822 18.458-28.873 40.208-34.463 64.101-.275 1.174-.992 3.58-2.074 6.995-34.985-26.834-47.575-65.218-37.405-114.258zm436.015 279.53a7.501 7.501 0 0 0-11.664 8.43c.165.468 14.439 41.542 11.711 82.676-9.098-11.071-22.386-26.14-34.605-35.83a7.499 7.499 0 0 0-12.156 5.643c-.017.513-1.789 46.38-29.47 63.728-.303-7.407-1.804-17.161-6.454-27.288a7.5 7.5 0 0 0-10.503-3.402C339.85 480.205 298.727 490.669 256 490.669c-42.728 0-83.85-10.464-118.921-30.262a7.5 7.5 0 0 0-10.502 3.401c-4.649 10.123-6.15 19.872-6.455 27.278-27.569-17.342-29.451-63.212-29.469-63.717a7.5 7.5 0 0 0-12.156-5.643c-12.221 9.69-25.508 24.758-34.605 35.83-2.729-41.134 11.545-82.208 11.708-82.673a7.501 7.501 0 0 0-11.662-8.434l-20.972 16.242c18.345-52.448 60.304-172.854 63.167-185.092 10.802-46.169 48.636-83.529 98.55-102.013 37.161 42.199 51.686 149.351 14.689 192.828l-35.238 37.52a7.5 7.5 0 1 0 10.934 10.268l26.296-27.999c-2.514 4.682-3.901 9.79-3.901 15.173 0 11.405 6.501 25.456 16.965 36.672 9.415 10.09 20.595 16.585 32.201 18.884-6.124 22.331-26.597 38.376-50.397 38.376a42.038 42.038 0 0 1-23.192-6.952 41.964 41.964 0 0 1-15.522-18.578 41.902 41.902 0 0 1-3.405-16.57 42.342 42.342 0 0 1 4.609-19.169 7.5 7.5 0 0 0-13.36-6.822 57.41 57.41 0 0 0-6.25 25.991 56.855 56.855 0 0 0 4.615 22.473 56.942 56.942 0 0 0 21.059 25.201 57.168 57.168 0 0 0 13.623 6.576c4.129 14.837 12.109 28.619 22.273 38.284 8.66 8.406 18.587 13.316 26.81 13.316.371 0 .739-.01 1.102-.03 5.426-.3 8.503-2.711 10.129-4.681.1-.121.196-.246.288-.373 5.374-7.416 2.534-17.878-1.062-31.124l-.353-1.305c6.095 1.616 12.398 2.432 18.856 2.432 6.107 0 12.083-.735 17.881-2.186l-.285 1.054c-3.598 13.248-6.438 23.711-1.074 31.125.097.134.199.266.305.394 1.633 1.967 4.72 4.374 10.153 4.666.354.019.711.029 1.073.029 8.224 0 18.151-4.91 26.759-13.266 10.209-9.72 18.192-23.501 22.321-38.324a57.014 57.014 0 0 0 13.633-6.588c9.347-6.161 16.63-14.868 21.069-25.197a56.918 56.918 0 0 0 4.603-22.476c0-14.6-5.495-28.491-15.473-39.114l-44.779-47.681c-37.007-43.47-22.487-150.624 14.68-192.827 49.914 18.484 87.749 55.844 98.55 102.013 2.863 12.238 44.822 132.645 63.167 185.092z"/><ellipse cx="157.753" cy="250.285" rx="22.635" ry="33.827"/><ellipse cx="352.26" cy="250.285" rx="22.635" ry="33.827"/></svg>