<svg height="512" width="512" xmlns="http://www.w3.org/2000/svg"><path d="M416.36 144.4C428.42 133.42 436 117.6 436 100V10h-30c-42.62 0-78.32 29.63-87.64 69.41C298.66 73.29 277.71 70 256 70s-42.66 3.29-62.36 9.41C184.32 39.63 148.62 10 106 10H76v90c0 17.6 7.58 33.42 19.64 44.4C64.67 180.98 46 228.31 46 280v162l60-34.29V472l74.75-29.9h150.5L406 472v-64.29L466 442V280c0-51.69-18.67-99.02-49.64-135.6z" fill="#766e6e"/><path d="M219.42 502c-13.76 0-25.76-9.37-29.1-22.72-5.571-22.059-6.845-28.02-9.57-37.18-12.71-43.37-35.81-87.16-67.28-118.63-18.43-18.43-6.51-51.46 22.53-51.33V226c0-33.14 26.86-60 60-60s60 26.86 60 60c0-33.14 26.86-60 60-60s60 26.86 60 60v46.14c29.04-.13 40.96 32.9 22.53 51.33-31.47 31.47-54.57 75.26-67.28 118.63-2.723 9.152-3.95 14.927-9.57 37.18-3.34 13.35-15.34 22.72-29.1 22.72h-73.16z" fill="#f4e9e2"/><path d="M286 397v4.64c0 8.5-3.61 16.61-9.93 22.3L256 442l-20.07-18.06a30.015 30.015 0 0 1-9.93-22.3V397c16.57-16.57 43.43-16.57 60 0z" fill="#766e6e"/><circle cx="316" cy="256" r="10"/><circle cx="196" cy="256" r="10"/><circle cx="466" cy="315.999" r="10"/><path d="M36 442a9.999 9.999 0 0 0 14.962 8.682L96 424.943V472a10.001 10.001 0 0 0 13.714 9.285l64.358-25.741c.58 2.277 3.989 15.938 6.547 26.164A39.943 39.943 0 0 0 219.42 512h73.16a39.944 39.944 0 0 0 38.802-30.295c3.544-14.164 5.921-23.703 6.546-26.161l64.358 25.741A10 10 0 0 0 416 472v-47.058l45.038 25.74A10 10 0 0 0 476 442v-81.001c0-5.522-4.477-10-10-10s-10 4.478-10 10v63.769l-45.038-25.74A9.999 9.999 0 0 0 396 407.71v49.521l-52.474-20.989c13.566-41.761 35.413-79.039 62.075-105.701 11.511-11.511 14.891-28.683 8.612-43.748-5.088-12.207-15.464-20.69-28.212-23.572V226c0-38.598-31.402-70-70-70-25.431 0-47.74 13.635-60 33.976C243.74 169.635 221.431 156 196 156c-38.598 0-70 31.402-70 70v37.221c-12.747 2.883-23.124 11.366-28.212 23.572-6.279 15.065-2.899 32.237 8.611 43.748 26.655 26.655 48.498 63.921 62.074 105.701L116 457.23v-49.52a9.999 9.999 0 0 0-14.962-8.682L56 424.768V280c0-109.967 89.025-200 200-200 107.653 0 195.331 84.962 199.819 191.42a9.997 9.997 0 0 0 10.413 9.57c5.518-.232 9.802-4.895 9.57-10.412-1.947-46.189-17.864-89.446-46.144-125.669C440.121 132.382 446 116.473 446 100V10c0-5.522-4.477-10-10-10h-30c-42.054 0-80.201 26.44-94.428 67.087C293.515 62.387 274.869 60 256 60s-37.515 2.387-55.572 7.087C186.199 26.435 148.048 0 106 0H76c-5.523 0-10 4.478-10 10v90c0 16.477 5.882 32.39 16.35 44.918C52.402 183.393 36 231.009 36 280zm220-13.452-13.379-12.039A20.038 20.038 0 0 1 236 401.64v-.17c5.685-4.473 12.656-6.897 20-6.897s14.315 2.425 20 6.897v.17a20.04 20.04 0 0 1-6.619 14.867zm-139.752-134.06c3.226-7.739 10.542-12.349 19.588-12.349H136c5.515 0 10-4.473 10-10V226c0-27.57 22.43-50 50-50s50 22.43 50 50c0 5.522 4.477 10 10 10s10-4.478 10-10c0-27.57 22.43-50 50-50s50 22.43 50 50v46.14c0 5.515 4.473 10 10 10h.164c9.044 0 16.362 4.609 19.588 12.349 2.505 6.011 2.693 14.924-4.293 21.91-53.44 53.443-68.879 118.543-79.479 160.454A19.972 19.972 0 0 1 292.58 492H266v-45.546l16.761-15.082A40.069 40.069 0 0 0 296 401.64V397c0-2.652-1.054-5.195-2.929-7.071-9.903-9.902-23.068-15.356-37.071-15.356s-27.168 5.454-37.071 15.356A10.003 10.003 0 0 0 216 397v4.64a40.07 40.07 0 0 0 13.241 29.734L246 446.454V492h-26.58a19.97 19.97 0 0 1-19.398-15.145c-6.808-26.917-21.212-102.187-79.48-160.457-6.987-6.986-6.799-15.899-4.294-21.91zM406 20h20v80c0 10.63-3.424 20.937-9.598 29.43-23.82-25.38-53.133-44.672-85.735-56.428C341.906 41.39 371.701 20 406 20zM86 20h20c34.297 0 64.093 21.392 75.333 53.002-32.602 11.756-61.915 31.048-85.735 56.428C89.424 120.937 86 110.63 86 100z"/></svg>