<svg xmlns="http://www.w3.org/2000/svg" viewBox="0 0 512.001 512.001" style="enable-background:new 0 0 512.001 512.001" xml:space="preserve"><path style="fill:#ffcdc1" d="M109.047 138.894h-.109c-18.05 0-32.681 14.631-32.681 32.681s14.631 32.681 32.681 32.681h147.064v-65.362H109.047z"/><path style="fill:#ffab97" d="M403.066 138.894H256.003v65.362h147.064c18.05 0 32.681-14.631 32.681-32.681s-14.633-32.681-32.682-32.681z"/><path style="fill:#7f7774" d="M479.321 329.532c0-24.065-19.508-43.574-43.574-43.574l-32.681 92.596 32.681 92.596h43.574V329.532z"/><path style="fill:#a99e9b" d="M76.258 285.958c-24.066 0-43.574 19.509-43.574 43.574v141.617h403.063V285.958H76.258z"/><path style="fill:#fff3d4" d="M384.861 73.532h-43.574l29.099 430.297c18.05 0 32.681-14.631 32.681-32.681V144.341c-.001-25.655-6.611-49.79-18.206-70.809z"/><path style="fill:#fff" d="M341.286 73.532H127.143c-11.595 21.018-18.205 45.154-18.205 70.808v326.808c0 18.05 14.631 32.681 32.681 32.681 12.308 0 23.023-6.807 28.596-16.859 5.573 10.052 16.288 16.859 28.596 16.859s23.023-6.807 28.596-16.859c5.573 10.052 16.288 16.859 28.596 16.859s23.023-6.807 28.596-16.859c5.573 10.052 16.288 16.859 28.596 16.859s23.023-6.807 28.596-16.859c5.573 10.052 16.288 16.859 28.596 16.859V144.341l-29.101-70.809z"/><path style="fill:#ffab97" d="m256.003 29.958 81.702 147.064h32.681v-32.681c-.001-63.172-51.213-114.383-114.383-114.383z"/><path style="fill:#ffcdc1" d="M256.003 29.958c-63.172 0-114.383 51.211-114.383 114.383v32.681h196.085v-32.681c0-63.172-36.58-114.383-81.702-114.383z"/><path style="fill:#ffd159" d="M174.301 294.128a8.169 8.169 0 0 1-8.17-8.17v-10.894a8.169 8.169 0 0 1 8.17-8.17 8.169 8.169 0 0 1 8.17 8.17v10.894a8.17 8.17 0 0 1-8.17 8.17zM337.705 381.277a8.169 8.169 0 0 1-8.17-8.17v-10.894c0-4.513 3.657-8.17 8.17-8.17s8.17 3.657 8.17 8.17v10.894a8.17 8.17 0 0 1-8.17 8.17zM305.024 413.957a8.169 8.169 0 0 1-8.17-8.17v-10.894a8.169 8.169 0 0 1 8.17-8.17 8.169 8.169 0 0 1 8.17 8.17v10.894a8.17 8.17 0 0 1-8.17 8.17z"/><path d="M435.747 277.787a8.169 8.169 0 0 0-8.17 8.17 8.169 8.169 0 0 0 8.17 8.17c19.522 0 35.404 15.882 35.404 35.404v133.447h-59.915V211.603c18.624-3.795 32.681-20.3 32.681-40.029 0-19.897-14.301-36.508-33.237-40.116-1.814-21.671-8.164-42.839-18.665-61.873a8.17 8.17 0 0 0-7.154-4.223h-35.229c-21.472-25.415-53.077-41.999-88.522-43.46l-8.693-17.385A8.172 8.172 0 0 0 241.455.863a8.172 8.172 0 0 0-3.654 10.962l5.319 10.639a122.19 122.19 0 0 0-13.334 2.156L219.735 4.517A8.173 8.173 0 0 0 208.773.863a8.172 8.172 0 0 0-3.654 10.962l8.719 17.437c-20.163 7.411-37.85 19.983-51.467 36.1h-35.229a8.17 8.17 0 0 0-7.153 4.223c-10.499 19.031-16.849 40.194-18.665 61.86-18.898 3.577-33.239 20.205-33.239 40.129 0 19.728 14.057 36.233 32.681 40.029v194.184a8.169 8.169 0 0 0 8.17 8.17 8.169 8.169 0 0 0 8.17-8.17V144.342c0-21.76 5.158-43.314 14.955-62.638h18.643c-10.952 18.343-17.258 39.766-17.258 62.638v32.681a8.169 8.169 0 0 0 8.17 8.17h228.765a8.169 8.169 0 0 0 8.17-8.17v-32.681c0-22.872-6.304-44.296-17.258-62.638h18.643c9.796 19.324 14.955 40.878 14.955 62.638V471.15c0 13.515-10.996 24.511-24.511 24.511a24.541 24.541 0 0 1-21.449-12.65 8.172 8.172 0 0 0-14.292 0 24.545 24.545 0 0 1-21.449 12.65 24.542 24.542 0 0 1-21.449-12.65 8.172 8.172 0 0 0-14.292 0A24.545 24.545 0 0 1 256 495.661a24.542 24.542 0 0 1-21.449-12.65 8.172 8.172 0 0 0-14.292 0 24.545 24.545 0 0 1-21.449 12.65 24.542 24.542 0 0 1-21.449-12.65 8.172 8.172 0 0 0-14.292 0 24.545 24.545 0 0 1-21.449 12.65c-13.515 0-24.511-10.996-24.511-24.511v-32.681c0-4.513-3.657-8.17-8.17-8.17s-8.17 3.657-8.17 8.17v24.511H40.852V329.533c0-19.522 15.882-35.404 35.404-35.404 4.513 0 8.17-3.657 8.17-8.17s-3.657-8.17-8.17-8.17c-28.531 0-51.745 23.213-51.745 51.745V471.15a8.169 8.169 0 0 0 8.17 8.17h68.907c3.795 18.624 20.3 32.681 40.029 32.681a40.873 40.873 0 0 0 28.596-11.684 40.877 40.877 0 0 0 28.596 11.684 40.873 40.873 0 0 0 28.596-11.684 40.877 40.877 0 0 0 28.596 11.684 40.873 40.873 0 0 0 28.596-11.684c7.534 7.38 17.76 11.684 28.596 11.684s21.062-4.303 28.596-11.684a40.877 40.877 0 0 0 28.596 11.684c19.728 0 36.233-14.057 40.029-32.681h68.907a8.169 8.169 0 0 0 8.17-8.17V329.533c0-28.532-23.213-51.746-51.744-51.746zM84.428 171.575c0-10.651 6.831-19.733 16.34-23.105v46.211c-9.509-3.373-16.34-12.455-16.34-23.106zm277.787-2.724H149.79V144.34c0-58.559 47.635-106.201 106.192-106.213 58.606.02 106.233 47.658 106.233 106.213v24.511zm65.362 2.724c0 10.651-6.831 19.733-16.34 23.105v-46.21c9.508 3.372 16.34 12.454 16.34 23.105z"/><path d="M256.003 230.558c11.504 0 21.82-7.281 25.672-18.118a8.169 8.169 0 0 0-4.962-10.435c-4.25-1.515-8.923.709-10.434 4.961a10.927 10.927 0 0 1-10.277 7.252 10.927 10.927 0 0 1-10.277-7.252c-1.511-4.252-6.188-6.475-10.434-4.961a8.17 8.17 0 0 0-4.962 10.435c3.853 10.837 14.17 18.118 25.674 18.118zM225.501 130.724h-18.519c-4.513 0-8.17 3.657-8.17 8.17s3.657 8.17 8.17 8.17h10.814a8.174 8.174 0 0 0 7.705 5.447 8.169 8.169 0 0 0 8.17-8.17v-5.447a8.17 8.17 0 0 0-8.17-8.17zM305.024 130.724h-18.519a8.169 8.169 0 0 0-8.17 8.17v5.447a8.169 8.169 0 0 0 8.17 8.17 8.171 8.171 0 0 0 7.705-5.447h10.814a8.169 8.169 0 0 0 8.17-8.17 8.17 8.17 0 0 0-8.17-8.17z"/></svg>