<svg xmlns="http://www.w3.org/2000/svg" viewBox="0 0 512.001 512.001" style="enable-background:new 0 0 512.001 512.001" xml:space="preserve"><path style="fill:#b67f5f" d="m395.156 411.717-99.077-35.475h-80.161l-99.077 35.475c-22.31 7.988-37.197 29.131-37.197 52.828V504.5h352.71v-39.955c0-23.697-14.887-44.84-37.198-52.828z"/><path style="fill:#a06e50" d="m218 495.885 37.999-8.835 37.999 8.835a61.433 61.433 0 0 0 13.893 1.595c23.274 0 44.261-13.112 53.465-33.406 5.785-12.755 12.845-33.297 14.418-59.297l-79.695-28.535h-80.161l-79.694 28.534c1.572 25.998 8.632 46.541 14.417 59.298 9.204 20.293 30.191 33.406 53.466 33.406 4.669 0 9.343-.537 13.893-1.595z"/><path style="fill:#edebed" d="M351.888 385.082c-.411-6.493-4.983-12.164-11.587-14.305l-.002-.001a191.6 191.6 0 0 0-57.773-8.918H229.47c-19.6 0-39.084 3.008-57.772 8.918l-.003.001c-6.603 2.141-11.175 7.813-11.587 14.305-1.86 29.322 5.116 52.927 12.433 69.059 6.558 14.459 23.642 22.127 40.011 18.321l37.999-8.835a24.053 24.053 0 0 1 10.893 0l37.999 8.835c16.369 3.806 33.453-3.862 40.011-18.321 7.318-16.133 14.294-39.738 12.434-69.059z"/><path style="fill:#e3aa75" d="M199.886 344.177v40.081c0 26.563 25.123 48.097 56.113 48.097 30.991 0 56.113-21.534 56.113-48.097v-40.081H199.886z"/><path style="fill:#d29b6e" d="M255.999 392.274c20.175 0 39.271-5.185 56.113-14.181v-33.916H199.886v33.916c16.842 8.996 35.938 14.181 56.113 14.181z"/><path style="fill:#dbd9dc" d="M268.023 135.758h-24.049c-35.417 0-64.129-28.712-64.129-64.129S208.557 7.5 243.974 7.5h24.049c35.417 0 64.129 28.712 64.129 64.129 0 35.418-28.711 64.129-64.129 64.129z"/><path style="fill:#c9c6ca" d="M381.988 256c16.404-19.511 26.317-44.66 26.317-72.145 0-61.981-50.245-112.226-112.226-112.226h-80.161c-61.981 0-112.226 50.245-112.226 112.226 0 27.485 9.913 52.634 26.317 72.145h251.979z"/><path style="fill:#b7b2b8" d="M316.12 264.016H195.878c-33.204 0-60.121-26.917-60.121-60.121s26.917-60.121 60.121-60.121H316.12c33.204 0 60.121 26.917 60.121 60.121s-26.917 60.121-60.121 60.121z"/><path style="fill:#f5b97d" d="M372.233 231.952h-9.159c-6.01 0-10.881-4.872-10.881-10.881v-29.2c0-13.282-10.767-24.048-24.048-24.048h-144.29c-13.282 0-24.048 10.767-24.048 24.048v29.2c0 6.009-4.871 10.881-10.881 10.881h-9.159c-11.068 0-20.04 8.972-20.04 20.04s8.972 20.04 20.04 20.04h12.429c4.106 53.795 48.958 96.194 103.805 96.194s99.699-42.398 103.805-96.194h12.429c11.068 0 20.04-8.973 20.04-20.04-.002-11.068-8.974-20.04-20.042-20.04z"/><path style="fill:#e3aa75" d="M183.854 167.823c-13.282 0-24.048 10.767-24.048 24.048v29.2c0 6.088-4.986 10.82-11.072 10.881h-8.968c-11.068 0-20.04 8.972-20.04 20.04s8.972 20.04 20.04 20.04h12.429c4.106 53.795 48.958 96.194 103.805 96.194 5.484 0 10.83-.534 16.083-1.351-49.946-7.708-88.228-50.754-88.228-102.859v-40.081c0-17.709 14.355-32.065 32.065-32.065h96.194c8.854 0 16.032-7.178 16.032-16.032v-8.016H183.854v.001z"/><path d="M285.323 309.436a7.5 7.5 0 0 0-10.535-10.677c-2.737 2.701-9.299 5.855-18.781 5.855s-16.044-3.154-18.781-5.855a7.5 7.5 0 0 0-10.535 10.677c6.46 6.373 17.419 10.177 29.316 10.177s22.856-3.805 29.316-10.177z"/><path d="m397.412 404.75-37.76-13.327a158.123 158.123 0 0 0-.278-6.816c-.612-9.633-7.19-17.862-16.811-20.981l-22.951-7.258v-.577c25.017-17.394 42.615-44.739 47.014-76.258h5.607c15.186 0 27.54-12.354 27.54-27.541 0-2.355-.298-4.642-.857-6.826 11.049-18.497 16.889-39.626 16.889-61.312 0-50.656-31.624-94.062-76.164-111.52.002-.235.011-.471.011-.705C339.652 32.133 307.52 0 268.023 0h-24.049c-39.496 0-71.629 32.133-71.629 71.629 0 .235.009.47.011.706-44.54 17.459-76.164 60.865-76.164 111.521 0 21.681 5.842 42.814 16.89 61.311a27.497 27.497 0 0 0-.857 6.826c0 15.186 12.354 27.541 27.54 27.541h5.607c4.399 31.519 21.997 58.864 47.014 76.258v.577l-23.003 7.275c-9.568 3.103-16.146 11.332-16.759 20.965a158.37 158.37 0 0 0-.279 6.816l-37.759 13.327c-25.386 8.959-42.441 33.066-42.441 59.986V504.5a7.5 7.5 0 0 0 7.5 7.5 7.5 7.5 0 0 0 7.5-7.5v-39.764a48.439 48.439 0 0 1 3.861-18.939l36.69 31.448a24.539 24.539 0 0 1 8.578 18.651v8.604c0 4.142 3.357 7.5 7.5 7.5s7.5-3.358 7.5-7.5v-8.604a39.523 39.523 0 0 0-13.816-30.04l-38.424-32.935a48.487 48.487 0 0 1 20.546-14.027l33.239-11.731c.049.612.095 1.224.152 1.834a7.5 7.5 0 1 0 14.935-1.389 141.95 141.95 0 0 1-.31-22.052c.219-3.452 2.737-6.454 6.363-7.629l18.428-5.828v12.159c0 30.656 28.537 55.597 63.613 55.597s63.613-24.94 63.613-55.597v-12.159l18.376 5.811c3.678 1.192 6.196 4.194 6.415 7.646 1.817 28.656-5.402 51.429-11.778 65.487-5.014 11.053-18.545 17.122-31.482 14.113L266.061 457a44.68 44.68 0 0 0-20.122 0l-35.083 8.157c-12.938 3.009-26.469-3.06-31.482-14.114a134.008 134.008 0 0 1-5.103-13.038 7.5 7.5 0 0 0-14.234 4.732 149.164 149.164 0 0 0 5.677 14.502c8.038 17.724 28.45 27.201 48.539 22.528l35.084-8.157a29.573 29.573 0 0 1 13.327 0l35.083 8.157c3.439.8 6.886 1.185 10.281 1.185 16.432-.001 31.596-9.024 38.258-23.712 5.311-11.709 11.149-28.851 12.888-50.079l33.247 11.734a48.5 48.5 0 0 1 20.546 14.027l-38.424 32.935a39.523 39.523 0 0 0-13.816 30.04v8.604c0 4.142 3.357 7.5 7.5 7.5s7.5-3.358 7.5-7.5v-8.604c0-7.18 3.127-13.978 8.578-18.651l36.69-31.448a48.421 48.421 0 0 1 3.861 18.939V504.5c0 4.142 3.357 7.5 7.5 7.5s7.5-3.358 7.5-7.5v-39.764c-.003-26.92-17.058-51.027-42.444-59.986zM243.975 15h24.049c29.85 0 54.362 23.22 56.465 52.543a119.551 119.551 0 0 0-28.409-3.415h-80.162c-9.786 0-19.298 1.189-28.409 3.415C189.612 38.22 214.124 15 243.975 15zm56.113 209.452c-9.253 0-17.448 4.592-22.445 11.611-6.309-2.338-13.779-3.595-21.644-3.595-7.85 0-15.321 1.269-21.635 3.607-4.995-7.026-13.195-11.623-22.453-11.623h-46.212a23.396 23.396 0 0 0 1.608-8.532v-24.049c0-9.125 7.424-16.548 16.548-16.548h104.21c4.143 0 7.5-3.358 7.5-7.5s-3.357-7.5-7.5-7.5h-104.21c-17.396 0-31.548 14.152-31.548 31.548v24.049c0 4.705-3.828 8.532-8.532 8.532h-4.009a27.414 27.414 0 0 0-17.5 6.291 104.536 104.536 0 0 1-11.072-46.888c0-57.746 46.979-104.726 104.726-104.726h80.162c57.746 0 104.726 46.98 104.726 104.726 0 16.386-3.81 32.405-11.071 46.889a27.412 27.412 0 0 0-17.501-6.292h-4.019c-4.7-.006-8.523-3.83-8.523-8.532v-24.049c0-17.396-14.152-31.548-31.548-31.548h-8.02c-4.143 0-7.5 3.358-7.5 7.5s3.357 7.5 7.5 7.5h8.02c9.125 0 16.548 7.423 16.548 16.548v24.049c0 3.009.574 5.885 1.608 8.532m-49.699 15.502v8.727c0 4.142 3.357 7.5 7.5 7.5s7.5-3.358 7.5-7.5v-8.723c5.216 1.52 9.041 6.334 9.041 12.034 0 6.915-5.626 12.54-12.541 12.54h-8.016c-6.915 0-12.54-5.625-12.54-12.541.001-5.704 3.833-10.522 9.056-12.037zm-96.193 0v8.727c0 4.142 3.357 7.5 7.5 7.5s7.5-3.358 7.5-7.5v-8.723c5.215 1.52 9.04 6.334 9.04 12.034 0 6.915-5.625 12.54-12.54 12.54h-8.016c-6.915 0-12.541-5.625-12.541-12.541 0-5.704 3.834-10.522 9.057-12.037zm-41.121 24.063c0-4.142-3.357-7.5-7.5-7.5s-7.5 3.358-7.5 7.5c0 .173.006.344.007.516h-4.531c-6.915 0-12.54-5.625-12.54-12.541 0-6.915 5.625-12.54 12.54-12.54h39.622a27.36 27.36 0 0 0-3.033 12.54c0 15.186 12.354 27.54 27.541 27.54h8.016c15.186 0 27.54-12.354 27.54-27.541 0-.597-.026-1.188-.063-1.775 4.654-1.757 10.492-2.749 16.612-2.749 6.137 0 11.966.988 16.613 2.744a27.624 27.624 0 0 0-.064 1.781c0 15.186 12.354 27.54 27.54 27.54h8.016c15.187 0 27.541-12.354 27.541-27.541a27.36 27.36 0 0 0-3.033-12.54h39.622c6.915 0 12.54 5.625 12.54 12.54s-5.625 12.541-12.54 12.541h-4.531c.001-.172.007-.344.007-.516 0-4.142-3.357-7.5-7.5-7.5s-7.5 3.358-7.5 7.5c0 53.326-43.384 96.709-96.71 96.709s-96.712-43.383-96.712-96.708zm96.71 160.838c-26.806 0-48.613-18.211-48.613-40.597v-19.677c14.705 7.137 31.2 11.145 48.613 11.145s33.908-4.007 48.613-11.145v19.677c0 22.386-21.807 40.597-48.613 40.597z"/></svg>