<svg xmlns="http://www.w3.org/2000/svg" viewBox="0 0 512.002 512.002" style="enable-background:new 0 0 512.002 512.002" xml:space="preserve"><path style="fill:#2ea2ef" d="m169.597 416.692 17.5 30.311-17.321 10-34.73-.155 17.23-30.156zM89.777 318.439l18.211 133.823 16.609-113.512-17.5-30.311z"/><path style="fill:#54bbff" d="m152.276 426.692 17.5 30.311-82.272 47.5-17.5-30.311L86.613 360.68l-61.609 35.57-17.5-30.311 82.272-47.5 17.5 30.311.712 103.512z"/><path style="fill:#2ea2ef" d="m320.435 301.385 12.165 45.399-28.978 7.764-35.06-14.935 22.896-30.463zM249.27 151.704l-18.434 173.689 59.576-136.055-12.164-45.399z"/><path style="fill:#54bbff" d="m291.458 309.15 12.164 45.398-118.809 31.835-12.164-45.399 59.576-136.055-89.599 24.008-12.165-45.399 118.809-31.834 12.165 45.398-30.599 128.291z"/><path style="fill:#2ea2ef" d="M504.501 209.501v58h-30l-30-29 30-29zM474.501 7.501l-85.72 202 115.72-144v-58z"/><path style="fill:#54bbff" d="M474.501 209.501v58h-160v-58l115.62-144h-115.62v-58h160v58l-85.72 144z"/><path d="M176.088 412.94a7.5 7.5 0 0 0-10.245-2.745l-48.195 27.825 14.366-98.187a7.503 7.503 0 0 0-.926-4.836l-17.5-30.311a7.5 7.5 0 0 0-10.245-2.745l-99.593 57.5a7.498 7.498 0 0 0-2.745 10.245l17.5 30.311a7.501 7.501 0 0 0 10.245 2.745l48.195-27.826-14.366 98.187a7.503 7.503 0 0 0 .926 4.836l17.5 30.311a7.497 7.497 0 0 0 10.245 2.745l99.593-57.5a7.498 7.498 0 0 0 2.745-10.245l-17.5-30.31zm-85.842 81.316-12.447-21.559c16.311-111.481 16.31-111.477 16.31-112.019a7.5 7.5 0 0 0-11.25-6.495l-55.113 31.82-10-17.321 86.603-50 12.447 21.559-16.231 110.933a7.5 7.5 0 0 0 11.171 7.581l55.113-31.82 10 17.321-86.603 50zM327.679 299.442a7.5 7.5 0 0 0-9.185-5.303l-74.529 19.97 53.317-121.765a7.496 7.496 0 0 0 .374-4.949l-12.164-45.398a7.5 7.5 0 0 0-9.185-5.303L128.52 176.293a7.502 7.502 0 0 0-5.303 9.185l12.165 45.398a7.498 7.498 0 0 0 9.186 5.303l74.528-19.97-53.317 121.764a7.496 7.496 0 0 0-.374 4.949l12.165 45.398a7.502 7.502 0 0 0 7.239 5.561c.643 0 1.296-.083 1.946-.258l147.786-39.599a7.5 7.5 0 0 0 5.303-9.186l-12.165-45.396zm-137.563 77.754-9.543-35.614 58.521-133.646a7.501 7.501 0 0 0-8.812-10.253l-82.354 22.066-8.282-30.91 133.298-35.717 9.543 35.614-58.521 133.646a7.501 7.501 0 0 0 8.812 10.253l82.354-22.067 8.282 30.91-133.298 35.718z"/><path d="M512.001 65.501v-58a7.5 7.5 0 0 0-7.5-7.5h-190a7.5 7.5 0 0 0-7.5 7.5v58a7.5 7.5 0 0 0 7.5 7.5h99.979l-38.627 48.108a7.5 7.5 0 0 0 11.697 9.391l48.418-60.303a7.5 7.5 0 0 0-5.848-12.196H322.001v-43h175v47.86L382.932 204.803a7.5 7.5 0 0 0 5.846 12.199h108.223v43h-175V212.14l46.767-58.247a7.5 7.5 0 0 0-11.697-9.391l-48.418 60.304a7.507 7.507 0 0 0-1.651 4.696v58a7.5 7.5 0 0 0 7.5 7.5h190a7.5 7.5 0 0 0 7.5-7.5v-58a7.5 7.5 0 0 0-7.5-7.5H404.427L510.346 70.199a7.49 7.49 0 0 0 1.655-4.698z"/></svg>