<?xml version="1.0" standalone="no"?>
<!DOCTYPE svg PUBLIC "-//W3C//DTD SVG 20010904//EN"
 "http://www.w3.org/TR/2001/REC-SVG-20010904/DTD/svg10.dtd">
<svg version="1.0" xmlns="http://www.w3.org/2000/svg"
 width="512.000000pt" height="512.000000pt" viewBox="0 0 512.000000 512.000000"
 preserveAspectRatio="xMidYMid meet">
<metadata>
Created by potrace 1.14, written by Peter Selinger 2001-2017
</metadata>
<g transform="translate(0.000000,512.000000) scale(0.100000,-0.100000)"
fill="#000000" stroke="none">
<path d="M474 5102 c-56 -23 -99 -61 -126 -114 l-23 -43 -3 -2045 c-2 -2264
-7 -2110 63 -2181 75 -78 35 -74 743 -77 l632 -2 1 -218 c0 -119 2 -225 4
-235 7 -38 36 -85 72 -121 72 -70 -7 -66 1448 -66 1456 0 1368 -4 1438 67 20
19 44 51 54 72 17 34 18 128 20 2096 2 2060 2 2060 -19 2102 -11 24 -37 59
-57 78 -66 65 -65 65 -747 65 l-613 0 -3 233 c-3 259 -7 274 -77 342 -70 68 7
65 -1450 64 -1214 0 -1319 -1 -1357 -17z m2703 -165 c17 -17 18 -114 21 -2040
1 -1112 0 -2032 -3 -2044 -13 -56 48 -53 -1369 -51 -1238 3 -1306 4 -1323 21
-17 17 -18 114 -21 2040 -1 1112 0 2032 3 2044 13 55 -49 53 1367 50 1240 -2
1308 -3 1325 -20z m1416 -626 c13 -5 29 -22 36 -38 8 -21 11 -526 9 -2051 l-3
-2023 -25 -19 c-24 -19 -55 -20 -1337 -17 -1244 2 -1313 3 -1330 20 -16 16
-18 42 -21 237 l-3 220 80 0 79 0 4 -140 c2 -118 6 -142 21 -157 17 -17 78
-18 1178 -18 l1160 0 19 25 c19 24 20 66 20 1883 0 2013 3 1906 -52 1921 -13
3 -258 6 -545 6 l-523 0 0 80 0 80 604 0 c342 0 615 -4 629 -9z m-273 -2071
l0 -1760 -1040 0 -1040 0 0 80 0 80 459 0 c512 0 514 0 585 68 21 20 44 51 52
69 11 25 21 32 53 38 47 8 147 54 199 91 58 42 155 148 205 222 45 68 141 252
130 252 -3 0 -1 6 5 13 25 31 100 300 117 422 4 28 9 59 11 70 26 135 25 583
-2 720 -2 11 -7 40 -10 65 -29 218 -137 512 -249 680 -51 76 -149 181 -207
224 -48 34 -153 84 -195 92 l-33 6 0 164 0 164 480 0 480 0 0 -1760z m-830
1205 c195 -143 342 -455 406 -861 18 -118 26 -443 14 -567 -8 -75 -28 -204
-44 -282 -13 -63 -59 -221 -76 -260 -87 -200 -160 -316 -250 -398 -49 -44
-151 -107 -174 -107 -3 0 -6 571 -6 1270 l0 1269 41 -14 c23 -8 62 -31 89 -50z"/>
<path d="M847 4867 c-23 -7 -46 -47 -153 -259 -69 -137 -124 -251 -122 -253 8
-7 128 -65 136 -65 4 0 20 25 35 55 l27 55 110 0 110 0 27 -55 c15 -30 31 -55
35 -55 7 0 128 58 136 65 7 6 -240 487 -258 502 -23 20 -46 23 -83 10z m51
-282 c11 -24 10 -25 -18 -25 -28 0 -29 1 -18 25 6 14 14 25 18 25 4 0 12 -11
18 -25z"/>
<path d="M697 4226 c-51 -19 -106 -63 -119 -94 -22 -54 -18 -117 9 -159 31
-48 243 -203 287 -209 26 -4 47 6 136 71 58 42 119 89 137 106 89 82 59 219
-60 275 -43 19 -62 22 -121 18 -94 -6 -91 -6 -166 1 -44 3 -77 1 -103 -9z
m151 -167 c27 -11 37 -11 65 0 50 21 83 24 107 11 21 -11 18 -15 -59 -71 l-81
-60 -80 58 c-73 53 -79 59 -63 71 20 15 61 11 111 -9z"/>
<path d="M1370 3590 c-237 -44 -436 -239 -479 -470 -13 -74 -6 -212 14 -280
41 -135 54 -150 489 -587 382 -384 414 -413 446 -413 31 0 63 29 428 392 235
234 410 417 433 452 40 60 74 141 87 204 11 59 7 213 -7 267 -54 197 -203 354
-396 417 -57 18 -100 23 -200 22 -114 -2 -191 -23 -288 -81 -55 -33 -59 -34
-82 -19 -100 66 -194 96 -310 101 -49 2 -110 0 -135 -5z m225 -167 c60 -18
117 -49 174 -98 57 -47 86 -46 147 6 94 78 195 112 314 105 220 -13 396 -186
406 -401 5 -106 -20 -199 -76 -275 -26 -36 -709 -720 -719 -720 -10 0 -675
663 -712 710 -99 125 -114 314 -38 460 91 174 315 268 504 213z"/>
<path d="M2651 1910 c-145 -104 -166 -131 -166 -211 0 -70 31 -115 106 -153
45 -22 60 -24 123 -20 39 3 85 4 101 2 134 -10 211 8 261 64 49 53 55 141 14
201 -32 46 -256 207 -289 207 -17 0 -70 -32 -150 -90z m230 -149 c77 -56 80
-60 59 -71 -24 -13 -57 -10 -107 11 -28 11 -38 11 -65 0 -51 -21 -84 -24 -108
-11 -20 11 -18 14 57 70 43 33 79 60 81 60 1 0 39 -27 83 -59z"/>
<path d="M2553 1437 c-35 -17 -63 -34 -63 -37 1 -3 58 -117 128 -255 119 -234
129 -251 160 -259 62 -17 71 -7 207 264 70 139 125 253 123 255 -8 7 -128 65
-136 65 -4 0 -20 -25 -35 -55 l-27 -55 -110 0 -110 0 -27 55 c-15 30 -32 55
-38 54 -5 0 -38 -14 -72 -32z m265 -262 c-6 -14 -14 -25 -18 -25 -4 0 -12 11
-18 25 -11 24 -10 25 18 25 28 0 29 -1 18 -25z"/>
</g>
</svg>
