<svg xmlns="http://www.w3.org/2000/svg" width="512" height="512" style="enable-background:new 0 0 512 512"
  xml:space="preserve">
  <g opacity="0.3">
    <path
      d="M256 137c-15 0-27-12-27-27V34a27 27 0 0 1 54 0v76c0 15-12 27-27 27zM256 505c-15 0-27-12-27-27v-76a27 27 0 0 1 54 0v76c0 15-12 27-27 27zM172 172a27 27 0 0 1-38 0l-54-54a27 27 0 1 1 38-38l54 54c10 10 10 27 0 38zM432 432a27 27 0 0 1-38 0l-54-54a27 27 0 1 1 38-38l54 54c10 10 10 27 0 38zM137 256c0 15-12 27-27 27H34a27 27 0 0 1 0-54h76c15 0 27 12 27 27zM505 256c0 15-12 27-27 27h-76a27 27 0 0 1 0-54h76c15 0 27 12 27 27zM172 340c10 11 10 28 0 38l-54 54a27 27 0 1 1-38-38l54-54c10-10 27-10 38 0zM432 80c10 11 10 28 0 38l-54 54a27 27 0 1 1-38-38l54-54c10-10 27-10 38 0z"
      fill="#d9e7ec" data-original="#d9e7ec" />
    <path
      d="M283 34v76a27 27 0 0 1-37 25c10-4 17-14 17-25V34a27 27 0 0 0-17-25 27 27 0 0 1 29 6c5 5 8 12 8 19zM229 478v-76a27 27 0 0 1 37-25c-10 4-17 14-17 25v76a27 27 0 0 0 17 25 27 27 0 0 1-29-6c-5-5-8-12-8-19zM394 432l-54-54a27 27 0 0 1 9-43c-4 9-2 21 6 29l53 54a27 27 0 0 0 29 5 27 27 0 0 1-24 17c-7 0-14-3-19-8zM118 80l54 54a27 27 0 0 1-9 43c4-9 2-21-6-29l-53-54a27 27 0 0 0-29-5 27 27 0 0 1 24-17c7 0 14 3 19 8zM478 283h-76a27 27 0 0 1-25-37c4 10 14 17 25 17h76a27 27 0 0 0 25-17 27 27 0 0 1-6 29c-5 5-12 8-19 8zM34 229h76a27 27 0 0 1 25 37c-4-10-14-17-25-17H34a27 27 0 0 0-25 17 27 27 0 0 1 6-29c5-5 12-8 19-8zM432 118l-54 54a27 27 0 0 1-43-9c9 4 21 2 29-6l54-53a27 27 0 0 0 5-29 27 27 0 0 1 17 24c0 7-3 14-8 19z"
      fill="#c5d3dd" data-original="#c5d3dd" />
    <g>
      <path d="m80 394 54-54a27 27 0 0 1 43 9c-9-4-21-2-29 6l-54 53a27 27 0 0 0-5 29 27 27 0 0 1-17-24c0-7 3-14 8-19z"
        fill="#c5d3dd" data-original="#c5d3dd" />
    </g>
    <g>
      <path
        d="M256 0c-19 0-34 15-34 34v76a34 34 0 0 0 68 0V34c0-19-15-34-34-34zm19 110a19 19 0 0 1-38 0V34a19 19 0 0 1 38 0zM256 368c-19 0-34 15-34 34v76a34 34 0 0 0 68 0v-76c0-19-15-34-34-34zm19 110a19 19 0 0 1-38 0v-76a19 19 0 0 1 38 0zM123 75a34 34 0 0 0-48 48l54 54a34 34 0 0 0 48 0c13-13 13-35 0-48zm43 91c-7 8-19 8-27 0l-53-53a19 19 0 0 1 27-27l53 53c8 8 8 20 0 27zM383 335a34 34 0 0 0-48 48l54 54a34 34 0 0 0 48 0c13-13 13-35 0-48zm43 91c-7 8-19 8-27 0l-53-53a19 19 0 0 1 27-27l53 53c8 8 8 20 0 27zM110 275H72a7 7 0 1 0 0 15h38a34 34 0 0 0 0-68H34a34 34 0 0 0 0 68h3a7 7 0 1 0 0-15h-3a19 19 0 0 1 0-38h76a19 19 0 0 1 0 38zM478 222h-76a34 34 0 0 0 0 68h76a34 34 0 0 0 0-68zm0 53h-76a19 19 0 0 1 0-38h76a19 19 0 0 1 0 38zM177 335a34 34 0 0 0-48 0l-54 54a34 34 0 0 0 48 48l54-54c13-13 13-35 0-48zm-11 38-53 53a19 19 0 0 1-27-27l53-53a19 19 0 0 1 27 0c8 7 8 19 0 27zM359 187c9 0 18-4 24-10l6-6a7 7 0 1 0-11-10l-5 5a19 19 0 0 1-27-27l53-53a19 19 0 0 1 27 27l-23 23a7 7 0 0 0 10 11l24-24a34 34 0 0 0-48-48l-54 54a34 34 0 0 0 24 58z"
        data-original="#000000" />
    </g>
  </g>
</svg>